<?xml version="1.0" encoding="utf-8" standalone="no"?>
<!DOCTYPE svg PUBLIC "-//W3C//DTD SVG 1.1//EN"
  "http://www.w3.org/Graphics/SVG/1.1/DTD/svg11.dtd">
<svg xmlns:xlink="http://www.w3.org/1999/xlink" width="414pt" height="288pt" viewBox="0 0 414 288" xmlns="http://www.w3.org/2000/svg" version="1.1">
 <metadata>
  <rdf:RDF xmlns:dc="http://purl.org/dc/elements/1.1/" xmlns:cc="http://creativecommons.org/ns#" xmlns:rdf="http://www.w3.org/1999/02/22-rdf-syntax-ns#">
   <cc:Work>
    <dc:type rdf:resource="http://purl.org/dc/dcmitype/StillImage"/>
    <dc:date>2023-09-07T00:36:38.694996</dc:date>
    <dc:format>image/svg+xml</dc:format>
    <dc:creator>
     <cc:Agent>
      <dc:title>Matplotlib v3.7.2, https://matplotlib.org/</dc:title>
     </cc:Agent>
    </dc:creator>
   </cc:Work>
  </rdf:RDF>
 </metadata>
 <defs>
  <style type="text/css">*{stroke-linejoin: round; stroke-linecap: butt}</style>
 </defs>
 <g id="figure_1">
  <g id="patch_1">
   <path d="M 0 288 
L 414 288 
L 414 0 
L 0 0 
L 0 288 
z
" style="fill: none"/>
  </g>
  <g id="axes_1">
   <g id="patch_2">
    <path d="M 93.235625 241.036875 
L 403.2 241.036875 
L 403.2 10.8 
L 93.235625 10.8 
L 93.235625 241.036875 
z
" style="fill: none"/>
   </g>
   <g id="matplotlib.axis_1">
    <g id="xtick_1">
     <g id="line2d_1">
      <defs>
       <path id="m3f62a60696" d="M 0 0 
L 0 3.5 
" style="stroke: #000000; stroke-width: 0.8"/>
      </defs>
      <g>
       <use xlink:href="#m3f62a60696" x="107.324915" y="241.036875" style="stroke: #000000; stroke-width: 0.8"/>
      </g>
     </g>
     <g id="text_1">
      <!-- 0.0 -->
      <g transform="translate(94.602415 260.194375) scale(0.16 -0.16)">
       <defs>
        <path id="DejaVuSans-30" d="M 2034 4250 
Q 1547 4250 1301 3770 
Q 1056 3291 1056 2328 
Q 1056 1369 1301 889 
Q 1547 409 2034 409 
Q 2525 409 2770 889 
Q 3016 1369 3016 2328 
Q 3016 3291 2770 3770 
Q 2525 4250 2034 4250 
z
M 2034 4750 
Q 2819 4750 3233 4129 
Q 3647 3509 3647 2328 
Q 3647 1150 3233 529 
Q 2819 -91 2034 -91 
Q 1250 -91 836 529 
Q 422 1150 422 2328 
Q 422 3509 836 4129 
Q 1250 4750 2034 4750 
z
" transform="scale(0.015625)"/>
        <path id="DejaVuSans-2e" d="M 684 794 
L 1344 794 
L 1344 0 
L 684 0 
L 684 794 
z
" transform="scale(0.015625)"/>
       </defs>
       <use xlink:href="#DejaVuSans-30"/>
       <use xlink:href="#DejaVuSans-2e" x="63.623047"/>
       <use xlink:href="#DejaVuSans-30" x="95.410156"/>
      </g>
     </g>
    </g>
    <g id="xtick_2">
     <g id="line2d_2">
      <g>
       <use xlink:href="#m3f62a60696" x="163.690016" y="241.036875" style="stroke: #000000; stroke-width: 0.8"/>
      </g>
     </g>
     <g id="text_2">
      <!-- 0.2 -->
      <g transform="translate(150.967516 260.194375) scale(0.16 -0.16)">
       <defs>
        <path id="DejaVuSans-32" d="M 1228 531 
L 3431 531 
L 3431 0 
L 469 0 
L 469 531 
Q 828 903 1448 1529 
Q 2069 2156 2228 2338 
Q 2531 2678 2651 2914 
Q 2772 3150 2772 3378 
Q 2772 3750 2511 3984 
Q 2250 4219 1831 4219 
Q 1534 4219 1204 4116 
Q 875 4013 500 3803 
L 500 4441 
Q 881 4594 1212 4672 
Q 1544 4750 1819 4750 
Q 2544 4750 2975 4387 
Q 3406 4025 3406 3419 
Q 3406 3131 3298 2873 
Q 3191 2616 2906 2266 
Q 2828 2175 2409 1742 
Q 1991 1309 1228 531 
z
" transform="scale(0.015625)"/>
       </defs>
       <use xlink:href="#DejaVuSans-30"/>
       <use xlink:href="#DejaVuSans-2e" x="63.623047"/>
       <use xlink:href="#DejaVuSans-32" x="95.410156"/>
      </g>
     </g>
    </g>
    <g id="xtick_3">
     <g id="line2d_3">
      <g>
       <use xlink:href="#m3f62a60696" x="220.055117" y="241.036875" style="stroke: #000000; stroke-width: 0.8"/>
      </g>
     </g>
     <g id="text_3">
      <!-- 0.4 -->
      <g transform="translate(207.332617 260.194375) scale(0.16 -0.16)">
       <defs>
        <path id="DejaVuSans-34" d="M 2419 4116 
L 825 1625 
L 2419 1625 
L 2419 4116 
z
M 2253 4666 
L 3047 4666 
L 3047 1625 
L 3713 1625 
L 3713 1100 
L 3047 1100 
L 3047 0 
L 2419 0 
L 2419 1100 
L 313 1100 
L 313 1709 
L 2253 4666 
z
" transform="scale(0.015625)"/>
       </defs>
       <use xlink:href="#DejaVuSans-30"/>
       <use xlink:href="#DejaVuSans-2e" x="63.623047"/>
       <use xlink:href="#DejaVuSans-34" x="95.410156"/>
      </g>
     </g>
    </g>
    <g id="xtick_4">
     <g id="line2d_4">
      <g>
       <use xlink:href="#m3f62a60696" x="276.420218" y="241.036875" style="stroke: #000000; stroke-width: 0.8"/>
      </g>
     </g>
     <g id="text_4">
      <!-- 0.6 -->
      <g transform="translate(263.697718 260.194375) scale(0.16 -0.16)">
       <defs>
        <path id="DejaVuSans-36" d="M 2113 2584 
Q 1688 2584 1439 2293 
Q 1191 2003 1191 1497 
Q 1191 994 1439 701 
Q 1688 409 2113 409 
Q 2538 409 2786 701 
Q 3034 994 3034 1497 
Q 3034 2003 2786 2293 
Q 2538 2584 2113 2584 
z
M 3366 4563 
L 3366 3988 
Q 3128 4100 2886 4159 
Q 2644 4219 2406 4219 
Q 1781 4219 1451 3797 
Q 1122 3375 1075 2522 
Q 1259 2794 1537 2939 
Q 1816 3084 2150 3084 
Q 2853 3084 3261 2657 
Q 3669 2231 3669 1497 
Q 3669 778 3244 343 
Q 2819 -91 2113 -91 
Q 1303 -91 875 529 
Q 447 1150 447 2328 
Q 447 3434 972 4092 
Q 1497 4750 2381 4750 
Q 2619 4750 2861 4703 
Q 3103 4656 3366 4563 
z
" transform="scale(0.015625)"/>
       </defs>
       <use xlink:href="#DejaVuSans-30"/>
       <use xlink:href="#DejaVuSans-2e" x="63.623047"/>
       <use xlink:href="#DejaVuSans-36" x="95.410156"/>
      </g>
     </g>
    </g>
    <g id="xtick_5">
     <g id="line2d_5">
      <g>
       <use xlink:href="#m3f62a60696" x="332.78532" y="241.036875" style="stroke: #000000; stroke-width: 0.8"/>
      </g>
     </g>
     <g id="text_5">
      <!-- 0.8 -->
      <g transform="translate(320.06282 260.194375) scale(0.16 -0.16)">
       <defs>
        <path id="DejaVuSans-38" d="M 2034 2216 
Q 1584 2216 1326 1975 
Q 1069 1734 1069 1313 
Q 1069 891 1326 650 
Q 1584 409 2034 409 
Q 2484 409 2743 651 
Q 3003 894 3003 1313 
Q 3003 1734 2745 1975 
Q 2488 2216 2034 2216 
z
M 1403 2484 
Q 997 2584 770 2862 
Q 544 3141 544 3541 
Q 544 4100 942 4425 
Q 1341 4750 2034 4750 
Q 2731 4750 3128 4425 
Q 3525 4100 3525 3541 
Q 3525 3141 3298 2862 
Q 3072 2584 2669 2484 
Q 3125 2378 3379 2068 
Q 3634 1759 3634 1313 
Q 3634 634 3220 271 
Q 2806 -91 2034 -91 
Q 1263 -91 848 271 
Q 434 634 434 1313 
Q 434 1759 690 2068 
Q 947 2378 1403 2484 
z
M 1172 3481 
Q 1172 3119 1398 2916 
Q 1625 2713 2034 2713 
Q 2441 2713 2670 2916 
Q 2900 3119 2900 3481 
Q 2900 3844 2670 4047 
Q 2441 4250 2034 4250 
Q 1625 4250 1398 4047 
Q 1172 3844 1172 3481 
z
" transform="scale(0.015625)"/>
       </defs>
       <use xlink:href="#DejaVuSans-30"/>
       <use xlink:href="#DejaVuSans-2e" x="63.623047"/>
       <use xlink:href="#DejaVuSans-38" x="95.410156"/>
      </g>
     </g>
    </g>
    <g id="xtick_6">
     <g id="line2d_6">
      <g>
       <use xlink:href="#m3f62a60696" x="389.150421" y="241.036875" style="stroke: #000000; stroke-width: 0.8"/>
      </g>
     </g>
     <g id="text_6">
      <!-- 1.0 -->
      <g transform="translate(376.427921 260.194375) scale(0.16 -0.16)">
       <defs>
        <path id="DejaVuSans-31" d="M 794 531 
L 1825 531 
L 1825 4091 
L 703 3866 
L 703 4441 
L 1819 4666 
L 2450 4666 
L 2450 531 
L 3481 531 
L 3481 0 
L 794 0 
L 794 531 
z
" transform="scale(0.015625)"/>
       </defs>
       <use xlink:href="#DejaVuSans-31"/>
       <use xlink:href="#DejaVuSans-2e" x="63.623047"/>
       <use xlink:href="#DejaVuSans-30" x="95.410156"/>
      </g>
     </g>
    </g>
    <g id="text_7">
     <!-- Time [orbits] -->
     <g transform="translate(216.250625 275.120313) scale(0.1 -0.1)">
      <defs>
       <path id="DejaVuSans-54" d="M -19 4666 
L 3928 4666 
L 3928 4134 
L 2272 4134 
L 2272 0 
L 1638 0 
L 1638 4134 
L -19 4134 
L -19 4666 
z
" transform="scale(0.015625)"/>
       <path id="DejaVuSans-69" d="M 603 3500 
L 1178 3500 
L 1178 0 
L 603 0 
L 603 3500 
z
M 603 4863 
L 1178 4863 
L 1178 4134 
L 603 4134 
L 603 4863 
z
" transform="scale(0.015625)"/>
       <path id="DejaVuSans-6d" d="M 3328 2828 
Q 3544 3216 3844 3400 
Q 4144 3584 4550 3584 
Q 5097 3584 5394 3201 
Q 5691 2819 5691 2113 
L 5691 0 
L 5113 0 
L 5113 2094 
Q 5113 2597 4934 2840 
Q 4756 3084 4391 3084 
Q 3944 3084 3684 2787 
Q 3425 2491 3425 1978 
L 3425 0 
L 2847 0 
L 2847 2094 
Q 2847 2600 2669 2842 
Q 2491 3084 2119 3084 
Q 1678 3084 1418 2786 
Q 1159 2488 1159 1978 
L 1159 0 
L 581 0 
L 581 3500 
L 1159 3500 
L 1159 2956 
Q 1356 3278 1631 3431 
Q 1906 3584 2284 3584 
Q 2666 3584 2933 3390 
Q 3200 3197 3328 2828 
z
" transform="scale(0.015625)"/>
       <path id="DejaVuSans-65" d="M 3597 1894 
L 3597 1613 
L 953 1613 
Q 991 1019 1311 708 
Q 1631 397 2203 397 
Q 2534 397 2845 478 
Q 3156 559 3463 722 
L 3463 178 
Q 3153 47 2828 -22 
Q 2503 -91 2169 -91 
Q 1331 -91 842 396 
Q 353 884 353 1716 
Q 353 2575 817 3079 
Q 1281 3584 2069 3584 
Q 2775 3584 3186 3129 
Q 3597 2675 3597 1894 
z
M 3022 2063 
Q 3016 2534 2758 2815 
Q 2500 3097 2075 3097 
Q 1594 3097 1305 2825 
Q 1016 2553 972 2059 
L 3022 2063 
z
" transform="scale(0.015625)"/>
       <path id="DejaVuSans-20" transform="scale(0.015625)"/>
       <path id="DejaVuSans-5b" d="M 550 4863 
L 1875 4863 
L 1875 4416 
L 1125 4416 
L 1125 -397 
L 1875 -397 
L 1875 -844 
L 550 -844 
L 550 4863 
z
" transform="scale(0.015625)"/>
       <path id="DejaVuSans-6f" d="M 1959 3097 
Q 1497 3097 1228 2736 
Q 959 2375 959 1747 
Q 959 1119 1226 758 
Q 1494 397 1959 397 
Q 2419 397 2687 759 
Q 2956 1122 2956 1747 
Q 2956 2369 2687 2733 
Q 2419 3097 1959 3097 
z
M 1959 3584 
Q 2709 3584 3137 3096 
Q 3566 2609 3566 1747 
Q 3566 888 3137 398 
Q 2709 -91 1959 -91 
Q 1206 -91 779 398 
Q 353 888 353 1747 
Q 353 2609 779 3096 
Q 1206 3584 1959 3584 
z
" transform="scale(0.015625)"/>
       <path id="DejaVuSans-72" d="M 2631 2963 
Q 2534 3019 2420 3045 
Q 2306 3072 2169 3072 
Q 1681 3072 1420 2755 
Q 1159 2438 1159 1844 
L 1159 0 
L 581 0 
L 581 3500 
L 1159 3500 
L 1159 2956 
Q 1341 3275 1631 3429 
Q 1922 3584 2338 3584 
Q 2397 3584 2469 3576 
Q 2541 3569 2628 3553 
L 2631 2963 
z
" transform="scale(0.015625)"/>
       <path id="DejaVuSans-62" d="M 3116 1747 
Q 3116 2381 2855 2742 
Q 2594 3103 2138 3103 
Q 1681 3103 1420 2742 
Q 1159 2381 1159 1747 
Q 1159 1113 1420 752 
Q 1681 391 2138 391 
Q 2594 391 2855 752 
Q 3116 1113 3116 1747 
z
M 1159 2969 
Q 1341 3281 1617 3432 
Q 1894 3584 2278 3584 
Q 2916 3584 3314 3078 
Q 3713 2572 3713 1747 
Q 3713 922 3314 415 
Q 2916 -91 2278 -91 
Q 1894 -91 1617 61 
Q 1341 213 1159 525 
L 1159 0 
L 581 0 
L 581 4863 
L 1159 4863 
L 1159 2969 
z
" transform="scale(0.015625)"/>
       <path id="DejaVuSans-74" d="M 1172 4494 
L 1172 3500 
L 2356 3500 
L 2356 3053 
L 1172 3053 
L 1172 1153 
Q 1172 725 1289 603 
Q 1406 481 1766 481 
L 2356 481 
L 2356 0 
L 1766 0 
Q 1100 0 847 248 
Q 594 497 594 1153 
L 594 3053 
L 172 3053 
L 172 3500 
L 594 3500 
L 594 4494 
L 1172 4494 
z
" transform="scale(0.015625)"/>
       <path id="DejaVuSans-73" d="M 2834 3397 
L 2834 2853 
Q 2591 2978 2328 3040 
Q 2066 3103 1784 3103 
Q 1356 3103 1142 2972 
Q 928 2841 928 2578 
Q 928 2378 1081 2264 
Q 1234 2150 1697 2047 
L 1894 2003 
Q 2506 1872 2764 1633 
Q 3022 1394 3022 966 
Q 3022 478 2636 193 
Q 2250 -91 1575 -91 
Q 1294 -91 989 -36 
Q 684 19 347 128 
L 347 722 
Q 666 556 975 473 
Q 1284 391 1588 391 
Q 1994 391 2212 530 
Q 2431 669 2431 922 
Q 2431 1156 2273 1281 
Q 2116 1406 1581 1522 
L 1381 1569 
Q 847 1681 609 1914 
Q 372 2147 372 2553 
Q 372 3047 722 3315 
Q 1072 3584 1716 3584 
Q 2034 3584 2315 3537 
Q 2597 3491 2834 3397 
z
" transform="scale(0.015625)"/>
       <path id="DejaVuSans-5d" d="M 1947 4863 
L 1947 -844 
L 622 -844 
L 622 -397 
L 1369 -397 
L 1369 4416 
L 622 4416 
L 622 4863 
L 1947 4863 
z
" transform="scale(0.015625)"/>
      </defs>
      <use xlink:href="#DejaVuSans-54"/>
      <use xlink:href="#DejaVuSans-69" x="57.958984"/>
      <use xlink:href="#DejaVuSans-6d" x="85.742188"/>
      <use xlink:href="#DejaVuSans-65" x="183.154297"/>
      <use xlink:href="#DejaVuSans-20" x="244.677734"/>
      <use xlink:href="#DejaVuSans-5b" x="276.464844"/>
      <use xlink:href="#DejaVuSans-6f" x="315.478516"/>
      <use xlink:href="#DejaVuSans-72" x="376.660156"/>
      <use xlink:href="#DejaVuSans-62" x="417.773438"/>
      <use xlink:href="#DejaVuSans-69" x="481.25"/>
      <use xlink:href="#DejaVuSans-74" x="509.033203"/>
      <use xlink:href="#DejaVuSans-73" x="548.242188"/>
      <use xlink:href="#DejaVuSans-5d" x="600.341797"/>
     </g>
    </g>
   </g>
   <g id="matplotlib.axis_2">
    <g id="ytick_1">
     <g id="line2d_7">
      <defs>
       <path id="m670d09a43e" d="M 0 0 
L -3.5 0 
" style="stroke: #000000; stroke-width: 0.8"/>
      </defs>
      <g>
       <use xlink:href="#m670d09a43e" x="93.235625" y="213.622222" style="stroke: #000000; stroke-width: 0.8"/>
      </g>
     </g>
     <g id="text_8">
      <!-- -20,000 -->
      <g transform="translate(24.478125 219.700972) scale(0.16 -0.16)">
       <defs>
        <path id="DejaVuSans-2d" d="M 313 2009 
L 1997 2009 
L 1997 1497 
L 313 1497 
L 313 2009 
z
" transform="scale(0.015625)"/>
        <path id="DejaVuSans-2c" d="M 750 794 
L 1409 794 
L 1409 256 
L 897 -744 
L 494 -744 
L 750 256 
L 750 794 
z
" transform="scale(0.015625)"/>
       </defs>
       <use xlink:href="#DejaVuSans-2d"/>
       <use xlink:href="#DejaVuSans-32" x="36.083984"/>
       <use xlink:href="#DejaVuSans-30" x="99.707031"/>
       <use xlink:href="#DejaVuSans-2c" x="163.330078"/>
       <use xlink:href="#DejaVuSans-30" x="195.117188"/>
       <use xlink:href="#DejaVuSans-30" x="258.740234"/>
       <use xlink:href="#DejaVuSans-30" x="322.363281"/>
      </g>
     </g>
    </g>
    <g id="ytick_2">
     <g id="line2d_8">
      <g>
       <use xlink:href="#m670d09a43e" x="93.235625" y="154.650524" style="stroke: #000000; stroke-width: 0.8"/>
      </g>
     </g>
     <g id="text_9">
      <!-- -10,000 -->
      <g transform="translate(24.478125 160.729274) scale(0.16 -0.16)">
       <use xlink:href="#DejaVuSans-2d"/>
       <use xlink:href="#DejaVuSans-31" x="36.083984"/>
       <use xlink:href="#DejaVuSans-30" x="99.707031"/>
       <use xlink:href="#DejaVuSans-2c" x="163.330078"/>
       <use xlink:href="#DejaVuSans-30" x="195.117188"/>
       <use xlink:href="#DejaVuSans-30" x="258.740234"/>
       <use xlink:href="#DejaVuSans-30" x="322.363281"/>
      </g>
     </g>
    </g>
    <g id="ytick_3">
     <g id="line2d_9">
      <g>
       <use xlink:href="#m670d09a43e" x="93.235625" y="95.678825" style="stroke: #000000; stroke-width: 0.8"/>
      </g>
     </g>
     <g id="text_10">
      <!-- 0 -->
      <g transform="translate(76.055625 101.757575) scale(0.16 -0.16)">
       <use xlink:href="#DejaVuSans-30"/>
      </g>
     </g>
    </g>
    <g id="ytick_4">
     <g id="line2d_10">
      <g>
       <use xlink:href="#m670d09a43e" x="93.235625" y="36.707127" style="stroke: #000000; stroke-width: 0.8"/>
      </g>
     </g>
     <g id="text_11">
      <!-- 10,000 -->
      <g transform="translate(30.250625 42.785877) scale(0.16 -0.16)">
       <use xlink:href="#DejaVuSans-31"/>
       <use xlink:href="#DejaVuSans-30" x="63.623047"/>
       <use xlink:href="#DejaVuSans-2c" x="127.246094"/>
       <use xlink:href="#DejaVuSans-30" x="159.033203"/>
       <use xlink:href="#DejaVuSans-30" x="222.65625"/>
       <use xlink:href="#DejaVuSans-30" x="286.279297"/>
      </g>
     </g>
    </g>
    <g id="text_12">
     <!-- Magnetic Field [nT] -->
     <g transform="translate(18.398438 173.659062) rotate(-90) scale(0.1 -0.1)">
      <defs>
       <path id="DejaVuSans-4d" d="M 628 4666 
L 1569 4666 
L 2759 1491 
L 3956 4666 
L 4897 4666 
L 4897 0 
L 4281 0 
L 4281 4097 
L 3078 897 
L 2444 897 
L 1241 4097 
L 1241 0 
L 628 0 
L 628 4666 
z
" transform="scale(0.015625)"/>
       <path id="DejaVuSans-61" d="M 2194 1759 
Q 1497 1759 1228 1600 
Q 959 1441 959 1056 
Q 959 750 1161 570 
Q 1363 391 1709 391 
Q 2188 391 2477 730 
Q 2766 1069 2766 1631 
L 2766 1759 
L 2194 1759 
z
M 3341 1997 
L 3341 0 
L 2766 0 
L 2766 531 
Q 2569 213 2275 61 
Q 1981 -91 1556 -91 
Q 1019 -91 701 211 
Q 384 513 384 1019 
Q 384 1609 779 1909 
Q 1175 2209 1959 2209 
L 2766 2209 
L 2766 2266 
Q 2766 2663 2505 2880 
Q 2244 3097 1772 3097 
Q 1472 3097 1187 3025 
Q 903 2953 641 2809 
L 641 3341 
Q 956 3463 1253 3523 
Q 1550 3584 1831 3584 
Q 2591 3584 2966 3190 
Q 3341 2797 3341 1997 
z
" transform="scale(0.015625)"/>
       <path id="DejaVuSans-67" d="M 2906 1791 
Q 2906 2416 2648 2759 
Q 2391 3103 1925 3103 
Q 1463 3103 1205 2759 
Q 947 2416 947 1791 
Q 947 1169 1205 825 
Q 1463 481 1925 481 
Q 2391 481 2648 825 
Q 2906 1169 2906 1791 
z
M 3481 434 
Q 3481 -459 3084 -895 
Q 2688 -1331 1869 -1331 
Q 1566 -1331 1297 -1286 
Q 1028 -1241 775 -1147 
L 775 -588 
Q 1028 -725 1275 -790 
Q 1522 -856 1778 -856 
Q 2344 -856 2625 -561 
Q 2906 -266 2906 331 
L 2906 616 
Q 2728 306 2450 153 
Q 2172 0 1784 0 
Q 1141 0 747 490 
Q 353 981 353 1791 
Q 353 2603 747 3093 
Q 1141 3584 1784 3584 
Q 2172 3584 2450 3431 
Q 2728 3278 2906 2969 
L 2906 3500 
L 3481 3500 
L 3481 434 
z
" transform="scale(0.015625)"/>
       <path id="DejaVuSans-6e" d="M 3513 2113 
L 3513 0 
L 2938 0 
L 2938 2094 
Q 2938 2591 2744 2837 
Q 2550 3084 2163 3084 
Q 1697 3084 1428 2787 
Q 1159 2491 1159 1978 
L 1159 0 
L 581 0 
L 581 3500 
L 1159 3500 
L 1159 2956 
Q 1366 3272 1645 3428 
Q 1925 3584 2291 3584 
Q 2894 3584 3203 3211 
Q 3513 2838 3513 2113 
z
" transform="scale(0.015625)"/>
       <path id="DejaVuSans-63" d="M 3122 3366 
L 3122 2828 
Q 2878 2963 2633 3030 
Q 2388 3097 2138 3097 
Q 1578 3097 1268 2742 
Q 959 2388 959 1747 
Q 959 1106 1268 751 
Q 1578 397 2138 397 
Q 2388 397 2633 464 
Q 2878 531 3122 666 
L 3122 134 
Q 2881 22 2623 -34 
Q 2366 -91 2075 -91 
Q 1284 -91 818 406 
Q 353 903 353 1747 
Q 353 2603 823 3093 
Q 1294 3584 2113 3584 
Q 2378 3584 2631 3529 
Q 2884 3475 3122 3366 
z
" transform="scale(0.015625)"/>
       <path id="DejaVuSans-46" d="M 628 4666 
L 3309 4666 
L 3309 4134 
L 1259 4134 
L 1259 2759 
L 3109 2759 
L 3109 2228 
L 1259 2228 
L 1259 0 
L 628 0 
L 628 4666 
z
" transform="scale(0.015625)"/>
       <path id="DejaVuSans-6c" d="M 603 4863 
L 1178 4863 
L 1178 0 
L 603 0 
L 603 4863 
z
" transform="scale(0.015625)"/>
       <path id="DejaVuSans-64" d="M 2906 2969 
L 2906 4863 
L 3481 4863 
L 3481 0 
L 2906 0 
L 2906 525 
Q 2725 213 2448 61 
Q 2172 -91 1784 -91 
Q 1150 -91 751 415 
Q 353 922 353 1747 
Q 353 2572 751 3078 
Q 1150 3584 1784 3584 
Q 2172 3584 2448 3432 
Q 2725 3281 2906 2969 
z
M 947 1747 
Q 947 1113 1208 752 
Q 1469 391 1925 391 
Q 2381 391 2643 752 
Q 2906 1113 2906 1747 
Q 2906 2381 2643 2742 
Q 2381 3103 1925 3103 
Q 1469 3103 1208 2742 
Q 947 2381 947 1747 
z
" transform="scale(0.015625)"/>
      </defs>
      <use xlink:href="#DejaVuSans-4d"/>
      <use xlink:href="#DejaVuSans-61" x="86.279297"/>
      <use xlink:href="#DejaVuSans-67" x="147.558594"/>
      <use xlink:href="#DejaVuSans-6e" x="211.035156"/>
      <use xlink:href="#DejaVuSans-65" x="274.414062"/>
      <use xlink:href="#DejaVuSans-74" x="335.9375"/>
      <use xlink:href="#DejaVuSans-69" x="375.146484"/>
      <use xlink:href="#DejaVuSans-63" x="402.929688"/>
      <use xlink:href="#DejaVuSans-20" x="457.910156"/>
      <use xlink:href="#DejaVuSans-46" x="489.697266"/>
      <use xlink:href="#DejaVuSans-69" x="539.966797"/>
      <use xlink:href="#DejaVuSans-65" x="567.75"/>
      <use xlink:href="#DejaVuSans-6c" x="629.273438"/>
      <use xlink:href="#DejaVuSans-64" x="657.056641"/>
      <use xlink:href="#DejaVuSans-20" x="720.533203"/>
      <use xlink:href="#DejaVuSans-5b" x="752.320312"/>
      <use xlink:href="#DejaVuSans-6e" x="791.333984"/>
      <use xlink:href="#DejaVuSans-54" x="854.712891"/>
      <use xlink:href="#DejaVuSans-5d" x="915.796875"/>
     </g>
    </g>
   </g>
   <g id="line2d_11">
    <path d="M 107.324915 108.203609 
L 110.034394 99.797811 
L 112.743872 93.648726 
L 115.453351 89.325259 
L 118.16283 86.399661 
L 120.872309 84.509259 
L 123.581788 83.368618 
L 126.291266 82.762043 
L 129.000745 82.530379 
L 131.710224 82.557898 
L 134.419703 82.761245 
L 137.129182 83.080793 
L 139.83866 83.47413 
L 142.548139 83.911264 
L 145.257618 84.371137 
L 147.967097 84.839104 
L 150.676576 85.305118 
L 153.386054 85.762421 
L 156.095533 86.206612 
L 158.805012 86.634964 
L 161.514491 87.045943 
L 164.22397 87.438851 
L 166.933448 87.813578 
L 169.642927 88.170416 
L 172.352406 88.50993 
L 175.061885 88.832862 
L 177.771364 89.140062 
L 180.480842 89.432447 
L 183.190321 89.710958 
L 185.8998 89.976543 
L 188.609279 90.230142 
L 191.318758 90.472671 
L 194.028236 90.705021 
L 196.737715 90.928056 
L 199.447194 91.142606 
L 202.156673 91.349474 
L 204.866152 91.549432 
L 207.57563 91.743229 
L 210.285109 91.931587 
L 212.994588 92.115214 
L 215.704067 92.294798 
L 218.413546 92.471017 
L 221.123024 92.644543 
L 223.832503 92.816044 
L 226.541982 92.98619 
L 229.251461 93.155659 
L 231.96094 93.325142 
L 234.670418 93.495347 
L 237.379897 93.667009 
L 240.089376 93.840891 
L 242.798855 94.017796 
L 245.508334 94.198575 
L 248.217812 94.38413 
L 250.927291 94.575429 
L 253.63677 94.773516 
L 256.346249 94.979519 
L 259.055728 95.194666 
L 261.765207 95.420296 
L 264.474685 95.657877 
L 267.184164 95.909022 
L 269.893643 96.175507 
L 272.603122 96.459287 
L 275.312601 96.762525 
L 278.022079 97.0876 
L 280.731558 97.437138 
L 283.441037 97.814023 
L 286.150516 98.221406 
L 288.859995 98.662712 
L 291.569473 99.141619 
L 294.278952 99.662015 
L 296.988431 100.22791 
L 299.69791 100.843279 
L 302.407389 101.511796 
L 305.116867 102.236408 
L 307.826346 103.018649 
L 310.535825 103.857578 
L 313.245304 104.748118 
L 315.954783 105.678496 
L 318.664261 106.626309 
L 321.37374 107.552496 
L 324.083219 108.392151 
L 326.792698 109.04062 
L 329.502177 109.332719 
L 332.211655 109.012313 
L 334.921134 107.689391 
L 337.630613 104.783579 
L 340.340092 99.459952 
L 343.049571 90.582198 
L 345.759049 76.752107 
L 348.468528 56.587007 
L 351.178007 29.494953 
L 353.887486 95.678825 
L 356.596965 95.678825 
L 359.306443 95.678825 
L 362.015922 95.678825 
L 364.725401 95.678825 
L 367.43488 95.678825 
L 370.144359 95.678825 
L 372.853837 95.678825 
L 375.563316 95.678825 
L 378.272795 95.678825 
L 380.982274 146.499052 
L 383.691753 132.523825 
L 386.401231 119.310986 
L 389.11071 108.345324 
" clip-path="url(#p63540e0d1c)" style="fill: none; stroke: #2b737e; stroke-width: 1.5; stroke-linecap: square"/>
   </g>
   <g id="line2d_12">
    <path d="M 107.324915 136.675469 
L 110.034394 124.209101 
L 112.743872 114.49842 
L 115.453351 107.125526 
L 118.16283 101.62425 
L 120.872309 97.57343 
L 123.581788 94.625634 
L 126.291266 92.507413 
L 129.000745 91.009063 
L 131.710224 89.972102 
L 134.419703 89.277701 
L 137.129182 88.837113 
L 139.83866 88.58415 
L 142.548139 88.469454 
L 145.257618 88.456188 
L 147.967097 88.516832 
L 150.676576 88.630811 
L 153.386054 88.78273 
L 156.095533 88.961076 
L 158.805012 89.157245 
L 161.514491 89.36483 
L 164.22397 89.579075 
L 166.933448 89.796479 
L 169.642927 90.014489 
L 172.352406 90.231274 
L 175.061885 90.445556 
L 177.771364 90.656472 
L 180.480842 90.863481 
L 183.190321 91.066286 
L 185.8998 91.264779 
L 188.609279 91.458994 
L 191.318758 91.649074 
L 194.028236 91.83525 
L 196.737715 92.017818 
L 199.447194 92.197127 
L 202.156673 92.373566 
L 204.866152 92.547561 
L 207.57563 92.719568 
L 210.285109 92.890068 
L 212.994588 93.059569 
L 215.704067 93.228605 
L 218.413546 93.397733 
L 221.123024 93.567543 
L 223.832503 93.738652 
L 226.541982 93.911715 
L 229.251461 94.087426 
L 231.96094 94.266525 
L 234.670418 94.449802 
L 237.379897 94.638108 
L 240.089376 94.832362 
L 242.798855 95.033562 
L 245.508334 95.242794 
L 248.217812 95.461247 
L 250.927291 95.69023 
L 253.63677 95.931184 
L 256.346249 96.185705 
L 259.055728 96.455568 
L 261.765207 96.742748 
L 264.474685 97.049456 
L 267.184164 97.378168 
L 269.893643 97.731665 
L 272.603122 98.113079 
L 275.312601 98.525946 
L 278.022079 98.974256 
L 280.731558 99.46253 
L 283.441037 99.99588 
L 286.150516 100.5801 
L 288.859995 101.221744 
L 291.569473 101.928216 
L 294.278952 102.707859 
L 296.988431 103.570022 
L 299.69791 104.525105 
L 302.407389 105.584544 
L 305.116867 106.760687 
L 307.826346 108.066497 
L 310.535825 109.51495 
L 313.245304 111.117949 
L 315.954783 112.884441 
L 318.664261 114.817254 
L 321.37374 116.907913 
L 324.083219 119.128231 
L 326.792698 121.41691 
L 329.502177 123.658453 
L 332.211655 125.65071 
L 334.921134 127.056455 
L 337.630613 127.334953 
L 340.340092 125.654696 
L 343.049571 120.806124 
L 345.759049 111.178115 
L 348.468528 94.955266 
L 351.178007 70.834651 
L 353.887486 95.678825 
L 356.596965 95.678825 
L 359.306443 95.678825 
L 362.015922 95.678825 
L 364.725401 95.678825 
L 367.43488 95.678825 
L 370.144359 95.678825 
L 372.853837 95.678825 
L 375.563316 95.678825 
L 378.272795 95.678825 
L 380.982274 187.984384 
L 383.691753 170.015833 
L 386.401231 152.29013 
L 389.11071 136.879996 
" clip-path="url(#p63540e0d1c)" style="fill: none; stroke: #5ea04b; stroke-width: 1.5; stroke-linecap: square"/>
   </g>
   <g id="line2d_13">
    <path d="M 107.324915 166.311584 
L 110.034394 162.295347 
L 112.743872 156.499128 
L 115.453351 150.09881 
L 118.16283 143.757601 
L 120.872309 137.815986 
L 123.581788 132.422841 
L 126.291266 127.619018 
L 129.000745 123.388057 
L 131.710224 119.685858 
L 134.419703 116.457438 
L 137.129182 113.646024 
L 139.83866 111.197675 
L 142.548139 109.063376 
L 145.257618 107.199735 
L 147.967097 105.568948 
L 150.676576 104.138401 
L 153.386054 102.880125 
L 156.095533 101.770213 
L 158.805012 100.788266 
L 161.514491 99.916881 
L 164.22397 99.141205 
L 166.933448 98.448549 
L 169.642927 97.82805 
L 172.352406 97.270398 
L 175.061885 96.76759 
L 177.771364 96.312734 
L 180.480842 95.899884 
L 183.190321 95.523891 
L 185.8998 95.180291 
L 188.609279 94.865201 
L 191.318758 94.575238 
L 194.028236 94.307446 
L 196.737715 94.059237 
L 199.447194 93.828341 
L 202.156673 93.612763 
L 204.866152 93.410746 
L 207.57563 93.220743 
L 210.285109 93.041388 
L 212.994588 92.871479 
L 215.704067 92.709953 
L 218.413546 92.555878 
L 221.123024 92.408434 
L 223.832503 92.266911 
L 226.541982 92.130691 
L 229.251461 91.999251 
L 231.96094 91.872155 
L 234.670418 91.749052 
L 237.379897 91.629678 
L 240.089376 91.513858 
L 242.798855 91.401507 
L 245.508334 91.292643 
L 248.217812 91.18739 
L 250.927291 91.085997 
L 253.63677 90.988853 
L 256.346249 90.896509 
L 259.055728 90.809706 
L 261.765207 90.729408 
L 264.474685 90.65685 
L 267.184164 90.593591 
L 269.893643 90.541578 
L 272.603122 90.503238 
L 275.312601 90.481582 
L 278.022079 90.48034 
L 280.731558 90.50413 
L 283.441037 90.558672 
L 286.150516 90.651062 
L 288.859995 90.790113 
L 291.569473 90.986802 
L 294.278952 91.254829 
L 296.988431 91.611342 
L 299.69791 92.077875 
L 302.407389 92.681545 
L 305.116867 93.456614 
L 307.826346 94.446488 
L 310.535825 95.706305 
L 313.245304 97.306239 
L 315.954783 99.335687 
L 318.664261 101.908463 
L 321.37374 105.169035 
L 324.083219 109.299548 
L 326.792698 114.526741 
L 329.502177 121.126507 
L 332.211655 129.42112 
L 334.921134 139.758894 
L 337.630613 152.456537 
L 340.340092 167.668756 
L 343.049571 185.127745 
L 345.759049 203.677663 
L 348.468528 220.557646 
L 351.178007 230.571563 
L 353.887486 95.678825 
L 356.596965 95.678825 
L 359.306443 95.678825 
L 362.015922 95.678825 
L 364.725401 95.678825 
L 367.43488 95.678825 
L 370.144359 95.678825 
L 372.853837 95.678825 
L 375.563316 95.678825 
L 378.272795 95.678825 
L 380.982274 143.525583 
L 383.691753 160.20837 
L 386.401231 166.587374 
L 389.11071 166.348701 
" clip-path="url(#p63540e0d1c)" style="fill: none; stroke: #bdab62; stroke-width: 1.5; stroke-linecap: square"/>
   </g>
   <g id="line2d_14">
    <path d="M 107.324915 95.678825 
L 110.034394 95.678825 
L 112.743872 95.678825 
L 115.453351 95.678825 
L 118.16283 95.678825 
L 120.872309 95.678825 
L 123.581788 95.678825 
L 126.291266 95.678825 
L 129.000745 95.678825 
L 131.710224 95.678825 
L 134.419703 95.678825 
L 137.129182 95.678825 
L 139.83866 95.678825 
L 142.548139 95.678825 
L 145.257618 95.678825 
L 147.967097 95.678825 
L 150.676576 95.678825 
L 153.386054 95.678825 
L 156.095533 95.678825 
L 158.805012 95.678825 
L 161.514491 95.678825 
L 164.22397 95.678825 
L 166.933448 95.678825 
L 169.642927 95.678825 
L 172.352406 95.678825 
L 175.061885 95.678825 
L 177.771364 95.678825 
L 180.480842 95.678825 
L 183.190321 95.678825 
L 185.8998 95.678825 
L 188.609279 95.678825 
L 191.318758 95.678825 
L 194.028236 95.678825 
L 196.737715 95.678825 
L 199.447194 95.678825 
L 202.156673 95.678825 
L 204.866152 95.678825 
L 207.57563 95.678825 
L 210.285109 95.678825 
L 212.994588 95.678825 
L 215.704067 95.678825 
L 218.413546 95.678825 
L 221.123024 95.678825 
L 223.832503 95.678825 
L 226.541982 95.678825 
L 229.251461 95.678825 
L 231.96094 95.678825 
L 234.670418 95.678825 
L 237.379897 95.678825 
L 240.089376 95.678825 
L 242.798855 95.678825 
L 245.508334 95.678825 
L 248.217812 95.678825 
L 250.927291 95.678825 
L 253.63677 95.678825 
L 256.346249 95.678825 
L 259.055728 95.678825 
L 261.765207 95.678825 
L 264.474685 95.678825 
L 267.184164 95.678825 
L 269.893643 95.678825 
L 272.603122 95.678825 
L 275.312601 95.678825 
L 278.022079 95.678825 
L 280.731558 95.678825 
L 283.441037 95.678825 
L 286.150516 95.678825 
L 288.859995 95.678825 
L 291.569473 95.678825 
L 294.278952 95.678825 
L 296.988431 95.678825 
L 299.69791 95.678825 
L 302.407389 95.678825 
L 305.116867 95.678825 
L 307.826346 95.678825 
L 310.535825 95.678825 
L 313.245304 95.678825 
L 315.954783 95.678825 
L 318.664261 95.678825 
L 321.37374 95.678825 
L 324.083219 95.678825 
L 326.792698 95.678825 
L 329.502177 95.678825 
L 332.211655 95.678825 
L 334.921134 95.678825 
L 337.630613 95.678825 
L 340.340092 95.678825 
L 343.049571 95.678825 
L 345.759049 95.678825 
L 348.468528 95.678825 
L 351.178007 95.678825 
L 353.887486 46.444595 
L 356.596965 30.769322 
L 359.306443 21.265313 
L 362.015922 24.45813 
L 364.725401 43.016069 
L 367.43488 71.824992 
L 370.144359 100.294558 
L 372.853837 119.653266 
L 375.563316 127.537488 
L 378.272795 126.643175 
L 380.982274 95.678825 
L 383.691753 95.678825 
L 386.401231 95.678825 
L 389.11071 95.678825 
" clip-path="url(#p63540e0d1c)" style="fill: none; stroke-dasharray: 5.55,2.4; stroke-dashoffset: 0; stroke: #2b737e; stroke-width: 1.5"/>
   </g>
   <g id="line2d_15">
    <path d="M 107.324915 95.678825 
L 110.034394 95.678825 
L 112.743872 95.678825 
L 115.453351 95.678825 
L 118.16283 95.678825 
L 120.872309 95.678825 
L 123.581788 95.678825 
L 126.291266 95.678825 
L 129.000745 95.678825 
L 131.710224 95.678825 
L 134.419703 95.678825 
L 137.129182 95.678825 
L 139.83866 95.678825 
L 142.548139 95.678825 
L 145.257618 95.678825 
L 147.967097 95.678825 
L 150.676576 95.678825 
L 153.386054 95.678825 
L 156.095533 95.678825 
L 158.805012 95.678825 
L 161.514491 95.678825 
L 164.22397 95.678825 
L 166.933448 95.678825 
L 169.642927 95.678825 
L 172.352406 95.678825 
L 175.061885 95.678825 
L 177.771364 95.678825 
L 180.480842 95.678825 
L 183.190321 95.678825 
L 185.8998 95.678825 
L 188.609279 95.678825 
L 191.318758 95.678825 
L 194.028236 95.678825 
L 196.737715 95.678825 
L 199.447194 95.678825 
L 202.156673 95.678825 
L 204.866152 95.678825 
L 207.57563 95.678825 
L 210.285109 95.678825 
L 212.994588 95.678825 
L 215.704067 95.678825 
L 218.413546 95.678825 
L 221.123024 95.678825 
L 223.832503 95.678825 
L 226.541982 95.678825 
L 229.251461 95.678825 
L 231.96094 95.678825 
L 234.670418 95.678825 
L 237.379897 95.678825 
L 240.089376 95.678825 
L 242.798855 95.678825 
L 245.508334 95.678825 
L 248.217812 95.678825 
L 250.927291 95.678825 
L 253.63677 95.678825 
L 256.346249 95.678825 
L 259.055728 95.678825 
L 261.765207 95.678825 
L 264.474685 95.678825 
L 267.184164 95.678825 
L 269.893643 95.678825 
L 272.603122 95.678825 
L 275.312601 95.678825 
L 278.022079 95.678825 
L 280.731558 95.678825 
L 283.441037 95.678825 
L 286.150516 95.678825 
L 288.859995 95.678825 
L 291.569473 95.678825 
L 294.278952 95.678825 
L 296.988431 95.678825 
L 299.69791 95.678825 
L 302.407389 95.678825 
L 305.116867 95.678825 
L 307.826346 95.678825 
L 310.535825 95.678825 
L 313.245304 95.678825 
L 315.954783 95.678825 
L 318.664261 95.678825 
L 321.37374 95.678825 
L 324.083219 95.678825 
L 326.792698 95.678825 
L 329.502177 95.678825 
L 332.211655 95.678825 
L 334.921134 95.678825 
L 337.630613 95.678825 
L 340.340092 95.678825 
L 343.049571 95.678825 
L 345.759049 95.678825 
L 348.468528 95.678825 
L 351.178007 95.678825 
L 353.887486 67.655542 
L 356.596965 51.202382 
L 359.306443 39.691313 
L 362.015922 40.542776 
L 364.725401 57.870594 
L 367.43488 87.500468 
L 370.144359 118.384874 
L 372.853837 140.300269 
L 375.563316 149.629649 
L 378.272795 148.672697 
L 380.982274 95.678825 
L 383.691753 95.678825 
L 386.401231 95.678825 
L 389.11071 95.678825 
" clip-path="url(#p63540e0d1c)" style="fill: none; stroke-dasharray: 5.55,2.4; stroke-dashoffset: 0; stroke: #5ea04b; stroke-width: 1.5"/>
   </g>
   <g id="line2d_16">
    <path d="M 107.324915 95.678825 
L 110.034394 95.678825 
L 112.743872 95.678825 
L 115.453351 95.678825 
L 118.16283 95.678825 
L 120.872309 95.678825 
L 123.581788 95.678825 
L 126.291266 95.678825 
L 129.000745 95.678825 
L 131.710224 95.678825 
L 134.419703 95.678825 
L 137.129182 95.678825 
L 139.83866 95.678825 
L 142.548139 95.678825 
L 145.257618 95.678825 
L 147.967097 95.678825 
L 150.676576 95.678825 
L 153.386054 95.678825 
L 156.095533 95.678825 
L 158.805012 95.678825 
L 161.514491 95.678825 
L 164.22397 95.678825 
L 166.933448 95.678825 
L 169.642927 95.678825 
L 172.352406 95.678825 
L 175.061885 95.678825 
L 177.771364 95.678825 
L 180.480842 95.678825 
L 183.190321 95.678825 
L 185.8998 95.678825 
L 188.609279 95.678825 
L 191.318758 95.678825 
L 194.028236 95.678825 
L 196.737715 95.678825 
L 199.447194 95.678825 
L 202.156673 95.678825 
L 204.866152 95.678825 
L 207.57563 95.678825 
L 210.285109 95.678825 
L 212.994588 95.678825 
L 215.704067 95.678825 
L 218.413546 95.678825 
L 221.123024 95.678825 
L 223.832503 95.678825 
L 226.541982 95.678825 
L 229.251461 95.678825 
L 231.96094 95.678825 
L 234.670418 95.678825 
L 237.379897 95.678825 
L 240.089376 95.678825 
L 242.798855 95.678825 
L 245.508334 95.678825 
L 248.217812 95.678825 
L 250.927291 95.678825 
L 253.63677 95.678825 
L 256.346249 95.678825 
L 259.055728 95.678825 
L 261.765207 95.678825 
L 264.474685 95.678825 
L 267.184164 95.678825 
L 269.893643 95.678825 
L 272.603122 95.678825 
L 275.312601 95.678825 
L 278.022079 95.678825 
L 280.731558 95.678825 
L 283.441037 95.678825 
L 286.150516 95.678825 
L 288.859995 95.678825 
L 291.569473 95.678825 
L 294.278952 95.678825 
L 296.988431 95.678825 
L 299.69791 95.678825 
L 302.407389 95.678825 
L 305.116867 95.678825 
L 307.826346 95.678825 
L 310.535825 95.678825 
L 313.245304 95.678825 
L 315.954783 95.678825 
L 318.664261 95.678825 
L 321.37374 95.678825 
L 324.083219 95.678825 
L 326.792698 95.678825 
L 329.502177 95.678825 
L 332.211655 95.678825 
L 334.921134 95.678825 
L 337.630613 95.678825 
L 340.340092 95.678825 
L 343.049571 95.678825 
L 345.759049 95.678825 
L 348.468528 95.678825 
L 351.178007 95.678825 
L 353.887486 160.743037 
L 356.596965 146.563449 
L 359.306443 118.570402 
L 362.015922 81.280399 
L 364.725401 47.022752 
L 367.43488 29.716215 
L 370.144359 34.770443 
L 372.853837 55.963505 
L 375.563316 82.029603 
L 378.272795 104.381348 
L 380.982274 95.678825 
L 383.691753 95.678825 
L 386.401231 95.678825 
L 389.11071 95.678825 
" clip-path="url(#p63540e0d1c)" style="fill: none; stroke-dasharray: 5.55,2.4; stroke-dashoffset: 0; stroke: #bdab62; stroke-width: 1.5"/>
   </g>
   <g id="patch_3">
    <path d="M 93.235625 241.036875 
L 93.235625 10.8 
" style="fill: none; stroke: #000000; stroke-width: 0.8; stroke-linejoin: miter; stroke-linecap: square"/>
   </g>
   <g id="patch_4">
    <path d="M 403.2 241.036875 
L 403.2 10.8 
" style="fill: none; stroke: #000000; stroke-width: 0.8; stroke-linejoin: miter; stroke-linecap: square"/>
   </g>
   <g id="patch_5">
    <path d="M 93.235625 241.036875 
L 403.2 241.036875 
" style="fill: none; stroke: #000000; stroke-width: 0.8; stroke-linejoin: miter; stroke-linecap: square"/>
   </g>
   <g id="patch_6">
    <path d="M 93.235625 10.8 
L 403.2 10.8 
" style="fill: none; stroke: #000000; stroke-width: 0.8; stroke-linejoin: miter; stroke-linecap: square"/>
   </g>
   <g id="legend_1">
    <g id="patch_7">
     <path d="M 346.41 236.536875 
L 396.9 236.536875 
Q 398.7 236.536875 398.7 234.736875 
L 398.7 195.141094 
Q 398.7 193.341094 396.9 193.341094 
L 346.41 193.341094 
Q 344.61 193.341094 344.61 195.141094 
L 344.61 234.736875 
Q 344.61 236.536875 346.41 236.536875 
z
" style="fill: #ffffff; opacity: 0.8; stroke: #cccccc; stroke-linejoin: miter"/>
    </g>
    <g id="line2d_17">
     <path d="M 348.21 200.629687 
L 357.21 200.629687 
L 366.21 200.629687 
" style="fill: none; stroke: #2b737e; stroke-width: 1.5; stroke-linecap: square"/>
    </g>
    <g id="text_13">
     <!-- $B\_N_{0}$ -->
     <g transform="translate(373.41 203.779687) scale(0.09 -0.09)">
      <defs>
       <path id="DejaVuSans-Oblique-42" d="M 1081 4666 
L 2694 4666 
Q 3350 4666 3675 4422 
Q 4000 4178 4000 3688 
Q 4000 3238 3720 2911 
Q 3441 2584 2988 2516 
Q 3375 2428 3569 2181 
Q 3763 1934 3763 1522 
Q 3763 819 3242 409 
Q 2722 0 1819 0 
L 172 0 
L 1081 4666 
z
M 1234 2228 
L 903 519 
L 1919 519 
Q 2491 519 2800 781 
Q 3109 1044 3109 1522 
Q 3109 1891 2904 2059 
Q 2700 2228 2247 2228 
L 1234 2228 
z
M 1606 4147 
L 1331 2741 
L 2272 2741 
Q 2775 2741 3058 2959 
Q 3341 3178 3341 3566 
Q 3341 3869 3150 4008 
Q 2959 4147 2541 4147 
L 1606 4147 
z
" transform="scale(0.015625)"/>
       <path id="DejaVuSans-5f" d="M 3263 -1063 
L 3263 -1509 
L -63 -1509 
L -63 -1063 
L 3263 -1063 
z
" transform="scale(0.015625)"/>
       <path id="DejaVuSans-Oblique-4e" d="M 1081 4666 
L 1931 4666 
L 3219 666 
L 4000 4666 
L 4616 4666 
L 3706 0 
L 2853 0 
L 1569 4025 
L 788 0 
L 172 0 
L 1081 4666 
z
" transform="scale(0.015625)"/>
      </defs>
      <use xlink:href="#DejaVuSans-Oblique-42" transform="translate(0 0.09375)"/>
      <use xlink:href="#DejaVuSans-5f" transform="translate(68.603516 0.09375)"/>
      <use xlink:href="#DejaVuSans-Oblique-4e" transform="translate(118.603516 0.09375)"/>
      <use xlink:href="#DejaVuSans-30" transform="translate(193.408203 -16.3125) scale(0.7)"/>
     </g>
    </g>
    <g id="line2d_18">
     <path d="M 348.21 214.128281 
L 357.21 214.128281 
L 366.21 214.128281 
" style="fill: none; stroke: #5ea04b; stroke-width: 1.5; stroke-linecap: square"/>
    </g>
    <g id="text_14">
     <!-- $B\_N_{1}$ -->
     <g transform="translate(373.41 217.278281) scale(0.09 -0.09)">
      <use xlink:href="#DejaVuSans-Oblique-42" transform="translate(0 0.09375)"/>
      <use xlink:href="#DejaVuSans-5f" transform="translate(68.603516 0.09375)"/>
      <use xlink:href="#DejaVuSans-Oblique-4e" transform="translate(118.603516 0.09375)"/>
      <use xlink:href="#DejaVuSans-31" transform="translate(193.408203 -16.3125) scale(0.7)"/>
     </g>
    </g>
    <g id="line2d_19">
     <path d="M 348.21 227.626875 
L 357.21 227.626875 
L 366.21 227.626875 
" style="fill: none; stroke: #bdab62; stroke-width: 1.5; stroke-linecap: square"/>
    </g>
    <g id="text_15">
     <!-- $B\_N_{2}$ -->
     <g transform="translate(373.41 230.776875) scale(0.09 -0.09)">
      <use xlink:href="#DejaVuSans-Oblique-42" transform="translate(0 0.09375)"/>
      <use xlink:href="#DejaVuSans-5f" transform="translate(68.603516 0.09375)"/>
      <use xlink:href="#DejaVuSans-Oblique-4e" transform="translate(118.603516 0.09375)"/>
      <use xlink:href="#DejaVuSans-32" transform="translate(193.408203 -16.3125) scale(0.7)"/>
     </g>
    </g>
   </g>
  </g>
 </g>
 <defs>
  <clipPath id="p63540e0d1c">
   <rect x="93.235625" y="10.8" width="309.964375" height="230.236875"/>
  </clipPath>
 </defs>
</svg>
