<?xml version="1.0" encoding="utf-8" standalone="no"?>
<!DOCTYPE svg PUBLIC "-//W3C//DTD SVG 1.1//EN"
  "http://www.w3.org/Graphics/SVG/1.1/DTD/svg11.dtd">
<svg xmlns:xlink="http://www.w3.org/1999/xlink" width="414pt" height="288pt" viewBox="0 0 414 288" xmlns="http://www.w3.org/2000/svg" version="1.1">
 <metadata>
  <rdf:RDF xmlns:dc="http://purl.org/dc/elements/1.1/" xmlns:cc="http://creativecommons.org/ns#" xmlns:rdf="http://www.w3.org/1999/02/22-rdf-syntax-ns#">
   <cc:Work>
    <dc:type rdf:resource="http://purl.org/dc/dcmitype/StillImage"/>
    <dc:date>2023-09-07T00:38:21.667279</dc:date>
    <dc:format>image/svg+xml</dc:format>
    <dc:creator>
     <cc:Agent>
      <dc:title>Matplotlib v3.7.2, https://matplotlib.org/</dc:title>
     </cc:Agent>
    </dc:creator>
   </cc:Work>
  </rdf:RDF>
 </metadata>
 <defs>
  <style type="text/css">*{stroke-linejoin: round; stroke-linecap: butt}</style>
 </defs>
 <g id="figure_1">
  <g id="patch_1">
   <path d="M 0 288 
L 414 288 
L 414 0 
L 0 0 
L 0 288 
z
" style="fill: none"/>
  </g>
  <g id="patch_2">
   <path d="M 73.8 277.2 
L 340.2 277.2 
L 340.2 10.8 
L 73.8 10.8 
L 73.8 277.2 
z
" style="fill: none"/>
  </g>
  <g id="pane3d_1">
   <g id="patch_3">
    <path d="M 93.915037 211.514297 
L 181.889017 137.772763 
L 180.666095 31.424287 
L 88.482106 98.695964 
" style="fill: #f2f2f2; opacity: 0.5; stroke: #f2f2f2; stroke-linejoin: miter"/>
   </g>
  </g>
  <g id="pane3d_2">
   <g id="patch_4">
    <path d="M 181.889017 137.772763 
L 323.055866 178.804393 
L 328.093614 68.792866 
L 180.666095 31.424287 
" style="fill: #e6e6e6; opacity: 0.5; stroke: #e6e6e6; stroke-linejoin: miter"/>
   </g>
  </g>
  <g id="pane3d_3">
   <g id="patch_5">
    <path d="M 93.915037 211.514297 
L 243.558792 260.387947 
L 323.055866 178.804393 
L 181.889017 137.772763 
" style="fill: #ececec; opacity: 0.5; stroke: #ececec; stroke-linejoin: miter"/>
   </g>
  </g>
  <g id="axis3d_1">
   <g id="line2d_1">
    <path d="M 93.915037 211.514297 
L 243.558792 260.387947 
" style="fill: none; stroke: #000000; stroke-width: 0.8; stroke-linecap: square"/>
   </g>
   <g id="Line3DCollection_1">
    <path d="M 102.388622 214.28177 
L 189.915956 140.105877 
L 189.032348 33.544889 
" style="fill: none; stroke: #b0b0b0; stroke-width: 0.8"/>
    <path d="M 134.240732 224.684669 
L 220.053192 148.865582 
L 220.461466 41.511254 
" style="fill: none; stroke: #b0b0b0; stroke-width: 0.8"/>
    <path d="M 166.833413 235.329439 
L 250.83249 157.811908 
L 252.589408 49.654751 
" style="fill: none; stroke: #b0b0b0; stroke-width: 0.8"/>
    <path d="M 200.192794 246.224613 
L 282.274588 166.950885 
L 285.439744 57.981353 
" style="fill: none; stroke: #b0b0b0; stroke-width: 0.8"/>
    <path d="M 234.346252 257.379132 
L 314.401129 176.288802 
L 319.037116 66.497308 
" style="fill: none; stroke: #b0b0b0; stroke-width: 0.8"/>
   </g>
   <g id="xtick_1">
    <g id="line2d_2">
     <path d="M 103.150792 213.635862 
L 100.861012 215.576358 
" style="fill: none; stroke: #000000; stroke-width: 0.8; stroke-linecap: square"/>
    </g>
    <g id="text_1">
     <!-- −5000 -->
     <g transform="translate(67.795271 242.14585) scale(0.16 -0.16)">
      <defs>
       <path id="DejaVuSans-2212" d="M 678 2272 
L 4684 2272 
L 4684 1741 
L 678 1741 
L 678 2272 
z
" transform="scale(0.015625)"/>
       <path id="DejaVuSans-35" d="M 691 4666 
L 3169 4666 
L 3169 4134 
L 1269 4134 
L 1269 2991 
Q 1406 3038 1543 3061 
Q 1681 3084 1819 3084 
Q 2600 3084 3056 2656 
Q 3513 2228 3513 1497 
Q 3513 744 3044 326 
Q 2575 -91 1722 -91 
Q 1428 -91 1123 -41 
Q 819 9 494 109 
L 494 744 
Q 775 591 1075 516 
Q 1375 441 1709 441 
Q 2250 441 2565 725 
Q 2881 1009 2881 1497 
Q 2881 1984 2565 2268 
Q 2250 2553 1709 2553 
Q 1456 2553 1204 2497 
Q 953 2441 691 2322 
L 691 4666 
z
" transform="scale(0.015625)"/>
       <path id="DejaVuSans-30" d="M 2034 4250 
Q 1547 4250 1301 3770 
Q 1056 3291 1056 2328 
Q 1056 1369 1301 889 
Q 1547 409 2034 409 
Q 2525 409 2770 889 
Q 3016 1369 3016 2328 
Q 3016 3291 2770 3770 
Q 2525 4250 2034 4250 
z
M 2034 4750 
Q 2819 4750 3233 4129 
Q 3647 3509 3647 2328 
Q 3647 1150 3233 529 
Q 2819 -91 2034 -91 
Q 1250 -91 836 529 
Q 422 1150 422 2328 
Q 422 3509 836 4129 
Q 1250 4750 2034 4750 
z
" transform="scale(0.015625)"/>
      </defs>
      <use xlink:href="#DejaVuSans-2212"/>
      <use xlink:href="#DejaVuSans-35" x="83.789062"/>
      <use xlink:href="#DejaVuSans-30" x="147.412109"/>
      <use xlink:href="#DejaVuSans-30" x="211.035156"/>
      <use xlink:href="#DejaVuSans-30" x="274.658203"/>
     </g>
    </g>
   </g>
   <g id="xtick_2">
    <g id="line2d_3">
     <path d="M 134.988667 224.023836 
L 132.741618 226.009203 
" style="fill: none; stroke: #000000; stroke-width: 0.8; stroke-linecap: square"/>
    </g>
    <g id="text_2">
     <!-- −2500 -->
     <g transform="translate(99.680143 252.768985) scale(0.16 -0.16)">
      <defs>
       <path id="DejaVuSans-32" d="M 1228 531 
L 3431 531 
L 3431 0 
L 469 0 
L 469 531 
Q 828 903 1448 1529 
Q 2069 2156 2228 2338 
Q 2531 2678 2651 2914 
Q 2772 3150 2772 3378 
Q 2772 3750 2511 3984 
Q 2250 4219 1831 4219 
Q 1534 4219 1204 4116 
Q 875 4013 500 3803 
L 500 4441 
Q 881 4594 1212 4672 
Q 1544 4750 1819 4750 
Q 2544 4750 2975 4387 
Q 3406 4025 3406 3419 
Q 3406 3131 3298 2873 
Q 3191 2616 2906 2266 
Q 2828 2175 2409 1742 
Q 1991 1309 1228 531 
z
" transform="scale(0.015625)"/>
      </defs>
      <use xlink:href="#DejaVuSans-2212"/>
      <use xlink:href="#DejaVuSans-32" x="83.789062"/>
      <use xlink:href="#DejaVuSans-35" x="147.412109"/>
      <use xlink:href="#DejaVuSans-30" x="211.035156"/>
      <use xlink:href="#DejaVuSans-30" x="274.658203"/>
     </g>
    </g>
   </g>
   <g id="xtick_3">
    <g id="line2d_4">
     <path d="M 167.56624 234.653157 
L 165.36454 236.68497 
" style="fill: none; stroke: #000000; stroke-width: 0.8; stroke-linecap: square"/>
    </g>
    <g id="text_3">
     <!-- 0 -->
     <g transform="translate(154.282912 263.64005) scale(0.16 -0.16)">
      <use xlink:href="#DejaVuSans-30"/>
     </g>
    </g>
   </g>
   <g id="xtick_4">
    <g id="line2d_5">
     <path d="M 200.909594 245.532335 
L 198.75601 247.612243 
" style="fill: none; stroke: #000000; stroke-width: 0.8; stroke-linecap: square"/>
    </g>
    <g id="text_4">
     <!-- 2500 -->
     <g transform="translate(172.412438 274.767825) scale(0.16 -0.16)">
      <use xlink:href="#DejaVuSans-32"/>
      <use xlink:href="#DejaVuSans-35" x="63.623047"/>
      <use xlink:href="#DejaVuSans-30" x="127.246094"/>
      <use xlink:href="#DejaVuSans-30" x="190.869141"/>
     </g>
    </g>
   </g>
   <g id="xtick_5">
    <g id="line2d_6">
     <path d="M 235.046048 256.670284 
L 232.943512 258.800014 
" style="fill: none; stroke: #000000; stroke-width: 0.8; stroke-linecap: square"/>
    </g>
    <g id="text_5">
     <!-- 5000 -->
     <g transform="translate(206.610088 286.161512) scale(0.16 -0.16)">
      <use xlink:href="#DejaVuSans-35"/>
      <use xlink:href="#DejaVuSans-30" x="63.623047"/>
      <use xlink:href="#DejaVuSans-30" x="127.246094"/>
      <use xlink:href="#DejaVuSans-30" x="190.869141"/>
     </g>
    </g>
   </g>
  </g>
  <g id="axis3d_2">
   <g id="line2d_7">
    <path d="M 323.055866 178.804393 
L 243.558792 260.387947 
" style="fill: none; stroke: #000000; stroke-width: 0.8; stroke-linecap: square"/>
   </g>
   <g id="Line3DCollection_2">
    <path d="M 104.420087 87.065151 
L 109.077426 198.804882 
L 257.310318 246.275499 
" style="fill: none; stroke: #b0b0b0; stroke-width: 0.8"/>
    <path d="M 136.631757 63.558541 
L 139.782358 173.0674 
L 285.094054 217.762551 
" style="fill: none; stroke: #b0b0b0; stroke-width: 0.8"/>
    <path d="M 166.954134 41.430652 
L 168.760923 148.776992 
L 311.237246 190.933204 
" style="fill: none; stroke: #b0b0b0; stroke-width: 0.8"/>
   </g>
   <g id="xtick_6">
    <g id="line2d_8">
     <path d="M 256.061721 245.875644 
L 259.810711 247.076234 
" style="fill: none; stroke: #000000; stroke-width: 0.8; stroke-linecap: square"/>
    </g>
    <g id="text_6">
     <!-- −5000 -->
     <g transform="translate(243.01669 271.731008) scale(0.16 -0.16)">
      <use xlink:href="#DejaVuSans-2212"/>
      <use xlink:href="#DejaVuSans-35" x="83.789062"/>
      <use xlink:href="#DejaVuSans-30" x="147.412109"/>
      <use xlink:href="#DejaVuSans-30" x="211.035156"/>
      <use xlink:href="#DejaVuSans-30" x="274.658203"/>
     </g>
    </g>
   </g>
   <g id="xtick_7">
    <g id="line2d_9">
     <path d="M 283.871933 217.38665 
L 287.541332 218.515288 
" style="fill: none; stroke: #000000; stroke-width: 0.8; stroke-linecap: square"/>
    </g>
    <g id="text_7">
     <!-- 0 -->
     <g transform="translate(292.401433 242.796894) scale(0.16 -0.16)">
      <use xlink:href="#DejaVuSans-30"/>
     </g>
    </g>
   </g>
   <g id="xtick_8">
    <g id="line2d_10">
     <path d="M 310.040697 190.579167 
L 313.633229 191.642133 
" style="fill: none; stroke: #000000; stroke-width: 0.8; stroke-linecap: square"/>
    </g>
    <g id="text_8">
     <!-- 5000 -->
     <g transform="translate(302.922989 215.572202) scale(0.16 -0.16)">
      <use xlink:href="#DejaVuSans-35"/>
      <use xlink:href="#DejaVuSans-30" x="63.623047"/>
      <use xlink:href="#DejaVuSans-30" x="127.246094"/>
      <use xlink:href="#DejaVuSans-30" x="190.869141"/>
     </g>
    </g>
   </g>
  </g>
  <g id="axis3d_3">
   <g id="line2d_11">
    <path d="M 323.055866 178.804393 
L 328.093614 68.792866 
" style="fill: none; stroke: #000000; stroke-width: 0.8; stroke-linecap: square"/>
   </g>
   <g id="Line3DCollection_3">
    <path d="M 323.29162 173.656127 
L 181.831672 132.785895 
L 93.661198 206.243159 
" style="fill: none; stroke: #b0b0b0; stroke-width: 0.8"/>
    <path d="M 324.394387 149.574521 
L 181.563585 109.472334 
L 92.473303 181.575761 
" style="fill: none; stroke: #b0b0b0; stroke-width: 0.8"/>
    <path d="M 325.51895 125.016947 
L 181.290454 85.720175 
L 91.261027 156.402064 
" style="fill: none; stroke: #b0b0b0; stroke-width: 0.8"/>
    <path d="M 326.665961 99.969152 
L 181.012136 61.516925 
L 90.023611 130.706318 
" style="fill: none; stroke: #b0b0b0; stroke-width: 0.8"/>
    <path d="M 327.8361 74.416309 
L 180.728482 36.849608 
L 88.760265 104.472116 
" style="fill: none; stroke: #b0b0b0; stroke-width: 0.8"/>
   </g>
   <g id="xtick_9">
    <g id="line2d_12">
     <path d="M 322.104265 173.31308 
L 325.66916 174.34304 
" style="fill: none; stroke: #000000; stroke-width: 0.8; stroke-linecap: square"/>
    </g>
    <g id="text_9">
     <!-- −5000 -->
     <g transform="translate(314.514003 183.218628) scale(0.16 -0.16)">
      <use xlink:href="#DejaVuSans-2212"/>
      <use xlink:href="#DejaVuSans-35" x="83.789062"/>
      <use xlink:href="#DejaVuSans-30" x="147.412109"/>
      <use xlink:href="#DejaVuSans-30" x="211.035156"/>
      <use xlink:href="#DejaVuSans-30" x="274.658203"/>
     </g>
    </g>
   </g>
   <g id="xtick_10">
    <g id="line2d_13">
     <path d="M 323.194976 149.237766 
L 326.796096 150.248842 
" style="fill: none; stroke: #000000; stroke-width: 0.8; stroke-linecap: square"/>
    </g>
    <g id="text_10">
     <!-- −2500 -->
     <g transform="translate(315.791828 159.184685) scale(0.16 -0.16)">
      <use xlink:href="#DejaVuSans-2212"/>
      <use xlink:href="#DejaVuSans-32" x="83.789062"/>
      <use xlink:href="#DejaVuSans-35" x="147.412109"/>
      <use xlink:href="#DejaVuSans-30" x="211.035156"/>
      <use xlink:href="#DejaVuSans-30" x="274.658203"/>
     </g>
    </g>
   </g>
   <g id="xtick_11">
    <g id="line2d_14">
     <path d="M 324.307235 124.686801 
L 327.945324 125.678041 
" style="fill: none; stroke: #000000; stroke-width: 0.8; stroke-linecap: square"/>
    </g>
    <g id="text_11">
     <!-- 0 -->
     <g transform="translate(339.068582 134.677169) scale(0.16 -0.16)">
      <use xlink:href="#DejaVuSans-30"/>
     </g>
    </g>
   </g>
   <g id="xtick_12">
    <g id="line2d_15">
     <path d="M 325.441688 99.645947 
L 329.117511 100.616354 
" style="fill: none; stroke: #000000; stroke-width: 0.8; stroke-linecap: square"/>
    </g>
    <g id="text_12">
     <!-- 2500 -->
     <g transform="translate(325.127516 109.681944) scale(0.16 -0.16)">
      <use xlink:href="#DejaVuSans-32"/>
      <use xlink:href="#DejaVuSans-35" x="63.623047"/>
      <use xlink:href="#DejaVuSans-30" x="127.246094"/>
      <use xlink:href="#DejaVuSans-30" x="190.869141"/>
     </g>
    </g>
   </g>
   <g id="xtick_13">
    <g id="line2d_16">
     <path d="M 326.599007 74.100394 
L 330.313353 75.048923 
" style="fill: none; stroke: #000000; stroke-width: 0.8; stroke-linecap: square"/>
    </g>
    <g id="text_13">
     <!-- 5000 -->
     <g transform="translate(326.483162 84.184306) scale(0.16 -0.16)">
      <use xlink:href="#DejaVuSans-35"/>
      <use xlink:href="#DejaVuSans-30" x="63.623047"/>
      <use xlink:href="#DejaVuSans-30" x="127.246094"/>
      <use xlink:href="#DejaVuSans-30" x="190.869141"/>
     </g>
    </g>
   </g>
  </g>
  <g id="axes_1">
   <g id="line2d_17">
    <path d="M 202.069959 99.964833 
L 196.288018 94.592258 
L 190.622734 89.648044 
L 185.726449 85.65114 
L 180.998815 82.061483 
L 176.475207 78.908386 
L 172.71174 76.528884 
L 169.153833 74.520974 
L 165.823616 72.899657 
L 163.166608 71.827769 
L 160.705581 71.056975 
L 158.452964 70.593479 
L 156.743532 70.445663 
L 155.193528 70.517077 
L 153.809073 70.809398 
L 152.595893 71.323665 
L 151.752246 71.895155 
L 151.024125 72.608818 
L 150.413837 73.464236 
L 149.819856 74.731733 
L 149.416866 76.217512 
L 149.20791 77.918738 
L 149.195432 79.831794 
L 149.381243 81.952266 
L 149.867531 84.763221 
L 150.641651 87.854743 
L 151.702793 91.214589 
L 153.30033 95.45488 
L 155.278807 100.016447 
L 157.628765 104.871403 
L 160.337717 109.98904 
L 163.853208 116.116533 
L 167.789313 122.489899 
L 172.11321 129.051976 
L 176.787437 135.74267 
L 181.77026 142.499658 
L 187.01613 149.259177 
L 192.476225 155.956852 
L 198.099071 162.528571 
L 203.831216 168.91136 
L 209.617958 175.044252 
L 215.40409 180.869123 
L 221.134659 186.331472 
L 226.755704 191.38112 
L 232.214974 195.972829 
L 237.462581 200.066802 
L 241.843637 203.213884 
L 245.997399 205.934876 
L 249.896877 208.214528 
L 253.018231 209.808389 
L 255.920767 211.064335 
L 258.592009 211.979208 
L 261.020973 212.551767 
L 262.853153 212.767799 
L 264.505794 212.747816 
L 265.97494 212.493954 
L 267.257356 212.00914 
L 268.147119 211.457454 
L 268.914769 210.762518 
L 269.55961 209.926827 
L 270.192343 208.688502 
L 270.632302 207.240513 
L 270.879868 205.589361 
L 270.936023 203.742077 
L 270.752982 201.277047 
L 270.30032 198.554233 
L 269.582845 195.588253 
L 268.418908 191.841098 
L 266.913325 187.809265 
L 265.078538 183.519118 
L 262.596426 178.334648 
L 259.7254 172.889783 
L 256.490352 167.226816 
L 252.917981 161.38857 
L 248.531146 154.664727 
L 243.79565 147.835153 
L 238.755859 140.961211 
L 233.457819 134.103812 
L 227.949014 127.323153 
L 222.278133 120.678476 
L 216.494862 114.22784 
L 210.649682 108.027886 
L 204.793669 102.133609 
L 198.978287 96.598102 
L 193.255171 91.47229 
L 188.287114 87.299194 
L 183.468729 83.520343 
L 178.835673 80.166003 
L 174.423063 77.264295 
L 170.769915 75.116896 
L 167.334327 73.351392 
L 164.138064 71.981709 
L 161.604799 71.131971 
L 159.275415 70.588461 
L 157.498722 70.373363 
L 155.878631 70.377139 
L 154.421426 70.601657 
L 153.133013 71.048154 
L 152.018889 71.717207 
L 151.256486 72.412643 
L 150.611237 73.250081 
L 149.972696 74.495509 
L 149.524311 75.959741 
L 149.269263 77.64002 
L 149.210135 79.532806 
L 149.348887 81.633767 
L 149.778379 84.422422 
L 150.49561 87.492989 
L 151.500055 90.833361 
L 153.032077 95.052988 
L 154.946173 99.596299 
L 157.233365 104.435604 
L 159.88165 109.540381 
L 163.330997 115.656804 
L 167.205033 122.023174 
L 171.471613 128.582502 
L 176.093916 135.274818 
L 181.030795 142.037869 
L 186.237228 148.807903 
L 191.664849 155.5205 
L 197.262556 162.111434 
L 202.977184 168.51756 
L 208.754218 174.677678 
L 214.538546 180.533373 
L 220.275205 186.029802 
L 225.910131 191.1164 
L 231.390869 195.747504 
L 236.020521 199.39429 
L 240.461837 202.638113 
L 244.68496 205.459212 
L 248.662231 207.841483 
L 251.856431 209.524657 
L 254.836994 210.870606 
L 257.590944 211.875655 
L 260.106778 212.538058 
L 262.01415 212.828357 
L 263.744201 212.881808 
L 265.292668 212.700288 
L 266.656008 212.286482 
L 267.611462 211.790487 
L 268.445483 211.15013 
L 269.157222 210.367801 
L 269.746109 209.446158 
L 270.30902 208.102662 
L 270.679499 206.552291 
L 270.858143 204.801817 
L 270.846138 202.858519 
L 270.582578 200.282965 
L 270.051077 197.455084 
L 269.256732 194.389821 
L 268.005952 190.534529 
L 266.416947 186.403218 
L 264.502502 182.022593 
L 261.934353 176.746102 
L 258.98301 171.221682 
L 255.673719 165.491891 
L 252.033485 159.599745 
L 247.578261 152.830874 
L 242.783113 145.972896 
L 237.692684 139.08719 
L 232.353257 132.234611 
L 226.812516 125.475228 
L 221.119318 118.868087 
L 215.323492 112.470984 
L 209.475631 106.340226 
L 203.626894 100.5304 
L 197.828797 95.094112 
L 192.132995 90.081716 
L 187.197616 86.020815 
L 182.419765 82.364313 
L 177.835017 79.141871 
L 174.009294 76.699929 
L 170.38118 74.628203 
L 166.973065 72.941969 
L 164.243392 71.813779 
L 161.704486 70.986275 
L 159.369018 70.465862 
L 157.586937 70.270608 
L 155.961187 70.294709 
L 154.498071 70.539975 
L 153.203512 71.007581 
L 152.292947 71.542116 
L 151.496416 72.219238 
L 150.816346 73.038603 
L 150.254962 73.999573 
L 149.723173 75.398451 
L 149.383381 77.014562 
L 149.238432 78.844606 
L 149.290558 80.884488 
L 149.615437 83.602383 
L 150.22782 86.605353 
L 151.12771 89.881711 
L 152.313598 93.418088 
L 154.054413 97.852355 
L 156.172616 102.59336 
L 158.657553 107.611563 
L 161.495539 112.874698 
L 165.149703 119.1449 
L 169.213457 125.633998 
L 173.652358 132.283208 
L 178.427447 139.031141 
L 183.495655 145.814554 
L 188.810293 152.569155 
L 194.321624 159.230462 
L 199.977502 165.734676 
L 205.724068 172.019561 
L 211.506486 178.025299 
L 217.269688 183.6953 
L 222.95913 188.976951 
L 228.521519 193.822275 
L 233.905501 198.188497 
L 238.43172 201.586603 
L 242.753237 204.568275 
L 246.841431 207.116034 
L 250.669993 209.216092 
L 253.726845 210.652068 
L 256.56193 211.747456 
L 259.163234 212.500003 
L 261.144764 212.864919 
L 262.951315 212.992237 
L 264.578315 212.883576 
L 266.021916 212.541372 
L 267.042619 212.101595 
L 267.942644 211.516386 
L 268.720993 210.788028 
L 269.376944 209.919079 
L 270.0241 208.639507 
L 270.479026 207.150738 
L 270.742044 205.459387 
L 270.814077 203.572588 
L 270.650563 201.061188 
L 270.217841 198.2933 
L 269.520608 195.283697 
L 268.380519 191.487677 
L 266.898864 187.409366 
L 265.087909 183.075323 
L 262.632693 177.844085 
L 259.78796 172.356311 
L 256.578363 166.654519 
L 253.030377 160.781735 
L 248.669439 154.024383 
L 243.957949 147.167182 
L 238.940032 140.27169 
L 233.661522 133.398983 
L 228.169724 126.609391 
L 222.513181 119.96226 
L 216.741469 113.515715 
L 210.904989 107.326429 
L 205.054771 101.44939 
L 199.242265 95.93764 
L 193.519124 90.842011 
L 188.548642 86.701023 
L 183.725625 82.959107 
L 179.085795 79.646358 
L 175.203902 77.121753 
L 171.512356 74.964322 
L 168.033758 73.189707 
L 165.238248 71.983932 
L 162.628692 71.077432 
L 160.217966 70.476893 
L 158.369817 70.214218 
L 156.675107 70.170501 
L 155.1403 70.347739 
L 153.771493 70.747302 
L 152.574387 71.369906 
L 151.743883 72.028628 
L 151.029135 72.829828 
L 150.43243 73.772906 
L 149.855683 75.149863 
L 149.47016 76.744619 
L 149.278846 78.55395 
L 149.284117 80.573843 
L 149.487711 82.799483 
L 149.995275 85.733859 
L 150.790463 88.945099 
L 151.87231 92.420251 
L 153.493326 96.788553 
L 155.494294 101.470076 
L 157.865476 106.435876 
L 160.594105 111.654242 
L 163.664389 117.090897 
L 167.56744 123.524457 
L 171.859539 130.13739 
L 176.503455 136.869006 
L 181.457684 143.65651 
L 186.676905 150.435794 
L 192.112528 157.142281 
L 197.713305 163.711795 
L 203.426007 170.081443 
L 209.196148 176.190477 
L 214.968723 181.981127 
L 220.688965 187.399367 
L 226.30308 192.395609 
L 231.758955 196.925299 
L 236.363838 200.475235 
L 240.777886 203.615546 
L 244.971556 206.327382 
L 248.917526 208.595571 
L 252.083683 210.177838 
L 255.035311 211.420623 
L 257.759647 212.320836 
L 259.84811 212.808428 
L 261.765118 213.057592 
L 263.505651 213.069512 
L 265.065409 212.846208 
L 266.440809 212.390504 
L 267.406435 211.860997 
L 268.251066 211.187205 
L 268.973831 210.371582 
L 269.57413 209.41685 
L 270.151807 208.032373 
L 270.537557 206.441546 
L 270.731915 204.651252 
L 270.736007 202.668872 
L 270.492182 200.047531 
L 269.980767 197.175228 
L 269.206748 194.067057 
L 267.979835 190.163806 
L 266.414693 185.986997 
L 264.523931 181.563526 
L 261.982412 176.241539 
L 259.056995 170.675554 
L 255.772692 164.908348 
L 252.15629 158.98313 
L 247.726241 152.182462 
L 242.954283 145.298621 
L 237.884825 138.393175 
L 232.563951 131.527134 
L 227.039178 124.760692 
L 221.359229 118.152987 
L 215.573833 111.761872 
L 209.733516 105.643674 
L 203.889403 99.852962 
L 198.093009 94.442278 
L 193.022498 89.992493 
L 188.066782 85.916286 
L 183.261924 82.245414 
L 178.643626 79.009624 
L 174.783314 76.556897 
L 171.11587 74.475269 
L 167.663847 72.780054 
L 164.893035 71.644926 
L 162.309897 70.811204 
L 159.92725 70.28531 
L 158.103719 70.086061 
L 156.434685 70.106696 
L 154.92656 70.349031 
L 153.585383 70.814244 
L 152.416789 71.502854 
L 151.609684 72.214496 
L 150.918816 73.068602 
L 150.222088 74.33546 
L 149.714379 75.821713 
L 149.399042 77.524527 
L 149.278841 79.440287 
L 149.355921 81.564578 
L 149.710886 84.381582 
L 150.353344 87.480747 
L 151.283116 90.849818 
L 152.498501 94.474864 
L 154.272976 99.006728 
L 156.423715 103.838215 
L 158.939735 108.938966 
L 161.807017 114.275945 
L 165.492057 120.618981 
L 169.583464 127.167688 
L 174.046358 133.862494 
L 178.841393 140.641389 
L 183.925169 147.44069 
L 189.250731 154.195862 
L 194.768152 160.84238 
L 200.425177 167.316611 
L 206.167925 173.556684 
L 211.941621 179.503342 
L 217.691349 185.100739 
L 223.362789 190.297171 
L 228.902951 195.045715 
L 233.602758 198.800442 
L 238.130451 202.156051 
L 242.455332 205.091811 
L 246.548788 207.590641 
L 249.853255 209.374493 
L 252.953185 210.821193 
L 255.834842 211.926474 
L 258.48593 212.688023 
L 260.511191 213.059721 
L 262.363326 213.193134 
L 264.037583 213.089857 
L 265.529933 212.752305 
L 266.590585 212.315711 
L 267.5313 211.733198 
L 268.350986 211.007042 
L 269.048826 210.139797 
L 269.748974 208.861651 
L 270.257423 207.373524 
L 270.574314 205.682032 
L 270.700391 203.794315 
L 270.636977 201.717994 
L 270.31343 198.988824 
L 269.723981 196.014362 
L 268.873892 192.810007 
L 267.561057 188.802452 
L 265.913392 184.53021 
L 263.943839 180.020489 
L 261.317226 174.611508 
L 258.312381 168.971175 
L 254.954664 163.142498 
L 251.271165 157.168857 
L 246.773517 150.329435 
L 241.942621 143.423553 
L 236.823174 136.512765 
L 231.461502 129.657993 
L 225.905333 122.919276 
L 220.203572 116.355525 
L 214.406099 110.024297 
L 208.563563 103.981555 
L 202.727187 98.281422 
L 196.948545 92.975919 
L 191.902245 88.63139 
L 186.978666 84.670995 
L 182.213828 81.12593 
L 177.643357 78.025308 
L 173.831205 75.697976 
L 170.217701 73.747843 
L 166.825256 72.189644 
L 164.10987 71.175877 
L 161.586044 70.466685 
L 159.266443 70.068032 
L 157.498178 69.976537 
L 155.886768 70.106176 
L 154.438499 70.45845 
L 153.159271 71.034214 
L 152.2613 71.655881 
L 151.477637 72.42048 
L 150.810688 73.327486 
L 150.144466 74.660213 
L 149.667855 76.211842 
L 149.384113 77.979305 
L 149.2959 79.958749 
L 149.405255 82.145519 
L 149.799167 85.035563 
L 150.480613 88.205255 
L 151.449198 91.64192 
L 152.702992 95.331207 
L 154.521458 99.933231 
L 156.714945 104.829123 
L 159.272084 109.987924 
L 162.178477 115.376039 
L 165.416725 120.95747 
L 169.497736 127.523961 
L 173.950748 134.233301 
L 178.736488 141.023312 
L 183.811628 147.830183 
L 189.129285 154.589299 
L 194.639603 161.236102 
L 200.290397 167.70697 
L 206.027852 173.940093 
L 211.797258 179.876319 
L 217.543755 185.459949 
L 223.213078 190.639465 
L 228.752277 195.368163 
L 233.452218 199.103316 
L 237.980973 202.437478 
L 242.307853 205.350111 
L 246.404248 207.824333 
L 249.711976 209.586068 
L 252.815844 211.009844 
L 255.702101 212.091524 
L 258.358433 212.828926 
L 260.388541 213.180175 
L 262.245937 213.292921 
L 263.925855 213.168829 
L 265.424244 212.810385 
L 266.489984 212.357066 
L 267.436005 211.757854 
L 268.2612 211.015058 
L 268.964739 210.131264 
L 269.672259 208.832605 
L 270.188327 207.324211 
L 270.513056 205.612753 
L 270.64716 203.705423 
L 270.591931 201.609892 
L 270.278368 198.858268 
L 269.699029 195.862078 
L 268.85912 192.636791 
L 267.558177 188.605914 
L 265.922334 184.311626 
L 263.96445 179.781227 
L 261.350878 174.350397 
L 258.358643 168.690224 
L 255.012992 162.843823 
L 251.340912 156.854662 
L 247.370932 150.766359 
L 242.585897 143.852755 
L 237.506096 136.930509 
L 232.177592 130.060701 
L 226.647892 123.303535 
L 220.965722 116.718102 
L 215.18082 110.362144 
L 209.343735 104.291817 
L 203.505625 98.561446 
L 198.357005 93.795455 
L 193.284639 89.374486 
L 188.324827 85.331999 
L 183.513694 81.699603 
L 178.887022 78.50686 
L 175.017731 76.095377 
L 171.339843 74.058149 
L 167.875986 72.410294 
L 165.09399 71.317948 
L 162.498766 70.528865 
L 160.103191 70.049299 
L 158.268286 69.889815 
L 156.587373 69.95115 
L 155.0669 70.234999 
L 153.712946 70.742418 
L 152.753502 71.309605 
L 151.906976 72.020017 
L 151.175884 72.873239 
L 150.562542 73.868562 
L 149.964635 75.310962 
L 149.557602 76.9711 
L 149.344486 78.84552 
L 149.327723 80.929967 
L 149.509112 83.219383 
L 149.989881 86.228919 
L 150.75821 89.513418 
L 151.813231 93.059502 
L 153.152527 96.852126 
L 155.068893 101.566125 
L 157.357512 106.563763 
L 160.006198 111.813103 
L 162.99974 117.279653 
L 166.319944 122.926599 
L 170.487276 129.551248 
L 175.017746 136.300092 
L 179.871095 143.110315 
L 185.003128 149.917715 
L 190.366232 156.657542 
L 195.909973 163.26537 
L 201.581759 169.677978 
L 207.327547 175.834218 
L 213.092578 181.675847 
L 218.822126 187.148306 
L 224.462236 192.201421 
L 229.282667 196.243253 
L 233.960588 199.902517 
L 238.463747 203.155808 
L 242.761744 205.983298 
L 246.826282 208.368833 
L 250.104589 210.052289 
L 253.177314 211.396188 
L 256.030925 212.396851 
L 258.653336 213.052545 
L 260.654359 213.335493 
L 262.482066 213.380009 
L 264.131815 213.187995 
L 265.599676 212.762163 
L 266.640816 212.255467 
L 267.562143 211.603468 
L 268.362605 210.808577 
L 269.041429 209.873478 
L 269.718159 208.511943 
L 270.203645 206.942227 
L 270.49809 205.171163 
L 270.602298 203.206093 
L 270.517639 201.054827 
L 270.169486 198.23915 
L 269.556458 195.182181 
L 268.683872 191.899574 
L 267.346215 187.806406 
L 265.675308 183.454979 
L 263.684131 178.872784 
L 261.034816 173.38951 
L 258.009428 167.684286 
L 254.633332 161.800383 
L 250.933615 155.781392 
L 246.93889 149.671011 
L 242.129568 142.741903 
L 237.029329 135.814065 
L 231.684318 128.94856 
L 226.142116 122.205537 
L 220.451514 115.643984 
L 214.662314 109.3215 
L 208.82512 103.294052 
L 202.99114 97.615726 
L 197.849784 92.903456 
L 192.788084 88.542978 
L 187.842354 84.567471 
L 183.04872 81.00822 
L 179.007187 78.258342 
L 175.133127 75.867657 
L 171.449745 73.852792 
L 167.979713 72.228763 
L 165.191914 71.157919 
L 162.590447 70.391253 
L 160.188218 69.934934 
L 158.34748 69.79539 
L 156.660489 69.877121 
L 155.133715 70.181762 
L 153.773253 70.710305 
L 152.80847 71.294588 
L 151.956497 72.02223 
L 151.219859 72.892784 
L 150.600884 73.9055 
L 149.995828 75.369671 
L 149.581545 77.051542 
L 149.3611 78.947577 
L 149.336947 81.053443 
L 149.510905 83.364001 
L 149.98273 86.398423 
L 150.742119 89.707149 
L 151.788236 93.276658 
L 153.118697 97.091765 
L 155.024885 101.83062 
L 157.303514 106.851433 
L 159.942447 112.122068 
L 162.926522 117.607845 
L 166.237592 123.27178 
L 170.394954 129.912909 
L 174.916023 136.674919 
L 179.76061 143.494841 
L 184.884589 150.308365 
L 190.240414 157.050678 
L 195.77772 163.657339 
L 201.44398 170.065158 
L 207.18521 176.213065 
L 212.946711 182.042939 
L 218.673809 187.500384 
L 224.312595 192.535425 
L 229.13282 196.559111 
L 233.811444 200.198235 
L 238.316227 203.429575 
L 242.616775 206.233498 
L 246.684788 208.59405 
L 249.966802 210.255122 
L 253.043892 211.575877 
L 255.902514 212.552769 
L 258.109032 213.102957 
L 260.14917 213.413276 
L 262.017407 213.484682 
L 263.708942 213.318981 
L 265.219681 212.918795 
L 266.295802 212.432076 
L 267.25262 211.799534 
L 268.089005 211.023539 
L 268.8041 210.10674 
L 269.526535 208.76719 
L 270.05799 207.218418 
L 270.398516 205.467202 
L 270.548769 203.520837 
L 270.509977 201.387093 
L 270.216431 198.590831 
L 269.657323 195.551473 
L 268.837749 192.284633 
L 267.560511 188.207493 
L 265.948188 183.869516 
L 264.013469 179.298182 
L 261.770441 174.521613 
L 258.84923 168.848088 
L 255.570235 162.987139 
L 251.960026 156.982391 
L 248.046757 150.877615 
L 243.318937 143.944623 
L 238.288976 137.002305 
L 233.00258 130.111967 
L 227.506956 123.334039 
L 221.850588 116.727828 
L 216.083029 110.351287 
L 210.254701 104.260768 
L 204.416689 98.510783 
L 199.260873 93.727979 
L 194.174479 89.290902 
L 189.19387 85.233111 
L 184.35527 81.586309 
L 180.266232 78.755857 
L 176.337189 76.281235 
L 172.591517 74.179423 
L 169.052093 72.465811 
L 166.199347 71.31639 
L 163.528075 70.469779 
L 161.051387 69.932433 
L 159.145207 69.724758 
L 157.389847 69.738 
L 155.791932 69.973987 
L 154.357732 70.433909 
L 153.093127 71.118292 
L 152.207233 71.827326 
L 151.435966 72.679515 
L 150.781713 73.674148 
L 150.131749 75.116171 
L 149.671779 76.776476 
L 149.405004 78.651605 
L 149.334026 80.737305 
L 149.46081 83.028518 
L 149.875789 86.040927 
L 150.578333 89.32908 
L 151.567894 92.879594 
L 152.842382 96.677419 
L 154.684405 101.39845 
L 156.900551 106.404143 
L 159.479168 111.662544 
L 162.405572 117.139132 
L 165.662085 122.797066 
L 169.761491 129.435383 
L 174.229905 136.199016 
L 179.027733 143.025067 
L 184.111381 149.849236 
L 189.433766 156.606662 
L 194.944906 163.23279 
L 200.592569 169.664257 
L 206.322976 175.839755 
L 212.081531 181.70087 
L 217.813566 187.192862 
L 223.465083 192.265364 
L 228.302695 196.323884 
L 233.004352 199.99944 
L 237.537582 203.268492 
L 241.871717 206.111082 
L 245.97814 208.510926 
L 249.296652 210.205926 
L 252.413289 211.560626 
L 255.314256 212.571281 
L 257.55801 213.149328 
L 259.636988 213.48714 
L 261.545512 213.585573 
L 263.278616 213.446334 
L 264.832047 213.071956 
L 265.94302 212.605354 
L 266.935221 211.992412 
L 267.807438 211.235464 
L 268.558731 210.33712 
L 269.188433 209.300257 
L 269.803985 207.814168 
L 270.228719 206.123157 
L 270.463022 204.23437 
L 270.507865 202.155442 
L 270.313784 199.421147 
L 269.852773 196.439425 
L 269.129539 193.225736 
L 268.14977 189.796183 
L 266.691341 185.544461 
L 264.904732 181.048868 
L 262.803364 176.337352 
L 260.035366 170.724944 
L 256.899525 164.910917 
L 253.42166 158.93888 
L 249.629256 152.852656 
L 245.551278 146.69609 
L 240.659955 139.74025 
L 235.490432 132.812354 
L 230.089195 125.973316 
L 224.504125 119.283017 
L 218.784281 112.80007 
L 212.979694 106.581581 
L 207.14117 100.682903 
L 201.964397 95.75129 
L 196.837706 91.150505 
L 191.797498 86.914911 
L 186.880117 83.077097 
L 182.121694 79.667679 
L 178.116583 77.058262 
L 174.284142 74.816175 
L 170.647517 72.957411 
L 167.703398 71.680182 
L 164.933567 70.703092 
L 162.351408 70.03306 
L 160.352278 69.713482 
L 158.499584 69.613928 
L 156.80017 69.736537 
L 155.260543 70.082825 
L 153.886841 70.653656 
L 152.911213 71.272142 
L 152.048192 72.034244 
L 151.300326 72.939439 
L 150.530985 74.270874 
L 149.949343 75.822292 
L 149.558965 77.590631 
L 149.362838 79.572037 
L 149.36333 81.761858 
L 149.56217 84.154627 
L 150.064029 87.284945 
L 150.853473 90.686022 
L 151.929478 94.343775 
L 153.289461 98.242469 
L 155.229356 103.072238 
L 157.540584 108.176072 
L 160.210672 113.521068 
L 163.224122 119.071831 
L 166.562462 124.790745 
L 170.748015 131.481743 
L 175.29369 138.279157 
L 180.158915 145.119519 
L 185.299241 151.938214 
L 190.666866 158.670324 
L 196.211245 165.251509 
L 201.879752 171.618881 
L 207.618393 177.71187 
L 213.372535 183.473042 
L 219.087658 188.848861 
L 224.014148 193.197975 
L 228.834622 197.184901 
L 233.515304 200.783325 
L 238.023973 203.970396 
L 242.330242 206.726871 
L 245.838715 208.734956 
L 249.16115 210.407588 
L 252.282358 211.739167 
L 255.188526 212.726077 
L 257.437081 213.283954 
L 259.521269 213.601326 
L 261.435394 213.679119 
L 263.174473 213.519114 
L 264.734232 213.12391 
L 265.850506 212.64065 
L 266.848208 212.011087 
L 267.726111 211.237587 
L 268.483264 210.322793 
L 269.258887 208.985055 
L 269.844039 207.437319 
L 270.238594 205.686365 
L 270.443026 203.73949 
L 270.458388 201.604471 
L 270.229556 198.805684 
L 269.734592 195.762738 
L 268.978317 192.491278 
L 267.966521 189.007571 
L 266.472132 184.697434 
L 264.6512 180.148748 
L 262.517262 175.389632 
L 259.714317 169.72973 
L 256.546084 163.875741 
L 253.038497 157.871402 
L 249.219138 151.760636 
L 245.117061 145.587348 
L 240.202136 138.622081 
L 235.012822 131.694697 
L 229.595695 124.866066 
L 223.99872 118.195985 
L 218.271031 111.742937 
L 212.462734 105.563853 
L 207.273242 100.345943 
L 202.096349 95.42545 
L 196.968387 90.838295 
L 191.92578 86.618791 
L 187.004907 82.799457 
L 182.241939 79.410821 
L 178.232028 76.821396 
L 174.394057 74.6009 
L 170.751213 72.765235 
L 167.80125 71.508922 
L 165.02513 70.553703 
L 162.436271 69.906415 
L 160.431267 69.606393 
L 158.572455 69.526886 
L 156.866697 69.669976 
L 155.320523 70.037117 
L 153.94009 70.629109 
L 152.958959 71.264702 
L 152.090341 72.044029 
L 151.336794 72.966533 
L 150.560253 74.319663 
L 149.971317 75.892772 
L 149.573574 77.682719 
L 149.370029 79.685573 
L 149.363074 81.8966 
L 149.554455 84.310255 
L 150.047377 87.465093 
L 150.82793 90.889967 
L 151.895123 94.570654 
L 153.246406 98.491278 
L 155.176335 103.345185 
L 157.477841 108.471403 
L 160.138499 113.836832 
L 163.142859 119.405898 
L 166.472495 125.140821 
L 170.106101 131.001916 
L 174.600024 137.801839 
L 179.419478 144.649241 
L 184.520535 151.479506 
L 189.855845 158.227654 
L 195.37523 164.829218 
L 201.026347 171.221123 
L 206.755385 177.342551 
L 212.507806 183.135764 
L 218.229077 188.546867 
L 223.167323 192.929205 
L 228.00537 196.951243 
L 232.709259 200.586359 
L 237.246537 203.811384 
L 241.586543 206.606746 
L 245.127775 208.648656 
L 248.486284 210.35535 
L 251.646647 211.721023 
L 254.594799 212.741862 
L 256.880316 213.327747 
L 259.003094 213.672771 
L 260.957281 213.777759 
L 262.737732 213.644392 
L 264.34001 213.275178 
L 265.491016 212.812184 
L 266.523999 212.202375 
L 267.437648 211.448078 
L 268.230929 210.551898 
L 268.903082 209.516707 
L 269.572201 208.032012 
L 270.050894 206.341622 
L 270.339367 204.452684 
L 270.438414 202.372838 
L 270.349393 200.110171 
L 269.99703 197.165637 
L 269.380864 193.985464 
L 268.506155 190.585688 
L 267.16721 186.363917 
L 265.496183 181.893077 
L 263.505924 177.201106 
L 261.210657 172.316519 
L 258.233931 166.535418 
L 254.90402 160.584214 
L 251.247606 154.506852 
L 247.292941 148.347342 
L 243.069669 142.149585 
L 238.035923 135.185681 
L 232.746976 128.289986 
L 227.249982 121.522976 
L 221.593403 114.943928 
L 215.826798 108.610683 
L 210.649333 103.232927 
L 205.460694 98.131955 
L 200.297095 93.344579 
L 195.19494 88.906094 
L 190.190684 84.850102 
L 185.320685 81.208322 
L 181.197957 78.3849 
L 177.229579 75.919742 
L 173.439104 73.829787 
L 169.849617 72.130366 
L 166.949948 70.99491 
L 164.228222 70.163864 
L 161.697726 69.643617 
L 159.744284 69.45131 
L 157.939588 69.480885 
L 156.290391 69.734116 
L 154.803097 70.212138 
L 153.483728 70.915417 
L 152.55292 71.640098 
L 151.735846 72.508367 
L 151.034975 73.51948 
L 150.325727 74.982607 
L 149.805511 76.664507 
L 149.477707 78.561646 
L 149.345097 80.669693 
L 149.409841 82.98351 
L 149.750103 86.023266 
L 150.377964 89.338874 
L 151.293229 92.916809 
L 152.494164 96.741876 
L 153.977457 100.797255 
L 156.058167 105.79499 
L 158.505783 111.049314 
L 161.306626 116.52585 
L 164.444009 122.187871 
L 167.898302 127.996589 
L 171.647047 133.911471 
L 176.25952 140.747528 
L 181.182213 147.603402 
L 186.369911 154.41416 
L 191.774192 161.11488 
L 197.344045 167.64153 
L 203.026546 173.931844 
L 208.767578 179.926171 
L 214.512564 185.568279 
L 219.499966 190.175134 
L 224.41304 194.440469 
L 229.216961 198.335478 
L 233.878183 201.834684 
L 238.36474 204.91612 
L 242.646527 207.561462 
L 246.132355 209.470624 
L 249.430816 211.041578 
L 252.526917 212.269314 
L 255.407043 213.150806 
L 257.633322 213.620045 
L 259.694828 213.84841 
L 261.585974 213.837143 
L 263.301879 213.588329 
L 264.838368 213.104863 
L 265.936019 212.551578 
L 266.915143 211.85266 
L 267.774554 211.01061 
L 268.513343 210.028197 
L 269.266247 208.607433 
L 269.829009 206.978546 
L 270.201562 205.148527 
L 270.38444 203.124875 
L 270.378746 200.915551 
L 270.125365 198.031106 
L 269.606701 194.906586 
L 268.827628 191.557883 
L 267.793986 188.001491 
L 266.275359 183.612582 
L 264.431579 178.991883 
L 262.276218 174.167759 
L 259.450563 168.442409 
L 256.261532 162.532658 
L 252.735074 156.482463 
L 248.89878 150.335911 
L 244.78171 144.137036 
L 240.414232 137.929637 
L 235.2408 130.990159 
L 229.83681 124.155809 
L 224.250116 117.486468 
L 218.529779 111.040669 
L 213.373293 105.544807 
L 208.186456 100.30937 
L 203.00535 95.371844 
L 197.866318 90.768268 
L 192.805834 86.533058 
L 187.86036 82.698831 
L 183.655954 79.696936 
L 179.591503 77.044645 
L 175.690819 74.759674 
L 171.977312 72.858193 
L 168.96065 71.544621 
L 166.112374 70.531558 
L 163.446118 69.826042 
L 161.372786 69.477352 
L 159.442326 69.34918 
L 157.66177 69.443735 
L 156.037824 69.762608 
L 154.576839 70.306737 
L 153.529404 70.904426 
L 152.592948 71.646275 
L 151.770146 72.531802 
L 151.06348 73.560225 
L 150.346909 75.045008 
L 149.819302 76.748509 
L 149.48406 78.667118 
L 149.343988 80.796423 
L 149.401261 83.131206 
L 149.732581 86.195621 
L 150.351554 89.53521 
L 151.258018 93.136304 
L 152.450274 96.983573 
L 153.925039 101.060059 
L 155.996035 106.08086 
L 158.434234 111.356381 
L 161.226005 116.852059 
L 164.354705 122.530998 
L 167.800749 128.354257 
L 171.541722 134.281176 
L 176.145952 141.127783 
L 181.061144 147.990674 
L 186.242142 154.804842 
L 191.640584 161.505338 
L 197.205514 168.028148 
L 202.884064 174.311072 
L 208.622164 180.294568 
L 214.365284 185.922556 
L 219.351956 190.514504 
L 224.265166 194.762705 
L 229.070106 198.638518 
L 233.733237 202.116642 
L 238.222601 205.175302 
L 242.508087 207.79637 
L 245.997788 209.683688 
L 249.300759 211.231975 
L 252.401993 212.436353 
L 255.287852 213.293924 
L 257.519351 213.742892 
L 259.586463 213.950756 
L 261.483583 213.918828 
L 263.205808 213.649266 
L 264.748943 213.145028 
L 265.852129 212.575154 
L 266.836968 211.859707 
L 267.702263 211.001218 
L 268.447087 210.002488 
L 269.207731 208.561543 
L 269.77842 206.912765 
L 270.15906 205.063198 
L 270.350151 203.02039 
L 270.352768 200.792351 
L 270.109442 197.886091 
L 269.600872 194.740527 
L 268.831877 191.371621 
L 267.808242 187.795929 
L 266.301129 183.385725 
L 264.468611 178.745128 
L 262.324178 173.902586 
L 259.882634 168.887021 
L 256.749069 162.980633 
L 253.27401 156.930499 
L 249.484761 150.780782 
L 245.410123 144.575603 
L 241.080239 138.35886 
L 236.526437 132.174076 
L 231.781102 126.06424 
L 226.255167 119.332933 
L 220.577646 112.809066 
L 215.443884 107.230751 
L 210.265151 101.901029 
L 205.077406 96.857869 
L 199.916922 92.137841 
L 194.820168 87.77594 
L 189.82366 83.805418 
L 185.562586 80.676928 
L 181.430389 77.891723 
L 177.45106 75.46806 
L 173.648234 73.422701 
L 170.546733 71.982152 
L 167.606197 70.839192 
L 164.840504 70.001308 
L 162.263088 69.474905 
L 160.268407 69.278001 
L 158.420633 69.303471 
L 156.726627 69.553098 
L 155.192907 70.02802 
L 153.825617 70.728711 
L 152.855483 71.451692 
L 151.998275 72.318594 
L 151.256537 73.328672 
L 150.495285 74.790979 
L 149.922184 76.472586 
L 149.540772 78.369961 
L 149.353996 80.478774 
L 149.364181 82.793889 
L 149.573003 85.309352 
L 150.087139 88.582778 
L 150.889079 92.121667 
L 151.977673 95.911098 
L 153.350202 99.934514 
L 155.304491 104.899937 
L 157.629618 110.127666 
L 160.312869 115.58366 
L 163.338499 121.231491 
L 166.6878 127.032613 
L 170.339193 132.946688 
L 174.268374 138.931936 
L 179.06447 145.804399 
L 184.144506 152.648972 
L 189.461311 159.400538 
L 194.964879 165.994636 
L 200.603031 172.368334 
L 206.322111 178.461094 
L 211.349931 183.51664 
L 216.361583 188.277194 
L 221.320963 192.709485 
L 226.192699 196.783215 
L 230.942499 200.47132 
L 235.537475 203.750178 
L 239.946426 206.599758 
L 243.555237 208.688096 
L 246.988693 210.440875 
L 250.230892 211.852011 
L 253.26726 212.917419 
L 255.630777 213.539574 
L 257.835288 213.919925 
L 259.874609 214.059158 
L 261.743256 213.958829 
L 263.43645 213.621326 
L 264.950111 213.049832 
L 266.029476 212.426789 
L 266.990341 211.658852 
L 267.831563 210.748652 
L 268.552271 209.699085 
L 269.282783 208.19596 
L 269.823447 206.486675 
L 270.174259 204.578431 
L 270.335804 202.47892 
L 270.309238 200.196284 
L 270.031478 197.227463 
L 269.489224 194.022742 
L 268.687407 190.598256 
L 267.63191 186.970714 
L 266.088962 182.504912 
L 264.222173 177.814163 
L 262.045146 172.927069 
L 259.572789 167.872682 
L 256.406307 161.929073 
L 252.900898 155.849454 
L 249.083971 149.678071 
L 244.984427 143.459096 
L 240.632493 137.236447 
L 236.059579 131.053637 
L 231.298145 124.953621 
L 226.381571 118.978661 
L 221.344045 113.170189 
L 216.220443 107.568671 
L 211.04622 102.213473 
L 205.857289 97.142712 
L 200.689912 92.393108 
L 195.580563 87.999817 
L 190.565796 83.996253 
L 186.28415 80.837634 
L 182.127155 78.021291 
L 178.118882 75.565609 
L 174.283068 73.487481 
L 171.150161 72.018355 
L 168.175422 70.846465 
L 165.372829 69.979395 
L 162.755928 69.423651 
L 160.726458 69.202255 
L 158.842265 69.203263 
L 157.110297 69.428525 
L 155.537164 69.879248 
L 154.12911 70.555975 
L 153.125461 71.260003 
L 152.234 72.108189 
L 151.457327 73.099826 
L 150.651548 74.539529 
L 150.033085 76.199102 
L 149.605611 78.075094 
L 149.372214 80.163257 
L 149.335369 82.458536 
L 149.496901 84.95506 
L 149.954174 88.207059 
L 150.699389 91.726068 
L 151.731686 95.497307 
L 153.048645 99.504351 
L 154.646241 103.729182 
L 156.857165 108.907256 
L 159.430504 114.3216 
L 162.351422 119.936264 
L 165.602091 125.713119 
L 169.161783 131.612164 
L 173.006997 137.591876 
L 177.111632 143.609595 
L 182.083662 150.477848 
L 187.311355 157.273868 
L 192.745752 163.932835 
L 198.335457 170.391179 
L 204.027335 176.587448 
L 209.048971 181.748125 
L 214.070872 186.626431 
L 219.056749 191.188037 
L 223.970892 195.401489 
L 228.778519 199.238474 
L 233.446107 202.674054 
L 237.941702 205.686832 
L 241.635289 207.919155 
L 245.162584 209.818774 
L 248.507037 211.378722 
L 251.653385 212.59405 
L 254.587719 213.461789 
L 256.861975 213.918587 
L 258.973805 214.13366 
L 260.917428 214.108291 
L 262.687761 213.844607 
L 264.280424 213.345547 
L 265.42413 212.779294 
L 266.450184 212.066998 
L 267.357292 211.211182 
L 268.144434 210.21464 
L 268.958539 208.775744 
L 269.583143 207.128246 
L 270.017972 205.279191 
L 270.263347 203.23613 
L 270.320168 201.007077 
L 270.141542 198.098611 
L 269.697025 194.949782 
L 268.99116 191.576582 
L 268.029467 187.995602 
L 266.592783 183.578026 
L 264.828352 178.92883 
L 262.749308 174.076544 
L 260.370121 169.050178 
L 257.303714 163.130269 
L 253.891026 157.065502 
L 250.158982 150.900193 
L 246.136041 144.678619 
L 241.852044 138.444837 
L 237.338059 132.242528 
L 232.626244 126.114839 
L 227.749725 120.104252 
L 222.742471 114.252437 
L 217.639181 108.600125 
L 212.47517 103.186967 
L 207.286254 98.05139 
L 202.108633 93.230449 
L 196.978767 88.759662 
L 191.933238 84.672836 
L 187.616328 81.436965 
L 183.416366 78.539587 
L 179.357536 75.999415 
L 175.463724 73.833697 
L 172.27532 72.287313 
L 169.239892 71.036418 
L 166.371579 70.088867 
L 163.684112 69.451452 
L 161.592283 69.161303 
L 159.642646 69.093123 
L 157.842295 69.248951 
L 156.197999 69.630194 
L 154.716174 70.237599 
L 153.651758 70.886427 
L 152.698081 71.679761 
L 151.857854 72.617011 
L 151.133589 73.69728 
L 150.394828 75.24687 
L 149.844877 77.014964 
L 149.487201 78.997714 
L 149.324667 81.190472 
L 149.359514 83.587775 
L 149.593323 86.183345 
L 150.137735 89.549693 
L 150.970093 93.177475 
L 152.089056 97.051218 
L 153.491703 101.153827 
L 155.480528 106.204479 
L 157.839225 111.508977 
L 160.554733 117.032556 
L 163.610969 122.738131 
L 166.988892 128.586579 
L 170.666607 134.537077 
L 174.619515 140.54746 
L 178.820504 146.574624 
L 183.887606 153.427393 
L 189.19321 160.179908 
L 194.687418 166.767728 
L 200.318148 173.128033 
L 205.314941 178.459159 
L 210.338875 183.531466 
L 215.353497 188.308889 
L 220.322667 192.758029 
L 222.429576 194.556657 
L 222.429576 194.556657 
" clip-path="url(#p08009c8844)" style="fill: none; stroke: #1f77b4; stroke-width: 1.5; stroke-linecap: square"/>
   </g>
   <g id="line2d_18">
    <path d="M 269.320628 94.880806 
L 116.143536 104.418249 
L 304.097588 92.715676 
L 268.062408 94.959152 
" clip-path="url(#p08009c8844)" style="fill: none; stroke: #ff7f0e; stroke-width: 1.5; stroke-linecap: square"/>
   </g>
   <g id="legend_1">
    <g id="patch_6">
     <path d="M 199.24875 272.7 
L 333.9 272.7 
Q 335.7 272.7 335.7 270.9 
L 335.7 245.379375 
Q 335.7 243.579375 333.9 243.579375 
L 199.24875 243.579375 
Q 197.44875 243.579375 197.44875 245.379375 
L 197.44875 270.9 
Q 197.44875 272.7 199.24875 272.7 
z
" style="fill: #ffffff; opacity: 0.8; stroke: #cccccc; stroke-linejoin: miter"/>
    </g>
    <g id="line2d_19">
     <path d="M 201.04875 250.867969 
L 210.04875 250.867969 
L 219.04875 250.867969 
" style="fill: none; stroke: #1f77b4; stroke-width: 1.5; stroke-linecap: square"/>
    </g>
    <g id="text_14">
     <!-- S/C Position -->
     <g transform="translate(226.24875 254.017969) scale(0.09 -0.09)">
      <defs>
       <path id="DejaVuSans-53" d="M 3425 4513 
L 3425 3897 
Q 3066 4069 2747 4153 
Q 2428 4238 2131 4238 
Q 1616 4238 1336 4038 
Q 1056 3838 1056 3469 
Q 1056 3159 1242 3001 
Q 1428 2844 1947 2747 
L 2328 2669 
Q 3034 2534 3370 2195 
Q 3706 1856 3706 1288 
Q 3706 609 3251 259 
Q 2797 -91 1919 -91 
Q 1588 -91 1214 -16 
Q 841 59 441 206 
L 441 856 
Q 825 641 1194 531 
Q 1563 422 1919 422 
Q 2459 422 2753 634 
Q 3047 847 3047 1241 
Q 3047 1584 2836 1778 
Q 2625 1972 2144 2069 
L 1759 2144 
Q 1053 2284 737 2584 
Q 422 2884 422 3419 
Q 422 4038 858 4394 
Q 1294 4750 2059 4750 
Q 2388 4750 2728 4690 
Q 3069 4631 3425 4513 
z
" transform="scale(0.015625)"/>
       <path id="DejaVuSans-2f" d="M 1625 4666 
L 2156 4666 
L 531 -594 
L 0 -594 
L 1625 4666 
z
" transform="scale(0.015625)"/>
       <path id="DejaVuSans-43" d="M 4122 4306 
L 4122 3641 
Q 3803 3938 3442 4084 
Q 3081 4231 2675 4231 
Q 1875 4231 1450 3742 
Q 1025 3253 1025 2328 
Q 1025 1406 1450 917 
Q 1875 428 2675 428 
Q 3081 428 3442 575 
Q 3803 722 4122 1019 
L 4122 359 
Q 3791 134 3420 21 
Q 3050 -91 2638 -91 
Q 1578 -91 968 557 
Q 359 1206 359 2328 
Q 359 3453 968 4101 
Q 1578 4750 2638 4750 
Q 3056 4750 3426 4639 
Q 3797 4528 4122 4306 
z
" transform="scale(0.015625)"/>
       <path id="DejaVuSans-20" transform="scale(0.015625)"/>
       <path id="DejaVuSans-50" d="M 1259 4147 
L 1259 2394 
L 2053 2394 
Q 2494 2394 2734 2622 
Q 2975 2850 2975 3272 
Q 2975 3691 2734 3919 
Q 2494 4147 2053 4147 
L 1259 4147 
z
M 628 4666 
L 2053 4666 
Q 2838 4666 3239 4311 
Q 3641 3956 3641 3272 
Q 3641 2581 3239 2228 
Q 2838 1875 2053 1875 
L 1259 1875 
L 1259 0 
L 628 0 
L 628 4666 
z
" transform="scale(0.015625)"/>
       <path id="DejaVuSans-6f" d="M 1959 3097 
Q 1497 3097 1228 2736 
Q 959 2375 959 1747 
Q 959 1119 1226 758 
Q 1494 397 1959 397 
Q 2419 397 2687 759 
Q 2956 1122 2956 1747 
Q 2956 2369 2687 2733 
Q 2419 3097 1959 3097 
z
M 1959 3584 
Q 2709 3584 3137 3096 
Q 3566 2609 3566 1747 
Q 3566 888 3137 398 
Q 2709 -91 1959 -91 
Q 1206 -91 779 398 
Q 353 888 353 1747 
Q 353 2609 779 3096 
Q 1206 3584 1959 3584 
z
" transform="scale(0.015625)"/>
       <path id="DejaVuSans-73" d="M 2834 3397 
L 2834 2853 
Q 2591 2978 2328 3040 
Q 2066 3103 1784 3103 
Q 1356 3103 1142 2972 
Q 928 2841 928 2578 
Q 928 2378 1081 2264 
Q 1234 2150 1697 2047 
L 1894 2003 
Q 2506 1872 2764 1633 
Q 3022 1394 3022 966 
Q 3022 478 2636 193 
Q 2250 -91 1575 -91 
Q 1294 -91 989 -36 
Q 684 19 347 128 
L 347 722 
Q 666 556 975 473 
Q 1284 391 1588 391 
Q 1994 391 2212 530 
Q 2431 669 2431 922 
Q 2431 1156 2273 1281 
Q 2116 1406 1581 1522 
L 1381 1569 
Q 847 1681 609 1914 
Q 372 2147 372 2553 
Q 372 3047 722 3315 
Q 1072 3584 1716 3584 
Q 2034 3584 2315 3537 
Q 2597 3491 2834 3397 
z
" transform="scale(0.015625)"/>
       <path id="DejaVuSans-69" d="M 603 3500 
L 1178 3500 
L 1178 0 
L 603 0 
L 603 3500 
z
M 603 4863 
L 1178 4863 
L 1178 4134 
L 603 4134 
L 603 4863 
z
" transform="scale(0.015625)"/>
       <path id="DejaVuSans-74" d="M 1172 4494 
L 1172 3500 
L 2356 3500 
L 2356 3053 
L 1172 3053 
L 1172 1153 
Q 1172 725 1289 603 
Q 1406 481 1766 481 
L 2356 481 
L 2356 0 
L 1766 0 
Q 1100 0 847 248 
Q 594 497 594 1153 
L 594 3053 
L 172 3053 
L 172 3500 
L 594 3500 
L 594 4494 
L 1172 4494 
z
" transform="scale(0.015625)"/>
       <path id="DejaVuSans-6e" d="M 3513 2113 
L 3513 0 
L 2938 0 
L 2938 2094 
Q 2938 2591 2744 2837 
Q 2550 3084 2163 3084 
Q 1697 3084 1428 2787 
Q 1159 2491 1159 1978 
L 1159 0 
L 581 0 
L 581 3500 
L 1159 3500 
L 1159 2956 
Q 1366 3272 1645 3428 
Q 1925 3584 2291 3584 
Q 2894 3584 3203 3211 
Q 3513 2838 3513 2113 
z
" transform="scale(0.015625)"/>
      </defs>
      <use xlink:href="#DejaVuSans-53"/>
      <use xlink:href="#DejaVuSans-2f" x="63.476562"/>
      <use xlink:href="#DejaVuSans-43" x="97.167969"/>
      <use xlink:href="#DejaVuSans-20" x="166.992188"/>
      <use xlink:href="#DejaVuSans-50" x="198.779297"/>
      <use xlink:href="#DejaVuSans-6f" x="255.457031"/>
      <use xlink:href="#DejaVuSans-73" x="316.638672"/>
      <use xlink:href="#DejaVuSans-69" x="368.738281"/>
      <use xlink:href="#DejaVuSans-74" x="396.521484"/>
      <use xlink:href="#DejaVuSans-69" x="435.730469"/>
      <use xlink:href="#DejaVuSans-6f" x="463.513672"/>
      <use xlink:href="#DejaVuSans-6e" x="524.695312"/>
     </g>
    </g>
    <g id="line2d_20">
     <path d="M 201.04875 264.078281 
L 210.04875 264.078281 
L 219.04875 264.078281 
" style="fill: none; stroke: #ff7f0e; stroke-width: 1.5; stroke-linecap: square"/>
    </g>
    <g id="text_15">
     <!-- Ground Station Position -->
     <g transform="translate(226.24875 267.228281) scale(0.09 -0.09)">
      <defs>
       <path id="DejaVuSans-47" d="M 3809 666 
L 3809 1919 
L 2778 1919 
L 2778 2438 
L 4434 2438 
L 4434 434 
Q 4069 175 3628 42 
Q 3188 -91 2688 -91 
Q 1594 -91 976 548 
Q 359 1188 359 2328 
Q 359 3472 976 4111 
Q 1594 4750 2688 4750 
Q 3144 4750 3555 4637 
Q 3966 4525 4313 4306 
L 4313 3634 
Q 3963 3931 3569 4081 
Q 3175 4231 2741 4231 
Q 1884 4231 1454 3753 
Q 1025 3275 1025 2328 
Q 1025 1384 1454 906 
Q 1884 428 2741 428 
Q 3075 428 3337 486 
Q 3600 544 3809 666 
z
" transform="scale(0.015625)"/>
       <path id="DejaVuSans-72" d="M 2631 2963 
Q 2534 3019 2420 3045 
Q 2306 3072 2169 3072 
Q 1681 3072 1420 2755 
Q 1159 2438 1159 1844 
L 1159 0 
L 581 0 
L 581 3500 
L 1159 3500 
L 1159 2956 
Q 1341 3275 1631 3429 
Q 1922 3584 2338 3584 
Q 2397 3584 2469 3576 
Q 2541 3569 2628 3553 
L 2631 2963 
z
" transform="scale(0.015625)"/>
       <path id="DejaVuSans-75" d="M 544 1381 
L 544 3500 
L 1119 3500 
L 1119 1403 
Q 1119 906 1312 657 
Q 1506 409 1894 409 
Q 2359 409 2629 706 
Q 2900 1003 2900 1516 
L 2900 3500 
L 3475 3500 
L 3475 0 
L 2900 0 
L 2900 538 
Q 2691 219 2414 64 
Q 2138 -91 1772 -91 
Q 1169 -91 856 284 
Q 544 659 544 1381 
z
M 1991 3584 
L 1991 3584 
z
" transform="scale(0.015625)"/>
       <path id="DejaVuSans-64" d="M 2906 2969 
L 2906 4863 
L 3481 4863 
L 3481 0 
L 2906 0 
L 2906 525 
Q 2725 213 2448 61 
Q 2172 -91 1784 -91 
Q 1150 -91 751 415 
Q 353 922 353 1747 
Q 353 2572 751 3078 
Q 1150 3584 1784 3584 
Q 2172 3584 2448 3432 
Q 2725 3281 2906 2969 
z
M 947 1747 
Q 947 1113 1208 752 
Q 1469 391 1925 391 
Q 2381 391 2643 752 
Q 2906 1113 2906 1747 
Q 2906 2381 2643 2742 
Q 2381 3103 1925 3103 
Q 1469 3103 1208 2742 
Q 947 2381 947 1747 
z
" transform="scale(0.015625)"/>
       <path id="DejaVuSans-61" d="M 2194 1759 
Q 1497 1759 1228 1600 
Q 959 1441 959 1056 
Q 959 750 1161 570 
Q 1363 391 1709 391 
Q 2188 391 2477 730 
Q 2766 1069 2766 1631 
L 2766 1759 
L 2194 1759 
z
M 3341 1997 
L 3341 0 
L 2766 0 
L 2766 531 
Q 2569 213 2275 61 
Q 1981 -91 1556 -91 
Q 1019 -91 701 211 
Q 384 513 384 1019 
Q 384 1609 779 1909 
Q 1175 2209 1959 2209 
L 2766 2209 
L 2766 2266 
Q 2766 2663 2505 2880 
Q 2244 3097 1772 3097 
Q 1472 3097 1187 3025 
Q 903 2953 641 2809 
L 641 3341 
Q 956 3463 1253 3523 
Q 1550 3584 1831 3584 
Q 2591 3584 2966 3190 
Q 3341 2797 3341 1997 
z
" transform="scale(0.015625)"/>
      </defs>
      <use xlink:href="#DejaVuSans-47"/>
      <use xlink:href="#DejaVuSans-72" x="77.490234"/>
      <use xlink:href="#DejaVuSans-6f" x="116.353516"/>
      <use xlink:href="#DejaVuSans-75" x="177.535156"/>
      <use xlink:href="#DejaVuSans-6e" x="240.914062"/>
      <use xlink:href="#DejaVuSans-64" x="304.292969"/>
      <use xlink:href="#DejaVuSans-20" x="367.769531"/>
      <use xlink:href="#DejaVuSans-53" x="399.556641"/>
      <use xlink:href="#DejaVuSans-74" x="463.033203"/>
      <use xlink:href="#DejaVuSans-61" x="502.242188"/>
      <use xlink:href="#DejaVuSans-74" x="563.521484"/>
      <use xlink:href="#DejaVuSans-69" x="602.730469"/>
      <use xlink:href="#DejaVuSans-6f" x="630.513672"/>
      <use xlink:href="#DejaVuSans-6e" x="691.695312"/>
      <use xlink:href="#DejaVuSans-20" x="755.074219"/>
      <use xlink:href="#DejaVuSans-50" x="786.861328"/>
      <use xlink:href="#DejaVuSans-6f" x="843.539062"/>
      <use xlink:href="#DejaVuSans-73" x="904.720703"/>
      <use xlink:href="#DejaVuSans-69" x="956.820312"/>
      <use xlink:href="#DejaVuSans-74" x="984.603516"/>
      <use xlink:href="#DejaVuSans-69" x="1023.8125"/>
      <use xlink:href="#DejaVuSans-6f" x="1051.595703"/>
      <use xlink:href="#DejaVuSans-6e" x="1112.777344"/>
     </g>
    </g>
   </g>
  </g>
 </g>
 <defs>
  <clipPath id="p08009c8844">
   <rect x="73.8" y="10.8" width="266.4" height="266.4"/>
  </clipPath>
 </defs>
</svg>
