<?xml version="1.0" encoding="utf-8" standalone="no"?>
<!DOCTYPE svg PUBLIC "-//W3C//DTD SVG 1.1//EN"
  "http://www.w3.org/Graphics/SVG/1.1/DTD/svg11.dtd">
<svg xmlns:xlink="http://www.w3.org/1999/xlink" width="360pt" height="288pt" viewBox="0 0 360 288" xmlns="http://www.w3.org/2000/svg" version="1.1">
 <metadata>
  <rdf:RDF xmlns:dc="http://purl.org/dc/elements/1.1/" xmlns:cc="http://creativecommons.org/ns#" xmlns:rdf="http://www.w3.org/1999/02/22-rdf-syntax-ns#">
   <cc:Work>
    <dc:type rdf:resource="http://purl.org/dc/dcmitype/StillImage"/>
    <dc:date>2023-09-07T00:35:59.361038</dc:date>
    <dc:format>image/svg+xml</dc:format>
    <dc:creator>
     <cc:Agent>
      <dc:title>Matplotlib v3.7.2, https://matplotlib.org/</dc:title>
     </cc:Agent>
    </dc:creator>
   </cc:Work>
  </rdf:RDF>
 </metadata>
 <defs>
  <style type="text/css">*{stroke-linejoin: round; stroke-linecap: butt}</style>
 </defs>
 <g id="figure_1">
  <g id="patch_1">
   <path d="M 0 288 
L 360 288 
L 360 0 
L 0 0 
L 0 288 
z
" style="fill: none"/>
  </g>
  <g id="axes_1">
   <g id="patch_2">
    <path d="M 55.065625 241.036875 
L 349.2 241.036875 
L 349.2 25.9575 
L 55.065625 25.9575 
L 55.065625 241.036875 
z
" style="fill: none"/>
   </g>
   <g id="matplotlib.axis_1">
    <g id="xtick_1">
     <g id="line2d_1">
      <defs>
       <path id="me6a1b7f931" d="M 0 0 
L 0 3.5 
" style="stroke: #000000; stroke-width: 0.8"/>
      </defs>
      <g>
       <use xlink:href="#me6a1b7f931" x="68.435369" y="241.036875" style="stroke: #000000; stroke-width: 0.8"/>
      </g>
     </g>
     <g id="text_1">
      <!-- 0 -->
      <g transform="translate(63.345369 260.194375) scale(0.16 -0.16)">
       <defs>
        <path id="DejaVuSans-30" d="M 2034 4250 
Q 1547 4250 1301 3770 
Q 1056 3291 1056 2328 
Q 1056 1369 1301 889 
Q 1547 409 2034 409 
Q 2525 409 2770 889 
Q 3016 1369 3016 2328 
Q 3016 3291 2770 3770 
Q 2525 4250 2034 4250 
z
M 2034 4750 
Q 2819 4750 3233 4129 
Q 3647 3509 3647 2328 
Q 3647 1150 3233 529 
Q 2819 -91 2034 -91 
Q 1250 -91 836 529 
Q 422 1150 422 2328 
Q 422 3509 836 4129 
Q 1250 4750 2034 4750 
z
" transform="scale(0.015625)"/>
       </defs>
       <use xlink:href="#DejaVuSans-30"/>
      </g>
     </g>
    </g>
    <g id="xtick_2">
     <g id="line2d_2">
      <g>
       <use xlink:href="#me6a1b7f931" x="166.436061" y="241.036875" style="stroke: #000000; stroke-width: 0.8"/>
      </g>
     </g>
     <g id="text_2">
      <!-- 500 -->
      <g transform="translate(151.166061 260.194375) scale(0.16 -0.16)">
       <defs>
        <path id="DejaVuSans-35" d="M 691 4666 
L 3169 4666 
L 3169 4134 
L 1269 4134 
L 1269 2991 
Q 1406 3038 1543 3061 
Q 1681 3084 1819 3084 
Q 2600 3084 3056 2656 
Q 3513 2228 3513 1497 
Q 3513 744 3044 326 
Q 2575 -91 1722 -91 
Q 1428 -91 1123 -41 
Q 819 9 494 109 
L 494 744 
Q 775 591 1075 516 
Q 1375 441 1709 441 
Q 2250 441 2565 725 
Q 2881 1009 2881 1497 
Q 2881 1984 2565 2268 
Q 2250 2553 1709 2553 
Q 1456 2553 1204 2497 
Q 953 2441 691 2322 
L 691 4666 
z
" transform="scale(0.015625)"/>
       </defs>
       <use xlink:href="#DejaVuSans-35"/>
       <use xlink:href="#DejaVuSans-30" x="63.623047"/>
       <use xlink:href="#DejaVuSans-30" x="127.246094"/>
      </g>
     </g>
    </g>
    <g id="xtick_3">
     <g id="line2d_3">
      <g>
       <use xlink:href="#me6a1b7f931" x="264.436752" y="241.036875" style="stroke: #000000; stroke-width: 0.8"/>
      </g>
     </g>
     <g id="text_3">
      <!-- 1000 -->
      <g transform="translate(244.076752 260.194375) scale(0.16 -0.16)">
       <defs>
        <path id="DejaVuSans-31" d="M 794 531 
L 1825 531 
L 1825 4091 
L 703 3866 
L 703 4441 
L 1819 4666 
L 2450 4666 
L 2450 531 
L 3481 531 
L 3481 0 
L 794 0 
L 794 531 
z
" transform="scale(0.015625)"/>
       </defs>
       <use xlink:href="#DejaVuSans-31"/>
       <use xlink:href="#DejaVuSans-30" x="63.623047"/>
       <use xlink:href="#DejaVuSans-30" x="127.246094"/>
       <use xlink:href="#DejaVuSans-30" x="190.869141"/>
      </g>
     </g>
    </g>
    <g id="text_4">
     <!-- Time (s) -->
     <g transform="translate(181.803906 275.120313) scale(0.1 -0.1)">
      <defs>
       <path id="DejaVuSans-54" d="M -19 4666 
L 3928 4666 
L 3928 4134 
L 2272 4134 
L 2272 0 
L 1638 0 
L 1638 4134 
L -19 4134 
L -19 4666 
z
" transform="scale(0.015625)"/>
       <path id="DejaVuSans-69" d="M 603 3500 
L 1178 3500 
L 1178 0 
L 603 0 
L 603 3500 
z
M 603 4863 
L 1178 4863 
L 1178 4134 
L 603 4134 
L 603 4863 
z
" transform="scale(0.015625)"/>
       <path id="DejaVuSans-6d" d="M 3328 2828 
Q 3544 3216 3844 3400 
Q 4144 3584 4550 3584 
Q 5097 3584 5394 3201 
Q 5691 2819 5691 2113 
L 5691 0 
L 5113 0 
L 5113 2094 
Q 5113 2597 4934 2840 
Q 4756 3084 4391 3084 
Q 3944 3084 3684 2787 
Q 3425 2491 3425 1978 
L 3425 0 
L 2847 0 
L 2847 2094 
Q 2847 2600 2669 2842 
Q 2491 3084 2119 3084 
Q 1678 3084 1418 2786 
Q 1159 2488 1159 1978 
L 1159 0 
L 581 0 
L 581 3500 
L 1159 3500 
L 1159 2956 
Q 1356 3278 1631 3431 
Q 1906 3584 2284 3584 
Q 2666 3584 2933 3390 
Q 3200 3197 3328 2828 
z
" transform="scale(0.015625)"/>
       <path id="DejaVuSans-65" d="M 3597 1894 
L 3597 1613 
L 953 1613 
Q 991 1019 1311 708 
Q 1631 397 2203 397 
Q 2534 397 2845 478 
Q 3156 559 3463 722 
L 3463 178 
Q 3153 47 2828 -22 
Q 2503 -91 2169 -91 
Q 1331 -91 842 396 
Q 353 884 353 1716 
Q 353 2575 817 3079 
Q 1281 3584 2069 3584 
Q 2775 3584 3186 3129 
Q 3597 2675 3597 1894 
z
M 3022 2063 
Q 3016 2534 2758 2815 
Q 2500 3097 2075 3097 
Q 1594 3097 1305 2825 
Q 1016 2553 972 2059 
L 3022 2063 
z
" transform="scale(0.015625)"/>
       <path id="DejaVuSans-20" transform="scale(0.015625)"/>
       <path id="DejaVuSans-28" d="M 1984 4856 
Q 1566 4138 1362 3434 
Q 1159 2731 1159 2009 
Q 1159 1288 1364 580 
Q 1569 -128 1984 -844 
L 1484 -844 
Q 1016 -109 783 600 
Q 550 1309 550 2009 
Q 550 2706 781 3412 
Q 1013 4119 1484 4856 
L 1984 4856 
z
" transform="scale(0.015625)"/>
       <path id="DejaVuSans-73" d="M 2834 3397 
L 2834 2853 
Q 2591 2978 2328 3040 
Q 2066 3103 1784 3103 
Q 1356 3103 1142 2972 
Q 928 2841 928 2578 
Q 928 2378 1081 2264 
Q 1234 2150 1697 2047 
L 1894 2003 
Q 2506 1872 2764 1633 
Q 3022 1394 3022 966 
Q 3022 478 2636 193 
Q 2250 -91 1575 -91 
Q 1294 -91 989 -36 
Q 684 19 347 128 
L 347 722 
Q 666 556 975 473 
Q 1284 391 1588 391 
Q 1994 391 2212 530 
Q 2431 669 2431 922 
Q 2431 1156 2273 1281 
Q 2116 1406 1581 1522 
L 1381 1569 
Q 847 1681 609 1914 
Q 372 2147 372 2553 
Q 372 3047 722 3315 
Q 1072 3584 1716 3584 
Q 2034 3584 2315 3537 
Q 2597 3491 2834 3397 
z
" transform="scale(0.015625)"/>
       <path id="DejaVuSans-29" d="M 513 4856 
L 1013 4856 
Q 1481 4119 1714 3412 
Q 1947 2706 1947 2009 
Q 1947 1309 1714 600 
Q 1481 -109 1013 -844 
L 513 -844 
Q 928 -128 1133 580 
Q 1338 1288 1338 2009 
Q 1338 2731 1133 3434 
Q 928 4138 513 4856 
z
" transform="scale(0.015625)"/>
      </defs>
      <use xlink:href="#DejaVuSans-54"/>
      <use xlink:href="#DejaVuSans-69" x="57.958984"/>
      <use xlink:href="#DejaVuSans-6d" x="85.742188"/>
      <use xlink:href="#DejaVuSans-65" x="183.154297"/>
      <use xlink:href="#DejaVuSans-20" x="244.677734"/>
      <use xlink:href="#DejaVuSans-28" x="276.464844"/>
      <use xlink:href="#DejaVuSans-73" x="315.478516"/>
      <use xlink:href="#DejaVuSans-29" x="367.578125"/>
     </g>
    </g>
   </g>
   <g id="matplotlib.axis_2">
    <g id="ytick_1">
     <g id="line2d_4">
      <defs>
       <path id="m7a43e8d5e1" d="M 0 0 
L -3.5 0 
" style="stroke: #000000; stroke-width: 0.8"/>
      </defs>
      <g>
       <use xlink:href="#m7a43e8d5e1" x="55.065625" y="221.135592" style="stroke: #000000; stroke-width: 0.8"/>
      </g>
     </g>
     <g id="text_5">
      <!-- −4 -->
      <g transform="translate(24.478125 227.214342) scale(0.16 -0.16)">
       <defs>
        <path id="DejaVuSans-2212" d="M 678 2272 
L 4684 2272 
L 4684 1741 
L 678 1741 
L 678 2272 
z
" transform="scale(0.015625)"/>
        <path id="DejaVuSans-34" d="M 2419 4116 
L 825 1625 
L 2419 1625 
L 2419 4116 
z
M 2253 4666 
L 3047 4666 
L 3047 1625 
L 3713 1625 
L 3713 1100 
L 3047 1100 
L 3047 0 
L 2419 0 
L 2419 1100 
L 313 1100 
L 313 1709 
L 2253 4666 
z
" transform="scale(0.015625)"/>
       </defs>
       <use xlink:href="#DejaVuSans-2212"/>
       <use xlink:href="#DejaVuSans-34" x="83.789062"/>
      </g>
     </g>
    </g>
    <g id="ytick_2">
     <g id="line2d_5">
      <g>
       <use xlink:href="#m7a43e8d5e1" x="55.065625" y="183.67923" style="stroke: #000000; stroke-width: 0.8"/>
      </g>
     </g>
     <g id="text_6">
      <!-- −3 -->
      <g transform="translate(24.478125 189.75798) scale(0.16 -0.16)">
       <defs>
        <path id="DejaVuSans-33" d="M 2597 2516 
Q 3050 2419 3304 2112 
Q 3559 1806 3559 1356 
Q 3559 666 3084 287 
Q 2609 -91 1734 -91 
Q 1441 -91 1130 -33 
Q 819 25 488 141 
L 488 750 
Q 750 597 1062 519 
Q 1375 441 1716 441 
Q 2309 441 2620 675 
Q 2931 909 2931 1356 
Q 2931 1769 2642 2001 
Q 2353 2234 1838 2234 
L 1294 2234 
L 1294 2753 
L 1863 2753 
Q 2328 2753 2575 2939 
Q 2822 3125 2822 3475 
Q 2822 3834 2567 4026 
Q 2313 4219 1838 4219 
Q 1578 4219 1281 4162 
Q 984 4106 628 3988 
L 628 4550 
Q 988 4650 1302 4700 
Q 1616 4750 1894 4750 
Q 2613 4750 3031 4423 
Q 3450 4097 3450 3541 
Q 3450 3153 3228 2886 
Q 3006 2619 2597 2516 
z
" transform="scale(0.015625)"/>
       </defs>
       <use xlink:href="#DejaVuSans-2212"/>
       <use xlink:href="#DejaVuSans-33" x="83.789062"/>
      </g>
     </g>
    </g>
    <g id="ytick_3">
     <g id="line2d_6">
      <g>
       <use xlink:href="#m7a43e8d5e1" x="55.065625" y="146.222867" style="stroke: #000000; stroke-width: 0.8"/>
      </g>
     </g>
     <g id="text_7">
      <!-- −2 -->
      <g transform="translate(24.478125 152.301617) scale(0.16 -0.16)">
       <defs>
        <path id="DejaVuSans-32" d="M 1228 531 
L 3431 531 
L 3431 0 
L 469 0 
L 469 531 
Q 828 903 1448 1529 
Q 2069 2156 2228 2338 
Q 2531 2678 2651 2914 
Q 2772 3150 2772 3378 
Q 2772 3750 2511 3984 
Q 2250 4219 1831 4219 
Q 1534 4219 1204 4116 
Q 875 4013 500 3803 
L 500 4441 
Q 881 4594 1212 4672 
Q 1544 4750 1819 4750 
Q 2544 4750 2975 4387 
Q 3406 4025 3406 3419 
Q 3406 3131 3298 2873 
Q 3191 2616 2906 2266 
Q 2828 2175 2409 1742 
Q 1991 1309 1228 531 
z
" transform="scale(0.015625)"/>
       </defs>
       <use xlink:href="#DejaVuSans-2212"/>
       <use xlink:href="#DejaVuSans-32" x="83.789062"/>
      </g>
     </g>
    </g>
    <g id="ytick_4">
     <g id="line2d_7">
      <g>
       <use xlink:href="#m7a43e8d5e1" x="55.065625" y="108.766505" style="stroke: #000000; stroke-width: 0.8"/>
      </g>
     </g>
     <g id="text_8">
      <!-- −1 -->
      <g transform="translate(24.478125 114.845255) scale(0.16 -0.16)">
       <use xlink:href="#DejaVuSans-2212"/>
       <use xlink:href="#DejaVuSans-31" x="83.789062"/>
      </g>
     </g>
    </g>
    <g id="ytick_5">
     <g id="line2d_8">
      <g>
       <use xlink:href="#m7a43e8d5e1" x="55.065625" y="71.310142" style="stroke: #000000; stroke-width: 0.8"/>
      </g>
     </g>
     <g id="text_9">
      <!-- 0 -->
      <g transform="translate(37.885625 77.388892) scale(0.16 -0.16)">
       <use xlink:href="#DejaVuSans-30"/>
      </g>
     </g>
    </g>
    <g id="ytick_6">
     <g id="line2d_9">
      <g>
       <use xlink:href="#m7a43e8d5e1" x="55.065625" y="33.85378" style="stroke: #000000; stroke-width: 0.8"/>
      </g>
     </g>
     <g id="text_10">
      <!-- 1 -->
      <g transform="translate(37.885625 39.93253) scale(0.16 -0.16)">
       <use xlink:href="#DejaVuSans-31"/>
      </g>
     </g>
    </g>
    <g id="text_11">
     <!-- Relative Orbital Angular Momentum Variation -->
     <g transform="translate(18.398438 247.097188) rotate(-90) scale(0.1 -0.1)">
      <defs>
       <path id="DejaVuSans-52" d="M 2841 2188 
Q 3044 2119 3236 1894 
Q 3428 1669 3622 1275 
L 4263 0 
L 3584 0 
L 2988 1197 
Q 2756 1666 2539 1819 
Q 2322 1972 1947 1972 
L 1259 1972 
L 1259 0 
L 628 0 
L 628 4666 
L 2053 4666 
Q 2853 4666 3247 4331 
Q 3641 3997 3641 3322 
Q 3641 2881 3436 2590 
Q 3231 2300 2841 2188 
z
M 1259 4147 
L 1259 2491 
L 2053 2491 
Q 2509 2491 2742 2702 
Q 2975 2913 2975 3322 
Q 2975 3731 2742 3939 
Q 2509 4147 2053 4147 
L 1259 4147 
z
" transform="scale(0.015625)"/>
       <path id="DejaVuSans-6c" d="M 603 4863 
L 1178 4863 
L 1178 0 
L 603 0 
L 603 4863 
z
" transform="scale(0.015625)"/>
       <path id="DejaVuSans-61" d="M 2194 1759 
Q 1497 1759 1228 1600 
Q 959 1441 959 1056 
Q 959 750 1161 570 
Q 1363 391 1709 391 
Q 2188 391 2477 730 
Q 2766 1069 2766 1631 
L 2766 1759 
L 2194 1759 
z
M 3341 1997 
L 3341 0 
L 2766 0 
L 2766 531 
Q 2569 213 2275 61 
Q 1981 -91 1556 -91 
Q 1019 -91 701 211 
Q 384 513 384 1019 
Q 384 1609 779 1909 
Q 1175 2209 1959 2209 
L 2766 2209 
L 2766 2266 
Q 2766 2663 2505 2880 
Q 2244 3097 1772 3097 
Q 1472 3097 1187 3025 
Q 903 2953 641 2809 
L 641 3341 
Q 956 3463 1253 3523 
Q 1550 3584 1831 3584 
Q 2591 3584 2966 3190 
Q 3341 2797 3341 1997 
z
" transform="scale(0.015625)"/>
       <path id="DejaVuSans-74" d="M 1172 4494 
L 1172 3500 
L 2356 3500 
L 2356 3053 
L 1172 3053 
L 1172 1153 
Q 1172 725 1289 603 
Q 1406 481 1766 481 
L 2356 481 
L 2356 0 
L 1766 0 
Q 1100 0 847 248 
Q 594 497 594 1153 
L 594 3053 
L 172 3053 
L 172 3500 
L 594 3500 
L 594 4494 
L 1172 4494 
z
" transform="scale(0.015625)"/>
       <path id="DejaVuSans-76" d="M 191 3500 
L 800 3500 
L 1894 563 
L 2988 3500 
L 3597 3500 
L 2284 0 
L 1503 0 
L 191 3500 
z
" transform="scale(0.015625)"/>
       <path id="DejaVuSans-4f" d="M 2522 4238 
Q 1834 4238 1429 3725 
Q 1025 3213 1025 2328 
Q 1025 1447 1429 934 
Q 1834 422 2522 422 
Q 3209 422 3611 934 
Q 4013 1447 4013 2328 
Q 4013 3213 3611 3725 
Q 3209 4238 2522 4238 
z
M 2522 4750 
Q 3503 4750 4090 4092 
Q 4678 3434 4678 2328 
Q 4678 1225 4090 567 
Q 3503 -91 2522 -91 
Q 1538 -91 948 565 
Q 359 1222 359 2328 
Q 359 3434 948 4092 
Q 1538 4750 2522 4750 
z
" transform="scale(0.015625)"/>
       <path id="DejaVuSans-72" d="M 2631 2963 
Q 2534 3019 2420 3045 
Q 2306 3072 2169 3072 
Q 1681 3072 1420 2755 
Q 1159 2438 1159 1844 
L 1159 0 
L 581 0 
L 581 3500 
L 1159 3500 
L 1159 2956 
Q 1341 3275 1631 3429 
Q 1922 3584 2338 3584 
Q 2397 3584 2469 3576 
Q 2541 3569 2628 3553 
L 2631 2963 
z
" transform="scale(0.015625)"/>
       <path id="DejaVuSans-62" d="M 3116 1747 
Q 3116 2381 2855 2742 
Q 2594 3103 2138 3103 
Q 1681 3103 1420 2742 
Q 1159 2381 1159 1747 
Q 1159 1113 1420 752 
Q 1681 391 2138 391 
Q 2594 391 2855 752 
Q 3116 1113 3116 1747 
z
M 1159 2969 
Q 1341 3281 1617 3432 
Q 1894 3584 2278 3584 
Q 2916 3584 3314 3078 
Q 3713 2572 3713 1747 
Q 3713 922 3314 415 
Q 2916 -91 2278 -91 
Q 1894 -91 1617 61 
Q 1341 213 1159 525 
L 1159 0 
L 581 0 
L 581 4863 
L 1159 4863 
L 1159 2969 
z
" transform="scale(0.015625)"/>
       <path id="DejaVuSans-41" d="M 2188 4044 
L 1331 1722 
L 3047 1722 
L 2188 4044 
z
M 1831 4666 
L 2547 4666 
L 4325 0 
L 3669 0 
L 3244 1197 
L 1141 1197 
L 716 0 
L 50 0 
L 1831 4666 
z
" transform="scale(0.015625)"/>
       <path id="DejaVuSans-6e" d="M 3513 2113 
L 3513 0 
L 2938 0 
L 2938 2094 
Q 2938 2591 2744 2837 
Q 2550 3084 2163 3084 
Q 1697 3084 1428 2787 
Q 1159 2491 1159 1978 
L 1159 0 
L 581 0 
L 581 3500 
L 1159 3500 
L 1159 2956 
Q 1366 3272 1645 3428 
Q 1925 3584 2291 3584 
Q 2894 3584 3203 3211 
Q 3513 2838 3513 2113 
z
" transform="scale(0.015625)"/>
       <path id="DejaVuSans-67" d="M 2906 1791 
Q 2906 2416 2648 2759 
Q 2391 3103 1925 3103 
Q 1463 3103 1205 2759 
Q 947 2416 947 1791 
Q 947 1169 1205 825 
Q 1463 481 1925 481 
Q 2391 481 2648 825 
Q 2906 1169 2906 1791 
z
M 3481 434 
Q 3481 -459 3084 -895 
Q 2688 -1331 1869 -1331 
Q 1566 -1331 1297 -1286 
Q 1028 -1241 775 -1147 
L 775 -588 
Q 1028 -725 1275 -790 
Q 1522 -856 1778 -856 
Q 2344 -856 2625 -561 
Q 2906 -266 2906 331 
L 2906 616 
Q 2728 306 2450 153 
Q 2172 0 1784 0 
Q 1141 0 747 490 
Q 353 981 353 1791 
Q 353 2603 747 3093 
Q 1141 3584 1784 3584 
Q 2172 3584 2450 3431 
Q 2728 3278 2906 2969 
L 2906 3500 
L 3481 3500 
L 3481 434 
z
" transform="scale(0.015625)"/>
       <path id="DejaVuSans-75" d="M 544 1381 
L 544 3500 
L 1119 3500 
L 1119 1403 
Q 1119 906 1312 657 
Q 1506 409 1894 409 
Q 2359 409 2629 706 
Q 2900 1003 2900 1516 
L 2900 3500 
L 3475 3500 
L 3475 0 
L 2900 0 
L 2900 538 
Q 2691 219 2414 64 
Q 2138 -91 1772 -91 
Q 1169 -91 856 284 
Q 544 659 544 1381 
z
M 1991 3584 
L 1991 3584 
z
" transform="scale(0.015625)"/>
       <path id="DejaVuSans-4d" d="M 628 4666 
L 1569 4666 
L 2759 1491 
L 3956 4666 
L 4897 4666 
L 4897 0 
L 4281 0 
L 4281 4097 
L 3078 897 
L 2444 897 
L 1241 4097 
L 1241 0 
L 628 0 
L 628 4666 
z
" transform="scale(0.015625)"/>
       <path id="DejaVuSans-6f" d="M 1959 3097 
Q 1497 3097 1228 2736 
Q 959 2375 959 1747 
Q 959 1119 1226 758 
Q 1494 397 1959 397 
Q 2419 397 2687 759 
Q 2956 1122 2956 1747 
Q 2956 2369 2687 2733 
Q 2419 3097 1959 3097 
z
M 1959 3584 
Q 2709 3584 3137 3096 
Q 3566 2609 3566 1747 
Q 3566 888 3137 398 
Q 2709 -91 1959 -91 
Q 1206 -91 779 398 
Q 353 888 353 1747 
Q 353 2609 779 3096 
Q 1206 3584 1959 3584 
z
" transform="scale(0.015625)"/>
       <path id="DejaVuSans-56" d="M 1831 0 
L 50 4666 
L 709 4666 
L 2188 738 
L 3669 4666 
L 4325 4666 
L 2547 0 
L 1831 0 
z
" transform="scale(0.015625)"/>
      </defs>
      <use xlink:href="#DejaVuSans-52"/>
      <use xlink:href="#DejaVuSans-65" x="64.982422"/>
      <use xlink:href="#DejaVuSans-6c" x="126.505859"/>
      <use xlink:href="#DejaVuSans-61" x="154.289062"/>
      <use xlink:href="#DejaVuSans-74" x="215.568359"/>
      <use xlink:href="#DejaVuSans-69" x="254.777344"/>
      <use xlink:href="#DejaVuSans-76" x="282.560547"/>
      <use xlink:href="#DejaVuSans-65" x="341.740234"/>
      <use xlink:href="#DejaVuSans-20" x="403.263672"/>
      <use xlink:href="#DejaVuSans-4f" x="435.050781"/>
      <use xlink:href="#DejaVuSans-72" x="513.761719"/>
      <use xlink:href="#DejaVuSans-62" x="554.875"/>
      <use xlink:href="#DejaVuSans-69" x="618.351562"/>
      <use xlink:href="#DejaVuSans-74" x="646.134766"/>
      <use xlink:href="#DejaVuSans-61" x="685.34375"/>
      <use xlink:href="#DejaVuSans-6c" x="746.623047"/>
      <use xlink:href="#DejaVuSans-20" x="774.40625"/>
      <use xlink:href="#DejaVuSans-41" x="806.193359"/>
      <use xlink:href="#DejaVuSans-6e" x="874.601562"/>
      <use xlink:href="#DejaVuSans-67" x="937.980469"/>
      <use xlink:href="#DejaVuSans-75" x="1001.457031"/>
      <use xlink:href="#DejaVuSans-6c" x="1064.835938"/>
      <use xlink:href="#DejaVuSans-61" x="1092.619141"/>
      <use xlink:href="#DejaVuSans-72" x="1153.898438"/>
      <use xlink:href="#DejaVuSans-20" x="1195.011719"/>
      <use xlink:href="#DejaVuSans-4d" x="1226.798828"/>
      <use xlink:href="#DejaVuSans-6f" x="1313.078125"/>
      <use xlink:href="#DejaVuSans-6d" x="1374.259766"/>
      <use xlink:href="#DejaVuSans-65" x="1471.671875"/>
      <use xlink:href="#DejaVuSans-6e" x="1533.195312"/>
      <use xlink:href="#DejaVuSans-74" x="1596.574219"/>
      <use xlink:href="#DejaVuSans-75" x="1635.783203"/>
      <use xlink:href="#DejaVuSans-6d" x="1699.162109"/>
      <use xlink:href="#DejaVuSans-20" x="1796.574219"/>
      <use xlink:href="#DejaVuSans-56" x="1828.361328"/>
      <use xlink:href="#DejaVuSans-61" x="1889.019531"/>
      <use xlink:href="#DejaVuSans-72" x="1950.298828"/>
      <use xlink:href="#DejaVuSans-69" x="1991.412109"/>
      <use xlink:href="#DejaVuSans-61" x="2019.195312"/>
      <use xlink:href="#DejaVuSans-74" x="2080.474609"/>
      <use xlink:href="#DejaVuSans-69" x="2119.683594"/>
      <use xlink:href="#DejaVuSans-6f" x="2147.466797"/>
      <use xlink:href="#DejaVuSans-6e" x="2208.648438"/>
     </g>
    </g>
    <g id="text_12">
     <!-- 1e−11 -->
     <g transform="translate(55.065625 22.9575) scale(0.16 -0.16)">
      <use xlink:href="#DejaVuSans-31"/>
      <use xlink:href="#DejaVuSans-65" x="63.623047"/>
      <use xlink:href="#DejaVuSans-2212" x="125.146484"/>
      <use xlink:href="#DejaVuSans-31" x="208.935547"/>
      <use xlink:href="#DejaVuSans-31" x="272.558594"/>
     </g>
    </g>
   </g>
   <g id="line2d_10">
    <path d="M 68.435369 71.310142 
L 68.876372 65.30434 
L 69.611378 54.63356 
L 69.758379 53.842489 
L 69.90538 53.931475 
L 70.052381 54.952552 
L 70.934387 65.087908 
L 71.081388 64.74026 
L 72.257396 58.377005 
L 72.698399 57.518818 
L 73.286404 56.932114 
L 73.874408 56.662893 
L 74.756414 56.508299 
L 76.961429 56.437412 
L 88.868513 56.480397 
L 89.603519 56.687779 
L 90.044522 56.818242 
L 90.191523 56.754142 
L 90.338524 56.54148 
L 90.632526 55.315283 
L 91.073529 51.019069 
L 91.367531 48.746909 
L 91.514532 48.899241 
L 91.808534 52.352351 
L 92.249537 59.722353 
L 92.543539 61.244165 
L 92.69054 60.740414 
L 93.131544 56.836341 
L 93.572547 53.807046 
L 93.866549 53.295753 
L 94.01355 53.385493 
L 94.454553 54.257255 
L 95.042557 55.392957 
L 95.48356 55.854478 
L 96.071564 56.13124 
L 96.953571 56.257178 
L 99.452588 56.293375 
L 108.566652 56.401214 
L 109.448659 56.656106 
L 110.330665 57.236024 
L 110.771668 57.395897 
L 111.06567 57.275238 
L 111.653674 56.852931 
L 111.800675 56.90572 
L 112.094677 57.456226 
L 112.388679 58.708818 
L 112.976684 61.550337 
L 113.123685 61.62952 
L 113.270686 61.27433 
L 113.564688 59.476511 
L 114.005691 56.739814 
L 114.152692 56.585973 
L 114.299693 56.940409 
L 114.593695 58.805345 
L 115.034698 61.784114 
L 115.3287 62.339145 
L 115.475701 62.160419 
L 116.357707 58.805345 
L 116.651709 58.552715 
L 116.945712 58.652259 
L 118.709724 59.962163 
L 119.738731 60.191415 
L 121.502744 60.307549 
L 126.941782 60.312074 
L 129.146798 60.155972 
L 131.351813 59.922949 
L 132.233819 60.090363 
L 133.115826 60.34601 
L 133.556829 60.198956 
L 134.291834 59.505921 
L 134.732837 59.213323 
L 135.17384 59.161289 
L 136.055846 59.134895 
L 136.937853 59.004432 
L 143.552899 59.235193 
L 151.343954 59.185421 
L 152.078959 59.110763 
L 152.519963 59.244996 
L 153.107967 59.693697 
L 153.842972 60.291713 
L 154.577977 60.505129 
L 155.165981 60.830908 
L 155.459983 60.94855 
L 155.606984 60.879926 
L 155.900986 60.257023 
L 156.194988 58.804591 
L 157.517998 49.810216 
L 157.812 49.390926 
L 157.959001 49.433911 
L 158.253003 49.829823 
L 158.841007 50.714405 
L 159.135009 50.844113 
L 159.576012 50.678961 
L 161.046023 49.716705 
L 162.07503 49.470109 
L 163.986043 49.33663 
L 167.80807 49.297415 
L 168.396075 49.446731 
L 168.837078 49.734804 
L 170.013086 50.743061 
L 170.307088 50.370526 
L 170.748091 49.139805 
L 171.189094 47.964888 
L 171.483096 47.652682 
L 171.777098 47.718291 
L 172.806106 48.470147 
L 173.39411 48.482967 
L 174.423117 48.203189 
L 175.305123 47.761275 
L 176.187129 47.261295 
L 176.481132 47.283164 
L 176.775134 47.510154 
L 177.363138 48.197156 
L 177.510139 48.197156 
L 177.65714 48.028988 
L 177.951142 47.073519 
L 178.539146 43.480143 
L 178.980149 41.367102 
L 179.274151 40.789447 
L 179.568153 40.71479 
L 180.156157 41.109948 
L 180.744162 41.380677 
L 181.479167 41.408579 
L 186.624203 40.80453 
L 188.829219 40.402585 
L 189.270222 40.673313 
L 189.711225 41.253985 
L 190.593231 42.615169 
L 190.887233 42.400245 
L 191.181235 41.759998 
L 191.769239 39.593415 
L 192.210243 38.214886 
L 192.504245 37.906451 
L 192.651246 37.975076 
L 192.945248 38.507484 
L 194.121256 41.542812 
L 194.415258 41.661963 
L 194.70926 41.523959 
L 196.326272 40.165037 
L 196.767275 40.195202 
L 197.208278 40.437274 
L 198.090284 41.04811 
L 198.237285 40.948567 
L 198.531287 40.180874 
L 198.97229 38.23751 
L 199.119291 38.203574 
L 199.413293 39.709549 
L 199.707295 41.445531 
L 199.854296 41.746424 
L 200.001297 41.651405 
L 201.177306 39.030088 
L 201.618309 38.809886 
L 202.500315 38.698276 
L 206.175341 38.654537 
L 212.496386 38.517288 
L 213.378392 38.467516 
L 217.641422 39.039138 
L 218.229426 39.611514 
L 218.964431 40.461406 
L 219.111432 40.471209 
L 219.258433 40.354321 
L 219.552435 39.64922 
L 220.581443 35.733835 
L 220.728444 35.932168 
L 221.022446 37.128201 
L 221.904452 41.677799 
L 222.198454 42.246405 
L 222.492456 42.426639 
L 223.08046 42.361031 
L 223.962466 42.293914 
L 229.695507 42.600841 
L 231.60652 42.778813 
L 232.194525 42.615923 
L 232.92953 42.137812 
L 234.39954 41.048864 
L 234.987544 40.90709 
L 235.722549 40.985518 
L 238.515569 41.77131 
L 238.809571 42.117451 
L 239.250574 43.097805 
L 240.573584 46.820135 
L 241.014587 47.103684 
L 241.45559 47.032797 
L 242.190595 46.856333 
L 243.072601 46.947581 
L 244.836614 47.146669 
L 247.629633 47.136111 
L 249.687648 47.136111 
L 250.863656 47.240179 
L 251.304659 46.950598 
L 252.77467 45.427278 
L 253.362674 45.329997 
L 257.478703 45.328488 
L 258.360709 45.646726 
L 259.83072 46.518488 
L 260.124722 46.827676 
L 260.418724 47.494317 
L 260.712726 48.877371 
L 261.153729 52.78069 
L 261.741733 58.948627 
L 262.035735 60.208006 
L 262.182736 60.134856 
L 262.476738 58.904134 
L 263.064742 55.684047 
L 263.358744 55.038522 
L 263.505745 54.978946 
L 263.799748 55.194624 
L 264.975756 56.578432 
L 265.56376 56.843882 
L 266.592767 56.999985 
L 268.944784 57.078413 
L 280.410865 57.04674 
L 280.851868 56.723223 
L 281.292871 56.087501 
L 281.880875 55.177279 
L 282.027876 55.162197 
L 282.174877 55.340169 
L 282.468879 56.458527 
L 282.909882 60.0421 
L 283.497886 64.922002 
L 283.644888 65.418212 
L 283.791889 65.508707 
L 283.93889 65.215354 
L 284.232892 63.762168 
L 284.967897 59.66127 
L 285.261899 59.052696 
L 285.555901 58.972759 
L 285.996904 59.294014 
L 286.731909 59.816618 
L 287.466914 60.005902 
L 288.348921 60.036067 
L 288.789924 59.909375 
L 289.230927 59.523266 
L 290.406935 58.069325 
L 290.700937 58.388317 
L 291.729945 60.183874 
L 292.023947 60.147676 
L 292.46495 59.7676 
L 293.346956 58.994629 
L 294.081961 58.684686 
L 295.110968 58.515009 
L 297.315984 58.42904 
L 307.459056 58.378514 
L 308.635064 58.550453 
L 309.811072 58.794787 
L 310.105074 58.671866 
L 310.546077 58.17641 
L 311.134081 57.386093 
L 311.428084 57.332551 
L 311.722086 57.595738 
L 312.604092 58.728425 
L 313.045095 58.824952 
L 313.7801 58.58665 
L 314.809107 58.278216 
L 316.132117 58.135687 
L 318.484133 58.118343 
L 320.248146 58.279724 
L 321.130152 58.487861 
L 321.718156 58.791017 
L 322.453161 59.458412 
L 323.041165 60.012689 
L 323.335168 60.030034 
L 323.62917 59.647696 
L 323.923172 58.760852 
L 324.658177 55.919332 
L 324.805178 55.753426 
L 324.952179 55.834871 
L 325.246181 56.662139 
L 326.128187 59.999869 
L 326.422189 60.303779 
L 326.716191 60.250991 
L 327.304196 59.711796 
L 328.039201 59.091156 
L 328.774206 58.761606 
L 329.509211 58.620586 
L 329.803213 58.696752 
L 330.097215 58.946365 
L 330.979221 59.99082 
L 331.420225 60.072264 
L 333.772241 60.017968 
L 335.830256 60.037575 
L 335.830256 60.037575 
" clip-path="url(#p8e63476d4b)" style="fill: none; stroke: #1f77b4; stroke-width: 1.5; stroke-linecap: square"/>
   </g>
   <g id="line2d_11">
    <path d="M 68.435369 71.310142 
L 68.729371 91.349717 
L 69.90538 197.387056 
L 70.052381 194.712439 
L 70.346383 171.952272 
L 70.787386 131.441163 
L 70.934387 126.607287 
L 71.081388 127.080945 
L 71.37539 137.938188 
L 71.963394 160.753953 
L 72.404397 168.357605 
L 72.8454 172.03567 
L 73.286404 174.07304 
L 73.727407 175.262531 
L 74.16841 175.959118 
L 74.756414 176.458437 
L 75.491419 176.747122 
L 76.667427 176.919799 
L 79.019444 177.009077 
L 84.899485 177.069487 
L 88.280509 177.033134 
L 88.574511 176.826778 
L 88.868513 176.370762 
L 89.162516 175.445365 
L 89.456518 173.697215 
L 89.75052 170.701302 
L 90.485525 160.809017 
L 90.632526 161.247391 
L 90.779527 163.925215 
L 91.073529 176.624698 
L 91.514532 197.608916 
L 91.661533 197.958546 
L 91.808534 193.425116 
L 92.837541 138.938429 
L 92.984543 139.38108 
L 93.425546 146.426072 
L 93.719548 150.119106 
L 93.866549 150.863272 
L 94.01355 150.892141 
L 94.307552 149.348743 
L 95.48356 140.243928 
L 95.924563 138.646001 
L 96.365566 137.759096 
L 96.806569 137.2694 
L 97.394574 136.930462 
L 98.27658 136.723571 
L 99.893591 136.6097 
L 105.920634 136.566397 
L 107.537645 136.409759 
L 108.27265 136.134439 
L 108.713653 135.76984 
L 109.154657 135.105863 
L 109.59566 133.950587 
L 110.624667 130.637656 
L 110.771668 131.003858 
L 111.06567 133.310134 
L 111.506673 138.172343 
L 111.653674 138.523043 
L 111.800675 137.516386 
L 112.094677 131.080307 
L 112.976684 103.138772 
L 113.123685 102.617 
L 113.270686 104.126183 
L 113.564688 112.070911 
L 114.005691 125.548774 
L 114.152692 127.422556 
L 114.299693 127.399568 
L 114.593695 122.808937 
L 115.034698 113.958592 
L 115.181699 112.654162 
L 115.3287 112.459032 
L 115.475701 113.219771 
L 116.357707 128.847806 
L 116.651709 130.155979 
L 116.798711 130.18859 
L 117.092713 129.551878 
L 118.12172 126.344798 
L 118.709724 125.387859 
L 119.297728 124.902975 
L 120.032733 124.615358 
L 121.061741 124.456047 
L 123.707759 124.387618 
L 126.206777 124.497746 
L 127.823788 124.750078 
L 128.852796 125.143546 
L 129.881803 125.785069 
L 130.616808 126.447976 
L 131.057811 127.14189 
L 132.233819 129.339106 
L 132.527821 129.317722 
L 132.968825 129.091585 
L 133.115826 129.13275 
L 133.409828 129.623515 
L 133.70383 130.733884 
L 134.732837 135.517507 
L 135.026839 135.773582 
L 135.614843 135.773047 
L 136.055846 136.048368 
L 136.349848 135.953743 
L 137.084854 135.504677 
L 138.848866 134.979697 
L 140.171875 134.811297 
L 142.670893 134.723623 
L 146.345919 134.763183 
L 149.432941 134.969005 
L 150.020945 135.18445 
L 150.608949 135.611063 
L 151.490955 136.315669 
L 151.784957 136.244032 
L 152.078959 135.858049 
L 152.519963 134.660005 
L 153.107967 132.930566 
L 153.254968 132.784085 
L 153.401969 132.865344 
L 153.54897 133.221924 
L 153.842972 134.862085 
L 154.283975 139.525422 
L 155.165981 149.836301 
L 156.194988 157.31539 
L 156.635992 165.643428 
L 157.517998 183.576134 
L 157.812 186.100527 
L 157.959001 186.525536 
L 158.106002 186.497203 
L 158.400004 185.580894 
L 158.988008 183.559027 
L 159.28201 183.36657 
L 159.576012 183.669155 
L 161.340025 186.636199 
L 161.928029 187.019509 
L 162.810035 187.309264 
L 164.280045 187.493167 
L 166.044058 187.503324 
L 166.779063 187.340805 
L 167.220066 187.080454 
L 167.661069 186.573651 
L 168.102072 185.706525 
L 169.13108 183.282103 
L 169.278081 183.32701 
L 169.425082 183.599657 
L 169.719084 184.83245 
L 170.307088 187.727858 
L 170.454089 187.754053 
L 170.60109 187.306056 
L 170.895092 185.18208 
L 171.483096 180.274964 
L 171.777098 179.627026 
L 171.924099 179.810929 
L 172.218101 180.761452 
L 172.953107 183.270876 
L 173.39411 183.962652 
L 173.982114 184.390334 
L 174.717119 184.935094 
L 175.452124 185.866372 
L 175.893127 186.320249 
L 176.187129 186.266789 
L 176.481132 185.771747 
L 176.922135 184.682762 
L 177.069136 184.599898 
L 177.216137 184.922264 
L 177.363138 185.819327 
L 177.65714 189.837934 
L 178.098143 200.882287 
L 178.686147 214.789436 
L 178.980149 217.645818 
L 179.12715 218.099695 
L 179.274151 218.104507 
L 179.568153 217.414335 
L 180.009156 216.330696 
L 180.303159 216.087986 
L 180.597161 216.217894 
L 181.185165 216.979703 
L 182.067171 218.084192 
L 182.802176 218.642851 
L 183.684182 219.036853 
L 185.889198 219.666615 
L 188.094213 220.272854 
L 188.535217 220.1237 
L 188.97622 219.629193 
L 189.417223 218.649267 
L 190.44623 216.006192 
L 190.593231 216.016884 
L 190.887233 216.675514 
L 191.328236 218.879146 
L 192.063241 222.85445 
L 192.357244 223.207822 
L 192.504245 222.998793 
L 192.798247 221.929588 
L 193.827254 216.989326 
L 194.121256 216.677118 
L 194.415258 216.906997 
L 195.003262 218.141929 
L 195.591266 219.237864 
L 196.032269 219.638281 
L 196.914276 219.971873 
L 197.208278 220.604843 
L 197.50228 222.196889 
L 197.943283 227.143566 
L 198.237285 229.84812 
L 198.384286 229.104488 
L 198.678288 220.539086 
L 198.97229 208.894909 
L 199.119291 207.227484 
L 199.266292 209.792507 
L 199.854296 230.035231 
L 200.001297 231.26054 
L 200.148299 231.187834 
L 201.030305 226.977304 
L 201.471308 226.359304 
L 201.912311 226.15562 
L 202.647316 226.069549 
L 211.173376 226.006466 
L 212.202384 226.262006 
L 212.937389 226.385499 
L 213.525393 226.238484 
L 215.289405 225.563815 
L 216.318413 225.191197 
L 216.906417 224.743201 
L 217.494421 223.981927 
L 218.523428 222.473278 
L 218.670429 222.494128 
L 218.964431 222.972597 
L 219.405434 224.658733 
L 219.699436 225.542966 
L 219.846437 225.482556 
L 219.993438 224.883266 
L 220.287441 221.747823 
L 221.463449 202.709558 
L 221.757451 201.87344 
L 221.904452 201.871836 
L 222.492456 202.238573 
L 222.786458 202.02794 
L 223.227461 201.282704 
L 224.109468 199.715784 
L 224.697472 199.058223 
L 225.432477 198.591515 
L 226.461484 198.252577 
L 230.577513 197.416993 
L 231.459519 197.395075 
L 231.900522 197.558128 
L 233.664535 198.420977 
L 234.252539 198.371259 
L 234.987544 198.060655 
L 236.898558 197.138465 
L 237.486562 197.074848 
L 238.074566 197.269978 
L 238.956572 197.738289 
L 239.250574 197.619608 
L 239.544576 197.222933 
L 240.132581 195.738342 
L 240.720585 194.363344 
L 241.161588 193.937266 
L 241.602591 193.908397 
L 242.9256 194.074124 
L 246.600626 193.982707 
L 249.687648 193.982707 
L 250.422653 193.901982 
L 250.716655 194.029752 
L 251.010657 194.338218 
L 251.598661 195.450725 
L 252.186666 196.532761 
L 252.627669 196.863145 
L 253.068672 196.83588 
L 254.24468 196.552541 
L 255.420688 196.622039 
L 257.772705 196.941197 
L 258.50771 197.315954 
L 259.683718 198.139241 
L 259.977721 197.916312 
L 260.271723 197.284947 
L 260.859727 195.817997 
L 261.006728 195.951648 
L 261.153729 196.523673 
L 261.447731 199.250145 
L 262.476738 213.518152 
L 262.623739 214.06505 
L 262.77074 214.174109 
L 263.064742 213.603154 
L 263.505745 212.511495 
L 263.799748 212.268251 
L 264.09375 212.392279 
L 265.710761 213.89772 
L 266.445766 214.127064 
L 267.768776 214.268734 
L 272.61981 214.371377 
L 278.499851 214.533896 
L 279.969862 214.802802 
L 280.704867 214.91293 
L 281.14587 214.756826 
L 281.586873 214.281564 
L 282.027876 213.720231 
L 282.174877 213.661425 
L 282.321878 213.747496 
L 282.61588 214.52855 
L 282.909882 216.216291 
L 283.791889 222.193681 
L 283.93889 222.501612 
L 284.085891 222.530481 
L 284.379893 221.934934 
L 285.114898 219.766051 
L 285.4089 219.482712 
L 285.702902 219.520134 
L 286.437907 220.085744 
L 287.172912 220.52091 
L 288.20192 220.827772 
L 288.789924 220.85076 
L 289.230927 220.66846 
L 289.818931 220.071844 
L 290.259934 219.672496 
L 290.553936 219.677307 
L 290.847938 219.954231 
L 291.729945 221.02504 
L 292.023947 221.047493 
L 292.46495 220.823495 
L 293.493957 220.19801 
L 294.375963 219.946212 
L 295.845974 219.80775 
L 299.521 219.758032 
L 305.107039 219.694415 
L 307.312054 219.698691 
L 308.488063 219.872972 
L 309.811072 220.220998 
L 310.105074 220.065429 
L 310.546077 219.423371 
L 311.134081 218.364858 
L 311.428084 218.265422 
L 311.722086 218.582976 
L 312.604092 220.045114 
L 312.898094 220.174488 
L 313.339097 220.079328 
L 315.103109 219.357615 
L 316.426119 219.207392 
L 318.631134 219.207926 
L 319.954144 219.373653 
L 321.130152 219.767655 
L 321.718156 220.258955 
L 322.30616 221.098815 
L 323.041165 222.246072 
L 323.188166 222.304344 
L 323.335168 222.223084 
L 323.62917 221.490679 
L 323.923172 219.879922 
L 324.658177 214.871231 
L 324.805178 214.598583 
L 324.952179 214.753618 
L 325.246181 216.211479 
L 325.981186 221.34099 
L 326.275188 222.204908 
L 326.422189 222.335351 
L 326.56919 222.313967 
L 326.863192 221.962733 
L 328.186202 219.765517 
L 328.921207 219.143774 
L 329.509211 218.893045 
L 329.803213 219.030438 
L 330.097215 219.513184 
L 330.979221 221.369859 
L 331.273224 221.474641 
L 333.919242 221.412627 
L 335.830256 221.454861 
L 335.830256 221.454861 
" clip-path="url(#p8e63476d4b)" style="fill: none; stroke: #ff7f0e; stroke-width: 1.5; stroke-linecap: square"/>
   </g>
   <g id="line2d_12">
    <path d="M 68.435369 71.310142 
L 69.611378 63.186979 
L 69.758379 63.116231 
L 69.90538 63.497842 
L 70.199382 65.450488 
L 70.640385 68.748634 
L 70.787386 69.179125 
L 70.934387 69.183413 
L 71.228389 68.352873 
L 71.816393 66.365067 
L 72.257396 65.536672 
L 72.8454 64.950535 
L 73.433405 64.678691 
L 74.462412 64.519615 
L 77.255432 64.475451 
L 89.456518 64.384979 
L 89.897521 64.087409 
L 90.191523 63.611467 
L 90.485525 62.702891 
L 91.367531 58.995264 
L 91.514532 59.586546 
L 91.955535 63.940338 
L 92.249537 66.05592 
L 92.396538 66.204705 
L 92.543539 65.75792 
L 92.984543 62.4825 
L 93.425546 59.746479 
L 93.719548 59.113606 
L 93.866549 59.081448 
L 94.160551 59.324992 
L 94.895556 60.129376 
L 95.48356 60.369491 
L 96.512567 60.422659 
L 106.80264 60.381068 
L 110.183664 60.499839 
L 110.771668 60.644765 
L 111.653674 61.103127 
L 111.947676 60.904604 
L 112.388679 60.547004 
L 112.682681 60.667062 
L 112.976684 60.883165 
L 113.123685 60.879735 
L 113.417687 60.496838 
L 113.85869 59.578399 
L 114.005691 59.489214 
L 114.152692 59.607127 
L 114.446694 60.430377 
L 115.034698 62.527092 
L 115.3287 62.824234 
L 115.622702 62.61542 
L 116.210706 61.938383 
L 116.651709 61.814038 
L 117.239714 61.997983 
L 118.415722 62.383452 
L 119.738731 62.540813 
L 123.266756 62.619279 
L 129.881803 62.567397 
L 130.91081 62.626997 
L 131.792816 62.976879 
L 132.674823 63.272305 
L 133.70383 63.346055 
L 136.496849 63.228999 
L 137.231855 63.157393 
L 141.788887 63.207989 
L 149.432941 63.31261 
L 151.784957 63.384216 
L 152.960966 63.181834 
L 153.401969 63.434811 
L 153.842972 64.073259 
L 154.430976 65.476215 
L 155.312982 67.624812 
L 155.606984 67.86707 
L 155.900986 67.689557 
L 156.341989 66.765544 
L 156.929994 65.422618 
L 157.223996 65.128906 
L 157.517998 65.126333 
L 157.959001 65.453918 
L 158.547005 65.904562 
L 158.988008 66.002323 
L 159.723013 65.874119 
L 161.193024 65.649011 
L 163.986043 65.579121 
L 167.073065 65.459063 
L 168.102072 65.192794 
L 168.837078 65.038005 
L 169.13108 65.1765 
L 169.572083 65.770355 
L 170.013086 66.461542 
L 170.160087 66.531004 
L 170.307088 66.450394 
L 170.60109 65.776358 
L 171.483096 62.684882 
L 171.777098 62.582833 
L 172.0711 62.912991 
L 172.806106 63.907323 
L 173.247109 64.137147 
L 173.982114 64.168447 
L 175.893127 63.921044 
L 176.775134 63.689933 
L 177.069136 63.86616 
L 177.363138 64.367399 
L 177.951142 66.156253 
L 178.392145 67.147155 
L 178.686147 67.259494 
L 179.12715 66.892462 
L 179.568153 66.531004 
L 180.009156 66.480408 
L 180.744162 66.769403 
L 181.773169 67.108136 
L 183.096178 67.252634 
L 185.742197 67.273644 
L 187.800211 67.114139 
L 189.417223 66.930194 
L 190.005227 67.103849 
L 190.887233 67.478599 
L 191.328236 67.307946 
L 191.91624 66.704658 
L 192.504245 66.129241 
L 192.798247 66.037911 
L 193.23925 66.195272 
L 194.562259 67.093129 
L 195.150263 67.077693 
L 196.620274 66.826002 
L 196.914276 66.949918 
L 197.208278 67.274502 
L 197.50228 67.94082 
L 198.237285 70.497183 
L 198.384286 70.085129 
L 198.678288 66.627478 
L 198.97229 62.125758 
L 199.119291 61.561917 
L 199.266292 62.714468 
L 199.854296 71.057593 
L 200.001297 71.378318 
L 200.148299 71.111619 
L 200.883304 68.556542 
L 201.324307 67.963974 
L 201.76531 67.751301 
L 202.647316 67.64282 
L 205.881339 67.608089 
L 214.848402 67.497036 
L 216.465414 67.283077 
L 218.376427 66.918617 
L 218.81743 67.270643 
L 219.405434 67.894512 
L 219.552435 67.861925 
L 219.699436 67.648394 
L 219.993438 66.534863 
L 220.434442 63.319042 
L 220.875445 60.10708 
L 221.169447 59.072015 
L 221.316448 58.94381 
L 221.463449 59.015845 
L 222.492456 60.358772 
L 222.786458 60.269157 
L 224.844473 58.988403 
L 226.020481 58.791595 
L 229.254504 58.581495 
L 231.753521 58.57249 
L 232.782529 58.595215 
L 233.664535 58.384258 
L 235.722549 57.777111 
L 237.045559 57.683209 
L 237.927565 57.798121 
L 238.515569 58.117988 
L 239.98558 59.206221 
L 240.426583 59.055292 
L 241.161588 58.701123 
L 241.896593 58.620513 
L 246.306624 58.798027 
L 250.863656 58.925373 
L 251.45166 59.382448 
L 252.186666 60.001601 
L 252.627669 60.124231 
L 253.362674 60.01961 
L 254.538682 59.891834 
L 256.596697 59.992168 
L 257.625704 60.169681 
L 258.360709 60.503698 
L 259.83072 61.455152 
L 260.124722 61.187596 
L 260.712726 60.192835 
L 260.859727 60.193264 
L 261.006728 60.488262 
L 261.30073 62.290408 
L 261.741733 67.928814 
L 262.329737 75.144687 
L 262.623739 76.272368 
L 262.77074 76.251787 
L 263.064742 75.612053 
L 263.505745 74.636159 
L 263.799748 74.470222 
L 264.09375 74.630585 
L 265.56376 75.981229 
L 266.298765 76.220058 
L 267.621774 76.360267 
L 272.325808 76.455456 
L 278.499851 76.619677 
L 279.67586 76.867938 
L 281.292871 77.371321 
L 281.586873 77.186519 
L 282.468879 76.386423 
L 282.61588 76.574227 
L 282.909882 77.579278 
L 283.350885 80.452935 
L 283.93889 84.152844 
L 284.232892 84.860325 
L 284.379893 84.90749 
L 284.673895 84.608633 
L 285.261899 83.834693 
L 285.555901 83.76566 
L 285.996904 83.997627 
L 287.319913 84.940506 
L 288.348921 85.326405 
L 289.965932 85.687005 
L 292.905953 85.752179 
L 294.669965 85.563947 
L 298.19799 85.530073 
L 310.105074 85.669854 
L 311.134081 85.792055 
L 312.898094 85.547224 
L 314.662106 85.753037 
L 318.631134 85.759468 
L 322.894164 85.800631 
L 323.482169 86.08834 
L 324.364175 86.639317 
L 324.658177 86.56128 
L 325.687184 85.896677 
L 326.128187 86.020593 
L 327.598198 86.694629 
L 329.36221 87.088674 
L 333.62524 87.168427 
L 335.830256 87.137126 
L 335.830256 87.137126 
" clip-path="url(#p8e63476d4b)" style="fill: none; stroke: #2ca02c; stroke-width: 1.5; stroke-linecap: square"/>
   </g>
   <g id="patch_3">
    <path d="M 55.065625 241.036875 
L 55.065625 25.9575 
" style="fill: none; stroke: #000000; stroke-width: 0.8; stroke-linejoin: miter; stroke-linecap: square"/>
   </g>
   <g id="patch_4">
    <path d="M 349.2 241.036875 
L 349.2 25.9575 
" style="fill: none; stroke: #000000; stroke-width: 0.8; stroke-linejoin: miter; stroke-linecap: square"/>
   </g>
   <g id="patch_5">
    <path d="M 55.065625 241.036875 
L 349.2 241.036875 
" style="fill: none; stroke: #000000; stroke-width: 0.8; stroke-linejoin: miter; stroke-linecap: square"/>
   </g>
   <g id="patch_6">
    <path d="M 55.065625 25.9575 
L 349.2 25.9575 
" style="fill: none; stroke: #000000; stroke-width: 0.8; stroke-linejoin: miter; stroke-linecap: square"/>
   </g>
  </g>
 </g>
 <defs>
  <clipPath id="p8e63476d4b">
   <rect x="55.065625" y="25.9575" width="294.134375" height="215.079375"/>
  </clipPath>
 </defs>
</svg>
