<?xml version="1.0" encoding="utf-8" standalone="no"?>
<!DOCTYPE svg PUBLIC "-//W3C//DTD SVG 1.1//EN"
  "http://www.w3.org/Graphics/SVG/1.1/DTD/svg11.dtd">
<svg xmlns:xlink="http://www.w3.org/1999/xlink" width="414pt" height="288pt" viewBox="0 0 414 288" xmlns="http://www.w3.org/2000/svg" version="1.1">
 <metadata>
  <rdf:RDF xmlns:dc="http://purl.org/dc/elements/1.1/" xmlns:cc="http://creativecommons.org/ns#" xmlns:rdf="http://www.w3.org/1999/02/22-rdf-syntax-ns#">
   <cc:Work>
    <dc:type rdf:resource="http://purl.org/dc/dcmitype/StillImage"/>
    <dc:date>2023-09-07T00:34:37.506154</dc:date>
    <dc:format>image/svg+xml</dc:format>
    <dc:creator>
     <cc:Agent>
      <dc:title>Matplotlib v3.7.2, https://matplotlib.org/</dc:title>
     </cc:Agent>
    </dc:creator>
   </cc:Work>
  </rdf:RDF>
 </metadata>
 <defs>
  <style type="text/css">*{stroke-linejoin: round; stroke-linecap: butt}</style>
 </defs>
 <g id="figure_1">
  <g id="patch_1">
   <path d="M 0 288 
L 414 288 
L 414 0 
L 0 0 
L 0 288 
z
" style="fill: none"/>
  </g>
  <g id="axes_1">
   <g id="patch_2">
    <path d="M 65.245625 241.036875 
L 403.2 241.036875 
L 403.2 10.8 
L 65.245625 10.8 
L 65.245625 241.036875 
z
" style="fill: none"/>
   </g>
   <g id="matplotlib.axis_1">
    <g id="xtick_1">
     <g id="line2d_1">
      <defs>
       <path id="mb0d6dda72f" d="M 0 0 
L 0 3.5 
" style="stroke: #000000; stroke-width: 0.8"/>
      </defs>
      <g>
       <use xlink:href="#mb0d6dda72f" x="80.607188" y="241.036875" style="stroke: #000000; stroke-width: 0.8"/>
      </g>
     </g>
     <g id="text_1">
      <!-- 0 -->
      <g transform="translate(75.517188 260.194375) scale(0.16 -0.16)">
       <defs>
        <path id="DejaVuSans-30" d="M 2034 4250 
Q 1547 4250 1301 3770 
Q 1056 3291 1056 2328 
Q 1056 1369 1301 889 
Q 1547 409 2034 409 
Q 2525 409 2770 889 
Q 3016 1369 3016 2328 
Q 3016 3291 2770 3770 
Q 2525 4250 2034 4250 
z
M 2034 4750 
Q 2819 4750 3233 4129 
Q 3647 3509 3647 2328 
Q 3647 1150 3233 529 
Q 2819 -91 2034 -91 
Q 1250 -91 836 529 
Q 422 1150 422 2328 
Q 422 3509 836 4129 
Q 1250 4750 2034 4750 
z
" transform="scale(0.015625)"/>
       </defs>
       <use xlink:href="#DejaVuSans-30"/>
      </g>
     </g>
    </g>
    <g id="xtick_2">
     <g id="line2d_2">
      <g>
       <use xlink:href="#mb0d6dda72f" x="168.387545" y="241.036875" style="stroke: #000000; stroke-width: 0.8"/>
      </g>
     </g>
     <g id="text_2">
      <!-- 1 -->
      <g transform="translate(163.297545 260.194375) scale(0.16 -0.16)">
       <defs>
        <path id="DejaVuSans-31" d="M 794 531 
L 1825 531 
L 1825 4091 
L 703 3866 
L 703 4441 
L 1819 4666 
L 2450 4666 
L 2450 531 
L 3481 531 
L 3481 0 
L 794 0 
L 794 531 
z
" transform="scale(0.015625)"/>
       </defs>
       <use xlink:href="#DejaVuSans-31"/>
      </g>
     </g>
    </g>
    <g id="xtick_3">
     <g id="line2d_3">
      <g>
       <use xlink:href="#mb0d6dda72f" x="256.167902" y="241.036875" style="stroke: #000000; stroke-width: 0.8"/>
      </g>
     </g>
     <g id="text_3">
      <!-- 2 -->
      <g transform="translate(251.077902 260.194375) scale(0.16 -0.16)">
       <defs>
        <path id="DejaVuSans-32" d="M 1228 531 
L 3431 531 
L 3431 0 
L 469 0 
L 469 531 
Q 828 903 1448 1529 
Q 2069 2156 2228 2338 
Q 2531 2678 2651 2914 
Q 2772 3150 2772 3378 
Q 2772 3750 2511 3984 
Q 2250 4219 1831 4219 
Q 1534 4219 1204 4116 
Q 875 4013 500 3803 
L 500 4441 
Q 881 4594 1212 4672 
Q 1544 4750 1819 4750 
Q 2544 4750 2975 4387 
Q 3406 4025 3406 3419 
Q 3406 3131 3298 2873 
Q 3191 2616 2906 2266 
Q 2828 2175 2409 1742 
Q 1991 1309 1228 531 
z
" transform="scale(0.015625)"/>
       </defs>
       <use xlink:href="#DejaVuSans-32"/>
      </g>
     </g>
    </g>
    <g id="xtick_4">
     <g id="line2d_4">
      <g>
       <use xlink:href="#mb0d6dda72f" x="343.948259" y="241.036875" style="stroke: #000000; stroke-width: 0.8"/>
      </g>
     </g>
     <g id="text_4">
      <!-- 3 -->
      <g transform="translate(338.858259 260.194375) scale(0.16 -0.16)">
       <defs>
        <path id="DejaVuSans-33" d="M 2597 2516 
Q 3050 2419 3304 2112 
Q 3559 1806 3559 1356 
Q 3559 666 3084 287 
Q 2609 -91 1734 -91 
Q 1441 -91 1130 -33 
Q 819 25 488 141 
L 488 750 
Q 750 597 1062 519 
Q 1375 441 1716 441 
Q 2309 441 2620 675 
Q 2931 909 2931 1356 
Q 2931 1769 2642 2001 
Q 2353 2234 1838 2234 
L 1294 2234 
L 1294 2753 
L 1863 2753 
Q 2328 2753 2575 2939 
Q 2822 3125 2822 3475 
Q 2822 3834 2567 4026 
Q 2313 4219 1838 4219 
Q 1578 4219 1281 4162 
Q 984 4106 628 3988 
L 628 4550 
Q 988 4650 1302 4700 
Q 1616 4750 1894 4750 
Q 2613 4750 3031 4423 
Q 3450 4097 3450 3541 
Q 3450 3153 3228 2886 
Q 3006 2619 2597 2516 
z
" transform="scale(0.015625)"/>
       </defs>
       <use xlink:href="#DejaVuSans-33"/>
      </g>
     </g>
    </g>
    <g id="text_5">
     <!-- Time [min] -->
     <g transform="translate(207.070469 275.120313) scale(0.1 -0.1)">
      <defs>
       <path id="DejaVuSans-54" d="M -19 4666 
L 3928 4666 
L 3928 4134 
L 2272 4134 
L 2272 0 
L 1638 0 
L 1638 4134 
L -19 4134 
L -19 4666 
z
" transform="scale(0.015625)"/>
       <path id="DejaVuSans-69" d="M 603 3500 
L 1178 3500 
L 1178 0 
L 603 0 
L 603 3500 
z
M 603 4863 
L 1178 4863 
L 1178 4134 
L 603 4134 
L 603 4863 
z
" transform="scale(0.015625)"/>
       <path id="DejaVuSans-6d" d="M 3328 2828 
Q 3544 3216 3844 3400 
Q 4144 3584 4550 3584 
Q 5097 3584 5394 3201 
Q 5691 2819 5691 2113 
L 5691 0 
L 5113 0 
L 5113 2094 
Q 5113 2597 4934 2840 
Q 4756 3084 4391 3084 
Q 3944 3084 3684 2787 
Q 3425 2491 3425 1978 
L 3425 0 
L 2847 0 
L 2847 2094 
Q 2847 2600 2669 2842 
Q 2491 3084 2119 3084 
Q 1678 3084 1418 2786 
Q 1159 2488 1159 1978 
L 1159 0 
L 581 0 
L 581 3500 
L 1159 3500 
L 1159 2956 
Q 1356 3278 1631 3431 
Q 1906 3584 2284 3584 
Q 2666 3584 2933 3390 
Q 3200 3197 3328 2828 
z
" transform="scale(0.015625)"/>
       <path id="DejaVuSans-65" d="M 3597 1894 
L 3597 1613 
L 953 1613 
Q 991 1019 1311 708 
Q 1631 397 2203 397 
Q 2534 397 2845 478 
Q 3156 559 3463 722 
L 3463 178 
Q 3153 47 2828 -22 
Q 2503 -91 2169 -91 
Q 1331 -91 842 396 
Q 353 884 353 1716 
Q 353 2575 817 3079 
Q 1281 3584 2069 3584 
Q 2775 3584 3186 3129 
Q 3597 2675 3597 1894 
z
M 3022 2063 
Q 3016 2534 2758 2815 
Q 2500 3097 2075 3097 
Q 1594 3097 1305 2825 
Q 1016 2553 972 2059 
L 3022 2063 
z
" transform="scale(0.015625)"/>
       <path id="DejaVuSans-20" transform="scale(0.015625)"/>
       <path id="DejaVuSans-5b" d="M 550 4863 
L 1875 4863 
L 1875 4416 
L 1125 4416 
L 1125 -397 
L 1875 -397 
L 1875 -844 
L 550 -844 
L 550 4863 
z
" transform="scale(0.015625)"/>
       <path id="DejaVuSans-6e" d="M 3513 2113 
L 3513 0 
L 2938 0 
L 2938 2094 
Q 2938 2591 2744 2837 
Q 2550 3084 2163 3084 
Q 1697 3084 1428 2787 
Q 1159 2491 1159 1978 
L 1159 0 
L 581 0 
L 581 3500 
L 1159 3500 
L 1159 2956 
Q 1366 3272 1645 3428 
Q 1925 3584 2291 3584 
Q 2894 3584 3203 3211 
Q 3513 2838 3513 2113 
z
" transform="scale(0.015625)"/>
       <path id="DejaVuSans-5d" d="M 1947 4863 
L 1947 -844 
L 622 -844 
L 622 -397 
L 1369 -397 
L 1369 4416 
L 622 4416 
L 622 4863 
L 1947 4863 
z
" transform="scale(0.015625)"/>
      </defs>
      <use xlink:href="#DejaVuSans-54"/>
      <use xlink:href="#DejaVuSans-69" x="57.958984"/>
      <use xlink:href="#DejaVuSans-6d" x="85.742188"/>
      <use xlink:href="#DejaVuSans-65" x="183.154297"/>
      <use xlink:href="#DejaVuSans-20" x="244.677734"/>
      <use xlink:href="#DejaVuSans-5b" x="276.464844"/>
      <use xlink:href="#DejaVuSans-6d" x="315.478516"/>
      <use xlink:href="#DejaVuSans-69" x="412.890625"/>
      <use xlink:href="#DejaVuSans-6e" x="440.673828"/>
      <use xlink:href="#DejaVuSans-5d" x="504.052734"/>
     </g>
    </g>
   </g>
   <g id="matplotlib.axis_2">
    <g id="ytick_1">
     <g id="line2d_5">
      <defs>
       <path id="mce82f04bc5" d="M 0 0 
L -3.5 0 
" style="stroke: #000000; stroke-width: 0.8"/>
      </defs>
      <g>
       <use xlink:href="#mce82f04bc5" x="65.245625" y="214.493603" style="stroke: #000000; stroke-width: 0.8"/>
      </g>
     </g>
     <g id="text_6">
      <!-- −60 -->
      <g transform="translate(24.478125 220.572353) scale(0.16 -0.16)">
       <defs>
        <path id="DejaVuSans-2212" d="M 678 2272 
L 4684 2272 
L 4684 1741 
L 678 1741 
L 678 2272 
z
" transform="scale(0.015625)"/>
        <path id="DejaVuSans-36" d="M 2113 2584 
Q 1688 2584 1439 2293 
Q 1191 2003 1191 1497 
Q 1191 994 1439 701 
Q 1688 409 2113 409 
Q 2538 409 2786 701 
Q 3034 994 3034 1497 
Q 3034 2003 2786 2293 
Q 2538 2584 2113 2584 
z
M 3366 4563 
L 3366 3988 
Q 3128 4100 2886 4159 
Q 2644 4219 2406 4219 
Q 1781 4219 1451 3797 
Q 1122 3375 1075 2522 
Q 1259 2794 1537 2939 
Q 1816 3084 2150 3084 
Q 2853 3084 3261 2657 
Q 3669 2231 3669 1497 
Q 3669 778 3244 343 
Q 2819 -91 2113 -91 
Q 1303 -91 875 529 
Q 447 1150 447 2328 
Q 447 3434 972 4092 
Q 1497 4750 2381 4750 
Q 2619 4750 2861 4703 
Q 3103 4656 3366 4563 
z
" transform="scale(0.015625)"/>
       </defs>
       <use xlink:href="#DejaVuSans-2212"/>
       <use xlink:href="#DejaVuSans-36" x="83.789062"/>
       <use xlink:href="#DejaVuSans-30" x="147.412109"/>
      </g>
     </g>
    </g>
    <g id="ytick_2">
     <g id="line2d_6">
      <g>
       <use xlink:href="#mce82f04bc5" x="65.245625" y="152.828547" style="stroke: #000000; stroke-width: 0.8"/>
      </g>
     </g>
     <g id="text_7">
      <!-- −40 -->
      <g transform="translate(24.478125 158.907297) scale(0.16 -0.16)">
       <defs>
        <path id="DejaVuSans-34" d="M 2419 4116 
L 825 1625 
L 2419 1625 
L 2419 4116 
z
M 2253 4666 
L 3047 4666 
L 3047 1625 
L 3713 1625 
L 3713 1100 
L 3047 1100 
L 3047 0 
L 2419 0 
L 2419 1100 
L 313 1100 
L 313 1709 
L 2253 4666 
z
" transform="scale(0.015625)"/>
       </defs>
       <use xlink:href="#DejaVuSans-2212"/>
       <use xlink:href="#DejaVuSans-34" x="83.789062"/>
       <use xlink:href="#DejaVuSans-30" x="147.412109"/>
      </g>
     </g>
    </g>
    <g id="ytick_3">
     <g id="line2d_7">
      <g>
       <use xlink:href="#mce82f04bc5" x="65.245625" y="91.163491" style="stroke: #000000; stroke-width: 0.8"/>
      </g>
     </g>
     <g id="text_8">
      <!-- −20 -->
      <g transform="translate(24.478125 97.242241) scale(0.16 -0.16)">
       <use xlink:href="#DejaVuSans-2212"/>
       <use xlink:href="#DejaVuSans-32" x="83.789062"/>
       <use xlink:href="#DejaVuSans-30" x="147.412109"/>
      </g>
     </g>
    </g>
    <g id="ytick_4">
     <g id="line2d_8">
      <g>
       <use xlink:href="#mce82f04bc5" x="65.245625" y="29.498436" style="stroke: #000000; stroke-width: 0.8"/>
      </g>
     </g>
     <g id="text_9">
      <!-- 0 -->
      <g transform="translate(48.065625 35.577186) scale(0.16 -0.16)">
       <use xlink:href="#DejaVuSans-30"/>
      </g>
     </g>
    </g>
    <g id="text_10">
     <!-- RW Speed (RPM)  -->
     <g transform="translate(18.398438 169.284062) rotate(-90) scale(0.1 -0.1)">
      <defs>
       <path id="DejaVuSans-52" d="M 2841 2188 
Q 3044 2119 3236 1894 
Q 3428 1669 3622 1275 
L 4263 0 
L 3584 0 
L 2988 1197 
Q 2756 1666 2539 1819 
Q 2322 1972 1947 1972 
L 1259 1972 
L 1259 0 
L 628 0 
L 628 4666 
L 2053 4666 
Q 2853 4666 3247 4331 
Q 3641 3997 3641 3322 
Q 3641 2881 3436 2590 
Q 3231 2300 2841 2188 
z
M 1259 4147 
L 1259 2491 
L 2053 2491 
Q 2509 2491 2742 2702 
Q 2975 2913 2975 3322 
Q 2975 3731 2742 3939 
Q 2509 4147 2053 4147 
L 1259 4147 
z
" transform="scale(0.015625)"/>
       <path id="DejaVuSans-57" d="M 213 4666 
L 850 4666 
L 1831 722 
L 2809 4666 
L 3519 4666 
L 4500 722 
L 5478 4666 
L 6119 4666 
L 4947 0 
L 4153 0 
L 3169 4050 
L 2175 0 
L 1381 0 
L 213 4666 
z
" transform="scale(0.015625)"/>
       <path id="DejaVuSans-53" d="M 3425 4513 
L 3425 3897 
Q 3066 4069 2747 4153 
Q 2428 4238 2131 4238 
Q 1616 4238 1336 4038 
Q 1056 3838 1056 3469 
Q 1056 3159 1242 3001 
Q 1428 2844 1947 2747 
L 2328 2669 
Q 3034 2534 3370 2195 
Q 3706 1856 3706 1288 
Q 3706 609 3251 259 
Q 2797 -91 1919 -91 
Q 1588 -91 1214 -16 
Q 841 59 441 206 
L 441 856 
Q 825 641 1194 531 
Q 1563 422 1919 422 
Q 2459 422 2753 634 
Q 3047 847 3047 1241 
Q 3047 1584 2836 1778 
Q 2625 1972 2144 2069 
L 1759 2144 
Q 1053 2284 737 2584 
Q 422 2884 422 3419 
Q 422 4038 858 4394 
Q 1294 4750 2059 4750 
Q 2388 4750 2728 4690 
Q 3069 4631 3425 4513 
z
" transform="scale(0.015625)"/>
       <path id="DejaVuSans-70" d="M 1159 525 
L 1159 -1331 
L 581 -1331 
L 581 3500 
L 1159 3500 
L 1159 2969 
Q 1341 3281 1617 3432 
Q 1894 3584 2278 3584 
Q 2916 3584 3314 3078 
Q 3713 2572 3713 1747 
Q 3713 922 3314 415 
Q 2916 -91 2278 -91 
Q 1894 -91 1617 61 
Q 1341 213 1159 525 
z
M 3116 1747 
Q 3116 2381 2855 2742 
Q 2594 3103 2138 3103 
Q 1681 3103 1420 2742 
Q 1159 2381 1159 1747 
Q 1159 1113 1420 752 
Q 1681 391 2138 391 
Q 2594 391 2855 752 
Q 3116 1113 3116 1747 
z
" transform="scale(0.015625)"/>
       <path id="DejaVuSans-64" d="M 2906 2969 
L 2906 4863 
L 3481 4863 
L 3481 0 
L 2906 0 
L 2906 525 
Q 2725 213 2448 61 
Q 2172 -91 1784 -91 
Q 1150 -91 751 415 
Q 353 922 353 1747 
Q 353 2572 751 3078 
Q 1150 3584 1784 3584 
Q 2172 3584 2448 3432 
Q 2725 3281 2906 2969 
z
M 947 1747 
Q 947 1113 1208 752 
Q 1469 391 1925 391 
Q 2381 391 2643 752 
Q 2906 1113 2906 1747 
Q 2906 2381 2643 2742 
Q 2381 3103 1925 3103 
Q 1469 3103 1208 2742 
Q 947 2381 947 1747 
z
" transform="scale(0.015625)"/>
       <path id="DejaVuSans-28" d="M 1984 4856 
Q 1566 4138 1362 3434 
Q 1159 2731 1159 2009 
Q 1159 1288 1364 580 
Q 1569 -128 1984 -844 
L 1484 -844 
Q 1016 -109 783 600 
Q 550 1309 550 2009 
Q 550 2706 781 3412 
Q 1013 4119 1484 4856 
L 1984 4856 
z
" transform="scale(0.015625)"/>
       <path id="DejaVuSans-50" d="M 1259 4147 
L 1259 2394 
L 2053 2394 
Q 2494 2394 2734 2622 
Q 2975 2850 2975 3272 
Q 2975 3691 2734 3919 
Q 2494 4147 2053 4147 
L 1259 4147 
z
M 628 4666 
L 2053 4666 
Q 2838 4666 3239 4311 
Q 3641 3956 3641 3272 
Q 3641 2581 3239 2228 
Q 2838 1875 2053 1875 
L 1259 1875 
L 1259 0 
L 628 0 
L 628 4666 
z
" transform="scale(0.015625)"/>
       <path id="DejaVuSans-4d" d="M 628 4666 
L 1569 4666 
L 2759 1491 
L 3956 4666 
L 4897 4666 
L 4897 0 
L 4281 0 
L 4281 4097 
L 3078 897 
L 2444 897 
L 1241 4097 
L 1241 0 
L 628 0 
L 628 4666 
z
" transform="scale(0.015625)"/>
       <path id="DejaVuSans-29" d="M 513 4856 
L 1013 4856 
Q 1481 4119 1714 3412 
Q 1947 2706 1947 2009 
Q 1947 1309 1714 600 
Q 1481 -109 1013 -844 
L 513 -844 
Q 928 -128 1133 580 
Q 1338 1288 1338 2009 
Q 1338 2731 1133 3434 
Q 928 4138 513 4856 
z
" transform="scale(0.015625)"/>
      </defs>
      <use xlink:href="#DejaVuSans-52"/>
      <use xlink:href="#DejaVuSans-57" x="65.482422"/>
      <use xlink:href="#DejaVuSans-20" x="164.359375"/>
      <use xlink:href="#DejaVuSans-53" x="196.146484"/>
      <use xlink:href="#DejaVuSans-70" x="259.623047"/>
      <use xlink:href="#DejaVuSans-65" x="323.099609"/>
      <use xlink:href="#DejaVuSans-65" x="384.623047"/>
      <use xlink:href="#DejaVuSans-64" x="446.146484"/>
      <use xlink:href="#DejaVuSans-20" x="509.623047"/>
      <use xlink:href="#DejaVuSans-28" x="541.410156"/>
      <use xlink:href="#DejaVuSans-52" x="580.423828"/>
      <use xlink:href="#DejaVuSans-50" x="649.90625"/>
      <use xlink:href="#DejaVuSans-4d" x="710.208984"/>
      <use xlink:href="#DejaVuSans-29" x="796.488281"/>
      <use xlink:href="#DejaVuSans-20" x="835.501953"/>
     </g>
    </g>
   </g>
   <g id="line2d_9">
    <path d="M 80.607188 29.498436 
L 82.450575 37.035563 
L 84.293963 43.765303 
L 86.13735 49.765426 
L 87.980738 55.063165 
L 89.824125 59.685871 
L 91.667513 63.664599 
L 93.5109 67.033502 
L 95.354288 69.829013 
L 97.197675 72.089111 
L 99.041063 73.852664 
L 100.269988 74.771843 
L 101.498913 75.499283 
L 102.727838 76.046398 
L 103.956763 76.4244 
L 105.80015 76.698171 
L 107.643538 76.651496 
L 109.486925 76.317821 
L 111.330313 75.728189 
L 113.1737 74.910954 
L 115.017088 73.891569 
L 117.474938 72.256211 
L 119.932788 70.345395 
L 123.0051 67.621174 
L 126.077413 64.566065 
L 129.149725 61.204495 
L 132.222037 57.543212 
L 135.908813 52.800825 
L 141.438975 45.262968 
L 147.5836 36.927333 
L 151.270375 32.314807 
L 153.728225 29.534075 
L 156.186075 27.06469 
L 158.029463 25.455981 
L 159.87285 24.085743 
L 161.716238 22.980185 
L 163.559625 22.16163 
L 165.403013 21.621076 
L 167.2464 21.331814 
L 169.089787 21.266981 
L 170.933175 21.399772 
L 173.391025 21.838319 
L 175.848875 22.518944 
L 178.921188 23.618498 
L 183.222425 25.421895 
L 189.981513 28.256352 
L 193.053825 29.320787 
L 196.126138 30.169325 
L 199.19845 30.809186 
L 202.270763 31.248955 
L 205.343075 31.495302 
L 208.415388 31.552909 
L 212.102163 31.376762 
L 215.788938 30.934839 
L 219.475713 30.227229 
L 223.162488 29.25719 
L 234.837275 25.857548 
L 237.909588 25.345358 
L 240.367438 25.168032 
L 242.825288 25.239227 
L 244.668675 25.477379 
L 246.512063 25.890021 
L 248.35545 26.491434 
L 250.198838 27.29612 
L 252.042225 28.319316 
L 253.885613 29.577586 
L 255.729 31.076291 
L 258.18685 33.394835 
L 260.6447 36.006938 
L 263.717013 39.576932 
L 268.632713 45.691165 
L 274.777338 53.289734 
L 277.84965 56.705246 
L 280.3075 59.074829 
L 282.150888 60.56301 
L 283.994275 61.743004 
L 285.2232 62.330037 
L 286.452125 62.736793 
L 287.68105 62.945282 
L 288.909975 62.937343 
L 290.1389 62.694783 
L 291.367825 62.199507 
L 292.59675 61.433627 
L 293.825675 60.379563 
L 295.0546 59.020099 
L 296.283525 57.338419 
L 297.51245 55.318104 
L 298.741375 52.943105 
L 299.9703 50.19769 
L 301.199225 47.066398 
L 303.042613 41.612709 
L 304.886 35.206488 
L 306.114925 30.382935 
L 306.729388 29.453365 
L 309.187238 29.513705 
L 370.633488 29.499115 
L 387.838437 29.498707 
L 387.838437 29.498707 
" clip-path="url(#p35dd2ec86e)" style="fill: none; stroke: #2b737e; stroke-width: 1.5; stroke-linecap: square"/>
   </g>
   <g id="line2d_10">
    <path d="M 80.607188 29.498436 
L 86.13735 63.910563 
L 89.209663 81.373293 
L 91.667513 94.009812 
L 94.125363 105.33843 
L 95.96875 112.96276 
L 97.812138 119.856012 
L 99.655525 126.049584 
L 101.498913 131.585691 
L 103.3423 136.513927 
L 105.185688 140.88854 
L 107.029075 144.766337 
L 108.872463 148.205177 
L 110.71585 151.262931 
L 113.1737 154.845954 
L 115.63155 157.986149 
L 118.703863 161.485752 
L 128.535263 172.210971 
L 130.993113 175.390702 
L 133.450963 178.964805 
L 135.908813 182.936063 
L 138.981125 188.402431 
L 142.6679 195.536752 
L 153.728225 217.502659 
L 156.186075 221.665 
L 158.029463 224.399052 
L 159.87285 226.716817 
L 161.101775 227.992276 
L 162.3307 229.02471 
L 163.559625 229.795384 
L 164.78855 230.301914 
L 166.017475 230.546474 
L 167.2464 230.53259 
L 168.475325 230.265195 
L 169.70425 229.750659 
L 170.933175 228.996793 
L 172.1621 228.012827 
L 173.391025 226.809372 
L 175.234413 224.619098 
L 177.0778 222.007578 
L 178.921188 219.025938 
L 181.379038 214.572191 
L 184.45135 208.441051 
L 194.897213 186.9181 
L 197.969525 181.434874 
L 200.427375 177.481512 
L 202.885225 173.939875 
L 205.343075 170.824436 
L 207.800925 168.141243 
L 209.644313 166.411819 
L 211.4877 164.921459 
L 213.331087 163.66466 
L 215.174475 162.633775 
L 217.017863 161.818996 
L 218.86125 161.208317 
L 220.704638 160.787465 
L 223.162488 160.488715 
L 226.2348 160.417118 
L 231.764962 160.626417 
L 236.0662 160.694864 
L 239.752975 160.511926 
L 243.43975 160.064906 
L 247.740988 159.275299 
L 254.500075 157.967788 
L 257.572387 157.601811 
L 261.259163 157.396158 
L 271.705025 157.035517 
L 273.548413 156.708126 
L 275.3918 156.188242 
L 277.235188 155.417494 
L 279.078575 154.32941 
L 280.3075 153.390731 
L 281.536425 152.252544 
L 282.76535 150.887575 
L 283.994275 149.266126 
L 285.2232 147.355956 
L 286.452125 145.122206 
L 287.68105 142.527383 
L 288.909975 139.531443 
L 290.1389 136.09198 
L 291.367825 132.164555 
L 292.59675 127.703187 
L 293.825675 122.661021 
L 295.669062 113.906572 
L 297.51245 103.588172 
L 299.355838 91.570333 
L 301.199225 77.747546 
L 303.042613 62.060504 
L 304.886 44.51477 
L 306.114925 31.825731 
L 306.729388 29.3406 
L 313.488475 29.512554 
L 325.777725 29.550043 
L 387.838437 29.498945 
L 387.838437 29.498945 
" clip-path="url(#p35dd2ec86e)" style="fill: none; stroke: #5ea04b; stroke-width: 1.5; stroke-linecap: square"/>
   </g>
   <g id="line2d_11">
    <path d="M 80.607188 29.498436 
L 82.450575 48.952998 
L 83.6795 60.077973 
L 84.908425 69.807484 
L 86.13735 78.211996 
L 87.366275 85.3627 
L 88.5952 91.331015 
L 89.824125 96.188167 
L 91.05305 100.004838 
L 92.281975 102.850866 
L 93.5109 104.794994 
L 94.125363 105.449978 
L 94.739825 105.904666 
L 95.354288 106.167259 
L 95.96875 106.245857 
L 96.583213 106.148456 
L 97.197675 105.882949 
L 97.812138 105.457118 
L 99.041063 104.155069 
L 100.269988 102.302366 
L 101.498913 99.957277 
L 102.727838 97.176292 
L 104.571225 92.306787 
L 106.414613 86.756939 
L 108.872463 78.590932 
L 113.1737 63.251979 
L 116.860475 50.26754 
L 119.318325 42.293435 
L 121.161713 36.904506 
L 123.0051 32.17552 
L 124.234025 29.457685 
L 125.46295 27.135894 
L 126.691875 25.252002 
L 127.9208 23.848526 
L 129.149725 22.968791 
L 129.764188 22.739128 
L 130.37865 22.657095 
L 130.993113 22.72829 
L 131.607575 22.952788 
L 132.222037 23.322923 
L 133.450963 24.468548 
L 134.679888 26.105053 
L 135.908813 28.176979 
L 137.137738 30.633296 
L 138.981125 34.937072 
L 140.824513 39.859159 
L 143.282363 47.170418 
L 146.354675 57.159622 
L 151.270375 74.130868 
L 156.186075 90.994438 
L 159.258388 100.798921 
L 161.716238 107.896096 
L 163.559625 112.636324 
L 165.403013 116.854352 
L 167.2464 120.581298 
L 169.089787 123.842804 
L 170.933175 126.660736 
L 172.776563 129.055074 
L 174.61995 131.045331 
L 176.463338 132.651558 
L 178.306725 133.894961 
L 180.150113 134.798191 
L 181.9935 135.385342 
L 183.836887 135.681733 
L 185.680275 135.713513 
L 187.523663 135.507163 
L 189.36705 135.088934 
L 191.8249 134.245535 
L 194.28275 133.1416 
L 202.270763 129.26972 
L 204.728613 128.449446 
L 206.572 128.073062 
L 208.415388 127.950447 
L 210.258775 128.123743 
L 211.4877 128.423655 
L 212.716625 128.884546 
L 213.94555 129.517566 
L 215.174475 130.333509 
L 216.4034 131.342809 
L 217.632325 132.555526 
L 219.475713 134.777078 
L 221.3191 137.50897 
L 223.162488 140.749176 
L 225.620338 145.618655 
L 231.764962 158.188607 
L 233.60835 161.474036 
L 235.451738 164.302159 
L 236.680663 165.875253 
L 237.909588 167.160285 
L 239.138513 168.126527 
L 240.367438 168.745063 
L 241.596363 168.988813 
L 242.825288 168.832545 
L 244.054213 168.252896 
L 245.283138 167.228379 
L 246.512063 165.739403 
L 247.740988 163.768275 
L 248.969913 161.299216 
L 250.198838 158.31837 
L 251.427763 154.813824 
L 252.656688 150.775634 
L 254.500075 143.705088 
L 256.343462 135.536456 
L 258.801312 123.394335 
L 262.488088 103.702204 
L 267.403788 77.421644 
L 269.861638 65.284075 
L 272.319488 54.317393 
L 274.162875 47.044363 
L 276.006262 40.701105 
L 277.84965 35.361569 
L 279.078575 32.382452 
L 280.3075 29.874276 
L 281.536425 27.834571 
L 282.76535 26.2533 
L 283.994275 25.11258 
L 285.2232 24.386556 
L 286.452125 24.041461 
L 287.68105 24.035923 
L 288.909975 24.321536 
L 290.1389 24.84375 
L 291.982287 25.939676 
L 296.897987 29.197631 
L 298.126913 29.774617 
L 299.355838 30.17051 
L 300.584763 30.367259 
L 301.813688 30.368052 
L 303.657075 30.074436 
L 306.114925 29.550166 
L 309.187238 29.519826 
L 387.838437 29.498458 
L 387.838437 29.498458 
" clip-path="url(#p35dd2ec86e)" style="fill: none; stroke: #bdab62; stroke-width: 1.5; stroke-linecap: square"/>
   </g>
   <g id="patch_3">
    <path d="M 65.245625 241.036875 
L 65.245625 10.8 
" style="fill: none; stroke: #000000; stroke-width: 0.8; stroke-linejoin: miter; stroke-linecap: square"/>
   </g>
   <g id="patch_4">
    <path d="M 403.2 241.036875 
L 403.2 10.8 
" style="fill: none; stroke: #000000; stroke-width: 0.8; stroke-linejoin: miter; stroke-linecap: square"/>
   </g>
   <g id="patch_5">
    <path d="M 65.245625 241.036875 
L 403.2 241.036875 
" style="fill: none; stroke: #000000; stroke-width: 0.8; stroke-linejoin: miter; stroke-linecap: square"/>
   </g>
   <g id="patch_6">
    <path d="M 65.245625 10.8 
L 403.2 10.8 
" style="fill: none; stroke: #000000; stroke-width: 0.8; stroke-linejoin: miter; stroke-linecap: square"/>
   </g>
   <g id="legend_1">
    <g id="patch_7">
     <path d="M 356.85 236.536875 
L 396.9 236.536875 
Q 398.7 236.536875 398.7 234.736875 
L 398.7 196.005938 
Q 398.7 194.205938 396.9 194.205938 
L 356.85 194.205938 
Q 355.05 194.205938 355.05 196.005938 
L 355.05 234.736875 
Q 355.05 236.536875 356.85 236.536875 
z
" style="fill: #ffffff; opacity: 0.8; stroke: #cccccc; stroke-linejoin: miter"/>
    </g>
    <g id="line2d_12">
     <path d="M 358.65 201.494531 
L 367.65 201.494531 
L 376.65 201.494531 
" style="fill: none; stroke: #2b737e; stroke-width: 1.5; stroke-linecap: square"/>
    </g>
    <g id="text_11">
     <!-- $\Omega_{0}$ -->
     <g transform="translate(383.85 204.644531) scale(0.09 -0.09)">
      <defs>
       <path id="DejaVuSans-3a9" d="M 4647 556 
L 4647 0 
L 2772 0 
L 2772 556 
Q 3325 859 3634 1378 
Q 3944 1897 3944 2528 
Q 3944 3278 3531 3731 
Q 3119 4184 2444 4184 
Q 1769 4184 1355 3729 
Q 941 3275 941 2528 
Q 941 1897 1250 1378 
Q 1563 859 2119 556 
L 2119 0 
L 244 0 
L 244 556 
L 1241 556 
Q 747 991 519 1456 
Q 294 1922 294 2497 
Q 294 3491 894 4106 
Q 1491 4722 2444 4722 
Q 3391 4722 3994 4106 
Q 4594 3494 4594 2528 
Q 4594 1922 4372 1459 
Q 4150 997 3647 556 
L 4647 556 
z
" transform="scale(0.015625)"/>
      </defs>
      <use xlink:href="#DejaVuSans-3a9" transform="translate(0 0.21875)"/>
      <use xlink:href="#DejaVuSans-30" transform="translate(77.373047 -16.1875) scale(0.7)"/>
     </g>
    </g>
    <g id="line2d_13">
     <path d="M 358.65 214.704844 
L 367.65 214.704844 
L 376.65 214.704844 
" style="fill: none; stroke: #5ea04b; stroke-width: 1.5; stroke-linecap: square"/>
    </g>
    <g id="text_12">
     <!-- $\Omega_{1}$ -->
     <g transform="translate(383.85 217.854844) scale(0.09 -0.09)">
      <use xlink:href="#DejaVuSans-3a9" transform="translate(0 0.21875)"/>
      <use xlink:href="#DejaVuSans-31" transform="translate(77.373047 -16.1875) scale(0.7)"/>
     </g>
    </g>
    <g id="line2d_14">
     <path d="M 358.65 227.915156 
L 367.65 227.915156 
L 376.65 227.915156 
" style="fill: none; stroke: #bdab62; stroke-width: 1.5; stroke-linecap: square"/>
    </g>
    <g id="text_13">
     <!-- $\Omega_{2}$ -->
     <g transform="translate(383.85 231.065156) scale(0.09 -0.09)">
      <use xlink:href="#DejaVuSans-3a9" transform="translate(0 0.21875)"/>
      <use xlink:href="#DejaVuSans-32" transform="translate(77.373047 -16.1875) scale(0.7)"/>
     </g>
    </g>
   </g>
  </g>
 </g>
 <defs>
  <clipPath id="p35dd2ec86e">
   <rect x="65.245625" y="10.8" width="337.954375" height="230.236875"/>
  </clipPath>
 </defs>
</svg>
