<?xml version="1.0" encoding="utf-8" standalone="no"?>
<!DOCTYPE svg PUBLIC "-//W3C//DTD SVG 1.1//EN"
  "http://www.w3.org/Graphics/SVG/1.1/DTD/svg11.dtd">
<svg xmlns:xlink="http://www.w3.org/1999/xlink" width="414pt" height="288pt" viewBox="0 0 414 288" xmlns="http://www.w3.org/2000/svg" version="1.1">
 <metadata>
  <rdf:RDF xmlns:dc="http://purl.org/dc/elements/1.1/" xmlns:cc="http://creativecommons.org/ns#" xmlns:rdf="http://www.w3.org/1999/02/22-rdf-syntax-ns#">
   <cc:Work>
    <dc:type rdf:resource="http://purl.org/dc/dcmitype/StillImage"/>
    <dc:date>2023-09-07T00:35:28.248803</dc:date>
    <dc:format>image/svg+xml</dc:format>
    <dc:creator>
     <cc:Agent>
      <dc:title>Matplotlib v3.7.2, https://matplotlib.org/</dc:title>
     </cc:Agent>
    </dc:creator>
   </cc:Work>
  </rdf:RDF>
 </metadata>
 <defs>
  <style type="text/css">*{stroke-linejoin: round; stroke-linecap: butt}</style>
 </defs>
 <g id="figure_1">
  <g id="patch_1">
   <path d="M 0 288 
L 414 288 
L 414 0 
L 0 0 
L 0 288 
z
" style="fill: none"/>
  </g>
  <g id="axes_1">
   <g id="patch_2">
    <path d="M 85.605625 241.036875 
L 403.2 241.036875 
L 403.2 10.8 
L 85.605625 10.8 
L 85.605625 241.036875 
z
" style="fill: none"/>
   </g>
   <g id="matplotlib.axis_1">
    <g id="xtick_1">
     <g id="line2d_1">
      <defs>
       <path id="m7efa6a46ec" d="M 0 0 
L 0 3.5 
" style="stroke: #000000; stroke-width: 0.8"/>
      </defs>
      <g>
       <use xlink:href="#m7efa6a46ec" x="100.041733" y="241.036875" style="stroke: #000000; stroke-width: 0.8"/>
      </g>
     </g>
     <g id="text_1">
      <!-- 0.0 -->
      <g transform="translate(87.319233 260.194375) scale(0.16 -0.16)">
       <defs>
        <path id="DejaVuSans-30" d="M 2034 4250 
Q 1547 4250 1301 3770 
Q 1056 3291 1056 2328 
Q 1056 1369 1301 889 
Q 1547 409 2034 409 
Q 2525 409 2770 889 
Q 3016 1369 3016 2328 
Q 3016 3291 2770 3770 
Q 2525 4250 2034 4250 
z
M 2034 4750 
Q 2819 4750 3233 4129 
Q 3647 3509 3647 2328 
Q 3647 1150 3233 529 
Q 2819 -91 2034 -91 
Q 1250 -91 836 529 
Q 422 1150 422 2328 
Q 422 3509 836 4129 
Q 1250 4750 2034 4750 
z
" transform="scale(0.015625)"/>
        <path id="DejaVuSans-2e" d="M 684 794 
L 1344 794 
L 1344 0 
L 684 0 
L 684 794 
z
" transform="scale(0.015625)"/>
       </defs>
       <use xlink:href="#DejaVuSans-30"/>
       <use xlink:href="#DejaVuSans-2e" x="63.623047"/>
       <use xlink:href="#DejaVuSans-30" x="95.410156"/>
      </g>
     </g>
    </g>
    <g id="xtick_2">
     <g id="line2d_2">
      <g>
       <use xlink:href="#m7efa6a46ec" x="177.235398" y="241.036875" style="stroke: #000000; stroke-width: 0.8"/>
      </g>
     </g>
     <g id="text_2">
      <!-- 0.2 -->
      <g transform="translate(164.512898 260.194375) scale(0.16 -0.16)">
       <defs>
        <path id="DejaVuSans-32" d="M 1228 531 
L 3431 531 
L 3431 0 
L 469 0 
L 469 531 
Q 828 903 1448 1529 
Q 2069 2156 2228 2338 
Q 2531 2678 2651 2914 
Q 2772 3150 2772 3378 
Q 2772 3750 2511 3984 
Q 2250 4219 1831 4219 
Q 1534 4219 1204 4116 
Q 875 4013 500 3803 
L 500 4441 
Q 881 4594 1212 4672 
Q 1544 4750 1819 4750 
Q 2544 4750 2975 4387 
Q 3406 4025 3406 3419 
Q 3406 3131 3298 2873 
Q 3191 2616 2906 2266 
Q 2828 2175 2409 1742 
Q 1991 1309 1228 531 
z
" transform="scale(0.015625)"/>
       </defs>
       <use xlink:href="#DejaVuSans-30"/>
       <use xlink:href="#DejaVuSans-2e" x="63.623047"/>
       <use xlink:href="#DejaVuSans-32" x="95.410156"/>
      </g>
     </g>
    </g>
    <g id="xtick_3">
     <g id="line2d_3">
      <g>
       <use xlink:href="#m7efa6a46ec" x="254.429064" y="241.036875" style="stroke: #000000; stroke-width: 0.8"/>
      </g>
     </g>
     <g id="text_3">
      <!-- 0.4 -->
      <g transform="translate(241.706564 260.194375) scale(0.16 -0.16)">
       <defs>
        <path id="DejaVuSans-34" d="M 2419 4116 
L 825 1625 
L 2419 1625 
L 2419 4116 
z
M 2253 4666 
L 3047 4666 
L 3047 1625 
L 3713 1625 
L 3713 1100 
L 3047 1100 
L 3047 0 
L 2419 0 
L 2419 1100 
L 313 1100 
L 313 1709 
L 2253 4666 
z
" transform="scale(0.015625)"/>
       </defs>
       <use xlink:href="#DejaVuSans-30"/>
       <use xlink:href="#DejaVuSans-2e" x="63.623047"/>
       <use xlink:href="#DejaVuSans-34" x="95.410156"/>
      </g>
     </g>
    </g>
    <g id="xtick_4">
     <g id="line2d_4">
      <g>
       <use xlink:href="#m7efa6a46ec" x="331.62273" y="241.036875" style="stroke: #000000; stroke-width: 0.8"/>
      </g>
     </g>
     <g id="text_4">
      <!-- 0.6 -->
      <g transform="translate(318.90023 260.194375) scale(0.16 -0.16)">
       <defs>
        <path id="DejaVuSans-36" d="M 2113 2584 
Q 1688 2584 1439 2293 
Q 1191 2003 1191 1497 
Q 1191 994 1439 701 
Q 1688 409 2113 409 
Q 2538 409 2786 701 
Q 3034 994 3034 1497 
Q 3034 2003 2786 2293 
Q 2538 2584 2113 2584 
z
M 3366 4563 
L 3366 3988 
Q 3128 4100 2886 4159 
Q 2644 4219 2406 4219 
Q 1781 4219 1451 3797 
Q 1122 3375 1075 2522 
Q 1259 2794 1537 2939 
Q 1816 3084 2150 3084 
Q 2853 3084 3261 2657 
Q 3669 2231 3669 1497 
Q 3669 778 3244 343 
Q 2819 -91 2113 -91 
Q 1303 -91 875 529 
Q 447 1150 447 2328 
Q 447 3434 972 4092 
Q 1497 4750 2381 4750 
Q 2619 4750 2861 4703 
Q 3103 4656 3366 4563 
z
" transform="scale(0.015625)"/>
       </defs>
       <use xlink:href="#DejaVuSans-30"/>
       <use xlink:href="#DejaVuSans-2e" x="63.623047"/>
       <use xlink:href="#DejaVuSans-36" x="95.410156"/>
      </g>
     </g>
    </g>
    <g id="text_5">
     <!-- Time [orbits] -->
     <g transform="translate(212.435625 275.120313) scale(0.1 -0.1)">
      <defs>
       <path id="DejaVuSans-54" d="M -19 4666 
L 3928 4666 
L 3928 4134 
L 2272 4134 
L 2272 0 
L 1638 0 
L 1638 4134 
L -19 4134 
L -19 4666 
z
" transform="scale(0.015625)"/>
       <path id="DejaVuSans-69" d="M 603 3500 
L 1178 3500 
L 1178 0 
L 603 0 
L 603 3500 
z
M 603 4863 
L 1178 4863 
L 1178 4134 
L 603 4134 
L 603 4863 
z
" transform="scale(0.015625)"/>
       <path id="DejaVuSans-6d" d="M 3328 2828 
Q 3544 3216 3844 3400 
Q 4144 3584 4550 3584 
Q 5097 3584 5394 3201 
Q 5691 2819 5691 2113 
L 5691 0 
L 5113 0 
L 5113 2094 
Q 5113 2597 4934 2840 
Q 4756 3084 4391 3084 
Q 3944 3084 3684 2787 
Q 3425 2491 3425 1978 
L 3425 0 
L 2847 0 
L 2847 2094 
Q 2847 2600 2669 2842 
Q 2491 3084 2119 3084 
Q 1678 3084 1418 2786 
Q 1159 2488 1159 1978 
L 1159 0 
L 581 0 
L 581 3500 
L 1159 3500 
L 1159 2956 
Q 1356 3278 1631 3431 
Q 1906 3584 2284 3584 
Q 2666 3584 2933 3390 
Q 3200 3197 3328 2828 
z
" transform="scale(0.015625)"/>
       <path id="DejaVuSans-65" d="M 3597 1894 
L 3597 1613 
L 953 1613 
Q 991 1019 1311 708 
Q 1631 397 2203 397 
Q 2534 397 2845 478 
Q 3156 559 3463 722 
L 3463 178 
Q 3153 47 2828 -22 
Q 2503 -91 2169 -91 
Q 1331 -91 842 396 
Q 353 884 353 1716 
Q 353 2575 817 3079 
Q 1281 3584 2069 3584 
Q 2775 3584 3186 3129 
Q 3597 2675 3597 1894 
z
M 3022 2063 
Q 3016 2534 2758 2815 
Q 2500 3097 2075 3097 
Q 1594 3097 1305 2825 
Q 1016 2553 972 2059 
L 3022 2063 
z
" transform="scale(0.015625)"/>
       <path id="DejaVuSans-20" transform="scale(0.015625)"/>
       <path id="DejaVuSans-5b" d="M 550 4863 
L 1875 4863 
L 1875 4416 
L 1125 4416 
L 1125 -397 
L 1875 -397 
L 1875 -844 
L 550 -844 
L 550 4863 
z
" transform="scale(0.015625)"/>
       <path id="DejaVuSans-6f" d="M 1959 3097 
Q 1497 3097 1228 2736 
Q 959 2375 959 1747 
Q 959 1119 1226 758 
Q 1494 397 1959 397 
Q 2419 397 2687 759 
Q 2956 1122 2956 1747 
Q 2956 2369 2687 2733 
Q 2419 3097 1959 3097 
z
M 1959 3584 
Q 2709 3584 3137 3096 
Q 3566 2609 3566 1747 
Q 3566 888 3137 398 
Q 2709 -91 1959 -91 
Q 1206 -91 779 398 
Q 353 888 353 1747 
Q 353 2609 779 3096 
Q 1206 3584 1959 3584 
z
" transform="scale(0.015625)"/>
       <path id="DejaVuSans-72" d="M 2631 2963 
Q 2534 3019 2420 3045 
Q 2306 3072 2169 3072 
Q 1681 3072 1420 2755 
Q 1159 2438 1159 1844 
L 1159 0 
L 581 0 
L 581 3500 
L 1159 3500 
L 1159 2956 
Q 1341 3275 1631 3429 
Q 1922 3584 2338 3584 
Q 2397 3584 2469 3576 
Q 2541 3569 2628 3553 
L 2631 2963 
z
" transform="scale(0.015625)"/>
       <path id="DejaVuSans-62" d="M 3116 1747 
Q 3116 2381 2855 2742 
Q 2594 3103 2138 3103 
Q 1681 3103 1420 2742 
Q 1159 2381 1159 1747 
Q 1159 1113 1420 752 
Q 1681 391 2138 391 
Q 2594 391 2855 752 
Q 3116 1113 3116 1747 
z
M 1159 2969 
Q 1341 3281 1617 3432 
Q 1894 3584 2278 3584 
Q 2916 3584 3314 3078 
Q 3713 2572 3713 1747 
Q 3713 922 3314 415 
Q 2916 -91 2278 -91 
Q 1894 -91 1617 61 
Q 1341 213 1159 525 
L 1159 0 
L 581 0 
L 581 4863 
L 1159 4863 
L 1159 2969 
z
" transform="scale(0.015625)"/>
       <path id="DejaVuSans-74" d="M 1172 4494 
L 1172 3500 
L 2356 3500 
L 2356 3053 
L 1172 3053 
L 1172 1153 
Q 1172 725 1289 603 
Q 1406 481 1766 481 
L 2356 481 
L 2356 0 
L 1766 0 
Q 1100 0 847 248 
Q 594 497 594 1153 
L 594 3053 
L 172 3053 
L 172 3500 
L 594 3500 
L 594 4494 
L 1172 4494 
z
" transform="scale(0.015625)"/>
       <path id="DejaVuSans-73" d="M 2834 3397 
L 2834 2853 
Q 2591 2978 2328 3040 
Q 2066 3103 1784 3103 
Q 1356 3103 1142 2972 
Q 928 2841 928 2578 
Q 928 2378 1081 2264 
Q 1234 2150 1697 2047 
L 1894 2003 
Q 2506 1872 2764 1633 
Q 3022 1394 3022 966 
Q 3022 478 2636 193 
Q 2250 -91 1575 -91 
Q 1294 -91 989 -36 
Q 684 19 347 128 
L 347 722 
Q 666 556 975 473 
Q 1284 391 1588 391 
Q 1994 391 2212 530 
Q 2431 669 2431 922 
Q 2431 1156 2273 1281 
Q 2116 1406 1581 1522 
L 1381 1569 
Q 847 1681 609 1914 
Q 372 2147 372 2553 
Q 372 3047 722 3315 
Q 1072 3584 1716 3584 
Q 2034 3584 2315 3537 
Q 2597 3491 2834 3397 
z
" transform="scale(0.015625)"/>
       <path id="DejaVuSans-5d" d="M 1947 4863 
L 1947 -844 
L 622 -844 
L 622 -397 
L 1369 -397 
L 1369 4416 
L 622 4416 
L 622 4863 
L 1947 4863 
z
" transform="scale(0.015625)"/>
      </defs>
      <use xlink:href="#DejaVuSans-54"/>
      <use xlink:href="#DejaVuSans-69" x="57.958984"/>
      <use xlink:href="#DejaVuSans-6d" x="85.742188"/>
      <use xlink:href="#DejaVuSans-65" x="183.154297"/>
      <use xlink:href="#DejaVuSans-20" x="244.677734"/>
      <use xlink:href="#DejaVuSans-5b" x="276.464844"/>
      <use xlink:href="#DejaVuSans-6f" x="315.478516"/>
      <use xlink:href="#DejaVuSans-72" x="376.660156"/>
      <use xlink:href="#DejaVuSans-62" x="417.773438"/>
      <use xlink:href="#DejaVuSans-69" x="481.25"/>
      <use xlink:href="#DejaVuSans-74" x="509.033203"/>
      <use xlink:href="#DejaVuSans-73" x="548.242188"/>
      <use xlink:href="#DejaVuSans-5d" x="600.341797"/>
     </g>
    </g>
   </g>
   <g id="matplotlib.axis_2">
    <g id="ytick_1">
     <g id="line2d_5">
      <defs>
       <path id="m97631bef6a" d="M 0 0 
L -3.5 0 
" style="stroke: #000000; stroke-width: 0.8"/>
      </defs>
      <g>
       <use xlink:href="#m97631bef6a" x="85.605625" y="238.051425" style="stroke: #000000; stroke-width: 0.8"/>
      </g>
     </g>
     <g id="text_6">
      <!-- −7500 -->
      <g transform="translate(24.478125 244.130175) scale(0.16 -0.16)">
       <defs>
        <path id="DejaVuSans-2212" d="M 678 2272 
L 4684 2272 
L 4684 1741 
L 678 1741 
L 678 2272 
z
" transform="scale(0.015625)"/>
        <path id="DejaVuSans-37" d="M 525 4666 
L 3525 4666 
L 3525 4397 
L 1831 0 
L 1172 0 
L 2766 4134 
L 525 4134 
L 525 4666 
z
" transform="scale(0.015625)"/>
        <path id="DejaVuSans-35" d="M 691 4666 
L 3169 4666 
L 3169 4134 
L 1269 4134 
L 1269 2991 
Q 1406 3038 1543 3061 
Q 1681 3084 1819 3084 
Q 2600 3084 3056 2656 
Q 3513 2228 3513 1497 
Q 3513 744 3044 326 
Q 2575 -91 1722 -91 
Q 1428 -91 1123 -41 
Q 819 9 494 109 
L 494 744 
Q 775 591 1075 516 
Q 1375 441 1709 441 
Q 2250 441 2565 725 
Q 2881 1009 2881 1497 
Q 2881 1984 2565 2268 
Q 2250 2553 1709 2553 
Q 1456 2553 1204 2497 
Q 953 2441 691 2322 
L 691 4666 
z
" transform="scale(0.015625)"/>
       </defs>
       <use xlink:href="#DejaVuSans-2212"/>
       <use xlink:href="#DejaVuSans-37" x="83.789062"/>
       <use xlink:href="#DejaVuSans-35" x="147.412109"/>
       <use xlink:href="#DejaVuSans-30" x="211.035156"/>
       <use xlink:href="#DejaVuSans-30" x="274.658203"/>
      </g>
     </g>
    </g>
    <g id="ytick_2">
     <g id="line2d_6">
      <g>
       <use xlink:href="#m97631bef6a" x="85.605625" y="200.674491" style="stroke: #000000; stroke-width: 0.8"/>
      </g>
     </g>
     <g id="text_7">
      <!-- −5000 -->
      <g transform="translate(24.478125 206.753241) scale(0.16 -0.16)">
       <use xlink:href="#DejaVuSans-2212"/>
       <use xlink:href="#DejaVuSans-35" x="83.789062"/>
       <use xlink:href="#DejaVuSans-30" x="147.412109"/>
       <use xlink:href="#DejaVuSans-30" x="211.035156"/>
       <use xlink:href="#DejaVuSans-30" x="274.658203"/>
      </g>
     </g>
    </g>
    <g id="ytick_3">
     <g id="line2d_7">
      <g>
       <use xlink:href="#m97631bef6a" x="85.605625" y="163.297557" style="stroke: #000000; stroke-width: 0.8"/>
      </g>
     </g>
     <g id="text_8">
      <!-- −2500 -->
      <g transform="translate(24.478125 169.376307) scale(0.16 -0.16)">
       <use xlink:href="#DejaVuSans-2212"/>
       <use xlink:href="#DejaVuSans-32" x="83.789062"/>
       <use xlink:href="#DejaVuSans-35" x="147.412109"/>
       <use xlink:href="#DejaVuSans-30" x="211.035156"/>
       <use xlink:href="#DejaVuSans-30" x="274.658203"/>
      </g>
     </g>
    </g>
    <g id="ytick_4">
     <g id="line2d_8">
      <g>
       <use xlink:href="#m97631bef6a" x="85.605625" y="125.920623" style="stroke: #000000; stroke-width: 0.8"/>
      </g>
     </g>
     <g id="text_9">
      <!-- 0 -->
      <g transform="translate(68.425625 131.999373) scale(0.16 -0.16)">
       <use xlink:href="#DejaVuSans-30"/>
      </g>
     </g>
    </g>
    <g id="ytick_5">
     <g id="line2d_9">
      <g>
       <use xlink:href="#m97631bef6a" x="85.605625" y="88.543689" style="stroke: #000000; stroke-width: 0.8"/>
      </g>
     </g>
     <g id="text_10">
      <!-- 2500 -->
      <g transform="translate(37.885625 94.622439) scale(0.16 -0.16)">
       <use xlink:href="#DejaVuSans-32"/>
       <use xlink:href="#DejaVuSans-35" x="63.623047"/>
       <use xlink:href="#DejaVuSans-30" x="127.246094"/>
       <use xlink:href="#DejaVuSans-30" x="190.869141"/>
      </g>
     </g>
    </g>
    <g id="ytick_6">
     <g id="line2d_10">
      <g>
       <use xlink:href="#m97631bef6a" x="85.605625" y="51.166755" style="stroke: #000000; stroke-width: 0.8"/>
      </g>
     </g>
     <g id="text_11">
      <!-- 5000 -->
      <g transform="translate(37.885625 57.245505) scale(0.16 -0.16)">
       <use xlink:href="#DejaVuSans-35"/>
       <use xlink:href="#DejaVuSans-30" x="63.623047"/>
       <use xlink:href="#DejaVuSans-30" x="127.246094"/>
       <use xlink:href="#DejaVuSans-30" x="190.869141"/>
      </g>
     </g>
    </g>
    <g id="ytick_7">
     <g id="line2d_11">
      <g>
       <use xlink:href="#m97631bef6a" x="85.605625" y="13.789821" style="stroke: #000000; stroke-width: 0.8"/>
      </g>
     </g>
     <g id="text_12">
      <!-- 7500 -->
      <g transform="translate(37.885625 19.868571) scale(0.16 -0.16)">
       <use xlink:href="#DejaVuSans-37"/>
       <use xlink:href="#DejaVuSans-35" x="63.623047"/>
       <use xlink:href="#DejaVuSans-30" x="127.246094"/>
       <use xlink:href="#DejaVuSans-30" x="190.869141"/>
      </g>
     </g>
    </g>
    <g id="text_13">
     <!-- Inertial Position [km] -->
     <g transform="translate(18.398438 177.805937) rotate(-90) scale(0.1 -0.1)">
      <defs>
       <path id="DejaVuSans-49" d="M 628 4666 
L 1259 4666 
L 1259 0 
L 628 0 
L 628 4666 
z
" transform="scale(0.015625)"/>
       <path id="DejaVuSans-6e" d="M 3513 2113 
L 3513 0 
L 2938 0 
L 2938 2094 
Q 2938 2591 2744 2837 
Q 2550 3084 2163 3084 
Q 1697 3084 1428 2787 
Q 1159 2491 1159 1978 
L 1159 0 
L 581 0 
L 581 3500 
L 1159 3500 
L 1159 2956 
Q 1366 3272 1645 3428 
Q 1925 3584 2291 3584 
Q 2894 3584 3203 3211 
Q 3513 2838 3513 2113 
z
" transform="scale(0.015625)"/>
       <path id="DejaVuSans-61" d="M 2194 1759 
Q 1497 1759 1228 1600 
Q 959 1441 959 1056 
Q 959 750 1161 570 
Q 1363 391 1709 391 
Q 2188 391 2477 730 
Q 2766 1069 2766 1631 
L 2766 1759 
L 2194 1759 
z
M 3341 1997 
L 3341 0 
L 2766 0 
L 2766 531 
Q 2569 213 2275 61 
Q 1981 -91 1556 -91 
Q 1019 -91 701 211 
Q 384 513 384 1019 
Q 384 1609 779 1909 
Q 1175 2209 1959 2209 
L 2766 2209 
L 2766 2266 
Q 2766 2663 2505 2880 
Q 2244 3097 1772 3097 
Q 1472 3097 1187 3025 
Q 903 2953 641 2809 
L 641 3341 
Q 956 3463 1253 3523 
Q 1550 3584 1831 3584 
Q 2591 3584 2966 3190 
Q 3341 2797 3341 1997 
z
" transform="scale(0.015625)"/>
       <path id="DejaVuSans-6c" d="M 603 4863 
L 1178 4863 
L 1178 0 
L 603 0 
L 603 4863 
z
" transform="scale(0.015625)"/>
       <path id="DejaVuSans-50" d="M 1259 4147 
L 1259 2394 
L 2053 2394 
Q 2494 2394 2734 2622 
Q 2975 2850 2975 3272 
Q 2975 3691 2734 3919 
Q 2494 4147 2053 4147 
L 1259 4147 
z
M 628 4666 
L 2053 4666 
Q 2838 4666 3239 4311 
Q 3641 3956 3641 3272 
Q 3641 2581 3239 2228 
Q 2838 1875 2053 1875 
L 1259 1875 
L 1259 0 
L 628 0 
L 628 4666 
z
" transform="scale(0.015625)"/>
       <path id="DejaVuSans-6b" d="M 581 4863 
L 1159 4863 
L 1159 1991 
L 2875 3500 
L 3609 3500 
L 1753 1863 
L 3688 0 
L 2938 0 
L 1159 1709 
L 1159 0 
L 581 0 
L 581 4863 
z
" transform="scale(0.015625)"/>
      </defs>
      <use xlink:href="#DejaVuSans-49"/>
      <use xlink:href="#DejaVuSans-6e" x="29.492188"/>
      <use xlink:href="#DejaVuSans-65" x="92.871094"/>
      <use xlink:href="#DejaVuSans-72" x="154.394531"/>
      <use xlink:href="#DejaVuSans-74" x="195.507812"/>
      <use xlink:href="#DejaVuSans-69" x="234.716797"/>
      <use xlink:href="#DejaVuSans-61" x="262.5"/>
      <use xlink:href="#DejaVuSans-6c" x="323.779297"/>
      <use xlink:href="#DejaVuSans-20" x="351.5625"/>
      <use xlink:href="#DejaVuSans-50" x="383.349609"/>
      <use xlink:href="#DejaVuSans-6f" x="440.027344"/>
      <use xlink:href="#DejaVuSans-73" x="501.208984"/>
      <use xlink:href="#DejaVuSans-69" x="553.308594"/>
      <use xlink:href="#DejaVuSans-74" x="581.091797"/>
      <use xlink:href="#DejaVuSans-69" x="620.300781"/>
      <use xlink:href="#DejaVuSans-6f" x="648.083984"/>
      <use xlink:href="#DejaVuSans-6e" x="709.265625"/>
      <use xlink:href="#DejaVuSans-20" x="772.644531"/>
      <use xlink:href="#DejaVuSans-5b" x="804.431641"/>
      <use xlink:href="#DejaVuSans-6b" x="843.445312"/>
      <use xlink:href="#DejaVuSans-6d" x="901.355469"/>
      <use xlink:href="#DejaVuSans-5d" x="998.767578"/>
     </g>
    </g>
   </g>
   <g id="line2d_12">
    <path d="M 100.041733 21.265312 
L 102.69056 21.362593 
L 105.339387 21.654255 
L 107.988214 22.139755 
L 110.637042 22.818192 
L 113.285869 23.688302 
L 115.934696 24.748471 
L 118.583523 25.996725 
L 121.23235 27.430744 
L 123.881177 29.047864 
L 126.530004 30.845076 
L 129.178832 32.81904 
L 131.827659 34.966087 
L 134.476486 37.282224 
L 137.125313 39.763146 
L 139.77414 42.404241 
L 142.422967 45.200597 
L 145.071794 48.147018 
L 147.720622 51.238025 
L 150.369449 54.467872 
L 153.018276 57.830553 
L 155.667103 61.319819 
L 158.31593 64.929182 
L 160.964757 68.651931 
L 163.613584 72.481146 
L 166.262412 76.409709 
L 168.911239 80.430315 
L 171.560066 84.53549 
L 174.208893 88.717603 
L 176.85772 92.968878 
L 179.506547 97.281412 
L 182.155375 101.647188 
L 184.804202 106.05809 
L 187.453029 110.505916 
L 190.101856 114.982399 
L 192.750683 119.479217 
L 195.39951 123.988008 
L 198.048337 128.500392 
L 200.697165 133.00798 
L 203.345992 137.50239 
L 205.994819 141.975268 
L 208.643646 146.418299 
L 211.292473 150.823222 
L 213.9413 155.181847 
L 216.590127 159.486073 
L 219.238955 163.727897 
L 221.887782 167.899432 
L 224.536609 171.992924 
L 227.185436 176.000762 
L 229.834263 179.915495 
L 232.48309 183.729845 
L 235.131917 187.436721 
L 237.780745 191.02923 
L 240.429572 194.500694 
L 243.078399 197.844658 
L 245.727226 201.054906 
L 248.376053 204.125469 
L 251.02488 207.050637 
L 253.673708 209.824974 
L 256.322535 212.44332 
L 258.971362 214.900806 
L 261.620189 217.192865 
L 264.269016 219.315234 
L 266.917843 221.263967 
L 269.56667 223.035441 
L 272.215498 224.626362 
L 274.864325 226.033771 
L 277.513152 227.255052 
L 280.161979 228.287933 
L 282.810806 229.130494 
L 285.459633 229.781168 
L 288.10846 230.238745 
L 290.757288 230.502373 
L 293.406115 230.571562 
L 296.054942 230.446184 
L 298.703769 230.126469 
L 301.352596 229.613014 
L 304.001423 228.906771 
L 306.65025 228.009053 
L 309.299078 226.92153 
L 311.947905 225.646222 
L 314.596732 224.1855 
L 317.245559 222.542081 
L 319.894386 220.719018 
L 322.543213 218.719702 
L 325.192041 216.547848 
L 327.840868 214.207496 
L 330.489695 211.702996 
L 333.138522 209.039004 
L 335.787349 206.220473 
L 338.436176 203.252643 
L 341.085003 200.141033 
L 343.733831 196.891426 
L 346.382658 193.509866 
L 349.031485 190.002639 
L 351.680312 186.376266 
L 354.329139 182.637489 
L 356.977966 178.79326 
L 359.626793 174.850726 
L 362.275621 170.817217 
L 364.924448 166.700233 
L 367.573275 162.507428 
L 370.222102 158.246598 
L 372.870929 153.925665 
L 375.519756 149.552662 
L 378.168583 145.135721 
L 380.817411 140.683054 
L 383.466238 136.202938 
L 386.115065 131.703705 
L 388.763892 127.193718 
" clip-path="url(#p6b6fc37f79)" style="fill: none; stroke: #2b737e; stroke-width: 1.5; stroke-linecap: square"/>
   </g>
   <g id="line2d_13">
    <path d="M 100.041733 125.920623 
L 102.69056 121.409244 
L 105.339387 116.906252 
L 107.988214 112.420019 
L 110.637042 107.958884 
L 113.285869 103.531143 
L 115.934696 99.145026 
L 118.583523 94.808687 
L 121.23235 90.530188 
L 123.881177 86.317483 
L 126.530004 82.178403 
L 129.178832 78.120645 
L 131.827659 74.15175 
L 134.476486 70.279098 
L 137.125313 66.509888 
L 139.77414 62.851127 
L 142.422967 59.309618 
L 145.071794 55.891944 
L 147.720622 52.604459 
L 150.369449 49.453275 
L 153.018276 46.444249 
L 155.667103 43.582976 
L 158.31593 40.874775 
L 160.964757 38.324681 
L 163.613584 35.937435 
L 166.262412 33.717475 
L 168.911239 31.668927 
L 171.560066 29.795601 
L 174.208893 28.100979 
L 176.85772 26.588211 
L 179.506547 25.26011 
L 182.155375 24.119145 
L 184.804202 23.167436 
L 187.453029 22.406755 
L 190.101856 21.838514 
L 192.750683 21.463771 
L 195.39951 21.283221 
L 198.048337 21.297202 
L 200.697165 21.505686 
L 203.345992 21.908287 
L 205.994819 22.504256 
L 208.643646 23.292486 
L 211.292473 24.271511 
L 213.9413 25.439512 
L 216.590127 26.794316 
L 219.238955 28.333407 
L 221.887782 30.053922 
L 224.536609 31.952663 
L 227.185436 34.026101 
L 229.834263 36.270381 
L 232.48309 38.681331 
L 235.131917 41.254469 
L 237.780745 43.985011 
L 240.429572 46.867882 
L 243.078399 49.897722 
L 245.727226 53.068899 
L 248.376053 56.375517 
L 251.02488 59.811428 
L 253.673708 63.370246 
L 256.322535 67.045355 
L 258.971362 70.829921 
L 261.620189 74.71691 
L 264.269016 78.699095 
L 266.917843 82.769072 
L 269.56667 86.919275 
L 272.215498 91.141989 
L 274.864325 95.429362 
L 277.513152 99.773425 
L 280.161979 104.1661 
L 282.810806 108.599221 
L 285.459633 113.064546 
L 288.10846 117.553773 
L 290.757288 122.058557 
L 293.406115 126.570521 
L 296.054942 131.081278 
L 298.703769 135.58244 
L 301.352596 140.065639 
L 304.001423 144.52254 
L 306.65025 148.944856 
L 309.299078 153.324365 
L 311.947905 157.652925 
L 314.596732 161.922488 
L 317.245559 166.125115 
L 319.894386 170.252993 
L 322.543213 174.298447 
L 325.192041 178.253955 
L 327.840868 182.112163 
L 330.489695 185.865897 
L 333.138522 189.508178 
L 335.787349 193.032235 
L 338.436176 196.431514 
L 341.085003 199.699695 
L 343.733831 202.830702 
L 346.382658 205.818714 
L 349.031485 208.658175 
L 351.680312 211.343805 
L 354.329139 213.870611 
L 356.977966 216.233896 
L 359.626793 218.429264 
L 362.275621 220.452635 
L 364.924448 222.300247 
L 367.573275 223.968664 
L 370.222102 225.454784 
L 372.870929 226.755845 
L 375.519756 227.869427 
L 378.168583 228.793461 
L 380.817411 229.526228 
L 383.466238 230.066367 
L 386.115065 230.412873 
L 388.763892 230.565103 
" clip-path="url(#p6b6fc37f79)" style="fill: none; stroke: #5ea04b; stroke-width: 1.5; stroke-linecap: square"/>
   </g>
   <g id="line2d_14">
    <path d="M 100.041733 125.920623 
L 102.69056 125.920623 
L 105.339387 125.920623 
L 107.988214 125.920623 
L 110.637042 125.920624 
L 113.285869 125.920624 
L 115.934696 125.920624 
L 118.583523 125.920625 
L 121.23235 125.920626 
L 123.881177 125.920626 
L 126.530004 125.920627 
L 129.178832 125.920628 
L 131.827659 125.920629 
L 134.476486 125.92063 
L 137.125313 125.920631 
L 139.77414 125.920633 
L 142.422967 125.920634 
L 145.071794 125.920635 
L 147.720622 125.920637 
L 150.369449 125.920638 
L 153.018276 125.92064 
L 155.667103 125.920641 
L 158.31593 125.920643 
L 160.964757 125.920645 
L 163.613584 125.920646 
L 166.262412 125.920648 
L 168.911239 125.92065 
L 171.560066 125.920652 
L 174.208893 125.920654 
L 176.85772 125.920656 
L 179.506547 125.920658 
L 182.155375 125.92066 
L 184.804202 125.920662 
L 187.453029 125.920664 
L 190.101856 125.920666 
L 192.750683 125.920668 
L 195.39951 125.92067 
L 198.048337 125.920672 
L 200.697165 125.920674 
L 203.345992 125.920676 
L 205.994819 125.920678 
L 208.643646 125.92068 
L 211.292473 125.920682 
L 213.9413 125.920684 
L 216.590127 125.920686 
L 219.238955 125.920688 
L 221.887782 125.92069 
L 224.536609 125.920692 
L 227.185436 125.920693 
L 229.834263 125.920695 
L 232.48309 125.920697 
L 235.131917 125.920699 
L 237.780745 125.9207 
L 240.429572 125.920702 
L 243.078399 125.920704 
L 245.727226 125.920705 
L 248.376053 125.920706 
L 251.02488 125.920708 
L 253.673708 125.920709 
L 256.322535 125.92071 
L 258.971362 125.920712 
L 261.620189 125.920713 
L 264.269016 125.920714 
L 266.917843 125.920715 
L 269.56667 125.920716 
L 272.215498 125.920716 
L 274.864325 125.920717 
L 277.513152 125.920718 
L 280.161979 125.920718 
L 282.810806 125.920719 
L 285.459633 125.920719 
L 288.10846 125.920719 
L 290.757288 125.92072 
L 293.406115 125.92072 
L 296.054942 125.92072 
L 298.703769 125.92072 
L 301.352596 125.92072 
L 304.001423 125.920719 
L 306.65025 125.920719 
L 309.299078 125.920719 
L 311.947905 125.920718 
L 314.596732 125.920718 
L 317.245559 125.920717 
L 319.894386 125.920716 
L 322.543213 125.920716 
L 325.192041 125.920715 
L 327.840868 125.920714 
L 330.489695 125.920713 
L 333.138522 125.920712 
L 335.787349 125.920711 
L 338.436176 125.92071 
L 341.085003 125.920708 
L 343.733831 125.920707 
L 346.382658 125.920706 
L 349.031485 125.920704 
L 351.680312 125.920703 
L 354.329139 125.920701 
L 356.977966 125.920699 
L 359.626793 125.920698 
L 362.275621 125.920696 
L 364.924448 125.920694 
L 367.573275 125.920692 
L 370.222102 125.920691 
L 372.870929 125.920689 
L 375.519756 125.920687 
L 378.168583 125.920685 
L 380.817411 125.920683 
L 383.466238 125.920681 
L 386.115065 125.920679 
L 388.763892 125.920677 
" clip-path="url(#p6b6fc37f79)" style="fill: none; stroke: #bdab62; stroke-width: 1.5; stroke-linecap: square"/>
   </g>
   <g id="patch_3">
    <path d="M 85.605625 241.036875 
L 85.605625 10.8 
" style="fill: none; stroke: #000000; stroke-width: 0.8; stroke-linejoin: miter; stroke-linecap: square"/>
   </g>
   <g id="patch_4">
    <path d="M 403.2 241.036875 
L 403.2 10.8 
" style="fill: none; stroke: #000000; stroke-width: 0.8; stroke-linejoin: miter; stroke-linecap: square"/>
   </g>
   <g id="patch_5">
    <path d="M 85.605625 241.036875 
L 403.2 241.036875 
" style="fill: none; stroke: #000000; stroke-width: 0.8; stroke-linejoin: miter; stroke-linecap: square"/>
   </g>
   <g id="patch_6">
    <path d="M 85.605625 10.8 
L 403.2 10.8 
" style="fill: none; stroke: #000000; stroke-width: 0.8; stroke-linejoin: miter; stroke-linecap: square"/>
   </g>
   <g id="legend_1">
    <g id="patch_7">
     <path d="M 347.85 236.536875 
L 396.9 236.536875 
Q 398.7 236.536875 398.7 234.736875 
L 398.7 194.871094 
Q 398.7 193.071094 396.9 193.071094 
L 347.85 193.071094 
Q 346.05 193.071094 346.05 194.871094 
L 346.05 234.736875 
Q 346.05 236.536875 347.85 236.536875 
z
" style="fill: #ffffff; opacity: 0.8; stroke: #cccccc; stroke-linejoin: miter"/>
    </g>
    <g id="line2d_15">
     <path d="M 349.65 200.359687 
L 358.65 200.359687 
L 367.65 200.359687 
" style="fill: none; stroke: #2b737e; stroke-width: 1.5; stroke-linecap: square"/>
    </g>
    <g id="text_14">
     <!-- $r_{BN,0}$ -->
     <g transform="translate(374.85 203.509687) scale(0.09 -0.09)">
      <defs>
       <path id="DejaVuSans-Oblique-72" d="M 2853 2969 
Q 2766 3016 2653 3041 
Q 2541 3066 2413 3066 
Q 1953 3066 1609 2717 
Q 1266 2369 1153 1784 
L 800 0 
L 225 0 
L 909 3500 
L 1484 3500 
L 1375 2956 
Q 1603 3259 1920 3421 
Q 2238 3584 2597 3584 
Q 2691 3584 2781 3573 
Q 2872 3563 2963 3538 
L 2853 2969 
z
" transform="scale(0.015625)"/>
       <path id="DejaVuSans-Oblique-42" d="M 1081 4666 
L 2694 4666 
Q 3350 4666 3675 4422 
Q 4000 4178 4000 3688 
Q 4000 3238 3720 2911 
Q 3441 2584 2988 2516 
Q 3375 2428 3569 2181 
Q 3763 1934 3763 1522 
Q 3763 819 3242 409 
Q 2722 0 1819 0 
L 172 0 
L 1081 4666 
z
M 1234 2228 
L 903 519 
L 1919 519 
Q 2491 519 2800 781 
Q 3109 1044 3109 1522 
Q 3109 1891 2904 2059 
Q 2700 2228 2247 2228 
L 1234 2228 
z
M 1606 4147 
L 1331 2741 
L 2272 2741 
Q 2775 2741 3058 2959 
Q 3341 3178 3341 3566 
Q 3341 3869 3150 4008 
Q 2959 4147 2541 4147 
L 1606 4147 
z
" transform="scale(0.015625)"/>
       <path id="DejaVuSans-Oblique-4e" d="M 1081 4666 
L 1931 4666 
L 3219 666 
L 4000 4666 
L 4616 4666 
L 3706 0 
L 2853 0 
L 1569 4025 
L 788 0 
L 172 0 
L 1081 4666 
z
" transform="scale(0.015625)"/>
       <path id="DejaVuSans-2c" d="M 750 794 
L 1409 794 
L 1409 256 
L 897 -744 
L 494 -744 
L 750 256 
L 750 794 
z
" transform="scale(0.015625)"/>
      </defs>
      <use xlink:href="#DejaVuSans-Oblique-72"/>
      <use xlink:href="#DejaVuSans-Oblique-42" transform="translate(41.113281 -16.40625) scale(0.7)"/>
      <use xlink:href="#DejaVuSans-Oblique-4e" transform="translate(89.135742 -16.40625) scale(0.7)"/>
      <use xlink:href="#DejaVuSans-2c" transform="translate(141.499023 -16.40625) scale(0.7)"/>
      <use xlink:href="#DejaVuSans-30" transform="translate(177.387695 -16.40625) scale(0.7)"/>
     </g>
    </g>
    <g id="line2d_16">
     <path d="M 349.65 213.948281 
L 358.65 213.948281 
L 367.65 213.948281 
" style="fill: none; stroke: #5ea04b; stroke-width: 1.5; stroke-linecap: square"/>
    </g>
    <g id="text_15">
     <!-- $r_{BN,1}$ -->
     <g transform="translate(374.85 217.098281) scale(0.09 -0.09)">
      <defs>
       <path id="DejaVuSans-31" d="M 794 531 
L 1825 531 
L 1825 4091 
L 703 3866 
L 703 4441 
L 1819 4666 
L 2450 4666 
L 2450 531 
L 3481 531 
L 3481 0 
L 794 0 
L 794 531 
z
" transform="scale(0.015625)"/>
      </defs>
      <use xlink:href="#DejaVuSans-Oblique-72"/>
      <use xlink:href="#DejaVuSans-Oblique-42" transform="translate(41.113281 -16.40625) scale(0.7)"/>
      <use xlink:href="#DejaVuSans-Oblique-4e" transform="translate(89.135742 -16.40625) scale(0.7)"/>
      <use xlink:href="#DejaVuSans-2c" transform="translate(141.499023 -16.40625) scale(0.7)"/>
      <use xlink:href="#DejaVuSans-31" transform="translate(177.387695 -16.40625) scale(0.7)"/>
     </g>
    </g>
    <g id="line2d_17">
     <path d="M 349.65 227.536875 
L 358.65 227.536875 
L 367.65 227.536875 
" style="fill: none; stroke: #bdab62; stroke-width: 1.5; stroke-linecap: square"/>
    </g>
    <g id="text_16">
     <!-- $r_{BN,2}$ -->
     <g transform="translate(374.85 230.686875) scale(0.09 -0.09)">
      <use xlink:href="#DejaVuSans-Oblique-72"/>
      <use xlink:href="#DejaVuSans-Oblique-42" transform="translate(41.113281 -16.40625) scale(0.7)"/>
      <use xlink:href="#DejaVuSans-Oblique-4e" transform="translate(89.135742 -16.40625) scale(0.7)"/>
      <use xlink:href="#DejaVuSans-2c" transform="translate(141.499023 -16.40625) scale(0.7)"/>
      <use xlink:href="#DejaVuSans-32" transform="translate(177.387695 -16.40625) scale(0.7)"/>
     </g>
    </g>
   </g>
  </g>
 </g>
 <defs>
  <clipPath id="p6b6fc37f79">
   <rect x="85.605625" y="10.8" width="317.594375" height="230.236875"/>
  </clipPath>
 </defs>
</svg>
