<?xml version="1.0" encoding="utf-8" standalone="no"?>
<!DOCTYPE svg PUBLIC "-//W3C//DTD SVG 1.1//EN"
  "http://www.w3.org/Graphics/SVG/1.1/DTD/svg11.dtd">
<svg xmlns:xlink="http://www.w3.org/1999/xlink" width="414pt" height="288pt" viewBox="0 0 414 288" xmlns="http://www.w3.org/2000/svg" version="1.1">
 <metadata>
  <rdf:RDF xmlns:dc="http://purl.org/dc/elements/1.1/" xmlns:cc="http://creativecommons.org/ns#" xmlns:rdf="http://www.w3.org/1999/02/22-rdf-syntax-ns#">
   <cc:Work>
    <dc:type rdf:resource="http://purl.org/dc/dcmitype/StillImage"/>
    <dc:date>2023-09-07T00:38:18.663510</dc:date>
    <dc:format>image/svg+xml</dc:format>
    <dc:creator>
     <cc:Agent>
      <dc:title>Matplotlib v3.7.2, https://matplotlib.org/</dc:title>
     </cc:Agent>
    </dc:creator>
   </cc:Work>
  </rdf:RDF>
 </metadata>
 <defs>
  <style type="text/css">*{stroke-linejoin: round; stroke-linecap: butt}</style>
 </defs>
 <g id="figure_1">
  <g id="patch_1">
   <path d="M 0 288 
L 414 288 
L 414 0 
L 0 0 
L 0 288 
z
" style="fill: none"/>
  </g>
  <g id="axes_1">
   <g id="patch_2">
    <path d="M 93.235625 241.036875 
L 402.625075 241.036875 
L 402.625075 25.918125 
L 93.235625 25.918125 
L 93.235625 241.036875 
z
" style="fill: none"/>
   </g>
   <g id="matplotlib.axis_1">
    <g id="xtick_1">
     <g id="line2d_1">
      <defs>
       <path id="mdb6621b49f" d="M 0 0 
L 0 3.5 
" style="stroke: #000000; stroke-width: 0.8"/>
      </defs>
      <g>
       <use xlink:href="#mdb6621b49f" x="107.298782" y="241.036875" style="stroke: #000000; stroke-width: 0.8"/>
      </g>
     </g>
     <g id="text_1">
      <!-- 0.0 -->
      <g transform="translate(94.576282 260.194375) scale(0.16 -0.16)">
       <defs>
        <path id="DejaVuSans-30" d="M 2034 4250 
Q 1547 4250 1301 3770 
Q 1056 3291 1056 2328 
Q 1056 1369 1301 889 
Q 1547 409 2034 409 
Q 2525 409 2770 889 
Q 3016 1369 3016 2328 
Q 3016 3291 2770 3770 
Q 2525 4250 2034 4250 
z
M 2034 4750 
Q 2819 4750 3233 4129 
Q 3647 3509 3647 2328 
Q 3647 1150 3233 529 
Q 2819 -91 2034 -91 
Q 1250 -91 836 529 
Q 422 1150 422 2328 
Q 422 3509 836 4129 
Q 1250 4750 2034 4750 
z
" transform="scale(0.015625)"/>
        <path id="DejaVuSans-2e" d="M 684 794 
L 1344 794 
L 1344 0 
L 684 0 
L 684 794 
z
" transform="scale(0.015625)"/>
       </defs>
       <use xlink:href="#DejaVuSans-30"/>
       <use xlink:href="#DejaVuSans-2e" x="63.623047"/>
       <use xlink:href="#DejaVuSans-30" x="95.410156"/>
      </g>
     </g>
    </g>
    <g id="xtick_2">
     <g id="line2d_2">
      <g>
       <use xlink:href="#mdb6621b49f" x="164.021306" y="241.036875" style="stroke: #000000; stroke-width: 0.8"/>
      </g>
     </g>
     <g id="text_2">
      <!-- 0.2 -->
      <g transform="translate(151.298806 260.194375) scale(0.16 -0.16)">
       <defs>
        <path id="DejaVuSans-32" d="M 1228 531 
L 3431 531 
L 3431 0 
L 469 0 
L 469 531 
Q 828 903 1448 1529 
Q 2069 2156 2228 2338 
Q 2531 2678 2651 2914 
Q 2772 3150 2772 3378 
Q 2772 3750 2511 3984 
Q 2250 4219 1831 4219 
Q 1534 4219 1204 4116 
Q 875 4013 500 3803 
L 500 4441 
Q 881 4594 1212 4672 
Q 1544 4750 1819 4750 
Q 2544 4750 2975 4387 
Q 3406 4025 3406 3419 
Q 3406 3131 3298 2873 
Q 3191 2616 2906 2266 
Q 2828 2175 2409 1742 
Q 1991 1309 1228 531 
z
" transform="scale(0.015625)"/>
       </defs>
       <use xlink:href="#DejaVuSans-30"/>
       <use xlink:href="#DejaVuSans-2e" x="63.623047"/>
       <use xlink:href="#DejaVuSans-32" x="95.410156"/>
      </g>
     </g>
    </g>
    <g id="xtick_3">
     <g id="line2d_3">
      <g>
       <use xlink:href="#mdb6621b49f" x="220.74383" y="241.036875" style="stroke: #000000; stroke-width: 0.8"/>
      </g>
     </g>
     <g id="text_3">
      <!-- 0.4 -->
      <g transform="translate(208.02133 260.194375) scale(0.16 -0.16)">
       <defs>
        <path id="DejaVuSans-34" d="M 2419 4116 
L 825 1625 
L 2419 1625 
L 2419 4116 
z
M 2253 4666 
L 3047 4666 
L 3047 1625 
L 3713 1625 
L 3713 1100 
L 3047 1100 
L 3047 0 
L 2419 0 
L 2419 1100 
L 313 1100 
L 313 1709 
L 2253 4666 
z
" transform="scale(0.015625)"/>
       </defs>
       <use xlink:href="#DejaVuSans-30"/>
       <use xlink:href="#DejaVuSans-2e" x="63.623047"/>
       <use xlink:href="#DejaVuSans-34" x="95.410156"/>
      </g>
     </g>
    </g>
    <g id="xtick_4">
     <g id="line2d_4">
      <g>
       <use xlink:href="#mdb6621b49f" x="277.466355" y="241.036875" style="stroke: #000000; stroke-width: 0.8"/>
      </g>
     </g>
     <g id="text_4">
      <!-- 0.6 -->
      <g transform="translate(264.743855 260.194375) scale(0.16 -0.16)">
       <defs>
        <path id="DejaVuSans-36" d="M 2113 2584 
Q 1688 2584 1439 2293 
Q 1191 2003 1191 1497 
Q 1191 994 1439 701 
Q 1688 409 2113 409 
Q 2538 409 2786 701 
Q 3034 994 3034 1497 
Q 3034 2003 2786 2293 
Q 2538 2584 2113 2584 
z
M 3366 4563 
L 3366 3988 
Q 3128 4100 2886 4159 
Q 2644 4219 2406 4219 
Q 1781 4219 1451 3797 
Q 1122 3375 1075 2522 
Q 1259 2794 1537 2939 
Q 1816 3084 2150 3084 
Q 2853 3084 3261 2657 
Q 3669 2231 3669 1497 
Q 3669 778 3244 343 
Q 2819 -91 2113 -91 
Q 1303 -91 875 529 
Q 447 1150 447 2328 
Q 447 3434 972 4092 
Q 1497 4750 2381 4750 
Q 2619 4750 2861 4703 
Q 3103 4656 3366 4563 
z
" transform="scale(0.015625)"/>
       </defs>
       <use xlink:href="#DejaVuSans-30"/>
       <use xlink:href="#DejaVuSans-2e" x="63.623047"/>
       <use xlink:href="#DejaVuSans-36" x="95.410156"/>
      </g>
     </g>
    </g>
    <g id="xtick_5">
     <g id="line2d_5">
      <g>
       <use xlink:href="#mdb6621b49f" x="334.188879" y="241.036875" style="stroke: #000000; stroke-width: 0.8"/>
      </g>
     </g>
     <g id="text_5">
      <!-- 0.8 -->
      <g transform="translate(321.466379 260.194375) scale(0.16 -0.16)">
       <defs>
        <path id="DejaVuSans-38" d="M 2034 2216 
Q 1584 2216 1326 1975 
Q 1069 1734 1069 1313 
Q 1069 891 1326 650 
Q 1584 409 2034 409 
Q 2484 409 2743 651 
Q 3003 894 3003 1313 
Q 3003 1734 2745 1975 
Q 2488 2216 2034 2216 
z
M 1403 2484 
Q 997 2584 770 2862 
Q 544 3141 544 3541 
Q 544 4100 942 4425 
Q 1341 4750 2034 4750 
Q 2731 4750 3128 4425 
Q 3525 4100 3525 3541 
Q 3525 3141 3298 2862 
Q 3072 2584 2669 2484 
Q 3125 2378 3379 2068 
Q 3634 1759 3634 1313 
Q 3634 634 3220 271 
Q 2806 -91 2034 -91 
Q 1263 -91 848 271 
Q 434 634 434 1313 
Q 434 1759 690 2068 
Q 947 2378 1403 2484 
z
M 1172 3481 
Q 1172 3119 1398 2916 
Q 1625 2713 2034 2713 
Q 2441 2713 2670 2916 
Q 2900 3119 2900 3481 
Q 2900 3844 2670 4047 
Q 2441 4250 2034 4250 
Q 1625 4250 1398 4047 
Q 1172 3844 1172 3481 
z
" transform="scale(0.015625)"/>
       </defs>
       <use xlink:href="#DejaVuSans-30"/>
       <use xlink:href="#DejaVuSans-2e" x="63.623047"/>
       <use xlink:href="#DejaVuSans-38" x="95.410156"/>
      </g>
     </g>
    </g>
    <g id="xtick_6">
     <g id="line2d_6">
      <g>
       <use xlink:href="#mdb6621b49f" x="390.911403" y="241.036875" style="stroke: #000000; stroke-width: 0.8"/>
      </g>
     </g>
     <g id="text_6">
      <!-- 1.0 -->
      <g transform="translate(378.188903 260.194375) scale(0.16 -0.16)">
       <defs>
        <path id="DejaVuSans-31" d="M 794 531 
L 1825 531 
L 1825 4091 
L 703 3866 
L 703 4441 
L 1819 4666 
L 2450 4666 
L 2450 531 
L 3481 531 
L 3481 0 
L 794 0 
L 794 531 
z
" transform="scale(0.015625)"/>
       </defs>
       <use xlink:href="#DejaVuSans-31"/>
       <use xlink:href="#DejaVuSans-2e" x="63.623047"/>
       <use xlink:href="#DejaVuSans-30" x="95.410156"/>
      </g>
     </g>
    </g>
    <g id="text_7">
     <!-- Time [orbits] -->
     <g transform="translate(215.963162 275.120313) scale(0.1 -0.1)">
      <defs>
       <path id="DejaVuSans-54" d="M -19 4666 
L 3928 4666 
L 3928 4134 
L 2272 4134 
L 2272 0 
L 1638 0 
L 1638 4134 
L -19 4134 
L -19 4666 
z
" transform="scale(0.015625)"/>
       <path id="DejaVuSans-69" d="M 603 3500 
L 1178 3500 
L 1178 0 
L 603 0 
L 603 3500 
z
M 603 4863 
L 1178 4863 
L 1178 4134 
L 603 4134 
L 603 4863 
z
" transform="scale(0.015625)"/>
       <path id="DejaVuSans-6d" d="M 3328 2828 
Q 3544 3216 3844 3400 
Q 4144 3584 4550 3584 
Q 5097 3584 5394 3201 
Q 5691 2819 5691 2113 
L 5691 0 
L 5113 0 
L 5113 2094 
Q 5113 2597 4934 2840 
Q 4756 3084 4391 3084 
Q 3944 3084 3684 2787 
Q 3425 2491 3425 1978 
L 3425 0 
L 2847 0 
L 2847 2094 
Q 2847 2600 2669 2842 
Q 2491 3084 2119 3084 
Q 1678 3084 1418 2786 
Q 1159 2488 1159 1978 
L 1159 0 
L 581 0 
L 581 3500 
L 1159 3500 
L 1159 2956 
Q 1356 3278 1631 3431 
Q 1906 3584 2284 3584 
Q 2666 3584 2933 3390 
Q 3200 3197 3328 2828 
z
" transform="scale(0.015625)"/>
       <path id="DejaVuSans-65" d="M 3597 1894 
L 3597 1613 
L 953 1613 
Q 991 1019 1311 708 
Q 1631 397 2203 397 
Q 2534 397 2845 478 
Q 3156 559 3463 722 
L 3463 178 
Q 3153 47 2828 -22 
Q 2503 -91 2169 -91 
Q 1331 -91 842 396 
Q 353 884 353 1716 
Q 353 2575 817 3079 
Q 1281 3584 2069 3584 
Q 2775 3584 3186 3129 
Q 3597 2675 3597 1894 
z
M 3022 2063 
Q 3016 2534 2758 2815 
Q 2500 3097 2075 3097 
Q 1594 3097 1305 2825 
Q 1016 2553 972 2059 
L 3022 2063 
z
" transform="scale(0.015625)"/>
       <path id="DejaVuSans-20" transform="scale(0.015625)"/>
       <path id="DejaVuSans-5b" d="M 550 4863 
L 1875 4863 
L 1875 4416 
L 1125 4416 
L 1125 -397 
L 1875 -397 
L 1875 -844 
L 550 -844 
L 550 4863 
z
" transform="scale(0.015625)"/>
       <path id="DejaVuSans-6f" d="M 1959 3097 
Q 1497 3097 1228 2736 
Q 959 2375 959 1747 
Q 959 1119 1226 758 
Q 1494 397 1959 397 
Q 2419 397 2687 759 
Q 2956 1122 2956 1747 
Q 2956 2369 2687 2733 
Q 2419 3097 1959 3097 
z
M 1959 3584 
Q 2709 3584 3137 3096 
Q 3566 2609 3566 1747 
Q 3566 888 3137 398 
Q 2709 -91 1959 -91 
Q 1206 -91 779 398 
Q 353 888 353 1747 
Q 353 2609 779 3096 
Q 1206 3584 1959 3584 
z
" transform="scale(0.015625)"/>
       <path id="DejaVuSans-72" d="M 2631 2963 
Q 2534 3019 2420 3045 
Q 2306 3072 2169 3072 
Q 1681 3072 1420 2755 
Q 1159 2438 1159 1844 
L 1159 0 
L 581 0 
L 581 3500 
L 1159 3500 
L 1159 2956 
Q 1341 3275 1631 3429 
Q 1922 3584 2338 3584 
Q 2397 3584 2469 3576 
Q 2541 3569 2628 3553 
L 2631 2963 
z
" transform="scale(0.015625)"/>
       <path id="DejaVuSans-62" d="M 3116 1747 
Q 3116 2381 2855 2742 
Q 2594 3103 2138 3103 
Q 1681 3103 1420 2742 
Q 1159 2381 1159 1747 
Q 1159 1113 1420 752 
Q 1681 391 2138 391 
Q 2594 391 2855 752 
Q 3116 1113 3116 1747 
z
M 1159 2969 
Q 1341 3281 1617 3432 
Q 1894 3584 2278 3584 
Q 2916 3584 3314 3078 
Q 3713 2572 3713 1747 
Q 3713 922 3314 415 
Q 2916 -91 2278 -91 
Q 1894 -91 1617 61 
Q 1341 213 1159 525 
L 1159 0 
L 581 0 
L 581 4863 
L 1159 4863 
L 1159 2969 
z
" transform="scale(0.015625)"/>
       <path id="DejaVuSans-74" d="M 1172 4494 
L 1172 3500 
L 2356 3500 
L 2356 3053 
L 1172 3053 
L 1172 1153 
Q 1172 725 1289 603 
Q 1406 481 1766 481 
L 2356 481 
L 2356 0 
L 1766 0 
Q 1100 0 847 248 
Q 594 497 594 1153 
L 594 3053 
L 172 3053 
L 172 3500 
L 594 3500 
L 594 4494 
L 1172 4494 
z
" transform="scale(0.015625)"/>
       <path id="DejaVuSans-73" d="M 2834 3397 
L 2834 2853 
Q 2591 2978 2328 3040 
Q 2066 3103 1784 3103 
Q 1356 3103 1142 2972 
Q 928 2841 928 2578 
Q 928 2378 1081 2264 
Q 1234 2150 1697 2047 
L 1894 2003 
Q 2506 1872 2764 1633 
Q 3022 1394 3022 966 
Q 3022 478 2636 193 
Q 2250 -91 1575 -91 
Q 1294 -91 989 -36 
Q 684 19 347 128 
L 347 722 
Q 666 556 975 473 
Q 1284 391 1588 391 
Q 1994 391 2212 530 
Q 2431 669 2431 922 
Q 2431 1156 2273 1281 
Q 2116 1406 1581 1522 
L 1381 1569 
Q 847 1681 609 1914 
Q 372 2147 372 2553 
Q 372 3047 722 3315 
Q 1072 3584 1716 3584 
Q 2034 3584 2315 3537 
Q 2597 3491 2834 3397 
z
" transform="scale(0.015625)"/>
       <path id="DejaVuSans-5d" d="M 1947 4863 
L 1947 -844 
L 622 -844 
L 622 -397 
L 1369 -397 
L 1369 4416 
L 622 4416 
L 622 4863 
L 1947 4863 
z
" transform="scale(0.015625)"/>
      </defs>
      <use xlink:href="#DejaVuSans-54"/>
      <use xlink:href="#DejaVuSans-69" x="57.958984"/>
      <use xlink:href="#DejaVuSans-6d" x="85.742188"/>
      <use xlink:href="#DejaVuSans-65" x="183.154297"/>
      <use xlink:href="#DejaVuSans-20" x="244.677734"/>
      <use xlink:href="#DejaVuSans-5b" x="276.464844"/>
      <use xlink:href="#DejaVuSans-6f" x="315.478516"/>
      <use xlink:href="#DejaVuSans-72" x="376.660156"/>
      <use xlink:href="#DejaVuSans-62" x="417.773438"/>
      <use xlink:href="#DejaVuSans-69" x="481.25"/>
      <use xlink:href="#DejaVuSans-74" x="509.033203"/>
      <use xlink:href="#DejaVuSans-73" x="548.242188"/>
      <use xlink:href="#DejaVuSans-5d" x="600.341797"/>
     </g>
    </g>
   </g>
   <g id="matplotlib.axis_2">
    <g id="ytick_1">
     <g id="line2d_7">
      <defs>
       <path id="m68acec9826" d="M 0 0 
L -3.5 0 
" style="stroke: #000000; stroke-width: 0.8"/>
      </defs>
      <g>
       <use xlink:href="#m68acec9826" x="93.235625" y="220.622745" style="stroke: #000000; stroke-width: 0.8"/>
      </g>
     </g>
     <g id="text_8">
      <!-- -40,000 -->
      <g transform="translate(24.478125 226.701495) scale(0.16 -0.16)">
       <defs>
        <path id="DejaVuSans-2d" d="M 313 2009 
L 1997 2009 
L 1997 1497 
L 313 1497 
L 313 2009 
z
" transform="scale(0.015625)"/>
        <path id="DejaVuSans-2c" d="M 750 794 
L 1409 794 
L 1409 256 
L 897 -744 
L 494 -744 
L 750 256 
L 750 794 
z
" transform="scale(0.015625)"/>
       </defs>
       <use xlink:href="#DejaVuSans-2d"/>
       <use xlink:href="#DejaVuSans-34" x="36.083984"/>
       <use xlink:href="#DejaVuSans-30" x="99.707031"/>
       <use xlink:href="#DejaVuSans-2c" x="163.330078"/>
       <use xlink:href="#DejaVuSans-30" x="195.117188"/>
       <use xlink:href="#DejaVuSans-30" x="258.740234"/>
       <use xlink:href="#DejaVuSans-30" x="322.363281"/>
      </g>
     </g>
    </g>
    <g id="ytick_2">
     <g id="line2d_8">
      <g>
       <use xlink:href="#m68acec9826" x="93.235625" y="166.244345" style="stroke: #000000; stroke-width: 0.8"/>
      </g>
     </g>
     <g id="text_9">
      <!-- -20,000 -->
      <g transform="translate(24.478125 172.323095) scale(0.16 -0.16)">
       <use xlink:href="#DejaVuSans-2d"/>
       <use xlink:href="#DejaVuSans-32" x="36.083984"/>
       <use xlink:href="#DejaVuSans-30" x="99.707031"/>
       <use xlink:href="#DejaVuSans-2c" x="163.330078"/>
       <use xlink:href="#DejaVuSans-30" x="195.117188"/>
       <use xlink:href="#DejaVuSans-30" x="258.740234"/>
       <use xlink:href="#DejaVuSans-30" x="322.363281"/>
      </g>
     </g>
    </g>
    <g id="ytick_3">
     <g id="line2d_9">
      <g>
       <use xlink:href="#m68acec9826" x="93.235625" y="111.865945" style="stroke: #000000; stroke-width: 0.8"/>
      </g>
     </g>
     <g id="text_10">
      <!-- 0 -->
      <g transform="translate(76.055625 117.944695) scale(0.16 -0.16)">
       <use xlink:href="#DejaVuSans-30"/>
      </g>
     </g>
    </g>
    <g id="ytick_4">
     <g id="line2d_10">
      <g>
       <use xlink:href="#m68acec9826" x="93.235625" y="57.487545" style="stroke: #000000; stroke-width: 0.8"/>
      </g>
     </g>
     <g id="text_11">
      <!-- 20,000 -->
      <g transform="translate(30.250625 63.566295) scale(0.16 -0.16)">
       <use xlink:href="#DejaVuSans-32"/>
       <use xlink:href="#DejaVuSans-30" x="63.623047"/>
       <use xlink:href="#DejaVuSans-2c" x="127.246094"/>
       <use xlink:href="#DejaVuSans-30" x="159.033203"/>
       <use xlink:href="#DejaVuSans-30" x="222.65625"/>
       <use xlink:href="#DejaVuSans-30" x="286.279297"/>
      </g>
     </g>
    </g>
    <g id="text_12">
     <!-- Magnetic Field [nT]  -->
     <g transform="translate(18.398438 182.807187) rotate(-90) scale(0.1 -0.1)">
      <defs>
       <path id="DejaVuSans-4d" d="M 628 4666 
L 1569 4666 
L 2759 1491 
L 3956 4666 
L 4897 4666 
L 4897 0 
L 4281 0 
L 4281 4097 
L 3078 897 
L 2444 897 
L 1241 4097 
L 1241 0 
L 628 0 
L 628 4666 
z
" transform="scale(0.015625)"/>
       <path id="DejaVuSans-61" d="M 2194 1759 
Q 1497 1759 1228 1600 
Q 959 1441 959 1056 
Q 959 750 1161 570 
Q 1363 391 1709 391 
Q 2188 391 2477 730 
Q 2766 1069 2766 1631 
L 2766 1759 
L 2194 1759 
z
M 3341 1997 
L 3341 0 
L 2766 0 
L 2766 531 
Q 2569 213 2275 61 
Q 1981 -91 1556 -91 
Q 1019 -91 701 211 
Q 384 513 384 1019 
Q 384 1609 779 1909 
Q 1175 2209 1959 2209 
L 2766 2209 
L 2766 2266 
Q 2766 2663 2505 2880 
Q 2244 3097 1772 3097 
Q 1472 3097 1187 3025 
Q 903 2953 641 2809 
L 641 3341 
Q 956 3463 1253 3523 
Q 1550 3584 1831 3584 
Q 2591 3584 2966 3190 
Q 3341 2797 3341 1997 
z
" transform="scale(0.015625)"/>
       <path id="DejaVuSans-67" d="M 2906 1791 
Q 2906 2416 2648 2759 
Q 2391 3103 1925 3103 
Q 1463 3103 1205 2759 
Q 947 2416 947 1791 
Q 947 1169 1205 825 
Q 1463 481 1925 481 
Q 2391 481 2648 825 
Q 2906 1169 2906 1791 
z
M 3481 434 
Q 3481 -459 3084 -895 
Q 2688 -1331 1869 -1331 
Q 1566 -1331 1297 -1286 
Q 1028 -1241 775 -1147 
L 775 -588 
Q 1028 -725 1275 -790 
Q 1522 -856 1778 -856 
Q 2344 -856 2625 -561 
Q 2906 -266 2906 331 
L 2906 616 
Q 2728 306 2450 153 
Q 2172 0 1784 0 
Q 1141 0 747 490 
Q 353 981 353 1791 
Q 353 2603 747 3093 
Q 1141 3584 1784 3584 
Q 2172 3584 2450 3431 
Q 2728 3278 2906 2969 
L 2906 3500 
L 3481 3500 
L 3481 434 
z
" transform="scale(0.015625)"/>
       <path id="DejaVuSans-6e" d="M 3513 2113 
L 3513 0 
L 2938 0 
L 2938 2094 
Q 2938 2591 2744 2837 
Q 2550 3084 2163 3084 
Q 1697 3084 1428 2787 
Q 1159 2491 1159 1978 
L 1159 0 
L 581 0 
L 581 3500 
L 1159 3500 
L 1159 2956 
Q 1366 3272 1645 3428 
Q 1925 3584 2291 3584 
Q 2894 3584 3203 3211 
Q 3513 2838 3513 2113 
z
" transform="scale(0.015625)"/>
       <path id="DejaVuSans-63" d="M 3122 3366 
L 3122 2828 
Q 2878 2963 2633 3030 
Q 2388 3097 2138 3097 
Q 1578 3097 1268 2742 
Q 959 2388 959 1747 
Q 959 1106 1268 751 
Q 1578 397 2138 397 
Q 2388 397 2633 464 
Q 2878 531 3122 666 
L 3122 134 
Q 2881 22 2623 -34 
Q 2366 -91 2075 -91 
Q 1284 -91 818 406 
Q 353 903 353 1747 
Q 353 2603 823 3093 
Q 1294 3584 2113 3584 
Q 2378 3584 2631 3529 
Q 2884 3475 3122 3366 
z
" transform="scale(0.015625)"/>
       <path id="DejaVuSans-46" d="M 628 4666 
L 3309 4666 
L 3309 4134 
L 1259 4134 
L 1259 2759 
L 3109 2759 
L 3109 2228 
L 1259 2228 
L 1259 0 
L 628 0 
L 628 4666 
z
" transform="scale(0.015625)"/>
       <path id="DejaVuSans-6c" d="M 603 4863 
L 1178 4863 
L 1178 0 
L 603 0 
L 603 4863 
z
" transform="scale(0.015625)"/>
       <path id="DejaVuSans-64" d="M 2906 2969 
L 2906 4863 
L 3481 4863 
L 3481 0 
L 2906 0 
L 2906 525 
Q 2725 213 2448 61 
Q 2172 -91 1784 -91 
Q 1150 -91 751 415 
Q 353 922 353 1747 
Q 353 2572 751 3078 
Q 1150 3584 1784 3584 
Q 2172 3584 2448 3432 
Q 2725 3281 2906 2969 
z
M 947 1747 
Q 947 1113 1208 752 
Q 1469 391 1925 391 
Q 2381 391 2643 752 
Q 2906 1113 2906 1747 
Q 2906 2381 2643 2742 
Q 2381 3103 1925 3103 
Q 1469 3103 1208 2742 
Q 947 2381 947 1747 
z
" transform="scale(0.015625)"/>
      </defs>
      <use xlink:href="#DejaVuSans-4d"/>
      <use xlink:href="#DejaVuSans-61" x="86.279297"/>
      <use xlink:href="#DejaVuSans-67" x="147.558594"/>
      <use xlink:href="#DejaVuSans-6e" x="211.035156"/>
      <use xlink:href="#DejaVuSans-65" x="274.414062"/>
      <use xlink:href="#DejaVuSans-74" x="335.9375"/>
      <use xlink:href="#DejaVuSans-69" x="375.146484"/>
      <use xlink:href="#DejaVuSans-63" x="402.929688"/>
      <use xlink:href="#DejaVuSans-20" x="457.910156"/>
      <use xlink:href="#DejaVuSans-46" x="489.697266"/>
      <use xlink:href="#DejaVuSans-69" x="539.966797"/>
      <use xlink:href="#DejaVuSans-65" x="567.75"/>
      <use xlink:href="#DejaVuSans-6c" x="629.273438"/>
      <use xlink:href="#DejaVuSans-64" x="657.056641"/>
      <use xlink:href="#DejaVuSans-20" x="720.533203"/>
      <use xlink:href="#DejaVuSans-5b" x="752.320312"/>
      <use xlink:href="#DejaVuSans-6e" x="791.333984"/>
      <use xlink:href="#DejaVuSans-54" x="854.712891"/>
      <use xlink:href="#DejaVuSans-5d" x="915.796875"/>
      <use xlink:href="#DejaVuSans-20" x="954.810547"/>
     </g>
    </g>
   </g>
   <g id="line2d_11">
    <path d="M 107.298782 138.761446 
L 109.723464 132.507017 
L 112.148146 125.95392 
L 114.572828 119.022876 
L 116.997511 112.315397 
L 119.422193 105.581401 
L 121.846875 99.082363 
L 124.271557 92.378832 
L 126.696239 85.589494 
L 129.120922 78.789931 
L 131.545604 72.675033 
L 133.970286 66.428034 
L 136.394968 60.572425 
L 138.819651 55.052272 
L 141.244333 50.083462 
L 143.669015 45.331118 
L 146.093697 41.77386 
L 148.518379 38.812735 
L 150.943062 37.022005 
L 153.367744 36.090008 
L 155.792426 35.69625 
L 158.217108 36.302144 
L 160.64179 37.916522 
L 163.066473 39.560595 
L 165.491155 42.414349 
L 167.915837 45.664912 
L 170.340519 49.426827 
L 172.765201 53.675585 
L 175.189884 58.30682 
L 177.614566 63.669327 
L 180.039248 68.92108 
L 182.46393 75.11603 
L 184.888612 81.502151 
L 187.313295 87.396283 
L 189.737977 93.779192 
L 192.162659 100.41539 
L 194.587341 106.656568 
L 197.012024 112.765516 
L 199.436706 118.78698 
L 201.861388 123.806746 
L 204.28607 129.068501 
L 206.710752 133.415212 
L 209.135435 137.377906 
L 211.560117 140.710817 
L 213.984799 143.406048 
L 216.409481 145.229693 
L 218.834163 146.562501 
L 221.258846 147.24162 
L 223.683528 147.128429 
L 226.10821 146.514354 
L 228.532892 144.984753 
L 230.957574 143.090234 
L 233.382257 139.887922 
L 235.806939 136.834739 
L 238.231621 133.2708 
L 240.656303 128.819652 
L 243.080985 123.877461 
L 245.505668 118.758389 
L 247.93035 112.970418 
L 250.355032 107.037921 
L 252.779714 101.130569 
L 255.204397 94.849761 
L 257.629079 88.746494 
L 260.053761 82.885737 
L 262.478443 77.584506 
L 264.903125 72.446373 
L 267.327808 67.903177 
L 269.75249 63.697181 
L 272.177172 60.56174 
L 274.601854 57.582841 
L 277.026536 55.434023 
L 279.451219 53.73825 
L 281.875901 52.217364 
L 284.300583 50.858887 
L 286.725265 50.057919 
L 289.149947 49.635123 
L 291.57463 49.460325 
L 293.999312 49.138441 
L 296.423994 48.71356 
L 298.848676 49.02895 
L 301.273359 49.158418 
L 303.698041 49.271915 
L 306.122723 49.923345 
L 308.547405 50.4839 
L 310.972087 51.730341 
L 313.39677 53.389788 
L 315.821452 55.745517 
L 318.246134 58.757394 
L 320.670816 62.317567 
L 323.095498 67.529497 
L 325.520181 73.428564 
L 327.944863 79.703168 
L 330.369545 87.289308 
L 332.794227 95.485522 
L 335.218909 103.85425 
L 337.643592 112.830302 
L 340.068274 121.757857 
L 342.492956 130.824092 
L 344.917638 139.18642 
L 347.34232 147.084649 
L 349.767003 154.1651 
L 352.191685 160.410954 
L 354.616367 165.417645 
L 357.041049 169.849957 
L 359.465732 172.946207 
L 361.890414 174.843165 
L 364.315096 176.128548 
L 366.739778 176.273699 
L 369.16446 175.724176 
L 371.589143 173.999193 
L 374.013825 171.946536 
L 376.438507 168.712671 
L 378.863189 164.772636 
L 381.287871 160.528952 
L 383.712554 155.837025 
L 386.137236 150.56073 
L 388.561918 144.800629 
" clip-path="url(#pc261a2c80c)" style="fill: none; stroke: #2b737e; stroke-width: 1.5; stroke-linecap: square"/>
   </g>
   <g id="line2d_12">
    <path d="M 107.298782 154.7735 
L 109.723464 148.664673 
L 112.148146 142.739623 
L 114.572828 136.519349 
L 116.997511 130.538083 
L 119.422193 124.327688 
L 121.846875 118.422232 
L 124.271557 112.323001 
L 126.696239 106.292104 
L 129.120922 100.190746 
L 131.545604 94.460096 
L 133.970286 88.848898 
L 136.394968 83.016022 
L 138.819651 77.628651 
L 141.244333 73.178422 
L 143.669015 68.407854 
L 146.093697 64.365306 
L 148.518379 61.076918 
L 150.943062 58.202257 
L 153.367744 56.467968 
L 155.792426 55.155646 
L 158.217108 55.102906 
L 160.64179 55.174065 
L 163.066473 55.839765 
L 165.491155 57.811554 
L 167.915837 59.852453 
L 170.340519 62.877155 
L 172.765201 66.51264 
L 175.189884 70.752513 
L 177.614566 75.333951 
L 180.039248 81.091264 
L 182.46393 86.467869 
L 184.888612 93.031818 
L 187.313295 100.26668 
L 189.737977 107.251186 
L 192.162659 114.644384 
L 194.587341 122.009182 
L 197.012024 129.902832 
L 199.436706 137.229973 
L 201.861388 144.425813 
L 204.28607 151.424504 
L 206.710752 157.915821 
L 209.135435 164.233061 
L 211.560117 169.991726 
L 213.984799 174.660359 
L 216.409481 179.165955 
L 218.834163 183.36864 
L 221.258846 186.200414 
L 223.683528 188.642278 
L 226.10821 190.228355 
L 228.532892 191.133041 
L 230.957574 191.319143 
L 233.382257 190.582617 
L 235.806939 189.591791 
L 238.231621 187.995615 
L 240.656303 184.968053 
L 243.080985 181.907138 
L 245.505668 177.702498 
L 247.93035 172.874278 
L 250.355032 167.828347 
L 252.779714 162.172056 
L 255.204397 155.850674 
L 257.629079 149.534034 
L 260.053761 143.051373 
L 262.478443 136.788595 
L 264.903125 130.762582 
L 267.327808 124.980926 
L 269.75249 119.4538 
L 272.177172 114.580302 
L 274.601854 109.845565 
L 277.026536 106.219988 
L 279.451219 102.475385 
L 281.875901 99.334022 
L 284.300583 96.295666 
L 286.725265 93.670253 
L 289.149947 91.071828 
L 291.57463 88.909933 
L 293.999312 86.48043 
L 296.423994 84.375606 
L 298.848676 81.893091 
L 301.273359 80.175093 
L 303.698041 77.852713 
L 306.122723 75.708325 
L 308.547405 73.916069 
L 310.972087 72.478094 
L 313.39677 71.168276 
L 315.821452 71.182791 
L 318.246134 71.857669 
L 320.670816 73.098659 
L 323.095498 75.548683 
L 325.520181 79.618122 
L 327.944863 84.554572 
L 330.369545 90.90822 
L 332.794227 97.897089 
L 335.218909 105.84285 
L 337.643592 115.071996 
L 340.068274 124.047367 
L 342.492956 133.220781 
L 344.917638 142.519202 
L 347.34232 151.435504 
L 349.767003 159.642785 
L 352.191685 166.960687 
L 354.616367 173.020367 
L 357.041049 178.55758 
L 359.465732 182.872795 
L 361.890414 185.770405 
L 364.315096 187.820207 
L 366.739778 188.661269 
L 369.16446 188.466354 
L 371.589143 187.458251 
L 374.013825 185.705658 
L 376.438507 182.717516 
L 378.863189 179.636208 
L 381.287871 175.186619 
L 383.712554 170.734063 
L 386.137236 165.574837 
L 388.561918 160.111251 
" clip-path="url(#pc261a2c80c)" style="fill: none; stroke: #5ea04b; stroke-width: 1.5; stroke-linecap: square"/>
   </g>
   <g id="line2d_13">
    <path d="M 107.298782 220.160027 
L 109.723464 223.949237 
L 112.148146 227.246253 
L 114.572828 229.322832 
L 116.997511 230.930252 
L 119.422193 231.25875 
L 121.846875 231.095408 
L 124.271557 230.398395 
L 126.696239 228.61883 
L 129.120922 226.193981 
L 131.545604 222.928039 
L 133.970286 218.808871 
L 136.394968 213.601678 
L 138.819651 207.882346 
L 141.244333 201.141207 
L 143.669015 193.107134 
L 146.093697 184.935855 
L 148.518379 175.705158 
L 150.943062 166.469045 
L 153.367744 156.818532 
L 155.792426 147.016895 
L 158.217108 137.51813 
L 160.64179 127.443894 
L 163.066473 118.11926 
L 165.491155 109.106255 
L 167.915837 100.471471 
L 170.340519 91.945686 
L 172.765201 84.455267 
L 175.189884 77.411405 
L 177.614566 70.835475 
L 180.039248 65.01946 
L 182.46393 60.100619 
L 184.888612 56.206013 
L 187.313295 53.143267 
L 189.737977 51.26918 
L 192.162659 50.441887 
L 194.587341 50.558752 
L 197.012024 52.215905 
L 199.436706 54.704945 
L 201.861388 58.049513 
L 204.28607 62.539296 
L 206.710752 67.745839 
L 209.135435 74.222159 
L 211.560117 80.915483 
L 213.984799 88.529649 
L 216.409481 96.385333 
L 218.834163 104.804531 
L 221.258846 113.458188 
L 223.683528 122.015107 
L 226.10821 131.007135 
L 228.532892 139.772622 
L 230.957574 148.789502 
L 233.382257 157.171823 
L 235.806939 165.391204 
L 238.231621 173.131616 
L 240.656303 180.772386 
L 243.080985 187.369781 
L 245.505668 193.111693 
L 247.93035 198.457756 
L 250.355032 202.695011 
L 252.779714 205.942329 
L 255.204397 207.81888 
L 257.629079 208.638352 
L 260.053761 208.078792 
L 262.478443 206.929375 
L 264.903125 204.404048 
L 267.327808 201.096411 
L 269.75249 197.180781 
L 272.177172 192.29705 
L 274.601854 187.898121 
L 277.026536 182.716992 
L 279.451219 177.396288 
L 281.875901 172.370645 
L 284.300583 167.405411 
L 286.725265 162.569622 
L 289.149947 157.924488 
L 291.57463 153.284335 
L 293.999312 148.627348 
L 296.423994 143.874872 
L 298.848676 138.988792 
L 301.273359 133.916982 
L 303.698041 129.098929 
L 306.122723 123.431133 
L 308.547405 117.0936 
L 310.972087 110.710278 
L 313.39677 103.423906 
L 315.821452 95.806195 
L 318.246134 88.090594 
L 320.670816 79.778952 
L 323.095498 71.39525 
L 325.520181 63.79729 
L 327.944863 57.050631 
L 330.369545 50.820619 
L 332.794227 46.115886 
L 335.218909 42.802798 
L 337.643592 41.382256 
L 340.068274 41.674493 
L 342.492956 43.915944 
L 344.917638 47.565123 
L 347.34232 53.706949 
L 349.767003 60.8558 
L 352.191685 69.333957 
L 354.616367 79.210515 
L 357.041049 89.641884 
L 359.465732 100.863457 
L 361.890414 112.057987 
L 364.315096 123.563804 
L 366.739778 135.075506 
L 369.16446 146.222444 
L 371.589143 156.966713 
L 374.013825 167.521133 
L 376.438507 177.345554 
L 378.863189 186.280764 
L 381.287871 194.8936 
L 383.712554 202.919504 
L 386.137236 209.542328 
L 388.561918 215.083097 
" clip-path="url(#pc261a2c80c)" style="fill: none; stroke: #bdab62; stroke-width: 1.5; stroke-linecap: square"/>
   </g>
   <g id="patch_3">
    <path d="M 93.235625 241.036875 
L 93.235625 25.918125 
" style="fill: none; stroke: #000000; stroke-width: 0.8; stroke-linejoin: miter; stroke-linecap: square"/>
   </g>
   <g id="patch_4">
    <path d="M 402.625075 241.036875 
L 402.625075 25.918125 
" style="fill: none; stroke: #000000; stroke-width: 0.8; stroke-linejoin: miter; stroke-linecap: square"/>
   </g>
   <g id="patch_5">
    <path d="M 93.235625 241.036875 
L 402.625075 241.036875 
" style="fill: none; stroke: #000000; stroke-width: 0.8; stroke-linejoin: miter; stroke-linecap: square"/>
   </g>
   <g id="patch_6">
    <path d="M 93.235625 25.918125 
L 402.625075 25.918125 
" style="fill: none; stroke: #000000; stroke-width: 0.8; stroke-linejoin: miter; stroke-linecap: square"/>
   </g>
   <g id="text_13">
    <!-- WMM Model -->
    <g transform="translate(211.721287 19.918125) scale(0.12 -0.12)">
     <defs>
      <path id="DejaVuSans-57" d="M 213 4666 
L 850 4666 
L 1831 722 
L 2809 4666 
L 3519 4666 
L 4500 722 
L 5478 4666 
L 6119 4666 
L 4947 0 
L 4153 0 
L 3169 4050 
L 2175 0 
L 1381 0 
L 213 4666 
z
" transform="scale(0.015625)"/>
     </defs>
     <use xlink:href="#DejaVuSans-57"/>
     <use xlink:href="#DejaVuSans-4d" x="98.876953"/>
     <use xlink:href="#DejaVuSans-4d" x="185.15625"/>
     <use xlink:href="#DejaVuSans-20" x="271.435547"/>
     <use xlink:href="#DejaVuSans-4d" x="303.222656"/>
     <use xlink:href="#DejaVuSans-6f" x="389.501953"/>
     <use xlink:href="#DejaVuSans-64" x="450.683594"/>
     <use xlink:href="#DejaVuSans-65" x="514.160156"/>
     <use xlink:href="#DejaVuSans-6c" x="575.683594"/>
    </g>
   </g>
   <g id="legend_1">
    <g id="patch_7">
     <path d="M 343.765075 236.536875 
L 396.325075 236.536875 
Q 398.125075 236.536875 398.125075 234.736875 
L 398.125075 196.005938 
Q 398.125075 194.205938 396.325075 194.205938 
L 343.765075 194.205938 
Q 341.965075 194.205938 341.965075 196.005938 
L 341.965075 234.736875 
Q 341.965075 236.536875 343.765075 236.536875 
z
" style="fill: #ffffff; opacity: 0.8; stroke: #cccccc; stroke-linejoin: miter"/>
    </g>
    <g id="line2d_14">
     <path d="M 345.565075 201.494531 
L 354.565075 201.494531 
L 363.565075 201.494531 
" style="fill: none; stroke: #2b737e; stroke-width: 1.5; stroke-linecap: square"/>
    </g>
    <g id="text_14">
     <!-- $TAM_{0}$ -->
     <g transform="translate(370.765075 204.644531) scale(0.09 -0.09)">
      <defs>
       <path id="DejaVuSans-Oblique-54" d="M 378 4666 
L 4325 4666 
L 4225 4134 
L 2559 4134 
L 1759 0 
L 1125 0 
L 1925 4134 
L 275 4134 
L 378 4666 
z
" transform="scale(0.015625)"/>
       <path id="DejaVuSans-Oblique-41" d="M 2356 4666 
L 3072 4666 
L 3938 0 
L 3278 0 
L 3084 1197 
L 984 1197 
L 325 0 
L -341 0 
L 2356 4666 
z
M 2584 4044 
L 1275 1722 
L 2988 1722 
L 2584 4044 
z
" transform="scale(0.015625)"/>
       <path id="DejaVuSans-Oblique-4d" d="M 1081 4666 
L 2028 4666 
L 2572 1522 
L 4378 4666 
L 5350 4666 
L 4441 0 
L 3828 0 
L 4622 4091 
L 2791 897 
L 2175 897 
L 1581 4103 
L 788 0 
L 172 0 
L 1081 4666 
z
" transform="scale(0.015625)"/>
      </defs>
      <use xlink:href="#DejaVuSans-Oblique-54" transform="translate(0 0.09375)"/>
      <use xlink:href="#DejaVuSans-Oblique-41" transform="translate(61.083984 0.09375)"/>
      <use xlink:href="#DejaVuSans-Oblique-4d" transform="translate(129.492188 0.09375)"/>
      <use xlink:href="#DejaVuSans-30" transform="translate(215.771484 -16.3125) scale(0.7)"/>
     </g>
    </g>
    <g id="line2d_15">
     <path d="M 345.565075 214.704844 
L 354.565075 214.704844 
L 363.565075 214.704844 
" style="fill: none; stroke: #5ea04b; stroke-width: 1.5; stroke-linecap: square"/>
    </g>
    <g id="text_15">
     <!-- $TAM_{1}$ -->
     <g transform="translate(370.765075 217.854844) scale(0.09 -0.09)">
      <use xlink:href="#DejaVuSans-Oblique-54" transform="translate(0 0.09375)"/>
      <use xlink:href="#DejaVuSans-Oblique-41" transform="translate(61.083984 0.09375)"/>
      <use xlink:href="#DejaVuSans-Oblique-4d" transform="translate(129.492188 0.09375)"/>
      <use xlink:href="#DejaVuSans-31" transform="translate(215.771484 -16.3125) scale(0.7)"/>
     </g>
    </g>
    <g id="line2d_16">
     <path d="M 345.565075 227.915156 
L 354.565075 227.915156 
L 363.565075 227.915156 
" style="fill: none; stroke: #bdab62; stroke-width: 1.5; stroke-linecap: square"/>
    </g>
    <g id="text_16">
     <!-- $TAM_{2}$ -->
     <g transform="translate(370.765075 231.065156) scale(0.09 -0.09)">
      <use xlink:href="#DejaVuSans-Oblique-54" transform="translate(0 0.09375)"/>
      <use xlink:href="#DejaVuSans-Oblique-41" transform="translate(61.083984 0.09375)"/>
      <use xlink:href="#DejaVuSans-Oblique-4d" transform="translate(129.492188 0.09375)"/>
      <use xlink:href="#DejaVuSans-32" transform="translate(215.771484 -16.3125) scale(0.7)"/>
     </g>
    </g>
   </g>
  </g>
 </g>
 <defs>
  <clipPath id="pc261a2c80c">
   <rect x="93.235625" y="25.918125" width="309.38945" height="215.11875"/>
  </clipPath>
 </defs>
</svg>
