<?xml version="1.0" encoding="utf-8" standalone="no"?>
<!DOCTYPE svg PUBLIC "-//W3C//DTD SVG 1.1//EN"
  "http://www.w3.org/Graphics/SVG/1.1/DTD/svg11.dtd">
<svg xmlns:xlink="http://www.w3.org/1999/xlink" width="414pt" height="288pt" viewBox="0 0 414 288" xmlns="http://www.w3.org/2000/svg" version="1.1">
 <metadata>
  <rdf:RDF xmlns:dc="http://purl.org/dc/elements/1.1/" xmlns:cc="http://creativecommons.org/ns#" xmlns:rdf="http://www.w3.org/1999/02/22-rdf-syntax-ns#">
   <cc:Work>
    <dc:type rdf:resource="http://purl.org/dc/dcmitype/StillImage"/>
    <dc:date>2023-09-07T00:34:39.123429</dc:date>
    <dc:format>image/svg+xml</dc:format>
    <dc:creator>
     <cc:Agent>
      <dc:title>Matplotlib v3.7.2, https://matplotlib.org/</dc:title>
     </cc:Agent>
    </dc:creator>
   </cc:Work>
  </rdf:RDF>
 </metadata>
 <defs>
  <style type="text/css">*{stroke-linejoin: round; stroke-linecap: butt}</style>
 </defs>
 <g id="figure_1">
  <g id="patch_1">
   <path d="M 0 288 
L 414 288 
L 414 0 
L 0 0 
L 0 288 
z
" style="fill: none"/>
  </g>
  <g id="axes_1">
   <g id="patch_2">
    <path d="M 55.065625 241.036875 
L 403.2 241.036875 
L 403.2 25.9575 
L 55.065625 25.9575 
L 55.065625 241.036875 
z
" style="fill: none"/>
   </g>
   <g id="matplotlib.axis_1">
    <g id="xtick_1">
     <g id="line2d_1">
      <defs>
       <path id="mb328792f8e" d="M 0 0 
L 0 3.5 
" style="stroke: #000000; stroke-width: 0.8"/>
      </defs>
      <g>
       <use xlink:href="#mb328792f8e" x="70.889915" y="241.036875" style="stroke: #000000; stroke-width: 0.8"/>
      </g>
     </g>
     <g id="text_1">
      <!-- 0 -->
      <g transform="translate(65.799915 260.194375) scale(0.16 -0.16)">
       <defs>
        <path id="DejaVuSans-30" d="M 2034 4250 
Q 1547 4250 1301 3770 
Q 1056 3291 1056 2328 
Q 1056 1369 1301 889 
Q 1547 409 2034 409 
Q 2525 409 2770 889 
Q 3016 1369 3016 2328 
Q 3016 3291 2770 3770 
Q 2525 4250 2034 4250 
z
M 2034 4750 
Q 2819 4750 3233 4129 
Q 3647 3509 3647 2328 
Q 3647 1150 3233 529 
Q 2819 -91 2034 -91 
Q 1250 -91 836 529 
Q 422 1150 422 2328 
Q 422 3509 836 4129 
Q 1250 4750 2034 4750 
z
" transform="scale(0.015625)"/>
       </defs>
       <use xlink:href="#DejaVuSans-30"/>
      </g>
     </g>
    </g>
    <g id="xtick_2">
     <g id="line2d_2">
      <g>
       <use xlink:href="#mb328792f8e" x="161.314428" y="241.036875" style="stroke: #000000; stroke-width: 0.8"/>
      </g>
     </g>
     <g id="text_2">
      <!-- 1 -->
      <g transform="translate(156.224428 260.194375) scale(0.16 -0.16)">
       <defs>
        <path id="DejaVuSans-31" d="M 794 531 
L 1825 531 
L 1825 4091 
L 703 3866 
L 703 4441 
L 1819 4666 
L 2450 4666 
L 2450 531 
L 3481 531 
L 3481 0 
L 794 0 
L 794 531 
z
" transform="scale(0.015625)"/>
       </defs>
       <use xlink:href="#DejaVuSans-31"/>
      </g>
     </g>
    </g>
    <g id="xtick_3">
     <g id="line2d_3">
      <g>
       <use xlink:href="#mb328792f8e" x="251.738941" y="241.036875" style="stroke: #000000; stroke-width: 0.8"/>
      </g>
     </g>
     <g id="text_3">
      <!-- 2 -->
      <g transform="translate(246.648941 260.194375) scale(0.16 -0.16)">
       <defs>
        <path id="DejaVuSans-32" d="M 1228 531 
L 3431 531 
L 3431 0 
L 469 0 
L 469 531 
Q 828 903 1448 1529 
Q 2069 2156 2228 2338 
Q 2531 2678 2651 2914 
Q 2772 3150 2772 3378 
Q 2772 3750 2511 3984 
Q 2250 4219 1831 4219 
Q 1534 4219 1204 4116 
Q 875 4013 500 3803 
L 500 4441 
Q 881 4594 1212 4672 
Q 1544 4750 1819 4750 
Q 2544 4750 2975 4387 
Q 3406 4025 3406 3419 
Q 3406 3131 3298 2873 
Q 3191 2616 2906 2266 
Q 2828 2175 2409 1742 
Q 1991 1309 1228 531 
z
" transform="scale(0.015625)"/>
       </defs>
       <use xlink:href="#DejaVuSans-32"/>
      </g>
     </g>
    </g>
    <g id="xtick_4">
     <g id="line2d_4">
      <g>
       <use xlink:href="#mb328792f8e" x="342.163454" y="241.036875" style="stroke: #000000; stroke-width: 0.8"/>
      </g>
     </g>
     <g id="text_4">
      <!-- 3 -->
      <g transform="translate(337.073454 260.194375) scale(0.16 -0.16)">
       <defs>
        <path id="DejaVuSans-33" d="M 2597 2516 
Q 3050 2419 3304 2112 
Q 3559 1806 3559 1356 
Q 3559 666 3084 287 
Q 2609 -91 1734 -91 
Q 1441 -91 1130 -33 
Q 819 25 488 141 
L 488 750 
Q 750 597 1062 519 
Q 1375 441 1716 441 
Q 2309 441 2620 675 
Q 2931 909 2931 1356 
Q 2931 1769 2642 2001 
Q 2353 2234 1838 2234 
L 1294 2234 
L 1294 2753 
L 1863 2753 
Q 2328 2753 2575 2939 
Q 2822 3125 2822 3475 
Q 2822 3834 2567 4026 
Q 2313 4219 1838 4219 
Q 1578 4219 1281 4162 
Q 984 4106 628 3988 
L 628 4550 
Q 988 4650 1302 4700 
Q 1616 4750 1894 4750 
Q 2613 4750 3031 4423 
Q 3450 4097 3450 3541 
Q 3450 3153 3228 2886 
Q 3006 2619 2597 2516 
z
" transform="scale(0.015625)"/>
       </defs>
       <use xlink:href="#DejaVuSans-33"/>
      </g>
     </g>
    </g>
    <g id="text_5">
     <!-- Time [min] -->
     <g transform="translate(201.980469 275.120313) scale(0.1 -0.1)">
      <defs>
       <path id="DejaVuSans-54" d="M -19 4666 
L 3928 4666 
L 3928 4134 
L 2272 4134 
L 2272 0 
L 1638 0 
L 1638 4134 
L -19 4134 
L -19 4666 
z
" transform="scale(0.015625)"/>
       <path id="DejaVuSans-69" d="M 603 3500 
L 1178 3500 
L 1178 0 
L 603 0 
L 603 3500 
z
M 603 4863 
L 1178 4863 
L 1178 4134 
L 603 4134 
L 603 4863 
z
" transform="scale(0.015625)"/>
       <path id="DejaVuSans-6d" d="M 3328 2828 
Q 3544 3216 3844 3400 
Q 4144 3584 4550 3584 
Q 5097 3584 5394 3201 
Q 5691 2819 5691 2113 
L 5691 0 
L 5113 0 
L 5113 2094 
Q 5113 2597 4934 2840 
Q 4756 3084 4391 3084 
Q 3944 3084 3684 2787 
Q 3425 2491 3425 1978 
L 3425 0 
L 2847 0 
L 2847 2094 
Q 2847 2600 2669 2842 
Q 2491 3084 2119 3084 
Q 1678 3084 1418 2786 
Q 1159 2488 1159 1978 
L 1159 0 
L 581 0 
L 581 3500 
L 1159 3500 
L 1159 2956 
Q 1356 3278 1631 3431 
Q 1906 3584 2284 3584 
Q 2666 3584 2933 3390 
Q 3200 3197 3328 2828 
z
" transform="scale(0.015625)"/>
       <path id="DejaVuSans-65" d="M 3597 1894 
L 3597 1613 
L 953 1613 
Q 991 1019 1311 708 
Q 1631 397 2203 397 
Q 2534 397 2845 478 
Q 3156 559 3463 722 
L 3463 178 
Q 3153 47 2828 -22 
Q 2503 -91 2169 -91 
Q 1331 -91 842 396 
Q 353 884 353 1716 
Q 353 2575 817 3079 
Q 1281 3584 2069 3584 
Q 2775 3584 3186 3129 
Q 3597 2675 3597 1894 
z
M 3022 2063 
Q 3016 2534 2758 2815 
Q 2500 3097 2075 3097 
Q 1594 3097 1305 2825 
Q 1016 2553 972 2059 
L 3022 2063 
z
" transform="scale(0.015625)"/>
       <path id="DejaVuSans-20" transform="scale(0.015625)"/>
       <path id="DejaVuSans-5b" d="M 550 4863 
L 1875 4863 
L 1875 4416 
L 1125 4416 
L 1125 -397 
L 1875 -397 
L 1875 -844 
L 550 -844 
L 550 4863 
z
" transform="scale(0.015625)"/>
       <path id="DejaVuSans-6e" d="M 3513 2113 
L 3513 0 
L 2938 0 
L 2938 2094 
Q 2938 2591 2744 2837 
Q 2550 3084 2163 3084 
Q 1697 3084 1428 2787 
Q 1159 2491 1159 1978 
L 1159 0 
L 581 0 
L 581 3500 
L 1159 3500 
L 1159 2956 
Q 1366 3272 1645 3428 
Q 1925 3584 2291 3584 
Q 2894 3584 3203 3211 
Q 3513 2838 3513 2113 
z
" transform="scale(0.015625)"/>
       <path id="DejaVuSans-5d" d="M 1947 4863 
L 1947 -844 
L 622 -844 
L 622 -397 
L 1369 -397 
L 1369 4416 
L 622 4416 
L 622 4863 
L 1947 4863 
z
" transform="scale(0.015625)"/>
      </defs>
      <use xlink:href="#DejaVuSans-54"/>
      <use xlink:href="#DejaVuSans-69" x="57.958984"/>
      <use xlink:href="#DejaVuSans-6d" x="85.742188"/>
      <use xlink:href="#DejaVuSans-65" x="183.154297"/>
      <use xlink:href="#DejaVuSans-20" x="244.677734"/>
      <use xlink:href="#DejaVuSans-5b" x="276.464844"/>
      <use xlink:href="#DejaVuSans-6d" x="315.478516"/>
      <use xlink:href="#DejaVuSans-69" x="412.890625"/>
      <use xlink:href="#DejaVuSans-6e" x="440.673828"/>
      <use xlink:href="#DejaVuSans-5d" x="504.052734"/>
     </g>
    </g>
   </g>
   <g id="matplotlib.axis_2">
    <g id="ytick_1">
     <g id="line2d_5">
      <defs>
       <path id="m2ba0b95f9f" d="M 0 0 
L -3.5 0 
" style="stroke: #000000; stroke-width: 0.8"/>
      </defs>
      <g>
       <use xlink:href="#m2ba0b95f9f" x="55.065625" y="210.520659" style="stroke: #000000; stroke-width: 0.8"/>
      </g>
     </g>
     <g id="text_6">
      <!-- −2 -->
      <g transform="translate(24.478125 216.599409) scale(0.16 -0.16)">
       <defs>
        <path id="DejaVuSans-2212" d="M 678 2272 
L 4684 2272 
L 4684 1741 
L 678 1741 
L 678 2272 
z
" transform="scale(0.015625)"/>
       </defs>
       <use xlink:href="#DejaVuSans-2212"/>
       <use xlink:href="#DejaVuSans-32" x="83.789062"/>
      </g>
     </g>
    </g>
    <g id="ytick_2">
     <g id="line2d_6">
      <g>
       <use xlink:href="#m2ba0b95f9f" x="55.065625" y="163.268174" style="stroke: #000000; stroke-width: 0.8"/>
      </g>
     </g>
     <g id="text_7">
      <!-- 0 -->
      <g transform="translate(37.885625 169.346924) scale(0.16 -0.16)">
       <use xlink:href="#DejaVuSans-30"/>
      </g>
     </g>
    </g>
    <g id="ytick_3">
     <g id="line2d_7">
      <g>
       <use xlink:href="#m2ba0b95f9f" x="55.065625" y="116.015689" style="stroke: #000000; stroke-width: 0.8"/>
      </g>
     </g>
     <g id="text_8">
      <!-- 2 -->
      <g transform="translate(37.885625 122.094439) scale(0.16 -0.16)">
       <use xlink:href="#DejaVuSans-32"/>
      </g>
     </g>
    </g>
    <g id="ytick_4">
     <g id="line2d_8">
      <g>
       <use xlink:href="#m2ba0b95f9f" x="55.065625" y="68.763204" style="stroke: #000000; stroke-width: 0.8"/>
      </g>
     </g>
     <g id="text_9">
      <!-- 4 -->
      <g transform="translate(37.885625 74.841954) scale(0.16 -0.16)">
       <defs>
        <path id="DejaVuSans-34" d="M 2419 4116 
L 825 1625 
L 2419 1625 
L 2419 4116 
z
M 2253 4666 
L 3047 4666 
L 3047 1625 
L 3713 1625 
L 3713 1100 
L 3047 1100 
L 3047 0 
L 2419 0 
L 2419 1100 
L 313 1100 
L 313 1709 
L 2253 4666 
z
" transform="scale(0.015625)"/>
       </defs>
       <use xlink:href="#DejaVuSans-34"/>
      </g>
     </g>
    </g>
    <g id="text_10">
     <!-- Rate Tracking Error (rad/s)  -->
     <g transform="translate(18.398438 200.797969) rotate(-90) scale(0.1 -0.1)">
      <defs>
       <path id="DejaVuSans-52" d="M 2841 2188 
Q 3044 2119 3236 1894 
Q 3428 1669 3622 1275 
L 4263 0 
L 3584 0 
L 2988 1197 
Q 2756 1666 2539 1819 
Q 2322 1972 1947 1972 
L 1259 1972 
L 1259 0 
L 628 0 
L 628 4666 
L 2053 4666 
Q 2853 4666 3247 4331 
Q 3641 3997 3641 3322 
Q 3641 2881 3436 2590 
Q 3231 2300 2841 2188 
z
M 1259 4147 
L 1259 2491 
L 2053 2491 
Q 2509 2491 2742 2702 
Q 2975 2913 2975 3322 
Q 2975 3731 2742 3939 
Q 2509 4147 2053 4147 
L 1259 4147 
z
" transform="scale(0.015625)"/>
       <path id="DejaVuSans-61" d="M 2194 1759 
Q 1497 1759 1228 1600 
Q 959 1441 959 1056 
Q 959 750 1161 570 
Q 1363 391 1709 391 
Q 2188 391 2477 730 
Q 2766 1069 2766 1631 
L 2766 1759 
L 2194 1759 
z
M 3341 1997 
L 3341 0 
L 2766 0 
L 2766 531 
Q 2569 213 2275 61 
Q 1981 -91 1556 -91 
Q 1019 -91 701 211 
Q 384 513 384 1019 
Q 384 1609 779 1909 
Q 1175 2209 1959 2209 
L 2766 2209 
L 2766 2266 
Q 2766 2663 2505 2880 
Q 2244 3097 1772 3097 
Q 1472 3097 1187 3025 
Q 903 2953 641 2809 
L 641 3341 
Q 956 3463 1253 3523 
Q 1550 3584 1831 3584 
Q 2591 3584 2966 3190 
Q 3341 2797 3341 1997 
z
" transform="scale(0.015625)"/>
       <path id="DejaVuSans-74" d="M 1172 4494 
L 1172 3500 
L 2356 3500 
L 2356 3053 
L 1172 3053 
L 1172 1153 
Q 1172 725 1289 603 
Q 1406 481 1766 481 
L 2356 481 
L 2356 0 
L 1766 0 
Q 1100 0 847 248 
Q 594 497 594 1153 
L 594 3053 
L 172 3053 
L 172 3500 
L 594 3500 
L 594 4494 
L 1172 4494 
z
" transform="scale(0.015625)"/>
       <path id="DejaVuSans-72" d="M 2631 2963 
Q 2534 3019 2420 3045 
Q 2306 3072 2169 3072 
Q 1681 3072 1420 2755 
Q 1159 2438 1159 1844 
L 1159 0 
L 581 0 
L 581 3500 
L 1159 3500 
L 1159 2956 
Q 1341 3275 1631 3429 
Q 1922 3584 2338 3584 
Q 2397 3584 2469 3576 
Q 2541 3569 2628 3553 
L 2631 2963 
z
" transform="scale(0.015625)"/>
       <path id="DejaVuSans-63" d="M 3122 3366 
L 3122 2828 
Q 2878 2963 2633 3030 
Q 2388 3097 2138 3097 
Q 1578 3097 1268 2742 
Q 959 2388 959 1747 
Q 959 1106 1268 751 
Q 1578 397 2138 397 
Q 2388 397 2633 464 
Q 2878 531 3122 666 
L 3122 134 
Q 2881 22 2623 -34 
Q 2366 -91 2075 -91 
Q 1284 -91 818 406 
Q 353 903 353 1747 
Q 353 2603 823 3093 
Q 1294 3584 2113 3584 
Q 2378 3584 2631 3529 
Q 2884 3475 3122 3366 
z
" transform="scale(0.015625)"/>
       <path id="DejaVuSans-6b" d="M 581 4863 
L 1159 4863 
L 1159 1991 
L 2875 3500 
L 3609 3500 
L 1753 1863 
L 3688 0 
L 2938 0 
L 1159 1709 
L 1159 0 
L 581 0 
L 581 4863 
z
" transform="scale(0.015625)"/>
       <path id="DejaVuSans-67" d="M 2906 1791 
Q 2906 2416 2648 2759 
Q 2391 3103 1925 3103 
Q 1463 3103 1205 2759 
Q 947 2416 947 1791 
Q 947 1169 1205 825 
Q 1463 481 1925 481 
Q 2391 481 2648 825 
Q 2906 1169 2906 1791 
z
M 3481 434 
Q 3481 -459 3084 -895 
Q 2688 -1331 1869 -1331 
Q 1566 -1331 1297 -1286 
Q 1028 -1241 775 -1147 
L 775 -588 
Q 1028 -725 1275 -790 
Q 1522 -856 1778 -856 
Q 2344 -856 2625 -561 
Q 2906 -266 2906 331 
L 2906 616 
Q 2728 306 2450 153 
Q 2172 0 1784 0 
Q 1141 0 747 490 
Q 353 981 353 1791 
Q 353 2603 747 3093 
Q 1141 3584 1784 3584 
Q 2172 3584 2450 3431 
Q 2728 3278 2906 2969 
L 2906 3500 
L 3481 3500 
L 3481 434 
z
" transform="scale(0.015625)"/>
       <path id="DejaVuSans-45" d="M 628 4666 
L 3578 4666 
L 3578 4134 
L 1259 4134 
L 1259 2753 
L 3481 2753 
L 3481 2222 
L 1259 2222 
L 1259 531 
L 3634 531 
L 3634 0 
L 628 0 
L 628 4666 
z
" transform="scale(0.015625)"/>
       <path id="DejaVuSans-6f" d="M 1959 3097 
Q 1497 3097 1228 2736 
Q 959 2375 959 1747 
Q 959 1119 1226 758 
Q 1494 397 1959 397 
Q 2419 397 2687 759 
Q 2956 1122 2956 1747 
Q 2956 2369 2687 2733 
Q 2419 3097 1959 3097 
z
M 1959 3584 
Q 2709 3584 3137 3096 
Q 3566 2609 3566 1747 
Q 3566 888 3137 398 
Q 2709 -91 1959 -91 
Q 1206 -91 779 398 
Q 353 888 353 1747 
Q 353 2609 779 3096 
Q 1206 3584 1959 3584 
z
" transform="scale(0.015625)"/>
       <path id="DejaVuSans-28" d="M 1984 4856 
Q 1566 4138 1362 3434 
Q 1159 2731 1159 2009 
Q 1159 1288 1364 580 
Q 1569 -128 1984 -844 
L 1484 -844 
Q 1016 -109 783 600 
Q 550 1309 550 2009 
Q 550 2706 781 3412 
Q 1013 4119 1484 4856 
L 1984 4856 
z
" transform="scale(0.015625)"/>
       <path id="DejaVuSans-64" d="M 2906 2969 
L 2906 4863 
L 3481 4863 
L 3481 0 
L 2906 0 
L 2906 525 
Q 2725 213 2448 61 
Q 2172 -91 1784 -91 
Q 1150 -91 751 415 
Q 353 922 353 1747 
Q 353 2572 751 3078 
Q 1150 3584 1784 3584 
Q 2172 3584 2448 3432 
Q 2725 3281 2906 2969 
z
M 947 1747 
Q 947 1113 1208 752 
Q 1469 391 1925 391 
Q 2381 391 2643 752 
Q 2906 1113 2906 1747 
Q 2906 2381 2643 2742 
Q 2381 3103 1925 3103 
Q 1469 3103 1208 2742 
Q 947 2381 947 1747 
z
" transform="scale(0.015625)"/>
       <path id="DejaVuSans-2f" d="M 1625 4666 
L 2156 4666 
L 531 -594 
L 0 -594 
L 1625 4666 
z
" transform="scale(0.015625)"/>
       <path id="DejaVuSans-73" d="M 2834 3397 
L 2834 2853 
Q 2591 2978 2328 3040 
Q 2066 3103 1784 3103 
Q 1356 3103 1142 2972 
Q 928 2841 928 2578 
Q 928 2378 1081 2264 
Q 1234 2150 1697 2047 
L 1894 2003 
Q 2506 1872 2764 1633 
Q 3022 1394 3022 966 
Q 3022 478 2636 193 
Q 2250 -91 1575 -91 
Q 1294 -91 989 -36 
Q 684 19 347 128 
L 347 722 
Q 666 556 975 473 
Q 1284 391 1588 391 
Q 1994 391 2212 530 
Q 2431 669 2431 922 
Q 2431 1156 2273 1281 
Q 2116 1406 1581 1522 
L 1381 1569 
Q 847 1681 609 1914 
Q 372 2147 372 2553 
Q 372 3047 722 3315 
Q 1072 3584 1716 3584 
Q 2034 3584 2315 3537 
Q 2597 3491 2834 3397 
z
" transform="scale(0.015625)"/>
       <path id="DejaVuSans-29" d="M 513 4856 
L 1013 4856 
Q 1481 4119 1714 3412 
Q 1947 2706 1947 2009 
Q 1947 1309 1714 600 
Q 1481 -109 1013 -844 
L 513 -844 
Q 928 -128 1133 580 
Q 1338 1288 1338 2009 
Q 1338 2731 1133 3434 
Q 928 4138 513 4856 
z
" transform="scale(0.015625)"/>
      </defs>
      <use xlink:href="#DejaVuSans-52"/>
      <use xlink:href="#DejaVuSans-61" x="67.232422"/>
      <use xlink:href="#DejaVuSans-74" x="128.511719"/>
      <use xlink:href="#DejaVuSans-65" x="167.720703"/>
      <use xlink:href="#DejaVuSans-20" x="229.244141"/>
      <use xlink:href="#DejaVuSans-54" x="261.03125"/>
      <use xlink:href="#DejaVuSans-72" x="307.365234"/>
      <use xlink:href="#DejaVuSans-61" x="348.478516"/>
      <use xlink:href="#DejaVuSans-63" x="409.757812"/>
      <use xlink:href="#DejaVuSans-6b" x="464.738281"/>
      <use xlink:href="#DejaVuSans-69" x="522.648438"/>
      <use xlink:href="#DejaVuSans-6e" x="550.431641"/>
      <use xlink:href="#DejaVuSans-67" x="613.810547"/>
      <use xlink:href="#DejaVuSans-20" x="677.287109"/>
      <use xlink:href="#DejaVuSans-45" x="709.074219"/>
      <use xlink:href="#DejaVuSans-72" x="772.257812"/>
      <use xlink:href="#DejaVuSans-72" x="811.621094"/>
      <use xlink:href="#DejaVuSans-6f" x="850.484375"/>
      <use xlink:href="#DejaVuSans-72" x="911.666016"/>
      <use xlink:href="#DejaVuSans-20" x="952.779297"/>
      <use xlink:href="#DejaVuSans-28" x="984.566406"/>
      <use xlink:href="#DejaVuSans-72" x="1023.580078"/>
      <use xlink:href="#DejaVuSans-61" x="1064.693359"/>
      <use xlink:href="#DejaVuSans-64" x="1125.972656"/>
      <use xlink:href="#DejaVuSans-2f" x="1189.449219"/>
      <use xlink:href="#DejaVuSans-73" x="1223.140625"/>
      <use xlink:href="#DejaVuSans-29" x="1275.240234"/>
      <use xlink:href="#DejaVuSans-20" x="1314.253906"/>
     </g>
    </g>
    <g id="text_11">
     <!-- 1e−5 -->
     <g transform="translate(55.065625 22.9575) scale(0.16 -0.16)">
      <defs>
       <path id="DejaVuSans-35" d="M 691 4666 
L 3169 4666 
L 3169 4134 
L 1269 4134 
L 1269 2991 
Q 1406 3038 1543 3061 
Q 1681 3084 1819 3084 
Q 2600 3084 3056 2656 
Q 3513 2228 3513 1497 
Q 3513 744 3044 326 
Q 2575 -91 1722 -91 
Q 1428 -91 1123 -41 
Q 819 9 494 109 
L 494 744 
Q 775 591 1075 516 
Q 1375 441 1709 441 
Q 2250 441 2565 725 
Q 2881 1009 2881 1497 
Q 2881 1984 2565 2268 
Q 2250 2553 1709 2553 
Q 1456 2553 1204 2497 
Q 953 2441 691 2322 
L 691 4666 
z
" transform="scale(0.015625)"/>
      </defs>
      <use xlink:href="#DejaVuSans-31"/>
      <use xlink:href="#DejaVuSans-65" x="63.623047"/>
      <use xlink:href="#DejaVuSans-2212" x="125.146484"/>
      <use xlink:href="#DejaVuSans-35" x="208.935547"/>
     </g>
    </g>
   </g>
   <g id="line2d_9">
    <path d="M 70.889915 163.268174 
L 71.522886 203.909859 
L 72.155858 220.017334 
L 72.78883 225.050203 
L 73.421801 225.143814 
L 74.054773 223.091485 
L 75.320716 216.927657 
L 77.852602 204.331495 
L 79.751517 196.137469 
L 81.650432 188.977891 
L 83.549347 182.697444 
L 85.448261 177.161565 
L 87.347176 172.260961 
L 89.246091 167.908237 
L 91.145006 164.034076 
L 93.04392 160.583675 
L 94.942835 157.513525 
L 96.84175 154.788532 
L 98.740665 152.379514 
L 100.63958 150.261087 
L 102.538494 148.409956 
L 104.437409 146.803607 
L 106.969295 145.00336 
L 109.501182 143.542351 
L 112.033068 142.362347 
L 115.197926 141.191021 
L 118.995756 140.077985 
L 129.123301 137.517231 
L 130.389244 137.375607 
L 131.655188 137.420236 
L 132.921131 137.654103 
L 134.187074 138.074001 
L 135.453017 138.67495 
L 137.351932 139.903038 
L 139.250847 141.503599 
L 141.149761 143.452815 
L 143.048676 145.725306 
L 144.947591 148.294475 
L 147.479477 152.133555 
L 150.011364 156.381998 
L 153.176222 162.156169 
L 157.607023 170.822711 
L 160.771881 176.933464 
L 162.037824 178.911693 
L 163.303767 180.557229 
L 164.56971 181.887067 
L 165.835653 182.921819 
L 167.101597 183.682257 
L 168.36754 184.188611 
L 169.633483 184.46043 
L 170.899426 184.51655 
L 172.165369 184.375085 
L 173.431313 184.053408 
L 175.330227 183.269159 
L 177.229142 182.169546 
L 179.128057 180.803522 
L 181.659943 178.645002 
L 184.19183 176.1878 
L 189.255602 171.132485 
L 193.686403 167.052878 
L 198.117205 163.257167 
L 202.548006 159.72278 
L 206.345835 156.895398 
L 207.611778 156.128642 
L 208.877722 155.620179 
L 210.143665 155.376404 
L 211.409608 155.382971 
L 212.675551 155.622048 
L 213.941494 156.075924 
L 215.207438 156.727758 
L 217.106352 158.042355 
L 219.005267 159.717942 
L 220.904182 161.710483 
L 222.803097 163.980626 
L 225.334983 167.379187 
L 228.499841 171.811139 
L 229.765784 173.185916 
L 231.031727 174.256059 
L 232.29767 175.029361 
L 233.563614 175.516325 
L 234.829557 175.726971 
L 236.0955 175.670352 
L 237.361443 175.354674 
L 238.627386 174.787582 
L 239.89333 173.976503 
L 241.159273 172.929018 
L 242.425216 171.653252 
L 244.324131 169.331757 
L 246.223045 166.553901 
L 248.12196 163.365657 
L 250.653847 158.8298 
L 251.91979 157.173602 
L 252.552761 156.578823 
L 253.185733 156.140252 
L 253.818705 155.855376 
L 254.451676 155.720667 
L 255.084648 155.732015 
L 255.717619 155.884926 
L 256.350591 156.174614 
L 257.616534 157.143964 
L 258.882477 158.597246 
L 260.14842 160.488672 
L 261.414364 162.770116 
L 263.313278 166.814555 
L 265.212193 171.454497 
L 267.74408 178.281575 
L 272.807852 192.873936 
L 274.073795 196.312099 
L 274.706767 197.59579 
L 275.339739 198.518493 
L 275.97271 199.077559 
L 276.605682 199.284672 
L 277.238653 199.157573 
L 277.871625 198.716255 
L 278.504597 197.981221 
L 279.137568 196.972676 
L 280.403511 194.212366 
L 281.669455 190.581327 
L 282.935398 186.21129 
L 284.834313 178.525406 
L 286.733227 169.78758 
L 289.265114 157.010535 
L 293.695915 133.177403 
L 298.759688 106.228586 
L 303.82346 80.775748 
L 306.988318 64.371305 
L 308.887233 53.339242 
L 310.786148 40.547888 
L 311.419119 35.733835 
L 312.052091 60.20157 
L 312.685063 143.879156 
L 313.318034 181.17207 
L 313.951006 197.326435 
L 314.583977 203.862249 
L 315.216949 206.035698 
L 315.84992 206.244541 
L 316.482892 205.582139 
L 317.748835 203.364521 
L 320.913693 197.406103 
L 323.44558 193.207101 
L 325.977466 189.522738 
L 328.509352 186.291709 
L 331.041239 183.45831 
L 333.573125 180.973606 
L 336.105011 178.794684 
L 338.636898 176.883913 
L 341.168784 175.208292 
L 344.333642 173.400703 
L 347.4985 171.866762 
L 350.663358 170.565041 
L 354.461188 169.260391 
L 358.259017 168.189008 
L 362.689818 167.178669 
L 367.753591 166.275403 
L 373.450335 165.506088 
L 379.780051 164.879791 
L 387.37571 164.355011 
L 387.37571 164.355011 
" clip-path="url(#p34494be0c9)" style="fill: none; stroke: #2b737e; stroke-width: 1.5; stroke-linecap: square"/>
   </g>
   <g id="line2d_10">
    <path d="M 70.889915 163.268174 
L 72.155858 188.802923 
L 73.421801 207.033527 
L 74.054773 213.848368 
L 74.687744 219.334356 
L 75.320716 223.628846 
L 75.953688 226.857403 
L 76.586659 229.13472 
L 77.219631 230.565468 
L 77.852602 231.245091 
L 78.485574 231.26054 
L 79.118545 230.690964 
L 79.751517 229.608343 
L 80.384489 228.078078 
L 81.650432 223.906574 
L 82.916375 218.587894 
L 84.81529 209.179282 
L 87.980148 191.716979 
L 91.777977 170.940677 
L 94.309864 158.428155 
L 96.208778 150.06564 
L 98.107693 142.696259 
L 100.006608 136.378005 
L 101.272551 132.763226 
L 102.538494 129.627962 
L 103.804438 126.968611 
L 105.070381 124.777811 
L 106.336324 123.044955 
L 107.602267 121.756614 
L 108.86821 120.896931 
L 110.134153 120.447959 
L 111.400097 120.389987 
L 112.66604 120.701835 
L 113.931983 121.361149 
L 115.197926 122.344673 
L 116.463869 123.628518 
L 117.729813 125.188427 
L 119.628727 127.992611 
L 121.527642 131.281616 
L 123.426557 134.976322 
L 125.958443 140.404641 
L 128.49033 146.295703 
L 134.187074 160.057654 
L 136.085989 164.07639 
L 137.984903 167.620061 
L 139.883818 170.643929 
L 141.782733 173.132538 
L 143.048676 174.495874 
L 144.314619 175.62771 
L 145.580563 176.534326 
L 146.846506 177.222947 
L 148.112449 177.701198 
L 149.378392 177.976658 
L 150.644335 178.056526 
L 151.910278 177.947369 
L 153.176222 177.654972 
L 154.442165 177.18425 
L 155.708108 176.539246 
L 157.607023 175.251799 
L 158.872966 174.17372 
L 160.771881 172.160075 
L 163.303767 169.053746 
L 167.734568 163.541354 
L 170.266455 160.765936 
L 172.165369 158.97666 
L 174.064284 157.479095 
L 175.963199 156.296577 
L 177.862114 155.442571 
L 179.761028 154.922578 
L 181.659943 154.73558 
L 183.558858 154.875198 
L 184.824801 155.165849 
L 186.723716 155.892463 
L 189.888574 157.477859 
L 194.319375 159.711962 
L 196.851261 160.778433 
L 199.383148 161.63971 
L 201.915034 162.29649 
L 205.079892 162.862313 
L 208.24475 163.170967 
L 213.308523 163.638742 
L 217.106352 164.255129 
L 222.803097 165.479809 
L 228.499841 166.632805 
L 231.031727 166.920834 
L 232.930642 166.898401 
L 234.829557 166.630994 
L 236.728472 166.107112 
L 238.627386 165.331276 
L 240.526301 164.319362 
L 242.425216 163.095348 
L 244.957102 161.185696 
L 248.12196 158.470799 
L 255.084648 152.219506 
L 256.983563 150.95946 
L 258.882477 150.017891 
L 260.781392 149.40026 
L 262.680307 149.087259 
L 264.579222 149.041349 
L 266.478136 149.212535 
L 269.010023 149.679034 
L 275.339739 151.049823 
L 277.871625 151.54915 
L 279.77054 152.208116 
L 281.036483 152.857811 
L 282.302426 153.709387 
L 283.568369 154.782022 
L 284.834313 156.08613 
L 286.100256 157.623231 
L 287.99917 160.347062 
L 289.898085 163.514107 
L 292.429972 168.24029 
L 298.126716 179.164947 
L 300.025631 182.268825 
L 301.924545 184.844888 
L 303.190489 186.220761 
L 304.456432 187.308303 
L 305.722375 188.111923 
L 306.988318 188.653661 
L 308.254261 188.975083 
L 310.153176 189.188548 
L 311.419119 189.288117 
L 312.052091 206.535087 
L 313.318034 197.391219 
L 314.583977 189.812395 
L 315.84992 183.555232 
L 317.115864 178.412167 
L 318.381807 174.206385 
L 319.64775 170.787427 
L 320.913693 168.027417 
L 322.179636 165.817804 
L 323.44558 164.066576 
L 324.711523 162.695848 
L 325.977466 161.639802 
L 327.243409 160.842912 
L 328.509352 160.258426 
L 330.408267 159.695782 
L 332.307182 159.417338 
L 334.839068 159.350208 
L 338.003926 159.566268 
L 343.067699 160.218415 
L 353.195244 161.561674 
L 359.52496 162.161316 
L 366.487648 162.605316 
L 375.34925 162.935753 
L 387.37571 163.143635 
L 387.37571 163.143635 
" clip-path="url(#p34494be0c9)" style="fill: none; stroke: #5ea04b; stroke-width: 1.5; stroke-linecap: square"/>
   </g>
   <g id="line2d_11">
    <path d="M 70.889915 163.268174 
L 71.522886 156.43939 
L 72.155858 150.851764 
L 72.78883 146.375984 
L 73.421801 142.893162 
L 74.054773 140.294303 
L 74.687744 138.479638 
L 75.320716 137.357932 
L 75.953688 136.845833 
L 76.586659 136.86725 
L 77.219631 137.352785 
L 77.852602 138.239198 
L 78.485574 139.468924 
L 79.751517 142.753737 
L 81.01746 146.84381 
L 82.916375 153.851792 
L 87.347176 170.69417 
L 89.246091 177.02647 
L 91.145006 182.437724 
L 92.410949 185.463328 
L 93.676892 187.996056 
L 94.942835 190.026111 
L 96.208778 191.553689 
L 97.474722 192.587338 
L 98.740665 193.142531 
L 100.006608 193.240424 
L 101.272551 192.906759 
L 102.538494 192.170901 
L 103.804438 191.064972 
L 105.070381 189.623078 
L 106.336324 187.88062 
L 108.235239 184.78234 
L 110.134153 181.210722 
L 112.66604 175.916709 
L 116.463869 167.36203 
L 121.527642 155.953201 
L 124.6925 149.346016 
L 127.224386 144.516942 
L 130.389244 138.92491 
L 132.288159 136.132493 
L 133.554102 134.659598 
L 134.820045 133.537326 
L 136.085989 132.778294 
L 137.351932 132.380986 
L 138.617875 132.333368 
L 139.883818 132.615871 
L 141.149761 133.20384 
L 142.415705 134.069514 
L 143.681648 135.183606 
L 145.580563 137.256035 
L 147.479477 139.724949 
L 150.011364 143.483539 
L 153.176222 148.69159 
L 157.607023 156.50585 
L 161.404852 163.587011 
L 163.936739 168.101236 
L 165.835653 171.072087 
L 167.734568 173.588976 
L 169.633483 175.613702 
L 170.899426 176.685539 
L 172.165369 177.538188 
L 173.431313 178.177849 
L 174.697256 178.612901 
L 175.963199 178.853262 
L 177.229142 178.909902 
L 178.495085 178.794458 
L 179.761028 178.518947 
L 181.659943 177.832192 
L 183.558858 176.853607 
L 185.457773 175.590076 
L 188.622631 173.070689 
L 193.053432 169.556589 
L 195.585318 167.835418 
L 198.117205 166.413459 
L 200.649091 165.315701 
L 202.548006 164.706046 
L 204.44692 164.27338 
L 206.978807 163.947865 
L 209.510693 163.894308 
L 212.04258 164.130825 
L 214.574466 164.636747 
L 217.106352 165.367919 
L 220.27121 166.516837 
L 225.334983 168.652277 
L 227.866869 169.856335 
L 229.765784 170.732696 
L 231.031727 171.151475 
L 232.29767 171.373918 
L 233.563614 171.364423 
L 234.829557 171.100984 
L 236.0955 170.572619 
L 237.361443 169.777272 
L 238.627386 168.720091 
L 239.89333 167.412015 
L 241.792244 165.014542 
L 243.691159 162.155519 
L 245.590074 158.914641 
L 248.12196 154.150997 
L 250.020875 150.235857 
L 252.552761 144.810317 
L 253.818705 142.455631 
L 255.084648 140.517121 
L 256.350591 139.074547 
L 257.616534 138.175115 
L 258.249506 137.936654 
L 258.882477 137.840391 
L 259.515449 137.885962 
L 260.14842 138.072063 
L 260.781392 138.396578 
L 262.047335 139.448993 
L 263.313278 141.014009 
L 264.579222 143.055402 
L 265.845165 145.531904 
L 267.111108 148.398622 
L 269.010023 153.32565 
L 270.908938 158.853546 
L 273.440824 166.90899 
L 276.605682 177.508183 
L 277.871625 181.241992 
L 279.137568 184.440556 
L 280.403511 187.006747 
L 281.669455 188.884886 
L 282.302426 189.558693 
L 282.935398 190.055988 
L 283.568369 190.3794 
L 284.201341 190.5333 
L 284.834313 190.523663 
L 285.467284 190.357931 
L 286.100256 190.044874 
L 287.366199 189.017657 
L 288.632142 187.533332 
L 289.898085 185.695297 
L 291.797 182.518385 
L 295.59483 176.034501 
L 296.860773 174.208709 
L 298.126716 172.690577 
L 299.392659 171.541545 
L 300.658602 170.805872 
L 301.924545 170.510118 
L 302.557517 170.530708 
L 303.82346 170.906564 
L 305.089403 171.714075 
L 306.355347 172.922963 
L 307.62129 174.489627 
L 308.887233 176.358307 
L 310.786148 179.57687 
L 311.419119 180.719881 
L 312.052091 207.115338 
L 313.318034 193.618377 
L 314.583977 182.713197 
L 315.84992 173.973589 
L 317.115864 167.038191 
L 318.381807 161.601071 
L 319.64775 157.403634 
L 320.913693 154.227676 
L 322.179636 151.88942 
L 323.44558 150.234403 
L 324.711523 149.133095 
L 325.977466 148.477144 
L 327.243409 148.176163 
L 328.509352 148.154988 
L 329.775295 148.351328 
L 331.67421 148.943745 
L 334.206097 150.087872 
L 338.003926 152.134397 
L 343.067699 154.84927 
L 346.865528 156.628779 
L 350.030386 157.892858 
L 353.828216 159.148378 
L 357.626045 160.145391 
L 361.423875 160.922332 
L 365.854676 161.603637 
L 370.918449 162.154859 
L 377.248165 162.602947 
L 385.476795 162.932979 
L 387.37571 162.982624 
L 387.37571 162.982624 
" clip-path="url(#p34494be0c9)" style="fill: none; stroke: #bdab62; stroke-width: 1.5; stroke-linecap: square"/>
   </g>
   <g id="patch_3">
    <path d="M 55.065625 241.036875 
L 55.065625 25.9575 
" style="fill: none; stroke: #000000; stroke-width: 0.8; stroke-linejoin: miter; stroke-linecap: square"/>
   </g>
   <g id="patch_4">
    <path d="M 403.2 241.036875 
L 403.2 25.9575 
" style="fill: none; stroke: #000000; stroke-width: 0.8; stroke-linejoin: miter; stroke-linecap: square"/>
   </g>
   <g id="patch_5">
    <path d="M 55.065625 241.036875 
L 403.2 241.036875 
" style="fill: none; stroke: #000000; stroke-width: 0.8; stroke-linejoin: miter; stroke-linecap: square"/>
   </g>
   <g id="patch_6">
    <path d="M 55.065625 25.9575 
L 403.2 25.9575 
" style="fill: none; stroke: #000000; stroke-width: 0.8; stroke-linejoin: miter; stroke-linecap: square"/>
   </g>
   <g id="legend_1">
    <g id="patch_7">
     <path d="M 344.34 236.536875 
L 396.9 236.536875 
Q 398.7 236.536875 398.7 234.736875 
L 398.7 194.871094 
Q 398.7 193.071094 396.9 193.071094 
L 344.34 193.071094 
Q 342.54 193.071094 342.54 194.871094 
L 342.54 234.736875 
Q 342.54 236.536875 344.34 236.536875 
z
" style="fill: #ffffff; opacity: 0.8; stroke: #cccccc; stroke-linejoin: miter"/>
    </g>
    <g id="line2d_12">
     <path d="M 346.14 200.359687 
L 355.14 200.359687 
L 364.14 200.359687 
" style="fill: none; stroke: #2b737e; stroke-width: 1.5; stroke-linecap: square"/>
    </g>
    <g id="text_12">
     <!-- $\omega_{BR,0}$ -->
     <g transform="translate(371.34 203.509687) scale(0.09 -0.09)">
      <defs>
       <path id="DejaVuSans-Oblique-3c9" d="M 1369 -91 
Q 72 -91 434 1766 
Q 575 2500 1256 3500 
L 1875 3500 
Q 1231 2500 1088 1750 
Q 819 397 1519 397 
Q 2166 397 2478 2078 
L 3009 2078 
Q 2669 388 3316 397 
Q 4013 403 4275 1750 
Q 4419 2500 4169 3500 
L 4788 3500 
Q 5075 2500 4934 1766 
Q 4578 -94 3278 -91 
Q 2428 -88 2503 844 
Q 2194 -91 1369 -91 
z
" transform="scale(0.015625)"/>
       <path id="DejaVuSans-Oblique-42" d="M 1081 4666 
L 2694 4666 
Q 3350 4666 3675 4422 
Q 4000 4178 4000 3688 
Q 4000 3238 3720 2911 
Q 3441 2584 2988 2516 
Q 3375 2428 3569 2181 
Q 3763 1934 3763 1522 
Q 3763 819 3242 409 
Q 2722 0 1819 0 
L 172 0 
L 1081 4666 
z
M 1234 2228 
L 903 519 
L 1919 519 
Q 2491 519 2800 781 
Q 3109 1044 3109 1522 
Q 3109 1891 2904 2059 
Q 2700 2228 2247 2228 
L 1234 2228 
z
M 1606 4147 
L 1331 2741 
L 2272 2741 
Q 2775 2741 3058 2959 
Q 3341 3178 3341 3566 
Q 3341 3869 3150 4008 
Q 2959 4147 2541 4147 
L 1606 4147 
z
" transform="scale(0.015625)"/>
       <path id="DejaVuSans-Oblique-52" d="M 1613 4147 
L 1294 2491 
L 2106 2491 
Q 2584 2491 2879 2755 
Q 3175 3019 3175 3444 
Q 3175 3784 2976 3965 
Q 2778 4147 2406 4147 
L 1613 4147 
z
M 2772 2241 
Q 2972 2194 3105 2009 
Q 3238 1825 3413 1275 
L 3809 0 
L 3144 0 
L 2778 1197 
Q 2638 1659 2453 1815 
Q 2269 1972 1888 1972 
L 1191 1972 
L 806 0 
L 172 0 
L 1081 4666 
L 2503 4666 
Q 3150 4666 3495 4373 
Q 3841 4081 3841 3531 
Q 3841 3044 3547 2687 
Q 3253 2331 2772 2241 
z
" transform="scale(0.015625)"/>
       <path id="DejaVuSans-2c" d="M 750 794 
L 1409 794 
L 1409 256 
L 897 -744 
L 494 -744 
L 750 256 
L 750 794 
z
" transform="scale(0.015625)"/>
      </defs>
      <use xlink:href="#DejaVuSans-Oblique-3c9" transform="translate(0 0.3125)"/>
      <use xlink:href="#DejaVuSans-Oblique-42" transform="translate(83.740234 -16.09375) scale(0.7)"/>
      <use xlink:href="#DejaVuSans-Oblique-52" transform="translate(131.762695 -16.09375) scale(0.7)"/>
      <use xlink:href="#DejaVuSans-2c" transform="translate(180.400391 -16.09375) scale(0.7)"/>
      <use xlink:href="#DejaVuSans-30" transform="translate(216.289062 -16.09375) scale(0.7)"/>
     </g>
    </g>
    <g id="line2d_13">
     <path d="M 346.14 213.948281 
L 355.14 213.948281 
L 364.14 213.948281 
" style="fill: none; stroke: #5ea04b; stroke-width: 1.5; stroke-linecap: square"/>
    </g>
    <g id="text_13">
     <!-- $\omega_{BR,1}$ -->
     <g transform="translate(371.34 217.098281) scale(0.09 -0.09)">
      <use xlink:href="#DejaVuSans-Oblique-3c9" transform="translate(0 0.3125)"/>
      <use xlink:href="#DejaVuSans-Oblique-42" transform="translate(83.740234 -16.09375) scale(0.7)"/>
      <use xlink:href="#DejaVuSans-Oblique-52" transform="translate(131.762695 -16.09375) scale(0.7)"/>
      <use xlink:href="#DejaVuSans-2c" transform="translate(180.400391 -16.09375) scale(0.7)"/>
      <use xlink:href="#DejaVuSans-31" transform="translate(216.289062 -16.09375) scale(0.7)"/>
     </g>
    </g>
    <g id="line2d_14">
     <path d="M 346.14 227.536875 
L 355.14 227.536875 
L 364.14 227.536875 
" style="fill: none; stroke: #bdab62; stroke-width: 1.5; stroke-linecap: square"/>
    </g>
    <g id="text_14">
     <!-- $\omega_{BR,2}$ -->
     <g transform="translate(371.34 230.686875) scale(0.09 -0.09)">
      <use xlink:href="#DejaVuSans-Oblique-3c9" transform="translate(0 0.3125)"/>
      <use xlink:href="#DejaVuSans-Oblique-42" transform="translate(83.740234 -16.09375) scale(0.7)"/>
      <use xlink:href="#DejaVuSans-Oblique-52" transform="translate(131.762695 -16.09375) scale(0.7)"/>
      <use xlink:href="#DejaVuSans-2c" transform="translate(180.400391 -16.09375) scale(0.7)"/>
      <use xlink:href="#DejaVuSans-32" transform="translate(216.289062 -16.09375) scale(0.7)"/>
     </g>
    </g>
   </g>
  </g>
 </g>
 <defs>
  <clipPath id="p34494be0c9">
   <rect x="55.065625" y="25.9575" width="348.134375" height="215.079375"/>
  </clipPath>
 </defs>
</svg>
