<?xml version="1.0" encoding="utf-8" standalone="no"?>
<!DOCTYPE svg PUBLIC "-//W3C//DTD SVG 1.1//EN"
  "http://www.w3.org/Graphics/SVG/1.1/DTD/svg11.dtd">
<svg xmlns:xlink="http://www.w3.org/1999/xlink" width="414pt" height="288pt" viewBox="0 0 414 288" xmlns="http://www.w3.org/2000/svg" version="1.1">
 <metadata>
  <rdf:RDF xmlns:dc="http://purl.org/dc/elements/1.1/" xmlns:cc="http://creativecommons.org/ns#" xmlns:rdf="http://www.w3.org/1999/02/22-rdf-syntax-ns#">
   <cc:Work>
    <dc:type rdf:resource="http://purl.org/dc/dcmitype/StillImage"/>
    <dc:date>2023-09-07T00:34:35.800240</dc:date>
    <dc:format>image/svg+xml</dc:format>
    <dc:creator>
     <cc:Agent>
      <dc:title>Matplotlib v3.7.2, https://matplotlib.org/</dc:title>
     </cc:Agent>
    </dc:creator>
   </cc:Work>
  </rdf:RDF>
 </metadata>
 <defs>
  <style type="text/css">*{stroke-linejoin: round; stroke-linecap: butt}</style>
 </defs>
 <g id="figure_1">
  <g id="patch_1">
   <path d="M 0 288 
L 414 288 
L 414 0 
L 0 0 
L 0 288 
z
" style="fill: none"/>
  </g>
  <g id="axes_1">
   <g id="patch_2">
    <path d="M 70.330625 241.036875 
L 403.2 241.036875 
L 403.2 25.9575 
L 70.330625 25.9575 
L 70.330625 241.036875 
z
" style="fill: none"/>
   </g>
   <g id="matplotlib.axis_1">
    <g id="xtick_1">
     <g id="line2d_1">
      <defs>
       <path id="m73c8b11054" d="M 0 0 
L 0 3.5 
" style="stroke: #000000; stroke-width: 0.8"/>
      </defs>
      <g>
       <use xlink:href="#m73c8b11054" x="85.461051" y="241.036875" style="stroke: #000000; stroke-width: 0.8"/>
      </g>
     </g>
     <g id="text_1">
      <!-- 0 -->
      <g transform="translate(80.371051 260.194375) scale(0.16 -0.16)">
       <defs>
        <path id="DejaVuSans-30" d="M 2034 4250 
Q 1547 4250 1301 3770 
Q 1056 3291 1056 2328 
Q 1056 1369 1301 889 
Q 1547 409 2034 409 
Q 2525 409 2770 889 
Q 3016 1369 3016 2328 
Q 3016 3291 2770 3770 
Q 2525 4250 2034 4250 
z
M 2034 4750 
Q 2819 4750 3233 4129 
Q 3647 3509 3647 2328 
Q 3647 1150 3233 529 
Q 2819 -91 2034 -91 
Q 1250 -91 836 529 
Q 422 1150 422 2328 
Q 422 3509 836 4129 
Q 1250 4750 2034 4750 
z
" transform="scale(0.015625)"/>
       </defs>
       <use xlink:href="#DejaVuSans-30"/>
      </g>
     </g>
    </g>
    <g id="xtick_2">
     <g id="line2d_2">
      <g>
       <use xlink:href="#m73c8b11054" x="171.920629" y="241.036875" style="stroke: #000000; stroke-width: 0.8"/>
      </g>
     </g>
     <g id="text_2">
      <!-- 1 -->
      <g transform="translate(166.830629 260.194375) scale(0.16 -0.16)">
       <defs>
        <path id="DejaVuSans-31" d="M 794 531 
L 1825 531 
L 1825 4091 
L 703 3866 
L 703 4441 
L 1819 4666 
L 2450 4666 
L 2450 531 
L 3481 531 
L 3481 0 
L 794 0 
L 794 531 
z
" transform="scale(0.015625)"/>
       </defs>
       <use xlink:href="#DejaVuSans-31"/>
      </g>
     </g>
    </g>
    <g id="xtick_3">
     <g id="line2d_3">
      <g>
       <use xlink:href="#m73c8b11054" x="258.380207" y="241.036875" style="stroke: #000000; stroke-width: 0.8"/>
      </g>
     </g>
     <g id="text_3">
      <!-- 2 -->
      <g transform="translate(253.290207 260.194375) scale(0.16 -0.16)">
       <defs>
        <path id="DejaVuSans-32" d="M 1228 531 
L 3431 531 
L 3431 0 
L 469 0 
L 469 531 
Q 828 903 1448 1529 
Q 2069 2156 2228 2338 
Q 2531 2678 2651 2914 
Q 2772 3150 2772 3378 
Q 2772 3750 2511 3984 
Q 2250 4219 1831 4219 
Q 1534 4219 1204 4116 
Q 875 4013 500 3803 
L 500 4441 
Q 881 4594 1212 4672 
Q 1544 4750 1819 4750 
Q 2544 4750 2975 4387 
Q 3406 4025 3406 3419 
Q 3406 3131 3298 2873 
Q 3191 2616 2906 2266 
Q 2828 2175 2409 1742 
Q 1991 1309 1228 531 
z
" transform="scale(0.015625)"/>
       </defs>
       <use xlink:href="#DejaVuSans-32"/>
      </g>
     </g>
    </g>
    <g id="xtick_4">
     <g id="line2d_4">
      <g>
       <use xlink:href="#m73c8b11054" x="344.839785" y="241.036875" style="stroke: #000000; stroke-width: 0.8"/>
      </g>
     </g>
     <g id="text_4">
      <!-- 3 -->
      <g transform="translate(339.749785 260.194375) scale(0.16 -0.16)">
       <defs>
        <path id="DejaVuSans-33" d="M 2597 2516 
Q 3050 2419 3304 2112 
Q 3559 1806 3559 1356 
Q 3559 666 3084 287 
Q 2609 -91 1734 -91 
Q 1441 -91 1130 -33 
Q 819 25 488 141 
L 488 750 
Q 750 597 1062 519 
Q 1375 441 1716 441 
Q 2309 441 2620 675 
Q 2931 909 2931 1356 
Q 2931 1769 2642 2001 
Q 2353 2234 1838 2234 
L 1294 2234 
L 1294 2753 
L 1863 2753 
Q 2328 2753 2575 2939 
Q 2822 3125 2822 3475 
Q 2822 3834 2567 4026 
Q 2313 4219 1838 4219 
Q 1578 4219 1281 4162 
Q 984 4106 628 3988 
L 628 4550 
Q 988 4650 1302 4700 
Q 1616 4750 1894 4750 
Q 2613 4750 3031 4423 
Q 3450 4097 3450 3541 
Q 3450 3153 3228 2886 
Q 3006 2619 2597 2516 
z
" transform="scale(0.015625)"/>
       </defs>
       <use xlink:href="#DejaVuSans-33"/>
      </g>
     </g>
    </g>
    <g id="text_5">
     <!-- Time [min] -->
     <g transform="translate(209.612969 275.120313) scale(0.1 -0.1)">
      <defs>
       <path id="DejaVuSans-54" d="M -19 4666 
L 3928 4666 
L 3928 4134 
L 2272 4134 
L 2272 0 
L 1638 0 
L 1638 4134 
L -19 4134 
L -19 4666 
z
" transform="scale(0.015625)"/>
       <path id="DejaVuSans-69" d="M 603 3500 
L 1178 3500 
L 1178 0 
L 603 0 
L 603 3500 
z
M 603 4863 
L 1178 4863 
L 1178 4134 
L 603 4134 
L 603 4863 
z
" transform="scale(0.015625)"/>
       <path id="DejaVuSans-6d" d="M 3328 2828 
Q 3544 3216 3844 3400 
Q 4144 3584 4550 3584 
Q 5097 3584 5394 3201 
Q 5691 2819 5691 2113 
L 5691 0 
L 5113 0 
L 5113 2094 
Q 5113 2597 4934 2840 
Q 4756 3084 4391 3084 
Q 3944 3084 3684 2787 
Q 3425 2491 3425 1978 
L 3425 0 
L 2847 0 
L 2847 2094 
Q 2847 2600 2669 2842 
Q 2491 3084 2119 3084 
Q 1678 3084 1418 2786 
Q 1159 2488 1159 1978 
L 1159 0 
L 581 0 
L 581 3500 
L 1159 3500 
L 1159 2956 
Q 1356 3278 1631 3431 
Q 1906 3584 2284 3584 
Q 2666 3584 2933 3390 
Q 3200 3197 3328 2828 
z
" transform="scale(0.015625)"/>
       <path id="DejaVuSans-65" d="M 3597 1894 
L 3597 1613 
L 953 1613 
Q 991 1019 1311 708 
Q 1631 397 2203 397 
Q 2534 397 2845 478 
Q 3156 559 3463 722 
L 3463 178 
Q 3153 47 2828 -22 
Q 2503 -91 2169 -91 
Q 1331 -91 842 396 
Q 353 884 353 1716 
Q 353 2575 817 3079 
Q 1281 3584 2069 3584 
Q 2775 3584 3186 3129 
Q 3597 2675 3597 1894 
z
M 3022 2063 
Q 3016 2534 2758 2815 
Q 2500 3097 2075 3097 
Q 1594 3097 1305 2825 
Q 1016 2553 972 2059 
L 3022 2063 
z
" transform="scale(0.015625)"/>
       <path id="DejaVuSans-20" transform="scale(0.015625)"/>
       <path id="DejaVuSans-5b" d="M 550 4863 
L 1875 4863 
L 1875 4416 
L 1125 4416 
L 1125 -397 
L 1875 -397 
L 1875 -844 
L 550 -844 
L 550 4863 
z
" transform="scale(0.015625)"/>
       <path id="DejaVuSans-6e" d="M 3513 2113 
L 3513 0 
L 2938 0 
L 2938 2094 
Q 2938 2591 2744 2837 
Q 2550 3084 2163 3084 
Q 1697 3084 1428 2787 
Q 1159 2491 1159 1978 
L 1159 0 
L 581 0 
L 581 3500 
L 1159 3500 
L 1159 2956 
Q 1366 3272 1645 3428 
Q 1925 3584 2291 3584 
Q 2894 3584 3203 3211 
Q 3513 2838 3513 2113 
z
" transform="scale(0.015625)"/>
       <path id="DejaVuSans-5d" d="M 1947 4863 
L 1947 -844 
L 622 -844 
L 622 -397 
L 1369 -397 
L 1369 4416 
L 622 4416 
L 622 4863 
L 1947 4863 
z
" transform="scale(0.015625)"/>
      </defs>
      <use xlink:href="#DejaVuSans-54"/>
      <use xlink:href="#DejaVuSans-69" x="57.958984"/>
      <use xlink:href="#DejaVuSans-6d" x="85.742188"/>
      <use xlink:href="#DejaVuSans-65" x="183.154297"/>
      <use xlink:href="#DejaVuSans-20" x="244.677734"/>
      <use xlink:href="#DejaVuSans-5b" x="276.464844"/>
      <use xlink:href="#DejaVuSans-6d" x="315.478516"/>
      <use xlink:href="#DejaVuSans-69" x="412.890625"/>
      <use xlink:href="#DejaVuSans-6e" x="440.673828"/>
      <use xlink:href="#DejaVuSans-5d" x="504.052734"/>
     </g>
    </g>
   </g>
   <g id="matplotlib.axis_2">
    <g id="ytick_1">
     <g id="line2d_5">
      <defs>
       <path id="m0b86fd64fa" d="M 0 0 
L -3.5 0 
" style="stroke: #000000; stroke-width: 0.8"/>
      </defs>
      <g>
       <use xlink:href="#m0b86fd64fa" x="70.330625" y="240.122733" style="stroke: #000000; stroke-width: 0.8"/>
      </g>
     </g>
     <g id="text_6">
      <!-- −5.0 -->
      <g transform="translate(24.478125 246.201483) scale(0.16 -0.16)">
       <defs>
        <path id="DejaVuSans-2212" d="M 678 2272 
L 4684 2272 
L 4684 1741 
L 678 1741 
L 678 2272 
z
" transform="scale(0.015625)"/>
        <path id="DejaVuSans-35" d="M 691 4666 
L 3169 4666 
L 3169 4134 
L 1269 4134 
L 1269 2991 
Q 1406 3038 1543 3061 
Q 1681 3084 1819 3084 
Q 2600 3084 3056 2656 
Q 3513 2228 3513 1497 
Q 3513 744 3044 326 
Q 2575 -91 1722 -91 
Q 1428 -91 1123 -41 
Q 819 9 494 109 
L 494 744 
Q 775 591 1075 516 
Q 1375 441 1709 441 
Q 2250 441 2565 725 
Q 2881 1009 2881 1497 
Q 2881 1984 2565 2268 
Q 2250 2553 1709 2553 
Q 1456 2553 1204 2497 
Q 953 2441 691 2322 
L 691 4666 
z
" transform="scale(0.015625)"/>
        <path id="DejaVuSans-2e" d="M 684 794 
L 1344 794 
L 1344 0 
L 684 0 
L 684 794 
z
" transform="scale(0.015625)"/>
       </defs>
       <use xlink:href="#DejaVuSans-2212"/>
       <use xlink:href="#DejaVuSans-35" x="83.789062"/>
       <use xlink:href="#DejaVuSans-2e" x="147.412109"/>
       <use xlink:href="#DejaVuSans-30" x="179.199219"/>
      </g>
     </g>
    </g>
    <g id="ytick_2">
     <g id="line2d_6">
      <g>
       <use xlink:href="#m0b86fd64fa" x="70.330625" y="201.953627" style="stroke: #000000; stroke-width: 0.8"/>
      </g>
     </g>
     <g id="text_7">
      <!-- −2.5 -->
      <g transform="translate(24.478125 208.032377) scale(0.16 -0.16)">
       <use xlink:href="#DejaVuSans-2212"/>
       <use xlink:href="#DejaVuSans-32" x="83.789062"/>
       <use xlink:href="#DejaVuSans-2e" x="147.412109"/>
       <use xlink:href="#DejaVuSans-35" x="179.199219"/>
      </g>
     </g>
    </g>
    <g id="ytick_3">
     <g id="line2d_7">
      <g>
       <use xlink:href="#m0b86fd64fa" x="70.330625" y="163.784522" style="stroke: #000000; stroke-width: 0.8"/>
      </g>
     </g>
     <g id="text_8">
      <!-- 0.0 -->
      <g transform="translate(37.885625 169.863272) scale(0.16 -0.16)">
       <use xlink:href="#DejaVuSans-30"/>
       <use xlink:href="#DejaVuSans-2e" x="63.623047"/>
       <use xlink:href="#DejaVuSans-30" x="95.410156"/>
      </g>
     </g>
    </g>
    <g id="ytick_4">
     <g id="line2d_8">
      <g>
       <use xlink:href="#m0b86fd64fa" x="70.330625" y="125.615417" style="stroke: #000000; stroke-width: 0.8"/>
      </g>
     </g>
     <g id="text_9">
      <!-- 2.5 -->
      <g transform="translate(37.885625 131.694167) scale(0.16 -0.16)">
       <use xlink:href="#DejaVuSans-32"/>
       <use xlink:href="#DejaVuSans-2e" x="63.623047"/>
       <use xlink:href="#DejaVuSans-35" x="95.410156"/>
      </g>
     </g>
    </g>
    <g id="ytick_5">
     <g id="line2d_9">
      <g>
       <use xlink:href="#m0b86fd64fa" x="70.330625" y="87.446311" style="stroke: #000000; stroke-width: 0.8"/>
      </g>
     </g>
     <g id="text_10">
      <!-- 5.0 -->
      <g transform="translate(37.885625 93.525061) scale(0.16 -0.16)">
       <use xlink:href="#DejaVuSans-35"/>
       <use xlink:href="#DejaVuSans-2e" x="63.623047"/>
       <use xlink:href="#DejaVuSans-30" x="95.410156"/>
      </g>
     </g>
    </g>
    <g id="ytick_6">
     <g id="line2d_10">
      <g>
       <use xlink:href="#m0b86fd64fa" x="70.330625" y="49.277206" style="stroke: #000000; stroke-width: 0.8"/>
      </g>
     </g>
     <g id="text_11">
      <!-- 7.5 -->
      <g transform="translate(37.885625 55.355956) scale(0.16 -0.16)">
       <defs>
        <path id="DejaVuSans-37" d="M 525 4666 
L 3525 4666 
L 3525 4397 
L 1831 0 
L 1172 0 
L 2766 4134 
L 525 4134 
L 525 4666 
z
" transform="scale(0.015625)"/>
       </defs>
       <use xlink:href="#DejaVuSans-37"/>
       <use xlink:href="#DejaVuSans-2e" x="63.623047"/>
       <use xlink:href="#DejaVuSans-35" x="95.410156"/>
      </g>
     </g>
    </g>
    <g id="text_12">
     <!-- RW Motor Torque (Nm) -->
     <g transform="translate(18.398438 190.094063) rotate(-90) scale(0.1 -0.1)">
      <defs>
       <path id="DejaVuSans-52" d="M 2841 2188 
Q 3044 2119 3236 1894 
Q 3428 1669 3622 1275 
L 4263 0 
L 3584 0 
L 2988 1197 
Q 2756 1666 2539 1819 
Q 2322 1972 1947 1972 
L 1259 1972 
L 1259 0 
L 628 0 
L 628 4666 
L 2053 4666 
Q 2853 4666 3247 4331 
Q 3641 3997 3641 3322 
Q 3641 2881 3436 2590 
Q 3231 2300 2841 2188 
z
M 1259 4147 
L 1259 2491 
L 2053 2491 
Q 2509 2491 2742 2702 
Q 2975 2913 2975 3322 
Q 2975 3731 2742 3939 
Q 2509 4147 2053 4147 
L 1259 4147 
z
" transform="scale(0.015625)"/>
       <path id="DejaVuSans-57" d="M 213 4666 
L 850 4666 
L 1831 722 
L 2809 4666 
L 3519 4666 
L 4500 722 
L 5478 4666 
L 6119 4666 
L 4947 0 
L 4153 0 
L 3169 4050 
L 2175 0 
L 1381 0 
L 213 4666 
z
" transform="scale(0.015625)"/>
       <path id="DejaVuSans-4d" d="M 628 4666 
L 1569 4666 
L 2759 1491 
L 3956 4666 
L 4897 4666 
L 4897 0 
L 4281 0 
L 4281 4097 
L 3078 897 
L 2444 897 
L 1241 4097 
L 1241 0 
L 628 0 
L 628 4666 
z
" transform="scale(0.015625)"/>
       <path id="DejaVuSans-6f" d="M 1959 3097 
Q 1497 3097 1228 2736 
Q 959 2375 959 1747 
Q 959 1119 1226 758 
Q 1494 397 1959 397 
Q 2419 397 2687 759 
Q 2956 1122 2956 1747 
Q 2956 2369 2687 2733 
Q 2419 3097 1959 3097 
z
M 1959 3584 
Q 2709 3584 3137 3096 
Q 3566 2609 3566 1747 
Q 3566 888 3137 398 
Q 2709 -91 1959 -91 
Q 1206 -91 779 398 
Q 353 888 353 1747 
Q 353 2609 779 3096 
Q 1206 3584 1959 3584 
z
" transform="scale(0.015625)"/>
       <path id="DejaVuSans-74" d="M 1172 4494 
L 1172 3500 
L 2356 3500 
L 2356 3053 
L 1172 3053 
L 1172 1153 
Q 1172 725 1289 603 
Q 1406 481 1766 481 
L 2356 481 
L 2356 0 
L 1766 0 
Q 1100 0 847 248 
Q 594 497 594 1153 
L 594 3053 
L 172 3053 
L 172 3500 
L 594 3500 
L 594 4494 
L 1172 4494 
z
" transform="scale(0.015625)"/>
       <path id="DejaVuSans-72" d="M 2631 2963 
Q 2534 3019 2420 3045 
Q 2306 3072 2169 3072 
Q 1681 3072 1420 2755 
Q 1159 2438 1159 1844 
L 1159 0 
L 581 0 
L 581 3500 
L 1159 3500 
L 1159 2956 
Q 1341 3275 1631 3429 
Q 1922 3584 2338 3584 
Q 2397 3584 2469 3576 
Q 2541 3569 2628 3553 
L 2631 2963 
z
" transform="scale(0.015625)"/>
       <path id="DejaVuSans-71" d="M 947 1747 
Q 947 1113 1208 752 
Q 1469 391 1925 391 
Q 2381 391 2643 752 
Q 2906 1113 2906 1747 
Q 2906 2381 2643 2742 
Q 2381 3103 1925 3103 
Q 1469 3103 1208 2742 
Q 947 2381 947 1747 
z
M 2906 525 
Q 2725 213 2448 61 
Q 2172 -91 1784 -91 
Q 1150 -91 751 415 
Q 353 922 353 1747 
Q 353 2572 751 3078 
Q 1150 3584 1784 3584 
Q 2172 3584 2448 3432 
Q 2725 3281 2906 2969 
L 2906 3500 
L 3481 3500 
L 3481 -1331 
L 2906 -1331 
L 2906 525 
z
" transform="scale(0.015625)"/>
       <path id="DejaVuSans-75" d="M 544 1381 
L 544 3500 
L 1119 3500 
L 1119 1403 
Q 1119 906 1312 657 
Q 1506 409 1894 409 
Q 2359 409 2629 706 
Q 2900 1003 2900 1516 
L 2900 3500 
L 3475 3500 
L 3475 0 
L 2900 0 
L 2900 538 
Q 2691 219 2414 64 
Q 2138 -91 1772 -91 
Q 1169 -91 856 284 
Q 544 659 544 1381 
z
M 1991 3584 
L 1991 3584 
z
" transform="scale(0.015625)"/>
       <path id="DejaVuSans-28" d="M 1984 4856 
Q 1566 4138 1362 3434 
Q 1159 2731 1159 2009 
Q 1159 1288 1364 580 
Q 1569 -128 1984 -844 
L 1484 -844 
Q 1016 -109 783 600 
Q 550 1309 550 2009 
Q 550 2706 781 3412 
Q 1013 4119 1484 4856 
L 1984 4856 
z
" transform="scale(0.015625)"/>
       <path id="DejaVuSans-4e" d="M 628 4666 
L 1478 4666 
L 3547 763 
L 3547 4666 
L 4159 4666 
L 4159 0 
L 3309 0 
L 1241 3903 
L 1241 0 
L 628 0 
L 628 4666 
z
" transform="scale(0.015625)"/>
       <path id="DejaVuSans-29" d="M 513 4856 
L 1013 4856 
Q 1481 4119 1714 3412 
Q 1947 2706 1947 2009 
Q 1947 1309 1714 600 
Q 1481 -109 1013 -844 
L 513 -844 
Q 928 -128 1133 580 
Q 1338 1288 1338 2009 
Q 1338 2731 1133 3434 
Q 928 4138 513 4856 
z
" transform="scale(0.015625)"/>
      </defs>
      <use xlink:href="#DejaVuSans-52"/>
      <use xlink:href="#DejaVuSans-57" x="65.482422"/>
      <use xlink:href="#DejaVuSans-20" x="164.359375"/>
      <use xlink:href="#DejaVuSans-4d" x="196.146484"/>
      <use xlink:href="#DejaVuSans-6f" x="282.425781"/>
      <use xlink:href="#DejaVuSans-74" x="343.607422"/>
      <use xlink:href="#DejaVuSans-6f" x="382.816406"/>
      <use xlink:href="#DejaVuSans-72" x="443.998047"/>
      <use xlink:href="#DejaVuSans-20" x="485.111328"/>
      <use xlink:href="#DejaVuSans-54" x="516.898438"/>
      <use xlink:href="#DejaVuSans-6f" x="560.982422"/>
      <use xlink:href="#DejaVuSans-72" x="622.164062"/>
      <use xlink:href="#DejaVuSans-71" x="661.527344"/>
      <use xlink:href="#DejaVuSans-75" x="725.003906"/>
      <use xlink:href="#DejaVuSans-65" x="788.382812"/>
      <use xlink:href="#DejaVuSans-20" x="849.90625"/>
      <use xlink:href="#DejaVuSans-28" x="881.693359"/>
      <use xlink:href="#DejaVuSans-4e" x="920.707031"/>
      <use xlink:href="#DejaVuSans-6d" x="995.511719"/>
      <use xlink:href="#DejaVuSans-29" x="1092.923828"/>
     </g>
    </g>
    <g id="text_13">
     <!-- 1e−5 -->
     <g transform="translate(70.330625 22.9575) scale(0.16 -0.16)">
      <use xlink:href="#DejaVuSans-31"/>
      <use xlink:href="#DejaVuSans-65" x="63.623047"/>
      <use xlink:href="#DejaVuSans-2212" x="125.146484"/>
      <use xlink:href="#DejaVuSans-35" x="208.935547"/>
     </g>
    </g>
   </g>
   <g id="line2d_11">
    <path d="M 85.461051 202.389391 
L 86.671485 199.160835 
L 88.487136 195.298906 
L 92.118439 188.137284 
L 95.144524 182.572769 
L 98.170609 177.476883 
L 100.591477 173.781567 
L 103.012345 170.445363 
L 105.433214 167.475205 
L 107.854082 164.868762 
L 110.27495 162.615838 
L 112.695818 160.699748 
L 115.116686 159.098739 
L 117.537555 157.787417 
L 119.958423 156.738132 
L 122.379291 155.922238 
L 124.800159 155.311185 
L 127.826244 154.793587 
L 130.85233 154.503068 
L 134.483632 154.391832 
L 138.720151 154.508518 
L 144.772322 154.94258 
L 149.614058 155.525713 
L 153.850577 156.268407 
L 157.48188 157.110057 
L 161.113182 158.164795 
L 164.744484 159.452554 
L 168.375786 160.990791 
L 171.401872 162.275699 
L 174.427957 163.347092 
L 177.454042 164.206666 
L 180.480127 164.854922 
L 183.506213 165.292257 
L 186.532298 165.51921 
L 189.558383 165.536614 
L 192.584468 165.345686 
L 203.478375 164.308532 
L 211.951414 163.777175 
L 217.398367 163.600207 
L 221.634886 163.714934 
L 225.871406 164.072402 
L 230.107925 164.670603 
L 234.344444 165.505004 
L 237.37053 166.122212 
L 239.791398 166.344373 
L 242.212266 166.309331 
L 244.633134 166.020974 
L 247.054002 165.484401 
L 249.47487 164.705975 
L 251.895739 163.693092 
L 254.316607 162.453648 
L 256.737475 160.99515 
L 262.184428 157.47627 
L 264.605297 156.247574 
L 267.026165 155.231711 
L 269.447033 154.415021 
L 271.867901 153.790544 
L 274.288769 153.359234 
L 276.709638 153.13042 
L 279.130506 153.121371 
L 281.551374 153.355747 
L 283.972242 153.860632 
L 286.39311 154.615491 
L 288.813978 155.588732 
L 291.840064 157.084594 
L 294.866149 158.830889 
L 299.707885 161.935254 
L 307.575707 167.002512 
L 311.812226 169.427562 
L 313.02266 169.927839 
L 314.838311 170.380239 
L 316.653963 170.502713 
L 318.469614 170.322037 
L 320.285265 169.860573 
L 322.100916 169.1362 
L 323.916567 168.162556 
L 325.732218 166.94964 
L 327.547869 165.504726 
L 329.36352 163.833589 
L 331.784389 161.263728 
L 334.205257 158.321853 
L 336.626125 155.042393 
L 339.65221 150.562226 
L 340.862644 148.812326 
L 342.073078 147.415343 
L 343.283513 146.379857 
L 344.493947 145.706895 
L 345.704381 145.395936 
L 346.914815 145.443655 
L 348.125249 145.843186 
L 349.335683 146.583623 
L 350.546117 147.64972 
L 351.756551 149.021789 
L 352.966985 150.675835 
L 354.782636 153.623583 
L 356.598288 157.034683 
L 359.019156 162.099889 
L 363.860892 172.988695 
L 368.097411 182.327961 
L 375.965233 199.326495 
L 377.780884 203.934117 
L 379.596535 209.273082 
L 380.806969 213.414383 
L 381.412186 215.708219 
L 382.017403 163.206346 
L 382.62262 163.529305 
L 383.833055 163.743266 
L 386.85914 163.796382 
L 388.069574 163.796443 
L 388.069574 163.796443 
" clip-path="url(#p90bf7355ef)" style="fill: none; stroke-dasharray: 5.55,2.4; stroke-dashoffset: 0; stroke: #2b737e; stroke-width: 1.5"/>
   </g>
   <g id="line2d_12">
    <path d="M 85.461051 163.784522 
L 86.066268 200.669928 
L 87.276702 197.852129 
L 90.302788 191.688964 
L 93.93409 184.77347 
L 96.960175 179.478172 
L 99.98626 174.693703 
L 102.407128 171.264522 
L 104.827997 168.200551 
L 107.248865 165.501695 
L 109.669733 163.159641 
L 112.090601 161.159232 
L 114.511469 159.479874 
L 116.932338 158.096973 
L 119.353206 156.983328 
L 121.774074 156.110436 
L 124.194942 155.449631 
L 127.221027 154.879519 
L 130.247113 154.546328 
L 133.878415 154.395177 
L 138.114934 154.477945 
L 144.167105 154.885157 
L 149.008841 155.436483 
L 153.24536 156.144491 
L 156.876663 156.951952 
L 160.507965 157.96885 
L 164.139267 159.215544 
L 167.770569 160.709914 
L 171.401872 162.270089 
L 174.427957 163.342493 
L 177.454042 164.203074 
L 180.480127 164.852335 
L 183.506213 165.290674 
L 186.532298 165.518626 
L 189.558383 165.537026 
L 192.584468 165.347086 
L 204.083592 164.263878 
L 212.556631 163.748631 
L 218.003584 163.601623 
L 222.240103 163.750242 
L 226.476623 164.141453 
L 230.713142 164.772932 
L 234.949661 165.639733 
L 237.37053 166.120113 
L 239.791398 166.343815 
L 242.212266 166.310293 
L 244.633134 166.023431 
L 247.054002 165.488318 
L 249.47487 164.71131 
L 251.895739 163.699799 
L 254.316607 162.461681 
L 256.737475 161.004467 
L 262.789645 157.155836 
L 265.210514 155.980643 
L 267.631382 155.014417 
L 270.05225 154.244991 
L 272.473118 153.667249 
L 274.893986 153.284178 
L 277.314855 153.107126 
L 279.735723 153.155106 
L 282.156591 153.45297 
L 284.577459 154.024393 
L 286.998327 154.833263 
L 289.419195 155.85775 
L 292.445281 157.408262 
L 296.076583 159.572196 
L 302.128753 163.524615 
L 307.575707 166.993766 
L 311.812226 169.420595 
L 313.02266 169.922848 
L 314.838311 170.377986 
L 316.653963 170.502967 
L 318.469614 170.324603 
L 320.285265 169.865291 
L 322.100916 169.142946 
L 323.916567 168.171237 
L 325.732218 166.960188 
L 327.547869 165.517092 
L 329.36352 163.847729 
L 331.784389 161.28015 
L 334.205257 158.340407 
L 336.626125 155.062811 
L 339.65221 150.584313 
L 340.862644 148.831131 
L 342.073078 147.42985 
L 343.283513 146.390053 
L 344.493947 145.712774 
L 345.704381 145.397519 
L 346.914815 145.441 
L 348.125249 145.836398 
L 349.335683 146.572859 
L 350.546117 147.635186 
L 351.756551 149.003744 
L 352.966985 150.654591 
L 354.782636 153.598214 
L 356.598288 157.006091 
L 359.019156 162.068479 
L 363.860892 172.956154 
L 368.097411 182.297082 
L 375.965233 199.292062 
L 377.780884 203.895087 
L 379.596535 209.226945 
L 380.806969 213.361728 
L 381.412186 215.65166 
L 382.017403 163.19514 
L 382.62262 163.524198 
L 383.833055 163.742212 
L 386.85914 163.796371 
L 388.069574 163.796448 
L 388.069574 163.796448 
" clip-path="url(#p90bf7355ef)" style="fill: none; stroke: #2b737e; stroke-width: 1.5; stroke-linecap: square"/>
   </g>
   <g id="line2d_13">
    <path d="M 85.461051 230.618494 
L 86.671485 229.584133 
L 87.881919 228.234731 
L 89.69757 225.727372 
L 91.513222 222.781828 
L 93.93409 218.421134 
L 103.012345 201.57415 
L 106.038431 196.64656 
L 108.459299 193.082385 
L 110.880167 189.863418 
L 113.301035 186.983799 
L 115.721903 184.430222 
L 118.142772 182.185571 
L 120.56364 180.230789 
L 122.984508 178.545429 
L 125.405376 177.107269 
L 127.826244 175.891362 
L 130.85233 174.6394 
L 134.483632 173.436994 
L 140.535802 171.76883 
L 146.587973 170.346977 
L 156.271445 168.35081 
L 180.480127 163.612475 
L 184.11143 163.21682 
L 187.742732 163.054205 
L 190.768817 163.133148 
L 193.794902 163.42952 
L 198.636639 163.910882 
L 202.873158 164.121726 
L 207.109677 164.09368 
L 210.74098 163.852001 
L 214.372282 163.387598 
L 217.398367 162.996665 
L 220.424452 162.826718 
L 223.450538 162.894334 
L 226.476623 163.214641 
L 229.502708 163.801628 
L 232.528793 164.668453 
L 235.554878 165.825586 
L 237.37053 166.458494 
L 239.186181 166.858964 
L 241.001832 167.020134 
L 242.817483 166.934951 
L 244.633134 166.596234 
L 246.448785 165.996832 
L 248.264436 165.12983 
L 250.080088 163.988836 
L 251.895739 162.568292 
L 253.71139 160.86384 
L 255.527041 158.872692 
L 257.342692 156.594009 
L 260.973994 151.824753 
L 262.789645 149.972219 
L 264.605297 148.490975 
L 266.420948 147.353211 
L 268.236599 146.528042 
L 270.05225 145.980989 
L 271.867901 145.673596 
L 273.683552 145.563216 
L 276.10442 145.640999 
L 283.972242 146.206562 
L 285.182676 146.059998 
L 286.998327 145.539591 
L 289.419195 144.49298 
L 293.655715 142.557804 
L 295.471366 142.000727 
L 296.6818 141.799147 
L 297.892234 141.765019 
L 299.102668 141.922214 
L 300.313102 142.291675 
L 301.523536 142.891467 
L 302.73397 143.736908 
L 303.944405 144.840796 
L 305.154839 146.213713 
L 306.365273 147.86442 
L 307.575707 149.80032 
L 309.391358 153.253231 
L 311.207009 157.384589 
L 314.838311 166.025467 
L 317.25918 171.312589 
L 319.680048 176.107283 
L 321.495699 179.323473 
L 323.31135 182.163166 
L 325.127001 184.570102 
L 326.337435 185.900675 
L 327.547869 186.984063 
L 328.758303 187.792538 
L 329.968738 188.294804 
L 331.179172 188.455907 
L 332.389606 188.237256 
L 333.60004 187.596788 
L 334.810474 186.489283 
L 336.020908 184.866884 
L 337.231342 182.679821 
L 338.441776 179.8774 
L 339.65221 176.409251 
L 341.467861 170.080667 
L 343.283513 162.788101 
L 345.704381 151.938613 
L 352.361768 120.923604 
L 354.177419 113.826164 
L 355.387853 109.780531 
L 356.598288 106.395614 
L 357.808722 103.753373 
L 359.019156 101.920024 
L 359.624373 101.322462 
L 360.22959 100.943622 
L 360.834807 100.786399 
L 361.440024 100.85239 
L 362.045241 101.141893 
L 362.650458 101.653912 
L 363.255675 102.386185 
L 363.860892 103.335218 
L 365.071326 105.863744 
L 366.28176 109.189055 
L 367.492194 113.245153 
L 368.702628 117.953161 
L 370.51828 126.040842 
L 372.939148 138.220115 
L 379.596535 173.228148 
L 381.412186 181.184186 
L 382.017403 163.828551 
L 388.069574 163.779021 
L 388.069574 163.779021 
" clip-path="url(#p90bf7355ef)" style="fill: none; stroke-dasharray: 5.55,2.4; stroke-dashoffset: 0; stroke: #5ea04b; stroke-width: 1.5"/>
   </g>
   <g id="line2d_14">
    <path d="M 85.461051 163.784522 
L 86.066268 230.156046 
L 87.276702 228.961806 
L 88.487136 227.476526 
L 90.302788 224.809589 
L 92.723656 220.673236 
L 96.354958 213.854259 
L 101.196694 204.785771 
L 104.22278 199.566249 
L 107.248865 194.842611 
L 109.669733 191.449051 
L 112.090601 188.399042 
L 114.511469 185.682466 
L 116.932338 183.2838 
L 119.353206 181.184826 
L 121.774074 179.3658 
L 124.194942 177.805489 
L 126.61581 176.480468 
L 129.641895 175.113876 
L 132.667981 174.00977 
L 136.9045 172.751234 
L 143.561888 171.033121 
L 150.824492 169.454264 
L 178.059259 163.980015 
L 182.295778 163.390541 
L 185.927081 163.103711 
L 188.953166 163.060426 
L 191.979251 163.224172 
L 201.662724 164.083619 
L 205.899243 164.128529 
L 209.530545 163.957426 
L 213.161848 163.570332 
L 218.003584 162.94558 
L 221.029669 162.820765 
L 224.055755 162.936566 
L 227.08184 163.307872 
L 230.107925 163.948479 
L 233.13401 164.871431 
L 238.580964 166.748844 
L 240.396615 166.992464 
L 242.212266 166.992157 
L 244.027917 166.740773 
L 245.843568 166.231129 
L 247.659219 165.456202 
L 249.47487 164.409387 
L 251.290522 163.084803 
L 253.106173 161.477641 
L 254.921824 159.584533 
L 256.737475 157.403935 
L 261.579211 151.179596 
L 263.394863 149.450767 
L 265.210514 148.084481 
L 267.026165 147.051989 
L 268.841816 146.321289 
L 270.657467 145.856642 
L 272.473118 145.618242 
L 274.893986 145.575634 
L 277.920072 145.800062 
L 282.761808 146.204464 
L 284.577459 146.15837 
L 285.787893 145.925384 
L 287.603544 145.311676 
L 290.024413 144.208092 
L 293.655715 142.563225 
L 295.471366 142.004031 
L 296.6818 141.800612 
L 297.892234 141.764345 
L 299.102668 141.919133 
L 300.313102 142.285955 
L 301.523536 142.882909 
L 302.73397 143.725346 
L 303.944405 144.826091 
L 305.154839 146.195751 
L 306.365273 147.843105 
L 307.575707 149.77557 
L 309.391358 153.223187 
L 311.207009 157.349066 
L 314.838311 165.992705 
L 317.25918 171.282484 
L 319.680048 176.080381 
L 321.495699 179.299363 
L 323.31135 182.14225 
L 325.127001 184.552875 
L 326.337435 185.886237 
L 327.547869 186.972724 
L 328.758303 187.784649 
L 329.968738 188.290758 
L 331.179172 188.456142 
L 332.389606 188.242253 
L 333.60004 187.607067 
L 334.810474 186.505399 
L 336.020908 184.889419 
L 337.231342 182.709376 
L 338.441776 179.914578 
L 339.65221 176.454646 
L 341.467861 170.134947 
L 343.283513 162.849247 
L 345.704381 152.005957 
L 352.361768 120.984087 
L 354.177419 113.877934 
L 355.387853 109.824984 
L 356.598288 106.431691 
L 357.808722 103.780185 
L 359.019156 101.936885 
L 359.624373 101.334161 
L 360.22959 100.950075 
L 360.834807 100.787552 
L 361.440024 100.84822 
L 362.045241 101.132408 
L 362.650458 101.63915 
L 363.255675 102.366215 
L 363.860892 103.310136 
L 365.071326 105.82884 
L 366.28176 109.145025 
L 367.492194 113.192864 
L 368.702628 117.893617 
L 370.51828 125.972517 
L 372.939148 138.144326 
L 379.596535 173.1598 
L 381.412186 181.127038 
L 382.017403 163.828747 
L 388.069574 163.779081 
L 388.069574 163.779081 
" clip-path="url(#p90bf7355ef)" style="fill: none; stroke: #5ea04b; stroke-width: 1.5; stroke-linecap: square"/>
   </g>
   <g id="line2d_15">
    <path d="M 85.461051 176.701037 
L 86.671485 173.878047 
L 87.881919 171.613813 
L 89.092353 169.818149 
L 90.302788 168.405492 
L 91.513222 167.297525 
L 92.723656 166.423822 
L 94.539307 165.418345 
L 96.960175 164.382825 
L 101.196694 162.613957 
L 103.617563 161.343982 
L 106.038431 159.806941 
L 108.459299 158.01728 
L 112.090601 154.99705 
L 118.142772 149.880688 
L 120.56364 148.124858 
L 122.379291 147.01719 
L 124.194942 146.135811 
L 126.010593 145.520438 
L 127.826244 145.208497 
L 129.036678 145.18664 
L 130.247113 145.325397 
L 131.457547 145.634466 
L 132.667981 146.123257 
L 133.878415 146.800933 
L 135.088849 147.676425 
L 136.299283 148.758448 
L 137.509717 150.055503 
L 142.351453 155.815247 
L 144.167105 157.500446 
L 145.982756 158.937917 
L 147.798407 160.154616 
L 150.219275 161.473649 
L 152.640143 162.48839 
L 155.061011 163.235857 
L 157.48188 163.744192 
L 159.902748 164.033768 
L 162.323616 164.118659 
L 164.744484 164.008535 
L 167.165352 163.711075 
L 171.401872 163.056398 
L 174.427957 162.873744 
L 178.664476 162.884742 
L 191.979251 163.165904 
L 201.662724 162.771065 
L 207.109677 162.854339 
L 212.556631 163.151847 
L 219.214018 163.557758 
L 227.687057 163.902759 
L 230.713142 164.238997 
L 233.739227 164.807922 
L 237.37053 165.813457 
L 240.396615 166.527201 
L 242.817483 166.834597 
L 244.633134 166.83299 
L 246.448785 166.573585 
L 248.264436 166.002058 
L 249.47487 165.420688 
L 250.685305 164.660416 
L 251.895739 163.705743 
L 253.106173 162.54183 
L 254.316607 161.154749 
L 255.527041 159.531747 
L 257.342692 156.630643 
L 260.973994 150.19856 
L 262.184428 148.579523 
L 263.394863 147.306267 
L 264.605297 146.403719 
L 265.815731 145.896184 
L 267.026165 145.807123 
L 268.236599 146.158939 
L 269.447033 146.972746 
L 270.657467 148.268127 
L 271.867901 150.06285 
L 273.078335 152.37256 
L 274.288769 155.210427 
L 275.499203 158.586757 
L 276.709638 162.508565 
L 278.525289 169.420065 
L 280.34094 177.558005 
L 282.156591 186.890176 
L 286.39311 210.281864 
L 287.603544 215.650799 
L 288.813978 220.253903 
L 290.024413 224.071195 
L 291.234847 227.087401 
L 292.445281 229.292642 
L 293.050498 230.089668 
L 293.655715 230.682942 
L 294.260932 231.072941 
L 294.866149 231.26054 
L 295.471366 231.24701 
L 296.076583 231.034016 
L 296.6818 230.62361 
L 297.287017 230.018219 
L 297.892234 229.220637 
L 299.102668 227.061808 
L 300.313102 224.176155 
L 301.523536 220.597372 
L 302.73397 216.363055 
L 304.549622 208.871935 
L 306.365273 200.142779 
L 308.180924 190.32388 
L 310.601792 175.784626 
L 312.417443 164.504365 
L 314.233094 154.794655 
L 315.443528 149.245057 
L 316.653963 144.410944 
L 317.864397 140.269529 
L 319.074831 136.796637 
L 320.285265 133.967575 
L 321.495699 131.757893 
L 322.706133 130.144051 
L 323.916567 129.103981 
L 324.521784 128.792735 
L 325.127001 128.617562 
L 325.732218 128.576314 
L 326.337435 128.66701 
L 326.942652 128.887844 
L 328.153086 129.713615 
L 329.36352 131.042906 
L 330.573955 132.868133 
L 331.784389 135.184929 
L 332.994823 137.992148 
L 334.205257 141.291786 
L 335.415691 145.088799 
L 337.231342 151.734168 
L 339.046993 159.550518 
L 345.099164 188.011986 
L 346.914815 195.472139 
L 348.730466 201.986638 
L 349.9409 205.644491 
L 351.151334 208.636482 
L 352.361768 210.863799 
L 352.966985 211.661769 
L 353.572202 212.235251 
L 354.177419 212.574865 
L 354.782636 212.672308 
L 355.387853 212.520478 
L 355.99307 212.113572 
L 356.598288 211.447173 
L 357.203505 210.518313 
L 357.808722 209.325514 
L 359.019156 206.149738 
L 360.22959 201.937974 
L 361.440024 196.731032 
L 362.650458 190.589857 
L 364.466109 179.799167 
L 366.28176 167.390113 
L 368.702628 148.895493 
L 371.728714 123.64881 
L 375.965233 86.079366 
L 381.412186 35.733835 
L 382.017403 164.058923 
L 388.069574 163.882397 
L 388.069574 163.882397 
" clip-path="url(#p90bf7355ef)" style="fill: none; stroke-dasharray: 5.55,2.4; stroke-dashoffset: 0; stroke: #bdab62; stroke-width: 1.5"/>
   </g>
   <g id="line2d_16">
    <path d="M 85.461051 163.784522 
L 86.066268 175.247689 
L 87.276702 172.708714 
L 88.487136 170.684278 
L 89.69757 169.085823 
L 90.908005 167.831187 
L 92.118439 166.845862 
L 93.93409 165.729603 
L 96.354958 164.630832 
L 101.196694 162.620776 
L 103.617563 161.352319 
L 106.038431 159.816877 
L 108.459299 158.028581 
L 112.090601 155.009504 
L 118.142772 149.891911 
L 120.56364 148.134443 
L 122.379291 147.025144 
L 124.194942 146.14181 
L 126.010593 145.524176 
L 127.826244 145.209685 
L 129.036678 145.185975 
L 130.247113 145.322763 
L 131.457547 145.629748 
L 132.667981 146.116345 
L 133.878415 146.79172 
L 135.088849 147.664805 
L 136.299283 148.744319 
L 137.509717 150.038764 
L 142.351453 155.800802 
L 144.167105 157.488085 
L 145.982756 158.927411 
L 147.798407 160.145766 
L 150.219275 161.46674 
L 152.640143 162.483173 
L 155.061011 163.23214 
L 157.48188 163.74183 
L 159.902748 164.032661 
L 162.323616 164.118739 
L 164.744484 164.009753 
L 167.165352 163.713384 
L 172.007089 163.003725 
L 175.033174 162.860072 
L 179.269693 162.901716 
L 191.374034 163.189706 
L 204.688809 162.789761 
L 210.135762 162.993383 
L 223.450538 163.677158 
L 228.292274 163.953809 
L 231.318359 164.329311 
L 234.344444 164.953061 
L 241.001832 166.629198 
L 242.817483 166.833722 
L 244.633134 166.833947 
L 246.448785 166.5768 
L 248.264436 166.007966 
L 249.47487 165.42863 
L 250.685305 164.67058 
L 251.895739 163.71831 
L 253.106173 162.556972 
L 254.316607 161.172626 
L 255.527041 159.552502 
L 257.342692 156.655943 
L 260.973994 150.219815 
L 262.184428 148.596814 
L 263.394863 147.319293 
L 264.605297 146.412187 
L 265.815731 145.89981 
L 267.026165 145.805633 
L 268.236599 146.152074 
L 269.447033 146.960263 
L 270.657467 148.249802 
L 271.867901 150.038484 
L 273.078335 152.341981 
L 274.288769 155.173493 
L 275.499203 158.543365 
L 276.709638 162.458652 
L 278.525289 169.360359 
L 280.34094 177.488656 
L 282.156591 186.811548 
L 286.39311 210.213428 
L 287.603544 215.591343 
L 288.813978 220.20369 
L 290.024413 224.030437 
L 291.234847 227.056249 
L 292.445281 229.271181 
L 293.050498 230.07306 
L 293.655715 230.671181 
L 294.260932 231.066011 
L 294.866149 231.258416 
L 295.471366 231.249658 
L 296.076583 231.041391 
L 296.6818 230.635658 
L 297.287017 230.034878 
L 297.892234 229.241837 
L 299.102668 227.091846 
L 300.313102 224.214655 
L 301.523536 220.64391 
L 302.73397 216.417163 
L 304.549622 208.936458 
L 306.365273 200.216544 
L 308.180924 190.405716 
L 310.601792 175.875514 
L 312.417443 164.588204 
L 314.233094 154.865117 
L 315.443528 149.306872 
L 316.653963 144.464371 
L 317.864397 140.314851 
L 319.074831 136.834146 
L 320.285265 133.997564 
L 321.495699 131.780649 
L 322.706133 130.159847 
L 323.916567 129.113069 
L 324.521784 128.798556 
L 325.127001 128.620168 
L 325.732218 128.575755 
L 326.337435 128.663331 
L 326.942652 128.881087 
L 328.153086 129.700805 
L 329.36352 131.024152 
L 330.573955 132.843507 
L 331.784389 135.154465 
L 332.994823 137.95584 
L 334.205257 141.249592 
L 335.415691 145.040644 
L 337.231342 151.676867 
L 339.046993 159.483771 
L 345.704381 190.52492 
L 347.520032 197.710857 
L 349.335683 203.848827 
L 350.546117 207.194293 
L 351.756551 209.825046 
L 352.966985 211.64534 
L 353.572202 212.224279 
L 354.177419 212.569562 
L 354.782636 212.672859 
L 355.387853 212.527037 
L 355.99307 212.126261 
L 356.598288 211.466081 
L 357.203505 210.543493 
L 357.808722 209.356984 
L 359.019156 206.193697 
L 360.22959 201.994069 
L 361.440024 196.798653 
L 362.650458 190.668173 
L 364.466109 179.891609 
L 366.28176 167.494107 
L 368.702628 149.010869 
L 371.728714 123.772988 
L 375.965233 86.210074 
L 381.412186 35.867955 
L 382.017403 164.059552 
L 388.069574 163.882659 
L 388.069574 163.882659 
" clip-path="url(#p90bf7355ef)" style="fill: none; stroke: #bdab62; stroke-width: 1.5; stroke-linecap: square"/>
   </g>
   <g id="patch_3">
    <path d="M 70.330625 241.036875 
L 70.330625 25.9575 
" style="fill: none; stroke: #000000; stroke-width: 0.8; stroke-linejoin: miter; stroke-linecap: square"/>
   </g>
   <g id="patch_4">
    <path d="M 403.2 241.036875 
L 403.2 25.9575 
" style="fill: none; stroke: #000000; stroke-width: 0.8; stroke-linejoin: miter; stroke-linecap: square"/>
   </g>
   <g id="patch_5">
    <path d="M 70.330625 241.036875 
L 403.2 241.036875 
" style="fill: none; stroke: #000000; stroke-width: 0.8; stroke-linejoin: miter; stroke-linecap: square"/>
   </g>
   <g id="patch_6">
    <path d="M 70.330625 25.9575 
L 403.2 25.9575 
" style="fill: none; stroke: #000000; stroke-width: 0.8; stroke-linejoin: miter; stroke-linecap: square"/>
   </g>
   <g id="legend_1">
    <g id="patch_7">
     <path d="M 351.54 236.536875 
L 396.9 236.536875 
Q 398.7 236.536875 398.7 234.736875 
L 398.7 149.781094 
Q 398.7 147.981094 396.9 147.981094 
L 351.54 147.981094 
Q 349.74 147.981094 349.74 149.781094 
L 349.74 234.736875 
Q 349.74 236.536875 351.54 236.536875 
z
" style="fill: #ffffff; opacity: 0.8; stroke: #cccccc; stroke-linejoin: miter"/>
    </g>
    <g id="line2d_17">
     <path d="M 353.34 156.711094 
L 362.34 156.711094 
L 371.34 156.711094 
" style="fill: none; stroke-dasharray: 5.55,2.4; stroke-dashoffset: 0; stroke: #2b737e; stroke-width: 1.5"/>
    </g>
    <g id="text_14">
     <!-- $\hat u_{s,0}$ -->
     <g transform="translate(378.54 159.861094) scale(0.09 -0.09)">
      <defs>
       <path id="DejaVuSans-302" d="M -1831 5119 
L -1369 5119 
L -603 3944 
L -1038 3944 
L -1600 4709 
L -2163 3944 
L -2597 3944 
L -1831 5119 
z
M -1600 3584 
L -1600 3584 
z
" transform="scale(0.015625)"/>
       <path id="DejaVuSans-Oblique-75" d="M 428 1388 
L 838 3500 
L 1416 3500 
L 1006 1409 
Q 975 1256 961 1147 
Q 947 1038 947 966 
Q 947 700 1109 554 
Q 1272 409 1569 409 
Q 2031 409 2368 721 
Q 2706 1034 2809 1563 
L 3194 3500 
L 3769 3500 
L 3091 0 
L 2516 0 
L 2631 550 
Q 2388 244 2052 76 
Q 1716 -91 1338 -91 
Q 878 -91 622 161 
Q 366 413 366 863 
Q 366 956 381 1097 
Q 397 1238 428 1388 
z
" transform="scale(0.015625)"/>
       <path id="DejaVuSans-Oblique-73" d="M 3200 3397 
L 3091 2853 
Q 2863 2978 2609 3040 
Q 2356 3103 2088 3103 
Q 1634 3103 1373 2948 
Q 1113 2794 1113 2528 
Q 1113 2219 1719 2053 
Q 1766 2041 1788 2034 
L 1972 1978 
Q 2547 1819 2739 1644 
Q 2931 1469 2931 1166 
Q 2931 609 2489 259 
Q 2047 -91 1331 -91 
Q 1053 -91 747 -37 
Q 441 16 72 128 
L 184 722 
Q 500 559 806 475 
Q 1113 391 1394 391 
Q 1816 391 2080 572 
Q 2344 753 2344 1031 
Q 2344 1331 1650 1516 
L 1591 1531 
L 1394 1581 
Q 956 1697 753 1886 
Q 550 2075 550 2369 
Q 550 2928 970 3256 
Q 1391 3584 2113 3584 
Q 2397 3584 2667 3537 
Q 2938 3491 3200 3397 
z
" transform="scale(0.015625)"/>
       <path id="DejaVuSans-2c" d="M 750 794 
L 1409 794 
L 1409 256 
L 897 -744 
L 494 -744 
L 750 256 
L 750 794 
z
" transform="scale(0.015625)"/>
      </defs>
      <use xlink:href="#DejaVuSans-302" transform="translate(57.871094 12.015625)"/>
      <use xlink:href="#DejaVuSans-Oblique-75" transform="translate(0 0.828125)"/>
      <use xlink:href="#DejaVuSans-Oblique-73" transform="translate(64.335938 -15.578125) scale(0.7)"/>
      <use xlink:href="#DejaVuSans-2c" transform="translate(100.805664 -15.578125) scale(0.7)"/>
      <use xlink:href="#DejaVuSans-30" transform="translate(136.694336 -15.578125) scale(0.7)"/>
     </g>
    </g>
    <g id="line2d_18">
     <path d="M 353.34 170.299688 
L 362.34 170.299688 
L 371.34 170.299688 
" style="fill: none; stroke: #2b737e; stroke-width: 1.5; stroke-linecap: square"/>
    </g>
    <g id="text_15">
     <!-- $u_{s,0}$ -->
     <g transform="translate(378.54 173.449688) scale(0.09 -0.09)">
      <use xlink:href="#DejaVuSans-Oblique-75" transform="translate(0 0.3125)"/>
      <use xlink:href="#DejaVuSans-Oblique-73" transform="translate(63.378906 -16.09375) scale(0.7)"/>
      <use xlink:href="#DejaVuSans-2c" transform="translate(99.848633 -16.09375) scale(0.7)"/>
      <use xlink:href="#DejaVuSans-30" transform="translate(135.737305 -16.09375) scale(0.7)"/>
     </g>
    </g>
    <g id="line2d_19">
     <path d="M 353.34 185.329688 
L 362.34 185.329688 
L 371.34 185.329688 
" style="fill: none; stroke-dasharray: 5.55,2.4; stroke-dashoffset: 0; stroke: #5ea04b; stroke-width: 1.5"/>
    </g>
    <g id="text_16">
     <!-- $\hat u_{s,1}$ -->
     <g transform="translate(378.54 188.479688) scale(0.09 -0.09)">
      <use xlink:href="#DejaVuSans-302" transform="translate(57.871094 12.015625)"/>
      <use xlink:href="#DejaVuSans-Oblique-75" transform="translate(0 0.828125)"/>
      <use xlink:href="#DejaVuSans-Oblique-73" transform="translate(64.335938 -15.578125) scale(0.7)"/>
      <use xlink:href="#DejaVuSans-2c" transform="translate(100.805664 -15.578125) scale(0.7)"/>
      <use xlink:href="#DejaVuSans-31" transform="translate(136.694336 -15.578125) scale(0.7)"/>
     </g>
    </g>
    <g id="line2d_20">
     <path d="M 353.34 198.918281 
L 362.34 198.918281 
L 371.34 198.918281 
" style="fill: none; stroke: #5ea04b; stroke-width: 1.5; stroke-linecap: square"/>
    </g>
    <g id="text_17">
     <!-- $u_{s,1}$ -->
     <g transform="translate(378.54 202.068281) scale(0.09 -0.09)">
      <use xlink:href="#DejaVuSans-Oblique-75" transform="translate(0 0.3125)"/>
      <use xlink:href="#DejaVuSans-Oblique-73" transform="translate(63.378906 -16.09375) scale(0.7)"/>
      <use xlink:href="#DejaVuSans-2c" transform="translate(99.848633 -16.09375) scale(0.7)"/>
      <use xlink:href="#DejaVuSans-31" transform="translate(135.737305 -16.09375) scale(0.7)"/>
     </g>
    </g>
    <g id="line2d_21">
     <path d="M 353.34 213.948281 
L 362.34 213.948281 
L 371.34 213.948281 
" style="fill: none; stroke-dasharray: 5.55,2.4; stroke-dashoffset: 0; stroke: #bdab62; stroke-width: 1.5"/>
    </g>
    <g id="text_18">
     <!-- $\hat u_{s,2}$ -->
     <g transform="translate(378.54 217.098281) scale(0.09 -0.09)">
      <use xlink:href="#DejaVuSans-302" transform="translate(57.871094 12.015625)"/>
      <use xlink:href="#DejaVuSans-Oblique-75" transform="translate(0 0.828125)"/>
      <use xlink:href="#DejaVuSans-Oblique-73" transform="translate(64.335938 -15.578125) scale(0.7)"/>
      <use xlink:href="#DejaVuSans-2c" transform="translate(100.805664 -15.578125) scale(0.7)"/>
      <use xlink:href="#DejaVuSans-32" transform="translate(136.694336 -15.578125) scale(0.7)"/>
     </g>
    </g>
    <g id="line2d_22">
     <path d="M 353.34 227.536875 
L 362.34 227.536875 
L 371.34 227.536875 
" style="fill: none; stroke: #bdab62; stroke-width: 1.5; stroke-linecap: square"/>
    </g>
    <g id="text_19">
     <!-- $u_{s,2}$ -->
     <g transform="translate(378.54 230.686875) scale(0.09 -0.09)">
      <use xlink:href="#DejaVuSans-Oblique-75" transform="translate(0 0.3125)"/>
      <use xlink:href="#DejaVuSans-Oblique-73" transform="translate(63.378906 -16.09375) scale(0.7)"/>
      <use xlink:href="#DejaVuSans-2c" transform="translate(99.848633 -16.09375) scale(0.7)"/>
      <use xlink:href="#DejaVuSans-32" transform="translate(135.737305 -16.09375) scale(0.7)"/>
     </g>
    </g>
   </g>
  </g>
 </g>
 <defs>
  <clipPath id="p90bf7355ef">
   <rect x="70.330625" y="25.9575" width="332.869375" height="215.079375"/>
  </clipPath>
 </defs>
</svg>
