<?xml version="1.0" encoding="utf-8" standalone="no"?>
<!DOCTYPE svg PUBLIC "-//W3C//DTD SVG 1.1//EN"
  "http://www.w3.org/Graphics/SVG/1.1/DTD/svg11.dtd">
<svg xmlns:xlink="http://www.w3.org/1999/xlink" width="414pt" height="288pt" viewBox="0 0 414 288" xmlns="http://www.w3.org/2000/svg" version="1.1">
 <metadata>
  <rdf:RDF xmlns:dc="http://purl.org/dc/elements/1.1/" xmlns:cc="http://creativecommons.org/ns#" xmlns:rdf="http://www.w3.org/1999/02/22-rdf-syntax-ns#">
   <cc:Work>
    <dc:type rdf:resource="http://purl.org/dc/dcmitype/StillImage"/>
    <dc:date>2023-09-07T00:35:55.583508</dc:date>
    <dc:format>image/svg+xml</dc:format>
    <dc:creator>
     <cc:Agent>
      <dc:title>Matplotlib v3.7.2, https://matplotlib.org/</dc:title>
     </cc:Agent>
    </dc:creator>
   </cc:Work>
  </rdf:RDF>
 </metadata>
 <defs>
  <style type="text/css">*{stroke-linejoin: round; stroke-linecap: butt}</style>
 </defs>
 <g id="figure_1">
  <g id="patch_1">
   <path d="M 0 288 
L 414 288 
L 414 0 
L 0 0 
L 0 288 
z
" style="fill: none"/>
  </g>
  <g id="axes_1">
   <g id="patch_2">
    <path d="M 85.605625 241.036875 
L 403.2 241.036875 
L 403.2 10.8 
L 85.605625 10.8 
L 85.605625 241.036875 
z
" style="fill: none"/>
   </g>
   <g id="matplotlib.axis_1">
    <g id="xtick_1">
     <g id="line2d_1">
      <defs>
       <path id="mb92a27ee4f" d="M 0 0 
L 0 3.5 
" style="stroke: #000000; stroke-width: 0.8"/>
      </defs>
      <g>
       <use xlink:href="#mb92a27ee4f" x="100.041733" y="241.036875" style="stroke: #000000; stroke-width: 0.8"/>
      </g>
     </g>
     <g id="text_1">
      <!-- 0 -->
      <g transform="translate(94.951733 260.194375) scale(0.16 -0.16)">
       <defs>
        <path id="DejaVuSans-30" d="M 2034 4250 
Q 1547 4250 1301 3770 
Q 1056 3291 1056 2328 
Q 1056 1369 1301 889 
Q 1547 409 2034 409 
Q 2525 409 2770 889 
Q 3016 1369 3016 2328 
Q 3016 3291 2770 3770 
Q 2525 4250 2034 4250 
z
M 2034 4750 
Q 2819 4750 3233 4129 
Q 3647 3509 3647 2328 
Q 3647 1150 3233 529 
Q 2819 -91 2034 -91 
Q 1250 -91 836 529 
Q 422 1150 422 2328 
Q 422 3509 836 4129 
Q 1250 4750 2034 4750 
z
" transform="scale(0.015625)"/>
       </defs>
       <use xlink:href="#DejaVuSans-30"/>
      </g>
     </g>
    </g>
    <g id="xtick_2">
     <g id="line2d_2">
      <g>
       <use xlink:href="#mb92a27ee4f" x="172.34881" y="241.036875" style="stroke: #000000; stroke-width: 0.8"/>
      </g>
     </g>
     <g id="text_2">
      <!-- 10 -->
      <g transform="translate(162.16881 260.194375) scale(0.16 -0.16)">
       <defs>
        <path id="DejaVuSans-31" d="M 794 531 
L 1825 531 
L 1825 4091 
L 703 3866 
L 703 4441 
L 1819 4666 
L 2450 4666 
L 2450 531 
L 3481 531 
L 3481 0 
L 794 0 
L 794 531 
z
" transform="scale(0.015625)"/>
       </defs>
       <use xlink:href="#DejaVuSans-31"/>
       <use xlink:href="#DejaVuSans-30" x="63.623047"/>
      </g>
     </g>
    </g>
    <g id="xtick_3">
     <g id="line2d_3">
      <g>
       <use xlink:href="#mb92a27ee4f" x="244.655887" y="241.036875" style="stroke: #000000; stroke-width: 0.8"/>
      </g>
     </g>
     <g id="text_3">
      <!-- 20 -->
      <g transform="translate(234.475887 260.194375) scale(0.16 -0.16)">
       <defs>
        <path id="DejaVuSans-32" d="M 1228 531 
L 3431 531 
L 3431 0 
L 469 0 
L 469 531 
Q 828 903 1448 1529 
Q 2069 2156 2228 2338 
Q 2531 2678 2651 2914 
Q 2772 3150 2772 3378 
Q 2772 3750 2511 3984 
Q 2250 4219 1831 4219 
Q 1534 4219 1204 4116 
Q 875 4013 500 3803 
L 500 4441 
Q 881 4594 1212 4672 
Q 1544 4750 1819 4750 
Q 2544 4750 2975 4387 
Q 3406 4025 3406 3419 
Q 3406 3131 3298 2873 
Q 3191 2616 2906 2266 
Q 2828 2175 2409 1742 
Q 1991 1309 1228 531 
z
" transform="scale(0.015625)"/>
       </defs>
       <use xlink:href="#DejaVuSans-32"/>
       <use xlink:href="#DejaVuSans-30" x="63.623047"/>
      </g>
     </g>
    </g>
    <g id="xtick_4">
     <g id="line2d_4">
      <g>
       <use xlink:href="#mb92a27ee4f" x="316.962964" y="241.036875" style="stroke: #000000; stroke-width: 0.8"/>
      </g>
     </g>
     <g id="text_4">
      <!-- 30 -->
      <g transform="translate(306.782964 260.194375) scale(0.16 -0.16)">
       <defs>
        <path id="DejaVuSans-33" d="M 2597 2516 
Q 3050 2419 3304 2112 
Q 3559 1806 3559 1356 
Q 3559 666 3084 287 
Q 2609 -91 1734 -91 
Q 1441 -91 1130 -33 
Q 819 25 488 141 
L 488 750 
Q 750 597 1062 519 
Q 1375 441 1716 441 
Q 2309 441 2620 675 
Q 2931 909 2931 1356 
Q 2931 1769 2642 2001 
Q 2353 2234 1838 2234 
L 1294 2234 
L 1294 2753 
L 1863 2753 
Q 2328 2753 2575 2939 
Q 2822 3125 2822 3475 
Q 2822 3834 2567 4026 
Q 2313 4219 1838 4219 
Q 1578 4219 1281 4162 
Q 984 4106 628 3988 
L 628 4550 
Q 988 4650 1302 4700 
Q 1616 4750 1894 4750 
Q 2613 4750 3031 4423 
Q 3450 4097 3450 3541 
Q 3450 3153 3228 2886 
Q 3006 2619 2597 2516 
z
" transform="scale(0.015625)"/>
       </defs>
       <use xlink:href="#DejaVuSans-33"/>
       <use xlink:href="#DejaVuSans-30" x="63.623047"/>
      </g>
     </g>
    </g>
    <g id="xtick_5">
     <g id="line2d_5">
      <g>
       <use xlink:href="#mb92a27ee4f" x="389.270042" y="241.036875" style="stroke: #000000; stroke-width: 0.8"/>
      </g>
     </g>
     <g id="text_5">
      <!-- 40 -->
      <g transform="translate(379.090042 260.194375) scale(0.16 -0.16)">
       <defs>
        <path id="DejaVuSans-34" d="M 2419 4116 
L 825 1625 
L 2419 1625 
L 2419 4116 
z
M 2253 4666 
L 3047 4666 
L 3047 1625 
L 3713 1625 
L 3713 1100 
L 3047 1100 
L 3047 0 
L 2419 0 
L 2419 1100 
L 313 1100 
L 313 1709 
L 2253 4666 
z
" transform="scale(0.015625)"/>
       </defs>
       <use xlink:href="#DejaVuSans-34"/>
       <use xlink:href="#DejaVuSans-30" x="63.623047"/>
      </g>
     </g>
    </g>
    <g id="text_6">
     <!-- Time [min] -->
     <g transform="translate(217.250469 275.120313) scale(0.1 -0.1)">
      <defs>
       <path id="DejaVuSans-54" d="M -19 4666 
L 3928 4666 
L 3928 4134 
L 2272 4134 
L 2272 0 
L 1638 0 
L 1638 4134 
L -19 4134 
L -19 4666 
z
" transform="scale(0.015625)"/>
       <path id="DejaVuSans-69" d="M 603 3500 
L 1178 3500 
L 1178 0 
L 603 0 
L 603 3500 
z
M 603 4863 
L 1178 4863 
L 1178 4134 
L 603 4134 
L 603 4863 
z
" transform="scale(0.015625)"/>
       <path id="DejaVuSans-6d" d="M 3328 2828 
Q 3544 3216 3844 3400 
Q 4144 3584 4550 3584 
Q 5097 3584 5394 3201 
Q 5691 2819 5691 2113 
L 5691 0 
L 5113 0 
L 5113 2094 
Q 5113 2597 4934 2840 
Q 4756 3084 4391 3084 
Q 3944 3084 3684 2787 
Q 3425 2491 3425 1978 
L 3425 0 
L 2847 0 
L 2847 2094 
Q 2847 2600 2669 2842 
Q 2491 3084 2119 3084 
Q 1678 3084 1418 2786 
Q 1159 2488 1159 1978 
L 1159 0 
L 581 0 
L 581 3500 
L 1159 3500 
L 1159 2956 
Q 1356 3278 1631 3431 
Q 1906 3584 2284 3584 
Q 2666 3584 2933 3390 
Q 3200 3197 3328 2828 
z
" transform="scale(0.015625)"/>
       <path id="DejaVuSans-65" d="M 3597 1894 
L 3597 1613 
L 953 1613 
Q 991 1019 1311 708 
Q 1631 397 2203 397 
Q 2534 397 2845 478 
Q 3156 559 3463 722 
L 3463 178 
Q 3153 47 2828 -22 
Q 2503 -91 2169 -91 
Q 1331 -91 842 396 
Q 353 884 353 1716 
Q 353 2575 817 3079 
Q 1281 3584 2069 3584 
Q 2775 3584 3186 3129 
Q 3597 2675 3597 1894 
z
M 3022 2063 
Q 3016 2534 2758 2815 
Q 2500 3097 2075 3097 
Q 1594 3097 1305 2825 
Q 1016 2553 972 2059 
L 3022 2063 
z
" transform="scale(0.015625)"/>
       <path id="DejaVuSans-20" transform="scale(0.015625)"/>
       <path id="DejaVuSans-5b" d="M 550 4863 
L 1875 4863 
L 1875 4416 
L 1125 4416 
L 1125 -397 
L 1875 -397 
L 1875 -844 
L 550 -844 
L 550 4863 
z
" transform="scale(0.015625)"/>
       <path id="DejaVuSans-6e" d="M 3513 2113 
L 3513 0 
L 2938 0 
L 2938 2094 
Q 2938 2591 2744 2837 
Q 2550 3084 2163 3084 
Q 1697 3084 1428 2787 
Q 1159 2491 1159 1978 
L 1159 0 
L 581 0 
L 581 3500 
L 1159 3500 
L 1159 2956 
Q 1366 3272 1645 3428 
Q 1925 3584 2291 3584 
Q 2894 3584 3203 3211 
Q 3513 2838 3513 2113 
z
" transform="scale(0.015625)"/>
       <path id="DejaVuSans-5d" d="M 1947 4863 
L 1947 -844 
L 622 -844 
L 622 -397 
L 1369 -397 
L 1369 4416 
L 622 4416 
L 622 4863 
L 1947 4863 
z
" transform="scale(0.015625)"/>
      </defs>
      <use xlink:href="#DejaVuSans-54"/>
      <use xlink:href="#DejaVuSans-69" x="57.958984"/>
      <use xlink:href="#DejaVuSans-6d" x="85.742188"/>
      <use xlink:href="#DejaVuSans-65" x="183.154297"/>
      <use xlink:href="#DejaVuSans-20" x="244.677734"/>
      <use xlink:href="#DejaVuSans-5b" x="276.464844"/>
      <use xlink:href="#DejaVuSans-6d" x="315.478516"/>
      <use xlink:href="#DejaVuSans-69" x="412.890625"/>
      <use xlink:href="#DejaVuSans-6e" x="440.673828"/>
      <use xlink:href="#DejaVuSans-5d" x="504.052734"/>
     </g>
    </g>
   </g>
   <g id="matplotlib.axis_2">
    <g id="ytick_1">
     <g id="line2d_6">
      <defs>
       <path id="m6e61bb0491" d="M 0 0 
L -3.5 0 
" style="stroke: #000000; stroke-width: 0.8"/>
      </defs>
      <g>
       <use xlink:href="#m6e61bb0491" x="85.605625" y="229.345522" style="stroke: #000000; stroke-width: 0.8"/>
      </g>
     </g>
     <g id="text_7">
      <!-- −2000 -->
      <g transform="translate(24.478125 235.424272) scale(0.16 -0.16)">
       <defs>
        <path id="DejaVuSans-2212" d="M 678 2272 
L 4684 2272 
L 4684 1741 
L 678 1741 
L 678 2272 
z
" transform="scale(0.015625)"/>
       </defs>
       <use xlink:href="#DejaVuSans-2212"/>
       <use xlink:href="#DejaVuSans-32" x="83.789062"/>
       <use xlink:href="#DejaVuSans-30" x="147.412109"/>
       <use xlink:href="#DejaVuSans-30" x="211.035156"/>
       <use xlink:href="#DejaVuSans-30" x="274.658203"/>
      </g>
     </g>
    </g>
    <g id="ytick_2">
     <g id="line2d_7">
      <g>
       <use xlink:href="#m6e61bb0491" x="85.605625" y="177.874043" style="stroke: #000000; stroke-width: 0.8"/>
      </g>
     </g>
     <g id="text_8">
      <!-- −1000 -->
      <g transform="translate(24.478125 183.952793) scale(0.16 -0.16)">
       <use xlink:href="#DejaVuSans-2212"/>
       <use xlink:href="#DejaVuSans-31" x="83.789062"/>
       <use xlink:href="#DejaVuSans-30" x="147.412109"/>
       <use xlink:href="#DejaVuSans-30" x="211.035156"/>
       <use xlink:href="#DejaVuSans-30" x="274.658203"/>
      </g>
     </g>
    </g>
    <g id="ytick_3">
     <g id="line2d_8">
      <g>
       <use xlink:href="#m6e61bb0491" x="85.605625" y="126.402563" style="stroke: #000000; stroke-width: 0.8"/>
      </g>
     </g>
     <g id="text_9">
      <!-- 0 -->
      <g transform="translate(68.425625 132.481313) scale(0.16 -0.16)">
       <use xlink:href="#DejaVuSans-30"/>
      </g>
     </g>
    </g>
    <g id="ytick_4">
     <g id="line2d_9">
      <g>
       <use xlink:href="#m6e61bb0491" x="85.605625" y="74.931083" style="stroke: #000000; stroke-width: 0.8"/>
      </g>
     </g>
     <g id="text_10">
      <!-- 1000 -->
      <g transform="translate(37.885625 81.009833) scale(0.16 -0.16)">
       <use xlink:href="#DejaVuSans-31"/>
       <use xlink:href="#DejaVuSans-30" x="63.623047"/>
       <use xlink:href="#DejaVuSans-30" x="127.246094"/>
       <use xlink:href="#DejaVuSans-30" x="190.869141"/>
      </g>
     </g>
    </g>
    <g id="ytick_5">
     <g id="line2d_10">
      <g>
       <use xlink:href="#m6e61bb0491" x="85.605625" y="23.459603" style="stroke: #000000; stroke-width: 0.8"/>
      </g>
     </g>
     <g id="text_11">
      <!-- 2000 -->
      <g transform="translate(37.885625 29.538353) scale(0.16 -0.16)">
       <use xlink:href="#DejaVuSans-32"/>
       <use xlink:href="#DejaVuSans-30" x="63.623047"/>
       <use xlink:href="#DejaVuSans-30" x="127.246094"/>
       <use xlink:href="#DejaVuSans-30" x="190.869141"/>
      </g>
     </g>
    </g>
    <g id="text_12">
     <!-- RW Speed (RPM)  -->
     <g transform="translate(18.398438 169.284062) rotate(-90) scale(0.1 -0.1)">
      <defs>
       <path id="DejaVuSans-52" d="M 2841 2188 
Q 3044 2119 3236 1894 
Q 3428 1669 3622 1275 
L 4263 0 
L 3584 0 
L 2988 1197 
Q 2756 1666 2539 1819 
Q 2322 1972 1947 1972 
L 1259 1972 
L 1259 0 
L 628 0 
L 628 4666 
L 2053 4666 
Q 2853 4666 3247 4331 
Q 3641 3997 3641 3322 
Q 3641 2881 3436 2590 
Q 3231 2300 2841 2188 
z
M 1259 4147 
L 1259 2491 
L 2053 2491 
Q 2509 2491 2742 2702 
Q 2975 2913 2975 3322 
Q 2975 3731 2742 3939 
Q 2509 4147 2053 4147 
L 1259 4147 
z
" transform="scale(0.015625)"/>
       <path id="DejaVuSans-57" d="M 213 4666 
L 850 4666 
L 1831 722 
L 2809 4666 
L 3519 4666 
L 4500 722 
L 5478 4666 
L 6119 4666 
L 4947 0 
L 4153 0 
L 3169 4050 
L 2175 0 
L 1381 0 
L 213 4666 
z
" transform="scale(0.015625)"/>
       <path id="DejaVuSans-53" d="M 3425 4513 
L 3425 3897 
Q 3066 4069 2747 4153 
Q 2428 4238 2131 4238 
Q 1616 4238 1336 4038 
Q 1056 3838 1056 3469 
Q 1056 3159 1242 3001 
Q 1428 2844 1947 2747 
L 2328 2669 
Q 3034 2534 3370 2195 
Q 3706 1856 3706 1288 
Q 3706 609 3251 259 
Q 2797 -91 1919 -91 
Q 1588 -91 1214 -16 
Q 841 59 441 206 
L 441 856 
Q 825 641 1194 531 
Q 1563 422 1919 422 
Q 2459 422 2753 634 
Q 3047 847 3047 1241 
Q 3047 1584 2836 1778 
Q 2625 1972 2144 2069 
L 1759 2144 
Q 1053 2284 737 2584 
Q 422 2884 422 3419 
Q 422 4038 858 4394 
Q 1294 4750 2059 4750 
Q 2388 4750 2728 4690 
Q 3069 4631 3425 4513 
z
" transform="scale(0.015625)"/>
       <path id="DejaVuSans-70" d="M 1159 525 
L 1159 -1331 
L 581 -1331 
L 581 3500 
L 1159 3500 
L 1159 2969 
Q 1341 3281 1617 3432 
Q 1894 3584 2278 3584 
Q 2916 3584 3314 3078 
Q 3713 2572 3713 1747 
Q 3713 922 3314 415 
Q 2916 -91 2278 -91 
Q 1894 -91 1617 61 
Q 1341 213 1159 525 
z
M 3116 1747 
Q 3116 2381 2855 2742 
Q 2594 3103 2138 3103 
Q 1681 3103 1420 2742 
Q 1159 2381 1159 1747 
Q 1159 1113 1420 752 
Q 1681 391 2138 391 
Q 2594 391 2855 752 
Q 3116 1113 3116 1747 
z
" transform="scale(0.015625)"/>
       <path id="DejaVuSans-64" d="M 2906 2969 
L 2906 4863 
L 3481 4863 
L 3481 0 
L 2906 0 
L 2906 525 
Q 2725 213 2448 61 
Q 2172 -91 1784 -91 
Q 1150 -91 751 415 
Q 353 922 353 1747 
Q 353 2572 751 3078 
Q 1150 3584 1784 3584 
Q 2172 3584 2448 3432 
Q 2725 3281 2906 2969 
z
M 947 1747 
Q 947 1113 1208 752 
Q 1469 391 1925 391 
Q 2381 391 2643 752 
Q 2906 1113 2906 1747 
Q 2906 2381 2643 2742 
Q 2381 3103 1925 3103 
Q 1469 3103 1208 2742 
Q 947 2381 947 1747 
z
" transform="scale(0.015625)"/>
       <path id="DejaVuSans-28" d="M 1984 4856 
Q 1566 4138 1362 3434 
Q 1159 2731 1159 2009 
Q 1159 1288 1364 580 
Q 1569 -128 1984 -844 
L 1484 -844 
Q 1016 -109 783 600 
Q 550 1309 550 2009 
Q 550 2706 781 3412 
Q 1013 4119 1484 4856 
L 1984 4856 
z
" transform="scale(0.015625)"/>
       <path id="DejaVuSans-50" d="M 1259 4147 
L 1259 2394 
L 2053 2394 
Q 2494 2394 2734 2622 
Q 2975 2850 2975 3272 
Q 2975 3691 2734 3919 
Q 2494 4147 2053 4147 
L 1259 4147 
z
M 628 4666 
L 2053 4666 
Q 2838 4666 3239 4311 
Q 3641 3956 3641 3272 
Q 3641 2581 3239 2228 
Q 2838 1875 2053 1875 
L 1259 1875 
L 1259 0 
L 628 0 
L 628 4666 
z
" transform="scale(0.015625)"/>
       <path id="DejaVuSans-4d" d="M 628 4666 
L 1569 4666 
L 2759 1491 
L 3956 4666 
L 4897 4666 
L 4897 0 
L 4281 0 
L 4281 4097 
L 3078 897 
L 2444 897 
L 1241 4097 
L 1241 0 
L 628 0 
L 628 4666 
z
" transform="scale(0.015625)"/>
       <path id="DejaVuSans-29" d="M 513 4856 
L 1013 4856 
Q 1481 4119 1714 3412 
Q 1947 2706 1947 2009 
Q 1947 1309 1714 600 
Q 1481 -109 1013 -844 
L 513 -844 
Q 928 -128 1133 580 
Q 1338 1288 1338 2009 
Q 1338 2731 1133 3434 
Q 928 4138 513 4856 
z
" transform="scale(0.015625)"/>
      </defs>
      <use xlink:href="#DejaVuSans-52"/>
      <use xlink:href="#DejaVuSans-57" x="65.482422"/>
      <use xlink:href="#DejaVuSans-20" x="164.359375"/>
      <use xlink:href="#DejaVuSans-53" x="196.146484"/>
      <use xlink:href="#DejaVuSans-70" x="259.623047"/>
      <use xlink:href="#DejaVuSans-65" x="323.099609"/>
      <use xlink:href="#DejaVuSans-65" x="384.623047"/>
      <use xlink:href="#DejaVuSans-64" x="446.146484"/>
      <use xlink:href="#DejaVuSans-20" x="509.623047"/>
      <use xlink:href="#DejaVuSans-28" x="541.410156"/>
      <use xlink:href="#DejaVuSans-52" x="580.423828"/>
      <use xlink:href="#DejaVuSans-50" x="649.90625"/>
      <use xlink:href="#DejaVuSans-4d" x="710.208984"/>
      <use xlink:href="#DejaVuSans-29" x="796.488281"/>
      <use xlink:href="#DejaVuSans-20" x="835.501953"/>
     </g>
    </g>
   </g>
   <g id="line2d_11">
    <path d="M 100.041733 121.255415 
L 102.958118 103.33912 
L 105.874504 99.196106 
L 108.790889 103.941201 
L 111.707275 111.016378 
L 114.62366 117.409835 
L 117.540046 120.330857 
L 120.456431 121.503103 
L 123.372817 124.178788 
L 126.289202 129.231161 
L 129.205587 135.195903 
L 132.121973 139.813023 
L 135.038358 141.933265 
L 137.954744 141.875492 
L 140.871129 140.687233 
L 143.787515 139.368424 
L 146.7039 138.480426 
L 149.620286 138.135226 
L 152.536671 138.178872 
L 155.453056 138.389458 
L 158.369442 138.598697 
L 161.285827 138.727893 
L 164.202213 138.769771 
L 167.118598 138.7526 
L 170.034984 138.710213 
L 172.951369 138.666267 
L 175.867755 138.63097 
L 178.78414 138.604655 
L 181.700525 138.583091 
L 184.616911 138.561568 
L 187.533296 138.536912 
L 190.449682 138.507812 
L 193.366067 138.474278 
L 196.282453 138.436914 
L 199.198838 138.396365 
L 202.115224 138.353065 
L 205.031609 138.307196 
L 207.947994 138.258764 
L 210.86438 138.207698 
L 213.780765 138.153926 
L 216.697151 138.097404 
L 219.613536 138.038122 
L 222.529922 137.976095 
L 225.446307 137.911348 
L 228.362693 137.843909 
L 231.279078 137.7738 
L 234.195463 137.70104 
L 237.111849 137.625647 
L 240.028234 137.547636 
L 242.94462 137.467025 
L 245.861005 137.38383 
L 248.777391 137.298072 
L 251.693776 137.20977 
L 254.610162 137.118945 
L 257.526547 137.025618 
L 260.442932 136.929811 
L 263.359318 136.831547 
L 266.275703 136.730849 
L 269.192089 136.62774 
L 272.108474 136.522243 
L 275.02486 136.414385 
L 277.941245 136.30419 
L 280.857631 136.191683 
L 283.774016 136.076891 
L 286.690401 135.959841 
L 289.606787 135.84056 
L 292.523172 135.719075 
L 295.439558 135.595416 
L 298.355943 135.469611 
L 301.272329 135.34169 
L 304.188714 135.211681 
L 307.1051 135.079617 
L 310.021485 134.945527 
L 312.93787 134.809443 
L 315.854256 134.671396 
L 318.770641 134.531419 
L 321.687027 134.389545 
L 324.603412 134.245806 
L 327.519798 134.100236 
L 330.436183 133.95287 
L 333.352569 133.803741 
L 336.268954 133.652884 
L 339.185339 133.500335 
L 342.101725 133.346129 
L 345.01811 133.190302 
L 347.934496 133.03289 
L 350.850881 132.873931 
L 353.767267 132.713462 
L 356.683652 132.551519 
L 359.600038 132.388141 
L 362.516423 132.223365 
L 365.432808 132.057231 
L 368.349194 131.889777 
L 371.265579 131.721042 
L 374.181965 131.551065 
L 377.09835 131.379887 
L 380.014736 131.207546 
L 382.931121 131.034084 
L 385.847507 130.859541 
L 388.763892 130.683958 
" clip-path="url(#p82b6b06b74)" style="fill: none; stroke: #2b737e; stroke-width: 1.5; stroke-linecap: square"/>
   </g>
   <g id="line2d_12">
    <path d="M 100.041733 116.108267 
L 102.958118 146.00584 
L 105.874504 175.903258 
L 108.790889 205.800268 
L 111.707275 230.571562 
L 114.62366 211.762843 
L 117.540046 181.864953 
L 120.456431 151.967292 
L 123.372817 130.086753 
L 126.289202 124.878211 
L 129.205587 127.812198 
L 132.121973 132.462405 
L 135.038358 136.10557 
L 137.954744 138.165202 
L 140.871129 138.935961 
L 143.787515 138.942748 
L 146.7039 138.644986 
L 149.620286 138.330866 
L 152.536671 138.123132 
L 155.453056 138.034169 
L 158.369442 138.026074 
L 161.285827 138.053541 
L 164.202213 138.08478 
L 167.118598 138.105473 
L 170.034984 138.113927 
L 172.951369 138.11425 
L 175.867755 138.111288 
L 178.78414 138.108261 
L 181.700525 138.10645 
L 184.616911 138.105852 
L 187.533296 138.105961 
L 190.449682 138.106287 
L 193.366067 138.106549 
L 196.282453 138.10667 
L 199.198838 138.106683 
L 202.115224 138.10665 
L 205.031609 138.106616 
L 207.947994 138.106599 
L 210.86438 138.106598 
L 213.780765 138.106605 
L 216.697151 138.106611 
L 219.613536 138.106615 
L 222.529922 138.106615 
L 225.446307 138.106614 
L 228.362693 138.106613 
L 231.279078 138.106612 
L 234.195463 138.106612 
L 237.111849 138.106612 
L 240.028234 138.106613 
L 242.94462 138.106613 
L 245.861005 138.106614 
L 248.777391 138.106614 
L 251.693776 138.106614 
L 254.610162 138.106614 
L 257.526547 138.106615 
L 260.442932 138.106615 
L 263.359318 138.106615 
L 266.275703 138.106615 
L 269.192089 138.106616 
L 272.108474 138.106616 
L 275.02486 138.106616 
L 277.941245 138.106616 
L 280.857631 138.106617 
L 283.774016 138.106617 
L 286.690401 138.106617 
L 289.606787 138.106617 
L 292.523172 138.106617 
L 295.439558 138.106618 
L 298.355943 138.106618 
L 301.272329 138.106618 
L 304.188714 138.106618 
L 307.1051 138.106618 
L 310.021485 138.106619 
L 312.93787 138.106619 
L 315.854256 138.106619 
L 318.770641 138.106619 
L 321.687027 138.106619 
L 324.603412 138.10662 
L 327.519798 138.10662 
L 330.436183 138.10662 
L 333.352569 138.10662 
L 336.268954 138.10662 
L 339.185339 138.10662 
L 342.101725 138.106621 
L 345.01811 138.106621 
L 347.934496 138.106621 
L 350.850881 138.106621 
L 353.767267 138.106621 
L 356.683652 138.106621 
L 359.600038 138.106621 
L 362.516423 138.106622 
L 365.432808 138.106622 
L 368.349194 138.106622 
L 371.265579 138.106622 
L 374.181965 138.106622 
L 377.09835 138.106622 
L 380.014736 138.106622 
L 382.931121 138.106622 
L 385.847507 138.106623 
L 388.763892 138.106623 
" clip-path="url(#p82b6b06b74)" style="fill: none; stroke: #5ea04b; stroke-width: 1.5; stroke-linecap: square"/>
   </g>
   <g id="line2d_13">
    <path d="M 100.041733 110.961119 
L 102.958118 81.062622 
L 105.874504 51.164154 
L 108.790889 21.265312 
L 111.707275 31.583256 
L 114.62366 61.48092 
L 117.540046 91.379067 
L 120.456431 121.277507 
L 123.372817 151.176048 
L 126.289202 162.940724 
L 129.205587 150.641777 
L 132.121973 136.511013 
L 135.038358 128.179107 
L 137.954744 125.298935 
L 140.871129 125.280995 
L 143.787515 126.05685 
L 146.7039 126.65734 
L 149.620286 126.873114 
L 152.536671 126.808205 
L 155.453056 126.610589 
L 158.369442 126.376842 
L 161.285827 126.148685 
L 164.202213 125.935998 
L 167.118598 125.736387 
L 170.034984 125.545099 
L 172.951369 125.358281 
L 175.867755 125.173398 
L 178.78414 124.988964 
L 181.700525 124.804264 
L 184.616911 124.619136 
L 187.533296 124.433756 
L 190.449682 124.248438 
L 193.366067 124.063481 
L 196.282453 123.879098 
L 199.198838 123.695401 
L 202.115224 123.512433 
L 205.031609 123.330202 
L 207.947994 123.148714 
L 210.86438 122.967985 
L 213.780765 122.788045 
L 216.697151 122.608936 
L 219.613536 122.430704 
L 222.529922 122.253395 
L 225.446307 122.077055 
L 228.362693 121.901725 
L 231.279078 121.727449 
L 234.195463 121.554264 
L 237.111849 121.382212 
L 240.028234 121.211332 
L 242.94462 121.041663 
L 245.861005 120.873246 
L 248.777391 120.706119 
L 251.693776 120.540322 
L 254.610162 120.375893 
L 257.526547 120.212872 
L 260.442932 120.051295 
L 263.359318 119.8912 
L 266.275703 119.732626 
L 269.192089 119.575609 
L 272.108474 119.420185 
L 275.02486 119.266391 
L 277.941245 119.114263 
L 280.857631 118.963836 
L 283.774016 118.815146 
L 286.690401 118.668227 
L 289.606787 118.523113 
L 292.523172 118.379839 
L 295.439558 118.238438 
L 298.355943 118.098942 
L 301.272329 117.961384 
L 304.188714 117.825797 
L 307.1051 117.692212 
L 310.021485 117.560661 
L 312.93787 117.431173 
L 315.854256 117.30378 
L 318.770641 117.17851 
L 321.687027 117.055394 
L 324.603412 116.934459 
L 327.519798 116.815735 
L 330.436183 116.699249 
L 333.352569 116.585027 
L 336.268954 116.473098 
L 339.185339 116.363486 
L 342.101725 116.256218 
L 345.01811 116.151318 
L 347.934496 116.048811 
L 350.850881 115.948722 
L 353.767267 115.851072 
L 356.683652 115.755885 
L 359.600038 115.663184 
L 362.516423 115.57299 
L 365.432808 115.485323 
L 368.349194 115.400205 
L 371.265579 115.317656 
L 374.181965 115.237694 
L 377.09835 115.160338 
L 380.014736 115.085606 
L 382.931121 115.013516 
L 385.847507 114.944085 
L 388.763892 114.877329 
" clip-path="url(#p82b6b06b74)" style="fill: none; stroke: #bdab62; stroke-width: 1.5; stroke-linecap: square"/>
   </g>
   <g id="patch_3">
    <path d="M 85.605625 241.036875 
L 85.605625 10.8 
" style="fill: none; stroke: #000000; stroke-width: 0.8; stroke-linejoin: miter; stroke-linecap: square"/>
   </g>
   <g id="patch_4">
    <path d="M 403.2 241.036875 
L 403.2 10.8 
" style="fill: none; stroke: #000000; stroke-width: 0.8; stroke-linejoin: miter; stroke-linecap: square"/>
   </g>
   <g id="patch_5">
    <path d="M 85.605625 241.036875 
L 403.2 241.036875 
" style="fill: none; stroke: #000000; stroke-width: 0.8; stroke-linejoin: miter; stroke-linecap: square"/>
   </g>
   <g id="patch_6">
    <path d="M 85.605625 10.8 
L 403.2 10.8 
" style="fill: none; stroke: #000000; stroke-width: 0.8; stroke-linejoin: miter; stroke-linecap: square"/>
   </g>
   <g id="legend_1">
    <g id="patch_7">
     <path d="M 356.85 236.536875 
L 396.9 236.536875 
Q 398.7 236.536875 398.7 234.736875 
L 398.7 196.005938 
Q 398.7 194.205938 396.9 194.205938 
L 356.85 194.205938 
Q 355.05 194.205938 355.05 196.005938 
L 355.05 234.736875 
Q 355.05 236.536875 356.85 236.536875 
z
" style="fill: #ffffff; opacity: 0.8; stroke: #cccccc; stroke-linejoin: miter"/>
    </g>
    <g id="line2d_14">
     <path d="M 358.65 201.494531 
L 367.65 201.494531 
L 376.65 201.494531 
" style="fill: none; stroke: #2b737e; stroke-width: 1.5; stroke-linecap: square"/>
    </g>
    <g id="text_13">
     <!-- $\Omega_{0}$ -->
     <g transform="translate(383.85 204.644531) scale(0.09 -0.09)">
      <defs>
       <path id="DejaVuSans-3a9" d="M 4647 556 
L 4647 0 
L 2772 0 
L 2772 556 
Q 3325 859 3634 1378 
Q 3944 1897 3944 2528 
Q 3944 3278 3531 3731 
Q 3119 4184 2444 4184 
Q 1769 4184 1355 3729 
Q 941 3275 941 2528 
Q 941 1897 1250 1378 
Q 1563 859 2119 556 
L 2119 0 
L 244 0 
L 244 556 
L 1241 556 
Q 747 991 519 1456 
Q 294 1922 294 2497 
Q 294 3491 894 4106 
Q 1491 4722 2444 4722 
Q 3391 4722 3994 4106 
Q 4594 3494 4594 2528 
Q 4594 1922 4372 1459 
Q 4150 997 3647 556 
L 4647 556 
z
" transform="scale(0.015625)"/>
      </defs>
      <use xlink:href="#DejaVuSans-3a9" transform="translate(0 0.21875)"/>
      <use xlink:href="#DejaVuSans-30" transform="translate(77.373047 -16.1875) scale(0.7)"/>
     </g>
    </g>
    <g id="line2d_15">
     <path d="M 358.65 214.704844 
L 367.65 214.704844 
L 376.65 214.704844 
" style="fill: none; stroke: #5ea04b; stroke-width: 1.5; stroke-linecap: square"/>
    </g>
    <g id="text_14">
     <!-- $\Omega_{1}$ -->
     <g transform="translate(383.85 217.854844) scale(0.09 -0.09)">
      <use xlink:href="#DejaVuSans-3a9" transform="translate(0 0.21875)"/>
      <use xlink:href="#DejaVuSans-31" transform="translate(77.373047 -16.1875) scale(0.7)"/>
     </g>
    </g>
    <g id="line2d_16">
     <path d="M 358.65 227.915156 
L 367.65 227.915156 
L 376.65 227.915156 
" style="fill: none; stroke: #bdab62; stroke-width: 1.5; stroke-linecap: square"/>
    </g>
    <g id="text_15">
     <!-- $\Omega_{2}$ -->
     <g transform="translate(383.85 231.065156) scale(0.09 -0.09)">
      <use xlink:href="#DejaVuSans-3a9" transform="translate(0 0.21875)"/>
      <use xlink:href="#DejaVuSans-32" transform="translate(77.373047 -16.1875) scale(0.7)"/>
     </g>
    </g>
   </g>
  </g>
 </g>
 <defs>
  <clipPath id="p82b6b06b74">
   <rect x="85.605625" y="10.8" width="317.594375" height="230.236875"/>
  </clipPath>
 </defs>
</svg>
