<?xml version="1.0" encoding="utf-8" standalone="no"?>
<!DOCTYPE svg PUBLIC "-//W3C//DTD SVG 1.1//EN"
  "http://www.w3.org/Graphics/SVG/1.1/DTD/svg11.dtd">
<svg xmlns:xlink="http://www.w3.org/1999/xlink" width="414pt" height="288pt" viewBox="0 0 414 288" xmlns="http://www.w3.org/2000/svg" version="1.1">
 <metadata>
  <rdf:RDF xmlns:dc="http://purl.org/dc/elements/1.1/" xmlns:cc="http://creativecommons.org/ns#" xmlns:rdf="http://www.w3.org/1999/02/22-rdf-syntax-ns#">
   <cc:Work>
    <dc:type rdf:resource="http://purl.org/dc/dcmitype/StillImage"/>
    <dc:date>2023-09-07T00:35:35.178001</dc:date>
    <dc:format>image/svg+xml</dc:format>
    <dc:creator>
     <cc:Agent>
      <dc:title>Matplotlib v3.7.2, https://matplotlib.org/</dc:title>
     </cc:Agent>
    </dc:creator>
   </cc:Work>
  </rdf:RDF>
 </metadata>
 <defs>
  <style type="text/css">*{stroke-linejoin: round; stroke-linecap: butt}</style>
 </defs>
 <g id="figure_1">
  <g id="patch_1">
   <path d="M 0 288 
L 414 288 
L 414 0 
L 0 0 
L 0 288 
z
" style="fill: none"/>
  </g>
  <g id="axes_1">
   <g id="patch_2">
    <path d="M 80.510625 236.23 
L 403.2 236.23 
L 403.2 10.8 
L 80.510625 10.8 
L 80.510625 236.23 
z
" style="fill: none"/>
   </g>
   <g id="matplotlib.axis_1">
    <g id="xtick_1">
     <g id="line2d_1">
      <path d="M 95.097264 236.23 
L 95.097264 10.8 
" clip-path="url(#p6247d19d79)" style="fill: none; stroke: #b0b0b0; stroke-width: 0.8; stroke-linecap: square"/>
     </g>
     <g id="line2d_2">
      <defs>
       <path id="m4d94931498" d="M 0 0 
L 0 3.5 
" style="stroke: #000000; stroke-width: 0.8"/>
      </defs>
      <g>
       <use xlink:href="#m4d94931498" x="95.097264" y="236.23" style="stroke: #000000; stroke-width: 0.8"/>
      </g>
     </g>
     <g id="text_1">
      <!-- 0.0 -->
      <g transform="translate(82.374764 255.3875) scale(0.16 -0.16)">
       <defs>
        <path id="DejaVuSans-30" d="M 2034 4250 
Q 1547 4250 1301 3770 
Q 1056 3291 1056 2328 
Q 1056 1369 1301 889 
Q 1547 409 2034 409 
Q 2525 409 2770 889 
Q 3016 1369 3016 2328 
Q 3016 3291 2770 3770 
Q 2525 4250 2034 4250 
z
M 2034 4750 
Q 2819 4750 3233 4129 
Q 3647 3509 3647 2328 
Q 3647 1150 3233 529 
Q 2819 -91 2034 -91 
Q 1250 -91 836 529 
Q 422 1150 422 2328 
Q 422 3509 836 4129 
Q 1250 4750 2034 4750 
z
" transform="scale(0.015625)"/>
        <path id="DejaVuSans-2e" d="M 684 794 
L 1344 794 
L 1344 0 
L 684 0 
L 684 794 
z
" transform="scale(0.015625)"/>
       </defs>
       <use xlink:href="#DejaVuSans-30"/>
       <use xlink:href="#DejaVuSans-2e" x="63.623047"/>
       <use xlink:href="#DejaVuSans-30" x="95.410156"/>
      </g>
     </g>
    </g>
    <g id="xtick_2">
     <g id="line2d_3">
      <path d="M 162.646766 236.23 
L 162.646766 10.8 
" clip-path="url(#p6247d19d79)" style="fill: none; stroke: #b0b0b0; stroke-width: 0.8; stroke-linecap: square"/>
     </g>
     <g id="line2d_4">
      <g>
       <use xlink:href="#m4d94931498" x="162.646766" y="236.23" style="stroke: #000000; stroke-width: 0.8"/>
      </g>
     </g>
     <g id="text_2">
      <!-- 0.5 -->
      <g transform="translate(149.924266 255.3875) scale(0.16 -0.16)">
       <defs>
        <path id="DejaVuSans-35" d="M 691 4666 
L 3169 4666 
L 3169 4134 
L 1269 4134 
L 1269 2991 
Q 1406 3038 1543 3061 
Q 1681 3084 1819 3084 
Q 2600 3084 3056 2656 
Q 3513 2228 3513 1497 
Q 3513 744 3044 326 
Q 2575 -91 1722 -91 
Q 1428 -91 1123 -41 
Q 819 9 494 109 
L 494 744 
Q 775 591 1075 516 
Q 1375 441 1709 441 
Q 2250 441 2565 725 
Q 2881 1009 2881 1497 
Q 2881 1984 2565 2268 
Q 2250 2553 1709 2553 
Q 1456 2553 1204 2497 
Q 953 2441 691 2322 
L 691 4666 
z
" transform="scale(0.015625)"/>
       </defs>
       <use xlink:href="#DejaVuSans-30"/>
       <use xlink:href="#DejaVuSans-2e" x="63.623047"/>
       <use xlink:href="#DejaVuSans-35" x="95.410156"/>
      </g>
     </g>
    </g>
    <g id="xtick_3">
     <g id="line2d_5">
      <path d="M 230.196268 236.23 
L 230.196268 10.8 
" clip-path="url(#p6247d19d79)" style="fill: none; stroke: #b0b0b0; stroke-width: 0.8; stroke-linecap: square"/>
     </g>
     <g id="line2d_6">
      <g>
       <use xlink:href="#m4d94931498" x="230.196268" y="236.23" style="stroke: #000000; stroke-width: 0.8"/>
      </g>
     </g>
     <g id="text_3">
      <!-- 1.0 -->
      <g transform="translate(217.473768 255.3875) scale(0.16 -0.16)">
       <defs>
        <path id="DejaVuSans-31" d="M 794 531 
L 1825 531 
L 1825 4091 
L 703 3866 
L 703 4441 
L 1819 4666 
L 2450 4666 
L 2450 531 
L 3481 531 
L 3481 0 
L 794 0 
L 794 531 
z
" transform="scale(0.015625)"/>
       </defs>
       <use xlink:href="#DejaVuSans-31"/>
       <use xlink:href="#DejaVuSans-2e" x="63.623047"/>
       <use xlink:href="#DejaVuSans-30" x="95.410156"/>
      </g>
     </g>
    </g>
    <g id="xtick_4">
     <g id="line2d_7">
      <path d="M 297.74577 236.23 
L 297.74577 10.8 
" clip-path="url(#p6247d19d79)" style="fill: none; stroke: #b0b0b0; stroke-width: 0.8; stroke-linecap: square"/>
     </g>
     <g id="line2d_8">
      <g>
       <use xlink:href="#m4d94931498" x="297.74577" y="236.23" style="stroke: #000000; stroke-width: 0.8"/>
      </g>
     </g>
     <g id="text_4">
      <!-- 1.5 -->
      <g transform="translate(285.02327 255.3875) scale(0.16 -0.16)">
       <use xlink:href="#DejaVuSans-31"/>
       <use xlink:href="#DejaVuSans-2e" x="63.623047"/>
       <use xlink:href="#DejaVuSans-35" x="95.410156"/>
      </g>
     </g>
    </g>
    <g id="xtick_5">
     <g id="line2d_9">
      <path d="M 365.295272 236.23 
L 365.295272 10.8 
" clip-path="url(#p6247d19d79)" style="fill: none; stroke: #b0b0b0; stroke-width: 0.8; stroke-linecap: square"/>
     </g>
     <g id="line2d_10">
      <g>
       <use xlink:href="#m4d94931498" x="365.295272" y="236.23" style="stroke: #000000; stroke-width: 0.8"/>
      </g>
     </g>
     <g id="text_5">
      <!-- 2.0 -->
      <g transform="translate(352.572772 255.3875) scale(0.16 -0.16)">
       <defs>
        <path id="DejaVuSans-32" d="M 1228 531 
L 3431 531 
L 3431 0 
L 469 0 
L 469 531 
Q 828 903 1448 1529 
Q 2069 2156 2228 2338 
Q 2531 2678 2651 2914 
Q 2772 3150 2772 3378 
Q 2772 3750 2511 3984 
Q 2250 4219 1831 4219 
Q 1534 4219 1204 4116 
Q 875 4013 500 3803 
L 500 4441 
Q 881 4594 1212 4672 
Q 1544 4750 1819 4750 
Q 2544 4750 2975 4387 
Q 3406 4025 3406 3419 
Q 3406 3131 3298 2873 
Q 3191 2616 2906 2266 
Q 2828 2175 2409 1742 
Q 1991 1309 1228 531 
z
" transform="scale(0.015625)"/>
       </defs>
       <use xlink:href="#DejaVuSans-32"/>
       <use xlink:href="#DejaVuSans-2e" x="63.623047"/>
       <use xlink:href="#DejaVuSans-30" x="95.410156"/>
      </g>
     </g>
    </g>
    <g id="text_6">
     <!-- Time -->
     <g transform="translate(229.621719 270.313438) scale(0.1 -0.1)">
      <defs>
       <path id="DejaVuSans-54" d="M -19 4666 
L 3928 4666 
L 3928 4134 
L 2272 4134 
L 2272 0 
L 1638 0 
L 1638 4134 
L -19 4134 
L -19 4666 
z
" transform="scale(0.015625)"/>
       <path id="DejaVuSans-69" d="M 603 3500 
L 1178 3500 
L 1178 0 
L 603 0 
L 603 3500 
z
M 603 4863 
L 1178 4863 
L 1178 4134 
L 603 4134 
L 603 4863 
z
" transform="scale(0.015625)"/>
       <path id="DejaVuSans-6d" d="M 3328 2828 
Q 3544 3216 3844 3400 
Q 4144 3584 4550 3584 
Q 5097 3584 5394 3201 
Q 5691 2819 5691 2113 
L 5691 0 
L 5113 0 
L 5113 2094 
Q 5113 2597 4934 2840 
Q 4756 3084 4391 3084 
Q 3944 3084 3684 2787 
Q 3425 2491 3425 1978 
L 3425 0 
L 2847 0 
L 2847 2094 
Q 2847 2600 2669 2842 
Q 2491 3084 2119 3084 
Q 1678 3084 1418 2786 
Q 1159 2488 1159 1978 
L 1159 0 
L 581 0 
L 581 3500 
L 1159 3500 
L 1159 2956 
Q 1356 3278 1631 3431 
Q 1906 3584 2284 3584 
Q 2666 3584 2933 3390 
Q 3200 3197 3328 2828 
z
" transform="scale(0.015625)"/>
       <path id="DejaVuSans-65" d="M 3597 1894 
L 3597 1613 
L 953 1613 
Q 991 1019 1311 708 
Q 1631 397 2203 397 
Q 2534 397 2845 478 
Q 3156 559 3463 722 
L 3463 178 
Q 3153 47 2828 -22 
Q 2503 -91 2169 -91 
Q 1331 -91 842 396 
Q 353 884 353 1716 
Q 353 2575 817 3079 
Q 1281 3584 2069 3584 
Q 2775 3584 3186 3129 
Q 3597 2675 3597 1894 
z
M 3022 2063 
Q 3016 2534 2758 2815 
Q 2500 3097 2075 3097 
Q 1594 3097 1305 2825 
Q 1016 2553 972 2059 
L 3022 2063 
z
" transform="scale(0.015625)"/>
      </defs>
      <use xlink:href="#DejaVuSans-54"/>
      <use xlink:href="#DejaVuSans-69" x="57.958984"/>
      <use xlink:href="#DejaVuSans-6d" x="85.742188"/>
      <use xlink:href="#DejaVuSans-65" x="183.154297"/>
     </g>
    </g>
    <g id="text_7">
     <!-- 1e14 -->
     <g transform="translate(362.815 273.8725) scale(0.16 -0.16)">
      <defs>
       <path id="DejaVuSans-34" d="M 2419 4116 
L 825 1625 
L 2419 1625 
L 2419 4116 
z
M 2253 4666 
L 3047 4666 
L 3047 1625 
L 3713 1625 
L 3713 1100 
L 3047 1100 
L 3047 0 
L 2419 0 
L 2419 1100 
L 313 1100 
L 313 1709 
L 2253 4666 
z
" transform="scale(0.015625)"/>
      </defs>
      <use xlink:href="#DejaVuSans-31"/>
      <use xlink:href="#DejaVuSans-65" x="63.623047"/>
      <use xlink:href="#DejaVuSans-31" x="125.146484"/>
      <use xlink:href="#DejaVuSans-34" x="188.769531"/>
     </g>
    </g>
   </g>
   <g id="matplotlib.axis_2">
    <g id="ytick_1">
     <g id="line2d_11">
      <path d="M 80.510625 200.729378 
L 403.2 200.729378 
" clip-path="url(#p6247d19d79)" style="fill: none; stroke: #b0b0b0; stroke-width: 0.8; stroke-linecap: square"/>
     </g>
     <g id="line2d_12">
      <defs>
       <path id="m7c188d1d49" d="M 0 0 
L -3.5 0 
" style="stroke: #000000; stroke-width: 0.8"/>
      </defs>
      <g>
       <use xlink:href="#m7c188d1d49" x="80.510625" y="200.729378" style="stroke: #000000; stroke-width: 0.8"/>
      </g>
     </g>
     <g id="text_8">
      <!-- −0.01 -->
      <g transform="translate(24.478125 206.808128) scale(0.16 -0.16)">
       <defs>
        <path id="DejaVuSans-2212" d="M 678 2272 
L 4684 2272 
L 4684 1741 
L 678 1741 
L 678 2272 
z
" transform="scale(0.015625)"/>
       </defs>
       <use xlink:href="#DejaVuSans-2212"/>
       <use xlink:href="#DejaVuSans-30" x="83.789062"/>
       <use xlink:href="#DejaVuSans-2e" x="147.412109"/>
       <use xlink:href="#DejaVuSans-30" x="179.199219"/>
       <use xlink:href="#DejaVuSans-31" x="242.822266"/>
      </g>
     </g>
    </g>
    <g id="ytick_2">
     <g id="line2d_13">
      <path d="M 80.510625 157.643611 
L 403.2 157.643611 
" clip-path="url(#p6247d19d79)" style="fill: none; stroke: #b0b0b0; stroke-width: 0.8; stroke-linecap: square"/>
     </g>
     <g id="line2d_14">
      <g>
       <use xlink:href="#m7c188d1d49" x="80.510625" y="157.643611" style="stroke: #000000; stroke-width: 0.8"/>
      </g>
     </g>
     <g id="text_9">
      <!-- 0.00 -->
      <g transform="translate(37.885625 163.722361) scale(0.16 -0.16)">
       <use xlink:href="#DejaVuSans-30"/>
       <use xlink:href="#DejaVuSans-2e" x="63.623047"/>
       <use xlink:href="#DejaVuSans-30" x="95.410156"/>
       <use xlink:href="#DejaVuSans-30" x="159.033203"/>
      </g>
     </g>
    </g>
    <g id="ytick_3">
     <g id="line2d_15">
      <path d="M 80.510625 114.557845 
L 403.2 114.557845 
" clip-path="url(#p6247d19d79)" style="fill: none; stroke: #b0b0b0; stroke-width: 0.8; stroke-linecap: square"/>
     </g>
     <g id="line2d_16">
      <g>
       <use xlink:href="#m7c188d1d49" x="80.510625" y="114.557845" style="stroke: #000000; stroke-width: 0.8"/>
      </g>
     </g>
     <g id="text_10">
      <!-- 0.01 -->
      <g transform="translate(37.885625 120.636595) scale(0.16 -0.16)">
       <use xlink:href="#DejaVuSans-30"/>
       <use xlink:href="#DejaVuSans-2e" x="63.623047"/>
       <use xlink:href="#DejaVuSans-30" x="95.410156"/>
       <use xlink:href="#DejaVuSans-31" x="159.033203"/>
      </g>
     </g>
    </g>
    <g id="ytick_4">
     <g id="line2d_17">
      <path d="M 80.510625 71.472079 
L 403.2 71.472079 
" clip-path="url(#p6247d19d79)" style="fill: none; stroke: #b0b0b0; stroke-width: 0.8; stroke-linecap: square"/>
     </g>
     <g id="line2d_18">
      <g>
       <use xlink:href="#m7c188d1d49" x="80.510625" y="71.472079" style="stroke: #000000; stroke-width: 0.8"/>
      </g>
     </g>
     <g id="text_11">
      <!-- 0.02 -->
      <g transform="translate(37.885625 77.550829) scale(0.16 -0.16)">
       <use xlink:href="#DejaVuSans-30"/>
       <use xlink:href="#DejaVuSans-2e" x="63.623047"/>
       <use xlink:href="#DejaVuSans-30" x="95.410156"/>
       <use xlink:href="#DejaVuSans-32" x="159.033203"/>
      </g>
     </g>
    </g>
    <g id="ytick_5">
     <g id="line2d_19">
      <path d="M 80.510625 28.386313 
L 403.2 28.386313 
" clip-path="url(#p6247d19d79)" style="fill: none; stroke: #b0b0b0; stroke-width: 0.8; stroke-linecap: square"/>
     </g>
     <g id="line2d_20">
      <g>
       <use xlink:href="#m7c188d1d49" x="80.510625" y="28.386313" style="stroke: #000000; stroke-width: 0.8"/>
      </g>
     </g>
     <g id="text_12">
      <!-- 0.03 -->
      <g transform="translate(37.885625 34.465063) scale(0.16 -0.16)">
       <defs>
        <path id="DejaVuSans-33" d="M 2597 2516 
Q 3050 2419 3304 2112 
Q 3559 1806 3559 1356 
Q 3559 666 3084 287 
Q 2609 -91 1734 -91 
Q 1441 -91 1130 -33 
Q 819 25 488 141 
L 488 750 
Q 750 597 1062 519 
Q 1375 441 1716 441 
Q 2309 441 2620 675 
Q 2931 909 2931 1356 
Q 2931 1769 2642 2001 
Q 2353 2234 1838 2234 
L 1294 2234 
L 1294 2753 
L 1863 2753 
Q 2328 2753 2575 2939 
Q 2822 3125 2822 3475 
Q 2822 3834 2567 4026 
Q 2313 4219 1838 4219 
Q 1578 4219 1281 4162 
Q 984 4106 628 3988 
L 628 4550 
Q 988 4650 1302 4700 
Q 1616 4750 1894 4750 
Q 2613 4750 3031 4423 
Q 3450 4097 3450 3541 
Q 3450 3153 3228 2886 
Q 3006 2619 2597 2516 
z
" transform="scale(0.015625)"/>
       </defs>
       <use xlink:href="#DejaVuSans-30"/>
       <use xlink:href="#DejaVuSans-2e" x="63.623047"/>
       <use xlink:href="#DejaVuSans-30" x="95.410156"/>
       <use xlink:href="#DejaVuSans-33" x="159.033203"/>
      </g>
     </g>
    </g>
    <g id="text_13">
     <!-- Hill X Velocity (m/s) -->
     <g transform="translate(18.398438 172.311094) rotate(-90) scale(0.1 -0.1)">
      <defs>
       <path id="DejaVuSans-48" d="M 628 4666 
L 1259 4666 
L 1259 2753 
L 3553 2753 
L 3553 4666 
L 4184 4666 
L 4184 0 
L 3553 0 
L 3553 2222 
L 1259 2222 
L 1259 0 
L 628 0 
L 628 4666 
z
" transform="scale(0.015625)"/>
       <path id="DejaVuSans-6c" d="M 603 4863 
L 1178 4863 
L 1178 0 
L 603 0 
L 603 4863 
z
" transform="scale(0.015625)"/>
       <path id="DejaVuSans-20" transform="scale(0.015625)"/>
       <path id="DejaVuSans-58" d="M 403 4666 
L 1081 4666 
L 2241 2931 
L 3406 4666 
L 4084 4666 
L 2584 2425 
L 4184 0 
L 3506 0 
L 2194 1984 
L 872 0 
L 191 0 
L 1856 2491 
L 403 4666 
z
" transform="scale(0.015625)"/>
       <path id="DejaVuSans-56" d="M 1831 0 
L 50 4666 
L 709 4666 
L 2188 738 
L 3669 4666 
L 4325 4666 
L 2547 0 
L 1831 0 
z
" transform="scale(0.015625)"/>
       <path id="DejaVuSans-6f" d="M 1959 3097 
Q 1497 3097 1228 2736 
Q 959 2375 959 1747 
Q 959 1119 1226 758 
Q 1494 397 1959 397 
Q 2419 397 2687 759 
Q 2956 1122 2956 1747 
Q 2956 2369 2687 2733 
Q 2419 3097 1959 3097 
z
M 1959 3584 
Q 2709 3584 3137 3096 
Q 3566 2609 3566 1747 
Q 3566 888 3137 398 
Q 2709 -91 1959 -91 
Q 1206 -91 779 398 
Q 353 888 353 1747 
Q 353 2609 779 3096 
Q 1206 3584 1959 3584 
z
" transform="scale(0.015625)"/>
       <path id="DejaVuSans-63" d="M 3122 3366 
L 3122 2828 
Q 2878 2963 2633 3030 
Q 2388 3097 2138 3097 
Q 1578 3097 1268 2742 
Q 959 2388 959 1747 
Q 959 1106 1268 751 
Q 1578 397 2138 397 
Q 2388 397 2633 464 
Q 2878 531 3122 666 
L 3122 134 
Q 2881 22 2623 -34 
Q 2366 -91 2075 -91 
Q 1284 -91 818 406 
Q 353 903 353 1747 
Q 353 2603 823 3093 
Q 1294 3584 2113 3584 
Q 2378 3584 2631 3529 
Q 2884 3475 3122 3366 
z
" transform="scale(0.015625)"/>
       <path id="DejaVuSans-74" d="M 1172 4494 
L 1172 3500 
L 2356 3500 
L 2356 3053 
L 1172 3053 
L 1172 1153 
Q 1172 725 1289 603 
Q 1406 481 1766 481 
L 2356 481 
L 2356 0 
L 1766 0 
Q 1100 0 847 248 
Q 594 497 594 1153 
L 594 3053 
L 172 3053 
L 172 3500 
L 594 3500 
L 594 4494 
L 1172 4494 
z
" transform="scale(0.015625)"/>
       <path id="DejaVuSans-79" d="M 2059 -325 
Q 1816 -950 1584 -1140 
Q 1353 -1331 966 -1331 
L 506 -1331 
L 506 -850 
L 844 -850 
Q 1081 -850 1212 -737 
Q 1344 -625 1503 -206 
L 1606 56 
L 191 3500 
L 800 3500 
L 1894 763 
L 2988 3500 
L 3597 3500 
L 2059 -325 
z
" transform="scale(0.015625)"/>
       <path id="DejaVuSans-28" d="M 1984 4856 
Q 1566 4138 1362 3434 
Q 1159 2731 1159 2009 
Q 1159 1288 1364 580 
Q 1569 -128 1984 -844 
L 1484 -844 
Q 1016 -109 783 600 
Q 550 1309 550 2009 
Q 550 2706 781 3412 
Q 1013 4119 1484 4856 
L 1984 4856 
z
" transform="scale(0.015625)"/>
       <path id="DejaVuSans-2f" d="M 1625 4666 
L 2156 4666 
L 531 -594 
L 0 -594 
L 1625 4666 
z
" transform="scale(0.015625)"/>
       <path id="DejaVuSans-73" d="M 2834 3397 
L 2834 2853 
Q 2591 2978 2328 3040 
Q 2066 3103 1784 3103 
Q 1356 3103 1142 2972 
Q 928 2841 928 2578 
Q 928 2378 1081 2264 
Q 1234 2150 1697 2047 
L 1894 2003 
Q 2506 1872 2764 1633 
Q 3022 1394 3022 966 
Q 3022 478 2636 193 
Q 2250 -91 1575 -91 
Q 1294 -91 989 -36 
Q 684 19 347 128 
L 347 722 
Q 666 556 975 473 
Q 1284 391 1588 391 
Q 1994 391 2212 530 
Q 2431 669 2431 922 
Q 2431 1156 2273 1281 
Q 2116 1406 1581 1522 
L 1381 1569 
Q 847 1681 609 1914 
Q 372 2147 372 2553 
Q 372 3047 722 3315 
Q 1072 3584 1716 3584 
Q 2034 3584 2315 3537 
Q 2597 3491 2834 3397 
z
" transform="scale(0.015625)"/>
       <path id="DejaVuSans-29" d="M 513 4856 
L 1013 4856 
Q 1481 4119 1714 3412 
Q 1947 2706 1947 2009 
Q 1947 1309 1714 600 
Q 1481 -109 1013 -844 
L 513 -844 
Q 928 -128 1133 580 
Q 1338 1288 1338 2009 
Q 1338 2731 1133 3434 
Q 928 4138 513 4856 
z
" transform="scale(0.015625)"/>
      </defs>
      <use xlink:href="#DejaVuSans-48"/>
      <use xlink:href="#DejaVuSans-69" x="75.195312"/>
      <use xlink:href="#DejaVuSans-6c" x="102.978516"/>
      <use xlink:href="#DejaVuSans-6c" x="130.761719"/>
      <use xlink:href="#DejaVuSans-20" x="158.544922"/>
      <use xlink:href="#DejaVuSans-58" x="190.332031"/>
      <use xlink:href="#DejaVuSans-20" x="258.837891"/>
      <use xlink:href="#DejaVuSans-56" x="290.625"/>
      <use xlink:href="#DejaVuSans-65" x="351.283203"/>
      <use xlink:href="#DejaVuSans-6c" x="412.806641"/>
      <use xlink:href="#DejaVuSans-6f" x="440.589844"/>
      <use xlink:href="#DejaVuSans-63" x="501.771484"/>
      <use xlink:href="#DejaVuSans-69" x="556.751953"/>
      <use xlink:href="#DejaVuSans-74" x="584.535156"/>
      <use xlink:href="#DejaVuSans-79" x="623.744141"/>
      <use xlink:href="#DejaVuSans-20" x="682.923828"/>
      <use xlink:href="#DejaVuSans-28" x="714.710938"/>
      <use xlink:href="#DejaVuSans-6d" x="753.724609"/>
      <use xlink:href="#DejaVuSans-2f" x="851.136719"/>
      <use xlink:href="#DejaVuSans-73" x="884.828125"/>
      <use xlink:href="#DejaVuSans-29" x="936.927734"/>
     </g>
    </g>
   </g>
   <g id="line2d_21">
    <path d="M 95.178324 157.64361 
L 95.259383 157.726495 
L 95.421502 158.373332 
L 95.66468 160.516773 
L 96.069977 166.951381 
L 96.637393 180.548871 
L 98.096462 217.844033 
L 98.501759 223.067533 
L 98.744938 224.400211 
L 98.907056 224.494268 
L 99.069175 223.949498 
L 99.312353 221.961894 
L 99.636591 217.278345 
L 100.122947 206.692846 
L 101.987314 161.730516 
L 102.311551 158.915229 
L 102.47367 158.436534 
L 102.554729 158.435345 
L 102.716848 158.909175 
L 102.960026 160.787268 
L 103.284264 165.327936 
L 103.770621 175.732537 
L 105.634987 220.849885 
L 105.959224 223.837427 
L 106.202403 224.4636 
L 106.364521 224.092594 
L 106.6077 222.372583 
L 106.931937 218.041014 
L 107.418294 207.919876 
L 109.363719 162.081998 
L 109.687957 159.59486 
L 109.850076 159.274183 
L 109.931135 159.349158 
L 110.093254 159.967826 
L 110.336432 162.039407 
L 110.741729 168.284361 
L 111.309145 181.51222 
L 112.768214 217.904857 
L 113.173511 223.035339 
L 113.416689 224.361819 
L 113.578808 224.473043 
L 113.740927 223.962264 
L 113.984105 222.055909 
L 114.308343 217.531914 
L 114.794699 207.271028 
L 116.659065 163.531284 
L 116.983303 160.77827 
L 117.145422 160.305414 
L 117.226481 160.300766 
L 117.3886 160.755082 
L 117.631778 162.573481 
L 117.956016 166.982778 
L 118.442372 177.103228 
L 120.306739 221.131443 
L 120.630976 224.078714 
L 120.874154 224.719487 
L 121.036273 224.379654 
L 121.279451 222.737479 
L 121.603689 218.562952 
L 122.090045 208.768283 
L 124.035471 164.252916 
L 124.359709 161.830316 
L 124.521828 161.516294 
L 124.602887 161.588161 
L 124.765006 162.187923 
L 125.008184 164.200593 
L 125.413481 170.274562 
L 125.980897 183.152287 
L 127.439966 218.665125 
L 127.845263 223.706876 
L 128.088441 225.030438 
L 128.25056 225.16148 
L 128.412679 224.687799 
L 128.655857 222.868344 
L 128.980095 218.513531 
L 129.466451 208.596612 
L 131.330817 166.195643 
L 131.655055 163.526798 
L 131.817174 163.070292 
L 131.898233 163.067301 
L 132.060352 163.512004 
L 132.30353 165.284619 
L 132.627768 169.579091 
L 133.114124 179.435485 
L 134.97849 222.411292 
L 135.302728 225.323247 
L 135.545906 225.983182 
L 135.708025 225.67811 
L 135.951203 224.120132 
L 136.275441 220.113216 
L 136.761797 210.665797 
L 138.707223 167.600763 
L 139.031461 165.174379 
L 139.274639 164.576519 
L 139.436758 164.611619 
L 139.760995 165.195089 
L 140.004173 165.544065 
L 140.166292 165.471224 
L 140.328411 164.999518 
L 140.571589 163.291153 
L 140.895827 158.672916 
L 141.301124 148.559465 
L 141.78748 130.05758 
L 142.517015 92.685737 
L 143.570787 39.65274 
L 144.057144 25.680154 
L 144.381381 22.123129 
L 144.462441 22.009242 
L 144.5435 22.208854 
L 144.705619 23.543236 
L 144.948797 27.82353 
L 145.354094 40.508311 
L 145.92151 67.137013 
L 147.380579 139.669142 
L 147.785876 149.682303 
L 148.029054 152.156775 
L 148.110114 152.360131 
L 148.191173 152.249849 
L 148.353292 151.091939 
L 148.59647 147.064351 
L 148.920708 137.717686 
L 149.407064 116.745798 
L 151.190371 30.297423 
L 151.514609 23.616441 
L 151.757787 21.770649 
L 151.838846 21.779753 
L 152.000965 22.73634 
L 152.244143 26.471094 
L 152.568381 35.461947 
L 153.054737 56.02173 
L 154.919103 144.883612 
L 155.243341 150.681853 
L 155.486519 151.826885 
L 155.648638 151.025531 
L 155.891816 147.514134 
L 156.216054 138.785788 
L 156.70241 118.49613 
L 158.647836 26.735739 
L 158.972074 21.715028 
L 159.134192 21.046818 
L 159.215252 21.182631 
L 159.377371 22.390609 
L 159.620549 26.488116 
L 160.025846 38.902527 
L 160.593262 65.267138 
L 162.052331 137.917868 
L 162.457628 148.131666 
L 162.700806 150.742559 
L 162.781865 150.992586 
L 162.862925 150.92915 
L 163.025044 149.864434 
L 163.268222 145.971608 
L 163.592459 136.785113 
L 164.159875 112.233089 
L 165.132588 69.192809 
L 165.537885 59.649393 
L 165.781063 57.560235 
L 165.862123 57.509143 
L 166.024242 58.383937 
L 166.26742 62.102045 
L 166.591657 71.277723 
L 167.078014 92.552707 
L 168.131786 152.948982 
L 168.861321 188.570881 
L 169.347677 203.219984 
L 169.671915 208.023433 
L 169.915093 208.980165 
L 170.077212 208.408331 
L 170.32039 205.865165 
L 170.644627 199.712645 
L 171.212043 183.49598 
L 172.508994 143.674997 
L 172.914291 136.635274 
L 173.238528 134.044081 
L 173.400647 133.810261 
L 173.562766 134.275719 
L 173.805944 136.228576 
L 174.130182 140.946706 
L 174.697598 153.576815 
L 176.156667 189.141961 
L 176.561964 194.404533 
L 176.886201 196.252397 
L 177.04832 196.364397 
L 177.210439 195.946219 
L 177.453617 194.373173 
L 177.858914 189.524594 
L 178.42633 179.384548 
L 179.723281 154.930515 
L 180.209637 149.770562 
L 180.533875 148.268962 
L 180.695993 148.118432 
L 180.858112 148.357297 
L 181.10129 149.405025 
L 181.425528 151.942477 
L 181.992944 158.654299 
L 183.289894 175.168521 
L 183.695191 178.085956 
L 184.019429 179.159362 
L 184.181548 179.25559 
L 184.343666 179.061213 
L 184.586845 178.246756 
L 184.911082 176.27446 
L 185.397439 171.823997 
L 187.180746 153.752296 
L 187.586043 151.956322 
L 187.829221 151.521864 
L 187.99134 151.497943 
L 188.153458 151.678023 
L 188.396637 152.30419 
L 188.801934 154.155899 
L 189.450409 158.45042 
L 190.423122 164.85355 
L 190.909478 166.784422 
L 191.233716 167.361893 
L 191.476894 167.400585 
L 191.720072 167.109685 
L 192.04431 166.250858 
L 192.530666 164.145599 
L 194.557151 154.141084 
L 194.962448 153.497181 
L 195.205626 153.435693 
L 195.448805 153.606298 
L 195.773042 154.157646 
L 196.259399 155.525945 
L 198.042706 161.187327 
L 198.448003 161.664453 
L 198.77224 161.711649 
L 199.096478 161.472429 
L 199.501775 160.822771 
L 200.15025 159.228055 
L 201.366141 156.111327 
L 201.852497 155.387468 
L 202.257794 155.138308 
L 202.582032 155.174893 
L 202.987329 155.487376 
L 203.554745 156.303315 
L 205.256992 159.056967 
L 205.743349 159.35779 
L 206.148646 159.359712 
L 206.553943 159.151719 
L 207.121359 158.588075 
L 208.985725 156.489811 
L 209.472081 156.319741 
L 209.958438 156.375463 
L 210.525853 156.683221 
L 211.579626 157.60056 
L 212.471279 158.245266 
L 213.119754 158.431163 
L 213.68717 158.368631 
L 214.416705 158.044337 
L 216.281071 157.065862 
L 217.010606 157.001369 
L 217.8212 157.188905 
L 220.334041 158.016717 
L 221.225695 157.944551 
L 224.54913 157.362723 
L 225.92714 157.600685 
L 227.548328 157.822885 
L 228.845278 157.75169 
L 231.682357 157.511414 
L 234.195199 157.707547 
L 236.059565 157.698854 
L 239.626179 157.60198 
L 243.922327 157.65262 
L 247.894238 157.644409 
L 253.08204 157.631735 
L 388.532301 157.643111 
L 388.532301 157.643111 
" clip-path="url(#p6247d19d79)" style="fill: none; stroke: #1f77b4; stroke-width: 1.5; stroke-linecap: square"/>
   </g>
   <g id="patch_3">
    <path d="M 80.510625 236.23 
L 80.510625 10.8 
" style="fill: none; stroke: #000000; stroke-width: 0.8; stroke-linejoin: miter; stroke-linecap: square"/>
   </g>
   <g id="patch_4">
    <path d="M 403.2 236.23 
L 403.2 10.8 
" style="fill: none; stroke: #000000; stroke-width: 0.8; stroke-linejoin: miter; stroke-linecap: square"/>
   </g>
   <g id="patch_5">
    <path d="M 80.510625 236.23 
L 403.2 236.23 
" style="fill: none; stroke: #000000; stroke-width: 0.8; stroke-linejoin: miter; stroke-linecap: square"/>
   </g>
   <g id="patch_6">
    <path d="M 80.510625 10.8 
L 403.2 10.8 
" style="fill: none; stroke: #000000; stroke-width: 0.8; stroke-linejoin: miter; stroke-linecap: square"/>
   </g>
  </g>
 </g>
 <defs>
  <clipPath id="p6247d19d79">
   <rect x="80.510625" y="10.8" width="322.689375" height="225.43"/>
  </clipPath>
 </defs>
</svg>
