<?xml version="1.0" encoding="utf-8" standalone="no"?>
<!DOCTYPE svg PUBLIC "-//W3C//DTD SVG 1.1//EN"
  "http://www.w3.org/Graphics/SVG/1.1/DTD/svg11.dtd">
<svg xmlns:xlink="http://www.w3.org/1999/xlink" width="414pt" height="288pt" viewBox="0 0 414 288" xmlns="http://www.w3.org/2000/svg" version="1.1">
 <metadata>
  <rdf:RDF xmlns:dc="http://purl.org/dc/elements/1.1/" xmlns:cc="http://creativecommons.org/ns#" xmlns:rdf="http://www.w3.org/1999/02/22-rdf-syntax-ns#">
   <cc:Work>
    <dc:type rdf:resource="http://purl.org/dc/dcmitype/StillImage"/>
    <dc:date>2023-09-07T00:38:15.373656</dc:date>
    <dc:format>image/svg+xml</dc:format>
    <dc:creator>
     <cc:Agent>
      <dc:title>Matplotlib v3.7.2, https://matplotlib.org/</dc:title>
     </cc:Agent>
    </dc:creator>
   </cc:Work>
  </rdf:RDF>
 </metadata>
 <defs>
  <style type="text/css">*{stroke-linejoin: round; stroke-linecap: butt}</style>
 </defs>
 <g id="figure_1">
  <g id="patch_1">
   <path d="M 0 288 
L 414 288 
L 414 0 
L 0 0 
L 0 288 
z
" style="fill: none"/>
  </g>
  <g id="axes_1">
   <g id="patch_2">
    <path d="M 103.415625 241.036875 
L 403.2 241.036875 
L 403.2 10.8 
L 103.415625 10.8 
L 103.415625 241.036875 
z
" style="fill: none"/>
   </g>
   <g id="matplotlib.axis_1">
    <g id="xtick_1">
     <g id="line2d_1">
      <defs>
       <path id="mb553cc8ee7" d="M 0 0 
L 0 3.5 
" style="stroke: #000000; stroke-width: 0.8"/>
      </defs>
      <g>
       <use xlink:href="#mb553cc8ee7" x="117.042188" y="241.036875" style="stroke: #000000; stroke-width: 0.8"/>
      </g>
     </g>
     <g id="text_1">
      <!-- 0.0 -->
      <g transform="translate(104.319688 260.194375) scale(0.16 -0.16)">
       <defs>
        <path id="DejaVuSans-30" d="M 2034 4250 
Q 1547 4250 1301 3770 
Q 1056 3291 1056 2328 
Q 1056 1369 1301 889 
Q 1547 409 2034 409 
Q 2525 409 2770 889 
Q 3016 1369 3016 2328 
Q 3016 3291 2770 3770 
Q 2525 4250 2034 4250 
z
M 2034 4750 
Q 2819 4750 3233 4129 
Q 3647 3509 3647 2328 
Q 3647 1150 3233 529 
Q 2819 -91 2034 -91 
Q 1250 -91 836 529 
Q 422 1150 422 2328 
Q 422 3509 836 4129 
Q 1250 4750 2034 4750 
z
" transform="scale(0.015625)"/>
        <path id="DejaVuSans-2e" d="M 684 794 
L 1344 794 
L 1344 0 
L 684 0 
L 684 794 
z
" transform="scale(0.015625)"/>
       </defs>
       <use xlink:href="#DejaVuSans-30"/>
       <use xlink:href="#DejaVuSans-2e" x="63.623047"/>
       <use xlink:href="#DejaVuSans-30" x="95.410156"/>
      </g>
     </g>
    </g>
    <g id="xtick_2">
     <g id="line2d_2">
      <g>
       <use xlink:href="#mb553cc8ee7" x="171.874573" y="241.036875" style="stroke: #000000; stroke-width: 0.8"/>
      </g>
     </g>
     <g id="text_2">
      <!-- 0.2 -->
      <g transform="translate(159.152073 260.194375) scale(0.16 -0.16)">
       <defs>
        <path id="DejaVuSans-32" d="M 1228 531 
L 3431 531 
L 3431 0 
L 469 0 
L 469 531 
Q 828 903 1448 1529 
Q 2069 2156 2228 2338 
Q 2531 2678 2651 2914 
Q 2772 3150 2772 3378 
Q 2772 3750 2511 3984 
Q 2250 4219 1831 4219 
Q 1534 4219 1204 4116 
Q 875 4013 500 3803 
L 500 4441 
Q 881 4594 1212 4672 
Q 1544 4750 1819 4750 
Q 2544 4750 2975 4387 
Q 3406 4025 3406 3419 
Q 3406 3131 3298 2873 
Q 3191 2616 2906 2266 
Q 2828 2175 2409 1742 
Q 1991 1309 1228 531 
z
" transform="scale(0.015625)"/>
       </defs>
       <use xlink:href="#DejaVuSans-30"/>
       <use xlink:href="#DejaVuSans-2e" x="63.623047"/>
       <use xlink:href="#DejaVuSans-32" x="95.410156"/>
      </g>
     </g>
    </g>
    <g id="xtick_3">
     <g id="line2d_3">
      <g>
       <use xlink:href="#mb553cc8ee7" x="226.706959" y="241.036875" style="stroke: #000000; stroke-width: 0.8"/>
      </g>
     </g>
     <g id="text_3">
      <!-- 0.4 -->
      <g transform="translate(213.984459 260.194375) scale(0.16 -0.16)">
       <defs>
        <path id="DejaVuSans-34" d="M 2419 4116 
L 825 1625 
L 2419 1625 
L 2419 4116 
z
M 2253 4666 
L 3047 4666 
L 3047 1625 
L 3713 1625 
L 3713 1100 
L 3047 1100 
L 3047 0 
L 2419 0 
L 2419 1100 
L 313 1100 
L 313 1709 
L 2253 4666 
z
" transform="scale(0.015625)"/>
       </defs>
       <use xlink:href="#DejaVuSans-30"/>
       <use xlink:href="#DejaVuSans-2e" x="63.623047"/>
       <use xlink:href="#DejaVuSans-34" x="95.410156"/>
      </g>
     </g>
    </g>
    <g id="xtick_4">
     <g id="line2d_4">
      <g>
       <use xlink:href="#mb553cc8ee7" x="281.539345" y="241.036875" style="stroke: #000000; stroke-width: 0.8"/>
      </g>
     </g>
     <g id="text_4">
      <!-- 0.6 -->
      <g transform="translate(268.816845 260.194375) scale(0.16 -0.16)">
       <defs>
        <path id="DejaVuSans-36" d="M 2113 2584 
Q 1688 2584 1439 2293 
Q 1191 2003 1191 1497 
Q 1191 994 1439 701 
Q 1688 409 2113 409 
Q 2538 409 2786 701 
Q 3034 994 3034 1497 
Q 3034 2003 2786 2293 
Q 2538 2584 2113 2584 
z
M 3366 4563 
L 3366 3988 
Q 3128 4100 2886 4159 
Q 2644 4219 2406 4219 
Q 1781 4219 1451 3797 
Q 1122 3375 1075 2522 
Q 1259 2794 1537 2939 
Q 1816 3084 2150 3084 
Q 2853 3084 3261 2657 
Q 3669 2231 3669 1497 
Q 3669 778 3244 343 
Q 2819 -91 2113 -91 
Q 1303 -91 875 529 
Q 447 1150 447 2328 
Q 447 3434 972 4092 
Q 1497 4750 2381 4750 
Q 2619 4750 2861 4703 
Q 3103 4656 3366 4563 
z
" transform="scale(0.015625)"/>
       </defs>
       <use xlink:href="#DejaVuSans-30"/>
       <use xlink:href="#DejaVuSans-2e" x="63.623047"/>
       <use xlink:href="#DejaVuSans-36" x="95.410156"/>
      </g>
     </g>
    </g>
    <g id="xtick_5">
     <g id="line2d_5">
      <g>
       <use xlink:href="#mb553cc8ee7" x="336.371731" y="241.036875" style="stroke: #000000; stroke-width: 0.8"/>
      </g>
     </g>
     <g id="text_5">
      <!-- 0.8 -->
      <g transform="translate(323.649231 260.194375) scale(0.16 -0.16)">
       <defs>
        <path id="DejaVuSans-38" d="M 2034 2216 
Q 1584 2216 1326 1975 
Q 1069 1734 1069 1313 
Q 1069 891 1326 650 
Q 1584 409 2034 409 
Q 2484 409 2743 651 
Q 3003 894 3003 1313 
Q 3003 1734 2745 1975 
Q 2488 2216 2034 2216 
z
M 1403 2484 
Q 997 2584 770 2862 
Q 544 3141 544 3541 
Q 544 4100 942 4425 
Q 1341 4750 2034 4750 
Q 2731 4750 3128 4425 
Q 3525 4100 3525 3541 
Q 3525 3141 3298 2862 
Q 3072 2584 2669 2484 
Q 3125 2378 3379 2068 
Q 3634 1759 3634 1313 
Q 3634 634 3220 271 
Q 2806 -91 2034 -91 
Q 1263 -91 848 271 
Q 434 634 434 1313 
Q 434 1759 690 2068 
Q 947 2378 1403 2484 
z
M 1172 3481 
Q 1172 3119 1398 2916 
Q 1625 2713 2034 2713 
Q 2441 2713 2670 2916 
Q 2900 3119 2900 3481 
Q 2900 3844 2670 4047 
Q 2441 4250 2034 4250 
Q 1625 4250 1398 4047 
Q 1172 3844 1172 3481 
z
" transform="scale(0.015625)"/>
       </defs>
       <use xlink:href="#DejaVuSans-30"/>
       <use xlink:href="#DejaVuSans-2e" x="63.623047"/>
       <use xlink:href="#DejaVuSans-38" x="95.410156"/>
      </g>
     </g>
    </g>
    <g id="xtick_6">
     <g id="line2d_6">
      <g>
       <use xlink:href="#mb553cc8ee7" x="391.204117" y="241.036875" style="stroke: #000000; stroke-width: 0.8"/>
      </g>
     </g>
     <g id="text_6">
      <!-- 1.0 -->
      <g transform="translate(378.481617 260.194375) scale(0.16 -0.16)">
       <defs>
        <path id="DejaVuSans-31" d="M 794 531 
L 1825 531 
L 1825 4091 
L 703 3866 
L 703 4441 
L 1819 4666 
L 2450 4666 
L 2450 531 
L 3481 531 
L 3481 0 
L 794 0 
L 794 531 
z
" transform="scale(0.015625)"/>
       </defs>
       <use xlink:href="#DejaVuSans-31"/>
       <use xlink:href="#DejaVuSans-2e" x="63.623047"/>
       <use xlink:href="#DejaVuSans-30" x="95.410156"/>
      </g>
     </g>
    </g>
    <g id="text_7">
     <!-- Time [orbits] -->
     <g transform="translate(221.340625 275.120313) scale(0.1 -0.1)">
      <defs>
       <path id="DejaVuSans-54" d="M -19 4666 
L 3928 4666 
L 3928 4134 
L 2272 4134 
L 2272 0 
L 1638 0 
L 1638 4134 
L -19 4134 
L -19 4666 
z
" transform="scale(0.015625)"/>
       <path id="DejaVuSans-69" d="M 603 3500 
L 1178 3500 
L 1178 0 
L 603 0 
L 603 3500 
z
M 603 4863 
L 1178 4863 
L 1178 4134 
L 603 4134 
L 603 4863 
z
" transform="scale(0.015625)"/>
       <path id="DejaVuSans-6d" d="M 3328 2828 
Q 3544 3216 3844 3400 
Q 4144 3584 4550 3584 
Q 5097 3584 5394 3201 
Q 5691 2819 5691 2113 
L 5691 0 
L 5113 0 
L 5113 2094 
Q 5113 2597 4934 2840 
Q 4756 3084 4391 3084 
Q 3944 3084 3684 2787 
Q 3425 2491 3425 1978 
L 3425 0 
L 2847 0 
L 2847 2094 
Q 2847 2600 2669 2842 
Q 2491 3084 2119 3084 
Q 1678 3084 1418 2786 
Q 1159 2488 1159 1978 
L 1159 0 
L 581 0 
L 581 3500 
L 1159 3500 
L 1159 2956 
Q 1356 3278 1631 3431 
Q 1906 3584 2284 3584 
Q 2666 3584 2933 3390 
Q 3200 3197 3328 2828 
z
" transform="scale(0.015625)"/>
       <path id="DejaVuSans-65" d="M 3597 1894 
L 3597 1613 
L 953 1613 
Q 991 1019 1311 708 
Q 1631 397 2203 397 
Q 2534 397 2845 478 
Q 3156 559 3463 722 
L 3463 178 
Q 3153 47 2828 -22 
Q 2503 -91 2169 -91 
Q 1331 -91 842 396 
Q 353 884 353 1716 
Q 353 2575 817 3079 
Q 1281 3584 2069 3584 
Q 2775 3584 3186 3129 
Q 3597 2675 3597 1894 
z
M 3022 2063 
Q 3016 2534 2758 2815 
Q 2500 3097 2075 3097 
Q 1594 3097 1305 2825 
Q 1016 2553 972 2059 
L 3022 2063 
z
" transform="scale(0.015625)"/>
       <path id="DejaVuSans-20" transform="scale(0.015625)"/>
       <path id="DejaVuSans-5b" d="M 550 4863 
L 1875 4863 
L 1875 4416 
L 1125 4416 
L 1125 -397 
L 1875 -397 
L 1875 -844 
L 550 -844 
L 550 4863 
z
" transform="scale(0.015625)"/>
       <path id="DejaVuSans-6f" d="M 1959 3097 
Q 1497 3097 1228 2736 
Q 959 2375 959 1747 
Q 959 1119 1226 758 
Q 1494 397 1959 397 
Q 2419 397 2687 759 
Q 2956 1122 2956 1747 
Q 2956 2369 2687 2733 
Q 2419 3097 1959 3097 
z
M 1959 3584 
Q 2709 3584 3137 3096 
Q 3566 2609 3566 1747 
Q 3566 888 3137 398 
Q 2709 -91 1959 -91 
Q 1206 -91 779 398 
Q 353 888 353 1747 
Q 353 2609 779 3096 
Q 1206 3584 1959 3584 
z
" transform="scale(0.015625)"/>
       <path id="DejaVuSans-72" d="M 2631 2963 
Q 2534 3019 2420 3045 
Q 2306 3072 2169 3072 
Q 1681 3072 1420 2755 
Q 1159 2438 1159 1844 
L 1159 0 
L 581 0 
L 581 3500 
L 1159 3500 
L 1159 2956 
Q 1341 3275 1631 3429 
Q 1922 3584 2338 3584 
Q 2397 3584 2469 3576 
Q 2541 3569 2628 3553 
L 2631 2963 
z
" transform="scale(0.015625)"/>
       <path id="DejaVuSans-62" d="M 3116 1747 
Q 3116 2381 2855 2742 
Q 2594 3103 2138 3103 
Q 1681 3103 1420 2742 
Q 1159 2381 1159 1747 
Q 1159 1113 1420 752 
Q 1681 391 2138 391 
Q 2594 391 2855 752 
Q 3116 1113 3116 1747 
z
M 1159 2969 
Q 1341 3281 1617 3432 
Q 1894 3584 2278 3584 
Q 2916 3584 3314 3078 
Q 3713 2572 3713 1747 
Q 3713 922 3314 415 
Q 2916 -91 2278 -91 
Q 1894 -91 1617 61 
Q 1341 213 1159 525 
L 1159 0 
L 581 0 
L 581 4863 
L 1159 4863 
L 1159 2969 
z
" transform="scale(0.015625)"/>
       <path id="DejaVuSans-74" d="M 1172 4494 
L 1172 3500 
L 2356 3500 
L 2356 3053 
L 1172 3053 
L 1172 1153 
Q 1172 725 1289 603 
Q 1406 481 1766 481 
L 2356 481 
L 2356 0 
L 1766 0 
Q 1100 0 847 248 
Q 594 497 594 1153 
L 594 3053 
L 172 3053 
L 172 3500 
L 594 3500 
L 594 4494 
L 1172 4494 
z
" transform="scale(0.015625)"/>
       <path id="DejaVuSans-73" d="M 2834 3397 
L 2834 2853 
Q 2591 2978 2328 3040 
Q 2066 3103 1784 3103 
Q 1356 3103 1142 2972 
Q 928 2841 928 2578 
Q 928 2378 1081 2264 
Q 1234 2150 1697 2047 
L 1894 2003 
Q 2506 1872 2764 1633 
Q 3022 1394 3022 966 
Q 3022 478 2636 193 
Q 2250 -91 1575 -91 
Q 1294 -91 989 -36 
Q 684 19 347 128 
L 347 722 
Q 666 556 975 473 
Q 1284 391 1588 391 
Q 1994 391 2212 530 
Q 2431 669 2431 922 
Q 2431 1156 2273 1281 
Q 2116 1406 1581 1522 
L 1381 1569 
Q 847 1681 609 1914 
Q 372 2147 372 2553 
Q 372 3047 722 3315 
Q 1072 3584 1716 3584 
Q 2034 3584 2315 3537 
Q 2597 3491 2834 3397 
z
" transform="scale(0.015625)"/>
       <path id="DejaVuSans-5d" d="M 1947 4863 
L 1947 -844 
L 622 -844 
L 622 -397 
L 1369 -397 
L 1369 4416 
L 622 4416 
L 622 4863 
L 1947 4863 
z
" transform="scale(0.015625)"/>
      </defs>
      <use xlink:href="#DejaVuSans-54"/>
      <use xlink:href="#DejaVuSans-69" x="57.958984"/>
      <use xlink:href="#DejaVuSans-6d" x="85.742188"/>
      <use xlink:href="#DejaVuSans-65" x="183.154297"/>
      <use xlink:href="#DejaVuSans-20" x="244.677734"/>
      <use xlink:href="#DejaVuSans-5b" x="276.464844"/>
      <use xlink:href="#DejaVuSans-6f" x="315.478516"/>
      <use xlink:href="#DejaVuSans-72" x="376.660156"/>
      <use xlink:href="#DejaVuSans-62" x="417.773438"/>
      <use xlink:href="#DejaVuSans-69" x="481.25"/>
      <use xlink:href="#DejaVuSans-74" x="509.033203"/>
      <use xlink:href="#DejaVuSans-73" x="548.242188"/>
      <use xlink:href="#DejaVuSans-5d" x="600.341797"/>
     </g>
    </g>
   </g>
   <g id="matplotlib.axis_2">
    <g id="ytick_1">
     <g id="line2d_7">
      <defs>
       <path id="m24879dfcb1" d="M 0 0 
L -3.5 0 
" style="stroke: #000000; stroke-width: 0.8"/>
      </defs>
      <g>
       <use xlink:href="#m24879dfcb1" x="103.415625" y="191.148549" style="stroke: #000000; stroke-width: 0.8"/>
      </g>
     </g>
     <g id="text_8">
      <!-- -200,000 -->
      <g transform="translate(24.478125 197.227299) scale(0.16 -0.16)">
       <defs>
        <path id="DejaVuSans-2d" d="M 313 2009 
L 1997 2009 
L 1997 1497 
L 313 1497 
L 313 2009 
z
" transform="scale(0.015625)"/>
        <path id="DejaVuSans-2c" d="M 750 794 
L 1409 794 
L 1409 256 
L 897 -744 
L 494 -744 
L 750 256 
L 750 794 
z
" transform="scale(0.015625)"/>
       </defs>
       <use xlink:href="#DejaVuSans-2d"/>
       <use xlink:href="#DejaVuSans-32" x="36.083984"/>
       <use xlink:href="#DejaVuSans-30" x="99.707031"/>
       <use xlink:href="#DejaVuSans-30" x="163.330078"/>
       <use xlink:href="#DejaVuSans-2c" x="226.953125"/>
       <use xlink:href="#DejaVuSans-30" x="258.740234"/>
       <use xlink:href="#DejaVuSans-30" x="322.363281"/>
       <use xlink:href="#DejaVuSans-30" x="385.986328"/>
      </g>
     </g>
    </g>
    <g id="ytick_2">
     <g id="line2d_8">
      <g>
       <use xlink:href="#m24879dfcb1" x="103.415625" y="126.962141" style="stroke: #000000; stroke-width: 0.8"/>
      </g>
     </g>
     <g id="text_9">
      <!-- 0 -->
      <g transform="translate(86.235625 133.040891) scale(0.16 -0.16)">
       <use xlink:href="#DejaVuSans-30"/>
      </g>
     </g>
    </g>
    <g id="ytick_3">
     <g id="line2d_9">
      <g>
       <use xlink:href="#m24879dfcb1" x="103.415625" y="62.775733" style="stroke: #000000; stroke-width: 0.8"/>
      </g>
     </g>
     <g id="text_10">
      <!-- 200,000 -->
      <g transform="translate(30.250625 68.854483) scale(0.16 -0.16)">
       <use xlink:href="#DejaVuSans-32"/>
       <use xlink:href="#DejaVuSans-30" x="63.623047"/>
       <use xlink:href="#DejaVuSans-30" x="127.246094"/>
       <use xlink:href="#DejaVuSans-2c" x="190.869141"/>
       <use xlink:href="#DejaVuSans-30" x="222.65625"/>
       <use xlink:href="#DejaVuSans-30" x="286.279297"/>
       <use xlink:href="#DejaVuSans-30" x="349.902344"/>
      </g>
     </g>
    </g>
    <g id="text_11">
     <!-- Magnetic Field [nT]  -->
     <g transform="translate(18.398438 175.248125) rotate(-90) scale(0.1 -0.1)">
      <defs>
       <path id="DejaVuSans-4d" d="M 628 4666 
L 1569 4666 
L 2759 1491 
L 3956 4666 
L 4897 4666 
L 4897 0 
L 4281 0 
L 4281 4097 
L 3078 897 
L 2444 897 
L 1241 4097 
L 1241 0 
L 628 0 
L 628 4666 
z
" transform="scale(0.015625)"/>
       <path id="DejaVuSans-61" d="M 2194 1759 
Q 1497 1759 1228 1600 
Q 959 1441 959 1056 
Q 959 750 1161 570 
Q 1363 391 1709 391 
Q 2188 391 2477 730 
Q 2766 1069 2766 1631 
L 2766 1759 
L 2194 1759 
z
M 3341 1997 
L 3341 0 
L 2766 0 
L 2766 531 
Q 2569 213 2275 61 
Q 1981 -91 1556 -91 
Q 1019 -91 701 211 
Q 384 513 384 1019 
Q 384 1609 779 1909 
Q 1175 2209 1959 2209 
L 2766 2209 
L 2766 2266 
Q 2766 2663 2505 2880 
Q 2244 3097 1772 3097 
Q 1472 3097 1187 3025 
Q 903 2953 641 2809 
L 641 3341 
Q 956 3463 1253 3523 
Q 1550 3584 1831 3584 
Q 2591 3584 2966 3190 
Q 3341 2797 3341 1997 
z
" transform="scale(0.015625)"/>
       <path id="DejaVuSans-67" d="M 2906 1791 
Q 2906 2416 2648 2759 
Q 2391 3103 1925 3103 
Q 1463 3103 1205 2759 
Q 947 2416 947 1791 
Q 947 1169 1205 825 
Q 1463 481 1925 481 
Q 2391 481 2648 825 
Q 2906 1169 2906 1791 
z
M 3481 434 
Q 3481 -459 3084 -895 
Q 2688 -1331 1869 -1331 
Q 1566 -1331 1297 -1286 
Q 1028 -1241 775 -1147 
L 775 -588 
Q 1028 -725 1275 -790 
Q 1522 -856 1778 -856 
Q 2344 -856 2625 -561 
Q 2906 -266 2906 331 
L 2906 616 
Q 2728 306 2450 153 
Q 2172 0 1784 0 
Q 1141 0 747 490 
Q 353 981 353 1791 
Q 353 2603 747 3093 
Q 1141 3584 1784 3584 
Q 2172 3584 2450 3431 
Q 2728 3278 2906 2969 
L 2906 3500 
L 3481 3500 
L 3481 434 
z
" transform="scale(0.015625)"/>
       <path id="DejaVuSans-6e" d="M 3513 2113 
L 3513 0 
L 2938 0 
L 2938 2094 
Q 2938 2591 2744 2837 
Q 2550 3084 2163 3084 
Q 1697 3084 1428 2787 
Q 1159 2491 1159 1978 
L 1159 0 
L 581 0 
L 581 3500 
L 1159 3500 
L 1159 2956 
Q 1366 3272 1645 3428 
Q 1925 3584 2291 3584 
Q 2894 3584 3203 3211 
Q 3513 2838 3513 2113 
z
" transform="scale(0.015625)"/>
       <path id="DejaVuSans-63" d="M 3122 3366 
L 3122 2828 
Q 2878 2963 2633 3030 
Q 2388 3097 2138 3097 
Q 1578 3097 1268 2742 
Q 959 2388 959 1747 
Q 959 1106 1268 751 
Q 1578 397 2138 397 
Q 2388 397 2633 464 
Q 2878 531 3122 666 
L 3122 134 
Q 2881 22 2623 -34 
Q 2366 -91 2075 -91 
Q 1284 -91 818 406 
Q 353 903 353 1747 
Q 353 2603 823 3093 
Q 1294 3584 2113 3584 
Q 2378 3584 2631 3529 
Q 2884 3475 3122 3366 
z
" transform="scale(0.015625)"/>
       <path id="DejaVuSans-46" d="M 628 4666 
L 3309 4666 
L 3309 4134 
L 1259 4134 
L 1259 2759 
L 3109 2759 
L 3109 2228 
L 1259 2228 
L 1259 0 
L 628 0 
L 628 4666 
z
" transform="scale(0.015625)"/>
       <path id="DejaVuSans-6c" d="M 603 4863 
L 1178 4863 
L 1178 0 
L 603 0 
L 603 4863 
z
" transform="scale(0.015625)"/>
       <path id="DejaVuSans-64" d="M 2906 2969 
L 2906 4863 
L 3481 4863 
L 3481 0 
L 2906 0 
L 2906 525 
Q 2725 213 2448 61 
Q 2172 -91 1784 -91 
Q 1150 -91 751 415 
Q 353 922 353 1747 
Q 353 2572 751 3078 
Q 1150 3584 1784 3584 
Q 2172 3584 2448 3432 
Q 2725 3281 2906 2969 
z
M 947 1747 
Q 947 1113 1208 752 
Q 1469 391 1925 391 
Q 2381 391 2643 752 
Q 2906 1113 2906 1747 
Q 2906 2381 2643 2742 
Q 2381 3103 1925 3103 
Q 1469 3103 1208 2742 
Q 947 2381 947 1747 
z
" transform="scale(0.015625)"/>
      </defs>
      <use xlink:href="#DejaVuSans-4d"/>
      <use xlink:href="#DejaVuSans-61" x="86.279297"/>
      <use xlink:href="#DejaVuSans-67" x="147.558594"/>
      <use xlink:href="#DejaVuSans-6e" x="211.035156"/>
      <use xlink:href="#DejaVuSans-65" x="274.414062"/>
      <use xlink:href="#DejaVuSans-74" x="335.9375"/>
      <use xlink:href="#DejaVuSans-69" x="375.146484"/>
      <use xlink:href="#DejaVuSans-63" x="402.929688"/>
      <use xlink:href="#DejaVuSans-20" x="457.910156"/>
      <use xlink:href="#DejaVuSans-46" x="489.697266"/>
      <use xlink:href="#DejaVuSans-69" x="539.966797"/>
      <use xlink:href="#DejaVuSans-65" x="567.75"/>
      <use xlink:href="#DejaVuSans-6c" x="629.273438"/>
      <use xlink:href="#DejaVuSans-64" x="657.056641"/>
      <use xlink:href="#DejaVuSans-20" x="720.533203"/>
      <use xlink:href="#DejaVuSans-5b" x="752.320312"/>
      <use xlink:href="#DejaVuSans-6e" x="791.333984"/>
      <use xlink:href="#DejaVuSans-54" x="854.712891"/>
      <use xlink:href="#DejaVuSans-5d" x="915.796875"/>
      <use xlink:href="#DejaVuSans-20" x="954.810547"/>
     </g>
    </g>
   </g>
   <g id="line2d_10">
    <path d="M 117.042188 144.331622 
L 119.7675 136.448778 
L 122.492813 130.71615 
L 125.218125 126.663051 
L 127.943438 123.838387 
L 130.66875 121.966815 
L 133.394063 120.73659 
L 136.119375 120.010593 
L 138.844688 119.640515 
L 141.57 119.467412 
L 144.295313 119.439879 
L 147.020625 119.531407 
L 149.745938 119.765158 
L 152.47125 120.020353 
L 155.196563 120.215965 
L 157.921875 120.513603 
L 160.647188 120.7962 
L 163.3725 121.098278 
L 166.097813 121.360934 
L 168.823125 121.622543 
L 171.548438 121.855506 
L 174.27375 122.135521 
L 176.999063 122.367938 
L 179.724375 122.610457 
L 182.449688 122.822586 
L 185.175 123.024568 
L 187.900313 123.211689 
L 190.625625 123.42415 
L 193.350938 123.618822 
L 196.07625 123.836077 
L 198.801562 123.971893 
L 201.526875 124.144696 
L 204.252187 124.335014 
L 206.9775 124.470233 
L 209.702812 124.632176 
L 212.428125 124.793151 
L 215.153437 124.901271 
L 217.87875 125.06893 
L 220.604062 125.199568 
L 223.329375 125.350405 
L 226.054688 125.487592 
L 228.78 125.608965 
L 231.505313 125.724022 
L 234.230625 125.886889 
L 236.955938 126.017821 
L 239.68125 126.156789 
L 242.406563 126.340834 
L 245.131875 126.469024 
L 247.857188 126.593926 
L 250.5825 126.750745 
L 253.307813 126.945121 
L 256.033125 127.084415 
L 258.758438 127.23859 
L 261.48375 127.430389 
L 264.209063 127.613379 
L 266.934375 127.843855 
L 269.659688 128.057689 
L 272.385 128.270513 
L 275.110313 128.526477 
L 277.835625 128.777909 
L 280.560938 129.060674 
L 283.28625 129.379784 
L 286.011562 129.682799 
L 288.736875 130.016684 
L 291.462188 130.405572 
L 294.1875 130.841566 
L 296.912812 131.277351 
L 299.638125 131.793158 
L 302.363438 132.333049 
L 305.08875 132.955153 
L 307.814062 133.629006 
L 310.539375 134.347193 
L 313.264687 135.1073 
L 315.99 135.990809 
L 318.715312 136.869476 
L 321.440625 137.853723 
L 324.165938 138.848867 
L 326.89125 139.844278 
L 329.616562 140.752103 
L 332.341875 141.537092 
L 335.067188 141.941796 
L 337.7925 141.751037 
L 340.517813 140.509639 
L 343.243125 137.645043 
L 345.968438 132.312896 
L 348.69375 123.343405 
L 351.419063 109.793441 
L 354.144375 91.059675 
L 356.869688 68.590304 
L 359.595 47.475152 
L 362.320312 36.908154 
L 365.045625 47.199982 
L 367.770938 80.868734 
L 370.49625 127.271242 
L 373.221563 168.244421 
L 375.946875 191.455706 
L 378.672188 196.093772 
L 381.3975 188.359061 
L 384.122813 175.383291 
L 386.848125 161.910253 
L 389.573438 150.169235 
" clip-path="url(#peed70d9abc)" style="fill: none; stroke: #2b737e; stroke-width: 1.5; stroke-linecap: square"/>
   </g>
   <g id="line2d_11">
    <path d="M 117.042188 150.498736 
L 119.7675 141.656573 
L 122.492813 135.003182 
L 125.218125 130.078088 
L 127.943438 126.451837 
L 130.66875 123.980254 
L 133.394063 122.215921 
L 136.119375 121.067723 
L 138.844688 120.318543 
L 141.57 119.861389 
L 144.295313 119.604462 
L 147.020625 119.520394 
L 149.745938 119.511862 
L 152.47125 119.631219 
L 155.196563 119.843284 
L 157.921875 119.974126 
L 160.647188 120.187494 
L 163.3725 120.455692 
L 166.097813 120.674454 
L 168.823125 120.902787 
L 171.548438 121.158058 
L 174.27375 121.389168 
L 176.999063 121.590794 
L 179.724375 121.81544 
L 182.449688 122.054998 
L 185.175 122.269336 
L 187.900313 122.434967 
L 190.625625 122.608663 
L 193.350938 122.794506 
L 196.07625 122.97485 
L 198.801562 123.140164 
L 201.526875 123.317925 
L 204.252187 123.465284 
L 206.9775 123.638038 
L 209.702812 123.792345 
L 212.428125 123.959865 
L 215.153437 124.106857 
L 217.87875 124.234389 
L 220.604062 124.3903 
L 223.329375 124.544132 
L 226.054688 124.658135 
L 228.78 124.781317 
L 231.505313 124.951885 
L 234.230625 125.063006 
L 236.955938 125.250319 
L 239.68125 125.368735 
L 242.406563 125.518995 
L 245.131875 125.680438 
L 247.857188 125.80757 
L 250.5825 125.984804 
L 253.307813 126.126412 
L 256.033125 126.299936 
L 258.758438 126.489041 
L 261.48375 126.656436 
L 264.209063 126.89733 
L 266.934375 127.089676 
L 269.659688 127.313678 
L 272.385 127.537746 
L 275.110313 127.809395 
L 277.835625 128.055364 
L 280.560938 128.369162 
L 283.28625 128.691548 
L 286.011562 129.056711 
L 288.736875 129.44623 
L 291.462188 129.879651 
L 294.1875 130.324842 
L 296.912812 130.824088 
L 299.638125 131.425286 
L 302.363438 132.045517 
L 305.08875 132.706512 
L 307.814062 133.473444 
L 310.539375 134.347105 
L 313.264687 135.287866 
L 315.99 136.325744 
L 318.715312 137.434871 
L 321.440625 138.701289 
L 324.165938 140.018972 
L 326.89125 141.390903 
L 329.616562 142.829424 
L 332.341875 144.083104 
L 335.067188 145.185081 
L 337.7925 145.684717 
L 340.517813 145.209363 
L 343.243125 143.133973 
L 345.968438 138.402627 
L 348.69375 129.722154 
L 351.419063 115.48131 
L 354.144375 94.681795 
L 356.869688 67.929328 
L 359.595 40.07854 
L 362.320312 21.265313 
L 365.045625 24.269418 
L 367.770938 54.964089 
L 370.49625 104.321832 
L 373.221563 152.8411 
L 375.946875 184.727852 
L 378.672188 196.381958 
L 381.3975 193.039246 
L 384.122813 182.064608 
L 386.848125 169.004785 
L 389.573438 156.83239 
" clip-path="url(#peed70d9abc)" style="fill: none; stroke: #5ea04b; stroke-width: 1.5; stroke-linecap: square"/>
   </g>
   <g id="line2d_12">
    <path d="M 117.042188 183.082515 
L 119.7675 179.331722 
L 122.492813 174.293539 
L 125.218125 168.931466 
L 127.943438 163.670403 
L 130.66875 158.881846 
L 133.394063 154.555136 
L 136.119375 150.746756 
L 138.844688 147.469093 
L 141.57 144.586799 
L 144.295313 142.10753 
L 147.020625 139.972986 
L 149.745938 138.1122 
L 152.47125 136.469636 
L 155.196563 135.09261 
L 157.921875 133.881721 
L 160.647188 132.796104 
L 163.3725 131.884251 
L 166.097813 131.072004 
L 168.823125 130.362042 
L 171.548438 129.678178 
L 174.27375 129.161342 
L 176.999063 128.648983 
L 179.724375 128.189393 
L 182.449688 127.777107 
L 185.175 127.441753 
L 187.900313 127.129473 
L 190.625625 126.810591 
L 193.350938 126.562178 
L 196.07625 126.314757 
L 198.801562 126.05317 
L 201.526875 125.875293 
L 204.252187 125.691348 
L 206.9775 125.484781 
L 209.702812 125.371799 
L 212.428125 125.196285 
L 215.153437 125.05589 
L 217.87875 124.881701 
L 220.604062 124.761819 
L 223.329375 124.634015 
L 226.054688 124.548316 
L 228.78 124.420748 
L 231.505313 124.313909 
L 234.230625 124.215125 
L 236.955938 124.146681 
L 239.68125 124.050468 
L 242.406563 123.942019 
L 245.131875 123.857577 
L 247.857188 123.791583 
L 250.5825 123.715668 
L 253.307813 123.632191 
L 256.033125 123.546393 
L 258.758438 123.499174 
L 261.48375 123.445674 
L 264.209063 123.395964 
L 266.934375 123.31788 
L 269.659688 123.254213 
L 272.385 123.233167 
L 275.110313 123.212362 
L 277.835625 123.173171 
L 280.560938 123.184673 
L 283.28625 123.212803 
L 286.011562 123.261754 
L 288.736875 123.333031 
L 291.462188 123.449341 
L 294.1875 123.578841 
L 296.912812 123.750352 
L 299.638125 124.043997 
L 302.363438 124.349247 
L 305.08875 124.807842 
L 307.814062 125.386911 
L 310.539375 126.125827 
L 313.264687 127.044905 
L 315.99 128.229007 
L 318.715312 129.685269 
L 321.440625 131.643404 
L 324.165938 134.063673 
L 326.89125 137.107214 
L 329.616562 141.015098 
L 332.341875 145.960136 
L 335.067188 152.215312 
L 337.7925 160.040457 
L 340.517813 169.713627 
L 343.243125 181.394343 
L 345.968438 194.953907 
L 348.69375 209.446592 
L 351.419063 222.743933 
L 354.144375 230.571562 
L 356.869688 226.459117 
L 359.595 203.115344 
L 362.320312 157.629504 
L 365.045625 98.664563 
L 367.770938 47.870305 
L 370.49625 27.466083 
L 373.221563 42.799144 
L 375.946875 80.336088 
L 378.672188 121.167914 
L 381.3975 153.10058 
L 384.122813 172.806953 
L 386.848125 182.005029 
L 389.573438 184.090867 
" clip-path="url(#peed70d9abc)" style="fill: none; stroke: #bdab62; stroke-width: 1.5; stroke-linecap: square"/>
   </g>
   <g id="patch_3">
    <path d="M 103.415625 241.036875 
L 103.415625 10.8 
" style="fill: none; stroke: #000000; stroke-width: 0.8; stroke-linejoin: miter; stroke-linecap: square"/>
   </g>
   <g id="patch_4">
    <path d="M 403.2 241.036875 
L 403.2 10.8 
" style="fill: none; stroke: #000000; stroke-width: 0.8; stroke-linejoin: miter; stroke-linecap: square"/>
   </g>
   <g id="patch_5">
    <path d="M 103.415625 241.036875 
L 403.2 241.036875 
" style="fill: none; stroke: #000000; stroke-width: 0.8; stroke-linejoin: miter; stroke-linecap: square"/>
   </g>
   <g id="patch_6">
    <path d="M 103.415625 10.8 
L 403.2 10.8 
" style="fill: none; stroke: #000000; stroke-width: 0.8; stroke-linejoin: miter; stroke-linecap: square"/>
   </g>
   <g id="legend_1">
    <g id="patch_7">
     <path d="M 344.34 236.536875 
L 396.9 236.536875 
Q 398.7 236.536875 398.7 234.736875 
L 398.7 196.005938 
Q 398.7 194.205938 396.9 194.205938 
L 344.34 194.205938 
Q 342.54 194.205938 342.54 196.005938 
L 342.54 234.736875 
Q 342.54 236.536875 344.34 236.536875 
z
" style="fill: #ffffff; opacity: 0.8; stroke: #cccccc; stroke-linejoin: miter"/>
    </g>
    <g id="line2d_13">
     <path d="M 346.14 201.494531 
L 355.14 201.494531 
L 364.14 201.494531 
" style="fill: none; stroke: #2b737e; stroke-width: 1.5; stroke-linecap: square"/>
    </g>
    <g id="text_12">
     <!-- $TAM_{0}$ -->
     <g transform="translate(371.34 204.644531) scale(0.09 -0.09)">
      <defs>
       <path id="DejaVuSans-Oblique-54" d="M 378 4666 
L 4325 4666 
L 4225 4134 
L 2559 4134 
L 1759 0 
L 1125 0 
L 1925 4134 
L 275 4134 
L 378 4666 
z
" transform="scale(0.015625)"/>
       <path id="DejaVuSans-Oblique-41" d="M 2356 4666 
L 3072 4666 
L 3938 0 
L 3278 0 
L 3084 1197 
L 984 1197 
L 325 0 
L -341 0 
L 2356 4666 
z
M 2584 4044 
L 1275 1722 
L 2988 1722 
L 2584 4044 
z
" transform="scale(0.015625)"/>
       <path id="DejaVuSans-Oblique-4d" d="M 1081 4666 
L 2028 4666 
L 2572 1522 
L 4378 4666 
L 5350 4666 
L 4441 0 
L 3828 0 
L 4622 4091 
L 2791 897 
L 2175 897 
L 1581 4103 
L 788 0 
L 172 0 
L 1081 4666 
z
" transform="scale(0.015625)"/>
      </defs>
      <use xlink:href="#DejaVuSans-Oblique-54" transform="translate(0 0.09375)"/>
      <use xlink:href="#DejaVuSans-Oblique-41" transform="translate(61.083984 0.09375)"/>
      <use xlink:href="#DejaVuSans-Oblique-4d" transform="translate(129.492188 0.09375)"/>
      <use xlink:href="#DejaVuSans-30" transform="translate(215.771484 -16.3125) scale(0.7)"/>
     </g>
    </g>
    <g id="line2d_14">
     <path d="M 346.14 214.704844 
L 355.14 214.704844 
L 364.14 214.704844 
" style="fill: none; stroke: #5ea04b; stroke-width: 1.5; stroke-linecap: square"/>
    </g>
    <g id="text_13">
     <!-- $TAM_{1}$ -->
     <g transform="translate(371.34 217.854844) scale(0.09 -0.09)">
      <use xlink:href="#DejaVuSans-Oblique-54" transform="translate(0 0.09375)"/>
      <use xlink:href="#DejaVuSans-Oblique-41" transform="translate(61.083984 0.09375)"/>
      <use xlink:href="#DejaVuSans-Oblique-4d" transform="translate(129.492188 0.09375)"/>
      <use xlink:href="#DejaVuSans-31" transform="translate(215.771484 -16.3125) scale(0.7)"/>
     </g>
    </g>
    <g id="line2d_15">
     <path d="M 346.14 227.915156 
L 355.14 227.915156 
L 364.14 227.915156 
" style="fill: none; stroke: #bdab62; stroke-width: 1.5; stroke-linecap: square"/>
    </g>
    <g id="text_14">
     <!-- $TAM_{2}$ -->
     <g transform="translate(371.34 231.065156) scale(0.09 -0.09)">
      <use xlink:href="#DejaVuSans-Oblique-54" transform="translate(0 0.09375)"/>
      <use xlink:href="#DejaVuSans-Oblique-41" transform="translate(61.083984 0.09375)"/>
      <use xlink:href="#DejaVuSans-Oblique-4d" transform="translate(129.492188 0.09375)"/>
      <use xlink:href="#DejaVuSans-32" transform="translate(215.771484 -16.3125) scale(0.7)"/>
     </g>
    </g>
   </g>
  </g>
 </g>
 <defs>
  <clipPath id="peed70d9abc">
   <rect x="103.415625" y="10.8" width="299.784375" height="230.236875"/>
  </clipPath>
 </defs>
</svg>
