<?xml version="1.0" encoding="utf-8" standalone="no"?>
<!DOCTYPE svg PUBLIC "-//W3C//DTD SVG 1.1//EN"
  "http://www.w3.org/Graphics/SVG/1.1/DTD/svg11.dtd">
<svg xmlns:xlink="http://www.w3.org/1999/xlink" width="414pt" height="288pt" viewBox="0 0 414 288" xmlns="http://www.w3.org/2000/svg" version="1.1">
 <metadata>
  <rdf:RDF xmlns:dc="http://purl.org/dc/elements/1.1/" xmlns:cc="http://creativecommons.org/ns#" xmlns:rdf="http://www.w3.org/1999/02/22-rdf-syntax-ns#">
   <cc:Work>
    <dc:type rdf:resource="http://purl.org/dc/dcmitype/StillImage"/>
    <dc:date>2023-09-07T00:34:35.750775</dc:date>
    <dc:format>image/svg+xml</dc:format>
    <dc:creator>
     <cc:Agent>
      <dc:title>Matplotlib v3.7.2, https://matplotlib.org/</dc:title>
     </cc:Agent>
    </dc:creator>
   </cc:Work>
  </rdf:RDF>
 </metadata>
 <defs>
  <style type="text/css">*{stroke-linejoin: round; stroke-linecap: butt}</style>
 </defs>
 <g id="figure_1">
  <g id="patch_1">
   <path d="M 0 288 
L 414 288 
L 414 0 
L 0 0 
L 0 288 
z
" style="fill: none"/>
  </g>
  <g id="axes_1">
   <g id="patch_2">
    <path d="M 55.2875 241.036875 
L 403.2 241.036875 
L 403.2 25.9575 
L 55.2875 25.9575 
L 55.2875 241.036875 
z
" style="fill: none"/>
   </g>
   <g id="matplotlib.axis_1">
    <g id="xtick_1">
     <g id="line2d_1">
      <defs>
       <path id="m5c33592220" d="M 0 0 
L 0 3.5 
" style="stroke: #000000; stroke-width: 0.8"/>
      </defs>
      <g>
       <use xlink:href="#m5c33592220" x="71.101705" y="241.036875" style="stroke: #000000; stroke-width: 0.8"/>
      </g>
     </g>
     <g id="text_1">
      <!-- 0 -->
      <g transform="translate(66.011705 260.194375) scale(0.16 -0.16)">
       <defs>
        <path id="DejaVuSans-30" d="M 2034 4250 
Q 1547 4250 1301 3770 
Q 1056 3291 1056 2328 
Q 1056 1369 1301 889 
Q 1547 409 2034 409 
Q 2525 409 2770 889 
Q 3016 1369 3016 2328 
Q 3016 3291 2770 3770 
Q 2525 4250 2034 4250 
z
M 2034 4750 
Q 2819 4750 3233 4129 
Q 3647 3509 3647 2328 
Q 3647 1150 3233 529 
Q 2819 -91 2034 -91 
Q 1250 -91 836 529 
Q 422 1150 422 2328 
Q 422 3509 836 4129 
Q 1250 4750 2034 4750 
z
" transform="scale(0.015625)"/>
       </defs>
       <use xlink:href="#DejaVuSans-30"/>
      </g>
     </g>
    </g>
    <g id="xtick_2">
     <g id="line2d_2">
      <g>
       <use xlink:href="#m5c33592220" x="161.468588" y="241.036875" style="stroke: #000000; stroke-width: 0.8"/>
      </g>
     </g>
     <g id="text_2">
      <!-- 1 -->
      <g transform="translate(156.378588 260.194375) scale(0.16 -0.16)">
       <defs>
        <path id="DejaVuSans-31" d="M 794 531 
L 1825 531 
L 1825 4091 
L 703 3866 
L 703 4441 
L 1819 4666 
L 2450 4666 
L 2450 531 
L 3481 531 
L 3481 0 
L 794 0 
L 794 531 
z
" transform="scale(0.015625)"/>
       </defs>
       <use xlink:href="#DejaVuSans-31"/>
      </g>
     </g>
    </g>
    <g id="xtick_3">
     <g id="line2d_3">
      <g>
       <use xlink:href="#m5c33592220" x="251.835471" y="241.036875" style="stroke: #000000; stroke-width: 0.8"/>
      </g>
     </g>
     <g id="text_3">
      <!-- 2 -->
      <g transform="translate(246.745471 260.194375) scale(0.16 -0.16)">
       <defs>
        <path id="DejaVuSans-32" d="M 1228 531 
L 3431 531 
L 3431 0 
L 469 0 
L 469 531 
Q 828 903 1448 1529 
Q 2069 2156 2228 2338 
Q 2531 2678 2651 2914 
Q 2772 3150 2772 3378 
Q 2772 3750 2511 3984 
Q 2250 4219 1831 4219 
Q 1534 4219 1204 4116 
Q 875 4013 500 3803 
L 500 4441 
Q 881 4594 1212 4672 
Q 1544 4750 1819 4750 
Q 2544 4750 2975 4387 
Q 3406 4025 3406 3419 
Q 3406 3131 3298 2873 
Q 3191 2616 2906 2266 
Q 2828 2175 2409 1742 
Q 1991 1309 1228 531 
z
" transform="scale(0.015625)"/>
       </defs>
       <use xlink:href="#DejaVuSans-32"/>
      </g>
     </g>
    </g>
    <g id="xtick_4">
     <g id="line2d_4">
      <g>
       <use xlink:href="#m5c33592220" x="342.202354" y="241.036875" style="stroke: #000000; stroke-width: 0.8"/>
      </g>
     </g>
     <g id="text_4">
      <!-- 3 -->
      <g transform="translate(337.112354 260.194375) scale(0.16 -0.16)">
       <defs>
        <path id="DejaVuSans-33" d="M 2597 2516 
Q 3050 2419 3304 2112 
Q 3559 1806 3559 1356 
Q 3559 666 3084 287 
Q 2609 -91 1734 -91 
Q 1441 -91 1130 -33 
Q 819 25 488 141 
L 488 750 
Q 750 597 1062 519 
Q 1375 441 1716 441 
Q 2309 441 2620 675 
Q 2931 909 2931 1356 
Q 2931 1769 2642 2001 
Q 2353 2234 1838 2234 
L 1294 2234 
L 1294 2753 
L 1863 2753 
Q 2328 2753 2575 2939 
Q 2822 3125 2822 3475 
Q 2822 3834 2567 4026 
Q 2313 4219 1838 4219 
Q 1578 4219 1281 4162 
Q 984 4106 628 3988 
L 628 4550 
Q 988 4650 1302 4700 
Q 1616 4750 1894 4750 
Q 2613 4750 3031 4423 
Q 3450 4097 3450 3541 
Q 3450 3153 3228 2886 
Q 3006 2619 2597 2516 
z
" transform="scale(0.015625)"/>
       </defs>
       <use xlink:href="#DejaVuSans-33"/>
      </g>
     </g>
    </g>
    <g id="text_5">
     <!-- Time [min] -->
     <g transform="translate(202.091406 275.120313) scale(0.1 -0.1)">
      <defs>
       <path id="DejaVuSans-54" d="M -19 4666 
L 3928 4666 
L 3928 4134 
L 2272 4134 
L 2272 0 
L 1638 0 
L 1638 4134 
L -19 4134 
L -19 4666 
z
" transform="scale(0.015625)"/>
       <path id="DejaVuSans-69" d="M 603 3500 
L 1178 3500 
L 1178 0 
L 603 0 
L 603 3500 
z
M 603 4863 
L 1178 4863 
L 1178 4134 
L 603 4134 
L 603 4863 
z
" transform="scale(0.015625)"/>
       <path id="DejaVuSans-6d" d="M 3328 2828 
Q 3544 3216 3844 3400 
Q 4144 3584 4550 3584 
Q 5097 3584 5394 3201 
Q 5691 2819 5691 2113 
L 5691 0 
L 5113 0 
L 5113 2094 
Q 5113 2597 4934 2840 
Q 4756 3084 4391 3084 
Q 3944 3084 3684 2787 
Q 3425 2491 3425 1978 
L 3425 0 
L 2847 0 
L 2847 2094 
Q 2847 2600 2669 2842 
Q 2491 3084 2119 3084 
Q 1678 3084 1418 2786 
Q 1159 2488 1159 1978 
L 1159 0 
L 581 0 
L 581 3500 
L 1159 3500 
L 1159 2956 
Q 1356 3278 1631 3431 
Q 1906 3584 2284 3584 
Q 2666 3584 2933 3390 
Q 3200 3197 3328 2828 
z
" transform="scale(0.015625)"/>
       <path id="DejaVuSans-65" d="M 3597 1894 
L 3597 1613 
L 953 1613 
Q 991 1019 1311 708 
Q 1631 397 2203 397 
Q 2534 397 2845 478 
Q 3156 559 3463 722 
L 3463 178 
Q 3153 47 2828 -22 
Q 2503 -91 2169 -91 
Q 1331 -91 842 396 
Q 353 884 353 1716 
Q 353 2575 817 3079 
Q 1281 3584 2069 3584 
Q 2775 3584 3186 3129 
Q 3597 2675 3597 1894 
z
M 3022 2063 
Q 3016 2534 2758 2815 
Q 2500 3097 2075 3097 
Q 1594 3097 1305 2825 
Q 1016 2553 972 2059 
L 3022 2063 
z
" transform="scale(0.015625)"/>
       <path id="DejaVuSans-20" transform="scale(0.015625)"/>
       <path id="DejaVuSans-5b" d="M 550 4863 
L 1875 4863 
L 1875 4416 
L 1125 4416 
L 1125 -397 
L 1875 -397 
L 1875 -844 
L 550 -844 
L 550 4863 
z
" transform="scale(0.015625)"/>
       <path id="DejaVuSans-6e" d="M 3513 2113 
L 3513 0 
L 2938 0 
L 2938 2094 
Q 2938 2591 2744 2837 
Q 2550 3084 2163 3084 
Q 1697 3084 1428 2787 
Q 1159 2491 1159 1978 
L 1159 0 
L 581 0 
L 581 3500 
L 1159 3500 
L 1159 2956 
Q 1366 3272 1645 3428 
Q 1925 3584 2291 3584 
Q 2894 3584 3203 3211 
Q 3513 2838 3513 2113 
z
" transform="scale(0.015625)"/>
       <path id="DejaVuSans-5d" d="M 1947 4863 
L 1947 -844 
L 622 -844 
L 622 -397 
L 1369 -397 
L 1369 4416 
L 622 4416 
L 622 4863 
L 1947 4863 
z
" transform="scale(0.015625)"/>
      </defs>
      <use xlink:href="#DejaVuSans-54"/>
      <use xlink:href="#DejaVuSans-69" x="57.958984"/>
      <use xlink:href="#DejaVuSans-6d" x="85.742188"/>
      <use xlink:href="#DejaVuSans-65" x="183.154297"/>
      <use xlink:href="#DejaVuSans-20" x="244.677734"/>
      <use xlink:href="#DejaVuSans-5b" x="276.464844"/>
      <use xlink:href="#DejaVuSans-6d" x="315.478516"/>
      <use xlink:href="#DejaVuSans-69" x="412.890625"/>
      <use xlink:href="#DejaVuSans-6e" x="440.673828"/>
      <use xlink:href="#DejaVuSans-5d" x="504.052734"/>
     </g>
    </g>
   </g>
   <g id="matplotlib.axis_2">
    <g id="ytick_1">
     <g id="line2d_5">
      <defs>
       <path id="m1b4658026f" d="M 0 0 
L -3.5 0 
" style="stroke: #000000; stroke-width: 0.8"/>
      </defs>
      <g>
       <use xlink:href="#m1b4658026f" x="55.2875" y="233.319729" style="stroke: #000000; stroke-width: 0.8"/>
      </g>
     </g>
     <g id="text_6">
      <!-- −4 -->
      <g transform="translate(24.7 239.398479) scale(0.16 -0.16)">
       <defs>
        <path id="DejaVuSans-2212" d="M 678 2272 
L 4684 2272 
L 4684 1741 
L 678 1741 
L 678 2272 
z
" transform="scale(0.015625)"/>
        <path id="DejaVuSans-34" d="M 2419 4116 
L 825 1625 
L 2419 1625 
L 2419 4116 
z
M 2253 4666 
L 3047 4666 
L 3047 1625 
L 3713 1625 
L 3713 1100 
L 3047 1100 
L 3047 0 
L 2419 0 
L 2419 1100 
L 313 1100 
L 313 1709 
L 2253 4666 
z
" transform="scale(0.015625)"/>
       </defs>
       <use xlink:href="#DejaVuSans-2212"/>
       <use xlink:href="#DejaVuSans-34" x="83.789062"/>
      </g>
     </g>
    </g>
    <g id="ytick_2">
     <g id="line2d_6">
      <g>
       <use xlink:href="#m1b4658026f" x="55.2875" y="195.769271" style="stroke: #000000; stroke-width: 0.8"/>
      </g>
     </g>
     <g id="text_7">
      <!-- −2 -->
      <g transform="translate(24.7 201.848021) scale(0.16 -0.16)">
       <use xlink:href="#DejaVuSans-2212"/>
       <use xlink:href="#DejaVuSans-32" x="83.789062"/>
      </g>
     </g>
    </g>
    <g id="ytick_3">
     <g id="line2d_7">
      <g>
       <use xlink:href="#m1b4658026f" x="55.2875" y="158.218814" style="stroke: #000000; stroke-width: 0.8"/>
      </g>
     </g>
     <g id="text_8">
      <!-- 0 -->
      <g transform="translate(38.1075 164.297564) scale(0.16 -0.16)">
       <use xlink:href="#DejaVuSans-30"/>
      </g>
     </g>
    </g>
    <g id="ytick_4">
     <g id="line2d_8">
      <g>
       <use xlink:href="#m1b4658026f" x="55.2875" y="120.668356" style="stroke: #000000; stroke-width: 0.8"/>
      </g>
     </g>
     <g id="text_9">
      <!-- 2 -->
      <g transform="translate(38.1075 126.747106) scale(0.16 -0.16)">
       <use xlink:href="#DejaVuSans-32"/>
      </g>
     </g>
    </g>
    <g id="ytick_5">
     <g id="line2d_9">
      <g>
       <use xlink:href="#m1b4658026f" x="55.2875" y="83.117898" style="stroke: #000000; stroke-width: 0.8"/>
      </g>
     </g>
     <g id="text_10">
      <!-- 4 -->
      <g transform="translate(38.1075 89.196648) scale(0.16 -0.16)">
       <use xlink:href="#DejaVuSans-34"/>
      </g>
     </g>
    </g>
    <g id="ytick_6">
     <g id="line2d_10">
      <g>
       <use xlink:href="#m1b4658026f" x="55.2875" y="45.567441" style="stroke: #000000; stroke-width: 0.8"/>
      </g>
     </g>
     <g id="text_11">
      <!-- 6 -->
      <g transform="translate(38.1075 51.646191) scale(0.16 -0.16)">
       <defs>
        <path id="DejaVuSans-36" d="M 2113 2584 
Q 1688 2584 1439 2293 
Q 1191 2003 1191 1497 
Q 1191 994 1439 701 
Q 1688 409 2113 409 
Q 2538 409 2786 701 
Q 3034 994 3034 1497 
Q 3034 2003 2786 2293 
Q 2538 2584 2113 2584 
z
M 3366 4563 
L 3366 3988 
Q 3128 4100 2886 4159 
Q 2644 4219 2406 4219 
Q 1781 4219 1451 3797 
Q 1122 3375 1075 2522 
Q 1259 2794 1537 2939 
Q 1816 3084 2150 3084 
Q 2853 3084 3261 2657 
Q 3669 2231 3669 1497 
Q 3669 778 3244 343 
Q 2819 -91 2113 -91 
Q 1303 -91 875 529 
Q 447 1150 447 2328 
Q 447 3434 972 4092 
Q 1497 4750 2381 4750 
Q 2619 4750 2861 4703 
Q 3103 4656 3366 4563 
z
" transform="scale(0.015625)"/>
       </defs>
       <use xlink:href="#DejaVuSans-36"/>
      </g>
     </g>
    </g>
    <g id="text_12">
     <!-- Attitude Error $\sigma_{B/R}$ -->
     <g transform="translate(18.4 178.447187) rotate(-90) scale(0.1 -0.1)">
      <defs>
       <path id="DejaVuSans-41" d="M 2188 4044 
L 1331 1722 
L 3047 1722 
L 2188 4044 
z
M 1831 4666 
L 2547 4666 
L 4325 0 
L 3669 0 
L 3244 1197 
L 1141 1197 
L 716 0 
L 50 0 
L 1831 4666 
z
" transform="scale(0.015625)"/>
       <path id="DejaVuSans-74" d="M 1172 4494 
L 1172 3500 
L 2356 3500 
L 2356 3053 
L 1172 3053 
L 1172 1153 
Q 1172 725 1289 603 
Q 1406 481 1766 481 
L 2356 481 
L 2356 0 
L 1766 0 
Q 1100 0 847 248 
Q 594 497 594 1153 
L 594 3053 
L 172 3053 
L 172 3500 
L 594 3500 
L 594 4494 
L 1172 4494 
z
" transform="scale(0.015625)"/>
       <path id="DejaVuSans-75" d="M 544 1381 
L 544 3500 
L 1119 3500 
L 1119 1403 
Q 1119 906 1312 657 
Q 1506 409 1894 409 
Q 2359 409 2629 706 
Q 2900 1003 2900 1516 
L 2900 3500 
L 3475 3500 
L 3475 0 
L 2900 0 
L 2900 538 
Q 2691 219 2414 64 
Q 2138 -91 1772 -91 
Q 1169 -91 856 284 
Q 544 659 544 1381 
z
M 1991 3584 
L 1991 3584 
z
" transform="scale(0.015625)"/>
       <path id="DejaVuSans-64" d="M 2906 2969 
L 2906 4863 
L 3481 4863 
L 3481 0 
L 2906 0 
L 2906 525 
Q 2725 213 2448 61 
Q 2172 -91 1784 -91 
Q 1150 -91 751 415 
Q 353 922 353 1747 
Q 353 2572 751 3078 
Q 1150 3584 1784 3584 
Q 2172 3584 2448 3432 
Q 2725 3281 2906 2969 
z
M 947 1747 
Q 947 1113 1208 752 
Q 1469 391 1925 391 
Q 2381 391 2643 752 
Q 2906 1113 2906 1747 
Q 2906 2381 2643 2742 
Q 2381 3103 1925 3103 
Q 1469 3103 1208 2742 
Q 947 2381 947 1747 
z
" transform="scale(0.015625)"/>
       <path id="DejaVuSans-45" d="M 628 4666 
L 3578 4666 
L 3578 4134 
L 1259 4134 
L 1259 2753 
L 3481 2753 
L 3481 2222 
L 1259 2222 
L 1259 531 
L 3634 531 
L 3634 0 
L 628 0 
L 628 4666 
z
" transform="scale(0.015625)"/>
       <path id="DejaVuSans-72" d="M 2631 2963 
Q 2534 3019 2420 3045 
Q 2306 3072 2169 3072 
Q 1681 3072 1420 2755 
Q 1159 2438 1159 1844 
L 1159 0 
L 581 0 
L 581 3500 
L 1159 3500 
L 1159 2956 
Q 1341 3275 1631 3429 
Q 1922 3584 2338 3584 
Q 2397 3584 2469 3576 
Q 2541 3569 2628 3553 
L 2631 2963 
z
" transform="scale(0.015625)"/>
       <path id="DejaVuSans-6f" d="M 1959 3097 
Q 1497 3097 1228 2736 
Q 959 2375 959 1747 
Q 959 1119 1226 758 
Q 1494 397 1959 397 
Q 2419 397 2687 759 
Q 2956 1122 2956 1747 
Q 2956 2369 2687 2733 
Q 2419 3097 1959 3097 
z
M 1959 3584 
Q 2709 3584 3137 3096 
Q 3566 2609 3566 1747 
Q 3566 888 3137 398 
Q 2709 -91 1959 -91 
Q 1206 -91 779 398 
Q 353 888 353 1747 
Q 353 2609 779 3096 
Q 1206 3584 1959 3584 
z
" transform="scale(0.015625)"/>
       <path id="DejaVuSans-Oblique-3c3" d="M 2219 3044 
Q 1744 3044 1422 2700 
Q 1081 2341 969 1747 
Q 844 1119 1044 756 
Q 1241 397 1706 397 
Q 2166 397 2503 759 
Q 2844 1122 2966 1747 
Q 3075 2319 2881 2700 
Q 2700 3044 2219 3044 
z
M 2309 3503 
L 4219 3500 
L 4106 2925 
L 3463 2925 
Q 3706 2438 3575 1747 
Q 3406 888 2884 400 
Q 2359 -91 1609 -91 
Q 856 -91 525 400 
Q 194 888 363 1747 
Q 528 2609 1050 3097 
Q 1484 3503 2309 3503 
z
" transform="scale(0.015625)"/>
       <path id="DejaVuSans-Oblique-42" d="M 1081 4666 
L 2694 4666 
Q 3350 4666 3675 4422 
Q 4000 4178 4000 3688 
Q 4000 3238 3720 2911 
Q 3441 2584 2988 2516 
Q 3375 2428 3569 2181 
Q 3763 1934 3763 1522 
Q 3763 819 3242 409 
Q 2722 0 1819 0 
L 172 0 
L 1081 4666 
z
M 1234 2228 
L 903 519 
L 1919 519 
Q 2491 519 2800 781 
Q 3109 1044 3109 1522 
Q 3109 1891 2904 2059 
Q 2700 2228 2247 2228 
L 1234 2228 
z
M 1606 4147 
L 1331 2741 
L 2272 2741 
Q 2775 2741 3058 2959 
Q 3341 3178 3341 3566 
Q 3341 3869 3150 4008 
Q 2959 4147 2541 4147 
L 1606 4147 
z
" transform="scale(0.015625)"/>
       <path id="DejaVuSans-2f" d="M 1625 4666 
L 2156 4666 
L 531 -594 
L 0 -594 
L 1625 4666 
z
" transform="scale(0.015625)"/>
       <path id="DejaVuSans-Oblique-52" d="M 1613 4147 
L 1294 2491 
L 2106 2491 
Q 2584 2491 2879 2755 
Q 3175 3019 3175 3444 
Q 3175 3784 2976 3965 
Q 2778 4147 2406 4147 
L 1613 4147 
z
M 2772 2241 
Q 2972 2194 3105 2009 
Q 3238 1825 3413 1275 
L 3809 0 
L 3144 0 
L 2778 1197 
Q 2638 1659 2453 1815 
Q 2269 1972 1888 1972 
L 1191 1972 
L 806 0 
L 172 0 
L 1081 4666 
L 2503 4666 
Q 3150 4666 3495 4373 
Q 3841 4081 3841 3531 
Q 3841 3044 3547 2687 
Q 3253 2331 2772 2241 
z
" transform="scale(0.015625)"/>
      </defs>
      <use xlink:href="#DejaVuSans-41" transform="translate(0 0.015625)"/>
      <use xlink:href="#DejaVuSans-74" transform="translate(68.408203 0.015625)"/>
      <use xlink:href="#DejaVuSans-74" transform="translate(107.617188 0.015625)"/>
      <use xlink:href="#DejaVuSans-69" transform="translate(146.826172 0.015625)"/>
      <use xlink:href="#DejaVuSans-74" transform="translate(174.609375 0.015625)"/>
      <use xlink:href="#DejaVuSans-75" transform="translate(213.818359 0.015625)"/>
      <use xlink:href="#DejaVuSans-64" transform="translate(277.197266 0.015625)"/>
      <use xlink:href="#DejaVuSans-65" transform="translate(340.673828 0.015625)"/>
      <use xlink:href="#DejaVuSans-20" transform="translate(402.197266 0.015625)"/>
      <use xlink:href="#DejaVuSans-45" transform="translate(433.984375 0.015625)"/>
      <use xlink:href="#DejaVuSans-72" transform="translate(497.167969 0.015625)"/>
      <use xlink:href="#DejaVuSans-72" transform="translate(538.28125 0.015625)"/>
      <use xlink:href="#DejaVuSans-6f" transform="translate(579.394531 0.015625)"/>
      <use xlink:href="#DejaVuSans-72" transform="translate(640.576172 0.015625)"/>
      <use xlink:href="#DejaVuSans-20" transform="translate(681.689453 0.015625)"/>
      <use xlink:href="#DejaVuSans-Oblique-3c3" transform="translate(713.476562 0.015625)"/>
      <use xlink:href="#DejaVuSans-Oblique-42" transform="translate(776.855469 -16.390625) scale(0.7)"/>
      <use xlink:href="#DejaVuSans-2f" transform="translate(824.87793 -16.390625) scale(0.7)"/>
      <use xlink:href="#DejaVuSans-Oblique-52" transform="translate(847.236914 -16.390625) scale(0.7)"/>
     </g>
    </g>
    <g id="text_13">
     <!-- 1e−5 -->
     <g transform="translate(55.2875 22.9575) scale(0.16 -0.16)">
      <defs>
       <path id="DejaVuSans-35" d="M 691 4666 
L 3169 4666 
L 3169 4134 
L 1269 4134 
L 1269 2991 
Q 1406 3038 1543 3061 
Q 1681 3084 1819 3084 
Q 2600 3084 3056 2656 
Q 3513 2228 3513 1497 
Q 3513 744 3044 326 
Q 2575 -91 1722 -91 
Q 1428 -91 1123 -41 
Q 819 9 494 109 
L 494 744 
Q 775 591 1075 516 
Q 1375 441 1709 441 
Q 2250 441 2565 725 
Q 2881 1009 2881 1497 
Q 2881 1984 2565 2268 
Q 2250 2553 1709 2553 
Q 1456 2553 1204 2497 
Q 953 2441 691 2322 
L 691 4666 
z
" transform="scale(0.015625)"/>
      </defs>
      <use xlink:href="#DejaVuSans-31"/>
      <use xlink:href="#DejaVuSans-65" x="63.623047"/>
      <use xlink:href="#DejaVuSans-2212" x="125.146484"/>
      <use xlink:href="#DejaVuSans-35" x="208.935547"/>
     </g>
    </g>
   </g>
   <g id="line2d_11">
    <path d="M 71.101705 158.218814 
L 71.734273 155.342175 
L 72.366841 149.168912 
L 75.529682 113.282173 
L 76.794818 101.612315 
L 78.059955 91.815328 
L 79.325091 83.775324 
L 80.590227 77.359241 
L 81.855364 72.434356 
L 83.1205 68.872182 
L 83.753068 67.563376 
L 84.385636 66.549452 
L 85.018205 65.815867 
L 85.650773 65.348436 
L 86.283341 65.133327 
L 86.915909 65.157069 
L 87.548477 65.406547 
L 88.181045 65.869004 
L 88.813614 66.532042 
L 90.07875 68.412042 
L 91.343886 70.954453 
L 92.609023 74.072796 
L 93.874159 77.68613 
L 95.771864 83.870543 
L 98.302136 93.188593 
L 101.464977 105.898883 
L 110.320932 142.195908 
L 113.483773 154.002287 
L 116.014045 162.6989 
L 118.544318 170.652005 
L 121.074591 177.823551 
L 123.604864 184.201179 
L 125.502568 188.467445 
L 127.400273 192.300227 
L 129.297977 195.713573 
L 131.195682 198.729306 
L 133.093386 201.368713 
L 134.991091 203.648492 
L 136.888795 205.580886 
L 138.7865 207.17423 
L 140.684205 208.433473 
L 142.581909 209.360643 
L 144.479614 209.955259 
L 146.377318 210.214687 
L 147.642455 210.199289 
L 148.907591 210.031255 
L 150.172727 209.708605 
L 151.437864 209.229117 
L 153.335568 208.210453 
L 155.233273 206.824473 
L 157.130977 205.061535 
L 159.028682 202.911484 
L 160.926386 200.389832 
L 163.456659 196.575895 
L 166.6195 191.346086 
L 175.475455 176.42633 
L 178.005727 172.62126 
L 180.536 169.199756 
L 182.433705 166.932801 
L 184.331409 164.955015 
L 186.229114 163.287409 
L 188.126818 161.914274 
L 190.024523 160.801844 
L 191.922227 159.91734 
L 193.819932 159.231019 
L 196.350205 158.578283 
L 198.880477 158.174328 
L 202.043318 157.945524 
L 205.206159 157.948324 
L 209.634136 158.201605 
L 214.694682 158.457522 
L 217.857523 158.363908 
L 220.387795 158.056326 
L 222.918068 157.48976 
L 224.815773 156.869908 
L 226.713477 156.066028 
L 228.611182 155.064637 
L 231.141455 153.449962 
L 236.202 150.130006 
L 238.099705 149.162022 
L 239.997409 148.479134 
L 241.262545 148.218494 
L 242.527682 148.136356 
L 243.792818 148.2504 
L 245.057955 148.576731 
L 246.323091 149.12996 
L 247.588227 149.923284 
L 248.853364 150.968589 
L 250.1185 152.276546 
L 251.383636 153.856735 
L 252.648773 155.717997 
L 254.546477 159.032101 
L 256.444182 162.87113 
L 258.974455 168.565306 
L 262.769864 177.761244 
L 268.462977 191.548258 
L 271.625818 198.566418 
L 274.156091 203.595918 
L 276.053795 206.930354 
L 277.9515 209.818801 
L 279.849205 212.195247 
L 281.114341 213.465592 
L 282.379477 214.470268 
L 283.644614 215.19924 
L 284.90975 215.643955 
L 286.174886 215.797555 
L 287.440023 215.655169 
L 288.705159 215.214151 
L 289.970295 214.474255 
L 291.235432 213.437732 
L 292.500568 212.109352 
L 293.765705 210.496357 
L 295.030841 208.608341 
L 296.928545 205.286942 
L 298.82625 201.421348 
L 300.723955 197.066916 
L 303.254227 190.605787 
L 305.7845 183.533498 
L 309.579909 172.123282 
L 312.74275 162.657449 
L 314.640455 157.464815 
L 316.538159 152.865017 
L 318.435864 149.004998 
L 319.701 146.902852 
L 320.966136 145.213373 
L 322.231273 143.963081 
L 323.496409 143.175472 
L 324.128977 142.961801 
L 324.761545 142.871464 
L 325.394114 142.906728 
L 326.026682 143.069737 
L 326.65925 143.362517 
L 327.924386 144.344897 
L 329.189523 145.867725 
L 330.454659 147.942921 
L 331.719795 150.580277 
L 332.984932 153.787133 
L 334.250068 157.56793 
L 335.515205 161.923617 
L 337.412909 169.526778 
L 339.310614 178.343507 
L 346.268864 212.795287 
L 347.534 217.95093 
L 348.799136 222.407504 
L 350.064273 226.052969 
L 351.329409 228.792126 
L 351.961977 229.796939 
L 352.594545 230.547593 
L 353.227114 231.037321 
L 353.859682 231.26054 
L 354.49225 231.212856 
L 355.124818 230.891059 
L 355.757386 230.293113 
L 356.389955 229.41813 
L 357.022523 228.266344 
L 358.287659 225.138693 
L 359.552795 220.93289 
L 360.817932 215.686429 
L 362.083068 209.449283 
L 363.348205 202.281208 
L 365.245909 189.930169 
L 367.143614 175.87079 
L 369.041318 160.330702 
L 371.571591 137.633388 
L 374.101864 112.92162 
L 376.632136 86.179494 
L 379.162409 56.978579 
L 380.427545 41.175041 
L 381.060114 35.93902 
L 381.692682 35.733835 
L 382.32525 37.793852 
L 383.590386 44.214893 
L 386.753227 61.181403 
L 387.385795 64.311866 
L 387.385795 64.311866 
" clip-path="url(#p78b17361e9)" style="fill: none; stroke: #2b737e; stroke-width: 1.5; stroke-linecap: square"/>
   </g>
   <g id="line2d_12">
    <path d="M 71.101705 158.218814 
L 71.734273 158.064536 
L 72.366841 157.627476 
L 72.999409 156.944036 
L 74.264545 154.969043 
L 75.529682 152.375174 
L 77.427386 147.745903 
L 84.385636 129.731388 
L 86.283341 125.663544 
L 88.181045 122.193542 
L 89.446182 120.231385 
L 90.711318 118.553072 
L 91.976455 117.154841 
L 93.241591 116.028625 
L 94.506727 115.16302 
L 95.771864 114.544123 
L 97.037 114.156239 
L 98.302136 113.982479 
L 99.567273 114.005262 
L 100.832409 114.206723 
L 102.730114 114.805049 
L 104.627818 115.706819 
L 106.525523 116.856484 
L 109.055795 118.686497 
L 112.218636 121.300096 
L 117.91175 126.39926 
L 123.604864 131.391309 
L 127.400273 134.43694 
L 131.195682 137.189505 
L 134.991091 139.645038 
L 138.7865 141.819326 
L 142.581909 143.739543 
L 147.009886 145.702898 
L 151.437864 147.420952 
L 156.498409 149.153294 
L 162.824091 151.077381 
L 171.047477 153.330568 
L 178.638295 155.190438 
L 184.331409 156.357123 
L 188.759386 157.040662 
L 193.187364 157.483477 
L 198.247909 157.742627 
L 207.103864 157.899791 
L 214.062114 158.129223 
L 226.080909 158.617002 
L 229.876318 158.534025 
L 233.671727 158.212114 
L 238.732273 157.496653 
L 243.792818 156.807127 
L 246.955659 156.599667 
L 249.485932 156.652294 
L 252.016205 156.959596 
L 253.913909 157.392121 
L 255.811614 158.027449 
L 257.709318 158.867517 
L 260.239591 160.271081 
L 263.402432 162.366151 
L 274.788659 170.349413 
L 277.9515 172.103928 
L 280.481773 173.283358 
L 283.644614 174.500784 
L 288.705159 176.134578 
L 301.989091 180.21894 
L 304.519364 180.611641 
L 306.417068 180.677041 
L 308.314773 180.488604 
L 309.579909 180.190847 
L 310.845045 179.737439 
L 312.110182 179.120291 
L 314.007886 177.882956 
L 315.905591 176.281221 
L 317.803295 174.340796 
L 319.701 172.099373 
L 322.231273 168.723204 
L 325.394114 164.058699 
L 333.6175 151.592065 
L 336.147773 148.322136 
L 338.045477 146.265773 
L 339.310614 145.143342 
L 340.57575 144.260092 
L 341.840886 143.64776 
L 343.106023 143.334655 
L 344.371159 143.345071 
L 345.636295 143.698689 
L 346.901432 144.409996 
L 348.166568 145.487729 
L 349.431705 146.934374 
L 350.696841 148.745725 
L 351.961977 150.910542 
L 353.859682 154.778076 
L 355.757386 159.304486 
L 358.287659 166.137581 
L 362.715636 179.138631 
L 365.878477 188.041394 
L 367.776182 192.767307 
L 369.673886 196.79873 
L 370.939023 199.01984 
L 372.204159 200.820727 
L 373.469295 202.169422 
L 374.734432 203.041927 
L 375.367 203.294367 
L 375.999568 203.42252 
L 376.632136 203.425737 
L 377.264705 203.303893 
L 377.897273 203.05739 
L 379.162409 202.194623 
L 380.427545 200.851054 
L 382.32525 198.188445 
L 384.855523 194.130611 
L 387.385795 189.896034 
L 387.385795 189.896034 
" clip-path="url(#p78b17361e9)" style="fill: none; stroke: #5ea04b; stroke-width: 1.5; stroke-linecap: square"/>
   </g>
   <g id="line2d_13">
    <path d="M 71.101705 158.218814 
L 72.366841 158.074055 
L 74.264545 157.509754 
L 79.325091 155.72708 
L 81.855364 155.144252 
L 84.385636 154.831084 
L 86.915909 154.757578 
L 89.446182 154.886776 
L 92.609023 155.295186 
L 95.771864 155.96307 
L 98.934705 156.899305 
L 102.097545 158.120379 
L 105.260386 159.631989 
L 108.423227 161.416012 
L 112.218636 163.845998 
L 122.972295 171.013452 
L 125.502568 172.356509 
L 127.400273 173.173364 
L 129.297977 173.778152 
L 131.195682 174.132899 
L 133.093386 174.229282 
L 134.991091 174.079873 
L 136.888795 173.710019 
L 139.419068 172.930286 
L 141.949341 171.899726 
L 145.74475 170.06097 
L 155.233273 165.260213 
L 159.028682 163.663085 
L 162.191523 162.586408 
L 165.354364 161.754488 
L 169.149773 161.029006 
L 173.57775 160.450468 
L 179.270864 159.950854 
L 186.861682 159.505812 
L 193.819932 159.322937 
L 221.652932 158.929308 
L 230.508886 158.524082 
L 235.569432 158.047972 
L 242.527682 157.088594 
L 246.955659 156.597016 
L 249.485932 156.517104 
L 252.016205 156.68847 
L 253.913909 157.046074 
L 255.811614 157.661994 
L 257.709318 158.55391 
L 259.607023 159.701499 
L 262.137295 161.541819 
L 269.095545 166.943769 
L 270.99325 168.044616 
L 272.258386 168.585142 
L 273.523523 168.934026 
L 274.788659 169.060154 
L 276.053795 168.933216 
L 277.318932 168.523985 
L 278.584068 167.804588 
L 279.849205 166.742203 
L 281.114341 165.299032 
L 282.379477 163.458672 
L 283.644614 161.225615 
L 284.90975 158.621026 
L 286.807455 154.095318 
L 288.705159 148.96869 
L 291.868 139.609103 
L 296.295977 126.422013 
L 298.193682 121.313047 
L 300.091386 116.800327 
L 301.356523 114.203572 
L 302.621659 111.985749 
L 303.886795 110.183716 
L 305.151932 108.829167 
L 306.417068 107.948584 
L 307.049636 107.692889 
L 307.682205 107.563896 
L 308.314773 107.566027 
L 308.947341 107.702535 
L 309.579909 107.974925 
L 310.212477 108.383153 
L 311.477614 109.600333 
L 312.74275 111.329576 
L 314.007886 113.532157 
L 315.273023 116.159162 
L 317.170727 120.772276 
L 319.068432 126.010523 
L 322.231273 135.56437 
L 327.291818 151.000857 
L 329.822091 157.947806 
L 331.719795 162.555307 
L 333.6175 166.523405 
L 334.882636 168.766304 
L 336.147773 170.657716 
L 337.412909 172.174625 
L 338.678045 173.290647 
L 339.943182 173.978739 
L 341.208318 174.224334 
L 342.473455 174.024089 
L 343.738591 173.383873 
L 345.003727 172.317348 
L 346.268864 170.845043 
L 347.534 168.993813 
L 348.799136 166.796548 
L 350.696841 162.938311 
L 352.594545 158.545559 
L 355.757386 150.546219 
L 358.920227 142.573116 
L 360.817932 138.256005 
L 362.715636 134.578677 
L 363.980773 132.592772 
L 365.245909 131.049584 
L 366.511045 130.002172 
L 367.143614 129.678946 
L 367.776182 129.496141 
L 368.40875 129.458175 
L 369.041318 129.568933 
L 369.673886 129.831755 
L 370.306455 130.249446 
L 370.939023 130.824276 
L 372.204159 132.451837 
L 373.469295 134.722484 
L 374.734432 137.636914 
L 375.999568 141.189406 
L 377.264705 145.368907 
L 378.529841 150.160201 
L 380.427545 158.453848 
L 381.692682 163.899353 
L 382.957818 168.054993 
L 384.222955 171.142624 
L 385.488091 173.357625 
L 386.753227 174.863999 
L 387.385795 175.395288 
L 387.385795 175.395288 
" clip-path="url(#p78b17361e9)" style="fill: none; stroke: #bdab62; stroke-width: 1.5; stroke-linecap: square"/>
   </g>
   <g id="patch_3">
    <path d="M 55.2875 241.036875 
L 55.2875 25.9575 
" style="fill: none; stroke: #000000; stroke-width: 0.8; stroke-linejoin: miter; stroke-linecap: square"/>
   </g>
   <g id="patch_4">
    <path d="M 403.2 241.036875 
L 403.2 25.9575 
" style="fill: none; stroke: #000000; stroke-width: 0.8; stroke-linejoin: miter; stroke-linecap: square"/>
   </g>
   <g id="patch_5">
    <path d="M 55.2875 241.036875 
L 403.2 241.036875 
" style="fill: none; stroke: #000000; stroke-width: 0.8; stroke-linejoin: miter; stroke-linecap: square"/>
   </g>
   <g id="patch_6">
    <path d="M 55.2875 25.9575 
L 403.2 25.9575 
" style="fill: none; stroke: #000000; stroke-width: 0.8; stroke-linejoin: miter; stroke-linecap: square"/>
   </g>
   <g id="legend_1">
    <g id="patch_7">
     <path d="M 358.11 236.536875 
L 396.9 236.536875 
Q 398.7 236.536875 398.7 234.736875 
L 398.7 196.005938 
Q 398.7 194.205938 396.9 194.205938 
L 358.11 194.205938 
Q 356.31 194.205938 356.31 196.005938 
L 356.31 234.736875 
Q 356.31 236.536875 358.11 236.536875 
z
" style="fill: #ffffff; opacity: 0.8; stroke: #cccccc; stroke-linejoin: miter"/>
    </g>
    <g id="line2d_14">
     <path d="M 359.91 201.494531 
L 368.91 201.494531 
L 377.91 201.494531 
" style="fill: none; stroke: #2b737e; stroke-width: 1.5; stroke-linecap: square"/>
    </g>
    <g id="text_14">
     <!-- $\sigma_0$ -->
     <g transform="translate(385.11 204.644531) scale(0.09 -0.09)">
      <use xlink:href="#DejaVuSans-Oblique-3c3" transform="translate(0 0.265625)"/>
      <use xlink:href="#DejaVuSans-30" transform="translate(63.378906 -16.140625) scale(0.7)"/>
     </g>
    </g>
    <g id="line2d_15">
     <path d="M 359.91 214.704844 
L 368.91 214.704844 
L 377.91 214.704844 
" style="fill: none; stroke: #5ea04b; stroke-width: 1.5; stroke-linecap: square"/>
    </g>
    <g id="text_15">
     <!-- $\sigma_1$ -->
     <g transform="translate(385.11 217.854844) scale(0.09 -0.09)">
      <use xlink:href="#DejaVuSans-Oblique-3c3" transform="translate(0 0.265625)"/>
      <use xlink:href="#DejaVuSans-31" transform="translate(63.378906 -16.140625) scale(0.7)"/>
     </g>
    </g>
    <g id="line2d_16">
     <path d="M 359.91 227.915156 
L 368.91 227.915156 
L 377.91 227.915156 
" style="fill: none; stroke: #bdab62; stroke-width: 1.5; stroke-linecap: square"/>
    </g>
    <g id="text_16">
     <!-- $\sigma_2$ -->
     <g transform="translate(385.11 231.065156) scale(0.09 -0.09)">
      <use xlink:href="#DejaVuSans-Oblique-3c3" transform="translate(0 0.265625)"/>
      <use xlink:href="#DejaVuSans-32" transform="translate(63.378906 -16.140625) scale(0.7)"/>
     </g>
    </g>
   </g>
  </g>
 </g>
 <defs>
  <clipPath id="p78b17361e9">
   <rect x="55.2875" y="25.9575" width="347.9125" height="215.079375"/>
  </clipPath>
 </defs>
</svg>
