<?xml version="1.0" encoding="utf-8" standalone="no"?>
<!DOCTYPE svg PUBLIC "-//W3C//DTD SVG 1.1//EN"
  "http://www.w3.org/Graphics/SVG/1.1/DTD/svg11.dtd">
<svg xmlns:xlink="http://www.w3.org/1999/xlink" width="414pt" height="288pt" viewBox="0 0 414 288" xmlns="http://www.w3.org/2000/svg" version="1.1">
 <metadata>
  <rdf:RDF xmlns:dc="http://purl.org/dc/elements/1.1/" xmlns:cc="http://creativecommons.org/ns#" xmlns:rdf="http://www.w3.org/1999/02/22-rdf-syntax-ns#">
   <cc:Work>
    <dc:type rdf:resource="http://purl.org/dc/dcmitype/StillImage"/>
    <dc:date>2023-09-07T00:35:09.869024</dc:date>
    <dc:format>image/svg+xml</dc:format>
    <dc:creator>
     <cc:Agent>
      <dc:title>Matplotlib v3.7.2, https://matplotlib.org/</dc:title>
     </cc:Agent>
    </dc:creator>
   </cc:Work>
  </rdf:RDF>
 </metadata>
 <defs>
  <style type="text/css">*{stroke-linejoin: round; stroke-linecap: butt}</style>
 </defs>
 <g id="figure_1">
  <g id="patch_1">
   <path d="M 0 288 
L 414 288 
L 414 0 
L 0 0 
L 0 288 
z
" style="fill: none"/>
  </g>
  <g id="axes_1">
   <g id="patch_2">
    <path d="M 69.078125 241.036875 
L 403.2 241.036875 
L 403.2 10.8 
L 69.078125 10.8 
L 69.078125 241.036875 
z
" style="fill: none"/>
   </g>
   <g id="matplotlib.axis_1">
    <g id="xtick_1">
     <g id="line2d_1">
      <defs>
       <path id="mf7f426a417" d="M 0 0 
L 0 3.5 
" style="stroke: #000000; stroke-width: 0.8"/>
      </defs>
      <g>
       <use xlink:href="#mf7f426a417" x="84.265483" y="241.036875" style="stroke: #000000; stroke-width: 0.8"/>
      </g>
     </g>
     <g id="text_1">
      <!-- 0 -->
      <g transform="translate(79.175483 260.194375) scale(0.16 -0.16)">
       <defs>
        <path id="DejaVuSans-30" d="M 2034 4250 
Q 1547 4250 1301 3770 
Q 1056 3291 1056 2328 
Q 1056 1369 1301 889 
Q 1547 409 2034 409 
Q 2525 409 2770 889 
Q 3016 1369 3016 2328 
Q 3016 3291 2770 3770 
Q 2525 4250 2034 4250 
z
M 2034 4750 
Q 2819 4750 3233 4129 
Q 3647 3509 3647 2328 
Q 3647 1150 3233 529 
Q 2819 -91 2034 -91 
Q 1250 -91 836 529 
Q 422 1150 422 2328 
Q 422 3509 836 4129 
Q 1250 4750 2034 4750 
z
" transform="scale(0.015625)"/>
       </defs>
       <use xlink:href="#DejaVuSans-30"/>
      </g>
     </g>
    </g>
    <g id="xtick_2">
     <g id="line2d_2">
      <g>
       <use xlink:href="#mf7f426a417" x="145.014915" y="241.036875" style="stroke: #000000; stroke-width: 0.8"/>
      </g>
     </g>
     <g id="text_2">
      <!-- 2 -->
      <g transform="translate(139.924915 260.194375) scale(0.16 -0.16)">
       <defs>
        <path id="DejaVuSans-32" d="M 1228 531 
L 3431 531 
L 3431 0 
L 469 0 
L 469 531 
Q 828 903 1448 1529 
Q 2069 2156 2228 2338 
Q 2531 2678 2651 2914 
Q 2772 3150 2772 3378 
Q 2772 3750 2511 3984 
Q 2250 4219 1831 4219 
Q 1534 4219 1204 4116 
Q 875 4013 500 3803 
L 500 4441 
Q 881 4594 1212 4672 
Q 1544 4750 1819 4750 
Q 2544 4750 2975 4387 
Q 3406 4025 3406 3419 
Q 3406 3131 3298 2873 
Q 3191 2616 2906 2266 
Q 2828 2175 2409 1742 
Q 1991 1309 1228 531 
z
" transform="scale(0.015625)"/>
       </defs>
       <use xlink:href="#DejaVuSans-32"/>
      </g>
     </g>
    </g>
    <g id="xtick_3">
     <g id="line2d_3">
      <g>
       <use xlink:href="#mf7f426a417" x="205.764347" y="241.036875" style="stroke: #000000; stroke-width: 0.8"/>
      </g>
     </g>
     <g id="text_3">
      <!-- 4 -->
      <g transform="translate(200.674347 260.194375) scale(0.16 -0.16)">
       <defs>
        <path id="DejaVuSans-34" d="M 2419 4116 
L 825 1625 
L 2419 1625 
L 2419 4116 
z
M 2253 4666 
L 3047 4666 
L 3047 1625 
L 3713 1625 
L 3713 1100 
L 3047 1100 
L 3047 0 
L 2419 0 
L 2419 1100 
L 313 1100 
L 313 1709 
L 2253 4666 
z
" transform="scale(0.015625)"/>
       </defs>
       <use xlink:href="#DejaVuSans-34"/>
      </g>
     </g>
    </g>
    <g id="xtick_4">
     <g id="line2d_4">
      <g>
       <use xlink:href="#mf7f426a417" x="266.513778" y="241.036875" style="stroke: #000000; stroke-width: 0.8"/>
      </g>
     </g>
     <g id="text_4">
      <!-- 6 -->
      <g transform="translate(261.423778 260.194375) scale(0.16 -0.16)">
       <defs>
        <path id="DejaVuSans-36" d="M 2113 2584 
Q 1688 2584 1439 2293 
Q 1191 2003 1191 1497 
Q 1191 994 1439 701 
Q 1688 409 2113 409 
Q 2538 409 2786 701 
Q 3034 994 3034 1497 
Q 3034 2003 2786 2293 
Q 2538 2584 2113 2584 
z
M 3366 4563 
L 3366 3988 
Q 3128 4100 2886 4159 
Q 2644 4219 2406 4219 
Q 1781 4219 1451 3797 
Q 1122 3375 1075 2522 
Q 1259 2794 1537 2939 
Q 1816 3084 2150 3084 
Q 2853 3084 3261 2657 
Q 3669 2231 3669 1497 
Q 3669 778 3244 343 
Q 2819 -91 2113 -91 
Q 1303 -91 875 529 
Q 447 1150 447 2328 
Q 447 3434 972 4092 
Q 1497 4750 2381 4750 
Q 2619 4750 2861 4703 
Q 3103 4656 3366 4563 
z
" transform="scale(0.015625)"/>
       </defs>
       <use xlink:href="#DejaVuSans-36"/>
      </g>
     </g>
    </g>
    <g id="xtick_5">
     <g id="line2d_5">
      <g>
       <use xlink:href="#mf7f426a417" x="327.26321" y="241.036875" style="stroke: #000000; stroke-width: 0.8"/>
      </g>
     </g>
     <g id="text_5">
      <!-- 8 -->
      <g transform="translate(322.17321 260.194375) scale(0.16 -0.16)">
       <defs>
        <path id="DejaVuSans-38" d="M 2034 2216 
Q 1584 2216 1326 1975 
Q 1069 1734 1069 1313 
Q 1069 891 1326 650 
Q 1584 409 2034 409 
Q 2484 409 2743 651 
Q 3003 894 3003 1313 
Q 3003 1734 2745 1975 
Q 2488 2216 2034 2216 
z
M 1403 2484 
Q 997 2584 770 2862 
Q 544 3141 544 3541 
Q 544 4100 942 4425 
Q 1341 4750 2034 4750 
Q 2731 4750 3128 4425 
Q 3525 4100 3525 3541 
Q 3525 3141 3298 2862 
Q 3072 2584 2669 2484 
Q 3125 2378 3379 2068 
Q 3634 1759 3634 1313 
Q 3634 634 3220 271 
Q 2806 -91 2034 -91 
Q 1263 -91 848 271 
Q 434 634 434 1313 
Q 434 1759 690 2068 
Q 947 2378 1403 2484 
z
M 1172 3481 
Q 1172 3119 1398 2916 
Q 1625 2713 2034 2713 
Q 2441 2713 2670 2916 
Q 2900 3119 2900 3481 
Q 2900 3844 2670 4047 
Q 2441 4250 2034 4250 
Q 1625 4250 1398 4047 
Q 1172 3844 1172 3481 
z
" transform="scale(0.015625)"/>
       </defs>
       <use xlink:href="#DejaVuSans-38"/>
      </g>
     </g>
    </g>
    <g id="xtick_6">
     <g id="line2d_6">
      <g>
       <use xlink:href="#mf7f426a417" x="388.012642" y="241.036875" style="stroke: #000000; stroke-width: 0.8"/>
      </g>
     </g>
     <g id="text_6">
      <!-- 10 -->
      <g transform="translate(377.832642 260.194375) scale(0.16 -0.16)">
       <defs>
        <path id="DejaVuSans-31" d="M 794 531 
L 1825 531 
L 1825 4091 
L 703 3866 
L 703 4441 
L 1819 4666 
L 2450 4666 
L 2450 531 
L 3481 531 
L 3481 0 
L 794 0 
L 794 531 
z
" transform="scale(0.015625)"/>
       </defs>
       <use xlink:href="#DejaVuSans-31"/>
       <use xlink:href="#DejaVuSans-30" x="63.623047"/>
      </g>
     </g>
    </g>
    <g id="text_7">
     <!-- Time [min] -->
     <g transform="translate(208.986719 275.120313) scale(0.1 -0.1)">
      <defs>
       <path id="DejaVuSans-54" d="M -19 4666 
L 3928 4666 
L 3928 4134 
L 2272 4134 
L 2272 0 
L 1638 0 
L 1638 4134 
L -19 4134 
L -19 4666 
z
" transform="scale(0.015625)"/>
       <path id="DejaVuSans-69" d="M 603 3500 
L 1178 3500 
L 1178 0 
L 603 0 
L 603 3500 
z
M 603 4863 
L 1178 4863 
L 1178 4134 
L 603 4134 
L 603 4863 
z
" transform="scale(0.015625)"/>
       <path id="DejaVuSans-6d" d="M 3328 2828 
Q 3544 3216 3844 3400 
Q 4144 3584 4550 3584 
Q 5097 3584 5394 3201 
Q 5691 2819 5691 2113 
L 5691 0 
L 5113 0 
L 5113 2094 
Q 5113 2597 4934 2840 
Q 4756 3084 4391 3084 
Q 3944 3084 3684 2787 
Q 3425 2491 3425 1978 
L 3425 0 
L 2847 0 
L 2847 2094 
Q 2847 2600 2669 2842 
Q 2491 3084 2119 3084 
Q 1678 3084 1418 2786 
Q 1159 2488 1159 1978 
L 1159 0 
L 581 0 
L 581 3500 
L 1159 3500 
L 1159 2956 
Q 1356 3278 1631 3431 
Q 1906 3584 2284 3584 
Q 2666 3584 2933 3390 
Q 3200 3197 3328 2828 
z
" transform="scale(0.015625)"/>
       <path id="DejaVuSans-65" d="M 3597 1894 
L 3597 1613 
L 953 1613 
Q 991 1019 1311 708 
Q 1631 397 2203 397 
Q 2534 397 2845 478 
Q 3156 559 3463 722 
L 3463 178 
Q 3153 47 2828 -22 
Q 2503 -91 2169 -91 
Q 1331 -91 842 396 
Q 353 884 353 1716 
Q 353 2575 817 3079 
Q 1281 3584 2069 3584 
Q 2775 3584 3186 3129 
Q 3597 2675 3597 1894 
z
M 3022 2063 
Q 3016 2534 2758 2815 
Q 2500 3097 2075 3097 
Q 1594 3097 1305 2825 
Q 1016 2553 972 2059 
L 3022 2063 
z
" transform="scale(0.015625)"/>
       <path id="DejaVuSans-20" transform="scale(0.015625)"/>
       <path id="DejaVuSans-5b" d="M 550 4863 
L 1875 4863 
L 1875 4416 
L 1125 4416 
L 1125 -397 
L 1875 -397 
L 1875 -844 
L 550 -844 
L 550 4863 
z
" transform="scale(0.015625)"/>
       <path id="DejaVuSans-6e" d="M 3513 2113 
L 3513 0 
L 2938 0 
L 2938 2094 
Q 2938 2591 2744 2837 
Q 2550 3084 2163 3084 
Q 1697 3084 1428 2787 
Q 1159 2491 1159 1978 
L 1159 0 
L 581 0 
L 581 3500 
L 1159 3500 
L 1159 2956 
Q 1366 3272 1645 3428 
Q 1925 3584 2291 3584 
Q 2894 3584 3203 3211 
Q 3513 2838 3513 2113 
z
" transform="scale(0.015625)"/>
       <path id="DejaVuSans-5d" d="M 1947 4863 
L 1947 -844 
L 622 -844 
L 622 -397 
L 1369 -397 
L 1369 4416 
L 622 4416 
L 622 4863 
L 1947 4863 
z
" transform="scale(0.015625)"/>
      </defs>
      <use xlink:href="#DejaVuSans-54"/>
      <use xlink:href="#DejaVuSans-69" x="57.958984"/>
      <use xlink:href="#DejaVuSans-6d" x="85.742188"/>
      <use xlink:href="#DejaVuSans-65" x="183.154297"/>
      <use xlink:href="#DejaVuSans-20" x="244.677734"/>
      <use xlink:href="#DejaVuSans-5b" x="276.464844"/>
      <use xlink:href="#DejaVuSans-6d" x="315.478516"/>
      <use xlink:href="#DejaVuSans-69" x="412.890625"/>
      <use xlink:href="#DejaVuSans-6e" x="440.673828"/>
      <use xlink:href="#DejaVuSans-5d" x="504.052734"/>
     </g>
    </g>
   </g>
   <g id="matplotlib.axis_2">
    <g id="ytick_1">
     <g id="line2d_7">
      <defs>
       <path id="ma49decd414" d="M 0 0 
L -3.5 0 
" style="stroke: #000000; stroke-width: 0.8"/>
      </defs>
      <g>
       <use xlink:href="#ma49decd414" x="69.078125" y="204.138933" style="stroke: #000000; stroke-width: 0.8"/>
      </g>
     </g>
     <g id="text_8">
      <!-- $\mathdefault{10^{-9}}$ -->
      <g transform="translate(24.478125 210.217683) scale(0.16 -0.16)">
       <defs>
        <path id="DejaVuSans-2212" d="M 678 2272 
L 4684 2272 
L 4684 1741 
L 678 1741 
L 678 2272 
z
" transform="scale(0.015625)"/>
        <path id="DejaVuSans-39" d="M 703 97 
L 703 672 
Q 941 559 1184 500 
Q 1428 441 1663 441 
Q 2288 441 2617 861 
Q 2947 1281 2994 2138 
Q 2813 1869 2534 1725 
Q 2256 1581 1919 1581 
Q 1219 1581 811 2004 
Q 403 2428 403 3163 
Q 403 3881 828 4315 
Q 1253 4750 1959 4750 
Q 2769 4750 3195 4129 
Q 3622 3509 3622 2328 
Q 3622 1225 3098 567 
Q 2575 -91 1691 -91 
Q 1453 -91 1209 -44 
Q 966 3 703 97 
z
M 1959 2075 
Q 2384 2075 2632 2365 
Q 2881 2656 2881 3163 
Q 2881 3666 2632 3958 
Q 2384 4250 1959 4250 
Q 1534 4250 1286 3958 
Q 1038 3666 1038 3163 
Q 1038 2656 1286 2365 
Q 1534 2075 1959 2075 
z
" transform="scale(0.015625)"/>
       </defs>
       <use xlink:href="#DejaVuSans-31" transform="translate(0 0.765625)"/>
       <use xlink:href="#DejaVuSans-30" transform="translate(63.623047 0.765625)"/>
       <use xlink:href="#DejaVuSans-2212" transform="translate(128.203125 39.046875) scale(0.7)"/>
       <use xlink:href="#DejaVuSans-39" transform="translate(186.855469 39.046875) scale(0.7)"/>
      </g>
     </g>
    </g>
    <g id="ytick_2">
     <g id="line2d_8">
      <g>
       <use xlink:href="#ma49decd414" x="69.078125" y="163.567122" style="stroke: #000000; stroke-width: 0.8"/>
      </g>
     </g>
     <g id="text_9">
      <!-- $\mathdefault{10^{-7}}$ -->
      <g transform="translate(24.478125 169.645872) scale(0.16 -0.16)">
       <defs>
        <path id="DejaVuSans-37" d="M 525 4666 
L 3525 4666 
L 3525 4397 
L 1831 0 
L 1172 0 
L 2766 4134 
L 525 4134 
L 525 4666 
z
" transform="scale(0.015625)"/>
       </defs>
       <use xlink:href="#DejaVuSans-31" transform="translate(0 0.684375)"/>
       <use xlink:href="#DejaVuSans-30" transform="translate(63.623047 0.684375)"/>
       <use xlink:href="#DejaVuSans-2212" transform="translate(128.203125 38.965625) scale(0.7)"/>
       <use xlink:href="#DejaVuSans-37" transform="translate(186.855469 38.965625) scale(0.7)"/>
      </g>
     </g>
    </g>
    <g id="ytick_3">
     <g id="line2d_9">
      <g>
       <use xlink:href="#ma49decd414" x="69.078125" y="122.995311" style="stroke: #000000; stroke-width: 0.8"/>
      </g>
     </g>
     <g id="text_10">
      <!-- $\mathdefault{10^{-5}}$ -->
      <g transform="translate(24.478125 129.074061) scale(0.16 -0.16)">
       <defs>
        <path id="DejaVuSans-35" d="M 691 4666 
L 3169 4666 
L 3169 4134 
L 1269 4134 
L 1269 2991 
Q 1406 3038 1543 3061 
Q 1681 3084 1819 3084 
Q 2600 3084 3056 2656 
Q 3513 2228 3513 1497 
Q 3513 744 3044 326 
Q 2575 -91 1722 -91 
Q 1428 -91 1123 -41 
Q 819 9 494 109 
L 494 744 
Q 775 591 1075 516 
Q 1375 441 1709 441 
Q 2250 441 2565 725 
Q 2881 1009 2881 1497 
Q 2881 1984 2565 2268 
Q 2250 2553 1709 2553 
Q 1456 2553 1204 2497 
Q 953 2441 691 2322 
L 691 4666 
z
" transform="scale(0.015625)"/>
       </defs>
       <use xlink:href="#DejaVuSans-31" transform="translate(0 0.684375)"/>
       <use xlink:href="#DejaVuSans-30" transform="translate(63.623047 0.684375)"/>
       <use xlink:href="#DejaVuSans-2212" transform="translate(128.203125 38.965625) scale(0.7)"/>
       <use xlink:href="#DejaVuSans-35" transform="translate(186.855469 38.965625) scale(0.7)"/>
      </g>
     </g>
    </g>
    <g id="ytick_4">
     <g id="line2d_10">
      <g>
       <use xlink:href="#ma49decd414" x="69.078125" y="82.4235" style="stroke: #000000; stroke-width: 0.8"/>
      </g>
     </g>
     <g id="text_11">
      <!-- $\mathdefault{10^{-3}}$ -->
      <g transform="translate(24.478125 88.50225) scale(0.16 -0.16)">
       <defs>
        <path id="DejaVuSans-33" d="M 2597 2516 
Q 3050 2419 3304 2112 
Q 3559 1806 3559 1356 
Q 3559 666 3084 287 
Q 2609 -91 1734 -91 
Q 1441 -91 1130 -33 
Q 819 25 488 141 
L 488 750 
Q 750 597 1062 519 
Q 1375 441 1716 441 
Q 2309 441 2620 675 
Q 2931 909 2931 1356 
Q 2931 1769 2642 2001 
Q 2353 2234 1838 2234 
L 1294 2234 
L 1294 2753 
L 1863 2753 
Q 2328 2753 2575 2939 
Q 2822 3125 2822 3475 
Q 2822 3834 2567 4026 
Q 2313 4219 1838 4219 
Q 1578 4219 1281 4162 
Q 984 4106 628 3988 
L 628 4550 
Q 988 4650 1302 4700 
Q 1616 4750 1894 4750 
Q 2613 4750 3031 4423 
Q 3450 4097 3450 3541 
Q 3450 3153 3228 2886 
Q 3006 2619 2597 2516 
z
" transform="scale(0.015625)"/>
       </defs>
       <use xlink:href="#DejaVuSans-31" transform="translate(0 0.765625)"/>
       <use xlink:href="#DejaVuSans-30" transform="translate(63.623047 0.765625)"/>
       <use xlink:href="#DejaVuSans-2212" transform="translate(128.203125 39.046875) scale(0.7)"/>
       <use xlink:href="#DejaVuSans-33" transform="translate(186.855469 39.046875) scale(0.7)"/>
      </g>
     </g>
    </g>
    <g id="ytick_5">
     <g id="line2d_11">
      <g>
       <use xlink:href="#ma49decd414" x="69.078125" y="41.851688" style="stroke: #000000; stroke-width: 0.8"/>
      </g>
     </g>
     <g id="text_12">
      <!-- $\mathdefault{10^{-1}}$ -->
      <g transform="translate(24.478125 47.930438) scale(0.16 -0.16)">
       <use xlink:href="#DejaVuSans-31" transform="translate(0 0.684375)"/>
       <use xlink:href="#DejaVuSans-30" transform="translate(63.623047 0.684375)"/>
       <use xlink:href="#DejaVuSans-2212" transform="translate(128.203125 38.965625) scale(0.7)"/>
       <use xlink:href="#DejaVuSans-31" transform="translate(186.855469 38.965625) scale(0.7)"/>
      </g>
     </g>
    </g>
    <g id="text_13">
     <!-- Rate Tracking Error (deg/s)  -->
     <g transform="translate(18.398438 194.350469) rotate(-90) scale(0.1 -0.1)">
      <defs>
       <path id="DejaVuSans-52" d="M 2841 2188 
Q 3044 2119 3236 1894 
Q 3428 1669 3622 1275 
L 4263 0 
L 3584 0 
L 2988 1197 
Q 2756 1666 2539 1819 
Q 2322 1972 1947 1972 
L 1259 1972 
L 1259 0 
L 628 0 
L 628 4666 
L 2053 4666 
Q 2853 4666 3247 4331 
Q 3641 3997 3641 3322 
Q 3641 2881 3436 2590 
Q 3231 2300 2841 2188 
z
M 1259 4147 
L 1259 2491 
L 2053 2491 
Q 2509 2491 2742 2702 
Q 2975 2913 2975 3322 
Q 2975 3731 2742 3939 
Q 2509 4147 2053 4147 
L 1259 4147 
z
" transform="scale(0.015625)"/>
       <path id="DejaVuSans-61" d="M 2194 1759 
Q 1497 1759 1228 1600 
Q 959 1441 959 1056 
Q 959 750 1161 570 
Q 1363 391 1709 391 
Q 2188 391 2477 730 
Q 2766 1069 2766 1631 
L 2766 1759 
L 2194 1759 
z
M 3341 1997 
L 3341 0 
L 2766 0 
L 2766 531 
Q 2569 213 2275 61 
Q 1981 -91 1556 -91 
Q 1019 -91 701 211 
Q 384 513 384 1019 
Q 384 1609 779 1909 
Q 1175 2209 1959 2209 
L 2766 2209 
L 2766 2266 
Q 2766 2663 2505 2880 
Q 2244 3097 1772 3097 
Q 1472 3097 1187 3025 
Q 903 2953 641 2809 
L 641 3341 
Q 956 3463 1253 3523 
Q 1550 3584 1831 3584 
Q 2591 3584 2966 3190 
Q 3341 2797 3341 1997 
z
" transform="scale(0.015625)"/>
       <path id="DejaVuSans-74" d="M 1172 4494 
L 1172 3500 
L 2356 3500 
L 2356 3053 
L 1172 3053 
L 1172 1153 
Q 1172 725 1289 603 
Q 1406 481 1766 481 
L 2356 481 
L 2356 0 
L 1766 0 
Q 1100 0 847 248 
Q 594 497 594 1153 
L 594 3053 
L 172 3053 
L 172 3500 
L 594 3500 
L 594 4494 
L 1172 4494 
z
" transform="scale(0.015625)"/>
       <path id="DejaVuSans-72" d="M 2631 2963 
Q 2534 3019 2420 3045 
Q 2306 3072 2169 3072 
Q 1681 3072 1420 2755 
Q 1159 2438 1159 1844 
L 1159 0 
L 581 0 
L 581 3500 
L 1159 3500 
L 1159 2956 
Q 1341 3275 1631 3429 
Q 1922 3584 2338 3584 
Q 2397 3584 2469 3576 
Q 2541 3569 2628 3553 
L 2631 2963 
z
" transform="scale(0.015625)"/>
       <path id="DejaVuSans-63" d="M 3122 3366 
L 3122 2828 
Q 2878 2963 2633 3030 
Q 2388 3097 2138 3097 
Q 1578 3097 1268 2742 
Q 959 2388 959 1747 
Q 959 1106 1268 751 
Q 1578 397 2138 397 
Q 2388 397 2633 464 
Q 2878 531 3122 666 
L 3122 134 
Q 2881 22 2623 -34 
Q 2366 -91 2075 -91 
Q 1284 -91 818 406 
Q 353 903 353 1747 
Q 353 2603 823 3093 
Q 1294 3584 2113 3584 
Q 2378 3584 2631 3529 
Q 2884 3475 3122 3366 
z
" transform="scale(0.015625)"/>
       <path id="DejaVuSans-6b" d="M 581 4863 
L 1159 4863 
L 1159 1991 
L 2875 3500 
L 3609 3500 
L 1753 1863 
L 3688 0 
L 2938 0 
L 1159 1709 
L 1159 0 
L 581 0 
L 581 4863 
z
" transform="scale(0.015625)"/>
       <path id="DejaVuSans-67" d="M 2906 1791 
Q 2906 2416 2648 2759 
Q 2391 3103 1925 3103 
Q 1463 3103 1205 2759 
Q 947 2416 947 1791 
Q 947 1169 1205 825 
Q 1463 481 1925 481 
Q 2391 481 2648 825 
Q 2906 1169 2906 1791 
z
M 3481 434 
Q 3481 -459 3084 -895 
Q 2688 -1331 1869 -1331 
Q 1566 -1331 1297 -1286 
Q 1028 -1241 775 -1147 
L 775 -588 
Q 1028 -725 1275 -790 
Q 1522 -856 1778 -856 
Q 2344 -856 2625 -561 
Q 2906 -266 2906 331 
L 2906 616 
Q 2728 306 2450 153 
Q 2172 0 1784 0 
Q 1141 0 747 490 
Q 353 981 353 1791 
Q 353 2603 747 3093 
Q 1141 3584 1784 3584 
Q 2172 3584 2450 3431 
Q 2728 3278 2906 2969 
L 2906 3500 
L 3481 3500 
L 3481 434 
z
" transform="scale(0.015625)"/>
       <path id="DejaVuSans-45" d="M 628 4666 
L 3578 4666 
L 3578 4134 
L 1259 4134 
L 1259 2753 
L 3481 2753 
L 3481 2222 
L 1259 2222 
L 1259 531 
L 3634 531 
L 3634 0 
L 628 0 
L 628 4666 
z
" transform="scale(0.015625)"/>
       <path id="DejaVuSans-6f" d="M 1959 3097 
Q 1497 3097 1228 2736 
Q 959 2375 959 1747 
Q 959 1119 1226 758 
Q 1494 397 1959 397 
Q 2419 397 2687 759 
Q 2956 1122 2956 1747 
Q 2956 2369 2687 2733 
Q 2419 3097 1959 3097 
z
M 1959 3584 
Q 2709 3584 3137 3096 
Q 3566 2609 3566 1747 
Q 3566 888 3137 398 
Q 2709 -91 1959 -91 
Q 1206 -91 779 398 
Q 353 888 353 1747 
Q 353 2609 779 3096 
Q 1206 3584 1959 3584 
z
" transform="scale(0.015625)"/>
       <path id="DejaVuSans-28" d="M 1984 4856 
Q 1566 4138 1362 3434 
Q 1159 2731 1159 2009 
Q 1159 1288 1364 580 
Q 1569 -128 1984 -844 
L 1484 -844 
Q 1016 -109 783 600 
Q 550 1309 550 2009 
Q 550 2706 781 3412 
Q 1013 4119 1484 4856 
L 1984 4856 
z
" transform="scale(0.015625)"/>
       <path id="DejaVuSans-64" d="M 2906 2969 
L 2906 4863 
L 3481 4863 
L 3481 0 
L 2906 0 
L 2906 525 
Q 2725 213 2448 61 
Q 2172 -91 1784 -91 
Q 1150 -91 751 415 
Q 353 922 353 1747 
Q 353 2572 751 3078 
Q 1150 3584 1784 3584 
Q 2172 3584 2448 3432 
Q 2725 3281 2906 2969 
z
M 947 1747 
Q 947 1113 1208 752 
Q 1469 391 1925 391 
Q 2381 391 2643 752 
Q 2906 1113 2906 1747 
Q 2906 2381 2643 2742 
Q 2381 3103 1925 3103 
Q 1469 3103 1208 2742 
Q 947 2381 947 1747 
z
" transform="scale(0.015625)"/>
       <path id="DejaVuSans-2f" d="M 1625 4666 
L 2156 4666 
L 531 -594 
L 0 -594 
L 1625 4666 
z
" transform="scale(0.015625)"/>
       <path id="DejaVuSans-73" d="M 2834 3397 
L 2834 2853 
Q 2591 2978 2328 3040 
Q 2066 3103 1784 3103 
Q 1356 3103 1142 2972 
Q 928 2841 928 2578 
Q 928 2378 1081 2264 
Q 1234 2150 1697 2047 
L 1894 2003 
Q 2506 1872 2764 1633 
Q 3022 1394 3022 966 
Q 3022 478 2636 193 
Q 2250 -91 1575 -91 
Q 1294 -91 989 -36 
Q 684 19 347 128 
L 347 722 
Q 666 556 975 473 
Q 1284 391 1588 391 
Q 1994 391 2212 530 
Q 2431 669 2431 922 
Q 2431 1156 2273 1281 
Q 2116 1406 1581 1522 
L 1381 1569 
Q 847 1681 609 1914 
Q 372 2147 372 2553 
Q 372 3047 722 3315 
Q 1072 3584 1716 3584 
Q 2034 3584 2315 3537 
Q 2597 3491 2834 3397 
z
" transform="scale(0.015625)"/>
       <path id="DejaVuSans-29" d="M 513 4856 
L 1013 4856 
Q 1481 4119 1714 3412 
Q 1947 2706 1947 2009 
Q 1947 1309 1714 600 
Q 1481 -109 1013 -844 
L 513 -844 
Q 928 -128 1133 580 
Q 1338 1288 1338 2009 
Q 1338 2731 1133 3434 
Q 928 4138 513 4856 
z
" transform="scale(0.015625)"/>
      </defs>
      <use xlink:href="#DejaVuSans-52"/>
      <use xlink:href="#DejaVuSans-61" x="67.232422"/>
      <use xlink:href="#DejaVuSans-74" x="128.511719"/>
      <use xlink:href="#DejaVuSans-65" x="167.720703"/>
      <use xlink:href="#DejaVuSans-20" x="229.244141"/>
      <use xlink:href="#DejaVuSans-54" x="261.03125"/>
      <use xlink:href="#DejaVuSans-72" x="307.365234"/>
      <use xlink:href="#DejaVuSans-61" x="348.478516"/>
      <use xlink:href="#DejaVuSans-63" x="409.757812"/>
      <use xlink:href="#DejaVuSans-6b" x="464.738281"/>
      <use xlink:href="#DejaVuSans-69" x="522.648438"/>
      <use xlink:href="#DejaVuSans-6e" x="550.431641"/>
      <use xlink:href="#DejaVuSans-67" x="613.810547"/>
      <use xlink:href="#DejaVuSans-20" x="677.287109"/>
      <use xlink:href="#DejaVuSans-45" x="709.074219"/>
      <use xlink:href="#DejaVuSans-72" x="772.257812"/>
      <use xlink:href="#DejaVuSans-72" x="811.621094"/>
      <use xlink:href="#DejaVuSans-6f" x="850.484375"/>
      <use xlink:href="#DejaVuSans-72" x="911.666016"/>
      <use xlink:href="#DejaVuSans-20" x="952.779297"/>
      <use xlink:href="#DejaVuSans-28" x="984.566406"/>
      <use xlink:href="#DejaVuSans-64" x="1023.580078"/>
      <use xlink:href="#DejaVuSans-65" x="1087.056641"/>
      <use xlink:href="#DejaVuSans-67" x="1148.580078"/>
      <use xlink:href="#DejaVuSans-2f" x="1212.056641"/>
      <use xlink:href="#DejaVuSans-73" x="1245.748047"/>
      <use xlink:href="#DejaVuSans-29" x="1297.847656"/>
      <use xlink:href="#DejaVuSans-20" x="1336.861328"/>
     </g>
    </g>
   </g>
   <g id="line2d_12">
    <path d="M 84.265483 51.518518 
L 85.784219 51.122487 
L 87.302955 41.574952 
L 88.82169 37.101038 
L 90.340426 36.337609 
L 91.859162 40.400377 
L 94.896634 56.128468 
L 96.415369 42.824264 
L 97.934105 37.711194 
L 99.452841 34.597402 
L 100.971577 36.984349 
L 102.490313 41.427752 
L 104.009048 51.0225 
L 105.527784 51.140991 
L 107.04652 41.419432 
L 108.565256 37.04379 
L 110.083991 39.977834 
L 111.602727 47.287403 
L 113.121463 57.556524 
L 114.640199 42.910715 
L 116.158935 39.24069 
L 117.67767 44.244183 
L 119.196406 59.195512 
L 120.715142 53.341407 
L 122.233878 69.041568 
L 123.752614 56.242963 
L 125.271349 57.937245 
L 126.790085 82.09129 
L 128.308821 59.816345 
L 129.827557 62.574599 
L 131.346293 79.314128 
L 132.865028 68.738225 
L 134.383764 83.293714 
L 135.9025 89.833728 
L 137.421236 82.170432 
L 138.939972 75.512478 
L 140.458707 74.970242 
L 141.977443 73.095346 
L 143.496179 70.389698 
L 145.014915 76.091413 
L 146.533651 80.464964 
L 148.052386 73.800042 
L 149.571122 75.909203 
L 151.089858 79.809971 
L 152.608594 77.514155 
L 154.12733 71.897403 
L 155.646065 72.920616 
L 157.164801 98.770603 
L 158.683537 75.55023 
L 160.202273 73.435813 
L 161.721009 73.02622 
L 163.239744 74.930903 
L 164.75848 94.068823 
L 166.277216 77.172875 
L 167.795952 73.100725 
L 169.314688 78.206636 
L 170.833423 82.623438 
L 172.352159 77.630681 
L 173.870895 90.785122 
L 175.389631 85.568489 
L 176.908366 87.913405 
L 178.427102 105.760504 
L 179.945838 93.410195 
L 181.464574 101.491294 
L 182.98331 105.947177 
L 184.502045 104.141341 
L 186.020781 122.109042 
L 187.539517 112.261094 
L 189.058253 115.362896 
L 190.576989 137.9154 
L 192.095724 122.176559 
L 193.61446 130.255919 
L 195.133196 133.349366 
L 196.651932 131.206196 
L 198.170668 144.195466 
L 199.689403 141.894718 
L 201.208139 143.685926 
L 202.726875 171.130763 
L 204.245611 150.832875 
L 205.764347 160.923002 
L 207.283082 156.554289 
L 208.801818 153.81044 
L 210.320554 157.361724 
L 211.83929 161.484633 
L 213.358026 160.442991 
L 214.876761 157.814677 
L 216.395497 156.818378 
L 217.914233 157.177588 
L 219.432969 157.847644 
L 220.951705 158.118881 
L 223.989176 158.126649 
L 225.507912 158.401432 
L 236.139063 161.276501 
L 242.214006 163.301176 
L 249.807685 166.126852 
L 258.920099 169.811662 
L 269.55125 174.396005 
L 281.701136 179.898225 
L 296.888494 187.040151 
L 324.225739 200.223706 
L 339.413097 207.406877 
L 348.525511 211.490841 
L 356.11919 214.660205 
L 362.194134 216.984521 
L 368.269077 219.074875 
L 374.34402 220.895484 
L 380.418963 222.428652 
L 386.493906 223.669327 
L 388.012642 223.937717 
L 388.012642 223.937717 
" clip-path="url(#p2d0c5b59d4)" style="fill: none; stroke: #2b737e; stroke-width: 1.5; stroke-linecap: square"/>
   </g>
   <g id="line2d_13">
    <path d="M 84.265483 55.820939 
L 85.784219 39.209013 
L 87.302955 33.803824 
L 88.82169 30.483468 
L 90.340426 28.086982 
L 91.859162 26.249464 
L 93.377898 24.775578 
L 94.896634 23.541446 
L 96.415369 22.476339 
L 97.934105 21.578835 
L 99.452841 21.357246 
L 102.490313 21.627174 
L 104.009048 21.874501 
L 105.527784 22.300656 
L 107.04652 23.311441 
L 108.565256 24.698299 
L 110.083991 26.312823 
L 111.602727 28.278606 
L 113.121463 30.796758 
L 114.640199 34.309735 
L 116.158935 40.175049 
L 117.67767 63.095556 
L 119.196406 41.887122 
L 120.715142 35.421541 
L 122.233878 31.674145 
L 123.752614 28.995962 
L 125.271349 26.90509 
L 126.790085 25.835726 
L 128.308821 27.593908 
L 129.827557 29.840014 
L 131.346293 32.923115 
L 132.865028 37.765628 
L 134.383764 49.139889 
L 135.9025 44.848823 
L 137.421236 36.374715 
L 138.939972 32.135855 
L 140.458707 29.286699 
L 141.977443 28.446184 
L 143.496179 30.974704 
L 145.014915 34.534355 
L 146.533651 40.597602 
L 148.052386 80.89906 
L 149.571122 40.78179 
L 151.089858 34.628392 
L 152.608594 31.040709 
L 154.12733 32.49999 
L 155.646065 36.977507 
L 157.164801 46.535223 
L 158.683537 46.913467 
L 160.202273 37.10824 
L 161.721009 33.742207 
L 163.239744 39.046615 
L 164.75848 54.68067 
L 166.277216 42.701081 
L 167.795952 38.843507 
L 169.314688 53.422877 
L 170.833423 48.94188 
L 172.352159 58.823657 
L 173.870895 63.180235 
L 175.389631 69.107634 
L 176.908366 77.125744 
L 178.427102 78.516946 
L 179.945838 105.259781 
L 181.464574 95.012479 
L 182.98331 100.303555 
L 184.502045 96.231011 
L 186.020781 101.590575 
L 187.539517 105.898419 
L 189.058253 104.987688 
L 190.576989 104.631792 
L 192.095724 105.737499 
L 193.61446 107.021366 
L 196.651932 108.670143 
L 202.726875 112.18097 
L 339.413097 190.992333 
L 353.081719 198.605553 
L 363.712869 204.276917 
L 371.306548 208.093042 
L 377.381491 210.940454 
L 383.456435 213.551115 
L 388.012642 215.32684 
L 388.012642 215.32684 
" clip-path="url(#p2d0c5b59d4)" style="fill: none; stroke: #5ea04b; stroke-width: 1.5; stroke-linecap: square"/>
   </g>
   <g id="line2d_14">
    <path d="M 84.265483 114.179745 
L 85.784219 37.042262 
L 87.302955 30.931785 
L 88.82169 27.354966 
L 90.340426 24.812025 
L 91.859162 22.812406 
L 93.377898 21.422344 
L 94.896634 21.265312 
L 100.971577 21.56965 
L 102.490313 21.727659 
L 104.009048 22.000034 
L 105.527784 22.555041 
L 107.04652 24.007365 
L 108.565256 26.148016 
L 110.083991 29.033556 
L 111.602727 33.342208 
L 113.121463 42.07706 
L 114.640199 45.34631 
L 116.158935 34.450181 
L 117.67767 29.669432 
L 119.196406 27.230281 
L 120.715142 30.623655 
L 122.233878 36.114512 
L 123.752614 53.275359 
L 125.271349 39.19235 
L 126.790085 32.300897 
L 128.308821 34.089215 
L 129.827557 46.18318 
L 131.346293 40.501335 
L 132.865028 42.908742 
L 134.383764 58.241102 
L 135.9025 62.523867 
L 137.421236 76.640006 
L 138.939972 86.536418 
L 140.458707 83.518298 
L 141.977443 77.886799 
L 143.496179 75.634012 
L 145.014915 93.978879 
L 146.533651 81.600509 
L 148.052386 80.07764 
L 149.571122 80.079988 
L 151.089858 79.389161 
L 154.12733 74.493198 
L 155.646065 80.780253 
L 157.164801 92.854833 
L 158.683537 84.091268 
L 160.202273 81.515489 
L 161.721009 77.092714 
L 163.239744 80.433484 
L 164.75848 97.004428 
L 166.277216 81.459776 
L 167.795952 78.152426 
L 169.314688 89.291341 
L 170.833423 85.803396 
L 172.352159 92.26675 
L 173.870895 95.807977 
L 175.389631 98.212558 
L 176.908366 144.539958 
L 178.427102 120.222918 
L 179.945838 116.020863 
L 181.464574 113.845167 
L 182.98331 116.755667 
L 184.502045 118.564232 
L 186.020781 119.134534 
L 189.058253 120.99658 
L 192.095724 122.22621 
L 198.170668 125.733961 
L 201.208139 127.337492 
L 207.283082 130.679798 
L 243.732741 150.647526 
L 302.963438 183.306816 
L 371.306548 221.254082 
L 388.012642 230.571562 
L 388.012642 230.571562 
" clip-path="url(#p2d0c5b59d4)" style="fill: none; stroke: #bdab62; stroke-width: 1.5; stroke-linecap: square"/>
   </g>
   <g id="line2d_15">
    <path d="M 84.265483 26.823836 
L 85.784219 26.840682 
L 87.302955 27.913194 
L 88.82169 31.695958 
L 90.340426 52.376026 
L 91.859162 31.402093 
L 93.377898 28.013769 
L 94.896634 27.047874 
L 96.415369 27.312752 
L 97.934105 29.171457 
L 99.452841 36.89895 
L 100.971577 38.123807 
L 102.490313 31.013376 
L 104.009048 29.278188 
L 105.527784 29.353682 
L 107.04652 31.330751 
L 108.565256 39.658959 
L 110.083991 39.715584 
L 111.602727 33.290989 
L 113.121463 32.27461 
L 114.640199 34.270726 
L 116.158935 44.733943 
L 117.67767 44.832598 
L 119.196406 41.886474 
L 120.715142 50.132371 
L 122.233878 56.795022 
L 123.752614 56.53633 
L 125.271349 68.106727 
L 126.790085 59.86026 
L 128.308821 73.549234 
L 129.827557 54.384714 
L 131.346293 53.461049 
L 132.865028 60.04586 
L 134.383764 65.822927 
L 135.9025 64.395899 
L 137.421236 64.624105 
L 138.939972 68.821843 
L 140.458707 83.040853 
L 141.977443 72.493714 
L 143.496179 63.306998 
L 145.014915 59.12473 
L 146.533651 58.821607 
L 148.052386 61.349067 
L 149.571122 65.501284 
L 151.089858 70.043251 
L 152.608594 77.506705 
L 154.12733 74.570009 
L 155.646065 64.081743 
L 157.164801 61.516437 
L 158.683537 63.221542 
L 160.202273 69.03967 
L 161.721009 109.838116 
L 163.239744 68.973508 
L 164.75848 65.43976 
L 166.277216 67.422296 
L 167.795952 79.264356 
L 169.314688 73.892 
L 170.833423 72.400695 
L 172.352159 88.425337 
L 173.870895 79.672169 
L 175.389631 82.929529 
L 176.908366 95.92075 
L 178.427102 87.156901 
L 179.945838 95.914597 
L 181.464574 99.559997 
L 182.98331 98.491086 
L 184.502045 121.072442 
L 186.020781 105.939378 
L 187.539517 110.317219 
L 189.058253 122.31445 
L 190.576989 113.920703 
L 192.095724 119.711025 
L 193.61446 146.38887 
L 195.133196 152.651599 
L 196.651932 126.095415 
L 198.170668 122.018754 
L 199.689403 122.464814 
L 201.208139 124.298699 
L 202.726875 125.080822 
L 205.764347 124.011035 
L 207.283082 124.109221 
L 210.320554 125.05506 
L 214.876761 125.928894 
L 220.951705 127.73515 
L 225.507912 129.237677 
L 233.101591 132.01362 
L 240.69527 135.033306 
L 249.807685 138.888673 
L 260.438835 143.621187 
L 274.107457 149.975632 
L 289.294815 157.295346 
L 307.519645 166.344748 
L 327.26321 176.409578 
L 345.48804 185.942718 
L 359.156662 193.312273 
L 369.787813 199.276528 
L 377.381491 203.758952 
L 383.456435 207.570922 
L 388.012642 210.638402 
L 388.012642 210.638402 
" clip-path="url(#p2d0c5b59d4)" style="fill: none; stroke-dasharray: 5.55,2.4; stroke-dashoffset: 0; stroke: #2b737e; stroke-width: 1.5"/>
   </g>
   <g id="line2d_16">
    <path d="M 84.265483 21.754367 
L 96.415369 21.863272 
L 100.971577 22.069461 
L 102.490313 22.220348 
L 104.009048 22.491104 
L 105.527784 23.100738 
L 107.04652 25.349497 
L 108.565256 35.675973 
L 110.083991 24.667878 
L 111.602727 23.366504 
L 113.121463 22.915434 
L 116.158935 22.608961 
L 119.196406 22.597692 
L 122.233878 22.84919 
L 123.752614 23.207352 
L 125.271349 24.126988 
L 126.790085 28.707255 
L 128.308821 30.815131 
L 129.827557 25.052268 
L 131.346293 23.876045 
L 132.865028 23.452138 
L 134.383764 23.302498 
L 135.9025 23.321381 
L 137.421236 23.520294 
L 138.939972 24.048091 
L 140.458707 25.608619 
L 141.977443 35.440623 
L 143.496179 29.871913 
L 145.014915 25.855595 
L 146.533651 24.830116 
L 148.052386 24.581501 
L 149.571122 24.819202 
L 151.089858 25.819208 
L 152.608594 29.693311 
L 154.12733 42.149807 
L 155.646065 29.401967 
L 157.164801 27.379983 
L 158.683537 27.363634 
L 160.202273 29.31833 
L 161.721009 40.750776 
L 163.239744 35.757082 
L 164.75848 31.836839 
L 166.277216 33.208563 
L 167.795952 46.33147 
L 169.314688 43.977546 
L 170.833423 48.695372 
L 172.352159 63.766498 
L 173.870895 63.947302 
L 175.389631 68.37995 
L 176.908366 66.323826 
L 178.427102 73.32555 
L 179.945838 77.557344 
L 181.464574 75.594194 
L 182.98331 75.296579 
L 186.020781 78.002974 
L 190.576989 80.383803 
L 195.133196 83.059017 
L 230.064119 103.235276 
L 365.231605 181.223916 
L 378.900227 188.800861 
L 388.012642 193.623042 
L 388.012642 193.623042 
" clip-path="url(#p2d0c5b59d4)" style="fill: none; stroke-dasharray: 5.55,2.4; stroke-dashoffset: 0; stroke: #5ea04b; stroke-width: 1.5"/>
   </g>
   <g id="line2d_17">
    <path d="M 84.265483 21.738414 
L 94.896634 21.823886 
L 99.452841 21.981632 
L 102.490313 22.253411 
L 104.009048 22.56381 
L 105.527784 23.303295 
L 107.04652 26.357434 
L 108.565256 32.815523 
L 110.083991 25.002726 
L 111.602727 23.823906 
L 113.121463 23.477963 
L 114.640199 23.459542 
L 116.158935 23.749325 
L 117.67767 24.724489 
L 119.196406 29.858223 
L 120.715142 33.317923 
L 122.233878 26.933357 
L 123.752614 25.89368 
L 125.271349 26.352252 
L 126.790085 29.566514 
L 128.308821 50.148276 
L 129.827557 33.080644 
L 131.346293 34.455461 
L 132.865028 57.32199 
L 134.383764 54.759417 
L 135.9025 69.654192 
L 137.421236 64.109905 
L 138.939972 67.762559 
L 140.458707 66.913898 
L 141.977443 64.20862 
L 143.496179 61.014532 
L 145.014915 59.447522 
L 146.533651 60.011218 
L 148.052386 61.491758 
L 149.571122 63.379872 
L 151.089858 65.942942 
L 152.608594 70.49046 
L 154.12733 101.913651 
L 155.646065 72.369227 
L 157.164801 70.80152 
L 158.683537 73.728026 
L 160.202273 81.646274 
L 161.721009 80.239228 
L 163.239744 69.971988 
L 164.75848 68.310482 
L 166.277216 70.638564 
L 167.795952 79.200711 
L 169.314688 89.357342 
L 170.833423 102.028395 
L 172.352159 83.553271 
L 173.870895 83.451893 
L 175.389631 88.297333 
L 176.908366 90.627228 
L 178.427102 89.999337 
L 179.945838 90.188568 
L 182.98331 92.229494 
L 301.444702 157.365588 
L 371.306548 196.207334 
L 388.012642 205.535453 
L 388.012642 205.535453 
" clip-path="url(#p2d0c5b59d4)" style="fill: none; stroke-dasharray: 5.55,2.4; stroke-dashoffset: 0; stroke: #bdab62; stroke-width: 1.5"/>
   </g>
   <g id="patch_3">
    <path d="M 69.078125 241.036875 
L 69.078125 10.8 
" style="fill: none; stroke: #000000; stroke-width: 0.8; stroke-linejoin: miter; stroke-linecap: square"/>
   </g>
   <g id="patch_4">
    <path d="M 403.2 241.036875 
L 403.2 10.8 
" style="fill: none; stroke: #000000; stroke-width: 0.8; stroke-linejoin: miter; stroke-linecap: square"/>
   </g>
   <g id="patch_5">
    <path d="M 69.078125 241.036875 
L 403.2 241.036875 
" style="fill: none; stroke: #000000; stroke-width: 0.8; stroke-linejoin: miter; stroke-linecap: square"/>
   </g>
   <g id="patch_6">
    <path d="M 69.078125 10.8 
L 403.2 10.8 
" style="fill: none; stroke: #000000; stroke-width: 0.8; stroke-linejoin: miter; stroke-linecap: square"/>
   </g>
   <g id="legend_1">
    <g id="patch_7">
     <path d="M 338.31 59.04 
L 396.9 59.04 
Q 398.7 59.04 398.7 57.24 
L 398.7 17.1 
Q 398.7 15.3 396.9 15.3 
L 338.31 15.3 
Q 336.51 15.3 336.51 17.1 
L 336.51 57.24 
Q 336.51 59.04 338.31 59.04 
z
" style="fill: #ffffff; opacity: 0.8; stroke: #cccccc; stroke-linejoin: miter"/>
    </g>
    <g id="line2d_18">
     <path d="M 340.11 22.68 
L 349.11 22.68 
L 358.11 22.68 
" style="fill: none; stroke: #2b737e; stroke-width: 1.5; stroke-linecap: square"/>
    </g>
    <g id="text_14">
     <!-- $|\omega_{BR,0}|$ -->
     <g transform="translate(365.31 25.83) scale(0.09 -0.09)">
      <defs>
       <path id="DejaVuSans-7c" d="M 1344 4891 
L 1344 -1509 
L 813 -1509 
L 813 4891 
L 1344 4891 
z
" transform="scale(0.015625)"/>
       <path id="DejaVuSans-Oblique-3c9" d="M 1369 -91 
Q 72 -91 434 1766 
Q 575 2500 1256 3500 
L 1875 3500 
Q 1231 2500 1088 1750 
Q 819 397 1519 397 
Q 2166 397 2478 2078 
L 3009 2078 
Q 2669 388 3316 397 
Q 4013 403 4275 1750 
Q 4419 2500 4169 3500 
L 4788 3500 
Q 5075 2500 4934 1766 
Q 4578 -94 3278 -91 
Q 2428 -88 2503 844 
Q 2194 -91 1369 -91 
z
" transform="scale(0.015625)"/>
       <path id="DejaVuSans-Oblique-42" d="M 1081 4666 
L 2694 4666 
Q 3350 4666 3675 4422 
Q 4000 4178 4000 3688 
Q 4000 3238 3720 2911 
Q 3441 2584 2988 2516 
Q 3375 2428 3569 2181 
Q 3763 1934 3763 1522 
Q 3763 819 3242 409 
Q 2722 0 1819 0 
L 172 0 
L 1081 4666 
z
M 1234 2228 
L 903 519 
L 1919 519 
Q 2491 519 2800 781 
Q 3109 1044 3109 1522 
Q 3109 1891 2904 2059 
Q 2700 2228 2247 2228 
L 1234 2228 
z
M 1606 4147 
L 1331 2741 
L 2272 2741 
Q 2775 2741 3058 2959 
Q 3341 3178 3341 3566 
Q 3341 3869 3150 4008 
Q 2959 4147 2541 4147 
L 1606 4147 
z
" transform="scale(0.015625)"/>
       <path id="DejaVuSans-Oblique-52" d="M 1613 4147 
L 1294 2491 
L 2106 2491 
Q 2584 2491 2879 2755 
Q 3175 3019 3175 3444 
Q 3175 3784 2976 3965 
Q 2778 4147 2406 4147 
L 1613 4147 
z
M 2772 2241 
Q 2972 2194 3105 2009 
Q 3238 1825 3413 1275 
L 3809 0 
L 3144 0 
L 2778 1197 
Q 2638 1659 2453 1815 
Q 2269 1972 1888 1972 
L 1191 1972 
L 806 0 
L 172 0 
L 1081 4666 
L 2503 4666 
Q 3150 4666 3495 4373 
Q 3841 4081 3841 3531 
Q 3841 3044 3547 2687 
Q 3253 2331 2772 2241 
z
" transform="scale(0.015625)"/>
       <path id="DejaVuSans-2c" d="M 750 794 
L 1409 794 
L 1409 256 
L 897 -744 
L 494 -744 
L 750 256 
L 750 794 
z
" transform="scale(0.015625)"/>
      </defs>
      <use xlink:href="#DejaVuSans-7c" transform="translate(0 0.578125)"/>
      <use xlink:href="#DejaVuSans-Oblique-3c9" transform="translate(33.691406 0.578125)"/>
      <use xlink:href="#DejaVuSans-Oblique-42" transform="translate(117.431641 -15.828125) scale(0.7)"/>
      <use xlink:href="#DejaVuSans-Oblique-52" transform="translate(165.454102 -15.828125) scale(0.7)"/>
      <use xlink:href="#DejaVuSans-2c" transform="translate(214.091797 -15.828125) scale(0.7)"/>
      <use xlink:href="#DejaVuSans-30" transform="translate(249.980469 -15.828125) scale(0.7)"/>
      <use xlink:href="#DejaVuSans-7c" transform="translate(297.250977 0.578125)"/>
     </g>
    </g>
    <g id="line2d_19">
     <path d="M 340.11 36.36 
L 349.11 36.36 
L 358.11 36.36 
" style="fill: none; stroke: #5ea04b; stroke-width: 1.5; stroke-linecap: square"/>
    </g>
    <g id="text_15">
     <!-- $|\omega_{BR,1}|$ -->
     <g transform="translate(365.31 39.51) scale(0.09 -0.09)">
      <use xlink:href="#DejaVuSans-7c" transform="translate(0 0.578125)"/>
      <use xlink:href="#DejaVuSans-Oblique-3c9" transform="translate(33.691406 0.578125)"/>
      <use xlink:href="#DejaVuSans-Oblique-42" transform="translate(117.431641 -15.828125) scale(0.7)"/>
      <use xlink:href="#DejaVuSans-Oblique-52" transform="translate(165.454102 -15.828125) scale(0.7)"/>
      <use xlink:href="#DejaVuSans-2c" transform="translate(214.091797 -15.828125) scale(0.7)"/>
      <use xlink:href="#DejaVuSans-31" transform="translate(249.980469 -15.828125) scale(0.7)"/>
      <use xlink:href="#DejaVuSans-7c" transform="translate(297.250977 0.578125)"/>
     </g>
    </g>
    <g id="line2d_20">
     <path d="M 340.11 50.04 
L 349.11 50.04 
L 358.11 50.04 
" style="fill: none; stroke: #bdab62; stroke-width: 1.5; stroke-linecap: square"/>
    </g>
    <g id="text_16">
     <!-- $|\omega_{BR,2}|$ -->
     <g transform="translate(365.31 53.19) scale(0.09 -0.09)">
      <use xlink:href="#DejaVuSans-7c" transform="translate(0 0.578125)"/>
      <use xlink:href="#DejaVuSans-Oblique-3c9" transform="translate(33.691406 0.578125)"/>
      <use xlink:href="#DejaVuSans-Oblique-42" transform="translate(117.431641 -15.828125) scale(0.7)"/>
      <use xlink:href="#DejaVuSans-Oblique-52" transform="translate(165.454102 -15.828125) scale(0.7)"/>
      <use xlink:href="#DejaVuSans-2c" transform="translate(214.091797 -15.828125) scale(0.7)"/>
      <use xlink:href="#DejaVuSans-32" transform="translate(249.980469 -15.828125) scale(0.7)"/>
      <use xlink:href="#DejaVuSans-7c" transform="translate(297.250977 0.578125)"/>
     </g>
    </g>
   </g>
  </g>
 </g>
 <defs>
  <clipPath id="p2d0c5b59d4">
   <rect x="69.078125" y="10.8" width="334.121875" height="230.236875"/>
  </clipPath>
 </defs>
</svg>
