<?xml version="1.0" encoding="utf-8" standalone="no"?>
<!DOCTYPE svg PUBLIC "-//W3C//DTD SVG 1.1//EN"
  "http://www.w3.org/Graphics/SVG/1.1/DTD/svg11.dtd">
<svg xmlns:xlink="http://www.w3.org/1999/xlink" width="414pt" height="288pt" viewBox="0 0 414 288" xmlns="http://www.w3.org/2000/svg" version="1.1">
 <metadata>
  <rdf:RDF xmlns:dc="http://purl.org/dc/elements/1.1/" xmlns:cc="http://creativecommons.org/ns#" xmlns:rdf="http://www.w3.org/1999/02/22-rdf-syntax-ns#">
   <cc:Work>
    <dc:type rdf:resource="http://purl.org/dc/dcmitype/StillImage"/>
    <dc:date>2023-09-07T00:34:58.728928</dc:date>
    <dc:format>image/svg+xml</dc:format>
    <dc:creator>
     <cc:Agent>
      <dc:title>Matplotlib v3.7.2, https://matplotlib.org/</dc:title>
     </cc:Agent>
    </dc:creator>
   </cc:Work>
  </rdf:RDF>
 </metadata>
 <defs>
  <style type="text/css">*{stroke-linejoin: round; stroke-linecap: butt}</style>
 </defs>
 <g id="figure_1">
  <g id="patch_1">
   <path d="M 0 288 
L 414 288 
L 414 0 
L 0 0 
L 0 288 
z
" style="fill: none"/>
  </g>
  <g id="axes_1">
   <g id="patch_2">
    <path d="M 65.245625 241.036875 
L 403.2 241.036875 
L 403.2 10.8 
L 65.245625 10.8 
L 65.245625 241.036875 
z
" style="fill: none"/>
   </g>
   <g id="matplotlib.axis_1">
    <g id="xtick_1">
     <g id="line2d_1">
      <defs>
       <path id="m74270f148c" d="M 0 0 
L 0 3.5 
" style="stroke: #000000; stroke-width: 0.8"/>
      </defs>
      <g>
       <use xlink:href="#m74270f148c" x="80.607188" y="241.036875" style="stroke: #000000; stroke-width: 0.8"/>
      </g>
     </g>
     <g id="text_1">
      <!-- 0 -->
      <g transform="translate(75.517188 260.194375) scale(0.16 -0.16)">
       <defs>
        <path id="DejaVuSans-30" d="M 2034 4250 
Q 1547 4250 1301 3770 
Q 1056 3291 1056 2328 
Q 1056 1369 1301 889 
Q 1547 409 2034 409 
Q 2525 409 2770 889 
Q 3016 1369 3016 2328 
Q 3016 3291 2770 3770 
Q 2525 4250 2034 4250 
z
M 2034 4750 
Q 2819 4750 3233 4129 
Q 3647 3509 3647 2328 
Q 3647 1150 3233 529 
Q 2819 -91 2034 -91 
Q 1250 -91 836 529 
Q 422 1150 422 2328 
Q 422 3509 836 4129 
Q 1250 4750 2034 4750 
z
" transform="scale(0.015625)"/>
       </defs>
       <use xlink:href="#DejaVuSans-30"/>
      </g>
     </g>
    </g>
    <g id="xtick_2">
     <g id="line2d_2">
      <g>
       <use xlink:href="#m74270f148c" x="142.053438" y="241.036875" style="stroke: #000000; stroke-width: 0.8"/>
      </g>
     </g>
     <g id="text_2">
      <!-- 2 -->
      <g transform="translate(136.963437 260.194375) scale(0.16 -0.16)">
       <defs>
        <path id="DejaVuSans-32" d="M 1228 531 
L 3431 531 
L 3431 0 
L 469 0 
L 469 531 
Q 828 903 1448 1529 
Q 2069 2156 2228 2338 
Q 2531 2678 2651 2914 
Q 2772 3150 2772 3378 
Q 2772 3750 2511 3984 
Q 2250 4219 1831 4219 
Q 1534 4219 1204 4116 
Q 875 4013 500 3803 
L 500 4441 
Q 881 4594 1212 4672 
Q 1544 4750 1819 4750 
Q 2544 4750 2975 4387 
Q 3406 4025 3406 3419 
Q 3406 3131 3298 2873 
Q 3191 2616 2906 2266 
Q 2828 2175 2409 1742 
Q 1991 1309 1228 531 
z
" transform="scale(0.015625)"/>
       </defs>
       <use xlink:href="#DejaVuSans-32"/>
      </g>
     </g>
    </g>
    <g id="xtick_3">
     <g id="line2d_3">
      <g>
       <use xlink:href="#m74270f148c" x="203.499687" y="241.036875" style="stroke: #000000; stroke-width: 0.8"/>
      </g>
     </g>
     <g id="text_3">
      <!-- 4 -->
      <g transform="translate(198.409687 260.194375) scale(0.16 -0.16)">
       <defs>
        <path id="DejaVuSans-34" d="M 2419 4116 
L 825 1625 
L 2419 1625 
L 2419 4116 
z
M 2253 4666 
L 3047 4666 
L 3047 1625 
L 3713 1625 
L 3713 1100 
L 3047 1100 
L 3047 0 
L 2419 0 
L 2419 1100 
L 313 1100 
L 313 1709 
L 2253 4666 
z
" transform="scale(0.015625)"/>
       </defs>
       <use xlink:href="#DejaVuSans-34"/>
      </g>
     </g>
    </g>
    <g id="xtick_4">
     <g id="line2d_4">
      <g>
       <use xlink:href="#m74270f148c" x="264.945938" y="241.036875" style="stroke: #000000; stroke-width: 0.8"/>
      </g>
     </g>
     <g id="text_4">
      <!-- 6 -->
      <g transform="translate(259.855938 260.194375) scale(0.16 -0.16)">
       <defs>
        <path id="DejaVuSans-36" d="M 2113 2584 
Q 1688 2584 1439 2293 
Q 1191 2003 1191 1497 
Q 1191 994 1439 701 
Q 1688 409 2113 409 
Q 2538 409 2786 701 
Q 3034 994 3034 1497 
Q 3034 2003 2786 2293 
Q 2538 2584 2113 2584 
z
M 3366 4563 
L 3366 3988 
Q 3128 4100 2886 4159 
Q 2644 4219 2406 4219 
Q 1781 4219 1451 3797 
Q 1122 3375 1075 2522 
Q 1259 2794 1537 2939 
Q 1816 3084 2150 3084 
Q 2853 3084 3261 2657 
Q 3669 2231 3669 1497 
Q 3669 778 3244 343 
Q 2819 -91 2113 -91 
Q 1303 -91 875 529 
Q 447 1150 447 2328 
Q 447 3434 972 4092 
Q 1497 4750 2381 4750 
Q 2619 4750 2861 4703 
Q 3103 4656 3366 4563 
z
" transform="scale(0.015625)"/>
       </defs>
       <use xlink:href="#DejaVuSans-36"/>
      </g>
     </g>
    </g>
    <g id="xtick_5">
     <g id="line2d_5">
      <g>
       <use xlink:href="#m74270f148c" x="326.392187" y="241.036875" style="stroke: #000000; stroke-width: 0.8"/>
      </g>
     </g>
     <g id="text_5">
      <!-- 8 -->
      <g transform="translate(321.302188 260.194375) scale(0.16 -0.16)">
       <defs>
        <path id="DejaVuSans-38" d="M 2034 2216 
Q 1584 2216 1326 1975 
Q 1069 1734 1069 1313 
Q 1069 891 1326 650 
Q 1584 409 2034 409 
Q 2484 409 2743 651 
Q 3003 894 3003 1313 
Q 3003 1734 2745 1975 
Q 2488 2216 2034 2216 
z
M 1403 2484 
Q 997 2584 770 2862 
Q 544 3141 544 3541 
Q 544 4100 942 4425 
Q 1341 4750 2034 4750 
Q 2731 4750 3128 4425 
Q 3525 4100 3525 3541 
Q 3525 3141 3298 2862 
Q 3072 2584 2669 2484 
Q 3125 2378 3379 2068 
Q 3634 1759 3634 1313 
Q 3634 634 3220 271 
Q 2806 -91 2034 -91 
Q 1263 -91 848 271 
Q 434 634 434 1313 
Q 434 1759 690 2068 
Q 947 2378 1403 2484 
z
M 1172 3481 
Q 1172 3119 1398 2916 
Q 1625 2713 2034 2713 
Q 2441 2713 2670 2916 
Q 2900 3119 2900 3481 
Q 2900 3844 2670 4047 
Q 2441 4250 2034 4250 
Q 1625 4250 1398 4047 
Q 1172 3844 1172 3481 
z
" transform="scale(0.015625)"/>
       </defs>
       <use xlink:href="#DejaVuSans-38"/>
      </g>
     </g>
    </g>
    <g id="xtick_6">
     <g id="line2d_6">
      <g>
       <use xlink:href="#m74270f148c" x="387.838437" y="241.036875" style="stroke: #000000; stroke-width: 0.8"/>
      </g>
     </g>
     <g id="text_6">
      <!-- 10 -->
      <g transform="translate(377.658437 260.194375) scale(0.16 -0.16)">
       <defs>
        <path id="DejaVuSans-31" d="M 794 531 
L 1825 531 
L 1825 4091 
L 703 3866 
L 703 4441 
L 1819 4666 
L 2450 4666 
L 2450 531 
L 3481 531 
L 3481 0 
L 794 0 
L 794 531 
z
" transform="scale(0.015625)"/>
       </defs>
       <use xlink:href="#DejaVuSans-31"/>
       <use xlink:href="#DejaVuSans-30" x="63.623047"/>
      </g>
     </g>
    </g>
    <g id="text_7">
     <!-- Time [min] -->
     <g transform="translate(207.070469 275.120313) scale(0.1 -0.1)">
      <defs>
       <path id="DejaVuSans-54" d="M -19 4666 
L 3928 4666 
L 3928 4134 
L 2272 4134 
L 2272 0 
L 1638 0 
L 1638 4134 
L -19 4134 
L -19 4666 
z
" transform="scale(0.015625)"/>
       <path id="DejaVuSans-69" d="M 603 3500 
L 1178 3500 
L 1178 0 
L 603 0 
L 603 3500 
z
M 603 4863 
L 1178 4863 
L 1178 4134 
L 603 4134 
L 603 4863 
z
" transform="scale(0.015625)"/>
       <path id="DejaVuSans-6d" d="M 3328 2828 
Q 3544 3216 3844 3400 
Q 4144 3584 4550 3584 
Q 5097 3584 5394 3201 
Q 5691 2819 5691 2113 
L 5691 0 
L 5113 0 
L 5113 2094 
Q 5113 2597 4934 2840 
Q 4756 3084 4391 3084 
Q 3944 3084 3684 2787 
Q 3425 2491 3425 1978 
L 3425 0 
L 2847 0 
L 2847 2094 
Q 2847 2600 2669 2842 
Q 2491 3084 2119 3084 
Q 1678 3084 1418 2786 
Q 1159 2488 1159 1978 
L 1159 0 
L 581 0 
L 581 3500 
L 1159 3500 
L 1159 2956 
Q 1356 3278 1631 3431 
Q 1906 3584 2284 3584 
Q 2666 3584 2933 3390 
Q 3200 3197 3328 2828 
z
" transform="scale(0.015625)"/>
       <path id="DejaVuSans-65" d="M 3597 1894 
L 3597 1613 
L 953 1613 
Q 991 1019 1311 708 
Q 1631 397 2203 397 
Q 2534 397 2845 478 
Q 3156 559 3463 722 
L 3463 178 
Q 3153 47 2828 -22 
Q 2503 -91 2169 -91 
Q 1331 -91 842 396 
Q 353 884 353 1716 
Q 353 2575 817 3079 
Q 1281 3584 2069 3584 
Q 2775 3584 3186 3129 
Q 3597 2675 3597 1894 
z
M 3022 2063 
Q 3016 2534 2758 2815 
Q 2500 3097 2075 3097 
Q 1594 3097 1305 2825 
Q 1016 2553 972 2059 
L 3022 2063 
z
" transform="scale(0.015625)"/>
       <path id="DejaVuSans-20" transform="scale(0.015625)"/>
       <path id="DejaVuSans-5b" d="M 550 4863 
L 1875 4863 
L 1875 4416 
L 1125 4416 
L 1125 -397 
L 1875 -397 
L 1875 -844 
L 550 -844 
L 550 4863 
z
" transform="scale(0.015625)"/>
       <path id="DejaVuSans-6e" d="M 3513 2113 
L 3513 0 
L 2938 0 
L 2938 2094 
Q 2938 2591 2744 2837 
Q 2550 3084 2163 3084 
Q 1697 3084 1428 2787 
Q 1159 2491 1159 1978 
L 1159 0 
L 581 0 
L 581 3500 
L 1159 3500 
L 1159 2956 
Q 1366 3272 1645 3428 
Q 1925 3584 2291 3584 
Q 2894 3584 3203 3211 
Q 3513 2838 3513 2113 
z
" transform="scale(0.015625)"/>
       <path id="DejaVuSans-5d" d="M 1947 4863 
L 1947 -844 
L 622 -844 
L 622 -397 
L 1369 -397 
L 1369 4416 
L 622 4416 
L 622 4863 
L 1947 4863 
z
" transform="scale(0.015625)"/>
      </defs>
      <use xlink:href="#DejaVuSans-54"/>
      <use xlink:href="#DejaVuSans-69" x="57.958984"/>
      <use xlink:href="#DejaVuSans-6d" x="85.742188"/>
      <use xlink:href="#DejaVuSans-65" x="183.154297"/>
      <use xlink:href="#DejaVuSans-20" x="244.677734"/>
      <use xlink:href="#DejaVuSans-5b" x="276.464844"/>
      <use xlink:href="#DejaVuSans-6d" x="315.478516"/>
      <use xlink:href="#DejaVuSans-69" x="412.890625"/>
      <use xlink:href="#DejaVuSans-6e" x="440.673828"/>
      <use xlink:href="#DejaVuSans-5d" x="504.052734"/>
     </g>
    </g>
   </g>
   <g id="matplotlib.axis_2">
    <g id="ytick_1">
     <g id="line2d_7">
      <defs>
       <path id="m92f5d2e634" d="M 0 0 
L -3.5 0 
" style="stroke: #000000; stroke-width: 0.8"/>
      </defs>
      <g>
       <use xlink:href="#m92f5d2e634" x="65.245625" y="230.571562" style="stroke: #000000; stroke-width: 0.8"/>
      </g>
     </g>
     <g id="text_8">
      <!-- −10 -->
      <g transform="translate(24.478125 236.650312) scale(0.16 -0.16)">
       <defs>
        <path id="DejaVuSans-2212" d="M 678 2272 
L 4684 2272 
L 4684 1741 
L 678 1741 
L 678 2272 
z
" transform="scale(0.015625)"/>
       </defs>
       <use xlink:href="#DejaVuSans-2212"/>
       <use xlink:href="#DejaVuSans-31" x="83.789062"/>
       <use xlink:href="#DejaVuSans-30" x="147.412109"/>
      </g>
     </g>
    </g>
    <g id="ytick_2">
     <g id="line2d_8">
      <g>
       <use xlink:href="#m92f5d2e634" x="65.245625" y="178.245" style="stroke: #000000; stroke-width: 0.8"/>
      </g>
     </g>
     <g id="text_9">
      <!-- −5 -->
      <g transform="translate(34.658125 184.32375) scale(0.16 -0.16)">
       <defs>
        <path id="DejaVuSans-35" d="M 691 4666 
L 3169 4666 
L 3169 4134 
L 1269 4134 
L 1269 2991 
Q 1406 3038 1543 3061 
Q 1681 3084 1819 3084 
Q 2600 3084 3056 2656 
Q 3513 2228 3513 1497 
Q 3513 744 3044 326 
Q 2575 -91 1722 -91 
Q 1428 -91 1123 -41 
Q 819 9 494 109 
L 494 744 
Q 775 591 1075 516 
Q 1375 441 1709 441 
Q 2250 441 2565 725 
Q 2881 1009 2881 1497 
Q 2881 1984 2565 2268 
Q 2250 2553 1709 2553 
Q 1456 2553 1204 2497 
Q 953 2441 691 2322 
L 691 4666 
z
" transform="scale(0.015625)"/>
       </defs>
       <use xlink:href="#DejaVuSans-2212"/>
       <use xlink:href="#DejaVuSans-35" x="83.789062"/>
      </g>
     </g>
    </g>
    <g id="ytick_3">
     <g id="line2d_9">
      <g>
       <use xlink:href="#m92f5d2e634" x="65.245625" y="125.918437" style="stroke: #000000; stroke-width: 0.8"/>
      </g>
     </g>
     <g id="text_10">
      <!-- 0 -->
      <g transform="translate(48.065625 131.997187) scale(0.16 -0.16)">
       <use xlink:href="#DejaVuSans-30"/>
      </g>
     </g>
    </g>
    <g id="ytick_4">
     <g id="line2d_10">
      <g>
       <use xlink:href="#m92f5d2e634" x="65.245625" y="73.591875" style="stroke: #000000; stroke-width: 0.8"/>
      </g>
     </g>
     <g id="text_11">
      <!-- 5 -->
      <g transform="translate(48.065625 79.670625) scale(0.16 -0.16)">
       <use xlink:href="#DejaVuSans-35"/>
      </g>
     </g>
    </g>
    <g id="ytick_5">
     <g id="line2d_11">
      <g>
       <use xlink:href="#m92f5d2e634" x="65.245625" y="21.265312" style="stroke: #000000; stroke-width: 0.8"/>
      </g>
     </g>
     <g id="text_12">
      <!-- 10 -->
      <g transform="translate(37.885625 27.344063) scale(0.16 -0.16)">
       <use xlink:href="#DejaVuSans-31"/>
       <use xlink:href="#DejaVuSans-30" x="63.623047"/>
      </g>
     </g>
    </g>
    <g id="text_13">
     <!-- RW Voltage (V) -->
     <g transform="translate(18.398438 163.392656) rotate(-90) scale(0.1 -0.1)">
      <defs>
       <path id="DejaVuSans-52" d="M 2841 2188 
Q 3044 2119 3236 1894 
Q 3428 1669 3622 1275 
L 4263 0 
L 3584 0 
L 2988 1197 
Q 2756 1666 2539 1819 
Q 2322 1972 1947 1972 
L 1259 1972 
L 1259 0 
L 628 0 
L 628 4666 
L 2053 4666 
Q 2853 4666 3247 4331 
Q 3641 3997 3641 3322 
Q 3641 2881 3436 2590 
Q 3231 2300 2841 2188 
z
M 1259 4147 
L 1259 2491 
L 2053 2491 
Q 2509 2491 2742 2702 
Q 2975 2913 2975 3322 
Q 2975 3731 2742 3939 
Q 2509 4147 2053 4147 
L 1259 4147 
z
" transform="scale(0.015625)"/>
       <path id="DejaVuSans-57" d="M 213 4666 
L 850 4666 
L 1831 722 
L 2809 4666 
L 3519 4666 
L 4500 722 
L 5478 4666 
L 6119 4666 
L 4947 0 
L 4153 0 
L 3169 4050 
L 2175 0 
L 1381 0 
L 213 4666 
z
" transform="scale(0.015625)"/>
       <path id="DejaVuSans-56" d="M 1831 0 
L 50 4666 
L 709 4666 
L 2188 738 
L 3669 4666 
L 4325 4666 
L 2547 0 
L 1831 0 
z
" transform="scale(0.015625)"/>
       <path id="DejaVuSans-6f" d="M 1959 3097 
Q 1497 3097 1228 2736 
Q 959 2375 959 1747 
Q 959 1119 1226 758 
Q 1494 397 1959 397 
Q 2419 397 2687 759 
Q 2956 1122 2956 1747 
Q 2956 2369 2687 2733 
Q 2419 3097 1959 3097 
z
M 1959 3584 
Q 2709 3584 3137 3096 
Q 3566 2609 3566 1747 
Q 3566 888 3137 398 
Q 2709 -91 1959 -91 
Q 1206 -91 779 398 
Q 353 888 353 1747 
Q 353 2609 779 3096 
Q 1206 3584 1959 3584 
z
" transform="scale(0.015625)"/>
       <path id="DejaVuSans-6c" d="M 603 4863 
L 1178 4863 
L 1178 0 
L 603 0 
L 603 4863 
z
" transform="scale(0.015625)"/>
       <path id="DejaVuSans-74" d="M 1172 4494 
L 1172 3500 
L 2356 3500 
L 2356 3053 
L 1172 3053 
L 1172 1153 
Q 1172 725 1289 603 
Q 1406 481 1766 481 
L 2356 481 
L 2356 0 
L 1766 0 
Q 1100 0 847 248 
Q 594 497 594 1153 
L 594 3053 
L 172 3053 
L 172 3500 
L 594 3500 
L 594 4494 
L 1172 4494 
z
" transform="scale(0.015625)"/>
       <path id="DejaVuSans-61" d="M 2194 1759 
Q 1497 1759 1228 1600 
Q 959 1441 959 1056 
Q 959 750 1161 570 
Q 1363 391 1709 391 
Q 2188 391 2477 730 
Q 2766 1069 2766 1631 
L 2766 1759 
L 2194 1759 
z
M 3341 1997 
L 3341 0 
L 2766 0 
L 2766 531 
Q 2569 213 2275 61 
Q 1981 -91 1556 -91 
Q 1019 -91 701 211 
Q 384 513 384 1019 
Q 384 1609 779 1909 
Q 1175 2209 1959 2209 
L 2766 2209 
L 2766 2266 
Q 2766 2663 2505 2880 
Q 2244 3097 1772 3097 
Q 1472 3097 1187 3025 
Q 903 2953 641 2809 
L 641 3341 
Q 956 3463 1253 3523 
Q 1550 3584 1831 3584 
Q 2591 3584 2966 3190 
Q 3341 2797 3341 1997 
z
" transform="scale(0.015625)"/>
       <path id="DejaVuSans-67" d="M 2906 1791 
Q 2906 2416 2648 2759 
Q 2391 3103 1925 3103 
Q 1463 3103 1205 2759 
Q 947 2416 947 1791 
Q 947 1169 1205 825 
Q 1463 481 1925 481 
Q 2391 481 2648 825 
Q 2906 1169 2906 1791 
z
M 3481 434 
Q 3481 -459 3084 -895 
Q 2688 -1331 1869 -1331 
Q 1566 -1331 1297 -1286 
Q 1028 -1241 775 -1147 
L 775 -588 
Q 1028 -725 1275 -790 
Q 1522 -856 1778 -856 
Q 2344 -856 2625 -561 
Q 2906 -266 2906 331 
L 2906 616 
Q 2728 306 2450 153 
Q 2172 0 1784 0 
Q 1141 0 747 490 
Q 353 981 353 1791 
Q 353 2603 747 3093 
Q 1141 3584 1784 3584 
Q 2172 3584 2450 3431 
Q 2728 3278 2906 2969 
L 2906 3500 
L 3481 3500 
L 3481 434 
z
" transform="scale(0.015625)"/>
       <path id="DejaVuSans-28" d="M 1984 4856 
Q 1566 4138 1362 3434 
Q 1159 2731 1159 2009 
Q 1159 1288 1364 580 
Q 1569 -128 1984 -844 
L 1484 -844 
Q 1016 -109 783 600 
Q 550 1309 550 2009 
Q 550 2706 781 3412 
Q 1013 4119 1484 4856 
L 1984 4856 
z
" transform="scale(0.015625)"/>
       <path id="DejaVuSans-29" d="M 513 4856 
L 1013 4856 
Q 1481 4119 1714 3412 
Q 1947 2706 1947 2009 
Q 1947 1309 1714 600 
Q 1481 -109 1013 -844 
L 513 -844 
Q 928 -128 1133 580 
Q 1338 1288 1338 2009 
Q 1338 2731 1133 3434 
Q 928 4138 513 4856 
z
" transform="scale(0.015625)"/>
      </defs>
      <use xlink:href="#DejaVuSans-52"/>
      <use xlink:href="#DejaVuSans-57" x="65.482422"/>
      <use xlink:href="#DejaVuSans-20" x="164.359375"/>
      <use xlink:href="#DejaVuSans-56" x="196.146484"/>
      <use xlink:href="#DejaVuSans-6f" x="256.804688"/>
      <use xlink:href="#DejaVuSans-6c" x="317.986328"/>
      <use xlink:href="#DejaVuSans-74" x="345.769531"/>
      <use xlink:href="#DejaVuSans-61" x="384.978516"/>
      <use xlink:href="#DejaVuSans-67" x="446.257812"/>
      <use xlink:href="#DejaVuSans-65" x="509.734375"/>
      <use xlink:href="#DejaVuSans-20" x="571.257812"/>
      <use xlink:href="#DejaVuSans-28" x="603.044922"/>
      <use xlink:href="#DejaVuSans-56" x="642.058594"/>
      <use xlink:href="#DejaVuSans-29" x="710.466797"/>
     </g>
    </g>
   </g>
   <g id="line2d_12">
    <path d="M 80.607188 21.265312 
L 83.6795 21.265312 
L 86.751813 21.265312 
L 89.824125 21.265312 
L 92.896438 21.265312 
L 95.96875 21.265312 
L 99.041063 37.795223 
L 102.113375 62.945577 
L 105.185688 83.956228 
L 108.258 99.847108 
L 111.330313 110.119145 
L 114.402625 115.351281 
L 117.474938 116.681006 
L 120.54725 115.42784 
L 123.619563 112.901246 
L 126.691875 110.256127 
L 129.764188 108.405759 
L 132.8365 107.988172 
L 135.908813 109.37367 
L 138.981125 112.698705 
L 142.053438 117.912875 
L 145.12575 124.829308 
L 148.198063 133.172175 
L 151.270375 142.617974 
L 154.342688 152.829046 
L 157.415 163.478936 
L 160.487313 174.254462 
L 163.559625 184.568511 
L 166.631938 193.616466 
L 169.70425 200.74795 
L 172.776563 205.54526 
L 175.848875 207.840584 
L 178.921188 207.692179 
L 181.9935 205.334633 
L 185.065812 201.118724 
L 188.138125 195.453178 
L 191.210438 188.756086 
L 194.28275 181.419395 
L 197.355063 173.786636 
L 200.427375 166.142045 
L 203.499687 158.708369 
L 206.572 151.650541 
L 209.644313 145.082764 
L 212.716625 139.077065 
L 215.788938 133.671997 
L 218.86125 128.880629 
L 221.933563 124.697402 
L 225.005875 121.103694 
L 228.078188 118.072129 
L 231.1505 115.569785 
L 234.222813 113.560476 
L 237.295125 112.006321 
L 240.367438 110.868777 
L 243.43975 110.109299 
L 246.512063 109.689758 
L 249.584375 109.572711 
L 252.656688 109.721598 
L 255.729 110.10091 
L 258.801312 110.67636 
L 261.873625 111.415058 
L 264.945938 112.285704 
L 268.01825 113.25878 
L 271.090563 114.306738 
L 274.162875 115.404174 
L 277.235188 116.527962 
L 280.3075 117.657362 
L 283.379813 118.774081 
L 286.452125 119.862284 
L 289.524437 120.908569 
L 292.59675 121.901893 
L 295.669062 122.833465 
L 298.741375 123.696606 
L 301.813688 124.48659 
L 304.886 125.200465 
L 307.958313 125.836863 
L 311.030625 126.395811 
L 314.102938 126.878542 
L 317.17525 127.287308 
L 320.247563 127.625205 
L 323.319875 127.896011 
L 326.392187 128.104036 
L 329.4645 128.25398 
L 332.536812 128.350813 
L 335.609125 128.399666 
L 338.681438 128.40573 
L 341.75375 128.374177 
L 344.826062 128.310087 
L 347.898375 128.218384 
L 350.970688 128.103789 
L 354.043 127.970775 
L 357.115313 127.823537 
L 360.187625 127.665967 
L 363.259938 127.501631 
L 366.33225 127.333765 
L 369.404562 127.165264 
L 372.476875 126.998684 
L 375.549188 126.836245 
L 378.6215 126.679838 
L 381.693813 126.531041 
L 384.766125 126.391131 
L 387.838437 126.261101 
" clip-path="url(#pcf93292b11)" style="fill: none; stroke: #2b737e; stroke-width: 1.5; stroke-linecap: square"/>
   </g>
   <g id="line2d_13">
    <path d="M 80.607188 21.265312 
L 83.6795 21.265312 
L 86.751813 83.395496 
L 89.824125 153.004166 
L 92.896438 208.679519 
L 95.96875 230.571562 
L 99.041063 230.571562 
L 102.113375 230.571562 
L 105.185688 230.571562 
L 108.258 230.571562 
L 111.330313 230.571562 
L 114.402625 230.571562 
L 117.474938 230.571562 
L 120.54725 230.571562 
L 123.619563 230.571562 
L 126.691875 230.571562 
L 129.764188 230.571562 
L 132.8365 230.571562 
L 135.908813 230.571562 
L 138.981125 230.571562 
L 142.053438 230.571562 
L 145.12575 230.571562 
L 148.198063 230.571562 
L 151.270375 230.571562 
L 154.342688 230.571562 
L 157.415 230.571562 
L 160.487313 209.561929 
L 163.559625 176.111942 
L 166.631938 148.446996 
L 169.70425 126.181122 
L 172.776563 108.801529 
L 175.848875 95.734734 
L 178.921188 86.390692 
L 181.9935 80.191535 
L 185.065812 76.59029 
L 188.138125 75.083061 
L 191.210438 75.216712 
L 194.28275 76.59315 
L 197.355063 78.870813 
L 200.427375 81.763808 
L 203.499687 85.039086 
L 206.572 88.512065 
L 209.644313 92.041165 
L 212.716625 95.521723 
L 215.788938 98.879752 
L 218.86125 102.065931 
L 221.933563 105.050137 
L 225.005875 107.816703 
L 228.078188 110.360486 
L 231.1505 112.683742 
L 234.222813 114.793715 
L 237.295125 116.700846 
L 240.367438 118.417469 
L 243.43975 119.956871 
L 246.512063 121.332619 
L 249.584375 122.558084 
L 252.656688 123.64609 
L 255.729 124.608676 
L 258.801312 125.456925 
L 261.873625 126.200872 
L 264.945938 126.849469 
L 268.01825 127.410598 
L 271.090563 127.891144 
L 274.162875 128.297095 
L 277.235188 128.633673 
L 280.3075 128.905491 
L 283.379813 129.116699 
L 286.452125 129.271138 
L 289.524437 129.372476 
L 292.59675 129.424321 
L 295.669062 129.430309 
L 298.741375 129.394172 
L 301.813688 129.319766 
L 304.886 129.211085 
L 307.958313 129.07225 
L 311.030625 128.907471 
L 314.102938 128.721012 
L 317.17525 128.51713 
L 320.247563 128.300019 
L 323.319875 128.07375 
L 326.392187 127.842212 
L 329.4645 127.609062 
L 332.536812 127.377677 
L 335.609125 127.15112 
L 338.681438 126.932107 
L 341.75375 126.722992 
L 344.826062 126.525757 
L 347.898375 126.342009 
L 350.970688 126.172988 
L 354.043 126.019583 
L 357.115313 125.882348 
L 360.187625 125.761528 
L 363.259938 125.657087 
L 366.33225 125.568738 
L 369.404562 125.495974 
L 372.476875 125.438103 
L 375.549188 125.394277 
L 378.6215 125.363527 
L 381.693813 125.34479 
L 384.766125 125.336938 
L 387.838437 125.338806 
" clip-path="url(#pcf93292b11)" style="fill: none; stroke: #5ea04b; stroke-width: 1.5; stroke-linecap: square"/>
   </g>
   <g id="line2d_14">
    <path d="M 80.607188 204.408281 
L 83.6795 114.851022 
L 86.751813 52.757789 
L 89.824125 21.265312 
L 92.896438 21.265312 
L 95.96875 21.265312 
L 99.041063 21.265312 
L 102.113375 21.265312 
L 105.185688 21.265312 
L 108.258 21.265312 
L 111.330313 52.971576 
L 114.402625 82.529754 
L 117.474938 108.375004 
L 120.54725 129.54352 
L 123.619563 145.606482 
L 126.691875 156.58353 
L 129.764188 162.838355 
L 132.8365 164.971487 
L 135.908813 163.72159 
L 138.981125 159.882043 
L 142.053438 154.2357 
L 145.12575 147.508075 
L 148.198063 140.337583 
L 151.270375 133.260616 
L 154.342688 126.708785 
L 157.415 121.015457 
L 160.487313 116.445194 
L 163.559625 113.444426 
L 166.631938 112.314239 
L 169.70425 112.892115 
L 172.776563 114.71053 
L 175.848875 117.170155 
L 178.921188 119.682618 
L 181.9935 121.767539 
L 185.065812 123.102129 
L 188.138125 123.530888 
L 191.210438 123.04728 
L 194.28275 121.759651 
L 197.355063 119.851687 
L 200.427375 117.544681 
L 203.499687 115.065921 
L 206.572 112.625075 
L 209.644313 110.398723 
L 212.716625 108.522153 
L 215.788938 107.087026 
L 218.86125 106.143365 
L 221.933563 105.704415 
L 225.005875 105.753119 
L 228.078188 106.249221 
L 231.1505 107.136265 
L 234.222813 108.347987 
L 237.295125 109.81381 
L 240.367438 111.463307 
L 243.43975 113.2296 
L 246.512063 115.051772 
L 249.584375 116.876392 
L 252.656688 118.658301 
L 255.729 120.36081 
L 258.801312 121.955437 
L 261.873625 123.421343 
L 264.945938 124.744551 
L 268.01825 125.917069 
L 271.090563 126.935962 
L 274.162875 127.80246 
L 277.235188 128.52111 
L 280.3075 129.099016 
L 283.379813 129.545163 
L 286.452125 129.869852 
L 289.524437 130.084207 
L 292.59675 130.199787 
L 295.669062 130.228258 
L 298.741375 130.181145 
L 301.813688 130.069628 
L 304.886 129.904391 
L 307.958313 129.695511 
L 311.030625 129.452371 
L 314.102938 129.183607 
L 317.17525 128.897074 
L 320.247563 128.599825 
L 323.319875 128.298117 
L 326.392187 127.997413 
L 329.4645 127.702413 
L 332.536812 127.417078 
L 335.609125 127.144675 
L 338.681438 126.887815 
L 341.75375 126.648508 
L 344.826062 126.428209 
L 347.898375 126.227879 
L 350.970688 126.048033 
L 354.043 125.888795 
L 357.115313 125.749955 
L 360.187625 125.631012 
L 363.259938 125.531231 
L 366.33225 125.449677 
L 369.404562 125.385266 
L 372.476875 125.336796 
L 375.549188 125.302981 
L 378.6215 125.282488 
L 381.693813 125.273953 
L 384.766125 125.276014 
L 387.838437 125.287324 
" clip-path="url(#pcf93292b11)" style="fill: none; stroke: #bdab62; stroke-width: 1.5; stroke-linecap: square"/>
   </g>
   <g id="patch_3">
    <path d="M 65.245625 241.036875 
L 65.245625 10.8 
" style="fill: none; stroke: #000000; stroke-width: 0.8; stroke-linejoin: miter; stroke-linecap: square"/>
   </g>
   <g id="patch_4">
    <path d="M 403.2 241.036875 
L 403.2 10.8 
" style="fill: none; stroke: #000000; stroke-width: 0.8; stroke-linejoin: miter; stroke-linecap: square"/>
   </g>
   <g id="patch_5">
    <path d="M 65.245625 241.036875 
L 403.2 241.036875 
" style="fill: none; stroke: #000000; stroke-width: 0.8; stroke-linejoin: miter; stroke-linecap: square"/>
   </g>
   <g id="patch_6">
    <path d="M 65.245625 10.8 
L 403.2 10.8 
" style="fill: none; stroke: #000000; stroke-width: 0.8; stroke-linejoin: miter; stroke-linecap: square"/>
   </g>
   <g id="legend_1">
    <g id="patch_7">
     <path d="M 357.66 236.536875 
L 396.9 236.536875 
Q 398.7 236.536875 398.7 234.736875 
L 398.7 196.005938 
Q 398.7 194.205938 396.9 194.205938 
L 357.66 194.205938 
Q 355.86 194.205938 355.86 196.005938 
L 355.86 234.736875 
Q 355.86 236.536875 357.66 236.536875 
z
" style="fill: #ffffff; opacity: 0.8; stroke: #cccccc; stroke-linejoin: miter"/>
    </g>
    <g id="line2d_15">
     <path d="M 359.46 201.494531 
L 368.46 201.494531 
L 377.46 201.494531 
" style="fill: none; stroke: #2b737e; stroke-width: 1.5; stroke-linecap: square"/>
    </g>
    <g id="text_14">
     <!-- $V_{0}$ -->
     <g transform="translate(384.66 204.644531) scale(0.09 -0.09)">
      <defs>
       <path id="DejaVuSans-Oblique-56" d="M 1319 0 
L 500 4666 
L 1119 4666 
L 1797 653 
L 4063 4666 
L 4750 4666 
L 2053 0 
L 1319 0 
z
" transform="scale(0.015625)"/>
      </defs>
      <use xlink:href="#DejaVuSans-Oblique-56" transform="translate(0 0.09375)"/>
      <use xlink:href="#DejaVuSans-30" transform="translate(68.408203 -16.3125) scale(0.7)"/>
     </g>
    </g>
    <g id="line2d_16">
     <path d="M 359.46 214.704844 
L 368.46 214.704844 
L 377.46 214.704844 
" style="fill: none; stroke: #5ea04b; stroke-width: 1.5; stroke-linecap: square"/>
    </g>
    <g id="text_15">
     <!-- $V_{1}$ -->
     <g transform="translate(384.66 217.854844) scale(0.09 -0.09)">
      <use xlink:href="#DejaVuSans-Oblique-56" transform="translate(0 0.09375)"/>
      <use xlink:href="#DejaVuSans-31" transform="translate(68.408203 -16.3125) scale(0.7)"/>
     </g>
    </g>
    <g id="line2d_17">
     <path d="M 359.46 227.915156 
L 368.46 227.915156 
L 377.46 227.915156 
" style="fill: none; stroke: #bdab62; stroke-width: 1.5; stroke-linecap: square"/>
    </g>
    <g id="text_16">
     <!-- $V_{2}$ -->
     <g transform="translate(384.66 231.065156) scale(0.09 -0.09)">
      <use xlink:href="#DejaVuSans-Oblique-56" transform="translate(0 0.09375)"/>
      <use xlink:href="#DejaVuSans-32" transform="translate(68.408203 -16.3125) scale(0.7)"/>
     </g>
    </g>
   </g>
  </g>
 </g>
 <defs>
  <clipPath id="pcf93292b11">
   <rect x="65.245625" y="10.8" width="337.954375" height="230.236875"/>
  </clipPath>
 </defs>
</svg>
