<?xml version="1.0" encoding="utf-8" standalone="no"?>
<!DOCTYPE svg PUBLIC "-//W3C//DTD SVG 1.1//EN"
  "http://www.w3.org/Graphics/SVG/1.1/DTD/svg11.dtd">
<svg xmlns:xlink="http://www.w3.org/1999/xlink" width="414pt" height="288pt" viewBox="0 0 414 288" xmlns="http://www.w3.org/2000/svg" version="1.1">
 <metadata>
  <rdf:RDF xmlns:dc="http://purl.org/dc/elements/1.1/" xmlns:cc="http://creativecommons.org/ns#" xmlns:rdf="http://www.w3.org/1999/02/22-rdf-syntax-ns#">
   <cc:Work>
    <dc:type rdf:resource="http://purl.org/dc/dcmitype/StillImage"/>
    <dc:date>2023-09-07T00:34:39.030505</dc:date>
    <dc:format>image/svg+xml</dc:format>
    <dc:creator>
     <cc:Agent>
      <dc:title>Matplotlib v3.7.2, https://matplotlib.org/</dc:title>
     </cc:Agent>
    </dc:creator>
   </cc:Work>
  </rdf:RDF>
 </metadata>
 <defs>
  <style type="text/css">*{stroke-linejoin: round; stroke-linecap: butt}</style>
 </defs>
 <g id="figure_1">
  <g id="patch_1">
   <path d="M 0 288 
L 414 288 
L 414 0 
L 0 0 
L 0 288 
z
" style="fill: none"/>
  </g>
  <g id="axes_1">
   <g id="patch_2">
    <path d="M 70.5525 241.036875 
L 403.2 241.036875 
L 403.2 25.9575 
L 70.5525 25.9575 
L 70.5525 241.036875 
z
" style="fill: none"/>
   </g>
   <g id="matplotlib.axis_1">
    <g id="xtick_1">
     <g id="line2d_1">
      <defs>
       <path id="me2df3278ac" d="M 0 0 
L 0 3.5 
" style="stroke: #000000; stroke-width: 0.8"/>
      </defs>
      <g>
       <use xlink:href="#me2df3278ac" x="85.672841" y="241.036875" style="stroke: #000000; stroke-width: 0.8"/>
      </g>
     </g>
     <g id="text_1">
      <!-- 0 -->
      <g transform="translate(80.582841 260.194375) scale(0.16 -0.16)">
       <defs>
        <path id="DejaVuSans-30" d="M 2034 4250 
Q 1547 4250 1301 3770 
Q 1056 3291 1056 2328 
Q 1056 1369 1301 889 
Q 1547 409 2034 409 
Q 2525 409 2770 889 
Q 3016 1369 3016 2328 
Q 3016 3291 2770 3770 
Q 2525 4250 2034 4250 
z
M 2034 4750 
Q 2819 4750 3233 4129 
Q 3647 3509 3647 2328 
Q 3647 1150 3233 529 
Q 2819 -91 2034 -91 
Q 1250 -91 836 529 
Q 422 1150 422 2328 
Q 422 3509 836 4129 
Q 1250 4750 2034 4750 
z
" transform="scale(0.015625)"/>
       </defs>
       <use xlink:href="#DejaVuSans-30"/>
      </g>
     </g>
    </g>
    <g id="xtick_2">
     <g id="line2d_2">
      <g>
       <use xlink:href="#me2df3278ac" x="172.074789" y="241.036875" style="stroke: #000000; stroke-width: 0.8"/>
      </g>
     </g>
     <g id="text_2">
      <!-- 1 -->
      <g transform="translate(166.984789 260.194375) scale(0.16 -0.16)">
       <defs>
        <path id="DejaVuSans-31" d="M 794 531 
L 1825 531 
L 1825 4091 
L 703 3866 
L 703 4441 
L 1819 4666 
L 2450 4666 
L 2450 531 
L 3481 531 
L 3481 0 
L 794 0 
L 794 531 
z
" transform="scale(0.015625)"/>
       </defs>
       <use xlink:href="#DejaVuSans-31"/>
      </g>
     </g>
    </g>
    <g id="xtick_3">
     <g id="line2d_3">
      <g>
       <use xlink:href="#me2df3278ac" x="258.476737" y="241.036875" style="stroke: #000000; stroke-width: 0.8"/>
      </g>
     </g>
     <g id="text_3">
      <!-- 2 -->
      <g transform="translate(253.386737 260.194375) scale(0.16 -0.16)">
       <defs>
        <path id="DejaVuSans-32" d="M 1228 531 
L 3431 531 
L 3431 0 
L 469 0 
L 469 531 
Q 828 903 1448 1529 
Q 2069 2156 2228 2338 
Q 2531 2678 2651 2914 
Q 2772 3150 2772 3378 
Q 2772 3750 2511 3984 
Q 2250 4219 1831 4219 
Q 1534 4219 1204 4116 
Q 875 4013 500 3803 
L 500 4441 
Q 881 4594 1212 4672 
Q 1544 4750 1819 4750 
Q 2544 4750 2975 4387 
Q 3406 4025 3406 3419 
Q 3406 3131 3298 2873 
Q 3191 2616 2906 2266 
Q 2828 2175 2409 1742 
Q 1991 1309 1228 531 
z
" transform="scale(0.015625)"/>
       </defs>
       <use xlink:href="#DejaVuSans-32"/>
      </g>
     </g>
    </g>
    <g id="xtick_4">
     <g id="line2d_4">
      <g>
       <use xlink:href="#me2df3278ac" x="344.878685" y="241.036875" style="stroke: #000000; stroke-width: 0.8"/>
      </g>
     </g>
     <g id="text_4">
      <!-- 3 -->
      <g transform="translate(339.788685 260.194375) scale(0.16 -0.16)">
       <defs>
        <path id="DejaVuSans-33" d="M 2597 2516 
Q 3050 2419 3304 2112 
Q 3559 1806 3559 1356 
Q 3559 666 3084 287 
Q 2609 -91 1734 -91 
Q 1441 -91 1130 -33 
Q 819 25 488 141 
L 488 750 
Q 750 597 1062 519 
Q 1375 441 1716 441 
Q 2309 441 2620 675 
Q 2931 909 2931 1356 
Q 2931 1769 2642 2001 
Q 2353 2234 1838 2234 
L 1294 2234 
L 1294 2753 
L 1863 2753 
Q 2328 2753 2575 2939 
Q 2822 3125 2822 3475 
Q 2822 3834 2567 4026 
Q 2313 4219 1838 4219 
Q 1578 4219 1281 4162 
Q 984 4106 628 3988 
L 628 4550 
Q 988 4650 1302 4700 
Q 1616 4750 1894 4750 
Q 2613 4750 3031 4423 
Q 3450 4097 3450 3541 
Q 3450 3153 3228 2886 
Q 3006 2619 2597 2516 
z
" transform="scale(0.015625)"/>
       </defs>
       <use xlink:href="#DejaVuSans-33"/>
      </g>
     </g>
    </g>
    <g id="text_5">
     <!-- Time [min] -->
     <g transform="translate(209.723906 275.120313) scale(0.1 -0.1)">
      <defs>
       <path id="DejaVuSans-54" d="M -19 4666 
L 3928 4666 
L 3928 4134 
L 2272 4134 
L 2272 0 
L 1638 0 
L 1638 4134 
L -19 4134 
L -19 4666 
z
" transform="scale(0.015625)"/>
       <path id="DejaVuSans-69" d="M 603 3500 
L 1178 3500 
L 1178 0 
L 603 0 
L 603 3500 
z
M 603 4863 
L 1178 4863 
L 1178 4134 
L 603 4134 
L 603 4863 
z
" transform="scale(0.015625)"/>
       <path id="DejaVuSans-6d" d="M 3328 2828 
Q 3544 3216 3844 3400 
Q 4144 3584 4550 3584 
Q 5097 3584 5394 3201 
Q 5691 2819 5691 2113 
L 5691 0 
L 5113 0 
L 5113 2094 
Q 5113 2597 4934 2840 
Q 4756 3084 4391 3084 
Q 3944 3084 3684 2787 
Q 3425 2491 3425 1978 
L 3425 0 
L 2847 0 
L 2847 2094 
Q 2847 2600 2669 2842 
Q 2491 3084 2119 3084 
Q 1678 3084 1418 2786 
Q 1159 2488 1159 1978 
L 1159 0 
L 581 0 
L 581 3500 
L 1159 3500 
L 1159 2956 
Q 1356 3278 1631 3431 
Q 1906 3584 2284 3584 
Q 2666 3584 2933 3390 
Q 3200 3197 3328 2828 
z
" transform="scale(0.015625)"/>
       <path id="DejaVuSans-65" d="M 3597 1894 
L 3597 1613 
L 953 1613 
Q 991 1019 1311 708 
Q 1631 397 2203 397 
Q 2534 397 2845 478 
Q 3156 559 3463 722 
L 3463 178 
Q 3153 47 2828 -22 
Q 2503 -91 2169 -91 
Q 1331 -91 842 396 
Q 353 884 353 1716 
Q 353 2575 817 3079 
Q 1281 3584 2069 3584 
Q 2775 3584 3186 3129 
Q 3597 2675 3597 1894 
z
M 3022 2063 
Q 3016 2534 2758 2815 
Q 2500 3097 2075 3097 
Q 1594 3097 1305 2825 
Q 1016 2553 972 2059 
L 3022 2063 
z
" transform="scale(0.015625)"/>
       <path id="DejaVuSans-20" transform="scale(0.015625)"/>
       <path id="DejaVuSans-5b" d="M 550 4863 
L 1875 4863 
L 1875 4416 
L 1125 4416 
L 1125 -397 
L 1875 -397 
L 1875 -844 
L 550 -844 
L 550 4863 
z
" transform="scale(0.015625)"/>
       <path id="DejaVuSans-6e" d="M 3513 2113 
L 3513 0 
L 2938 0 
L 2938 2094 
Q 2938 2591 2744 2837 
Q 2550 3084 2163 3084 
Q 1697 3084 1428 2787 
Q 1159 2491 1159 1978 
L 1159 0 
L 581 0 
L 581 3500 
L 1159 3500 
L 1159 2956 
Q 1366 3272 1645 3428 
Q 1925 3584 2291 3584 
Q 2894 3584 3203 3211 
Q 3513 2838 3513 2113 
z
" transform="scale(0.015625)"/>
       <path id="DejaVuSans-5d" d="M 1947 4863 
L 1947 -844 
L 622 -844 
L 622 -397 
L 1369 -397 
L 1369 4416 
L 622 4416 
L 622 4863 
L 1947 4863 
z
" transform="scale(0.015625)"/>
      </defs>
      <use xlink:href="#DejaVuSans-54"/>
      <use xlink:href="#DejaVuSans-69" x="57.958984"/>
      <use xlink:href="#DejaVuSans-6d" x="85.742188"/>
      <use xlink:href="#DejaVuSans-65" x="183.154297"/>
      <use xlink:href="#DejaVuSans-20" x="244.677734"/>
      <use xlink:href="#DejaVuSans-5b" x="276.464844"/>
      <use xlink:href="#DejaVuSans-6d" x="315.478516"/>
      <use xlink:href="#DejaVuSans-69" x="412.890625"/>
      <use xlink:href="#DejaVuSans-6e" x="440.673828"/>
      <use xlink:href="#DejaVuSans-5d" x="504.052734"/>
     </g>
    </g>
   </g>
   <g id="matplotlib.axis_2">
    <g id="ytick_1">
     <g id="line2d_5">
      <defs>
       <path id="mc61b7d4885" d="M 0 0 
L -3.5 0 
" style="stroke: #000000; stroke-width: 0.8"/>
      </defs>
      <g>
       <use xlink:href="#mc61b7d4885" x="70.5525" y="207.847893" style="stroke: #000000; stroke-width: 0.8"/>
      </g>
     </g>
     <g id="text_6">
      <!-- −5.0 -->
      <g transform="translate(24.7 213.926643) scale(0.16 -0.16)">
       <defs>
        <path id="DejaVuSans-2212" d="M 678 2272 
L 4684 2272 
L 4684 1741 
L 678 1741 
L 678 2272 
z
" transform="scale(0.015625)"/>
        <path id="DejaVuSans-35" d="M 691 4666 
L 3169 4666 
L 3169 4134 
L 1269 4134 
L 1269 2991 
Q 1406 3038 1543 3061 
Q 1681 3084 1819 3084 
Q 2600 3084 3056 2656 
Q 3513 2228 3513 1497 
Q 3513 744 3044 326 
Q 2575 -91 1722 -91 
Q 1428 -91 1123 -41 
Q 819 9 494 109 
L 494 744 
Q 775 591 1075 516 
Q 1375 441 1709 441 
Q 2250 441 2565 725 
Q 2881 1009 2881 1497 
Q 2881 1984 2565 2268 
Q 2250 2553 1709 2553 
Q 1456 2553 1204 2497 
Q 953 2441 691 2322 
L 691 4666 
z
" transform="scale(0.015625)"/>
        <path id="DejaVuSans-2e" d="M 684 794 
L 1344 794 
L 1344 0 
L 684 0 
L 684 794 
z
" transform="scale(0.015625)"/>
       </defs>
       <use xlink:href="#DejaVuSans-2212"/>
       <use xlink:href="#DejaVuSans-35" x="83.789062"/>
       <use xlink:href="#DejaVuSans-2e" x="147.412109"/>
       <use xlink:href="#DejaVuSans-30" x="179.199219"/>
      </g>
     </g>
    </g>
    <g id="ytick_2">
     <g id="line2d_6">
      <g>
       <use xlink:href="#mc61b7d4885" x="70.5525" y="170.994655" style="stroke: #000000; stroke-width: 0.8"/>
      </g>
     </g>
     <g id="text_7">
      <!-- −2.5 -->
      <g transform="translate(24.7 177.073405) scale(0.16 -0.16)">
       <use xlink:href="#DejaVuSans-2212"/>
       <use xlink:href="#DejaVuSans-32" x="83.789062"/>
       <use xlink:href="#DejaVuSans-2e" x="147.412109"/>
       <use xlink:href="#DejaVuSans-35" x="179.199219"/>
      </g>
     </g>
    </g>
    <g id="ytick_3">
     <g id="line2d_7">
      <g>
       <use xlink:href="#mc61b7d4885" x="70.5525" y="134.141416" style="stroke: #000000; stroke-width: 0.8"/>
      </g>
     </g>
     <g id="text_8">
      <!-- 0.0 -->
      <g transform="translate(38.1075 140.220166) scale(0.16 -0.16)">
       <use xlink:href="#DejaVuSans-30"/>
       <use xlink:href="#DejaVuSans-2e" x="63.623047"/>
       <use xlink:href="#DejaVuSans-30" x="95.410156"/>
      </g>
     </g>
    </g>
    <g id="ytick_4">
     <g id="line2d_8">
      <g>
       <use xlink:href="#mc61b7d4885" x="70.5525" y="97.288177" style="stroke: #000000; stroke-width: 0.8"/>
      </g>
     </g>
     <g id="text_9">
      <!-- 2.5 -->
      <g transform="translate(38.1075 103.366927) scale(0.16 -0.16)">
       <use xlink:href="#DejaVuSans-32"/>
       <use xlink:href="#DejaVuSans-2e" x="63.623047"/>
       <use xlink:href="#DejaVuSans-35" x="95.410156"/>
      </g>
     </g>
    </g>
    <g id="ytick_5">
     <g id="line2d_9">
      <g>
       <use xlink:href="#mc61b7d4885" x="70.5525" y="60.434939" style="stroke: #000000; stroke-width: 0.8"/>
      </g>
     </g>
     <g id="text_10">
      <!-- 5.0 -->
      <g transform="translate(38.1075 66.513689) scale(0.16 -0.16)">
       <use xlink:href="#DejaVuSans-35"/>
       <use xlink:href="#DejaVuSans-2e" x="63.623047"/>
       <use xlink:href="#DejaVuSans-30" x="95.410156"/>
      </g>
     </g>
    </g>
    <g id="text_11">
     <!-- Attitude Error $\sigma_{B/R}$ -->
     <g transform="translate(18.4 178.447187) rotate(-90) scale(0.1 -0.1)">
      <defs>
       <path id="DejaVuSans-41" d="M 2188 4044 
L 1331 1722 
L 3047 1722 
L 2188 4044 
z
M 1831 4666 
L 2547 4666 
L 4325 0 
L 3669 0 
L 3244 1197 
L 1141 1197 
L 716 0 
L 50 0 
L 1831 4666 
z
" transform="scale(0.015625)"/>
       <path id="DejaVuSans-74" d="M 1172 4494 
L 1172 3500 
L 2356 3500 
L 2356 3053 
L 1172 3053 
L 1172 1153 
Q 1172 725 1289 603 
Q 1406 481 1766 481 
L 2356 481 
L 2356 0 
L 1766 0 
Q 1100 0 847 248 
Q 594 497 594 1153 
L 594 3053 
L 172 3053 
L 172 3500 
L 594 3500 
L 594 4494 
L 1172 4494 
z
" transform="scale(0.015625)"/>
       <path id="DejaVuSans-75" d="M 544 1381 
L 544 3500 
L 1119 3500 
L 1119 1403 
Q 1119 906 1312 657 
Q 1506 409 1894 409 
Q 2359 409 2629 706 
Q 2900 1003 2900 1516 
L 2900 3500 
L 3475 3500 
L 3475 0 
L 2900 0 
L 2900 538 
Q 2691 219 2414 64 
Q 2138 -91 1772 -91 
Q 1169 -91 856 284 
Q 544 659 544 1381 
z
M 1991 3584 
L 1991 3584 
z
" transform="scale(0.015625)"/>
       <path id="DejaVuSans-64" d="M 2906 2969 
L 2906 4863 
L 3481 4863 
L 3481 0 
L 2906 0 
L 2906 525 
Q 2725 213 2448 61 
Q 2172 -91 1784 -91 
Q 1150 -91 751 415 
Q 353 922 353 1747 
Q 353 2572 751 3078 
Q 1150 3584 1784 3584 
Q 2172 3584 2448 3432 
Q 2725 3281 2906 2969 
z
M 947 1747 
Q 947 1113 1208 752 
Q 1469 391 1925 391 
Q 2381 391 2643 752 
Q 2906 1113 2906 1747 
Q 2906 2381 2643 2742 
Q 2381 3103 1925 3103 
Q 1469 3103 1208 2742 
Q 947 2381 947 1747 
z
" transform="scale(0.015625)"/>
       <path id="DejaVuSans-45" d="M 628 4666 
L 3578 4666 
L 3578 4134 
L 1259 4134 
L 1259 2753 
L 3481 2753 
L 3481 2222 
L 1259 2222 
L 1259 531 
L 3634 531 
L 3634 0 
L 628 0 
L 628 4666 
z
" transform="scale(0.015625)"/>
       <path id="DejaVuSans-72" d="M 2631 2963 
Q 2534 3019 2420 3045 
Q 2306 3072 2169 3072 
Q 1681 3072 1420 2755 
Q 1159 2438 1159 1844 
L 1159 0 
L 581 0 
L 581 3500 
L 1159 3500 
L 1159 2956 
Q 1341 3275 1631 3429 
Q 1922 3584 2338 3584 
Q 2397 3584 2469 3576 
Q 2541 3569 2628 3553 
L 2631 2963 
z
" transform="scale(0.015625)"/>
       <path id="DejaVuSans-6f" d="M 1959 3097 
Q 1497 3097 1228 2736 
Q 959 2375 959 1747 
Q 959 1119 1226 758 
Q 1494 397 1959 397 
Q 2419 397 2687 759 
Q 2956 1122 2956 1747 
Q 2956 2369 2687 2733 
Q 2419 3097 1959 3097 
z
M 1959 3584 
Q 2709 3584 3137 3096 
Q 3566 2609 3566 1747 
Q 3566 888 3137 398 
Q 2709 -91 1959 -91 
Q 1206 -91 779 398 
Q 353 888 353 1747 
Q 353 2609 779 3096 
Q 1206 3584 1959 3584 
z
" transform="scale(0.015625)"/>
       <path id="DejaVuSans-Oblique-3c3" d="M 2219 3044 
Q 1744 3044 1422 2700 
Q 1081 2341 969 1747 
Q 844 1119 1044 756 
Q 1241 397 1706 397 
Q 2166 397 2503 759 
Q 2844 1122 2966 1747 
Q 3075 2319 2881 2700 
Q 2700 3044 2219 3044 
z
M 2309 3503 
L 4219 3500 
L 4106 2925 
L 3463 2925 
Q 3706 2438 3575 1747 
Q 3406 888 2884 400 
Q 2359 -91 1609 -91 
Q 856 -91 525 400 
Q 194 888 363 1747 
Q 528 2609 1050 3097 
Q 1484 3503 2309 3503 
z
" transform="scale(0.015625)"/>
       <path id="DejaVuSans-Oblique-42" d="M 1081 4666 
L 2694 4666 
Q 3350 4666 3675 4422 
Q 4000 4178 4000 3688 
Q 4000 3238 3720 2911 
Q 3441 2584 2988 2516 
Q 3375 2428 3569 2181 
Q 3763 1934 3763 1522 
Q 3763 819 3242 409 
Q 2722 0 1819 0 
L 172 0 
L 1081 4666 
z
M 1234 2228 
L 903 519 
L 1919 519 
Q 2491 519 2800 781 
Q 3109 1044 3109 1522 
Q 3109 1891 2904 2059 
Q 2700 2228 2247 2228 
L 1234 2228 
z
M 1606 4147 
L 1331 2741 
L 2272 2741 
Q 2775 2741 3058 2959 
Q 3341 3178 3341 3566 
Q 3341 3869 3150 4008 
Q 2959 4147 2541 4147 
L 1606 4147 
z
" transform="scale(0.015625)"/>
       <path id="DejaVuSans-2f" d="M 1625 4666 
L 2156 4666 
L 531 -594 
L 0 -594 
L 1625 4666 
z
" transform="scale(0.015625)"/>
       <path id="DejaVuSans-Oblique-52" d="M 1613 4147 
L 1294 2491 
L 2106 2491 
Q 2584 2491 2879 2755 
Q 3175 3019 3175 3444 
Q 3175 3784 2976 3965 
Q 2778 4147 2406 4147 
L 1613 4147 
z
M 2772 2241 
Q 2972 2194 3105 2009 
Q 3238 1825 3413 1275 
L 3809 0 
L 3144 0 
L 2778 1197 
Q 2638 1659 2453 1815 
Q 2269 1972 1888 1972 
L 1191 1972 
L 806 0 
L 172 0 
L 1081 4666 
L 2503 4666 
Q 3150 4666 3495 4373 
Q 3841 4081 3841 3531 
Q 3841 3044 3547 2687 
Q 3253 2331 2772 2241 
z
" transform="scale(0.015625)"/>
      </defs>
      <use xlink:href="#DejaVuSans-41" transform="translate(0 0.015625)"/>
      <use xlink:href="#DejaVuSans-74" transform="translate(68.408203 0.015625)"/>
      <use xlink:href="#DejaVuSans-74" transform="translate(107.617188 0.015625)"/>
      <use xlink:href="#DejaVuSans-69" transform="translate(146.826172 0.015625)"/>
      <use xlink:href="#DejaVuSans-74" transform="translate(174.609375 0.015625)"/>
      <use xlink:href="#DejaVuSans-75" transform="translate(213.818359 0.015625)"/>
      <use xlink:href="#DejaVuSans-64" transform="translate(277.197266 0.015625)"/>
      <use xlink:href="#DejaVuSans-65" transform="translate(340.673828 0.015625)"/>
      <use xlink:href="#DejaVuSans-20" transform="translate(402.197266 0.015625)"/>
      <use xlink:href="#DejaVuSans-45" transform="translate(433.984375 0.015625)"/>
      <use xlink:href="#DejaVuSans-72" transform="translate(497.167969 0.015625)"/>
      <use xlink:href="#DejaVuSans-72" transform="translate(538.28125 0.015625)"/>
      <use xlink:href="#DejaVuSans-6f" transform="translate(579.394531 0.015625)"/>
      <use xlink:href="#DejaVuSans-72" transform="translate(640.576172 0.015625)"/>
      <use xlink:href="#DejaVuSans-20" transform="translate(681.689453 0.015625)"/>
      <use xlink:href="#DejaVuSans-Oblique-3c3" transform="translate(713.476562 0.015625)"/>
      <use xlink:href="#DejaVuSans-Oblique-42" transform="translate(776.855469 -16.390625) scale(0.7)"/>
      <use xlink:href="#DejaVuSans-2f" transform="translate(824.87793 -16.390625) scale(0.7)"/>
      <use xlink:href="#DejaVuSans-Oblique-52" transform="translate(847.236914 -16.390625) scale(0.7)"/>
     </g>
    </g>
    <g id="text_12">
     <!-- 1e−5 -->
     <g transform="translate(70.5525 22.9575) scale(0.16 -0.16)">
      <use xlink:href="#DejaVuSans-31"/>
      <use xlink:href="#DejaVuSans-65" x="63.623047"/>
      <use xlink:href="#DejaVuSans-2212" x="125.146484"/>
      <use xlink:href="#DejaVuSans-35" x="208.935547"/>
     </g>
    </g>
   </g>
   <g id="line2d_10">
    <path d="M 85.672841 134.141416 
L 86.277655 135.664249 
L 86.882468 138.941071 
L 90.51135 161.77906 
L 91.720977 167.960058 
L 92.930605 173.342934 
L 94.140232 177.993802 
L 95.349859 181.975866 
L 96.559486 185.346288 
L 97.769114 188.156217 
L 98.978741 190.451407 
L 100.188368 192.272897 
L 101.397995 193.657644 
L 102.607623 194.63909 
L 103.81725 195.247663 
L 105.026877 195.511208 
L 106.236505 195.455369 
L 107.446132 195.1039 
L 108.655759 194.478937 
L 109.865386 193.601208 
L 111.075014 192.490212 
L 112.889455 190.426316 
L 114.703895 187.936677 
L 116.518336 185.074597 
L 118.937591 180.762947 
L 121.356845 175.978998 
L 124.380914 169.468853 
L 128.009795 161.058733 
L 132.243491 150.627839 
L 137.082 138.049259 
L 141.920509 124.800524 
L 147.968645 108.145306 
L 150.992714 100.584365 
L 153.411968 95.21791 
L 155.226409 91.693782 
L 157.04085 88.665083 
L 158.855291 86.185599 
L 160.064918 84.861752 
L 161.274545 83.81636 
L 162.484173 83.061059 
L 163.6938 82.606244 
L 164.903427 82.461019 
L 166.113055 82.633147 
L 167.322682 83.128997 
L 168.532309 83.953491 
L 169.741936 85.110208 
L 170.951564 86.597242 
L 172.161191 88.386161 
L 173.975632 91.541857 
L 175.790073 95.136225 
L 178.814141 101.747297 
L 186.676718 119.405148 
L 189.095973 124.241365 
L 191.515227 128.561271 
L 193.329668 131.407076 
L 195.144109 133.882312 
L 196.95855 135.977812 
L 198.772991 137.703871 
L 200.587432 139.072977 
L 202.401873 140.096716 
L 204.216314 140.785798 
L 206.030755 141.150312 
L 207.845195 141.19994 
L 209.659636 140.944116 
L 211.474077 140.392128 
L 213.288518 139.553159 
L 215.102959 138.436093 
L 217.522214 136.576362 
L 223.57035 131.623147 
L 225.384791 130.460689 
L 227.199232 129.592892 
L 228.408859 129.211268 
L 229.618486 129.008002 
L 230.828114 128.999254 
L 232.037741 129.199795 
L 233.247368 129.623109 
L 234.456995 130.281676 
L 235.666623 131.181493 
L 237.481064 132.928417 
L 239.295505 135.035671 
L 242.319573 138.992993 
L 246.553268 144.523715 
L 248.367709 146.576757 
L 250.18215 148.287315 
L 251.391777 149.188811 
L 252.601405 149.867093 
L 253.811032 150.296392 
L 255.020659 150.452791 
L 256.230286 150.31414 
L 257.439914 149.871762 
L 258.649541 149.174848 
L 260.463982 147.824473 
L 264.092864 145.002903 
L 265.302491 144.290766 
L 266.512118 143.798323 
L 267.721745 143.579849 
L 268.931373 143.6832 
L 270.141 144.149659 
L 271.350627 145.013897 
L 272.560255 146.304069 
L 273.769882 148.042046 
L 274.979509 150.243788 
L 276.189136 152.919854 
L 277.398764 156.076037 
L 278.608391 159.714183 
L 280.422832 166.037653 
L 286.470968 188.459912 
L 287.680595 192.034557 
L 288.890223 195.037166 
L 290.09985 197.386312 
L 291.309477 199.014426 
L 291.914291 199.540423 
L 292.519105 199.866402 
L 293.123918 199.987229 
L 293.728732 199.89841 
L 294.333545 199.596069 
L 294.938359 199.076915 
L 295.543173 198.338228 
L 296.147986 197.377826 
L 297.357614 194.785736 
L 298.567241 191.293157 
L 299.776868 186.89968 
L 300.986495 181.610973 
L 302.196123 175.437547 
L 303.40575 168.393225 
L 305.220191 156.22708 
L 307.034632 142.181095 
L 308.849073 126.275761 
L 310.663514 108.481498 
L 312.477955 88.689074 
L 314.292395 66.675348 
L 315.502023 50.587333 
L 316.106836 39.383287 
L 316.71165 35.733835 
L 317.316464 35.85019 
L 317.921277 37.627495 
L 319.130905 42.853234 
L 322.154973 56.458192 
L 324.574227 66.014121 
L 326.993482 74.398096 
L 329.412736 81.750444 
L 331.831991 88.197964 
L 334.251245 93.85201 
L 336.6705 98.810233 
L 339.089755 103.15827 
L 341.509009 106.971213 
L 343.928264 110.314914 
L 346.347518 113.247123 
L 348.766773 115.818479 
L 351.186027 118.07339 
L 353.605282 120.050801 
L 356.024536 121.784862 
L 359.048605 123.655493 
L 362.072673 125.242934 
L 365.096741 126.590055 
L 368.725623 127.940207 
L 372.354505 129.048957 
L 376.5882 130.094534 
L 381.426709 131.029303 
L 386.870032 131.82545 
L 388.079659 131.972634 
L 388.079659 131.972634 
" clip-path="url(#p3340d917f0)" style="fill: none; stroke: #2b737e; stroke-width: 1.5; stroke-linecap: square"/>
   </g>
   <g id="line2d_11">
    <path d="M 85.672841 134.141416 
L 86.277655 134.603947 
L 86.882468 135.901799 
L 87.487282 137.909302 
L 88.092095 140.513043 
L 89.301723 147.110773 
L 91.116164 159.240854 
L 96.559486 197.742042 
L 98.373927 208.311734 
L 99.583555 214.324544 
L 100.793182 219.44174 
L 102.002809 223.634858 
L 103.212436 226.896764 
L 104.422064 229.23745 
L 105.026877 230.069272 
L 105.631691 230.68056 
L 106.236505 231.075934 
L 106.841318 231.26054 
L 107.446132 231.239986 
L 108.050945 231.020284 
L 108.655759 230.607797 
L 109.260573 230.009196 
L 110.4702 228.281593 
L 111.679827 225.895374 
L 112.889455 222.910921 
L 114.099082 219.390165 
L 115.913523 213.240665 
L 117.727964 206.237031 
L 120.147218 195.928508 
L 124.380914 176.523941 
L 128.614609 157.293578 
L 131.033864 147.113594 
L 133.453118 137.879449 
L 135.267559 131.712372 
L 137.082 126.28272 
L 138.896441 121.653157 
L 140.106068 119.036209 
L 141.315695 116.813375 
L 142.525323 114.999072 
L 143.73495 113.596151 
L 144.944577 112.597626 
L 146.154205 111.988856 
L 147.363832 111.749376 
L 148.573459 111.854449 
L 149.783086 112.276344 
L 150.992714 112.985386 
L 152.202341 113.9508 
L 153.411968 115.141383 
L 155.226409 117.28149 
L 157.04085 119.755502 
L 160.064918 124.354834 
L 166.717868 134.727922 
L 169.137123 137.984427 
L 170.951564 140.063684 
L 172.766005 141.736498 
L 173.975632 142.599106 
L 175.185259 143.251553 
L 176.394886 143.693334 
L 177.604514 143.928481 
L 178.814141 143.964702 
L 180.023768 143.812665 
L 181.233395 143.485416 
L 183.047836 142.699094 
L 184.862277 141.608728 
L 186.676718 140.275539 
L 189.095973 138.231372 
L 196.95855 131.274746 
L 199.377805 129.585422 
L 201.192245 128.54562 
L 203.6115 127.454485 
L 206.030755 126.666634 
L 208.450009 126.131636 
L 211.474077 125.73606 
L 215.102959 125.534087 
L 219.941468 125.507949 
L 224.175164 125.703888 
L 227.199232 126.049109 
L 230.2233 126.612263 
L 233.247368 127.404132 
L 236.271436 128.408117 
L 245.343641 131.69938 
L 247.158082 132.072724 
L 248.972523 132.240056 
L 250.786964 132.160645 
L 252.601405 131.799783 
L 254.415845 131.129628 
L 256.230286 130.129693 
L 258.044727 128.781246 
L 259.859168 127.081065 
L 261.673609 125.05663 
L 264.092864 121.937937 
L 267.116932 117.56853 
L 278.003577 101.274351 
L 282.237273 95.59654 
L 285.866155 91.08368 
L 288.285409 88.470549 
L 290.09985 86.867604 
L 291.309477 86.025334 
L 292.519105 85.399378 
L 293.728732 85.018312 
L 294.938359 84.908006 
L 296.147986 85.090532 
L 297.357614 85.583143 
L 298.567241 86.397391 
L 299.776868 87.538413 
L 300.986495 89.004445 
L 302.196123 90.786611 
L 304.010564 94.01601 
L 305.825005 97.838736 
L 307.639445 102.147701 
L 310.0587 108.435963 
L 314.897209 121.857574 
L 315.502023 123.560745 
L 316.71165 129.116865 
L 317.921277 133.595803 
L 319.130905 137.080404 
L 320.340532 139.744138 
L 321.550159 141.733147 
L 322.759786 143.170362 
L 323.969414 144.158979 
L 325.179041 144.785425 
L 326.388668 145.121895 
L 327.598295 145.228515 
L 328.807923 145.155198 
L 330.622364 144.79612 
L 333.041618 144.014952 
L 336.6705 142.542371 
L 342.718636 140.066857 
L 346.347518 138.798772 
L 349.9764 137.74244 
L 354.210095 136.766445 
L 358.443791 136.029219 
L 363.2823 135.419745 
L 368.725623 134.955031 
L 375.983386 134.579357 
L 385.660405 134.328854 
L 388.079659 134.292532 
L 388.079659 134.292532 
" clip-path="url(#p3340d917f0)" style="fill: none; stroke: #5ea04b; stroke-width: 1.5; stroke-linecap: square"/>
   </g>
   <g id="line2d_12">
    <path d="M 85.672841 134.141416 
L 86.277655 133.910938 
L 86.882468 133.27447 
L 87.487282 132.309027 
L 88.696909 129.659305 
L 90.51135 124.709965 
L 92.930605 117.98977 
L 94.140232 115.076334 
L 95.349859 112.649587 
L 96.559486 110.794862 
L 97.769114 109.562128 
L 98.373927 109.186612 
L 98.978741 108.972641 
L 99.583555 108.919303 
L 100.188368 109.024547 
L 100.793182 109.285305 
L 101.397995 109.697619 
L 102.607623 110.95725 
L 103.81725 112.757823 
L 105.026877 115.045554 
L 106.236505 117.760888 
L 108.050945 122.496581 
L 110.4702 129.703453 
L 118.937591 156.137267 
L 120.752032 160.875778 
L 122.566473 164.989145 
L 124.380914 168.388258 
L 125.590541 170.224039 
L 126.800168 171.698544 
L 128.009795 172.801822 
L 129.219423 173.527789 
L 130.42905 173.873945 
L 131.638677 173.841078 
L 132.848305 173.432944 
L 134.057932 172.655938 
L 135.267559 171.518764 
L 136.477186 170.032088 
L 137.686814 168.208208 
L 138.896441 166.060713 
L 140.710882 162.262502 
L 142.525323 157.795833 
L 144.339764 152.726424 
L 146.759018 145.244688 
L 151.597527 129.178622 
L 155.226409 117.557417 
L 157.645664 110.555798 
L 159.460105 105.846094 
L 161.274545 101.672696 
L 163.088986 98.083707 
L 164.903427 95.114327 
L 166.113055 93.491593 
L 167.322682 92.16078 
L 168.532309 91.125971 
L 169.741936 90.390521 
L 170.951564 89.962526 
L 172.161191 89.848371 
L 173.370818 90.043531 
L 174.580445 90.534921 
L 175.790073 91.303238 
L 176.9997 92.324838 
L 178.814141 94.273668 
L 180.628582 96.636654 
L 183.047836 100.262257 
L 186.676718 106.265401 
L 191.515227 114.286878 
L 193.934482 117.935028 
L 196.353736 121.15974 
L 198.168177 123.239208 
L 199.982618 125.012257 
L 201.797059 126.485203 
L 203.6115 127.677084 
L 205.425941 128.615314 
L 207.240382 129.332429 
L 209.659636 130.005675 
L 212.078891 130.433999 
L 215.707773 130.797682 
L 222.360723 131.353889 
L 225.384791 131.888881 
L 227.804045 132.554464 
L 230.2233 133.473151 
L 232.642555 134.66879 
L 235.061809 136.154966 
L 237.481064 137.960469 
L 241.109945 141.081602 
L 244.134014 143.589171 
L 245.948455 144.816152 
L 247.158082 145.447205 
L 248.367709 145.891234 
L 249.577336 146.118629 
L 250.786964 146.102497 
L 251.996591 145.818977 
L 253.206218 145.247485 
L 254.415845 144.370867 
L 255.625473 143.175488 
L 256.8351 141.645031 
L 258.044727 139.755167 
L 259.254355 137.507758 
L 261.068795 133.533189 
L 262.883236 128.990694 
L 270.141 109.830996 
L 271.955441 105.980731 
L 273.165068 103.84099 
L 274.374695 102.099857 
L 275.584323 100.798981 
L 276.79395 99.973361 
L 277.398764 99.747828 
L 278.003577 99.651091 
L 278.608391 99.685577 
L 279.213205 99.855032 
L 279.818018 100.164087 
L 280.422832 100.614955 
L 281.632459 101.939336 
L 282.842086 103.803061 
L 284.051714 106.155156 
L 285.261341 108.925758 
L 287.075782 113.683499 
L 290.09985 122.459344 
L 293.123918 131.116792 
L 294.938359 135.795099 
L 296.7528 139.896549 
L 298.567241 143.351418 
L 300.381682 146.163649 
L 302.196123 148.40437 
L 304.010564 150.200365 
L 306.429818 152.196129 
L 309.453886 154.693132 
L 311.268327 156.53248 
L 312.477955 158.005372 
L 313.687582 159.722752 
L 314.897209 161.715269 
L 315.502023 162.821472 
L 316.71165 168.397168 
L 317.921277 172.388576 
L 318.526091 173.828567 
L 319.130905 174.948651 
L 319.735718 175.782676 
L 320.340532 176.361533 
L 320.945345 176.713397 
L 321.550159 176.863943 
L 322.154973 176.836547 
L 322.759786 176.652471 
L 323.969414 175.889784 
L 325.179041 174.70992 
L 326.388668 173.22281 
L 328.203109 170.607476 
L 331.227177 165.756556 
L 335.460873 158.987418 
L 338.484941 154.62298 
L 340.904195 151.522349 
L 343.32345 148.787824 
L 345.742705 146.410169 
L 348.161959 144.366038 
L 350.581214 142.624744 
L 353.000468 141.152707 
L 355.419723 139.916277 
L 358.443791 138.653519 
L 361.467859 137.652321 
L 365.096741 136.727267 
L 368.725623 136.037378 
L 372.959318 135.454993 
L 378.402641 134.955477 
L 385.055591 134.591192 
L 388.079659 134.483974 
L 388.079659 134.483974 
" clip-path="url(#p3340d917f0)" style="fill: none; stroke: #bdab62; stroke-width: 1.5; stroke-linecap: square"/>
   </g>
   <g id="patch_3">
    <path d="M 70.5525 241.036875 
L 70.5525 25.9575 
" style="fill: none; stroke: #000000; stroke-width: 0.8; stroke-linejoin: miter; stroke-linecap: square"/>
   </g>
   <g id="patch_4">
    <path d="M 403.2 241.036875 
L 403.2 25.9575 
" style="fill: none; stroke: #000000; stroke-width: 0.8; stroke-linejoin: miter; stroke-linecap: square"/>
   </g>
   <g id="patch_5">
    <path d="M 70.5525 241.036875 
L 403.2 241.036875 
" style="fill: none; stroke: #000000; stroke-width: 0.8; stroke-linejoin: miter; stroke-linecap: square"/>
   </g>
   <g id="patch_6">
    <path d="M 70.5525 25.9575 
L 403.2 25.9575 
" style="fill: none; stroke: #000000; stroke-width: 0.8; stroke-linejoin: miter; stroke-linecap: square"/>
   </g>
   <g id="legend_1">
    <g id="patch_7">
     <path d="M 358.11 236.536875 
L 396.9 236.536875 
Q 398.7 236.536875 398.7 234.736875 
L 398.7 196.005938 
Q 398.7 194.205938 396.9 194.205938 
L 358.11 194.205938 
Q 356.31 194.205938 356.31 196.005938 
L 356.31 234.736875 
Q 356.31 236.536875 358.11 236.536875 
z
" style="fill: #ffffff; opacity: 0.8; stroke: #cccccc; stroke-linejoin: miter"/>
    </g>
    <g id="line2d_13">
     <path d="M 359.91 201.494531 
L 368.91 201.494531 
L 377.91 201.494531 
" style="fill: none; stroke: #2b737e; stroke-width: 1.5; stroke-linecap: square"/>
    </g>
    <g id="text_13">
     <!-- $\sigma_0$ -->
     <g transform="translate(385.11 204.644531) scale(0.09 -0.09)">
      <use xlink:href="#DejaVuSans-Oblique-3c3" transform="translate(0 0.265625)"/>
      <use xlink:href="#DejaVuSans-30" transform="translate(63.378906 -16.140625) scale(0.7)"/>
     </g>
    </g>
    <g id="line2d_14">
     <path d="M 359.91 214.704844 
L 368.91 214.704844 
L 377.91 214.704844 
" style="fill: none; stroke: #5ea04b; stroke-width: 1.5; stroke-linecap: square"/>
    </g>
    <g id="text_14">
     <!-- $\sigma_1$ -->
     <g transform="translate(385.11 217.854844) scale(0.09 -0.09)">
      <use xlink:href="#DejaVuSans-Oblique-3c3" transform="translate(0 0.265625)"/>
      <use xlink:href="#DejaVuSans-31" transform="translate(63.378906 -16.140625) scale(0.7)"/>
     </g>
    </g>
    <g id="line2d_15">
     <path d="M 359.91 227.915156 
L 368.91 227.915156 
L 377.91 227.915156 
" style="fill: none; stroke: #bdab62; stroke-width: 1.5; stroke-linecap: square"/>
    </g>
    <g id="text_15">
     <!-- $\sigma_2$ -->
     <g transform="translate(385.11 231.065156) scale(0.09 -0.09)">
      <use xlink:href="#DejaVuSans-Oblique-3c3" transform="translate(0 0.265625)"/>
      <use xlink:href="#DejaVuSans-32" transform="translate(63.378906 -16.140625) scale(0.7)"/>
     </g>
    </g>
   </g>
  </g>
 </g>
 <defs>
  <clipPath id="p3340d917f0">
   <rect x="70.5525" y="25.9575" width="332.6475" height="215.079375"/>
  </clipPath>
 </defs>
</svg>
