<?xml version="1.0" encoding="utf-8" standalone="no"?>
<!DOCTYPE svg PUBLIC "-//W3C//DTD SVG 1.1//EN"
  "http://www.w3.org/Graphics/SVG/1.1/DTD/svg11.dtd">
<svg xmlns:xlink="http://www.w3.org/1999/xlink" width="414pt" height="288pt" viewBox="0 0 414 288" xmlns="http://www.w3.org/2000/svg" version="1.1">
 <metadata>
  <rdf:RDF xmlns:dc="http://purl.org/dc/elements/1.1/" xmlns:cc="http://creativecommons.org/ns#" xmlns:rdf="http://www.w3.org/1999/02/22-rdf-syntax-ns#">
   <cc:Work>
    <dc:type rdf:resource="http://purl.org/dc/dcmitype/StillImage"/>
    <dc:date>2023-09-07T00:34:37.469959</dc:date>
    <dc:format>image/svg+xml</dc:format>
    <dc:creator>
     <cc:Agent>
      <dc:title>Matplotlib v3.7.2, https://matplotlib.org/</dc:title>
     </cc:Agent>
    </dc:creator>
   </cc:Work>
  </rdf:RDF>
 </metadata>
 <defs>
  <style type="text/css">*{stroke-linejoin: round; stroke-linecap: butt}</style>
 </defs>
 <g id="figure_1">
  <g id="patch_1">
   <path d="M 0 288 
L 414 288 
L 414 0 
L 0 0 
L 0 288 
z
" style="fill: none"/>
  </g>
  <g id="axes_1">
   <g id="patch_2">
    <path d="M 55.065625 241.036875 
L 403.2 241.036875 
L 403.2 25.9575 
L 55.065625 25.9575 
L 55.065625 241.036875 
z
" style="fill: none"/>
   </g>
   <g id="matplotlib.axis_1">
    <g id="xtick_1">
     <g id="line2d_1">
      <defs>
       <path id="m6657186dbf" d="M 0 0 
L 0 3.5 
" style="stroke: #000000; stroke-width: 0.8"/>
      </defs>
      <g>
       <use xlink:href="#m6657186dbf" x="70.889915" y="241.036875" style="stroke: #000000; stroke-width: 0.8"/>
      </g>
     </g>
     <g id="text_1">
      <!-- 0 -->
      <g transform="translate(65.799915 260.194375) scale(0.16 -0.16)">
       <defs>
        <path id="DejaVuSans-30" d="M 2034 4250 
Q 1547 4250 1301 3770 
Q 1056 3291 1056 2328 
Q 1056 1369 1301 889 
Q 1547 409 2034 409 
Q 2525 409 2770 889 
Q 3016 1369 3016 2328 
Q 3016 3291 2770 3770 
Q 2525 4250 2034 4250 
z
M 2034 4750 
Q 2819 4750 3233 4129 
Q 3647 3509 3647 2328 
Q 3647 1150 3233 529 
Q 2819 -91 2034 -91 
Q 1250 -91 836 529 
Q 422 1150 422 2328 
Q 422 3509 836 4129 
Q 1250 4750 2034 4750 
z
" transform="scale(0.015625)"/>
       </defs>
       <use xlink:href="#DejaVuSans-30"/>
      </g>
     </g>
    </g>
    <g id="xtick_2">
     <g id="line2d_2">
      <g>
       <use xlink:href="#m6657186dbf" x="161.314428" y="241.036875" style="stroke: #000000; stroke-width: 0.8"/>
      </g>
     </g>
     <g id="text_2">
      <!-- 1 -->
      <g transform="translate(156.224428 260.194375) scale(0.16 -0.16)">
       <defs>
        <path id="DejaVuSans-31" d="M 794 531 
L 1825 531 
L 1825 4091 
L 703 3866 
L 703 4441 
L 1819 4666 
L 2450 4666 
L 2450 531 
L 3481 531 
L 3481 0 
L 794 0 
L 794 531 
z
" transform="scale(0.015625)"/>
       </defs>
       <use xlink:href="#DejaVuSans-31"/>
      </g>
     </g>
    </g>
    <g id="xtick_3">
     <g id="line2d_3">
      <g>
       <use xlink:href="#m6657186dbf" x="251.738941" y="241.036875" style="stroke: #000000; stroke-width: 0.8"/>
      </g>
     </g>
     <g id="text_3">
      <!-- 2 -->
      <g transform="translate(246.648941 260.194375) scale(0.16 -0.16)">
       <defs>
        <path id="DejaVuSans-32" d="M 1228 531 
L 3431 531 
L 3431 0 
L 469 0 
L 469 531 
Q 828 903 1448 1529 
Q 2069 2156 2228 2338 
Q 2531 2678 2651 2914 
Q 2772 3150 2772 3378 
Q 2772 3750 2511 3984 
Q 2250 4219 1831 4219 
Q 1534 4219 1204 4116 
Q 875 4013 500 3803 
L 500 4441 
Q 881 4594 1212 4672 
Q 1544 4750 1819 4750 
Q 2544 4750 2975 4387 
Q 3406 4025 3406 3419 
Q 3406 3131 3298 2873 
Q 3191 2616 2906 2266 
Q 2828 2175 2409 1742 
Q 1991 1309 1228 531 
z
" transform="scale(0.015625)"/>
       </defs>
       <use xlink:href="#DejaVuSans-32"/>
      </g>
     </g>
    </g>
    <g id="xtick_4">
     <g id="line2d_4">
      <g>
       <use xlink:href="#m6657186dbf" x="342.163454" y="241.036875" style="stroke: #000000; stroke-width: 0.8"/>
      </g>
     </g>
     <g id="text_4">
      <!-- 3 -->
      <g transform="translate(337.073454 260.194375) scale(0.16 -0.16)">
       <defs>
        <path id="DejaVuSans-33" d="M 2597 2516 
Q 3050 2419 3304 2112 
Q 3559 1806 3559 1356 
Q 3559 666 3084 287 
Q 2609 -91 1734 -91 
Q 1441 -91 1130 -33 
Q 819 25 488 141 
L 488 750 
Q 750 597 1062 519 
Q 1375 441 1716 441 
Q 2309 441 2620 675 
Q 2931 909 2931 1356 
Q 2931 1769 2642 2001 
Q 2353 2234 1838 2234 
L 1294 2234 
L 1294 2753 
L 1863 2753 
Q 2328 2753 2575 2939 
Q 2822 3125 2822 3475 
Q 2822 3834 2567 4026 
Q 2313 4219 1838 4219 
Q 1578 4219 1281 4162 
Q 984 4106 628 3988 
L 628 4550 
Q 988 4650 1302 4700 
Q 1616 4750 1894 4750 
Q 2613 4750 3031 4423 
Q 3450 4097 3450 3541 
Q 3450 3153 3228 2886 
Q 3006 2619 2597 2516 
z
" transform="scale(0.015625)"/>
       </defs>
       <use xlink:href="#DejaVuSans-33"/>
      </g>
     </g>
    </g>
    <g id="text_5">
     <!-- Time [min] -->
     <g transform="translate(201.980469 275.120313) scale(0.1 -0.1)">
      <defs>
       <path id="DejaVuSans-54" d="M -19 4666 
L 3928 4666 
L 3928 4134 
L 2272 4134 
L 2272 0 
L 1638 0 
L 1638 4134 
L -19 4134 
L -19 4666 
z
" transform="scale(0.015625)"/>
       <path id="DejaVuSans-69" d="M 603 3500 
L 1178 3500 
L 1178 0 
L 603 0 
L 603 3500 
z
M 603 4863 
L 1178 4863 
L 1178 4134 
L 603 4134 
L 603 4863 
z
" transform="scale(0.015625)"/>
       <path id="DejaVuSans-6d" d="M 3328 2828 
Q 3544 3216 3844 3400 
Q 4144 3584 4550 3584 
Q 5097 3584 5394 3201 
Q 5691 2819 5691 2113 
L 5691 0 
L 5113 0 
L 5113 2094 
Q 5113 2597 4934 2840 
Q 4756 3084 4391 3084 
Q 3944 3084 3684 2787 
Q 3425 2491 3425 1978 
L 3425 0 
L 2847 0 
L 2847 2094 
Q 2847 2600 2669 2842 
Q 2491 3084 2119 3084 
Q 1678 3084 1418 2786 
Q 1159 2488 1159 1978 
L 1159 0 
L 581 0 
L 581 3500 
L 1159 3500 
L 1159 2956 
Q 1356 3278 1631 3431 
Q 1906 3584 2284 3584 
Q 2666 3584 2933 3390 
Q 3200 3197 3328 2828 
z
" transform="scale(0.015625)"/>
       <path id="DejaVuSans-65" d="M 3597 1894 
L 3597 1613 
L 953 1613 
Q 991 1019 1311 708 
Q 1631 397 2203 397 
Q 2534 397 2845 478 
Q 3156 559 3463 722 
L 3463 178 
Q 3153 47 2828 -22 
Q 2503 -91 2169 -91 
Q 1331 -91 842 396 
Q 353 884 353 1716 
Q 353 2575 817 3079 
Q 1281 3584 2069 3584 
Q 2775 3584 3186 3129 
Q 3597 2675 3597 1894 
z
M 3022 2063 
Q 3016 2534 2758 2815 
Q 2500 3097 2075 3097 
Q 1594 3097 1305 2825 
Q 1016 2553 972 2059 
L 3022 2063 
z
" transform="scale(0.015625)"/>
       <path id="DejaVuSans-20" transform="scale(0.015625)"/>
       <path id="DejaVuSans-5b" d="M 550 4863 
L 1875 4863 
L 1875 4416 
L 1125 4416 
L 1125 -397 
L 1875 -397 
L 1875 -844 
L 550 -844 
L 550 4863 
z
" transform="scale(0.015625)"/>
       <path id="DejaVuSans-6e" d="M 3513 2113 
L 3513 0 
L 2938 0 
L 2938 2094 
Q 2938 2591 2744 2837 
Q 2550 3084 2163 3084 
Q 1697 3084 1428 2787 
Q 1159 2491 1159 1978 
L 1159 0 
L 581 0 
L 581 3500 
L 1159 3500 
L 1159 2956 
Q 1366 3272 1645 3428 
Q 1925 3584 2291 3584 
Q 2894 3584 3203 3211 
Q 3513 2838 3513 2113 
z
" transform="scale(0.015625)"/>
       <path id="DejaVuSans-5d" d="M 1947 4863 
L 1947 -844 
L 622 -844 
L 622 -397 
L 1369 -397 
L 1369 4416 
L 622 4416 
L 622 4863 
L 1947 4863 
z
" transform="scale(0.015625)"/>
      </defs>
      <use xlink:href="#DejaVuSans-54"/>
      <use xlink:href="#DejaVuSans-69" x="57.958984"/>
      <use xlink:href="#DejaVuSans-6d" x="85.742188"/>
      <use xlink:href="#DejaVuSans-65" x="183.154297"/>
      <use xlink:href="#DejaVuSans-20" x="244.677734"/>
      <use xlink:href="#DejaVuSans-5b" x="276.464844"/>
      <use xlink:href="#DejaVuSans-6d" x="315.478516"/>
      <use xlink:href="#DejaVuSans-69" x="412.890625"/>
      <use xlink:href="#DejaVuSans-6e" x="440.673828"/>
      <use xlink:href="#DejaVuSans-5d" x="504.052734"/>
     </g>
    </g>
   </g>
   <g id="matplotlib.axis_2">
    <g id="ytick_1">
     <g id="line2d_5">
      <defs>
       <path id="m562c99b612" d="M 0 0 
L -3.5 0 
" style="stroke: #000000; stroke-width: 0.8"/>
      </defs>
      <g>
       <use xlink:href="#m562c99b612" x="55.065625" y="227.711847" style="stroke: #000000; stroke-width: 0.8"/>
      </g>
     </g>
     <g id="text_6">
      <!-- −4 -->
      <g transform="translate(24.478125 233.790597) scale(0.16 -0.16)">
       <defs>
        <path id="DejaVuSans-2212" d="M 678 2272 
L 4684 2272 
L 4684 1741 
L 678 1741 
L 678 2272 
z
" transform="scale(0.015625)"/>
        <path id="DejaVuSans-34" d="M 2419 4116 
L 825 1625 
L 2419 1625 
L 2419 4116 
z
M 2253 4666 
L 3047 4666 
L 3047 1625 
L 3713 1625 
L 3713 1100 
L 3047 1100 
L 3047 0 
L 2419 0 
L 2419 1100 
L 313 1100 
L 313 1709 
L 2253 4666 
z
" transform="scale(0.015625)"/>
       </defs>
       <use xlink:href="#DejaVuSans-2212"/>
       <use xlink:href="#DejaVuSans-34" x="83.789062"/>
      </g>
     </g>
    </g>
    <g id="ytick_2">
     <g id="line2d_6">
      <g>
       <use xlink:href="#m562c99b612" x="55.065625" y="184.527427" style="stroke: #000000; stroke-width: 0.8"/>
      </g>
     </g>
     <g id="text_7">
      <!-- −2 -->
      <g transform="translate(24.478125 190.606177) scale(0.16 -0.16)">
       <use xlink:href="#DejaVuSans-2212"/>
       <use xlink:href="#DejaVuSans-32" x="83.789062"/>
      </g>
     </g>
    </g>
    <g id="ytick_3">
     <g id="line2d_7">
      <g>
       <use xlink:href="#m562c99b612" x="55.065625" y="141.343006" style="stroke: #000000; stroke-width: 0.8"/>
      </g>
     </g>
     <g id="text_8">
      <!-- 0 -->
      <g transform="translate(37.885625 147.421756) scale(0.16 -0.16)">
       <use xlink:href="#DejaVuSans-30"/>
      </g>
     </g>
    </g>
    <g id="ytick_4">
     <g id="line2d_8">
      <g>
       <use xlink:href="#m562c99b612" x="55.065625" y="98.158586" style="stroke: #000000; stroke-width: 0.8"/>
      </g>
     </g>
     <g id="text_9">
      <!-- 2 -->
      <g transform="translate(37.885625 104.237336) scale(0.16 -0.16)">
       <use xlink:href="#DejaVuSans-32"/>
      </g>
     </g>
    </g>
    <g id="ytick_5">
     <g id="line2d_9">
      <g>
       <use xlink:href="#m562c99b612" x="55.065625" y="54.974166" style="stroke: #000000; stroke-width: 0.8"/>
      </g>
     </g>
     <g id="text_10">
      <!-- 4 -->
      <g transform="translate(37.885625 61.052916) scale(0.16 -0.16)">
       <use xlink:href="#DejaVuSans-34"/>
      </g>
     </g>
    </g>
    <g id="text_11">
     <!-- Rate Tracking Error (rad/s)  -->
     <g transform="translate(18.398438 200.797969) rotate(-90) scale(0.1 -0.1)">
      <defs>
       <path id="DejaVuSans-52" d="M 2841 2188 
Q 3044 2119 3236 1894 
Q 3428 1669 3622 1275 
L 4263 0 
L 3584 0 
L 2988 1197 
Q 2756 1666 2539 1819 
Q 2322 1972 1947 1972 
L 1259 1972 
L 1259 0 
L 628 0 
L 628 4666 
L 2053 4666 
Q 2853 4666 3247 4331 
Q 3641 3997 3641 3322 
Q 3641 2881 3436 2590 
Q 3231 2300 2841 2188 
z
M 1259 4147 
L 1259 2491 
L 2053 2491 
Q 2509 2491 2742 2702 
Q 2975 2913 2975 3322 
Q 2975 3731 2742 3939 
Q 2509 4147 2053 4147 
L 1259 4147 
z
" transform="scale(0.015625)"/>
       <path id="DejaVuSans-61" d="M 2194 1759 
Q 1497 1759 1228 1600 
Q 959 1441 959 1056 
Q 959 750 1161 570 
Q 1363 391 1709 391 
Q 2188 391 2477 730 
Q 2766 1069 2766 1631 
L 2766 1759 
L 2194 1759 
z
M 3341 1997 
L 3341 0 
L 2766 0 
L 2766 531 
Q 2569 213 2275 61 
Q 1981 -91 1556 -91 
Q 1019 -91 701 211 
Q 384 513 384 1019 
Q 384 1609 779 1909 
Q 1175 2209 1959 2209 
L 2766 2209 
L 2766 2266 
Q 2766 2663 2505 2880 
Q 2244 3097 1772 3097 
Q 1472 3097 1187 3025 
Q 903 2953 641 2809 
L 641 3341 
Q 956 3463 1253 3523 
Q 1550 3584 1831 3584 
Q 2591 3584 2966 3190 
Q 3341 2797 3341 1997 
z
" transform="scale(0.015625)"/>
       <path id="DejaVuSans-74" d="M 1172 4494 
L 1172 3500 
L 2356 3500 
L 2356 3053 
L 1172 3053 
L 1172 1153 
Q 1172 725 1289 603 
Q 1406 481 1766 481 
L 2356 481 
L 2356 0 
L 1766 0 
Q 1100 0 847 248 
Q 594 497 594 1153 
L 594 3053 
L 172 3053 
L 172 3500 
L 594 3500 
L 594 4494 
L 1172 4494 
z
" transform="scale(0.015625)"/>
       <path id="DejaVuSans-72" d="M 2631 2963 
Q 2534 3019 2420 3045 
Q 2306 3072 2169 3072 
Q 1681 3072 1420 2755 
Q 1159 2438 1159 1844 
L 1159 0 
L 581 0 
L 581 3500 
L 1159 3500 
L 1159 2956 
Q 1341 3275 1631 3429 
Q 1922 3584 2338 3584 
Q 2397 3584 2469 3576 
Q 2541 3569 2628 3553 
L 2631 2963 
z
" transform="scale(0.015625)"/>
       <path id="DejaVuSans-63" d="M 3122 3366 
L 3122 2828 
Q 2878 2963 2633 3030 
Q 2388 3097 2138 3097 
Q 1578 3097 1268 2742 
Q 959 2388 959 1747 
Q 959 1106 1268 751 
Q 1578 397 2138 397 
Q 2388 397 2633 464 
Q 2878 531 3122 666 
L 3122 134 
Q 2881 22 2623 -34 
Q 2366 -91 2075 -91 
Q 1284 -91 818 406 
Q 353 903 353 1747 
Q 353 2603 823 3093 
Q 1294 3584 2113 3584 
Q 2378 3584 2631 3529 
Q 2884 3475 3122 3366 
z
" transform="scale(0.015625)"/>
       <path id="DejaVuSans-6b" d="M 581 4863 
L 1159 4863 
L 1159 1991 
L 2875 3500 
L 3609 3500 
L 1753 1863 
L 3688 0 
L 2938 0 
L 1159 1709 
L 1159 0 
L 581 0 
L 581 4863 
z
" transform="scale(0.015625)"/>
       <path id="DejaVuSans-67" d="M 2906 1791 
Q 2906 2416 2648 2759 
Q 2391 3103 1925 3103 
Q 1463 3103 1205 2759 
Q 947 2416 947 1791 
Q 947 1169 1205 825 
Q 1463 481 1925 481 
Q 2391 481 2648 825 
Q 2906 1169 2906 1791 
z
M 3481 434 
Q 3481 -459 3084 -895 
Q 2688 -1331 1869 -1331 
Q 1566 -1331 1297 -1286 
Q 1028 -1241 775 -1147 
L 775 -588 
Q 1028 -725 1275 -790 
Q 1522 -856 1778 -856 
Q 2344 -856 2625 -561 
Q 2906 -266 2906 331 
L 2906 616 
Q 2728 306 2450 153 
Q 2172 0 1784 0 
Q 1141 0 747 490 
Q 353 981 353 1791 
Q 353 2603 747 3093 
Q 1141 3584 1784 3584 
Q 2172 3584 2450 3431 
Q 2728 3278 2906 2969 
L 2906 3500 
L 3481 3500 
L 3481 434 
z
" transform="scale(0.015625)"/>
       <path id="DejaVuSans-45" d="M 628 4666 
L 3578 4666 
L 3578 4134 
L 1259 4134 
L 1259 2753 
L 3481 2753 
L 3481 2222 
L 1259 2222 
L 1259 531 
L 3634 531 
L 3634 0 
L 628 0 
L 628 4666 
z
" transform="scale(0.015625)"/>
       <path id="DejaVuSans-6f" d="M 1959 3097 
Q 1497 3097 1228 2736 
Q 959 2375 959 1747 
Q 959 1119 1226 758 
Q 1494 397 1959 397 
Q 2419 397 2687 759 
Q 2956 1122 2956 1747 
Q 2956 2369 2687 2733 
Q 2419 3097 1959 3097 
z
M 1959 3584 
Q 2709 3584 3137 3096 
Q 3566 2609 3566 1747 
Q 3566 888 3137 398 
Q 2709 -91 1959 -91 
Q 1206 -91 779 398 
Q 353 888 353 1747 
Q 353 2609 779 3096 
Q 1206 3584 1959 3584 
z
" transform="scale(0.015625)"/>
       <path id="DejaVuSans-28" d="M 1984 4856 
Q 1566 4138 1362 3434 
Q 1159 2731 1159 2009 
Q 1159 1288 1364 580 
Q 1569 -128 1984 -844 
L 1484 -844 
Q 1016 -109 783 600 
Q 550 1309 550 2009 
Q 550 2706 781 3412 
Q 1013 4119 1484 4856 
L 1984 4856 
z
" transform="scale(0.015625)"/>
       <path id="DejaVuSans-64" d="M 2906 2969 
L 2906 4863 
L 3481 4863 
L 3481 0 
L 2906 0 
L 2906 525 
Q 2725 213 2448 61 
Q 2172 -91 1784 -91 
Q 1150 -91 751 415 
Q 353 922 353 1747 
Q 353 2572 751 3078 
Q 1150 3584 1784 3584 
Q 2172 3584 2448 3432 
Q 2725 3281 2906 2969 
z
M 947 1747 
Q 947 1113 1208 752 
Q 1469 391 1925 391 
Q 2381 391 2643 752 
Q 2906 1113 2906 1747 
Q 2906 2381 2643 2742 
Q 2381 3103 1925 3103 
Q 1469 3103 1208 2742 
Q 947 2381 947 1747 
z
" transform="scale(0.015625)"/>
       <path id="DejaVuSans-2f" d="M 1625 4666 
L 2156 4666 
L 531 -594 
L 0 -594 
L 1625 4666 
z
" transform="scale(0.015625)"/>
       <path id="DejaVuSans-73" d="M 2834 3397 
L 2834 2853 
Q 2591 2978 2328 3040 
Q 2066 3103 1784 3103 
Q 1356 3103 1142 2972 
Q 928 2841 928 2578 
Q 928 2378 1081 2264 
Q 1234 2150 1697 2047 
L 1894 2003 
Q 2506 1872 2764 1633 
Q 3022 1394 3022 966 
Q 3022 478 2636 193 
Q 2250 -91 1575 -91 
Q 1294 -91 989 -36 
Q 684 19 347 128 
L 347 722 
Q 666 556 975 473 
Q 1284 391 1588 391 
Q 1994 391 2212 530 
Q 2431 669 2431 922 
Q 2431 1156 2273 1281 
Q 2116 1406 1581 1522 
L 1381 1569 
Q 847 1681 609 1914 
Q 372 2147 372 2553 
Q 372 3047 722 3315 
Q 1072 3584 1716 3584 
Q 2034 3584 2315 3537 
Q 2597 3491 2834 3397 
z
" transform="scale(0.015625)"/>
       <path id="DejaVuSans-29" d="M 513 4856 
L 1013 4856 
Q 1481 4119 1714 3412 
Q 1947 2706 1947 2009 
Q 1947 1309 1714 600 
Q 1481 -109 1013 -844 
L 513 -844 
Q 928 -128 1133 580 
Q 1338 1288 1338 2009 
Q 1338 2731 1133 3434 
Q 928 4138 513 4856 
z
" transform="scale(0.015625)"/>
      </defs>
      <use xlink:href="#DejaVuSans-52"/>
      <use xlink:href="#DejaVuSans-61" x="67.232422"/>
      <use xlink:href="#DejaVuSans-74" x="128.511719"/>
      <use xlink:href="#DejaVuSans-65" x="167.720703"/>
      <use xlink:href="#DejaVuSans-20" x="229.244141"/>
      <use xlink:href="#DejaVuSans-54" x="261.03125"/>
      <use xlink:href="#DejaVuSans-72" x="307.365234"/>
      <use xlink:href="#DejaVuSans-61" x="348.478516"/>
      <use xlink:href="#DejaVuSans-63" x="409.757812"/>
      <use xlink:href="#DejaVuSans-6b" x="464.738281"/>
      <use xlink:href="#DejaVuSans-69" x="522.648438"/>
      <use xlink:href="#DejaVuSans-6e" x="550.431641"/>
      <use xlink:href="#DejaVuSans-67" x="613.810547"/>
      <use xlink:href="#DejaVuSans-20" x="677.287109"/>
      <use xlink:href="#DejaVuSans-45" x="709.074219"/>
      <use xlink:href="#DejaVuSans-72" x="772.257812"/>
      <use xlink:href="#DejaVuSans-72" x="811.621094"/>
      <use xlink:href="#DejaVuSans-6f" x="850.484375"/>
      <use xlink:href="#DejaVuSans-72" x="911.666016"/>
      <use xlink:href="#DejaVuSans-20" x="952.779297"/>
      <use xlink:href="#DejaVuSans-28" x="984.566406"/>
      <use xlink:href="#DejaVuSans-72" x="1023.580078"/>
      <use xlink:href="#DejaVuSans-61" x="1064.693359"/>
      <use xlink:href="#DejaVuSans-64" x="1125.972656"/>
      <use xlink:href="#DejaVuSans-2f" x="1189.449219"/>
      <use xlink:href="#DejaVuSans-73" x="1223.140625"/>
      <use xlink:href="#DejaVuSans-29" x="1275.240234"/>
      <use xlink:href="#DejaVuSans-20" x="1314.253906"/>
     </g>
    </g>
    <g id="text_12">
     <!-- 1e−5 -->
     <g transform="translate(55.065625 22.9575) scale(0.16 -0.16)">
      <defs>
       <path id="DejaVuSans-35" d="M 691 4666 
L 3169 4666 
L 3169 4134 
L 1269 4134 
L 1269 2991 
Q 1406 3038 1543 3061 
Q 1681 3084 1819 3084 
Q 2600 3084 3056 2656 
Q 3513 2228 3513 1497 
Q 3513 744 3044 326 
Q 2575 -91 1722 -91 
Q 1428 -91 1123 -41 
Q 819 9 494 109 
L 494 744 
Q 775 591 1075 516 
Q 1375 441 1709 441 
Q 2250 441 2565 725 
Q 2881 1009 2881 1497 
Q 2881 1984 2565 2268 
Q 2250 2553 1709 2553 
Q 1456 2553 1204 2497 
Q 953 2441 691 2322 
L 691 4666 
z
" transform="scale(0.015625)"/>
      </defs>
      <use xlink:href="#DejaVuSans-31"/>
      <use xlink:href="#DejaVuSans-65" x="63.623047"/>
      <use xlink:href="#DejaVuSans-2212" x="125.146484"/>
      <use xlink:href="#DejaVuSans-35" x="208.935547"/>
     </g>
    </g>
   </g>
   <g id="line2d_10">
    <path d="M 70.889915 141.343006 
L 71.522886 71.38253 
L 72.155858 43.931953 
L 72.78883 35.733835 
L 73.421801 36.175696 
L 74.054773 40.415841 
L 75.320716 52.661334 
L 77.852602 78.043033 
L 79.751517 94.923447 
L 81.650432 109.771437 
L 83.549347 122.703205 
L 85.448261 133.854756 
L 87.347176 143.363372 
L 89.246091 151.364601 
L 90.512034 155.927078 
L 91.777977 159.91739 
L 93.04392 163.373551 
L 94.309864 166.332904 
L 95.575807 168.832077 
L 96.84175 170.906939 
L 98.107693 172.592531 
L 99.373636 173.923004 
L 100.63958 174.931541 
L 101.905523 175.650283 
L 103.171466 176.110248 
L 104.437409 176.34126 
L 105.703352 176.371877 
L 106.969295 176.22933 
L 108.86821 175.746989 
L 110.767125 175.014059 
L 113.299011 173.773362 
L 124.059528 168.074431 
L 126.591415 166.791696 
L 129.123301 165.214704 
L 131.655188 163.302462 
L 134.187074 161.034031 
L 136.71896 158.40022 
L 139.250847 155.402156 
L 141.782733 152.050174 
L 144.314619 148.362984 
L 147.479477 143.323863 
L 150.644335 137.871734 
L 154.442165 130.906336 
L 157.607023 125.169501 
L 158.872966 123.314207 
L 160.138909 121.764689 
L 161.404852 120.506066 
L 162.670795 119.520667 
L 163.936739 118.790774 
L 165.202682 118.299157 
L 166.468625 118.029166 
L 167.734568 117.964724 
L 169.000511 118.090323 
L 170.266455 118.391013 
L 172.165369 119.139013 
L 174.064284 120.202521 
L 175.963199 121.538245 
L 178.495085 123.673404 
L 181.026972 126.134005 
L 184.19183 129.550346 
L 189.255602 135.190026 
L 191.787489 137.530571 
L 194.319375 139.528905 
L 196.851261 141.235441 
L 199.383148 142.695649 
L 202.548006 144.234791 
L 205.712864 145.516876 
L 209.510693 146.789435 
L 213.308523 147.834217 
L 217.106352 148.685955 
L 218.372295 148.829572 
L 219.638239 148.815923 
L 220.904182 148.645194 
L 222.803097 148.113994 
L 224.702011 147.284062 
L 226.600926 146.191382 
L 228.499841 144.871611 
L 231.031727 142.818662 
L 234.196585 139.890151 
L 237.994415 136.019482 
L 243.058188 130.523591 
L 248.754932 124.022451 
L 251.286818 121.1276 
L 252.552761 120.055401 
L 253.818705 119.295461 
L 255.084648 118.821381 
L 256.350591 118.603192 
L 257.616534 118.613627 
L 258.882477 118.829384 
L 260.14842 119.231305 
L 261.414364 119.804277 
L 263.313278 120.960828 
L 265.212193 122.454715 
L 267.111108 124.27895 
L 269.010023 126.440024 
L 270.908938 128.954972 
L 272.807852 131.848097 
L 274.706767 135.147374 
L 276.605682 138.88062 
L 278.504597 143.071578 
L 280.403511 147.736152 
L 282.302426 152.879119 
L 284.834313 160.463319 
L 287.366199 168.819635 
L 290.531057 180.191004 
L 294.328886 194.852172 
L 299.392659 215.43779 
L 303.190489 231.26054 
L 303.82346 216.694534 
L 304.456432 158.06434 
L 305.089403 131.87929 
L 305.722375 120.481979 
L 306.355347 115.815144 
L 306.988318 114.202469 
L 307.62129 113.966848 
L 308.254261 114.343479 
L 309.520205 115.729501 
L 313.318034 120.23244 
L 315.84992 122.829686 
L 318.381807 125.107987 
L 320.913693 127.105942 
L 323.44558 128.858022 
L 326.610438 130.748093 
L 329.775295 132.352032 
L 332.940153 133.713155 
L 336.737983 135.07734 
L 340.535813 136.197615 
L 344.966614 137.25406 
L 350.030386 138.198545 
L 355.727131 139.002968 
L 362.056847 139.657845 
L 369.652506 140.206573 
L 379.14708 140.648507 
L 387.37571 140.889779 
L 387.37571 140.889779 
" clip-path="url(#p346b8b657c)" style="fill: none; stroke: #2b737e; stroke-width: 1.5; stroke-linecap: square"/>
   </g>
   <g id="line2d_11">
    <path d="M 70.889915 141.343006 
L 72.155858 134.733792 
L 73.421801 129.59861 
L 74.687744 125.760193 
L 75.953688 123.052001 
L 76.586659 122.072544 
L 77.219631 121.317974 
L 77.852602 120.770523 
L 78.485574 120.413147 
L 79.118545 120.229528 
L 79.751517 120.204088 
L 80.384489 120.321977 
L 81.650432 120.932008 
L 82.916375 121.955345 
L 84.182318 123.299001 
L 86.081233 125.738265 
L 88.613119 129.430057 
L 93.676892 136.873663 
L 96.208778 140.132895 
L 98.107693 142.263135 
L 100.006608 144.096725 
L 101.905523 145.625989 
L 103.804438 146.854799 
L 105.703352 147.795306 
L 107.602267 148.465212 
L 109.501182 148.885572 
L 111.400097 149.079081 
L 113.299011 149.068803 
L 115.197926 148.8773 
L 117.729813 148.377051 
L 120.261699 147.640041 
L 123.426557 146.447855 
L 127.224386 144.712719 
L 132.288159 142.421755 
L 135.453017 141.256608 
L 137.984903 140.550688 
L 140.51679 140.07651 
L 143.048676 139.850767 
L 145.580563 139.882859 
L 148.112449 140.177356 
L 150.644335 140.7353 
L 153.176222 141.554331 
L 155.708108 142.63282 
L 158.239994 143.990367 
L 166.468625 148.646159 
L 169.000511 149.770867 
L 171.532398 150.645203 
L 174.064284 151.23801 
L 175.963199 151.486996 
L 177.862114 151.564758 
L 179.761028 151.471637 
L 182.292915 151.087414 
L 184.824801 150.418949 
L 187.356688 149.47014 
L 190.521545 147.963433 
L 203.180977 141.553698 
L 206.978807 140.051296 
L 210.143665 139.021845 
L 213.308523 138.200872 
L 216.473381 137.586726 
L 219.638239 137.16824 
L 222.803097 137.006781 
L 225.967955 137.119356 
L 229.132812 137.471903 
L 232.930642 138.125834 
L 246.223045 140.668838 
L 249.387903 140.984655 
L 252.552761 141.082583 
L 256.983563 140.958424 
L 264.579222 140.697814 
L 268.377051 140.809389 
L 271.541909 141.119353 
L 274.706767 141.674089 
L 277.238653 142.323663 
L 279.77054 143.183656 
L 282.302426 144.284513 
L 284.834313 145.662397 
L 287.366199 147.358074 
L 289.265114 148.863398 
L 291.164028 150.586056 
L 293.695915 153.237504 
L 296.227801 156.291107 
L 298.759688 159.699891 
L 303.190489 166.129218 
L 303.82346 183.361969 
L 305.089403 170.422704 
L 306.355347 159.968426 
L 307.62129 151.590449 
L 308.887233 144.942277 
L 310.153176 139.730568 
L 311.419119 135.707374 
L 312.685063 132.663478 
L 313.951006 130.422675 
L 315.216949 128.836868 
L 316.482892 127.781868 
L 317.748835 127.153792 
L 319.014778 126.865982 
L 320.280722 126.846377 
L 321.546665 127.035257 
L 323.44558 127.604095 
L 325.977466 128.702004 
L 330.408267 131.001852 
L 335.47204 133.571643 
L 339.269869 135.233982 
L 343.067699 136.619108 
L 346.865528 137.736821 
L 350.663358 138.618294 
L 355.094159 139.398901 
L 360.157932 140.036014 
L 365.854676 140.51651 
L 372.817364 140.877175 
L 382.311937 141.133703 
L 387.37571 141.207329 
L 387.37571 141.207329 
" clip-path="url(#p346b8b657c)" style="fill: none; stroke: #5ea04b; stroke-width: 1.5; stroke-linecap: square"/>
   </g>
   <g id="line2d_12">
    <path d="M 70.889915 141.343006 
L 72.155858 127.870065 
L 72.78883 122.90686 
L 73.421801 118.957585 
L 74.054773 115.909458 
L 74.687744 113.659518 
L 75.320716 112.113884 
L 75.953688 111.187056 
L 76.586659 110.801261 
L 77.219631 110.885849 
L 77.852602 111.376728 
L 78.485574 112.215842 
L 79.118545 113.350687 
L 80.384489 116.322659 
L 81.650432 119.967417 
L 84.182318 128.281071 
L 87.980148 140.806147 
L 89.879063 146.342212 
L 91.777977 151.15106 
L 93.04392 153.911985 
L 94.309864 156.305378 
L 95.575807 158.33127 
L 96.84175 159.996349 
L 98.107693 161.312338 
L 99.373636 162.294653 
L 100.63958 162.961288 
L 101.905523 163.331912 
L 103.171466 163.427121 
L 104.437409 163.26785 
L 105.703352 162.874895 
L 106.969295 162.268548 
L 108.235239 161.468306 
L 110.134153 159.944539 
L 112.033068 158.08329 
L 113.931983 155.935469 
L 116.463869 152.701093 
L 118.995756 149.120304 
L 122.160614 144.253787 
L 124.6925 139.958655 
L 127.857358 134.558171 
L 129.756273 131.749396 
L 131.655188 129.41631 
L 132.921131 128.148752 
L 134.187074 127.114115 
L 135.453017 126.307107 
L 136.71896 125.717732 
L 137.984903 125.332778 
L 139.250847 125.137032 
L 140.51679 125.114261 
L 142.415705 125.368475 
L 144.314619 125.921337 
L 146.213534 126.724344 
L 148.112449 127.736079 
L 150.644335 129.353326 
L 153.176222 131.226948 
L 155.708108 133.333212 
L 159.505938 136.929188 
L 162.670795 139.845827 
L 165.202682 141.9325 
L 167.734568 143.742186 
L 170.266455 145.260393 
L 172.798341 146.491255 
L 175.330227 147.4482 
L 177.862114 148.149214 
L 180.394 148.614796 
L 182.925886 148.867328 
L 186.090744 148.922276 
L 189.255602 148.750458 
L 191.787489 148.418764 
L 194.319375 147.897255 
L 197.484233 146.988815 
L 200.649091 145.829972 
L 204.44692 144.177298 
L 208.877722 141.998199 
L 216.473381 137.963009 
L 220.27121 135.853288 
L 222.170125 135.064969 
L 224.06904 134.58596 
L 225.334983 134.460356 
L 226.600926 134.495739 
L 227.866869 134.691838 
L 229.132812 135.044735 
L 231.031727 135.852825 
L 232.930642 136.967318 
L 234.829557 138.35088 
L 237.361443 140.543424 
L 239.89333 143.042024 
L 243.691159 147.151488 
L 253.818705 158.345782 
L 255.084648 159.394044 
L 256.350591 160.209013 
L 257.616534 160.768356 
L 258.882477 161.061187 
L 260.14842 161.085585 
L 261.414364 160.846544 
L 262.680307 160.354316 
L 263.94625 159.623067 
L 265.212193 158.669819 
L 267.111108 156.865793 
L 269.010023 154.675323 
L 270.908938 152.172479 
L 273.440824 148.482185 
L 282.935398 134.184512 
L 284.834313 131.861569 
L 286.733227 129.917425 
L 287.99917 128.870189 
L 289.265114 128.04559 
L 290.531057 127.460093 
L 291.797 127.125805 
L 293.062943 127.049452 
L 294.328886 127.23131 
L 295.59483 127.664123 
L 296.860773 128.332032 
L 298.126716 129.209528 
L 300.025631 130.836492 
L 303.82346 134.505501 
L 306.988318 135.90691 
L 310.153176 137.04964 
L 313.318034 137.971176 
L 317.115864 138.835713 
L 321.546665 139.581409 
L 326.610438 140.175677 
L 332.307182 140.614496 
L 339.902841 140.958879 
L 350.663358 141.190555 
L 368.386562 141.310787 
L 387.37571 141.337095 
L 387.37571 141.337095 
" clip-path="url(#p346b8b657c)" style="fill: none; stroke: #bdab62; stroke-width: 1.5; stroke-linecap: square"/>
   </g>
   <g id="patch_3">
    <path d="M 55.065625 241.036875 
L 55.065625 25.9575 
" style="fill: none; stroke: #000000; stroke-width: 0.8; stroke-linejoin: miter; stroke-linecap: square"/>
   </g>
   <g id="patch_4">
    <path d="M 403.2 241.036875 
L 403.2 25.9575 
" style="fill: none; stroke: #000000; stroke-width: 0.8; stroke-linejoin: miter; stroke-linecap: square"/>
   </g>
   <g id="patch_5">
    <path d="M 55.065625 241.036875 
L 403.2 241.036875 
" style="fill: none; stroke: #000000; stroke-width: 0.8; stroke-linejoin: miter; stroke-linecap: square"/>
   </g>
   <g id="patch_6">
    <path d="M 55.065625 25.9575 
L 403.2 25.9575 
" style="fill: none; stroke: #000000; stroke-width: 0.8; stroke-linejoin: miter; stroke-linecap: square"/>
   </g>
   <g id="legend_1">
    <g id="patch_7">
     <path d="M 344.34 236.536875 
L 396.9 236.536875 
Q 398.7 236.536875 398.7 234.736875 
L 398.7 194.871094 
Q 398.7 193.071094 396.9 193.071094 
L 344.34 193.071094 
Q 342.54 193.071094 342.54 194.871094 
L 342.54 234.736875 
Q 342.54 236.536875 344.34 236.536875 
z
" style="fill: #ffffff; opacity: 0.8; stroke: #cccccc; stroke-linejoin: miter"/>
    </g>
    <g id="line2d_13">
     <path d="M 346.14 200.359687 
L 355.14 200.359687 
L 364.14 200.359687 
" style="fill: none; stroke: #2b737e; stroke-width: 1.5; stroke-linecap: square"/>
    </g>
    <g id="text_13">
     <!-- $\omega_{BR,0}$ -->
     <g transform="translate(371.34 203.509687) scale(0.09 -0.09)">
      <defs>
       <path id="DejaVuSans-Oblique-3c9" d="M 1369 -91 
Q 72 -91 434 1766 
Q 575 2500 1256 3500 
L 1875 3500 
Q 1231 2500 1088 1750 
Q 819 397 1519 397 
Q 2166 397 2478 2078 
L 3009 2078 
Q 2669 388 3316 397 
Q 4013 403 4275 1750 
Q 4419 2500 4169 3500 
L 4788 3500 
Q 5075 2500 4934 1766 
Q 4578 -94 3278 -91 
Q 2428 -88 2503 844 
Q 2194 -91 1369 -91 
z
" transform="scale(0.015625)"/>
       <path id="DejaVuSans-Oblique-42" d="M 1081 4666 
L 2694 4666 
Q 3350 4666 3675 4422 
Q 4000 4178 4000 3688 
Q 4000 3238 3720 2911 
Q 3441 2584 2988 2516 
Q 3375 2428 3569 2181 
Q 3763 1934 3763 1522 
Q 3763 819 3242 409 
Q 2722 0 1819 0 
L 172 0 
L 1081 4666 
z
M 1234 2228 
L 903 519 
L 1919 519 
Q 2491 519 2800 781 
Q 3109 1044 3109 1522 
Q 3109 1891 2904 2059 
Q 2700 2228 2247 2228 
L 1234 2228 
z
M 1606 4147 
L 1331 2741 
L 2272 2741 
Q 2775 2741 3058 2959 
Q 3341 3178 3341 3566 
Q 3341 3869 3150 4008 
Q 2959 4147 2541 4147 
L 1606 4147 
z
" transform="scale(0.015625)"/>
       <path id="DejaVuSans-Oblique-52" d="M 1613 4147 
L 1294 2491 
L 2106 2491 
Q 2584 2491 2879 2755 
Q 3175 3019 3175 3444 
Q 3175 3784 2976 3965 
Q 2778 4147 2406 4147 
L 1613 4147 
z
M 2772 2241 
Q 2972 2194 3105 2009 
Q 3238 1825 3413 1275 
L 3809 0 
L 3144 0 
L 2778 1197 
Q 2638 1659 2453 1815 
Q 2269 1972 1888 1972 
L 1191 1972 
L 806 0 
L 172 0 
L 1081 4666 
L 2503 4666 
Q 3150 4666 3495 4373 
Q 3841 4081 3841 3531 
Q 3841 3044 3547 2687 
Q 3253 2331 2772 2241 
z
" transform="scale(0.015625)"/>
       <path id="DejaVuSans-2c" d="M 750 794 
L 1409 794 
L 1409 256 
L 897 -744 
L 494 -744 
L 750 256 
L 750 794 
z
" transform="scale(0.015625)"/>
      </defs>
      <use xlink:href="#DejaVuSans-Oblique-3c9" transform="translate(0 0.3125)"/>
      <use xlink:href="#DejaVuSans-Oblique-42" transform="translate(83.740234 -16.09375) scale(0.7)"/>
      <use xlink:href="#DejaVuSans-Oblique-52" transform="translate(131.762695 -16.09375) scale(0.7)"/>
      <use xlink:href="#DejaVuSans-2c" transform="translate(180.400391 -16.09375) scale(0.7)"/>
      <use xlink:href="#DejaVuSans-30" transform="translate(216.289062 -16.09375) scale(0.7)"/>
     </g>
    </g>
    <g id="line2d_14">
     <path d="M 346.14 213.948281 
L 355.14 213.948281 
L 364.14 213.948281 
" style="fill: none; stroke: #5ea04b; stroke-width: 1.5; stroke-linecap: square"/>
    </g>
    <g id="text_14">
     <!-- $\omega_{BR,1}$ -->
     <g transform="translate(371.34 217.098281) scale(0.09 -0.09)">
      <use xlink:href="#DejaVuSans-Oblique-3c9" transform="translate(0 0.3125)"/>
      <use xlink:href="#DejaVuSans-Oblique-42" transform="translate(83.740234 -16.09375) scale(0.7)"/>
      <use xlink:href="#DejaVuSans-Oblique-52" transform="translate(131.762695 -16.09375) scale(0.7)"/>
      <use xlink:href="#DejaVuSans-2c" transform="translate(180.400391 -16.09375) scale(0.7)"/>
      <use xlink:href="#DejaVuSans-31" transform="translate(216.289062 -16.09375) scale(0.7)"/>
     </g>
    </g>
    <g id="line2d_15">
     <path d="M 346.14 227.536875 
L 355.14 227.536875 
L 364.14 227.536875 
" style="fill: none; stroke: #bdab62; stroke-width: 1.5; stroke-linecap: square"/>
    </g>
    <g id="text_15">
     <!-- $\omega_{BR,2}$ -->
     <g transform="translate(371.34 230.686875) scale(0.09 -0.09)">
      <use xlink:href="#DejaVuSans-Oblique-3c9" transform="translate(0 0.3125)"/>
      <use xlink:href="#DejaVuSans-Oblique-42" transform="translate(83.740234 -16.09375) scale(0.7)"/>
      <use xlink:href="#DejaVuSans-Oblique-52" transform="translate(131.762695 -16.09375) scale(0.7)"/>
      <use xlink:href="#DejaVuSans-2c" transform="translate(180.400391 -16.09375) scale(0.7)"/>
      <use xlink:href="#DejaVuSans-32" transform="translate(216.289062 -16.09375) scale(0.7)"/>
     </g>
    </g>
   </g>
  </g>
 </g>
 <defs>
  <clipPath id="p346b8b657c">
   <rect x="55.065625" y="25.9575" width="348.134375" height="215.079375"/>
  </clipPath>
 </defs>
</svg>
