<?xml version="1.0" encoding="utf-8" standalone="no"?>
<!DOCTYPE svg PUBLIC "-//W3C//DTD SVG 1.1//EN"
  "http://www.w3.org/Graphics/SVG/1.1/DTD/svg11.dtd">
<svg xmlns:xlink="http://www.w3.org/1999/xlink" width="414pt" height="288pt" viewBox="0 0 414 288" xmlns="http://www.w3.org/2000/svg" version="1.1">
 <metadata>
  <rdf:RDF xmlns:dc="http://purl.org/dc/elements/1.1/" xmlns:cc="http://creativecommons.org/ns#" xmlns:rdf="http://www.w3.org/1999/02/22-rdf-syntax-ns#">
   <cc:Work>
    <dc:type rdf:resource="http://purl.org/dc/dcmitype/StillImage"/>
    <dc:date>2023-09-07T00:38:20.027301</dc:date>
    <dc:format>image/svg+xml</dc:format>
    <dc:creator>
     <cc:Agent>
      <dc:title>Matplotlib v3.7.2, https://matplotlib.org/</dc:title>
     </cc:Agent>
    </dc:creator>
   </cc:Work>
  </rdf:RDF>
 </metadata>
 <defs>
  <style type="text/css">*{stroke-linejoin: round; stroke-linecap: butt}</style>
 </defs>
 <g id="figure_1">
  <g id="patch_1">
   <path d="M 0 288 
L 414 288 
L 414 0 
L 0 0 
L 0 288 
z
" style="fill: none"/>
  </g>
  <g id="axes_1">
   <g id="patch_2">
    <path d="M 69.5 241.036875 
L 403.2 241.036875 
L 403.2 10.8 
L 69.5 10.8 
L 69.5 241.036875 
z
" style="fill: none"/>
   </g>
   <g id="matplotlib.axis_1">
    <g id="xtick_1">
     <g id="line2d_1">
      <defs>
       <path id="m2c0db5621f" d="M 0 0 
L 0 3.5 
" style="stroke: #000000; stroke-width: 0.8"/>
      </defs>
      <g>
       <use xlink:href="#m2c0db5621f" x="84.668182" y="241.036875" style="stroke: #000000; stroke-width: 0.8"/>
      </g>
     </g>
     <g id="text_1">
      <!-- 0 -->
      <g transform="translate(79.578182 260.194375) scale(0.16 -0.16)">
       <defs>
        <path id="DejaVuSans-30" d="M 2034 4250 
Q 1547 4250 1301 3770 
Q 1056 3291 1056 2328 
Q 1056 1369 1301 889 
Q 1547 409 2034 409 
Q 2525 409 2770 889 
Q 3016 1369 3016 2328 
Q 3016 3291 2770 3770 
Q 2525 4250 2034 4250 
z
M 2034 4750 
Q 2819 4750 3233 4129 
Q 3647 3509 3647 2328 
Q 3647 1150 3233 529 
Q 2819 -91 2034 -91 
Q 1250 -91 836 529 
Q 422 1150 422 2328 
Q 422 3509 836 4129 
Q 1250 4750 2034 4750 
z
" transform="scale(0.015625)"/>
       </defs>
       <use xlink:href="#DejaVuSans-30"/>
      </g>
     </g>
    </g>
    <g id="xtick_2">
     <g id="line2d_2">
      <g>
       <use xlink:href="#m2c0db5621f" x="160.509091" y="241.036875" style="stroke: #000000; stroke-width: 0.8"/>
      </g>
     </g>
     <g id="text_2">
      <!-- 20 -->
      <g transform="translate(150.329091 260.194375) scale(0.16 -0.16)">
       <defs>
        <path id="DejaVuSans-32" d="M 1228 531 
L 3431 531 
L 3431 0 
L 469 0 
L 469 531 
Q 828 903 1448 1529 
Q 2069 2156 2228 2338 
Q 2531 2678 2651 2914 
Q 2772 3150 2772 3378 
Q 2772 3750 2511 3984 
Q 2250 4219 1831 4219 
Q 1534 4219 1204 4116 
Q 875 4013 500 3803 
L 500 4441 
Q 881 4594 1212 4672 
Q 1544 4750 1819 4750 
Q 2544 4750 2975 4387 
Q 3406 4025 3406 3419 
Q 3406 3131 3298 2873 
Q 3191 2616 2906 2266 
Q 2828 2175 2409 1742 
Q 1991 1309 1228 531 
z
" transform="scale(0.015625)"/>
       </defs>
       <use xlink:href="#DejaVuSans-32"/>
       <use xlink:href="#DejaVuSans-30" x="63.623047"/>
      </g>
     </g>
    </g>
    <g id="xtick_3">
     <g id="line2d_3">
      <g>
       <use xlink:href="#m2c0db5621f" x="236.35" y="241.036875" style="stroke: #000000; stroke-width: 0.8"/>
      </g>
     </g>
     <g id="text_3">
      <!-- 40 -->
      <g transform="translate(226.17 260.194375) scale(0.16 -0.16)">
       <defs>
        <path id="DejaVuSans-34" d="M 2419 4116 
L 825 1625 
L 2419 1625 
L 2419 4116 
z
M 2253 4666 
L 3047 4666 
L 3047 1625 
L 3713 1625 
L 3713 1100 
L 3047 1100 
L 3047 0 
L 2419 0 
L 2419 1100 
L 313 1100 
L 313 1709 
L 2253 4666 
z
" transform="scale(0.015625)"/>
       </defs>
       <use xlink:href="#DejaVuSans-34"/>
       <use xlink:href="#DejaVuSans-30" x="63.623047"/>
      </g>
     </g>
    </g>
    <g id="xtick_4">
     <g id="line2d_4">
      <g>
       <use xlink:href="#m2c0db5621f" x="312.190909" y="241.036875" style="stroke: #000000; stroke-width: 0.8"/>
      </g>
     </g>
     <g id="text_4">
      <!-- 60 -->
      <g transform="translate(302.010909 260.194375) scale(0.16 -0.16)">
       <defs>
        <path id="DejaVuSans-36" d="M 2113 2584 
Q 1688 2584 1439 2293 
Q 1191 2003 1191 1497 
Q 1191 994 1439 701 
Q 1688 409 2113 409 
Q 2538 409 2786 701 
Q 3034 994 3034 1497 
Q 3034 2003 2786 2293 
Q 2538 2584 2113 2584 
z
M 3366 4563 
L 3366 3988 
Q 3128 4100 2886 4159 
Q 2644 4219 2406 4219 
Q 1781 4219 1451 3797 
Q 1122 3375 1075 2522 
Q 1259 2794 1537 2939 
Q 1816 3084 2150 3084 
Q 2853 3084 3261 2657 
Q 3669 2231 3669 1497 
Q 3669 778 3244 343 
Q 2819 -91 2113 -91 
Q 1303 -91 875 529 
Q 447 1150 447 2328 
Q 447 3434 972 4092 
Q 1497 4750 2381 4750 
Q 2619 4750 2861 4703 
Q 3103 4656 3366 4563 
z
" transform="scale(0.015625)"/>
       </defs>
       <use xlink:href="#DejaVuSans-36"/>
       <use xlink:href="#DejaVuSans-30" x="63.623047"/>
      </g>
     </g>
    </g>
    <g id="xtick_5">
     <g id="line2d_5">
      <g>
       <use xlink:href="#m2c0db5621f" x="388.031818" y="241.036875" style="stroke: #000000; stroke-width: 0.8"/>
      </g>
     </g>
     <g id="text_5">
      <!-- 80 -->
      <g transform="translate(377.851818 260.194375) scale(0.16 -0.16)">
       <defs>
        <path id="DejaVuSans-38" d="M 2034 2216 
Q 1584 2216 1326 1975 
Q 1069 1734 1069 1313 
Q 1069 891 1326 650 
Q 1584 409 2034 409 
Q 2484 409 2743 651 
Q 3003 894 3003 1313 
Q 3003 1734 2745 1975 
Q 2488 2216 2034 2216 
z
M 1403 2484 
Q 997 2584 770 2862 
Q 544 3141 544 3541 
Q 544 4100 942 4425 
Q 1341 4750 2034 4750 
Q 2731 4750 3128 4425 
Q 3525 4100 3525 3541 
Q 3525 3141 3298 2862 
Q 3072 2584 2669 2484 
Q 3125 2378 3379 2068 
Q 3634 1759 3634 1313 
Q 3634 634 3220 271 
Q 2806 -91 2034 -91 
Q 1263 -91 848 271 
Q 434 634 434 1313 
Q 434 1759 690 2068 
Q 947 2378 1403 2484 
z
M 1172 3481 
Q 1172 3119 1398 2916 
Q 1625 2713 2034 2713 
Q 2441 2713 2670 2916 
Q 2900 3119 2900 3481 
Q 2900 3844 2670 4047 
Q 2441 4250 2034 4250 
Q 1625 4250 1398 4047 
Q 1172 3844 1172 3481 
z
" transform="scale(0.015625)"/>
       </defs>
       <use xlink:href="#DejaVuSans-38"/>
       <use xlink:href="#DejaVuSans-30" x="63.623047"/>
      </g>
     </g>
    </g>
    <g id="text_6">
     <!-- Time [min] -->
     <g transform="translate(209.197656 275.120313) scale(0.1 -0.1)">
      <defs>
       <path id="DejaVuSans-54" d="M -19 4666 
L 3928 4666 
L 3928 4134 
L 2272 4134 
L 2272 0 
L 1638 0 
L 1638 4134 
L -19 4134 
L -19 4666 
z
" transform="scale(0.015625)"/>
       <path id="DejaVuSans-69" d="M 603 3500 
L 1178 3500 
L 1178 0 
L 603 0 
L 603 3500 
z
M 603 4863 
L 1178 4863 
L 1178 4134 
L 603 4134 
L 603 4863 
z
" transform="scale(0.015625)"/>
       <path id="DejaVuSans-6d" d="M 3328 2828 
Q 3544 3216 3844 3400 
Q 4144 3584 4550 3584 
Q 5097 3584 5394 3201 
Q 5691 2819 5691 2113 
L 5691 0 
L 5113 0 
L 5113 2094 
Q 5113 2597 4934 2840 
Q 4756 3084 4391 3084 
Q 3944 3084 3684 2787 
Q 3425 2491 3425 1978 
L 3425 0 
L 2847 0 
L 2847 2094 
Q 2847 2600 2669 2842 
Q 2491 3084 2119 3084 
Q 1678 3084 1418 2786 
Q 1159 2488 1159 1978 
L 1159 0 
L 581 0 
L 581 3500 
L 1159 3500 
L 1159 2956 
Q 1356 3278 1631 3431 
Q 1906 3584 2284 3584 
Q 2666 3584 2933 3390 
Q 3200 3197 3328 2828 
z
" transform="scale(0.015625)"/>
       <path id="DejaVuSans-65" d="M 3597 1894 
L 3597 1613 
L 953 1613 
Q 991 1019 1311 708 
Q 1631 397 2203 397 
Q 2534 397 2845 478 
Q 3156 559 3463 722 
L 3463 178 
Q 3153 47 2828 -22 
Q 2503 -91 2169 -91 
Q 1331 -91 842 396 
Q 353 884 353 1716 
Q 353 2575 817 3079 
Q 1281 3584 2069 3584 
Q 2775 3584 3186 3129 
Q 3597 2675 3597 1894 
z
M 3022 2063 
Q 3016 2534 2758 2815 
Q 2500 3097 2075 3097 
Q 1594 3097 1305 2825 
Q 1016 2553 972 2059 
L 3022 2063 
z
" transform="scale(0.015625)"/>
       <path id="DejaVuSans-20" transform="scale(0.015625)"/>
       <path id="DejaVuSans-5b" d="M 550 4863 
L 1875 4863 
L 1875 4416 
L 1125 4416 
L 1125 -397 
L 1875 -397 
L 1875 -844 
L 550 -844 
L 550 4863 
z
" transform="scale(0.015625)"/>
       <path id="DejaVuSans-6e" d="M 3513 2113 
L 3513 0 
L 2938 0 
L 2938 2094 
Q 2938 2591 2744 2837 
Q 2550 3084 2163 3084 
Q 1697 3084 1428 2787 
Q 1159 2491 1159 1978 
L 1159 0 
L 581 0 
L 581 3500 
L 1159 3500 
L 1159 2956 
Q 1366 3272 1645 3428 
Q 1925 3584 2291 3584 
Q 2894 3584 3203 3211 
Q 3513 2838 3513 2113 
z
" transform="scale(0.015625)"/>
       <path id="DejaVuSans-5d" d="M 1947 4863 
L 1947 -844 
L 622 -844 
L 622 -397 
L 1369 -397 
L 1369 4416 
L 622 4416 
L 622 4863 
L 1947 4863 
z
" transform="scale(0.015625)"/>
      </defs>
      <use xlink:href="#DejaVuSans-54"/>
      <use xlink:href="#DejaVuSans-69" x="57.958984"/>
      <use xlink:href="#DejaVuSans-6d" x="85.742188"/>
      <use xlink:href="#DejaVuSans-65" x="183.154297"/>
      <use xlink:href="#DejaVuSans-20" x="244.677734"/>
      <use xlink:href="#DejaVuSans-5b" x="276.464844"/>
      <use xlink:href="#DejaVuSans-6d" x="315.478516"/>
      <use xlink:href="#DejaVuSans-69" x="412.890625"/>
      <use xlink:href="#DejaVuSans-6e" x="440.673828"/>
      <use xlink:href="#DejaVuSans-5d" x="504.052734"/>
     </g>
    </g>
   </g>
   <g id="matplotlib.axis_2">
    <g id="ytick_1">
     <g id="line2d_6">
      <defs>
       <path id="m090e85c741" d="M 0 0 
L -3.5 0 
" style="stroke: #000000; stroke-width: 0.8"/>
      </defs>
      <g>
       <use xlink:href="#m090e85c741" x="69.5" y="208.614489" style="stroke: #000000; stroke-width: 0.8"/>
      </g>
     </g>
     <g id="text_7">
      <!-- $\mathdefault{10^{-3}}$ -->
      <g transform="translate(24.9 214.693239) scale(0.16 -0.16)">
       <defs>
        <path id="DejaVuSans-31" d="M 794 531 
L 1825 531 
L 1825 4091 
L 703 3866 
L 703 4441 
L 1819 4666 
L 2450 4666 
L 2450 531 
L 3481 531 
L 3481 0 
L 794 0 
L 794 531 
z
" transform="scale(0.015625)"/>
        <path id="DejaVuSans-2212" d="M 678 2272 
L 4684 2272 
L 4684 1741 
L 678 1741 
L 678 2272 
z
" transform="scale(0.015625)"/>
        <path id="DejaVuSans-33" d="M 2597 2516 
Q 3050 2419 3304 2112 
Q 3559 1806 3559 1356 
Q 3559 666 3084 287 
Q 2609 -91 1734 -91 
Q 1441 -91 1130 -33 
Q 819 25 488 141 
L 488 750 
Q 750 597 1062 519 
Q 1375 441 1716 441 
Q 2309 441 2620 675 
Q 2931 909 2931 1356 
Q 2931 1769 2642 2001 
Q 2353 2234 1838 2234 
L 1294 2234 
L 1294 2753 
L 1863 2753 
Q 2328 2753 2575 2939 
Q 2822 3125 2822 3475 
Q 2822 3834 2567 4026 
Q 2313 4219 1838 4219 
Q 1578 4219 1281 4162 
Q 984 4106 628 3988 
L 628 4550 
Q 988 4650 1302 4700 
Q 1616 4750 1894 4750 
Q 2613 4750 3031 4423 
Q 3450 4097 3450 3541 
Q 3450 3153 3228 2886 
Q 3006 2619 2597 2516 
z
" transform="scale(0.015625)"/>
       </defs>
       <use xlink:href="#DejaVuSans-31" transform="translate(0 0.765625)"/>
       <use xlink:href="#DejaVuSans-30" transform="translate(63.623047 0.765625)"/>
       <use xlink:href="#DejaVuSans-2212" transform="translate(128.203125 39.046875) scale(0.7)"/>
       <use xlink:href="#DejaVuSans-33" transform="translate(186.855469 39.046875) scale(0.7)"/>
      </g>
     </g>
    </g>
    <g id="ytick_2">
     <g id="line2d_7">
      <g>
       <use xlink:href="#m090e85c741" x="69.5" y="140.735466" style="stroke: #000000; stroke-width: 0.8"/>
      </g>
     </g>
     <g id="text_8">
      <!-- $\mathdefault{10^{-2}}$ -->
      <g transform="translate(24.9 146.814216) scale(0.16 -0.16)">
       <use xlink:href="#DejaVuSans-31" transform="translate(0 0.765625)"/>
       <use xlink:href="#DejaVuSans-30" transform="translate(63.623047 0.765625)"/>
       <use xlink:href="#DejaVuSans-2212" transform="translate(128.203125 39.046875) scale(0.7)"/>
       <use xlink:href="#DejaVuSans-32" transform="translate(186.855469 39.046875) scale(0.7)"/>
      </g>
     </g>
    </g>
    <g id="ytick_3">
     <g id="line2d_8">
      <g>
       <use xlink:href="#m090e85c741" x="69.5" y="72.856444" style="stroke: #000000; stroke-width: 0.8"/>
      </g>
     </g>
     <g id="text_9">
      <!-- $\mathdefault{10^{-1}}$ -->
      <g transform="translate(24.9 78.935194) scale(0.16 -0.16)">
       <use xlink:href="#DejaVuSans-31" transform="translate(0 0.684375)"/>
       <use xlink:href="#DejaVuSans-30" transform="translate(63.623047 0.684375)"/>
       <use xlink:href="#DejaVuSans-2212" transform="translate(128.203125 38.965625) scale(0.7)"/>
       <use xlink:href="#DejaVuSans-31" transform="translate(186.855469 38.965625) scale(0.7)"/>
      </g>
     </g>
    </g>
    <g id="ytick_4">
     <g id="line2d_9">
      <defs>
       <path id="m262b5fa1be" d="M 0 0 
L -2 0 
" style="stroke: #000000; stroke-width: 0.6"/>
      </defs>
      <g>
       <use xlink:href="#m262b5fa1be" x="69.5" y="235.626267" style="stroke: #000000; stroke-width: 0.6"/>
      </g>
     </g>
    </g>
    <g id="ytick_5">
     <g id="line2d_10">
      <g>
       <use xlink:href="#m262b5fa1be" x="69.5" y="229.04811" style="stroke: #000000; stroke-width: 0.6"/>
      </g>
     </g>
    </g>
    <g id="ytick_6">
     <g id="line2d_11">
      <g>
       <use xlink:href="#m262b5fa1be" x="69.5" y="223.673365" style="stroke: #000000; stroke-width: 0.6"/>
      </g>
     </g>
    </g>
    <g id="ytick_7">
     <g id="line2d_12">
      <g>
       <use xlink:href="#m262b5fa1be" x="69.5" y="219.129082" style="stroke: #000000; stroke-width: 0.6"/>
      </g>
     </g>
    </g>
    <g id="ytick_8">
     <g id="line2d_13">
      <g>
       <use xlink:href="#m262b5fa1be" x="69.5" y="215.192646" style="stroke: #000000; stroke-width: 0.6"/>
      </g>
     </g>
    </g>
    <g id="ytick_9">
     <g id="line2d_14">
      <g>
       <use xlink:href="#m262b5fa1be" x="69.5" y="211.720462" style="stroke: #000000; stroke-width: 0.6"/>
      </g>
     </g>
    </g>
    <g id="ytick_10">
     <g id="line2d_15">
      <g>
       <use xlink:href="#m262b5fa1be" x="69.5" y="188.180867" style="stroke: #000000; stroke-width: 0.6"/>
      </g>
     </g>
    </g>
    <g id="ytick_11">
     <g id="line2d_16">
      <g>
       <use xlink:href="#m262b5fa1be" x="69.5" y="176.227964" style="stroke: #000000; stroke-width: 0.6"/>
      </g>
     </g>
    </g>
    <g id="ytick_12">
     <g id="line2d_17">
      <g>
       <use xlink:href="#m262b5fa1be" x="69.5" y="167.747245" style="stroke: #000000; stroke-width: 0.6"/>
      </g>
     </g>
    </g>
    <g id="ytick_13">
     <g id="line2d_18">
      <g>
       <use xlink:href="#m262b5fa1be" x="69.5" y="161.169088" style="stroke: #000000; stroke-width: 0.6"/>
      </g>
     </g>
    </g>
    <g id="ytick_14">
     <g id="line2d_19">
      <g>
       <use xlink:href="#m262b5fa1be" x="69.5" y="155.794343" style="stroke: #000000; stroke-width: 0.6"/>
      </g>
     </g>
    </g>
    <g id="ytick_15">
     <g id="line2d_20">
      <g>
       <use xlink:href="#m262b5fa1be" x="69.5" y="151.25006" style="stroke: #000000; stroke-width: 0.6"/>
      </g>
     </g>
    </g>
    <g id="ytick_16">
     <g id="line2d_21">
      <g>
       <use xlink:href="#m262b5fa1be" x="69.5" y="147.313623" style="stroke: #000000; stroke-width: 0.6"/>
      </g>
     </g>
    </g>
    <g id="ytick_17">
     <g id="line2d_22">
      <g>
       <use xlink:href="#m262b5fa1be" x="69.5" y="143.84144" style="stroke: #000000; stroke-width: 0.6"/>
      </g>
     </g>
    </g>
    <g id="ytick_18">
     <g id="line2d_23">
      <g>
       <use xlink:href="#m262b5fa1be" x="69.5" y="120.301845" style="stroke: #000000; stroke-width: 0.6"/>
      </g>
     </g>
    </g>
    <g id="ytick_19">
     <g id="line2d_24">
      <g>
       <use xlink:href="#m262b5fa1be" x="69.5" y="108.348942" style="stroke: #000000; stroke-width: 0.6"/>
      </g>
     </g>
    </g>
    <g id="ytick_20">
     <g id="line2d_25">
      <g>
       <use xlink:href="#m262b5fa1be" x="69.5" y="99.868223" style="stroke: #000000; stroke-width: 0.6"/>
      </g>
     </g>
    </g>
    <g id="ytick_21">
     <g id="line2d_26">
      <g>
       <use xlink:href="#m262b5fa1be" x="69.5" y="93.290066" style="stroke: #000000; stroke-width: 0.6"/>
      </g>
     </g>
    </g>
    <g id="ytick_22">
     <g id="line2d_27">
      <g>
       <use xlink:href="#m262b5fa1be" x="69.5" y="87.91532" style="stroke: #000000; stroke-width: 0.6"/>
      </g>
     </g>
    </g>
    <g id="ytick_23">
     <g id="line2d_28">
      <g>
       <use xlink:href="#m262b5fa1be" x="69.5" y="83.371038" style="stroke: #000000; stroke-width: 0.6"/>
      </g>
     </g>
    </g>
    <g id="ytick_24">
     <g id="line2d_29">
      <g>
       <use xlink:href="#m262b5fa1be" x="69.5" y="79.434601" style="stroke: #000000; stroke-width: 0.6"/>
      </g>
     </g>
    </g>
    <g id="ytick_25">
     <g id="line2d_30">
      <g>
       <use xlink:href="#m262b5fa1be" x="69.5" y="75.962418" style="stroke: #000000; stroke-width: 0.6"/>
      </g>
     </g>
    </g>
    <g id="ytick_26">
     <g id="line2d_31">
      <g>
       <use xlink:href="#m262b5fa1be" x="69.5" y="52.422822" style="stroke: #000000; stroke-width: 0.6"/>
      </g>
     </g>
    </g>
    <g id="ytick_27">
     <g id="line2d_32">
      <g>
       <use xlink:href="#m262b5fa1be" x="69.5" y="40.46992" style="stroke: #000000; stroke-width: 0.6"/>
      </g>
     </g>
    </g>
    <g id="ytick_28">
     <g id="line2d_33">
      <g>
       <use xlink:href="#m262b5fa1be" x="69.5" y="31.989201" style="stroke: #000000; stroke-width: 0.6"/>
      </g>
     </g>
    </g>
    <g id="ytick_29">
     <g id="line2d_34">
      <g>
       <use xlink:href="#m262b5fa1be" x="69.5" y="25.411044" style="stroke: #000000; stroke-width: 0.6"/>
      </g>
     </g>
    </g>
    <g id="ytick_30">
     <g id="line2d_35">
      <g>
       <use xlink:href="#m262b5fa1be" x="69.5" y="20.036298" style="stroke: #000000; stroke-width: 0.6"/>
      </g>
     </g>
    </g>
    <g id="ytick_31">
     <g id="line2d_36">
      <g>
       <use xlink:href="#m262b5fa1be" x="69.5" y="15.492015" style="stroke: #000000; stroke-width: 0.6"/>
      </g>
     </g>
    </g>
    <g id="ytick_32">
     <g id="line2d_37">
      <g>
       <use xlink:href="#m262b5fa1be" x="69.5" y="11.555579" style="stroke: #000000; stroke-width: 0.6"/>
      </g>
     </g>
    </g>
    <g id="text_10">
     <!-- Attitude Error Norm $|\sigma_{B/R}|$ -->
     <g transform="translate(18.5 189.568437) rotate(-90) scale(0.1 -0.1)">
      <defs>
       <path id="DejaVuSans-41" d="M 2188 4044 
L 1331 1722 
L 3047 1722 
L 2188 4044 
z
M 1831 4666 
L 2547 4666 
L 4325 0 
L 3669 0 
L 3244 1197 
L 1141 1197 
L 716 0 
L 50 0 
L 1831 4666 
z
" transform="scale(0.015625)"/>
       <path id="DejaVuSans-74" d="M 1172 4494 
L 1172 3500 
L 2356 3500 
L 2356 3053 
L 1172 3053 
L 1172 1153 
Q 1172 725 1289 603 
Q 1406 481 1766 481 
L 2356 481 
L 2356 0 
L 1766 0 
Q 1100 0 847 248 
Q 594 497 594 1153 
L 594 3053 
L 172 3053 
L 172 3500 
L 594 3500 
L 594 4494 
L 1172 4494 
z
" transform="scale(0.015625)"/>
       <path id="DejaVuSans-75" d="M 544 1381 
L 544 3500 
L 1119 3500 
L 1119 1403 
Q 1119 906 1312 657 
Q 1506 409 1894 409 
Q 2359 409 2629 706 
Q 2900 1003 2900 1516 
L 2900 3500 
L 3475 3500 
L 3475 0 
L 2900 0 
L 2900 538 
Q 2691 219 2414 64 
Q 2138 -91 1772 -91 
Q 1169 -91 856 284 
Q 544 659 544 1381 
z
M 1991 3584 
L 1991 3584 
z
" transform="scale(0.015625)"/>
       <path id="DejaVuSans-64" d="M 2906 2969 
L 2906 4863 
L 3481 4863 
L 3481 0 
L 2906 0 
L 2906 525 
Q 2725 213 2448 61 
Q 2172 -91 1784 -91 
Q 1150 -91 751 415 
Q 353 922 353 1747 
Q 353 2572 751 3078 
Q 1150 3584 1784 3584 
Q 2172 3584 2448 3432 
Q 2725 3281 2906 2969 
z
M 947 1747 
Q 947 1113 1208 752 
Q 1469 391 1925 391 
Q 2381 391 2643 752 
Q 2906 1113 2906 1747 
Q 2906 2381 2643 2742 
Q 2381 3103 1925 3103 
Q 1469 3103 1208 2742 
Q 947 2381 947 1747 
z
" transform="scale(0.015625)"/>
       <path id="DejaVuSans-45" d="M 628 4666 
L 3578 4666 
L 3578 4134 
L 1259 4134 
L 1259 2753 
L 3481 2753 
L 3481 2222 
L 1259 2222 
L 1259 531 
L 3634 531 
L 3634 0 
L 628 0 
L 628 4666 
z
" transform="scale(0.015625)"/>
       <path id="DejaVuSans-72" d="M 2631 2963 
Q 2534 3019 2420 3045 
Q 2306 3072 2169 3072 
Q 1681 3072 1420 2755 
Q 1159 2438 1159 1844 
L 1159 0 
L 581 0 
L 581 3500 
L 1159 3500 
L 1159 2956 
Q 1341 3275 1631 3429 
Q 1922 3584 2338 3584 
Q 2397 3584 2469 3576 
Q 2541 3569 2628 3553 
L 2631 2963 
z
" transform="scale(0.015625)"/>
       <path id="DejaVuSans-6f" d="M 1959 3097 
Q 1497 3097 1228 2736 
Q 959 2375 959 1747 
Q 959 1119 1226 758 
Q 1494 397 1959 397 
Q 2419 397 2687 759 
Q 2956 1122 2956 1747 
Q 2956 2369 2687 2733 
Q 2419 3097 1959 3097 
z
M 1959 3584 
Q 2709 3584 3137 3096 
Q 3566 2609 3566 1747 
Q 3566 888 3137 398 
Q 2709 -91 1959 -91 
Q 1206 -91 779 398 
Q 353 888 353 1747 
Q 353 2609 779 3096 
Q 1206 3584 1959 3584 
z
" transform="scale(0.015625)"/>
       <path id="DejaVuSans-4e" d="M 628 4666 
L 1478 4666 
L 3547 763 
L 3547 4666 
L 4159 4666 
L 4159 0 
L 3309 0 
L 1241 3903 
L 1241 0 
L 628 0 
L 628 4666 
z
" transform="scale(0.015625)"/>
       <path id="DejaVuSans-7c" d="M 1344 4891 
L 1344 -1509 
L 813 -1509 
L 813 4891 
L 1344 4891 
z
" transform="scale(0.015625)"/>
       <path id="DejaVuSans-Oblique-3c3" d="M 2219 3044 
Q 1744 3044 1422 2700 
Q 1081 2341 969 1747 
Q 844 1119 1044 756 
Q 1241 397 1706 397 
Q 2166 397 2503 759 
Q 2844 1122 2966 1747 
Q 3075 2319 2881 2700 
Q 2700 3044 2219 3044 
z
M 2309 3503 
L 4219 3500 
L 4106 2925 
L 3463 2925 
Q 3706 2438 3575 1747 
Q 3406 888 2884 400 
Q 2359 -91 1609 -91 
Q 856 -91 525 400 
Q 194 888 363 1747 
Q 528 2609 1050 3097 
Q 1484 3503 2309 3503 
z
" transform="scale(0.015625)"/>
       <path id="DejaVuSans-Oblique-42" d="M 1081 4666 
L 2694 4666 
Q 3350 4666 3675 4422 
Q 4000 4178 4000 3688 
Q 4000 3238 3720 2911 
Q 3441 2584 2988 2516 
Q 3375 2428 3569 2181 
Q 3763 1934 3763 1522 
Q 3763 819 3242 409 
Q 2722 0 1819 0 
L 172 0 
L 1081 4666 
z
M 1234 2228 
L 903 519 
L 1919 519 
Q 2491 519 2800 781 
Q 3109 1044 3109 1522 
Q 3109 1891 2904 2059 
Q 2700 2228 2247 2228 
L 1234 2228 
z
M 1606 4147 
L 1331 2741 
L 2272 2741 
Q 2775 2741 3058 2959 
Q 3341 3178 3341 3566 
Q 3341 3869 3150 4008 
Q 2959 4147 2541 4147 
L 1606 4147 
z
" transform="scale(0.015625)"/>
       <path id="DejaVuSans-2f" d="M 1625 4666 
L 2156 4666 
L 531 -594 
L 0 -594 
L 1625 4666 
z
" transform="scale(0.015625)"/>
       <path id="DejaVuSans-Oblique-52" d="M 1613 4147 
L 1294 2491 
L 2106 2491 
Q 2584 2491 2879 2755 
Q 3175 3019 3175 3444 
Q 3175 3784 2976 3965 
Q 2778 4147 2406 4147 
L 1613 4147 
z
M 2772 2241 
Q 2972 2194 3105 2009 
Q 3238 1825 3413 1275 
L 3809 0 
L 3144 0 
L 2778 1197 
Q 2638 1659 2453 1815 
Q 2269 1972 1888 1972 
L 1191 1972 
L 806 0 
L 172 0 
L 1081 4666 
L 2503 4666 
Q 3150 4666 3495 4373 
Q 3841 4081 3841 3531 
Q 3841 3044 3547 2687 
Q 3253 2331 2772 2241 
z
" transform="scale(0.015625)"/>
      </defs>
      <use xlink:href="#DejaVuSans-41" transform="translate(0 0.578125)"/>
      <use xlink:href="#DejaVuSans-74" transform="translate(68.408203 0.578125)"/>
      <use xlink:href="#DejaVuSans-74" transform="translate(107.617188 0.578125)"/>
      <use xlink:href="#DejaVuSans-69" transform="translate(146.826172 0.578125)"/>
      <use xlink:href="#DejaVuSans-74" transform="translate(174.609375 0.578125)"/>
      <use xlink:href="#DejaVuSans-75" transform="translate(213.818359 0.578125)"/>
      <use xlink:href="#DejaVuSans-64" transform="translate(277.197266 0.578125)"/>
      <use xlink:href="#DejaVuSans-65" transform="translate(340.673828 0.578125)"/>
      <use xlink:href="#DejaVuSans-20" transform="translate(402.197266 0.578125)"/>
      <use xlink:href="#DejaVuSans-45" transform="translate(433.984375 0.578125)"/>
      <use xlink:href="#DejaVuSans-72" transform="translate(497.167969 0.578125)"/>
      <use xlink:href="#DejaVuSans-72" transform="translate(538.28125 0.578125)"/>
      <use xlink:href="#DejaVuSans-6f" transform="translate(579.394531 0.578125)"/>
      <use xlink:href="#DejaVuSans-72" transform="translate(640.576172 0.578125)"/>
      <use xlink:href="#DejaVuSans-20" transform="translate(681.689453 0.578125)"/>
      <use xlink:href="#DejaVuSans-4e" transform="translate(713.476562 0.578125)"/>
      <use xlink:href="#DejaVuSans-6f" transform="translate(788.28125 0.578125)"/>
      <use xlink:href="#DejaVuSans-72" transform="translate(849.462891 0.578125)"/>
      <use xlink:href="#DejaVuSans-6d" transform="translate(890.576172 0.578125)"/>
      <use xlink:href="#DejaVuSans-20" transform="translate(987.988281 0.578125)"/>
      <use xlink:href="#DejaVuSans-7c" transform="translate(1019.775391 0.578125)"/>
      <use xlink:href="#DejaVuSans-Oblique-3c3" transform="translate(1053.466797 0.578125)"/>
      <use xlink:href="#DejaVuSans-Oblique-42" transform="translate(1116.845703 -15.828125) scale(0.7)"/>
      <use xlink:href="#DejaVuSans-2f" transform="translate(1164.868164 -15.828125) scale(0.7)"/>
      <use xlink:href="#DejaVuSans-Oblique-52" transform="translate(1187.227148 -15.828125) scale(0.7)"/>
      <use xlink:href="#DejaVuSans-7c" transform="translate(1238.599219 0.578125)"/>
     </g>
    </g>
   </g>
   <g id="line2d_38">
    <path d="M 84.668182 34.249327 
L 84.857784 33.862859 
L 84.984186 33.909601 
L 85.173788 34.407612 
L 85.426591 35.811027 
L 85.805795 39.372192 
L 86.311402 46.729069 
L 86.817008 57.412488 
L 87.322614 72.868408 
L 87.765019 93.255912 
L 88.207424 112.860582 
L 88.333826 110.117082 
L 89.029034 87.824764 
L 89.408239 82.660503 
L 89.724242 80.703255 
L 89.977045 80.271027 
L 90.103447 80.374999 
L 90.293049 80.892473 
L 90.609053 82.644964 
L 90.988258 86.120126 
L 91.493864 93.015173 
L 92.125871 105.086752 
L 92.82108 117.88044 
L 93.010682 118.96378 
L 93.073883 118.984691 
L 93.200284 118.577466 
L 93.453087 116.509131 
L 94.401098 107.636422 
L 94.780303 105.901407 
L 95.096307 105.279471 
L 95.285909 105.230572 
L 95.475511 105.405767 
L 95.728314 105.964825 
L 96.107519 107.448684 
L 96.613125 110.537751 
L 97.181932 115.46114 
L 97.813939 122.844456 
L 98.445947 132.843303 
L 99.014754 145.582922 
L 99.457159 160.615665 
L 99.773163 178.212441 
L 100.025966 204.589634 
L 100.152367 220.613916 
L 100.215568 216.906865 
L 100.594773 177.141893 
L 100.973977 160.237703 
L 101.479583 147.799723 
L 102.04839 139.503962 
L 102.617197 134.378862 
L 103.122803 131.544966 
L 103.565208 130.059234 
L 103.944413 129.391801 
L 104.260417 129.206931 
L 104.51322 129.278407 
L 104.829223 129.619288 
L 105.271629 130.525347 
L 105.840436 132.347338 
L 106.535644 135.443052 
L 107.420455 140.497956 
L 109.063674 151.578796 
L 110.074886 157.664998 
L 110.770095 160.630933 
L 111.338902 162.159882 
L 111.844508 162.920044 
L 112.350114 163.263976 
L 112.91892 163.346507 
L 115.257348 163.3572 
L 115.952557 163.735268 
L 116.647765 164.369817 
L 117.406174 165.37469 
L 118.227784 166.850991 
L 119.112595 168.915601 
L 120.060606 171.704278 
L 121.071818 175.368009 
L 122.209432 180.341271 
L 123.852652 188.688255 
L 125.053466 194.340176 
L 125.685473 196.371375 
L 126.127879 197.183588 
L 126.507083 197.446706 
L 126.823087 197.377094 
L 127.202292 196.995408 
L 127.707898 196.106243 
L 128.655909 193.869827 
L 129.919924 191.027877 
L 130.678333 189.807404 
L 131.310341 189.152719 
L 131.879148 188.863576 
L 132.384754 188.851228 
L 132.89036 189.072084 
L 133.459167 189.601791 
L 134.091174 190.542512 
L 134.786383 192.008386 
L 135.607992 194.320915 
L 136.556004 197.730489 
L 137.94642 203.730805 
L 139.020833 208.021996 
L 139.58964 209.49263 
L 139.968845 209.979461 
L 140.284848 210.049317 
L 140.600852 209.820248 
L 140.980057 209.194294 
L 141.548864 207.714205 
L 142.812879 203.507335 
L 143.887292 200.302028 
L 144.708902 198.507908 
L 145.40411 197.513155 
L 145.972917 197.070813 
L 146.478523 196.962117 
L 146.920928 197.087992 
L 147.426534 197.485471 
L 147.995341 198.256983 
L 148.627348 199.516469 
L 149.385758 201.576079 
L 150.270568 204.670819 
L 152.798598 214.043193 
L 153.177803 214.587799 
L 153.493807 214.694958 
L 153.74661 214.549395 
L 154.062614 214.096195 
L 154.505019 213.034866 
L 155.263428 210.482103 
L 157.09625 204.090422 
L 157.91786 202.073931 
L 158.613068 200.929981 
L 159.181875 200.392003 
L 159.687481 200.217617 
L 160.129886 200.300404 
L 160.509091 200.546484 
L 160.572292 21.265312 
L 160.635492 21.849542 
L 161.204299 34.516635 
L 161.709905 50.375576 
L 162.152311 71.887784 
L 162.468314 98.935865 
L 162.657917 112.597304 
L 163.479527 68.439089 
L 163.858731 62.278091 
L 164.237936 59.490679 
L 164.490739 58.916286 
L 164.61714 58.943985 
L 164.806742 59.338381 
L 165.059545 60.472533 
L 165.43875 63.388594 
L 165.881155 68.604596 
L 166.386761 77.225953 
L 166.892367 89.683625 
L 167.334773 106.043991 
L 167.713977 129.451454 
L 168.029981 157.339204 
L 168.093182 155.427019 
L 168.598788 121.669062 
L 168.977992 111.188971 
L 169.357197 105.920804 
L 169.673201 103.824525 
L 169.926004 103.226333 
L 170.052405 103.229038 
L 170.242008 103.57222 
L 170.494811 104.615343 
L 170.874015 107.347077 
L 171.31642 112.244052 
L 171.885227 121.320202 
L 172.643636 137.82812 
L 173.086042 145.913454 
L 173.275644 147.169176 
L 173.338845 147.222842 
L 173.465246 146.853534 
L 173.718049 144.818152 
L 174.60286 136.859374 
L 174.982064 135.354444 
L 175.234867 135.018576 
L 175.42447 135.087051 
L 175.677273 135.573371 
L 175.993277 136.765554 
L 176.435682 139.407867 
L 177.067689 144.750842 
L 178.078902 153.461273 
L 178.331705 154.360274 
L 178.458106 154.461675 
L 178.584508 154.32225 
L 178.77411 153.685187 
L 179.090114 151.690652 
L 179.785322 145.319585 
L 180.922936 135.375263 
L 181.681345 130.57424 
L 182.313352 127.864256 
L 182.818958 126.612133 
L 183.134962 126.276419 
L 183.387765 126.271374 
L 183.640568 126.511987 
L 183.956572 127.173482 
L 184.335777 128.516418 
L 184.841383 131.241671 
L 185.599792 136.882587 
L 186.231799 141.16084 
L 186.547803 142.082421 
L 186.674205 142.114255 
L 186.863807 141.79684 
L 187.11661 140.779347 
L 187.622216 137.535797 
L 188.570227 131.514026 
L 189.075833 129.517858 
L 189.518239 128.589591 
L 189.834242 128.377843 
L 190.087045 128.466028 
L 190.403049 128.882425 
L 190.782254 129.806179 
L 191.28786 131.704815 
L 191.919867 135.043539 
L 192.741477 140.741891 
L 193.879091 150.399614 
L 195.838314 167.165933 
L 196.659924 172.211699 
L 197.291932 174.837961 
L 197.860739 176.32855 
L 198.429545 177.198824 
L 199.124754 177.810119 
L 200.199167 178.729058 
L 200.831174 179.613397 
L 201.526383 181.016384 
L 202.284792 183.076381 
L 203.232803 186.337111 
L 204.560019 191.78601 
L 207.214451 202.83482 
L 208.288864 206.24908 
L 209.236875 208.520246 
L 210.121686 210.086568 
L 211.006496 211.235193 
L 211.891307 212.052399 
L 212.776117 212.57049 
L 213.534527 212.773473 
L 214.292936 212.749876 
L 215.114545 212.483699 
L 216.062557 211.926364 
L 217.832178 210.554708 
L 219.285795 209.560167 
L 220.297008 209.12163 
L 221.181818 208.964535 
L 222.066629 209.04152 
L 222.888239 209.331434 
L 223.773049 209.881633 
L 224.721061 210.742828 
L 225.732273 211.962841 
L 226.869886 213.685161 
L 228.260303 216.220938 
L 232.052348 223.451403 
L 232.810758 224.303211 
L 233.442765 224.695133 
L 234.011572 224.778327 
L 234.580379 224.609113 
L 235.212386 224.152807 
L 235.970795 223.304471 
L 237.108409 221.647684 
L 239.826042 217.576783 
L 240.963655 216.32197 
L 241.911667 215.584231 
L 242.796477 215.170414 
L 243.618087 215.032701 
L 244.376496 215.119784 
L 245.198106 215.447043 
L 246.019716 216.014665 
L 246.967727 216.960837 
L 247.978939 218.294301 
L 249.242955 220.36589 
L 253.098201 227.054917 
L 253.793409 227.670431 
L 254.362216 227.898635 
L 254.867822 227.879332 
L 255.436629 227.61293 
L 256.068636 227.043507 
L 256.890246 225.96483 
L 258.217462 223.76998 
L 260.366288 220.23486 
L 261.503902 218.774607 
L 262.515114 217.823087 
L 263.399924 217.284042 
L 264.221534 217.038724 
L 264.979943 217.033949 
L 265.738352 217.242658 
L 266.559962 217.707822 
L 267.444773 218.480561 
L 268.455985 219.691132 
L 269.593598 221.42216 
L 271.236818 224.384024 
L 273.006439 227.466842 
L 273.828049 228.500542 
L 274.460057 228.994295 
L 275.028864 229.171614 
L 275.53447 229.105172 
L 276.103277 228.785662 
L 276.735284 228.159832 
L 277.556894 227.015853 
L 278.947311 224.627248 
L 280.969735 221.227241 
L 282.107348 219.728686 
L 283.118561 218.74879 
L 284.003371 218.188985 
L 284.824981 217.927533 
L 285.58339 217.910343 
L 286.341799 218.108807 
L 287.163409 218.565032 
L 288.04822 219.330181 
L 288.996231 220.448771 
L 290.133845 222.151971 
L 291.777064 225.079451 
L 293.546686 228.1285 
L 294.368295 229.145465 
L 295.000303 229.625232 
L 295.56911 229.789078 
L 296.074716 229.710088 
L 296.643523 229.37611 
L 297.27553 228.734247 
L 298.160341 227.469292 
L 299.677159 224.809494 
L 301.509981 221.721056 
L 302.647595 220.210004 
L 303.658807 219.221532 
L 304.543617 218.655916 
L 305.365227 218.390329 
L 306.123636 218.37029 
L 306.882045 218.56673 
L 307.703655 219.02155 
L 308.588466 219.785853 
L 309.536477 220.90384 
L 310.674091 222.605559 
L 312.317311 225.524507 
L 314.023731 228.452281 
L 314.845341 229.474691 
L 315.477348 229.961179 
L 316.046155 230.131983 
L 316.551761 230.059073 
L 317.120568 229.73095 
L 317.752576 229.093514 
L 318.574186 227.931322 
L 319.964602 225.506507 
L 321.987027 222.051892 
L 323.12464 220.525179 
L 324.135852 219.522597 
L 325.020663 218.944857 
L 325.842273 218.668345 
L 326.600682 218.638571 
L 327.359091 218.825649 
L 328.180701 219.270788 
L 329.065511 220.025267 
L 330.013523 221.133541 
L 331.151136 222.825044 
L 332.794356 225.733355 
L 334.500777 228.658059 
L 335.322386 229.682436 
L 335.954394 230.171638 
L 336.523201 230.345341 
L 337.028807 230.274996 
L 337.597614 229.949341 
L 338.229621 229.313724 
L 339.051231 228.152054 
L 340.441648 225.723591 
L 342.464072 222.257341 
L 343.664886 220.649405 
L 344.676098 219.661862 
L 345.560909 219.098419 
L 346.382519 218.835727 
L 347.140928 218.818961 
L 347.899337 219.019117 
L 348.720947 219.478293 
L 349.605758 220.247376 
L 350.61697 221.455142 
L 351.754583 223.179694 
L 353.524205 226.336614 
L 355.041023 228.887032 
L 355.862633 229.882259 
L 356.49464 230.34299 
L 357.063447 230.488517 
L 357.569053 230.392895 
L 358.13786 230.04056 
L 358.833068 229.300019 
L 359.717879 227.987764 
L 361.424299 224.944871 
L 363.067519 222.200904 
L 364.205133 220.705062 
L 365.216345 219.735002 
L 366.101155 219.187816 
L 366.922765 218.940601 
L 367.681174 218.938222 
L 368.439583 219.152689 
L 369.261193 219.627059 
L 370.146004 220.411774 
L 371.157216 221.635656 
L 372.35803 223.480037 
L 374.443655 227.216859 
L 375.70767 229.231086 
L 376.46608 230.079119 
L 377.098087 230.480396 
L 377.603693 230.571331 
L 378.109299 230.450411 
L 378.678106 230.07164 
L 379.373314 229.304146 
L 380.321326 227.862346 
L 384.492576 220.997222 
L 385.503788 219.955351 
L 386.388598 219.341799 
L 387.210208 219.031479 
L 387.968617 218.970346 
L 388.031818 218.975052 
L 388.031818 218.975052 
" clip-path="url(#pa14634f7cb)" style="fill: none; stroke: #5ea04b; stroke-width: 1.5; stroke-linecap: square"/>
   </g>
   <g id="patch_3">
    <path d="M 69.5 241.036875 
L 69.5 10.8 
" style="fill: none; stroke: #000000; stroke-width: 0.8; stroke-linejoin: miter; stroke-linecap: square"/>
   </g>
   <g id="patch_4">
    <path d="M 403.2 241.036875 
L 403.2 10.8 
" style="fill: none; stroke: #000000; stroke-width: 0.8; stroke-linejoin: miter; stroke-linecap: square"/>
   </g>
   <g id="patch_5">
    <path d="M 69.5 241.036875 
L 403.2 241.036875 
" style="fill: none; stroke: #000000; stroke-width: 0.8; stroke-linejoin: miter; stroke-linecap: square"/>
   </g>
   <g id="patch_6">
    <path d="M 69.5 10.8 
L 403.2 10.8 
" style="fill: none; stroke: #000000; stroke-width: 0.8; stroke-linejoin: miter; stroke-linecap: square"/>
   </g>
  </g>
 </g>
 <defs>
  <clipPath id="pa14634f7cb">
   <rect x="69.5" y="10.8" width="333.7" height="230.236875"/>
  </clipPath>
 </defs>
</svg>
