<?xml version="1.0" encoding="utf-8" standalone="no"?>
<!DOCTYPE svg PUBLIC "-//W3C//DTD SVG 1.1//EN"
  "http://www.w3.org/Graphics/SVG/1.1/DTD/svg11.dtd">
<svg xmlns:xlink="http://www.w3.org/1999/xlink" width="414pt" height="288pt" viewBox="0 0 414 288" xmlns="http://www.w3.org/2000/svg" version="1.1">
 <metadata>
  <rdf:RDF xmlns:dc="http://purl.org/dc/elements/1.1/" xmlns:cc="http://creativecommons.org/ns#" xmlns:rdf="http://www.w3.org/1999/02/22-rdf-syntax-ns#">
   <cc:Work>
    <dc:type rdf:resource="http://purl.org/dc/dcmitype/StillImage"/>
    <dc:date>2023-09-07T00:36:41.735525</dc:date>
    <dc:format>image/svg+xml</dc:format>
    <dc:creator>
     <cc:Agent>
      <dc:title>Matplotlib v3.7.2, https://matplotlib.org/</dc:title>
     </cc:Agent>
    </dc:creator>
   </cc:Work>
  </rdf:RDF>
 </metadata>
 <defs>
  <style type="text/css">*{stroke-linejoin: round; stroke-linecap: butt}</style>
 </defs>
 <g id="figure_1">
  <g id="patch_1">
   <path d="M 0 288 
L 414 288 
L 414 0 
L 0 0 
L 0 288 
z
" style="fill: none"/>
  </g>
  <g id="axes_1">
   <g id="patch_2">
    <path d="M 90.690625 241.036875 
L 402.514091 241.036875 
L 402.514091 10.8 
L 90.690625 10.8 
L 90.690625 241.036875 
z
" style="fill: none"/>
   </g>
   <g id="matplotlib.axis_1">
    <g id="xtick_1">
     <g id="line2d_1">
      <defs>
       <path id="m84759421f9" d="M 0 0 
L 0 3.5 
" style="stroke: #000000; stroke-width: 0.8"/>
      </defs>
      <g>
       <use xlink:href="#m84759421f9" x="104.864419" y="241.036875" style="stroke: #000000; stroke-width: 0.8"/>
      </g>
     </g>
     <g id="text_1">
      <!-- 0 -->
      <g transform="translate(99.774419 260.194375) scale(0.16 -0.16)">
       <defs>
        <path id="DejaVuSans-30" d="M 2034 4250 
Q 1547 4250 1301 3770 
Q 1056 3291 1056 2328 
Q 1056 1369 1301 889 
Q 1547 409 2034 409 
Q 2525 409 2770 889 
Q 3016 1369 3016 2328 
Q 3016 3291 2770 3770 
Q 2525 4250 2034 4250 
z
M 2034 4750 
Q 2819 4750 3233 4129 
Q 3647 3509 3647 2328 
Q 3647 1150 3233 529 
Q 2819 -91 2034 -91 
Q 1250 -91 836 529 
Q 422 1150 422 2328 
Q 422 3509 836 4129 
Q 1250 4750 2034 4750 
z
" transform="scale(0.015625)"/>
       </defs>
       <use xlink:href="#DejaVuSans-30"/>
      </g>
     </g>
    </g>
    <g id="xtick_2">
     <g id="line2d_2">
      <g>
       <use xlink:href="#m84759421f9" x="199.356378" y="241.036875" style="stroke: #000000; stroke-width: 0.8"/>
      </g>
     </g>
     <g id="text_2">
      <!-- 100 -->
      <g transform="translate(184.086378 260.194375) scale(0.16 -0.16)">
       <defs>
        <path id="DejaVuSans-31" d="M 794 531 
L 1825 531 
L 1825 4091 
L 703 3866 
L 703 4441 
L 1819 4666 
L 2450 4666 
L 2450 531 
L 3481 531 
L 3481 0 
L 794 0 
L 794 531 
z
" transform="scale(0.015625)"/>
       </defs>
       <use xlink:href="#DejaVuSans-31"/>
       <use xlink:href="#DejaVuSans-30" x="63.623047"/>
       <use xlink:href="#DejaVuSans-30" x="127.246094"/>
      </g>
     </g>
    </g>
    <g id="xtick_3">
     <g id="line2d_3">
      <g>
       <use xlink:href="#m84759421f9" x="293.848338" y="241.036875" style="stroke: #000000; stroke-width: 0.8"/>
      </g>
     </g>
     <g id="text_3">
      <!-- 200 -->
      <g transform="translate(278.578338 260.194375) scale(0.16 -0.16)">
       <defs>
        <path id="DejaVuSans-32" d="M 1228 531 
L 3431 531 
L 3431 0 
L 469 0 
L 469 531 
Q 828 903 1448 1529 
Q 2069 2156 2228 2338 
Q 2531 2678 2651 2914 
Q 2772 3150 2772 3378 
Q 2772 3750 2511 3984 
Q 2250 4219 1831 4219 
Q 1534 4219 1204 4116 
Q 875 4013 500 3803 
L 500 4441 
Q 881 4594 1212 4672 
Q 1544 4750 1819 4750 
Q 2544 4750 2975 4387 
Q 3406 4025 3406 3419 
Q 3406 3131 3298 2873 
Q 3191 2616 2906 2266 
Q 2828 2175 2409 1742 
Q 1991 1309 1228 531 
z
" transform="scale(0.015625)"/>
       </defs>
       <use xlink:href="#DejaVuSans-32"/>
       <use xlink:href="#DejaVuSans-30" x="63.623047"/>
       <use xlink:href="#DejaVuSans-30" x="127.246094"/>
      </g>
     </g>
    </g>
    <g id="xtick_4">
     <g id="line2d_4">
      <g>
       <use xlink:href="#m84759421f9" x="388.340297" y="241.036875" style="stroke: #000000; stroke-width: 0.8"/>
      </g>
     </g>
     <g id="text_4">
      <!-- 300 -->
      <g transform="translate(373.070297 260.194375) scale(0.16 -0.16)">
       <defs>
        <path id="DejaVuSans-33" d="M 2597 2516 
Q 3050 2419 3304 2112 
Q 3559 1806 3559 1356 
Q 3559 666 3084 287 
Q 2609 -91 1734 -91 
Q 1441 -91 1130 -33 
Q 819 25 488 141 
L 488 750 
Q 750 597 1062 519 
Q 1375 441 1716 441 
Q 2309 441 2620 675 
Q 2931 909 2931 1356 
Q 2931 1769 2642 2001 
Q 2353 2234 1838 2234 
L 1294 2234 
L 1294 2753 
L 1863 2753 
Q 2328 2753 2575 2939 
Q 2822 3125 2822 3475 
Q 2822 3834 2567 4026 
Q 2313 4219 1838 4219 
Q 1578 4219 1281 4162 
Q 984 4106 628 3988 
L 628 4550 
Q 988 4650 1302 4700 
Q 1616 4750 1894 4750 
Q 2613 4750 3031 4423 
Q 3450 4097 3450 3541 
Q 3450 3153 3228 2886 
Q 3006 2619 2597 2516 
z
" transform="scale(0.015625)"/>
       </defs>
       <use xlink:href="#DejaVuSans-33"/>
       <use xlink:href="#DejaVuSans-30" x="63.623047"/>
       <use xlink:href="#DejaVuSans-30" x="127.246094"/>
      </g>
     </g>
    </g>
    <g id="text_5">
     <!-- Time [min] -->
     <g transform="translate(219.450014 275.120313) scale(0.1 -0.1)">
      <defs>
       <path id="DejaVuSans-54" d="M -19 4666 
L 3928 4666 
L 3928 4134 
L 2272 4134 
L 2272 0 
L 1638 0 
L 1638 4134 
L -19 4134 
L -19 4666 
z
" transform="scale(0.015625)"/>
       <path id="DejaVuSans-69" d="M 603 3500 
L 1178 3500 
L 1178 0 
L 603 0 
L 603 3500 
z
M 603 4863 
L 1178 4863 
L 1178 4134 
L 603 4134 
L 603 4863 
z
" transform="scale(0.015625)"/>
       <path id="DejaVuSans-6d" d="M 3328 2828 
Q 3544 3216 3844 3400 
Q 4144 3584 4550 3584 
Q 5097 3584 5394 3201 
Q 5691 2819 5691 2113 
L 5691 0 
L 5113 0 
L 5113 2094 
Q 5113 2597 4934 2840 
Q 4756 3084 4391 3084 
Q 3944 3084 3684 2787 
Q 3425 2491 3425 1978 
L 3425 0 
L 2847 0 
L 2847 2094 
Q 2847 2600 2669 2842 
Q 2491 3084 2119 3084 
Q 1678 3084 1418 2786 
Q 1159 2488 1159 1978 
L 1159 0 
L 581 0 
L 581 3500 
L 1159 3500 
L 1159 2956 
Q 1356 3278 1631 3431 
Q 1906 3584 2284 3584 
Q 2666 3584 2933 3390 
Q 3200 3197 3328 2828 
z
" transform="scale(0.015625)"/>
       <path id="DejaVuSans-65" d="M 3597 1894 
L 3597 1613 
L 953 1613 
Q 991 1019 1311 708 
Q 1631 397 2203 397 
Q 2534 397 2845 478 
Q 3156 559 3463 722 
L 3463 178 
Q 3153 47 2828 -22 
Q 2503 -91 2169 -91 
Q 1331 -91 842 396 
Q 353 884 353 1716 
Q 353 2575 817 3079 
Q 1281 3584 2069 3584 
Q 2775 3584 3186 3129 
Q 3597 2675 3597 1894 
z
M 3022 2063 
Q 3016 2534 2758 2815 
Q 2500 3097 2075 3097 
Q 1594 3097 1305 2825 
Q 1016 2553 972 2059 
L 3022 2063 
z
" transform="scale(0.015625)"/>
       <path id="DejaVuSans-20" transform="scale(0.015625)"/>
       <path id="DejaVuSans-5b" d="M 550 4863 
L 1875 4863 
L 1875 4416 
L 1125 4416 
L 1125 -397 
L 1875 -397 
L 1875 -844 
L 550 -844 
L 550 4863 
z
" transform="scale(0.015625)"/>
       <path id="DejaVuSans-6e" d="M 3513 2113 
L 3513 0 
L 2938 0 
L 2938 2094 
Q 2938 2591 2744 2837 
Q 2550 3084 2163 3084 
Q 1697 3084 1428 2787 
Q 1159 2491 1159 1978 
L 1159 0 
L 581 0 
L 581 3500 
L 1159 3500 
L 1159 2956 
Q 1366 3272 1645 3428 
Q 1925 3584 2291 3584 
Q 2894 3584 3203 3211 
Q 3513 2838 3513 2113 
z
" transform="scale(0.015625)"/>
       <path id="DejaVuSans-5d" d="M 1947 4863 
L 1947 -844 
L 622 -844 
L 622 -397 
L 1369 -397 
L 1369 4416 
L 622 4416 
L 622 4863 
L 1947 4863 
z
" transform="scale(0.015625)"/>
      </defs>
      <use xlink:href="#DejaVuSans-54"/>
      <use xlink:href="#DejaVuSans-69" x="57.958984"/>
      <use xlink:href="#DejaVuSans-6d" x="85.742188"/>
      <use xlink:href="#DejaVuSans-65" x="183.154297"/>
      <use xlink:href="#DejaVuSans-20" x="244.677734"/>
      <use xlink:href="#DejaVuSans-5b" x="276.464844"/>
      <use xlink:href="#DejaVuSans-6d" x="315.478516"/>
      <use xlink:href="#DejaVuSans-69" x="412.890625"/>
      <use xlink:href="#DejaVuSans-6e" x="440.673828"/>
      <use xlink:href="#DejaVuSans-5d" x="504.052734"/>
     </g>
    </g>
   </g>
   <g id="matplotlib.axis_2">
    <g id="ytick_1">
     <g id="line2d_5">
      <defs>
       <path id="m141cd6182f" d="M 0 0 
L -3.5 0 
" style="stroke: #000000; stroke-width: 0.8"/>
      </defs>
      <g>
       <use xlink:href="#m141cd6182f" x="90.690625" y="211.516109" style="stroke: #000000; stroke-width: 0.8"/>
      </g>
     </g>
     <g id="text_6">
      <!-- −0.0075 -->
      <g transform="translate(14.298125 217.594859) scale(0.16 -0.16)">
       <defs>
        <path id="DejaVuSans-2212" d="M 678 2272 
L 4684 2272 
L 4684 1741 
L 678 1741 
L 678 2272 
z
" transform="scale(0.015625)"/>
        <path id="DejaVuSans-2e" d="M 684 794 
L 1344 794 
L 1344 0 
L 684 0 
L 684 794 
z
" transform="scale(0.015625)"/>
        <path id="DejaVuSans-37" d="M 525 4666 
L 3525 4666 
L 3525 4397 
L 1831 0 
L 1172 0 
L 2766 4134 
L 525 4134 
L 525 4666 
z
" transform="scale(0.015625)"/>
        <path id="DejaVuSans-35" d="M 691 4666 
L 3169 4666 
L 3169 4134 
L 1269 4134 
L 1269 2991 
Q 1406 3038 1543 3061 
Q 1681 3084 1819 3084 
Q 2600 3084 3056 2656 
Q 3513 2228 3513 1497 
Q 3513 744 3044 326 
Q 2575 -91 1722 -91 
Q 1428 -91 1123 -41 
Q 819 9 494 109 
L 494 744 
Q 775 591 1075 516 
Q 1375 441 1709 441 
Q 2250 441 2565 725 
Q 2881 1009 2881 1497 
Q 2881 1984 2565 2268 
Q 2250 2553 1709 2553 
Q 1456 2553 1204 2497 
Q 953 2441 691 2322 
L 691 4666 
z
" transform="scale(0.015625)"/>
       </defs>
       <use xlink:href="#DejaVuSans-2212"/>
       <use xlink:href="#DejaVuSans-30" x="83.789062"/>
       <use xlink:href="#DejaVuSans-2e" x="147.412109"/>
       <use xlink:href="#DejaVuSans-30" x="179.199219"/>
       <use xlink:href="#DejaVuSans-30" x="242.822266"/>
       <use xlink:href="#DejaVuSans-37" x="306.445312"/>
       <use xlink:href="#DejaVuSans-35" x="370.068359"/>
      </g>
     </g>
    </g>
    <g id="ytick_2">
     <g id="line2d_6">
      <g>
       <use xlink:href="#m141cd6182f" x="90.690625" y="174.538644" style="stroke: #000000; stroke-width: 0.8"/>
      </g>
     </g>
     <g id="text_7">
      <!-- −0.0050 -->
      <g transform="translate(14.298125 180.617394) scale(0.16 -0.16)">
       <use xlink:href="#DejaVuSans-2212"/>
       <use xlink:href="#DejaVuSans-30" x="83.789062"/>
       <use xlink:href="#DejaVuSans-2e" x="147.412109"/>
       <use xlink:href="#DejaVuSans-30" x="179.199219"/>
       <use xlink:href="#DejaVuSans-30" x="242.822266"/>
       <use xlink:href="#DejaVuSans-35" x="306.445312"/>
       <use xlink:href="#DejaVuSans-30" x="370.068359"/>
      </g>
     </g>
    </g>
    <g id="ytick_3">
     <g id="line2d_7">
      <g>
       <use xlink:href="#m141cd6182f" x="90.690625" y="137.56118" style="stroke: #000000; stroke-width: 0.8"/>
      </g>
     </g>
     <g id="text_8">
      <!-- −0.0025 -->
      <g transform="translate(14.298125 143.63993) scale(0.16 -0.16)">
       <use xlink:href="#DejaVuSans-2212"/>
       <use xlink:href="#DejaVuSans-30" x="83.789062"/>
       <use xlink:href="#DejaVuSans-2e" x="147.412109"/>
       <use xlink:href="#DejaVuSans-30" x="179.199219"/>
       <use xlink:href="#DejaVuSans-30" x="242.822266"/>
       <use xlink:href="#DejaVuSans-32" x="306.445312"/>
       <use xlink:href="#DejaVuSans-35" x="370.068359"/>
      </g>
     </g>
    </g>
    <g id="ytick_4">
     <g id="line2d_8">
      <g>
       <use xlink:href="#m141cd6182f" x="90.690625" y="100.583715" style="stroke: #000000; stroke-width: 0.8"/>
      </g>
     </g>
     <g id="text_9">
      <!-- 0.0000 -->
      <g transform="translate(27.705625 106.662465) scale(0.16 -0.16)">
       <use xlink:href="#DejaVuSans-30"/>
       <use xlink:href="#DejaVuSans-2e" x="63.623047"/>
       <use xlink:href="#DejaVuSans-30" x="95.410156"/>
       <use xlink:href="#DejaVuSans-30" x="159.033203"/>
       <use xlink:href="#DejaVuSans-30" x="222.65625"/>
       <use xlink:href="#DejaVuSans-30" x="286.279297"/>
      </g>
     </g>
    </g>
    <g id="ytick_5">
     <g id="line2d_9">
      <g>
       <use xlink:href="#m141cd6182f" x="90.690625" y="63.606251" style="stroke: #000000; stroke-width: 0.8"/>
      </g>
     </g>
     <g id="text_10">
      <!-- 0.0025 -->
      <g transform="translate(27.705625 69.685001) scale(0.16 -0.16)">
       <use xlink:href="#DejaVuSans-30"/>
       <use xlink:href="#DejaVuSans-2e" x="63.623047"/>
       <use xlink:href="#DejaVuSans-30" x="95.410156"/>
       <use xlink:href="#DejaVuSans-30" x="159.033203"/>
       <use xlink:href="#DejaVuSans-32" x="222.65625"/>
       <use xlink:href="#DejaVuSans-35" x="286.279297"/>
      </g>
     </g>
    </g>
    <g id="ytick_6">
     <g id="line2d_10">
      <g>
       <use xlink:href="#m141cd6182f" x="90.690625" y="26.628786" style="stroke: #000000; stroke-width: 0.8"/>
      </g>
     </g>
     <g id="text_11">
      <!-- 0.0050 -->
      <g transform="translate(27.705625 32.707536) scale(0.16 -0.16)">
       <use xlink:href="#DejaVuSans-30"/>
       <use xlink:href="#DejaVuSans-2e" x="63.623047"/>
       <use xlink:href="#DejaVuSans-30" x="95.410156"/>
       <use xlink:href="#DejaVuSans-30" x="159.033203"/>
       <use xlink:href="#DejaVuSans-35" x="222.65625"/>
       <use xlink:href="#DejaVuSans-30" x="286.279297"/>
      </g>
     </g>
    </g>
    <g id="text_12">
     <!-- Rate Tracking Error (rad/s)  -->
     <g transform="translate(8.218438 193.219219) rotate(-90) scale(0.1 -0.1)">
      <defs>
       <path id="DejaVuSans-52" d="M 2841 2188 
Q 3044 2119 3236 1894 
Q 3428 1669 3622 1275 
L 4263 0 
L 3584 0 
L 2988 1197 
Q 2756 1666 2539 1819 
Q 2322 1972 1947 1972 
L 1259 1972 
L 1259 0 
L 628 0 
L 628 4666 
L 2053 4666 
Q 2853 4666 3247 4331 
Q 3641 3997 3641 3322 
Q 3641 2881 3436 2590 
Q 3231 2300 2841 2188 
z
M 1259 4147 
L 1259 2491 
L 2053 2491 
Q 2509 2491 2742 2702 
Q 2975 2913 2975 3322 
Q 2975 3731 2742 3939 
Q 2509 4147 2053 4147 
L 1259 4147 
z
" transform="scale(0.015625)"/>
       <path id="DejaVuSans-61" d="M 2194 1759 
Q 1497 1759 1228 1600 
Q 959 1441 959 1056 
Q 959 750 1161 570 
Q 1363 391 1709 391 
Q 2188 391 2477 730 
Q 2766 1069 2766 1631 
L 2766 1759 
L 2194 1759 
z
M 3341 1997 
L 3341 0 
L 2766 0 
L 2766 531 
Q 2569 213 2275 61 
Q 1981 -91 1556 -91 
Q 1019 -91 701 211 
Q 384 513 384 1019 
Q 384 1609 779 1909 
Q 1175 2209 1959 2209 
L 2766 2209 
L 2766 2266 
Q 2766 2663 2505 2880 
Q 2244 3097 1772 3097 
Q 1472 3097 1187 3025 
Q 903 2953 641 2809 
L 641 3341 
Q 956 3463 1253 3523 
Q 1550 3584 1831 3584 
Q 2591 3584 2966 3190 
Q 3341 2797 3341 1997 
z
" transform="scale(0.015625)"/>
       <path id="DejaVuSans-74" d="M 1172 4494 
L 1172 3500 
L 2356 3500 
L 2356 3053 
L 1172 3053 
L 1172 1153 
Q 1172 725 1289 603 
Q 1406 481 1766 481 
L 2356 481 
L 2356 0 
L 1766 0 
Q 1100 0 847 248 
Q 594 497 594 1153 
L 594 3053 
L 172 3053 
L 172 3500 
L 594 3500 
L 594 4494 
L 1172 4494 
z
" transform="scale(0.015625)"/>
       <path id="DejaVuSans-72" d="M 2631 2963 
Q 2534 3019 2420 3045 
Q 2306 3072 2169 3072 
Q 1681 3072 1420 2755 
Q 1159 2438 1159 1844 
L 1159 0 
L 581 0 
L 581 3500 
L 1159 3500 
L 1159 2956 
Q 1341 3275 1631 3429 
Q 1922 3584 2338 3584 
Q 2397 3584 2469 3576 
Q 2541 3569 2628 3553 
L 2631 2963 
z
" transform="scale(0.015625)"/>
       <path id="DejaVuSans-63" d="M 3122 3366 
L 3122 2828 
Q 2878 2963 2633 3030 
Q 2388 3097 2138 3097 
Q 1578 3097 1268 2742 
Q 959 2388 959 1747 
Q 959 1106 1268 751 
Q 1578 397 2138 397 
Q 2388 397 2633 464 
Q 2878 531 3122 666 
L 3122 134 
Q 2881 22 2623 -34 
Q 2366 -91 2075 -91 
Q 1284 -91 818 406 
Q 353 903 353 1747 
Q 353 2603 823 3093 
Q 1294 3584 2113 3584 
Q 2378 3584 2631 3529 
Q 2884 3475 3122 3366 
z
" transform="scale(0.015625)"/>
       <path id="DejaVuSans-6b" d="M 581 4863 
L 1159 4863 
L 1159 1991 
L 2875 3500 
L 3609 3500 
L 1753 1863 
L 3688 0 
L 2938 0 
L 1159 1709 
L 1159 0 
L 581 0 
L 581 4863 
z
" transform="scale(0.015625)"/>
       <path id="DejaVuSans-67" d="M 2906 1791 
Q 2906 2416 2648 2759 
Q 2391 3103 1925 3103 
Q 1463 3103 1205 2759 
Q 947 2416 947 1791 
Q 947 1169 1205 825 
Q 1463 481 1925 481 
Q 2391 481 2648 825 
Q 2906 1169 2906 1791 
z
M 3481 434 
Q 3481 -459 3084 -895 
Q 2688 -1331 1869 -1331 
Q 1566 -1331 1297 -1286 
Q 1028 -1241 775 -1147 
L 775 -588 
Q 1028 -725 1275 -790 
Q 1522 -856 1778 -856 
Q 2344 -856 2625 -561 
Q 2906 -266 2906 331 
L 2906 616 
Q 2728 306 2450 153 
Q 2172 0 1784 0 
Q 1141 0 747 490 
Q 353 981 353 1791 
Q 353 2603 747 3093 
Q 1141 3584 1784 3584 
Q 2172 3584 2450 3431 
Q 2728 3278 2906 2969 
L 2906 3500 
L 3481 3500 
L 3481 434 
z
" transform="scale(0.015625)"/>
       <path id="DejaVuSans-45" d="M 628 4666 
L 3578 4666 
L 3578 4134 
L 1259 4134 
L 1259 2753 
L 3481 2753 
L 3481 2222 
L 1259 2222 
L 1259 531 
L 3634 531 
L 3634 0 
L 628 0 
L 628 4666 
z
" transform="scale(0.015625)"/>
       <path id="DejaVuSans-6f" d="M 1959 3097 
Q 1497 3097 1228 2736 
Q 959 2375 959 1747 
Q 959 1119 1226 758 
Q 1494 397 1959 397 
Q 2419 397 2687 759 
Q 2956 1122 2956 1747 
Q 2956 2369 2687 2733 
Q 2419 3097 1959 3097 
z
M 1959 3584 
Q 2709 3584 3137 3096 
Q 3566 2609 3566 1747 
Q 3566 888 3137 398 
Q 2709 -91 1959 -91 
Q 1206 -91 779 398 
Q 353 888 353 1747 
Q 353 2609 779 3096 
Q 1206 3584 1959 3584 
z
" transform="scale(0.015625)"/>
       <path id="DejaVuSans-28" d="M 1984 4856 
Q 1566 4138 1362 3434 
Q 1159 2731 1159 2009 
Q 1159 1288 1364 580 
Q 1569 -128 1984 -844 
L 1484 -844 
Q 1016 -109 783 600 
Q 550 1309 550 2009 
Q 550 2706 781 3412 
Q 1013 4119 1484 4856 
L 1984 4856 
z
" transform="scale(0.015625)"/>
       <path id="DejaVuSans-64" d="M 2906 2969 
L 2906 4863 
L 3481 4863 
L 3481 0 
L 2906 0 
L 2906 525 
Q 2725 213 2448 61 
Q 2172 -91 1784 -91 
Q 1150 -91 751 415 
Q 353 922 353 1747 
Q 353 2572 751 3078 
Q 1150 3584 1784 3584 
Q 2172 3584 2448 3432 
Q 2725 3281 2906 2969 
z
M 947 1747 
Q 947 1113 1208 752 
Q 1469 391 1925 391 
Q 2381 391 2643 752 
Q 2906 1113 2906 1747 
Q 2906 2381 2643 2742 
Q 2381 3103 1925 3103 
Q 1469 3103 1208 2742 
Q 947 2381 947 1747 
z
" transform="scale(0.015625)"/>
       <path id="DejaVuSans-2f" d="M 1625 4666 
L 2156 4666 
L 531 -594 
L 0 -594 
L 1625 4666 
z
" transform="scale(0.015625)"/>
       <path id="DejaVuSans-73" d="M 2834 3397 
L 2834 2853 
Q 2591 2978 2328 3040 
Q 2066 3103 1784 3103 
Q 1356 3103 1142 2972 
Q 928 2841 928 2578 
Q 928 2378 1081 2264 
Q 1234 2150 1697 2047 
L 1894 2003 
Q 2506 1872 2764 1633 
Q 3022 1394 3022 966 
Q 3022 478 2636 193 
Q 2250 -91 1575 -91 
Q 1294 -91 989 -36 
Q 684 19 347 128 
L 347 722 
Q 666 556 975 473 
Q 1284 391 1588 391 
Q 1994 391 2212 530 
Q 2431 669 2431 922 
Q 2431 1156 2273 1281 
Q 2116 1406 1581 1522 
L 1381 1569 
Q 847 1681 609 1914 
Q 372 2147 372 2553 
Q 372 3047 722 3315 
Q 1072 3584 1716 3584 
Q 2034 3584 2315 3537 
Q 2597 3491 2834 3397 
z
" transform="scale(0.015625)"/>
       <path id="DejaVuSans-29" d="M 513 4856 
L 1013 4856 
Q 1481 4119 1714 3412 
Q 1947 2706 1947 2009 
Q 1947 1309 1714 600 
Q 1481 -109 1013 -844 
L 513 -844 
Q 928 -128 1133 580 
Q 1338 1288 1338 2009 
Q 1338 2731 1133 3434 
Q 928 4138 513 4856 
z
" transform="scale(0.015625)"/>
      </defs>
      <use xlink:href="#DejaVuSans-52"/>
      <use xlink:href="#DejaVuSans-61" x="67.232422"/>
      <use xlink:href="#DejaVuSans-74" x="128.511719"/>
      <use xlink:href="#DejaVuSans-65" x="167.720703"/>
      <use xlink:href="#DejaVuSans-20" x="229.244141"/>
      <use xlink:href="#DejaVuSans-54" x="261.03125"/>
      <use xlink:href="#DejaVuSans-72" x="307.365234"/>
      <use xlink:href="#DejaVuSans-61" x="348.478516"/>
      <use xlink:href="#DejaVuSans-63" x="409.757812"/>
      <use xlink:href="#DejaVuSans-6b" x="464.738281"/>
      <use xlink:href="#DejaVuSans-69" x="522.648438"/>
      <use xlink:href="#DejaVuSans-6e" x="550.431641"/>
      <use xlink:href="#DejaVuSans-67" x="613.810547"/>
      <use xlink:href="#DejaVuSans-20" x="677.287109"/>
      <use xlink:href="#DejaVuSans-45" x="709.074219"/>
      <use xlink:href="#DejaVuSans-72" x="772.257812"/>
      <use xlink:href="#DejaVuSans-72" x="811.621094"/>
      <use xlink:href="#DejaVuSans-6f" x="850.484375"/>
      <use xlink:href="#DejaVuSans-72" x="911.666016"/>
      <use xlink:href="#DejaVuSans-20" x="952.779297"/>
      <use xlink:href="#DejaVuSans-28" x="984.566406"/>
      <use xlink:href="#DejaVuSans-72" x="1023.580078"/>
      <use xlink:href="#DejaVuSans-61" x="1064.693359"/>
      <use xlink:href="#DejaVuSans-64" x="1125.972656"/>
      <use xlink:href="#DejaVuSans-2f" x="1189.449219"/>
      <use xlink:href="#DejaVuSans-73" x="1223.140625"/>
      <use xlink:href="#DejaVuSans-29" x="1275.240234"/>
      <use xlink:href="#DejaVuSans-20" x="1314.253906"/>
     </g>
    </g>
   </g>
   <g id="line2d_11">
    <path d="M 104.864419 100.583715 
L 116.203454 100.583715 
L 116.392438 101.173917 
L 117.148374 101.173917 
L 117.337358 102.785081 
L 118.093293 102.785081 
L 118.282277 104.347297 
L 119.038213 104.347297 
L 119.227197 105.852577 
L 119.983132 105.852577 
L 120.172116 107.293352 
L 120.928052 107.293352 
L 121.117036 108.662495 
L 121.872972 108.662495 
L 122.061956 109.953345 
L 122.817891 109.953345 
L 123.006875 111.159719 
L 123.762811 111.159719 
L 123.951795 112.275928 
L 124.70773 112.275928 
L 124.896714 113.296788 
L 125.65265 113.296788 
L 125.841634 114.217629 
L 126.59757 114.217629 
L 126.786553 115.034295 
L 127.542489 115.034295 
L 127.731473 115.743154 
L 128.487409 115.743154 
L 128.676393 116.341091 
L 129.432328 116.341091 
L 129.621312 116.82551 
L 130.377248 116.82551 
L 130.566232 117.194323 
L 131.322168 117.194323 
L 131.511151 117.44595 
L 132.267087 117.44595 
L 132.456071 117.579302 
L 135.101846 117.489234 
L 135.29083 117.265997 
L 136.046765 117.265997 
L 136.235749 116.92482 
L 136.991685 116.92482 
L 137.180669 116.46688 
L 137.936605 116.46688 
L 138.125589 115.893752 
L 138.881524 115.893752 
L 139.070508 115.207394 
L 139.826444 115.207394 
L 140.015428 114.410119 
L 140.771363 114.410119 
L 140.960347 113.504582 
L 141.716283 113.504582 
L 141.905267 112.493747 
L 142.661203 112.493747 
L 142.850187 111.380872 
L 143.606122 111.380872 
L 143.795106 110.169483 
L 144.551042 110.169483 
L 144.740026 108.437042 
L 145.495961 108.437042 
L 145.684945 106.296491 
L 146.440881 106.296491 
L 146.629865 103.869557 
L 147.385801 103.869557 
L 147.574785 101.32909 
L 148.33072 101.32909 
L 148.519704 98.807016 
L 149.27564 98.807016 
L 149.464624 96.388866 
L 150.220559 96.388866 
L 150.409543 94.125681 
L 151.165479 94.125681 
L 151.354463 92.043308 
L 152.110399 92.043308 
L 152.299383 90.149611 
L 153.055318 90.149611 
L 153.244302 88.440011 
L 154.000238 88.440011 
L 154.189222 86.901708 
L 154.945157 86.901708 
L 155.134141 85.516867 
L 155.890077 85.516867 
L 156.079061 84.264966 
L 156.834997 84.264966 
L 157.02398 83.124512 
L 157.779916 83.124512 
L 157.9689 82.074252 
L 158.724836 82.074252 
L 158.91382 81.126783 
L 160.614675 81.056742 
L 160.803659 81.570364 
L 161.559595 81.570364 
L 161.748578 82.437487 
L 162.504514 82.437487 
L 162.693498 83.499995 
L 163.449434 83.499995 
L 163.638418 84.65588 
L 164.394353 84.65588 
L 164.583337 85.842006 
L 165.339273 85.842006 
L 165.528257 87.004472 
L 166.284192 87.004472 
L 166.473176 88.104356 
L 167.229112 88.104356 
L 167.418096 89.148462 
L 168.174032 89.148462 
L 168.363016 90.143708 
L 169.118951 90.143708 
L 169.307935 91.086005 
L 170.063871 91.086005 
L 170.252855 91.940964 
L 171.00879 91.940964 
L 171.197774 92.711308 
L 171.95371 92.711308 
L 172.142694 93.401647 
L 172.89863 93.401647 
L 173.087614 94.017764 
L 173.843549 94.017764 
L 174.032533 94.566066 
L 174.788469 94.566066 
L 174.977453 95.053194 
L 175.733388 95.053194 
L 175.922372 95.485737 
L 176.678308 95.485737 
L 176.867292 95.87258 
L 177.623228 95.87258 
L 177.812212 96.225211 
L 178.568147 96.225211 
L 178.757131 96.552924 
L 179.513067 96.552924 
L 179.702051 96.861061 
L 180.457986 96.861061 
L 180.64697 97.152477 
L 181.402906 97.152477 
L 181.59189 97.42853 
L 182.347826 97.42853 
L 182.53681 97.689754 
L 183.292745 97.689754 
L 183.481729 97.936277 
L 184.237665 97.936277 
L 184.426649 98.16809 
L 185.182584 98.16809 
L 185.371568 98.385196 
L 186.127504 98.385196 
L 186.316488 98.587693 
L 187.072424 98.587693 
L 187.261407 98.775803 
L 188.017343 98.775803 
L 188.206327 98.949878 
L 188.962263 98.949878 
L 189.151247 99.110389 
L 189.907182 99.110389 
L 190.096166 99.257899 
L 190.852102 99.257899 
L 191.041086 99.393048 
L 191.797022 99.393048 
L 191.986005 99.516525 
L 192.741941 99.516525 
L 192.930925 99.629047 
L 194.63178 99.731345 
L 194.820764 99.824146 
L 196.521619 99.908159 
L 196.710603 99.984074 
L 198.411459 100.052549 
L 198.694935 100.114207 
L 201.246217 100.219384 
L 201.529693 100.263964 
L 205.025896 100.371251 
L 205.498356 100.39954 
L 210.695413 100.499586 
L 211.545841 100.513127 
L 211.640333 100.513127 
L 211.829317 114.096747 
L 212.585253 114.096747 
L 212.774237 115.624624 
L 213.530172 115.624624 
L 213.719156 115.218994 
L 214.475092 115.218994 
L 214.664076 114.737142 
L 215.420011 114.737142 
L 215.608995 114.180279 
L 216.364931 114.180279 
L 216.553915 113.549835 
L 217.309851 113.549835 
L 217.498834 112.84744 
L 218.25477 112.84744 
L 218.443754 112.074912 
L 219.19969 112.074912 
L 219.388674 111.234245 
L 220.144609 111.234245 
L 220.333593 110.32759 
L 221.089529 110.32759 
L 221.278513 109.357247 
L 222.034449 109.357247 
L 222.223432 108.325645 
L 222.979368 108.325645 
L 223.168352 107.235332 
L 223.924288 107.235332 
L 224.113272 106.088957 
L 224.869207 106.088957 
L 225.058191 104.890214 
L 225.814127 104.890214 
L 226.003111 103.655761 
L 226.759046 103.655761 
L 226.94803 102.411648 
L 227.703966 102.411648 
L 227.89295 101.179091 
L 228.648886 101.179091 
L 228.83787 99.975135 
L 229.593805 99.975135 
L 229.782789 98.813244 
L 230.538725 98.813244 
L 230.727709 97.703829 
L 231.483644 97.703829 
L 231.672628 96.654725 
L 232.428564 96.654725 
L 232.617548 95.671599 
L 233.373484 95.671599 
L 233.562468 94.758319 
L 234.318403 94.758319 
L 234.507387 93.917273 
L 235.263323 93.917273 
L 235.452307 93.149639 
L 236.208242 93.149639 
L 236.397226 92.45563 
L 237.153162 92.45563 
L 237.342146 91.834692 
L 238.098082 91.834692 
L 238.287066 91.285679 
L 239.043001 91.285679 
L 239.231985 90.806999 
L 239.987921 90.806999 
L 240.176905 90.396737 
L 240.93284 90.396737 
L 241.121824 90.052756 
L 241.87776 90.052756 
L 242.066744 89.772783 
L 242.82268 89.772783 
L 243.011663 89.554474 
L 243.767599 89.554474 
L 243.956583 89.395472 
L 245.657438 89.29345 
L 245.940914 89.246142 
L 248.492197 89.307078 
L 248.681181 89.411305 
L 249.437117 89.411305 
L 249.626101 89.562238 
L 250.382036 89.562238 
L 250.57102 89.758194 
L 251.326956 89.758194 
L 251.51594 89.997622 
L 252.271876 89.997622 
L 252.460859 90.27911 
L 253.216795 90.27911 
L 253.405779 90.601376 
L 254.161715 90.601376 
L 254.350699 90.963267 
L 255.106634 90.963267 
L 255.295618 91.363753 
L 256.051554 91.363753 
L 256.240538 91.801922 
L 256.996473 91.801922 
L 257.185457 92.276974 
L 257.941393 92.276974 
L 258.130377 92.788215 
L 258.886313 92.788215 
L 259.075297 93.335051 
L 259.831232 93.335051 
L 260.020216 93.91698 
L 260.776152 93.91698 
L 260.965136 94.53359 
L 261.721071 94.53359 
L 261.910055 95.18455 
L 262.665991 95.18455 
L 262.854975 95.869604 
L 263.610911 95.869604 
L 263.799895 96.588571 
L 264.55583 96.588571 
L 264.744814 97.341335 
L 265.50075 97.341335 
L 265.689734 98.630829 
L 266.445669 98.630829 
L 266.634653 100.421743 
L 267.390589 100.421743 
L 267.579573 102.598058 
L 268.335509 102.598058 
L 268.524493 105.062787 
L 269.280428 105.062787 
L 269.469412 107.731605 
L 270.225348 107.731605 
L 270.414332 109.42567 
L 271.170267 109.42567 
L 271.359251 110.366828 
L 272.115187 110.366828 
L 272.304171 110.751112 
L 273.060107 110.751112 
L 273.24909 111.07479 
L 274.005026 111.07479 
L 274.19401 111.367892 
L 274.949946 111.367892 
L 275.13893 111.61177 
L 275.894865 111.61177 
L 276.083849 111.792568 
L 277.784705 111.900393 
L 278.257164 111.928623 
L 279.674544 111.873307 
L 279.863528 111.73267 
L 280.619463 111.73267 
L 280.808447 111.506688 
L 281.564383 111.506688 
L 281.753367 111.19673 
L 282.509303 111.19673 
L 282.698286 110.805253 
L 283.454222 110.805253 
L 283.643206 110.335552 
L 284.399142 110.335552 
L 284.588126 109.791542 
L 285.344061 109.791542 
L 285.533045 109.177585 
L 286.288981 109.177585 
L 286.477965 108.498336 
L 287.2339 108.498336 
L 287.422884 107.758622 
L 288.17882 107.758622 
L 288.367804 106.963346 
L 289.12374 106.963346 
L 289.312724 106.117397 
L 290.068659 106.117397 
L 290.257643 105.22559 
L 291.013579 105.22559 
L 291.202563 104.292611 
L 291.958498 104.292611 
L 292.147482 103.322979 
L 292.903418 103.322979 
L 293.092402 102.32101 
L 293.848338 102.32101 
L 294.037322 101.290801 
L 294.793257 101.290801 
L 294.982241 100.23621 
L 295.738177 100.23621 
L 295.927161 99.160848 
L 296.683096 99.160848 
L 296.87208 98.068073 
L 297.628016 98.068073 
L 297.817 96.960991 
L 298.572936 96.960991 
L 298.76192 96.032868 
L 299.517855 96.032868 
L 299.706839 95.480509 
L 300.462775 95.480509 
L 300.651759 95.208647 
L 303.297534 95.221139 
L 303.486517 95.401102 
L 304.242453 95.401102 
L 304.431437 95.647164 
L 305.187373 95.647164 
L 305.376357 95.933427 
L 306.132292 95.933427 
L 306.321276 96.240799 
L 307.077212 96.240799 
L 307.266196 96.070373 
L 308.967051 96.028267 
L 309.156035 96.227937 
L 309.911971 96.227937 
L 310.100955 96.584637 
L 310.85689 96.584637 
L 311.045874 97.027936 
L 311.80181 97.027936 
L 311.990794 97.506116 
L 312.74673 97.506116 
L 312.935713 97.981016 
L 313.691649 97.981016 
L 313.880633 98.423014 
L 314.636569 98.423014 
L 314.825553 98.814494 
L 315.581488 98.814494 
L 315.770472 99.149068 
L 316.526408 99.149068 
L 316.715392 99.427177 
L 317.471327 99.427177 
L 317.660311 99.653122 
L 318.416247 99.653122 
L 318.605231 99.833099 
L 319.361167 99.833099 
L 319.550151 99.973956 
L 321.251006 100.082433 
L 321.43999 100.164738 
L 324.085765 100.271882 
L 324.463732 100.305237 
L 335.4248 100.413565 
L 337.409131 100.432579 
L 357.15795 100.542871 
L 360.748645 100.554473 
L 388.340297 100.582142 
L 388.340297 100.582142 
" clip-path="url(#p7659fe021a)" style="fill: none; stroke: #2b737e; stroke-width: 1.5; stroke-linecap: square"/>
   </g>
   <g id="line2d_12">
    <path d="M 104.864419 100.583715 
L 116.203454 100.583715 
L 116.392438 100.446741 
L 117.148374 100.446741 
L 117.337358 100.140112 
L 118.093293 100.140112 
L 118.282277 99.952331 
L 121.872972 100.056369 
L 122.061956 100.296155 
L 122.817891 100.296155 
L 123.006875 100.628888 
L 123.762811 100.628888 
L 123.951795 101.048329 
L 124.70773 101.048329 
L 124.896714 101.547975 
L 125.65265 101.547975 
L 125.841634 102.121095 
L 126.59757 102.121095 
L 126.786553 102.760774 
L 127.542489 102.760774 
L 127.731473 103.459944 
L 128.487409 103.459944 
L 128.676393 104.211427 
L 129.432328 104.211427 
L 129.621312 105.007965 
L 130.377248 105.007965 
L 130.566232 105.842257 
L 131.322168 105.842257 
L 131.511151 106.706997 
L 132.267087 106.706997 
L 132.456071 107.594897 
L 133.212007 107.594897 
L 133.400991 108.498727 
L 134.156926 108.498727 
L 134.34591 109.411341 
L 135.101846 109.411341 
L 135.29083 110.325702 
L 136.046765 110.325702 
L 136.235749 111.234914 
L 136.991685 111.234914 
L 137.180669 112.132243 
L 137.936605 112.132243 
L 138.125589 113.011139 
L 138.881524 113.011139 
L 139.070508 113.865261 
L 139.826444 113.865261 
L 140.015428 114.688492 
L 140.771363 114.688492 
L 140.960347 115.47496 
L 141.716283 115.47496 
L 141.905267 116.219051 
L 142.661203 116.219051 
L 142.850187 116.915425 
L 143.606122 116.915425 
L 143.795106 117.559028 
L 144.551042 117.559028 
L 144.740026 118.132166 
L 145.495961 118.132166 
L 145.684945 118.607779 
L 146.440881 118.607779 
L 146.629865 118.31847 
L 147.385801 118.31847 
L 147.574785 117.300841 
L 148.33072 117.300841 
L 148.519704 115.712747 
L 149.27564 115.712747 
L 149.464624 113.686025 
L 150.220559 113.686025 
L 150.409543 111.330346 
L 151.165479 111.330346 
L 151.354463 108.736514 
L 152.110399 108.736514 
L 152.299383 105.979272 
L 153.055318 105.979272 
L 153.244302 103.119725 
L 154.000238 103.119725 
L 154.189222 100.207395 
L 154.945157 100.207395 
L 155.134141 97.281995 
L 155.890077 97.281995 
L 156.079061 94.37495 
L 156.834997 94.37495 
L 157.02398 91.5107 
L 157.779916 91.5107 
L 157.9689 88.707823 
L 158.724836 88.707823 
L 158.91382 85.980883 
L 159.669755 85.980883 
L 159.858739 83.659018 
L 160.614675 83.659018 
L 160.803659 82.46263 
L 161.559595 82.46263 
L 161.748578 82.098379 
L 162.504514 82.098379 
L 162.693498 82.333211 
L 163.449434 82.333211 
L 163.638418 82.792437 
L 164.394353 82.792437 
L 164.583337 83.369429 
L 165.339273 83.369429 
L 165.528257 84.062095 
L 166.284192 84.062095 
L 166.473176 84.861076 
L 167.229112 84.861076 
L 167.418096 85.753171 
L 168.174032 85.753171 
L 168.363016 86.726327 
L 169.118951 86.726327 
L 169.307935 87.769279 
L 170.063871 87.769279 
L 170.252855 88.86958 
L 171.00879 88.86958 
L 171.197774 90.011664 
L 171.95371 90.011664 
L 172.142694 91.180941 
L 172.89863 91.180941 
L 173.087614 92.363963 
L 173.843549 92.363963 
L 174.032533 93.548506 
L 174.788469 93.548506 
L 174.977453 94.723595 
L 175.733388 94.723595 
L 175.922372 95.879488 
L 176.678308 95.879488 
L 176.867292 96.893619 
L 177.623228 96.893619 
L 177.812212 97.700963 
L 178.568147 97.700963 
L 178.757131 98.344654 
L 179.513067 98.344654 
L 179.702051 98.858825 
L 180.457986 98.858825 
L 180.64697 99.270385 
L 181.402906 99.270385 
L 181.59189 99.60049 
L 182.347826 99.60049 
L 182.53681 99.865748 
L 183.292745 99.865748 
L 183.481729 100.079188 
L 184.237665 100.079188 
L 184.426649 100.251043 
L 185.182584 100.251043 
L 185.371568 100.38936 
L 186.127504 100.38936 
L 186.316488 100.500491 
L 188.017343 100.589469 
L 188.206327 100.660306 
L 190.852102 100.759804 
L 191.23007 100.793179 
L 211.640333 100.721696 
L 211.829317 135.816047 
L 212.585253 135.816047 
L 212.774237 138.090487 
L 213.530172 138.090487 
L 213.719156 138.499448 
L 214.475092 138.499448 
L 214.664076 138.895122 
L 215.420011 138.895122 
L 215.608995 139.273538 
L 216.364931 139.273538 
L 216.553915 139.630864 
L 217.309851 139.630864 
L 217.498834 139.963422 
L 218.25477 139.963422 
L 218.443754 140.267693 
L 219.19969 140.267693 
L 219.388674 140.540325 
L 220.144609 140.540325 
L 220.333593 140.778144 
L 221.089529 140.778144 
L 221.278513 140.978156 
L 222.034449 140.978156 
L 222.223432 141.13755 
L 222.979368 141.13755 
L 223.168352 141.253708 
L 225.814127 141.31422 
L 226.003111 140.813952 
L 226.759046 140.813952 
L 226.94803 139.910417 
L 227.703966 139.910417 
L 227.89295 138.679048 
L 228.648886 138.679048 
L 228.83787 137.18481 
L 229.593805 137.18481 
L 229.782789 135.483274 
L 230.538725 135.483274 
L 230.727709 133.621644 
L 231.483644 133.621644 
L 231.672628 131.639711 
L 232.428564 131.639711 
L 232.617548 129.570751 
L 233.373484 129.570751 
L 233.562468 127.442336 
L 234.318403 127.442336 
L 234.507387 125.27709 
L 235.263323 125.27709 
L 235.452307 123.093356 
L 236.208242 123.093356 
L 236.397226 120.905809 
L 237.153162 120.905809 
L 237.342146 118.725997 
L 238.098082 118.725997 
L 238.287066 116.562823 
L 239.043001 116.562823 
L 239.231985 114.422969 
L 239.987921 114.422969 
L 240.176905 112.311267 
L 240.93284 112.311267 
L 241.121824 110.231031 
L 241.87776 110.231031 
L 242.066744 108.184328 
L 242.82268 108.184328 
L 243.011663 106.17223 
L 243.767599 106.17223 
L 243.956583 104.195017 
L 244.712519 104.195017 
L 244.901503 102.252353 
L 245.657438 102.252353 
L 245.846422 100.343439 
L 246.602358 100.343439 
L 246.791342 98.467132 
L 247.547278 98.467132 
L 247.736261 96.622052 
L 248.492197 96.622052 
L 248.681181 94.806668 
L 249.437117 94.806668 
L 249.626101 93.019361 
L 250.382036 93.019361 
L 250.57102 91.258486 
L 251.326956 91.258486 
L 251.51594 89.522412 
L 252.271876 89.522412 
L 252.460859 87.809555 
L 253.216795 87.809555 
L 253.405779 86.118403 
L 254.161715 86.118403 
L 254.350699 84.447536 
L 255.106634 84.447536 
L 255.295618 82.795637 
L 256.051554 82.795637 
L 256.240538 81.1615 
L 256.996473 81.1615 
L 257.185457 79.544032 
L 257.941393 79.544032 
L 258.130377 77.942256 
L 258.886313 77.942256 
L 259.075297 76.355309 
L 259.831232 76.355309 
L 260.020216 74.782436 
L 260.776152 74.782436 
L 260.965136 73.22299 
L 261.721071 73.22299 
L 261.910055 71.676422 
L 262.665991 71.676422 
L 262.854975 70.142276 
L 263.610911 70.142276 
L 263.799895 68.620182 
L 264.55583 68.620182 
L 264.744814 67.109853 
L 265.50075 67.109853 
L 265.689734 65.622215 
L 266.445669 65.622215 
L 266.634653 64.215875 
L 267.390589 64.215875 
L 267.579573 62.933314 
L 268.335509 62.933314 
L 268.524493 61.795959 
L 269.280428 61.795959 
L 269.469412 61.003963 
L 270.225348 61.003963 
L 270.414332 61.495765 
L 271.170267 61.495765 
L 271.359251 62.821123 
L 272.115187 62.821123 
L 272.304171 64.398649 
L 273.060107 64.398649 
L 273.24909 65.965226 
L 274.005026 65.965226 
L 274.19401 67.52752 
L 274.949946 67.52752 
L 275.13893 69.086073 
L 275.894865 69.086073 
L 276.083849 70.639092 
L 276.839785 70.639092 
L 277.028769 72.183419 
L 277.784705 72.183419 
L 277.973688 73.715247 
L 278.729624 73.715247 
L 278.918608 75.230624 
L 279.674544 75.230624 
L 279.863528 76.725797 
L 280.619463 76.725797 
L 280.808447 78.197435 
L 281.564383 78.197435 
L 281.753367 79.642765 
L 282.509303 79.642765 
L 282.698286 81.059633 
L 283.454222 81.059633 
L 283.643206 82.446522 
L 284.399142 82.446522 
L 284.588126 83.802528 
L 285.344061 83.802528 
L 285.533045 85.127322 
L 286.288981 85.127322 
L 286.477965 86.421086 
L 287.2339 86.421086 
L 287.422884 87.684455 
L 288.17882 87.684455 
L 288.367804 88.91844 
L 289.12374 88.91844 
L 289.312724 90.124364 
L 290.068659 90.124364 
L 290.257643 91.303792 
L 291.013579 91.303792 
L 291.202563 92.458473 
L 291.958498 92.458473 
L 292.147482 93.59028 
L 292.903418 93.59028 
L 293.092402 94.701163 
L 293.848338 94.701163 
L 294.037322 95.7931 
L 294.793257 95.7931 
L 294.982241 96.868064 
L 295.738177 96.868064 
L 295.927161 97.92799 
L 296.683096 97.92799 
L 296.87208 98.974747 
L 297.628016 98.974747 
L 297.817 100.010118 
L 298.572936 100.010118 
L 298.76192 100.926792 
L 299.517855 100.926792 
L 299.706839 101.515109 
L 300.462775 101.515109 
L 300.651759 101.878767 
L 301.407694 101.878767 
L 301.596678 102.090627 
L 303.297534 102.201364 
L 303.581009 102.245826 
L 307.077212 102.181603 
L 307.266196 115.106481 
L 308.022132 115.106481 
L 308.211115 112.402591 
L 308.967051 112.402591 
L 309.156035 109.704471 
L 309.911971 109.704471 
L 310.100955 107.215461 
L 310.85689 107.215461 
L 311.045874 105.015044 
L 311.80181 105.015044 
L 311.990794 103.066185 
L 312.74673 103.066185 
L 312.935713 101.539492 
L 313.691649 101.539492 
L 313.880633 100.48166 
L 314.636569 100.48166 
L 314.825553 99.771932 
L 315.581488 99.771932 
L 315.770472 99.31772 
L 316.526408 99.31772 
L 316.715392 99.048614 
L 317.471327 99.048614 
L 317.660311 98.911511 
L 321.251006 98.94435 
L 321.43999 99.029643 
L 323.140845 99.129588 
L 323.329829 99.23637 
L 325.030684 99.344621 
L 325.219668 99.45076 
L 326.920523 99.552498 
L 327.109507 99.648462 
L 328.810363 99.737926 
L 328.999347 99.820609 
L 330.700202 99.896525 
L 330.889186 99.965883 
L 332.590041 100.029007 
L 332.873517 100.08629 
L 335.4248 100.185026 
L 335.708276 100.227328 
L 339.204478 100.330697 
L 339.676938 100.358475 
L 344.873996 100.460086 
L 345.629931 100.474527 
L 388.340297 100.584751 
L 388.340297 100.584751 
" clip-path="url(#p7659fe021a)" style="fill: none; stroke: #5ea04b; stroke-width: 1.5; stroke-linecap: square"/>
   </g>
   <g id="line2d_13">
    <path d="M 104.864419 100.583715 
L 116.203454 100.583715 
L 116.392438 214.958061 
L 117.148374 214.958061 
L 117.337358 213.029123 
L 118.093293 213.029123 
L 118.282277 208.339032 
L 119.038213 208.339032 
L 119.227197 203.628419 
L 119.983132 203.628419 
L 120.172116 198.898447 
L 120.928052 198.898447 
L 121.117036 194.150358 
L 121.872972 194.150358 
L 122.061956 189.385468 
L 122.817891 189.385468 
L 123.006875 184.605158 
L 123.762811 184.605158 
L 123.951795 179.810866 
L 124.70773 179.810866 
L 124.896714 175.00408 
L 125.65265 175.00408 
L 125.841634 170.186333 
L 126.59757 170.186333 
L 126.786553 165.359191 
L 127.542489 165.359191 
L 127.731473 160.524249 
L 128.487409 160.524249 
L 128.676393 155.683123 
L 129.432328 155.683123 
L 129.621312 150.837443 
L 130.377248 150.837443 
L 130.566232 145.988846 
L 131.322168 145.988846 
L 131.511151 141.138968 
L 132.267087 141.138968 
L 132.456071 136.289439 
L 133.212007 136.289439 
L 133.400991 131.441877 
L 134.156926 131.441877 
L 134.34591 126.59788 
L 135.101846 126.59788 
L 135.29083 121.759024 
L 136.046765 121.759024 
L 136.235749 116.926852 
L 136.991685 116.926852 
L 137.180669 112.102873 
L 137.936605 112.102873 
L 138.125589 107.288558 
L 138.881524 107.288558 
L 139.070508 102.485332 
L 139.826444 102.485332 
L 140.015428 97.694572 
L 140.771363 97.694572 
L 140.960347 92.917602 
L 141.716283 92.917602 
L 141.905267 88.155692 
L 142.661203 88.155692 
L 142.850187 83.410053 
L 143.606122 83.410053 
L 143.795106 78.681833 
L 144.551042 78.681833 
L 144.740026 74.379988 
L 145.495961 74.379988 
L 145.684945 70.412596 
L 146.440881 70.412596 
L 146.629865 67.308743 
L 147.385801 67.308743 
L 147.574785 64.908193 
L 148.33072 64.908193 
L 148.519704 62.973942 
L 149.27564 62.973942 
L 149.464624 61.332275 
L 150.220559 61.332275 
L 150.409543 59.858083 
L 151.165479 59.858083 
L 151.354463 58.463267 
L 152.110399 58.463267 
L 152.299383 57.087627 
L 153.055318 57.087627 
L 153.244302 55.69173 
L 154.000238 55.69173 
L 154.189222 54.251369 
L 154.945157 54.251369 
L 155.134141 52.753291 
L 155.890077 52.753291 
L 156.079061 51.191923 
L 156.834997 51.191923 
L 157.02398 49.566894 
L 157.779916 49.566894 
L 157.9689 47.88118 
L 158.724836 47.88118 
L 158.91382 46.170335 
L 159.669755 46.170335 
L 159.858739 45.467863 
L 160.614675 45.467863 
L 160.803659 46.201714 
L 161.559595 46.201714 
L 161.748578 47.93787 
L 162.504514 47.93787 
L 162.693498 50.346543 
L 163.449434 50.346543 
L 163.638418 52.996691 
L 164.394353 52.996691 
L 164.583337 55.729928 
L 165.339273 55.729928 
L 165.528257 58.495272 
L 166.284192 58.495272 
L 166.473176 61.252226 
L 167.229112 61.252226 
L 167.418096 63.999522 
L 168.174032 63.999522 
L 168.363016 66.735601 
L 169.118951 66.735601 
L 169.307935 69.448598 
L 170.063871 69.448598 
L 170.252855 72.097767 
L 171.00879 72.097767 
L 171.197774 74.674057 
L 171.95371 74.674057 
L 172.142694 77.169763 
L 172.89863 77.169763 
L 173.087614 79.57832 
L 173.843549 79.57832 
L 174.032533 81.894169 
L 174.788469 81.894169 
L 174.977453 84.112666 
L 175.733388 84.112666 
L 175.922372 86.230022 
L 176.678308 86.230022 
L 176.867292 88.135141 
L 177.623228 88.135141 
L 177.812212 89.768296 
L 178.568147 89.768296 
L 178.757131 91.171073 
L 179.513067 91.171073 
L 179.702051 92.378259 
L 180.457986 92.378259 
L 180.64697 93.419043 
L 181.402906 93.419043 
L 181.59189 94.317974 
L 182.347826 94.317974 
L 182.53681 95.095752 
L 183.292745 95.095752 
L 183.481729 95.769869 
L 184.237665 95.769869 
L 184.426649 96.355132 
L 185.182584 96.355132 
L 185.371568 96.864102 
L 186.127504 96.864102 
L 186.316488 97.307451 
L 187.072424 97.307451 
L 187.261407 97.694262 
L 188.017343 97.694262 
L 188.206327 98.032278 
L 188.962263 98.032278 
L 189.151247 98.32811 
L 189.907182 98.32811 
L 190.096166 98.587414 
L 190.852102 98.587414 
L 191.041086 98.815031 
L 191.797022 98.815031 
L 191.986005 99.015116 
L 192.741941 99.015116 
L 192.930925 99.191242 
L 193.686861 99.191242 
L 193.875845 99.34648 
L 194.63178 99.34648 
L 194.820764 99.483482 
L 195.5767 99.483482 
L 195.765684 99.604535 
L 197.466539 99.711621 
L 197.655523 99.806455 
L 199.356378 99.890527 
L 199.545362 99.965132 
L 201.246217 100.031397 
L 201.529693 100.090308 
L 204.080976 100.189399 
L 204.364452 100.23099 
L 207.860655 100.330721 
L 208.333114 100.357118 
L 211.640333 100.420688 
L 211.829317 230.571562 
L 212.585253 230.571562 
L 212.774237 227.214546 
L 213.530172 227.214546 
L 213.719156 222.493913 
L 214.475092 222.493913 
L 214.664076 217.780412 
L 215.420011 217.780412 
L 215.608995 213.074982 
L 216.364931 213.074982 
L 216.553915 208.378536 
L 217.309851 208.378536 
L 217.498834 203.691953 
L 218.25477 203.691953 
L 218.443754 199.016076 
L 219.19969 199.016076 
L 219.388674 194.351716 
L 220.144609 194.351716 
L 220.333593 189.699641 
L 221.089529 189.699641 
L 221.278513 185.060584 
L 222.034449 185.060584 
L 222.223432 180.435235 
L 222.979368 180.435235 
L 223.168352 175.824243 
L 223.924288 175.824243 
L 224.113272 171.228216 
L 224.869207 171.228216 
L 225.058191 166.678411 
L 225.814127 166.678411 
L 226.003111 162.559309 
L 226.759046 162.559309 
L 226.94803 158.785959 
L 227.703966 158.785959 
L 227.89295 155.285542 
L 228.648886 155.285542 
L 228.83787 151.996115 
L 229.593805 151.996115 
L 229.782789 148.865426 
L 230.538725 148.865426 
L 230.727709 145.849792 
L 231.483644 145.849792 
L 231.672628 142.913071 
L 232.428564 142.913071 
L 232.617548 140.025707 
L 233.373484 140.025707 
L 233.562468 137.163859 
L 234.318403 137.163859 
L 234.507387 134.30861 
L 235.263323 134.30861 
L 235.452307 131.445263 
L 236.208242 131.445263 
L 236.397226 128.562699 
L 237.153162 128.562699 
L 237.342146 125.652815 
L 238.098082 125.652815 
L 238.287066 122.710028 
L 239.043001 122.710028 
L 239.231985 119.730833 
L 239.987921 119.730833 
L 240.176905 116.713428 
L 240.93284 116.713428 
L 241.121824 113.657378 
L 241.87776 113.657378 
L 242.066744 110.563337 
L 242.82268 110.563337 
L 243.011663 107.432806 
L 243.767599 107.432806 
L 243.956583 104.267924 
L 244.712519 104.267924 
L 244.901503 101.071301 
L 245.657438 101.071301 
L 245.846422 97.845871 
L 246.602358 97.845871 
L 246.791342 94.594777 
L 247.547278 94.594777 
L 247.736261 91.321275 
L 248.492197 91.321275 
L 248.681181 88.028657 
L 249.437117 88.028657 
L 249.626101 84.720189 
L 250.382036 84.720189 
L 250.57102 81.399064 
L 251.326956 81.399064 
L 251.51594 78.068373 
L 252.271876 78.068373 
L 252.460859 74.73107 
L 253.216795 74.73107 
L 253.405779 71.389964 
L 254.161715 71.389964 
L 254.350699 68.047701 
L 255.106634 68.047701 
L 255.295618 64.706766 
L 256.051554 64.706766 
L 256.240538 61.369477 
L 256.996473 61.369477 
L 257.185457 58.037989 
L 257.941393 58.037989 
L 258.130377 54.714303 
L 258.886313 54.714303 
L 259.075297 51.400266 
L 259.831232 51.400266 
L 260.020216 48.097589 
L 260.776152 48.097589 
L 260.965136 44.807849 
L 261.721071 44.807849 
L 261.910055 41.532503 
L 262.665991 41.532503 
L 262.854975 38.272899 
L 263.610911 38.272899 
L 263.799895 35.030284 
L 264.55583 35.030284 
L 264.744814 31.805819 
L 265.50075 31.805819 
L 265.689734 29.070279 
L 266.445669 29.070279 
L 266.634653 26.747724 
L 267.390589 26.747724 
L 267.579573 24.702647 
L 268.335509 24.702647 
L 268.524493 22.837051 
L 269.280428 22.837051 
L 269.469412 21.265312 
L 270.225348 21.265312 
L 270.414332 21.904336 
L 271.170267 21.904336 
L 271.359251 24.121223 
L 272.115187 24.121223 
L 272.304171 27.172188 
L 273.060107 27.172188 
L 273.24909 30.307947 
L 274.005026 30.307947 
L 274.19401 33.455561 
L 274.949946 33.455561 
L 275.13893 36.595935 
L 275.894865 36.595935 
L 276.083849 39.716327 
L 276.839785 39.716327 
L 277.028769 42.808624 
L 277.784705 42.808624 
L 277.973688 45.86803 
L 278.729624 45.86803 
L 278.918608 48.892064 
L 279.674544 48.892064 
L 279.863528 51.879818 
L 280.619463 51.879818 
L 280.808447 54.83141 
L 281.564383 54.83141 
L 281.753367 57.747584 
L 282.509303 57.747584 
L 282.698286 60.629428 
L 283.454222 60.629428 
L 283.643206 63.478182 
L 284.399142 63.478182 
L 284.588126 66.295106 
L 285.344061 66.295106 
L 285.533045 69.0814 
L 286.288981 69.0814 
L 286.477965 71.838164 
L 287.2339 71.838164 
L 287.422884 74.566371 
L 288.17882 74.566371 
L 288.367804 77.266873 
L 289.12374 77.266873 
L 289.312724 79.940401 
L 290.068659 79.940401 
L 290.257643 82.587583 
L 291.013579 82.587583 
L 291.202563 85.208966 
L 291.958498 85.208966 
L 292.147482 87.805029 
L 292.903418 87.805029 
L 293.092402 90.376205 
L 293.848338 90.376205 
L 294.037322 92.9229 
L 294.793257 92.9229 
L 294.982241 95.445505 
L 295.738177 95.445505 
L 295.927161 97.944411 
L 296.683096 97.944411 
L 296.87208 100.420016 
L 297.628016 100.420016 
L 297.817 102.872736 
L 298.572936 102.872736 
L 298.76192 105.015465 
L 299.517855 105.015465 
L 299.706839 106.449051 
L 300.462775 106.449051 
L 300.651759 107.342013 
L 301.407694 107.342013 
L 301.596678 107.827439 
L 302.352614 107.827439 
L 302.541598 108.009984 
L 304.242453 107.971527 
L 304.431437 107.775753 
L 305.187373 107.775753 
L 305.376357 107.471856 
L 306.132292 107.471856 
L 306.321276 107.097519 
L 307.077212 107.097519 
L 307.266196 111.49977 
L 308.022132 111.49977 
L 308.211115 110.565962 
L 308.967051 110.565962 
L 309.156035 109.648165 
L 309.911971 109.648165 
L 310.100955 108.569689 
L 310.85689 108.569689 
L 311.045874 107.296024 
L 311.80181 107.296024 
L 311.990794 105.907755 
L 312.74673 105.907755 
L 312.935713 104.65894 
L 313.691649 104.65894 
L 313.880633 103.671522 
L 314.636569 103.671522 
L 314.825553 102.893596 
L 315.581488 102.893596 
L 315.770472 102.283406 
L 316.526408 102.283406 
L 316.715392 101.807322 
L 317.471327 101.807322 
L 317.660311 101.438238 
L 318.416247 101.438238 
L 318.605231 101.154307 
L 319.361167 101.154307 
L 319.550151 100.937928 
L 320.306086 100.937928 
L 320.49507 100.774938 
L 321.251006 100.774938 
L 321.43999 100.653951 
L 323.140845 100.565838 
L 323.424321 100.503293 
L 388.340297 100.583209 
L 388.340297 100.583209 
" clip-path="url(#p7659fe021a)" style="fill: none; stroke: #bdab62; stroke-width: 1.5; stroke-linecap: square"/>
   </g>
   <g id="patch_3">
    <path d="M 90.690625 241.036875 
L 90.690625 10.8 
" style="fill: none; stroke: #000000; stroke-width: 0.8; stroke-linejoin: miter; stroke-linecap: square"/>
   </g>
   <g id="patch_4">
    <path d="M 402.514091 241.036875 
L 402.514091 10.8 
" style="fill: none; stroke: #000000; stroke-width: 0.8; stroke-linejoin: miter; stroke-linecap: square"/>
   </g>
   <g id="patch_5">
    <path d="M 90.690625 241.036875 
L 402.514091 241.036875 
" style="fill: none; stroke: #000000; stroke-width: 0.8; stroke-linejoin: miter; stroke-linecap: square"/>
   </g>
   <g id="patch_6">
    <path d="M 90.690625 10.8 
L 402.514091 10.8 
" style="fill: none; stroke: #000000; stroke-width: 0.8; stroke-linejoin: miter; stroke-linecap: square"/>
   </g>
   <g id="legend_1">
    <g id="patch_7">
     <path d="M 343.654091 236.536875 
L 396.214091 236.536875 
Q 398.014091 236.536875 398.014091 234.736875 
L 398.014091 194.871094 
Q 398.014091 193.071094 396.214091 193.071094 
L 343.654091 193.071094 
Q 341.854091 193.071094 341.854091 194.871094 
L 341.854091 234.736875 
Q 341.854091 236.536875 343.654091 236.536875 
z
" style="fill: #ffffff; opacity: 0.8; stroke: #cccccc; stroke-linejoin: miter"/>
    </g>
    <g id="line2d_14">
     <path d="M 345.454091 200.359687 
L 354.454091 200.359687 
L 363.454091 200.359687 
" style="fill: none; stroke: #2b737e; stroke-width: 1.5; stroke-linecap: square"/>
    </g>
    <g id="text_13">
     <!-- $\omega_{BR,1}$ -->
     <g transform="translate(370.654091 203.509687) scale(0.09 -0.09)">
      <defs>
       <path id="DejaVuSans-Oblique-3c9" d="M 1369 -91 
Q 72 -91 434 1766 
Q 575 2500 1256 3500 
L 1875 3500 
Q 1231 2500 1088 1750 
Q 819 397 1519 397 
Q 2166 397 2478 2078 
L 3009 2078 
Q 2669 388 3316 397 
Q 4013 403 4275 1750 
Q 4419 2500 4169 3500 
L 4788 3500 
Q 5075 2500 4934 1766 
Q 4578 -94 3278 -91 
Q 2428 -88 2503 844 
Q 2194 -91 1369 -91 
z
" transform="scale(0.015625)"/>
       <path id="DejaVuSans-Oblique-42" d="M 1081 4666 
L 2694 4666 
Q 3350 4666 3675 4422 
Q 4000 4178 4000 3688 
Q 4000 3238 3720 2911 
Q 3441 2584 2988 2516 
Q 3375 2428 3569 2181 
Q 3763 1934 3763 1522 
Q 3763 819 3242 409 
Q 2722 0 1819 0 
L 172 0 
L 1081 4666 
z
M 1234 2228 
L 903 519 
L 1919 519 
Q 2491 519 2800 781 
Q 3109 1044 3109 1522 
Q 3109 1891 2904 2059 
Q 2700 2228 2247 2228 
L 1234 2228 
z
M 1606 4147 
L 1331 2741 
L 2272 2741 
Q 2775 2741 3058 2959 
Q 3341 3178 3341 3566 
Q 3341 3869 3150 4008 
Q 2959 4147 2541 4147 
L 1606 4147 
z
" transform="scale(0.015625)"/>
       <path id="DejaVuSans-Oblique-52" d="M 1613 4147 
L 1294 2491 
L 2106 2491 
Q 2584 2491 2879 2755 
Q 3175 3019 3175 3444 
Q 3175 3784 2976 3965 
Q 2778 4147 2406 4147 
L 1613 4147 
z
M 2772 2241 
Q 2972 2194 3105 2009 
Q 3238 1825 3413 1275 
L 3809 0 
L 3144 0 
L 2778 1197 
Q 2638 1659 2453 1815 
Q 2269 1972 1888 1972 
L 1191 1972 
L 806 0 
L 172 0 
L 1081 4666 
L 2503 4666 
Q 3150 4666 3495 4373 
Q 3841 4081 3841 3531 
Q 3841 3044 3547 2687 
Q 3253 2331 2772 2241 
z
" transform="scale(0.015625)"/>
       <path id="DejaVuSans-2c" d="M 750 794 
L 1409 794 
L 1409 256 
L 897 -744 
L 494 -744 
L 750 256 
L 750 794 
z
" transform="scale(0.015625)"/>
      </defs>
      <use xlink:href="#DejaVuSans-Oblique-3c9" transform="translate(0 0.3125)"/>
      <use xlink:href="#DejaVuSans-Oblique-42" transform="translate(83.740234 -16.09375) scale(0.7)"/>
      <use xlink:href="#DejaVuSans-Oblique-52" transform="translate(131.762695 -16.09375) scale(0.7)"/>
      <use xlink:href="#DejaVuSans-2c" transform="translate(180.400391 -16.09375) scale(0.7)"/>
      <use xlink:href="#DejaVuSans-31" transform="translate(216.289062 -16.09375) scale(0.7)"/>
     </g>
    </g>
    <g id="line2d_15">
     <path d="M 345.454091 213.948281 
L 354.454091 213.948281 
L 363.454091 213.948281 
" style="fill: none; stroke: #5ea04b; stroke-width: 1.5; stroke-linecap: square"/>
    </g>
    <g id="text_14">
     <!-- $\omega_{BR,2}$ -->
     <g transform="translate(370.654091 217.098281) scale(0.09 -0.09)">
      <use xlink:href="#DejaVuSans-Oblique-3c9" transform="translate(0 0.3125)"/>
      <use xlink:href="#DejaVuSans-Oblique-42" transform="translate(83.740234 -16.09375) scale(0.7)"/>
      <use xlink:href="#DejaVuSans-Oblique-52" transform="translate(131.762695 -16.09375) scale(0.7)"/>
      <use xlink:href="#DejaVuSans-2c" transform="translate(180.400391 -16.09375) scale(0.7)"/>
      <use xlink:href="#DejaVuSans-32" transform="translate(216.289062 -16.09375) scale(0.7)"/>
     </g>
    </g>
    <g id="line2d_16">
     <path d="M 345.454091 227.536875 
L 354.454091 227.536875 
L 363.454091 227.536875 
" style="fill: none; stroke: #bdab62; stroke-width: 1.5; stroke-linecap: square"/>
    </g>
    <g id="text_15">
     <!-- $\omega_{BR,3}$ -->
     <g transform="translate(370.654091 230.686875) scale(0.09 -0.09)">
      <use xlink:href="#DejaVuSans-Oblique-3c9" transform="translate(0 0.3125)"/>
      <use xlink:href="#DejaVuSans-Oblique-42" transform="translate(83.740234 -16.09375) scale(0.7)"/>
      <use xlink:href="#DejaVuSans-Oblique-52" transform="translate(131.762695 -16.09375) scale(0.7)"/>
      <use xlink:href="#DejaVuSans-2c" transform="translate(180.400391 -16.09375) scale(0.7)"/>
      <use xlink:href="#DejaVuSans-33" transform="translate(216.289062 -16.09375) scale(0.7)"/>
     </g>
    </g>
   </g>
  </g>
 </g>
 <defs>
  <clipPath id="p7659fe021a">
   <rect x="90.690625" y="10.8" width="311.823466" height="230.236875"/>
  </clipPath>
 </defs>
</svg>
