<?xml version="1.0" encoding="utf-8" standalone="no"?>
<!DOCTYPE svg PUBLIC "-//W3C//DTD SVG 1.1//EN"
  "http://www.w3.org/Graphics/SVG/1.1/DTD/svg11.dtd">
<svg xmlns:xlink="http://www.w3.org/1999/xlink" width="414pt" height="288pt" viewBox="0 0 414 288" xmlns="http://www.w3.org/2000/svg" version="1.1">
 <metadata>
  <rdf:RDF xmlns:dc="http://purl.org/dc/elements/1.1/" xmlns:cc="http://creativecommons.org/ns#" xmlns:rdf="http://www.w3.org/1999/02/22-rdf-syntax-ns#">
   <cc:Work>
    <dc:type rdf:resource="http://purl.org/dc/dcmitype/StillImage"/>
    <dc:date>2023-09-07T00:38:22.942849</dc:date>
    <dc:format>image/svg+xml</dc:format>
    <dc:creator>
     <cc:Agent>
      <dc:title>Matplotlib v3.7.2, https://matplotlib.org/</dc:title>
     </cc:Agent>
    </dc:creator>
   </cc:Work>
  </rdf:RDF>
 </metadata>
 <defs>
  <style type="text/css">*{stroke-linejoin: round; stroke-linecap: butt}</style>
 </defs>
 <g id="figure_1">
  <g id="patch_1">
   <path d="M 0 288 
L 414 288 
L 414 0 
L 0 0 
L 0 288 
z
" style="fill: none"/>
  </g>
  <g id="axes_1">
   <g id="patch_2">
    <path d="M 95.785625 241.036875 
L 390.360682 241.036875 
L 390.360682 15.340963 
L 95.785625 15.340963 
L 95.785625 241.036875 
z
" style="fill: none"/>
   </g>
   <g id="matplotlib.axis_1">
    <g id="xtick_1">
     <g id="line2d_1">
      <path d="M 109.1754 241.036875 
L 109.1754 15.340963 
" clip-path="url(#p2cd81341b1)" style="fill: none; stroke: #b0b0b0; stroke-width: 0.8; stroke-linecap: square"/>
     </g>
     <g id="line2d_2">
      <defs>
       <path id="m830dc68c04" d="M 0 0 
L 0 3.5 
" style="stroke: #000000; stroke-width: 0.8"/>
      </defs>
      <g>
       <use xlink:href="#m830dc68c04" x="109.1754" y="241.036875" style="stroke: #000000; stroke-width: 0.8"/>
      </g>
     </g>
     <g id="text_1">
      <!-- 0 -->
      <g transform="translate(104.0854 260.194375) scale(0.16 -0.16)">
       <defs>
        <path id="DejaVuSans-30" d="M 2034 4250 
Q 1547 4250 1301 3770 
Q 1056 3291 1056 2328 
Q 1056 1369 1301 889 
Q 1547 409 2034 409 
Q 2525 409 2770 889 
Q 3016 1369 3016 2328 
Q 3016 3291 2770 3770 
Q 2525 4250 2034 4250 
z
M 2034 4750 
Q 2819 4750 3233 4129 
Q 3647 3509 3647 2328 
Q 3647 1150 3233 529 
Q 2819 -91 2034 -91 
Q 1250 -91 836 529 
Q 422 1150 422 2328 
Q 422 3509 836 4129 
Q 1250 4750 2034 4750 
z
" transform="scale(0.015625)"/>
       </defs>
       <use xlink:href="#DejaVuSans-30"/>
      </g>
     </g>
    </g>
    <g id="xtick_2">
     <g id="line2d_3">
      <path d="M 164.966131 241.036875 
L 164.966131 15.340963 
" clip-path="url(#p2cd81341b1)" style="fill: none; stroke: #b0b0b0; stroke-width: 0.8; stroke-linecap: square"/>
     </g>
     <g id="line2d_4">
      <g>
       <use xlink:href="#m830dc68c04" x="164.966131" y="241.036875" style="stroke: #000000; stroke-width: 0.8"/>
      </g>
     </g>
     <g id="text_2">
      <!-- 25 -->
      <g transform="translate(154.786131 260.194375) scale(0.16 -0.16)">
       <defs>
        <path id="DejaVuSans-32" d="M 1228 531 
L 3431 531 
L 3431 0 
L 469 0 
L 469 531 
Q 828 903 1448 1529 
Q 2069 2156 2228 2338 
Q 2531 2678 2651 2914 
Q 2772 3150 2772 3378 
Q 2772 3750 2511 3984 
Q 2250 4219 1831 4219 
Q 1534 4219 1204 4116 
Q 875 4013 500 3803 
L 500 4441 
Q 881 4594 1212 4672 
Q 1544 4750 1819 4750 
Q 2544 4750 2975 4387 
Q 3406 4025 3406 3419 
Q 3406 3131 3298 2873 
Q 3191 2616 2906 2266 
Q 2828 2175 2409 1742 
Q 1991 1309 1228 531 
z
" transform="scale(0.015625)"/>
        <path id="DejaVuSans-35" d="M 691 4666 
L 3169 4666 
L 3169 4134 
L 1269 4134 
L 1269 2991 
Q 1406 3038 1543 3061 
Q 1681 3084 1819 3084 
Q 2600 3084 3056 2656 
Q 3513 2228 3513 1497 
Q 3513 744 3044 326 
Q 2575 -91 1722 -91 
Q 1428 -91 1123 -41 
Q 819 9 494 109 
L 494 744 
Q 775 591 1075 516 
Q 1375 441 1709 441 
Q 2250 441 2565 725 
Q 2881 1009 2881 1497 
Q 2881 1984 2565 2268 
Q 2250 2553 1709 2553 
Q 1456 2553 1204 2497 
Q 953 2441 691 2322 
L 691 4666 
z
" transform="scale(0.015625)"/>
       </defs>
       <use xlink:href="#DejaVuSans-32"/>
       <use xlink:href="#DejaVuSans-35" x="63.623047"/>
      </g>
     </g>
    </g>
    <g id="xtick_3">
     <g id="line2d_5">
      <path d="M 220.756861 241.036875 
L 220.756861 15.340963 
" clip-path="url(#p2cd81341b1)" style="fill: none; stroke: #b0b0b0; stroke-width: 0.8; stroke-linecap: square"/>
     </g>
     <g id="line2d_6">
      <g>
       <use xlink:href="#m830dc68c04" x="220.756861" y="241.036875" style="stroke: #000000; stroke-width: 0.8"/>
      </g>
     </g>
     <g id="text_3">
      <!-- 50 -->
      <g transform="translate(210.576861 260.194375) scale(0.16 -0.16)">
       <use xlink:href="#DejaVuSans-35"/>
       <use xlink:href="#DejaVuSans-30" x="63.623047"/>
      </g>
     </g>
    </g>
    <g id="xtick_4">
     <g id="line2d_7">
      <path d="M 276.547592 241.036875 
L 276.547592 15.340963 
" clip-path="url(#p2cd81341b1)" style="fill: none; stroke: #b0b0b0; stroke-width: 0.8; stroke-linecap: square"/>
     </g>
     <g id="line2d_8">
      <g>
       <use xlink:href="#m830dc68c04" x="276.547592" y="241.036875" style="stroke: #000000; stroke-width: 0.8"/>
      </g>
     </g>
     <g id="text_4">
      <!-- 75 -->
      <g transform="translate(266.367592 260.194375) scale(0.16 -0.16)">
       <defs>
        <path id="DejaVuSans-37" d="M 525 4666 
L 3525 4666 
L 3525 4397 
L 1831 0 
L 1172 0 
L 2766 4134 
L 525 4134 
L 525 4666 
z
" transform="scale(0.015625)"/>
       </defs>
       <use xlink:href="#DejaVuSans-37"/>
       <use xlink:href="#DejaVuSans-35" x="63.623047"/>
      </g>
     </g>
    </g>
    <g id="xtick_5">
     <g id="line2d_9">
      <path d="M 332.338322 241.036875 
L 332.338322 15.340963 
" clip-path="url(#p2cd81341b1)" style="fill: none; stroke: #b0b0b0; stroke-width: 0.8; stroke-linecap: square"/>
     </g>
     <g id="line2d_10">
      <g>
       <use xlink:href="#m830dc68c04" x="332.338322" y="241.036875" style="stroke: #000000; stroke-width: 0.8"/>
      </g>
     </g>
     <g id="text_5">
      <!-- 100 -->
      <g transform="translate(317.068322 260.194375) scale(0.16 -0.16)">
       <defs>
        <path id="DejaVuSans-31" d="M 794 531 
L 1825 531 
L 1825 4091 
L 703 3866 
L 703 4441 
L 1819 4666 
L 2450 4666 
L 2450 531 
L 3481 531 
L 3481 0 
L 794 0 
L 794 531 
z
" transform="scale(0.015625)"/>
       </defs>
       <use xlink:href="#DejaVuSans-31"/>
       <use xlink:href="#DejaVuSans-30" x="63.623047"/>
       <use xlink:href="#DejaVuSans-30" x="127.246094"/>
      </g>
     </g>
    </g>
    <g id="xtick_6">
     <g id="line2d_11">
      <path d="M 388.129053 241.036875 
L 388.129053 15.340963 
" clip-path="url(#p2cd81341b1)" style="fill: none; stroke: #b0b0b0; stroke-width: 0.8; stroke-linecap: square"/>
     </g>
     <g id="line2d_12">
      <g>
       <use xlink:href="#m830dc68c04" x="388.129053" y="241.036875" style="stroke: #000000; stroke-width: 0.8"/>
      </g>
     </g>
     <g id="text_6">
      <!-- 125 -->
      <g transform="translate(372.859053 260.194375) scale(0.16 -0.16)">
       <use xlink:href="#DejaVuSans-31"/>
       <use xlink:href="#DejaVuSans-32" x="63.623047"/>
       <use xlink:href="#DejaVuSans-35" x="127.246094"/>
      </g>
     </g>
    </g>
    <g id="text_7">
     <!-- Time [min] -->
     <g transform="translate(215.92081 275.120313) scale(0.1 -0.1)">
      <defs>
       <path id="DejaVuSans-54" d="M -19 4666 
L 3928 4666 
L 3928 4134 
L 2272 4134 
L 2272 0 
L 1638 0 
L 1638 4134 
L -19 4134 
L -19 4666 
z
" transform="scale(0.015625)"/>
       <path id="DejaVuSans-69" d="M 603 3500 
L 1178 3500 
L 1178 0 
L 603 0 
L 603 3500 
z
M 603 4863 
L 1178 4863 
L 1178 4134 
L 603 4134 
L 603 4863 
z
" transform="scale(0.015625)"/>
       <path id="DejaVuSans-6d" d="M 3328 2828 
Q 3544 3216 3844 3400 
Q 4144 3584 4550 3584 
Q 5097 3584 5394 3201 
Q 5691 2819 5691 2113 
L 5691 0 
L 5113 0 
L 5113 2094 
Q 5113 2597 4934 2840 
Q 4756 3084 4391 3084 
Q 3944 3084 3684 2787 
Q 3425 2491 3425 1978 
L 3425 0 
L 2847 0 
L 2847 2094 
Q 2847 2600 2669 2842 
Q 2491 3084 2119 3084 
Q 1678 3084 1418 2786 
Q 1159 2488 1159 1978 
L 1159 0 
L 581 0 
L 581 3500 
L 1159 3500 
L 1159 2956 
Q 1356 3278 1631 3431 
Q 1906 3584 2284 3584 
Q 2666 3584 2933 3390 
Q 3200 3197 3328 2828 
z
" transform="scale(0.015625)"/>
       <path id="DejaVuSans-65" d="M 3597 1894 
L 3597 1613 
L 953 1613 
Q 991 1019 1311 708 
Q 1631 397 2203 397 
Q 2534 397 2845 478 
Q 3156 559 3463 722 
L 3463 178 
Q 3153 47 2828 -22 
Q 2503 -91 2169 -91 
Q 1331 -91 842 396 
Q 353 884 353 1716 
Q 353 2575 817 3079 
Q 1281 3584 2069 3584 
Q 2775 3584 3186 3129 
Q 3597 2675 3597 1894 
z
M 3022 2063 
Q 3016 2534 2758 2815 
Q 2500 3097 2075 3097 
Q 1594 3097 1305 2825 
Q 1016 2553 972 2059 
L 3022 2063 
z
" transform="scale(0.015625)"/>
       <path id="DejaVuSans-20" transform="scale(0.015625)"/>
       <path id="DejaVuSans-5b" d="M 550 4863 
L 1875 4863 
L 1875 4416 
L 1125 4416 
L 1125 -397 
L 1875 -397 
L 1875 -844 
L 550 -844 
L 550 4863 
z
" transform="scale(0.015625)"/>
       <path id="DejaVuSans-6e" d="M 3513 2113 
L 3513 0 
L 2938 0 
L 2938 2094 
Q 2938 2591 2744 2837 
Q 2550 3084 2163 3084 
Q 1697 3084 1428 2787 
Q 1159 2491 1159 1978 
L 1159 0 
L 581 0 
L 581 3500 
L 1159 3500 
L 1159 2956 
Q 1366 3272 1645 3428 
Q 1925 3584 2291 3584 
Q 2894 3584 3203 3211 
Q 3513 2838 3513 2113 
z
" transform="scale(0.015625)"/>
       <path id="DejaVuSans-5d" d="M 1947 4863 
L 1947 -844 
L 622 -844 
L 622 -397 
L 1369 -397 
L 1369 4416 
L 622 4416 
L 622 4863 
L 1947 4863 
z
" transform="scale(0.015625)"/>
      </defs>
      <use xlink:href="#DejaVuSans-54"/>
      <use xlink:href="#DejaVuSans-69" x="57.958984"/>
      <use xlink:href="#DejaVuSans-6d" x="85.742188"/>
      <use xlink:href="#DejaVuSans-65" x="183.154297"/>
      <use xlink:href="#DejaVuSans-20" x="244.677734"/>
      <use xlink:href="#DejaVuSans-5b" x="276.464844"/>
      <use xlink:href="#DejaVuSans-6d" x="315.478516"/>
      <use xlink:href="#DejaVuSans-69" x="412.890625"/>
      <use xlink:href="#DejaVuSans-6e" x="440.673828"/>
      <use xlink:href="#DejaVuSans-5d" x="504.052734"/>
     </g>
    </g>
   </g>
   <g id="matplotlib.axis_2">
    <g id="ytick_1">
     <g id="line2d_13">
      <path d="M 95.785625 226.670794 
L 390.360682 226.670794 
" clip-path="url(#p2cd81341b1)" style="fill: none; stroke: #b0b0b0; stroke-width: 0.8; stroke-linecap: square"/>
     </g>
     <g id="line2d_14">
      <defs>
       <path id="m9c1069233c" d="M 0 0 
L -3.5 0 
" style="stroke: #000000; stroke-width: 0.8"/>
      </defs>
      <g>
       <use xlink:href="#m9c1069233c" x="95.785625" y="226.670794" style="stroke: #000000; stroke-width: 0.8"/>
      </g>
     </g>
     <g id="text_8">
      <!-- −40000 -->
      <g transform="translate(24.478125 232.749544) scale(0.16 -0.16)">
       <defs>
        <path id="DejaVuSans-2212" d="M 678 2272 
L 4684 2272 
L 4684 1741 
L 678 1741 
L 678 2272 
z
" transform="scale(0.015625)"/>
        <path id="DejaVuSans-34" d="M 2419 4116 
L 825 1625 
L 2419 1625 
L 2419 4116 
z
M 2253 4666 
L 3047 4666 
L 3047 1625 
L 3713 1625 
L 3713 1100 
L 3047 1100 
L 3047 0 
L 2419 0 
L 2419 1100 
L 313 1100 
L 313 1709 
L 2253 4666 
z
" transform="scale(0.015625)"/>
       </defs>
       <use xlink:href="#DejaVuSans-2212"/>
       <use xlink:href="#DejaVuSans-34" x="83.789062"/>
       <use xlink:href="#DejaVuSans-30" x="147.412109"/>
       <use xlink:href="#DejaVuSans-30" x="211.035156"/>
       <use xlink:href="#DejaVuSans-30" x="274.658203"/>
       <use xlink:href="#DejaVuSans-30" x="338.28125"/>
      </g>
     </g>
    </g>
    <g id="ytick_2">
     <g id="line2d_15">
      <path d="M 95.785625 174.229606 
L 390.360682 174.229606 
" clip-path="url(#p2cd81341b1)" style="fill: none; stroke: #b0b0b0; stroke-width: 0.8; stroke-linecap: square"/>
     </g>
     <g id="line2d_16">
      <g>
       <use xlink:href="#m9c1069233c" x="95.785625" y="174.229606" style="stroke: #000000; stroke-width: 0.8"/>
      </g>
     </g>
     <g id="text_9">
      <!-- −20000 -->
      <g transform="translate(24.478125 180.308356) scale(0.16 -0.16)">
       <use xlink:href="#DejaVuSans-2212"/>
       <use xlink:href="#DejaVuSans-32" x="83.789062"/>
       <use xlink:href="#DejaVuSans-30" x="147.412109"/>
       <use xlink:href="#DejaVuSans-30" x="211.035156"/>
       <use xlink:href="#DejaVuSans-30" x="274.658203"/>
       <use xlink:href="#DejaVuSans-30" x="338.28125"/>
      </g>
     </g>
    </g>
    <g id="ytick_3">
     <g id="line2d_17">
      <path d="M 95.785625 121.788419 
L 390.360682 121.788419 
" clip-path="url(#p2cd81341b1)" style="fill: none; stroke: #b0b0b0; stroke-width: 0.8; stroke-linecap: square"/>
     </g>
     <g id="line2d_18">
      <g>
       <use xlink:href="#m9c1069233c" x="95.785625" y="121.788419" style="stroke: #000000; stroke-width: 0.8"/>
      </g>
     </g>
     <g id="text_10">
      <!-- 0 -->
      <g transform="translate(78.605625 127.867169) scale(0.16 -0.16)">
       <use xlink:href="#DejaVuSans-30"/>
      </g>
     </g>
    </g>
    <g id="ytick_4">
     <g id="line2d_19">
      <path d="M 95.785625 69.347231 
L 390.360682 69.347231 
" clip-path="url(#p2cd81341b1)" style="fill: none; stroke: #b0b0b0; stroke-width: 0.8; stroke-linecap: square"/>
     </g>
     <g id="line2d_20">
      <g>
       <use xlink:href="#m9c1069233c" x="95.785625" y="69.347231" style="stroke: #000000; stroke-width: 0.8"/>
      </g>
     </g>
     <g id="text_11">
      <!-- 20000 -->
      <g transform="translate(37.885625 75.425981) scale(0.16 -0.16)">
       <use xlink:href="#DejaVuSans-32"/>
       <use xlink:href="#DejaVuSans-30" x="63.623047"/>
       <use xlink:href="#DejaVuSans-30" x="127.246094"/>
       <use xlink:href="#DejaVuSans-30" x="190.869141"/>
       <use xlink:href="#DejaVuSans-30" x="254.492188"/>
      </g>
     </g>
    </g>
    <g id="ytick_5">
     <g id="line2d_21">
      <path d="M 95.785625 16.906043 
L 390.360682 16.906043 
" clip-path="url(#p2cd81341b1)" style="fill: none; stroke: #b0b0b0; stroke-width: 0.8; stroke-linecap: square"/>
     </g>
     <g id="line2d_22">
      <g>
       <use xlink:href="#m9c1069233c" x="95.785625" y="16.906043" style="stroke: #000000; stroke-width: 0.8"/>
      </g>
     </g>
     <g id="text_12">
      <!-- 40000 -->
      <g transform="translate(37.885625 22.984793) scale(0.16 -0.16)">
       <use xlink:href="#DejaVuSans-34"/>
       <use xlink:href="#DejaVuSans-30" x="63.623047"/>
       <use xlink:href="#DejaVuSans-30" x="127.246094"/>
       <use xlink:href="#DejaVuSans-30" x="190.869141"/>
       <use xlink:href="#DejaVuSans-30" x="254.492188"/>
      </g>
     </g>
    </g>
    <g id="text_13">
     <!-- Magnetic Field [nT] -->
     <g transform="translate(18.398438 175.929544) rotate(-90) scale(0.1 -0.1)">
      <defs>
       <path id="DejaVuSans-4d" d="M 628 4666 
L 1569 4666 
L 2759 1491 
L 3956 4666 
L 4897 4666 
L 4897 0 
L 4281 0 
L 4281 4097 
L 3078 897 
L 2444 897 
L 1241 4097 
L 1241 0 
L 628 0 
L 628 4666 
z
" transform="scale(0.015625)"/>
       <path id="DejaVuSans-61" d="M 2194 1759 
Q 1497 1759 1228 1600 
Q 959 1441 959 1056 
Q 959 750 1161 570 
Q 1363 391 1709 391 
Q 2188 391 2477 730 
Q 2766 1069 2766 1631 
L 2766 1759 
L 2194 1759 
z
M 3341 1997 
L 3341 0 
L 2766 0 
L 2766 531 
Q 2569 213 2275 61 
Q 1981 -91 1556 -91 
Q 1019 -91 701 211 
Q 384 513 384 1019 
Q 384 1609 779 1909 
Q 1175 2209 1959 2209 
L 2766 2209 
L 2766 2266 
Q 2766 2663 2505 2880 
Q 2244 3097 1772 3097 
Q 1472 3097 1187 3025 
Q 903 2953 641 2809 
L 641 3341 
Q 956 3463 1253 3523 
Q 1550 3584 1831 3584 
Q 2591 3584 2966 3190 
Q 3341 2797 3341 1997 
z
" transform="scale(0.015625)"/>
       <path id="DejaVuSans-67" d="M 2906 1791 
Q 2906 2416 2648 2759 
Q 2391 3103 1925 3103 
Q 1463 3103 1205 2759 
Q 947 2416 947 1791 
Q 947 1169 1205 825 
Q 1463 481 1925 481 
Q 2391 481 2648 825 
Q 2906 1169 2906 1791 
z
M 3481 434 
Q 3481 -459 3084 -895 
Q 2688 -1331 1869 -1331 
Q 1566 -1331 1297 -1286 
Q 1028 -1241 775 -1147 
L 775 -588 
Q 1028 -725 1275 -790 
Q 1522 -856 1778 -856 
Q 2344 -856 2625 -561 
Q 2906 -266 2906 331 
L 2906 616 
Q 2728 306 2450 153 
Q 2172 0 1784 0 
Q 1141 0 747 490 
Q 353 981 353 1791 
Q 353 2603 747 3093 
Q 1141 3584 1784 3584 
Q 2172 3584 2450 3431 
Q 2728 3278 2906 2969 
L 2906 3500 
L 3481 3500 
L 3481 434 
z
" transform="scale(0.015625)"/>
       <path id="DejaVuSans-74" d="M 1172 4494 
L 1172 3500 
L 2356 3500 
L 2356 3053 
L 1172 3053 
L 1172 1153 
Q 1172 725 1289 603 
Q 1406 481 1766 481 
L 2356 481 
L 2356 0 
L 1766 0 
Q 1100 0 847 248 
Q 594 497 594 1153 
L 594 3053 
L 172 3053 
L 172 3500 
L 594 3500 
L 594 4494 
L 1172 4494 
z
" transform="scale(0.015625)"/>
       <path id="DejaVuSans-63" d="M 3122 3366 
L 3122 2828 
Q 2878 2963 2633 3030 
Q 2388 3097 2138 3097 
Q 1578 3097 1268 2742 
Q 959 2388 959 1747 
Q 959 1106 1268 751 
Q 1578 397 2138 397 
Q 2388 397 2633 464 
Q 2878 531 3122 666 
L 3122 134 
Q 2881 22 2623 -34 
Q 2366 -91 2075 -91 
Q 1284 -91 818 406 
Q 353 903 353 1747 
Q 353 2603 823 3093 
Q 1294 3584 2113 3584 
Q 2378 3584 2631 3529 
Q 2884 3475 3122 3366 
z
" transform="scale(0.015625)"/>
       <path id="DejaVuSans-46" d="M 628 4666 
L 3309 4666 
L 3309 4134 
L 1259 4134 
L 1259 2759 
L 3109 2759 
L 3109 2228 
L 1259 2228 
L 1259 0 
L 628 0 
L 628 4666 
z
" transform="scale(0.015625)"/>
       <path id="DejaVuSans-6c" d="M 603 4863 
L 1178 4863 
L 1178 0 
L 603 0 
L 603 4863 
z
" transform="scale(0.015625)"/>
       <path id="DejaVuSans-64" d="M 2906 2969 
L 2906 4863 
L 3481 4863 
L 3481 0 
L 2906 0 
L 2906 525 
Q 2725 213 2448 61 
Q 2172 -91 1784 -91 
Q 1150 -91 751 415 
Q 353 922 353 1747 
Q 353 2572 751 3078 
Q 1150 3584 1784 3584 
Q 2172 3584 2448 3432 
Q 2725 3281 2906 2969 
z
M 947 1747 
Q 947 1113 1208 752 
Q 1469 391 1925 391 
Q 2381 391 2643 752 
Q 2906 1113 2906 1747 
Q 2906 2381 2643 2742 
Q 2381 3103 1925 3103 
Q 1469 3103 1208 2742 
Q 947 2381 947 1747 
z
" transform="scale(0.015625)"/>
      </defs>
      <use xlink:href="#DejaVuSans-4d"/>
      <use xlink:href="#DejaVuSans-61" x="86.279297"/>
      <use xlink:href="#DejaVuSans-67" x="147.558594"/>
      <use xlink:href="#DejaVuSans-6e" x="211.035156"/>
      <use xlink:href="#DejaVuSans-65" x="274.414062"/>
      <use xlink:href="#DejaVuSans-74" x="335.9375"/>
      <use xlink:href="#DejaVuSans-69" x="375.146484"/>
      <use xlink:href="#DejaVuSans-63" x="402.929688"/>
      <use xlink:href="#DejaVuSans-20" x="457.910156"/>
      <use xlink:href="#DejaVuSans-46" x="489.697266"/>
      <use xlink:href="#DejaVuSans-69" x="539.966797"/>
      <use xlink:href="#DejaVuSans-65" x="567.75"/>
      <use xlink:href="#DejaVuSans-6c" x="629.273438"/>
      <use xlink:href="#DejaVuSans-64" x="657.056641"/>
      <use xlink:href="#DejaVuSans-20" x="720.533203"/>
      <use xlink:href="#DejaVuSans-5b" x="752.320312"/>
      <use xlink:href="#DejaVuSans-6e" x="791.333984"/>
      <use xlink:href="#DejaVuSans-54" x="854.712891"/>
      <use xlink:href="#DejaVuSans-5d" x="915.796875"/>
     </g>
    </g>
   </g>
   <g id="line2d_23">
    <path d="M 109.1754 184.366097 
L 110.514378 145.77604 
L 111.853355 122.867937 
L 113.192333 114.875294 
L 114.53131 114.271869 
L 115.870288 116.976057 
L 118.548243 124.769679 
L 119.887221 128.051334 
L 121.226198 130.43338 
L 122.565176 131.853434 
L 123.904153 132.359334 
L 125.243131 132.038361 
L 126.582108 130.979435 
L 127.921086 129.258228 
L 129.260063 126.934863 
L 130.599041 124.057135 
L 131.938018 120.665386 
L 133.276996 116.797314 
L 134.615973 112.492076 
L 137.293928 102.752147 
L 139.971884 91.884698 
L 146.666771 63.667934 
L 149.344726 53.619971 
L 150.683704 49.121161 
L 152.022681 45.024095 
L 153.361659 41.349808 
L 154.700636 38.105952 
L 156.039614 35.288494 
L 157.378591 32.884022 
L 158.717569 30.872318 
L 160.056546 29.228868 
L 161.395524 27.927029 
L 162.734502 26.939679 
L 164.073479 26.240321 
L 165.412457 25.803675 
L 166.751434 25.605956 
L 168.090412 25.624997 
L 169.429389 25.840418 
L 170.768367 26.233943 
L 172.107344 26.789907 
L 173.446322 27.495875 
L 174.785299 28.34324 
L 177.463254 30.448982 
L 180.141209 33.121023 
L 182.819165 36.419955 
L 185.49712 40.415119 
L 188.175075 45.147604 
L 190.85303 50.612985 
L 193.530985 56.765451 
L 196.20894 63.527455 
L 200.225872 74.55462 
L 206.92076 93.562036 
L 209.598715 100.519391 
L 212.27667 106.631294 
L 213.615648 109.290016 
L 214.954625 111.652161 
L 216.293603 113.701336 
L 217.63258 115.426898 
L 218.971558 116.823587 
L 220.310535 117.891138 
L 221.649513 118.63399 
L 222.98849 119.061155 
L 224.327468 119.186223 
L 225.666446 119.027443 
L 227.005423 118.607743 
L 228.344401 117.954559 
L 229.683378 117.099353 
L 232.361333 114.923088 
L 236.378266 111.030497 
L 241.734176 105.78189 
L 247.090086 100.66462 
L 249.768041 97.826243 
L 252.445996 94.619967 
L 255.123951 91.035621 
L 263.157816 79.705034 
L 265.835771 76.507483 
L 268.513726 73.845352 
L 271.191682 71.706405 
L 273.869637 69.989493 
L 277.886569 67.875218 
L 284.581457 64.479573 
L 288.598389 62.412997 
L 291.276345 61.366291 
L 292.615322 61.063856 
L 293.9543 60.972733 
L 295.293277 61.141688 
L 296.632255 61.616927 
L 297.971232 62.439542 
L 299.31021 63.643224 
L 300.649187 65.252355 
L 301.988165 67.280564 
L 303.327142 69.72977 
L 304.66612 72.589682 
L 306.005097 75.837746 
L 308.683052 83.349259 
L 311.361007 91.861044 
L 316.716918 109.650006 
L 319.394873 117.69033 
L 320.73385 121.242122 
L 322.072828 124.400711 
L 323.411805 127.116012 
L 324.750783 129.347075 
L 326.08976 131.062006 
L 327.428738 132.237455 
L 328.767715 132.857799 
L 330.106693 132.914176 
L 331.44567 132.403516 
L 332.784648 131.327733 
L 334.123626 129.693193 
L 335.462603 127.510528 
L 336.801581 124.79484 
L 338.140558 121.566254 
L 339.479536 117.850759 
L 340.818513 113.681187 
L 343.496468 104.150942 
L 346.174423 93.404744 
L 354.208288 59.842685 
L 356.886244 50.284794 
L 358.225221 46.077581 
L 359.564199 42.289103 
L 360.903176 38.930334 
L 362.242154 36.00008 
L 363.581131 33.487144 
L 364.920109 31.372856 
L 366.259086 29.633616 
L 367.598064 28.243171 
L 368.937041 27.174407 
L 370.276019 26.400593 
L 371.614996 25.896096 
L 372.953974 25.636723 
L 374.292951 25.599868 
L 375.631929 25.764651 
L 376.970907 26.112194 
L 376.970907 26.112194 
" clip-path="url(#p2cd81341b1)" style="fill: none; stroke: #2b737e; stroke-width: 1.5; stroke-linecap: square"/>
   </g>
   <g id="line2d_24">
    <path d="M 109.1754 109.471432 
L 110.514378 89.291062 
L 111.853355 97.226711 
L 114.53131 122.309738 
L 115.870288 133.702374 
L 117.209265 143.776907 
L 119.887221 161.115904 
L 122.565176 176.413538 
L 125.243131 190.317071 
L 127.921086 202.716786 
L 129.260063 208.259507 
L 130.599041 213.303884 
L 131.938018 217.801283 
L 133.276996 221.702394 
L 134.615973 224.959355 
L 135.954951 227.52816 
L 137.293928 229.371254 
L 138.632906 230.460159 
L 139.971884 230.77797 
L 141.310861 230.321517 
L 142.649839 229.102972 
L 143.988816 227.150682 
L 145.327794 224.509053 
L 146.666771 221.237367 
L 148.005749 217.407544 
L 149.344726 213.100976 
L 152.022681 203.40729 
L 156.039614 187.436043 
L 161.395524 166.210218 
L 164.073479 156.305062 
L 166.751434 147.032229 
L 169.429389 138.409905 
L 172.107344 130.406736 
L 174.785299 122.963988 
L 177.463254 116.028044 
L 180.141209 109.590487 
L 182.819165 103.716795 
L 185.49712 98.545278 
L 186.836097 96.278762 
L 188.175075 94.256541 
L 189.514052 92.501249 
L 190.85303 91.033938 
L 192.192007 89.8739 
L 193.530985 89.038792 
L 194.869962 88.544907 
L 196.20894 88.407352 
L 197.547917 88.639956 
L 198.886895 89.254764 
L 200.225872 90.261114 
L 201.56485 91.664362 
L 202.903827 93.464473 
L 204.242805 95.654695 
L 205.581783 98.220575 
L 206.92076 101.139518 
L 209.598715 107.90739 
L 212.27667 115.637613 
L 216.293603 128.192464 
L 220.310535 140.733637 
L 222.98849 148.497893 
L 225.666446 155.425452 
L 227.005423 158.493949 
L 228.344401 161.264426 
L 229.683378 163.718833 
L 231.022356 165.846924 
L 232.361333 167.647231 
L 233.700311 169.127534 
L 235.039288 170.304646 
L 236.378266 171.203454 
L 237.717243 171.855193 
L 239.056221 172.29509 
L 240.395198 172.559539 
L 243.073153 172.695542 
L 245.751108 172.468157 
L 248.429064 171.943982 
L 251.107019 171.038875 
L 252.445996 170.386815 
L 253.784974 169.566165 
L 255.123951 168.552435 
L 256.462929 167.326465 
L 257.801906 165.876712 
L 259.140884 164.200668 
L 260.479861 162.305294 
L 263.157816 157.927577 
L 265.835771 152.948413 
L 271.191682 142.188011 
L 276.547592 131.580709 
L 288.598389 108.38155 
L 296.632255 91.837019 
L 297.971232 89.434859 
L 299.31021 87.300204 
L 300.649187 85.506424 
L 301.988165 84.126468 
L 303.327142 83.230074 
L 304.66612 82.881157 
L 306.005097 83.135471 
L 307.344075 84.038563 
L 308.683052 85.624066 
L 310.02203 87.912343 
L 311.361007 90.909517 
L 312.699985 94.606926 
L 314.038963 98.981068 
L 315.37794 103.994073 
L 316.716918 109.594728 
L 319.394873 122.297265 
L 322.072828 136.48218 
L 331.44567 188.067526 
L 334.123626 200.857228 
L 335.462603 206.611376 
L 336.801581 211.866462 
L 338.140558 216.571199 
L 339.479536 220.676497 
L 340.818513 224.136132 
L 342.157491 226.907972 
L 343.496468 228.955714 
L 344.835446 230.25101 
L 346.174423 230.775786 
L 347.513401 230.524484 
L 348.852378 229.505943 
L 350.191356 227.744614 
L 351.530333 225.280862 
L 352.869311 222.170202 
L 354.208288 218.48141 
L 355.547266 214.293642 
L 358.225221 204.767282 
L 362.242154 188.885141 
L 367.598064 167.578665 
L 370.276019 157.594076 
L 372.953974 148.23436 
L 375.631929 139.52599 
L 376.970907 135.40947 
L 376.970907 135.40947 
" clip-path="url(#p2cd81341b1)" style="fill: none; stroke: #5ea04b; stroke-width: 1.5; stroke-linecap: square"/>
   </g>
   <g id="line2d_25">
    <path d="M 109.1754 73.887094 
L 110.514378 52.292679 
L 111.853355 44.541922 
L 113.192333 41.140409 
L 114.53131 39.434099 
L 115.870288 39.105115 
L 117.209265 39.923088 
L 118.548243 41.641116 
L 119.887221 44.066512 
L 121.226198 47.060239 
L 122.565176 50.522984 
L 123.904153 54.386374 
L 126.582108 63.142503 
L 129.260063 73.064014 
L 131.938018 83.883739 
L 139.971884 117.539648 
L 142.649839 127.377772 
L 143.988816 131.740968 
L 145.327794 135.666135 
L 146.666771 139.116557 
L 148.005749 142.068257 
L 149.344726 144.510527 
L 150.683704 146.445636 
L 152.022681 147.887749 
L 153.361659 148.861143 
L 154.700636 149.39793 
L 156.039614 149.535531 
L 157.378591 149.314181 
L 158.717569 148.774698 
L 160.056546 147.956699 
L 161.395524 146.897341 
L 162.734502 145.630569 
L 165.412457 142.592659 
L 168.090412 139.042019 
L 170.768367 135.117595 
L 173.446322 130.893487 
L 176.124277 126.376994 
L 178.802232 121.522556 
L 181.480187 116.266799 
L 184.158142 110.573154 
L 188.175075 101.280649 
L 200.225872 72.322949 
L 202.903827 66.981506 
L 204.242805 64.650879 
L 205.581783 62.59029 
L 206.92076 60.828166 
L 208.259738 59.3879 
L 209.598715 58.286726 
L 210.937693 57.535066 
L 212.27667 57.136423 
L 213.615648 57.087794 
L 214.954625 57.380476 
L 216.293603 58.001112 
L 217.63258 58.932777 
L 218.971558 60.155935 
L 220.310535 61.649142 
L 221.649513 63.389457 
L 224.327468 67.51274 
L 227.005423 72.313741 
L 231.022356 80.269646 
L 236.378266 91.071028 
L 240.395198 98.648003 
L 244.412131 105.731879 
L 253.784974 121.629814 
L 256.462929 125.869724 
L 259.140884 129.676757 
L 261.818839 132.864526 
L 263.157816 134.184937 
L 264.496794 135.311816 
L 265.835771 136.243631 
L 267.174749 136.983612 
L 268.513726 137.538723 
L 269.852704 137.91846 
L 271.191682 138.133636 
L 272.530659 138.195262 
L 273.869637 138.113566 
L 275.208614 137.897183 
L 276.547592 137.552451 
L 277.886569 137.082784 
L 279.225547 136.488079 
L 280.564524 135.76415 
L 281.903502 134.902249 
L 283.242479 133.888747 
L 284.581457 132.705098 
L 285.920434 131.3282 
L 287.259412 129.73125 
L 288.598389 127.885108 
L 289.937367 125.760164 
L 291.276345 123.328561 
L 292.615322 120.566628 
L 293.9543 117.457307 
L 295.293277 113.992343 
L 296.632255 110.174066 
L 299.31021 101.546476 
L 301.988165 91.835089 
L 310.02203 61.252413 
L 311.361007 56.775038 
L 312.699985 52.689568 
L 314.038963 49.066536 
L 315.37794 45.967825 
L 316.716918 43.44504 
L 318.055895 41.538293 
L 319.394873 40.275479 
L 320.73385 39.672095 
L 322.072828 39.731586 
L 323.411805 40.446186 
L 324.750783 41.798148 
L 326.08976 43.761236 
L 327.428738 46.302324 
L 328.767715 49.382955 
L 330.106693 52.96072 
L 331.44567 56.990344 
L 334.123626 66.213873 
L 336.801581 76.653602 
L 340.818513 93.638173 
L 344.835446 110.742059 
L 347.513401 121.321068 
L 350.191356 130.631538 
L 351.530333 134.67257 
L 352.869311 138.248401 
L 354.208288 141.331808 
L 355.547266 143.908469 
L 356.886244 145.977047 
L 358.225221 147.548419 
L 359.564199 148.644132 
L 360.903176 149.294258 
L 362.242154 149.534921 
L 363.581131 149.405756 
L 364.920109 148.947576 
L 366.259086 148.200446 
L 367.598064 147.202269 
L 368.937041 145.987904 
L 371.614996 143.032406 
L 374.292951 139.540924 
L 376.970907 135.66069 
L 376.970907 135.66069 
" clip-path="url(#p2cd81341b1)" style="fill: none; stroke: #bdab62; stroke-width: 1.5; stroke-linecap: square"/>
   </g>
   <g id="patch_3">
    <path d="M 95.785625 241.036875 
L 95.785625 15.340963 
" style="fill: none; stroke: #000000; stroke-width: 0.8; stroke-linejoin: miter; stroke-linecap: square"/>
   </g>
   <g id="patch_4">
    <path d="M 390.360682 241.036875 
L 390.360682 15.340963 
" style="fill: none; stroke: #000000; stroke-width: 0.8; stroke-linejoin: miter; stroke-linecap: square"/>
   </g>
   <g id="patch_5">
    <path d="M 95.785625 241.036875 
L 390.360682 241.036875 
" style="fill: none; stroke: #000000; stroke-width: 0.8; stroke-linejoin: miter; stroke-linecap: square"/>
   </g>
   <g id="patch_6">
    <path d="M 95.785625 15.340963 
L 390.360682 15.340963 
" style="fill: none; stroke: #000000; stroke-width: 0.8; stroke-linejoin: miter; stroke-linecap: square"/>
   </g>
   <g id="legend_1">
    <g id="patch_7">
     <path d="M 321.330682 236.536875 
L 384.060682 236.536875 
Q 385.860682 236.536875 385.860682 234.736875 
L 385.860682 195.141094 
Q 385.860682 193.341094 384.060682 193.341094 
L 321.330682 193.341094 
Q 319.530682 193.341094 319.530682 195.141094 
L 319.530682 234.736875 
Q 319.530682 236.536875 321.330682 236.536875 
z
" style="fill: #ffffff; opacity: 0.8; stroke: #cccccc; stroke-linejoin: miter"/>
    </g>
    <g id="line2d_26">
     <path d="M 323.130682 200.629687 
L 332.130682 200.629687 
L 341.130682 200.629687 
" style="fill: none; stroke: #2b737e; stroke-width: 1.5; stroke-linecap: square"/>
    </g>
    <g id="text_14">
     <!-- $TAM\_S_{0}$ -->
     <g transform="translate(348.330682 203.779687) scale(0.09 -0.09)">
      <defs>
       <path id="DejaVuSans-Oblique-54" d="M 378 4666 
L 4325 4666 
L 4225 4134 
L 2559 4134 
L 1759 0 
L 1125 0 
L 1925 4134 
L 275 4134 
L 378 4666 
z
" transform="scale(0.015625)"/>
       <path id="DejaVuSans-Oblique-41" d="M 2356 4666 
L 3072 4666 
L 3938 0 
L 3278 0 
L 3084 1197 
L 984 1197 
L 325 0 
L -341 0 
L 2356 4666 
z
M 2584 4044 
L 1275 1722 
L 2988 1722 
L 2584 4044 
z
" transform="scale(0.015625)"/>
       <path id="DejaVuSans-Oblique-4d" d="M 1081 4666 
L 2028 4666 
L 2572 1522 
L 4378 4666 
L 5350 4666 
L 4441 0 
L 3828 0 
L 4622 4091 
L 2791 897 
L 2175 897 
L 1581 4103 
L 788 0 
L 172 0 
L 1081 4666 
z
" transform="scale(0.015625)"/>
       <path id="DejaVuSans-5f" d="M 3263 -1063 
L 3263 -1509 
L -63 -1509 
L -63 -1063 
L 3263 -1063 
z
" transform="scale(0.015625)"/>
       <path id="DejaVuSans-Oblique-53" d="M 3859 4513 
L 3738 3897 
Q 3422 4066 3111 4152 
Q 2800 4238 2509 4238 
Q 1944 4238 1609 3991 
Q 1275 3744 1275 3334 
Q 1275 3109 1398 2989 
Q 1522 2869 2034 2731 
L 2413 2638 
Q 3053 2472 3303 2217 
Q 3553 1963 3553 1503 
Q 3553 797 2998 353 
Q 2444 -91 1538 -91 
Q 1166 -91 791 -17 
Q 416 56 38 206 
L 166 856 
Q 513 641 861 531 
Q 1209 422 1556 422 
Q 2147 422 2503 684 
Q 2859 947 2859 1369 
Q 2859 1650 2717 1795 
Q 2575 1941 2106 2059 
L 1728 2156 
Q 1081 2325 845 2545 
Q 609 2766 609 3163 
Q 609 3859 1145 4304 
Q 1681 4750 2541 4750 
Q 2875 4750 3203 4690 
Q 3531 4631 3859 4513 
z
" transform="scale(0.015625)"/>
      </defs>
      <use xlink:href="#DejaVuSans-Oblique-54" transform="translate(0 0.78125)"/>
      <use xlink:href="#DejaVuSans-Oblique-41" transform="translate(61.083984 0.78125)"/>
      <use xlink:href="#DejaVuSans-Oblique-4d" transform="translate(129.492188 0.78125)"/>
      <use xlink:href="#DejaVuSans-5f" transform="translate(215.771484 0.78125)"/>
      <use xlink:href="#DejaVuSans-Oblique-53" transform="translate(265.771484 0.78125)"/>
      <use xlink:href="#DejaVuSans-30" transform="translate(329.248047 -15.625) scale(0.7)"/>
     </g>
    </g>
    <g id="line2d_27">
     <path d="M 323.130682 214.128281 
L 332.130682 214.128281 
L 341.130682 214.128281 
" style="fill: none; stroke: #5ea04b; stroke-width: 1.5; stroke-linecap: square"/>
    </g>
    <g id="text_15">
     <!-- $TAM\_S_{1}$ -->
     <g transform="translate(348.330682 217.278281) scale(0.09 -0.09)">
      <use xlink:href="#DejaVuSans-Oblique-54" transform="translate(0 0.78125)"/>
      <use xlink:href="#DejaVuSans-Oblique-41" transform="translate(61.083984 0.78125)"/>
      <use xlink:href="#DejaVuSans-Oblique-4d" transform="translate(129.492188 0.78125)"/>
      <use xlink:href="#DejaVuSans-5f" transform="translate(215.771484 0.78125)"/>
      <use xlink:href="#DejaVuSans-Oblique-53" transform="translate(265.771484 0.78125)"/>
      <use xlink:href="#DejaVuSans-31" transform="translate(329.248047 -15.625) scale(0.7)"/>
     </g>
    </g>
    <g id="line2d_28">
     <path d="M 323.130682 227.626875 
L 332.130682 227.626875 
L 341.130682 227.626875 
" style="fill: none; stroke: #bdab62; stroke-width: 1.5; stroke-linecap: square"/>
    </g>
    <g id="text_16">
     <!-- $TAM\_S_{2}$ -->
     <g transform="translate(348.330682 230.776875) scale(0.09 -0.09)">
      <use xlink:href="#DejaVuSans-Oblique-54" transform="translate(0 0.78125)"/>
      <use xlink:href="#DejaVuSans-Oblique-41" transform="translate(61.083984 0.78125)"/>
      <use xlink:href="#DejaVuSans-Oblique-4d" transform="translate(129.492188 0.78125)"/>
      <use xlink:href="#DejaVuSans-5f" transform="translate(215.771484 0.78125)"/>
      <use xlink:href="#DejaVuSans-Oblique-53" transform="translate(265.771484 0.78125)"/>
      <use xlink:href="#DejaVuSans-32" transform="translate(329.248047 -15.625) scale(0.7)"/>
     </g>
    </g>
   </g>
  </g>
 </g>
 <defs>
  <clipPath id="p2cd81341b1">
   <rect x="95.785625" y="15.340963" width="294.575057" height="225.695912"/>
  </clipPath>
 </defs>
</svg>
