<?xml version="1.0" encoding="utf-8" standalone="no"?>
<!DOCTYPE svg PUBLIC "-//W3C//DTD SVG 1.1//EN"
  "http://www.w3.org/Graphics/SVG/1.1/DTD/svg11.dtd">
<svg xmlns:xlink="http://www.w3.org/1999/xlink" width="414pt" height="288pt" viewBox="0 0 414 288" xmlns="http://www.w3.org/2000/svg" version="1.1">
 <metadata>
  <rdf:RDF xmlns:dc="http://purl.org/dc/elements/1.1/" xmlns:cc="http://creativecommons.org/ns#" xmlns:rdf="http://www.w3.org/1999/02/22-rdf-syntax-ns#">
   <cc:Work>
    <dc:type rdf:resource="http://purl.org/dc/dcmitype/StillImage"/>
    <dc:date>2023-09-07T00:36:02.719063</dc:date>
    <dc:format>image/svg+xml</dc:format>
    <dc:creator>
     <cc:Agent>
      <dc:title>Matplotlib v3.7.2, https://matplotlib.org/</dc:title>
     </cc:Agent>
    </dc:creator>
   </cc:Work>
  </rdf:RDF>
 </metadata>
 <defs>
  <style type="text/css">*{stroke-linejoin: round; stroke-linecap: butt}</style>
 </defs>
 <g id="figure_1">
  <g id="patch_1">
   <path d="M 0 288 
L 414 288 
L 414 0 
L 0 0 
L 0 288 
z
" style="fill: none"/>
  </g>
  <g id="axes_1">
   <g id="patch_2">
    <path d="M 69.5 241.036875 
L 403.2 241.036875 
L 403.2 10.8 
L 69.5 10.8 
L 69.5 241.036875 
z
" style="fill: none"/>
   </g>
   <g id="matplotlib.axis_1">
    <g id="xtick_1">
     <g id="line2d_1">
      <defs>
       <path id="ma2ff0e7769" d="M 0 0 
L 0 3.5 
" style="stroke: #000000; stroke-width: 0.8"/>
      </defs>
      <g>
       <use xlink:href="#ma2ff0e7769" x="84.668182" y="241.036875" style="stroke: #000000; stroke-width: 0.8"/>
      </g>
     </g>
     <g id="text_1">
      <!-- 0 -->
      <g transform="translate(79.578182 260.194375) scale(0.16 -0.16)">
       <defs>
        <path id="DejaVuSans-30" d="M 2034 4250 
Q 1547 4250 1301 3770 
Q 1056 3291 1056 2328 
Q 1056 1369 1301 889 
Q 1547 409 2034 409 
Q 2525 409 2770 889 
Q 3016 1369 3016 2328 
Q 3016 3291 2770 3770 
Q 2525 4250 2034 4250 
z
M 2034 4750 
Q 2819 4750 3233 4129 
Q 3647 3509 3647 2328 
Q 3647 1150 3233 529 
Q 2819 -91 2034 -91 
Q 1250 -91 836 529 
Q 422 1150 422 2328 
Q 422 3509 836 4129 
Q 1250 4750 2034 4750 
z
" transform="scale(0.015625)"/>
       </defs>
       <use xlink:href="#DejaVuSans-30"/>
      </g>
     </g>
    </g>
    <g id="xtick_2">
     <g id="line2d_2">
      <g>
       <use xlink:href="#ma2ff0e7769" x="185.789394" y="241.036875" style="stroke: #000000; stroke-width: 0.8"/>
      </g>
     </g>
     <g id="text_2">
      <!-- 20 -->
      <g transform="translate(175.609394 260.194375) scale(0.16 -0.16)">
       <defs>
        <path id="DejaVuSans-32" d="M 1228 531 
L 3431 531 
L 3431 0 
L 469 0 
L 469 531 
Q 828 903 1448 1529 
Q 2069 2156 2228 2338 
Q 2531 2678 2651 2914 
Q 2772 3150 2772 3378 
Q 2772 3750 2511 3984 
Q 2250 4219 1831 4219 
Q 1534 4219 1204 4116 
Q 875 4013 500 3803 
L 500 4441 
Q 881 4594 1212 4672 
Q 1544 4750 1819 4750 
Q 2544 4750 2975 4387 
Q 3406 4025 3406 3419 
Q 3406 3131 3298 2873 
Q 3191 2616 2906 2266 
Q 2828 2175 2409 1742 
Q 1991 1309 1228 531 
z
" transform="scale(0.015625)"/>
       </defs>
       <use xlink:href="#DejaVuSans-32"/>
       <use xlink:href="#DejaVuSans-30" x="63.623047"/>
      </g>
     </g>
    </g>
    <g id="xtick_3">
     <g id="line2d_3">
      <g>
       <use xlink:href="#ma2ff0e7769" x="286.910606" y="241.036875" style="stroke: #000000; stroke-width: 0.8"/>
      </g>
     </g>
     <g id="text_3">
      <!-- 40 -->
      <g transform="translate(276.730606 260.194375) scale(0.16 -0.16)">
       <defs>
        <path id="DejaVuSans-34" d="M 2419 4116 
L 825 1625 
L 2419 1625 
L 2419 4116 
z
M 2253 4666 
L 3047 4666 
L 3047 1625 
L 3713 1625 
L 3713 1100 
L 3047 1100 
L 3047 0 
L 2419 0 
L 2419 1100 
L 313 1100 
L 313 1709 
L 2253 4666 
z
" transform="scale(0.015625)"/>
       </defs>
       <use xlink:href="#DejaVuSans-34"/>
       <use xlink:href="#DejaVuSans-30" x="63.623047"/>
      </g>
     </g>
    </g>
    <g id="xtick_4">
     <g id="line2d_4">
      <g>
       <use xlink:href="#ma2ff0e7769" x="388.031818" y="241.036875" style="stroke: #000000; stroke-width: 0.8"/>
      </g>
     </g>
     <g id="text_4">
      <!-- 60 -->
      <g transform="translate(377.851818 260.194375) scale(0.16 -0.16)">
       <defs>
        <path id="DejaVuSans-36" d="M 2113 2584 
Q 1688 2584 1439 2293 
Q 1191 2003 1191 1497 
Q 1191 994 1439 701 
Q 1688 409 2113 409 
Q 2538 409 2786 701 
Q 3034 994 3034 1497 
Q 3034 2003 2786 2293 
Q 2538 2584 2113 2584 
z
M 3366 4563 
L 3366 3988 
Q 3128 4100 2886 4159 
Q 2644 4219 2406 4219 
Q 1781 4219 1451 3797 
Q 1122 3375 1075 2522 
Q 1259 2794 1537 2939 
Q 1816 3084 2150 3084 
Q 2853 3084 3261 2657 
Q 3669 2231 3669 1497 
Q 3669 778 3244 343 
Q 2819 -91 2113 -91 
Q 1303 -91 875 529 
Q 447 1150 447 2328 
Q 447 3434 972 4092 
Q 1497 4750 2381 4750 
Q 2619 4750 2861 4703 
Q 3103 4656 3366 4563 
z
" transform="scale(0.015625)"/>
       </defs>
       <use xlink:href="#DejaVuSans-36"/>
       <use xlink:href="#DejaVuSans-30" x="63.623047"/>
      </g>
     </g>
    </g>
    <g id="text_5">
     <!-- Time [min] -->
     <g transform="translate(209.197656 275.120313) scale(0.1 -0.1)">
      <defs>
       <path id="DejaVuSans-54" d="M -19 4666 
L 3928 4666 
L 3928 4134 
L 2272 4134 
L 2272 0 
L 1638 0 
L 1638 4134 
L -19 4134 
L -19 4666 
z
" transform="scale(0.015625)"/>
       <path id="DejaVuSans-69" d="M 603 3500 
L 1178 3500 
L 1178 0 
L 603 0 
L 603 3500 
z
M 603 4863 
L 1178 4863 
L 1178 4134 
L 603 4134 
L 603 4863 
z
" transform="scale(0.015625)"/>
       <path id="DejaVuSans-6d" d="M 3328 2828 
Q 3544 3216 3844 3400 
Q 4144 3584 4550 3584 
Q 5097 3584 5394 3201 
Q 5691 2819 5691 2113 
L 5691 0 
L 5113 0 
L 5113 2094 
Q 5113 2597 4934 2840 
Q 4756 3084 4391 3084 
Q 3944 3084 3684 2787 
Q 3425 2491 3425 1978 
L 3425 0 
L 2847 0 
L 2847 2094 
Q 2847 2600 2669 2842 
Q 2491 3084 2119 3084 
Q 1678 3084 1418 2786 
Q 1159 2488 1159 1978 
L 1159 0 
L 581 0 
L 581 3500 
L 1159 3500 
L 1159 2956 
Q 1356 3278 1631 3431 
Q 1906 3584 2284 3584 
Q 2666 3584 2933 3390 
Q 3200 3197 3328 2828 
z
" transform="scale(0.015625)"/>
       <path id="DejaVuSans-65" d="M 3597 1894 
L 3597 1613 
L 953 1613 
Q 991 1019 1311 708 
Q 1631 397 2203 397 
Q 2534 397 2845 478 
Q 3156 559 3463 722 
L 3463 178 
Q 3153 47 2828 -22 
Q 2503 -91 2169 -91 
Q 1331 -91 842 396 
Q 353 884 353 1716 
Q 353 2575 817 3079 
Q 1281 3584 2069 3584 
Q 2775 3584 3186 3129 
Q 3597 2675 3597 1894 
z
M 3022 2063 
Q 3016 2534 2758 2815 
Q 2500 3097 2075 3097 
Q 1594 3097 1305 2825 
Q 1016 2553 972 2059 
L 3022 2063 
z
" transform="scale(0.015625)"/>
       <path id="DejaVuSans-20" transform="scale(0.015625)"/>
       <path id="DejaVuSans-5b" d="M 550 4863 
L 1875 4863 
L 1875 4416 
L 1125 4416 
L 1125 -397 
L 1875 -397 
L 1875 -844 
L 550 -844 
L 550 4863 
z
" transform="scale(0.015625)"/>
       <path id="DejaVuSans-6e" d="M 3513 2113 
L 3513 0 
L 2938 0 
L 2938 2094 
Q 2938 2591 2744 2837 
Q 2550 3084 2163 3084 
Q 1697 3084 1428 2787 
Q 1159 2491 1159 1978 
L 1159 0 
L 581 0 
L 581 3500 
L 1159 3500 
L 1159 2956 
Q 1366 3272 1645 3428 
Q 1925 3584 2291 3584 
Q 2894 3584 3203 3211 
Q 3513 2838 3513 2113 
z
" transform="scale(0.015625)"/>
       <path id="DejaVuSans-5d" d="M 1947 4863 
L 1947 -844 
L 622 -844 
L 622 -397 
L 1369 -397 
L 1369 4416 
L 622 4416 
L 622 4863 
L 1947 4863 
z
" transform="scale(0.015625)"/>
      </defs>
      <use xlink:href="#DejaVuSans-54"/>
      <use xlink:href="#DejaVuSans-69" x="57.958984"/>
      <use xlink:href="#DejaVuSans-6d" x="85.742188"/>
      <use xlink:href="#DejaVuSans-65" x="183.154297"/>
      <use xlink:href="#DejaVuSans-20" x="244.677734"/>
      <use xlink:href="#DejaVuSans-5b" x="276.464844"/>
      <use xlink:href="#DejaVuSans-6d" x="315.478516"/>
      <use xlink:href="#DejaVuSans-69" x="412.890625"/>
      <use xlink:href="#DejaVuSans-6e" x="440.673828"/>
      <use xlink:href="#DejaVuSans-5d" x="504.052734"/>
     </g>
    </g>
   </g>
   <g id="matplotlib.axis_2">
    <g id="ytick_1">
     <g id="line2d_5">
      <defs>
       <path id="m31b2cbb8cc" d="M 0 0 
L -3.5 0 
" style="stroke: #000000; stroke-width: 0.8"/>
      </defs>
      <g>
       <use xlink:href="#m31b2cbb8cc" x="69.5" y="233.005914" style="stroke: #000000; stroke-width: 0.8"/>
      </g>
     </g>
     <g id="text_6">
      <!-- $\mathdefault{10^{-3}}$ -->
      <g transform="translate(24.9 239.084664) scale(0.16 -0.16)">
       <defs>
        <path id="DejaVuSans-31" d="M 794 531 
L 1825 531 
L 1825 4091 
L 703 3866 
L 703 4441 
L 1819 4666 
L 2450 4666 
L 2450 531 
L 3481 531 
L 3481 0 
L 794 0 
L 794 531 
z
" transform="scale(0.015625)"/>
        <path id="DejaVuSans-2212" d="M 678 2272 
L 4684 2272 
L 4684 1741 
L 678 1741 
L 678 2272 
z
" transform="scale(0.015625)"/>
        <path id="DejaVuSans-33" d="M 2597 2516 
Q 3050 2419 3304 2112 
Q 3559 1806 3559 1356 
Q 3559 666 3084 287 
Q 2609 -91 1734 -91 
Q 1441 -91 1130 -33 
Q 819 25 488 141 
L 488 750 
Q 750 597 1062 519 
Q 1375 441 1716 441 
Q 2309 441 2620 675 
Q 2931 909 2931 1356 
Q 2931 1769 2642 2001 
Q 2353 2234 1838 2234 
L 1294 2234 
L 1294 2753 
L 1863 2753 
Q 2328 2753 2575 2939 
Q 2822 3125 2822 3475 
Q 2822 3834 2567 4026 
Q 2313 4219 1838 4219 
Q 1578 4219 1281 4162 
Q 984 4106 628 3988 
L 628 4550 
Q 988 4650 1302 4700 
Q 1616 4750 1894 4750 
Q 2613 4750 3031 4423 
Q 3450 4097 3450 3541 
Q 3450 3153 3228 2886 
Q 3006 2619 2597 2516 
z
" transform="scale(0.015625)"/>
       </defs>
       <use xlink:href="#DejaVuSans-31" transform="translate(0 0.765625)"/>
       <use xlink:href="#DejaVuSans-30" transform="translate(63.623047 0.765625)"/>
       <use xlink:href="#DejaVuSans-2212" transform="translate(128.203125 39.046875) scale(0.7)"/>
       <use xlink:href="#DejaVuSans-33" transform="translate(186.855469 39.046875) scale(0.7)"/>
      </g>
     </g>
    </g>
    <g id="ytick_2">
     <g id="line2d_6">
      <g>
       <use xlink:href="#m31b2cbb8cc" x="69.5" y="158.076309" style="stroke: #000000; stroke-width: 0.8"/>
      </g>
     </g>
     <g id="text_7">
      <!-- $\mathdefault{10^{-2}}$ -->
      <g transform="translate(24.9 164.155059) scale(0.16 -0.16)">
       <use xlink:href="#DejaVuSans-31" transform="translate(0 0.765625)"/>
       <use xlink:href="#DejaVuSans-30" transform="translate(63.623047 0.765625)"/>
       <use xlink:href="#DejaVuSans-2212" transform="translate(128.203125 39.046875) scale(0.7)"/>
       <use xlink:href="#DejaVuSans-32" transform="translate(186.855469 39.046875) scale(0.7)"/>
      </g>
     </g>
    </g>
    <g id="ytick_3">
     <g id="line2d_7">
      <g>
       <use xlink:href="#m31b2cbb8cc" x="69.5" y="83.146704" style="stroke: #000000; stroke-width: 0.8"/>
      </g>
     </g>
     <g id="text_8">
      <!-- $\mathdefault{10^{-1}}$ -->
      <g transform="translate(24.9 89.225454) scale(0.16 -0.16)">
       <use xlink:href="#DejaVuSans-31" transform="translate(0 0.684375)"/>
       <use xlink:href="#DejaVuSans-30" transform="translate(63.623047 0.684375)"/>
       <use xlink:href="#DejaVuSans-2212" transform="translate(128.203125 38.965625) scale(0.7)"/>
       <use xlink:href="#DejaVuSans-31" transform="translate(186.855469 38.965625) scale(0.7)"/>
      </g>
     </g>
    </g>
    <g id="ytick_4">
     <g id="line2d_8">
      <defs>
       <path id="maa8a9bea28" d="M 0 0 
L -2 0 
" style="stroke: #000000; stroke-width: 0.6"/>
      </defs>
      <g>
       <use xlink:href="#maa8a9bea28" x="69.5" y="240.267343" style="stroke: #000000; stroke-width: 0.6"/>
      </g>
     </g>
    </g>
    <g id="ytick_5">
     <g id="line2d_9">
      <g>
       <use xlink:href="#maa8a9bea28" x="69.5" y="236.434504" style="stroke: #000000; stroke-width: 0.6"/>
      </g>
     </g>
    </g>
    <g id="ytick_6">
     <g id="line2d_10">
      <g>
       <use xlink:href="#maa8a9bea28" x="69.5" y="210.449855" style="stroke: #000000; stroke-width: 0.6"/>
      </g>
     </g>
    </g>
    <g id="ytick_7">
     <g id="line2d_11">
      <g>
       <use xlink:href="#maa8a9bea28" x="69.5" y="197.255407" style="stroke: #000000; stroke-width: 0.6"/>
      </g>
     </g>
    </g>
    <g id="ytick_8">
     <g id="line2d_12">
      <g>
       <use xlink:href="#maa8a9bea28" x="69.5" y="187.893797" style="stroke: #000000; stroke-width: 0.6"/>
      </g>
     </g>
    </g>
    <g id="ytick_9">
     <g id="line2d_13">
      <g>
       <use xlink:href="#maa8a9bea28" x="69.5" y="180.632368" style="stroke: #000000; stroke-width: 0.6"/>
      </g>
     </g>
    </g>
    <g id="ytick_10">
     <g id="line2d_14">
      <g>
       <use xlink:href="#maa8a9bea28" x="69.5" y="174.699348" style="stroke: #000000; stroke-width: 0.6"/>
      </g>
     </g>
    </g>
    <g id="ytick_11">
     <g id="line2d_15">
      <g>
       <use xlink:href="#maa8a9bea28" x="69.5" y="169.683052" style="stroke: #000000; stroke-width: 0.6"/>
      </g>
     </g>
    </g>
    <g id="ytick_12">
     <g id="line2d_16">
      <g>
       <use xlink:href="#maa8a9bea28" x="69.5" y="165.337738" style="stroke: #000000; stroke-width: 0.6"/>
      </g>
     </g>
    </g>
    <g id="ytick_13">
     <g id="line2d_17">
      <g>
       <use xlink:href="#maa8a9bea28" x="69.5" y="161.5049" style="stroke: #000000; stroke-width: 0.6"/>
      </g>
     </g>
    </g>
    <g id="ytick_14">
     <g id="line2d_18">
      <g>
       <use xlink:href="#maa8a9bea28" x="69.5" y="135.520251" style="stroke: #000000; stroke-width: 0.6"/>
      </g>
     </g>
    </g>
    <g id="ytick_15">
     <g id="line2d_19">
      <g>
       <use xlink:href="#maa8a9bea28" x="69.5" y="122.325802" style="stroke: #000000; stroke-width: 0.6"/>
      </g>
     </g>
    </g>
    <g id="ytick_16">
     <g id="line2d_20">
      <g>
       <use xlink:href="#maa8a9bea28" x="69.5" y="112.964192" style="stroke: #000000; stroke-width: 0.6"/>
      </g>
     </g>
    </g>
    <g id="ytick_17">
     <g id="line2d_21">
      <g>
       <use xlink:href="#maa8a9bea28" x="69.5" y="105.702763" style="stroke: #000000; stroke-width: 0.6"/>
      </g>
     </g>
    </g>
    <g id="ytick_18">
     <g id="line2d_22">
      <g>
       <use xlink:href="#maa8a9bea28" x="69.5" y="99.769744" style="stroke: #000000; stroke-width: 0.6"/>
      </g>
     </g>
    </g>
    <g id="ytick_19">
     <g id="line2d_23">
      <g>
       <use xlink:href="#maa8a9bea28" x="69.5" y="94.753447" style="stroke: #000000; stroke-width: 0.6"/>
      </g>
     </g>
    </g>
    <g id="ytick_20">
     <g id="line2d_24">
      <g>
       <use xlink:href="#maa8a9bea28" x="69.5" y="90.408133" style="stroke: #000000; stroke-width: 0.6"/>
      </g>
     </g>
    </g>
    <g id="ytick_21">
     <g id="line2d_25">
      <g>
       <use xlink:href="#maa8a9bea28" x="69.5" y="86.575295" style="stroke: #000000; stroke-width: 0.6"/>
      </g>
     </g>
    </g>
    <g id="ytick_22">
     <g id="line2d_26">
      <g>
       <use xlink:href="#maa8a9bea28" x="69.5" y="60.590646" style="stroke: #000000; stroke-width: 0.6"/>
      </g>
     </g>
    </g>
    <g id="ytick_23">
     <g id="line2d_27">
      <g>
       <use xlink:href="#maa8a9bea28" x="69.5" y="47.396197" style="stroke: #000000; stroke-width: 0.6"/>
      </g>
     </g>
    </g>
    <g id="ytick_24">
     <g id="line2d_28">
      <g>
       <use xlink:href="#maa8a9bea28" x="69.5" y="38.034587" style="stroke: #000000; stroke-width: 0.6"/>
      </g>
     </g>
    </g>
    <g id="ytick_25">
     <g id="line2d_29">
      <g>
       <use xlink:href="#maa8a9bea28" x="69.5" y="30.773158" style="stroke: #000000; stroke-width: 0.6"/>
      </g>
     </g>
    </g>
    <g id="ytick_26">
     <g id="line2d_30">
      <g>
       <use xlink:href="#maa8a9bea28" x="69.5" y="24.840139" style="stroke: #000000; stroke-width: 0.6"/>
      </g>
     </g>
    </g>
    <g id="ytick_27">
     <g id="line2d_31">
      <g>
       <use xlink:href="#maa8a9bea28" x="69.5" y="19.823842" style="stroke: #000000; stroke-width: 0.6"/>
      </g>
     </g>
    </g>
    <g id="ytick_28">
     <g id="line2d_32">
      <g>
       <use xlink:href="#maa8a9bea28" x="69.5" y="15.478529" style="stroke: #000000; stroke-width: 0.6"/>
      </g>
     </g>
    </g>
    <g id="ytick_29">
     <g id="line2d_33">
      <g>
       <use xlink:href="#maa8a9bea28" x="69.5" y="11.64569" style="stroke: #000000; stroke-width: 0.6"/>
      </g>
     </g>
    </g>
    <g id="text_9">
     <!-- Attitude Error Norm $|\sigma_{B/R}|$ -->
     <g transform="translate(18.5 189.568437) rotate(-90) scale(0.1 -0.1)">
      <defs>
       <path id="DejaVuSans-41" d="M 2188 4044 
L 1331 1722 
L 3047 1722 
L 2188 4044 
z
M 1831 4666 
L 2547 4666 
L 4325 0 
L 3669 0 
L 3244 1197 
L 1141 1197 
L 716 0 
L 50 0 
L 1831 4666 
z
" transform="scale(0.015625)"/>
       <path id="DejaVuSans-74" d="M 1172 4494 
L 1172 3500 
L 2356 3500 
L 2356 3053 
L 1172 3053 
L 1172 1153 
Q 1172 725 1289 603 
Q 1406 481 1766 481 
L 2356 481 
L 2356 0 
L 1766 0 
Q 1100 0 847 248 
Q 594 497 594 1153 
L 594 3053 
L 172 3053 
L 172 3500 
L 594 3500 
L 594 4494 
L 1172 4494 
z
" transform="scale(0.015625)"/>
       <path id="DejaVuSans-75" d="M 544 1381 
L 544 3500 
L 1119 3500 
L 1119 1403 
Q 1119 906 1312 657 
Q 1506 409 1894 409 
Q 2359 409 2629 706 
Q 2900 1003 2900 1516 
L 2900 3500 
L 3475 3500 
L 3475 0 
L 2900 0 
L 2900 538 
Q 2691 219 2414 64 
Q 2138 -91 1772 -91 
Q 1169 -91 856 284 
Q 544 659 544 1381 
z
M 1991 3584 
L 1991 3584 
z
" transform="scale(0.015625)"/>
       <path id="DejaVuSans-64" d="M 2906 2969 
L 2906 4863 
L 3481 4863 
L 3481 0 
L 2906 0 
L 2906 525 
Q 2725 213 2448 61 
Q 2172 -91 1784 -91 
Q 1150 -91 751 415 
Q 353 922 353 1747 
Q 353 2572 751 3078 
Q 1150 3584 1784 3584 
Q 2172 3584 2448 3432 
Q 2725 3281 2906 2969 
z
M 947 1747 
Q 947 1113 1208 752 
Q 1469 391 1925 391 
Q 2381 391 2643 752 
Q 2906 1113 2906 1747 
Q 2906 2381 2643 2742 
Q 2381 3103 1925 3103 
Q 1469 3103 1208 2742 
Q 947 2381 947 1747 
z
" transform="scale(0.015625)"/>
       <path id="DejaVuSans-45" d="M 628 4666 
L 3578 4666 
L 3578 4134 
L 1259 4134 
L 1259 2753 
L 3481 2753 
L 3481 2222 
L 1259 2222 
L 1259 531 
L 3634 531 
L 3634 0 
L 628 0 
L 628 4666 
z
" transform="scale(0.015625)"/>
       <path id="DejaVuSans-72" d="M 2631 2963 
Q 2534 3019 2420 3045 
Q 2306 3072 2169 3072 
Q 1681 3072 1420 2755 
Q 1159 2438 1159 1844 
L 1159 0 
L 581 0 
L 581 3500 
L 1159 3500 
L 1159 2956 
Q 1341 3275 1631 3429 
Q 1922 3584 2338 3584 
Q 2397 3584 2469 3576 
Q 2541 3569 2628 3553 
L 2631 2963 
z
" transform="scale(0.015625)"/>
       <path id="DejaVuSans-6f" d="M 1959 3097 
Q 1497 3097 1228 2736 
Q 959 2375 959 1747 
Q 959 1119 1226 758 
Q 1494 397 1959 397 
Q 2419 397 2687 759 
Q 2956 1122 2956 1747 
Q 2956 2369 2687 2733 
Q 2419 3097 1959 3097 
z
M 1959 3584 
Q 2709 3584 3137 3096 
Q 3566 2609 3566 1747 
Q 3566 888 3137 398 
Q 2709 -91 1959 -91 
Q 1206 -91 779 398 
Q 353 888 353 1747 
Q 353 2609 779 3096 
Q 1206 3584 1959 3584 
z
" transform="scale(0.015625)"/>
       <path id="DejaVuSans-4e" d="M 628 4666 
L 1478 4666 
L 3547 763 
L 3547 4666 
L 4159 4666 
L 4159 0 
L 3309 0 
L 1241 3903 
L 1241 0 
L 628 0 
L 628 4666 
z
" transform="scale(0.015625)"/>
       <path id="DejaVuSans-7c" d="M 1344 4891 
L 1344 -1509 
L 813 -1509 
L 813 4891 
L 1344 4891 
z
" transform="scale(0.015625)"/>
       <path id="DejaVuSans-Oblique-3c3" d="M 2219 3044 
Q 1744 3044 1422 2700 
Q 1081 2341 969 1747 
Q 844 1119 1044 756 
Q 1241 397 1706 397 
Q 2166 397 2503 759 
Q 2844 1122 2966 1747 
Q 3075 2319 2881 2700 
Q 2700 3044 2219 3044 
z
M 2309 3503 
L 4219 3500 
L 4106 2925 
L 3463 2925 
Q 3706 2438 3575 1747 
Q 3406 888 2884 400 
Q 2359 -91 1609 -91 
Q 856 -91 525 400 
Q 194 888 363 1747 
Q 528 2609 1050 3097 
Q 1484 3503 2309 3503 
z
" transform="scale(0.015625)"/>
       <path id="DejaVuSans-Oblique-42" d="M 1081 4666 
L 2694 4666 
Q 3350 4666 3675 4422 
Q 4000 4178 4000 3688 
Q 4000 3238 3720 2911 
Q 3441 2584 2988 2516 
Q 3375 2428 3569 2181 
Q 3763 1934 3763 1522 
Q 3763 819 3242 409 
Q 2722 0 1819 0 
L 172 0 
L 1081 4666 
z
M 1234 2228 
L 903 519 
L 1919 519 
Q 2491 519 2800 781 
Q 3109 1044 3109 1522 
Q 3109 1891 2904 2059 
Q 2700 2228 2247 2228 
L 1234 2228 
z
M 1606 4147 
L 1331 2741 
L 2272 2741 
Q 2775 2741 3058 2959 
Q 3341 3178 3341 3566 
Q 3341 3869 3150 4008 
Q 2959 4147 2541 4147 
L 1606 4147 
z
" transform="scale(0.015625)"/>
       <path id="DejaVuSans-2f" d="M 1625 4666 
L 2156 4666 
L 531 -594 
L 0 -594 
L 1625 4666 
z
" transform="scale(0.015625)"/>
       <path id="DejaVuSans-Oblique-52" d="M 1613 4147 
L 1294 2491 
L 2106 2491 
Q 2584 2491 2879 2755 
Q 3175 3019 3175 3444 
Q 3175 3784 2976 3965 
Q 2778 4147 2406 4147 
L 1613 4147 
z
M 2772 2241 
Q 2972 2194 3105 2009 
Q 3238 1825 3413 1275 
L 3809 0 
L 3144 0 
L 2778 1197 
Q 2638 1659 2453 1815 
Q 2269 1972 1888 1972 
L 1191 1972 
L 806 0 
L 172 0 
L 1081 4666 
L 2503 4666 
Q 3150 4666 3495 4373 
Q 3841 4081 3841 3531 
Q 3841 3044 3547 2687 
Q 3253 2331 2772 2241 
z
" transform="scale(0.015625)"/>
      </defs>
      <use xlink:href="#DejaVuSans-41" transform="translate(0 0.578125)"/>
      <use xlink:href="#DejaVuSans-74" transform="translate(68.408203 0.578125)"/>
      <use xlink:href="#DejaVuSans-74" transform="translate(107.617188 0.578125)"/>
      <use xlink:href="#DejaVuSans-69" transform="translate(146.826172 0.578125)"/>
      <use xlink:href="#DejaVuSans-74" transform="translate(174.609375 0.578125)"/>
      <use xlink:href="#DejaVuSans-75" transform="translate(213.818359 0.578125)"/>
      <use xlink:href="#DejaVuSans-64" transform="translate(277.197266 0.578125)"/>
      <use xlink:href="#DejaVuSans-65" transform="translate(340.673828 0.578125)"/>
      <use xlink:href="#DejaVuSans-20" transform="translate(402.197266 0.578125)"/>
      <use xlink:href="#DejaVuSans-45" transform="translate(433.984375 0.578125)"/>
      <use xlink:href="#DejaVuSans-72" transform="translate(497.167969 0.578125)"/>
      <use xlink:href="#DejaVuSans-72" transform="translate(538.28125 0.578125)"/>
      <use xlink:href="#DejaVuSans-6f" transform="translate(579.394531 0.578125)"/>
      <use xlink:href="#DejaVuSans-72" transform="translate(640.576172 0.578125)"/>
      <use xlink:href="#DejaVuSans-20" transform="translate(681.689453 0.578125)"/>
      <use xlink:href="#DejaVuSans-4e" transform="translate(713.476562 0.578125)"/>
      <use xlink:href="#DejaVuSans-6f" transform="translate(788.28125 0.578125)"/>
      <use xlink:href="#DejaVuSans-72" transform="translate(849.462891 0.578125)"/>
      <use xlink:href="#DejaVuSans-6d" transform="translate(890.576172 0.578125)"/>
      <use xlink:href="#DejaVuSans-20" transform="translate(987.988281 0.578125)"/>
      <use xlink:href="#DejaVuSans-7c" transform="translate(1019.775391 0.578125)"/>
      <use xlink:href="#DejaVuSans-Oblique-3c3" transform="translate(1053.466797 0.578125)"/>
      <use xlink:href="#DejaVuSans-Oblique-42" transform="translate(1116.845703 -15.828125) scale(0.7)"/>
      <use xlink:href="#DejaVuSans-2f" transform="translate(1164.868164 -15.828125) scale(0.7)"/>
      <use xlink:href="#DejaVuSans-Oblique-52" transform="translate(1187.227148 -15.828125) scale(0.7)"/>
      <use xlink:href="#DejaVuSans-7c" transform="translate(1238.599219 0.578125)"/>
     </g>
    </g>
   </g>
   <g id="line2d_34">
    <path d="M 84.668182 39.176984 
L 85.08952 21.265313 
L 85.510859 25.165092 
L 85.932197 34.757519 
L 86.353535 47.120179 
L 87.196212 79.723713 
L 87.617551 79.327159 
L 88.460227 59.269202 
L 88.881566 54.136958 
L 89.302904 51.504647 
L 89.724242 50.795948 
L 90.145581 51.665468 
L 90.566919 53.899629 
L 90.988258 57.36437 
L 91.830934 67.643831 
L 93.094949 87.61629 
L 93.516288 91.64391 
L 93.937626 92.402865 
L 94.358965 90.972252 
L 95.201641 87.562903 
L 95.62298 86.934058 
L 96.044318 87.216054 
L 96.465657 88.37196 
L 96.886995 90.321402 
L 97.729672 96.121838 
L 98.993687 106.392694 
L 99.415025 109.031171 
L 99.836364 110.915936 
L 100.257702 112.127421 
L 101.943056 115.435146 
L 102.785732 118.65155 
L 103.628409 123.290044 
L 106.156439 139.443378 
L 106.999116 143.387283 
L 108.263131 148.182993 
L 109.948485 153.732888 
L 111.2125 157.019623 
L 112.476515 160.140701 
L 113.319192 162.879561 
L 114.161869 166.662525 
L 115.004545 171.86259 
L 115.847222 178.861836 
L 116.689899 188.154017 
L 117.532576 200.350845 
L 118.796591 220.757675 
L 119.217929 222.560978 
L 119.639268 219.969987 
L 120.903283 206.691248 
L 121.74596 201.064615 
L 122.167298 199.326804 
L 122.588636 198.208712 
L 123.009975 197.652814 
L 123.431313 197.616191 
L 123.852652 198.068421 
L 124.27399 198.989003 
L 124.695328 200.364628 
L 125.538005 204.442646 
L 126.380682 210.163976 
L 128.066035 222.836048 
L 128.487374 224.36449 
L 128.908712 224.529408 
L 129.330051 223.464759 
L 130.172727 219.406051 
L 131.015404 215.280904 
L 131.858081 212.436834 
L 132.279419 211.607662 
L 132.700758 211.18124 
L 133.122096 211.152098 
L 133.543434 211.511003 
L 133.964773 212.24539 
L 134.386111 213.337281 
L 135.228788 216.462469 
L 136.914141 223.762488 
L 137.33548 224.65412 
L 137.756818 224.712224 
L 138.178157 223.896359 
L 138.599495 222.349242 
L 141.127525 210.162333 
L 141.970202 207.793698 
L 142.39154 207.078102 
L 142.812879 206.679898 
L 143.234217 206.601284 
L 143.655556 206.845052 
L 144.076894 207.415232 
L 144.498232 208.317185 
L 145.340909 211.140314 
L 146.183586 215.333382 
L 147.447601 223.608664 
L 148.290278 228.504257 
L 148.711616 229.6618 
L 149.132955 229.501303 
L 149.554293 228.058952 
L 150.39697 222.839881 
L 151.660985 214.449137 
L 152.503662 210.217072 
L 153.346338 207.325513 
L 153.767677 206.374171 
L 154.189015 205.744148 
L 154.610354 205.430739 
L 155.031692 205.431485 
L 155.45303 205.746501 
L 155.874369 206.378527 
L 156.295707 207.332737 
L 157.138384 210.236524 
L 157.981061 214.504104 
L 159.245076 223.090773 
L 160.087753 228.634385 
L 160.509091 230.269508 
L 160.930429 230.571563 
L 161.351768 229.453155 
L 161.773106 227.219316 
L 163.879798 213.089969 
L 164.722475 209.200072 
L 165.565152 206.654902 
L 165.98649 205.868495 
L 166.407828 205.397099 
L 166.829167 205.236514 
L 167.250505 205.38517 
L 167.671843 205.844228 
L 168.093182 206.617486 
L 168.51452 207.711026 
L 169.357197 210.88917 
L 170.199874 215.415373 
L 172.306566 229.347519 
L 172.727904 230.546899 
L 173.149242 230.342373 
L 173.570581 228.792627 
L 174.413258 223.326512 
L 175.677273 214.694617 
L 176.519949 210.354537 
L 177.362626 207.360361 
L 177.783965 206.354383 
L 178.205303 205.665699 
L 178.626641 205.288586 
L 179.04798 205.219708 
L 179.469318 205.45838 
L 179.890657 206.006609 
L 180.311995 206.868929 
L 181.154672 209.56349 
L 181.997348 213.594635 
L 182.840025 218.908972 
L 184.10404 227.701 
L 184.525379 229.726547 
L 184.946717 230.562718 
L 185.368056 229.977431 
L 185.789394 228.135285 
L 186.632071 222.465302 
L 187.896086 214.013647 
L 188.738763 209.855459 
L 189.581439 207.036263 
L 190.002778 206.113446 
L 190.424116 205.505524 
L 190.845455 205.207424 
L 191.266793 205.21653 
L 191.688131 205.532884 
L 192.10947 206.159179 
L 192.530808 207.100537 
L 193.373485 209.957195 
L 194.216162 214.151265 
L 195.058838 219.596929 
L 196.322854 228.229855 
L 196.744192 229.994975 
L 197.16553 230.484665 
L 197.586869 229.560102 
L 198.008207 227.474638 
L 200.536237 211.220221 
L 201.378914 207.901037 
L 202.221591 205.890935 
L 202.642929 205.358886 
L 203.064268 205.1355 
L 203.485606 205.218815 
L 203.906944 205.609534 
L 204.328283 206.310966 
L 204.749621 207.328751 
L 205.592298 210.342921 
L 206.434975 214.694711 
L 207.69899 223.301884 
L 208.541667 228.687322 
L 208.963005 230.177305 
L 209.384343 230.325612 
L 209.805682 229.0894 
L 210.648359 223.922354 
L 211.912374 215.200976 
L 212.755051 210.703331 
L 213.597727 207.543376 
L 214.019066 206.455112 
L 214.440404 205.684632 
L 214.861742 205.225818 
L 215.283081 205.074769 
L 215.704419 205.230153 
L 216.125758 205.693297 
L 216.547096 206.468092 
L 216.968434 207.560633 
L 217.811111 210.72879 
L 218.653788 215.23288 
L 220.76048 229.073385 
L 221.181818 230.274665 
L 221.603157 230.089412 
L 222.024495 228.569683 
L 222.867172 223.158213 
L 224.131187 214.55594 
L 224.973864 210.213035 
L 225.81654 207.206995 
L 226.237879 206.192764 
L 226.659217 205.49454 
L 227.080556 205.106677 
L 227.501894 205.025853 
L 227.923232 205.251345 
L 228.344571 205.785081 
L 228.765909 206.631489 
L 229.608586 209.289448 
L 230.451263 213.277624 
L 231.293939 218.546428 
L 232.557955 227.322638 
L 232.979293 229.387478 
L 233.400631 230.291082 
L 233.82197 229.785178 
L 234.243308 228.011464 
L 235.085985 222.407243 
L 236.35 213.94093 
L 237.192677 209.749205 
L 238.035354 206.891879 
L 238.456692 205.949147 
L 238.87803 205.320792 
L 239.299369 205.001656 
L 239.720707 204.988987 
L 240.142045 205.282656 
L 240.563384 205.885166 
L 240.984722 206.801446 
L 241.827399 209.603495 
L 242.670076 213.737765 
L 243.512753 219.127754 
L 244.776768 227.785262 
L 245.198106 229.629623 
L 245.619444 230.231738 
L 246.040783 229.422512 
L 246.462121 227.424628 
L 248.990152 211.165374 
L 249.832828 207.790509 
L 250.675505 205.723562 
L 251.096843 205.162744 
L 251.518182 204.910149 
L 251.93952 204.963585 
L 252.360859 205.323498 
L 252.782197 205.992933 
L 253.203535 206.977283 
L 254.046212 209.919656 
L 254.888889 214.19521 
L 256.152904 222.72442 
L 256.995581 228.193018 
L 257.416919 229.802571 
L 257.838258 230.104427 
L 258.259596 229.01248 
L 258.680934 226.819449 
L 260.787626 212.799677 
L 261.630303 208.898284 
L 262.47298 206.323039 
L 262.894318 205.515931 
L 263.315657 205.020353 
L 263.736995 204.832144 
L 264.158333 204.949663 
L 264.579672 205.373908 
L 265.00101 206.108443 
L 265.422348 207.159076 
L 266.265025 210.238027 
L 267.107702 214.649347 
L 268.371717 223.283902 
L 269.214394 228.545162 
L 269.635732 229.909161 
L 270.057071 229.91664 
L 270.478409 228.564769 
L 271.321086 223.308708 
L 272.585101 214.653294 
L 273.427778 210.224068 
L 274.270455 207.127668 
L 274.691793 206.068567 
L 275.113131 205.325668 
L 275.53447 204.893075 
L 275.955808 204.767127 
L 276.377146 204.946717 
L 276.798485 205.433374 
L 277.219823 206.231145 
L 277.641162 207.346215 
L 278.483838 210.557763 
L 279.326515 215.099487 
L 281.433207 228.843038 
L 281.854545 229.954474 
L 282.275884 229.677414 
L 282.697222 228.089486 
L 283.539899 222.637936 
L 284.803914 214.090616 
L 285.646591 209.794254 
L 286.489268 206.829572 
L 286.910606 205.833824 
L 287.331944 205.152777 
L 287.753283 204.780945 
L 288.174621 204.715157 
L 288.59596 204.954827 
L 289.017298 205.501992 
L 289.438636 206.361151 
L 290.281313 209.042551 
L 291.12399 213.050012 
L 291.966667 218.328557 
L 293.230682 227.062987 
L 293.65202 229.087653 
L 294.073359 229.943286 
L 294.494697 229.394861 
L 294.916035 227.595049 
L 295.758712 221.986895 
L 297.022727 213.558455 
L 297.865404 209.391127 
L 298.708081 206.553183 
L 299.129419 205.618361 
L 299.550758 204.996853 
L 299.972096 204.683586 
L 300.393434 204.675875 
L 300.814773 204.973632 
L 301.236111 205.579377 
L 301.657449 206.498029 
L 302.500126 209.302003 
L 303.342803 213.433574 
L 304.18548 218.814581 
L 305.449495 227.445263 
L 305.870833 229.281989 
L 306.292172 229.882174 
L 306.71351 229.078013 
L 307.134848 227.089949 
L 309.662879 210.868706 
L 310.505556 207.493422 
L 311.348232 205.422154 
L 311.769571 204.857894 
L 312.190909 204.60102 
L 312.612247 204.649317 
L 313.033586 205.00318 
L 313.454924 205.665586 
L 313.876263 206.641842 
L 314.718939 209.564481 
L 315.561616 213.815314 
L 316.825631 222.308668 
L 317.668308 227.787982 
L 318.089646 229.428665 
L 318.510985 229.777101 
L 318.932323 228.734636 
L 319.353662 226.581001 
L 321.881692 210.458121 
L 322.724369 207.202357 
L 323.567045 205.244873 
L 323.988384 204.735604 
L 324.409722 204.532968 
L 324.831061 204.635209 
L 325.252399 205.043185 
L 325.673737 205.760304 
L 326.095076 206.792224 
L 326.937753 209.829453 
L 327.780429 214.194417 
L 329.044444 222.779459 
L 329.887121 228.092746 
L 330.30846 229.53192 
L 330.729798 229.635206 
L 331.151136 228.372854 
L 331.993813 223.211735 
L 333.257828 214.545008 
L 334.100505 210.076068 
L 334.943182 206.934915 
L 335.36452 205.852762 
L 335.785859 205.086427 
L 336.207197 204.629906 
L 336.628535 204.479369 
L 337.049874 204.6335 
L 337.471212 205.093599 
L 337.892551 205.863479 
L 338.313889 206.949116 
L 339.156566 210.096839 
L 339.999242 214.570793 
L 342.105934 228.360776 
L 342.527273 229.595565 
L 342.948611 229.462799 
L 343.369949 227.999453 
L 344.212626 222.663911 
L 345.476641 214.080984 
L 346.319318 209.722182 
L 347.161995 206.690754 
L 347.583333 205.661381 
L 348.004672 204.946538 
L 348.42601 204.540546 
L 348.847348 204.439976 
L 349.268687 204.643939 
L 349.690025 205.154152 
L 350.111364 205.974809 
L 350.532702 207.112167 
L 351.375379 210.366139 
L 352.218056 214.943725 
L 354.324747 228.594526 
L 354.746086 229.624575 
L 355.167424 229.266807 
L 355.588763 227.621213 
L 356.431439 222.140963 
L 357.695455 213.648915 
L 358.538131 209.396223 
L 359.380808 206.469607 
L 359.802146 205.490619 
L 360.223485 204.824966 
L 360.644823 204.467297 
L 361.066162 204.414571 
L 361.4875 204.666308 
L 361.908838 205.224623 
L 362.330177 206.09406 
L 363.172854 208.793306 
L 364.01553 212.813899 
L 364.858207 218.096794 
L 366.122222 226.797769 
L 366.543561 228.796121 
L 366.964899 229.623412 
L 367.386237 229.053202 
L 367.807576 227.24364 
L 368.650253 221.644886 
L 369.914268 213.248587 
L 370.756944 209.097817 
L 371.599621 206.27114 
L 372.02096 205.340171 
L 372.442298 204.721429 
L 372.863636 204.409887 
L 373.284975 204.402883 
L 373.706313 204.700326 
L 374.127652 205.304708 
L 374.54899 206.220896 
L 375.391667 209.016339 
L 376.234343 213.134132 
L 377.07702 218.496882 
L 378.341035 227.116563 
L 378.762374 228.968597 
L 379.183712 229.597242 
L 379.605051 228.828162 
L 380.026389 226.872066 
L 382.554419 210.686722 
L 383.397096 207.29803 
L 384.239773 205.209585 
L 384.661111 204.635483 
L 385.082449 204.367881 
L 385.503788 204.404478 
L 385.925126 204.745554 
L 386.346465 205.393955 
L 386.767803 206.354845 
L 387.61048 209.242238 
L 388.031818 211.18169 
L 388.031818 211.18169 
" clip-path="url(#pb3cd7481be)" style="fill: none; stroke: #5ea04b; stroke-width: 1.5; stroke-linecap: square"/>
   </g>
   <g id="patch_3">
    <path d="M 69.5 241.036875 
L 69.5 10.8 
" style="fill: none; stroke: #000000; stroke-width: 0.8; stroke-linejoin: miter; stroke-linecap: square"/>
   </g>
   <g id="patch_4">
    <path d="M 403.2 241.036875 
L 403.2 10.8 
" style="fill: none; stroke: #000000; stroke-width: 0.8; stroke-linejoin: miter; stroke-linecap: square"/>
   </g>
   <g id="patch_5">
    <path d="M 69.5 241.036875 
L 403.2 241.036875 
" style="fill: none; stroke: #000000; stroke-width: 0.8; stroke-linejoin: miter; stroke-linecap: square"/>
   </g>
   <g id="patch_6">
    <path d="M 69.5 10.8 
L 403.2 10.8 
" style="fill: none; stroke: #000000; stroke-width: 0.8; stroke-linejoin: miter; stroke-linecap: square"/>
   </g>
  </g>
 </g>
 <defs>
  <clipPath id="pb3cd7481be">
   <rect x="69.5" y="10.8" width="333.7" height="230.236875"/>
  </clipPath>
 </defs>
</svg>
