<?xml version="1.0" encoding="utf-8" standalone="no"?>
<!DOCTYPE svg PUBLIC "-//W3C//DTD SVG 1.1//EN"
  "http://www.w3.org/Graphics/SVG/1.1/DTD/svg11.dtd">
<svg xmlns:xlink="http://www.w3.org/1999/xlink" width="360pt" height="288pt" viewBox="0 0 360 288" xmlns="http://www.w3.org/2000/svg" version="1.1">
 <metadata>
  <rdf:RDF xmlns:dc="http://purl.org/dc/elements/1.1/" xmlns:cc="http://creativecommons.org/ns#" xmlns:rdf="http://www.w3.org/1999/02/22-rdf-syntax-ns#">
   <cc:Work>
    <dc:type rdf:resource="http://purl.org/dc/dcmitype/StillImage"/>
    <dc:date>2023-09-07T00:36:00.260745</dc:date>
    <dc:format>image/svg+xml</dc:format>
    <dc:creator>
     <cc:Agent>
      <dc:title>Matplotlib v3.7.2, https://matplotlib.org/</dc:title>
     </cc:Agent>
    </dc:creator>
   </cc:Work>
  </rdf:RDF>
 </metadata>
 <defs>
  <style type="text/css">*{stroke-linejoin: round; stroke-linecap: butt}</style>
 </defs>
 <g id="figure_1">
  <g id="patch_1">
   <path d="M 0 288 
L 360 288 
L 360 0 
L 0 0 
L 0 288 
z
" style="fill: none"/>
  </g>
  <g id="axes_1">
   <g id="patch_2">
    <path d="M 41.658125 241.036875 
L 349.2 241.036875 
L 349.2 25.9575 
L 41.658125 25.9575 
L 41.658125 241.036875 
z
" style="fill: none"/>
   </g>
   <g id="matplotlib.axis_1">
    <g id="xtick_1">
     <g id="line2d_1">
      <defs>
       <path id="me4417d1fbb" d="M 0 0 
L 0 3.5 
" style="stroke: #000000; stroke-width: 0.8"/>
      </defs>
      <g>
       <use xlink:href="#me4417d1fbb" x="55.637301" y="241.036875" style="stroke: #000000; stroke-width: 0.8"/>
      </g>
     </g>
     <g id="text_1">
      <!-- 0 -->
      <g transform="translate(50.547301 260.194375) scale(0.16 -0.16)">
       <defs>
        <path id="DejaVuSans-30" d="M 2034 4250 
Q 1547 4250 1301 3770 
Q 1056 3291 1056 2328 
Q 1056 1369 1301 889 
Q 1547 409 2034 409 
Q 2525 409 2770 889 
Q 3016 1369 3016 2328 
Q 3016 3291 2770 3770 
Q 2525 4250 2034 4250 
z
M 2034 4750 
Q 2819 4750 3233 4129 
Q 3647 3509 3647 2328 
Q 3647 1150 3233 529 
Q 2819 -91 2034 -91 
Q 1250 -91 836 529 
Q 422 1150 422 2328 
Q 422 3509 836 4129 
Q 1250 4750 2034 4750 
z
" transform="scale(0.015625)"/>
       </defs>
       <use xlink:href="#DejaVuSans-30"/>
      </g>
     </g>
    </g>
    <g id="xtick_2">
     <g id="line2d_2">
      <g>
       <use xlink:href="#me4417d1fbb" x="158.093884" y="241.036875" style="stroke: #000000; stroke-width: 0.8"/>
      </g>
     </g>
     <g id="text_2">
      <!-- 500 -->
      <g transform="translate(142.823884 260.194375) scale(0.16 -0.16)">
       <defs>
        <path id="DejaVuSans-35" d="M 691 4666 
L 3169 4666 
L 3169 4134 
L 1269 4134 
L 1269 2991 
Q 1406 3038 1543 3061 
Q 1681 3084 1819 3084 
Q 2600 3084 3056 2656 
Q 3513 2228 3513 1497 
Q 3513 744 3044 326 
Q 2575 -91 1722 -91 
Q 1428 -91 1123 -41 
Q 819 9 494 109 
L 494 744 
Q 775 591 1075 516 
Q 1375 441 1709 441 
Q 2250 441 2565 725 
Q 2881 1009 2881 1497 
Q 2881 1984 2565 2268 
Q 2250 2553 1709 2553 
Q 1456 2553 1204 2497 
Q 953 2441 691 2322 
L 691 4666 
z
" transform="scale(0.015625)"/>
       </defs>
       <use xlink:href="#DejaVuSans-35"/>
       <use xlink:href="#DejaVuSans-30" x="63.623047"/>
       <use xlink:href="#DejaVuSans-30" x="127.246094"/>
      </g>
     </g>
    </g>
    <g id="xtick_3">
     <g id="line2d_3">
      <g>
       <use xlink:href="#me4417d1fbb" x="260.550466" y="241.036875" style="stroke: #000000; stroke-width: 0.8"/>
      </g>
     </g>
     <g id="text_3">
      <!-- 1000 -->
      <g transform="translate(240.190466 260.194375) scale(0.16 -0.16)">
       <defs>
        <path id="DejaVuSans-31" d="M 794 531 
L 1825 531 
L 1825 4091 
L 703 3866 
L 703 4441 
L 1819 4666 
L 2450 4666 
L 2450 531 
L 3481 531 
L 3481 0 
L 794 0 
L 794 531 
z
" transform="scale(0.015625)"/>
       </defs>
       <use xlink:href="#DejaVuSans-31"/>
       <use xlink:href="#DejaVuSans-30" x="63.623047"/>
       <use xlink:href="#DejaVuSans-30" x="127.246094"/>
       <use xlink:href="#DejaVuSans-30" x="190.869141"/>
      </g>
     </g>
    </g>
    <g id="text_4">
     <!-- Time (s) -->
     <g transform="translate(175.100156 275.120313) scale(0.1 -0.1)">
      <defs>
       <path id="DejaVuSans-54" d="M -19 4666 
L 3928 4666 
L 3928 4134 
L 2272 4134 
L 2272 0 
L 1638 0 
L 1638 4134 
L -19 4134 
L -19 4666 
z
" transform="scale(0.015625)"/>
       <path id="DejaVuSans-69" d="M 603 3500 
L 1178 3500 
L 1178 0 
L 603 0 
L 603 3500 
z
M 603 4863 
L 1178 4863 
L 1178 4134 
L 603 4134 
L 603 4863 
z
" transform="scale(0.015625)"/>
       <path id="DejaVuSans-6d" d="M 3328 2828 
Q 3544 3216 3844 3400 
Q 4144 3584 4550 3584 
Q 5097 3584 5394 3201 
Q 5691 2819 5691 2113 
L 5691 0 
L 5113 0 
L 5113 2094 
Q 5113 2597 4934 2840 
Q 4756 3084 4391 3084 
Q 3944 3084 3684 2787 
Q 3425 2491 3425 1978 
L 3425 0 
L 2847 0 
L 2847 2094 
Q 2847 2600 2669 2842 
Q 2491 3084 2119 3084 
Q 1678 3084 1418 2786 
Q 1159 2488 1159 1978 
L 1159 0 
L 581 0 
L 581 3500 
L 1159 3500 
L 1159 2956 
Q 1356 3278 1631 3431 
Q 1906 3584 2284 3584 
Q 2666 3584 2933 3390 
Q 3200 3197 3328 2828 
z
" transform="scale(0.015625)"/>
       <path id="DejaVuSans-65" d="M 3597 1894 
L 3597 1613 
L 953 1613 
Q 991 1019 1311 708 
Q 1631 397 2203 397 
Q 2534 397 2845 478 
Q 3156 559 3463 722 
L 3463 178 
Q 3153 47 2828 -22 
Q 2503 -91 2169 -91 
Q 1331 -91 842 396 
Q 353 884 353 1716 
Q 353 2575 817 3079 
Q 1281 3584 2069 3584 
Q 2775 3584 3186 3129 
Q 3597 2675 3597 1894 
z
M 3022 2063 
Q 3016 2534 2758 2815 
Q 2500 3097 2075 3097 
Q 1594 3097 1305 2825 
Q 1016 2553 972 2059 
L 3022 2063 
z
" transform="scale(0.015625)"/>
       <path id="DejaVuSans-20" transform="scale(0.015625)"/>
       <path id="DejaVuSans-28" d="M 1984 4856 
Q 1566 4138 1362 3434 
Q 1159 2731 1159 2009 
Q 1159 1288 1364 580 
Q 1569 -128 1984 -844 
L 1484 -844 
Q 1016 -109 783 600 
Q 550 1309 550 2009 
Q 550 2706 781 3412 
Q 1013 4119 1484 4856 
L 1984 4856 
z
" transform="scale(0.015625)"/>
       <path id="DejaVuSans-73" d="M 2834 3397 
L 2834 2853 
Q 2591 2978 2328 3040 
Q 2066 3103 1784 3103 
Q 1356 3103 1142 2972 
Q 928 2841 928 2578 
Q 928 2378 1081 2264 
Q 1234 2150 1697 2047 
L 1894 2003 
Q 2506 1872 2764 1633 
Q 3022 1394 3022 966 
Q 3022 478 2636 193 
Q 2250 -91 1575 -91 
Q 1294 -91 989 -36 
Q 684 19 347 128 
L 347 722 
Q 666 556 975 473 
Q 1284 391 1588 391 
Q 1994 391 2212 530 
Q 2431 669 2431 922 
Q 2431 1156 2273 1281 
Q 2116 1406 1581 1522 
L 1381 1569 
Q 847 1681 609 1914 
Q 372 2147 372 2553 
Q 372 3047 722 3315 
Q 1072 3584 1716 3584 
Q 2034 3584 2315 3537 
Q 2597 3491 2834 3397 
z
" transform="scale(0.015625)"/>
       <path id="DejaVuSans-29" d="M 513 4856 
L 1013 4856 
Q 1481 4119 1714 3412 
Q 1947 2706 1947 2009 
Q 1947 1309 1714 600 
Q 1481 -109 1013 -844 
L 513 -844 
Q 928 -128 1133 580 
Q 1338 1288 1338 2009 
Q 1338 2731 1133 3434 
Q 928 4138 513 4856 
z
" transform="scale(0.015625)"/>
      </defs>
      <use xlink:href="#DejaVuSans-54"/>
      <use xlink:href="#DejaVuSans-69" x="57.958984"/>
      <use xlink:href="#DejaVuSans-6d" x="85.742188"/>
      <use xlink:href="#DejaVuSans-65" x="183.154297"/>
      <use xlink:href="#DejaVuSans-20" x="244.677734"/>
      <use xlink:href="#DejaVuSans-28" x="276.464844"/>
      <use xlink:href="#DejaVuSans-73" x="315.478516"/>
      <use xlink:href="#DejaVuSans-29" x="367.578125"/>
     </g>
    </g>
   </g>
   <g id="matplotlib.axis_2">
    <g id="ytick_1">
     <g id="line2d_4">
      <defs>
       <path id="m45e1354cff" d="M 0 0 
L -3.5 0 
" style="stroke: #000000; stroke-width: 0.8"/>
      </defs>
      <g>
       <use xlink:href="#m45e1354cff" x="41.658125" y="216.746769" style="stroke: #000000; stroke-width: 0.8"/>
      </g>
     </g>
     <g id="text_5">
      <!-- 0 -->
      <g transform="translate(24.478125 222.825519) scale(0.16 -0.16)">
       <use xlink:href="#DejaVuSans-30"/>
      </g>
     </g>
    </g>
    <g id="ytick_2">
     <g id="line2d_5">
      <g>
       <use xlink:href="#m45e1354cff" x="41.658125" y="158.407377" style="stroke: #000000; stroke-width: 0.8"/>
      </g>
     </g>
     <g id="text_6">
      <!-- 2 -->
      <g transform="translate(24.478125 164.486127) scale(0.16 -0.16)">
       <defs>
        <path id="DejaVuSans-32" d="M 1228 531 
L 3431 531 
L 3431 0 
L 469 0 
L 469 531 
Q 828 903 1448 1529 
Q 2069 2156 2228 2338 
Q 2531 2678 2651 2914 
Q 2772 3150 2772 3378 
Q 2772 3750 2511 3984 
Q 2250 4219 1831 4219 
Q 1534 4219 1204 4116 
Q 875 4013 500 3803 
L 500 4441 
Q 881 4594 1212 4672 
Q 1544 4750 1819 4750 
Q 2544 4750 2975 4387 
Q 3406 4025 3406 3419 
Q 3406 3131 3298 2873 
Q 3191 2616 2906 2266 
Q 2828 2175 2409 1742 
Q 1991 1309 1228 531 
z
" transform="scale(0.015625)"/>
       </defs>
       <use xlink:href="#DejaVuSans-32"/>
      </g>
     </g>
    </g>
    <g id="ytick_3">
     <g id="line2d_6">
      <g>
       <use xlink:href="#m45e1354cff" x="41.658125" y="100.067984" style="stroke: #000000; stroke-width: 0.8"/>
      </g>
     </g>
     <g id="text_7">
      <!-- 4 -->
      <g transform="translate(24.478125 106.146734) scale(0.16 -0.16)">
       <defs>
        <path id="DejaVuSans-34" d="M 2419 4116 
L 825 1625 
L 2419 1625 
L 2419 4116 
z
M 2253 4666 
L 3047 4666 
L 3047 1625 
L 3713 1625 
L 3713 1100 
L 3047 1100 
L 3047 0 
L 2419 0 
L 2419 1100 
L 313 1100 
L 313 1709 
L 2253 4666 
z
" transform="scale(0.015625)"/>
       </defs>
       <use xlink:href="#DejaVuSans-34"/>
      </g>
     </g>
    </g>
    <g id="ytick_4">
     <g id="line2d_7">
      <g>
       <use xlink:href="#m45e1354cff" x="41.658125" y="41.728592" style="stroke: #000000; stroke-width: 0.8"/>
      </g>
     </g>
     <g id="text_8">
      <!-- 6 -->
      <g transform="translate(24.478125 47.807342) scale(0.16 -0.16)">
       <defs>
        <path id="DejaVuSans-36" d="M 2113 2584 
Q 1688 2584 1439 2293 
Q 1191 2003 1191 1497 
Q 1191 994 1439 701 
Q 1688 409 2113 409 
Q 2538 409 2786 701 
Q 3034 994 3034 1497 
Q 3034 2003 2786 2293 
Q 2538 2584 2113 2584 
z
M 3366 4563 
L 3366 3988 
Q 3128 4100 2886 4159 
Q 2644 4219 2406 4219 
Q 1781 4219 1451 3797 
Q 1122 3375 1075 2522 
Q 1259 2794 1537 2939 
Q 1816 3084 2150 3084 
Q 2853 3084 3261 2657 
Q 3669 2231 3669 1497 
Q 3669 778 3244 343 
Q 2819 -91 2113 -91 
Q 1303 -91 875 529 
Q 447 1150 447 2328 
Q 447 3434 972 4092 
Q 1497 4750 2381 4750 
Q 2619 4750 2861 4703 
Q 3103 4656 3366 4563 
z
" transform="scale(0.015625)"/>
       </defs>
       <use xlink:href="#DejaVuSans-36"/>
      </g>
     </g>
    </g>
    <g id="text_9">
     <!-- Relative Rotational Angular Momentum Variation -->
     <g transform="translate(18.398438 255.4925) rotate(-90) scale(0.1 -0.1)">
      <defs>
       <path id="DejaVuSans-52" d="M 2841 2188 
Q 3044 2119 3236 1894 
Q 3428 1669 3622 1275 
L 4263 0 
L 3584 0 
L 2988 1197 
Q 2756 1666 2539 1819 
Q 2322 1972 1947 1972 
L 1259 1972 
L 1259 0 
L 628 0 
L 628 4666 
L 2053 4666 
Q 2853 4666 3247 4331 
Q 3641 3997 3641 3322 
Q 3641 2881 3436 2590 
Q 3231 2300 2841 2188 
z
M 1259 4147 
L 1259 2491 
L 2053 2491 
Q 2509 2491 2742 2702 
Q 2975 2913 2975 3322 
Q 2975 3731 2742 3939 
Q 2509 4147 2053 4147 
L 1259 4147 
z
" transform="scale(0.015625)"/>
       <path id="DejaVuSans-6c" d="M 603 4863 
L 1178 4863 
L 1178 0 
L 603 0 
L 603 4863 
z
" transform="scale(0.015625)"/>
       <path id="DejaVuSans-61" d="M 2194 1759 
Q 1497 1759 1228 1600 
Q 959 1441 959 1056 
Q 959 750 1161 570 
Q 1363 391 1709 391 
Q 2188 391 2477 730 
Q 2766 1069 2766 1631 
L 2766 1759 
L 2194 1759 
z
M 3341 1997 
L 3341 0 
L 2766 0 
L 2766 531 
Q 2569 213 2275 61 
Q 1981 -91 1556 -91 
Q 1019 -91 701 211 
Q 384 513 384 1019 
Q 384 1609 779 1909 
Q 1175 2209 1959 2209 
L 2766 2209 
L 2766 2266 
Q 2766 2663 2505 2880 
Q 2244 3097 1772 3097 
Q 1472 3097 1187 3025 
Q 903 2953 641 2809 
L 641 3341 
Q 956 3463 1253 3523 
Q 1550 3584 1831 3584 
Q 2591 3584 2966 3190 
Q 3341 2797 3341 1997 
z
" transform="scale(0.015625)"/>
       <path id="DejaVuSans-74" d="M 1172 4494 
L 1172 3500 
L 2356 3500 
L 2356 3053 
L 1172 3053 
L 1172 1153 
Q 1172 725 1289 603 
Q 1406 481 1766 481 
L 2356 481 
L 2356 0 
L 1766 0 
Q 1100 0 847 248 
Q 594 497 594 1153 
L 594 3053 
L 172 3053 
L 172 3500 
L 594 3500 
L 594 4494 
L 1172 4494 
z
" transform="scale(0.015625)"/>
       <path id="DejaVuSans-76" d="M 191 3500 
L 800 3500 
L 1894 563 
L 2988 3500 
L 3597 3500 
L 2284 0 
L 1503 0 
L 191 3500 
z
" transform="scale(0.015625)"/>
       <path id="DejaVuSans-6f" d="M 1959 3097 
Q 1497 3097 1228 2736 
Q 959 2375 959 1747 
Q 959 1119 1226 758 
Q 1494 397 1959 397 
Q 2419 397 2687 759 
Q 2956 1122 2956 1747 
Q 2956 2369 2687 2733 
Q 2419 3097 1959 3097 
z
M 1959 3584 
Q 2709 3584 3137 3096 
Q 3566 2609 3566 1747 
Q 3566 888 3137 398 
Q 2709 -91 1959 -91 
Q 1206 -91 779 398 
Q 353 888 353 1747 
Q 353 2609 779 3096 
Q 1206 3584 1959 3584 
z
" transform="scale(0.015625)"/>
       <path id="DejaVuSans-6e" d="M 3513 2113 
L 3513 0 
L 2938 0 
L 2938 2094 
Q 2938 2591 2744 2837 
Q 2550 3084 2163 3084 
Q 1697 3084 1428 2787 
Q 1159 2491 1159 1978 
L 1159 0 
L 581 0 
L 581 3500 
L 1159 3500 
L 1159 2956 
Q 1366 3272 1645 3428 
Q 1925 3584 2291 3584 
Q 2894 3584 3203 3211 
Q 3513 2838 3513 2113 
z
" transform="scale(0.015625)"/>
       <path id="DejaVuSans-41" d="M 2188 4044 
L 1331 1722 
L 3047 1722 
L 2188 4044 
z
M 1831 4666 
L 2547 4666 
L 4325 0 
L 3669 0 
L 3244 1197 
L 1141 1197 
L 716 0 
L 50 0 
L 1831 4666 
z
" transform="scale(0.015625)"/>
       <path id="DejaVuSans-67" d="M 2906 1791 
Q 2906 2416 2648 2759 
Q 2391 3103 1925 3103 
Q 1463 3103 1205 2759 
Q 947 2416 947 1791 
Q 947 1169 1205 825 
Q 1463 481 1925 481 
Q 2391 481 2648 825 
Q 2906 1169 2906 1791 
z
M 3481 434 
Q 3481 -459 3084 -895 
Q 2688 -1331 1869 -1331 
Q 1566 -1331 1297 -1286 
Q 1028 -1241 775 -1147 
L 775 -588 
Q 1028 -725 1275 -790 
Q 1522 -856 1778 -856 
Q 2344 -856 2625 -561 
Q 2906 -266 2906 331 
L 2906 616 
Q 2728 306 2450 153 
Q 2172 0 1784 0 
Q 1141 0 747 490 
Q 353 981 353 1791 
Q 353 2603 747 3093 
Q 1141 3584 1784 3584 
Q 2172 3584 2450 3431 
Q 2728 3278 2906 2969 
L 2906 3500 
L 3481 3500 
L 3481 434 
z
" transform="scale(0.015625)"/>
       <path id="DejaVuSans-75" d="M 544 1381 
L 544 3500 
L 1119 3500 
L 1119 1403 
Q 1119 906 1312 657 
Q 1506 409 1894 409 
Q 2359 409 2629 706 
Q 2900 1003 2900 1516 
L 2900 3500 
L 3475 3500 
L 3475 0 
L 2900 0 
L 2900 538 
Q 2691 219 2414 64 
Q 2138 -91 1772 -91 
Q 1169 -91 856 284 
Q 544 659 544 1381 
z
M 1991 3584 
L 1991 3584 
z
" transform="scale(0.015625)"/>
       <path id="DejaVuSans-72" d="M 2631 2963 
Q 2534 3019 2420 3045 
Q 2306 3072 2169 3072 
Q 1681 3072 1420 2755 
Q 1159 2438 1159 1844 
L 1159 0 
L 581 0 
L 581 3500 
L 1159 3500 
L 1159 2956 
Q 1341 3275 1631 3429 
Q 1922 3584 2338 3584 
Q 2397 3584 2469 3576 
Q 2541 3569 2628 3553 
L 2631 2963 
z
" transform="scale(0.015625)"/>
       <path id="DejaVuSans-4d" d="M 628 4666 
L 1569 4666 
L 2759 1491 
L 3956 4666 
L 4897 4666 
L 4897 0 
L 4281 0 
L 4281 4097 
L 3078 897 
L 2444 897 
L 1241 4097 
L 1241 0 
L 628 0 
L 628 4666 
z
" transform="scale(0.015625)"/>
       <path id="DejaVuSans-56" d="M 1831 0 
L 50 4666 
L 709 4666 
L 2188 738 
L 3669 4666 
L 4325 4666 
L 2547 0 
L 1831 0 
z
" transform="scale(0.015625)"/>
      </defs>
      <use xlink:href="#DejaVuSans-52"/>
      <use xlink:href="#DejaVuSans-65" x="64.982422"/>
      <use xlink:href="#DejaVuSans-6c" x="126.505859"/>
      <use xlink:href="#DejaVuSans-61" x="154.289062"/>
      <use xlink:href="#DejaVuSans-74" x="215.568359"/>
      <use xlink:href="#DejaVuSans-69" x="254.777344"/>
      <use xlink:href="#DejaVuSans-76" x="282.560547"/>
      <use xlink:href="#DejaVuSans-65" x="341.740234"/>
      <use xlink:href="#DejaVuSans-20" x="403.263672"/>
      <use xlink:href="#DejaVuSans-52" x="435.050781"/>
      <use xlink:href="#DejaVuSans-6f" x="500.033203"/>
      <use xlink:href="#DejaVuSans-74" x="561.214844"/>
      <use xlink:href="#DejaVuSans-61" x="600.423828"/>
      <use xlink:href="#DejaVuSans-74" x="661.703125"/>
      <use xlink:href="#DejaVuSans-69" x="700.912109"/>
      <use xlink:href="#DejaVuSans-6f" x="728.695312"/>
      <use xlink:href="#DejaVuSans-6e" x="789.876953"/>
      <use xlink:href="#DejaVuSans-61" x="853.255859"/>
      <use xlink:href="#DejaVuSans-6c" x="914.535156"/>
      <use xlink:href="#DejaVuSans-20" x="942.318359"/>
      <use xlink:href="#DejaVuSans-41" x="974.105469"/>
      <use xlink:href="#DejaVuSans-6e" x="1042.513672"/>
      <use xlink:href="#DejaVuSans-67" x="1105.892578"/>
      <use xlink:href="#DejaVuSans-75" x="1169.369141"/>
      <use xlink:href="#DejaVuSans-6c" x="1232.748047"/>
      <use xlink:href="#DejaVuSans-61" x="1260.53125"/>
      <use xlink:href="#DejaVuSans-72" x="1321.810547"/>
      <use xlink:href="#DejaVuSans-20" x="1362.923828"/>
      <use xlink:href="#DejaVuSans-4d" x="1394.710938"/>
      <use xlink:href="#DejaVuSans-6f" x="1480.990234"/>
      <use xlink:href="#DejaVuSans-6d" x="1542.171875"/>
      <use xlink:href="#DejaVuSans-65" x="1639.583984"/>
      <use xlink:href="#DejaVuSans-6e" x="1701.107422"/>
      <use xlink:href="#DejaVuSans-74" x="1764.486328"/>
      <use xlink:href="#DejaVuSans-75" x="1803.695312"/>
      <use xlink:href="#DejaVuSans-6d" x="1867.074219"/>
      <use xlink:href="#DejaVuSans-20" x="1964.486328"/>
      <use xlink:href="#DejaVuSans-56" x="1996.273438"/>
      <use xlink:href="#DejaVuSans-61" x="2056.931641"/>
      <use xlink:href="#DejaVuSans-72" x="2118.210938"/>
      <use xlink:href="#DejaVuSans-69" x="2159.324219"/>
      <use xlink:href="#DejaVuSans-61" x="2187.107422"/>
      <use xlink:href="#DejaVuSans-74" x="2248.386719"/>
      <use xlink:href="#DejaVuSans-69" x="2287.595703"/>
      <use xlink:href="#DejaVuSans-6f" x="2315.378906"/>
      <use xlink:href="#DejaVuSans-6e" x="2376.560547"/>
     </g>
    </g>
    <g id="text_10">
     <!-- 1e−8 -->
     <g transform="translate(41.658125 22.9575) scale(0.16 -0.16)">
      <defs>
       <path id="DejaVuSans-2212" d="M 678 2272 
L 4684 2272 
L 4684 1741 
L 678 1741 
L 678 2272 
z
" transform="scale(0.015625)"/>
       <path id="DejaVuSans-38" d="M 2034 2216 
Q 1584 2216 1326 1975 
Q 1069 1734 1069 1313 
Q 1069 891 1326 650 
Q 1584 409 2034 409 
Q 2484 409 2743 651 
Q 3003 894 3003 1313 
Q 3003 1734 2745 1975 
Q 2488 2216 2034 2216 
z
M 1403 2484 
Q 997 2584 770 2862 
Q 544 3141 544 3541 
Q 544 4100 942 4425 
Q 1341 4750 2034 4750 
Q 2731 4750 3128 4425 
Q 3525 4100 3525 3541 
Q 3525 3141 3298 2862 
Q 3072 2584 2669 2484 
Q 3125 2378 3379 2068 
Q 3634 1759 3634 1313 
Q 3634 634 3220 271 
Q 2806 -91 2034 -91 
Q 1263 -91 848 271 
Q 434 634 434 1313 
Q 434 1759 690 2068 
Q 947 2378 1403 2484 
z
M 1172 3481 
Q 1172 3119 1398 2916 
Q 1625 2713 2034 2713 
Q 2441 2713 2670 2916 
Q 2900 3119 2900 3481 
Q 2900 3844 2670 4047 
Q 2441 4250 2034 4250 
Q 1625 4250 1398 4047 
Q 1172 3844 1172 3481 
z
" transform="scale(0.015625)"/>
      </defs>
      <use xlink:href="#DejaVuSans-31"/>
      <use xlink:href="#DejaVuSans-65" x="63.623047"/>
      <use xlink:href="#DejaVuSans-2212" x="125.146484"/>
      <use xlink:href="#DejaVuSans-38" x="208.935547"/>
     </g>
    </g>
   </g>
   <g id="line2d_8">
    <path d="M 55.637301 216.746769 
L 55.883197 215.829457 
L 56.006145 215.840221 
L 56.190567 216.408603 
L 56.743832 219.307771 
L 56.805306 219.279802 
L 56.928254 218.65817 
L 57.112676 215.901428 
L 57.420046 205.948531 
L 57.911837 188.311937 
L 58.034785 187.170393 
L 58.096259 187.309499 
L 58.219207 188.869451 
L 58.89542 202.838165 
L 58.956894 202.745334 
L 59.079842 201.611636 
L 59.325738 196.309773 
L 60.616691 161.771339 
L 61.108483 155.692215 
L 61.600274 152.25344 
L 62.092066 150.330055 
L 62.583857 149.24912 
L 63.137123 148.579625 
L 63.751862 148.190599 
L 64.612498 147.938508 
L 66.026399 147.793686 
L 69.530414 147.722351 
L 72.972955 147.819361 
L 74.018012 148.041417 
L 74.694226 148.410357 
L 75.186017 148.928715 
L 75.616335 149.698136 
L 76.046652 150.95959 
L 76.47697 153.010019 
L 76.907288 156.262989 
L 77.399079 161.97594 
L 78.444136 175.814612 
L 78.567084 175.953009 
L 78.690032 175.407691 
L 78.874454 173.267877 
L 79.304772 164.159796 
L 79.735089 157.012722 
L 79.919511 156.104977 
L 80.042459 156.164336 
L 80.226881 157.059423 
L 80.534251 160.372778 
L 80.964568 168.496991 
L 82.071099 191.456205 
L 82.439943 194.936362 
L 82.685839 195.896759 
L 82.870261 196.020486 
L 83.054683 195.738448 
L 83.362052 194.639259 
L 85.206271 186.61468 
L 85.82101 185.365532 
L 86.43575 184.629173 
L 87.111963 184.173605 
L 87.972599 183.87889 
L 89.325026 183.689713 
L 91.968405 183.593094 
L 95.042103 183.677988 
L 96.210108 183.906656 
L 96.886321 184.251701 
L 97.378113 184.728295 
L 97.808431 185.424802 
L 98.238748 186.53925 
L 98.669066 188.270134 
L 99.160857 191.211336 
L 100.205915 198.006075 
L 100.390336 198.177407 
L 100.513284 197.955936 
L 100.697706 197.082402 
L 101.005076 194.158834 
L 101.435394 187.24113 
L 102.480451 168.632975 
L 102.78782 166.706421 
L 102.972242 166.383929 
L 103.156664 166.450132 
L 103.464034 166.992448 
L 103.771404 168.004099 
L 104.017299 169.574017 
L 104.324669 173.185486 
L 104.754987 181.46936 
L 105.677096 200.224657 
L 106.04594 203.434541 
L 106.291836 204.120703 
L 106.414783 204.131571 
L 106.599205 203.839951 
L 106.968049 202.564836 
L 108.320476 197.286578 
L 108.935215 195.926757 
L 109.549955 195.100689 
L 110.226168 194.576563 
L 111.02533 194.244008 
L 112.193335 194.014442 
L 114.283449 193.86238 
L 119.016943 193.580177 
L 120.492318 193.39281 
L 121.352953 193.329804 
L 121.783271 193.042162 
L 122.275062 192.392838 
L 122.889802 191.586436 
L 123.135698 191.52824 
L 123.381594 191.72952 
L 123.688963 192.36012 
L 124.242229 194.179229 
L 124.918442 196.230421 
L 125.34876 196.932915 
L 125.779078 197.240584 
L 126.270869 197.339042 
L 126.639713 197.179035 
L 127.438874 196.710046 
L 127.869192 196.745875 
L 128.975723 197.188501 
L 130.082254 197.481249 
L 131.680577 197.644151 
L 135.553436 197.741359 
L 138.504185 197.669929 
L 139.795138 197.422086 
L 141.823778 196.955573 
L 142.684414 197.095364 
L 143.299153 197.392162 
L 143.667997 197.804381 
L 144.098315 198.660229 
L 145.327794 201.485479 
L 145.512215 201.380948 
L 145.758111 200.822143 
L 146.065481 199.455846 
L 147.110538 193.894495 
L 147.233486 193.832199 
L 147.356434 193.990782 
L 147.60233 194.947551 
L 148.032647 198.068995 
L 148.954757 204.872479 
L 150.430131 213.689111 
L 150.737501 214.313193 
L 150.983397 214.404445 
L 151.229293 214.219268 
L 151.65961 213.496235 
L 153.012037 210.951974 
L 153.688251 210.208803 
L 154.364464 209.775761 
L 155.163626 209.520358 
L 156.208683 209.431013 
L 157.376688 209.552429 
L 158.483219 209.895569 
L 160.081541 210.476793 
L 160.450385 210.327436 
L 160.819229 209.917051 
L 161.433968 208.786588 
L 161.987234 207.934774 
L 162.417552 207.642107 
L 162.909343 207.575427 
L 163.278187 207.758902 
L 163.647031 208.27137 
L 164.26177 209.680773 
L 164.87651 210.87949 
L 165.245353 211.213865 
L 165.614197 211.249391 
L 165.983041 211.028701 
L 166.474832 210.422379 
L 167.335468 208.896092 
L 168.196103 207.517104 
L 168.872316 206.842888 
L 170.409165 205.525084 
L 171.392748 204.558296 
L 172.007488 204.294594 
L 173.421389 204.03317 
L 175.265607 203.846034 
L 176.495086 203.942381 
L 177.540143 204.234389 
L 178.462252 204.711432 
L 179.50731 205.528089 
L 180.490893 206.255242 
L 180.859736 206.294197 
L 181.167106 206.106534 
L 181.474476 205.638266 
L 181.84332 204.61987 
L 182.335111 202.467584 
L 183.56459 196.49542 
L 183.87196 195.898551 
L 184.117856 195.813224 
L 184.363752 195.990301 
L 185.347335 196.99105 
L 185.716178 196.942823 
L 186.20797 196.892362 
L 186.453866 197.075946 
L 186.761236 197.603937 
L 187.191553 198.846545 
L 189.404615 206.756554 
L 189.834933 209.462874 
L 190.326725 214.188603 
L 191.371782 225.72543 
L 191.433256 225.735501 
L 191.556204 225.310456 
L 191.863573 222.551565 
L 192.109469 221.324786 
L 192.232417 221.907054 
L 192.478313 225.269655 
L 192.908631 230.906671 
L 193.031578 231.26054 
L 193.093052 231.224961 
L 193.277474 230.482702 
L 194.384005 224.00881 
L 194.752849 223.310401 
L 195.121693 223.014949 
L 195.613484 222.910109 
L 196.720015 222.989659 
L 199.424869 223.153529 
L 202.375619 223.378951 
L 204.404259 223.568028 
L 205.018999 223.382422 
L 205.695212 222.932754 
L 206.740269 222.227365 
L 207.232061 222.201636 
L 207.785326 222.443814 
L 209.260701 223.240907 
L 210.305758 223.412232 
L 211.289341 223.642506 
L 212.580294 224.021296 
L 212.887664 223.817989 
L 213.195034 223.314606 
L 213.563878 222.215502 
L 214.240091 219.18331 
L 214.731883 217.434602 
L 215.039252 216.99095 
L 215.346622 216.941534 
L 216.268731 217.052611 
L 216.821997 217.079027 
L 217.252315 217.345762 
L 217.867054 218.05362 
L 219.280955 219.751666 
L 220.14159 220.399552 
L 221.248121 220.938903 
L 223.645605 221.799353 
L 224.567715 221.935951 
L 225.305402 221.822356 
L 226.166037 221.44458 
L 227.45699 220.867597 
L 228.194678 220.825769 
L 229.239735 221.041635 
L 231.944589 221.629758 
L 234.034703 221.902045 
L 234.77239 221.975486 
L 235.141234 222.255973 
L 235.571552 222.922177 
L 236.493661 224.490417 
L 236.923978 224.849184 
L 237.354296 224.92308 
L 238.03051 224.748232 
L 239.382936 224.385197 
L 240.735363 224.296225 
L 242.70253 224.393823 
L 243.993483 224.662238 
L 245.468857 225.011815 
L 246.083597 224.867581 
L 246.944232 224.615736 
L 247.37455 224.760164 
L 248.112237 225.356005 
L 248.726977 225.700699 
L 249.218768 225.729582 
L 250.079404 225.502403 
L 251.001513 225.344487 
L 251.677726 225.450411 
L 252.35394 225.788274 
L 253.030153 226.380658 
L 253.829315 227.404485 
L 255.120268 229.130535 
L 255.427637 229.246189 
L 255.673533 229.150301 
L 255.980903 228.745415 
L 256.41122 227.672521 
L 257.33333 225.17015 
L 257.763647 224.604869 
L 258.071017 224.455672 
L 258.316913 224.538255 
L 259.177548 225.133033 
L 259.423444 224.771715 
L 259.792288 223.636579 
L 261.329136 218.06693 
L 261.882402 217.071375 
L 262.435668 216.493153 
L 263.111881 216.121917 
L 264.03399 215.90493 
L 265.816735 215.769883 
L 268.521589 215.770057 
L 273.931296 215.922892 
L 274.791931 216.251828 
L 275.406671 216.706495 
L 275.959936 217.381768 
L 276.513202 218.429229 
L 277.127942 220.156696 
L 278.66479 224.963842 
L 278.849212 224.868396 
L 279.033634 224.418939 
L 279.27953 223.207145 
L 279.709847 219.634728 
L 280.263113 215.081842 
L 280.509009 214.411023 
L 280.631957 214.523912 
L 280.816378 215.221887 
L 281.185222 217.940825 
L 281.861436 222.908116 
L 282.168805 223.826252 
L 282.353227 223.944746 
L 282.537649 223.808279 
L 282.845019 223.209222 
L 283.828602 221.012343 
L 284.197446 220.698038 
L 284.566289 220.692044 
L 285.058081 220.988021 
L 285.67282 221.327989 
L 285.98019 221.235657 
L 286.28756 220.846171 
L 286.717878 219.79561 
L 287.639987 217.368807 
L 287.885883 217.200147 
L 288.070305 217.270428 
L 288.3162 217.62257 
L 288.685044 218.638513 
L 290.037471 222.981008 
L 290.344841 223.168971 
L 290.65221 223.042483 
L 291.082528 222.540403 
L 292.619377 220.514261 
L 293.357064 219.983464 
L 294.217699 219.641991 
L 295.447178 219.421594 
L 297.660241 219.296803 
L 303.930584 219.240347 
L 305.037115 219.476795 
L 306.020698 219.909337 
L 307.61902 220.68587 
L 307.987864 220.529196 
L 308.356708 220.078853 
L 309.524713 218.335507 
L 309.770609 218.477707 
L 310.139452 219.086798 
L 311.061562 220.790489 
L 311.491879 221.067452 
L 311.922197 221.062447 
L 312.721358 220.762278 
L 313.950837 220.357091 
L 315.303264 220.176291 
L 317.516326 220.138123 
L 319.606441 220.298113 
L 320.83592 220.343325 
L 321.327711 220.154745 
L 321.758029 219.772801 
L 322.311294 218.929776 
L 323.233404 217.449652 
L 323.540773 217.355175 
L 323.786669 217.508721 
L 324.155513 218.065445 
L 325.262044 219.995665 
L 325.630888 220.180493 
L 326.122679 220.124236 
L 326.675945 220.071752 
L 327.044789 220.281861 
L 327.53658 220.915549 
L 328.028372 221.460295 
L 328.274268 221.436379 
L 328.520163 221.147183 
L 329.011955 220.062933 
L 329.503747 219.140283 
L 329.811116 218.925973 
L 330.118486 218.982359 
L 330.548804 219.349641 
L 332.024178 220.794882 
L 332.82334 221.173831 
L 333.868397 221.392999 
L 335.220824 221.493502 
L 335.220824 221.493502 
" clip-path="url(#pa6ed397612)" style="fill: none; stroke: #1f77b4; stroke-width: 1.5; stroke-linecap: square"/>
   </g>
   <g id="line2d_9">
    <path d="M 55.637301 216.746769 
L 56.313515 227.285579 
L 56.55941 228.974035 
L 56.682358 229.090793 
L 56.805306 228.669127 
L 57.051202 226.276552 
L 57.973311 214.658986 
L 58.096259 214.539632 
L 58.280681 214.808914 
L 58.526577 215.183219 
L 58.649525 215.054136 
L 58.833947 214.196915 
L 59.079842 211.671025 
L 59.51016 204.325099 
L 60.493743 186.974144 
L 61.047009 181.177847 
L 61.5388 178.084457 
L 62.030592 176.239471 
L 62.522383 175.154056 
L 63.075649 174.458577 
L 63.690389 174.044207 
L 64.48955 173.784112 
L 65.780503 173.627373 
L 68.669778 173.556993 
L 72.235268 173.655831 
L 73.52622 173.883023 
L 74.263908 174.224669 
L 74.817173 174.722986 
L 75.308965 175.493701 
L 75.739283 176.595041 
L 76.1696 178.332583 
L 76.599918 181.036509 
L 77.09171 185.835241 
L 77.644975 193.857835 
L 78.382662 204.784092 
L 78.567084 205.351763 
L 78.690032 204.656481 
L 78.874454 201.610443 
L 79.181824 190.835904 
L 79.919511 159.516154 
L 80.042459 158.578753 
L 80.165407 159.573519 
L 80.349829 164.292221 
L 80.84162 186.154764 
L 81.394886 206.453122 
L 81.886678 216.802151 
L 82.316995 221.839142 
L 82.685839 223.77398 
L 82.931735 224.145661 
L 83.116157 224.096536 
L 83.423526 223.643472 
L 84.837427 221.03645 
L 85.452167 220.501507 
L 86.189854 220.174268 
L 87.234911 219.979122 
L 89.447973 219.849347 
L 93.75115 219.820699 
L 95.410947 219.991264 
L 96.333056 220.293127 
L 97.070743 220.778282 
L 97.746957 221.505658 
L 98.914962 222.846352 
L 99.160857 222.788836 
L 99.406753 222.433072 
L 99.714123 221.486012 
L 100.267389 218.728464 
L 100.820654 216.369735 
L 101.189498 215.691671 
L 101.619815 215.075682 
L 101.865711 214.192003 
L 102.173081 212.01906 
L 102.541925 207.502135 
L 103.586982 192.384949 
L 103.70993 192.070572 
L 103.771404 192.102707 
L 103.894352 192.526374 
L 104.140247 194.556662 
L 105.000883 203.152737 
L 105.185305 203.461109 
L 105.308252 203.244662 
L 105.554148 202.010062 
L 106.107414 197.358949 
L 106.783627 192.274511 
L 107.275419 189.987158 
L 107.76721 188.641146 
L 108.259002 187.886337 
L 108.812268 187.431603 
L 109.549955 187.142157 
L 110.71796 186.964597 
L 113.299866 186.854214 
L 117.664516 186.64944 
L 118.955469 186.659993 
L 119.631683 186.890589 
L 120.36937 187.418933 
L 121.107057 187.891296 
L 121.414427 187.859782 
L 121.721797 187.593015 
L 122.090641 186.925827 
L 122.643906 185.332715 
L 124.303703 180.145448 
L 124.795494 179.401856 
L 125.102864 179.244398 
L 125.533182 179.322957 
L 125.779078 179.276017 
L 126.024973 178.904929 
L 126.332343 177.891425 
L 127.070031 175.303806 
L 127.3774 174.954189 
L 127.68477 174.93682 
L 128.422457 175.280435 
L 129.221619 175.511914 
L 130.389624 175.569623 
L 138.442711 175.594452 
L 139.67219 175.809334 
L 140.594299 176.194718 
L 142.0082 176.867364 
L 142.438518 176.805568 
L 142.868836 176.501237 
L 143.299153 175.916666 
L 143.729471 174.978685 
L 144.221262 173.320098 
L 144.836002 170.31463 
L 145.881059 165.080682 
L 147.110538 160.115763 
L 147.479382 156.511574 
L 147.971173 148.974512 
L 148.585913 139.848928 
L 148.893283 138.001987 
L 149.016231 137.875839 
L 149.139178 138.036994 
L 149.385074 138.941352 
L 149.999814 141.388815 
L 150.24571 141.585294 
L 150.430131 141.394208 
L 150.737501 140.59653 
L 152.458772 135.130009 
L 153.012037 134.344053 
L 153.626777 133.848589 
L 154.425938 133.510667 
L 157.25374 132.55368 
L 157.991427 131.974485 
L 158.667641 131.148544 
L 159.343854 129.949265 
L 160.757755 127.245651 
L 161.003651 127.193082 
L 161.249547 127.374955 
L 161.679864 128.083643 
L 162.110182 128.691198 
L 162.356078 128.767902 
L 162.663447 128.614546 
L 163.216713 128.292061 
L 163.585557 128.342978 
L 164.138822 128.438689 
L 164.446192 128.269777 
L 164.87651 127.750536 
L 165.921567 126.370833 
L 166.351884 126.156122 
L 166.720728 126.199118 
L 167.151046 126.504501 
L 167.765785 127.298347 
L 168.564947 128.281799 
L 168.872316 128.361647 
L 169.179686 128.179966 
L 169.610004 127.582857 
L 170.101795 126.993749 
L 170.347691 127.012303 
L 170.593587 127.324556 
L 170.962431 128.259507 
L 171.823066 130.636488 
L 172.19191 131.03737 
L 172.499279 131.056503 
L 172.868123 130.823187 
L 174.958237 129.05975 
L 175.818873 128.824969 
L 177.294247 128.703132 
L 179.076992 128.506559 
L 180.244997 128.139423 
L 181.290054 127.831001 
L 181.658898 127.937862 
L 182.027741 128.312192 
L 182.396585 129.034378 
L 183.011325 130.872813 
L 183.687538 132.682372 
L 183.933434 132.85933 
L 184.117856 132.733258 
L 184.363752 132.230614 
L 184.794069 130.713184 
L 185.408809 128.693525 
L 185.654705 128.414643 
L 185.839126 128.474997 
L 186.085022 128.896195 
L 186.51534 130.307062 
L 187.375975 133.284125 
L 187.744819 133.871079 
L 187.990715 133.957114 
L 188.23661 133.799647 
L 188.54398 133.259877 
L 188.912824 132.078309 
L 189.343141 129.837197 
L 189.834933 125.847821 
L 190.388199 119.327409 
L 191.18736 109.859982 
L 191.371782 109.14206 
L 191.49473 109.207428 
L 191.679152 110.067357 
L 192.109469 112.563805 
L 192.170943 112.474765 
L 192.293891 111.69235 
L 192.539787 108.002653 
L 192.970105 101.397847 
L 193.154526 100.851024 
L 193.277474 101.303678 
L 193.52337 103.512153 
L 194.506953 113.564602 
L 194.937271 115.730529 
L 195.367589 116.934265 
L 195.797906 117.57958 
L 196.289698 117.950366 
L 196.965911 118.159158 
L 198.133916 118.242035 
L 202.928884 118.216405 
L 206.986165 117.835162 
L 207.600905 117.438202 
L 210.551654 115.120375 
L 211.473763 114.764636 
L 213.13356 114.271202 
L 214.301565 113.489239 
L 214.608935 113.673721 
L 215.1622 114.382517 
L 215.838414 115.137123 
L 216.330205 115.380478 
L 216.699049 115.337094 
L 217.129367 115.026456 
L 217.744106 114.250103 
L 219.096533 112.5119 
L 219.895694 111.891806 
L 220.75633 111.525992 
L 222.047283 111.269802 
L 223.522657 110.92593 
L 224.567715 110.429338 
L 228.624995 108.173325 
L 229.301209 108.102248 
L 229.977422 108.25944 
L 230.71511 108.66861 
L 231.575745 109.41288 
L 233.297015 111.069063 
L 233.665859 111.069778 
L 234.096177 110.813737 
L 235.018286 109.86389 
L 235.878921 109.11998 
L 236.862505 109.005929 
L 237.538718 109.152291 
L 240.919785 110.258696 
L 243.255795 110.769388 
L 245.837701 111.478595 
L 246.268019 111.251891 
L 246.698336 110.75884 
L 248.112237 108.875842 
L 248.604029 108.741052 
L 251.062987 108.51748 
L 251.800674 108.147541 
L 252.476888 107.545791 
L 253.091627 106.701534 
L 253.829315 105.270586 
L 255.796481 101.133643 
L 256.41122 100.084826 
L 256.780064 98.847079 
L 257.148908 96.643052 
L 257.763647 91.110586 
L 258.255439 87.477236 
L 258.624283 86.147455 
L 259.607866 83.591717 
L 260.468501 79.749272 
L 261.329136 76.397384 
L 262.00535 74.660818 
L 262.620089 73.656347 
L 263.296303 72.979043 
L 264.03399 72.550661 
L 265.017573 72.245052 
L 266.492948 72.037303 
L 268.890432 71.949165 
L 272.394447 72.032219 
L 273.931296 72.259829 
L 274.791931 72.60768 
L 275.406671 73.0858 
L 275.959936 73.798345 
L 276.513202 74.897057 
L 277.189415 76.830361 
L 278.050051 79.245656 
L 278.295947 79.423681 
L 278.480368 79.263255 
L 278.726264 78.612216 
L 279.27953 76.05006 
L 279.525426 75.364807 
L 279.648373 75.390123 
L 279.771321 75.740262 
L 280.017217 77.518986 
L 280.386061 82.475807 
L 281.123748 92.757317 
L 281.492592 95.264192 
L 281.861436 96.414112 
L 282.230279 96.909801 
L 282.599123 97.084232 
L 283.029441 97.033008 
L 283.95155 96.567449 
L 284.504815 96.447815 
L 284.996607 96.590969 
L 286.164612 97.139677 
L 286.410508 96.89925 
L 286.717878 96.18915 
L 287.148195 94.429195 
L 287.885883 91.341056 
L 288.131778 91.025919 
L 288.3162 91.090715 
L 288.62357 91.593866 
L 289.176836 92.559967 
L 289.422731 92.642562 
L 289.668627 92.470049 
L 290.037471 91.876915 
L 291.205476 89.816825 
L 291.758742 89.320186 
L 292.434955 89.032798 
L 293.357064 88.911325 
L 295.754548 88.908288 
L 299.135615 88.828452 
L 301.102782 88.770936 
L 303.25437 88.988841 
L 305.28301 88.743109 
L 307.311651 88.595931 
L 308.172286 88.548179 
L 308.725552 88.770935 
L 309.401765 89.078418 
L 309.709135 88.987706 
L 310.077978 88.625801 
L 311.123036 87.464 
L 311.553353 87.357683 
L 312.106619 87.472251 
L 315.057368 88.430542 
L 318.438436 89.141203 
L 319.483493 89.657246 
L 320.958868 90.44189 
L 321.327711 90.402793 
L 321.696555 90.129501 
L 322.126873 89.45618 
L 322.86456 87.702546 
L 323.356352 86.760544 
L 323.663721 86.521051 
L 323.909617 86.550934 
L 324.278461 86.890227 
L 325.50794 88.328358 
L 325.938257 88.441947 
L 326.307101 88.342427 
L 326.675945 87.992831 
L 326.983315 87.394141 
L 327.352158 86.158969 
L 328.458689 81.813635 
L 328.643111 81.749218 
L 328.827533 81.914833 
L 329.257851 82.776487 
L 329.811116 83.752644 
L 330.17996 84.007914 
L 330.610278 83.999584 
L 331.409439 83.661861 
L 332.51597 83.27633 
L 333.683975 83.12349 
L 335.220824 83.107343 
L 335.220824 83.107343 
" clip-path="url(#pa6ed397612)" style="fill: none; stroke: #ff7f0e; stroke-width: 1.5; stroke-linecap: square"/>
   </g>
   <g id="line2d_10">
    <path d="M 55.637301 216.746769 
L 57.604468 186.902293 
L 58.219207 171.719253 
L 58.280681 171.555195 
L 58.403629 172.207034 
L 58.649525 176.124928 
L 59.018368 181.154183 
L 59.079842 181.297799 
L 59.141316 181.195775 
L 59.264264 180.277292 
L 59.51016 176.057901 
L 60.985535 144.070064 
L 61.477326 139.500233 
L 61.969118 136.920848 
L 62.46091 135.493265 
L 62.952701 134.70887 
L 63.505967 134.241096 
L 64.18218 133.969799 
L 65.227237 133.818705 
L 67.624721 133.763599 
L 71.866424 133.863457 
L 73.280325 134.084757 
L 74.079486 134.414714 
L 74.694226 134.913071 
L 75.186017 135.594432 
L 75.677809 136.68883 
L 76.1696 138.406779 
L 76.661392 140.969272 
L 77.890871 148.362446 
L 78.013819 148.157804 
L 78.198241 146.823073 
L 78.444136 142.447081 
L 78.751506 131.903026 
L 79.612141 98.215103 
L 79.673615 97.911642 
L 79.735089 97.979494 
L 79.858037 99.034181 
L 80.349829 104.976988 
L 80.411303 104.864635 
L 80.534251 103.794421 
L 80.84162 97.689075 
L 81.210464 90.985362 
L 81.394886 90.193888 
L 81.517834 90.752051 
L 81.76373 93.938142 
L 82.931735 113.311092 
L 83.300578 115.505706 
L 83.607948 116.240028 
L 83.853844 116.384032 
L 84.161214 116.245976 
L 84.714479 115.627998 
L 85.82101 114.415418 
L 86.620172 113.879056 
L 87.542281 113.52821 
L 88.833234 113.299116 
L 90.984822 113.182236 
L 96.333056 112.970251 
L 97.009269 112.682073 
L 97.562535 112.196684 
L 98.054326 111.451944 
L 98.669066 110.058826 
L 99.160857 109.100419 
L 99.345279 109.091077 
L 99.529701 109.479869 
L 99.775597 110.883639 
L 100.082967 114.391377 
L 101.128024 129.003806 
L 101.189498 129.068158 
L 101.250972 128.990618 
L 101.435394 127.927767 
L 101.742763 123.73435 
L 102.418977 109.306035 
L 102.849294 102.455213 
L 103.09519 101.204386 
L 103.156664 101.229417 
L 103.279612 101.646021 
L 103.525508 103.596522 
L 104.140247 108.790963 
L 104.324669 109.05673 
L 104.447617 108.848639 
L 104.693513 107.79709 
L 105.369726 102.767594 
L 105.615622 102.199053 
L 105.800044 102.223103 
L 106.04594 102.652837 
L 107.152471 105.086832 
L 107.521315 105.337724 
L 107.951632 105.359611 
L 108.627846 105.125452 
L 110.226168 104.535314 
L 111.578595 104.311075 
L 113.66871 104.220519 
L 116.066194 104.320059 
L 117.41862 104.578224 
L 119.754631 105.140146 
L 120.307896 104.870216 
L 121.230005 104.343716 
L 121.660323 104.40639 
L 122.336536 104.590887 
L 122.643906 104.42832 
L 123.074224 103.872342 
L 123.566015 103.300057 
L 123.750437 103.311664 
L 123.934859 103.526111 
L 124.180755 104.163858 
L 124.611073 106.099029 
L 125.225812 108.848473 
L 125.471708 109.127963 
L 125.65613 108.926552 
L 126.209395 107.908054 
L 126.332343 107.981731 
L 126.578239 108.562985 
L 127.254452 110.502391 
L 127.500348 110.634614 
L 127.746244 110.485191 
L 128.238036 109.789181 
L 129.098671 108.604248 
L 129.774884 108.051988 
L 130.574046 107.707491 
L 131.680577 107.503421 
L 133.770691 107.397374 
L 137.889446 107.425291 
L 141.331987 107.516374 
L 141.823778 107.195114 
L 142.254096 106.617727 
L 142.684414 105.626885 
L 143.176205 103.874932 
L 144.405684 99.055319 
L 144.590106 98.984542 
L 144.774528 99.25861 
L 145.020424 100.194699 
L 145.389268 102.685235 
L 146.188429 108.585008 
L 146.372851 108.898198 
L 146.495799 108.676777 
L 146.68022 107.589243 
L 146.926116 104.595064 
L 147.29496 96.948199 
L 148.278543 74.012027 
L 148.585913 71.721551 
L 148.770335 71.543293 
L 148.954757 71.876092 
L 149.385074 72.82524 
L 149.569496 72.807695 
L 149.753918 72.448726 
L 150.061288 71.256682 
L 151.229293 66.100052 
L 151.721084 65.010802 
L 152.212876 64.420518 
L 152.766141 64.092535 
L 153.565303 63.905822 
L 155.040678 63.836905 
L 156.639 63.952459 
L 157.499636 64.234778 
L 158.114375 64.66491 
L 158.729115 65.397622 
L 159.466802 66.711529 
L 160.265963 68.107351 
L 160.634807 68.381157 
L 161.065125 68.379074 
L 161.433968 68.434018 
L 161.741338 68.748887 
L 162.23313 69.310041 
L 162.417552 69.18705 
L 162.663447 68.507401 
L 163.032291 66.554514 
L 163.585557 63.776956 
L 163.892926 63.257083 
L 164.138822 63.294931 
L 164.815036 63.68989 
L 165.122405 63.539541 
L 165.614197 62.954449 
L 166.474832 61.951576 
L 167.151046 61.530682 
L 168.62642 60.962624 
L 168.995264 60.993989 
L 169.302634 61.232145 
L 169.610004 61.763897 
L 170.040321 63.043148 
L 171.023905 66.188068 
L 171.454222 66.772437 
L 172.991071 68.222535 
L 174.650868 70.321191 
L 175.511503 70.984122 
L 176.495086 71.447409 
L 178.646674 72.351422 
L 179.261414 72.923813 
L 179.814679 73.754987 
L 180.367945 75.018724 
L 180.982684 77.02826 
L 182.335111 81.78697 
L 182.581007 81.96056 
L 182.765429 81.792062 
L 183.011325 81.129939 
L 183.380168 79.269614 
L 184.609647 71.847288 
L 184.794069 71.664113 
L 184.917017 71.750639 
L 185.101439 72.172971 
L 185.408809 73.511353 
L 186.761236 80.376615 
L 187.130079 81.041938 
L 187.437449 81.190603 
L 187.683345 81.079748 
L 187.990715 80.677583 
L 188.421032 79.667379 
L 189.773459 75.925513 
L 189.957881 76.008594 
L 190.142303 76.412007 
L 190.449673 77.820569 
L 191.064412 81.021115 
L 191.18736 80.948074 
L 191.371782 80.018529 
L 192.232417 73.329598 
L 192.355365 73.29023 
L 192.478313 73.587692 
L 192.662735 74.801118 
L 193.277474 79.907107 
L 193.400422 79.574593 
L 193.584844 77.994543 
L 194.015162 71.451159 
L 194.691375 61.63927 
L 195.183167 57.287415 
L 195.674958 54.74665 
L 196.16675 53.308702 
L 196.658541 52.499647 
L 197.211807 52.001883 
L 197.88802 51.699134 
L 198.871604 51.521058 
L 201.023192 51.417775 
L 203.850994 51.441148 
L 204.773103 51.679736 
L 205.81816 52.211569 
L 206.801743 52.639596 
L 207.785326 52.770785 
L 208.891857 52.953394 
L 209.568071 53.297678 
L 210.121336 53.859747 
L 210.613128 54.678109 
L 211.227868 56.198752 
L 212.395873 59.32604 
L 212.641768 59.478885 
L 212.82619 59.361594 
L 213.072086 58.889026 
L 213.563878 57.238642 
L 214.055669 55.903997 
L 214.301565 55.708659 
L 214.547461 55.807305 
L 214.916305 56.299121 
L 215.408096 57.385985 
L 216.699049 60.784086 
L 216.944945 60.863457 
L 217.190841 60.726657 
L 217.621158 60.157301 
L 218.789163 58.470681 
L 219.403903 58.015915 
L 220.080116 57.792617 
L 221.186647 57.697919 
L 224.444767 57.702278 
L 225.981615 57.728092 
L 227.088147 57.667007 
L 227.825834 57.79046 
L 228.379099 58.124106 
L 228.993839 58.773159 
L 231.022479 61.177833 
L 231.575745 61.405456 
L 232.006063 61.360665 
L 232.43638 61.076212 
L 232.928172 60.432421 
L 234.342073 58.296582 
L 234.649442 58.264619 
L 235.018286 58.482262 
L 236.247765 59.484507 
L 236.923978 59.496053 
L 241.534525 58.987796 
L 243.501691 59.107487 
L 244.300852 59.373631 
L 245.03854 59.880052 
L 245.837701 60.412751 
L 246.206545 60.422865 
L 246.636863 60.189381 
L 247.436024 59.708747 
L 247.927815 59.731318 
L 248.604029 59.750577 
L 249.09582 59.480173 
L 250.079404 58.546346 
L 250.940039 57.890407 
L 251.677726 57.605105 
L 252.292466 57.597697 
L 252.845731 57.828608 
L 253.337523 58.293173 
L 253.829315 59.069801 
L 254.444054 60.495494 
L 255.366163 62.685017 
L 255.673533 62.92874 
L 255.919429 62.824242 
L 256.288273 62.289191 
L 256.71859 61.755474 
L 256.903012 61.782453 
L 257.148908 62.096312 
L 257.702173 62.923239 
L 257.886595 62.873534 
L 258.255439 62.368437 
L 258.501335 62.20209 
L 258.685757 62.406258 
L 258.931652 63.186283 
L 259.915236 67.095273 
L 260.099657 67.128415 
L 260.284079 66.899307 
L 260.591449 66.080192 
L 262.435668 60.120749 
L 262.988933 59.290977 
L 263.603673 58.758161 
L 264.279886 58.462088 
L 265.201995 58.313369 
L 267.107688 58.298409 
L 272.148552 58.408608 
L 273.562452 58.665638 
L 274.423088 59.045093 
L 275.099301 59.598203 
L 275.714041 60.406886 
L 276.390254 61.692459 
L 277.312363 63.495049 
L 277.558259 63.642478 
L 277.742681 63.536986 
L 277.988577 63.012868 
L 278.295947 61.619628 
L 278.726264 58.332922 
L 281.30817 35.733835 
L 281.431118 35.89608 
L 281.61554 36.737978 
L 282.045857 40.259904 
L 282.537649 43.754664 
L 282.845019 44.633611 
L 283.029441 44.67842 
L 283.213863 44.437148 
L 283.582706 43.402099 
L 284.750711 39.742206 
L 285.242503 38.984381 
L 285.67282 38.697217 
L 286.041664 38.70447 
L 286.349034 38.939557 
L 286.656404 39.495475 
L 287.025247 40.778799 
L 287.517039 43.59489 
L 288.131778 47.035725 
L 288.377674 47.53499 
L 288.500622 47.518728 
L 288.685044 47.183515 
L 288.992414 46.012243 
L 289.791575 42.741075 
L 290.098945 42.2268 
L 290.344841 42.119093 
L 290.65221 42.241915 
L 291.26695 42.844346 
L 292.127585 43.614128 
L 292.926747 44.016346 
L 293.971804 44.259673 
L 295.816022 44.411112 
L 298.766772 44.426381 
L 302.824052 44.178176 
L 304.299427 43.808795 
L 307.864916 43.448031 
L 309.278817 43.840596 
L 309.770609 43.588794 
L 311.18451 42.668768 
L 311.860723 42.629368 
L 314.504103 42.704074 
L 317.086009 42.725812 
L 318.745805 42.967287 
L 321.266237 43.409916 
L 321.819503 43.199937 
L 322.372768 42.725675 
L 323.110456 42.078604 
L 323.356352 42.087937 
L 323.602247 42.321325 
L 323.909617 42.984881 
L 324.339935 44.565954 
L 325.81531 50.756 
L 326.184153 51.308912 
L 326.430049 51.357511 
L 326.737419 51.130078 
L 327.53658 50.373174 
L 327.782476 50.483339 
L 328.089846 50.913772 
L 329.196377 52.791932 
L 329.565221 52.945716 
L 330.17996 52.900322 
L 331.040595 52.875749 
L 332.51597 53.149382 
L 334.298715 53.365207 
L 335.220824 53.414519 
L 335.220824 53.414519 
" clip-path="url(#pa6ed397612)" style="fill: none; stroke: #2ca02c; stroke-width: 1.5; stroke-linecap: square"/>
   </g>
   <g id="patch_3">
    <path d="M 41.658125 241.036875 
L 41.658125 25.9575 
" style="fill: none; stroke: #000000; stroke-width: 0.8; stroke-linejoin: miter; stroke-linecap: square"/>
   </g>
   <g id="patch_4">
    <path d="M 349.2 241.036875 
L 349.2 25.9575 
" style="fill: none; stroke: #000000; stroke-width: 0.8; stroke-linejoin: miter; stroke-linecap: square"/>
   </g>
   <g id="patch_5">
    <path d="M 41.658125 241.036875 
L 349.2 241.036875 
" style="fill: none; stroke: #000000; stroke-width: 0.8; stroke-linejoin: miter; stroke-linecap: square"/>
   </g>
   <g id="patch_6">
    <path d="M 41.658125 25.9575 
L 349.2 25.9575 
" style="fill: none; stroke: #000000; stroke-width: 0.8; stroke-linejoin: miter; stroke-linecap: square"/>
   </g>
  </g>
 </g>
 <defs>
  <clipPath id="pa6ed397612">
   <rect x="41.658125" y="25.9575" width="307.541875" height="215.079375"/>
  </clipPath>
 </defs>
</svg>
