<?xml version="1.0" encoding="utf-8" standalone="no"?>
<!DOCTYPE svg PUBLIC "-//W3C//DTD SVG 1.1//EN"
  "http://www.w3.org/Graphics/SVG/1.1/DTD/svg11.dtd">
<svg xmlns:xlink="http://www.w3.org/1999/xlink" width="414pt" height="288pt" viewBox="0 0 414 288" xmlns="http://www.w3.org/2000/svg" version="1.1">
 <metadata>
  <rdf:RDF xmlns:dc="http://purl.org/dc/elements/1.1/" xmlns:cc="http://creativecommons.org/ns#" xmlns:rdf="http://www.w3.org/1999/02/22-rdf-syntax-ns#">
   <cc:Work>
    <dc:type rdf:resource="http://purl.org/dc/dcmitype/StillImage"/>
    <dc:date>2023-09-07T00:34:37.378581</dc:date>
    <dc:format>image/svg+xml</dc:format>
    <dc:creator>
     <cc:Agent>
      <dc:title>Matplotlib v3.7.2, https://matplotlib.org/</dc:title>
     </cc:Agent>
    </dc:creator>
   </cc:Work>
  </rdf:RDF>
 </metadata>
 <defs>
  <style type="text/css">*{stroke-linejoin: round; stroke-linecap: butt}</style>
 </defs>
 <g id="figure_1">
  <g id="patch_1">
   <path d="M 0 288 
L 414 288 
L 414 0 
L 0 0 
L 0 288 
z
" style="fill: none"/>
  </g>
  <g id="axes_1">
   <g id="patch_2">
    <path d="M 70.5525 241.036875 
L 403.2 241.036875 
L 403.2 25.9575 
L 70.5525 25.9575 
L 70.5525 241.036875 
z
" style="fill: none"/>
   </g>
   <g id="matplotlib.axis_1">
    <g id="xtick_1">
     <g id="line2d_1">
      <defs>
       <path id="m679912040a" d="M 0 0 
L 0 3.5 
" style="stroke: #000000; stroke-width: 0.8"/>
      </defs>
      <g>
       <use xlink:href="#m679912040a" x="85.672841" y="241.036875" style="stroke: #000000; stroke-width: 0.8"/>
      </g>
     </g>
     <g id="text_1">
      <!-- 0 -->
      <g transform="translate(80.582841 260.194375) scale(0.16 -0.16)">
       <defs>
        <path id="DejaVuSans-30" d="M 2034 4250 
Q 1547 4250 1301 3770 
Q 1056 3291 1056 2328 
Q 1056 1369 1301 889 
Q 1547 409 2034 409 
Q 2525 409 2770 889 
Q 3016 1369 3016 2328 
Q 3016 3291 2770 3770 
Q 2525 4250 2034 4250 
z
M 2034 4750 
Q 2819 4750 3233 4129 
Q 3647 3509 3647 2328 
Q 3647 1150 3233 529 
Q 2819 -91 2034 -91 
Q 1250 -91 836 529 
Q 422 1150 422 2328 
Q 422 3509 836 4129 
Q 1250 4750 2034 4750 
z
" transform="scale(0.015625)"/>
       </defs>
       <use xlink:href="#DejaVuSans-30"/>
      </g>
     </g>
    </g>
    <g id="xtick_2">
     <g id="line2d_2">
      <g>
       <use xlink:href="#m679912040a" x="172.074789" y="241.036875" style="stroke: #000000; stroke-width: 0.8"/>
      </g>
     </g>
     <g id="text_2">
      <!-- 1 -->
      <g transform="translate(166.984789 260.194375) scale(0.16 -0.16)">
       <defs>
        <path id="DejaVuSans-31" d="M 794 531 
L 1825 531 
L 1825 4091 
L 703 3866 
L 703 4441 
L 1819 4666 
L 2450 4666 
L 2450 531 
L 3481 531 
L 3481 0 
L 794 0 
L 794 531 
z
" transform="scale(0.015625)"/>
       </defs>
       <use xlink:href="#DejaVuSans-31"/>
      </g>
     </g>
    </g>
    <g id="xtick_3">
     <g id="line2d_3">
      <g>
       <use xlink:href="#m679912040a" x="258.476737" y="241.036875" style="stroke: #000000; stroke-width: 0.8"/>
      </g>
     </g>
     <g id="text_3">
      <!-- 2 -->
      <g transform="translate(253.386737 260.194375) scale(0.16 -0.16)">
       <defs>
        <path id="DejaVuSans-32" d="M 1228 531 
L 3431 531 
L 3431 0 
L 469 0 
L 469 531 
Q 828 903 1448 1529 
Q 2069 2156 2228 2338 
Q 2531 2678 2651 2914 
Q 2772 3150 2772 3378 
Q 2772 3750 2511 3984 
Q 2250 4219 1831 4219 
Q 1534 4219 1204 4116 
Q 875 4013 500 3803 
L 500 4441 
Q 881 4594 1212 4672 
Q 1544 4750 1819 4750 
Q 2544 4750 2975 4387 
Q 3406 4025 3406 3419 
Q 3406 3131 3298 2873 
Q 3191 2616 2906 2266 
Q 2828 2175 2409 1742 
Q 1991 1309 1228 531 
z
" transform="scale(0.015625)"/>
       </defs>
       <use xlink:href="#DejaVuSans-32"/>
      </g>
     </g>
    </g>
    <g id="xtick_4">
     <g id="line2d_4">
      <g>
       <use xlink:href="#m679912040a" x="344.878685" y="241.036875" style="stroke: #000000; stroke-width: 0.8"/>
      </g>
     </g>
     <g id="text_4">
      <!-- 3 -->
      <g transform="translate(339.788685 260.194375) scale(0.16 -0.16)">
       <defs>
        <path id="DejaVuSans-33" d="M 2597 2516 
Q 3050 2419 3304 2112 
Q 3559 1806 3559 1356 
Q 3559 666 3084 287 
Q 2609 -91 1734 -91 
Q 1441 -91 1130 -33 
Q 819 25 488 141 
L 488 750 
Q 750 597 1062 519 
Q 1375 441 1716 441 
Q 2309 441 2620 675 
Q 2931 909 2931 1356 
Q 2931 1769 2642 2001 
Q 2353 2234 1838 2234 
L 1294 2234 
L 1294 2753 
L 1863 2753 
Q 2328 2753 2575 2939 
Q 2822 3125 2822 3475 
Q 2822 3834 2567 4026 
Q 2313 4219 1838 4219 
Q 1578 4219 1281 4162 
Q 984 4106 628 3988 
L 628 4550 
Q 988 4650 1302 4700 
Q 1616 4750 1894 4750 
Q 2613 4750 3031 4423 
Q 3450 4097 3450 3541 
Q 3450 3153 3228 2886 
Q 3006 2619 2597 2516 
z
" transform="scale(0.015625)"/>
       </defs>
       <use xlink:href="#DejaVuSans-33"/>
      </g>
     </g>
    </g>
    <g id="text_5">
     <!-- Time [min] -->
     <g transform="translate(209.723906 275.120313) scale(0.1 -0.1)">
      <defs>
       <path id="DejaVuSans-54" d="M -19 4666 
L 3928 4666 
L 3928 4134 
L 2272 4134 
L 2272 0 
L 1638 0 
L 1638 4134 
L -19 4134 
L -19 4666 
z
" transform="scale(0.015625)"/>
       <path id="DejaVuSans-69" d="M 603 3500 
L 1178 3500 
L 1178 0 
L 603 0 
L 603 3500 
z
M 603 4863 
L 1178 4863 
L 1178 4134 
L 603 4134 
L 603 4863 
z
" transform="scale(0.015625)"/>
       <path id="DejaVuSans-6d" d="M 3328 2828 
Q 3544 3216 3844 3400 
Q 4144 3584 4550 3584 
Q 5097 3584 5394 3201 
Q 5691 2819 5691 2113 
L 5691 0 
L 5113 0 
L 5113 2094 
Q 5113 2597 4934 2840 
Q 4756 3084 4391 3084 
Q 3944 3084 3684 2787 
Q 3425 2491 3425 1978 
L 3425 0 
L 2847 0 
L 2847 2094 
Q 2847 2600 2669 2842 
Q 2491 3084 2119 3084 
Q 1678 3084 1418 2786 
Q 1159 2488 1159 1978 
L 1159 0 
L 581 0 
L 581 3500 
L 1159 3500 
L 1159 2956 
Q 1356 3278 1631 3431 
Q 1906 3584 2284 3584 
Q 2666 3584 2933 3390 
Q 3200 3197 3328 2828 
z
" transform="scale(0.015625)"/>
       <path id="DejaVuSans-65" d="M 3597 1894 
L 3597 1613 
L 953 1613 
Q 991 1019 1311 708 
Q 1631 397 2203 397 
Q 2534 397 2845 478 
Q 3156 559 3463 722 
L 3463 178 
Q 3153 47 2828 -22 
Q 2503 -91 2169 -91 
Q 1331 -91 842 396 
Q 353 884 353 1716 
Q 353 2575 817 3079 
Q 1281 3584 2069 3584 
Q 2775 3584 3186 3129 
Q 3597 2675 3597 1894 
z
M 3022 2063 
Q 3016 2534 2758 2815 
Q 2500 3097 2075 3097 
Q 1594 3097 1305 2825 
Q 1016 2553 972 2059 
L 3022 2063 
z
" transform="scale(0.015625)"/>
       <path id="DejaVuSans-20" transform="scale(0.015625)"/>
       <path id="DejaVuSans-5b" d="M 550 4863 
L 1875 4863 
L 1875 4416 
L 1125 4416 
L 1125 -397 
L 1875 -397 
L 1875 -844 
L 550 -844 
L 550 4863 
z
" transform="scale(0.015625)"/>
       <path id="DejaVuSans-6e" d="M 3513 2113 
L 3513 0 
L 2938 0 
L 2938 2094 
Q 2938 2591 2744 2837 
Q 2550 3084 2163 3084 
Q 1697 3084 1428 2787 
Q 1159 2491 1159 1978 
L 1159 0 
L 581 0 
L 581 3500 
L 1159 3500 
L 1159 2956 
Q 1366 3272 1645 3428 
Q 1925 3584 2291 3584 
Q 2894 3584 3203 3211 
Q 3513 2838 3513 2113 
z
" transform="scale(0.015625)"/>
       <path id="DejaVuSans-5d" d="M 1947 4863 
L 1947 -844 
L 622 -844 
L 622 -397 
L 1369 -397 
L 1369 4416 
L 622 4416 
L 622 4863 
L 1947 4863 
z
" transform="scale(0.015625)"/>
      </defs>
      <use xlink:href="#DejaVuSans-54"/>
      <use xlink:href="#DejaVuSans-69" x="57.958984"/>
      <use xlink:href="#DejaVuSans-6d" x="85.742188"/>
      <use xlink:href="#DejaVuSans-65" x="183.154297"/>
      <use xlink:href="#DejaVuSans-20" x="244.677734"/>
      <use xlink:href="#DejaVuSans-5b" x="276.464844"/>
      <use xlink:href="#DejaVuSans-6d" x="315.478516"/>
      <use xlink:href="#DejaVuSans-69" x="412.890625"/>
      <use xlink:href="#DejaVuSans-6e" x="440.673828"/>
      <use xlink:href="#DejaVuSans-5d" x="504.052734"/>
     </g>
    </g>
   </g>
   <g id="matplotlib.axis_2">
    <g id="ytick_1">
     <g id="line2d_5">
      <defs>
       <path id="md12fbfb84c" d="M 0 0 
L -3.5 0 
" style="stroke: #000000; stroke-width: 0.8"/>
      </defs>
      <g>
       <use xlink:href="#md12fbfb84c" x="70.5525" y="237.411458" style="stroke: #000000; stroke-width: 0.8"/>
      </g>
     </g>
     <g id="text_6">
      <!-- −5.0 -->
      <g transform="translate(24.7 243.490208) scale(0.16 -0.16)">
       <defs>
        <path id="DejaVuSans-2212" d="M 678 2272 
L 4684 2272 
L 4684 1741 
L 678 1741 
L 678 2272 
z
" transform="scale(0.015625)"/>
        <path id="DejaVuSans-35" d="M 691 4666 
L 3169 4666 
L 3169 4134 
L 1269 4134 
L 1269 2991 
Q 1406 3038 1543 3061 
Q 1681 3084 1819 3084 
Q 2600 3084 3056 2656 
Q 3513 2228 3513 1497 
Q 3513 744 3044 326 
Q 2575 -91 1722 -91 
Q 1428 -91 1123 -41 
Q 819 9 494 109 
L 494 744 
Q 775 591 1075 516 
Q 1375 441 1709 441 
Q 2250 441 2565 725 
Q 2881 1009 2881 1497 
Q 2881 1984 2565 2268 
Q 2250 2553 1709 2553 
Q 1456 2553 1204 2497 
Q 953 2441 691 2322 
L 691 4666 
z
" transform="scale(0.015625)"/>
        <path id="DejaVuSans-2e" d="M 684 794 
L 1344 794 
L 1344 0 
L 684 0 
L 684 794 
z
" transform="scale(0.015625)"/>
       </defs>
       <use xlink:href="#DejaVuSans-2212"/>
       <use xlink:href="#DejaVuSans-35" x="83.789062"/>
       <use xlink:href="#DejaVuSans-2e" x="147.412109"/>
       <use xlink:href="#DejaVuSans-30" x="179.199219"/>
      </g>
     </g>
    </g>
    <g id="ytick_2">
     <g id="line2d_6">
      <g>
       <use xlink:href="#md12fbfb84c" x="70.5525" y="193.504056" style="stroke: #000000; stroke-width: 0.8"/>
      </g>
     </g>
     <g id="text_7">
      <!-- −2.5 -->
      <g transform="translate(24.7 199.582806) scale(0.16 -0.16)">
       <use xlink:href="#DejaVuSans-2212"/>
       <use xlink:href="#DejaVuSans-32" x="83.789062"/>
       <use xlink:href="#DejaVuSans-2e" x="147.412109"/>
       <use xlink:href="#DejaVuSans-35" x="179.199219"/>
      </g>
     </g>
    </g>
    <g id="ytick_3">
     <g id="line2d_7">
      <g>
       <use xlink:href="#md12fbfb84c" x="70.5525" y="149.596654" style="stroke: #000000; stroke-width: 0.8"/>
      </g>
     </g>
     <g id="text_8">
      <!-- 0.0 -->
      <g transform="translate(38.1075 155.675404) scale(0.16 -0.16)">
       <use xlink:href="#DejaVuSans-30"/>
       <use xlink:href="#DejaVuSans-2e" x="63.623047"/>
       <use xlink:href="#DejaVuSans-30" x="95.410156"/>
      </g>
     </g>
    </g>
    <g id="ytick_4">
     <g id="line2d_8">
      <g>
       <use xlink:href="#md12fbfb84c" x="70.5525" y="105.689252" style="stroke: #000000; stroke-width: 0.8"/>
      </g>
     </g>
     <g id="text_9">
      <!-- 2.5 -->
      <g transform="translate(38.1075 111.768002) scale(0.16 -0.16)">
       <use xlink:href="#DejaVuSans-32"/>
       <use xlink:href="#DejaVuSans-2e" x="63.623047"/>
       <use xlink:href="#DejaVuSans-35" x="95.410156"/>
      </g>
     </g>
    </g>
    <g id="ytick_5">
     <g id="line2d_9">
      <g>
       <use xlink:href="#md12fbfb84c" x="70.5525" y="61.781849" style="stroke: #000000; stroke-width: 0.8"/>
      </g>
     </g>
     <g id="text_10">
      <!-- 5.0 -->
      <g transform="translate(38.1075 67.860599) scale(0.16 -0.16)">
       <use xlink:href="#DejaVuSans-35"/>
       <use xlink:href="#DejaVuSans-2e" x="63.623047"/>
       <use xlink:href="#DejaVuSans-30" x="95.410156"/>
      </g>
     </g>
    </g>
    <g id="text_11">
     <!-- Attitude Error $\sigma_{B/R}$ -->
     <g transform="translate(18.4 178.447187) rotate(-90) scale(0.1 -0.1)">
      <defs>
       <path id="DejaVuSans-41" d="M 2188 4044 
L 1331 1722 
L 3047 1722 
L 2188 4044 
z
M 1831 4666 
L 2547 4666 
L 4325 0 
L 3669 0 
L 3244 1197 
L 1141 1197 
L 716 0 
L 50 0 
L 1831 4666 
z
" transform="scale(0.015625)"/>
       <path id="DejaVuSans-74" d="M 1172 4494 
L 1172 3500 
L 2356 3500 
L 2356 3053 
L 1172 3053 
L 1172 1153 
Q 1172 725 1289 603 
Q 1406 481 1766 481 
L 2356 481 
L 2356 0 
L 1766 0 
Q 1100 0 847 248 
Q 594 497 594 1153 
L 594 3053 
L 172 3053 
L 172 3500 
L 594 3500 
L 594 4494 
L 1172 4494 
z
" transform="scale(0.015625)"/>
       <path id="DejaVuSans-75" d="M 544 1381 
L 544 3500 
L 1119 3500 
L 1119 1403 
Q 1119 906 1312 657 
Q 1506 409 1894 409 
Q 2359 409 2629 706 
Q 2900 1003 2900 1516 
L 2900 3500 
L 3475 3500 
L 3475 0 
L 2900 0 
L 2900 538 
Q 2691 219 2414 64 
Q 2138 -91 1772 -91 
Q 1169 -91 856 284 
Q 544 659 544 1381 
z
M 1991 3584 
L 1991 3584 
z
" transform="scale(0.015625)"/>
       <path id="DejaVuSans-64" d="M 2906 2969 
L 2906 4863 
L 3481 4863 
L 3481 0 
L 2906 0 
L 2906 525 
Q 2725 213 2448 61 
Q 2172 -91 1784 -91 
Q 1150 -91 751 415 
Q 353 922 353 1747 
Q 353 2572 751 3078 
Q 1150 3584 1784 3584 
Q 2172 3584 2448 3432 
Q 2725 3281 2906 2969 
z
M 947 1747 
Q 947 1113 1208 752 
Q 1469 391 1925 391 
Q 2381 391 2643 752 
Q 2906 1113 2906 1747 
Q 2906 2381 2643 2742 
Q 2381 3103 1925 3103 
Q 1469 3103 1208 2742 
Q 947 2381 947 1747 
z
" transform="scale(0.015625)"/>
       <path id="DejaVuSans-45" d="M 628 4666 
L 3578 4666 
L 3578 4134 
L 1259 4134 
L 1259 2753 
L 3481 2753 
L 3481 2222 
L 1259 2222 
L 1259 531 
L 3634 531 
L 3634 0 
L 628 0 
L 628 4666 
z
" transform="scale(0.015625)"/>
       <path id="DejaVuSans-72" d="M 2631 2963 
Q 2534 3019 2420 3045 
Q 2306 3072 2169 3072 
Q 1681 3072 1420 2755 
Q 1159 2438 1159 1844 
L 1159 0 
L 581 0 
L 581 3500 
L 1159 3500 
L 1159 2956 
Q 1341 3275 1631 3429 
Q 1922 3584 2338 3584 
Q 2397 3584 2469 3576 
Q 2541 3569 2628 3553 
L 2631 2963 
z
" transform="scale(0.015625)"/>
       <path id="DejaVuSans-6f" d="M 1959 3097 
Q 1497 3097 1228 2736 
Q 959 2375 959 1747 
Q 959 1119 1226 758 
Q 1494 397 1959 397 
Q 2419 397 2687 759 
Q 2956 1122 2956 1747 
Q 2956 2369 2687 2733 
Q 2419 3097 1959 3097 
z
M 1959 3584 
Q 2709 3584 3137 3096 
Q 3566 2609 3566 1747 
Q 3566 888 3137 398 
Q 2709 -91 1959 -91 
Q 1206 -91 779 398 
Q 353 888 353 1747 
Q 353 2609 779 3096 
Q 1206 3584 1959 3584 
z
" transform="scale(0.015625)"/>
       <path id="DejaVuSans-Oblique-3c3" d="M 2219 3044 
Q 1744 3044 1422 2700 
Q 1081 2341 969 1747 
Q 844 1119 1044 756 
Q 1241 397 1706 397 
Q 2166 397 2503 759 
Q 2844 1122 2966 1747 
Q 3075 2319 2881 2700 
Q 2700 3044 2219 3044 
z
M 2309 3503 
L 4219 3500 
L 4106 2925 
L 3463 2925 
Q 3706 2438 3575 1747 
Q 3406 888 2884 400 
Q 2359 -91 1609 -91 
Q 856 -91 525 400 
Q 194 888 363 1747 
Q 528 2609 1050 3097 
Q 1484 3503 2309 3503 
z
" transform="scale(0.015625)"/>
       <path id="DejaVuSans-Oblique-42" d="M 1081 4666 
L 2694 4666 
Q 3350 4666 3675 4422 
Q 4000 4178 4000 3688 
Q 4000 3238 3720 2911 
Q 3441 2584 2988 2516 
Q 3375 2428 3569 2181 
Q 3763 1934 3763 1522 
Q 3763 819 3242 409 
Q 2722 0 1819 0 
L 172 0 
L 1081 4666 
z
M 1234 2228 
L 903 519 
L 1919 519 
Q 2491 519 2800 781 
Q 3109 1044 3109 1522 
Q 3109 1891 2904 2059 
Q 2700 2228 2247 2228 
L 1234 2228 
z
M 1606 4147 
L 1331 2741 
L 2272 2741 
Q 2775 2741 3058 2959 
Q 3341 3178 3341 3566 
Q 3341 3869 3150 4008 
Q 2959 4147 2541 4147 
L 1606 4147 
z
" transform="scale(0.015625)"/>
       <path id="DejaVuSans-2f" d="M 1625 4666 
L 2156 4666 
L 531 -594 
L 0 -594 
L 1625 4666 
z
" transform="scale(0.015625)"/>
       <path id="DejaVuSans-Oblique-52" d="M 1613 4147 
L 1294 2491 
L 2106 2491 
Q 2584 2491 2879 2755 
Q 3175 3019 3175 3444 
Q 3175 3784 2976 3965 
Q 2778 4147 2406 4147 
L 1613 4147 
z
M 2772 2241 
Q 2972 2194 3105 2009 
Q 3238 1825 3413 1275 
L 3809 0 
L 3144 0 
L 2778 1197 
Q 2638 1659 2453 1815 
Q 2269 1972 1888 1972 
L 1191 1972 
L 806 0 
L 172 0 
L 1081 4666 
L 2503 4666 
Q 3150 4666 3495 4373 
Q 3841 4081 3841 3531 
Q 3841 3044 3547 2687 
Q 3253 2331 2772 2241 
z
" transform="scale(0.015625)"/>
      </defs>
      <use xlink:href="#DejaVuSans-41" transform="translate(0 0.015625)"/>
      <use xlink:href="#DejaVuSans-74" transform="translate(68.408203 0.015625)"/>
      <use xlink:href="#DejaVuSans-74" transform="translate(107.617188 0.015625)"/>
      <use xlink:href="#DejaVuSans-69" transform="translate(146.826172 0.015625)"/>
      <use xlink:href="#DejaVuSans-74" transform="translate(174.609375 0.015625)"/>
      <use xlink:href="#DejaVuSans-75" transform="translate(213.818359 0.015625)"/>
      <use xlink:href="#DejaVuSans-64" transform="translate(277.197266 0.015625)"/>
      <use xlink:href="#DejaVuSans-65" transform="translate(340.673828 0.015625)"/>
      <use xlink:href="#DejaVuSans-20" transform="translate(402.197266 0.015625)"/>
      <use xlink:href="#DejaVuSans-45" transform="translate(433.984375 0.015625)"/>
      <use xlink:href="#DejaVuSans-72" transform="translate(497.167969 0.015625)"/>
      <use xlink:href="#DejaVuSans-72" transform="translate(538.28125 0.015625)"/>
      <use xlink:href="#DejaVuSans-6f" transform="translate(579.394531 0.015625)"/>
      <use xlink:href="#DejaVuSans-72" transform="translate(640.576172 0.015625)"/>
      <use xlink:href="#DejaVuSans-20" transform="translate(681.689453 0.015625)"/>
      <use xlink:href="#DejaVuSans-Oblique-3c3" transform="translate(713.476562 0.015625)"/>
      <use xlink:href="#DejaVuSans-Oblique-42" transform="translate(776.855469 -16.390625) scale(0.7)"/>
      <use xlink:href="#DejaVuSans-2f" transform="translate(824.87793 -16.390625) scale(0.7)"/>
      <use xlink:href="#DejaVuSans-Oblique-52" transform="translate(847.236914 -16.390625) scale(0.7)"/>
     </g>
    </g>
    <g id="text_12">
     <!-- 1e−5 -->
     <g transform="translate(70.5525 22.9575) scale(0.16 -0.16)">
      <use xlink:href="#DejaVuSans-31"/>
      <use xlink:href="#DejaVuSans-65" x="63.623047"/>
      <use xlink:href="#DejaVuSans-2212" x="125.146484"/>
      <use xlink:href="#DejaVuSans-35" x="208.935547"/>
     </g>
    </g>
   </g>
   <g id="line2d_10">
    <path d="M 85.672841 149.596654 
L 86.277655 146.176926 
L 86.882468 138.833752 
L 89.906536 95.992677 
L 91.116164 81.961 
L 92.325791 70.10462 
L 93.535418 60.28708 
L 94.745045 52.352588 
L 95.954673 46.146624 
L 97.1643 41.520383 
L 98.373927 38.331778 
L 98.978741 37.234082 
L 99.583555 36.445658 
L 100.188368 35.950701 
L 100.793182 35.733835 
L 101.397995 35.780119 
L 102.002809 36.075036 
L 102.607623 36.604496 
L 103.212436 37.354829 
L 104.422064 39.465536 
L 105.631691 42.306131 
L 106.841318 45.782136 
L 108.655759 51.99668 
L 110.4702 59.173669 
L 112.889455 69.830312 
L 116.518336 87.193 
L 124.985727 128.424658 
L 128.614609 144.863363 
L 132.243491 160.213386 
L 135.872373 174.524656 
L 139.501255 187.898847 
L 142.525323 198.175473 
L 144.944577 205.672276 
L 147.363832 212.393879 
L 149.178273 216.851376 
L 150.992714 220.750076 
L 152.807155 224.038254 
L 154.016782 225.866343 
L 155.226409 227.386423 
L 156.436036 228.584689 
L 157.645664 229.447946 
L 158.855291 229.96369 
L 160.064918 230.120188 
L 161.274545 229.906556 
L 162.484173 229.312837 
L 163.6938 228.330071 
L 164.903427 226.950363 
L 166.113055 225.166935 
L 167.322682 222.974553 
L 168.532309 220.391796 
L 170.34675 215.890674 
L 172.161191 210.793238 
L 174.580445 203.352082 
L 180.023768 185.534773 
L 183.65265 174.03752 
L 186.071905 166.964225 
L 188.491159 160.552581 
L 190.3056 156.254815 
L 192.120041 152.443095 
L 193.934482 149.151845 
L 195.748923 146.408251 
L 196.95855 144.891608 
L 198.168177 143.615579 
L 199.377805 142.563954 
L 200.587432 141.72013 
L 201.797059 141.068388 
L 203.006686 140.594114 
L 204.216314 140.283803 
L 206.030755 140.098811 
L 207.845195 140.217105 
L 209.659636 140.605446 
L 211.474077 141.23476 
L 213.288518 142.079689 
L 215.707773 143.503919 
L 218.127027 145.227881 
L 220.546282 147.214137 
L 223.57035 150.017533 
L 227.199232 153.758628 
L 230.828114 157.472115 
L 233.247368 159.59982 
L 235.061809 160.890436 
L 236.87625 161.852301 
L 238.085877 162.285486 
L 239.295505 162.536944 
L 240.505132 162.595431 
L 241.714759 162.451266 
L 242.924386 162.096229 
L 244.134014 161.52344 
L 245.343641 160.727221 
L 246.553268 159.702933 
L 247.762895 158.4468 
L 248.972523 156.955701 
L 250.786964 154.272701 
L 252.601405 151.046616 
L 254.415845 147.268065 
L 256.230286 142.924566 
L 258.044727 138.008333 
L 260.463982 130.753201 
L 270.141 100.676059 
L 272.560255 94.23168 
L 274.374695 89.949447 
L 276.189136 86.235951 
L 277.398764 84.121276 
L 278.608391 82.328694 
L 279.818018 80.888315 
L 281.027645 79.831702 
L 282.237273 79.19181 
L 282.842086 79.038784 
L 283.4469 79.002856 
L 284.051714 79.088465 
L 284.656527 79.300094 
L 285.261341 79.64226 
L 286.470968 80.736375 
L 287.680595 82.40716 
L 288.890223 84.690645 
L 290.09985 87.622045 
L 291.309477 91.235268 
L 292.519105 95.562427 
L 293.728732 100.633415 
L 294.938359 106.475538 
L 296.147986 113.113273 
L 297.962427 124.607876 
L 299.776868 138.000521 
L 301.591309 153.337807 
L 303.40575 170.655012 
L 305.220191 189.978479 
L 307.034632 211.326375 
L 308.244259 227.498806 
L 308.849073 231.100909 
L 309.453886 231.26054 
L 310.0587 229.897148 
L 311.268327 225.621968 
L 314.292395 214.30906 
L 316.71165 206.349203 
L 319.130905 199.365162 
L 321.550159 193.240434 
L 323.969414 187.86943 
L 326.388668 183.159401 
L 328.807923 179.029009 
L 331.227177 175.406921 
L 333.646432 172.230584 
L 336.065686 169.445142 
L 338.484941 167.002489 
L 340.904195 164.860442 
L 343.32345 162.982005 
L 346.347518 160.955626 
L 349.371586 159.236017 
L 352.395655 157.776736 
L 355.419723 156.538371 
L 359.048605 155.297221 
L 362.677486 154.277983 
L 366.911182 153.316819 
L 371.749691 152.457517 
L 377.193014 151.725645 
L 383.845964 151.080313 
L 388.079659 150.77569 
L 388.079659 150.77569 
" clip-path="url(#p464338b690)" style="fill: none; stroke: #2b737e; stroke-width: 1.5; stroke-linecap: square"/>
   </g>
   <g id="line2d_11">
    <path d="M 85.672841 149.596654 
L 86.277655 149.444288 
L 86.882468 149.009872 
L 87.487282 148.325852 
L 88.696909 146.329073 
L 89.906536 143.675541 
L 91.720977 138.878957 
L 98.978741 118.310263 
L 100.793182 114.205032 
L 102.607623 110.79118 
L 103.81725 108.919699 
L 105.026877 107.374216 
L 106.236505 106.149571 
L 107.446132 105.235445 
L 108.655759 104.617421 
L 109.865386 104.277919 
L 111.075014 104.197024 
L 112.284641 104.353198 
L 113.494268 104.723891 
L 114.703895 105.28606 
L 116.518336 106.437852 
L 118.332777 107.89204 
L 120.752032 110.175607 
L 124.380914 114.020954 
L 129.824236 119.852503 
L 132.848305 122.742582 
L 135.267559 124.739443 
L 137.082 126.011561 
L 138.896441 127.065193 
L 140.710882 127.889862 
L 142.525323 128.486539 
L 144.339764 128.865769 
L 146.154205 129.045822 
L 148.573459 129.018747 
L 150.992714 128.750913 
L 154.621595 128.072269 
L 160.064918 127.009017 
L 162.484173 126.748857 
L 164.903427 126.746341 
L 166.717868 126.966503 
L 168.532309 127.421941 
L 170.34675 128.147609 
L 172.161191 129.159689 
L 173.975632 130.458917 
L 175.790073 132.033948 
L 177.604514 133.863973 
L 180.023768 136.651104 
L 183.047836 140.575311 
L 187.281532 146.55495 
L 192.724855 154.267498 
L 195.748923 158.177578 
L 198.168177 160.950476 
L 200.587432 163.319652 
L 202.401873 164.804094 
L 204.216314 166.028895 
L 206.030755 166.99396 
L 207.845195 167.704849 
L 209.659636 168.171457 
L 211.474077 168.406919 
L 213.288518 168.426727 
L 215.102959 168.248017 
L 216.9174 167.889002 
L 219.336655 167.16249 
L 221.755909 166.194489 
L 224.779977 164.714319 
L 228.408859 162.653905 
L 238.085877 156.967775 
L 241.109945 155.518689 
L 244.134014 154.338411 
L 247.158082 153.444555 
L 250.18215 152.824494 
L 253.206218 152.438552 
L 257.439914 152.169551 
L 267.116932 151.674248 
L 278.608391 150.854719 
L 281.632459 150.972407 
L 284.051714 151.310628 
L 285.866155 151.753115 
L 287.680595 152.395032 
L 289.495036 153.27424 
L 291.309477 154.432799 
L 293.123918 155.917258 
L 294.938359 157.778659 
L 296.7528 160.072051 
L 298.567241 162.855334 
L 300.381682 166.187228 
L 302.196123 170.124173 
L 304.010564 174.716028 
L 305.825005 180.000452 
L 307.639445 185.995951 
L 309.453886 195.194103 
L 310.0587 197.438123 
L 310.663514 199.236083 
L 311.268327 200.63429 
L 311.873141 201.675041 
L 312.477955 202.396943 
L 313.082768 202.835209 
L 313.687582 203.021925 
L 314.292395 202.986306 
L 314.897209 202.754923 
L 315.502023 202.351924 
L 316.71165 201.116699 
L 317.921277 199.432426 
L 319.735718 196.329202 
L 322.154973 191.594521 
L 328.203109 179.518194 
L 330.622364 175.202382 
L 333.041618 171.325769 
L 335.460873 167.906972 
L 337.880127 164.934405 
L 340.299382 162.378851 
L 342.718636 160.20193 
L 345.137891 158.361647 
L 347.557145 156.815922 
L 349.9764 155.524722 
L 352.395655 154.45124 
L 355.419723 153.36561 
L 358.443791 152.512929 
L 362.072673 151.731957 
L 366.306368 151.074007 
L 371.144877 150.561219 
L 377.193014 150.158913 
L 385.055591 149.872817 
L 388.079659 149.806244 
L 388.079659 149.806244 
" clip-path="url(#p464338b690)" style="fill: none; stroke: #5ea04b; stroke-width: 1.5; stroke-linecap: square"/>
   </g>
   <g id="line2d_12">
    <path d="M 85.672841 149.596654 
L 86.277655 149.272684 
L 86.882468 148.374368 
L 87.487282 147.004504 
L 88.696909 143.207183 
L 90.51135 135.959472 
L 94.140232 120.874271 
L 95.349859 116.605556 
L 96.559486 112.957487 
L 97.769114 110.000641 
L 98.978741 107.769894 
L 100.188368 106.272025 
L 100.793182 105.793942 
L 101.397995 105.492066 
L 102.002809 105.36199 
L 102.607623 105.398554 
L 103.212436 105.595961 
L 103.81725 105.947882 
L 105.026877 107.087851 
L 106.236505 108.760574 
L 107.446132 110.904817 
L 108.655759 113.457863 
L 110.4702 117.917009 
L 112.889455 124.719729 
L 116.518336 135.855526 
L 120.752032 148.731866 
L 123.171286 155.43756 
L 124.985727 159.971328 
L 126.800168 163.990442 
L 128.614609 167.427268 
L 129.824236 169.366357 
L 131.033864 171.006293 
L 132.243491 172.333815 
L 133.453118 173.336936 
L 134.662745 174.004728 
L 135.872373 174.325711 
L 137.082 174.278585 
L 138.291627 173.851155 
L 139.501255 173.049018 
L 140.710882 171.890929 
L 141.920509 170.404898 
L 143.130136 168.625075 
L 144.944577 165.487677 
L 146.759018 161.907929 
L 149.783086 155.312728 
L 157.04085 139.033385 
L 159.460105 134.15224 
L 161.879359 129.772211 
L 163.6938 126.874739 
L 165.508241 124.348496 
L 167.322682 122.227092 
L 169.137123 120.551961 
L 170.34675 119.694302 
L 171.556377 119.043243 
L 172.766005 118.593658 
L 173.975632 118.337636 
L 175.185259 118.265338 
L 176.394886 118.365645 
L 177.604514 118.626655 
L 179.418955 119.292471 
L 181.233395 120.25002 
L 183.047836 121.457704 
L 185.467091 123.387612 
L 187.886345 125.600145 
L 191.515227 129.267135 
L 203.006686 141.233762 
L 206.030755 143.923524 
L 208.450009 145.777161 
L 210.869264 147.308079 
L 212.683705 148.217582 
L 214.498145 148.905217 
L 216.312586 149.358453 
L 218.127027 149.567406 
L 219.941468 149.524666 
L 221.755909 149.225103 
L 223.57035 148.665675 
L 225.384791 147.84335 
L 227.199232 146.743583 
L 229.013673 145.37928 
L 231.432927 143.242482 
L 238.085877 137.030544 
L 239.900318 135.669692 
L 241.714759 134.606206 
L 242.924386 134.096034 
L 244.134014 133.765442 
L 245.343641 133.62963 
L 246.553268 133.701661 
L 247.762895 133.992487 
L 248.972523 134.51099 
L 250.18215 135.264046 
L 251.391777 136.256602 
L 252.601405 137.491756 
L 253.811032 138.970853 
L 255.625473 141.64576 
L 257.439914 144.865558 
L 259.254355 148.637251 
L 261.068795 152.913952 
L 263.48805 159.216492 
L 271.350627 180.46671 
L 273.165068 184.683809 
L 274.979509 188.387587 
L 276.79395 191.488459 
L 278.003577 193.185255 
L 279.213205 194.566537 
L 280.422832 195.620376 
L 281.632459 196.338902 
L 282.842086 196.718377 
L 284.051714 196.759274 
L 285.261341 196.466353 
L 286.470968 195.848736 
L 287.680595 194.919961 
L 288.890223 193.698 
L 290.09985 192.205233 
L 291.914291 189.517836 
L 293.728732 186.389264 
L 296.147986 181.750247 
L 301.591309 171.014535 
L 303.40575 167.84986 
L 305.220191 165.08639 
L 307.034632 162.78704 
L 308.849073 160.95101 
L 311.268327 158.910165 
L 313.687582 157.216133 
L 316.106836 155.815654 
L 318.526091 154.66186 
L 321.550159 153.505314 
L 324.574227 152.604775 
L 328.203109 151.786676 
L 332.436805 151.103124 
L 337.275314 150.574663 
L 343.32345 150.163353 
L 351.186027 149.87324 
L 362.677486 149.692358 
L 385.055591 149.608392 
L 388.079659 149.605472 
L 388.079659 149.605472 
" clip-path="url(#p464338b690)" style="fill: none; stroke: #bdab62; stroke-width: 1.5; stroke-linecap: square"/>
   </g>
   <g id="patch_3">
    <path d="M 70.5525 241.036875 
L 70.5525 25.9575 
" style="fill: none; stroke: #000000; stroke-width: 0.8; stroke-linejoin: miter; stroke-linecap: square"/>
   </g>
   <g id="patch_4">
    <path d="M 403.2 241.036875 
L 403.2 25.9575 
" style="fill: none; stroke: #000000; stroke-width: 0.8; stroke-linejoin: miter; stroke-linecap: square"/>
   </g>
   <g id="patch_5">
    <path d="M 70.5525 241.036875 
L 403.2 241.036875 
" style="fill: none; stroke: #000000; stroke-width: 0.8; stroke-linejoin: miter; stroke-linecap: square"/>
   </g>
   <g id="patch_6">
    <path d="M 70.5525 25.9575 
L 403.2 25.9575 
" style="fill: none; stroke: #000000; stroke-width: 0.8; stroke-linejoin: miter; stroke-linecap: square"/>
   </g>
   <g id="legend_1">
    <g id="patch_7">
     <path d="M 358.11 236.536875 
L 396.9 236.536875 
Q 398.7 236.536875 398.7 234.736875 
L 398.7 196.005938 
Q 398.7 194.205938 396.9 194.205938 
L 358.11 194.205938 
Q 356.31 194.205938 356.31 196.005938 
L 356.31 234.736875 
Q 356.31 236.536875 358.11 236.536875 
z
" style="fill: #ffffff; opacity: 0.8; stroke: #cccccc; stroke-linejoin: miter"/>
    </g>
    <g id="line2d_13">
     <path d="M 359.91 201.494531 
L 368.91 201.494531 
L 377.91 201.494531 
" style="fill: none; stroke: #2b737e; stroke-width: 1.5; stroke-linecap: square"/>
    </g>
    <g id="text_13">
     <!-- $\sigma_0$ -->
     <g transform="translate(385.11 204.644531) scale(0.09 -0.09)">
      <use xlink:href="#DejaVuSans-Oblique-3c3" transform="translate(0 0.265625)"/>
      <use xlink:href="#DejaVuSans-30" transform="translate(63.378906 -16.140625) scale(0.7)"/>
     </g>
    </g>
    <g id="line2d_14">
     <path d="M 359.91 214.704844 
L 368.91 214.704844 
L 377.91 214.704844 
" style="fill: none; stroke: #5ea04b; stroke-width: 1.5; stroke-linecap: square"/>
    </g>
    <g id="text_14">
     <!-- $\sigma_1$ -->
     <g transform="translate(385.11 217.854844) scale(0.09 -0.09)">
      <use xlink:href="#DejaVuSans-Oblique-3c3" transform="translate(0 0.265625)"/>
      <use xlink:href="#DejaVuSans-31" transform="translate(63.378906 -16.140625) scale(0.7)"/>
     </g>
    </g>
    <g id="line2d_15">
     <path d="M 359.91 227.915156 
L 368.91 227.915156 
L 377.91 227.915156 
" style="fill: none; stroke: #bdab62; stroke-width: 1.5; stroke-linecap: square"/>
    </g>
    <g id="text_15">
     <!-- $\sigma_2$ -->
     <g transform="translate(385.11 231.065156) scale(0.09 -0.09)">
      <use xlink:href="#DejaVuSans-Oblique-3c3" transform="translate(0 0.265625)"/>
      <use xlink:href="#DejaVuSans-32" transform="translate(63.378906 -16.140625) scale(0.7)"/>
     </g>
    </g>
   </g>
  </g>
 </g>
 <defs>
  <clipPath id="p464338b690">
   <rect x="70.5525" y="25.9575" width="332.6475" height="215.079375"/>
  </clipPath>
 </defs>
</svg>
