<?xml version="1.0" encoding="utf-8" standalone="no"?>
<!DOCTYPE svg PUBLIC "-//W3C//DTD SVG 1.1//EN"
  "http://www.w3.org/Graphics/SVG/1.1/DTD/svg11.dtd">
<svg xmlns:xlink="http://www.w3.org/1999/xlink" width="432pt" height="360pt" viewBox="0 0 432 360" xmlns="http://www.w3.org/2000/svg" version="1.1">
 <metadata>
  <rdf:RDF xmlns:dc="http://purl.org/dc/elements/1.1/" xmlns:cc="http://creativecommons.org/ns#" xmlns:rdf="http://www.w3.org/1999/02/22-rdf-syntax-ns#">
   <cc:Work>
    <dc:type rdf:resource="http://purl.org/dc/dcmitype/StillImage"/>
    <dc:date>2023-09-07T00:38:12.561078</dc:date>
    <dc:format>image/svg+xml</dc:format>
    <dc:creator>
     <cc:Agent>
      <dc:title>Matplotlib v3.7.2, https://matplotlib.org/</dc:title>
     </cc:Agent>
    </dc:creator>
   </cc:Work>
  </rdf:RDF>
 </metadata>
 <defs>
  <style type="text/css">*{stroke-linejoin: round; stroke-linecap: butt}</style>
 </defs>
 <g id="figure_1">
  <g id="patch_1">
   <path d="M 0 360 
L 432 360 
L 432 0 
L 0 0 
L 0 360 
z
" style="fill: none"/>
  </g>
  <g id="patch_2">
   <path d="M 54.359063 349.2 
L 377.640937 349.2 
L 377.640937 25.918125 
L 54.359063 25.918125 
L 54.359063 349.2 
z
" style="fill: none"/>
  </g>
  <g id="pane3d_1">
   <g id="patch_3">
    <path d="M 78.769073 269.48905 
L 185.527307 180.002182 
L 184.043265 50.946122 
L 72.1761 132.581683 
" style="fill: #f2f2f2; opacity: 0.5; stroke: #f2f2f2; stroke-linejoin: miter"/>
   </g>
  </g>
  <g id="pane3d_2">
   <g id="patch_4">
    <path d="M 185.527307 180.002182 
L 356.836179 229.794908 
L 362.949589 96.29366 
L 184.043265 50.946122 
" style="fill: #e6e6e6; opacity: 0.5; stroke: #e6e6e6; stroke-linejoin: miter"/>
   </g>
  </g>
  <g id="pane3d_3">
   <g id="patch_5">
    <path d="M 78.769073 269.48905 
L 260.364845 328.798229 
L 356.836179 229.794908 
L 185.527307 180.002182 
" style="fill: #ececec; opacity: 0.5; stroke: #ececec; stroke-linejoin: miter"/>
   </g>
  </g>
  <g id="axis3d_1">
   <g id="line2d_1">
    <path d="M 78.769073 269.48905 
L 260.364845 328.798229 
" style="fill: none; stroke: #000000; stroke-width: 0.8; stroke-linecap: square"/>
   </g>
   <g id="text_1">
    <!-- x [km] -->
    <g transform="translate(134.634665 331.170858) rotate(-341.912962) scale(0.1 -0.1)">
     <defs>
      <path id="DejaVuSans-78" d="M 3513 3500 
L 2247 1797 
L 3578 0 
L 2900 0 
L 1881 1375 
L 863 0 
L 184 0 
L 1544 1831 
L 300 3500 
L 978 3500 
L 1906 2253 
L 2834 3500 
L 3513 3500 
z
" transform="scale(0.015625)"/>
      <path id="DejaVuSans-20" transform="scale(0.015625)"/>
      <path id="DejaVuSans-5b" d="M 550 4863 
L 1875 4863 
L 1875 4416 
L 1125 4416 
L 1125 -397 
L 1875 -397 
L 1875 -844 
L 550 -844 
L 550 4863 
z
" transform="scale(0.015625)"/>
      <path id="DejaVuSans-6b" d="M 581 4863 
L 1159 4863 
L 1159 1991 
L 2875 3500 
L 3609 3500 
L 1753 1863 
L 3688 0 
L 2938 0 
L 1159 1709 
L 1159 0 
L 581 0 
L 581 4863 
z
" transform="scale(0.015625)"/>
      <path id="DejaVuSans-6d" d="M 3328 2828 
Q 3544 3216 3844 3400 
Q 4144 3584 4550 3584 
Q 5097 3584 5394 3201 
Q 5691 2819 5691 2113 
L 5691 0 
L 5113 0 
L 5113 2094 
Q 5113 2597 4934 2840 
Q 4756 3084 4391 3084 
Q 3944 3084 3684 2787 
Q 3425 2491 3425 1978 
L 3425 0 
L 2847 0 
L 2847 2094 
Q 2847 2600 2669 2842 
Q 2491 3084 2119 3084 
Q 1678 3084 1418 2786 
Q 1159 2488 1159 1978 
L 1159 0 
L 581 0 
L 581 3500 
L 1159 3500 
L 1159 2956 
Q 1356 3278 1631 3431 
Q 1906 3584 2284 3584 
Q 2666 3584 2933 3390 
Q 3200 3197 3328 2828 
z
" transform="scale(0.015625)"/>
      <path id="DejaVuSans-5d" d="M 1947 4863 
L 1947 -844 
L 622 -844 
L 622 -397 
L 1369 -397 
L 1369 4416 
L 622 4416 
L 622 4863 
L 1947 4863 
z
" transform="scale(0.015625)"/>
     </defs>
     <use xlink:href="#DejaVuSans-78"/>
     <use xlink:href="#DejaVuSans-20" x="59.179688"/>
     <use xlink:href="#DejaVuSans-5b" x="90.966797"/>
     <use xlink:href="#DejaVuSans-6b" x="129.980469"/>
     <use xlink:href="#DejaVuSans-6d" x="187.890625"/>
     <use xlink:href="#DejaVuSans-5d" x="285.302734"/>
    </g>
   </g>
   <g id="Line3DCollection_1">
    <path d="M 113.58011 280.858335 
L 218.483747 189.581318 
L 218.402662 59.655227 
" style="fill: none; stroke: #b0b0b0; stroke-width: 0.8"/>
    <path d="M 167.173252 298.361855 
L 269.112596 204.297126 
L 271.241151 73.048244 
" style="fill: none; stroke: #b0b0b0; stroke-width: 0.8"/>
    <path d="M 222.489097 316.428009 
L 321.230674 219.445794 
L 325.702778 86.852679 
" style="fill: none; stroke: #b0b0b0; stroke-width: 0.8"/>
   </g>
   <g id="xtick_1">
    <g id="line2d_2">
     <path d="M 114.494131 280.063042 
L 111.74812 282.452356 
" style="fill: none; stroke: #000000; stroke-width: 0.8; stroke-linecap: square"/>
    </g>
    <g id="text_2">
     <!-- −5000 -->
     <g transform="translate(79.012171 308.851645) scale(0.16 -0.16)">
      <defs>
       <path id="DejaVuSans-2212" d="M 678 2272 
L 4684 2272 
L 4684 1741 
L 678 1741 
L 678 2272 
z
" transform="scale(0.015625)"/>
       <path id="DejaVuSans-35" d="M 691 4666 
L 3169 4666 
L 3169 4134 
L 1269 4134 
L 1269 2991 
Q 1406 3038 1543 3061 
Q 1681 3084 1819 3084 
Q 2600 3084 3056 2656 
Q 3513 2228 3513 1497 
Q 3513 744 3044 326 
Q 2575 -91 1722 -91 
Q 1428 -91 1123 -41 
Q 819 9 494 109 
L 494 744 
Q 775 591 1075 516 
Q 1375 441 1709 441 
Q 2250 441 2565 725 
Q 2881 1009 2881 1497 
Q 2881 1984 2565 2268 
Q 2250 2553 1709 2553 
Q 1456 2553 1204 2497 
Q 953 2441 691 2322 
L 691 4666 
z
" transform="scale(0.015625)"/>
       <path id="DejaVuSans-30" d="M 2034 4250 
Q 1547 4250 1301 3770 
Q 1056 3291 1056 2328 
Q 1056 1369 1301 889 
Q 1547 409 2034 409 
Q 2525 409 2770 889 
Q 3016 1369 3016 2328 
Q 3016 3291 2770 3770 
Q 2525 4250 2034 4250 
z
M 2034 4750 
Q 2819 4750 3233 4129 
Q 3647 3509 3647 2328 
Q 3647 1150 3233 529 
Q 2819 -91 2034 -91 
Q 1250 -91 836 529 
Q 422 1150 422 2328 
Q 422 3509 836 4129 
Q 1250 4750 2034 4750 
z
" transform="scale(0.015625)"/>
      </defs>
      <use xlink:href="#DejaVuSans-2212"/>
      <use xlink:href="#DejaVuSans-35" x="83.789062"/>
      <use xlink:href="#DejaVuSans-30" x="147.412109"/>
      <use xlink:href="#DejaVuSans-30" x="211.035156"/>
      <use xlink:href="#DejaVuSans-30" x="274.658203"/>
     </g>
    </g>
   </g>
   <g id="xtick_2">
    <g id="line2d_3">
     <path d="M 168.062594 297.541213 
L 165.390666 300.00674 
" style="fill: none; stroke: #000000; stroke-width: 0.8; stroke-linecap: square"/>
    </g>
    <g id="text_3">
     <!-- 0 -->
     <g transform="translate(154.627656 326.661195) scale(0.16 -0.16)">
      <use xlink:href="#DejaVuSans-30"/>
     </g>
    </g>
   </g>
   <g id="xtick_3">
    <g id="line2d_4">
     <path d="M 223.351688 315.580787 
L 220.760066 318.126233 
" style="fill: none; stroke: #000000; stroke-width: 0.8; stroke-linecap: square"/>
    </g>
    <g id="text_4">
     <!-- 5000 -->
     <g transform="translate(194.729136 345.045037) scale(0.16 -0.16)">
      <use xlink:href="#DejaVuSans-35"/>
      <use xlink:href="#DejaVuSans-30" x="63.623047"/>
      <use xlink:href="#DejaVuSans-30" x="127.246094"/>
      <use xlink:href="#DejaVuSans-30" x="190.869141"/>
     </g>
    </g>
   </g>
  </g>
  <g id="axis3d_2">
   <g id="line2d_5">
    <path d="M 356.836179 229.794908 
L 260.364845 328.798229 
" style="fill: none; stroke: #000000; stroke-width: 0.8; stroke-linecap: square"/>
   </g>
   <g id="text_5">
    <!-- y [km] -->
    <g transform="translate(328.384192 318.624554) rotate(-45.742112) scale(0.1 -0.1)">
     <defs>
      <path id="DejaVuSans-79" d="M 2059 -325 
Q 1816 -950 1584 -1140 
Q 1353 -1331 966 -1331 
L 506 -1331 
L 506 -850 
L 844 -850 
Q 1081 -850 1212 -737 
Q 1344 -625 1503 -206 
L 1606 56 
L 191 3500 
L 800 3500 
L 1894 763 
L 2988 3500 
L 3597 3500 
L 2059 -325 
z
" transform="scale(0.015625)"/>
     </defs>
     <use xlink:href="#DejaVuSans-79"/>
     <use xlink:href="#DejaVuSans-20" x="59.179688"/>
     <use xlink:href="#DejaVuSans-5b" x="90.966797"/>
     <use xlink:href="#DejaVuSans-6b" x="129.980469"/>
     <use xlink:href="#DejaVuSans-6d" x="187.890625"/>
     <use xlink:href="#DejaVuSans-5d" x="285.302734"/>
    </g>
   </g>
   <g id="Line3DCollection_2">
    <path d="M 96.185814 115.060488 
L 101.614015 250.339967 
L 281.080248 307.53913 
" style="fill: none; stroke: #b0b0b0; stroke-width: 0.8"/>
    <path d="M 130.598124 89.947951 
L 134.421833 222.839803 
L 310.761352 277.079015 
" style="fill: none; stroke: #b0b0b0; stroke-width: 0.8"/>
    <path d="M 163.221028 66.141242 
L 165.59453 196.710231 
L 338.888651 248.213487 
" style="fill: none; stroke: #b0b0b0; stroke-width: 0.8"/>
   </g>
   <g id="xtick_4">
    <g id="line2d_6">
     <path d="M 279.568842 307.057418 
L 284.106918 308.503785 
" style="fill: none; stroke: #000000; stroke-width: 0.8; stroke-linecap: square"/>
    </g>
    <g id="text_6">
     <!-- −5000 -->
     <g transform="translate(266.740823 332.942896) scale(0.16 -0.16)">
      <use xlink:href="#DejaVuSans-2212"/>
      <use xlink:href="#DejaVuSans-35" x="83.789062"/>
      <use xlink:href="#DejaVuSans-30" x="147.412109"/>
      <use xlink:href="#DejaVuSans-30" x="211.035156"/>
      <use xlink:href="#DejaVuSans-30" x="274.658203"/>
     </g>
    </g>
   </g>
   <g id="xtick_5">
    <g id="line2d_7">
     <path d="M 309.278276 276.622845 
L 313.731188 277.99249 
" style="fill: none; stroke: #000000; stroke-width: 0.8; stroke-linecap: square"/>
    </g>
    <g id="text_7">
     <!-- 0 -->
     <g transform="translate(318.06756 302.112148) scale(0.16 -0.16)">
      <use xlink:href="#DejaVuSans-30"/>
     </g>
    </g>
   </g>
   <g id="xtick_6">
    <g id="line2d_8">
     <path d="M 337.433049 247.78088 
L 341.803378 249.079748 
" style="fill: none; stroke: #000000; stroke-width: 0.8; stroke-linecap: square"/>
    </g>
    <g id="text_8">
     <!-- 5000 -->
     <g transform="translate(330.61321 272.896133) scale(0.16 -0.16)">
      <use xlink:href="#DejaVuSans-35"/>
      <use xlink:href="#DejaVuSans-30" x="63.623047"/>
      <use xlink:href="#DejaVuSans-30" x="127.246094"/>
      <use xlink:href="#DejaVuSans-30" x="190.869141"/>
     </g>
    </g>
   </g>
  </g>
  <g id="axis3d_3">
   <g id="line2d_9">
    <path d="M 356.836179 229.794908 
L 362.949589 96.29366 
" style="fill: none; stroke: #000000; stroke-width: 0.8; stroke-linecap: square"/>
   </g>
   <g id="text_9">
    <!-- z [km] -->
    <g transform="translate(402.279195 175.081045) rotate(-87.378092) scale(0.1 -0.1)">
     <defs>
      <path id="DejaVuSans-7a" d="M 353 3500 
L 3084 3500 
L 3084 2975 
L 922 459 
L 3084 459 
L 3084 0 
L 275 0 
L 275 525 
L 2438 3041 
L 353 3041 
L 353 3500 
z
" transform="scale(0.015625)"/>
     </defs>
     <use xlink:href="#DejaVuSans-7a"/>
     <use xlink:href="#DejaVuSans-20" x="52.490234"/>
     <use xlink:href="#DejaVuSans-5b" x="84.277344"/>
     <use xlink:href="#DejaVuSans-6b" x="123.291016"/>
     <use xlink:href="#DejaVuSans-6d" x="181.201172"/>
     <use xlink:href="#DejaVuSans-5d" x="278.613281"/>
    </g>
   </g>
   <g id="Line3DCollection_3">
    <path d="M 358.016558 204.018437 
L 185.240279 155.041515 
L 77.497831 243.09087 
" style="fill: none; stroke: #b0b0b0; stroke-width: 0.8"/>
    <path d="M 359.825917 164.506661 
L 184.800759 116.819756 
L 75.547584 202.592736 
" style="fill: none; stroke: #b0b0b0; stroke-width: 0.8"/>
    <path d="M 361.683477 123.942297 
L 184.350102 77.629432 
L 73.543357 160.973667 
" style="fill: none; stroke: #b0b0b0; stroke-width: 0.8"/>
   </g>
   <g id="xtick_7">
    <g id="line2d_10">
     <path d="M 356.565903 203.607219 
L 360.92135 204.841858 
" style="fill: none; stroke: #000000; stroke-width: 0.8; stroke-linecap: square"/>
    </g>
    <g id="text_10">
     <!-- −5000 -->
     <g transform="translate(349.365721 213.611269) scale(0.16 -0.16)">
      <use xlink:href="#DejaVuSans-2212"/>
      <use xlink:href="#DejaVuSans-35" x="83.789062"/>
      <use xlink:href="#DejaVuSans-30" x="147.412109"/>
      <use xlink:href="#DejaVuSans-30" x="211.035156"/>
      <use xlink:href="#DejaVuSans-30" x="274.658203"/>
     </g>
    </g>
   </g>
   <g id="xtick_8">
    <g id="line2d_11">
     <path d="M 358.355469 164.106026 
L 362.770388 165.308904 
" style="fill: none; stroke: #000000; stroke-width: 0.8; stroke-linecap: square"/>
    </g>
    <g id="text_11">
     <!-- 0 -->
     <g transform="translate(373.385689 174.165565) scale(0.16 -0.16)">
      <use xlink:href="#DejaVuSans-30"/>
     </g>
    </g>
   </g>
   <g id="xtick_9">
    <g id="line2d_12">
     <path d="M 360.192689 123.552959 
L 364.668726 124.721932 
" style="fill: none; stroke: #000000; stroke-width: 0.8; stroke-linecap: square"/>
    </g>
    <g id="text_12">
     <!-- 5000 -->
     <g transform="translate(360.216278 133.67172) scale(0.16 -0.16)">
      <use xlink:href="#DejaVuSans-35"/>
      <use xlink:href="#DejaVuSans-30" x="63.623047"/>
      <use xlink:href="#DejaVuSans-30" x="127.246094"/>
      <use xlink:href="#DejaVuSans-30" x="190.869141"/>
     </g>
    </g>
   </g>
  </g>
  <g id="axes_1">
   <g id="line2d_13">
    <path d="M 227.041463 100.226119 
L 221.348724 98.91137 
L 215.648511 97.855079 
L 209.957126 97.052056 
L 204.289813 96.49664 
L 198.660801 96.182788 
L 193.083351 96.104154 
L 187.569812 96.254158 
L 182.13167 96.626041 
L 176.779602 97.212921 
L 171.523535 98.007829 
L 166.372691 99.003747 
L 161.33564 100.193636 
L 156.420348 101.570458 
L 151.63422 103.127196 
L 146.984145 104.856866 
L 142.476533 106.752529 
L 138.117353 108.807301 
L 133.912166 111.014354 
L 129.866157 113.366922 
L 125.984163 115.858299 
L 122.270698 118.481843 
L 118.729979 121.23097 
L 115.365945 124.099154 
L 112.182278 127.079921 
L 109.182418 130.166847 
L 106.36958 133.35355 
L 103.746769 136.633688 
L 101.316788 140.000949 
L 99.082251 143.449049 
L 97.045593 146.971722 
L 95.209074 150.562714 
L 93.574787 154.215779 
L 92.144663 157.92467 
L 90.920475 161.68313 
L 89.903841 165.48489 
L 89.096221 169.323658 
L 88.498923 173.193113 
L 88.113101 177.086901 
L 87.939749 180.998625 
L 87.979706 184.921838 
L 88.233643 188.850039 
L 88.702065 192.776666 
L 89.385304 196.695089 
L 90.28351 200.598603 
L 91.396643 204.480423 
L 92.724467 208.33368 
L 94.266537 212.151414 
L 96.022189 215.926567 
L 97.990527 219.651982 
L 100.17041 223.320395 
L 102.560436 226.924434 
L 105.158926 230.456614 
L 107.963905 233.909334 
L 110.973086 237.274876 
L 114.183846 240.545403 
L 117.593202 243.712956 
L 121.197793 246.769461 
L 124.993848 249.706724 
L 128.97716 252.516438 
L 133.143058 255.190187 
L 137.486373 257.719455 
L 142.001406 260.095628 
L 146.68189 262.310016 
L 151.520958 264.353857 
L 156.511096 266.21834 
L 161.64411 267.894626 
L 166.911076 269.37387 
L 172.302302 270.647256 
L 177.807279 271.706026 
L 183.414637 272.541525 
L 189.112102 273.145249 
L 194.886449 273.508897 
L 200.72346 273.624435 
L 206.607887 273.484169 
L 211.677082 273.154813 
L 216.758231 272.627879 
L 221.839821 271.8994 
L 226.909733 270.965783 
L 231.955242 269.823861 
L 236.963024 268.470953 
L 241.919166 266.904927 
L 246.809191 265.124268 
L 251.618086 263.128144 
L 256.330347 260.916484 
L 260.930027 258.490046 
L 265.40081 255.850495 
L 269.726089 253.000474 
L 273.889059 249.943672 
L 277.222033 247.241809 
L 280.420812 244.40306 
L 283.475719 241.431404 
L 286.377218 238.33142 
L 289.115978 235.108294 
L 291.682942 231.767827 
L 294.069403 228.31643 
L 296.267074 224.761116 
L 298.268169 221.109487 
L 300.065471 217.369704 
L 301.652412 213.550459 
L 303.023138 209.660932 
L 304.172574 205.710745 
L 305.096482 201.709902 
L 305.791513 197.668729 
L 306.255243 193.597802 
L 306.486205 189.507876 
L 306.483909 185.409805 
L 306.248844 181.314464 
L 305.782474 177.232667 
L 305.087221 173.175091 
L 304.16643 169.152198 
L 303.024335 165.174161 
L 301.666 161.250801 
L 300.097267 157.391523 
L 298.324683 153.605265 
L 296.355431 149.900455 
L 294.197252 146.28497 
L 291.85837 142.766111 
L 289.34741 139.350586 
L 286.673321 136.044492 
L 283.845301 132.853321 
L 280.872724 129.781953 
L 277.128169 126.260446 
L 273.205567 122.923899 
L 269.121324 119.77746 
L 264.891675 116.825181 
L 260.532573 114.070092 
L 256.059596 111.514268 
L 251.487877 109.158914 
L 246.832046 107.004439 
L 242.106183 105.050534 
L 237.32379 103.296248 
L 232.497771 101.740061 
L 227.64042 100.379953 
L 221.949462 99.037679 
L 216.24925 97.954378 
L 210.556197 97.124916 
L 204.885658 96.543678 
L 199.251967 96.204657 
L 193.668484 96.101535 
L 188.147652 96.227752 
L 182.701044 96.576569 
L 177.339423 97.141112 
L 172.072789 97.914421 
L 166.910438 98.889482 
L 161.861006 100.059256 
L 156.932519 101.416704 
L 152.132442 102.954805 
L 147.467714 104.666573 
L 142.944796 106.545064 
L 138.569699 108.583386 
L 134.348028 110.774706 
L 130.285005 113.112251 
L 126.385503 115.589309 
L 122.654069 118.199232 
L 119.094949 120.935429 
L 115.712111 123.791368 
L 112.509264 126.76057 
L 109.489871 129.836606 
L 106.657173 133.013091 
L 104.014194 136.283676 
L 101.563758 139.64205 
L 99.3085 143.081923 
L 97.250872 146.597029 
L 95.393152 150.181113 
L 93.737452 153.827929 
L 92.285719 157.531228 
L 91.039742 161.284758 
L 90.001156 165.082248 
L 89.171436 168.917412 
L 88.551909 172.783931 
L 88.143743 176.675454 
L 87.94795 180.585589 
L 87.965385 184.507896 
L 88.196736 188.435879 
L 88.642528 192.362983 
L 89.30311 196.282585 
L 90.178652 200.187988 
L 91.269134 204.072417 
L 92.574341 207.929012 
L 94.093852 211.750821 
L 95.827025 215.530798 
L 97.772991 219.261797 
L 99.930633 222.936564 
L 102.298579 226.54774 
L 104.87518 230.087852 
L 107.658492 233.54931 
L 110.646263 236.92441 
L 113.835905 240.205326 
L 117.224476 243.384113 
L 120.808655 246.452709 
L 124.584716 249.402932 
L 128.548498 252.226488 
L 132.695382 254.914971 
L 137.020252 257.459874 
L 141.517467 259.852596 
L 146.180822 262.084451 
L 151.003514 264.146686 
L 155.9781 266.030494 
L 161.09646 267.727037 
L 166.349748 269.227471 
L 171.728355 270.522973 
L 177.221861 271.604778 
L 182.818989 272.46422 
L 188.507563 273.092773 
L 194.274458 273.482114 
L 200.105564 273.624178 
L 205.985744 273.51123 
L 211.052704 273.205885 
L 216.132993 272.703473 
L 221.215171 271.999984 
L 226.287195 271.091777 
L 231.336413 269.97563 
L 236.349575 268.648798 
L 241.312839 267.109078 
L 246.211797 265.354876 
L 251.031499 263.385272 
L 255.756498 261.200097 
L 260.3709 258.800004 
L 264.858429 256.186541 
L 269.202508 253.362227 
L 272.700888 250.8501 
L 272.700888 250.8501 
" clip-path="url(#pbae1ede6e4)" style="fill: none; stroke: #2b737e; stroke-width: 1.5; stroke-linecap: square"/>
   </g>
   <g id="line2d_14">
    <path d="M 226.894323 100.188784 
L 221.201176 98.880787 
L 215.50099 97.831119 
L 209.810041 97.03458 
L 204.143544 96.485496 
L 198.515704 96.177815 
L 192.939757 96.105184 
L 187.428028 96.261017 
L 181.991983 96.638553 
L 176.642279 97.230907 
L 171.388823 98.031107 
L 166.240819 99.032136 
L 161.206822 100.226953 
L 156.294783 101.608522 
L 151.512092 103.169824 
L 146.865626 104.903878 
L 142.361784 106.803748 
L 138.006522 108.862548 
L 133.805392 111.073453 
L 129.76357 113.429698 
L 125.885883 115.924581 
L 122.176838 118.551458 
L 118.640645 121.30375 
L 115.281235 124.17493 
L 112.102284 127.158526 
L 109.107226 130.248115 
L 106.299271 133.437317 
L 103.681417 136.71979 
L 101.256464 140.089223 
L 99.02702 143.539333 
L 96.995515 147.063853 
L 95.164206 150.656531 
L 93.535181 154.31112 
L 92.110367 158.021373 
L 90.891533 161.781033 
L 89.880291 165.58383 
L 89.0781 169.423472 
L 88.486263 173.293638 
L 88.105401 177.187799 
L 87.930427 181.097575 
L 87.96038 185.015946 
L 88.197011 188.936789 
L 88.647029 192.85561 
L 89.31162 196.766107 
L 90.190869 200.661608 
L 91.284676 204.535365 
L 92.592749 208.380552 
L 94.114591 212.190258 
L 95.849495 215.95748 
L 97.796525 219.67512 
L 99.954509 223.335978 
L 102.322021 226.932752 
L 104.897365 230.458029 
L 107.678561 233.904285 
L 110.663321 237.263883 
L 113.849034 240.529067 
L 117.23274 243.691968 
L 120.811109 246.744596 
L 124.580414 249.678847 
L 128.536506 252.486505 
L 132.674781 255.159241 
L 136.990154 257.688627 
L 141.47702 260.066136 
L 146.129225 262.283158 
L 150.940023 264.331009 
L 155.902043 266.200948 
L 161.007243 267.8842 
L 166.246869 269.371972 
L 171.611411 270.655489 
L 177.090559 271.726021 
L 182.673152 272.574925 
L 188.347138 273.19369 
L 194.099523 273.573988 
L 199.916328 273.707733 
L 205.782548 273.587155 
L 210.837915 273.275774 
L 215.907037 272.767741 
L 220.978548 272.058987 
L 226.040473 271.145798 
L 231.080216 270.024867 
L 236.084572 268.693354 
L 241.039731 267.148947 
L 245.931295 265.389931 
L 250.744308 263.415258 
L 255.463291 261.224621 
L 260.07229 258.818529 
L 264.554942 256.198385 
L 268.894552 253.366559 
L 273.07418 250.326468 
L 276.422683 247.637198 
L 279.638346 244.809663 
L 282.711333 241.847695 
L 285.631925 238.755732 
L 288.390581 235.538833 
L 290.978012 232.202686 
L 293.385256 228.753606 
L 295.603754 225.198538 
L 297.625429 221.545031 
L 299.442762 217.80123 
L 301.048876 213.975834 
L 302.437602 210.078064 
L 303.603555 206.117614 
L 304.542196 202.104594 
L 305.249885 198.049467 
L 305.72393 193.962977 
L 305.963481 189.855901 
L 305.970916 185.738695 
L 305.74685 181.622447 
L 305.29266 177.518249 
L 304.609308 173.437343 
L 303.697433 169.391009 
L 302.561276 165.389694 
L 301.206019 161.443465 
L 299.637647 157.561958 
L 297.862883 153.75432 
L 295.889111 150.029163 
L 293.724293 146.394526 
L 291.376884 142.857846 
L 288.855753 139.425937 
L 286.170099 136.104978 
L 283.329366 132.900515 
L 280.343176 129.817461 
L 276.581432 126.284057 
L 272.641077 122.937907 
L 268.538885 119.784091 
L 264.291426 116.826563 
L 259.91495 114.068223 
L 255.425302 111.511 
L 250.837841 109.155932 
L 246.167388 107.003248 
L 241.428179 105.052457 
L 236.633837 103.302417 
L 231.797355 101.751421 
L 226.931091 100.397261 
L 221.231736 99.062643 
L 215.525295 97.987509 
L 209.828157 97.166467 
L 204.15562 96.59366 
L 198.521932 96.26286 
L 192.940347 96.167549 
L 187.423179 96.300987 
L 181.981862 96.656276 
L 176.627006 97.226402 
L 171.368451 98.004285 
L 166.215326 98.98281 
L 161.176097 100.154853 
L 156.258623 101.513309 
L 151.470194 103.051105 
L 146.817582 104.761217 
L 142.307081 106.636676 
L 137.94454 108.67058 
L 133.735406 110.856095 
L 129.684746 113.186459 
L 125.797285 115.654982 
L 122.077429 118.255043 
L 118.529288 120.980092 
L 115.1567 123.823642 
L 111.96325 126.779267 
L 108.952286 129.840597 
L 106.126938 133.001314 
L 103.490128 136.255142 
L 101.044586 139.595843 
L 98.792858 143.017214 
L 96.737313 146.513072 
L 94.880157 150.077255 
L 93.223435 153.703609 
L 91.769035 157.385987 
L 90.518695 161.118236 
L 89.474004 164.894192 
L 88.636405 168.707675 
L 88.007193 172.552478 
L 87.587518 176.422363 
L 87.378379 180.311053 
L 87.381425 184.212229 
L 87.5967 188.119511 
L 88.024601 192.026463 
L 88.665504 195.926583 
L 89.519614 199.813296 
L 90.586956 203.67995 
L 91.867369 207.519806 
L 93.360496 211.326036 
L 95.06577 215.091713 
L 96.982406 218.809811 
L 99.109386 222.473196 
L 101.445441 226.074624 
L 103.989043 229.606735 
L 106.738378 233.062051 
L 109.691335 236.432971 
L 112.845481 239.711771 
L 116.19804 242.890603 
L 119.745868 245.961491 
L 123.485431 248.916336 
L 127.412772 251.746914 
L 131.523487 254.444884 
L 135.812688 257.00179 
L 140.274973 259.409069 
L 144.904389 261.65806 
L 149.694393 263.74002 
L 154.637815 265.646133 
L 159.726811 267.367536 
L 164.952825 268.895337 
L 170.306539 270.220642 
L 175.777828 271.334593 
L 181.355711 272.228401 
L 187.028303 272.893394 
L 192.78277 273.321066 
L 198.605278 273.503143 
L 204.48095 273.431646 
L 209.547488 273.162764 
L 214.630677 272.697471 
L 219.719198 272.031544 
L 224.801107 271.161109 
L 229.863831 270.082693 
L 234.894166 268.793284 
L 239.87829 267.290398 
L 244.801777 265.572142 
L 249.649621 263.637292 
L 254.406279 261.485365 
L 259.055714 259.116697 
L 263.58146 256.532519 
L 267.9667 253.735042 
L 271.501423 251.243194 
L 271.501423 251.243194 
" clip-path="url(#pbae1ede6e4)" style="fill: none; stroke: #5ea04b; stroke-width: 1.5; stroke-linecap: square"/>
   </g>
   <g id="line2d_15">
    <path d="M 227.188501 100.263609 
L 221.496181 98.942109 
L 215.795951 97.879193 
L 210.104142 97.069687 
L 204.436022 96.50794 
L 198.805848 96.187917 
L 193.226905 96.103279 
L 187.711564 96.247451 
L 182.271332 96.61368 
L 176.91691 97.195084 
L 171.65824 97.984698 
L 166.504563 98.975504 
L 161.464465 100.160464 
L 156.545926 101.532538 
L 151.756367 103.084709 
L 147.102689 104.809992 
L 142.591314 106.701447 
L 138.228222 108.752189 
L 134.018984 110.955387 
L 129.968794 113.304275 
L 126.082498 115.792144 
L 122.364619 118.412352 
L 118.819379 121.158312 
L 115.450727 124.023497 
L 112.262348 127.001433 
L 109.257691 130.085693 
L 106.439975 133.269895 
L 103.812211 136.547695 
L 101.377207 139.912781 
L 99.137583 143.358868 
L 97.095776 146.87969 
L 95.254051 150.468994 
L 93.614506 154.120532 
L 92.179077 157.828057 
L 90.94954 161.585313 
L 89.927516 165.386032 
L 89.114471 169.223922 
L 88.511717 173.092663 
L 88.120409 176.985902 
L 87.941951 180.897249 
L 87.981936 184.820336 
L 88.236642 188.748587 
L 88.705871 192.675425 
L 89.38998 196.594219 
L 90.28914 200.49826 
L 91.403337 204.380758 
L 92.732356 208.234837 
L 94.275775 212.053525 
L 96.032952 215.829755 
L 98.003012 219.556358 
L 100.184833 223.226054 
L 102.577033 226.831456 
L 105.177951 230.365059 
L 107.985629 233.819243 
L 110.997795 237.186267 
L 114.211837 240.45827 
L 117.624786 243.627268 
L 121.233288 246.685157 
L 125.03358 249.623714 
L 129.021457 252.434601 
L 133.192248 255.109369 
L 137.540782 257.639464 
L 142.061352 260.016238 
L 146.747682 262.230961 
L 151.592885 264.274832 
L 156.589429 266.139002 
L 161.729092 267.814588 
L 167.002919 269.292706 
L 172.401178 270.564498 
L 177.913316 271.621165 
L 183.527911 272.454014 
L 189.23263 273.054503 
L 195.014179 273.414297 
L 200.858267 273.52533 
L 206.749563 273.379883 
L 211.824413 273.045531 
L 216.910938 272.513078 
L 221.997558 271.778554 
L 227.072088 270.838365 
L 232.12173 269.689348 
L 237.133086 268.328836 
L 242.09217 266.754714 
L 246.984426 264.965493 
L 251.794767 262.960376 
L 256.507611 260.739333 
L 261.106942 258.303175 
L 265.576376 255.653626 
L 269.899241 252.793401 
L 274.058683 249.726267 
L 277.387832 247.01576 
L 280.581961 244.168395 
L 283.631381 241.188209 
L 286.52655 238.079844 
L 289.258139 234.84855 
L 291.817102 231.500194 
L 294.194753 228.041254 
L 296.382834 224.47881 
L 298.373597 220.820528 
L 300.159875 217.074635 
L 301.735156 213.249882 
L 303.093655 209.355507 
L 304.23037 205.401179 
L 305.141147 201.396948 
L 305.822725 197.353176 
L 306.272774 193.280467 
L 306.489925 189.189595 
L 306.473555 185.091372 
L 306.222741 180.996322 
L 305.739759 176.915404 
L 305.028112 172.859513 
L 304.091213 168.839091 
L 302.933355 164.86429 
L 301.559663 160.944901 
L 299.976028 157.090299 
L 298.189047 153.309386 
L 296.205944 149.610549 
L 294.034498 146.001625 
L 291.682964 142.489873 
L 289.159991 139.081954 
L 286.474548 135.783923 
L 283.635847 132.601224 
L 280.653271 129.538695 
L 276.897624 126.028215 
L 272.964918 122.703088 
L 268.87155 119.568391 
L 264.633741 116.628111 
L 260.267421 113.885215 
L 255.788142 111.341725 
L 251.211009 108.998792 
L 246.550618 106.856777 
L 241.821015 104.915331 
L 237.035665 103.173464 
L 232.207436 101.629624 
L 227.348584 100.281758 
L 221.656726 98.953602 
L 215.956471 97.884208 
L 210.264311 97.068278 
L 204.595463 96.500251 
L 198.964157 96.174155 
L 193.383705 96.083656 
L 187.866504 96.222184 
L 182.424085 96.582986 
L 177.06717 97.159184 
L 171.805724 97.94381 
L 166.649006 98.929847 
L 161.605623 100.110254 
L 156.683571 101.477989 
L 151.890285 103.026032 
L 147.232683 104.747394 
L 142.717198 106.635134 
L 138.349825 108.682359 
L 134.136145 110.882239 
L 130.081363 113.227999 
L 126.190335 115.712931 
L 122.467591 118.330385 
L 118.917364 121.073773 
L 115.543607 123.936563 
L 112.350016 126.912278 
L 109.340042 129.994488 
L 106.516913 133.176807 
L 103.883643 136.452889 
L 101.443047 139.81642 
L 99.197747 143.261112 
L 97.150187 146.780695 
L 95.302634 150.368916 
L 93.657192 154.019527 
L 92.215798 157.726277 
L 90.980232 161.482911 
L 89.952119 165.283158 
L 89.132928 169.120728 
L 88.523974 172.989301 
L 88.126417 176.882522 
L 87.94126 180.793997 
L 87.969581 184.717277 
L 88.211873 188.645868 
L 88.668605 192.573211 
L 89.340117 196.492678 
L 90.226569 200.39757 
L 91.327932 204.281106 
L 92.643981 208.136422 
L 94.174282 211.956562 
L 95.918183 215.734473 
L 97.874802 219.463005 
L 100.043011 223.1349 
L 102.421423 226.742791 
L 105.008374 230.279201 
L 107.801908 233.736534 
L 110.799754 237.10708 
L 113.999309 240.383008 
L 117.397613 243.556368 
L 120.991325 246.619091 
L 124.776699 249.56299 
L 128.749554 252.379765 
L 132.905246 255.061008 
L 137.238636 257.598206 
L 141.744057 259.982753 
L 146.415276 262.205962 
L 151.245462 264.259075 
L 156.22714 266.133286 
L 161.352155 267.819755 
L 166.61163 269.30964 
L 171.995916 270.59412 
L 177.494554 271.664435 
L 183.096227 272.511923 
L 188.788714 273.128072 
L 194.558845 273.504567 
L 200.392464 273.63336 
L 206.274381 273.506735 
L 211.342176 273.189361 
L 216.422661 272.674656 
L 221.504363 271.958631 
L 226.575204 271.037668 
L 231.6225 269.908571 
L 236.632967 268.568626 
L 241.592732 267.015665 
L 246.487355 265.248131 
L 251.301857 263.265147 
L 256.020765 261.066592 
L 260.628162 258.653169 
L 265.107753 256.026483 
L 269.442946 253.189113 
L 272.933193 250.66628 
L 272.933193 250.66628 
" clip-path="url(#pbae1ede6e4)" style="fill: none; stroke: #bdab62; stroke-width: 1.5; stroke-linecap: square"/>
   </g>
   <g id="Path3DCollection_1">
    <defs>
     <path id="mf25c482730" d="M 0 2.236068 
C 0.593012 2.236068 1.161816 2.000462 1.581139 1.581139 
C 2.000462 1.161816 2.236068 0.593012 2.236068 0 
C 2.236068 -0.593012 2.000462 -1.161816 1.581139 -1.581139 
C 1.161816 -2.000462 0.593012 -2.236068 0 -2.236068 
C -0.593012 -2.236068 -1.161816 -2.000462 -1.581139 -1.581139 
C -2.000462 -1.161816 -2.236068 -0.593012 -2.236068 0 
C -2.236068 0.593012 -2.000462 1.161816 -1.581139 1.581139 
C -1.161816 2.000462 -0.593012 2.236068 0 2.236068 
z
" style="stroke: #1e90ff"/>
    </defs>
    <g clip-path="url(#pbae1ede6e4)">
     <use xlink:href="#mf25c482730" x="220.368674" y="183.190389" style="fill: #1e90ff; stroke: #1e90ff"/>
    </g>
   </g>
   <g id="text_13">
    <!-- Spacecraft Inertial Orbits -->
    <g transform="translate(140.86125 19.918125) scale(0.12 -0.12)">
     <defs>
      <path id="DejaVuSans-53" d="M 3425 4513 
L 3425 3897 
Q 3066 4069 2747 4153 
Q 2428 4238 2131 4238 
Q 1616 4238 1336 4038 
Q 1056 3838 1056 3469 
Q 1056 3159 1242 3001 
Q 1428 2844 1947 2747 
L 2328 2669 
Q 3034 2534 3370 2195 
Q 3706 1856 3706 1288 
Q 3706 609 3251 259 
Q 2797 -91 1919 -91 
Q 1588 -91 1214 -16 
Q 841 59 441 206 
L 441 856 
Q 825 641 1194 531 
Q 1563 422 1919 422 
Q 2459 422 2753 634 
Q 3047 847 3047 1241 
Q 3047 1584 2836 1778 
Q 2625 1972 2144 2069 
L 1759 2144 
Q 1053 2284 737 2584 
Q 422 2884 422 3419 
Q 422 4038 858 4394 
Q 1294 4750 2059 4750 
Q 2388 4750 2728 4690 
Q 3069 4631 3425 4513 
z
" transform="scale(0.015625)"/>
      <path id="DejaVuSans-70" d="M 1159 525 
L 1159 -1331 
L 581 -1331 
L 581 3500 
L 1159 3500 
L 1159 2969 
Q 1341 3281 1617 3432 
Q 1894 3584 2278 3584 
Q 2916 3584 3314 3078 
Q 3713 2572 3713 1747 
Q 3713 922 3314 415 
Q 2916 -91 2278 -91 
Q 1894 -91 1617 61 
Q 1341 213 1159 525 
z
M 3116 1747 
Q 3116 2381 2855 2742 
Q 2594 3103 2138 3103 
Q 1681 3103 1420 2742 
Q 1159 2381 1159 1747 
Q 1159 1113 1420 752 
Q 1681 391 2138 391 
Q 2594 391 2855 752 
Q 3116 1113 3116 1747 
z
" transform="scale(0.015625)"/>
      <path id="DejaVuSans-61" d="M 2194 1759 
Q 1497 1759 1228 1600 
Q 959 1441 959 1056 
Q 959 750 1161 570 
Q 1363 391 1709 391 
Q 2188 391 2477 730 
Q 2766 1069 2766 1631 
L 2766 1759 
L 2194 1759 
z
M 3341 1997 
L 3341 0 
L 2766 0 
L 2766 531 
Q 2569 213 2275 61 
Q 1981 -91 1556 -91 
Q 1019 -91 701 211 
Q 384 513 384 1019 
Q 384 1609 779 1909 
Q 1175 2209 1959 2209 
L 2766 2209 
L 2766 2266 
Q 2766 2663 2505 2880 
Q 2244 3097 1772 3097 
Q 1472 3097 1187 3025 
Q 903 2953 641 2809 
L 641 3341 
Q 956 3463 1253 3523 
Q 1550 3584 1831 3584 
Q 2591 3584 2966 3190 
Q 3341 2797 3341 1997 
z
" transform="scale(0.015625)"/>
      <path id="DejaVuSans-63" d="M 3122 3366 
L 3122 2828 
Q 2878 2963 2633 3030 
Q 2388 3097 2138 3097 
Q 1578 3097 1268 2742 
Q 959 2388 959 1747 
Q 959 1106 1268 751 
Q 1578 397 2138 397 
Q 2388 397 2633 464 
Q 2878 531 3122 666 
L 3122 134 
Q 2881 22 2623 -34 
Q 2366 -91 2075 -91 
Q 1284 -91 818 406 
Q 353 903 353 1747 
Q 353 2603 823 3093 
Q 1294 3584 2113 3584 
Q 2378 3584 2631 3529 
Q 2884 3475 3122 3366 
z
" transform="scale(0.015625)"/>
      <path id="DejaVuSans-65" d="M 3597 1894 
L 3597 1613 
L 953 1613 
Q 991 1019 1311 708 
Q 1631 397 2203 397 
Q 2534 397 2845 478 
Q 3156 559 3463 722 
L 3463 178 
Q 3153 47 2828 -22 
Q 2503 -91 2169 -91 
Q 1331 -91 842 396 
Q 353 884 353 1716 
Q 353 2575 817 3079 
Q 1281 3584 2069 3584 
Q 2775 3584 3186 3129 
Q 3597 2675 3597 1894 
z
M 3022 2063 
Q 3016 2534 2758 2815 
Q 2500 3097 2075 3097 
Q 1594 3097 1305 2825 
Q 1016 2553 972 2059 
L 3022 2063 
z
" transform="scale(0.015625)"/>
      <path id="DejaVuSans-72" d="M 2631 2963 
Q 2534 3019 2420 3045 
Q 2306 3072 2169 3072 
Q 1681 3072 1420 2755 
Q 1159 2438 1159 1844 
L 1159 0 
L 581 0 
L 581 3500 
L 1159 3500 
L 1159 2956 
Q 1341 3275 1631 3429 
Q 1922 3584 2338 3584 
Q 2397 3584 2469 3576 
Q 2541 3569 2628 3553 
L 2631 2963 
z
" transform="scale(0.015625)"/>
      <path id="DejaVuSans-66" d="M 2375 4863 
L 2375 4384 
L 1825 4384 
Q 1516 4384 1395 4259 
Q 1275 4134 1275 3809 
L 1275 3500 
L 2222 3500 
L 2222 3053 
L 1275 3053 
L 1275 0 
L 697 0 
L 697 3053 
L 147 3053 
L 147 3500 
L 697 3500 
L 697 3744 
Q 697 4328 969 4595 
Q 1241 4863 1831 4863 
L 2375 4863 
z
" transform="scale(0.015625)"/>
      <path id="DejaVuSans-74" d="M 1172 4494 
L 1172 3500 
L 2356 3500 
L 2356 3053 
L 1172 3053 
L 1172 1153 
Q 1172 725 1289 603 
Q 1406 481 1766 481 
L 2356 481 
L 2356 0 
L 1766 0 
Q 1100 0 847 248 
Q 594 497 594 1153 
L 594 3053 
L 172 3053 
L 172 3500 
L 594 3500 
L 594 4494 
L 1172 4494 
z
" transform="scale(0.015625)"/>
      <path id="DejaVuSans-49" d="M 628 4666 
L 1259 4666 
L 1259 0 
L 628 0 
L 628 4666 
z
" transform="scale(0.015625)"/>
      <path id="DejaVuSans-6e" d="M 3513 2113 
L 3513 0 
L 2938 0 
L 2938 2094 
Q 2938 2591 2744 2837 
Q 2550 3084 2163 3084 
Q 1697 3084 1428 2787 
Q 1159 2491 1159 1978 
L 1159 0 
L 581 0 
L 581 3500 
L 1159 3500 
L 1159 2956 
Q 1366 3272 1645 3428 
Q 1925 3584 2291 3584 
Q 2894 3584 3203 3211 
Q 3513 2838 3513 2113 
z
" transform="scale(0.015625)"/>
      <path id="DejaVuSans-69" d="M 603 3500 
L 1178 3500 
L 1178 0 
L 603 0 
L 603 3500 
z
M 603 4863 
L 1178 4863 
L 1178 4134 
L 603 4134 
L 603 4863 
z
" transform="scale(0.015625)"/>
      <path id="DejaVuSans-6c" d="M 603 4863 
L 1178 4863 
L 1178 0 
L 603 0 
L 603 4863 
z
" transform="scale(0.015625)"/>
      <path id="DejaVuSans-4f" d="M 2522 4238 
Q 1834 4238 1429 3725 
Q 1025 3213 1025 2328 
Q 1025 1447 1429 934 
Q 1834 422 2522 422 
Q 3209 422 3611 934 
Q 4013 1447 4013 2328 
Q 4013 3213 3611 3725 
Q 3209 4238 2522 4238 
z
M 2522 4750 
Q 3503 4750 4090 4092 
Q 4678 3434 4678 2328 
Q 4678 1225 4090 567 
Q 3503 -91 2522 -91 
Q 1538 -91 948 565 
Q 359 1222 359 2328 
Q 359 3434 948 4092 
Q 1538 4750 2522 4750 
z
" transform="scale(0.015625)"/>
      <path id="DejaVuSans-62" d="M 3116 1747 
Q 3116 2381 2855 2742 
Q 2594 3103 2138 3103 
Q 1681 3103 1420 2742 
Q 1159 2381 1159 1747 
Q 1159 1113 1420 752 
Q 1681 391 2138 391 
Q 2594 391 2855 752 
Q 3116 1113 3116 1747 
z
M 1159 2969 
Q 1341 3281 1617 3432 
Q 1894 3584 2278 3584 
Q 2916 3584 3314 3078 
Q 3713 2572 3713 1747 
Q 3713 922 3314 415 
Q 2916 -91 2278 -91 
Q 1894 -91 1617 61 
Q 1341 213 1159 525 
L 1159 0 
L 581 0 
L 581 4863 
L 1159 4863 
L 1159 2969 
z
" transform="scale(0.015625)"/>
      <path id="DejaVuSans-73" d="M 2834 3397 
L 2834 2853 
Q 2591 2978 2328 3040 
Q 2066 3103 1784 3103 
Q 1356 3103 1142 2972 
Q 928 2841 928 2578 
Q 928 2378 1081 2264 
Q 1234 2150 1697 2047 
L 1894 2003 
Q 2506 1872 2764 1633 
Q 3022 1394 3022 966 
Q 3022 478 2636 193 
Q 2250 -91 1575 -91 
Q 1294 -91 989 -36 
Q 684 19 347 128 
L 347 722 
Q 666 556 975 473 
Q 1284 391 1588 391 
Q 1994 391 2212 530 
Q 2431 669 2431 922 
Q 2431 1156 2273 1281 
Q 2116 1406 1581 1522 
L 1381 1569 
Q 847 1681 609 1914 
Q 372 2147 372 2553 
Q 372 3047 722 3315 
Q 1072 3584 1716 3584 
Q 2034 3584 2315 3537 
Q 2597 3491 2834 3397 
z
" transform="scale(0.015625)"/>
     </defs>
     <use xlink:href="#DejaVuSans-53"/>
     <use xlink:href="#DejaVuSans-70" x="63.476562"/>
     <use xlink:href="#DejaVuSans-61" x="126.953125"/>
     <use xlink:href="#DejaVuSans-63" x="188.232422"/>
     <use xlink:href="#DejaVuSans-65" x="243.212891"/>
     <use xlink:href="#DejaVuSans-63" x="304.736328"/>
     <use xlink:href="#DejaVuSans-72" x="359.716797"/>
     <use xlink:href="#DejaVuSans-61" x="400.830078"/>
     <use xlink:href="#DejaVuSans-66" x="462.109375"/>
     <use xlink:href="#DejaVuSans-74" x="495.564453"/>
     <use xlink:href="#DejaVuSans-20" x="534.773438"/>
     <use xlink:href="#DejaVuSans-49" x="566.560547"/>
     <use xlink:href="#DejaVuSans-6e" x="596.052734"/>
     <use xlink:href="#DejaVuSans-65" x="659.431641"/>
     <use xlink:href="#DejaVuSans-72" x="720.955078"/>
     <use xlink:href="#DejaVuSans-74" x="762.068359"/>
     <use xlink:href="#DejaVuSans-69" x="801.277344"/>
     <use xlink:href="#DejaVuSans-61" x="829.060547"/>
     <use xlink:href="#DejaVuSans-6c" x="890.339844"/>
     <use xlink:href="#DejaVuSans-20" x="918.123047"/>
     <use xlink:href="#DejaVuSans-4f" x="949.910156"/>
     <use xlink:href="#DejaVuSans-72" x="1028.621094"/>
     <use xlink:href="#DejaVuSans-62" x="1069.734375"/>
     <use xlink:href="#DejaVuSans-69" x="1133.210938"/>
     <use xlink:href="#DejaVuSans-74" x="1160.994141"/>
     <use xlink:href="#DejaVuSans-73" x="1200.203125"/>
    </g>
   </g>
   <g id="legend_1">
    <g id="patch_6">
     <path d="M 60.659063 72.749063 
L 146.177344 72.749063 
Q 147.977344 72.749063 147.977344 70.949063 
L 147.977344 32.218125 
Q 147.977344 30.418125 146.177344 30.418125 
L 60.659063 30.418125 
Q 58.859063 30.418125 58.859063 32.218125 
L 58.859063 70.949063 
Q 58.859063 72.749063 60.659063 72.749063 
z
" style="fill: #ffffff; opacity: 0.8; stroke: #cccccc; stroke-linejoin: miter"/>
    </g>
    <g id="line2d_16">
     <path d="M 62.459063 37.706719 
L 71.459063 37.706719 
L 80.459063 37.706719 
" style="fill: none; stroke: #2b737e; stroke-width: 1.5; stroke-linecap: square"/>
    </g>
    <g id="text_14">
     <!-- Spacecraft 0 -->
     <g transform="translate(87.659063 40.856719) scale(0.09 -0.09)">
      <use xlink:href="#DejaVuSans-53"/>
      <use xlink:href="#DejaVuSans-70" x="63.476562"/>
      <use xlink:href="#DejaVuSans-61" x="126.953125"/>
      <use xlink:href="#DejaVuSans-63" x="188.232422"/>
      <use xlink:href="#DejaVuSans-65" x="243.212891"/>
      <use xlink:href="#DejaVuSans-63" x="304.736328"/>
      <use xlink:href="#DejaVuSans-72" x="359.716797"/>
      <use xlink:href="#DejaVuSans-61" x="400.830078"/>
      <use xlink:href="#DejaVuSans-66" x="462.109375"/>
      <use xlink:href="#DejaVuSans-74" x="495.564453"/>
      <use xlink:href="#DejaVuSans-20" x="534.773438"/>
      <use xlink:href="#DejaVuSans-30" x="566.560547"/>
     </g>
    </g>
    <g id="line2d_17">
     <path d="M 62.459063 50.917031 
L 71.459063 50.917031 
L 80.459063 50.917031 
" style="fill: none; stroke: #5ea04b; stroke-width: 1.5; stroke-linecap: square"/>
    </g>
    <g id="text_15">
     <!-- Spacecraft 1 -->
     <g transform="translate(87.659063 54.067031) scale(0.09 -0.09)">
      <defs>
       <path id="DejaVuSans-31" d="M 794 531 
L 1825 531 
L 1825 4091 
L 703 3866 
L 703 4441 
L 1819 4666 
L 2450 4666 
L 2450 531 
L 3481 531 
L 3481 0 
L 794 0 
L 794 531 
z
" transform="scale(0.015625)"/>
      </defs>
      <use xlink:href="#DejaVuSans-53"/>
      <use xlink:href="#DejaVuSans-70" x="63.476562"/>
      <use xlink:href="#DejaVuSans-61" x="126.953125"/>
      <use xlink:href="#DejaVuSans-63" x="188.232422"/>
      <use xlink:href="#DejaVuSans-65" x="243.212891"/>
      <use xlink:href="#DejaVuSans-63" x="304.736328"/>
      <use xlink:href="#DejaVuSans-72" x="359.716797"/>
      <use xlink:href="#DejaVuSans-61" x="400.830078"/>
      <use xlink:href="#DejaVuSans-66" x="462.109375"/>
      <use xlink:href="#DejaVuSans-74" x="495.564453"/>
      <use xlink:href="#DejaVuSans-20" x="534.773438"/>
      <use xlink:href="#DejaVuSans-31" x="566.560547"/>
     </g>
    </g>
    <g id="line2d_18">
     <path d="M 62.459063 64.127344 
L 71.459063 64.127344 
L 80.459063 64.127344 
" style="fill: none; stroke: #bdab62; stroke-width: 1.5; stroke-linecap: square"/>
    </g>
    <g id="text_16">
     <!-- Spacecraft 2 -->
     <g transform="translate(87.659063 67.277344) scale(0.09 -0.09)">
      <defs>
       <path id="DejaVuSans-32" d="M 1228 531 
L 3431 531 
L 3431 0 
L 469 0 
L 469 531 
Q 828 903 1448 1529 
Q 2069 2156 2228 2338 
Q 2531 2678 2651 2914 
Q 2772 3150 2772 3378 
Q 2772 3750 2511 3984 
Q 2250 4219 1831 4219 
Q 1534 4219 1204 4116 
Q 875 4013 500 3803 
L 500 4441 
Q 881 4594 1212 4672 
Q 1544 4750 1819 4750 
Q 2544 4750 2975 4387 
Q 3406 4025 3406 3419 
Q 3406 3131 3298 2873 
Q 3191 2616 2906 2266 
Q 2828 2175 2409 1742 
Q 1991 1309 1228 531 
z
" transform="scale(0.015625)"/>
      </defs>
      <use xlink:href="#DejaVuSans-53"/>
      <use xlink:href="#DejaVuSans-70" x="63.476562"/>
      <use xlink:href="#DejaVuSans-61" x="126.953125"/>
      <use xlink:href="#DejaVuSans-63" x="188.232422"/>
      <use xlink:href="#DejaVuSans-65" x="243.212891"/>
      <use xlink:href="#DejaVuSans-63" x="304.736328"/>
      <use xlink:href="#DejaVuSans-72" x="359.716797"/>
      <use xlink:href="#DejaVuSans-61" x="400.830078"/>
      <use xlink:href="#DejaVuSans-66" x="462.109375"/>
      <use xlink:href="#DejaVuSans-74" x="495.564453"/>
      <use xlink:href="#DejaVuSans-20" x="534.773438"/>
      <use xlink:href="#DejaVuSans-32" x="566.560547"/>
     </g>
    </g>
   </g>
  </g>
 </g>
 <defs>
  <clipPath id="pbae1ede6e4">
   <rect x="54.359063" y="25.918125" width="323.281875" height="323.281875"/>
  </clipPath>
 </defs>
</svg>
