<?xml version="1.0" encoding="utf-8" standalone="no"?>
<!DOCTYPE svg PUBLIC "-//W3C//DTD SVG 1.1//EN"
  "http://www.w3.org/Graphics/SVG/1.1/DTD/svg11.dtd">
<svg xmlns:xlink="http://www.w3.org/1999/xlink" width="414pt" height="288pt" viewBox="0 0 414 288" xmlns="http://www.w3.org/2000/svg" version="1.1">
 <metadata>
  <rdf:RDF xmlns:dc="http://purl.org/dc/elements/1.1/" xmlns:cc="http://creativecommons.org/ns#" xmlns:rdf="http://www.w3.org/1999/02/22-rdf-syntax-ns#">
   <cc:Work>
    <dc:type rdf:resource="http://purl.org/dc/dcmitype/StillImage"/>
    <dc:date>2023-09-07T00:38:17.814919</dc:date>
    <dc:format>image/svg+xml</dc:format>
    <dc:creator>
     <cc:Agent>
      <dc:title>Matplotlib v3.7.2, https://matplotlib.org/</dc:title>
     </cc:Agent>
    </dc:creator>
   </cc:Work>
  </rdf:RDF>
 </metadata>
 <defs>
  <style type="text/css">*{stroke-linejoin: round; stroke-linecap: butt}</style>
 </defs>
 <g id="figure_1">
  <g id="patch_1">
   <path d="M 0 288 
L 414 288 
L 414 0 
L 0 0 
L 0 288 
z
" style="fill: none"/>
  </g>
  <g id="axes_1">
   <g id="patch_2">
    <path d="M 93.235625 241.036875 
L 403.2 241.036875 
L 403.2 25.918125 
L 93.235625 25.918125 
L 93.235625 241.036875 
z
" style="fill: none"/>
   </g>
   <g id="matplotlib.axis_1">
    <g id="xtick_1">
     <g id="line2d_1">
      <defs>
       <path id="mb5ede6cebe" d="M 0 0 
L 0 3.5 
" style="stroke: #000000; stroke-width: 0.8"/>
      </defs>
      <g>
       <use xlink:href="#mb5ede6cebe" x="107.324915" y="241.036875" style="stroke: #000000; stroke-width: 0.8"/>
      </g>
     </g>
     <g id="text_1">
      <!-- 0.0 -->
      <g transform="translate(94.602415 260.194375) scale(0.16 -0.16)">
       <defs>
        <path id="DejaVuSans-30" d="M 2034 4250 
Q 1547 4250 1301 3770 
Q 1056 3291 1056 2328 
Q 1056 1369 1301 889 
Q 1547 409 2034 409 
Q 2525 409 2770 889 
Q 3016 1369 3016 2328 
Q 3016 3291 2770 3770 
Q 2525 4250 2034 4250 
z
M 2034 4750 
Q 2819 4750 3233 4129 
Q 3647 3509 3647 2328 
Q 3647 1150 3233 529 
Q 2819 -91 2034 -91 
Q 1250 -91 836 529 
Q 422 1150 422 2328 
Q 422 3509 836 4129 
Q 1250 4750 2034 4750 
z
" transform="scale(0.015625)"/>
        <path id="DejaVuSans-2e" d="M 684 794 
L 1344 794 
L 1344 0 
L 684 0 
L 684 794 
z
" transform="scale(0.015625)"/>
       </defs>
       <use xlink:href="#DejaVuSans-30"/>
       <use xlink:href="#DejaVuSans-2e" x="63.623047"/>
       <use xlink:href="#DejaVuSans-30" x="95.410156"/>
      </g>
     </g>
    </g>
    <g id="xtick_2">
     <g id="line2d_2">
      <g>
       <use xlink:href="#mb5ede6cebe" x="163.690016" y="241.036875" style="stroke: #000000; stroke-width: 0.8"/>
      </g>
     </g>
     <g id="text_2">
      <!-- 0.2 -->
      <g transform="translate(150.967516 260.194375) scale(0.16 -0.16)">
       <defs>
        <path id="DejaVuSans-32" d="M 1228 531 
L 3431 531 
L 3431 0 
L 469 0 
L 469 531 
Q 828 903 1448 1529 
Q 2069 2156 2228 2338 
Q 2531 2678 2651 2914 
Q 2772 3150 2772 3378 
Q 2772 3750 2511 3984 
Q 2250 4219 1831 4219 
Q 1534 4219 1204 4116 
Q 875 4013 500 3803 
L 500 4441 
Q 881 4594 1212 4672 
Q 1544 4750 1819 4750 
Q 2544 4750 2975 4387 
Q 3406 4025 3406 3419 
Q 3406 3131 3298 2873 
Q 3191 2616 2906 2266 
Q 2828 2175 2409 1742 
Q 1991 1309 1228 531 
z
" transform="scale(0.015625)"/>
       </defs>
       <use xlink:href="#DejaVuSans-30"/>
       <use xlink:href="#DejaVuSans-2e" x="63.623047"/>
       <use xlink:href="#DejaVuSans-32" x="95.410156"/>
      </g>
     </g>
    </g>
    <g id="xtick_3">
     <g id="line2d_3">
      <g>
       <use xlink:href="#mb5ede6cebe" x="220.055117" y="241.036875" style="stroke: #000000; stroke-width: 0.8"/>
      </g>
     </g>
     <g id="text_3">
      <!-- 0.4 -->
      <g transform="translate(207.332617 260.194375) scale(0.16 -0.16)">
       <defs>
        <path id="DejaVuSans-34" d="M 2419 4116 
L 825 1625 
L 2419 1625 
L 2419 4116 
z
M 2253 4666 
L 3047 4666 
L 3047 1625 
L 3713 1625 
L 3713 1100 
L 3047 1100 
L 3047 0 
L 2419 0 
L 2419 1100 
L 313 1100 
L 313 1709 
L 2253 4666 
z
" transform="scale(0.015625)"/>
       </defs>
       <use xlink:href="#DejaVuSans-30"/>
       <use xlink:href="#DejaVuSans-2e" x="63.623047"/>
       <use xlink:href="#DejaVuSans-34" x="95.410156"/>
      </g>
     </g>
    </g>
    <g id="xtick_4">
     <g id="line2d_4">
      <g>
       <use xlink:href="#mb5ede6cebe" x="276.420218" y="241.036875" style="stroke: #000000; stroke-width: 0.8"/>
      </g>
     </g>
     <g id="text_4">
      <!-- 0.6 -->
      <g transform="translate(263.697718 260.194375) scale(0.16 -0.16)">
       <defs>
        <path id="DejaVuSans-36" d="M 2113 2584 
Q 1688 2584 1439 2293 
Q 1191 2003 1191 1497 
Q 1191 994 1439 701 
Q 1688 409 2113 409 
Q 2538 409 2786 701 
Q 3034 994 3034 1497 
Q 3034 2003 2786 2293 
Q 2538 2584 2113 2584 
z
M 3366 4563 
L 3366 3988 
Q 3128 4100 2886 4159 
Q 2644 4219 2406 4219 
Q 1781 4219 1451 3797 
Q 1122 3375 1075 2522 
Q 1259 2794 1537 2939 
Q 1816 3084 2150 3084 
Q 2853 3084 3261 2657 
Q 3669 2231 3669 1497 
Q 3669 778 3244 343 
Q 2819 -91 2113 -91 
Q 1303 -91 875 529 
Q 447 1150 447 2328 
Q 447 3434 972 4092 
Q 1497 4750 2381 4750 
Q 2619 4750 2861 4703 
Q 3103 4656 3366 4563 
z
" transform="scale(0.015625)"/>
       </defs>
       <use xlink:href="#DejaVuSans-30"/>
       <use xlink:href="#DejaVuSans-2e" x="63.623047"/>
       <use xlink:href="#DejaVuSans-36" x="95.410156"/>
      </g>
     </g>
    </g>
    <g id="xtick_5">
     <g id="line2d_5">
      <g>
       <use xlink:href="#mb5ede6cebe" x="332.78532" y="241.036875" style="stroke: #000000; stroke-width: 0.8"/>
      </g>
     </g>
     <g id="text_5">
      <!-- 0.8 -->
      <g transform="translate(320.06282 260.194375) scale(0.16 -0.16)">
       <defs>
        <path id="DejaVuSans-38" d="M 2034 2216 
Q 1584 2216 1326 1975 
Q 1069 1734 1069 1313 
Q 1069 891 1326 650 
Q 1584 409 2034 409 
Q 2484 409 2743 651 
Q 3003 894 3003 1313 
Q 3003 1734 2745 1975 
Q 2488 2216 2034 2216 
z
M 1403 2484 
Q 997 2584 770 2862 
Q 544 3141 544 3541 
Q 544 4100 942 4425 
Q 1341 4750 2034 4750 
Q 2731 4750 3128 4425 
Q 3525 4100 3525 3541 
Q 3525 3141 3298 2862 
Q 3072 2584 2669 2484 
Q 3125 2378 3379 2068 
Q 3634 1759 3634 1313 
Q 3634 634 3220 271 
Q 2806 -91 2034 -91 
Q 1263 -91 848 271 
Q 434 634 434 1313 
Q 434 1759 690 2068 
Q 947 2378 1403 2484 
z
M 1172 3481 
Q 1172 3119 1398 2916 
Q 1625 2713 2034 2713 
Q 2441 2713 2670 2916 
Q 2900 3119 2900 3481 
Q 2900 3844 2670 4047 
Q 2441 4250 2034 4250 
Q 1625 4250 1398 4047 
Q 1172 3844 1172 3481 
z
" transform="scale(0.015625)"/>
       </defs>
       <use xlink:href="#DejaVuSans-30"/>
       <use xlink:href="#DejaVuSans-2e" x="63.623047"/>
       <use xlink:href="#DejaVuSans-38" x="95.410156"/>
      </g>
     </g>
    </g>
    <g id="xtick_6">
     <g id="line2d_6">
      <g>
       <use xlink:href="#mb5ede6cebe" x="389.150421" y="241.036875" style="stroke: #000000; stroke-width: 0.8"/>
      </g>
     </g>
     <g id="text_6">
      <!-- 1.0 -->
      <g transform="translate(376.427921 260.194375) scale(0.16 -0.16)">
       <defs>
        <path id="DejaVuSans-31" d="M 794 531 
L 1825 531 
L 1825 4091 
L 703 3866 
L 703 4441 
L 1819 4666 
L 2450 4666 
L 2450 531 
L 3481 531 
L 3481 0 
L 794 0 
L 794 531 
z
" transform="scale(0.015625)"/>
       </defs>
       <use xlink:href="#DejaVuSans-31"/>
       <use xlink:href="#DejaVuSans-2e" x="63.623047"/>
       <use xlink:href="#DejaVuSans-30" x="95.410156"/>
      </g>
     </g>
    </g>
    <g id="text_7">
     <!-- Time [orbits] -->
     <g transform="translate(216.250625 275.120313) scale(0.1 -0.1)">
      <defs>
       <path id="DejaVuSans-54" d="M -19 4666 
L 3928 4666 
L 3928 4134 
L 2272 4134 
L 2272 0 
L 1638 0 
L 1638 4134 
L -19 4134 
L -19 4666 
z
" transform="scale(0.015625)"/>
       <path id="DejaVuSans-69" d="M 603 3500 
L 1178 3500 
L 1178 0 
L 603 0 
L 603 3500 
z
M 603 4863 
L 1178 4863 
L 1178 4134 
L 603 4134 
L 603 4863 
z
" transform="scale(0.015625)"/>
       <path id="DejaVuSans-6d" d="M 3328 2828 
Q 3544 3216 3844 3400 
Q 4144 3584 4550 3584 
Q 5097 3584 5394 3201 
Q 5691 2819 5691 2113 
L 5691 0 
L 5113 0 
L 5113 2094 
Q 5113 2597 4934 2840 
Q 4756 3084 4391 3084 
Q 3944 3084 3684 2787 
Q 3425 2491 3425 1978 
L 3425 0 
L 2847 0 
L 2847 2094 
Q 2847 2600 2669 2842 
Q 2491 3084 2119 3084 
Q 1678 3084 1418 2786 
Q 1159 2488 1159 1978 
L 1159 0 
L 581 0 
L 581 3500 
L 1159 3500 
L 1159 2956 
Q 1356 3278 1631 3431 
Q 1906 3584 2284 3584 
Q 2666 3584 2933 3390 
Q 3200 3197 3328 2828 
z
" transform="scale(0.015625)"/>
       <path id="DejaVuSans-65" d="M 3597 1894 
L 3597 1613 
L 953 1613 
Q 991 1019 1311 708 
Q 1631 397 2203 397 
Q 2534 397 2845 478 
Q 3156 559 3463 722 
L 3463 178 
Q 3153 47 2828 -22 
Q 2503 -91 2169 -91 
Q 1331 -91 842 396 
Q 353 884 353 1716 
Q 353 2575 817 3079 
Q 1281 3584 2069 3584 
Q 2775 3584 3186 3129 
Q 3597 2675 3597 1894 
z
M 3022 2063 
Q 3016 2534 2758 2815 
Q 2500 3097 2075 3097 
Q 1594 3097 1305 2825 
Q 1016 2553 972 2059 
L 3022 2063 
z
" transform="scale(0.015625)"/>
       <path id="DejaVuSans-20" transform="scale(0.015625)"/>
       <path id="DejaVuSans-5b" d="M 550 4863 
L 1875 4863 
L 1875 4416 
L 1125 4416 
L 1125 -397 
L 1875 -397 
L 1875 -844 
L 550 -844 
L 550 4863 
z
" transform="scale(0.015625)"/>
       <path id="DejaVuSans-6f" d="M 1959 3097 
Q 1497 3097 1228 2736 
Q 959 2375 959 1747 
Q 959 1119 1226 758 
Q 1494 397 1959 397 
Q 2419 397 2687 759 
Q 2956 1122 2956 1747 
Q 2956 2369 2687 2733 
Q 2419 3097 1959 3097 
z
M 1959 3584 
Q 2709 3584 3137 3096 
Q 3566 2609 3566 1747 
Q 3566 888 3137 398 
Q 2709 -91 1959 -91 
Q 1206 -91 779 398 
Q 353 888 353 1747 
Q 353 2609 779 3096 
Q 1206 3584 1959 3584 
z
" transform="scale(0.015625)"/>
       <path id="DejaVuSans-72" d="M 2631 2963 
Q 2534 3019 2420 3045 
Q 2306 3072 2169 3072 
Q 1681 3072 1420 2755 
Q 1159 2438 1159 1844 
L 1159 0 
L 581 0 
L 581 3500 
L 1159 3500 
L 1159 2956 
Q 1341 3275 1631 3429 
Q 1922 3584 2338 3584 
Q 2397 3584 2469 3576 
Q 2541 3569 2628 3553 
L 2631 2963 
z
" transform="scale(0.015625)"/>
       <path id="DejaVuSans-62" d="M 3116 1747 
Q 3116 2381 2855 2742 
Q 2594 3103 2138 3103 
Q 1681 3103 1420 2742 
Q 1159 2381 1159 1747 
Q 1159 1113 1420 752 
Q 1681 391 2138 391 
Q 2594 391 2855 752 
Q 3116 1113 3116 1747 
z
M 1159 2969 
Q 1341 3281 1617 3432 
Q 1894 3584 2278 3584 
Q 2916 3584 3314 3078 
Q 3713 2572 3713 1747 
Q 3713 922 3314 415 
Q 2916 -91 2278 -91 
Q 1894 -91 1617 61 
Q 1341 213 1159 525 
L 1159 0 
L 581 0 
L 581 4863 
L 1159 4863 
L 1159 2969 
z
" transform="scale(0.015625)"/>
       <path id="DejaVuSans-74" d="M 1172 4494 
L 1172 3500 
L 2356 3500 
L 2356 3053 
L 1172 3053 
L 1172 1153 
Q 1172 725 1289 603 
Q 1406 481 1766 481 
L 2356 481 
L 2356 0 
L 1766 0 
Q 1100 0 847 248 
Q 594 497 594 1153 
L 594 3053 
L 172 3053 
L 172 3500 
L 594 3500 
L 594 4494 
L 1172 4494 
z
" transform="scale(0.015625)"/>
       <path id="DejaVuSans-73" d="M 2834 3397 
L 2834 2853 
Q 2591 2978 2328 3040 
Q 2066 3103 1784 3103 
Q 1356 3103 1142 2972 
Q 928 2841 928 2578 
Q 928 2378 1081 2264 
Q 1234 2150 1697 2047 
L 1894 2003 
Q 2506 1872 2764 1633 
Q 3022 1394 3022 966 
Q 3022 478 2636 193 
Q 2250 -91 1575 -91 
Q 1294 -91 989 -36 
Q 684 19 347 128 
L 347 722 
Q 666 556 975 473 
Q 1284 391 1588 391 
Q 1994 391 2212 530 
Q 2431 669 2431 922 
Q 2431 1156 2273 1281 
Q 2116 1406 1581 1522 
L 1381 1569 
Q 847 1681 609 1914 
Q 372 2147 372 2553 
Q 372 3047 722 3315 
Q 1072 3584 1716 3584 
Q 2034 3584 2315 3537 
Q 2597 3491 2834 3397 
z
" transform="scale(0.015625)"/>
       <path id="DejaVuSans-5d" d="M 1947 4863 
L 1947 -844 
L 622 -844 
L 622 -397 
L 1369 -397 
L 1369 4416 
L 622 4416 
L 622 4863 
L 1947 4863 
z
" transform="scale(0.015625)"/>
      </defs>
      <use xlink:href="#DejaVuSans-54"/>
      <use xlink:href="#DejaVuSans-69" x="57.958984"/>
      <use xlink:href="#DejaVuSans-6d" x="85.742188"/>
      <use xlink:href="#DejaVuSans-65" x="183.154297"/>
      <use xlink:href="#DejaVuSans-20" x="244.677734"/>
      <use xlink:href="#DejaVuSans-5b" x="276.464844"/>
      <use xlink:href="#DejaVuSans-6f" x="315.478516"/>
      <use xlink:href="#DejaVuSans-72" x="376.660156"/>
      <use xlink:href="#DejaVuSans-62" x="417.773438"/>
      <use xlink:href="#DejaVuSans-69" x="481.25"/>
      <use xlink:href="#DejaVuSans-74" x="509.033203"/>
      <use xlink:href="#DejaVuSans-73" x="548.242188"/>
      <use xlink:href="#DejaVuSans-5d" x="600.341797"/>
     </g>
    </g>
   </g>
   <g id="matplotlib.axis_2">
    <g id="ytick_1">
     <g id="line2d_7">
      <defs>
       <path id="m747a15ab59" d="M 0 0 
L -3.5 0 
" style="stroke: #000000; stroke-width: 0.8"/>
      </defs>
      <g>
       <use xlink:href="#m747a15ab59" x="93.235625" y="215.446138" style="stroke: #000000; stroke-width: 0.8"/>
      </g>
     </g>
     <g id="text_8">
      <!-- -20,000 -->
      <g transform="translate(24.478125 221.524888) scale(0.16 -0.16)">
       <defs>
        <path id="DejaVuSans-2d" d="M 313 2009 
L 1997 2009 
L 1997 1497 
L 313 1497 
L 313 2009 
z
" transform="scale(0.015625)"/>
        <path id="DejaVuSans-2c" d="M 750 794 
L 1409 794 
L 1409 256 
L 897 -744 
L 494 -744 
L 750 256 
L 750 794 
z
" transform="scale(0.015625)"/>
       </defs>
       <use xlink:href="#DejaVuSans-2d"/>
       <use xlink:href="#DejaVuSans-32" x="36.083984"/>
       <use xlink:href="#DejaVuSans-30" x="99.707031"/>
       <use xlink:href="#DejaVuSans-2c" x="163.330078"/>
       <use xlink:href="#DejaVuSans-30" x="195.117188"/>
       <use xlink:href="#DejaVuSans-30" x="258.740234"/>
       <use xlink:href="#DejaVuSans-30" x="322.363281"/>
      </g>
     </g>
    </g>
    <g id="ytick_2">
     <g id="line2d_8">
      <g>
       <use xlink:href="#m747a15ab59" x="93.235625" y="160.447237" style="stroke: #000000; stroke-width: 0.8"/>
      </g>
     </g>
     <g id="text_9">
      <!-- -10,000 -->
      <g transform="translate(24.478125 166.525987) scale(0.16 -0.16)">
       <use xlink:href="#DejaVuSans-2d"/>
       <use xlink:href="#DejaVuSans-31" x="36.083984"/>
       <use xlink:href="#DejaVuSans-30" x="99.707031"/>
       <use xlink:href="#DejaVuSans-2c" x="163.330078"/>
       <use xlink:href="#DejaVuSans-30" x="195.117188"/>
       <use xlink:href="#DejaVuSans-30" x="258.740234"/>
       <use xlink:href="#DejaVuSans-30" x="322.363281"/>
      </g>
     </g>
    </g>
    <g id="ytick_3">
     <g id="line2d_9">
      <g>
       <use xlink:href="#m747a15ab59" x="93.235625" y="105.448337" style="stroke: #000000; stroke-width: 0.8"/>
      </g>
     </g>
     <g id="text_10">
      <!-- 0 -->
      <g transform="translate(76.055625 111.527087) scale(0.16 -0.16)">
       <use xlink:href="#DejaVuSans-30"/>
      </g>
     </g>
    </g>
    <g id="ytick_4">
     <g id="line2d_10">
      <g>
       <use xlink:href="#m747a15ab59" x="93.235625" y="50.449436" style="stroke: #000000; stroke-width: 0.8"/>
      </g>
     </g>
     <g id="text_11">
      <!-- 10,000 -->
      <g transform="translate(30.250625 56.528186) scale(0.16 -0.16)">
       <use xlink:href="#DejaVuSans-31"/>
       <use xlink:href="#DejaVuSans-30" x="63.623047"/>
       <use xlink:href="#DejaVuSans-2c" x="127.246094"/>
       <use xlink:href="#DejaVuSans-30" x="159.033203"/>
       <use xlink:href="#DejaVuSans-30" x="222.65625"/>
       <use xlink:href="#DejaVuSans-30" x="286.279297"/>
      </g>
     </g>
    </g>
    <g id="text_12">
     <!-- Magnetic Field [nT]  -->
     <g transform="translate(18.398438 182.807187) rotate(-90) scale(0.1 -0.1)">
      <defs>
       <path id="DejaVuSans-4d" d="M 628 4666 
L 1569 4666 
L 2759 1491 
L 3956 4666 
L 4897 4666 
L 4897 0 
L 4281 0 
L 4281 4097 
L 3078 897 
L 2444 897 
L 1241 4097 
L 1241 0 
L 628 0 
L 628 4666 
z
" transform="scale(0.015625)"/>
       <path id="DejaVuSans-61" d="M 2194 1759 
Q 1497 1759 1228 1600 
Q 959 1441 959 1056 
Q 959 750 1161 570 
Q 1363 391 1709 391 
Q 2188 391 2477 730 
Q 2766 1069 2766 1631 
L 2766 1759 
L 2194 1759 
z
M 3341 1997 
L 3341 0 
L 2766 0 
L 2766 531 
Q 2569 213 2275 61 
Q 1981 -91 1556 -91 
Q 1019 -91 701 211 
Q 384 513 384 1019 
Q 384 1609 779 1909 
Q 1175 2209 1959 2209 
L 2766 2209 
L 2766 2266 
Q 2766 2663 2505 2880 
Q 2244 3097 1772 3097 
Q 1472 3097 1187 3025 
Q 903 2953 641 2809 
L 641 3341 
Q 956 3463 1253 3523 
Q 1550 3584 1831 3584 
Q 2591 3584 2966 3190 
Q 3341 2797 3341 1997 
z
" transform="scale(0.015625)"/>
       <path id="DejaVuSans-67" d="M 2906 1791 
Q 2906 2416 2648 2759 
Q 2391 3103 1925 3103 
Q 1463 3103 1205 2759 
Q 947 2416 947 1791 
Q 947 1169 1205 825 
Q 1463 481 1925 481 
Q 2391 481 2648 825 
Q 2906 1169 2906 1791 
z
M 3481 434 
Q 3481 -459 3084 -895 
Q 2688 -1331 1869 -1331 
Q 1566 -1331 1297 -1286 
Q 1028 -1241 775 -1147 
L 775 -588 
Q 1028 -725 1275 -790 
Q 1522 -856 1778 -856 
Q 2344 -856 2625 -561 
Q 2906 -266 2906 331 
L 2906 616 
Q 2728 306 2450 153 
Q 2172 0 1784 0 
Q 1141 0 747 490 
Q 353 981 353 1791 
Q 353 2603 747 3093 
Q 1141 3584 1784 3584 
Q 2172 3584 2450 3431 
Q 2728 3278 2906 2969 
L 2906 3500 
L 3481 3500 
L 3481 434 
z
" transform="scale(0.015625)"/>
       <path id="DejaVuSans-6e" d="M 3513 2113 
L 3513 0 
L 2938 0 
L 2938 2094 
Q 2938 2591 2744 2837 
Q 2550 3084 2163 3084 
Q 1697 3084 1428 2787 
Q 1159 2491 1159 1978 
L 1159 0 
L 581 0 
L 581 3500 
L 1159 3500 
L 1159 2956 
Q 1366 3272 1645 3428 
Q 1925 3584 2291 3584 
Q 2894 3584 3203 3211 
Q 3513 2838 3513 2113 
z
" transform="scale(0.015625)"/>
       <path id="DejaVuSans-63" d="M 3122 3366 
L 3122 2828 
Q 2878 2963 2633 3030 
Q 2388 3097 2138 3097 
Q 1578 3097 1268 2742 
Q 959 2388 959 1747 
Q 959 1106 1268 751 
Q 1578 397 2138 397 
Q 2388 397 2633 464 
Q 2878 531 3122 666 
L 3122 134 
Q 2881 22 2623 -34 
Q 2366 -91 2075 -91 
Q 1284 -91 818 406 
Q 353 903 353 1747 
Q 353 2603 823 3093 
Q 1294 3584 2113 3584 
Q 2378 3584 2631 3529 
Q 2884 3475 3122 3366 
z
" transform="scale(0.015625)"/>
       <path id="DejaVuSans-46" d="M 628 4666 
L 3309 4666 
L 3309 4134 
L 1259 4134 
L 1259 2759 
L 3109 2759 
L 3109 2228 
L 1259 2228 
L 1259 0 
L 628 0 
L 628 4666 
z
" transform="scale(0.015625)"/>
       <path id="DejaVuSans-6c" d="M 603 4863 
L 1178 4863 
L 1178 0 
L 603 0 
L 603 4863 
z
" transform="scale(0.015625)"/>
       <path id="DejaVuSans-64" d="M 2906 2969 
L 2906 4863 
L 3481 4863 
L 3481 0 
L 2906 0 
L 2906 525 
Q 2725 213 2448 61 
Q 2172 -91 1784 -91 
Q 1150 -91 751 415 
Q 353 922 353 1747 
Q 353 2572 751 3078 
Q 1150 3584 1784 3584 
Q 2172 3584 2448 3432 
Q 2725 3281 2906 2969 
z
M 947 1747 
Q 947 1113 1208 752 
Q 1469 391 1925 391 
Q 2381 391 2643 752 
Q 2906 1113 2906 1747 
Q 2906 2381 2643 2742 
Q 2381 3103 1925 3103 
Q 1469 3103 1208 2742 
Q 947 2381 947 1747 
z
" transform="scale(0.015625)"/>
      </defs>
      <use xlink:href="#DejaVuSans-4d"/>
      <use xlink:href="#DejaVuSans-61" x="86.279297"/>
      <use xlink:href="#DejaVuSans-67" x="147.558594"/>
      <use xlink:href="#DejaVuSans-6e" x="211.035156"/>
      <use xlink:href="#DejaVuSans-65" x="274.414062"/>
      <use xlink:href="#DejaVuSans-74" x="335.9375"/>
      <use xlink:href="#DejaVuSans-69" x="375.146484"/>
      <use xlink:href="#DejaVuSans-63" x="402.929688"/>
      <use xlink:href="#DejaVuSans-20" x="457.910156"/>
      <use xlink:href="#DejaVuSans-46" x="489.697266"/>
      <use xlink:href="#DejaVuSans-69" x="539.966797"/>
      <use xlink:href="#DejaVuSans-65" x="567.75"/>
      <use xlink:href="#DejaVuSans-6c" x="629.273438"/>
      <use xlink:href="#DejaVuSans-64" x="657.056641"/>
      <use xlink:href="#DejaVuSans-20" x="720.533203"/>
      <use xlink:href="#DejaVuSans-5b" x="752.320312"/>
      <use xlink:href="#DejaVuSans-6e" x="791.333984"/>
      <use xlink:href="#DejaVuSans-54" x="854.712891"/>
      <use xlink:href="#DejaVuSans-5d" x="915.796875"/>
      <use xlink:href="#DejaVuSans-20" x="954.810547"/>
     </g>
    </g>
   </g>
   <g id="line2d_11">
    <path d="M 107.324915 117.150844 
L 110.034394 109.408536 
L 112.743872 103.344431 
L 115.453351 99.487038 
L 118.16283 96.494178 
L 120.872309 94.595729 
L 123.581788 94.267727 
L 126.291266 93.651872 
L 129.000745 92.456834 
L 131.710224 93.606401 
L 134.419703 93.014892 
L 137.129182 93.991267 
L 139.83866 94.268104 
L 142.548139 94.576594 
L 145.257618 94.962463 
L 147.967097 95.579681 
L 150.676576 95.667267 
L 153.386054 95.79874 
L 156.095533 96.603931 
L 158.805012 97.2869 
L 161.514491 97.663146 
L 164.22397 97.752262 
L 166.933448 97.95128 
L 169.642927 98.689985 
L 172.352406 98.725588 
L 175.061885 98.975839 
L 177.771364 98.761579 
L 180.480842 99.146426 
L 183.190321 99.638952 
L 185.8998 100.016731 
L 188.609279 100.211127 
L 191.318758 100.557508 
L 194.028236 100.758717 
L 196.737715 101.078007 
L 199.447194 101.104145 
L 202.156673 101.568452 
L 204.866152 101.464344 
L 207.57563 102.270254 
L 210.285109 102.24262 
L 212.994588 101.955748 
L 215.704067 101.720769 
L 218.413546 102.286987 
L 221.123024 103.003801 
L 223.832503 102.693043 
L 226.541982 103.303263 
L 229.251461 102.872776 
L 231.96094 103.214066 
L 234.670418 103.652446 
L 237.379897 103.465739 
L 240.089376 103.729063 
L 242.798855 104.445858 
L 245.508334 104.075606 
L 248.217812 104.686595 
L 250.927291 104.25808 
L 253.63677 104.584212 
L 256.346249 104.76919 
L 259.055728 104.892227 
L 261.765207 105.2353 
L 264.474685 105.599229 
L 267.184164 106.176316 
L 269.893643 106.069243 
L 272.603122 106.163072 
L 275.312601 106.459272 
L 278.022079 106.231376 
L 280.731558 107.418152 
L 283.441037 107.376717 
L 286.150516 107.776081 
L 288.859995 107.875198 
L 291.569473 108.591937 
L 294.278952 108.690633 
L 296.988431 109.604104 
L 299.69791 110.566648 
L 302.407389 110.843521 
L 305.116867 111.284381 
L 307.826346 112.421817 
L 310.535825 112.997022 
L 313.245304 114.090072 
L 315.954783 114.972828 
L 318.664261 115.948567 
L 321.37374 116.50738 
L 324.083219 117.444402 
L 326.792698 117.829799 
L 329.502177 118.324631 
L 332.211655 117.823029 
L 334.921134 116.137044 
L 337.630613 113.58233 
L 340.340092 109.537888 
L 343.049571 100.886833 
L 345.759049 88.093647 
L 348.468528 69.289841 
L 351.178007 43.674456 
L 353.887486 104.911052 
L 356.596965 105.08043 
L 359.306443 105.096683 
L 362.015922 105.846964 
L 364.725401 105.299811 
L 367.43488 105.440544 
L 370.144359 105.714008 
L 372.853837 105.780023 
L 375.563316 105.713971 
L 378.272795 105.457275 
L 380.982274 153.051825 
L 383.691753 139.369648 
L 386.401231 127.097465 
L 389.11071 117.414247 
" clip-path="url(#pf7d55379a4)" style="fill: none; stroke: #2b737e; stroke-width: 1.5; stroke-linecap: square"/>
   </g>
   <g id="line2d_12">
    <path d="M 107.324915 143.843662 
L 110.034394 132.442566 
L 112.743872 122.368874 
L 115.453351 116.076939 
L 118.16283 111.362434 
L 120.872309 107.42363 
L 123.581788 104.186088 
L 126.291266 102.259137 
L 129.000745 100.781973 
L 131.710224 100.053304 
L 134.419703 99.578584 
L 137.129182 98.773402 
L 139.83866 98.460017 
L 142.548139 98.600433 
L 145.257618 98.505926 
L 147.967097 98.758737 
L 150.676576 99.261353 
L 153.386054 99.044122 
L 156.095533 98.935019 
L 158.805012 99.0628 
L 161.514491 99.749719 
L 164.22397 99.812348 
L 166.933448 99.651469 
L 169.642927 100.34758 
L 172.352406 100.487161 
L 175.061885 100.029563 
L 177.771364 101.257101 
L 180.480842 100.768146 
L 183.190321 100.577586 
L 185.8998 101.250013 
L 188.609279 101.016407 
L 191.318758 101.603905 
L 194.028236 101.857161 
L 196.737715 102.015785 
L 199.447194 102.429825 
L 202.156673 102.491189 
L 204.866152 102.501496 
L 207.57563 102.974784 
L 210.285109 102.915783 
L 212.994588 103.023768 
L 215.704067 103.10998 
L 218.413546 103.562641 
L 221.123024 103.900575 
L 223.832503 103.320888 
L 226.541982 103.978467 
L 229.251461 103.492714 
L 231.96094 104.136633 
L 234.670418 104.64624 
L 237.379897 104.73898 
L 240.089376 104.715907 
L 242.798855 105.027314 
L 245.508334 105.292034 
L 248.217812 105.089768 
L 250.927291 104.966988 
L 253.63677 105.136449 
L 256.346249 106.123356 
L 259.055728 105.988272 
L 261.765207 106.728763 
L 264.474685 107.202833 
L 267.184164 107.282555 
L 269.893643 107.716928 
L 272.603122 107.705705 
L 275.312601 107.715932 
L 278.022079 108.617111 
L 280.731558 109.189064 
L 283.441037 109.488913 
L 286.150516 109.951902 
L 288.859995 110.597143 
L 291.569473 111.144948 
L 294.278952 112.100518 
L 296.988431 113.020843 
L 299.69791 113.609148 
L 302.407389 114.582286 
L 305.116867 115.694482 
L 307.826346 116.830179 
L 310.535825 118.208408 
L 313.245304 119.404773 
L 315.954783 121.122405 
L 318.664261 123.082483 
L 321.37374 125.465131 
L 324.083219 126.755711 
L 326.792698 129.388569 
L 329.502177 131.113389 
L 332.211655 133.523898 
L 334.921134 134.786414 
L 337.630613 134.615473 
L 340.340092 133.892629 
L 343.049571 129.07859 
L 345.759049 119.990748 
L 348.468528 104.837228 
L 351.178007 82.657351 
L 353.887486 105.275838 
L 356.596965 105.549745 
L 359.306443 105.016298 
L 362.015922 105.522265 
L 364.725401 105.308236 
L 367.43488 105.370832 
L 370.144359 105.840628 
L 372.853837 105.20109 
L 375.563316 105.672124 
L 378.272795 105.286831 
L 380.982274 191.298512 
L 383.691753 174.332348 
L 386.401231 157.900935 
L 389.11071 144.075131 
" clip-path="url(#pf7d55379a4)" style="fill: none; stroke: #5ea04b; stroke-width: 1.5; stroke-linecap: square"/>
   </g>
   <g id="line2d_13">
    <path d="M 107.324915 171.605274 
L 110.034394 167.157154 
L 112.743872 162.034588 
L 115.453351 156.032871 
L 118.16283 150.584954 
L 120.872309 144.204457 
L 123.581788 139.813919 
L 126.291266 135.126397 
L 129.000745 131.4295 
L 131.710224 128.000572 
L 134.419703 124.854095 
L 137.129182 122.261605 
L 139.83866 119.759657 
L 142.548139 117.816409 
L 145.257618 116.105932 
L 147.967097 114.838928 
L 150.676576 113.041995 
L 153.386054 112.431567 
L 156.095533 111.277897 
L 158.805012 109.989643 
L 161.514491 109.097213 
L 164.22397 108.808269 
L 166.933448 107.931474 
L 169.642927 107.538436 
L 172.352406 107.156953 
L 175.061885 106.690617 
L 177.771364 106.605087 
L 180.480842 105.636554 
L 183.190321 105.352174 
L 185.8998 104.892935 
L 188.609279 104.63758 
L 191.318758 104.316087 
L 194.028236 104.262753 
L 196.737715 104.253116 
L 199.447194 103.786684 
L 202.156673 103.473195 
L 204.866152 103.374962 
L 207.57563 103.051674 
L 210.285109 102.677713 
L 212.994588 103.379014 
L 215.704067 102.484643 
L 218.413546 102.330692 
L 221.123024 102.54366 
L 223.832503 101.997166 
L 226.541982 102.279355 
L 229.251461 101.871932 
L 231.96094 102.023437 
L 234.670418 101.747653 
L 237.379897 101.61044 
L 240.089376 101.36884 
L 242.798855 101.671455 
L 245.508334 101.715727 
L 248.217812 101.13208 
L 250.927291 101.443558 
L 253.63677 101.270012 
L 256.346249 101.20599 
L 259.055728 100.853174 
L 261.765207 100.869381 
L 264.474685 100.858859 
L 267.184164 100.838195 
L 269.893643 100.696701 
L 272.603122 100.102933 
L 275.312601 100.987277 
L 278.022079 100.45661 
L 280.731558 100.701945 
L 283.441037 100.653039 
L 286.150516 100.592968 
L 288.859995 100.746798 
L 291.569473 100.838315 
L 294.278952 101.362428 
L 296.988431 102.201671 
L 299.69791 102.181971 
L 302.407389 103.20601 
L 305.116867 103.619523 
L 307.826346 104.893687 
L 310.535825 105.71366 
L 313.245304 107.129902 
L 315.954783 108.529393 
L 318.664261 111.720481 
L 321.37374 114.139342 
L 324.083219 118.342261 
L 326.792698 123.34458 
L 329.502177 128.944317 
L 332.211655 136.908464 
L 334.921134 146.596051 
L 337.630613 158.29621 
L 340.340092 172.2227 
L 343.049571 188.613796 
L 345.759049 205.974596 
L 348.468528 222.064146 
L 351.178007 231.25875 
L 353.887486 106.021629 
L 356.596965 105.601129 
L 359.306443 105.242416 
L 362.015922 105.941894 
L 364.725401 105.295743 
L 367.43488 105.501879 
L 370.144359 105.533246 
L 372.853837 105.558951 
L 375.563316 105.669663 
L 378.272795 105.196166 
L 380.982274 150.0502 
L 383.691753 165.771367 
L 386.401231 171.572299 
L 389.11071 171.390402 
" clip-path="url(#pf7d55379a4)" style="fill: none; stroke: #bdab62; stroke-width: 1.5; stroke-linecap: square"/>
   </g>
   <g id="line2d_14">
    <path d="M 107.324915 105.469829 
L 110.034394 105.567038 
L 112.743872 105.237768 
L 115.453351 105.412578 
L 118.16283 105.148224 
L 120.872309 105.012826 
L 123.581788 105.748623 
L 126.291266 105.698478 
L 129.000745 104.719498 
L 131.710224 105.8434 
L 134.419703 105.062243 
L 137.129182 105.740597 
L 139.83866 105.650596 
L 142.548139 105.5514 
L 145.257618 105.508376 
L 147.967097 105.689153 
L 150.676576 105.34212 
L 153.386054 105.047098 
L 156.095533 105.438022 
L 158.805012 105.721496 
L 161.514491 105.71445 
L 164.22397 105.437127 
L 166.933448 105.286662 
L 169.642927 105.692569 
L 172.352406 105.41153 
L 175.061885 105.360605 
L 177.771364 104.859839 
L 180.480842 104.972 
L 183.190321 105.204777 
L 185.8998 105.334862 
L 188.609279 105.292744 
L 191.318758 105.412935 
L 194.028236 105.397446 
L 196.737715 105.508727 
L 199.447194 105.334768 
L 202.156673 105.606144 
L 204.866152 105.315548 
L 207.57563 105.940718 
L 210.285109 105.737415 
L 212.994588 105.279287 
L 215.704067 104.876822 
L 218.413546 105.278692 
L 221.123024 105.83367 
L 223.832503 105.362965 
L 226.541982 105.814502 
L 229.251461 105.225962 
L 231.96094 105.409187 
L 234.670418 105.688828 
L 237.379897 105.342024 
L 240.089376 105.44318 
L 242.798855 105.994987 
L 245.508334 105.456136 
L 248.217812 105.89407 
L 250.927291 105.287143 
L 253.63677 105.428532 
L 256.346249 105.421386 
L 259.055728 105.34377 
L 261.765207 105.476412 
L 264.474685 105.618766 
L 267.184164 105.961627 
L 269.893643 105.606022 
L 272.603122 105.435188 
L 275.312601 105.448579 
L 278.022079 104.917507 
L 280.731558 105.778293 
L 283.441037 105.385363 
L 286.150516 105.404789 
L 288.859995 105.092329 
L 291.569473 105.362424 
L 294.278952 104.975782 
L 296.988431 105.361482 
L 299.69791 105.750112 
L 302.407389 105.403505 
L 305.116867 105.168569 
L 307.826346 105.576461 
L 310.535825 105.369254 
L 313.245304 105.631758 
L 315.954783 105.646814 
L 318.664261 105.738593 
L 321.37374 105.433613 
L 324.083219 105.587546 
L 326.792698 105.36816 
L 329.502177 105.590571 
L 332.211655 105.38779 
L 334.921134 104.935604 
L 337.630613 105.090944 
L 340.340092 106.011487 
L 343.049571 105.640112 
L 345.759049 105.745313 
L 348.468528 105.748126 
L 351.178007 105.399662 
L 353.887486 58.993627 
L 356.596965 44.543742 
L 359.306443 35.69625 
L 362.015922 39.424255 
L 364.725401 56.184832 
L 367.43488 83.193693 
L 370.144359 110.018788 
L 372.853837 128.139357 
L 375.563316 135.426383 
L 378.272795 134.335623 
L 380.982274 105.655249 
L 383.691753 105.006817 
L 386.401231 105.057353 
L 389.11071 105.601063 
" clip-path="url(#pf7d55379a4)" style="fill: none; stroke-dasharray: 5.55,2.4; stroke-dashoffset: 0; stroke: #2b737e; stroke-width: 1.5"/>
   </g>
   <g id="line2d_15">
    <path d="M 107.324915 105.608875 
L 110.034394 105.834314 
L 112.743872 104.817115 
L 115.453351 105.401379 
L 118.16283 105.81754 
L 120.872309 105.656662 
L 123.581788 105.168328 
L 126.291266 105.216898 
L 129.000745 105.137144 
L 131.710224 105.375578 
L 134.419703 105.548477 
L 137.129182 105.154202 
L 139.83866 105.076739 
L 142.548139 105.324124 
L 145.257618 105.24199 
L 147.967097 105.438242 
L 150.676576 105.834557 
L 153.386054 105.475642 
L 156.095533 105.200209 
L 158.805012 105.145035 
L 161.514491 105.638354 
L 164.22397 105.501171 
L 166.933448 105.137534 
L 169.642927 105.630323 
L 172.352406 105.567722 
L 175.061885 104.910278 
L 177.771364 105.941109 
L 180.480842 105.259091 
L 183.190321 104.879388 
L 185.8998 105.366695 
L 188.609279 104.951958 
L 191.318758 105.362181 
L 194.028236 105.441803 
L 196.737715 105.430158 
L 199.447194 105.676969 
L 202.156673 105.57378 
L 204.866152 105.421813 
L 207.57563 105.734683 
L 210.285109 105.516667 
L 212.994588 105.466571 
L 215.704067 105.395134 
L 218.413546 105.690061 
L 221.123024 105.869625 
L 223.832503 105.130356 
L 226.541982 105.626531 
L 229.251461 104.976904 
L 231.96094 105.45379 
L 234.670418 105.792467 
L 237.379897 105.709586 
L 240.089376 105.505346 
L 242.798855 105.629108 
L 245.508334 105.698691 
L 248.217812 105.292688 
L 250.927291 104.956351 
L 253.63677 104.901092 
L 256.346249 105.650624 
L 259.055728 105.263857 
L 261.765207 105.736515 
L 264.474685 105.924538 
L 267.184164 105.697693 
L 269.893643 105.802384 
L 272.603122 105.435442 
L 275.312601 105.060616 
L 278.022079 105.543687 
L 280.731558 105.66026 
L 283.441037 105.462689 
L 286.150516 105.380815 
L 288.859995 105.427639 
L 291.569473 105.316565 
L 294.278952 105.545016 
L 296.988431 105.66126 
L 299.69791 105.358823 
L 302.407389 105.343895 
L 305.116867 105.359182 
L 307.826346 105.277039 
L 310.535825 105.304393 
L 313.245304 105.00575 
L 315.954783 105.075895 
L 318.664261 105.233369 
L 321.37374 105.666202 
L 324.083219 104.886041 
L 326.792698 105.384405 
L 329.502177 105.01869 
L 332.211655 105.571156 
L 334.921134 105.522628 
L 337.630613 105.091952 
L 340.340092 105.936169 
L 343.049571 105.644065 
L 345.759049 105.535612 
L 348.468528 105.512042 
L 351.178007 105.827826 
L 353.887486 79.140424 
L 356.596965 64.069585 
L 359.306443 52.800545 
L 362.015922 54.100614 
L 364.725401 70.047064 
L 367.43488 97.743433 
L 370.144359 127.017018 
L 372.853837 146.816482 
L 375.563316 155.988395 
L 378.272795 154.710618 
L 380.982274 105.211383 
L 383.691753 105.003266 
L 386.401231 105.103413 
L 389.11071 105.649595 
" clip-path="url(#pf7d55379a4)" style="fill: none; stroke-dasharray: 5.55,2.4; stroke-dashoffset: 0; stroke: #5ea04b; stroke-width: 1.5"/>
   </g>
   <g id="line2d_16">
    <path d="M 107.324915 105.730894 
L 110.034394 105.028446 
L 112.743872 105.31162 
L 115.453351 105.279044 
L 118.16283 105.745143 
L 120.872309 104.905988 
L 123.581788 105.54527 
L 126.291266 105.337948 
L 129.000745 105.58698 
L 131.710224 105.610842 
L 134.419703 105.475293 
L 137.129182 105.504818 
L 139.83866 105.286279 
L 142.548139 105.333548 
L 145.257618 105.361162 
L 147.967097 105.615082 
L 150.676576 105.152323 
L 153.386054 105.715404 
L 156.095533 105.596873 
L 158.805012 105.224415 
L 161.514491 105.144667 
L 164.22397 105.579142 
L 166.933448 105.348341 
L 169.642927 105.533999 
L 172.352406 105.672602 
L 175.061885 105.675201 
L 177.771364 106.013884 
L 180.480842 105.430388 
L 183.190321 105.496671 
L 185.8998 105.357885 
L 188.609279 105.396392 
L 191.318758 105.345327 
L 194.028236 105.541745 
L 196.737715 105.763596 
L 199.447194 105.512505 
L 202.156673 105.400072 
L 204.866152 105.490246 
L 207.57563 105.344161 
L 210.285109 105.137472 
L 212.994588 105.997235 
L 215.704067 105.253509 
L 218.413546 105.243253 
L 221.123024 105.593731 
L 223.832503 105.179227 
L 226.541982 105.58846 
L 229.251461 105.303622 
L 231.96094 105.57366 
L 234.670418 105.412686 
L 237.379897 105.386804 
L 240.089376 105.253222 
L 242.798855 105.660619 
L 245.508334 105.806422 
L 248.217812 105.320937 
L 250.927291 105.726977 
L 253.63677 105.64403 
L 256.346249 105.666131 
L 259.055728 105.394272 
L 261.765207 105.485366 
L 264.474685 105.542515 
L 267.184164 105.580849 
L 269.893643 105.487864 
L 272.603122 104.929852 
L 275.312601 105.834393 
L 278.022079 105.304884 
L 280.731558 105.528032 
L 283.441037 105.428259 
L 286.150516 105.282022 
L 288.859995 105.306168 
L 291.569473 105.214247 
L 294.278952 105.48839 
L 296.988431 105.995136 
L 299.69791 105.540333 
L 302.407389 106.00137 
L 305.116867 105.692028 
L 307.826346 106.043005 
L 310.535825 105.688032 
L 313.245304 105.612123 
L 315.954783 105.118887 
L 318.664261 105.910521 
L 321.37374 105.288468 
L 324.083219 105.639138 
L 326.792698 105.766408 
L 329.502177 105.210992 
L 332.211655 105.439316 
L 334.921134 105.485563 
L 337.630613 105.343492 
L 340.340092 105.082578 
L 343.049571 105.19086 
L 345.759049 105.25141 
L 348.468528 105.598146 
L 351.178007 105.453449 
L 353.887486 166.702604 
L 356.596965 153.057764 
L 359.306443 126.591836 
L 362.015922 92.513459 
L 364.725401 59.917526 
L 367.43488 43.983029 
L 370.144359 48.728131 
L 372.853837 68.519168 
L 375.563316 92.939959 
L 378.272795 113.312418 
L 380.982274 105.426776 
L 383.691753 105.589041 
L 386.401231 105.440708 
L 389.11071 105.481405 
" clip-path="url(#pf7d55379a4)" style="fill: none; stroke-dasharray: 5.55,2.4; stroke-dashoffset: 0; stroke: #bdab62; stroke-width: 1.5"/>
   </g>
   <g id="patch_3">
    <path d="M 93.235625 241.036875 
L 93.235625 25.918125 
" style="fill: none; stroke: #000000; stroke-width: 0.8; stroke-linejoin: miter; stroke-linecap: square"/>
   </g>
   <g id="patch_4">
    <path d="M 403.2 241.036875 
L 403.2 25.918125 
" style="fill: none; stroke: #000000; stroke-width: 0.8; stroke-linejoin: miter; stroke-linecap: square"/>
   </g>
   <g id="patch_5">
    <path d="M 93.235625 241.036875 
L 403.2 241.036875 
" style="fill: none; stroke: #000000; stroke-width: 0.8; stroke-linejoin: miter; stroke-linecap: square"/>
   </g>
   <g id="patch_6">
    <path d="M 93.235625 25.918125 
L 403.2 25.918125 
" style="fill: none; stroke: #000000; stroke-width: 0.8; stroke-linejoin: miter; stroke-linecap: square"/>
   </g>
   <g id="text_13">
    <!-- Centered Dipole Model -->
    <g transform="translate(179.701562 19.918125) scale(0.12 -0.12)">
     <defs>
      <path id="DejaVuSans-43" d="M 4122 4306 
L 4122 3641 
Q 3803 3938 3442 4084 
Q 3081 4231 2675 4231 
Q 1875 4231 1450 3742 
Q 1025 3253 1025 2328 
Q 1025 1406 1450 917 
Q 1875 428 2675 428 
Q 3081 428 3442 575 
Q 3803 722 4122 1019 
L 4122 359 
Q 3791 134 3420 21 
Q 3050 -91 2638 -91 
Q 1578 -91 968 557 
Q 359 1206 359 2328 
Q 359 3453 968 4101 
Q 1578 4750 2638 4750 
Q 3056 4750 3426 4639 
Q 3797 4528 4122 4306 
z
" transform="scale(0.015625)"/>
      <path id="DejaVuSans-44" d="M 1259 4147 
L 1259 519 
L 2022 519 
Q 2988 519 3436 956 
Q 3884 1394 3884 2338 
Q 3884 3275 3436 3711 
Q 2988 4147 2022 4147 
L 1259 4147 
z
M 628 4666 
L 1925 4666 
Q 3281 4666 3915 4102 
Q 4550 3538 4550 2338 
Q 4550 1131 3912 565 
Q 3275 0 1925 0 
L 628 0 
L 628 4666 
z
" transform="scale(0.015625)"/>
      <path id="DejaVuSans-70" d="M 1159 525 
L 1159 -1331 
L 581 -1331 
L 581 3500 
L 1159 3500 
L 1159 2969 
Q 1341 3281 1617 3432 
Q 1894 3584 2278 3584 
Q 2916 3584 3314 3078 
Q 3713 2572 3713 1747 
Q 3713 922 3314 415 
Q 2916 -91 2278 -91 
Q 1894 -91 1617 61 
Q 1341 213 1159 525 
z
M 3116 1747 
Q 3116 2381 2855 2742 
Q 2594 3103 2138 3103 
Q 1681 3103 1420 2742 
Q 1159 2381 1159 1747 
Q 1159 1113 1420 752 
Q 1681 391 2138 391 
Q 2594 391 2855 752 
Q 3116 1113 3116 1747 
z
" transform="scale(0.015625)"/>
     </defs>
     <use xlink:href="#DejaVuSans-43"/>
     <use xlink:href="#DejaVuSans-65" x="69.824219"/>
     <use xlink:href="#DejaVuSans-6e" x="131.347656"/>
     <use xlink:href="#DejaVuSans-74" x="194.726562"/>
     <use xlink:href="#DejaVuSans-65" x="233.935547"/>
     <use xlink:href="#DejaVuSans-72" x="295.458984"/>
     <use xlink:href="#DejaVuSans-65" x="334.322266"/>
     <use xlink:href="#DejaVuSans-64" x="395.845703"/>
     <use xlink:href="#DejaVuSans-20" x="459.322266"/>
     <use xlink:href="#DejaVuSans-44" x="491.109375"/>
     <use xlink:href="#DejaVuSans-69" x="568.111328"/>
     <use xlink:href="#DejaVuSans-70" x="595.894531"/>
     <use xlink:href="#DejaVuSans-6f" x="659.371094"/>
     <use xlink:href="#DejaVuSans-6c" x="720.552734"/>
     <use xlink:href="#DejaVuSans-65" x="748.335938"/>
     <use xlink:href="#DejaVuSans-20" x="809.859375"/>
     <use xlink:href="#DejaVuSans-4d" x="841.646484"/>
     <use xlink:href="#DejaVuSans-6f" x="927.925781"/>
     <use xlink:href="#DejaVuSans-64" x="989.107422"/>
     <use xlink:href="#DejaVuSans-65" x="1052.583984"/>
     <use xlink:href="#DejaVuSans-6c" x="1114.107422"/>
    </g>
   </g>
   <g id="legend_1">
    <g id="patch_7">
     <path d="M 344.34 236.536875 
L 396.9 236.536875 
Q 398.7 236.536875 398.7 234.736875 
L 398.7 196.005938 
Q 398.7 194.205938 396.9 194.205938 
L 344.34 194.205938 
Q 342.54 194.205938 342.54 196.005938 
L 342.54 234.736875 
Q 342.54 236.536875 344.34 236.536875 
z
" style="fill: #ffffff; opacity: 0.8; stroke: #cccccc; stroke-linejoin: miter"/>
    </g>
    <g id="line2d_17">
     <path d="M 346.14 201.494531 
L 355.14 201.494531 
L 364.14 201.494531 
" style="fill: none; stroke: #2b737e; stroke-width: 1.5; stroke-linecap: square"/>
    </g>
    <g id="text_14">
     <!-- $TAM_{0}$ -->
     <g transform="translate(371.34 204.644531) scale(0.09 -0.09)">
      <defs>
       <path id="DejaVuSans-Oblique-54" d="M 378 4666 
L 4325 4666 
L 4225 4134 
L 2559 4134 
L 1759 0 
L 1125 0 
L 1925 4134 
L 275 4134 
L 378 4666 
z
" transform="scale(0.015625)"/>
       <path id="DejaVuSans-Oblique-41" d="M 2356 4666 
L 3072 4666 
L 3938 0 
L 3278 0 
L 3084 1197 
L 984 1197 
L 325 0 
L -341 0 
L 2356 4666 
z
M 2584 4044 
L 1275 1722 
L 2988 1722 
L 2584 4044 
z
" transform="scale(0.015625)"/>
       <path id="DejaVuSans-Oblique-4d" d="M 1081 4666 
L 2028 4666 
L 2572 1522 
L 4378 4666 
L 5350 4666 
L 4441 0 
L 3828 0 
L 4622 4091 
L 2791 897 
L 2175 897 
L 1581 4103 
L 788 0 
L 172 0 
L 1081 4666 
z
" transform="scale(0.015625)"/>
      </defs>
      <use xlink:href="#DejaVuSans-Oblique-54" transform="translate(0 0.09375)"/>
      <use xlink:href="#DejaVuSans-Oblique-41" transform="translate(61.083984 0.09375)"/>
      <use xlink:href="#DejaVuSans-Oblique-4d" transform="translate(129.492188 0.09375)"/>
      <use xlink:href="#DejaVuSans-30" transform="translate(215.771484 -16.3125) scale(0.7)"/>
     </g>
    </g>
    <g id="line2d_18">
     <path d="M 346.14 214.704844 
L 355.14 214.704844 
L 364.14 214.704844 
" style="fill: none; stroke: #5ea04b; stroke-width: 1.5; stroke-linecap: square"/>
    </g>
    <g id="text_15">
     <!-- $TAM_{1}$ -->
     <g transform="translate(371.34 217.854844) scale(0.09 -0.09)">
      <use xlink:href="#DejaVuSans-Oblique-54" transform="translate(0 0.09375)"/>
      <use xlink:href="#DejaVuSans-Oblique-41" transform="translate(61.083984 0.09375)"/>
      <use xlink:href="#DejaVuSans-Oblique-4d" transform="translate(129.492188 0.09375)"/>
      <use xlink:href="#DejaVuSans-31" transform="translate(215.771484 -16.3125) scale(0.7)"/>
     </g>
    </g>
    <g id="line2d_19">
     <path d="M 346.14 227.915156 
L 355.14 227.915156 
L 364.14 227.915156 
" style="fill: none; stroke: #bdab62; stroke-width: 1.5; stroke-linecap: square"/>
    </g>
    <g id="text_16">
     <!-- $TAM_{2}$ -->
     <g transform="translate(371.34 231.065156) scale(0.09 -0.09)">
      <use xlink:href="#DejaVuSans-Oblique-54" transform="translate(0 0.09375)"/>
      <use xlink:href="#DejaVuSans-Oblique-41" transform="translate(61.083984 0.09375)"/>
      <use xlink:href="#DejaVuSans-Oblique-4d" transform="translate(129.492188 0.09375)"/>
      <use xlink:href="#DejaVuSans-32" transform="translate(215.771484 -16.3125) scale(0.7)"/>
     </g>
    </g>
   </g>
  </g>
 </g>
 <defs>
  <clipPath id="pf7d55379a4">
   <rect x="93.235625" y="25.918125" width="309.964375" height="215.11875"/>
  </clipPath>
 </defs>
</svg>
