<?xml version="1.0" encoding="utf-8" standalone="no"?>
<!DOCTYPE svg PUBLIC "-//W3C//DTD SVG 1.1//EN"
  "http://www.w3.org/Graphics/SVG/1.1/DTD/svg11.dtd">
<svg xmlns:xlink="http://www.w3.org/1999/xlink" width="414pt" height="288pt" viewBox="0 0 414 288" xmlns="http://www.w3.org/2000/svg" version="1.1">
 <metadata>
  <rdf:RDF xmlns:dc="http://purl.org/dc/elements/1.1/" xmlns:cc="http://creativecommons.org/ns#" xmlns:rdf="http://www.w3.org/1999/02/22-rdf-syntax-ns#">
   <cc:Work>
    <dc:type rdf:resource="http://purl.org/dc/dcmitype/StillImage"/>
    <dc:date>2023-09-07T00:38:12.204136</dc:date>
    <dc:format>image/svg+xml</dc:format>
    <dc:creator>
     <cc:Agent>
      <dc:title>Matplotlib v3.7.2, https://matplotlib.org/</dc:title>
     </cc:Agent>
    </dc:creator>
   </cc:Work>
  </rdf:RDF>
 </metadata>
 <defs>
  <style type="text/css">*{stroke-linejoin: round; stroke-linecap: butt}</style>
 </defs>
 <g id="figure_1">
  <g id="patch_1">
   <path d="M 0 288 
L 414 288 
L 414 0 
L 0 0 
L 0 288 
z
" style="fill: none"/>
  </g>
  <g id="axes_1">
   <g id="patch_2">
    <path d="M 70.5525 241.036875 
L 390.360682 241.036875 
L 390.360682 10.8 
L 70.5525 10.8 
L 70.5525 241.036875 
z
" style="fill: none"/>
   </g>
   <g id="matplotlib.axis_1">
    <g id="xtick_1">
     <g id="line2d_1">
      <defs>
       <path id="m763102f5eb" d="M 0 0 
L 0 3.5 
" style="stroke: #000000; stroke-width: 0.8"/>
      </defs>
      <g>
       <use xlink:href="#m763102f5eb" x="85.089236" y="241.036875" style="stroke: #000000; stroke-width: 0.8"/>
      </g>
     </g>
     <g id="text_1">
      <!-- 0 -->
      <g transform="translate(79.999236 260.194375) scale(0.16 -0.16)">
       <defs>
        <path id="DejaVuSans-30" d="M 2034 4250 
Q 1547 4250 1301 3770 
Q 1056 3291 1056 2328 
Q 1056 1369 1301 889 
Q 1547 409 2034 409 
Q 2525 409 2770 889 
Q 3016 1369 3016 2328 
Q 3016 3291 2770 3770 
Q 2525 4250 2034 4250 
z
M 2034 4750 
Q 2819 4750 3233 4129 
Q 3647 3509 3647 2328 
Q 3647 1150 3233 529 
Q 2819 -91 2034 -91 
Q 1250 -91 836 529 
Q 422 1150 422 2328 
Q 422 3509 836 4129 
Q 1250 4750 2034 4750 
z
" transform="scale(0.015625)"/>
       </defs>
       <use xlink:href="#DejaVuSans-30"/>
      </g>
     </g>
    </g>
    <g id="xtick_2">
     <g id="line2d_2">
      <g>
       <use xlink:href="#m763102f5eb" x="145.658967" y="241.036875" style="stroke: #000000; stroke-width: 0.8"/>
      </g>
     </g>
     <g id="text_2">
      <!-- 50 -->
      <g transform="translate(135.478967 260.194375) scale(0.16 -0.16)">
       <defs>
        <path id="DejaVuSans-35" d="M 691 4666 
L 3169 4666 
L 3169 4134 
L 1269 4134 
L 1269 2991 
Q 1406 3038 1543 3061 
Q 1681 3084 1819 3084 
Q 2600 3084 3056 2656 
Q 3513 2228 3513 1497 
Q 3513 744 3044 326 
Q 2575 -91 1722 -91 
Q 1428 -91 1123 -41 
Q 819 9 494 109 
L 494 744 
Q 775 591 1075 516 
Q 1375 441 1709 441 
Q 2250 441 2565 725 
Q 2881 1009 2881 1497 
Q 2881 1984 2565 2268 
Q 2250 2553 1709 2553 
Q 1456 2553 1204 2497 
Q 953 2441 691 2322 
L 691 4666 
z
" transform="scale(0.015625)"/>
       </defs>
       <use xlink:href="#DejaVuSans-35"/>
       <use xlink:href="#DejaVuSans-30" x="63.623047"/>
      </g>
     </g>
    </g>
    <g id="xtick_3">
     <g id="line2d_3">
      <g>
       <use xlink:href="#m763102f5eb" x="206.228698" y="241.036875" style="stroke: #000000; stroke-width: 0.8"/>
      </g>
     </g>
     <g id="text_3">
      <!-- 100 -->
      <g transform="translate(190.958698 260.194375) scale(0.16 -0.16)">
       <defs>
        <path id="DejaVuSans-31" d="M 794 531 
L 1825 531 
L 1825 4091 
L 703 3866 
L 703 4441 
L 1819 4666 
L 2450 4666 
L 2450 531 
L 3481 531 
L 3481 0 
L 794 0 
L 794 531 
z
" transform="scale(0.015625)"/>
       </defs>
       <use xlink:href="#DejaVuSans-31"/>
       <use xlink:href="#DejaVuSans-30" x="63.623047"/>
       <use xlink:href="#DejaVuSans-30" x="127.246094"/>
      </g>
     </g>
    </g>
    <g id="xtick_4">
     <g id="line2d_4">
      <g>
       <use xlink:href="#m763102f5eb" x="266.79843" y="241.036875" style="stroke: #000000; stroke-width: 0.8"/>
      </g>
     </g>
     <g id="text_4">
      <!-- 150 -->
      <g transform="translate(251.52843 260.194375) scale(0.16 -0.16)">
       <use xlink:href="#DejaVuSans-31"/>
       <use xlink:href="#DejaVuSans-35" x="63.623047"/>
       <use xlink:href="#DejaVuSans-30" x="127.246094"/>
      </g>
     </g>
    </g>
    <g id="xtick_5">
     <g id="line2d_5">
      <g>
       <use xlink:href="#m763102f5eb" x="327.368161" y="241.036875" style="stroke: #000000; stroke-width: 0.8"/>
      </g>
     </g>
     <g id="text_5">
      <!-- 200 -->
      <g transform="translate(312.098161 260.194375) scale(0.16 -0.16)">
       <defs>
        <path id="DejaVuSans-32" d="M 1228 531 
L 3431 531 
L 3431 0 
L 469 0 
L 469 531 
Q 828 903 1448 1529 
Q 2069 2156 2228 2338 
Q 2531 2678 2651 2914 
Q 2772 3150 2772 3378 
Q 2772 3750 2511 3984 
Q 2250 4219 1831 4219 
Q 1534 4219 1204 4116 
Q 875 4013 500 3803 
L 500 4441 
Q 881 4594 1212 4672 
Q 1544 4750 1819 4750 
Q 2544 4750 2975 4387 
Q 3406 4025 3406 3419 
Q 3406 3131 3298 2873 
Q 3191 2616 2906 2266 
Q 2828 2175 2409 1742 
Q 1991 1309 1228 531 
z
" transform="scale(0.015625)"/>
       </defs>
       <use xlink:href="#DejaVuSans-32"/>
       <use xlink:href="#DejaVuSans-30" x="63.623047"/>
       <use xlink:href="#DejaVuSans-30" x="127.246094"/>
      </g>
     </g>
    </g>
    <g id="xtick_6">
     <g id="line2d_6">
      <g>
       <use xlink:href="#m763102f5eb" x="387.937893" y="241.036875" style="stroke: #000000; stroke-width: 0.8"/>
      </g>
     </g>
     <g id="text_6">
      <!-- 250 -->
      <g transform="translate(372.667893 260.194375) scale(0.16 -0.16)">
       <use xlink:href="#DejaVuSans-32"/>
       <use xlink:href="#DejaVuSans-35" x="63.623047"/>
       <use xlink:href="#DejaVuSans-30" x="127.246094"/>
      </g>
     </g>
    </g>
    <g id="text_7">
     <!-- Time [min] -->
     <g transform="translate(203.304247 275.120313) scale(0.1 -0.1)">
      <defs>
       <path id="DejaVuSans-54" d="M -19 4666 
L 3928 4666 
L 3928 4134 
L 2272 4134 
L 2272 0 
L 1638 0 
L 1638 4134 
L -19 4134 
L -19 4666 
z
" transform="scale(0.015625)"/>
       <path id="DejaVuSans-69" d="M 603 3500 
L 1178 3500 
L 1178 0 
L 603 0 
L 603 3500 
z
M 603 4863 
L 1178 4863 
L 1178 4134 
L 603 4134 
L 603 4863 
z
" transform="scale(0.015625)"/>
       <path id="DejaVuSans-6d" d="M 3328 2828 
Q 3544 3216 3844 3400 
Q 4144 3584 4550 3584 
Q 5097 3584 5394 3201 
Q 5691 2819 5691 2113 
L 5691 0 
L 5113 0 
L 5113 2094 
Q 5113 2597 4934 2840 
Q 4756 3084 4391 3084 
Q 3944 3084 3684 2787 
Q 3425 2491 3425 1978 
L 3425 0 
L 2847 0 
L 2847 2094 
Q 2847 2600 2669 2842 
Q 2491 3084 2119 3084 
Q 1678 3084 1418 2786 
Q 1159 2488 1159 1978 
L 1159 0 
L 581 0 
L 581 3500 
L 1159 3500 
L 1159 2956 
Q 1356 3278 1631 3431 
Q 1906 3584 2284 3584 
Q 2666 3584 2933 3390 
Q 3200 3197 3328 2828 
z
" transform="scale(0.015625)"/>
       <path id="DejaVuSans-65" d="M 3597 1894 
L 3597 1613 
L 953 1613 
Q 991 1019 1311 708 
Q 1631 397 2203 397 
Q 2534 397 2845 478 
Q 3156 559 3463 722 
L 3463 178 
Q 3153 47 2828 -22 
Q 2503 -91 2169 -91 
Q 1331 -91 842 396 
Q 353 884 353 1716 
Q 353 2575 817 3079 
Q 1281 3584 2069 3584 
Q 2775 3584 3186 3129 
Q 3597 2675 3597 1894 
z
M 3022 2063 
Q 3016 2534 2758 2815 
Q 2500 3097 2075 3097 
Q 1594 3097 1305 2825 
Q 1016 2553 972 2059 
L 3022 2063 
z
" transform="scale(0.015625)"/>
       <path id="DejaVuSans-20" transform="scale(0.015625)"/>
       <path id="DejaVuSans-5b" d="M 550 4863 
L 1875 4863 
L 1875 4416 
L 1125 4416 
L 1125 -397 
L 1875 -397 
L 1875 -844 
L 550 -844 
L 550 4863 
z
" transform="scale(0.015625)"/>
       <path id="DejaVuSans-6e" d="M 3513 2113 
L 3513 0 
L 2938 0 
L 2938 2094 
Q 2938 2591 2744 2837 
Q 2550 3084 2163 3084 
Q 1697 3084 1428 2787 
Q 1159 2491 1159 1978 
L 1159 0 
L 581 0 
L 581 3500 
L 1159 3500 
L 1159 2956 
Q 1366 3272 1645 3428 
Q 1925 3584 2291 3584 
Q 2894 3584 3203 3211 
Q 3513 2838 3513 2113 
z
" transform="scale(0.015625)"/>
       <path id="DejaVuSans-5d" d="M 1947 4863 
L 1947 -844 
L 622 -844 
L 622 -397 
L 1369 -397 
L 1369 4416 
L 622 4416 
L 622 4863 
L 1947 4863 
z
" transform="scale(0.015625)"/>
      </defs>
      <use xlink:href="#DejaVuSans-54"/>
      <use xlink:href="#DejaVuSans-69" x="57.958984"/>
      <use xlink:href="#DejaVuSans-6d" x="85.742188"/>
      <use xlink:href="#DejaVuSans-65" x="183.154297"/>
      <use xlink:href="#DejaVuSans-20" x="244.677734"/>
      <use xlink:href="#DejaVuSans-5b" x="276.464844"/>
      <use xlink:href="#DejaVuSans-6d" x="315.478516"/>
      <use xlink:href="#DejaVuSans-69" x="412.890625"/>
      <use xlink:href="#DejaVuSans-6e" x="440.673828"/>
      <use xlink:href="#DejaVuSans-5d" x="504.052734"/>
     </g>
    </g>
   </g>
   <g id="matplotlib.axis_2">
    <g id="ytick_1">
     <g id="line2d_7">
      <defs>
       <path id="m9dd67b2245" d="M 0 0 
L -3.5 0 
" style="stroke: #000000; stroke-width: 0.8"/>
      </defs>
      <g>
       <use xlink:href="#m9dd67b2245" x="70.5525" y="191.539471" style="stroke: #000000; stroke-width: 0.8"/>
      </g>
     </g>
     <g id="text_8">
      <!-- −0.5 -->
      <g transform="translate(24.7 197.618221) scale(0.16 -0.16)">
       <defs>
        <path id="DejaVuSans-2212" d="M 678 2272 
L 4684 2272 
L 4684 1741 
L 678 1741 
L 678 2272 
z
" transform="scale(0.015625)"/>
        <path id="DejaVuSans-2e" d="M 684 794 
L 1344 794 
L 1344 0 
L 684 0 
L 684 794 
z
" transform="scale(0.015625)"/>
       </defs>
       <use xlink:href="#DejaVuSans-2212"/>
       <use xlink:href="#DejaVuSans-30" x="83.789062"/>
       <use xlink:href="#DejaVuSans-2e" x="147.412109"/>
       <use xlink:href="#DejaVuSans-35" x="179.199219"/>
      </g>
     </g>
    </g>
    <g id="ytick_2">
     <g id="line2d_8">
      <g>
       <use xlink:href="#m9dd67b2245" x="70.5525" y="125.794711" style="stroke: #000000; stroke-width: 0.8"/>
      </g>
     </g>
     <g id="text_9">
      <!-- 0.0 -->
      <g transform="translate(38.1075 131.873461) scale(0.16 -0.16)">
       <use xlink:href="#DejaVuSans-30"/>
       <use xlink:href="#DejaVuSans-2e" x="63.623047"/>
       <use xlink:href="#DejaVuSans-30" x="95.410156"/>
      </g>
     </g>
    </g>
    <g id="ytick_3">
     <g id="line2d_9">
      <g>
       <use xlink:href="#m9dd67b2245" x="70.5525" y="60.049951" style="stroke: #000000; stroke-width: 0.8"/>
      </g>
     </g>
     <g id="text_10">
      <!-- 0.5 -->
      <g transform="translate(38.1075 66.128701) scale(0.16 -0.16)">
       <use xlink:href="#DejaVuSans-30"/>
       <use xlink:href="#DejaVuSans-2e" x="63.623047"/>
       <use xlink:href="#DejaVuSans-35" x="95.410156"/>
      </g>
     </g>
    </g>
    <g id="text_11">
     <!-- Attitude $\sigma_{B/N}$ -->
     <g transform="translate(18.4 157.168437) rotate(-90) scale(0.1 -0.1)">
      <defs>
       <path id="DejaVuSans-41" d="M 2188 4044 
L 1331 1722 
L 3047 1722 
L 2188 4044 
z
M 1831 4666 
L 2547 4666 
L 4325 0 
L 3669 0 
L 3244 1197 
L 1141 1197 
L 716 0 
L 50 0 
L 1831 4666 
z
" transform="scale(0.015625)"/>
       <path id="DejaVuSans-74" d="M 1172 4494 
L 1172 3500 
L 2356 3500 
L 2356 3053 
L 1172 3053 
L 1172 1153 
Q 1172 725 1289 603 
Q 1406 481 1766 481 
L 2356 481 
L 2356 0 
L 1766 0 
Q 1100 0 847 248 
Q 594 497 594 1153 
L 594 3053 
L 172 3053 
L 172 3500 
L 594 3500 
L 594 4494 
L 1172 4494 
z
" transform="scale(0.015625)"/>
       <path id="DejaVuSans-75" d="M 544 1381 
L 544 3500 
L 1119 3500 
L 1119 1403 
Q 1119 906 1312 657 
Q 1506 409 1894 409 
Q 2359 409 2629 706 
Q 2900 1003 2900 1516 
L 2900 3500 
L 3475 3500 
L 3475 0 
L 2900 0 
L 2900 538 
Q 2691 219 2414 64 
Q 2138 -91 1772 -91 
Q 1169 -91 856 284 
Q 544 659 544 1381 
z
M 1991 3584 
L 1991 3584 
z
" transform="scale(0.015625)"/>
       <path id="DejaVuSans-64" d="M 2906 2969 
L 2906 4863 
L 3481 4863 
L 3481 0 
L 2906 0 
L 2906 525 
Q 2725 213 2448 61 
Q 2172 -91 1784 -91 
Q 1150 -91 751 415 
Q 353 922 353 1747 
Q 353 2572 751 3078 
Q 1150 3584 1784 3584 
Q 2172 3584 2448 3432 
Q 2725 3281 2906 2969 
z
M 947 1747 
Q 947 1113 1208 752 
Q 1469 391 1925 391 
Q 2381 391 2643 752 
Q 2906 1113 2906 1747 
Q 2906 2381 2643 2742 
Q 2381 3103 1925 3103 
Q 1469 3103 1208 2742 
Q 947 2381 947 1747 
z
" transform="scale(0.015625)"/>
       <path id="DejaVuSans-Oblique-3c3" d="M 2219 3044 
Q 1744 3044 1422 2700 
Q 1081 2341 969 1747 
Q 844 1119 1044 756 
Q 1241 397 1706 397 
Q 2166 397 2503 759 
Q 2844 1122 2966 1747 
Q 3075 2319 2881 2700 
Q 2700 3044 2219 3044 
z
M 2309 3503 
L 4219 3500 
L 4106 2925 
L 3463 2925 
Q 3706 2438 3575 1747 
Q 3406 888 2884 400 
Q 2359 -91 1609 -91 
Q 856 -91 525 400 
Q 194 888 363 1747 
Q 528 2609 1050 3097 
Q 1484 3503 2309 3503 
z
" transform="scale(0.015625)"/>
       <path id="DejaVuSans-Oblique-42" d="M 1081 4666 
L 2694 4666 
Q 3350 4666 3675 4422 
Q 4000 4178 4000 3688 
Q 4000 3238 3720 2911 
Q 3441 2584 2988 2516 
Q 3375 2428 3569 2181 
Q 3763 1934 3763 1522 
Q 3763 819 3242 409 
Q 2722 0 1819 0 
L 172 0 
L 1081 4666 
z
M 1234 2228 
L 903 519 
L 1919 519 
Q 2491 519 2800 781 
Q 3109 1044 3109 1522 
Q 3109 1891 2904 2059 
Q 2700 2228 2247 2228 
L 1234 2228 
z
M 1606 4147 
L 1331 2741 
L 2272 2741 
Q 2775 2741 3058 2959 
Q 3341 3178 3341 3566 
Q 3341 3869 3150 4008 
Q 2959 4147 2541 4147 
L 1606 4147 
z
" transform="scale(0.015625)"/>
       <path id="DejaVuSans-2f" d="M 1625 4666 
L 2156 4666 
L 531 -594 
L 0 -594 
L 1625 4666 
z
" transform="scale(0.015625)"/>
       <path id="DejaVuSans-Oblique-4e" d="M 1081 4666 
L 1931 4666 
L 3219 666 
L 4000 4666 
L 4616 4666 
L 3706 0 
L 2853 0 
L 1569 4025 
L 788 0 
L 172 0 
L 1081 4666 
z
" transform="scale(0.015625)"/>
      </defs>
      <use xlink:href="#DejaVuSans-41" transform="translate(0 0.015625)"/>
      <use xlink:href="#DejaVuSans-74" transform="translate(68.408203 0.015625)"/>
      <use xlink:href="#DejaVuSans-74" transform="translate(107.617188 0.015625)"/>
      <use xlink:href="#DejaVuSans-69" transform="translate(146.826172 0.015625)"/>
      <use xlink:href="#DejaVuSans-74" transform="translate(174.609375 0.015625)"/>
      <use xlink:href="#DejaVuSans-75" transform="translate(213.818359 0.015625)"/>
      <use xlink:href="#DejaVuSans-64" transform="translate(277.197266 0.015625)"/>
      <use xlink:href="#DejaVuSans-65" transform="translate(340.673828 0.015625)"/>
      <use xlink:href="#DejaVuSans-20" transform="translate(402.197266 0.015625)"/>
      <use xlink:href="#DejaVuSans-Oblique-3c3" transform="translate(433.984375 0.015625)"/>
      <use xlink:href="#DejaVuSans-Oblique-42" transform="translate(497.363281 -16.390625) scale(0.7)"/>
      <use xlink:href="#DejaVuSans-2f" transform="translate(545.385742 -16.390625) scale(0.7)"/>
      <use xlink:href="#DejaVuSans-Oblique-4e" transform="translate(568.969727 -16.390625) scale(0.7)"/>
     </g>
    </g>
   </g>
   <g id="line2d_10">
    <path d="M 85.089236 138.813475 
L 85.291135 112.160638 
L 85.896832 109.305312 
L 86.098731 109.093208 
L 86.30063 109.203522 
L 86.704428 109.922145 
L 87.512025 111.547943 
L 88.117722 112.300097 
L 88.723419 112.675172 
L 89.531016 112.831415 
L 90.94431 112.780533 
L 94.376594 112.656466 
L 108.509532 112.645759 
L 132.131727 112.645759 
L 132.333626 112.399637 
L 132.535525 110.98599 
L 133.141222 102.85022 
L 133.948819 91.652 
L 134.554516 85.807167 
L 135.160213 82.15478 
L 135.765911 80.098079 
L 136.371608 79.046832 
L 136.977305 78.565327 
L 137.583003 78.37701 
L 138.592498 78.322013 
L 142.226682 78.388372 
L 142.428581 78.648682 
L 142.63048 80.152724 
L 143.236178 88.671018 
L 144.043774 99.915792 
L 144.649471 105.595184 
L 145.255169 109.089711 
L 145.860866 111.041396 
L 146.466563 112.034658 
L 147.072261 112.488243 
L 147.879857 112.69032 
L 149.293151 112.700561 
L 154.744427 112.645738 
L 216.929351 112.645759 
L 217.13125 112.858993 
L 217.333149 113.869519 
L 217.736947 118.371412 
L 218.140746 126.645353 
L 219.755938 167.015277 
L 220.361636 175.55782 
L 220.967333 180.681536 
L 221.57303 183.514954 
L 222.178728 184.979528 
L 222.784425 185.690244 
L 223.390122 186.01231 
L 224.197719 186.168019 
L 226.014811 186.203161 
L 227.024306 186.183043 
L 227.226205 184.738131 
L 227.630003 175.846293 
L 229.043297 132.087942 
L 229.648994 122.993715 
L 230.254692 118.098365 
L 230.456591 117.051524 
L 230.65849 116.593461 
L 230.860389 117.492317 
L 231.264187 123.1081 
L 232.273683 141.066289 
L 232.677481 145.037234 
L 233.081279 147.035062 
L 233.283178 147.418718 
L 233.485077 147.462577 
L 233.686977 147.215572 
L 234.090775 146.019467 
L 234.696472 142.967521 
L 235.504069 137.451039 
L 236.715463 127.327843 
L 237.926858 115.373977 
L 239.138252 101.243063 
L 240.349647 84.201739 
L 241.359143 67.01979 
L 241.561042 185.268182 
L 241.96484 185.314956 
L 242.368638 185.057791 
L 242.772436 184.542916 
L 243.378134 183.367775 
L 244.18573 181.194946 
L 245.195226 177.72371 
L 246.40662 172.697471 
L 247.819914 165.850331 
L 249.435107 156.798308 
L 251.0503 146.290572 
L 252.463593 135.606799 
L 253.876887 123.088771 
L 255.088282 110.411929 
L 256.299676 95.314545 
L 257.511071 76.945655 
L 257.914869 69.899667 
L 258.116768 185.147488 
L 258.520566 185.327766 
L 258.924365 185.183375 
L 259.328163 184.764379 
L 259.93386 183.708071 
L 260.741457 181.659305 
L 261.750952 178.30674 
L 262.962347 173.392517 
L 264.37564 166.658565 
L 265.990833 157.737609 
L 267.606026 147.385186 
L 269.01932 136.875763 
L 270.432614 124.589045 
L 271.644008 112.177391 
L 272.855403 97.434503 
L 274.066798 79.547166 
L 274.672495 69.080108 
L 274.874394 185.176108 
L 275.278192 185.31796 
L 275.68199 185.141257 
L 276.085789 184.694919 
L 276.691486 183.604937 
L 277.499082 181.521353 
L 278.508578 178.135913 
L 279.719972 173.191087 
L 281.133266 166.426476 
L 282.748459 157.469908 
L 284.363652 147.074768 
L 285.776946 136.516778 
L 287.190239 124.164965 
L 288.401634 111.678108 
L 289.613029 96.83411 
L 290.824423 78.808735 
L 291.430121 68.254205 
L 291.63202 185.199021 
L 292.035818 185.303252 
L 292.439616 185.0949 
L 292.843414 184.62177 
L 293.449112 183.49877 
L 294.256708 181.381006 
L 295.266204 177.963226 
L 296.477598 172.988189 
L 297.890892 166.193151 
L 299.506085 157.201028 
L 301.121278 146.76303 
L 301.928874 141.573736 
L 302.130773 142.390115 
L 302.332672 144.824098 
L 302.73647 153.71426 
L 303.544067 172.410656 
L 304.149764 181.524544 
L 304.755461 187.151957 
L 305.361159 190.451236 
L 305.966856 192.307406 
L 306.572553 193.316793 
L 307.178251 193.851058 
L 307.985847 194.18668 
L 309.197242 194.359307 
L 309.802939 194.390122 
L 310.004838 194.285937 
L 310.206737 193.522655 
L 310.812435 189.233397 
L 311.620031 183.655729 
L 312.225728 180.87499 
L 312.831426 179.174121 
L 313.437123 178.220473 
L 314.04282 177.727459 
L 314.850417 177.455365 
L 316.061811 177.387565 
L 319.897894 177.582292 
L 355.432137 179.441302 
L 375.823946 180.422677 
L 375.823946 180.422677 
" clip-path="url(#pf12c581a7e)" style="fill: none; stroke: #2b737e; stroke-width: 1.5; stroke-linecap: square"/>
   </g>
   <g id="line2d_11">
    <path d="M 85.089236 203.907297 
L 85.291135 47.908747 
L 85.493034 51.173239 
L 86.906327 84.115374 
L 87.512025 90.805545 
L 88.117722 94.644183 
L 88.723419 96.816241 
L 89.329117 98.030067 
L 89.934814 98.700426 
L 90.540511 99.066802 
L 91.348108 99.308586 
L 92.761402 99.452263 
L 96.395585 99.495457 
L 132.131727 99.496807 
L 132.333626 99.653665 
L 132.535525 100.634895 
L 132.939323 105.170036 
L 134.352617 125.187914 
L 134.958314 130.521535 
L 135.564012 133.758611 
L 136.169709 135.527741 
L 136.775406 136.402934 
L 137.381104 136.789062 
L 138.1887 136.95235 
L 140.005792 136.94446 
L 142.226682 136.914993 
L 142.428581 136.647743 
L 142.63048 135.064499 
L 143.034279 128.793432 
L 143.841875 115.169909 
L 144.447572 108.254942 
L 145.05327 104.051398 
L 145.658967 101.694887 
L 146.264664 100.462152 
L 146.870362 99.86327 
L 147.476059 99.598266 
L 148.485554 99.472625 
L 152.119738 99.49395 
L 189.471073 99.496807 
L 216.929351 99.496807 
L 217.13125 99.835758 
L 217.333149 101.463528 
L 217.736947 108.2301 
L 218.140746 118.81695 
L 219.554039 162.762023 
L 220.159737 174.411052 
L 220.765434 181.645116 
L 221.371131 185.888789 
L 221.976829 188.300994 
L 222.582526 189.650294 
L 223.188223 190.400819 
L 223.79392 190.819086 
L 224.601517 191.106809 
L 225.812912 191.28134 
L 227.024306 191.332061 
L 227.226205 190.262445 
L 227.428104 187.246897 
L 227.831903 175.012493 
L 229.043297 125.719286 
L 229.648994 113.274702 
L 230.254692 106.391119 
L 230.860389 101.579626 
L 231.667986 93.911122 
L 232.273683 90.496129 
L 232.87938 88.440303 
L 234.898371 82.666839 
L 237.32116 75.003714 
L 238.128757 73.07979 
L 238.936353 71.740796 
L 239.542051 71.224614 
L 239.945849 71.16389 
L 240.349647 71.370037 
L 240.753445 71.885433 
L 241.157243 72.76139 
L 241.359143 73.35355 
L 241.561042 174.936443 
L 242.772436 155.111088 
L 243.983831 139.211392 
L 245.195226 126.181027 
L 246.40662 115.292884 
L 247.819914 104.638083 
L 249.233208 95.69198 
L 250.646501 88.129572 
L 252.059795 81.789784 
L 253.27119 77.322875 
L 254.280685 74.360108 
L 255.088282 72.58275 
L 255.693979 71.669051 
L 256.299676 71.191365 
L 256.703475 71.160703 
L 257.107273 71.40086 
L 257.511071 71.955033 
L 257.914869 72.875671 
L 258.116768 177.862005 
L 259.126264 160.514651 
L 260.337658 143.582054 
L 261.549053 129.791167 
L 262.760448 118.329938 
L 264.173741 107.166708 
L 265.587035 97.824525 
L 267.000329 89.931705 
L 268.413623 83.287461 
L 269.625017 78.548482 
L 270.634513 75.325455 
L 271.442109 73.298309 
L 272.249706 71.86438 
L 272.855403 71.264968 
L 273.259201 71.138498 
L 273.662999 71.268176 
L 274.066798 71.694067 
L 274.470596 72.464814 
L 274.672495 72.997505 
L 274.874394 177.009485 
L 276.085789 156.757313 
L 277.297183 140.548588 
L 278.508578 127.289852 
L 279.719972 116.228765 
L 281.133266 105.419458 
L 282.54656 96.351769 
L 283.959854 88.686557 
L 285.373147 82.25046 
L 286.584542 77.696108 
L 287.594038 74.648728 
L 288.401634 72.789594 
L 289.007331 71.802138 
L 289.613029 71.235917 
L 290.016827 71.135625 
L 290.420625 71.295545 
L 290.824423 71.756622 
L 291.228221 72.568569 
L 291.430121 73.124511 
L 291.63202 176.164711 
L 292.843414 156.090514 
L 294.054809 140.010369 
L 295.266204 126.846197 
L 296.477598 115.856218 
L 297.890892 105.109773 
L 299.304186 96.090795 
L 300.717479 88.465976 
L 301.726975 83.773865 
L 301.928874 83.291411 
L 302.130773 83.763526 
L 302.332672 85.159507 
L 302.73647 90.111833 
L 303.947865 107.180092 
L 304.553562 112.755752 
L 305.15926 116.444874 
L 305.764957 118.817016 
L 306.370654 120.325342 
L 306.976352 121.279175 
L 307.582049 121.879437 
L 308.389645 122.345347 
L 309.399141 122.631553 
L 310.206737 122.802167 
L 310.812435 123.250379 
L 312.225728 124.413037 
L 313.235224 124.869098 
L 314.648518 125.17267 
L 331.204244 127.499765 
L 357.653027 131.44272 
L 375.823946 134.287983 
L 375.823946 134.287983 
" clip-path="url(#pf12c581a7e)" style="fill: none; stroke: #5ea04b; stroke-width: 1.5; stroke-linecap: square"/>
   </g>
   <g id="line2d_12">
    <path d="M 85.089236 21.644596 
L 85.291135 229.792932 
L 85.493034 225.931756 
L 86.906327 185.431245 
L 87.512025 176.945082 
L 88.117722 172.026135 
L 88.723419 169.184499 
L 89.329117 167.539768 
L 89.934814 166.585051 
L 90.540511 166.029217 
L 91.348108 165.629745 
L 92.357603 165.402887 
L 94.174695 165.275204 
L 99.424072 165.241927 
L 132.131727 165.241567 
L 132.333626 165.370163 
L 132.535525 166.165634 
L 132.939323 169.388526 
L 133.74692 176.436229 
L 134.352617 179.930914 
L 134.958314 181.993168 
L 135.564012 183.127055 
L 136.169709 183.722079 
L 136.775406 184.021059 
L 137.784902 184.212249 
L 139.803893 184.26591 
L 142.428581 184.22158 
L 142.63048 183.874486 
L 143.034279 181.714868 
L 144.649471 170.293975 
L 145.255169 167.95249 
L 145.860866 166.580382 
L 146.466563 165.844546 
L 147.072261 165.481714 
L 147.879857 165.28978 
L 149.49505 165.23103 
L 193.912853 165.241567 
L 216.929351 165.241567 
L 217.13125 165.409288 
L 217.333149 166.292526 
L 217.535048 168.038593 
L 217.938846 174.656365 
L 219.150241 202.535569 
L 219.554039 207.211669 
L 219.957837 210.147134 
L 220.563535 212.747718 
L 221.169232 214.290103 
L 221.774929 215.306235 
L 222.582526 216.171983 
L 223.390122 216.672556 
L 224.399618 216.991662 
L 225.812912 217.160565 
L 227.024306 217.206599 
L 227.630003 217.671643 
L 227.831903 216.669379 
L 228.033802 214.137418 
L 228.841398 195.634338 
L 229.447095 184.18598 
L 230.052793 176.620502 
L 231.264187 165.351092 
L 231.869885 154.825528 
L 233.485077 125.198181 
L 234.696472 108.437617 
L 240.147748 39.563665 
L 241.359143 21.265312 
L 241.561042 228.122561 
L 243.378134 201.484079 
L 245.397125 175.330615 
L 247.819914 147.085845 
L 254.482584 71.460569 
L 256.299676 47.524246 
L 257.914869 23.711029 
L 258.116768 230.571562 
L 259.93386 203.648229 
L 261.952851 177.251612 
L 264.37564 148.842135 
L 271.442109 68.348797 
L 273.259201 44.043207 
L 274.672495 22.99798 
L 274.874394 229.855435 
L 276.691486 203.015143 
L 278.710477 176.689788 
L 281.133266 148.328874 
L 287.997836 70.317044 
L 289.814928 46.245676 
L 291.430121 22.281828 
L 291.63202 229.141594 
L 293.449112 202.383971 
L 295.468103 176.129155 
L 297.890892 147.816012 
L 301.726975 105.406632 
L 301.928874 104.152915 
L 302.130773 105.379708 
L 302.534571 114.331697 
L 303.544067 142.767137 
L 304.149764 153.523484 
L 304.755461 160.307005 
L 305.361159 164.471731 
L 305.966856 166.984006 
L 306.572553 168.478521 
L 307.178251 169.358159 
L 307.783948 169.872147 
L 308.591544 170.239981 
L 310.004838 170.534102 
L 310.408636 171.345918 
L 311.418132 173.908959 
L 312.023829 174.873102 
L 312.629527 175.47611 
L 313.437123 175.956897 
L 314.648518 176.366567 
L 317.071307 176.876709 
L 337.059318 180.471876 
L 375.823946 187.592495 
L 375.823946 187.592495 
" clip-path="url(#pf12c581a7e)" style="fill: none; stroke: #bdab62; stroke-width: 1.5; stroke-linecap: square"/>
   </g>
   <g id="patch_3">
    <path d="M 70.5525 241.036875 
L 70.5525 10.8 
" style="fill: none; stroke: #000000; stroke-width: 0.8; stroke-linejoin: miter; stroke-linecap: square"/>
   </g>
   <g id="patch_4">
    <path d="M 390.360682 241.036875 
L 390.360682 10.8 
" style="fill: none; stroke: #000000; stroke-width: 0.8; stroke-linejoin: miter; stroke-linecap: square"/>
   </g>
   <g id="patch_5">
    <path d="M 70.5525 241.036875 
L 390.360682 241.036875 
" style="fill: none; stroke: #000000; stroke-width: 0.8; stroke-linejoin: miter; stroke-linecap: square"/>
   </g>
   <g id="patch_6">
    <path d="M 70.5525 10.8 
L 390.360682 10.8 
" style="fill: none; stroke: #000000; stroke-width: 0.8; stroke-linejoin: miter; stroke-linecap: square"/>
   </g>
   <g id="legend_1">
    <g id="patch_7">
     <path d="M 345.270682 236.536875 
L 384.060682 236.536875 
Q 385.860682 236.536875 385.860682 234.736875 
L 385.860682 196.005938 
Q 385.860682 194.205938 384.060682 194.205938 
L 345.270682 194.205938 
Q 343.470682 194.205938 343.470682 196.005938 
L 343.470682 234.736875 
Q 343.470682 236.536875 345.270682 236.536875 
z
" style="fill: #ffffff; opacity: 0.8; stroke: #cccccc; stroke-linejoin: miter"/>
    </g>
    <g id="line2d_13">
     <path d="M 347.070682 201.494531 
L 356.070682 201.494531 
L 365.070682 201.494531 
" style="fill: none; stroke: #2b737e; stroke-width: 1.5; stroke-linecap: square"/>
    </g>
    <g id="text_12">
     <!-- $\sigma_1$ -->
     <g transform="translate(372.270682 204.644531) scale(0.09 -0.09)">
      <use xlink:href="#DejaVuSans-Oblique-3c3" transform="translate(0 0.265625)"/>
      <use xlink:href="#DejaVuSans-31" transform="translate(63.378906 -16.140625) scale(0.7)"/>
     </g>
    </g>
    <g id="line2d_14">
     <path d="M 347.070682 214.704844 
L 356.070682 214.704844 
L 365.070682 214.704844 
" style="fill: none; stroke: #5ea04b; stroke-width: 1.5; stroke-linecap: square"/>
    </g>
    <g id="text_13">
     <!-- $\sigma_2$ -->
     <g transform="translate(372.270682 217.854844) scale(0.09 -0.09)">
      <use xlink:href="#DejaVuSans-Oblique-3c3" transform="translate(0 0.265625)"/>
      <use xlink:href="#DejaVuSans-32" transform="translate(63.378906 -16.140625) scale(0.7)"/>
     </g>
    </g>
    <g id="line2d_15">
     <path d="M 347.070682 227.915156 
L 356.070682 227.915156 
L 365.070682 227.915156 
" style="fill: none; stroke: #bdab62; stroke-width: 1.5; stroke-linecap: square"/>
    </g>
    <g id="text_14">
     <!-- $\sigma_3$ -->
     <g transform="translate(372.270682 231.065156) scale(0.09 -0.09)">
      <defs>
       <path id="DejaVuSans-33" d="M 2597 2516 
Q 3050 2419 3304 2112 
Q 3559 1806 3559 1356 
Q 3559 666 3084 287 
Q 2609 -91 1734 -91 
Q 1441 -91 1130 -33 
Q 819 25 488 141 
L 488 750 
Q 750 597 1062 519 
Q 1375 441 1716 441 
Q 2309 441 2620 675 
Q 2931 909 2931 1356 
Q 2931 1769 2642 2001 
Q 2353 2234 1838 2234 
L 1294 2234 
L 1294 2753 
L 1863 2753 
Q 2328 2753 2575 2939 
Q 2822 3125 2822 3475 
Q 2822 3834 2567 4026 
Q 2313 4219 1838 4219 
Q 1578 4219 1281 4162 
Q 984 4106 628 3988 
L 628 4550 
Q 988 4650 1302 4700 
Q 1616 4750 1894 4750 
Q 2613 4750 3031 4423 
Q 3450 4097 3450 3541 
Q 3450 3153 3228 2886 
Q 3006 2619 2597 2516 
z
" transform="scale(0.015625)"/>
      </defs>
      <use xlink:href="#DejaVuSans-Oblique-3c3" transform="translate(0 0.265625)"/>
      <use xlink:href="#DejaVuSans-33" transform="translate(63.378906 -16.140625) scale(0.7)"/>
     </g>
    </g>
   </g>
  </g>
 </g>
 <defs>
  <clipPath id="pf12c581a7e">
   <rect x="70.5525" y="10.8" width="319.808182" height="230.236875"/>
  </clipPath>
 </defs>
</svg>
