<?xml version="1.0" encoding="utf-8" standalone="no"?>
<!DOCTYPE svg PUBLIC "-//W3C//DTD SVG 1.1//EN"
  "http://www.w3.org/Graphics/SVG/1.1/DTD/svg11.dtd">
<svg xmlns:xlink="http://www.w3.org/1999/xlink" width="414pt" height="288pt" viewBox="0 0 414 288" xmlns="http://www.w3.org/2000/svg" version="1.1">
 <metadata>
  <rdf:RDF xmlns:dc="http://purl.org/dc/elements/1.1/" xmlns:cc="http://creativecommons.org/ns#" xmlns:rdf="http://www.w3.org/1999/02/22-rdf-syntax-ns#">
   <cc:Work>
    <dc:type rdf:resource="http://purl.org/dc/dcmitype/StillImage"/>
    <dc:date>2023-09-07T00:34:34.275441</dc:date>
    <dc:format>image/svg+xml</dc:format>
    <dc:creator>
     <cc:Agent>
      <dc:title>Matplotlib v3.7.2, https://matplotlib.org/</dc:title>
     </cc:Agent>
    </dc:creator>
   </cc:Work>
  </rdf:RDF>
 </metadata>
 <defs>
  <style type="text/css">*{stroke-linejoin: round; stroke-linecap: butt}</style>
 </defs>
 <g id="figure_1">
  <g id="patch_1">
   <path d="M 0 288 
L 414 288 
L 414 0 
L 0 0 
L 0 288 
z
" style="fill: none"/>
  </g>
  <g id="axes_1">
   <g id="patch_2">
    <path d="M 55.0875 241.036875 
L 403.2 241.036875 
L 403.2 12.631897 
L 55.0875 12.631897 
L 55.0875 241.036875 
z
" style="fill: none"/>
   </g>
   <g id="matplotlib.axis_1">
    <g id="xtick_1">
     <g id="line2d_1">
      <defs>
       <path id="ma25df58cf4" d="M 0 0 
L 0 3.5 
" style="stroke: #000000; stroke-width: 0.8"/>
      </defs>
      <g>
       <use xlink:href="#ma25df58cf4" x="70.910795" y="241.036875" style="stroke: #000000; stroke-width: 0.8"/>
      </g>
     </g>
     <g id="text_1">
      <!-- 0 -->
      <g transform="translate(65.820795 260.194375) scale(0.16 -0.16)">
       <defs>
        <path id="DejaVuSans-30" d="M 2034 4250 
Q 1547 4250 1301 3770 
Q 1056 3291 1056 2328 
Q 1056 1369 1301 889 
Q 1547 409 2034 409 
Q 2525 409 2770 889 
Q 3016 1369 3016 2328 
Q 3016 3291 2770 3770 
Q 2525 4250 2034 4250 
z
M 2034 4750 
Q 2819 4750 3233 4129 
Q 3647 3509 3647 2328 
Q 3647 1150 3233 529 
Q 2819 -91 2034 -91 
Q 1250 -91 836 529 
Q 422 1150 422 2328 
Q 422 3509 836 4129 
Q 1250 4750 2034 4750 
z
" transform="scale(0.015625)"/>
       </defs>
       <use xlink:href="#DejaVuSans-30"/>
      </g>
     </g>
    </g>
    <g id="xtick_2">
     <g id="line2d_2">
      <g>
       <use xlink:href="#ma25df58cf4" x="150.027273" y="241.036875" style="stroke: #000000; stroke-width: 0.8"/>
      </g>
     </g>
     <g id="text_2">
      <!-- 5 -->
      <g transform="translate(144.937273 260.194375) scale(0.16 -0.16)">
       <defs>
        <path id="DejaVuSans-35" d="M 691 4666 
L 3169 4666 
L 3169 4134 
L 1269 4134 
L 1269 2991 
Q 1406 3038 1543 3061 
Q 1681 3084 1819 3084 
Q 2600 3084 3056 2656 
Q 3513 2228 3513 1497 
Q 3513 744 3044 326 
Q 2575 -91 1722 -91 
Q 1428 -91 1123 -41 
Q 819 9 494 109 
L 494 744 
Q 775 591 1075 516 
Q 1375 441 1709 441 
Q 2250 441 2565 725 
Q 2881 1009 2881 1497 
Q 2881 1984 2565 2268 
Q 2250 2553 1709 2553 
Q 1456 2553 1204 2497 
Q 953 2441 691 2322 
L 691 4666 
z
" transform="scale(0.015625)"/>
       </defs>
       <use xlink:href="#DejaVuSans-35"/>
      </g>
     </g>
    </g>
    <g id="xtick_3">
     <g id="line2d_3">
      <g>
       <use xlink:href="#ma25df58cf4" x="229.14375" y="241.036875" style="stroke: #000000; stroke-width: 0.8"/>
      </g>
     </g>
     <g id="text_3">
      <!-- 10 -->
      <g transform="translate(218.96375 260.194375) scale(0.16 -0.16)">
       <defs>
        <path id="DejaVuSans-31" d="M 794 531 
L 1825 531 
L 1825 4091 
L 703 3866 
L 703 4441 
L 1819 4666 
L 2450 4666 
L 2450 531 
L 3481 531 
L 3481 0 
L 794 0 
L 794 531 
z
" transform="scale(0.015625)"/>
       </defs>
       <use xlink:href="#DejaVuSans-31"/>
       <use xlink:href="#DejaVuSans-30" x="63.623047"/>
      </g>
     </g>
    </g>
    <g id="xtick_4">
     <g id="line2d_4">
      <g>
       <use xlink:href="#ma25df58cf4" x="308.260227" y="241.036875" style="stroke: #000000; stroke-width: 0.8"/>
      </g>
     </g>
     <g id="text_4">
      <!-- 15 -->
      <g transform="translate(298.080227 260.194375) scale(0.16 -0.16)">
       <use xlink:href="#DejaVuSans-31"/>
       <use xlink:href="#DejaVuSans-35" x="63.623047"/>
      </g>
     </g>
    </g>
    <g id="xtick_5">
     <g id="line2d_5">
      <g>
       <use xlink:href="#ma25df58cf4" x="387.376705" y="241.036875" style="stroke: #000000; stroke-width: 0.8"/>
      </g>
     </g>
     <g id="text_5">
      <!-- 20 -->
      <g transform="translate(377.196705 260.194375) scale(0.16 -0.16)">
       <defs>
        <path id="DejaVuSans-32" d="M 1228 531 
L 3431 531 
L 3431 0 
L 469 0 
L 469 531 
Q 828 903 1448 1529 
Q 2069 2156 2228 2338 
Q 2531 2678 2651 2914 
Q 2772 3150 2772 3378 
Q 2772 3750 2511 3984 
Q 2250 4219 1831 4219 
Q 1534 4219 1204 4116 
Q 875 4013 500 3803 
L 500 4441 
Q 881 4594 1212 4672 
Q 1544 4750 1819 4750 
Q 2544 4750 2975 4387 
Q 3406 4025 3406 3419 
Q 3406 3131 3298 2873 
Q 3191 2616 2906 2266 
Q 2828 2175 2409 1742 
Q 1991 1309 1228 531 
z
" transform="scale(0.015625)"/>
       </defs>
       <use xlink:href="#DejaVuSans-32"/>
       <use xlink:href="#DejaVuSans-30" x="63.623047"/>
      </g>
     </g>
    </g>
    <g id="text_6">
     <!-- Time [min] -->
     <g transform="translate(201.991406 275.120313) scale(0.1 -0.1)">
      <defs>
       <path id="DejaVuSans-54" d="M -19 4666 
L 3928 4666 
L 3928 4134 
L 2272 4134 
L 2272 0 
L 1638 0 
L 1638 4134 
L -19 4134 
L -19 4666 
z
" transform="scale(0.015625)"/>
       <path id="DejaVuSans-69" d="M 603 3500 
L 1178 3500 
L 1178 0 
L 603 0 
L 603 3500 
z
M 603 4863 
L 1178 4863 
L 1178 4134 
L 603 4134 
L 603 4863 
z
" transform="scale(0.015625)"/>
       <path id="DejaVuSans-6d" d="M 3328 2828 
Q 3544 3216 3844 3400 
Q 4144 3584 4550 3584 
Q 5097 3584 5394 3201 
Q 5691 2819 5691 2113 
L 5691 0 
L 5113 0 
L 5113 2094 
Q 5113 2597 4934 2840 
Q 4756 3084 4391 3084 
Q 3944 3084 3684 2787 
Q 3425 2491 3425 1978 
L 3425 0 
L 2847 0 
L 2847 2094 
Q 2847 2600 2669 2842 
Q 2491 3084 2119 3084 
Q 1678 3084 1418 2786 
Q 1159 2488 1159 1978 
L 1159 0 
L 581 0 
L 581 3500 
L 1159 3500 
L 1159 2956 
Q 1356 3278 1631 3431 
Q 1906 3584 2284 3584 
Q 2666 3584 2933 3390 
Q 3200 3197 3328 2828 
z
" transform="scale(0.015625)"/>
       <path id="DejaVuSans-65" d="M 3597 1894 
L 3597 1613 
L 953 1613 
Q 991 1019 1311 708 
Q 1631 397 2203 397 
Q 2534 397 2845 478 
Q 3156 559 3463 722 
L 3463 178 
Q 3153 47 2828 -22 
Q 2503 -91 2169 -91 
Q 1331 -91 842 396 
Q 353 884 353 1716 
Q 353 2575 817 3079 
Q 1281 3584 2069 3584 
Q 2775 3584 3186 3129 
Q 3597 2675 3597 1894 
z
M 3022 2063 
Q 3016 2534 2758 2815 
Q 2500 3097 2075 3097 
Q 1594 3097 1305 2825 
Q 1016 2553 972 2059 
L 3022 2063 
z
" transform="scale(0.015625)"/>
       <path id="DejaVuSans-20" transform="scale(0.015625)"/>
       <path id="DejaVuSans-5b" d="M 550 4863 
L 1875 4863 
L 1875 4416 
L 1125 4416 
L 1125 -397 
L 1875 -397 
L 1875 -844 
L 550 -844 
L 550 4863 
z
" transform="scale(0.015625)"/>
       <path id="DejaVuSans-6e" d="M 3513 2113 
L 3513 0 
L 2938 0 
L 2938 2094 
Q 2938 2591 2744 2837 
Q 2550 3084 2163 3084 
Q 1697 3084 1428 2787 
Q 1159 2491 1159 1978 
L 1159 0 
L 581 0 
L 581 3500 
L 1159 3500 
L 1159 2956 
Q 1366 3272 1645 3428 
Q 1925 3584 2291 3584 
Q 2894 3584 3203 3211 
Q 3513 2838 3513 2113 
z
" transform="scale(0.015625)"/>
       <path id="DejaVuSans-5d" d="M 1947 4863 
L 1947 -844 
L 622 -844 
L 622 -397 
L 1369 -397 
L 1369 4416 
L 622 4416 
L 622 4863 
L 1947 4863 
z
" transform="scale(0.015625)"/>
      </defs>
      <use xlink:href="#DejaVuSans-54"/>
      <use xlink:href="#DejaVuSans-69" x="57.958984"/>
      <use xlink:href="#DejaVuSans-6d" x="85.742188"/>
      <use xlink:href="#DejaVuSans-65" x="183.154297"/>
      <use xlink:href="#DejaVuSans-20" x="244.677734"/>
      <use xlink:href="#DejaVuSans-5b" x="276.464844"/>
      <use xlink:href="#DejaVuSans-6d" x="315.478516"/>
      <use xlink:href="#DejaVuSans-69" x="412.890625"/>
      <use xlink:href="#DejaVuSans-6e" x="440.673828"/>
      <use xlink:href="#DejaVuSans-5d" x="504.052734"/>
     </g>
    </g>
   </g>
   <g id="matplotlib.axis_2">
    <g id="ytick_1">
     <g id="line2d_6">
      <defs>
       <path id="m66bf201ffc" d="M 0 0 
L -3.5 0 
" style="stroke: #000000; stroke-width: 0.8"/>
      </defs>
      <g>
       <use xlink:href="#m66bf201ffc" x="55.0875" y="215.982925" style="stroke: #000000; stroke-width: 0.8"/>
      </g>
     </g>
     <g id="text_7">
      <!-- −1.0 -->
      <g transform="translate(9.235 222.061675) scale(0.16 -0.16)">
       <defs>
        <path id="DejaVuSans-2212" d="M 678 2272 
L 4684 2272 
L 4684 1741 
L 678 1741 
L 678 2272 
z
" transform="scale(0.015625)"/>
        <path id="DejaVuSans-2e" d="M 684 794 
L 1344 794 
L 1344 0 
L 684 0 
L 684 794 
z
" transform="scale(0.015625)"/>
       </defs>
       <use xlink:href="#DejaVuSans-2212"/>
       <use xlink:href="#DejaVuSans-31" x="83.789062"/>
       <use xlink:href="#DejaVuSans-2e" x="147.412109"/>
       <use xlink:href="#DejaVuSans-30" x="179.199219"/>
      </g>
     </g>
    </g>
    <g id="ytick_2">
     <g id="line2d_7">
      <g>
       <use xlink:href="#m66bf201ffc" x="55.0875" y="182.820105" style="stroke: #000000; stroke-width: 0.8"/>
      </g>
     </g>
     <g id="text_8">
      <!-- −0.5 -->
      <g transform="translate(9.235 188.898855) scale(0.16 -0.16)">
       <use xlink:href="#DejaVuSans-2212"/>
       <use xlink:href="#DejaVuSans-30" x="83.789062"/>
       <use xlink:href="#DejaVuSans-2e" x="147.412109"/>
       <use xlink:href="#DejaVuSans-35" x="179.199219"/>
      </g>
     </g>
    </g>
    <g id="ytick_3">
     <g id="line2d_8">
      <g>
       <use xlink:href="#m66bf201ffc" x="55.0875" y="149.657285" style="stroke: #000000; stroke-width: 0.8"/>
      </g>
     </g>
     <g id="text_9">
      <!-- 0.0 -->
      <g transform="translate(22.6425 155.736035) scale(0.16 -0.16)">
       <use xlink:href="#DejaVuSans-30"/>
       <use xlink:href="#DejaVuSans-2e" x="63.623047"/>
       <use xlink:href="#DejaVuSans-30" x="95.410156"/>
      </g>
     </g>
    </g>
    <g id="ytick_4">
     <g id="line2d_9">
      <g>
       <use xlink:href="#m66bf201ffc" x="55.0875" y="116.494465" style="stroke: #000000; stroke-width: 0.8"/>
      </g>
     </g>
     <g id="text_10">
      <!-- 0.5 -->
      <g transform="translate(22.6425 122.573215) scale(0.16 -0.16)">
       <use xlink:href="#DejaVuSans-30"/>
       <use xlink:href="#DejaVuSans-2e" x="63.623047"/>
       <use xlink:href="#DejaVuSans-35" x="95.410156"/>
      </g>
     </g>
    </g>
    <g id="ytick_5">
     <g id="line2d_10">
      <g>
       <use xlink:href="#m66bf201ffc" x="55.0875" y="83.331646" style="stroke: #000000; stroke-width: 0.8"/>
      </g>
     </g>
     <g id="text_11">
      <!-- 1.0 -->
      <g transform="translate(22.6425 89.410396) scale(0.16 -0.16)">
       <use xlink:href="#DejaVuSans-31"/>
       <use xlink:href="#DejaVuSans-2e" x="63.623047"/>
       <use xlink:href="#DejaVuSans-30" x="95.410156"/>
      </g>
     </g>
    </g>
    <g id="ytick_6">
     <g id="line2d_11">
      <g>
       <use xlink:href="#m66bf201ffc" x="55.0875" y="50.168826" style="stroke: #000000; stroke-width: 0.8"/>
      </g>
     </g>
     <g id="text_12">
      <!-- 1.5 -->
      <g transform="translate(22.6425 56.247576) scale(0.16 -0.16)">
       <use xlink:href="#DejaVuSans-31"/>
       <use xlink:href="#DejaVuSans-2e" x="63.623047"/>
       <use xlink:href="#DejaVuSans-35" x="95.410156"/>
      </g>
     </g>
    </g>
    <g id="ytick_7">
     <g id="line2d_12">
      <g>
       <use xlink:href="#m66bf201ffc" x="55.0875" y="17.006006" style="stroke: #000000; stroke-width: 0.8"/>
      </g>
     </g>
     <g id="text_13">
      <!-- 2.0 -->
      <g transform="translate(22.6425 23.084756) scale(0.16 -0.16)">
       <use xlink:href="#DejaVuSans-32"/>
       <use xlink:href="#DejaVuSans-2e" x="63.623047"/>
       <use xlink:href="#DejaVuSans-30" x="95.410156"/>
      </g>
     </g>
    </g>
    <g id="text_14">
     <!-- Control Torque $L_r$ [Nm] -->
     <g transform="translate(3.135 184.284386) rotate(-90) scale(0.1 -0.1)">
      <defs>
       <path id="DejaVuSans-43" d="M 4122 4306 
L 4122 3641 
Q 3803 3938 3442 4084 
Q 3081 4231 2675 4231 
Q 1875 4231 1450 3742 
Q 1025 3253 1025 2328 
Q 1025 1406 1450 917 
Q 1875 428 2675 428 
Q 3081 428 3442 575 
Q 3803 722 4122 1019 
L 4122 359 
Q 3791 134 3420 21 
Q 3050 -91 2638 -91 
Q 1578 -91 968 557 
Q 359 1206 359 2328 
Q 359 3453 968 4101 
Q 1578 4750 2638 4750 
Q 3056 4750 3426 4639 
Q 3797 4528 4122 4306 
z
" transform="scale(0.015625)"/>
       <path id="DejaVuSans-6f" d="M 1959 3097 
Q 1497 3097 1228 2736 
Q 959 2375 959 1747 
Q 959 1119 1226 758 
Q 1494 397 1959 397 
Q 2419 397 2687 759 
Q 2956 1122 2956 1747 
Q 2956 2369 2687 2733 
Q 2419 3097 1959 3097 
z
M 1959 3584 
Q 2709 3584 3137 3096 
Q 3566 2609 3566 1747 
Q 3566 888 3137 398 
Q 2709 -91 1959 -91 
Q 1206 -91 779 398 
Q 353 888 353 1747 
Q 353 2609 779 3096 
Q 1206 3584 1959 3584 
z
" transform="scale(0.015625)"/>
       <path id="DejaVuSans-74" d="M 1172 4494 
L 1172 3500 
L 2356 3500 
L 2356 3053 
L 1172 3053 
L 1172 1153 
Q 1172 725 1289 603 
Q 1406 481 1766 481 
L 2356 481 
L 2356 0 
L 1766 0 
Q 1100 0 847 248 
Q 594 497 594 1153 
L 594 3053 
L 172 3053 
L 172 3500 
L 594 3500 
L 594 4494 
L 1172 4494 
z
" transform="scale(0.015625)"/>
       <path id="DejaVuSans-72" d="M 2631 2963 
Q 2534 3019 2420 3045 
Q 2306 3072 2169 3072 
Q 1681 3072 1420 2755 
Q 1159 2438 1159 1844 
L 1159 0 
L 581 0 
L 581 3500 
L 1159 3500 
L 1159 2956 
Q 1341 3275 1631 3429 
Q 1922 3584 2338 3584 
Q 2397 3584 2469 3576 
Q 2541 3569 2628 3553 
L 2631 2963 
z
" transform="scale(0.015625)"/>
       <path id="DejaVuSans-6c" d="M 603 4863 
L 1178 4863 
L 1178 0 
L 603 0 
L 603 4863 
z
" transform="scale(0.015625)"/>
       <path id="DejaVuSans-71" d="M 947 1747 
Q 947 1113 1208 752 
Q 1469 391 1925 391 
Q 2381 391 2643 752 
Q 2906 1113 2906 1747 
Q 2906 2381 2643 2742 
Q 2381 3103 1925 3103 
Q 1469 3103 1208 2742 
Q 947 2381 947 1747 
z
M 2906 525 
Q 2725 213 2448 61 
Q 2172 -91 1784 -91 
Q 1150 -91 751 415 
Q 353 922 353 1747 
Q 353 2572 751 3078 
Q 1150 3584 1784 3584 
Q 2172 3584 2448 3432 
Q 2725 3281 2906 2969 
L 2906 3500 
L 3481 3500 
L 3481 -1331 
L 2906 -1331 
L 2906 525 
z
" transform="scale(0.015625)"/>
       <path id="DejaVuSans-75" d="M 544 1381 
L 544 3500 
L 1119 3500 
L 1119 1403 
Q 1119 906 1312 657 
Q 1506 409 1894 409 
Q 2359 409 2629 706 
Q 2900 1003 2900 1516 
L 2900 3500 
L 3475 3500 
L 3475 0 
L 2900 0 
L 2900 538 
Q 2691 219 2414 64 
Q 2138 -91 1772 -91 
Q 1169 -91 856 284 
Q 544 659 544 1381 
z
M 1991 3584 
L 1991 3584 
z
" transform="scale(0.015625)"/>
       <path id="DejaVuSans-Oblique-4c" d="M 1075 4666 
L 1709 4666 
L 909 525 
L 3181 525 
L 3078 0 
L 172 0 
L 1075 4666 
z
" transform="scale(0.015625)"/>
       <path id="DejaVuSans-Oblique-72" d="M 2853 2969 
Q 2766 3016 2653 3041 
Q 2541 3066 2413 3066 
Q 1953 3066 1609 2717 
Q 1266 2369 1153 1784 
L 800 0 
L 225 0 
L 909 3500 
L 1484 3500 
L 1375 2956 
Q 1603 3259 1920 3421 
Q 2238 3584 2597 3584 
Q 2691 3584 2781 3573 
Q 2872 3563 2963 3538 
L 2853 2969 
z
" transform="scale(0.015625)"/>
       <path id="DejaVuSans-4e" d="M 628 4666 
L 1478 4666 
L 3547 763 
L 3547 4666 
L 4159 4666 
L 4159 0 
L 3309 0 
L 1241 3903 
L 1241 0 
L 628 0 
L 628 4666 
z
" transform="scale(0.015625)"/>
      </defs>
      <use xlink:href="#DejaVuSans-43" transform="translate(0 0.015625)"/>
      <use xlink:href="#DejaVuSans-6f" transform="translate(69.824219 0.015625)"/>
      <use xlink:href="#DejaVuSans-6e" transform="translate(131.005859 0.015625)"/>
      <use xlink:href="#DejaVuSans-74" transform="translate(194.384766 0.015625)"/>
      <use xlink:href="#DejaVuSans-72" transform="translate(233.59375 0.015625)"/>
      <use xlink:href="#DejaVuSans-6f" transform="translate(274.707031 0.015625)"/>
      <use xlink:href="#DejaVuSans-6c" transform="translate(335.888672 0.015625)"/>
      <use xlink:href="#DejaVuSans-20" transform="translate(363.671875 0.015625)"/>
      <use xlink:href="#DejaVuSans-54" transform="translate(395.458984 0.015625)"/>
      <use xlink:href="#DejaVuSans-6f" transform="translate(456.542969 0.015625)"/>
      <use xlink:href="#DejaVuSans-72" transform="translate(517.724609 0.015625)"/>
      <use xlink:href="#DejaVuSans-71" transform="translate(558.837891 0.015625)"/>
      <use xlink:href="#DejaVuSans-75" transform="translate(622.314453 0.015625)"/>
      <use xlink:href="#DejaVuSans-65" transform="translate(685.693359 0.015625)"/>
      <use xlink:href="#DejaVuSans-20" transform="translate(747.216797 0.015625)"/>
      <use xlink:href="#DejaVuSans-Oblique-4c" transform="translate(779.003906 0.015625)"/>
      <use xlink:href="#DejaVuSans-Oblique-72" transform="translate(834.716797 -16.390625) scale(0.7)"/>
      <use xlink:href="#DejaVuSans-20" transform="translate(866.230469 0.015625)"/>
      <use xlink:href="#DejaVuSans-5b" transform="translate(898.017578 0.015625)"/>
      <use xlink:href="#DejaVuSans-4e" transform="translate(937.03125 0.015625)"/>
      <use xlink:href="#DejaVuSans-6d" transform="translate(1011.835938 0.015625)"/>
      <use xlink:href="#DejaVuSans-5d" transform="translate(1109.248047 0.015625)"/>
     </g>
    </g>
   </g>
   <g id="line2d_13">
    <path d="M 70.910795 230.654831 
L 74.075455 164.377218 
L 77.240114 156.945958 
L 80.404773 151.925135 
L 83.569432 147.820283 
L 86.734091 145.930859 
L 89.89875 145.565922 
L 93.063409 146.172966 
L 96.228068 147.37318 
L 99.392727 148.756675 
L 102.557386 149.983866 
L 105.722045 150.86729 
L 108.886705 151.356805 
L 112.051364 151.492897 
L 115.216023 151.364805 
L 118.380682 151.077391 
L 121.545341 150.727523 
L 124.71 150.390071 
L 127.874659 150.111859 
L 131.039318 149.911884 
L 134.203977 149.786347 
L 137.368636 149.716647 
L 140.533295 149.678097 
L 143.697955 149.647318 
L 146.862614 149.607076 
L 150.027273 149.548315 
L 153.191932 149.469862 
L 156.356591 149.376592 
L 159.52125 149.27689 
L 162.685909 149.180121 
L 165.850568 149.094574 
L 169.015227 149.026155 
L 172.179886 148.977857 
L 175.344545 148.949896 
L 178.509205 148.940305 
L 181.673864 148.945735 
L 184.838523 148.962273 
L 188.003182 148.986118 
L 191.167841 149.014038 
L 194.3325 149.043605 
L 197.497159 149.07322 
L 200.661818 149.10201 
L 203.826477 149.129641 
L 206.991136 149.156114 
L 210.155795 149.181591 
L 213.320455 149.206252 
L 216.485114 149.230225 
L 219.649773 149.253547 
L 222.814432 149.276172 
L 225.979091 149.298001 
L 229.14375 149.318907 
L 232.308409 149.338777 
L 235.473068 149.357527 
L 238.637727 149.375116 
L 241.802386 149.391547 
L 244.967045 149.406859 
L 248.131705 149.42112 
L 251.296364 149.43441 
L 254.461023 149.446813 
L 257.625682 149.458409 
L 260.790341 149.469268 
L 263.955 149.47945 
L 267.119659 149.489004 
L 270.284318 149.49797 
L 273.448977 149.506385 
L 276.613636 149.514279 
L 279.778295 149.521681 
L 282.942955 149.528621 
L 286.107614 149.535128 
L 289.272273 149.541231 
L 292.436932 149.546956 
L 295.601591 149.552333 
L 298.76625 149.557385 
L 301.930909 149.562137 
L 305.095568 149.566611 
L 308.260227 149.570826 
L 311.424886 149.5748 
L 314.589545 149.578549 
L 317.754205 149.582088 
L 320.918864 149.58543 
L 324.083523 149.588588 
L 327.248182 149.591574 
L 330.412841 149.594398 
L 333.5775 149.597071 
L 336.742159 149.599602 
L 339.906818 149.602001 
L 343.071477 149.604276 
L 346.236136 149.606434 
L 349.400795 149.608483 
L 352.565455 149.610429 
L 355.730114 149.612279 
L 358.894773 149.614039 
L 362.059432 149.615714 
L 365.224091 149.617308 
L 368.38875 149.618827 
L 371.553409 149.620275 
L 374.718068 149.621655 
L 377.882727 149.622973 
L 381.047386 149.62423 
L 384.212045 149.625431 
L 387.376705 149.626579 
" clip-path="url(#p03dcd72983)" style="fill: none; stroke: #2b737e; stroke-width: 1.5; stroke-linecap: square"/>
   </g>
   <g id="line2d_14">
    <path d="M 70.910795 23.013941 
L 74.075455 43.071286 
L 77.240114 120.124443 
L 80.404773 171.529092 
L 83.569432 197.719541 
L 86.734091 203.953509 
L 89.89875 196.516826 
L 93.063409 181.840936 
L 96.228068 165.62531 
L 99.392727 151.906685 
L 102.557386 142.701475 
L 105.722045 138.30498 
L 108.886705 137.887637 
L 112.051364 140.089992 
L 115.216023 143.496697 
L 118.380682 146.951942 
L 121.545341 149.710068 
L 124.71 151.445308 
L 127.874659 152.168141 
L 131.039318 152.100468 
L 134.203977 151.551427 
L 137.368636 150.819848 
L 140.533295 150.134332 
L 143.697955 149.630029 
L 146.862614 149.353796 
L 150.027273 149.286278 
L 153.191932 149.370068 
L 156.356591 149.535714 
L 159.52125 149.720835 
L 162.685909 149.880793 
L 165.850568 149.991732 
L 169.015227 150.048123 
L 172.179886 150.057338 
L 175.344545 150.03348 
L 178.509205 149.992053 
L 181.673864 149.946274 
L 184.838523 149.905212 
L 188.003182 149.873473 
L 191.167841 149.851926 
L 194.3325 149.838945 
L 197.497159 149.831708 
L 200.661818 149.827263 
L 203.826477 149.823225 
L 206.991136 149.818091 
L 210.155795 149.811244 
L 213.320455 149.80277 
L 216.485114 149.793183 
L 219.649773 149.783162 
L 222.814432 149.773345 
L 225.979091 149.764205 
L 229.14375 149.756007 
L 232.308409 149.748818 
L 235.473068 149.742566 
L 238.637727 149.737093 
L 241.802386 149.732219 
L 244.967045 149.727779 
L 248.131705 149.723649 
L 251.296364 149.71975 
L 254.461023 149.716044 
L 257.625682 149.712525 
L 260.790341 149.709199 
L 263.955 149.706079 
L 267.119659 149.703174 
L 270.284318 149.700485 
L 273.448977 149.698006 
L 276.613636 149.695722 
L 279.778295 149.693615 
L 282.942955 149.691666 
L 286.107614 149.689858 
L 289.272273 149.688173 
L 292.436932 149.686599 
L 295.601591 149.685126 
L 298.76625 149.683745 
L 301.930909 149.682451 
L 305.095568 149.681238 
L 308.260227 149.680102 
L 311.424886 149.679037 
L 314.589545 149.67804 
L 317.754205 149.677106 
L 320.918864 149.67623 
L 324.083523 149.675408 
L 327.248182 149.674635 
L 330.412841 149.673909 
L 333.5775 149.673225 
L 336.742159 149.672581 
L 339.906818 149.671974 
L 343.071477 149.671401 
L 346.236136 149.670861 
L 349.400795 149.67035 
L 352.565455 149.669868 
L 355.730114 149.669412 
L 358.894773 149.668982 
L 362.059432 149.668574 
L 365.224091 149.668188 
L 368.38875 149.667823 
L 371.553409 149.667476 
L 374.718068 149.667148 
L 377.882727 149.666836 
L 381.047386 149.666541 
L 384.212045 149.66626 
L 387.376705 149.665994 
" clip-path="url(#p03dcd72983)" style="fill: none; stroke: #5ea04b; stroke-width: 1.5; stroke-linecap: square"/>
   </g>
   <g id="line2d_15">
    <path d="M 70.910795 149.56098 
L 74.075455 180.764082 
L 77.240114 164.29686 
L 80.404773 159.65353 
L 83.569432 156.225155 
L 86.734091 153.525323 
L 89.89875 151.905145 
L 93.063409 150.874207 
L 96.228068 150.10648 
L 99.392727 149.525872 
L 102.557386 149.159422 
L 105.722045 149.016726 
L 108.886705 149.054282 
L 112.051364 149.200602 
L 115.216023 149.386206 
L 118.380682 149.558466 
L 121.545341 149.685754 
L 124.71 149.756239 
L 127.874659 149.773605 
L 131.039318 149.751306 
L 134.203977 149.706823 
L 137.368636 149.656876 
L 140.533295 149.614136 
L 143.697955 149.585689 
L 146.862614 149.573172 
L 150.027273 149.574139 
L 153.191932 149.583976 
L 156.356591 149.597717 
L 159.52125 149.611324 
L 162.685909 149.622293 
L 165.850568 149.629674 
L 169.015227 149.633704 
L 172.179886 149.635291 
L 175.344545 149.635544 
L 178.509205 149.635427 
L 181.673864 149.635589 
L 184.838523 149.636334 
L 188.003182 149.637685 
L 191.167841 149.63949 
L 194.3325 149.641526 
L 197.497159 149.643577 
L 200.661818 149.645481 
L 203.826477 149.647147 
L 206.991136 149.648545 
L 210.155795 149.649692 
L 213.320455 149.650631 
L 216.485114 149.651411 
L 219.649773 149.652077 
L 222.814432 149.652664 
L 225.979091 149.653196 
L 229.14375 149.653684 
L 232.308409 149.654134 
L 235.473068 149.654547 
L 238.637727 149.654922 
L 241.802386 149.65526 
L 244.967045 149.65556 
L 248.131705 149.655826 
L 251.296364 149.65606 
L 254.461023 149.656266 
L 257.625682 149.656448 
L 260.790341 149.65661 
L 263.955 149.656754 
L 267.119659 149.656883 
L 270.284318 149.656999 
L 273.448977 149.657103 
L 276.613636 149.657197 
L 279.778295 149.657282 
L 282.942955 149.657359 
L 286.107614 149.657429 
L 289.272273 149.657491 
L 292.436932 149.657547 
L 295.601591 149.657598 
L 298.76625 149.657644 
L 301.930909 149.657685 
L 305.095568 149.657723 
L 308.260227 149.657757 
L 311.424886 149.657787 
L 314.589545 149.657815 
L 317.754205 149.657841 
L 320.918864 149.657864 
L 324.083523 149.657885 
L 327.248182 149.657904 
L 330.412841 149.657922 
L 333.5775 149.657938 
L 336.742159 149.657953 
L 339.906818 149.657966 
L 343.071477 149.657978 
L 346.236136 149.657989 
L 349.400795 149.658 
L 352.565455 149.658009 
L 355.730114 149.658018 
L 358.894773 149.658025 
L 362.059432 149.658033 
L 365.224091 149.658039 
L 368.38875 149.658046 
L 371.553409 149.658051 
L 374.718068 149.658056 
L 377.882727 149.658061 
L 381.047386 149.658066 
L 384.212045 149.65807 
L 387.376705 149.658074 
" clip-path="url(#p03dcd72983)" style="fill: none; stroke: #bdab62; stroke-width: 1.5; stroke-linecap: square"/>
   </g>
   <g id="patch_3">
    <path d="M 55.0875 241.036875 
L 55.0875 12.631897 
" style="fill: none; stroke: #000000; stroke-width: 0.8; stroke-linejoin: miter; stroke-linecap: square"/>
   </g>
   <g id="patch_4">
    <path d="M 403.2 241.036875 
L 403.2 12.631897 
" style="fill: none; stroke: #000000; stroke-width: 0.8; stroke-linejoin: miter; stroke-linecap: square"/>
   </g>
   <g id="patch_5">
    <path d="M 55.0875 241.036875 
L 403.2 241.036875 
" style="fill: none; stroke: #000000; stroke-width: 0.8; stroke-linejoin: miter; stroke-linecap: square"/>
   </g>
   <g id="patch_6">
    <path d="M 55.0875 12.631897 
L 403.2 12.631897 
" style="fill: none; stroke: #000000; stroke-width: 0.8; stroke-linejoin: miter; stroke-linecap: square"/>
   </g>
   <g id="legend_1">
    <g id="patch_7">
     <path d="M 352.98 236.536875 
L 396.9 236.536875 
Q 398.7 236.536875 398.7 234.736875 
L 398.7 194.871094 
Q 398.7 193.071094 396.9 193.071094 
L 352.98 193.071094 
Q 351.18 193.071094 351.18 194.871094 
L 351.18 234.736875 
Q 351.18 236.536875 352.98 236.536875 
z
" style="fill: #ffffff; opacity: 0.8; stroke: #cccccc; stroke-linejoin: miter"/>
    </g>
    <g id="line2d_16">
     <path d="M 354.78 200.359687 
L 363.78 200.359687 
L 372.78 200.359687 
" style="fill: none; stroke: #2b737e; stroke-width: 1.5; stroke-linecap: square"/>
    </g>
    <g id="text_15">
     <!-- $L_{r,0}$ -->
     <g transform="translate(379.98 203.509687) scale(0.09 -0.09)">
      <defs>
       <path id="DejaVuSans-2c" d="M 750 794 
L 1409 794 
L 1409 256 
L 897 -744 
L 494 -744 
L 750 256 
L 750 794 
z
" transform="scale(0.015625)"/>
      </defs>
      <use xlink:href="#DejaVuSans-Oblique-4c" transform="translate(0 0.09375)"/>
      <use xlink:href="#DejaVuSans-Oblique-72" transform="translate(55.712891 -16.3125) scale(0.7)"/>
      <use xlink:href="#DejaVuSans-2c" transform="translate(84.492188 -16.3125) scale(0.7)"/>
      <use xlink:href="#DejaVuSans-30" transform="translate(120.380859 -16.3125) scale(0.7)"/>
     </g>
    </g>
    <g id="line2d_17">
     <path d="M 354.78 213.948281 
L 363.78 213.948281 
L 372.78 213.948281 
" style="fill: none; stroke: #5ea04b; stroke-width: 1.5; stroke-linecap: square"/>
    </g>
    <g id="text_16">
     <!-- $L_{r,1}$ -->
     <g transform="translate(379.98 217.098281) scale(0.09 -0.09)">
      <use xlink:href="#DejaVuSans-Oblique-4c" transform="translate(0 0.09375)"/>
      <use xlink:href="#DejaVuSans-Oblique-72" transform="translate(55.712891 -16.3125) scale(0.7)"/>
      <use xlink:href="#DejaVuSans-2c" transform="translate(84.492188 -16.3125) scale(0.7)"/>
      <use xlink:href="#DejaVuSans-31" transform="translate(120.380859 -16.3125) scale(0.7)"/>
     </g>
    </g>
    <g id="line2d_18">
     <path d="M 354.78 227.536875 
L 363.78 227.536875 
L 372.78 227.536875 
" style="fill: none; stroke: #bdab62; stroke-width: 1.5; stroke-linecap: square"/>
    </g>
    <g id="text_17">
     <!-- $L_{r,2}$ -->
     <g transform="translate(379.98 230.686875) scale(0.09 -0.09)">
      <use xlink:href="#DejaVuSans-Oblique-4c" transform="translate(0 0.09375)"/>
      <use xlink:href="#DejaVuSans-Oblique-72" transform="translate(55.712891 -16.3125) scale(0.7)"/>
      <use xlink:href="#DejaVuSans-2c" transform="translate(84.492188 -16.3125) scale(0.7)"/>
      <use xlink:href="#DejaVuSans-32" transform="translate(120.380859 -16.3125) scale(0.7)"/>
     </g>
    </g>
   </g>
  </g>
 </g>
 <defs>
  <clipPath id="p03dcd72983">
   <rect x="55.0875" y="12.631897" width="348.1125" height="228.404978"/>
  </clipPath>
 </defs>
</svg>
