<?xml version="1.0" encoding="utf-8" standalone="no"?>
<!DOCTYPE svg PUBLIC "-//W3C//DTD SVG 1.1//EN"
  "http://www.w3.org/Graphics/SVG/1.1/DTD/svg11.dtd">
<svg xmlns:xlink="http://www.w3.org/1999/xlink" width="414pt" height="288pt" viewBox="0 0 414 288" xmlns="http://www.w3.org/2000/svg" version="1.1">
 <metadata>
  <rdf:RDF xmlns:dc="http://purl.org/dc/elements/1.1/" xmlns:cc="http://creativecommons.org/ns#" xmlns:rdf="http://www.w3.org/1999/02/22-rdf-syntax-ns#">
   <cc:Work>
    <dc:type rdf:resource="http://purl.org/dc/dcmitype/StillImage"/>
    <dc:date>2023-09-07T00:38:24.630056</dc:date>
    <dc:format>image/svg+xml</dc:format>
    <dc:creator>
     <cc:Agent>
      <dc:title>Matplotlib v3.7.2, https://matplotlib.org/</dc:title>
     </cc:Agent>
    </dc:creator>
   </cc:Work>
  </rdf:RDF>
 </metadata>
 <defs>
  <style type="text/css">*{stroke-linejoin: round; stroke-linecap: butt}</style>
 </defs>
 <g id="figure_1">
  <g id="patch_1">
   <path d="M 0 288 
L 414 288 
L 414 0 
L 0 0 
L 0 288 
z
" style="fill: none"/>
  </g>
  <g id="axes_1">
   <g id="patch_2">
    <path d="M 95.785625 241.036875 
L 390.360682 241.036875 
L 390.360682 15.340586 
L 95.785625 15.340586 
L 95.785625 241.036875 
z
" style="fill: none"/>
   </g>
   <g id="matplotlib.axis_1">
    <g id="xtick_1">
     <g id="line2d_1">
      <path d="M 109.1754 241.036875 
L 109.1754 15.340586 
" clip-path="url(#p8b1103fa37)" style="fill: none; stroke: #b0b0b0; stroke-width: 0.8; stroke-linecap: square"/>
     </g>
     <g id="line2d_2">
      <defs>
       <path id="ma678d5bf16" d="M 0 0 
L 0 3.5 
" style="stroke: #000000; stroke-width: 0.8"/>
      </defs>
      <g>
       <use xlink:href="#ma678d5bf16" x="109.1754" y="241.036875" style="stroke: #000000; stroke-width: 0.8"/>
      </g>
     </g>
     <g id="text_1">
      <!-- 0 -->
      <g transform="translate(104.0854 260.194375) scale(0.16 -0.16)">
       <defs>
        <path id="DejaVuSans-30" d="M 2034 4250 
Q 1547 4250 1301 3770 
Q 1056 3291 1056 2328 
Q 1056 1369 1301 889 
Q 1547 409 2034 409 
Q 2525 409 2770 889 
Q 3016 1369 3016 2328 
Q 3016 3291 2770 3770 
Q 2525 4250 2034 4250 
z
M 2034 4750 
Q 2819 4750 3233 4129 
Q 3647 3509 3647 2328 
Q 3647 1150 3233 529 
Q 2819 -91 2034 -91 
Q 1250 -91 836 529 
Q 422 1150 422 2328 
Q 422 3509 836 4129 
Q 1250 4750 2034 4750 
z
" transform="scale(0.015625)"/>
       </defs>
       <use xlink:href="#DejaVuSans-30"/>
      </g>
     </g>
    </g>
    <g id="xtick_2">
     <g id="line2d_3">
      <path d="M 164.966131 241.036875 
L 164.966131 15.340586 
" clip-path="url(#p8b1103fa37)" style="fill: none; stroke: #b0b0b0; stroke-width: 0.8; stroke-linecap: square"/>
     </g>
     <g id="line2d_4">
      <g>
       <use xlink:href="#ma678d5bf16" x="164.966131" y="241.036875" style="stroke: #000000; stroke-width: 0.8"/>
      </g>
     </g>
     <g id="text_2">
      <!-- 25 -->
      <g transform="translate(154.786131 260.194375) scale(0.16 -0.16)">
       <defs>
        <path id="DejaVuSans-32" d="M 1228 531 
L 3431 531 
L 3431 0 
L 469 0 
L 469 531 
Q 828 903 1448 1529 
Q 2069 2156 2228 2338 
Q 2531 2678 2651 2914 
Q 2772 3150 2772 3378 
Q 2772 3750 2511 3984 
Q 2250 4219 1831 4219 
Q 1534 4219 1204 4116 
Q 875 4013 500 3803 
L 500 4441 
Q 881 4594 1212 4672 
Q 1544 4750 1819 4750 
Q 2544 4750 2975 4387 
Q 3406 4025 3406 3419 
Q 3406 3131 3298 2873 
Q 3191 2616 2906 2266 
Q 2828 2175 2409 1742 
Q 1991 1309 1228 531 
z
" transform="scale(0.015625)"/>
        <path id="DejaVuSans-35" d="M 691 4666 
L 3169 4666 
L 3169 4134 
L 1269 4134 
L 1269 2991 
Q 1406 3038 1543 3061 
Q 1681 3084 1819 3084 
Q 2600 3084 3056 2656 
Q 3513 2228 3513 1497 
Q 3513 744 3044 326 
Q 2575 -91 1722 -91 
Q 1428 -91 1123 -41 
Q 819 9 494 109 
L 494 744 
Q 775 591 1075 516 
Q 1375 441 1709 441 
Q 2250 441 2565 725 
Q 2881 1009 2881 1497 
Q 2881 1984 2565 2268 
Q 2250 2553 1709 2553 
Q 1456 2553 1204 2497 
Q 953 2441 691 2322 
L 691 4666 
z
" transform="scale(0.015625)"/>
       </defs>
       <use xlink:href="#DejaVuSans-32"/>
       <use xlink:href="#DejaVuSans-35" x="63.623047"/>
      </g>
     </g>
    </g>
    <g id="xtick_3">
     <g id="line2d_5">
      <path d="M 220.756861 241.036875 
L 220.756861 15.340586 
" clip-path="url(#p8b1103fa37)" style="fill: none; stroke: #b0b0b0; stroke-width: 0.8; stroke-linecap: square"/>
     </g>
     <g id="line2d_6">
      <g>
       <use xlink:href="#ma678d5bf16" x="220.756861" y="241.036875" style="stroke: #000000; stroke-width: 0.8"/>
      </g>
     </g>
     <g id="text_3">
      <!-- 50 -->
      <g transform="translate(210.576861 260.194375) scale(0.16 -0.16)">
       <use xlink:href="#DejaVuSans-35"/>
       <use xlink:href="#DejaVuSans-30" x="63.623047"/>
      </g>
     </g>
    </g>
    <g id="xtick_4">
     <g id="line2d_7">
      <path d="M 276.547592 241.036875 
L 276.547592 15.340586 
" clip-path="url(#p8b1103fa37)" style="fill: none; stroke: #b0b0b0; stroke-width: 0.8; stroke-linecap: square"/>
     </g>
     <g id="line2d_8">
      <g>
       <use xlink:href="#ma678d5bf16" x="276.547592" y="241.036875" style="stroke: #000000; stroke-width: 0.8"/>
      </g>
     </g>
     <g id="text_4">
      <!-- 75 -->
      <g transform="translate(266.367592 260.194375) scale(0.16 -0.16)">
       <defs>
        <path id="DejaVuSans-37" d="M 525 4666 
L 3525 4666 
L 3525 4397 
L 1831 0 
L 1172 0 
L 2766 4134 
L 525 4134 
L 525 4666 
z
" transform="scale(0.015625)"/>
       </defs>
       <use xlink:href="#DejaVuSans-37"/>
       <use xlink:href="#DejaVuSans-35" x="63.623047"/>
      </g>
     </g>
    </g>
    <g id="xtick_5">
     <g id="line2d_9">
      <path d="M 332.338322 241.036875 
L 332.338322 15.340586 
" clip-path="url(#p8b1103fa37)" style="fill: none; stroke: #b0b0b0; stroke-width: 0.8; stroke-linecap: square"/>
     </g>
     <g id="line2d_10">
      <g>
       <use xlink:href="#ma678d5bf16" x="332.338322" y="241.036875" style="stroke: #000000; stroke-width: 0.8"/>
      </g>
     </g>
     <g id="text_5">
      <!-- 100 -->
      <g transform="translate(317.068322 260.194375) scale(0.16 -0.16)">
       <defs>
        <path id="DejaVuSans-31" d="M 794 531 
L 1825 531 
L 1825 4091 
L 703 3866 
L 703 4441 
L 1819 4666 
L 2450 4666 
L 2450 531 
L 3481 531 
L 3481 0 
L 794 0 
L 794 531 
z
" transform="scale(0.015625)"/>
       </defs>
       <use xlink:href="#DejaVuSans-31"/>
       <use xlink:href="#DejaVuSans-30" x="63.623047"/>
       <use xlink:href="#DejaVuSans-30" x="127.246094"/>
      </g>
     </g>
    </g>
    <g id="xtick_6">
     <g id="line2d_11">
      <path d="M 388.129053 241.036875 
L 388.129053 15.340586 
" clip-path="url(#p8b1103fa37)" style="fill: none; stroke: #b0b0b0; stroke-width: 0.8; stroke-linecap: square"/>
     </g>
     <g id="line2d_12">
      <g>
       <use xlink:href="#ma678d5bf16" x="388.129053" y="241.036875" style="stroke: #000000; stroke-width: 0.8"/>
      </g>
     </g>
     <g id="text_6">
      <!-- 125 -->
      <g transform="translate(372.859053 260.194375) scale(0.16 -0.16)">
       <use xlink:href="#DejaVuSans-31"/>
       <use xlink:href="#DejaVuSans-32" x="63.623047"/>
       <use xlink:href="#DejaVuSans-35" x="127.246094"/>
      </g>
     </g>
    </g>
    <g id="text_7">
     <!-- Time [min] -->
     <g transform="translate(215.92081 275.120313) scale(0.1 -0.1)">
      <defs>
       <path id="DejaVuSans-54" d="M -19 4666 
L 3928 4666 
L 3928 4134 
L 2272 4134 
L 2272 0 
L 1638 0 
L 1638 4134 
L -19 4134 
L -19 4666 
z
" transform="scale(0.015625)"/>
       <path id="DejaVuSans-69" d="M 603 3500 
L 1178 3500 
L 1178 0 
L 603 0 
L 603 3500 
z
M 603 4863 
L 1178 4863 
L 1178 4134 
L 603 4134 
L 603 4863 
z
" transform="scale(0.015625)"/>
       <path id="DejaVuSans-6d" d="M 3328 2828 
Q 3544 3216 3844 3400 
Q 4144 3584 4550 3584 
Q 5097 3584 5394 3201 
Q 5691 2819 5691 2113 
L 5691 0 
L 5113 0 
L 5113 2094 
Q 5113 2597 4934 2840 
Q 4756 3084 4391 3084 
Q 3944 3084 3684 2787 
Q 3425 2491 3425 1978 
L 3425 0 
L 2847 0 
L 2847 2094 
Q 2847 2600 2669 2842 
Q 2491 3084 2119 3084 
Q 1678 3084 1418 2786 
Q 1159 2488 1159 1978 
L 1159 0 
L 581 0 
L 581 3500 
L 1159 3500 
L 1159 2956 
Q 1356 3278 1631 3431 
Q 1906 3584 2284 3584 
Q 2666 3584 2933 3390 
Q 3200 3197 3328 2828 
z
" transform="scale(0.015625)"/>
       <path id="DejaVuSans-65" d="M 3597 1894 
L 3597 1613 
L 953 1613 
Q 991 1019 1311 708 
Q 1631 397 2203 397 
Q 2534 397 2845 478 
Q 3156 559 3463 722 
L 3463 178 
Q 3153 47 2828 -22 
Q 2503 -91 2169 -91 
Q 1331 -91 842 396 
Q 353 884 353 1716 
Q 353 2575 817 3079 
Q 1281 3584 2069 3584 
Q 2775 3584 3186 3129 
Q 3597 2675 3597 1894 
z
M 3022 2063 
Q 3016 2534 2758 2815 
Q 2500 3097 2075 3097 
Q 1594 3097 1305 2825 
Q 1016 2553 972 2059 
L 3022 2063 
z
" transform="scale(0.015625)"/>
       <path id="DejaVuSans-20" transform="scale(0.015625)"/>
       <path id="DejaVuSans-5b" d="M 550 4863 
L 1875 4863 
L 1875 4416 
L 1125 4416 
L 1125 -397 
L 1875 -397 
L 1875 -844 
L 550 -844 
L 550 4863 
z
" transform="scale(0.015625)"/>
       <path id="DejaVuSans-6e" d="M 3513 2113 
L 3513 0 
L 2938 0 
L 2938 2094 
Q 2938 2591 2744 2837 
Q 2550 3084 2163 3084 
Q 1697 3084 1428 2787 
Q 1159 2491 1159 1978 
L 1159 0 
L 581 0 
L 581 3500 
L 1159 3500 
L 1159 2956 
Q 1366 3272 1645 3428 
Q 1925 3584 2291 3584 
Q 2894 3584 3203 3211 
Q 3513 2838 3513 2113 
z
" transform="scale(0.015625)"/>
       <path id="DejaVuSans-5d" d="M 1947 4863 
L 1947 -844 
L 622 -844 
L 622 -397 
L 1369 -397 
L 1369 4416 
L 622 4416 
L 622 4863 
L 1947 4863 
z
" transform="scale(0.015625)"/>
      </defs>
      <use xlink:href="#DejaVuSans-54"/>
      <use xlink:href="#DejaVuSans-69" x="57.958984"/>
      <use xlink:href="#DejaVuSans-6d" x="85.742188"/>
      <use xlink:href="#DejaVuSans-65" x="183.154297"/>
      <use xlink:href="#DejaVuSans-20" x="244.677734"/>
      <use xlink:href="#DejaVuSans-5b" x="276.464844"/>
      <use xlink:href="#DejaVuSans-6d" x="315.478516"/>
      <use xlink:href="#DejaVuSans-69" x="412.890625"/>
      <use xlink:href="#DejaVuSans-6e" x="440.673828"/>
      <use xlink:href="#DejaVuSans-5d" x="504.052734"/>
     </g>
    </g>
   </g>
   <g id="matplotlib.axis_2">
    <g id="ytick_1">
     <g id="line2d_13">
      <path d="M 95.785625 226.661886 
L 390.360682 226.661886 
" clip-path="url(#p8b1103fa37)" style="fill: none; stroke: #b0b0b0; stroke-width: 0.8; stroke-linecap: square"/>
     </g>
     <g id="line2d_14">
      <defs>
       <path id="m81ea1b4415" d="M 0 0 
L -3.5 0 
" style="stroke: #000000; stroke-width: 0.8"/>
      </defs>
      <g>
       <use xlink:href="#m81ea1b4415" x="95.785625" y="226.661886" style="stroke: #000000; stroke-width: 0.8"/>
      </g>
     </g>
     <g id="text_8">
      <!-- −40000 -->
      <g transform="translate(24.478125 232.740636) scale(0.16 -0.16)">
       <defs>
        <path id="DejaVuSans-2212" d="M 678 2272 
L 4684 2272 
L 4684 1741 
L 678 1741 
L 678 2272 
z
" transform="scale(0.015625)"/>
        <path id="DejaVuSans-34" d="M 2419 4116 
L 825 1625 
L 2419 1625 
L 2419 4116 
z
M 2253 4666 
L 3047 4666 
L 3047 1625 
L 3713 1625 
L 3713 1100 
L 3047 1100 
L 3047 0 
L 2419 0 
L 2419 1100 
L 313 1100 
L 313 1709 
L 2253 4666 
z
" transform="scale(0.015625)"/>
       </defs>
       <use xlink:href="#DejaVuSans-2212"/>
       <use xlink:href="#DejaVuSans-34" x="83.789062"/>
       <use xlink:href="#DejaVuSans-30" x="147.412109"/>
       <use xlink:href="#DejaVuSans-30" x="211.035156"/>
       <use xlink:href="#DejaVuSans-30" x="274.658203"/>
       <use xlink:href="#DejaVuSans-30" x="338.28125"/>
      </g>
     </g>
    </g>
    <g id="ytick_2">
     <g id="line2d_15">
      <path d="M 95.785625 174.222927 
L 390.360682 174.222927 
" clip-path="url(#p8b1103fa37)" style="fill: none; stroke: #b0b0b0; stroke-width: 0.8; stroke-linecap: square"/>
     </g>
     <g id="line2d_16">
      <g>
       <use xlink:href="#m81ea1b4415" x="95.785625" y="174.222927" style="stroke: #000000; stroke-width: 0.8"/>
      </g>
     </g>
     <g id="text_9">
      <!-- −20000 -->
      <g transform="translate(24.478125 180.301677) scale(0.16 -0.16)">
       <use xlink:href="#DejaVuSans-2212"/>
       <use xlink:href="#DejaVuSans-32" x="83.789062"/>
       <use xlink:href="#DejaVuSans-30" x="147.412109"/>
       <use xlink:href="#DejaVuSans-30" x="211.035156"/>
       <use xlink:href="#DejaVuSans-30" x="274.658203"/>
       <use xlink:href="#DejaVuSans-30" x="338.28125"/>
      </g>
     </g>
    </g>
    <g id="ytick_3">
     <g id="line2d_17">
      <path d="M 95.785625 121.783969 
L 390.360682 121.783969 
" clip-path="url(#p8b1103fa37)" style="fill: none; stroke: #b0b0b0; stroke-width: 0.8; stroke-linecap: square"/>
     </g>
     <g id="line2d_18">
      <g>
       <use xlink:href="#m81ea1b4415" x="95.785625" y="121.783969" style="stroke: #000000; stroke-width: 0.8"/>
      </g>
     </g>
     <g id="text_10">
      <!-- 0 -->
      <g transform="translate(78.605625 127.862719) scale(0.16 -0.16)">
       <use xlink:href="#DejaVuSans-30"/>
      </g>
     </g>
    </g>
    <g id="ytick_4">
     <g id="line2d_19">
      <path d="M 95.785625 69.345011 
L 390.360682 69.345011 
" clip-path="url(#p8b1103fa37)" style="fill: none; stroke: #b0b0b0; stroke-width: 0.8; stroke-linecap: square"/>
     </g>
     <g id="line2d_20">
      <g>
       <use xlink:href="#m81ea1b4415" x="95.785625" y="69.345011" style="stroke: #000000; stroke-width: 0.8"/>
      </g>
     </g>
     <g id="text_11">
      <!-- 20000 -->
      <g transform="translate(37.885625 75.423761) scale(0.16 -0.16)">
       <use xlink:href="#DejaVuSans-32"/>
       <use xlink:href="#DejaVuSans-30" x="63.623047"/>
       <use xlink:href="#DejaVuSans-30" x="127.246094"/>
       <use xlink:href="#DejaVuSans-30" x="190.869141"/>
       <use xlink:href="#DejaVuSans-30" x="254.492188"/>
      </g>
     </g>
    </g>
    <g id="ytick_5">
     <g id="line2d_21">
      <path d="M 95.785625 16.906053 
L 390.360682 16.906053 
" clip-path="url(#p8b1103fa37)" style="fill: none; stroke: #b0b0b0; stroke-width: 0.8; stroke-linecap: square"/>
     </g>
     <g id="line2d_22">
      <g>
       <use xlink:href="#m81ea1b4415" x="95.785625" y="16.906053" style="stroke: #000000; stroke-width: 0.8"/>
      </g>
     </g>
     <g id="text_12">
      <!-- 40000 -->
      <g transform="translate(37.885625 22.984803) scale(0.16 -0.16)">
       <use xlink:href="#DejaVuSans-34"/>
       <use xlink:href="#DejaVuSans-30" x="63.623047"/>
       <use xlink:href="#DejaVuSans-30" x="127.246094"/>
       <use xlink:href="#DejaVuSans-30" x="190.869141"/>
       <use xlink:href="#DejaVuSans-30" x="254.492188"/>
      </g>
     </g>
    </g>
    <g id="text_13">
     <!-- Magnetic Field [nT] -->
     <g transform="translate(18.398438 175.929355) rotate(-90) scale(0.1 -0.1)">
      <defs>
       <path id="DejaVuSans-4d" d="M 628 4666 
L 1569 4666 
L 2759 1491 
L 3956 4666 
L 4897 4666 
L 4897 0 
L 4281 0 
L 4281 4097 
L 3078 897 
L 2444 897 
L 1241 4097 
L 1241 0 
L 628 0 
L 628 4666 
z
" transform="scale(0.015625)"/>
       <path id="DejaVuSans-61" d="M 2194 1759 
Q 1497 1759 1228 1600 
Q 959 1441 959 1056 
Q 959 750 1161 570 
Q 1363 391 1709 391 
Q 2188 391 2477 730 
Q 2766 1069 2766 1631 
L 2766 1759 
L 2194 1759 
z
M 3341 1997 
L 3341 0 
L 2766 0 
L 2766 531 
Q 2569 213 2275 61 
Q 1981 -91 1556 -91 
Q 1019 -91 701 211 
Q 384 513 384 1019 
Q 384 1609 779 1909 
Q 1175 2209 1959 2209 
L 2766 2209 
L 2766 2266 
Q 2766 2663 2505 2880 
Q 2244 3097 1772 3097 
Q 1472 3097 1187 3025 
Q 903 2953 641 2809 
L 641 3341 
Q 956 3463 1253 3523 
Q 1550 3584 1831 3584 
Q 2591 3584 2966 3190 
Q 3341 2797 3341 1997 
z
" transform="scale(0.015625)"/>
       <path id="DejaVuSans-67" d="M 2906 1791 
Q 2906 2416 2648 2759 
Q 2391 3103 1925 3103 
Q 1463 3103 1205 2759 
Q 947 2416 947 1791 
Q 947 1169 1205 825 
Q 1463 481 1925 481 
Q 2391 481 2648 825 
Q 2906 1169 2906 1791 
z
M 3481 434 
Q 3481 -459 3084 -895 
Q 2688 -1331 1869 -1331 
Q 1566 -1331 1297 -1286 
Q 1028 -1241 775 -1147 
L 775 -588 
Q 1028 -725 1275 -790 
Q 1522 -856 1778 -856 
Q 2344 -856 2625 -561 
Q 2906 -266 2906 331 
L 2906 616 
Q 2728 306 2450 153 
Q 2172 0 1784 0 
Q 1141 0 747 490 
Q 353 981 353 1791 
Q 353 2603 747 3093 
Q 1141 3584 1784 3584 
Q 2172 3584 2450 3431 
Q 2728 3278 2906 2969 
L 2906 3500 
L 3481 3500 
L 3481 434 
z
" transform="scale(0.015625)"/>
       <path id="DejaVuSans-74" d="M 1172 4494 
L 1172 3500 
L 2356 3500 
L 2356 3053 
L 1172 3053 
L 1172 1153 
Q 1172 725 1289 603 
Q 1406 481 1766 481 
L 2356 481 
L 2356 0 
L 1766 0 
Q 1100 0 847 248 
Q 594 497 594 1153 
L 594 3053 
L 172 3053 
L 172 3500 
L 594 3500 
L 594 4494 
L 1172 4494 
z
" transform="scale(0.015625)"/>
       <path id="DejaVuSans-63" d="M 3122 3366 
L 3122 2828 
Q 2878 2963 2633 3030 
Q 2388 3097 2138 3097 
Q 1578 3097 1268 2742 
Q 959 2388 959 1747 
Q 959 1106 1268 751 
Q 1578 397 2138 397 
Q 2388 397 2633 464 
Q 2878 531 3122 666 
L 3122 134 
Q 2881 22 2623 -34 
Q 2366 -91 2075 -91 
Q 1284 -91 818 406 
Q 353 903 353 1747 
Q 353 2603 823 3093 
Q 1294 3584 2113 3584 
Q 2378 3584 2631 3529 
Q 2884 3475 3122 3366 
z
" transform="scale(0.015625)"/>
       <path id="DejaVuSans-46" d="M 628 4666 
L 3309 4666 
L 3309 4134 
L 1259 4134 
L 1259 2759 
L 3109 2759 
L 3109 2228 
L 1259 2228 
L 1259 0 
L 628 0 
L 628 4666 
z
" transform="scale(0.015625)"/>
       <path id="DejaVuSans-6c" d="M 603 4863 
L 1178 4863 
L 1178 0 
L 603 0 
L 603 4863 
z
" transform="scale(0.015625)"/>
       <path id="DejaVuSans-64" d="M 2906 2969 
L 2906 4863 
L 3481 4863 
L 3481 0 
L 2906 0 
L 2906 525 
Q 2725 213 2448 61 
Q 2172 -91 1784 -91 
Q 1150 -91 751 415 
Q 353 922 353 1747 
Q 353 2572 751 3078 
Q 1150 3584 1784 3584 
Q 2172 3584 2448 3432 
Q 2725 3281 2906 2969 
z
M 947 1747 
Q 947 1113 1208 752 
Q 1469 391 1925 391 
Q 2381 391 2643 752 
Q 2906 1113 2906 1747 
Q 2906 2381 2643 2742 
Q 2381 3103 1925 3103 
Q 1469 3103 1208 2742 
Q 947 2381 947 1747 
z
" transform="scale(0.015625)"/>
      </defs>
      <use xlink:href="#DejaVuSans-4d"/>
      <use xlink:href="#DejaVuSans-61" x="86.279297"/>
      <use xlink:href="#DejaVuSans-67" x="147.558594"/>
      <use xlink:href="#DejaVuSans-6e" x="211.035156"/>
      <use xlink:href="#DejaVuSans-65" x="274.414062"/>
      <use xlink:href="#DejaVuSans-74" x="335.9375"/>
      <use xlink:href="#DejaVuSans-69" x="375.146484"/>
      <use xlink:href="#DejaVuSans-63" x="402.929688"/>
      <use xlink:href="#DejaVuSans-20" x="457.910156"/>
      <use xlink:href="#DejaVuSans-46" x="489.697266"/>
      <use xlink:href="#DejaVuSans-69" x="539.966797"/>
      <use xlink:href="#DejaVuSans-65" x="567.75"/>
      <use xlink:href="#DejaVuSans-6c" x="629.273438"/>
      <use xlink:href="#DejaVuSans-64" x="657.056641"/>
      <use xlink:href="#DejaVuSans-20" x="720.533203"/>
      <use xlink:href="#DejaVuSans-5b" x="752.320312"/>
      <use xlink:href="#DejaVuSans-6e" x="791.333984"/>
      <use xlink:href="#DejaVuSans-54" x="854.712891"/>
      <use xlink:href="#DejaVuSans-5d" x="915.796875"/>
     </g>
    </g>
   </g>
   <g id="line2d_23">
    <path d="M 109.1754 184.358987 
L 110.514378 146.080388 
L 111.853355 123.829011 
L 113.192333 116.370487 
L 114.53131 115.964962 
L 115.870288 118.500466 
L 118.548243 125.414367 
L 119.887221 128.306635 
L 121.226198 130.438107 
L 122.565176 131.739566 
L 123.904153 132.221062 
L 125.243131 131.928412 
L 126.582108 130.918464 
L 127.921086 129.246864 
L 129.260063 126.963616 
L 130.599041 124.113012 
L 131.938018 120.735699 
L 133.276996 116.871544 
L 134.615973 112.56252 
L 137.293928 102.802712 
L 139.971884 91.91239 
L 146.666771 63.666419 
L 149.344726 53.616716 
L 150.683704 49.117955 
L 152.022681 45.021225 
L 153.361659 41.347397 
L 154.700636 38.104016 
L 156.039614 35.286988 
L 157.378591 32.882872 
L 158.717569 30.871446 
L 160.056546 29.2282 
L 161.395524 27.926502 
L 162.734502 26.939245 
L 164.073479 26.239942 
L 165.412457 25.803326 
L 166.751434 25.605617 
L 168.090412 25.624654 
L 169.429389 25.840061 
L 170.768367 26.233565 
L 172.107344 26.789501 
L 173.446322 27.495436 
L 174.785299 28.342764 
L 177.463254 30.448415 
L 180.141209 33.120343 
L 182.819165 36.419135 
L 185.49712 40.41413 
L 188.175075 45.146413 
L 190.85303 50.611562 
L 193.530985 56.763766 
L 196.20894 63.525482 
L 200.225872 74.552179 
L 206.92076 93.558786 
L 209.598715 100.515846 
L 212.27667 106.627489 
L 213.615648 109.286098 
L 214.954625 111.648143 
L 216.293603 113.69723 
L 217.63258 115.422719 
L 218.971558 116.819349 
L 220.310535 117.886854 
L 221.649513 118.629675 
L 222.98849 119.056821 
L 224.327468 119.181884 
L 225.666446 119.023111 
L 227.005423 118.603428 
L 228.344401 117.950272 
L 229.683378 117.095103 
L 232.361333 114.91893 
L 236.378266 111.026505 
L 241.734176 105.778121 
L 247.090086 100.661069 
L 249.768041 97.822812 
L 252.445996 94.616673 
L 255.123951 91.032479 
L 263.157816 79.702373 
L 265.835771 76.504958 
L 268.513726 73.84294 
L 271.191682 71.704085 
L 273.869637 69.987245 
L 277.886569 67.87306 
L 284.581457 64.47756 
L 288.598389 62.411072 
L 291.276345 61.36441 
L 292.615322 61.061988 
L 293.9543 60.970869 
L 295.293277 61.139817 
L 296.632255 61.615035 
L 297.971232 62.437616 
L 299.31021 63.641247 
L 300.649187 65.250309 
L 301.988165 67.278432 
L 303.327142 69.727534 
L 304.66612 72.587324 
L 306.005097 75.83525 
L 308.683052 83.346443 
L 311.361007 91.857867 
L 316.716918 109.646073 
L 319.394873 117.686054 
L 320.73385 121.237696 
L 322.072828 124.39615 
L 323.411805 127.111336 
L 324.750783 129.342304 
L 326.08976 131.057162 
L 327.428738 132.232561 
L 328.767715 132.852879 
L 330.106693 132.909254 
L 331.44567 132.398615 
L 332.784648 131.322878 
L 334.123626 129.688407 
L 335.462603 127.505836 
L 336.801581 124.790262 
L 338.140558 121.561814 
L 339.479536 117.846476 
L 340.818513 113.677082 
L 343.496468 104.147243 
L 346.174423 93.401501 
L 354.208288 59.840869 
L 356.886244 50.283384 
L 358.225221 46.076351 
L 359.564199 42.288033 
L 360.903176 38.929407 
L 362.242154 35.999278 
L 363.581131 33.486449 
L 364.920109 31.37225 
L 366.259086 29.633084 
L 367.598064 28.242698 
L 368.937041 27.17398 
L 370.276019 26.400199 
L 371.614996 25.895723 
L 372.953974 25.636361 
L 374.292951 25.599508 
L 375.631929 25.764284 
L 376.970907 26.111812 
L 376.970907 26.111812 
" clip-path="url(#p8b1103fa37)" style="fill: none; stroke: #2b737e; stroke-width: 1.5; stroke-linecap: square"/>
   </g>
   <g id="line2d_24">
    <path d="M 109.1754 109.467506 
L 110.514378 90.148137 
L 111.853355 98.921118 
L 114.53131 123.429457 
L 115.870288 134.482039 
L 117.209265 144.425617 
L 119.887221 161.676962 
L 122.565176 176.7234 
L 125.243131 190.375982 
L 127.921086 202.667029 
L 129.260063 208.200642 
L 130.599041 213.252337 
L 131.938018 217.764178 
L 133.276996 221.680315 
L 134.615973 224.949239 
L 135.954951 227.525651 
L 137.293928 229.37225 
L 138.632906 230.461581 
L 139.971884 230.777953 
L 141.310861 230.319244 
L 142.649839 229.098363 
L 143.988816 227.144082 
L 145.327794 224.500979 
L 146.666771 221.228348 
L 148.005749 217.398039 
L 149.344726 213.091344 
L 152.022681 203.398075 
L 156.039614 187.428083 
L 161.395524 166.20375 
L 164.073479 156.299136 
L 166.751434 147.026743 
L 169.429389 138.404791 
L 172.107344 130.401952 
L 174.785299 122.959508 
L 177.463254 116.023848 
L 180.141209 109.586558 
L 182.819165 103.713113 
L 185.49712 98.541815 
L 186.836097 96.275395 
L 188.175075 94.253261 
L 189.514052 92.498043 
L 190.85303 91.030795 
L 192.192007 89.870807 
L 193.530985 89.035735 
L 194.869962 88.54187 
L 196.20894 88.404321 
L 197.547917 88.636915 
L 198.886895 89.251698 
L 200.225872 90.258004 
L 201.56485 91.661193 
L 202.903827 93.461228 
L 204.242805 95.651357 
L 205.581783 98.217127 
L 206.92076 101.135946 
L 209.598715 107.903531 
L 212.27667 115.633425 
L 216.293603 128.187743 
L 220.310535 140.728382 
L 222.98849 148.492308 
L 225.666446 155.419572 
L 227.005423 158.487939 
L 228.344401 161.258298 
L 229.683378 163.712601 
L 231.022356 165.840601 
L 232.361333 167.640832 
L 233.700311 169.121072 
L 235.039288 170.298134 
L 236.378266 171.196903 
L 237.717243 171.848615 
L 239.056221 172.288493 
L 240.395198 172.552931 
L 243.073153 172.688928 
L 245.751108 172.461553 
L 248.429064 171.9374 
L 251.107019 171.032331 
L 252.445996 170.3803 
L 253.784974 169.559684 
L 255.123951 168.545997 
L 256.462929 167.320079 
L 257.801906 165.870388 
L 259.140884 164.194416 
L 260.479861 162.299122 
L 263.157816 157.921591 
L 265.835771 152.942639 
L 271.191682 142.182694 
L 276.547592 131.575843 
L 288.598389 108.37767 
L 296.632255 91.833843 
L 297.971232 89.431784 
L 299.31021 87.29722 
L 300.649187 85.503517 
L 301.988165 84.12362 
L 303.327142 83.227263 
L 304.66612 82.878362 
L 306.005097 83.132665 
L 307.344075 84.035718 
L 308.683052 85.621154 
L 310.02203 87.909334 
L 311.361007 90.906381 
L 312.699985 94.603632 
L 314.038963 98.977588 
L 315.37794 103.99038 
L 316.716918 109.590797 
L 319.394873 122.292793 
L 322.072828 136.477106 
L 331.44567 188.060259 
L 334.123626 200.849417 
L 335.462603 206.60332 
L 336.801581 211.858183 
L 338.140558 216.56272 
L 339.479536 220.667843 
L 340.818513 224.127331 
L 342.157491 226.899053 
L 343.496468 228.946708 
L 344.835446 230.24195 
L 346.174423 230.766703 
L 347.513401 230.515412 
L 348.852378 229.496915 
L 350.191356 227.73566 
L 351.530333 225.272013 
L 352.869311 222.161485 
L 354.208288 218.47285 
L 355.547266 214.28526 
L 358.225221 204.759305 
L 362.242154 188.877839 
L 367.598064 167.572269 
L 370.276019 157.588104 
L 372.953974 148.228786 
L 375.631929 139.520786 
L 376.970907 135.404442 
L 376.970907 135.404442 
" clip-path="url(#p8b1103fa37)" style="fill: none; stroke: #5ea04b; stroke-width: 1.5; stroke-linecap: square"/>
   </g>
   <g id="line2d_25">
    <path d="M 109.1754 73.884681 
L 110.514378 52.002518 
L 111.853355 44.040717 
L 113.192333 40.805189 
L 114.53131 39.310614 
L 115.870288 39.146132 
L 117.209265 40.09566 
L 118.548243 41.90965 
L 119.887221 44.376441 
L 121.226198 47.351594 
L 122.565176 50.750025 
L 123.904153 54.526638 
L 126.582108 63.124262 
L 129.260063 72.975234 
L 131.938018 83.806468 
L 139.971884 117.550811 
L 142.649839 127.386041 
L 143.988816 131.745744 
L 145.327794 135.667417 
L 146.666771 139.114886 
L 148.005749 142.064394 
L 149.344726 144.505226 
L 150.683704 146.439527 
L 152.022681 147.881291 
L 153.361659 148.854632 
L 154.700636 149.391531 
L 156.039614 149.529318 
L 157.378591 149.308169 
L 158.717569 148.768872 
L 160.056546 147.95103 
L 161.395524 146.891801 
L 162.734502 145.625133 
L 165.412457 142.587386 
L 168.090412 139.036885 
L 170.768367 135.112606 
L 173.446322 130.88866 
L 176.124277 126.372349 
L 178.802232 121.518114 
L 181.480187 116.26258 
L 184.158142 110.569179 
L 188.175075 101.277071 
L 200.225872 72.320602 
L 202.903827 66.979386 
L 204.242805 64.648859 
L 205.581783 62.588358 
L 206.92076 60.826308 
L 208.259738 59.386103 
L 209.598715 58.284976 
L 210.937693 57.533348 
L 212.27667 57.134722 
L 213.615648 57.086095 
L 214.954625 57.378765 
L 216.293603 57.999374 
L 217.63258 58.931 
L 218.971558 60.154105 
L 220.310535 61.647249 
L 221.649513 63.38749 
L 224.327468 67.510598 
L 227.005423 72.311395 
L 231.022356 80.266961 
L 236.378266 91.067884 
L 240.395198 98.644537 
L 244.412131 105.728112 
L 253.784974 121.625371 
L 256.462929 125.865101 
L 259.140884 129.671972 
L 261.818839 132.859606 
L 263.157816 134.17996 
L 264.496794 135.306791 
L 265.835771 136.238567 
L 267.174749 136.978516 
L 268.513726 137.533604 
L 269.852704 137.913324 
L 271.191682 138.128492 
L 272.530659 138.190115 
L 273.869637 138.108422 
L 275.208614 137.892048 
L 276.547592 137.547331 
L 277.886569 137.077685 
L 279.225547 136.483004 
L 280.564524 135.759106 
L 281.903502 134.897242 
L 283.242479 133.883783 
L 284.581457 132.700184 
L 285.920434 131.323345 
L 287.259412 129.726462 
L 288.598389 127.880399 
L 289.937367 125.755546 
L 291.276345 123.324046 
L 292.615322 120.56223 
L 293.9543 117.453041 
L 295.293277 113.988224 
L 296.632255 110.17011 
L 299.31021 101.542887 
L 301.988165 91.831913 
L 310.02203 61.250537 
L 311.361007 56.773352 
L 312.699985 52.688056 
L 314.038963 49.065178 
L 315.37794 45.966599 
L 316.716918 43.443921 
L 318.055895 41.537255 
L 319.394873 40.274495 
L 320.73385 39.671136 
L 322.072828 39.730625 
L 323.411805 40.445194 
L 324.750783 41.797099 
L 326.08976 43.760103 
L 327.428738 46.301083 
L 328.767715 49.381584 
L 330.106693 52.959196 
L 331.44567 56.988649 
L 334.123626 66.211786 
L 336.801581 76.651071 
L 340.818513 93.634921 
L 344.835446 110.738079 
L 347.513401 121.316639 
L 350.191356 130.626713 
L 351.530333 134.667573 
L 352.869311 138.243252 
L 354.208288 141.326528 
L 355.547266 143.903079 
L 356.886244 145.971569 
L 358.225221 147.542875 
L 359.564199 148.63854 
L 360.903176 149.288639 
L 362.242154 149.529292 
L 363.581131 149.400133 
L 364.920109 148.941972 
L 366.259086 148.194873 
L 367.598064 147.196739 
L 368.937041 145.982426 
L 371.614996 143.027053 
L 374.292951 139.535719 
L 376.970907 135.655651 
L 376.970907 135.655651 
" clip-path="url(#p8b1103fa37)" style="fill: none; stroke: #bdab62; stroke-width: 1.5; stroke-linecap: square"/>
   </g>
   <g id="patch_3">
    <path d="M 95.785625 241.036875 
L 95.785625 15.340586 
" style="fill: none; stroke: #000000; stroke-width: 0.8; stroke-linejoin: miter; stroke-linecap: square"/>
   </g>
   <g id="patch_4">
    <path d="M 390.360682 241.036875 
L 390.360682 15.340586 
" style="fill: none; stroke: #000000; stroke-width: 0.8; stroke-linejoin: miter; stroke-linecap: square"/>
   </g>
   <g id="patch_5">
    <path d="M 95.785625 241.036875 
L 390.360682 241.036875 
" style="fill: none; stroke: #000000; stroke-width: 0.8; stroke-linejoin: miter; stroke-linecap: square"/>
   </g>
   <g id="patch_6">
    <path d="M 95.785625 15.340586 
L 390.360682 15.340586 
" style="fill: none; stroke: #000000; stroke-width: 0.8; stroke-linejoin: miter; stroke-linecap: square"/>
   </g>
   <g id="legend_1">
    <g id="patch_7">
     <path d="M 320.880682 236.536875 
L 384.060682 236.536875 
Q 385.860682 236.536875 385.860682 234.736875 
L 385.860682 195.141094 
Q 385.860682 193.341094 384.060682 193.341094 
L 320.880682 193.341094 
Q 319.080682 193.341094 319.080682 195.141094 
L 319.080682 234.736875 
Q 319.080682 236.536875 320.880682 236.536875 
z
" style="fill: #ffffff; opacity: 0.8; stroke: #cccccc; stroke-linejoin: miter"/>
    </g>
    <g id="line2d_26">
     <path d="M 322.680682 200.629687 
L 331.680682 200.629687 
L 340.680682 200.629687 
" style="fill: none; stroke: #2b737e; stroke-width: 1.5; stroke-linecap: square"/>
    </g>
    <g id="text_14">
     <!-- $TAM\_B_{0}$ -->
     <g transform="translate(347.880682 203.779687) scale(0.09 -0.09)">
      <defs>
       <path id="DejaVuSans-Oblique-54" d="M 378 4666 
L 4325 4666 
L 4225 4134 
L 2559 4134 
L 1759 0 
L 1125 0 
L 1925 4134 
L 275 4134 
L 378 4666 
z
" transform="scale(0.015625)"/>
       <path id="DejaVuSans-Oblique-41" d="M 2356 4666 
L 3072 4666 
L 3938 0 
L 3278 0 
L 3084 1197 
L 984 1197 
L 325 0 
L -341 0 
L 2356 4666 
z
M 2584 4044 
L 1275 1722 
L 2988 1722 
L 2584 4044 
z
" transform="scale(0.015625)"/>
       <path id="DejaVuSans-Oblique-4d" d="M 1081 4666 
L 2028 4666 
L 2572 1522 
L 4378 4666 
L 5350 4666 
L 4441 0 
L 3828 0 
L 4622 4091 
L 2791 897 
L 2175 897 
L 1581 4103 
L 788 0 
L 172 0 
L 1081 4666 
z
" transform="scale(0.015625)"/>
       <path id="DejaVuSans-5f" d="M 3263 -1063 
L 3263 -1509 
L -63 -1509 
L -63 -1063 
L 3263 -1063 
z
" transform="scale(0.015625)"/>
       <path id="DejaVuSans-Oblique-42" d="M 1081 4666 
L 2694 4666 
Q 3350 4666 3675 4422 
Q 4000 4178 4000 3688 
Q 4000 3238 3720 2911 
Q 3441 2584 2988 2516 
Q 3375 2428 3569 2181 
Q 3763 1934 3763 1522 
Q 3763 819 3242 409 
Q 2722 0 1819 0 
L 172 0 
L 1081 4666 
z
M 1234 2228 
L 903 519 
L 1919 519 
Q 2491 519 2800 781 
Q 3109 1044 3109 1522 
Q 3109 1891 2904 2059 
Q 2700 2228 2247 2228 
L 1234 2228 
z
M 1606 4147 
L 1331 2741 
L 2272 2741 
Q 2775 2741 3058 2959 
Q 3341 3178 3341 3566 
Q 3341 3869 3150 4008 
Q 2959 4147 2541 4147 
L 1606 4147 
z
" transform="scale(0.015625)"/>
      </defs>
      <use xlink:href="#DejaVuSans-Oblique-54" transform="translate(0 0.09375)"/>
      <use xlink:href="#DejaVuSans-Oblique-41" transform="translate(61.083984 0.09375)"/>
      <use xlink:href="#DejaVuSans-Oblique-4d" transform="translate(129.492188 0.09375)"/>
      <use xlink:href="#DejaVuSans-5f" transform="translate(215.771484 0.09375)"/>
      <use xlink:href="#DejaVuSans-Oblique-42" transform="translate(265.771484 0.09375)"/>
      <use xlink:href="#DejaVuSans-30" transform="translate(334.375 -16.3125) scale(0.7)"/>
     </g>
    </g>
    <g id="line2d_27">
     <path d="M 322.680682 214.128281 
L 331.680682 214.128281 
L 340.680682 214.128281 
" style="fill: none; stroke: #5ea04b; stroke-width: 1.5; stroke-linecap: square"/>
    </g>
    <g id="text_15">
     <!-- $TAM\_B_{1}$ -->
     <g transform="translate(347.880682 217.278281) scale(0.09 -0.09)">
      <use xlink:href="#DejaVuSans-Oblique-54" transform="translate(0 0.09375)"/>
      <use xlink:href="#DejaVuSans-Oblique-41" transform="translate(61.083984 0.09375)"/>
      <use xlink:href="#DejaVuSans-Oblique-4d" transform="translate(129.492188 0.09375)"/>
      <use xlink:href="#DejaVuSans-5f" transform="translate(215.771484 0.09375)"/>
      <use xlink:href="#DejaVuSans-Oblique-42" transform="translate(265.771484 0.09375)"/>
      <use xlink:href="#DejaVuSans-31" transform="translate(334.375 -16.3125) scale(0.7)"/>
     </g>
    </g>
    <g id="line2d_28">
     <path d="M 322.680682 227.626875 
L 331.680682 227.626875 
L 340.680682 227.626875 
" style="fill: none; stroke: #bdab62; stroke-width: 1.5; stroke-linecap: square"/>
    </g>
    <g id="text_16">
     <!-- $TAM\_B_{2}$ -->
     <g transform="translate(347.880682 230.776875) scale(0.09 -0.09)">
      <use xlink:href="#DejaVuSans-Oblique-54" transform="translate(0 0.09375)"/>
      <use xlink:href="#DejaVuSans-Oblique-41" transform="translate(61.083984 0.09375)"/>
      <use xlink:href="#DejaVuSans-Oblique-4d" transform="translate(129.492188 0.09375)"/>
      <use xlink:href="#DejaVuSans-5f" transform="translate(215.771484 0.09375)"/>
      <use xlink:href="#DejaVuSans-Oblique-42" transform="translate(265.771484 0.09375)"/>
      <use xlink:href="#DejaVuSans-32" transform="translate(334.375 -16.3125) scale(0.7)"/>
     </g>
    </g>
   </g>
  </g>
 </g>
 <defs>
  <clipPath id="p8b1103fa37">
   <rect x="95.785625" y="15.340586" width="294.575057" height="225.696289"/>
  </clipPath>
 </defs>
</svg>
