<?xml version="1.0" encoding="utf-8" standalone="no"?>
<!DOCTYPE svg PUBLIC "-//W3C//DTD SVG 1.1//EN"
  "http://www.w3.org/Graphics/SVG/1.1/DTD/svg11.dtd">
<svg xmlns:xlink="http://www.w3.org/1999/xlink" width="414pt" height="288pt" viewBox="0 0 414 288" xmlns="http://www.w3.org/2000/svg" version="1.1">
 <metadata>
  <rdf:RDF xmlns:dc="http://purl.org/dc/elements/1.1/" xmlns:cc="http://creativecommons.org/ns#" xmlns:rdf="http://www.w3.org/1999/02/22-rdf-syntax-ns#">
   <cc:Work>
    <dc:type rdf:resource="http://purl.org/dc/dcmitype/StillImage"/>
    <dc:date>2023-09-07T00:34:41.754524</dc:date>
    <dc:format>image/svg+xml</dc:format>
    <dc:creator>
     <cc:Agent>
      <dc:title>Matplotlib v3.7.2, https://matplotlib.org/</dc:title>
     </cc:Agent>
    </dc:creator>
   </cc:Work>
  </rdf:RDF>
 </metadata>
 <defs>
  <style type="text/css">*{stroke-linejoin: round; stroke-linecap: butt}</style>
 </defs>
 <g id="figure_1">
  <g id="patch_1">
   <path d="M 0 288 
L 414 288 
L 414 0 
L 0 0 
L 0 288 
z
" style="fill: none"/>
  </g>
  <g id="axes_1">
   <g id="patch_2">
    <path d="M 77.283125 241.036875 
L 403.2 241.036875 
L 403.2 10.8 
L 77.283125 10.8 
L 77.283125 241.036875 
z
" style="fill: none"/>
   </g>
   <g id="matplotlib.axis_1">
    <g id="xtick_1">
     <g id="line2d_1">
      <defs>
       <path id="m2016f6ac6a" d="M 0 0 
L 0 3.5 
" style="stroke: #000000; stroke-width: 0.8"/>
      </defs>
      <g>
       <use xlink:href="#m2016f6ac6a" x="92.097528" y="241.036875" style="stroke: #000000; stroke-width: 0.8"/>
      </g>
     </g>
     <g id="text_1">
      <!-- 0.0 -->
      <g transform="translate(79.375028 260.194375) scale(0.16 -0.16)">
       <defs>
        <path id="DejaVuSans-30" d="M 2034 4250 
Q 1547 4250 1301 3770 
Q 1056 3291 1056 2328 
Q 1056 1369 1301 889 
Q 1547 409 2034 409 
Q 2525 409 2770 889 
Q 3016 1369 3016 2328 
Q 3016 3291 2770 3770 
Q 2525 4250 2034 4250 
z
M 2034 4750 
Q 2819 4750 3233 4129 
Q 3647 3509 3647 2328 
Q 3647 1150 3233 529 
Q 2819 -91 2034 -91 
Q 1250 -91 836 529 
Q 422 1150 422 2328 
Q 422 3509 836 4129 
Q 1250 4750 2034 4750 
z
" transform="scale(0.015625)"/>
        <path id="DejaVuSans-2e" d="M 684 794 
L 1344 794 
L 1344 0 
L 684 0 
L 684 794 
z
" transform="scale(0.015625)"/>
       </defs>
       <use xlink:href="#DejaVuSans-30"/>
       <use xlink:href="#DejaVuSans-2e" x="63.623047"/>
       <use xlink:href="#DejaVuSans-30" x="95.410156"/>
      </g>
     </g>
    </g>
    <g id="xtick_2">
     <g id="line2d_2">
      <g>
       <use xlink:href="#m2016f6ac6a" x="190.860218" y="241.036875" style="stroke: #000000; stroke-width: 0.8"/>
      </g>
     </g>
     <g id="text_2">
      <!-- 0.5 -->
      <g transform="translate(178.137718 260.194375) scale(0.16 -0.16)">
       <defs>
        <path id="DejaVuSans-35" d="M 691 4666 
L 3169 4666 
L 3169 4134 
L 1269 4134 
L 1269 2991 
Q 1406 3038 1543 3061 
Q 1681 3084 1819 3084 
Q 2600 3084 3056 2656 
Q 3513 2228 3513 1497 
Q 3513 744 3044 326 
Q 2575 -91 1722 -91 
Q 1428 -91 1123 -41 
Q 819 9 494 109 
L 494 744 
Q 775 591 1075 516 
Q 1375 441 1709 441 
Q 2250 441 2565 725 
Q 2881 1009 2881 1497 
Q 2881 1984 2565 2268 
Q 2250 2553 1709 2553 
Q 1456 2553 1204 2497 
Q 953 2441 691 2322 
L 691 4666 
z
" transform="scale(0.015625)"/>
       </defs>
       <use xlink:href="#DejaVuSans-30"/>
       <use xlink:href="#DejaVuSans-2e" x="63.623047"/>
       <use xlink:href="#DejaVuSans-35" x="95.410156"/>
      </g>
     </g>
    </g>
    <g id="xtick_3">
     <g id="line2d_3">
      <g>
       <use xlink:href="#m2016f6ac6a" x="289.622907" y="241.036875" style="stroke: #000000; stroke-width: 0.8"/>
      </g>
     </g>
     <g id="text_3">
      <!-- 1.0 -->
      <g transform="translate(276.900407 260.194375) scale(0.16 -0.16)">
       <defs>
        <path id="DejaVuSans-31" d="M 794 531 
L 1825 531 
L 1825 4091 
L 703 3866 
L 703 4441 
L 1819 4666 
L 2450 4666 
L 2450 531 
L 3481 531 
L 3481 0 
L 794 0 
L 794 531 
z
" transform="scale(0.015625)"/>
       </defs>
       <use xlink:href="#DejaVuSans-31"/>
       <use xlink:href="#DejaVuSans-2e" x="63.623047"/>
       <use xlink:href="#DejaVuSans-30" x="95.410156"/>
      </g>
     </g>
    </g>
    <g id="xtick_4">
     <g id="line2d_4">
      <g>
       <use xlink:href="#m2016f6ac6a" x="388.385597" y="241.036875" style="stroke: #000000; stroke-width: 0.8"/>
      </g>
     </g>
     <g id="text_4">
      <!-- 1.5 -->
      <g transform="translate(375.663097 260.194375) scale(0.16 -0.16)">
       <use xlink:href="#DejaVuSans-31"/>
       <use xlink:href="#DejaVuSans-2e" x="63.623047"/>
       <use xlink:href="#DejaVuSans-35" x="95.410156"/>
      </g>
     </g>
    </g>
    <g id="text_5">
     <!-- Time [min] -->
     <g transform="translate(213.089219 275.120313) scale(0.1 -0.1)">
      <defs>
       <path id="DejaVuSans-54" d="M -19 4666 
L 3928 4666 
L 3928 4134 
L 2272 4134 
L 2272 0 
L 1638 0 
L 1638 4134 
L -19 4134 
L -19 4666 
z
" transform="scale(0.015625)"/>
       <path id="DejaVuSans-69" d="M 603 3500 
L 1178 3500 
L 1178 0 
L 603 0 
L 603 3500 
z
M 603 4863 
L 1178 4863 
L 1178 4134 
L 603 4134 
L 603 4863 
z
" transform="scale(0.015625)"/>
       <path id="DejaVuSans-6d" d="M 3328 2828 
Q 3544 3216 3844 3400 
Q 4144 3584 4550 3584 
Q 5097 3584 5394 3201 
Q 5691 2819 5691 2113 
L 5691 0 
L 5113 0 
L 5113 2094 
Q 5113 2597 4934 2840 
Q 4756 3084 4391 3084 
Q 3944 3084 3684 2787 
Q 3425 2491 3425 1978 
L 3425 0 
L 2847 0 
L 2847 2094 
Q 2847 2600 2669 2842 
Q 2491 3084 2119 3084 
Q 1678 3084 1418 2786 
Q 1159 2488 1159 1978 
L 1159 0 
L 581 0 
L 581 3500 
L 1159 3500 
L 1159 2956 
Q 1356 3278 1631 3431 
Q 1906 3584 2284 3584 
Q 2666 3584 2933 3390 
Q 3200 3197 3328 2828 
z
" transform="scale(0.015625)"/>
       <path id="DejaVuSans-65" d="M 3597 1894 
L 3597 1613 
L 953 1613 
Q 991 1019 1311 708 
Q 1631 397 2203 397 
Q 2534 397 2845 478 
Q 3156 559 3463 722 
L 3463 178 
Q 3153 47 2828 -22 
Q 2503 -91 2169 -91 
Q 1331 -91 842 396 
Q 353 884 353 1716 
Q 353 2575 817 3079 
Q 1281 3584 2069 3584 
Q 2775 3584 3186 3129 
Q 3597 2675 3597 1894 
z
M 3022 2063 
Q 3016 2534 2758 2815 
Q 2500 3097 2075 3097 
Q 1594 3097 1305 2825 
Q 1016 2553 972 2059 
L 3022 2063 
z
" transform="scale(0.015625)"/>
       <path id="DejaVuSans-20" transform="scale(0.015625)"/>
       <path id="DejaVuSans-5b" d="M 550 4863 
L 1875 4863 
L 1875 4416 
L 1125 4416 
L 1125 -397 
L 1875 -397 
L 1875 -844 
L 550 -844 
L 550 4863 
z
" transform="scale(0.015625)"/>
       <path id="DejaVuSans-6e" d="M 3513 2113 
L 3513 0 
L 2938 0 
L 2938 2094 
Q 2938 2591 2744 2837 
Q 2550 3084 2163 3084 
Q 1697 3084 1428 2787 
Q 1159 2491 1159 1978 
L 1159 0 
L 581 0 
L 581 3500 
L 1159 3500 
L 1159 2956 
Q 1366 3272 1645 3428 
Q 1925 3584 2291 3584 
Q 2894 3584 3203 3211 
Q 3513 2838 3513 2113 
z
" transform="scale(0.015625)"/>
       <path id="DejaVuSans-5d" d="M 1947 4863 
L 1947 -844 
L 622 -844 
L 622 -397 
L 1369 -397 
L 1369 4416 
L 622 4416 
L 622 4863 
L 1947 4863 
z
" transform="scale(0.015625)"/>
      </defs>
      <use xlink:href="#DejaVuSans-54"/>
      <use xlink:href="#DejaVuSans-69" x="57.958984"/>
      <use xlink:href="#DejaVuSans-6d" x="85.742188"/>
      <use xlink:href="#DejaVuSans-65" x="183.154297"/>
      <use xlink:href="#DejaVuSans-20" x="244.677734"/>
      <use xlink:href="#DejaVuSans-5b" x="276.464844"/>
      <use xlink:href="#DejaVuSans-6d" x="315.478516"/>
      <use xlink:href="#DejaVuSans-69" x="412.890625"/>
      <use xlink:href="#DejaVuSans-6e" x="440.673828"/>
      <use xlink:href="#DejaVuSans-5d" x="504.052734"/>
     </g>
    </g>
   </g>
   <g id="matplotlib.axis_2">
    <g id="ytick_1">
     <g id="line2d_5">
      <defs>
       <path id="m40983c032e" d="M 0 0 
L -3.5 0 
" style="stroke: #000000; stroke-width: 0.8"/>
      </defs>
      <g>
       <use xlink:href="#m40983c032e" x="77.283125" y="238.615975" style="stroke: #000000; stroke-width: 0.8"/>
      </g>
     </g>
     <g id="text_6">
      <!-- −0.0005 -->
      <g transform="translate(0.890625 244.694725) scale(0.16 -0.16)">
       <defs>
        <path id="DejaVuSans-2212" d="M 678 2272 
L 4684 2272 
L 4684 1741 
L 678 1741 
L 678 2272 
z
" transform="scale(0.015625)"/>
       </defs>
       <use xlink:href="#DejaVuSans-2212"/>
       <use xlink:href="#DejaVuSans-30" x="83.789062"/>
       <use xlink:href="#DejaVuSans-2e" x="147.412109"/>
       <use xlink:href="#DejaVuSans-30" x="179.199219"/>
       <use xlink:href="#DejaVuSans-30" x="242.822266"/>
       <use xlink:href="#DejaVuSans-30" x="306.445312"/>
       <use xlink:href="#DejaVuSans-35" x="370.068359"/>
      </g>
     </g>
    </g>
    <g id="ytick_2">
     <g id="line2d_6">
      <g>
       <use xlink:href="#m40983c032e" x="77.283125" y="204.252718" style="stroke: #000000; stroke-width: 0.8"/>
      </g>
     </g>
     <g id="text_7">
      <!-- 0.0000 -->
      <g transform="translate(14.298125 210.331468) scale(0.16 -0.16)">
       <use xlink:href="#DejaVuSans-30"/>
       <use xlink:href="#DejaVuSans-2e" x="63.623047"/>
       <use xlink:href="#DejaVuSans-30" x="95.410156"/>
       <use xlink:href="#DejaVuSans-30" x="159.033203"/>
       <use xlink:href="#DejaVuSans-30" x="222.65625"/>
       <use xlink:href="#DejaVuSans-30" x="286.279297"/>
      </g>
     </g>
    </g>
    <g id="ytick_3">
     <g id="line2d_7">
      <g>
       <use xlink:href="#m40983c032e" x="77.283125" y="169.889461" style="stroke: #000000; stroke-width: 0.8"/>
      </g>
     </g>
     <g id="text_8">
      <!-- 0.0005 -->
      <g transform="translate(14.298125 175.968211) scale(0.16 -0.16)">
       <use xlink:href="#DejaVuSans-30"/>
       <use xlink:href="#DejaVuSans-2e" x="63.623047"/>
       <use xlink:href="#DejaVuSans-30" x="95.410156"/>
       <use xlink:href="#DejaVuSans-30" x="159.033203"/>
       <use xlink:href="#DejaVuSans-30" x="222.65625"/>
       <use xlink:href="#DejaVuSans-35" x="286.279297"/>
      </g>
     </g>
    </g>
    <g id="ytick_4">
     <g id="line2d_8">
      <g>
       <use xlink:href="#m40983c032e" x="77.283125" y="135.526204" style="stroke: #000000; stroke-width: 0.8"/>
      </g>
     </g>
     <g id="text_9">
      <!-- 0.0010 -->
      <g transform="translate(14.298125 141.604954) scale(0.16 -0.16)">
       <use xlink:href="#DejaVuSans-30"/>
       <use xlink:href="#DejaVuSans-2e" x="63.623047"/>
       <use xlink:href="#DejaVuSans-30" x="95.410156"/>
       <use xlink:href="#DejaVuSans-30" x="159.033203"/>
       <use xlink:href="#DejaVuSans-31" x="222.65625"/>
       <use xlink:href="#DejaVuSans-30" x="286.279297"/>
      </g>
     </g>
    </g>
    <g id="ytick_5">
     <g id="line2d_9">
      <g>
       <use xlink:href="#m40983c032e" x="77.283125" y="101.162947" style="stroke: #000000; stroke-width: 0.8"/>
      </g>
     </g>
     <g id="text_10">
      <!-- 0.0015 -->
      <g transform="translate(14.298125 107.241697) scale(0.16 -0.16)">
       <use xlink:href="#DejaVuSans-30"/>
       <use xlink:href="#DejaVuSans-2e" x="63.623047"/>
       <use xlink:href="#DejaVuSans-30" x="95.410156"/>
       <use xlink:href="#DejaVuSans-30" x="159.033203"/>
       <use xlink:href="#DejaVuSans-31" x="222.65625"/>
       <use xlink:href="#DejaVuSans-35" x="286.279297"/>
      </g>
     </g>
    </g>
    <g id="ytick_6">
     <g id="line2d_10">
      <g>
       <use xlink:href="#m40983c032e" x="77.283125" y="66.79969" style="stroke: #000000; stroke-width: 0.8"/>
      </g>
     </g>
     <g id="text_11">
      <!-- 0.0020 -->
      <g transform="translate(14.298125 72.87844) scale(0.16 -0.16)">
       <defs>
        <path id="DejaVuSans-32" d="M 1228 531 
L 3431 531 
L 3431 0 
L 469 0 
L 469 531 
Q 828 903 1448 1529 
Q 2069 2156 2228 2338 
Q 2531 2678 2651 2914 
Q 2772 3150 2772 3378 
Q 2772 3750 2511 3984 
Q 2250 4219 1831 4219 
Q 1534 4219 1204 4116 
Q 875 4013 500 3803 
L 500 4441 
Q 881 4594 1212 4672 
Q 1544 4750 1819 4750 
Q 2544 4750 2975 4387 
Q 3406 4025 3406 3419 
Q 3406 3131 3298 2873 
Q 3191 2616 2906 2266 
Q 2828 2175 2409 1742 
Q 1991 1309 1228 531 
z
" transform="scale(0.015625)"/>
       </defs>
       <use xlink:href="#DejaVuSans-30"/>
       <use xlink:href="#DejaVuSans-2e" x="63.623047"/>
       <use xlink:href="#DejaVuSans-30" x="95.410156"/>
       <use xlink:href="#DejaVuSans-30" x="159.033203"/>
       <use xlink:href="#DejaVuSans-32" x="222.65625"/>
       <use xlink:href="#DejaVuSans-30" x="286.279297"/>
      </g>
     </g>
    </g>
    <g id="ytick_7">
     <g id="line2d_11">
      <g>
       <use xlink:href="#m40983c032e" x="77.283125" y="32.436433" style="stroke: #000000; stroke-width: 0.8"/>
      </g>
     </g>
     <g id="text_12">
      <!-- 0.0025 -->
      <g transform="translate(14.298125 38.515183) scale(0.16 -0.16)">
       <use xlink:href="#DejaVuSans-30"/>
       <use xlink:href="#DejaVuSans-2e" x="63.623047"/>
       <use xlink:href="#DejaVuSans-30" x="95.410156"/>
       <use xlink:href="#DejaVuSans-30" x="159.033203"/>
       <use xlink:href="#DejaVuSans-32" x="222.65625"/>
       <use xlink:href="#DejaVuSans-35" x="286.279297"/>
      </g>
     </g>
    </g>
    <g id="text_13">
     <!-- RW Motor Torque (Nm) -->
     <g transform="translate(-5.189062 182.515312) rotate(-90) scale(0.1 -0.1)">
      <defs>
       <path id="DejaVuSans-52" d="M 2841 2188 
Q 3044 2119 3236 1894 
Q 3428 1669 3622 1275 
L 4263 0 
L 3584 0 
L 2988 1197 
Q 2756 1666 2539 1819 
Q 2322 1972 1947 1972 
L 1259 1972 
L 1259 0 
L 628 0 
L 628 4666 
L 2053 4666 
Q 2853 4666 3247 4331 
Q 3641 3997 3641 3322 
Q 3641 2881 3436 2590 
Q 3231 2300 2841 2188 
z
M 1259 4147 
L 1259 2491 
L 2053 2491 
Q 2509 2491 2742 2702 
Q 2975 2913 2975 3322 
Q 2975 3731 2742 3939 
Q 2509 4147 2053 4147 
L 1259 4147 
z
" transform="scale(0.015625)"/>
       <path id="DejaVuSans-57" d="M 213 4666 
L 850 4666 
L 1831 722 
L 2809 4666 
L 3519 4666 
L 4500 722 
L 5478 4666 
L 6119 4666 
L 4947 0 
L 4153 0 
L 3169 4050 
L 2175 0 
L 1381 0 
L 213 4666 
z
" transform="scale(0.015625)"/>
       <path id="DejaVuSans-4d" d="M 628 4666 
L 1569 4666 
L 2759 1491 
L 3956 4666 
L 4897 4666 
L 4897 0 
L 4281 0 
L 4281 4097 
L 3078 897 
L 2444 897 
L 1241 4097 
L 1241 0 
L 628 0 
L 628 4666 
z
" transform="scale(0.015625)"/>
       <path id="DejaVuSans-6f" d="M 1959 3097 
Q 1497 3097 1228 2736 
Q 959 2375 959 1747 
Q 959 1119 1226 758 
Q 1494 397 1959 397 
Q 2419 397 2687 759 
Q 2956 1122 2956 1747 
Q 2956 2369 2687 2733 
Q 2419 3097 1959 3097 
z
M 1959 3584 
Q 2709 3584 3137 3096 
Q 3566 2609 3566 1747 
Q 3566 888 3137 398 
Q 2709 -91 1959 -91 
Q 1206 -91 779 398 
Q 353 888 353 1747 
Q 353 2609 779 3096 
Q 1206 3584 1959 3584 
z
" transform="scale(0.015625)"/>
       <path id="DejaVuSans-74" d="M 1172 4494 
L 1172 3500 
L 2356 3500 
L 2356 3053 
L 1172 3053 
L 1172 1153 
Q 1172 725 1289 603 
Q 1406 481 1766 481 
L 2356 481 
L 2356 0 
L 1766 0 
Q 1100 0 847 248 
Q 594 497 594 1153 
L 594 3053 
L 172 3053 
L 172 3500 
L 594 3500 
L 594 4494 
L 1172 4494 
z
" transform="scale(0.015625)"/>
       <path id="DejaVuSans-72" d="M 2631 2963 
Q 2534 3019 2420 3045 
Q 2306 3072 2169 3072 
Q 1681 3072 1420 2755 
Q 1159 2438 1159 1844 
L 1159 0 
L 581 0 
L 581 3500 
L 1159 3500 
L 1159 2956 
Q 1341 3275 1631 3429 
Q 1922 3584 2338 3584 
Q 2397 3584 2469 3576 
Q 2541 3569 2628 3553 
L 2631 2963 
z
" transform="scale(0.015625)"/>
       <path id="DejaVuSans-71" d="M 947 1747 
Q 947 1113 1208 752 
Q 1469 391 1925 391 
Q 2381 391 2643 752 
Q 2906 1113 2906 1747 
Q 2906 2381 2643 2742 
Q 2381 3103 1925 3103 
Q 1469 3103 1208 2742 
Q 947 2381 947 1747 
z
M 2906 525 
Q 2725 213 2448 61 
Q 2172 -91 1784 -91 
Q 1150 -91 751 415 
Q 353 922 353 1747 
Q 353 2572 751 3078 
Q 1150 3584 1784 3584 
Q 2172 3584 2448 3432 
Q 2725 3281 2906 2969 
L 2906 3500 
L 3481 3500 
L 3481 -1331 
L 2906 -1331 
L 2906 525 
z
" transform="scale(0.015625)"/>
       <path id="DejaVuSans-75" d="M 544 1381 
L 544 3500 
L 1119 3500 
L 1119 1403 
Q 1119 906 1312 657 
Q 1506 409 1894 409 
Q 2359 409 2629 706 
Q 2900 1003 2900 1516 
L 2900 3500 
L 3475 3500 
L 3475 0 
L 2900 0 
L 2900 538 
Q 2691 219 2414 64 
Q 2138 -91 1772 -91 
Q 1169 -91 856 284 
Q 544 659 544 1381 
z
M 1991 3584 
L 1991 3584 
z
" transform="scale(0.015625)"/>
       <path id="DejaVuSans-28" d="M 1984 4856 
Q 1566 4138 1362 3434 
Q 1159 2731 1159 2009 
Q 1159 1288 1364 580 
Q 1569 -128 1984 -844 
L 1484 -844 
Q 1016 -109 783 600 
Q 550 1309 550 2009 
Q 550 2706 781 3412 
Q 1013 4119 1484 4856 
L 1984 4856 
z
" transform="scale(0.015625)"/>
       <path id="DejaVuSans-4e" d="M 628 4666 
L 1478 4666 
L 3547 763 
L 3547 4666 
L 4159 4666 
L 4159 0 
L 3309 0 
L 1241 3903 
L 1241 0 
L 628 0 
L 628 4666 
z
" transform="scale(0.015625)"/>
       <path id="DejaVuSans-29" d="M 513 4856 
L 1013 4856 
Q 1481 4119 1714 3412 
Q 1947 2706 1947 2009 
Q 1947 1309 1714 600 
Q 1481 -109 1013 -844 
L 513 -844 
Q 928 -128 1133 580 
Q 1338 1288 1338 2009 
Q 1338 2731 1133 3434 
Q 928 4138 513 4856 
z
" transform="scale(0.015625)"/>
      </defs>
      <use xlink:href="#DejaVuSans-52"/>
      <use xlink:href="#DejaVuSans-57" x="65.482422"/>
      <use xlink:href="#DejaVuSans-20" x="164.359375"/>
      <use xlink:href="#DejaVuSans-4d" x="196.146484"/>
      <use xlink:href="#DejaVuSans-6f" x="282.425781"/>
      <use xlink:href="#DejaVuSans-74" x="343.607422"/>
      <use xlink:href="#DejaVuSans-6f" x="382.816406"/>
      <use xlink:href="#DejaVuSans-72" x="443.998047"/>
      <use xlink:href="#DejaVuSans-20" x="485.111328"/>
      <use xlink:href="#DejaVuSans-54" x="516.898438"/>
      <use xlink:href="#DejaVuSans-6f" x="560.982422"/>
      <use xlink:href="#DejaVuSans-72" x="622.164062"/>
      <use xlink:href="#DejaVuSans-71" x="661.527344"/>
      <use xlink:href="#DejaVuSans-75" x="725.003906"/>
      <use xlink:href="#DejaVuSans-65" x="788.382812"/>
      <use xlink:href="#DejaVuSans-20" x="849.90625"/>
      <use xlink:href="#DejaVuSans-28" x="881.693359"/>
      <use xlink:href="#DejaVuSans-4e" x="920.707031"/>
      <use xlink:href="#DejaVuSans-6d" x="995.511719"/>
      <use xlink:href="#DejaVuSans-29" x="1092.923828"/>
     </g>
    </g>
   </g>
   <g id="line2d_12">
    <path d="M 92.097528 132.972728 
L 93.743573 199.583045 
L 95.389618 204.983268 
L 97.035663 205.489672 
L 100.327753 205.979326 
L 103.619842 206.287059 
L 111.850066 206.680651 
L 116.788201 206.531314 
L 143.124918 205.229967 
L 157.939321 204.872184 
L 179.337904 204.599655 
L 215.55089 204.395385 
L 281.392683 204.28252 
L 388.385597 204.255071 
L 388.385597 204.255071 
" clip-path="url(#pcd0a14d6de)" style="fill: none; stroke-dasharray: 5.55,2.4; stroke-dashoffset: 0; stroke: #2b737e; stroke-width: 1.5"/>
   </g>
   <g id="line2d_13">
    <path d="M 92.097528 204.252718 
L 93.743573 135.526204 
L 95.389618 199.583045 
L 97.035663 204.983268 
L 98.681708 205.489672 
L 101.973797 205.979326 
L 105.265887 206.287059 
L 113.496111 206.680651 
L 118.434246 206.531314 
L 144.770963 205.229967 
L 159.585366 204.872184 
L 180.983949 204.599655 
L 217.196935 204.395385 
L 283.038728 204.28252 
L 388.385597 204.255165 
L 388.385597 204.255165 
" clip-path="url(#pcd0a14d6de)" style="fill: none; stroke: #2b737e; stroke-width: 1.5; stroke-linecap: square"/>
   </g>
   <g id="line2d_14">
    <path d="M 92.097528 21.265312 
L 93.743573 33.973601 
L 97.035663 65.436949 
L 101.973797 115.109918 
L 105.265887 148.963387 
L 106.911932 163.928117 
L 108.557977 176.566989 
L 110.204021 187.148198 
L 111.850066 195.923202 
L 113.496111 203.127807 
L 115.142156 208.979011 
L 116.788201 213.672935 
L 118.434246 217.384244 
L 120.08029 220.266635 
L 121.726335 222.45403 
L 123.37238 224.062165 
L 125.018425 225.19037 
L 126.66447 225.923392 
L 128.310515 226.333161 
L 129.956559 226.480444 
L 131.602604 226.416367 
L 133.248649 226.183772 
L 136.540739 225.350056 
L 139.832828 224.198548 
L 144.770963 222.188352 
L 154.647232 218.093593 
L 159.585366 216.247542 
L 164.523501 214.590359 
L 169.461635 213.125732 
L 174.39977 211.844442 
L 180.983949 210.394756 
L 187.568128 209.203205 
L 194.152307 208.229827 
L 202.382532 207.265291 
L 210.612756 206.525246 
L 220.489025 205.864992 
L 232.011338 205.326344 
L 246.825742 204.88388 
L 264.932235 204.578938 
L 291.268952 204.375646 
L 339.004252 204.273045 
L 388.385597 204.255809 
L 388.385597 204.255809 
" clip-path="url(#pcd0a14d6de)" style="fill: none; stroke-dasharray: 5.55,2.4; stroke-dashoffset: 0; stroke: #5ea04b; stroke-width: 1.5"/>
   </g>
   <g id="line2d_15">
    <path d="M 92.097528 204.252718 
L 93.743573 135.526204 
L 105.265887 135.526204 
L 106.911932 148.963387 
L 108.557977 163.928117 
L 110.204021 176.566989 
L 111.850066 187.148198 
L 113.496111 195.923202 
L 115.142156 203.127807 
L 116.788201 208.979011 
L 118.434246 213.672935 
L 120.08029 217.384244 
L 121.726335 220.266635 
L 123.37238 222.45403 
L 125.018425 224.062165 
L 126.66447 225.19037 
L 128.310515 225.923392 
L 129.956559 226.333161 
L 131.602604 226.480444 
L 133.248649 226.416367 
L 134.894694 226.183772 
L 138.186783 225.350056 
L 141.478873 224.198548 
L 146.417008 222.188352 
L 156.293277 218.093593 
L 161.231411 216.247542 
L 166.169545 214.590359 
L 171.10768 213.125732 
L 176.045814 211.844442 
L 182.629994 210.394756 
L 189.214173 209.203205 
L 195.798352 208.229827 
L 204.028576 207.265291 
L 212.258801 206.525246 
L 222.135069 205.864992 
L 233.657383 205.326344 
L 248.471787 204.88388 
L 266.57828 204.578938 
L 292.914997 204.375646 
L 340.650297 204.273045 
L 388.385597 204.25601 
L 388.385597 204.25601 
" clip-path="url(#pcd0a14d6de)" style="fill: none; stroke: #5ea04b; stroke-width: 1.5; stroke-linecap: square"/>
   </g>
   <g id="line2d_16">
    <path d="M 92.097528 35.89544 
L 97.035663 64.501204 
L 98.681708 75.547959 
L 100.327753 87.598321 
L 101.973797 100.612307 
L 105.265887 129.314608 
L 108.557977 159.526475 
L 110.204021 172.384849 
L 111.850066 183.515262 
L 113.496111 193.044726 
L 115.142156 201.112906 
L 116.788201 207.864527 
L 118.434246 213.443433 
L 120.08029 217.988233 
L 121.726335 221.629368 
L 123.37238 224.487322 
L 125.018425 226.671727 
L 126.66447 228.281127 
L 128.310515 229.403199 
L 129.956559 230.115284 
L 131.602604 230.485102 
L 133.248649 230.571562 
L 134.894694 230.425618 
L 136.540739 230.091104 
L 138.186783 229.605551 
L 141.478873 228.304379 
L 144.770963 226.72336 
L 161.231411 218.286823 
L 166.169545 216.145644 
L 171.10768 214.266735 
L 176.045814 212.643184 
L 180.983949 211.255838 
L 185.922083 210.08013 
L 190.860218 209.090057 
L 197.444397 208.015391 
L 204.028576 207.171887 
L 212.258801 206.37257 
L 220.489025 205.788921 
L 230.365294 205.294689 
L 243.533652 204.8727 
L 259.9941 204.576509 
L 284.684773 204.375147 
L 329.127983 204.274208 
L 388.385597 204.254871 
L 388.385597 204.254871 
" clip-path="url(#pcd0a14d6de)" style="fill: none; stroke-dasharray: 5.55,2.4; stroke-dashoffset: 0; stroke: #bdab62; stroke-width: 1.5"/>
   </g>
   <g id="line2d_17">
    <path d="M 92.097528 204.252718 
L 93.743573 135.526204 
L 106.911932 135.526204 
L 108.557977 144.835196 
L 110.204021 159.526475 
L 111.850066 172.384849 
L 113.496111 183.515262 
L 115.142156 193.044726 
L 116.788201 201.112906 
L 118.434246 207.864527 
L 120.08029 213.443433 
L 121.726335 217.988233 
L 123.37238 221.629368 
L 125.018425 224.487322 
L 126.66447 226.671727 
L 128.310515 228.281127 
L 129.956559 229.403199 
L 131.602604 230.115284 
L 133.248649 230.485102 
L 134.894694 230.571562 
L 136.540739 230.425618 
L 138.186783 230.091104 
L 139.832828 229.605551 
L 143.124918 228.304379 
L 146.417008 226.72336 
L 162.877456 218.286823 
L 167.81559 216.145644 
L 172.753725 214.266735 
L 177.691859 212.643184 
L 182.629994 211.255838 
L 187.568128 210.08013 
L 192.506263 209.090057 
L 199.090442 208.015391 
L 205.674621 207.171887 
L 213.904845 206.37257 
L 222.135069 205.788921 
L 232.011338 205.294689 
L 245.179697 204.8727 
L 261.640145 204.576509 
L 286.330818 204.375147 
L 330.774028 204.274208 
L 388.385597 204.255013 
L 388.385597 204.255013 
" clip-path="url(#pcd0a14d6de)" style="fill: none; stroke: #bdab62; stroke-width: 1.5; stroke-linecap: square"/>
   </g>
   <g id="patch_3">
    <path d="M 77.283125 241.036875 
L 77.283125 10.8 
" style="fill: none; stroke: #000000; stroke-width: 0.8; stroke-linejoin: miter; stroke-linecap: square"/>
   </g>
   <g id="patch_4">
    <path d="M 403.2 241.036875 
L 403.2 10.8 
" style="fill: none; stroke: #000000; stroke-width: 0.8; stroke-linejoin: miter; stroke-linecap: square"/>
   </g>
   <g id="patch_5">
    <path d="M 77.283125 241.036875 
L 403.2 241.036875 
" style="fill: none; stroke: #000000; stroke-width: 0.8; stroke-linejoin: miter; stroke-linecap: square"/>
   </g>
   <g id="patch_6">
    <path d="M 77.283125 10.8 
L 403.2 10.8 
" style="fill: none; stroke: #000000; stroke-width: 0.8; stroke-linejoin: miter; stroke-linecap: square"/>
   </g>
   <g id="legend_1">
    <g id="patch_7">
     <path d="M 351.54 236.536875 
L 396.9 236.536875 
Q 398.7 236.536875 398.7 234.736875 
L 398.7 149.781094 
Q 398.7 147.981094 396.9 147.981094 
L 351.54 147.981094 
Q 349.74 147.981094 349.74 149.781094 
L 349.74 234.736875 
Q 349.74 236.536875 351.54 236.536875 
z
" style="fill: #ffffff; opacity: 0.8; stroke: #cccccc; stroke-linejoin: miter"/>
    </g>
    <g id="line2d_18">
     <path d="M 353.34 156.711094 
L 362.34 156.711094 
L 371.34 156.711094 
" style="fill: none; stroke-dasharray: 5.55,2.4; stroke-dashoffset: 0; stroke: #2b737e; stroke-width: 1.5"/>
    </g>
    <g id="text_14">
     <!-- $\hat u_{s,0}$ -->
     <g transform="translate(378.54 159.861094) scale(0.09 -0.09)">
      <defs>
       <path id="DejaVuSans-302" d="M -1831 5119 
L -1369 5119 
L -603 3944 
L -1038 3944 
L -1600 4709 
L -2163 3944 
L -2597 3944 
L -1831 5119 
z
M -1600 3584 
L -1600 3584 
z
" transform="scale(0.015625)"/>
       <path id="DejaVuSans-Oblique-75" d="M 428 1388 
L 838 3500 
L 1416 3500 
L 1006 1409 
Q 975 1256 961 1147 
Q 947 1038 947 966 
Q 947 700 1109 554 
Q 1272 409 1569 409 
Q 2031 409 2368 721 
Q 2706 1034 2809 1563 
L 3194 3500 
L 3769 3500 
L 3091 0 
L 2516 0 
L 2631 550 
Q 2388 244 2052 76 
Q 1716 -91 1338 -91 
Q 878 -91 622 161 
Q 366 413 366 863 
Q 366 956 381 1097 
Q 397 1238 428 1388 
z
" transform="scale(0.015625)"/>
       <path id="DejaVuSans-Oblique-73" d="M 3200 3397 
L 3091 2853 
Q 2863 2978 2609 3040 
Q 2356 3103 2088 3103 
Q 1634 3103 1373 2948 
Q 1113 2794 1113 2528 
Q 1113 2219 1719 2053 
Q 1766 2041 1788 2034 
L 1972 1978 
Q 2547 1819 2739 1644 
Q 2931 1469 2931 1166 
Q 2931 609 2489 259 
Q 2047 -91 1331 -91 
Q 1053 -91 747 -37 
Q 441 16 72 128 
L 184 722 
Q 500 559 806 475 
Q 1113 391 1394 391 
Q 1816 391 2080 572 
Q 2344 753 2344 1031 
Q 2344 1331 1650 1516 
L 1591 1531 
L 1394 1581 
Q 956 1697 753 1886 
Q 550 2075 550 2369 
Q 550 2928 970 3256 
Q 1391 3584 2113 3584 
Q 2397 3584 2667 3537 
Q 2938 3491 3200 3397 
z
" transform="scale(0.015625)"/>
       <path id="DejaVuSans-2c" d="M 750 794 
L 1409 794 
L 1409 256 
L 897 -744 
L 494 -744 
L 750 256 
L 750 794 
z
" transform="scale(0.015625)"/>
      </defs>
      <use xlink:href="#DejaVuSans-302" transform="translate(57.871094 12.015625)"/>
      <use xlink:href="#DejaVuSans-Oblique-75" transform="translate(0 0.828125)"/>
      <use xlink:href="#DejaVuSans-Oblique-73" transform="translate(64.335938 -15.578125) scale(0.7)"/>
      <use xlink:href="#DejaVuSans-2c" transform="translate(100.805664 -15.578125) scale(0.7)"/>
      <use xlink:href="#DejaVuSans-30" transform="translate(136.694336 -15.578125) scale(0.7)"/>
     </g>
    </g>
    <g id="line2d_19">
     <path d="M 353.34 170.299688 
L 362.34 170.299688 
L 371.34 170.299688 
" style="fill: none; stroke: #2b737e; stroke-width: 1.5; stroke-linecap: square"/>
    </g>
    <g id="text_15">
     <!-- $u_{s,0}$ -->
     <g transform="translate(378.54 173.449688) scale(0.09 -0.09)">
      <use xlink:href="#DejaVuSans-Oblique-75" transform="translate(0 0.3125)"/>
      <use xlink:href="#DejaVuSans-Oblique-73" transform="translate(63.378906 -16.09375) scale(0.7)"/>
      <use xlink:href="#DejaVuSans-2c" transform="translate(99.848633 -16.09375) scale(0.7)"/>
      <use xlink:href="#DejaVuSans-30" transform="translate(135.737305 -16.09375) scale(0.7)"/>
     </g>
    </g>
    <g id="line2d_20">
     <path d="M 353.34 185.329688 
L 362.34 185.329688 
L 371.34 185.329688 
" style="fill: none; stroke-dasharray: 5.55,2.4; stroke-dashoffset: 0; stroke: #5ea04b; stroke-width: 1.5"/>
    </g>
    <g id="text_16">
     <!-- $\hat u_{s,1}$ -->
     <g transform="translate(378.54 188.479688) scale(0.09 -0.09)">
      <use xlink:href="#DejaVuSans-302" transform="translate(57.871094 12.015625)"/>
      <use xlink:href="#DejaVuSans-Oblique-75" transform="translate(0 0.828125)"/>
      <use xlink:href="#DejaVuSans-Oblique-73" transform="translate(64.335938 -15.578125) scale(0.7)"/>
      <use xlink:href="#DejaVuSans-2c" transform="translate(100.805664 -15.578125) scale(0.7)"/>
      <use xlink:href="#DejaVuSans-31" transform="translate(136.694336 -15.578125) scale(0.7)"/>
     </g>
    </g>
    <g id="line2d_21">
     <path d="M 353.34 198.918281 
L 362.34 198.918281 
L 371.34 198.918281 
" style="fill: none; stroke: #5ea04b; stroke-width: 1.5; stroke-linecap: square"/>
    </g>
    <g id="text_17">
     <!-- $u_{s,1}$ -->
     <g transform="translate(378.54 202.068281) scale(0.09 -0.09)">
      <use xlink:href="#DejaVuSans-Oblique-75" transform="translate(0 0.3125)"/>
      <use xlink:href="#DejaVuSans-Oblique-73" transform="translate(63.378906 -16.09375) scale(0.7)"/>
      <use xlink:href="#DejaVuSans-2c" transform="translate(99.848633 -16.09375) scale(0.7)"/>
      <use xlink:href="#DejaVuSans-31" transform="translate(135.737305 -16.09375) scale(0.7)"/>
     </g>
    </g>
    <g id="line2d_22">
     <path d="M 353.34 213.948281 
L 362.34 213.948281 
L 371.34 213.948281 
" style="fill: none; stroke-dasharray: 5.55,2.4; stroke-dashoffset: 0; stroke: #bdab62; stroke-width: 1.5"/>
    </g>
    <g id="text_18">
     <!-- $\hat u_{s,2}$ -->
     <g transform="translate(378.54 217.098281) scale(0.09 -0.09)">
      <use xlink:href="#DejaVuSans-302" transform="translate(57.871094 12.015625)"/>
      <use xlink:href="#DejaVuSans-Oblique-75" transform="translate(0 0.828125)"/>
      <use xlink:href="#DejaVuSans-Oblique-73" transform="translate(64.335938 -15.578125) scale(0.7)"/>
      <use xlink:href="#DejaVuSans-2c" transform="translate(100.805664 -15.578125) scale(0.7)"/>
      <use xlink:href="#DejaVuSans-32" transform="translate(136.694336 -15.578125) scale(0.7)"/>
     </g>
    </g>
    <g id="line2d_23">
     <path d="M 353.34 227.536875 
L 362.34 227.536875 
L 371.34 227.536875 
" style="fill: none; stroke: #bdab62; stroke-width: 1.5; stroke-linecap: square"/>
    </g>
    <g id="text_19">
     <!-- $u_{s,2}$ -->
     <g transform="translate(378.54 230.686875) scale(0.09 -0.09)">
      <use xlink:href="#DejaVuSans-Oblique-75" transform="translate(0 0.3125)"/>
      <use xlink:href="#DejaVuSans-Oblique-73" transform="translate(63.378906 -16.09375) scale(0.7)"/>
      <use xlink:href="#DejaVuSans-2c" transform="translate(99.848633 -16.09375) scale(0.7)"/>
      <use xlink:href="#DejaVuSans-32" transform="translate(135.737305 -16.09375) scale(0.7)"/>
     </g>
    </g>
   </g>
  </g>
 </g>
 <defs>
  <clipPath id="pcd0a14d6de">
   <rect x="77.283125" y="10.8" width="325.916875" height="230.236875"/>
  </clipPath>
 </defs>
</svg>
