<?xml version="1.0" encoding="utf-8" standalone="no"?>
<!DOCTYPE svg PUBLIC "-//W3C//DTD SVG 1.1//EN"
  "http://www.w3.org/Graphics/SVG/1.1/DTD/svg11.dtd">
<svg xmlns:xlink="http://www.w3.org/1999/xlink" width="342pt" height="341.28pt" viewBox="0 0 342 341.28" xmlns="http://www.w3.org/2000/svg" version="1.1">
 <metadata>
  <rdf:RDF xmlns:dc="http://purl.org/dc/elements/1.1/" xmlns:cc="http://creativecommons.org/ns#" xmlns:rdf="http://www.w3.org/1999/02/22-rdf-syntax-ns#">
   <cc:Work>
    <dc:type rdf:resource="http://purl.org/dc/dcmitype/StillImage"/>
    <dc:date>2023-09-07T00:36:16.547947</dc:date>
    <dc:format>image/svg+xml</dc:format>
    <dc:creator>
     <cc:Agent>
      <dc:title>Matplotlib v3.7.2, https://matplotlib.org/</dc:title>
     </cc:Agent>
    </dc:creator>
   </cc:Work>
  </rdf:RDF>
 </metadata>
 <defs>
  <style type="text/css">*{stroke-linejoin: round; stroke-linecap: butt}</style>
 </defs>
 <g id="figure_1">
  <g id="patch_1">
   <path d="M 0 341.28 
L 342 341.28 
L 342 0 
L 0 0 
L 0 341.28 
z
" style="fill: none"/>
  </g>
  <g id="axes_1">
   <g id="patch_2">
    <path d="M 56.0875 289.51 
L 331.2 289.51 
L 331.2 25.9575 
L 56.0875 25.9575 
L 56.0875 289.51 
z
" style="fill: none"/>
   </g>
   <g id="patch_3">
    <path d="M 199.376858 164.215814 
C 200.882806 164.215814 202.327277 163.532823 203.392142 162.317262 
C 204.457008 161.1017 205.055328 159.452814 205.055328 157.73375 
C 205.055328 156.014686 204.457008 154.3658 203.392142 153.150238 
C 202.327277 151.934677 200.882806 151.251686 199.376858 151.251686 
C 197.870911 151.251686 196.42644 151.934677 195.361574 153.150238 
C 194.296709 154.3658 193.698389 156.014686 193.698389 157.73375 
C 193.698389 159.452814 194.296709 161.1017 195.361574 162.317262 
C 196.42644 163.532823 197.870911 164.215814 199.376858 164.215814 
z
" clip-path="url(#p24a2a6f44c)" style="fill: #0000ff; stroke: #0000ff; stroke-linejoin: miter"/>
   </g>
   <g id="matplotlib.axis_1">
    <g id="xtick_1">
     <g id="line2d_1">
      <path d="M 85.807475 289.51 
L 85.807475 25.9575 
" clip-path="url(#p24a2a6f44c)" style="fill: none; stroke: #b0b0b0; stroke-width: 0.8; stroke-linecap: square"/>
     </g>
     <g id="line2d_2">
      <defs>
       <path id="m35e3e1e6b2" d="M 0 0 
L 0 3.5 
" style="stroke: #000000; stroke-width: 0.8"/>
      </defs>
      <g>
       <use xlink:href="#m35e3e1e6b2" x="85.807475" y="289.51" style="stroke: #000000; stroke-width: 0.8"/>
      </g>
     </g>
     <g id="text_1">
      <!-- −4 -->
      <g transform="translate(74.013725 308.6675) scale(0.16 -0.16)">
       <defs>
        <path id="DejaVuSans-2212" d="M 678 2272 
L 4684 2272 
L 4684 1741 
L 678 1741 
L 678 2272 
z
" transform="scale(0.015625)"/>
        <path id="DejaVuSans-34" d="M 2419 4116 
L 825 1625 
L 2419 1625 
L 2419 4116 
z
M 2253 4666 
L 3047 4666 
L 3047 1625 
L 3713 1625 
L 3713 1100 
L 3047 1100 
L 3047 0 
L 2419 0 
L 2419 1100 
L 313 1100 
L 313 1709 
L 2253 4666 
z
" transform="scale(0.015625)"/>
       </defs>
       <use xlink:href="#DejaVuSans-2212"/>
       <use xlink:href="#DejaVuSans-34" x="83.789062"/>
      </g>
     </g>
    </g>
    <g id="xtick_2">
     <g id="line2d_3">
      <path d="M 142.592167 289.51 
L 142.592167 25.9575 
" clip-path="url(#p24a2a6f44c)" style="fill: none; stroke: #b0b0b0; stroke-width: 0.8; stroke-linecap: square"/>
     </g>
     <g id="line2d_4">
      <g>
       <use xlink:href="#m35e3e1e6b2" x="142.592167" y="289.51" style="stroke: #000000; stroke-width: 0.8"/>
      </g>
     </g>
     <g id="text_2">
      <!-- −2 -->
      <g transform="translate(130.798417 308.6675) scale(0.16 -0.16)">
       <defs>
        <path id="DejaVuSans-32" d="M 1228 531 
L 3431 531 
L 3431 0 
L 469 0 
L 469 531 
Q 828 903 1448 1529 
Q 2069 2156 2228 2338 
Q 2531 2678 2651 2914 
Q 2772 3150 2772 3378 
Q 2772 3750 2511 3984 
Q 2250 4219 1831 4219 
Q 1534 4219 1204 4116 
Q 875 4013 500 3803 
L 500 4441 
Q 881 4594 1212 4672 
Q 1544 4750 1819 4750 
Q 2544 4750 2975 4387 
Q 3406 4025 3406 3419 
Q 3406 3131 3298 2873 
Q 3191 2616 2906 2266 
Q 2828 2175 2409 1742 
Q 1991 1309 1228 531 
z
" transform="scale(0.015625)"/>
       </defs>
       <use xlink:href="#DejaVuSans-2212"/>
       <use xlink:href="#DejaVuSans-32" x="83.789062"/>
      </g>
     </g>
    </g>
    <g id="xtick_3">
     <g id="line2d_5">
      <path d="M 199.376858 289.51 
L 199.376858 25.9575 
" clip-path="url(#p24a2a6f44c)" style="fill: none; stroke: #b0b0b0; stroke-width: 0.8; stroke-linecap: square"/>
     </g>
     <g id="line2d_6">
      <g>
       <use xlink:href="#m35e3e1e6b2" x="199.376858" y="289.51" style="stroke: #000000; stroke-width: 0.8"/>
      </g>
     </g>
     <g id="text_3">
      <!-- 0 -->
      <g transform="translate(194.286858 308.6675) scale(0.16 -0.16)">
       <defs>
        <path id="DejaVuSans-30" d="M 2034 4250 
Q 1547 4250 1301 3770 
Q 1056 3291 1056 2328 
Q 1056 1369 1301 889 
Q 1547 409 2034 409 
Q 2525 409 2770 889 
Q 3016 1369 3016 2328 
Q 3016 3291 2770 3770 
Q 2525 4250 2034 4250 
z
M 2034 4750 
Q 2819 4750 3233 4129 
Q 3647 3509 3647 2328 
Q 3647 1150 3233 529 
Q 2819 -91 2034 -91 
Q 1250 -91 836 529 
Q 422 1150 422 2328 
Q 422 3509 836 4129 
Q 1250 4750 2034 4750 
z
" transform="scale(0.015625)"/>
       </defs>
       <use xlink:href="#DejaVuSans-30"/>
      </g>
     </g>
    </g>
    <g id="xtick_4">
     <g id="line2d_7">
      <path d="M 256.16155 289.51 
L 256.16155 25.9575 
" clip-path="url(#p24a2a6f44c)" style="fill: none; stroke: #b0b0b0; stroke-width: 0.8; stroke-linecap: square"/>
     </g>
     <g id="line2d_8">
      <g>
       <use xlink:href="#m35e3e1e6b2" x="256.16155" y="289.51" style="stroke: #000000; stroke-width: 0.8"/>
      </g>
     </g>
     <g id="text_4">
      <!-- 2 -->
      <g transform="translate(251.07155 308.6675) scale(0.16 -0.16)">
       <use xlink:href="#DejaVuSans-32"/>
      </g>
     </g>
    </g>
    <g id="xtick_5">
     <g id="line2d_9">
      <path d="M 312.946241 289.51 
L 312.946241 25.9575 
" clip-path="url(#p24a2a6f44c)" style="fill: none; stroke: #b0b0b0; stroke-width: 0.8; stroke-linecap: square"/>
     </g>
     <g id="line2d_10">
      <g>
       <use xlink:href="#m35e3e1e6b2" x="312.946241" y="289.51" style="stroke: #000000; stroke-width: 0.8"/>
      </g>
     </g>
     <g id="text_5">
      <!-- 4 -->
      <g transform="translate(307.856241 308.6675) scale(0.16 -0.16)">
       <use xlink:href="#DejaVuSans-34"/>
      </g>
     </g>
    </g>
    <g id="text_6">
     <!-- $i_e$ Coord. [km] -->
     <g transform="translate(158.64375 323.593438) scale(0.1 -0.1)">
      <defs>
       <path id="DejaVuSans-Oblique-69" d="M 1172 4863 
L 1747 4863 
L 1606 4134 
L 1031 4134 
L 1172 4863 
z
M 909 3500 
L 1484 3500 
L 800 0 
L 225 0 
L 909 3500 
z
" transform="scale(0.015625)"/>
       <path id="DejaVuSans-Oblique-65" d="M 3078 2063 
Q 3088 2113 3092 2166 
Q 3097 2219 3097 2272 
Q 3097 2653 2873 2875 
Q 2650 3097 2266 3097 
Q 1838 3097 1509 2826 
Q 1181 2556 1013 2059 
L 3078 2063 
z
M 3578 1613 
L 903 1613 
Q 884 1494 878 1425 
Q 872 1356 872 1306 
Q 872 872 1139 634 
Q 1406 397 1894 397 
Q 2269 397 2603 481 
Q 2938 566 3225 728 
L 3116 159 
Q 2806 34 2476 -28 
Q 2147 -91 1806 -91 
Q 1078 -91 686 257 
Q 294 606 294 1247 
Q 294 1794 489 2264 
Q 684 2734 1063 3103 
Q 1306 3334 1642 3459 
Q 1978 3584 2356 3584 
Q 2950 3584 3301 3228 
Q 3653 2872 3653 2272 
Q 3653 2128 3634 1964 
Q 3616 1800 3578 1613 
z
" transform="scale(0.015625)"/>
       <path id="DejaVuSans-20" transform="scale(0.015625)"/>
       <path id="DejaVuSans-43" d="M 4122 4306 
L 4122 3641 
Q 3803 3938 3442 4084 
Q 3081 4231 2675 4231 
Q 1875 4231 1450 3742 
Q 1025 3253 1025 2328 
Q 1025 1406 1450 917 
Q 1875 428 2675 428 
Q 3081 428 3442 575 
Q 3803 722 4122 1019 
L 4122 359 
Q 3791 134 3420 21 
Q 3050 -91 2638 -91 
Q 1578 -91 968 557 
Q 359 1206 359 2328 
Q 359 3453 968 4101 
Q 1578 4750 2638 4750 
Q 3056 4750 3426 4639 
Q 3797 4528 4122 4306 
z
" transform="scale(0.015625)"/>
       <path id="DejaVuSans-6f" d="M 1959 3097 
Q 1497 3097 1228 2736 
Q 959 2375 959 1747 
Q 959 1119 1226 758 
Q 1494 397 1959 397 
Q 2419 397 2687 759 
Q 2956 1122 2956 1747 
Q 2956 2369 2687 2733 
Q 2419 3097 1959 3097 
z
M 1959 3584 
Q 2709 3584 3137 3096 
Q 3566 2609 3566 1747 
Q 3566 888 3137 398 
Q 2709 -91 1959 -91 
Q 1206 -91 779 398 
Q 353 888 353 1747 
Q 353 2609 779 3096 
Q 1206 3584 1959 3584 
z
" transform="scale(0.015625)"/>
       <path id="DejaVuSans-72" d="M 2631 2963 
Q 2534 3019 2420 3045 
Q 2306 3072 2169 3072 
Q 1681 3072 1420 2755 
Q 1159 2438 1159 1844 
L 1159 0 
L 581 0 
L 581 3500 
L 1159 3500 
L 1159 2956 
Q 1341 3275 1631 3429 
Q 1922 3584 2338 3584 
Q 2397 3584 2469 3576 
Q 2541 3569 2628 3553 
L 2631 2963 
z
" transform="scale(0.015625)"/>
       <path id="DejaVuSans-64" d="M 2906 2969 
L 2906 4863 
L 3481 4863 
L 3481 0 
L 2906 0 
L 2906 525 
Q 2725 213 2448 61 
Q 2172 -91 1784 -91 
Q 1150 -91 751 415 
Q 353 922 353 1747 
Q 353 2572 751 3078 
Q 1150 3584 1784 3584 
Q 2172 3584 2448 3432 
Q 2725 3281 2906 2969 
z
M 947 1747 
Q 947 1113 1208 752 
Q 1469 391 1925 391 
Q 2381 391 2643 752 
Q 2906 1113 2906 1747 
Q 2906 2381 2643 2742 
Q 2381 3103 1925 3103 
Q 1469 3103 1208 2742 
Q 947 2381 947 1747 
z
" transform="scale(0.015625)"/>
       <path id="DejaVuSans-2e" d="M 684 794 
L 1344 794 
L 1344 0 
L 684 0 
L 684 794 
z
" transform="scale(0.015625)"/>
       <path id="DejaVuSans-5b" d="M 550 4863 
L 1875 4863 
L 1875 4416 
L 1125 4416 
L 1125 -397 
L 1875 -397 
L 1875 -844 
L 550 -844 
L 550 4863 
z
" transform="scale(0.015625)"/>
       <path id="DejaVuSans-6b" d="M 581 4863 
L 1159 4863 
L 1159 1991 
L 2875 3500 
L 3609 3500 
L 1753 1863 
L 3688 0 
L 2938 0 
L 1159 1709 
L 1159 0 
L 581 0 
L 581 4863 
z
" transform="scale(0.015625)"/>
       <path id="DejaVuSans-6d" d="M 3328 2828 
Q 3544 3216 3844 3400 
Q 4144 3584 4550 3584 
Q 5097 3584 5394 3201 
Q 5691 2819 5691 2113 
L 5691 0 
L 5113 0 
L 5113 2094 
Q 5113 2597 4934 2840 
Q 4756 3084 4391 3084 
Q 3944 3084 3684 2787 
Q 3425 2491 3425 1978 
L 3425 0 
L 2847 0 
L 2847 2094 
Q 2847 2600 2669 2842 
Q 2491 3084 2119 3084 
Q 1678 3084 1418 2786 
Q 1159 2488 1159 1978 
L 1159 0 
L 581 0 
L 581 3500 
L 1159 3500 
L 1159 2956 
Q 1356 3278 1631 3431 
Q 1906 3584 2284 3584 
Q 2666 3584 2933 3390 
Q 3200 3197 3328 2828 
z
" transform="scale(0.015625)"/>
       <path id="DejaVuSans-5d" d="M 1947 4863 
L 1947 -844 
L 622 -844 
L 622 -397 
L 1369 -397 
L 1369 4416 
L 622 4416 
L 622 4863 
L 1947 4863 
z
" transform="scale(0.015625)"/>
      </defs>
      <use xlink:href="#DejaVuSans-Oblique-69" transform="translate(0 0.015625)"/>
      <use xlink:href="#DejaVuSans-Oblique-65" transform="translate(27.783203 -16.390625) scale(0.7)"/>
      <use xlink:href="#DejaVuSans-20" transform="translate(73.583984 0.015625)"/>
      <use xlink:href="#DejaVuSans-43" transform="translate(105.371094 0.015625)"/>
      <use xlink:href="#DejaVuSans-6f" transform="translate(175.195312 0.015625)"/>
      <use xlink:href="#DejaVuSans-6f" transform="translate(236.376953 0.015625)"/>
      <use xlink:href="#DejaVuSans-72" transform="translate(297.558594 0.015625)"/>
      <use xlink:href="#DejaVuSans-64" transform="translate(338.671875 0.015625)"/>
      <use xlink:href="#DejaVuSans-2e" transform="translate(402.148438 0.015625)"/>
      <use xlink:href="#DejaVuSans-20" transform="translate(433.935547 0.015625)"/>
      <use xlink:href="#DejaVuSans-5b" transform="translate(465.722656 0.015625)"/>
      <use xlink:href="#DejaVuSans-6b" transform="translate(504.736328 0.015625)"/>
      <use xlink:href="#DejaVuSans-6d" transform="translate(562.646484 0.015625)"/>
      <use xlink:href="#DejaVuSans-5d" transform="translate(660.058594 0.015625)"/>
     </g>
    </g>
    <g id="text_7">
     <!-- 1e5 -->
     <g transform="translate(300.995 327.1525) scale(0.16 -0.16)">
      <defs>
       <path id="DejaVuSans-31" d="M 794 531 
L 1825 531 
L 1825 4091 
L 703 3866 
L 703 4441 
L 1819 4666 
L 2450 4666 
L 2450 531 
L 3481 531 
L 3481 0 
L 794 0 
L 794 531 
z
" transform="scale(0.015625)"/>
       <path id="DejaVuSans-65" d="M 3597 1894 
L 3597 1613 
L 953 1613 
Q 991 1019 1311 708 
Q 1631 397 2203 397 
Q 2534 397 2845 478 
Q 3156 559 3463 722 
L 3463 178 
Q 3153 47 2828 -22 
Q 2503 -91 2169 -91 
Q 1331 -91 842 396 
Q 353 884 353 1716 
Q 353 2575 817 3079 
Q 1281 3584 2069 3584 
Q 2775 3584 3186 3129 
Q 3597 2675 3597 1894 
z
M 3022 2063 
Q 3016 2534 2758 2815 
Q 2500 3097 2075 3097 
Q 1594 3097 1305 2825 
Q 1016 2553 972 2059 
L 3022 2063 
z
" transform="scale(0.015625)"/>
       <path id="DejaVuSans-35" d="M 691 4666 
L 3169 4666 
L 3169 4134 
L 1269 4134 
L 1269 2991 
Q 1406 3038 1543 3061 
Q 1681 3084 1819 3084 
Q 2600 3084 3056 2656 
Q 3513 2228 3513 1497 
Q 3513 744 3044 326 
Q 2575 -91 1722 -91 
Q 1428 -91 1123 -41 
Q 819 9 494 109 
L 494 744 
Q 775 591 1075 516 
Q 1375 441 1709 441 
Q 2250 441 2565 725 
Q 2881 1009 2881 1497 
Q 2881 1984 2565 2268 
Q 2250 2553 1709 2553 
Q 1456 2553 1204 2497 
Q 953 2441 691 2322 
L 691 4666 
z
" transform="scale(0.015625)"/>
      </defs>
      <use xlink:href="#DejaVuSans-31"/>
      <use xlink:href="#DejaVuSans-65" x="63.623047"/>
      <use xlink:href="#DejaVuSans-35" x="125.146484"/>
     </g>
    </g>
   </g>
   <g id="matplotlib.axis_2">
    <g id="ytick_1">
     <g id="line2d_11">
      <path d="M 56.0875 287.375034 
L 331.2 287.375034 
" clip-path="url(#p24a2a6f44c)" style="fill: none; stroke: #b0b0b0; stroke-width: 0.8; stroke-linecap: square"/>
     </g>
     <g id="line2d_12">
      <defs>
       <path id="m7b557d282b" d="M 0 0 
L -3.5 0 
" style="stroke: #000000; stroke-width: 0.8"/>
      </defs>
      <g>
       <use xlink:href="#m7b557d282b" x="56.0875" y="287.375034" style="stroke: #000000; stroke-width: 0.8"/>
      </g>
     </g>
     <g id="text_8">
      <!-- −4 -->
      <g transform="translate(25.5 293.453784) scale(0.16 -0.16)">
       <use xlink:href="#DejaVuSans-2212"/>
       <use xlink:href="#DejaVuSans-34" x="83.789062"/>
      </g>
     </g>
    </g>
    <g id="ytick_2">
     <g id="line2d_13">
      <path d="M 56.0875 222.554392 
L 331.2 222.554392 
" clip-path="url(#p24a2a6f44c)" style="fill: none; stroke: #b0b0b0; stroke-width: 0.8; stroke-linecap: square"/>
     </g>
     <g id="line2d_14">
      <g>
       <use xlink:href="#m7b557d282b" x="56.0875" y="222.554392" style="stroke: #000000; stroke-width: 0.8"/>
      </g>
     </g>
     <g id="text_9">
      <!-- −2 -->
      <g transform="translate(25.5 228.633142) scale(0.16 -0.16)">
       <use xlink:href="#DejaVuSans-2212"/>
       <use xlink:href="#DejaVuSans-32" x="83.789062"/>
      </g>
     </g>
    </g>
    <g id="ytick_3">
     <g id="line2d_15">
      <path d="M 56.0875 157.73375 
L 331.2 157.73375 
" clip-path="url(#p24a2a6f44c)" style="fill: none; stroke: #b0b0b0; stroke-width: 0.8; stroke-linecap: square"/>
     </g>
     <g id="line2d_16">
      <g>
       <use xlink:href="#m7b557d282b" x="56.0875" y="157.73375" style="stroke: #000000; stroke-width: 0.8"/>
      </g>
     </g>
     <g id="text_10">
      <!-- 0 -->
      <g transform="translate(38.9075 163.8125) scale(0.16 -0.16)">
       <use xlink:href="#DejaVuSans-30"/>
      </g>
     </g>
    </g>
    <g id="ytick_4">
     <g id="line2d_17">
      <path d="M 56.0875 92.913108 
L 331.2 92.913108 
" clip-path="url(#p24a2a6f44c)" style="fill: none; stroke: #b0b0b0; stroke-width: 0.8; stroke-linecap: square"/>
     </g>
     <g id="line2d_18">
      <g>
       <use xlink:href="#m7b557d282b" x="56.0875" y="92.913108" style="stroke: #000000; stroke-width: 0.8"/>
      </g>
     </g>
     <g id="text_11">
      <!-- 2 -->
      <g transform="translate(38.9075 98.991858) scale(0.16 -0.16)">
       <use xlink:href="#DejaVuSans-32"/>
      </g>
     </g>
    </g>
    <g id="ytick_5">
     <g id="line2d_19">
      <path d="M 56.0875 28.092466 
L 331.2 28.092466 
" clip-path="url(#p24a2a6f44c)" style="fill: none; stroke: #b0b0b0; stroke-width: 0.8; stroke-linecap: square"/>
     </g>
     <g id="line2d_20">
      <g>
       <use xlink:href="#m7b557d282b" x="56.0875" y="28.092466" style="stroke: #000000; stroke-width: 0.8"/>
      </g>
     </g>
     <g id="text_12">
      <!-- 4 -->
      <g transform="translate(38.9075 34.171216) scale(0.16 -0.16)">
       <use xlink:href="#DejaVuSans-34"/>
      </g>
     </g>
    </g>
    <g id="text_13">
     <!-- $i_p$ Coord. [km] -->
     <g transform="translate(18.4 192.78375) rotate(-90) scale(0.1 -0.1)">
      <defs>
       <path id="DejaVuSans-Oblique-70" d="M 3175 2156 
Q 3175 2616 2975 2859 
Q 2775 3103 2400 3103 
Q 2144 3103 1911 2972 
Q 1678 2841 1497 2591 
Q 1319 2344 1212 1994 
Q 1106 1644 1106 1300 
Q 1106 863 1306 627 
Q 1506 391 1875 391 
Q 2147 391 2380 519 
Q 2613 647 2778 891 
Q 2956 1147 3065 1494 
Q 3175 1841 3175 2156 
z
M 1394 2969 
Q 1625 3272 1939 3428 
Q 2253 3584 2638 3584 
Q 3175 3584 3472 3232 
Q 3769 2881 3769 2247 
Q 3769 1728 3584 1258 
Q 3400 788 3053 416 
Q 2822 169 2531 39 
Q 2241 -91 1919 -91 
Q 1547 -91 1294 64 
Q 1041 219 916 525 
L 556 -1331 
L -19 -1331 
L 922 3500 
L 1497 3500 
L 1394 2969 
z
" transform="scale(0.015625)"/>
      </defs>
      <use xlink:href="#DejaVuSans-Oblique-69" transform="translate(0 0.015625)"/>
      <use xlink:href="#DejaVuSans-Oblique-70" transform="translate(27.783203 -16.390625) scale(0.7)"/>
      <use xlink:href="#DejaVuSans-20" transform="translate(74.951172 0.015625)"/>
      <use xlink:href="#DejaVuSans-43" transform="translate(106.738281 0.015625)"/>
      <use xlink:href="#DejaVuSans-6f" transform="translate(176.5625 0.015625)"/>
      <use xlink:href="#DejaVuSans-6f" transform="translate(237.744141 0.015625)"/>
      <use xlink:href="#DejaVuSans-72" transform="translate(298.925781 0.015625)"/>
      <use xlink:href="#DejaVuSans-64" transform="translate(340.039062 0.015625)"/>
      <use xlink:href="#DejaVuSans-2e" transform="translate(403.515625 0.015625)"/>
      <use xlink:href="#DejaVuSans-20" transform="translate(435.302734 0.015625)"/>
      <use xlink:href="#DejaVuSans-5b" transform="translate(467.089844 0.015625)"/>
      <use xlink:href="#DejaVuSans-6b" transform="translate(506.103516 0.015625)"/>
      <use xlink:href="#DejaVuSans-6d" transform="translate(564.013672 0.015625)"/>
      <use xlink:href="#DejaVuSans-5d" transform="translate(661.425781 0.015625)"/>
     </g>
    </g>
    <g id="text_14">
     <!-- 1e5 -->
     <g transform="translate(56.0875 22.9575) scale(0.16 -0.16)">
      <use xlink:href="#DejaVuSans-31"/>
      <use xlink:href="#DejaVuSans-65" x="63.623047"/>
      <use xlink:href="#DejaVuSans-35" x="125.146484"/>
     </g>
    </g>
   </g>
   <g id="line2d_21">
    <path d="M 223.638759 258.15994 
L 228.689199 256.190498 
L 233.642374 253.992486 
L 238.479173 251.56944 
L 243.18153 248.926748 
L 247.092285 246.492107 
L 250.881957 243.906687 
L 254.541383 241.17666 
L 258.062135 238.308889 
L 261.436519 235.310852 
L 264.657563 232.190572 
L 267.719007 228.956543 
L 270.615276 225.617669 
L 273.341458 222.183209 
L 276.30137 218.068305 
L 279.018267 213.851973 
L 281.487537 209.550283 
L 283.705659 205.179682 
L 285.670204 200.756953 
L 287.37986 196.299179 
L 288.834496 191.823705 
L 290.035266 187.348076 
L 290.984743 182.889934 
L 291.687108 178.466836 
L 292.148356 174.095956 
L 292.376496 169.79361 
L 292.38167 165.574545 
L 292.176078 161.450969 
L 291.773518 157.431356 
L 291.090657 152.969084 
L 290.188625 148.643101 
L 289.080446 144.440357 
L 287.768749 140.342364 
L 286.243941 136.331312 
L 284.485622 132.3962 
L 282.73412 129.01467 
L 280.762819 125.697713 
L 278.551844 122.458319 
L 276.451803 119.757023 
L 274.15121 117.139814 
L 271.640213 114.622547 
L 268.90977 112.222916 
L 265.951522 109.960463 
L 263.306646 108.195344 
L 260.493845 106.554054 
L 257.509003 105.051514 
L 254.348163 103.704127 
L 251.007532 102.530064 
L 247.483529 101.549623 
L 243.772858 100.785679 
L 240.667979 100.347766 
L 237.440615 100.080062 
L 234.089976 99.999516 
L 230.615817 100.125317 
L 227.018667 100.479347 
L 223.300162 101.086727 
L 219.463528 101.976505 
L 215.51427 103.182504 
L 212.483558 104.318114 
L 209.399773 105.673011 
L 206.270351 107.269035 
L 203.105459 109.130966 
L 199.918948 111.286897 
L 196.729686 113.768539 
L 193.563386 116.611343 
L 191.482103 118.726281 
L 189.439693 121.031137 
L 187.452528 123.538245 
L 185.540626 126.25959 
L 183.728315 129.205994 
L 182.044865 132.38589 
L 180.524962 135.803573 
L 179.208757 139.456827 
L 178.141134 143.333985 
L 177.369733 147.410689 
L 176.941323 151.647075 
L 176.896459 155.986506 
L 177.263123 160.357223 
L 178.050939 164.677688 
L 179.248029 168.865084 
L 180.821944 172.844795 
L 182.724519 176.558023 
L 184.898915 179.965573 
L 187.286583 183.047589 
L 189.832558 185.800453 
L 192.488553 188.23249 
L 195.214133 190.359769 
L 197.976607 192.202665 
L 200.750224 193.783356 
L 203.515095 195.124171 
L 206.256106 196.246581 
L 208.961936 197.170661 
L 212.937091 198.22476 
L 216.795772 198.928753 
L 220.52684 199.329632 
L 224.124436 199.467241 
L 227.586186 199.375321 
L 230.911992 199.082496 
L 234.10323 198.613131 
L 237.162197 197.988063 
L 241.040053 196.94302 
L 244.695433 195.68861 
L 248.136247 194.254639 
L 251.370367 192.666087 
L 254.405411 190.944084 
L 257.248621 189.106657 
L 259.906809 187.169315 
L 262.979002 184.627452 
L 265.783443 181.972979 
L 268.330523 179.22522 
L 270.629649 176.400871 
L 272.689325 173.514509 
L 274.51722 170.578998 
L 276.120246 167.605807 
L 277.504621 164.605264 
L 278.675929 161.586769 
L 279.639172 158.558962 
L 280.398822 155.529869 
L 280.958855 152.50702 
L 281.322794 149.497557 
L 281.493734 146.50832 
L 281.474376 143.545933 
L 281.267047 140.616872 
L 280.873719 137.727538 
L 280.296029 134.884317 
L 279.535293 132.093647 
L 278.592516 129.362077 
L 277.468403 126.696334 
L 276.163371 124.103388 
L 274.67755 121.590525 
L 273.010793 119.165423 
L 271.162679 116.836243 
L 269.132522 114.611724 
L 266.919369 112.5013 
L 264.522017 110.515225 
L 261.939013 108.664735 
L 259.168681 106.96223 
L 256.209133 105.421493 
L 253.058315 104.057966 
L 249.714052 102.88908 
L 246.174138 101.934665 
L 243.199904 101.340728 
L 240.098121 100.911807 
L 236.868016 100.66289 
L 233.509145 100.611024 
L 230.021564 100.775714 
L 226.406086 101.179432 
L 222.664648 101.848241 
L 218.800845 102.812581 
L 215.826202 103.751081 
L 212.789869 104.893291 
L 209.697186 106.259102 
L 206.555571 107.871226 
L 203.375266 109.755636 
L 200.170391 111.942017 
L 196.960417 114.464181 
L 193.772231 117.360285 
L 191.676701 119.519498 
L 189.621409 121.876964 
L 187.624106 124.446276 
L 185.706717 127.24069 
L 183.896154 130.272158 
L 182.225099 133.549836 
L 180.732567 137.077915 
L 179.463906 140.852652 
L 178.469726 144.858681 
L 177.803121 149.065064 
L 177.514698 153.422147 
L 177.645533 157.860896 
L 177.876454 160.084789 
L 178.219347 162.296419 
L 178.673455 164.48406 
L 179.2364 166.636225 
L 179.904259 168.742041 
L 181.532349 172.77615 
L 183.503194 176.522586 
L 185.75295 179.940609 
L 188.216842 183.011696 
L 190.835216 185.735353 
L 193.556757 188.123752 
L 196.339427 190.196774 
L 199.149973 191.97816 
L 201.962762 193.492851 
L 204.758427 194.765331 
L 207.522574 195.818696 
L 210.244677 196.6742 
L 214.23309 197.628079 
L 218.093814 198.23652 
L 221.817826 198.547427 
L 225.401024 198.601012 
L 228.842469 198.431055 
L 232.143226 198.066024 
L 235.305605 197.530022 
L 239.312194 196.584428 
L 243.086525 195.411743 
L 246.637347 194.045411 
L 249.973388 192.51318 
L 253.10308 190.83831 
L 256.034418 189.040474 
L 258.774897 187.136472 
L 261.94267 184.629022 
L 264.83557 182.002304 
L 267.46489 179.276806 
L 269.840816 176.470112 
L 271.972518 173.597482 
L 273.868246 170.672308 
L 275.535409 167.70647 
L 276.980661 164.710619 
L 278.209965 161.694405 
L 279.228657 158.666664 
L 280.041501 155.635576 
L 280.652737 152.608789 
L 281.066122 149.593534 
L 281.284967 146.596719 
L 281.312165 143.625012 
L 281.150225 140.684921 
L 280.801288 137.782858 
L 280.267153 134.92521 
L 279.54929 132.1184 
L 278.648859 129.368947 
L 277.566716 126.683533 
L 276.303432 124.069066 
L 274.859295 121.532751 
L 273.234324 119.082164 
L 271.428271 116.725338 
L 269.440634 114.47085 
L 267.270661 112.327935 
L 264.917363 110.306604 
L 262.379524 108.417788 
L 259.655721 106.673512 
L 256.74435 105.087095 
L 253.643663 103.673395 
L 250.351819 102.449115 
L 246.86697 101.433166 
L 243.938947 100.784806 
L 240.885509 100.296047 
L 237.706078 99.980965 
L 234.400388 99.855483 
L 230.968638 99.937715 
L 229.205733 100.063085 
L 229.205733 100.063085 
" clip-path="url(#p24a2a6f44c)" style="fill: none; stroke: #008000; stroke-width: 3; stroke-linecap: square"/>
   </g>
   <g id="line2d_22">
    <path d="M 224.624081 278.542416 
L 229.302507 276.908999 
L 233.9184 275.034109 
L 238.462079 272.920168 
L 242.923902 270.570108 
L 247.294292 267.987377 
L 251.563756 265.175944 
L 255.722906 262.140295 
L 259.762479 258.885439 
L 263.673366 255.416907 
L 267.446626 251.740747 
L 271.073517 247.863529 
L 274.545514 243.792334 
L 277.854338 239.534754 
L 280.991979 235.098881 
L 283.950722 230.493303 
L 286.723171 225.727092 
L 289.302277 220.80979 
L 291.681362 215.751399 
L 293.854148 210.562363 
L 295.814778 205.253547 
L 297.557846 199.836223 
L 299.07842 194.322041 
L 300.372067 188.723004 
L 301.434876 183.051445 
L 302.26348 177.319992 
L 302.85508 171.541536 
L 303.207459 165.729197 
L 303.319006 159.896285 
L 303.188728 154.056261 
L 302.816261 148.222697 
L 302.201889 142.409226 
L 301.346542 136.629504 
L 300.251808 130.897159 
L 298.919932 125.225745 
L 297.353817 119.628692 
L 295.557015 114.119258 
L 293.533723 108.71048 
L 291.288768 103.415127 
L 288.827593 98.245651 
L 286.156241 93.21414 
L 283.281326 88.332278 
L 280.210014 83.611296 
L 276.949991 79.061938 
L 273.509435 74.694422 
L 269.896978 70.518406 
L 266.121674 66.542957 
L 262.192958 62.776528 
L 258.12061 59.226928 
L 253.914713 55.901313 
L 249.58561 52.806164 
L 245.143866 49.947277 
L 240.600224 47.329762 
L 235.965566 44.958034 
L 231.25087 42.835817 
L 226.467171 40.96615 
L 221.625527 39.351393 
L 216.736976 37.993241 
L 211.812509 36.892735 
L 206.863029 36.050281 
L 201.899328 35.465671 
L 196.932055 35.138098 
L 191.971691 35.066186 
L 187.028525 35.248008 
L 182.112634 35.681113 
L 177.233863 36.362554 
L 172.40181 37.288908 
L 167.625811 38.456309 
L 162.914928 39.860468 
L 158.277937 41.496701 
L 153.723324 43.359957 
L 149.259274 45.444836 
L 144.89367 47.745618 
L 140.634087 50.256284 
L 136.487788 52.970537 
L 132.461729 55.881823 
L 128.562553 58.983352 
L 124.796593 62.268114 
L 121.169872 65.728898 
L 117.68811 69.358307 
L 114.356717 73.148774 
L 111.180805 77.092576 
L 108.165187 81.181844 
L 105.314378 85.408582 
L 102.632602 89.764668 
L 100.123792 94.241873 
L 97.791595 98.831866 
L 95.639371 103.526222 
L 93.670203 108.316434 
L 91.88689 113.193916 
L 90.291955 118.150013 
L 88.887645 123.176008 
L 87.675932 128.263123 
L 86.658512 133.402533 
L 85.836811 138.585366 
L 85.211978 143.802712 
L 84.78489 149.045627 
L 84.556149 154.305139 
L 84.526083 159.572255 
L 84.694743 164.837966 
L 85.061899 170.093256 
L 85.627047 175.329104 
L 86.389395 180.536496 
L 87.347872 185.706428 
L 88.501116 190.82992 
L 89.847481 195.898016 
L 91.385025 200.9018 
L 93.111516 205.832402 
L 95.024422 210.681009 
L 97.120914 215.438877 
L 99.397863 220.097337 
L 101.851834 224.647815 
L 104.479089 229.081838 
L 107.275584 233.391049 
L 110.236966 237.567221 
L 113.358576 241.602274 
L 116.635444 245.488285 
L 120.062297 249.217507 
L 123.633552 252.782385 
L 127.343323 256.175572 
L 131.185424 259.389946 
L 135.153369 262.418629 
L 139.240379 265.255 
L 143.43939 267.892723 
L 147.743052 270.325753 
L 152.143746 272.548364 
L 156.633583 274.555164 
L 161.204422 276.341113 
L 165.847875 277.901542 
L 170.555325 279.232171 
L 175.317931 280.329124 
L 180.12665 281.188952 
L 184.972248 281.808642 
L 189.84532 282.185639 
L 194.736303 282.317856 
L 199.635499 282.203691 
L 204.533094 281.842041 
L 209.419176 281.232307 
L 214.283759 280.374413 
L 219.116807 279.26881 
L 223.908252 277.916485 
L 228.648023 276.318968 
L 233.326066 274.478334 
L 237.279099 272.709123 
L 237.279099 272.709123 
" clip-path="url(#p24a2a6f44c)" style="fill: none; stroke: #808080; stroke-width: 3; stroke-linecap: square"/>
   </g>
   <g id="patch_4">
    <path d="M 56.0875 289.51 
L 56.0875 25.9575 
" style="fill: none; stroke: #000000; stroke-width: 0.8; stroke-linejoin: miter; stroke-linecap: square"/>
   </g>
   <g id="patch_5">
    <path d="M 331.2 289.51 
L 331.2 25.9575 
" style="fill: none; stroke: #000000; stroke-width: 0.8; stroke-linejoin: miter; stroke-linecap: square"/>
   </g>
   <g id="patch_6">
    <path d="M 56.0875 289.51 
L 331.2 289.51 
" style="fill: none; stroke: #000000; stroke-width: 0.8; stroke-linejoin: miter; stroke-linecap: square"/>
   </g>
   <g id="patch_7">
    <path d="M 56.0875 25.9575 
L 331.2 25.9575 
" style="fill: none; stroke: #000000; stroke-width: 0.8; stroke-linejoin: miter; stroke-linecap: square"/>
   </g>
   <g id="legend_1">
    <g id="patch_8">
     <path d="M 247.968281 285.01 
L 324.9 285.01 
Q 326.7 285.01 326.7 283.21 
L 326.7 257.689375 
Q 326.7 255.889375 324.9 255.889375 
L 247.968281 255.889375 
Q 246.168281 255.889375 246.168281 257.689375 
L 246.168281 283.21 
Q 246.168281 285.01 247.968281 285.01 
z
" style="fill: #ffffff; opacity: 0.8; stroke: #cccccc; stroke-linejoin: miter"/>
    </g>
    <g id="line2d_23">
     <path d="M 249.768281 263.177969 
L 258.768281 263.177969 
L 267.768281 263.177969 
" style="fill: none; stroke: #008000; stroke-width: 3; stroke-linecap: square"/>
    </g>
    <g id="text_15">
     <!-- Spacecraft -->
     <g transform="translate(274.968281 266.327969) scale(0.09 -0.09)">
      <defs>
       <path id="DejaVuSans-53" d="M 3425 4513 
L 3425 3897 
Q 3066 4069 2747 4153 
Q 2428 4238 2131 4238 
Q 1616 4238 1336 4038 
Q 1056 3838 1056 3469 
Q 1056 3159 1242 3001 
Q 1428 2844 1947 2747 
L 2328 2669 
Q 3034 2534 3370 2195 
Q 3706 1856 3706 1288 
Q 3706 609 3251 259 
Q 2797 -91 1919 -91 
Q 1588 -91 1214 -16 
Q 841 59 441 206 
L 441 856 
Q 825 641 1194 531 
Q 1563 422 1919 422 
Q 2459 422 2753 634 
Q 3047 847 3047 1241 
Q 3047 1584 2836 1778 
Q 2625 1972 2144 2069 
L 1759 2144 
Q 1053 2284 737 2584 
Q 422 2884 422 3419 
Q 422 4038 858 4394 
Q 1294 4750 2059 4750 
Q 2388 4750 2728 4690 
Q 3069 4631 3425 4513 
z
" transform="scale(0.015625)"/>
       <path id="DejaVuSans-70" d="M 1159 525 
L 1159 -1331 
L 581 -1331 
L 581 3500 
L 1159 3500 
L 1159 2969 
Q 1341 3281 1617 3432 
Q 1894 3584 2278 3584 
Q 2916 3584 3314 3078 
Q 3713 2572 3713 1747 
Q 3713 922 3314 415 
Q 2916 -91 2278 -91 
Q 1894 -91 1617 61 
Q 1341 213 1159 525 
z
M 3116 1747 
Q 3116 2381 2855 2742 
Q 2594 3103 2138 3103 
Q 1681 3103 1420 2742 
Q 1159 2381 1159 1747 
Q 1159 1113 1420 752 
Q 1681 391 2138 391 
Q 2594 391 2855 752 
Q 3116 1113 3116 1747 
z
" transform="scale(0.015625)"/>
       <path id="DejaVuSans-61" d="M 2194 1759 
Q 1497 1759 1228 1600 
Q 959 1441 959 1056 
Q 959 750 1161 570 
Q 1363 391 1709 391 
Q 2188 391 2477 730 
Q 2766 1069 2766 1631 
L 2766 1759 
L 2194 1759 
z
M 3341 1997 
L 3341 0 
L 2766 0 
L 2766 531 
Q 2569 213 2275 61 
Q 1981 -91 1556 -91 
Q 1019 -91 701 211 
Q 384 513 384 1019 
Q 384 1609 779 1909 
Q 1175 2209 1959 2209 
L 2766 2209 
L 2766 2266 
Q 2766 2663 2505 2880 
Q 2244 3097 1772 3097 
Q 1472 3097 1187 3025 
Q 903 2953 641 2809 
L 641 3341 
Q 956 3463 1253 3523 
Q 1550 3584 1831 3584 
Q 2591 3584 2966 3190 
Q 3341 2797 3341 1997 
z
" transform="scale(0.015625)"/>
       <path id="DejaVuSans-63" d="M 3122 3366 
L 3122 2828 
Q 2878 2963 2633 3030 
Q 2388 3097 2138 3097 
Q 1578 3097 1268 2742 
Q 959 2388 959 1747 
Q 959 1106 1268 751 
Q 1578 397 2138 397 
Q 2388 397 2633 464 
Q 2878 531 3122 666 
L 3122 134 
Q 2881 22 2623 -34 
Q 2366 -91 2075 -91 
Q 1284 -91 818 406 
Q 353 903 353 1747 
Q 353 2603 823 3093 
Q 1294 3584 2113 3584 
Q 2378 3584 2631 3529 
Q 2884 3475 3122 3366 
z
" transform="scale(0.015625)"/>
       <path id="DejaVuSans-66" d="M 2375 4863 
L 2375 4384 
L 1825 4384 
Q 1516 4384 1395 4259 
Q 1275 4134 1275 3809 
L 1275 3500 
L 2222 3500 
L 2222 3053 
L 1275 3053 
L 1275 0 
L 697 0 
L 697 3053 
L 147 3053 
L 147 3500 
L 697 3500 
L 697 3744 
Q 697 4328 969 4595 
Q 1241 4863 1831 4863 
L 2375 4863 
z
" transform="scale(0.015625)"/>
       <path id="DejaVuSans-74" d="M 1172 4494 
L 1172 3500 
L 2356 3500 
L 2356 3053 
L 1172 3053 
L 1172 1153 
Q 1172 725 1289 603 
Q 1406 481 1766 481 
L 2356 481 
L 2356 0 
L 1766 0 
Q 1100 0 847 248 
Q 594 497 594 1153 
L 594 3053 
L 172 3053 
L 172 3500 
L 594 3500 
L 594 4494 
L 1172 4494 
z
" transform="scale(0.015625)"/>
      </defs>
      <use xlink:href="#DejaVuSans-53"/>
      <use xlink:href="#DejaVuSans-70" x="63.476562"/>
      <use xlink:href="#DejaVuSans-61" x="126.953125"/>
      <use xlink:href="#DejaVuSans-63" x="188.232422"/>
      <use xlink:href="#DejaVuSans-65" x="243.212891"/>
      <use xlink:href="#DejaVuSans-63" x="304.736328"/>
      <use xlink:href="#DejaVuSans-72" x="359.716797"/>
      <use xlink:href="#DejaVuSans-61" x="400.830078"/>
      <use xlink:href="#DejaVuSans-66" x="462.109375"/>
      <use xlink:href="#DejaVuSans-74" x="495.564453"/>
     </g>
    </g>
    <g id="line2d_24">
     <path d="M 249.768281 276.388281 
L 258.768281 276.388281 
L 267.768281 276.388281 
" style="fill: none; stroke: #808080; stroke-width: 3; stroke-linecap: square"/>
    </g>
    <g id="text_16">
     <!-- Moon -->
     <g transform="translate(274.968281 279.538281) scale(0.09 -0.09)">
      <defs>
       <path id="DejaVuSans-4d" d="M 628 4666 
L 1569 4666 
L 2759 1491 
L 3956 4666 
L 4897 4666 
L 4897 0 
L 4281 0 
L 4281 4097 
L 3078 897 
L 2444 897 
L 1241 4097 
L 1241 0 
L 628 0 
L 628 4666 
z
" transform="scale(0.015625)"/>
       <path id="DejaVuSans-6e" d="M 3513 2113 
L 3513 0 
L 2938 0 
L 2938 2094 
Q 2938 2591 2744 2837 
Q 2550 3084 2163 3084 
Q 1697 3084 1428 2787 
Q 1159 2491 1159 1978 
L 1159 0 
L 581 0 
L 581 3500 
L 1159 3500 
L 1159 2956 
Q 1366 3272 1645 3428 
Q 1925 3584 2291 3584 
Q 2894 3584 3203 3211 
Q 3513 2838 3513 2113 
z
" transform="scale(0.015625)"/>
      </defs>
      <use xlink:href="#DejaVuSans-4d"/>
      <use xlink:href="#DejaVuSans-6f" x="86.279297"/>
      <use xlink:href="#DejaVuSans-6f" x="147.460938"/>
      <use xlink:href="#DejaVuSans-6e" x="208.642578"/>
     </g>
    </g>
   </g>
  </g>
 </g>
 <defs>
  <clipPath id="p24a2a6f44c">
   <rect x="56.0875" y="25.9575" width="275.1125" height="263.5525"/>
  </clipPath>
 </defs>
</svg>
