<?xml version="1.0" encoding="utf-8" standalone="no"?>
<!DOCTYPE svg PUBLIC "-//W3C//DTD SVG 1.1//EN"
  "http://www.w3.org/Graphics/SVG/1.1/DTD/svg11.dtd">
<svg xmlns:xlink="http://www.w3.org/1999/xlink" width="414pt" height="288pt" viewBox="0 0 414 288" xmlns="http://www.w3.org/2000/svg" version="1.1">
 <metadata>
  <rdf:RDF xmlns:dc="http://purl.org/dc/elements/1.1/" xmlns:cc="http://creativecommons.org/ns#" xmlns:rdf="http://www.w3.org/1999/02/22-rdf-syntax-ns#">
   <cc:Work>
    <dc:type rdf:resource="http://purl.org/dc/dcmitype/StillImage"/>
    <dc:date>2023-09-07T00:35:35.251100</dc:date>
    <dc:format>image/svg+xml</dc:format>
    <dc:creator>
     <cc:Agent>
      <dc:title>Matplotlib v3.7.2, https://matplotlib.org/</dc:title>
     </cc:Agent>
    </dc:creator>
   </cc:Work>
  </rdf:RDF>
 </metadata>
 <defs>
  <style type="text/css">*{stroke-linejoin: round; stroke-linecap: butt}</style>
 </defs>
 <g id="figure_1">
  <g id="patch_1">
   <path d="M 0 288 
L 414 288 
L 414 0 
L 0 0 
L 0 288 
z
" style="fill: none"/>
  </g>
  <g id="axes_1">
   <g id="patch_2">
    <path d="M 104.438125 236.23 
L 403.2 236.23 
L 403.2 10.8 
L 104.438125 10.8 
L 104.438125 236.23 
z
" style="fill: none"/>
   </g>
   <g id="matplotlib.axis_1">
    <g id="xtick_1">
     <g id="line2d_1">
      <path d="M 117.943161 236.23 
L 117.943161 10.8 
" clip-path="url(#p79783c1d06)" style="fill: none; stroke: #b0b0b0; stroke-width: 0.8; stroke-linecap: square"/>
     </g>
     <g id="line2d_2">
      <defs>
       <path id="m0c5d30be0d" d="M 0 0 
L 0 3.5 
" style="stroke: #000000; stroke-width: 0.8"/>
      </defs>
      <g>
       <use xlink:href="#m0c5d30be0d" x="117.943161" y="236.23" style="stroke: #000000; stroke-width: 0.8"/>
      </g>
     </g>
     <g id="text_1">
      <!-- 0.0 -->
      <g transform="translate(105.220661 255.3875) scale(0.16 -0.16)">
       <defs>
        <path id="DejaVuSans-30" d="M 2034 4250 
Q 1547 4250 1301 3770 
Q 1056 3291 1056 2328 
Q 1056 1369 1301 889 
Q 1547 409 2034 409 
Q 2525 409 2770 889 
Q 3016 1369 3016 2328 
Q 3016 3291 2770 3770 
Q 2525 4250 2034 4250 
z
M 2034 4750 
Q 2819 4750 3233 4129 
Q 3647 3509 3647 2328 
Q 3647 1150 3233 529 
Q 2819 -91 2034 -91 
Q 1250 -91 836 529 
Q 422 1150 422 2328 
Q 422 3509 836 4129 
Q 1250 4750 2034 4750 
z
" transform="scale(0.015625)"/>
        <path id="DejaVuSans-2e" d="M 684 794 
L 1344 794 
L 1344 0 
L 684 0 
L 684 794 
z
" transform="scale(0.015625)"/>
       </defs>
       <use xlink:href="#DejaVuSans-30"/>
       <use xlink:href="#DejaVuSans-2e" x="63.623047"/>
       <use xlink:href="#DejaVuSans-30" x="95.410156"/>
      </g>
     </g>
    </g>
    <g id="xtick_2">
     <g id="line2d_3">
      <path d="M 180.48385 236.23 
L 180.48385 10.8 
" clip-path="url(#p79783c1d06)" style="fill: none; stroke: #b0b0b0; stroke-width: 0.8; stroke-linecap: square"/>
     </g>
     <g id="line2d_4">
      <g>
       <use xlink:href="#m0c5d30be0d" x="180.48385" y="236.23" style="stroke: #000000; stroke-width: 0.8"/>
      </g>
     </g>
     <g id="text_2">
      <!-- 0.5 -->
      <g transform="translate(167.76135 255.3875) scale(0.16 -0.16)">
       <defs>
        <path id="DejaVuSans-35" d="M 691 4666 
L 3169 4666 
L 3169 4134 
L 1269 4134 
L 1269 2991 
Q 1406 3038 1543 3061 
Q 1681 3084 1819 3084 
Q 2600 3084 3056 2656 
Q 3513 2228 3513 1497 
Q 3513 744 3044 326 
Q 2575 -91 1722 -91 
Q 1428 -91 1123 -41 
Q 819 9 494 109 
L 494 744 
Q 775 591 1075 516 
Q 1375 441 1709 441 
Q 2250 441 2565 725 
Q 2881 1009 2881 1497 
Q 2881 1984 2565 2268 
Q 2250 2553 1709 2553 
Q 1456 2553 1204 2497 
Q 953 2441 691 2322 
L 691 4666 
z
" transform="scale(0.015625)"/>
       </defs>
       <use xlink:href="#DejaVuSans-30"/>
       <use xlink:href="#DejaVuSans-2e" x="63.623047"/>
       <use xlink:href="#DejaVuSans-35" x="95.410156"/>
      </g>
     </g>
    </g>
    <g id="xtick_3">
     <g id="line2d_5">
      <path d="M 243.02454 236.23 
L 243.02454 10.8 
" clip-path="url(#p79783c1d06)" style="fill: none; stroke: #b0b0b0; stroke-width: 0.8; stroke-linecap: square"/>
     </g>
     <g id="line2d_6">
      <g>
       <use xlink:href="#m0c5d30be0d" x="243.02454" y="236.23" style="stroke: #000000; stroke-width: 0.8"/>
      </g>
     </g>
     <g id="text_3">
      <!-- 1.0 -->
      <g transform="translate(230.30204 255.3875) scale(0.16 -0.16)">
       <defs>
        <path id="DejaVuSans-31" d="M 794 531 
L 1825 531 
L 1825 4091 
L 703 3866 
L 703 4441 
L 1819 4666 
L 2450 4666 
L 2450 531 
L 3481 531 
L 3481 0 
L 794 0 
L 794 531 
z
" transform="scale(0.015625)"/>
       </defs>
       <use xlink:href="#DejaVuSans-31"/>
       <use xlink:href="#DejaVuSans-2e" x="63.623047"/>
       <use xlink:href="#DejaVuSans-30" x="95.410156"/>
      </g>
     </g>
    </g>
    <g id="xtick_4">
     <g id="line2d_7">
      <path d="M 305.565229 236.23 
L 305.565229 10.8 
" clip-path="url(#p79783c1d06)" style="fill: none; stroke: #b0b0b0; stroke-width: 0.8; stroke-linecap: square"/>
     </g>
     <g id="line2d_8">
      <g>
       <use xlink:href="#m0c5d30be0d" x="305.565229" y="236.23" style="stroke: #000000; stroke-width: 0.8"/>
      </g>
     </g>
     <g id="text_4">
      <!-- 1.5 -->
      <g transform="translate(292.842729 255.3875) scale(0.16 -0.16)">
       <use xlink:href="#DejaVuSans-31"/>
       <use xlink:href="#DejaVuSans-2e" x="63.623047"/>
       <use xlink:href="#DejaVuSans-35" x="95.410156"/>
      </g>
     </g>
    </g>
    <g id="xtick_5">
     <g id="line2d_9">
      <path d="M 368.105918 236.23 
L 368.105918 10.8 
" clip-path="url(#p79783c1d06)" style="fill: none; stroke: #b0b0b0; stroke-width: 0.8; stroke-linecap: square"/>
     </g>
     <g id="line2d_10">
      <g>
       <use xlink:href="#m0c5d30be0d" x="368.105918" y="236.23" style="stroke: #000000; stroke-width: 0.8"/>
      </g>
     </g>
     <g id="text_5">
      <!-- 2.0 -->
      <g transform="translate(355.383418 255.3875) scale(0.16 -0.16)">
       <defs>
        <path id="DejaVuSans-32" d="M 1228 531 
L 3431 531 
L 3431 0 
L 469 0 
L 469 531 
Q 828 903 1448 1529 
Q 2069 2156 2228 2338 
Q 2531 2678 2651 2914 
Q 2772 3150 2772 3378 
Q 2772 3750 2511 3984 
Q 2250 4219 1831 4219 
Q 1534 4219 1204 4116 
Q 875 4013 500 3803 
L 500 4441 
Q 881 4594 1212 4672 
Q 1544 4750 1819 4750 
Q 2544 4750 2975 4387 
Q 3406 4025 3406 3419 
Q 3406 3131 3298 2873 
Q 3191 2616 2906 2266 
Q 2828 2175 2409 1742 
Q 1991 1309 1228 531 
z
" transform="scale(0.015625)"/>
       </defs>
       <use xlink:href="#DejaVuSans-32"/>
       <use xlink:href="#DejaVuSans-2e" x="63.623047"/>
       <use xlink:href="#DejaVuSans-30" x="95.410156"/>
      </g>
     </g>
    </g>
    <g id="text_6">
     <!-- Time -->
     <g transform="translate(241.585469 270.313438) scale(0.1 -0.1)">
      <defs>
       <path id="DejaVuSans-54" d="M -19 4666 
L 3928 4666 
L 3928 4134 
L 2272 4134 
L 2272 0 
L 1638 0 
L 1638 4134 
L -19 4134 
L -19 4666 
z
" transform="scale(0.015625)"/>
       <path id="DejaVuSans-69" d="M 603 3500 
L 1178 3500 
L 1178 0 
L 603 0 
L 603 3500 
z
M 603 4863 
L 1178 4863 
L 1178 4134 
L 603 4134 
L 603 4863 
z
" transform="scale(0.015625)"/>
       <path id="DejaVuSans-6d" d="M 3328 2828 
Q 3544 3216 3844 3400 
Q 4144 3584 4550 3584 
Q 5097 3584 5394 3201 
Q 5691 2819 5691 2113 
L 5691 0 
L 5113 0 
L 5113 2094 
Q 5113 2597 4934 2840 
Q 4756 3084 4391 3084 
Q 3944 3084 3684 2787 
Q 3425 2491 3425 1978 
L 3425 0 
L 2847 0 
L 2847 2094 
Q 2847 2600 2669 2842 
Q 2491 3084 2119 3084 
Q 1678 3084 1418 2786 
Q 1159 2488 1159 1978 
L 1159 0 
L 581 0 
L 581 3500 
L 1159 3500 
L 1159 2956 
Q 1356 3278 1631 3431 
Q 1906 3584 2284 3584 
Q 2666 3584 2933 3390 
Q 3200 3197 3328 2828 
z
" transform="scale(0.015625)"/>
       <path id="DejaVuSans-65" d="M 3597 1894 
L 3597 1613 
L 953 1613 
Q 991 1019 1311 708 
Q 1631 397 2203 397 
Q 2534 397 2845 478 
Q 3156 559 3463 722 
L 3463 178 
Q 3153 47 2828 -22 
Q 2503 -91 2169 -91 
Q 1331 -91 842 396 
Q 353 884 353 1716 
Q 353 2575 817 3079 
Q 1281 3584 2069 3584 
Q 2775 3584 3186 3129 
Q 3597 2675 3597 1894 
z
M 3022 2063 
Q 3016 2534 2758 2815 
Q 2500 3097 2075 3097 
Q 1594 3097 1305 2825 
Q 1016 2553 972 2059 
L 3022 2063 
z
" transform="scale(0.015625)"/>
      </defs>
      <use xlink:href="#DejaVuSans-54"/>
      <use xlink:href="#DejaVuSans-69" x="57.958984"/>
      <use xlink:href="#DejaVuSans-6d" x="85.742188"/>
      <use xlink:href="#DejaVuSans-65" x="183.154297"/>
     </g>
    </g>
    <g id="text_7">
     <!-- 1e14 -->
     <g transform="translate(362.815 273.8725) scale(0.16 -0.16)">
      <defs>
       <path id="DejaVuSans-34" d="M 2419 4116 
L 825 1625 
L 2419 1625 
L 2419 4116 
z
M 2253 4666 
L 3047 4666 
L 3047 1625 
L 3713 1625 
L 3713 1100 
L 3047 1100 
L 3047 0 
L 2419 0 
L 2419 1100 
L 313 1100 
L 313 1709 
L 2253 4666 
z
" transform="scale(0.015625)"/>
      </defs>
      <use xlink:href="#DejaVuSans-31"/>
      <use xlink:href="#DejaVuSans-65" x="63.623047"/>
      <use xlink:href="#DejaVuSans-31" x="125.146484"/>
      <use xlink:href="#DejaVuSans-34" x="188.769531"/>
     </g>
    </g>
   </g>
   <g id="matplotlib.axis_2">
    <g id="ytick_1">
     <g id="line2d_11">
      <defs>
       <path id="ma59e8df148" d="M 0 0 
L -2 0 
" style="stroke: #000000; stroke-width: 0.6"/>
      </defs>
      <g>
       <use xlink:href="#ma59e8df148" x="104.438125" y="230.147286" style="stroke: #000000; stroke-width: 0.6"/>
      </g>
     </g>
     <g id="text_8">
      <!-- $\mathdefault{2\times10^{-11}}$ -->
      <g transform="translate(24.478125 236.226036) scale(0.16 -0.16)">
       <defs>
        <path id="DejaVuSans-d7" d="M 4488 3438 
L 3059 2003 
L 4488 575 
L 4116 197 
L 2681 1631 
L 1247 197 
L 878 575 
L 2303 2003 
L 878 3438 
L 1247 3816 
L 2681 2381 
L 4116 3816 
L 4488 3438 
z
" transform="scale(0.015625)"/>
        <path id="DejaVuSans-2212" d="M 678 2272 
L 4684 2272 
L 4684 1741 
L 678 1741 
L 678 2272 
z
" transform="scale(0.015625)"/>
       </defs>
       <use xlink:href="#DejaVuSans-32" transform="translate(0 0.684375)"/>
       <use xlink:href="#DejaVuSans-d7" transform="translate(83.105469 0.684375)"/>
       <use xlink:href="#DejaVuSans-31" transform="translate(186.376953 0.684375)"/>
       <use xlink:href="#DejaVuSans-30" transform="translate(250 0.684375)"/>
       <use xlink:href="#DejaVuSans-2212" transform="translate(314.580078 38.965625) scale(0.7)"/>
       <use xlink:href="#DejaVuSans-31" transform="translate(373.232422 38.965625) scale(0.7)"/>
       <use xlink:href="#DejaVuSans-31" transform="translate(417.768555 38.965625) scale(0.7)"/>
      </g>
     </g>
    </g>
    <g id="ytick_2">
     <g id="line2d_12">
      <g>
       <use xlink:href="#ma59e8df148" x="104.438125" y="75.813808" style="stroke: #000000; stroke-width: 0.6"/>
      </g>
     </g>
     <g id="text_9">
      <!-- $\mathdefault{3\times10^{-11}}$ -->
      <g transform="translate(24.478125 81.892558) scale(0.16 -0.16)">
       <defs>
        <path id="DejaVuSans-33" d="M 2597 2516 
Q 3050 2419 3304 2112 
Q 3559 1806 3559 1356 
Q 3559 666 3084 287 
Q 2609 -91 1734 -91 
Q 1441 -91 1130 -33 
Q 819 25 488 141 
L 488 750 
Q 750 597 1062 519 
Q 1375 441 1716 441 
Q 2309 441 2620 675 
Q 2931 909 2931 1356 
Q 2931 1769 2642 2001 
Q 2353 2234 1838 2234 
L 1294 2234 
L 1294 2753 
L 1863 2753 
Q 2328 2753 2575 2939 
Q 2822 3125 2822 3475 
Q 2822 3834 2567 4026 
Q 2313 4219 1838 4219 
Q 1578 4219 1281 4162 
Q 984 4106 628 3988 
L 628 4550 
Q 988 4650 1302 4700 
Q 1616 4750 1894 4750 
Q 2613 4750 3031 4423 
Q 3450 4097 3450 3541 
Q 3450 3153 3228 2886 
Q 3006 2619 2597 2516 
z
" transform="scale(0.015625)"/>
       </defs>
       <use xlink:href="#DejaVuSans-33" transform="translate(0 0.684375)"/>
       <use xlink:href="#DejaVuSans-d7" transform="translate(83.105469 0.684375)"/>
       <use xlink:href="#DejaVuSans-31" transform="translate(186.376953 0.684375)"/>
       <use xlink:href="#DejaVuSans-30" transform="translate(250 0.684375)"/>
       <use xlink:href="#DejaVuSans-2212" transform="translate(314.580078 38.965625) scale(0.7)"/>
       <use xlink:href="#DejaVuSans-31" transform="translate(373.232422 38.965625) scale(0.7)"/>
       <use xlink:href="#DejaVuSans-31" transform="translate(417.768555 38.965625) scale(0.7)"/>
      </g>
     </g>
    </g>
    <g id="text_10">
     <!-- Density (kg/m3) -->
     <g transform="translate(18.398437 163.819688) rotate(-90) scale(0.1 -0.1)">
      <defs>
       <path id="DejaVuSans-44" d="M 1259 4147 
L 1259 519 
L 2022 519 
Q 2988 519 3436 956 
Q 3884 1394 3884 2338 
Q 3884 3275 3436 3711 
Q 2988 4147 2022 4147 
L 1259 4147 
z
M 628 4666 
L 1925 4666 
Q 3281 4666 3915 4102 
Q 4550 3538 4550 2338 
Q 4550 1131 3912 565 
Q 3275 0 1925 0 
L 628 0 
L 628 4666 
z
" transform="scale(0.015625)"/>
       <path id="DejaVuSans-6e" d="M 3513 2113 
L 3513 0 
L 2938 0 
L 2938 2094 
Q 2938 2591 2744 2837 
Q 2550 3084 2163 3084 
Q 1697 3084 1428 2787 
Q 1159 2491 1159 1978 
L 1159 0 
L 581 0 
L 581 3500 
L 1159 3500 
L 1159 2956 
Q 1366 3272 1645 3428 
Q 1925 3584 2291 3584 
Q 2894 3584 3203 3211 
Q 3513 2838 3513 2113 
z
" transform="scale(0.015625)"/>
       <path id="DejaVuSans-73" d="M 2834 3397 
L 2834 2853 
Q 2591 2978 2328 3040 
Q 2066 3103 1784 3103 
Q 1356 3103 1142 2972 
Q 928 2841 928 2578 
Q 928 2378 1081 2264 
Q 1234 2150 1697 2047 
L 1894 2003 
Q 2506 1872 2764 1633 
Q 3022 1394 3022 966 
Q 3022 478 2636 193 
Q 2250 -91 1575 -91 
Q 1294 -91 989 -36 
Q 684 19 347 128 
L 347 722 
Q 666 556 975 473 
Q 1284 391 1588 391 
Q 1994 391 2212 530 
Q 2431 669 2431 922 
Q 2431 1156 2273 1281 
Q 2116 1406 1581 1522 
L 1381 1569 
Q 847 1681 609 1914 
Q 372 2147 372 2553 
Q 372 3047 722 3315 
Q 1072 3584 1716 3584 
Q 2034 3584 2315 3537 
Q 2597 3491 2834 3397 
z
" transform="scale(0.015625)"/>
       <path id="DejaVuSans-74" d="M 1172 4494 
L 1172 3500 
L 2356 3500 
L 2356 3053 
L 1172 3053 
L 1172 1153 
Q 1172 725 1289 603 
Q 1406 481 1766 481 
L 2356 481 
L 2356 0 
L 1766 0 
Q 1100 0 847 248 
Q 594 497 594 1153 
L 594 3053 
L 172 3053 
L 172 3500 
L 594 3500 
L 594 4494 
L 1172 4494 
z
" transform="scale(0.015625)"/>
       <path id="DejaVuSans-79" d="M 2059 -325 
Q 1816 -950 1584 -1140 
Q 1353 -1331 966 -1331 
L 506 -1331 
L 506 -850 
L 844 -850 
Q 1081 -850 1212 -737 
Q 1344 -625 1503 -206 
L 1606 56 
L 191 3500 
L 800 3500 
L 1894 763 
L 2988 3500 
L 3597 3500 
L 2059 -325 
z
" transform="scale(0.015625)"/>
       <path id="DejaVuSans-20" transform="scale(0.015625)"/>
       <path id="DejaVuSans-28" d="M 1984 4856 
Q 1566 4138 1362 3434 
Q 1159 2731 1159 2009 
Q 1159 1288 1364 580 
Q 1569 -128 1984 -844 
L 1484 -844 
Q 1016 -109 783 600 
Q 550 1309 550 2009 
Q 550 2706 781 3412 
Q 1013 4119 1484 4856 
L 1984 4856 
z
" transform="scale(0.015625)"/>
       <path id="DejaVuSans-6b" d="M 581 4863 
L 1159 4863 
L 1159 1991 
L 2875 3500 
L 3609 3500 
L 1753 1863 
L 3688 0 
L 2938 0 
L 1159 1709 
L 1159 0 
L 581 0 
L 581 4863 
z
" transform="scale(0.015625)"/>
       <path id="DejaVuSans-67" d="M 2906 1791 
Q 2906 2416 2648 2759 
Q 2391 3103 1925 3103 
Q 1463 3103 1205 2759 
Q 947 2416 947 1791 
Q 947 1169 1205 825 
Q 1463 481 1925 481 
Q 2391 481 2648 825 
Q 2906 1169 2906 1791 
z
M 3481 434 
Q 3481 -459 3084 -895 
Q 2688 -1331 1869 -1331 
Q 1566 -1331 1297 -1286 
Q 1028 -1241 775 -1147 
L 775 -588 
Q 1028 -725 1275 -790 
Q 1522 -856 1778 -856 
Q 2344 -856 2625 -561 
Q 2906 -266 2906 331 
L 2906 616 
Q 2728 306 2450 153 
Q 2172 0 1784 0 
Q 1141 0 747 490 
Q 353 981 353 1791 
Q 353 2603 747 3093 
Q 1141 3584 1784 3584 
Q 2172 3584 2450 3431 
Q 2728 3278 2906 2969 
L 2906 3500 
L 3481 3500 
L 3481 434 
z
" transform="scale(0.015625)"/>
       <path id="DejaVuSans-2f" d="M 1625 4666 
L 2156 4666 
L 531 -594 
L 0 -594 
L 1625 4666 
z
" transform="scale(0.015625)"/>
       <path id="DejaVuSans-29" d="M 513 4856 
L 1013 4856 
Q 1481 4119 1714 3412 
Q 1947 2706 1947 2009 
Q 1947 1309 1714 600 
Q 1481 -109 1013 -844 
L 513 -844 
Q 928 -128 1133 580 
Q 1338 1288 1338 2009 
Q 1338 2731 1133 3434 
Q 928 4138 513 4856 
z
" transform="scale(0.015625)"/>
      </defs>
      <use xlink:href="#DejaVuSans-44"/>
      <use xlink:href="#DejaVuSans-65" x="77.001953"/>
      <use xlink:href="#DejaVuSans-6e" x="138.525391"/>
      <use xlink:href="#DejaVuSans-73" x="201.904297"/>
      <use xlink:href="#DejaVuSans-69" x="254.003906"/>
      <use xlink:href="#DejaVuSans-74" x="281.787109"/>
      <use xlink:href="#DejaVuSans-79" x="320.996094"/>
      <use xlink:href="#DejaVuSans-20" x="380.175781"/>
      <use xlink:href="#DejaVuSans-28" x="411.962891"/>
      <use xlink:href="#DejaVuSans-6b" x="450.976562"/>
      <use xlink:href="#DejaVuSans-67" x="508.886719"/>
      <use xlink:href="#DejaVuSans-2f" x="572.363281"/>
      <use xlink:href="#DejaVuSans-6d" x="606.054688"/>
      <use xlink:href="#DejaVuSans-33" x="703.466797"/>
      <use xlink:href="#DejaVuSans-29" x="767.089844"/>
     </g>
    </g>
   </g>
   <g id="line2d_13">
    <path d="M 118.01821 225.983182 
L 118.993845 225.877343 
L 119.669284 225.574584 
L 120.419773 224.959954 
L 121.695603 223.522814 
L 122.671237 222.572997 
L 123.421726 222.151126 
L 124.172214 221.997606 
L 126.048435 221.774605 
L 126.723874 221.374552 
L 127.549411 220.585209 
L 129.57573 218.462619 
L 130.326218 218.079674 
L 131.076706 217.95067 
L 132.72778 217.763889 
L 133.40322 217.400032 
L 134.153708 216.726395 
L 136.630319 214.22298 
L 137.305759 213.950588 
L 138.206345 213.853423 
L 139.332077 213.728508 
L 140.007517 213.42564 
L 140.758005 212.814387 
L 141.958786 211.456986 
L 143.00947 210.393225 
L 143.759958 209.94111 
L 144.510446 209.757121 
L 146.461716 209.464918 
L 147.137155 209.039734 
L 147.962692 208.228019 
L 149.98901 206.095079 
L 150.739499 205.71002 
L 151.565036 205.564717 
L 152.990964 205.383123 
L 153.666403 205.045252 
L 154.416891 204.399637 
L 157.193698 201.642295 
L 157.944186 201.398596 
L 160.2707 200.930096 
L 161.021188 200.348255 
L 162.071872 199.178764 
L 163.347702 197.81942 
L 164.09819 197.337083 
L 164.848678 197.121973 
L 166.950045 196.714147 
L 167.625485 196.23705 
L 168.526071 195.29255 
L 170.177145 193.494317 
L 170.927633 193.020975 
L 171.678121 192.810126 
L 173.629391 192.445848 
L 174.30483 192.003009 
L 175.130367 191.175765 
L 177.156686 189.005537 
L 177.907174 188.597444 
L 178.732711 188.420912 
L 180.233688 188.155838 
L 180.909127 187.772382 
L 181.659615 187.084792 
L 184.286324 184.391864 
L 185.036813 184.097295 
L 186.237594 183.936469 
L 187.063131 183.718553 
L 187.73857 183.317076 
L 188.564108 182.53031 
L 190.890621 180.063651 
L 191.641109 179.698018 
L 192.541695 179.530847 
L 193.742477 179.291975 
L 194.417916 178.92276 
L 195.168404 178.251085 
L 198.02026 175.367646 
L 198.770748 175.106682 
L 200.947164 174.565937 
L 201.697652 173.982025 
L 202.673287 172.892961 
L 204.099215 171.313051 
L 204.849703 170.79778 
L 205.600191 170.540653 
L 207.701558 170.007411 
L 208.452047 169.43151 
L 209.427681 168.346977 
L 210.928658 166.681164 
L 211.679146 166.173945 
L 212.504683 165.904828 
L 214.305855 165.474566 
L 215.056343 164.961623 
L 215.956929 164.017448 
L 217.83315 161.931836 
L 218.583638 161.459772 
L 219.409175 161.213837 
L 220.985201 160.839877 
L 221.735689 160.361587 
L 222.561226 159.535808 
L 224.812691 157.074368 
L 225.563179 156.662734 
L 226.463765 156.439551 
L 227.664546 156.144609 
L 228.415035 155.699824 
L 229.240572 154.906023 
L 231.792232 152.173281 
L 232.54272 151.817703 
L 233.743501 151.560006 
L 234.644087 151.253819 
L 235.394575 150.73416 
L 236.295161 149.783731 
L 238.246431 147.589169 
L 238.996919 147.111229 
L 239.822456 146.848196 
L 241.398482 146.408412 
L 242.14897 145.894965 
L 242.974507 145.039135 
L 245.150923 142.608556 
L 245.901411 142.163178 
L 246.801997 141.901114 
L 248.077827 141.53787 
L 248.828316 141.056819 
L 249.653853 140.230762 
L 252.130464 137.516593 
L 252.880952 137.126523 
L 254.006685 136.838606 
L 254.982319 136.493183 
L 255.732808 135.964315 
L 256.633394 135.005374 
L 258.659712 132.696517 
L 259.4102 132.211005 
L 260.310786 131.910391 
L 261.661665 131.497081 
L 262.412153 130.999647 
L 263.23769 130.159502 
L 265.714302 127.41069 
L 266.46479 127.005049 
L 267.665571 126.668804 
L 268.566157 126.318128 
L 269.316645 125.772881 
L 270.217231 124.798805 
L 272.24355 122.461727 
L 273.069087 121.925194 
L 274.044721 121.600104 
L 275.245503 121.189689 
L 275.995991 120.674881 
L 276.821528 119.81964 
L 279.298139 117.034003 
L 280.123676 116.581909 
L 282.675336 115.502832 
L 283.500874 114.676847 
L 286.202631 111.659471 
L 287.028168 111.234452 
L 289.279633 110.312068 
L 290.030121 109.625125 
L 291.155854 108.244989 
L 292.431684 106.754428 
L 293.257221 106.123014 
L 294.157807 105.738004 
L 295.733832 105.130822 
L 296.484321 104.549699 
L 297.384907 103.54196 
L 299.411225 101.142705 
L 300.236762 100.57136 
L 301.212397 100.194403 
L 302.413178 99.715044 
L 303.163666 99.162253 
L 304.064252 98.181248 
L 306.315717 95.52719 
L 307.141254 94.986161 
L 308.266986 94.566058 
L 309.242621 94.132943 
L 309.993109 93.557394 
L 310.893695 92.554373 
L 313.070111 89.959743 
L 313.895648 89.395983 
L 314.946332 88.979384 
L 315.997016 88.514495 
L 316.747504 87.940948 
L 317.64809 86.939928 
L 319.899555 84.245838 
L 320.725092 83.684956 
L 321.850824 83.231035 
L 322.826459 82.766964 
L 323.576947 82.170194 
L 324.477533 81.14668 
L 326.653949 78.512166 
L 327.479486 77.928249 
L 328.605219 77.451044 
L 329.655902 76.9318 
L 330.40639 76.311595 
L 331.306976 75.265757 
L 333.408343 72.692624 
L 334.233881 72.085462 
L 335.284564 71.613848 
L 336.410297 71.057311 
L 337.235834 70.36247 
L 338.211468 69.19542 
L 340.087689 66.856355 
L 340.913226 66.199863 
L 341.888861 65.720131 
L 343.164691 65.092209 
L 343.990228 64.397789 
L 344.965863 63.230033 
L 346.917132 60.78507 
L 347.742669 60.130802 
L 348.793353 59.610897 
L 349.994134 58.982353 
L 350.819671 58.26132 
L 351.795306 57.06948 
L 353.671527 54.691309 
L 354.497064 54.013178 
L 355.547747 53.467993 
L 356.748529 52.827162 
L 357.574066 52.105517 
L 358.5497 50.911802 
L 360.50097 48.424448 
L 361.401556 47.699269 
L 362.527288 47.121771 
L 363.577972 46.518353 
L 364.403509 45.769416 
L 365.379144 44.550923 
L 367.255364 42.130553 
L 368.15595 41.378859 
L 369.281683 40.774744 
L 370.407415 40.10384 
L 371.232952 39.327323 
L 372.283636 37.979507 
L 374.009759 35.732633 
L 374.910345 34.954138 
L 376.036077 34.322501 
L 377.16181 33.639184 
L 377.987347 32.860481 
L 379.03803 31.507986 
L 380.839202 29.147293 
L 381.739788 28.368492 
L 382.940569 27.682054 
L 383.991253 27.004964 
L 384.81679 26.197895 
L 385.867473 24.818578 
L 387.593596 22.528242 
L 388.494182 21.721971 
L 389.619915 21.046841 
L 389.619915 21.046841 
" clip-path="url(#p79783c1d06)" style="fill: none; stroke: #1f77b4; stroke-width: 1.5; stroke-linecap: square"/>
   </g>
   <g id="line2d_14">
    <path d="M 118.01821 225.983182 
L 118.918796 225.873907 
L 119.519187 225.550681 
L 120.119577 224.944623 
L 120.870066 223.831767 
L 122.821335 220.759641 
L 123.421726 220.253426 
L 124.022116 220.013976 
L 124.922702 219.943417 
L 125.748239 219.806591 
L 126.34863 219.457268 
L 126.949021 218.826196 
L 127.774558 217.563059 
L 129.500681 214.792845 
L 130.17612 214.173088 
L 130.776511 213.907707 
L 131.602048 213.814797 
L 132.502634 213.669921 
L 133.103024 213.327247 
L 133.703415 212.70616 
L 134.453903 211.579697 
L 136.405173 208.47162 
L 137.080612 207.900796 
L 137.681003 207.666699 
L 139.78237 207.154212 
L 140.382761 206.57772 
L 141.133249 205.493367 
L 143.309665 202.055958 
L 143.985104 201.53232 
L 144.660544 201.311464 
L 146.311618 200.962613 
L 146.912009 200.499015 
L 147.587448 199.649733 
L 148.638132 197.863646 
L 149.763864 196.054136 
L 150.439303 195.344913 
L 151.039694 194.999875 
L 151.790182 194.835197 
L 152.915915 194.595219 
L 153.516305 194.204376 
L 154.116696 193.540721 
L 154.942233 192.244846 
L 156.668356 189.40696 
L 157.343796 188.744926 
L 158.019235 188.408581 
L 159.069919 188.222197 
L 159.895456 187.971074 
L 160.720993 187.448903 
L 162.372067 186.30323 
L 162.972458 186.209286 
L 163.572848 186.372031 
L 164.323336 186.851963 
L 165.674215 187.75931 
L 166.274606 187.877219 
L 166.799948 187.768272 
L 167.475387 187.379283 
L 169.276559 186.176745 
L 169.87695 186.131221 
L 170.47734 186.338498 
L 171.302877 186.906988 
L 172.42861 187.654226 
L 173.029 187.787879 
L 173.554342 187.692957 
L 174.229782 187.316957 
L 176.106002 186.076856 
L 176.706393 186.047522 
L 177.306783 186.269093 
L 178.207369 186.905078 
L 179.183004 187.548269 
L 179.783395 187.697493 
L 180.308737 187.616703 
L 180.984176 187.254138 
L 183.010494 185.915695 
L 183.685934 185.81972 
L 184.661569 185.947737 
L 185.712252 186.034593 
L 186.387692 185.845732 
L 187.063131 185.389594 
L 187.888668 184.507751 
L 190.215182 181.789832 
L 190.96567 181.32728 
L 191.866256 181.038376 
L 193.217135 180.6189 
L 193.967623 180.125005 
L 194.79316 179.295084 
L 197.494918 176.278679 
L 198.320455 175.85146 
L 199.746383 175.467791 
L 200.57192 175.103693 
L 201.322408 174.526968 
L 202.298043 173.456782 
L 204.024166 171.527824 
L 204.849703 170.982227 
L 205.67524 170.710125 
L 207.401363 170.226248 
L 208.151851 169.70512 
L 209.052437 168.770673 
L 211.003707 166.639041 
L 211.754195 166.179456 
L 212.579732 165.933589 
L 214.155757 165.541241 
L 214.906246 165.060807 
L 215.731783 164.242522 
L 217.983248 161.814563 
L 218.733736 161.406067 
L 219.634322 161.183564 
L 220.910152 160.863763 
L 221.66064 160.403328 
L 222.486177 159.59918 
L 224.88774 157.02047 
L 225.638228 156.638821 
L 226.613863 156.416566 
L 227.664546 156.139806 
L 228.415035 155.690852 
L 229.240572 154.89575 
L 231.717183 152.223751 
L 232.467671 151.845251 
L 233.518355 151.605164 
L 234.49399 151.323665 
L 235.244478 150.856213 
L 236.070015 150.042889 
L 238.471577 147.418234 
L 239.222066 147.019043 
L 240.1977 146.775294 
L 241.248384 146.478798 
L 241.998872 146.017975 
L 242.824409 145.21112 
L 245.376069 142.447905 
L 246.126558 142.077639 
L 247.327339 141.790527 
L 248.227925 141.462381 
L 248.978413 140.927594 
L 249.878999 139.963779 
L 251.830269 137.745464 
L 252.580757 137.254101 
L 253.481343 136.954736 
L 254.90727 136.531506 
L 255.657759 136.029029 
L 256.483296 135.183779 
L 258.809809 132.578407 
L 259.560298 132.14394 
L 260.535933 131.858458 
L 261.661665 131.497027 
L 262.412153 130.999523 
L 263.23769 130.159378 
L 265.714302 127.41077 
L 266.46479 127.005132 
L 267.665571 126.668822 
L 268.566157 126.31809 
L 269.316645 125.772822 
L 270.217231 124.798757 
L 272.24355 122.461753 
L 273.069087 121.925223 
L 274.044721 121.600113 
L 275.245503 121.189668 
L 275.995991 120.674853 
L 276.821528 119.819619 
L 279.298139 117.034009 
L 280.123676 116.58191 
L 282.675336 115.502818 
L 283.500874 114.676839 
L 286.202631 111.659466 
L 287.028168 111.234441 
L 289.279633 110.312059 
L 290.030121 109.625122 
L 291.155854 108.24499 
L 292.431684 106.754422 
L 293.257221 106.123002 
L 294.157807 105.737987 
L 295.733832 105.130812 
L 296.484321 104.549696 
L 297.384907 103.541961 
L 299.411225 101.142696 
L 300.236762 100.571344 
L 301.212397 100.194385 
L 302.413178 99.715034 
L 303.163666 99.16225 
L 304.064252 98.18125 
L 306.315717 95.527179 
L 307.141254 94.986144 
L 308.266986 94.56604 
L 309.242621 94.132933 
L 309.993109 93.557391 
L 310.893695 92.554376 
L 313.070111 89.959731 
L 313.895648 89.395965 
L 314.946332 88.979366 
L 315.997016 88.514485 
L 316.747504 87.940945 
L 317.64809 86.93993 
L 319.899555 84.245826 
L 320.725092 83.684938 
L 321.850824 83.231016 
L 322.826459 82.766954 
L 323.576947 82.170191 
L 324.477533 81.146682 
L 326.653949 78.512154 
L 327.479486 77.92823 
L 328.605219 77.451025 
L 329.655902 76.931789 
L 330.40639 76.311592 
L 331.306976 75.265758 
L 333.408343 72.692611 
L 334.233881 72.085444 
L 335.284564 71.613829 
L 336.410297 71.0573 
L 337.235834 70.362467 
L 338.211468 69.195421 
L 340.087689 66.856344 
L 340.913226 66.199845 
L 341.888861 65.720111 
L 343.164691 65.092198 
L 343.990228 64.397785 
L 344.965863 63.230034 
L 346.917132 60.785058 
L 347.742669 60.130783 
L 348.793353 59.610876 
L 349.994134 58.982341 
L 350.819671 58.261316 
L 351.795306 57.06948 
L 353.671527 54.691296 
L 354.497064 54.013159 
L 355.547747 53.467972 
L 356.748529 52.82715 
L 357.574066 52.105512 
L 358.5497 50.911802 
L 360.50097 48.424435 
L 361.401556 47.699249 
L 362.527288 47.12175 
L 363.577972 46.51834 
L 364.403509 45.769411 
L 365.379144 44.550922 
L 367.255364 42.13054 
L 368.15595 41.378839 
L 369.281683 40.774723 
L 370.407415 40.103828 
L 371.232952 39.327318 
L 372.283636 37.979505 
L 374.009759 35.732619 
L 374.910345 34.954118 
L 376.036077 34.32248 
L 377.16181 33.63917 
L 377.987347 32.860475 
L 379.03803 31.507984 
L 380.839202 29.147279 
L 381.739788 28.368471 
L 382.940569 27.682032 
L 383.991253 27.004951 
L 384.81679 26.197889 
L 385.867473 24.818575 
L 387.593596 22.528228 
L 388.494182 21.721949 
L 389.619915 21.046818 
L 389.619915 21.046818 
" clip-path="url(#p79783c1d06)" style="fill: none; stroke: #ff7f0e; stroke-width: 1.5; stroke-linecap: square"/>
   </g>
   <g id="patch_3">
    <path d="M 104.438125 236.23 
L 104.438125 10.8 
" style="fill: none; stroke: #000000; stroke-width: 0.8; stroke-linejoin: miter; stroke-linecap: square"/>
   </g>
   <g id="patch_4">
    <path d="M 403.2 236.23 
L 403.2 10.8 
" style="fill: none; stroke: #000000; stroke-width: 0.8; stroke-linejoin: miter; stroke-linecap: square"/>
   </g>
   <g id="patch_5">
    <path d="M 104.438125 236.23 
L 403.2 236.23 
" style="fill: none; stroke: #000000; stroke-width: 0.8; stroke-linejoin: miter; stroke-linecap: square"/>
   </g>
   <g id="patch_6">
    <path d="M 104.438125 10.8 
L 403.2 10.8 
" style="fill: none; stroke: #000000; stroke-width: 0.8; stroke-linejoin: miter; stroke-linecap: square"/>
   </g>
   <g id="legend_1">
    <g id="patch_7">
     <path d="M 326.7 231.73 
L 396.9 231.73 
Q 398.7 231.73 398.7 229.93 
L 398.7 204.371406 
Q 398.7 202.571406 396.9 202.571406 
L 326.7 202.571406 
Q 324.9 202.571406 324.9 204.371406 
L 324.9 229.93 
Q 324.9 231.73 326.7 231.73 
z
" style="fill: #ffffff; opacity: 0.8; stroke: #cccccc; stroke-linejoin: miter"/>
    </g>
    <g id="line2d_15">
     <path d="M 328.5 209.861406 
L 337.5 209.861406 
L 346.5 209.861406 
" style="fill: none; stroke: #1f77b4; stroke-width: 1.5; stroke-linecap: square"/>
    </g>
    <g id="text_11">
     <!-- Chief $\rho$ -->
     <g transform="translate(353.7 213.011406) scale(0.09 -0.09)">
      <defs>
       <path id="DejaVuSans-43" d="M 4122 4306 
L 4122 3641 
Q 3803 3938 3442 4084 
Q 3081 4231 2675 4231 
Q 1875 4231 1450 3742 
Q 1025 3253 1025 2328 
Q 1025 1406 1450 917 
Q 1875 428 2675 428 
Q 3081 428 3442 575 
Q 3803 722 4122 1019 
L 4122 359 
Q 3791 134 3420 21 
Q 3050 -91 2638 -91 
Q 1578 -91 968 557 
Q 359 1206 359 2328 
Q 359 3453 968 4101 
Q 1578 4750 2638 4750 
Q 3056 4750 3426 4639 
Q 3797 4528 4122 4306 
z
" transform="scale(0.015625)"/>
       <path id="DejaVuSans-68" d="M 3513 2113 
L 3513 0 
L 2938 0 
L 2938 2094 
Q 2938 2591 2744 2837 
Q 2550 3084 2163 3084 
Q 1697 3084 1428 2787 
Q 1159 2491 1159 1978 
L 1159 0 
L 581 0 
L 581 4863 
L 1159 4863 
L 1159 2956 
Q 1366 3272 1645 3428 
Q 1925 3584 2291 3584 
Q 2894 3584 3203 3211 
Q 3513 2838 3513 2113 
z
" transform="scale(0.015625)"/>
       <path id="DejaVuSans-66" d="M 2375 4863 
L 2375 4384 
L 1825 4384 
Q 1516 4384 1395 4259 
Q 1275 4134 1275 3809 
L 1275 3500 
L 2222 3500 
L 2222 3053 
L 1275 3053 
L 1275 0 
L 697 0 
L 697 3053 
L 147 3053 
L 147 3500 
L 697 3500 
L 697 3744 
Q 697 4328 969 4595 
Q 1241 4863 1831 4863 
L 2375 4863 
z
" transform="scale(0.015625)"/>
       <path id="DejaVuSans-Oblique-3c1" d="M 1203 2875 
Q 1453 3194 1981 3475 
Q 2188 3584 2756 3584 
Q 3394 3584 3694 3078 
Q 3994 2572 3834 1747 
Q 3672 922 3175 415 
Q 2678 -91 2041 -91 
Q 1656 -91 1409 63 
Q 1163 213 1044 525 
L 681 -1331 
L 103 -1331 
L 697 1716 
Q 838 2438 1203 2875 
z
M 3238 1747 
Q 3359 2381 3169 2744 
Q 2978 3103 2522 3103 
Q 2066 3103 1734 2744 
Q 1403 2381 1281 1747 
Q 1156 1113 1347 750 
Q 1538 391 1994 391 
Q 2450 391 2781 750 
Q 3113 1113 3238 1747 
z
" transform="scale(0.015625)"/>
      </defs>
      <use xlink:href="#DejaVuSans-43" transform="translate(0 0.015625)"/>
      <use xlink:href="#DejaVuSans-68" transform="translate(69.824219 0.015625)"/>
      <use xlink:href="#DejaVuSans-69" transform="translate(133.203125 0.015625)"/>
      <use xlink:href="#DejaVuSans-65" transform="translate(160.986328 0.015625)"/>
      <use xlink:href="#DejaVuSans-66" transform="translate(222.509766 0.015625)"/>
      <use xlink:href="#DejaVuSans-20" transform="translate(257.714844 0.015625)"/>
      <use xlink:href="#DejaVuSans-Oblique-3c1" transform="translate(289.501953 0.015625)"/>
     </g>
    </g>
    <g id="line2d_16">
     <path d="M 328.5 223.09 
L 337.5 223.09 
L 346.5 223.09 
" style="fill: none; stroke: #ff7f0e; stroke-width: 1.5; stroke-linecap: square"/>
    </g>
    <g id="text_12">
     <!-- Deputy $\rho$ -->
     <g transform="translate(353.7 226.24) scale(0.09 -0.09)">
      <defs>
       <path id="DejaVuSans-70" d="M 1159 525 
L 1159 -1331 
L 581 -1331 
L 581 3500 
L 1159 3500 
L 1159 2969 
Q 1341 3281 1617 3432 
Q 1894 3584 2278 3584 
Q 2916 3584 3314 3078 
Q 3713 2572 3713 1747 
Q 3713 922 3314 415 
Q 2916 -91 2278 -91 
Q 1894 -91 1617 61 
Q 1341 213 1159 525 
z
M 3116 1747 
Q 3116 2381 2855 2742 
Q 2594 3103 2138 3103 
Q 1681 3103 1420 2742 
Q 1159 2381 1159 1747 
Q 1159 1113 1420 752 
Q 1681 391 2138 391 
Q 2594 391 2855 752 
Q 3116 1113 3116 1747 
z
" transform="scale(0.015625)"/>
       <path id="DejaVuSans-75" d="M 544 1381 
L 544 3500 
L 1119 3500 
L 1119 1403 
Q 1119 906 1312 657 
Q 1506 409 1894 409 
Q 2359 409 2629 706 
Q 2900 1003 2900 1516 
L 2900 3500 
L 3475 3500 
L 3475 0 
L 2900 0 
L 2900 538 
Q 2691 219 2414 64 
Q 2138 -91 1772 -91 
Q 1169 -91 856 284 
Q 544 659 544 1381 
z
M 1991 3584 
L 1991 3584 
z
" transform="scale(0.015625)"/>
      </defs>
      <use xlink:href="#DejaVuSans-44" transform="translate(0 0.09375)"/>
      <use xlink:href="#DejaVuSans-65" transform="translate(77.001953 0.09375)"/>
      <use xlink:href="#DejaVuSans-70" transform="translate(138.525391 0.09375)"/>
      <use xlink:href="#DejaVuSans-75" transform="translate(202.001953 0.09375)"/>
      <use xlink:href="#DejaVuSans-74" transform="translate(265.380859 0.09375)"/>
      <use xlink:href="#DejaVuSans-79" transform="translate(304.589844 0.09375)"/>
      <use xlink:href="#DejaVuSans-20" transform="translate(363.769531 0.09375)"/>
      <use xlink:href="#DejaVuSans-Oblique-3c1" transform="translate(395.556641 0.09375)"/>
     </g>
    </g>
   </g>
  </g>
 </g>
 <defs>
  <clipPath id="p79783c1d06">
   <rect x="104.438125" y="10.8" width="298.761875" height="225.43"/>
  </clipPath>
 </defs>
</svg>
