<?xml version="1.0" encoding="utf-8" standalone="no"?>
<!DOCTYPE svg PUBLIC "-//W3C//DTD SVG 1.1//EN"
  "http://www.w3.org/Graphics/SVG/1.1/DTD/svg11.dtd">
<svg xmlns:xlink="http://www.w3.org/1999/xlink" width="414pt" height="288pt" viewBox="0 0 414 288" xmlns="http://www.w3.org/2000/svg" version="1.1">
 <metadata>
  <rdf:RDF xmlns:dc="http://purl.org/dc/elements/1.1/" xmlns:cc="http://creativecommons.org/ns#" xmlns:rdf="http://www.w3.org/1999/02/22-rdf-syntax-ns#">
   <cc:Work>
    <dc:type rdf:resource="http://purl.org/dc/dcmitype/StillImage"/>
    <dc:date>2023-09-07T00:34:39.078989</dc:date>
    <dc:format>image/svg+xml</dc:format>
    <dc:creator>
     <cc:Agent>
      <dc:title>Matplotlib v3.7.2, https://matplotlib.org/</dc:title>
     </cc:Agent>
    </dc:creator>
   </cc:Work>
  </rdf:RDF>
 </metadata>
 <defs>
  <style type="text/css">*{stroke-linejoin: round; stroke-linecap: butt}</style>
 </defs>
 <g id="figure_1">
  <g id="patch_1">
   <path d="M 0 288 
L 414 288 
L 414 0 
L 0 0 
L 0 288 
z
" style="fill: none"/>
  </g>
  <g id="axes_1">
   <g id="patch_2">
    <path d="M 111.050625 241.036875 
L 403.2 241.036875 
L 403.2 10.8 
L 111.050625 10.8 
L 111.050625 241.036875 
z
" style="fill: none"/>
   </g>
   <g id="matplotlib.axis_1">
    <g id="xtick_1">
     <g id="line2d_1">
      <defs>
       <path id="m1d7c2280e0" d="M 0 0 
L 0 3.5 
" style="stroke: #000000; stroke-width: 0.8"/>
      </defs>
      <g>
       <use xlink:href="#m1d7c2280e0" x="124.330142" y="241.036875" style="stroke: #000000; stroke-width: 0.8"/>
      </g>
     </g>
     <g id="text_1">
      <!-- 0 -->
      <g transform="translate(119.240142 260.194375) scale(0.16 -0.16)">
       <defs>
        <path id="DejaVuSans-30" d="M 2034 4250 
Q 1547 4250 1301 3770 
Q 1056 3291 1056 2328 
Q 1056 1369 1301 889 
Q 1547 409 2034 409 
Q 2525 409 2770 889 
Q 3016 1369 3016 2328 
Q 3016 3291 2770 3770 
Q 2525 4250 2034 4250 
z
M 2034 4750 
Q 2819 4750 3233 4129 
Q 3647 3509 3647 2328 
Q 3647 1150 3233 529 
Q 2819 -91 2034 -91 
Q 1250 -91 836 529 
Q 422 1150 422 2328 
Q 422 3509 836 4129 
Q 1250 4750 2034 4750 
z
" transform="scale(0.015625)"/>
       </defs>
       <use xlink:href="#DejaVuSans-30"/>
      </g>
     </g>
    </g>
    <g id="xtick_2">
     <g id="line2d_2">
      <g>
       <use xlink:href="#m1d7c2280e0" x="200.213097" y="241.036875" style="stroke: #000000; stroke-width: 0.8"/>
      </g>
     </g>
     <g id="text_2">
      <!-- 1 -->
      <g transform="translate(195.123097 260.194375) scale(0.16 -0.16)">
       <defs>
        <path id="DejaVuSans-31" d="M 794 531 
L 1825 531 
L 1825 4091 
L 703 3866 
L 703 4441 
L 1819 4666 
L 2450 4666 
L 2450 531 
L 3481 531 
L 3481 0 
L 794 0 
L 794 531 
z
" transform="scale(0.015625)"/>
       </defs>
       <use xlink:href="#DejaVuSans-31"/>
      </g>
     </g>
    </g>
    <g id="xtick_3">
     <g id="line2d_3">
      <g>
       <use xlink:href="#m1d7c2280e0" x="276.096051" y="241.036875" style="stroke: #000000; stroke-width: 0.8"/>
      </g>
     </g>
     <g id="text_3">
      <!-- 2 -->
      <g transform="translate(271.006051 260.194375) scale(0.16 -0.16)">
       <defs>
        <path id="DejaVuSans-32" d="M 1228 531 
L 3431 531 
L 3431 0 
L 469 0 
L 469 531 
Q 828 903 1448 1529 
Q 2069 2156 2228 2338 
Q 2531 2678 2651 2914 
Q 2772 3150 2772 3378 
Q 2772 3750 2511 3984 
Q 2250 4219 1831 4219 
Q 1534 4219 1204 4116 
Q 875 4013 500 3803 
L 500 4441 
Q 881 4594 1212 4672 
Q 1544 4750 1819 4750 
Q 2544 4750 2975 4387 
Q 3406 4025 3406 3419 
Q 3406 3131 3298 2873 
Q 3191 2616 2906 2266 
Q 2828 2175 2409 1742 
Q 1991 1309 1228 531 
z
" transform="scale(0.015625)"/>
       </defs>
       <use xlink:href="#DejaVuSans-32"/>
      </g>
     </g>
    </g>
    <g id="xtick_4">
     <g id="line2d_4">
      <g>
       <use xlink:href="#m1d7c2280e0" x="351.979006" y="241.036875" style="stroke: #000000; stroke-width: 0.8"/>
      </g>
     </g>
     <g id="text_4">
      <!-- 3 -->
      <g transform="translate(346.889006 260.194375) scale(0.16 -0.16)">
       <defs>
        <path id="DejaVuSans-33" d="M 2597 2516 
Q 3050 2419 3304 2112 
Q 3559 1806 3559 1356 
Q 3559 666 3084 287 
Q 2609 -91 1734 -91 
Q 1441 -91 1130 -33 
Q 819 25 488 141 
L 488 750 
Q 750 597 1062 519 
Q 1375 441 1716 441 
Q 2309 441 2620 675 
Q 2931 909 2931 1356 
Q 2931 1769 2642 2001 
Q 2353 2234 1838 2234 
L 1294 2234 
L 1294 2753 
L 1863 2753 
Q 2328 2753 2575 2939 
Q 2822 3125 2822 3475 
Q 2822 3834 2567 4026 
Q 2313 4219 1838 4219 
Q 1578 4219 1281 4162 
Q 984 4106 628 3988 
L 628 4550 
Q 988 4650 1302 4700 
Q 1616 4750 1894 4750 
Q 2613 4750 3031 4423 
Q 3450 4097 3450 3541 
Q 3450 3153 3228 2886 
Q 3006 2619 2597 2516 
z
" transform="scale(0.015625)"/>
       </defs>
       <use xlink:href="#DejaVuSans-33"/>
      </g>
     </g>
    </g>
    <g id="text_5">
     <!-- Time [min] -->
     <g transform="translate(229.972969 275.120313) scale(0.1 -0.1)">
      <defs>
       <path id="DejaVuSans-54" d="M -19 4666 
L 3928 4666 
L 3928 4134 
L 2272 4134 
L 2272 0 
L 1638 0 
L 1638 4134 
L -19 4134 
L -19 4666 
z
" transform="scale(0.015625)"/>
       <path id="DejaVuSans-69" d="M 603 3500 
L 1178 3500 
L 1178 0 
L 603 0 
L 603 3500 
z
M 603 4863 
L 1178 4863 
L 1178 4134 
L 603 4134 
L 603 4863 
z
" transform="scale(0.015625)"/>
       <path id="DejaVuSans-6d" d="M 3328 2828 
Q 3544 3216 3844 3400 
Q 4144 3584 4550 3584 
Q 5097 3584 5394 3201 
Q 5691 2819 5691 2113 
L 5691 0 
L 5113 0 
L 5113 2094 
Q 5113 2597 4934 2840 
Q 4756 3084 4391 3084 
Q 3944 3084 3684 2787 
Q 3425 2491 3425 1978 
L 3425 0 
L 2847 0 
L 2847 2094 
Q 2847 2600 2669 2842 
Q 2491 3084 2119 3084 
Q 1678 3084 1418 2786 
Q 1159 2488 1159 1978 
L 1159 0 
L 581 0 
L 581 3500 
L 1159 3500 
L 1159 2956 
Q 1356 3278 1631 3431 
Q 1906 3584 2284 3584 
Q 2666 3584 2933 3390 
Q 3200 3197 3328 2828 
z
" transform="scale(0.015625)"/>
       <path id="DejaVuSans-65" d="M 3597 1894 
L 3597 1613 
L 953 1613 
Q 991 1019 1311 708 
Q 1631 397 2203 397 
Q 2534 397 2845 478 
Q 3156 559 3463 722 
L 3463 178 
Q 3153 47 2828 -22 
Q 2503 -91 2169 -91 
Q 1331 -91 842 396 
Q 353 884 353 1716 
Q 353 2575 817 3079 
Q 1281 3584 2069 3584 
Q 2775 3584 3186 3129 
Q 3597 2675 3597 1894 
z
M 3022 2063 
Q 3016 2534 2758 2815 
Q 2500 3097 2075 3097 
Q 1594 3097 1305 2825 
Q 1016 2553 972 2059 
L 3022 2063 
z
" transform="scale(0.015625)"/>
       <path id="DejaVuSans-20" transform="scale(0.015625)"/>
       <path id="DejaVuSans-5b" d="M 550 4863 
L 1875 4863 
L 1875 4416 
L 1125 4416 
L 1125 -397 
L 1875 -397 
L 1875 -844 
L 550 -844 
L 550 4863 
z
" transform="scale(0.015625)"/>
       <path id="DejaVuSans-6e" d="M 3513 2113 
L 3513 0 
L 2938 0 
L 2938 2094 
Q 2938 2591 2744 2837 
Q 2550 3084 2163 3084 
Q 1697 3084 1428 2787 
Q 1159 2491 1159 1978 
L 1159 0 
L 581 0 
L 581 3500 
L 1159 3500 
L 1159 2956 
Q 1366 3272 1645 3428 
Q 1925 3584 2291 3584 
Q 2894 3584 3203 3211 
Q 3513 2838 3513 2113 
z
" transform="scale(0.015625)"/>
       <path id="DejaVuSans-5d" d="M 1947 4863 
L 1947 -844 
L 622 -844 
L 622 -397 
L 1369 -397 
L 1369 4416 
L 622 4416 
L 622 4863 
L 1947 4863 
z
" transform="scale(0.015625)"/>
      </defs>
      <use xlink:href="#DejaVuSans-54"/>
      <use xlink:href="#DejaVuSans-69" x="57.958984"/>
      <use xlink:href="#DejaVuSans-6d" x="85.742188"/>
      <use xlink:href="#DejaVuSans-65" x="183.154297"/>
      <use xlink:href="#DejaVuSans-20" x="244.677734"/>
      <use xlink:href="#DejaVuSans-5b" x="276.464844"/>
      <use xlink:href="#DejaVuSans-6d" x="315.478516"/>
      <use xlink:href="#DejaVuSans-69" x="412.890625"/>
      <use xlink:href="#DejaVuSans-6e" x="440.673828"/>
      <use xlink:href="#DejaVuSans-5d" x="504.052734"/>
     </g>
    </g>
   </g>
   <g id="matplotlib.axis_2">
    <g id="ytick_1">
     <g id="line2d_5">
      <defs>
       <path id="mbfef5a81b1" d="M 0 0 
L -3.5 0 
" style="stroke: #000000; stroke-width: 0.8"/>
      </defs>
      <g>
       <use xlink:href="#mbfef5a81b1" x="111.050625" y="211.623609" style="stroke: #000000; stroke-width: 0.8"/>
      </g>
     </g>
     <g id="text_6">
      <!-- −0.00005 -->
      <g transform="translate(24.478125 217.702359) scale(0.16 -0.16)">
       <defs>
        <path id="DejaVuSans-2212" d="M 678 2272 
L 4684 2272 
L 4684 1741 
L 678 1741 
L 678 2272 
z
" transform="scale(0.015625)"/>
        <path id="DejaVuSans-2e" d="M 684 794 
L 1344 794 
L 1344 0 
L 684 0 
L 684 794 
z
" transform="scale(0.015625)"/>
        <path id="DejaVuSans-35" d="M 691 4666 
L 3169 4666 
L 3169 4134 
L 1269 4134 
L 1269 2991 
Q 1406 3038 1543 3061 
Q 1681 3084 1819 3084 
Q 2600 3084 3056 2656 
Q 3513 2228 3513 1497 
Q 3513 744 3044 326 
Q 2575 -91 1722 -91 
Q 1428 -91 1123 -41 
Q 819 9 494 109 
L 494 744 
Q 775 591 1075 516 
Q 1375 441 1709 441 
Q 2250 441 2565 725 
Q 2881 1009 2881 1497 
Q 2881 1984 2565 2268 
Q 2250 2553 1709 2553 
Q 1456 2553 1204 2497 
Q 953 2441 691 2322 
L 691 4666 
z
" transform="scale(0.015625)"/>
       </defs>
       <use xlink:href="#DejaVuSans-2212"/>
       <use xlink:href="#DejaVuSans-30" x="83.789062"/>
       <use xlink:href="#DejaVuSans-2e" x="147.412109"/>
       <use xlink:href="#DejaVuSans-30" x="179.199219"/>
       <use xlink:href="#DejaVuSans-30" x="242.822266"/>
       <use xlink:href="#DejaVuSans-30" x="306.445312"/>
       <use xlink:href="#DejaVuSans-30" x="370.068359"/>
       <use xlink:href="#DejaVuSans-35" x="433.691406"/>
      </g>
     </g>
    </g>
    <g id="ytick_2">
     <g id="line2d_6">
      <g>
       <use xlink:href="#mbfef5a81b1" x="111.050625" y="165.975672" style="stroke: #000000; stroke-width: 0.8"/>
      </g>
     </g>
     <g id="text_7">
      <!-- 0.00000 -->
      <g transform="translate(37.885625 172.054422) scale(0.16 -0.16)">
       <use xlink:href="#DejaVuSans-30"/>
       <use xlink:href="#DejaVuSans-2e" x="63.623047"/>
       <use xlink:href="#DejaVuSans-30" x="95.410156"/>
       <use xlink:href="#DejaVuSans-30" x="159.033203"/>
       <use xlink:href="#DejaVuSans-30" x="222.65625"/>
       <use xlink:href="#DejaVuSans-30" x="286.279297"/>
       <use xlink:href="#DejaVuSans-30" x="349.902344"/>
      </g>
     </g>
    </g>
    <g id="ytick_3">
     <g id="line2d_7">
      <g>
       <use xlink:href="#mbfef5a81b1" x="111.050625" y="120.327735" style="stroke: #000000; stroke-width: 0.8"/>
      </g>
     </g>
     <g id="text_8">
      <!-- 0.00005 -->
      <g transform="translate(37.885625 126.406485) scale(0.16 -0.16)">
       <use xlink:href="#DejaVuSans-30"/>
       <use xlink:href="#DejaVuSans-2e" x="63.623047"/>
       <use xlink:href="#DejaVuSans-30" x="95.410156"/>
       <use xlink:href="#DejaVuSans-30" x="159.033203"/>
       <use xlink:href="#DejaVuSans-30" x="222.65625"/>
       <use xlink:href="#DejaVuSans-30" x="286.279297"/>
       <use xlink:href="#DejaVuSans-35" x="349.902344"/>
      </g>
     </g>
    </g>
    <g id="ytick_4">
     <g id="line2d_8">
      <g>
       <use xlink:href="#mbfef5a81b1" x="111.050625" y="74.679798" style="stroke: #000000; stroke-width: 0.8"/>
      </g>
     </g>
     <g id="text_9">
      <!-- 0.00010 -->
      <g transform="translate(37.885625 80.758548) scale(0.16 -0.16)">
       <use xlink:href="#DejaVuSans-30"/>
       <use xlink:href="#DejaVuSans-2e" x="63.623047"/>
       <use xlink:href="#DejaVuSans-30" x="95.410156"/>
       <use xlink:href="#DejaVuSans-30" x="159.033203"/>
       <use xlink:href="#DejaVuSans-30" x="222.65625"/>
       <use xlink:href="#DejaVuSans-31" x="286.279297"/>
       <use xlink:href="#DejaVuSans-30" x="349.902344"/>
      </g>
     </g>
    </g>
    <g id="ytick_5">
     <g id="line2d_9">
      <g>
       <use xlink:href="#mbfef5a81b1" x="111.050625" y="29.031861" style="stroke: #000000; stroke-width: 0.8"/>
      </g>
     </g>
     <g id="text_10">
      <!-- 0.00015 -->
      <g transform="translate(37.885625 35.110611) scale(0.16 -0.16)">
       <use xlink:href="#DejaVuSans-30"/>
       <use xlink:href="#DejaVuSans-2e" x="63.623047"/>
       <use xlink:href="#DejaVuSans-30" x="95.410156"/>
       <use xlink:href="#DejaVuSans-30" x="159.033203"/>
       <use xlink:href="#DejaVuSans-30" x="222.65625"/>
       <use xlink:href="#DejaVuSans-31" x="286.279297"/>
       <use xlink:href="#DejaVuSans-35" x="349.902344"/>
      </g>
     </g>
    </g>
    <g id="text_11">
     <!-- RW Motor Torque (Nm) -->
     <g transform="translate(18.398438 182.515312) rotate(-90) scale(0.1 -0.1)">
      <defs>
       <path id="DejaVuSans-52" d="M 2841 2188 
Q 3044 2119 3236 1894 
Q 3428 1669 3622 1275 
L 4263 0 
L 3584 0 
L 2988 1197 
Q 2756 1666 2539 1819 
Q 2322 1972 1947 1972 
L 1259 1972 
L 1259 0 
L 628 0 
L 628 4666 
L 2053 4666 
Q 2853 4666 3247 4331 
Q 3641 3997 3641 3322 
Q 3641 2881 3436 2590 
Q 3231 2300 2841 2188 
z
M 1259 4147 
L 1259 2491 
L 2053 2491 
Q 2509 2491 2742 2702 
Q 2975 2913 2975 3322 
Q 2975 3731 2742 3939 
Q 2509 4147 2053 4147 
L 1259 4147 
z
" transform="scale(0.015625)"/>
       <path id="DejaVuSans-57" d="M 213 4666 
L 850 4666 
L 1831 722 
L 2809 4666 
L 3519 4666 
L 4500 722 
L 5478 4666 
L 6119 4666 
L 4947 0 
L 4153 0 
L 3169 4050 
L 2175 0 
L 1381 0 
L 213 4666 
z
" transform="scale(0.015625)"/>
       <path id="DejaVuSans-4d" d="M 628 4666 
L 1569 4666 
L 2759 1491 
L 3956 4666 
L 4897 4666 
L 4897 0 
L 4281 0 
L 4281 4097 
L 3078 897 
L 2444 897 
L 1241 4097 
L 1241 0 
L 628 0 
L 628 4666 
z
" transform="scale(0.015625)"/>
       <path id="DejaVuSans-6f" d="M 1959 3097 
Q 1497 3097 1228 2736 
Q 959 2375 959 1747 
Q 959 1119 1226 758 
Q 1494 397 1959 397 
Q 2419 397 2687 759 
Q 2956 1122 2956 1747 
Q 2956 2369 2687 2733 
Q 2419 3097 1959 3097 
z
M 1959 3584 
Q 2709 3584 3137 3096 
Q 3566 2609 3566 1747 
Q 3566 888 3137 398 
Q 2709 -91 1959 -91 
Q 1206 -91 779 398 
Q 353 888 353 1747 
Q 353 2609 779 3096 
Q 1206 3584 1959 3584 
z
" transform="scale(0.015625)"/>
       <path id="DejaVuSans-74" d="M 1172 4494 
L 1172 3500 
L 2356 3500 
L 2356 3053 
L 1172 3053 
L 1172 1153 
Q 1172 725 1289 603 
Q 1406 481 1766 481 
L 2356 481 
L 2356 0 
L 1766 0 
Q 1100 0 847 248 
Q 594 497 594 1153 
L 594 3053 
L 172 3053 
L 172 3500 
L 594 3500 
L 594 4494 
L 1172 4494 
z
" transform="scale(0.015625)"/>
       <path id="DejaVuSans-72" d="M 2631 2963 
Q 2534 3019 2420 3045 
Q 2306 3072 2169 3072 
Q 1681 3072 1420 2755 
Q 1159 2438 1159 1844 
L 1159 0 
L 581 0 
L 581 3500 
L 1159 3500 
L 1159 2956 
Q 1341 3275 1631 3429 
Q 1922 3584 2338 3584 
Q 2397 3584 2469 3576 
Q 2541 3569 2628 3553 
L 2631 2963 
z
" transform="scale(0.015625)"/>
       <path id="DejaVuSans-71" d="M 947 1747 
Q 947 1113 1208 752 
Q 1469 391 1925 391 
Q 2381 391 2643 752 
Q 2906 1113 2906 1747 
Q 2906 2381 2643 2742 
Q 2381 3103 1925 3103 
Q 1469 3103 1208 2742 
Q 947 2381 947 1747 
z
M 2906 525 
Q 2725 213 2448 61 
Q 2172 -91 1784 -91 
Q 1150 -91 751 415 
Q 353 922 353 1747 
Q 353 2572 751 3078 
Q 1150 3584 1784 3584 
Q 2172 3584 2448 3432 
Q 2725 3281 2906 2969 
L 2906 3500 
L 3481 3500 
L 3481 -1331 
L 2906 -1331 
L 2906 525 
z
" transform="scale(0.015625)"/>
       <path id="DejaVuSans-75" d="M 544 1381 
L 544 3500 
L 1119 3500 
L 1119 1403 
Q 1119 906 1312 657 
Q 1506 409 1894 409 
Q 2359 409 2629 706 
Q 2900 1003 2900 1516 
L 2900 3500 
L 3475 3500 
L 3475 0 
L 2900 0 
L 2900 538 
Q 2691 219 2414 64 
Q 2138 -91 1772 -91 
Q 1169 -91 856 284 
Q 544 659 544 1381 
z
M 1991 3584 
L 1991 3584 
z
" transform="scale(0.015625)"/>
       <path id="DejaVuSans-28" d="M 1984 4856 
Q 1566 4138 1362 3434 
Q 1159 2731 1159 2009 
Q 1159 1288 1364 580 
Q 1569 -128 1984 -844 
L 1484 -844 
Q 1016 -109 783 600 
Q 550 1309 550 2009 
Q 550 2706 781 3412 
Q 1013 4119 1484 4856 
L 1984 4856 
z
" transform="scale(0.015625)"/>
       <path id="DejaVuSans-4e" d="M 628 4666 
L 1478 4666 
L 3547 763 
L 3547 4666 
L 4159 4666 
L 4159 0 
L 3309 0 
L 1241 3903 
L 1241 0 
L 628 0 
L 628 4666 
z
" transform="scale(0.015625)"/>
       <path id="DejaVuSans-29" d="M 513 4856 
L 1013 4856 
Q 1481 4119 1714 3412 
Q 1947 2706 1947 2009 
Q 1947 1309 1714 600 
Q 1481 -109 1013 -844 
L 513 -844 
Q 928 -128 1133 580 
Q 1338 1288 1338 2009 
Q 1338 2731 1133 3434 
Q 928 4138 513 4856 
z
" transform="scale(0.015625)"/>
      </defs>
      <use xlink:href="#DejaVuSans-52"/>
      <use xlink:href="#DejaVuSans-57" x="65.482422"/>
      <use xlink:href="#DejaVuSans-20" x="164.359375"/>
      <use xlink:href="#DejaVuSans-4d" x="196.146484"/>
      <use xlink:href="#DejaVuSans-6f" x="282.425781"/>
      <use xlink:href="#DejaVuSans-74" x="343.607422"/>
      <use xlink:href="#DejaVuSans-6f" x="382.816406"/>
      <use xlink:href="#DejaVuSans-72" x="443.998047"/>
      <use xlink:href="#DejaVuSans-20" x="485.111328"/>
      <use xlink:href="#DejaVuSans-54" x="516.898438"/>
      <use xlink:href="#DejaVuSans-6f" x="560.982422"/>
      <use xlink:href="#DejaVuSans-72" x="622.164062"/>
      <use xlink:href="#DejaVuSans-71" x="661.527344"/>
      <use xlink:href="#DejaVuSans-75" x="725.003906"/>
      <use xlink:href="#DejaVuSans-65" x="788.382812"/>
      <use xlink:href="#DejaVuSans-20" x="849.90625"/>
      <use xlink:href="#DejaVuSans-28" x="881.693359"/>
      <use xlink:href="#DejaVuSans-4e" x="920.707031"/>
      <use xlink:href="#DejaVuSans-6d" x="995.511719"/>
      <use xlink:href="#DejaVuSans-29" x="1092.923828"/>
     </g>
    </g>
   </g>
   <g id="line2d_10">
    <path d="M 124.330142 150.398522 
L 125.392503 151.531093 
L 126.986045 152.731282 
L 129.641949 154.391641 
L 132.829033 156.122804 
L 137.609659 158.437416 
L 144.515008 161.507451 
L 151.420357 164.338407 
L 158.325706 166.90444 
L 175.323488 172.850685 
L 177.979391 173.403227 
L 180.104114 173.646114 
L 182.228836 173.704592 
L 184.353559 173.574608 
L 186.478282 173.254504 
L 188.603005 172.745005 
L 191.258908 171.847081 
L 193.914811 170.671506 
L 196.570715 169.239296 
L 200.82016 166.822989 
L 203.476064 165.64328 
L 206.131967 164.730599 
L 208.78787 164.073791 
L 211.443774 163.657891 
L 214.099677 163.465272 
L 216.755581 163.476777 
L 219.942665 163.726337 
L 224.723291 164.333689 
L 229.503917 165.148622 
L 234.815724 166.28078 
L 239.59635 167.335145 
L 241.721073 167.547654 
L 243.845795 167.568987 
L 245.970518 167.404455 
L 248.626422 166.945441 
L 251.282325 166.213939 
L 253.938228 165.218769 
L 257.125313 163.957779 
L 259.250035 163.342555 
L 261.374758 162.925759 
L 263.499481 162.721228 
L 265.624203 162.743426 
L 267.748926 163.005415 
L 269.873649 163.516272 
L 271.998372 164.278189 
L 275.716636 165.844314 
L 277.310178 166.172832 
L 278.90372 166.24233 
L 280.497263 166.054015 
L 282.090805 165.61507 
L 283.684347 164.938398 
L 285.277889 164.041826 
L 287.402611 162.541877 
L 289.527334 160.745628 
L 292.183238 158.166894 
L 294.839141 155.543042 
L 295.901502 154.896796 
L 296.963864 154.521883 
L 298.026225 154.399015 
L 299.088586 154.510017 
L 300.150948 154.837837 
L 301.213309 155.366599 
L 302.27567 156.08158 
L 303.869213 157.473486 
L 305.462755 159.210869 
L 307.056297 161.253546 
L 309.181019 164.385451 
L 311.305742 167.904384 
L 313.961645 172.733441 
L 317.14873 179.057601 
L 319.804633 184.842132 
L 321.929356 190.010523 
L 323.522898 194.390775 
L 325.11644 199.409262 
L 326.178801 203.231506 
L 326.709982 165.254321 
L 327.241162 165.651926 
L 328.303524 165.915746 
L 330.428247 165.981106 
L 371.329159 165.976347 
L 389.920483 165.975886 
L 389.920483 165.975886 
" clip-path="url(#p50fbad3154)" style="fill: none; stroke-dasharray: 5.55,2.4; stroke-dashoffset: 0; stroke: #2b737e; stroke-width: 1.5"/>
   </g>
   <g id="line2d_11">
    <path d="M 124.330142 165.975672 
L 124.861323 151.01731 
L 125.923684 151.954447 
L 128.048407 153.419856 
L 131.235491 155.277123 
L 135.484936 157.430993 
L 141.327924 160.113528 
L 148.233273 163.059457 
L 154.607441 165.548354 
L 162.575151 168.392051 
L 172.136403 171.843979 
L 174.792307 172.704926 
L 177.44821 173.312161 
L 180.104114 173.645209 
L 182.228836 173.704799 
L 184.353559 173.575943 
L 186.478282 173.256971 
L 188.603005 172.748593 
L 191.258908 171.852028 
L 193.914811 170.677732 
L 196.570715 169.246681 
L 200.82016 166.829257 
L 203.476064 165.648258 
L 206.131967 164.734328 
L 208.78787 164.076335 
L 211.443774 163.659328 
L 214.099677 163.46569 
L 216.755581 163.47627 
L 219.942665 163.725006 
L 224.723291 164.331806 
L 229.503917 165.146202 
L 234.815724 166.277823 
L 239.59635 167.333298 
L 241.721073 167.54696 
L 243.845795 167.569415 
L 245.970518 167.405974 
L 248.626422 166.94828 
L 251.282325 166.218054 
L 253.938228 165.22412 
L 257.125313 163.96201 
L 259.250035 163.345643 
L 261.374758 162.927626 
L 263.499481 162.721789 
L 265.624203 162.742596 
L 267.748926 163.003126 
L 269.873649 163.512486 
L 271.998372 164.27292 
L 275.716636 165.840679 
L 277.310178 166.171242 
L 278.90372 166.242799 
L 280.497263 166.05651 
L 282.090805 165.61951 
L 283.684347 164.944661 
L 285.277889 164.049753 
L 287.402611 162.551739 
L 289.527334 160.757086 
L 292.183238 158.179918 
L 294.839141 155.552452 
L 295.901502 154.902854 
L 296.963864 154.524827 
L 298.026225 154.399067 
L 299.088586 154.507387 
L 300.150948 154.832722 
L 301.213309 155.359181 
L 302.27567 156.072028 
L 303.869213 157.461025 
L 305.462755 159.195827 
L 307.056297 161.236234 
L 309.181019 164.365581 
L 311.305742 167.882452 
L 313.961645 172.709467 
L 317.14873 179.031333 
L 319.804633 184.813085 
L 321.929356 189.977764 
L 323.522898 194.353789 
L 325.11644 199.366304 
L 326.178801 203.183338 
L 326.709982 165.240529 
L 327.241162 165.645636 
L 328.303524 165.914442 
L 330.428247 165.981056 
L 370.797978 165.97637 
L 389.920483 165.975886 
L 389.920483 165.975886 
" clip-path="url(#p50fbad3154)" style="fill: none; stroke: #2b737e; stroke-width: 1.5; stroke-linecap: square"/>
   </g>
   <g id="line2d_12">
    <path d="M 124.330142 21.265312 
L 132.829033 80.621463 
L 137.609659 112.637932 
L 140.796743 132.635769 
L 143.452647 147.960712 
L 145.577369 159.074638 
L 147.702092 168.980811 
L 149.295634 175.529533 
L 150.889176 181.269038 
L 152.482718 186.164202 
L 154.07626 190.19282 
L 155.138622 192.391897 
L 156.200983 194.201398 
L 157.263344 195.623558 
L 158.325706 196.662571 
L 159.388067 197.324371 
L 160.450428 197.616393 
L 161.51279 197.547315 
L 162.575151 197.126799 
L 163.637513 196.365215 
L 164.699874 195.273365 
L 165.762235 193.862203 
L 166.824597 192.142558 
L 168.418139 189.007305 
L 170.011681 185.233286 
L 171.605223 180.847069 
L 173.729945 174.800111 
L 175.854668 169.391589 
L 177.979391 164.649355 
L 179.572933 161.535148 
L 181.166475 158.802483 
L 182.760017 156.455316 
L 184.353559 154.50171 
L 185.947101 152.95543 
L 187.009463 152.16068 
L 188.071824 151.563708 
L 189.134185 151.173687 
L 190.196547 151.001085 
L 191.258908 151.057519 
L 192.321269 151.355566 
L 193.383631 151.908521 
L 194.445992 152.730102 
L 195.508353 153.834127 
L 196.570715 155.234144 
L 198.164257 157.880128 
L 201.351341 163.231281 
L 204.007244 167.223984 
L 206.131967 170.008442 
L 207.725509 171.805997 
L 209.319051 173.318424 
L 210.912593 174.515785 
L 212.506135 175.371169 
L 213.568497 175.739738 
L 214.630858 175.939859 
L 215.693219 175.96631 
L 216.755581 175.814631 
L 217.817942 175.481114 
L 218.880303 174.962768 
L 221.005026 173.796402 
L 223.129749 172.888805 
L 225.254472 172.210188 
L 227.910375 171.632243 
L 230.566278 171.292625 
L 233.753363 171.106624 
L 239.065169 170.887786 
L 240.658711 170.52354 
L 242.783434 169.794239 
L 245.439338 168.617849 
L 253.938228 164.620351 
L 255.53177 164.161073 
L 256.594132 164.097358 
L 257.656493 164.230939 
L 258.718855 164.555929 
L 259.781216 165.066464 
L 260.843577 165.756573 
L 262.437119 167.114715 
L 264.030661 168.839926 
L 265.624203 170.906141 
L 267.217745 173.283004 
L 269.342468 176.872896 
L 271.998372 181.889602 
L 275.185456 188.105079 
L 276.778998 190.697388 
L 278.37254 192.891047 
L 279.966082 194.723281 
L 281.559624 196.242146 
L 283.153166 197.505016 
L 285.277889 198.902168 
L 293.245599 203.737465 
L 294.30796 204.471071 
L 295.370322 204.884147 
L 296.432683 204.919519 
L 297.495044 204.547066 
L 298.557406 203.745809 
L 299.619767 202.504527 
L 300.682128 200.822308 
L 301.74449 198.70906 
L 302.806851 196.185928 
L 304.400393 191.707105 
L 305.993935 186.539196 
L 308.649839 176.978324 
L 312.368103 163.5902 
L 313.961645 158.5286 
L 315.555187 154.115442 
L 317.14873 150.392771 
L 318.742272 147.271258 
L 322.460536 140.567397 
L 323.522898 138.031557 
L 324.585259 134.733245 
L 325.64762 130.289931 
L 326.178801 127.493337 
L 326.709982 166.167696 
L 334.677692 166.017943 
L 352.737835 165.972198 
L 389.920483 165.975421 
L 389.920483 165.975421 
" clip-path="url(#p50fbad3154)" style="fill: none; stroke-dasharray: 5.55,2.4; stroke-dashoffset: 0; stroke: #5ea04b; stroke-width: 1.5"/>
   </g>
   <g id="line2d_13">
    <path d="M 124.330142 165.975672 
L 124.861323 24.934349 
L 132.829033 80.534798 
L 137.609659 112.555869 
L 140.796743 132.559518 
L 143.452647 147.891278 
L 145.577369 159.011898 
L 147.702092 168.92572 
L 149.295634 175.48069 
L 150.889176 181.226772 
L 152.482718 186.128742 
L 154.07626 190.164292 
L 155.138622 192.368011 
L 156.200983 194.182141 
L 157.263344 195.608891 
L 158.325706 196.652434 
L 159.388067 197.318684 
L 160.450428 197.615058 
L 161.51279 197.550224 
L 162.575151 197.133832 
L 163.637513 196.376246 
L 164.699874 195.288263 
L 165.762235 193.880838 
L 166.824597 192.164803 
L 168.418139 189.034742 
L 170.011681 185.265679 
L 171.605223 180.884234 
L 173.729945 174.834263 
L 175.854668 169.421825 
L 177.979391 164.675591 
L 179.572933 161.558365 
L 181.166475 158.82266 
L 182.760017 156.472409 
L 184.353559 154.515633 
L 185.947101 152.96605 
L 187.009463 152.168995 
L 188.071824 151.569617 
L 189.134185 151.177074 
L 190.196547 151.001817 
L 191.258908 151.055452 
L 192.321269 151.350546 
L 193.383631 151.900385 
L 194.445992 152.718688 
L 195.508353 153.81927 
L 196.570715 155.215685 
L 198.164257 157.857939 
L 201.351341 163.211125 
L 204.007244 167.206222 
L 206.131967 169.99312 
L 207.725509 171.792811 
L 209.319051 173.307623 
L 210.912593 174.507595 
L 212.506135 175.36579 
L 213.568497 175.73633 
L 214.630858 175.938489 
L 215.693219 175.967035 
L 216.755581 175.8175 
L 217.817942 175.486166 
L 218.880303 174.970036 
L 221.005026 173.802558 
L 223.129749 172.893496 
L 225.254472 172.213617 
L 227.910375 171.634378 
L 230.566278 171.293782 
L 233.753363 171.107021 
L 239.065169 170.889925 
L 240.658711 170.527117 
L 242.783434 169.799245 
L 245.439338 168.623911 
L 253.938228 164.625076 
L 255.53177 164.163044 
L 256.594132 164.096944 
L 257.656493 164.228211 
L 258.718855 164.550957 
L 259.781216 165.059318 
L 260.843577 165.747325 
L 262.437119 167.102459 
L 264.030661 168.824855 
L 265.624203 170.888477 
L 267.217745 173.263007 
L 269.342468 176.850273 
L 271.998372 181.864654 
L 275.185456 188.082833 
L 276.778998 190.678426 
L 278.37254 192.875117 
L 279.966082 194.710043 
L 281.559624 196.23118 
L 283.153166 197.495836 
L 285.277889 198.894545 
L 293.245599 203.728057 
L 294.30796 204.464027 
L 295.370322 204.881382 
L 296.432683 204.921446 
L 297.495044 204.55399 
L 298.557406 203.757924 
L 299.619767 202.521907 
L 300.682128 200.8449 
L 301.74449 198.736681 
L 302.806851 196.21826 
L 304.400393 191.745608 
L 305.993935 186.582409 
L 308.649839 177.025207 
L 312.368103 163.632633 
L 313.961645 158.566351 
L 315.555187 154.147725 
L 317.14873 150.419734 
L 318.742272 147.294199 
L 322.460536 140.594289 
L 323.522898 138.065556 
L 324.585259 134.778399 
L 325.64762 130.351323 
L 326.178801 127.565147 
L 326.709982 166.168118 
L 334.677692 166.018058 
L 352.737835 165.972199 
L 389.920483 165.97542 
L 389.920483 165.97542 
" clip-path="url(#p50fbad3154)" style="fill: none; stroke: #5ea04b; stroke-width: 1.5; stroke-linecap: square"/>
   </g>
   <g id="line2d_14">
    <path d="M 124.330142 230.571562 
L 127.517226 204.770278 
L 130.17313 185.200453 
L 132.297852 171.126124 
L 134.422575 158.67169 
L 136.016117 150.494041 
L 137.609659 143.374899 
L 139.203201 137.353241 
L 140.796743 132.451237 
L 141.859105 129.808215 
L 142.921466 127.662087 
L 143.983827 126.006306 
L 145.046189 124.830996 
L 146.10855 124.12316 
L 147.170911 123.866925 
L 148.233273 124.043843 
L 149.295634 124.63322 
L 150.357995 125.612474 
L 151.420357 126.957507 
L 152.482718 128.643078 
L 154.07626 131.75294 
L 155.669802 135.481319 
L 157.263344 139.739677 
L 159.388067 146.09456 
L 162.04397 154.864761 
L 165.231055 166.191788 
L 170.542861 186.0457 
L 172.667584 193.932701 
L 173.729945 197.20531 
L 174.792307 199.949657 
L 175.854668 202.20702 
L 176.91703 204.016597 
L 177.979391 205.415198 
L 179.041752 206.437011 
L 180.104114 207.113434 
L 181.166475 207.472959 
L 182.228836 207.541125 
L 183.291198 207.340502 
L 184.353559 206.890724 
L 185.41592 206.20856 
L 186.478282 205.308012 
L 188.071824 203.571872 
L 189.665366 201.397322 
L 191.258908 198.801077 
L 192.85245 195.790145 
L 194.445992 192.363629 
L 196.039534 188.514772 
L 200.82016 176.241936 
L 202.413702 173.000252 
L 204.007244 170.222349 
L 205.600786 167.887243 
L 207.194328 165.978442 
L 208.78787 164.482431 
L 210.381413 163.387401 
L 211.443774 162.874647 
L 212.506135 162.531854 
L 213.568497 162.355601 
L 214.630858 162.34229 
L 215.693219 162.488103 
L 217.286761 162.99621 
L 218.880303 163.83833 
L 221.536207 165.432855 
L 223.66093 166.472291 
L 225.785652 167.285936 
L 227.910375 167.863298 
L 230.035098 168.196362 
L 232.15982 168.279766 
L 234.284543 168.110857 
L 236.409266 167.689612 
L 238.002808 167.196088 
L 239.59635 166.47738 
L 241.189892 165.547648 
L 243.314615 164.026897 
L 245.439338 162.237329 
L 248.095241 159.698368 
L 251.282325 156.324623 
L 255.53177 151.784997 
L 256.594132 151.308487 
L 257.125313 151.246534 
L 257.656493 151.299755 
L 258.718855 151.744494 
L 259.781216 152.627839 
L 260.843577 153.934047 
L 261.905939 155.646229 
L 262.9683 157.746151 
L 264.561842 161.579463 
L 266.155384 166.167305 
L 267.748926 171.429047 
L 269.873649 179.342326 
L 272.529552 190.373866 
L 274.654275 199.281713 
L 275.716636 202.545608 
L 276.778998 204.895548 
L 277.310178 205.742678 
L 277.841359 206.379079 
L 278.37254 206.810523 
L 278.90372 207.042679 
L 279.434901 207.081107 
L 279.966082 206.931254 
L 280.497263 206.598454 
L 281.028443 206.087935 
L 282.090805 204.554175 
L 283.153166 202.370135 
L 284.215527 199.575344 
L 285.277889 196.209591 
L 286.871431 190.18105 
L 288.464973 183.112004 
L 290.589695 172.373334 
L 293.245599 157.576363 
L 294.30796 151.740471 
L 295.370322 146.921322 
L 296.432683 143.157128 
L 297.495044 140.41217 
L 298.557406 138.630654 
L 299.088586 138.078049 
L 299.619767 137.735977 
L 300.150948 137.591734 
L 300.682128 137.63148 
L 301.213309 137.840329 
L 301.74449 138.202449 
L 302.806851 139.319155 
L 303.869213 140.84072 
L 305.993935 144.506351 
L 307.587477 147.221051 
L 308.649839 148.756782 
L 309.7122 149.933747 
L 310.774561 150.652522 
L 311.305742 150.814701 
L 311.836923 150.834662 
L 312.368103 150.706156 
L 312.899284 150.424406 
L 313.430465 149.986096 
L 314.492826 148.63377 
L 315.555187 146.651095 
L 316.617549 144.061333 
L 317.67991 140.90748 
L 319.273452 135.257909 
L 321.398175 126.472886 
L 324.585259 112.759909 
L 325.64762 108.873582 
L 326.178801 107.240221 
L 326.709982 166.262267 
L 332.552969 166.055917 
L 342.645402 165.967393 
L 389.920483 165.975086 
L 389.920483 165.975086 
" clip-path="url(#p50fbad3154)" style="fill: none; stroke-dasharray: 5.55,2.4; stroke-dashoffset: 0; stroke: #bdab62; stroke-width: 1.5"/>
   </g>
   <g id="line2d_15">
    <path d="M 124.330142 165.975672 
L 124.861323 226.234146 
L 128.048407 200.79467 
L 130.70431 181.626356 
L 132.829033 167.930339 
L 134.953756 155.897564 
L 136.547298 148.0591 
L 138.14084 141.293587 
L 139.734382 135.634674 
L 140.796743 132.485711 
L 141.859105 129.836747 
L 142.921466 127.684736 
L 143.983827 126.023169 
L 145.046189 124.84221 
L 146.10855 124.128897 
L 147.170911 123.867389 
L 148.233273 124.039268 
L 149.295634 124.623864 
L 150.357995 125.598616 
L 151.420357 126.93944 
L 152.482718 128.621109 
L 154.07626 131.725705 
L 155.669802 135.449527 
L 157.263344 139.704021 
L 159.388067 146.054775 
L 162.04397 154.82129 
L 165.231055 166.145645 
L 170.542861 185.997627 
L 172.667584 193.890388 
L 173.729945 197.169541 
L 174.792307 199.919931 
L 175.854668 202.182856 
L 176.91703 203.997542 
L 177.979391 205.400829 
L 179.041752 206.426938 
L 180.104114 207.107299 
L 181.166475 207.470441 
L 182.228836 207.541937 
L 183.291198 207.344392 
L 184.353559 206.897476 
L 185.41592 206.217991 
L 186.478282 205.31997 
L 188.071824 203.587406 
L 189.665366 201.416256 
L 191.258908 198.823318 
L 192.85245 195.815672 
L 194.445992 192.392474 
L 196.039534 188.547006 
L 200.82016 176.269587 
L 202.413702 173.024122 
L 204.007244 170.242628 
L 205.600786 167.904078 
L 207.194328 165.99195 
L 208.78787 164.492711 
L 210.381413 163.394542 
L 211.443774 162.879745 
L 212.506135 162.534948 
L 213.568497 162.356733 
L 214.630858 162.341505 
L 215.693219 162.485447 
L 217.286761 162.990842 
L 218.880303 163.830372 
L 221.536207 165.426016 
L 223.66093 166.46676 
L 225.785652 167.281782 
L 227.910375 167.860577 
L 230.035098 168.195114 
L 232.15982 168.280015 
L 234.284543 168.11261 
L 236.409266 167.692863 
L 238.002808 167.200869 
L 239.59635 166.483953 
L 241.189892 165.555784 
L 243.314615 164.036798 
L 245.439338 162.248675 
L 248.095241 159.711127 
L 251.282325 156.338534 
L 255.53177 151.793544 
L 256.594132 151.31138 
L 257.125313 151.246663 
L 257.656493 151.297163 
L 258.718855 151.73659 
L 259.781216 152.614804 
L 260.843577 153.916074 
L 261.905939 155.623528 
L 262.9683 157.718946 
L 264.561842 161.545967 
L 266.155384 166.128129 
L 267.748926 171.384858 
L 269.873649 179.292557 
L 272.529552 190.318925 
L 274.654275 199.237159 
L 275.716636 202.512222 
L 276.778998 204.872762 
L 277.310178 205.72498 
L 277.841359 206.366332 
L 278.37254 206.802589 
L 278.90372 207.039425 
L 279.434901 207.082401 
L 279.966082 206.936969 
L 280.497263 206.608464 
L 281.028443 206.102116 
L 282.090805 204.576338 
L 283.153166 202.399806 
L 284.215527 199.612053 
L 285.277889 196.252859 
L 286.871431 190.233204 
L 288.464973 183.171768 
L 290.589695 172.440865 
L 293.245599 157.648696 
L 294.30796 151.804285 
L 295.370322 146.972436 
L 296.432683 143.195855 
L 297.495044 140.43905 
L 298.557406 138.646474 
L 299.088586 138.088712 
L 299.619767 137.74177 
L 300.150948 137.592973 
L 300.682128 137.628508 
L 301.213309 137.833511 
L 301.74449 138.192172 
L 302.806851 139.303192 
L 303.869213 140.820796 
L 305.993935 144.483831 
L 307.587477 147.201067 
L 308.649839 148.740393 
L 309.7122 149.922253 
L 310.774561 150.646988 
L 311.305742 150.812465 
L 311.836923 150.83589 
L 312.368103 150.710981 
L 312.899284 150.432923 
L 313.430465 149.998368 
L 314.492826 148.653602 
L 315.555187 146.678335 
L 316.617549 144.095585 
L 317.67991 140.948122 
L 319.273452 135.306508 
L 321.398175 126.527893 
L 324.585259 112.809943 
L 325.64762 108.915422 
L 326.178801 107.27606 
L 326.709982 166.262972 
L 332.552969 166.056174 
L 342.645402 165.967421 
L 389.920483 165.975085 
L 389.920483 165.975085 
" clip-path="url(#p50fbad3154)" style="fill: none; stroke: #bdab62; stroke-width: 1.5; stroke-linecap: square"/>
   </g>
   <g id="patch_3">
    <path d="M 111.050625 241.036875 
L 111.050625 10.8 
" style="fill: none; stroke: #000000; stroke-width: 0.8; stroke-linejoin: miter; stroke-linecap: square"/>
   </g>
   <g id="patch_4">
    <path d="M 403.2 241.036875 
L 403.2 10.8 
" style="fill: none; stroke: #000000; stroke-width: 0.8; stroke-linejoin: miter; stroke-linecap: square"/>
   </g>
   <g id="patch_5">
    <path d="M 111.050625 241.036875 
L 403.2 241.036875 
" style="fill: none; stroke: #000000; stroke-width: 0.8; stroke-linejoin: miter; stroke-linecap: square"/>
   </g>
   <g id="patch_6">
    <path d="M 111.050625 10.8 
L 403.2 10.8 
" style="fill: none; stroke: #000000; stroke-width: 0.8; stroke-linejoin: miter; stroke-linecap: square"/>
   </g>
   <g id="legend_1">
    <g id="patch_7">
     <path d="M 351.54 236.536875 
L 396.9 236.536875 
Q 398.7 236.536875 398.7 234.736875 
L 398.7 149.781094 
Q 398.7 147.981094 396.9 147.981094 
L 351.54 147.981094 
Q 349.74 147.981094 349.74 149.781094 
L 349.74 234.736875 
Q 349.74 236.536875 351.54 236.536875 
z
" style="fill: #ffffff; opacity: 0.8; stroke: #cccccc; stroke-linejoin: miter"/>
    </g>
    <g id="line2d_16">
     <path d="M 353.34 156.711094 
L 362.34 156.711094 
L 371.34 156.711094 
" style="fill: none; stroke-dasharray: 5.55,2.4; stroke-dashoffset: 0; stroke: #2b737e; stroke-width: 1.5"/>
    </g>
    <g id="text_12">
     <!-- $\hat u_{s,0}$ -->
     <g transform="translate(378.54 159.861094) scale(0.09 -0.09)">
      <defs>
       <path id="DejaVuSans-302" d="M -1831 5119 
L -1369 5119 
L -603 3944 
L -1038 3944 
L -1600 4709 
L -2163 3944 
L -2597 3944 
L -1831 5119 
z
M -1600 3584 
L -1600 3584 
z
" transform="scale(0.015625)"/>
       <path id="DejaVuSans-Oblique-75" d="M 428 1388 
L 838 3500 
L 1416 3500 
L 1006 1409 
Q 975 1256 961 1147 
Q 947 1038 947 966 
Q 947 700 1109 554 
Q 1272 409 1569 409 
Q 2031 409 2368 721 
Q 2706 1034 2809 1563 
L 3194 3500 
L 3769 3500 
L 3091 0 
L 2516 0 
L 2631 550 
Q 2388 244 2052 76 
Q 1716 -91 1338 -91 
Q 878 -91 622 161 
Q 366 413 366 863 
Q 366 956 381 1097 
Q 397 1238 428 1388 
z
" transform="scale(0.015625)"/>
       <path id="DejaVuSans-Oblique-73" d="M 3200 3397 
L 3091 2853 
Q 2863 2978 2609 3040 
Q 2356 3103 2088 3103 
Q 1634 3103 1373 2948 
Q 1113 2794 1113 2528 
Q 1113 2219 1719 2053 
Q 1766 2041 1788 2034 
L 1972 1978 
Q 2547 1819 2739 1644 
Q 2931 1469 2931 1166 
Q 2931 609 2489 259 
Q 2047 -91 1331 -91 
Q 1053 -91 747 -37 
Q 441 16 72 128 
L 184 722 
Q 500 559 806 475 
Q 1113 391 1394 391 
Q 1816 391 2080 572 
Q 2344 753 2344 1031 
Q 2344 1331 1650 1516 
L 1591 1531 
L 1394 1581 
Q 956 1697 753 1886 
Q 550 2075 550 2369 
Q 550 2928 970 3256 
Q 1391 3584 2113 3584 
Q 2397 3584 2667 3537 
Q 2938 3491 3200 3397 
z
" transform="scale(0.015625)"/>
       <path id="DejaVuSans-2c" d="M 750 794 
L 1409 794 
L 1409 256 
L 897 -744 
L 494 -744 
L 750 256 
L 750 794 
z
" transform="scale(0.015625)"/>
      </defs>
      <use xlink:href="#DejaVuSans-302" transform="translate(57.871094 12.015625)"/>
      <use xlink:href="#DejaVuSans-Oblique-75" transform="translate(0 0.828125)"/>
      <use xlink:href="#DejaVuSans-Oblique-73" transform="translate(64.335938 -15.578125) scale(0.7)"/>
      <use xlink:href="#DejaVuSans-2c" transform="translate(100.805664 -15.578125) scale(0.7)"/>
      <use xlink:href="#DejaVuSans-30" transform="translate(136.694336 -15.578125) scale(0.7)"/>
     </g>
    </g>
    <g id="line2d_17">
     <path d="M 353.34 170.299688 
L 362.34 170.299688 
L 371.34 170.299688 
" style="fill: none; stroke: #2b737e; stroke-width: 1.5; stroke-linecap: square"/>
    </g>
    <g id="text_13">
     <!-- $u_{s,0}$ -->
     <g transform="translate(378.54 173.449688) scale(0.09 -0.09)">
      <use xlink:href="#DejaVuSans-Oblique-75" transform="translate(0 0.3125)"/>
      <use xlink:href="#DejaVuSans-Oblique-73" transform="translate(63.378906 -16.09375) scale(0.7)"/>
      <use xlink:href="#DejaVuSans-2c" transform="translate(99.848633 -16.09375) scale(0.7)"/>
      <use xlink:href="#DejaVuSans-30" transform="translate(135.737305 -16.09375) scale(0.7)"/>
     </g>
    </g>
    <g id="line2d_18">
     <path d="M 353.34 185.329688 
L 362.34 185.329688 
L 371.34 185.329688 
" style="fill: none; stroke-dasharray: 5.55,2.4; stroke-dashoffset: 0; stroke: #5ea04b; stroke-width: 1.5"/>
    </g>
    <g id="text_14">
     <!-- $\hat u_{s,1}$ -->
     <g transform="translate(378.54 188.479688) scale(0.09 -0.09)">
      <use xlink:href="#DejaVuSans-302" transform="translate(57.871094 12.015625)"/>
      <use xlink:href="#DejaVuSans-Oblique-75" transform="translate(0 0.828125)"/>
      <use xlink:href="#DejaVuSans-Oblique-73" transform="translate(64.335938 -15.578125) scale(0.7)"/>
      <use xlink:href="#DejaVuSans-2c" transform="translate(100.805664 -15.578125) scale(0.7)"/>
      <use xlink:href="#DejaVuSans-31" transform="translate(136.694336 -15.578125) scale(0.7)"/>
     </g>
    </g>
    <g id="line2d_19">
     <path d="M 353.34 198.918281 
L 362.34 198.918281 
L 371.34 198.918281 
" style="fill: none; stroke: #5ea04b; stroke-width: 1.5; stroke-linecap: square"/>
    </g>
    <g id="text_15">
     <!-- $u_{s,1}$ -->
     <g transform="translate(378.54 202.068281) scale(0.09 -0.09)">
      <use xlink:href="#DejaVuSans-Oblique-75" transform="translate(0 0.3125)"/>
      <use xlink:href="#DejaVuSans-Oblique-73" transform="translate(63.378906 -16.09375) scale(0.7)"/>
      <use xlink:href="#DejaVuSans-2c" transform="translate(99.848633 -16.09375) scale(0.7)"/>
      <use xlink:href="#DejaVuSans-31" transform="translate(135.737305 -16.09375) scale(0.7)"/>
     </g>
    </g>
    <g id="line2d_20">
     <path d="M 353.34 213.948281 
L 362.34 213.948281 
L 371.34 213.948281 
" style="fill: none; stroke-dasharray: 5.55,2.4; stroke-dashoffset: 0; stroke: #bdab62; stroke-width: 1.5"/>
    </g>
    <g id="text_16">
     <!-- $\hat u_{s,2}$ -->
     <g transform="translate(378.54 217.098281) scale(0.09 -0.09)">
      <use xlink:href="#DejaVuSans-302" transform="translate(57.871094 12.015625)"/>
      <use xlink:href="#DejaVuSans-Oblique-75" transform="translate(0 0.828125)"/>
      <use xlink:href="#DejaVuSans-Oblique-73" transform="translate(64.335938 -15.578125) scale(0.7)"/>
      <use xlink:href="#DejaVuSans-2c" transform="translate(100.805664 -15.578125) scale(0.7)"/>
      <use xlink:href="#DejaVuSans-32" transform="translate(136.694336 -15.578125) scale(0.7)"/>
     </g>
    </g>
    <g id="line2d_21">
     <path d="M 353.34 227.536875 
L 362.34 227.536875 
L 371.34 227.536875 
" style="fill: none; stroke: #bdab62; stroke-width: 1.5; stroke-linecap: square"/>
    </g>
    <g id="text_17">
     <!-- $u_{s,2}$ -->
     <g transform="translate(378.54 230.686875) scale(0.09 -0.09)">
      <use xlink:href="#DejaVuSans-Oblique-75" transform="translate(0 0.3125)"/>
      <use xlink:href="#DejaVuSans-Oblique-73" transform="translate(63.378906 -16.09375) scale(0.7)"/>
      <use xlink:href="#DejaVuSans-2c" transform="translate(99.848633 -16.09375) scale(0.7)"/>
      <use xlink:href="#DejaVuSans-32" transform="translate(135.737305 -16.09375) scale(0.7)"/>
     </g>
    </g>
   </g>
  </g>
 </g>
 <defs>
  <clipPath id="p50fbad3154">
   <rect x="111.050625" y="10.8" width="292.149375" height="230.236875"/>
  </clipPath>
 </defs>
</svg>
