<?xml version="1.0" encoding="utf-8" standalone="no"?>
<!DOCTYPE svg PUBLIC "-//W3C//DTD SVG 1.1//EN"
  "http://www.w3.org/Graphics/SVG/1.1/DTD/svg11.dtd">
<svg xmlns:xlink="http://www.w3.org/1999/xlink" width="414pt" height="288pt" viewBox="0 0 414 288" xmlns="http://www.w3.org/2000/svg" version="1.1">
 <metadata>
  <rdf:RDF xmlns:dc="http://purl.org/dc/elements/1.1/" xmlns:cc="http://creativecommons.org/ns#" xmlns:rdf="http://www.w3.org/1999/02/22-rdf-syntax-ns#">
   <cc:Work>
    <dc:type rdf:resource="http://purl.org/dc/dcmitype/StillImage"/>
    <dc:date>2023-09-07T00:34:35.881761</dc:date>
    <dc:format>image/svg+xml</dc:format>
    <dc:creator>
     <cc:Agent>
      <dc:title>Matplotlib v3.7.2, https://matplotlib.org/</dc:title>
     </cc:Agent>
    </dc:creator>
   </cc:Work>
  </rdf:RDF>
 </metadata>
 <defs>
  <style type="text/css">*{stroke-linejoin: round; stroke-linecap: butt}</style>
 </defs>
 <g id="figure_1">
  <g id="patch_1">
   <path d="M 0 288 
L 414 288 
L 414 0 
L 0 0 
L 0 288 
z
" style="fill: none"/>
  </g>
  <g id="axes_1">
   <g id="patch_2">
    <path d="M 65.245625 241.036875 
L 403.2 241.036875 
L 403.2 10.8 
L 65.245625 10.8 
L 65.245625 241.036875 
z
" style="fill: none"/>
   </g>
   <g id="matplotlib.axis_1">
    <g id="xtick_1">
     <g id="line2d_1">
      <defs>
       <path id="mcbf73847c8" d="M 0 0 
L 0 3.5 
" style="stroke: #000000; stroke-width: 0.8"/>
      </defs>
      <g>
       <use xlink:href="#mcbf73847c8" x="80.607188" y="241.036875" style="stroke: #000000; stroke-width: 0.8"/>
      </g>
     </g>
     <g id="text_1">
      <!-- 0 -->
      <g transform="translate(75.517188 260.194375) scale(0.16 -0.16)">
       <defs>
        <path id="DejaVuSans-30" d="M 2034 4250 
Q 1547 4250 1301 3770 
Q 1056 3291 1056 2328 
Q 1056 1369 1301 889 
Q 1547 409 2034 409 
Q 2525 409 2770 889 
Q 3016 1369 3016 2328 
Q 3016 3291 2770 3770 
Q 2525 4250 2034 4250 
z
M 2034 4750 
Q 2819 4750 3233 4129 
Q 3647 3509 3647 2328 
Q 3647 1150 3233 529 
Q 2819 -91 2034 -91 
Q 1250 -91 836 529 
Q 422 1150 422 2328 
Q 422 3509 836 4129 
Q 1250 4750 2034 4750 
z
" transform="scale(0.015625)"/>
       </defs>
       <use xlink:href="#DejaVuSans-30"/>
      </g>
     </g>
    </g>
    <g id="xtick_2">
     <g id="line2d_2">
      <g>
       <use xlink:href="#mcbf73847c8" x="168.387545" y="241.036875" style="stroke: #000000; stroke-width: 0.8"/>
      </g>
     </g>
     <g id="text_2">
      <!-- 1 -->
      <g transform="translate(163.297545 260.194375) scale(0.16 -0.16)">
       <defs>
        <path id="DejaVuSans-31" d="M 794 531 
L 1825 531 
L 1825 4091 
L 703 3866 
L 703 4441 
L 1819 4666 
L 2450 4666 
L 2450 531 
L 3481 531 
L 3481 0 
L 794 0 
L 794 531 
z
" transform="scale(0.015625)"/>
       </defs>
       <use xlink:href="#DejaVuSans-31"/>
      </g>
     </g>
    </g>
    <g id="xtick_3">
     <g id="line2d_3">
      <g>
       <use xlink:href="#mcbf73847c8" x="256.167902" y="241.036875" style="stroke: #000000; stroke-width: 0.8"/>
      </g>
     </g>
     <g id="text_3">
      <!-- 2 -->
      <g transform="translate(251.077902 260.194375) scale(0.16 -0.16)">
       <defs>
        <path id="DejaVuSans-32" d="M 1228 531 
L 3431 531 
L 3431 0 
L 469 0 
L 469 531 
Q 828 903 1448 1529 
Q 2069 2156 2228 2338 
Q 2531 2678 2651 2914 
Q 2772 3150 2772 3378 
Q 2772 3750 2511 3984 
Q 2250 4219 1831 4219 
Q 1534 4219 1204 4116 
Q 875 4013 500 3803 
L 500 4441 
Q 881 4594 1212 4672 
Q 1544 4750 1819 4750 
Q 2544 4750 2975 4387 
Q 3406 4025 3406 3419 
Q 3406 3131 3298 2873 
Q 3191 2616 2906 2266 
Q 2828 2175 2409 1742 
Q 1991 1309 1228 531 
z
" transform="scale(0.015625)"/>
       </defs>
       <use xlink:href="#DejaVuSans-32"/>
      </g>
     </g>
    </g>
    <g id="xtick_4">
     <g id="line2d_4">
      <g>
       <use xlink:href="#mcbf73847c8" x="343.948259" y="241.036875" style="stroke: #000000; stroke-width: 0.8"/>
      </g>
     </g>
     <g id="text_4">
      <!-- 3 -->
      <g transform="translate(338.858259 260.194375) scale(0.16 -0.16)">
       <defs>
        <path id="DejaVuSans-33" d="M 2597 2516 
Q 3050 2419 3304 2112 
Q 3559 1806 3559 1356 
Q 3559 666 3084 287 
Q 2609 -91 1734 -91 
Q 1441 -91 1130 -33 
Q 819 25 488 141 
L 488 750 
Q 750 597 1062 519 
Q 1375 441 1716 441 
Q 2309 441 2620 675 
Q 2931 909 2931 1356 
Q 2931 1769 2642 2001 
Q 2353 2234 1838 2234 
L 1294 2234 
L 1294 2753 
L 1863 2753 
Q 2328 2753 2575 2939 
Q 2822 3125 2822 3475 
Q 2822 3834 2567 4026 
Q 2313 4219 1838 4219 
Q 1578 4219 1281 4162 
Q 984 4106 628 3988 
L 628 4550 
Q 988 4650 1302 4700 
Q 1616 4750 1894 4750 
Q 2613 4750 3031 4423 
Q 3450 4097 3450 3541 
Q 3450 3153 3228 2886 
Q 3006 2619 2597 2516 
z
" transform="scale(0.015625)"/>
       </defs>
       <use xlink:href="#DejaVuSans-33"/>
      </g>
     </g>
    </g>
    <g id="text_5">
     <!-- Time [min] -->
     <g transform="translate(207.070469 275.120313) scale(0.1 -0.1)">
      <defs>
       <path id="DejaVuSans-54" d="M -19 4666 
L 3928 4666 
L 3928 4134 
L 2272 4134 
L 2272 0 
L 1638 0 
L 1638 4134 
L -19 4134 
L -19 4666 
z
" transform="scale(0.015625)"/>
       <path id="DejaVuSans-69" d="M 603 3500 
L 1178 3500 
L 1178 0 
L 603 0 
L 603 3500 
z
M 603 4863 
L 1178 4863 
L 1178 4134 
L 603 4134 
L 603 4863 
z
" transform="scale(0.015625)"/>
       <path id="DejaVuSans-6d" d="M 3328 2828 
Q 3544 3216 3844 3400 
Q 4144 3584 4550 3584 
Q 5097 3584 5394 3201 
Q 5691 2819 5691 2113 
L 5691 0 
L 5113 0 
L 5113 2094 
Q 5113 2597 4934 2840 
Q 4756 3084 4391 3084 
Q 3944 3084 3684 2787 
Q 3425 2491 3425 1978 
L 3425 0 
L 2847 0 
L 2847 2094 
Q 2847 2600 2669 2842 
Q 2491 3084 2119 3084 
Q 1678 3084 1418 2786 
Q 1159 2488 1159 1978 
L 1159 0 
L 581 0 
L 581 3500 
L 1159 3500 
L 1159 2956 
Q 1356 3278 1631 3431 
Q 1906 3584 2284 3584 
Q 2666 3584 2933 3390 
Q 3200 3197 3328 2828 
z
" transform="scale(0.015625)"/>
       <path id="DejaVuSans-65" d="M 3597 1894 
L 3597 1613 
L 953 1613 
Q 991 1019 1311 708 
Q 1631 397 2203 397 
Q 2534 397 2845 478 
Q 3156 559 3463 722 
L 3463 178 
Q 3153 47 2828 -22 
Q 2503 -91 2169 -91 
Q 1331 -91 842 396 
Q 353 884 353 1716 
Q 353 2575 817 3079 
Q 1281 3584 2069 3584 
Q 2775 3584 3186 3129 
Q 3597 2675 3597 1894 
z
M 3022 2063 
Q 3016 2534 2758 2815 
Q 2500 3097 2075 3097 
Q 1594 3097 1305 2825 
Q 1016 2553 972 2059 
L 3022 2063 
z
" transform="scale(0.015625)"/>
       <path id="DejaVuSans-20" transform="scale(0.015625)"/>
       <path id="DejaVuSans-5b" d="M 550 4863 
L 1875 4863 
L 1875 4416 
L 1125 4416 
L 1125 -397 
L 1875 -397 
L 1875 -844 
L 550 -844 
L 550 4863 
z
" transform="scale(0.015625)"/>
       <path id="DejaVuSans-6e" d="M 3513 2113 
L 3513 0 
L 2938 0 
L 2938 2094 
Q 2938 2591 2744 2837 
Q 2550 3084 2163 3084 
Q 1697 3084 1428 2787 
Q 1159 2491 1159 1978 
L 1159 0 
L 581 0 
L 581 3500 
L 1159 3500 
L 1159 2956 
Q 1366 3272 1645 3428 
Q 1925 3584 2291 3584 
Q 2894 3584 3203 3211 
Q 3513 2838 3513 2113 
z
" transform="scale(0.015625)"/>
       <path id="DejaVuSans-5d" d="M 1947 4863 
L 1947 -844 
L 622 -844 
L 622 -397 
L 1369 -397 
L 1369 4416 
L 622 4416 
L 622 4863 
L 1947 4863 
z
" transform="scale(0.015625)"/>
      </defs>
      <use xlink:href="#DejaVuSans-54"/>
      <use xlink:href="#DejaVuSans-69" x="57.958984"/>
      <use xlink:href="#DejaVuSans-6d" x="85.742188"/>
      <use xlink:href="#DejaVuSans-65" x="183.154297"/>
      <use xlink:href="#DejaVuSans-20" x="244.677734"/>
      <use xlink:href="#DejaVuSans-5b" x="276.464844"/>
      <use xlink:href="#DejaVuSans-6d" x="315.478516"/>
      <use xlink:href="#DejaVuSans-69" x="412.890625"/>
      <use xlink:href="#DejaVuSans-6e" x="440.673828"/>
      <use xlink:href="#DejaVuSans-5d" x="504.052734"/>
     </g>
    </g>
   </g>
   <g id="matplotlib.axis_2">
    <g id="ytick_1">
     <g id="line2d_5">
      <defs>
       <path id="m74caf429b3" d="M 0 0 
L -3.5 0 
" style="stroke: #000000; stroke-width: 0.8"/>
      </defs>
      <g>
       <use xlink:href="#m74caf429b3" x="65.245625" y="197.994571" style="stroke: #000000; stroke-width: 0.8"/>
      </g>
     </g>
     <g id="text_6">
      <!-- −40 -->
      <g transform="translate(24.478125 204.073321) scale(0.16 -0.16)">
       <defs>
        <path id="DejaVuSans-2212" d="M 678 2272 
L 4684 2272 
L 4684 1741 
L 678 1741 
L 678 2272 
z
" transform="scale(0.015625)"/>
        <path id="DejaVuSans-34" d="M 2419 4116 
L 825 1625 
L 2419 1625 
L 2419 4116 
z
M 2253 4666 
L 3047 4666 
L 3047 1625 
L 3713 1625 
L 3713 1100 
L 3047 1100 
L 3047 0 
L 2419 0 
L 2419 1100 
L 313 1100 
L 313 1709 
L 2253 4666 
z
" transform="scale(0.015625)"/>
       </defs>
       <use xlink:href="#DejaVuSans-2212"/>
       <use xlink:href="#DejaVuSans-34" x="83.789062"/>
       <use xlink:href="#DejaVuSans-30" x="147.412109"/>
      </g>
     </g>
    </g>
    <g id="ytick_2">
     <g id="line2d_6">
      <g>
       <use xlink:href="#m74caf429b3" x="65.245625" y="140.816447" style="stroke: #000000; stroke-width: 0.8"/>
      </g>
     </g>
     <g id="text_7">
      <!-- −20 -->
      <g transform="translate(24.478125 146.895197) scale(0.16 -0.16)">
       <use xlink:href="#DejaVuSans-2212"/>
       <use xlink:href="#DejaVuSans-32" x="83.789062"/>
       <use xlink:href="#DejaVuSans-30" x="147.412109"/>
      </g>
     </g>
    </g>
    <g id="ytick_3">
     <g id="line2d_7">
      <g>
       <use xlink:href="#m74caf429b3" x="65.245625" y="83.638324" style="stroke: #000000; stroke-width: 0.8"/>
      </g>
     </g>
     <g id="text_8">
      <!-- 0 -->
      <g transform="translate(48.065625 89.717074) scale(0.16 -0.16)">
       <use xlink:href="#DejaVuSans-30"/>
      </g>
     </g>
    </g>
    <g id="ytick_4">
     <g id="line2d_8">
      <g>
       <use xlink:href="#m74caf429b3" x="65.245625" y="26.460201" style="stroke: #000000; stroke-width: 0.8"/>
      </g>
     </g>
     <g id="text_9">
      <!-- 20 -->
      <g transform="translate(37.885625 32.538951) scale(0.16 -0.16)">
       <use xlink:href="#DejaVuSans-32"/>
       <use xlink:href="#DejaVuSans-30" x="63.623047"/>
      </g>
     </g>
    </g>
    <g id="text_10">
     <!-- RW Speed (RPM)  -->
     <g transform="translate(18.398438 169.284062) rotate(-90) scale(0.1 -0.1)">
      <defs>
       <path id="DejaVuSans-52" d="M 2841 2188 
Q 3044 2119 3236 1894 
Q 3428 1669 3622 1275 
L 4263 0 
L 3584 0 
L 2988 1197 
Q 2756 1666 2539 1819 
Q 2322 1972 1947 1972 
L 1259 1972 
L 1259 0 
L 628 0 
L 628 4666 
L 2053 4666 
Q 2853 4666 3247 4331 
Q 3641 3997 3641 3322 
Q 3641 2881 3436 2590 
Q 3231 2300 2841 2188 
z
M 1259 4147 
L 1259 2491 
L 2053 2491 
Q 2509 2491 2742 2702 
Q 2975 2913 2975 3322 
Q 2975 3731 2742 3939 
Q 2509 4147 2053 4147 
L 1259 4147 
z
" transform="scale(0.015625)"/>
       <path id="DejaVuSans-57" d="M 213 4666 
L 850 4666 
L 1831 722 
L 2809 4666 
L 3519 4666 
L 4500 722 
L 5478 4666 
L 6119 4666 
L 4947 0 
L 4153 0 
L 3169 4050 
L 2175 0 
L 1381 0 
L 213 4666 
z
" transform="scale(0.015625)"/>
       <path id="DejaVuSans-53" d="M 3425 4513 
L 3425 3897 
Q 3066 4069 2747 4153 
Q 2428 4238 2131 4238 
Q 1616 4238 1336 4038 
Q 1056 3838 1056 3469 
Q 1056 3159 1242 3001 
Q 1428 2844 1947 2747 
L 2328 2669 
Q 3034 2534 3370 2195 
Q 3706 1856 3706 1288 
Q 3706 609 3251 259 
Q 2797 -91 1919 -91 
Q 1588 -91 1214 -16 
Q 841 59 441 206 
L 441 856 
Q 825 641 1194 531 
Q 1563 422 1919 422 
Q 2459 422 2753 634 
Q 3047 847 3047 1241 
Q 3047 1584 2836 1778 
Q 2625 1972 2144 2069 
L 1759 2144 
Q 1053 2284 737 2584 
Q 422 2884 422 3419 
Q 422 4038 858 4394 
Q 1294 4750 2059 4750 
Q 2388 4750 2728 4690 
Q 3069 4631 3425 4513 
z
" transform="scale(0.015625)"/>
       <path id="DejaVuSans-70" d="M 1159 525 
L 1159 -1331 
L 581 -1331 
L 581 3500 
L 1159 3500 
L 1159 2969 
Q 1341 3281 1617 3432 
Q 1894 3584 2278 3584 
Q 2916 3584 3314 3078 
Q 3713 2572 3713 1747 
Q 3713 922 3314 415 
Q 2916 -91 2278 -91 
Q 1894 -91 1617 61 
Q 1341 213 1159 525 
z
M 3116 1747 
Q 3116 2381 2855 2742 
Q 2594 3103 2138 3103 
Q 1681 3103 1420 2742 
Q 1159 2381 1159 1747 
Q 1159 1113 1420 752 
Q 1681 391 2138 391 
Q 2594 391 2855 752 
Q 3116 1113 3116 1747 
z
" transform="scale(0.015625)"/>
       <path id="DejaVuSans-64" d="M 2906 2969 
L 2906 4863 
L 3481 4863 
L 3481 0 
L 2906 0 
L 2906 525 
Q 2725 213 2448 61 
Q 2172 -91 1784 -91 
Q 1150 -91 751 415 
Q 353 922 353 1747 
Q 353 2572 751 3078 
Q 1150 3584 1784 3584 
Q 2172 3584 2448 3432 
Q 2725 3281 2906 2969 
z
M 947 1747 
Q 947 1113 1208 752 
Q 1469 391 1925 391 
Q 2381 391 2643 752 
Q 2906 1113 2906 1747 
Q 2906 2381 2643 2742 
Q 2381 3103 1925 3103 
Q 1469 3103 1208 2742 
Q 947 2381 947 1747 
z
" transform="scale(0.015625)"/>
       <path id="DejaVuSans-28" d="M 1984 4856 
Q 1566 4138 1362 3434 
Q 1159 2731 1159 2009 
Q 1159 1288 1364 580 
Q 1569 -128 1984 -844 
L 1484 -844 
Q 1016 -109 783 600 
Q 550 1309 550 2009 
Q 550 2706 781 3412 
Q 1013 4119 1484 4856 
L 1984 4856 
z
" transform="scale(0.015625)"/>
       <path id="DejaVuSans-50" d="M 1259 4147 
L 1259 2394 
L 2053 2394 
Q 2494 2394 2734 2622 
Q 2975 2850 2975 3272 
Q 2975 3691 2734 3919 
Q 2494 4147 2053 4147 
L 1259 4147 
z
M 628 4666 
L 2053 4666 
Q 2838 4666 3239 4311 
Q 3641 3956 3641 3272 
Q 3641 2581 3239 2228 
Q 2838 1875 2053 1875 
L 1259 1875 
L 1259 0 
L 628 0 
L 628 4666 
z
" transform="scale(0.015625)"/>
       <path id="DejaVuSans-4d" d="M 628 4666 
L 1569 4666 
L 2759 1491 
L 3956 4666 
L 4897 4666 
L 4897 0 
L 4281 0 
L 4281 4097 
L 3078 897 
L 2444 897 
L 1241 4097 
L 1241 0 
L 628 0 
L 628 4666 
z
" transform="scale(0.015625)"/>
       <path id="DejaVuSans-29" d="M 513 4856 
L 1013 4856 
Q 1481 4119 1714 3412 
Q 1947 2706 1947 2009 
Q 1947 1309 1714 600 
Q 1481 -109 1013 -844 
L 513 -844 
Q 928 -128 1133 580 
Q 1338 1288 1338 2009 
Q 1338 2731 1133 3434 
Q 928 4138 513 4856 
z
" transform="scale(0.015625)"/>
      </defs>
      <use xlink:href="#DejaVuSans-52"/>
      <use xlink:href="#DejaVuSans-57" x="65.482422"/>
      <use xlink:href="#DejaVuSans-20" x="164.359375"/>
      <use xlink:href="#DejaVuSans-53" x="196.146484"/>
      <use xlink:href="#DejaVuSans-70" x="259.623047"/>
      <use xlink:href="#DejaVuSans-65" x="323.099609"/>
      <use xlink:href="#DejaVuSans-65" x="384.623047"/>
      <use xlink:href="#DejaVuSans-64" x="446.146484"/>
      <use xlink:href="#DejaVuSans-20" x="509.623047"/>
      <use xlink:href="#DejaVuSans-28" x="541.410156"/>
      <use xlink:href="#DejaVuSans-52" x="580.423828"/>
      <use xlink:href="#DejaVuSans-50" x="649.90625"/>
      <use xlink:href="#DejaVuSans-4d" x="710.208984"/>
      <use xlink:href="#DejaVuSans-29" x="796.488281"/>
      <use xlink:href="#DejaVuSans-20" x="835.501953"/>
     </g>
    </g>
   </g>
   <g id="line2d_9">
    <path d="M 80.607188 83.638324 
L 82.450575 89.127055 
L 84.293963 94.005521 
L 86.13735 98.328042 
L 87.980738 102.113118 
L 89.824125 105.380342 
L 91.667513 108.152869 
L 93.5109 110.4568 
L 95.354288 112.320431 
L 97.197675 113.773584 
L 99.041063 114.847034 
L 100.88445 115.571999 
L 102.727838 115.979684 
L 104.571225 116.100884 
L 106.414613 115.965625 
L 108.258 115.602866 
L 110.101388 115.040242 
L 112.559238 114.024073 
L 115.017088 112.75605 
L 118.0894 110.894871 
L 121.776175 108.370744 
L 126.691875 104.713025 
L 142.053438 93.083182 
L 146.969137 89.677526 
L 151.270375 86.956637 
L 154.95715 84.886795 
L 158.029463 83.395021 
L 161.101775 82.15774 
L 163.559625 81.379794 
L 166.017475 80.814021 
L 168.475325 80.458591 
L 171.547638 80.269504 
L 174.61995 80.313933 
L 178.306725 80.600222 
L 183.222425 81.225972 
L 192.439363 82.448037 
L 197.969525 82.888839 
L 204.11415 83.133552 
L 210.873238 83.176326 
L 224.391413 83.145694 
L 228.69265 83.409963 
L 232.379425 83.854132 
L 236.0662 84.526434 
L 244.668675 86.1889 
L 247.740988 86.499436 
L 250.198838 86.535239 
L 252.656688 86.331847 
L 254.500075 85.995399 
L 256.343462 85.480889 
L 258.18685 84.777439 
L 260.6447 83.573589 
L 263.10255 82.109584 
L 266.174863 79.980406 
L 269.861638 77.09089 
L 274.777338 72.887467 
L 282.150888 66.526602 
L 285.2232 64.133238 
L 288.295513 62.029947 
L 290.753362 60.610379 
L 293.211212 59.462297 
L 295.669062 58.611895 
L 297.51245 58.180039 
L 299.355838 57.929131 
L 301.199225 57.860113 
L 303.042613 57.971423 
L 304.886 58.259383 
L 307.34385 58.908746 
L 309.8017 59.847034 
L 312.25955 61.037044 
L 321.476488 65.809292 
L 323.934338 66.692134 
L 325.777725 67.137542 
L 327.621112 67.358146 
L 329.4645 67.319767 
L 331.307887 66.989138 
L 333.151275 66.334231 
L 334.994663 65.324903 
L 336.83805 63.933905 
L 338.681438 62.138272 
L 340.524825 59.935084 
L 342.982675 56.523658 
L 350.356225 45.80206 
L 352.199613 43.623876 
L 354.043 41.850499 
L 355.271925 40.932686 
L 356.50085 40.249242 
L 357.729775 39.815732 
L 358.9587 39.644119 
L 360.187625 39.742848 
L 361.41655 40.117056 
L 362.645475 40.768906 
L 363.8744 41.698025 
L 365.103325 42.902048 
L 366.33225 44.377242 
L 367.561175 46.119192 
L 369.404562 49.22297 
L 371.24795 52.907065 
L 373.091338 57.171734 
L 374.934725 62.034476 
L 376.778113 67.537445 
L 378.6215 73.756106 
L 380.464887 80.809978 
L 381.07935 83.375566 
L 381.693813 83.651033 
L 385.99505 83.617816 
L 387.838437 83.619611 
L 387.838437 83.619611 
" clip-path="url(#pbe2a78170c)" style="fill: none; stroke: #2b737e; stroke-width: 1.5; stroke-linecap: square"/>
   </g>
   <g id="line2d_10">
    <path d="M 80.607188 83.638324 
L 84.293963 102.998235 
L 87.366275 117.996966 
L 89.824125 129.058557 
L 92.281975 139.217724 
L 94.739825 148.461671 
L 97.197675 156.812064 
L 99.655525 164.31367 
L 102.113375 171.025215 
L 104.571225 177.012565 
L 107.029075 182.344015 
L 109.486925 187.087283 
L 111.944775 191.307775 
L 114.402625 195.067662 
L 116.860475 198.42542 
L 119.318325 201.435537 
L 121.776175 204.14819 
L 124.848488 207.189314 
L 127.9208 209.912355 
L 131.607575 212.842438 
L 135.29435 215.46098 
L 138.981125 217.793099 
L 142.6679 219.867465 
L 146.354675 221.704993 
L 150.04145 223.31826 
L 153.728225 224.713575 
L 157.415 225.892081 
L 161.101775 226.850983 
L 164.78855 227.585744 
L 168.475325 228.094182 
L 172.1621 228.383 
L 176.463338 228.470475 
L 181.379038 228.319881 
L 193.668288 227.798804 
L 199.812913 227.893208 
L 209.644313 228.070086 
L 213.94555 227.917874 
L 227.463725 227.16832 
L 230.536037 227.31799 
L 232.993887 227.625234 
L 236.0662 228.258924 
L 244.668675 230.28722 
L 247.126525 230.550864 
L 248.969913 230.547989 
L 250.8133 230.326901 
L 252.656688 229.845282 
L 254.500075 229.060447 
L 256.343462 227.929641 
L 258.18685 226.428825 
L 260.030237 224.603063 
L 262.488088 221.763656 
L 264.945938 218.57766 
L 268.632713 213.393638 
L 288.295513 184.712401 
L 291.367825 179.678262 
L 295.669062 172.165476 
L 300.584763 163.611349 
L 303.042613 159.744688 
L 304.886 157.190406 
L 306.729388 155.036002 
L 307.958313 153.869705 
L 309.187238 152.953794 
L 310.416162 152.317781 
L 311.645088 151.974186 
L 312.874012 151.916783 
L 314.102938 152.137025 
L 315.331862 152.625035 
L 316.560788 153.36974 
L 317.789713 154.358938 
L 319.018638 155.57929 
L 320.862025 157.811073 
L 322.705412 160.475128 
L 324.5488 163.508541 
L 327.00665 167.999959 
L 335.609125 184.379976 
L 337.452513 187.089525 
L 338.681438 188.521524 
L 339.910363 189.5769 
L 341.139288 190.202336 
L 341.75375 190.340358 
L 342.368213 190.355428 
L 342.982675 190.243167 
L 343.597138 189.999623 
L 344.2116 189.621309 
L 345.440525 188.448926 
L 346.66945 186.708551 
L 347.898375 184.392036 
L 349.1273 181.501326 
L 350.356225 178.049062 
L 351.58515 174.05894 
L 353.428538 167.14446 
L 355.271925 159.26364 
L 357.729775 147.626316 
L 365.717788 108.376317 
L 367.561175 100.702042 
L 369.404562 94.07478 
L 370.633488 90.329332 
L 371.862413 87.171743 
L 373.091338 84.633116 
L 374.320263 82.734015 
L 375.549188 81.484189 
L 376.16365 81.102759 
L 376.778113 80.882208 
L 377.392575 80.820512 
L 378.007038 80.914849 
L 378.6215 81.161556 
L 379.235963 81.556071 
L 380.464887 82.765354 
L 381.07935 83.565792 
L 382.308275 83.673277 
L 387.838437 83.678547 
L 387.838437 83.678547 
" clip-path="url(#pbe2a78170c)" style="fill: none; stroke: #5ea04b; stroke-width: 1.5; stroke-linecap: square"/>
   </g>
   <g id="line2d_11">
    <path d="M 80.607188 83.638324 
L 81.836113 84.776181 
L 83.065038 85.662155 
L 84.908425 86.627964 
L 86.751813 87.275495 
L 88.5952 87.701273 
L 91.05305 88.029169 
L 93.5109 88.148944 
L 95.96875 88.075514 
L 98.4266 87.783708 
L 100.88445 87.226978 
L 102.727838 86.603699 
L 104.571225 85.780826 
L 106.414613 84.741344 
L 108.258 83.473435 
L 110.101388 81.971455 
L 111.944775 80.236501 
L 114.402625 77.575806 
L 116.860475 74.554534 
L 119.932788 70.363707 
L 124.234025 64.022312 
L 129.149725 56.796675 
L 131.607575 53.514957 
L 133.450963 51.326436 
L 135.29435 49.451214 
L 137.137738 47.917061 
L 138.981125 46.682813 
L 140.824513 45.706218 
L 142.6679 44.949658 
L 145.12575 44.225786 
L 147.5836 43.764161 
L 150.655912 43.464519 
L 154.342688 43.378549 
L 167.860862 43.390304 
L 199.19845 41.380013 
L 209.644313 40.631628 
L 215.788938 40.426351 
L 225.005875 40.352355 
L 229.921575 40.508396 
L 233.60835 40.862272 
L 236.680663 41.383412 
L 240.9819 42.374605 
L 245.8976 43.494137 
L 248.35545 43.813595 
L 250.198838 43.838241 
L 252.042225 43.602962 
L 253.27115 43.26458 
L 254.500075 42.753185 
L 255.729 42.043771 
L 256.957925 41.111787 
L 258.18685 39.959032 
L 260.030237 37.878876 
L 262.488088 34.623473 
L 268.632713 25.998892 
L 270.4761 23.888896 
L 271.705025 22.757613 
L 272.93395 21.907544 
L 274.162875 21.392082 
L 275.3918 21.265312 
L 276.006262 21.36469 
L 276.620725 21.581649 
L 277.235188 21.922972 
L 278.464112 23.005659 
L 279.693038 24.666043 
L 280.921963 26.956072 
L 282.150888 29.925732 
L 283.379813 33.594867 
L 284.608738 37.90627 
L 286.452125 45.418825 
L 288.295513 53.959064 
L 290.753362 66.487145 
L 299.355838 111.798636 
L 301.199225 120.09752 
L 303.042613 127.383798 
L 304.271538 131.581484 
L 305.500463 135.189505 
L 306.729388 138.1598 
L 307.958313 140.448593 
L 309.187238 142.016216 
L 309.8017 142.518255 
L 310.416162 142.829026 
L 311.030625 142.955696 
L 311.645088 142.907725 
L 312.25955 142.694498 
L 312.874012 142.325305 
L 314.102938 141.155646 
L 315.331862 139.470766 
L 316.560788 137.340533 
L 317.789713 134.832478 
L 319.6331 130.50372 
L 322.09095 123.996964 
L 329.4645 103.686712 
L 331.307887 99.343198 
L 333.151275 95.625604 
L 334.3802 93.576488 
L 335.609125 91.928672 
L 336.83805 90.732707 
L 338.066975 90.040204 
L 338.681438 89.899196 
L 339.2959 89.903694 
L 339.910363 90.055976 
L 340.524825 90.354645 
L 341.139288 90.798056 
L 342.368213 92.111601 
L 343.597138 93.979091 
L 344.826063 96.37791 
L 346.054987 99.278838 
L 347.283913 102.644702 
L 349.1273 108.46151 
L 350.970687 115.020783 
L 354.043 126.910481 
L 357.115313 138.754912 
L 358.9587 145.179422 
L 360.802088 150.666645 
L 362.031012 153.641077 
L 363.259938 155.963683 
L 364.488862 157.553779 
L 365.103325 158.051436 
L 365.717788 158.339934 
L 366.33225 158.411865 
L 366.946712 158.260426 
L 367.561175 157.879413 
L 368.175638 157.263196 
L 368.7901 156.406694 
L 369.404562 155.30535 
L 370.633488 152.352282 
L 371.862413 148.376493 
L 373.091338 143.356224 
L 374.320263 137.274035 
L 375.549188 130.115464 
L 376.778113 121.867946 
L 378.007038 112.520192 
L 379.850425 96.414649 
L 381.07935 84.279561 
L 381.693813 83.534472 
L 387.838437 83.620579 
L 387.838437 83.620579 
" clip-path="url(#pbe2a78170c)" style="fill: none; stroke: #bdab62; stroke-width: 1.5; stroke-linecap: square"/>
   </g>
   <g id="patch_3">
    <path d="M 65.245625 241.036875 
L 65.245625 10.8 
" style="fill: none; stroke: #000000; stroke-width: 0.8; stroke-linejoin: miter; stroke-linecap: square"/>
   </g>
   <g id="patch_4">
    <path d="M 403.2 241.036875 
L 403.2 10.8 
" style="fill: none; stroke: #000000; stroke-width: 0.8; stroke-linejoin: miter; stroke-linecap: square"/>
   </g>
   <g id="patch_5">
    <path d="M 65.245625 241.036875 
L 403.2 241.036875 
" style="fill: none; stroke: #000000; stroke-width: 0.8; stroke-linejoin: miter; stroke-linecap: square"/>
   </g>
   <g id="patch_6">
    <path d="M 65.245625 10.8 
L 403.2 10.8 
" style="fill: none; stroke: #000000; stroke-width: 0.8; stroke-linejoin: miter; stroke-linecap: square"/>
   </g>
   <g id="legend_1">
    <g id="patch_7">
     <path d="M 356.85 236.536875 
L 396.9 236.536875 
Q 398.7 236.536875 398.7 234.736875 
L 398.7 196.005938 
Q 398.7 194.205938 396.9 194.205938 
L 356.85 194.205938 
Q 355.05 194.205938 355.05 196.005938 
L 355.05 234.736875 
Q 355.05 236.536875 356.85 236.536875 
z
" style="fill: #ffffff; opacity: 0.8; stroke: #cccccc; stroke-linejoin: miter"/>
    </g>
    <g id="line2d_12">
     <path d="M 358.65 201.494531 
L 367.65 201.494531 
L 376.65 201.494531 
" style="fill: none; stroke: #2b737e; stroke-width: 1.5; stroke-linecap: square"/>
    </g>
    <g id="text_11">
     <!-- $\Omega_{0}$ -->
     <g transform="translate(383.85 204.644531) scale(0.09 -0.09)">
      <defs>
       <path id="DejaVuSans-3a9" d="M 4647 556 
L 4647 0 
L 2772 0 
L 2772 556 
Q 3325 859 3634 1378 
Q 3944 1897 3944 2528 
Q 3944 3278 3531 3731 
Q 3119 4184 2444 4184 
Q 1769 4184 1355 3729 
Q 941 3275 941 2528 
Q 941 1897 1250 1378 
Q 1563 859 2119 556 
L 2119 0 
L 244 0 
L 244 556 
L 1241 556 
Q 747 991 519 1456 
Q 294 1922 294 2497 
Q 294 3491 894 4106 
Q 1491 4722 2444 4722 
Q 3391 4722 3994 4106 
Q 4594 3494 4594 2528 
Q 4594 1922 4372 1459 
Q 4150 997 3647 556 
L 4647 556 
z
" transform="scale(0.015625)"/>
      </defs>
      <use xlink:href="#DejaVuSans-3a9" transform="translate(0 0.21875)"/>
      <use xlink:href="#DejaVuSans-30" transform="translate(77.373047 -16.1875) scale(0.7)"/>
     </g>
    </g>
    <g id="line2d_13">
     <path d="M 358.65 214.704844 
L 367.65 214.704844 
L 376.65 214.704844 
" style="fill: none; stroke: #5ea04b; stroke-width: 1.5; stroke-linecap: square"/>
    </g>
    <g id="text_12">
     <!-- $\Omega_{1}$ -->
     <g transform="translate(383.85 217.854844) scale(0.09 -0.09)">
      <use xlink:href="#DejaVuSans-3a9" transform="translate(0 0.21875)"/>
      <use xlink:href="#DejaVuSans-31" transform="translate(77.373047 -16.1875) scale(0.7)"/>
     </g>
    </g>
    <g id="line2d_14">
     <path d="M 358.65 227.915156 
L 367.65 227.915156 
L 376.65 227.915156 
" style="fill: none; stroke: #bdab62; stroke-width: 1.5; stroke-linecap: square"/>
    </g>
    <g id="text_13">
     <!-- $\Omega_{2}$ -->
     <g transform="translate(383.85 231.065156) scale(0.09 -0.09)">
      <use xlink:href="#DejaVuSans-3a9" transform="translate(0 0.21875)"/>
      <use xlink:href="#DejaVuSans-32" transform="translate(77.373047 -16.1875) scale(0.7)"/>
     </g>
    </g>
   </g>
  </g>
 </g>
 <defs>
  <clipPath id="pbe2a78170c">
   <rect x="65.245625" y="10.8" width="337.954375" height="230.236875"/>
  </clipPath>
 </defs>
</svg>
