<?xml version="1.0" encoding="utf-8" standalone="no"?>
<!DOCTYPE svg PUBLIC "-//W3C//DTD SVG 1.1//EN"
  "http://www.w3.org/Graphics/SVG/1.1/DTD/svg11.dtd">
<svg xmlns:xlink="http://www.w3.org/1999/xlink" width="432pt" height="360pt" viewBox="0 0 432 360" xmlns="http://www.w3.org/2000/svg" version="1.1">
 <metadata>
  <rdf:RDF xmlns:dc="http://purl.org/dc/elements/1.1/" xmlns:cc="http://creativecommons.org/ns#" xmlns:rdf="http://www.w3.org/1999/02/22-rdf-syntax-ns#">
   <cc:Work>
    <dc:type rdf:resource="http://purl.org/dc/dcmitype/StillImage"/>
    <dc:date>2023-09-07T00:35:14.556663</dc:date>
    <dc:format>image/svg+xml</dc:format>
    <dc:creator>
     <cc:Agent>
      <dc:title>Matplotlib v3.7.2, https://matplotlib.org/</dc:title>
     </cc:Agent>
    </dc:creator>
   </cc:Work>
  </rdf:RDF>
 </metadata>
 <defs>
  <style type="text/css">*{stroke-linejoin: round; stroke-linecap: butt}</style>
 </defs>
 <g id="figure_1">
  <g id="patch_1">
   <path d="M 0 360 
L 432 360 
L 432 0 
L 0 0 
L 0 360 
z
" style="fill: none"/>
  </g>
  <g id="patch_2">
   <path d="M 54.359063 349.2 
L 377.640937 349.2 
L 377.640937 25.918125 
L 54.359063 25.918125 
L 54.359063 349.2 
z
" style="fill: none"/>
  </g>
  <g id="pane3d_1">
   <g id="patch_3">
    <path d="M 78.769073 269.48905 
L 185.527307 180.002182 
L 184.043265 50.946122 
L 72.1761 132.581683 
" style="fill: #f2f2f2; opacity: 0.5; stroke: #f2f2f2; stroke-linejoin: miter"/>
   </g>
  </g>
  <g id="pane3d_2">
   <g id="patch_4">
    <path d="M 185.527307 180.002182 
L 356.836179 229.794908 
L 362.949589 96.29366 
L 184.043265 50.946122 
" style="fill: #e6e6e6; opacity: 0.5; stroke: #e6e6e6; stroke-linejoin: miter"/>
   </g>
  </g>
  <g id="pane3d_3">
   <g id="patch_5">
    <path d="M 78.769073 269.48905 
L 260.364845 328.798229 
L 356.836179 229.794908 
L 185.527307 180.002182 
" style="fill: #ececec; opacity: 0.5; stroke: #ececec; stroke-linejoin: miter"/>
   </g>
  </g>
  <g id="axis3d_1">
   <g id="line2d_1">
    <path d="M 78.769073 269.48905 
L 260.364845 328.798229 
" style="fill: none; stroke: #000000; stroke-width: 0.8; stroke-linecap: square"/>
   </g>
   <g id="text_1">
    <!-- x [km] -->
    <g transform="translate(134.634665 331.170858) rotate(-341.912962) scale(0.1 -0.1)">
     <defs>
      <path id="DejaVuSans-78" d="M 3513 3500 
L 2247 1797 
L 3578 0 
L 2900 0 
L 1881 1375 
L 863 0 
L 184 0 
L 1544 1831 
L 300 3500 
L 978 3500 
L 1906 2253 
L 2834 3500 
L 3513 3500 
z
" transform="scale(0.015625)"/>
      <path id="DejaVuSans-20" transform="scale(0.015625)"/>
      <path id="DejaVuSans-5b" d="M 550 4863 
L 1875 4863 
L 1875 4416 
L 1125 4416 
L 1125 -397 
L 1875 -397 
L 1875 -844 
L 550 -844 
L 550 4863 
z
" transform="scale(0.015625)"/>
      <path id="DejaVuSans-6b" d="M 581 4863 
L 1159 4863 
L 1159 1991 
L 2875 3500 
L 3609 3500 
L 1753 1863 
L 3688 0 
L 2938 0 
L 1159 1709 
L 1159 0 
L 581 0 
L 581 4863 
z
" transform="scale(0.015625)"/>
      <path id="DejaVuSans-6d" d="M 3328 2828 
Q 3544 3216 3844 3400 
Q 4144 3584 4550 3584 
Q 5097 3584 5394 3201 
Q 5691 2819 5691 2113 
L 5691 0 
L 5113 0 
L 5113 2094 
Q 5113 2597 4934 2840 
Q 4756 3084 4391 3084 
Q 3944 3084 3684 2787 
Q 3425 2491 3425 1978 
L 3425 0 
L 2847 0 
L 2847 2094 
Q 2847 2600 2669 2842 
Q 2491 3084 2119 3084 
Q 1678 3084 1418 2786 
Q 1159 2488 1159 1978 
L 1159 0 
L 581 0 
L 581 3500 
L 1159 3500 
L 1159 2956 
Q 1356 3278 1631 3431 
Q 1906 3584 2284 3584 
Q 2666 3584 2933 3390 
Q 3200 3197 3328 2828 
z
" transform="scale(0.015625)"/>
      <path id="DejaVuSans-5d" d="M 1947 4863 
L 1947 -844 
L 622 -844 
L 622 -397 
L 1369 -397 
L 1369 4416 
L 622 4416 
L 622 4863 
L 1947 4863 
z
" transform="scale(0.015625)"/>
     </defs>
     <use xlink:href="#DejaVuSans-78"/>
     <use xlink:href="#DejaVuSans-20" x="59.179688"/>
     <use xlink:href="#DejaVuSans-5b" x="90.966797"/>
     <use xlink:href="#DejaVuSans-6b" x="129.980469"/>
     <use xlink:href="#DejaVuSans-6d" x="187.890625"/>
     <use xlink:href="#DejaVuSans-5d" x="285.302734"/>
    </g>
   </g>
   <g id="Line3DCollection_1">
    <path d="M 113.58011 280.858335 
L 218.483747 189.581318 
L 218.402662 59.655227 
" style="fill: none; stroke: #b0b0b0; stroke-width: 0.8"/>
    <path d="M 167.173252 298.361855 
L 269.112596 204.297126 
L 271.241151 73.048244 
" style="fill: none; stroke: #b0b0b0; stroke-width: 0.8"/>
    <path d="M 222.489097 316.428009 
L 321.230674 219.445794 
L 325.702778 86.852679 
" style="fill: none; stroke: #b0b0b0; stroke-width: 0.8"/>
   </g>
   <g id="xtick_1">
    <g id="line2d_2">
     <path d="M 114.494131 280.063042 
L 111.74812 282.452356 
" style="fill: none; stroke: #000000; stroke-width: 0.8; stroke-linecap: square"/>
    </g>
    <g id="text_2">
     <!-- −5000 -->
     <g transform="translate(79.012171 308.851645) scale(0.16 -0.16)">
      <defs>
       <path id="DejaVuSans-2212" d="M 678 2272 
L 4684 2272 
L 4684 1741 
L 678 1741 
L 678 2272 
z
" transform="scale(0.015625)"/>
       <path id="DejaVuSans-35" d="M 691 4666 
L 3169 4666 
L 3169 4134 
L 1269 4134 
L 1269 2991 
Q 1406 3038 1543 3061 
Q 1681 3084 1819 3084 
Q 2600 3084 3056 2656 
Q 3513 2228 3513 1497 
Q 3513 744 3044 326 
Q 2575 -91 1722 -91 
Q 1428 -91 1123 -41 
Q 819 9 494 109 
L 494 744 
Q 775 591 1075 516 
Q 1375 441 1709 441 
Q 2250 441 2565 725 
Q 2881 1009 2881 1497 
Q 2881 1984 2565 2268 
Q 2250 2553 1709 2553 
Q 1456 2553 1204 2497 
Q 953 2441 691 2322 
L 691 4666 
z
" transform="scale(0.015625)"/>
       <path id="DejaVuSans-30" d="M 2034 4250 
Q 1547 4250 1301 3770 
Q 1056 3291 1056 2328 
Q 1056 1369 1301 889 
Q 1547 409 2034 409 
Q 2525 409 2770 889 
Q 3016 1369 3016 2328 
Q 3016 3291 2770 3770 
Q 2525 4250 2034 4250 
z
M 2034 4750 
Q 2819 4750 3233 4129 
Q 3647 3509 3647 2328 
Q 3647 1150 3233 529 
Q 2819 -91 2034 -91 
Q 1250 -91 836 529 
Q 422 1150 422 2328 
Q 422 3509 836 4129 
Q 1250 4750 2034 4750 
z
" transform="scale(0.015625)"/>
      </defs>
      <use xlink:href="#DejaVuSans-2212"/>
      <use xlink:href="#DejaVuSans-35" x="83.789062"/>
      <use xlink:href="#DejaVuSans-30" x="147.412109"/>
      <use xlink:href="#DejaVuSans-30" x="211.035156"/>
      <use xlink:href="#DejaVuSans-30" x="274.658203"/>
     </g>
    </g>
   </g>
   <g id="xtick_2">
    <g id="line2d_3">
     <path d="M 168.062594 297.541213 
L 165.390666 300.00674 
" style="fill: none; stroke: #000000; stroke-width: 0.8; stroke-linecap: square"/>
    </g>
    <g id="text_3">
     <!-- 0 -->
     <g transform="translate(154.627656 326.661195) scale(0.16 -0.16)">
      <use xlink:href="#DejaVuSans-30"/>
     </g>
    </g>
   </g>
   <g id="xtick_3">
    <g id="line2d_4">
     <path d="M 223.351688 315.580787 
L 220.760066 318.126233 
" style="fill: none; stroke: #000000; stroke-width: 0.8; stroke-linecap: square"/>
    </g>
    <g id="text_4">
     <!-- 5000 -->
     <g transform="translate(194.729136 345.045037) scale(0.16 -0.16)">
      <use xlink:href="#DejaVuSans-35"/>
      <use xlink:href="#DejaVuSans-30" x="63.623047"/>
      <use xlink:href="#DejaVuSans-30" x="127.246094"/>
      <use xlink:href="#DejaVuSans-30" x="190.869141"/>
     </g>
    </g>
   </g>
  </g>
  <g id="axis3d_2">
   <g id="line2d_5">
    <path d="M 356.836179 229.794908 
L 260.364845 328.798229 
" style="fill: none; stroke: #000000; stroke-width: 0.8; stroke-linecap: square"/>
   </g>
   <g id="text_5">
    <!-- y [km] -->
    <g transform="translate(328.384192 318.624554) rotate(-45.742112) scale(0.1 -0.1)">
     <defs>
      <path id="DejaVuSans-79" d="M 2059 -325 
Q 1816 -950 1584 -1140 
Q 1353 -1331 966 -1331 
L 506 -1331 
L 506 -850 
L 844 -850 
Q 1081 -850 1212 -737 
Q 1344 -625 1503 -206 
L 1606 56 
L 191 3500 
L 800 3500 
L 1894 763 
L 2988 3500 
L 3597 3500 
L 2059 -325 
z
" transform="scale(0.015625)"/>
     </defs>
     <use xlink:href="#DejaVuSans-79"/>
     <use xlink:href="#DejaVuSans-20" x="59.179688"/>
     <use xlink:href="#DejaVuSans-5b" x="90.966797"/>
     <use xlink:href="#DejaVuSans-6b" x="129.980469"/>
     <use xlink:href="#DejaVuSans-6d" x="187.890625"/>
     <use xlink:href="#DejaVuSans-5d" x="285.302734"/>
    </g>
   </g>
   <g id="Line3DCollection_2">
    <path d="M 96.185814 115.060488 
L 101.614015 250.339967 
L 281.080248 307.53913 
" style="fill: none; stroke: #b0b0b0; stroke-width: 0.8"/>
    <path d="M 130.598124 89.947951 
L 134.421833 222.839803 
L 310.761352 277.079015 
" style="fill: none; stroke: #b0b0b0; stroke-width: 0.8"/>
    <path d="M 163.221028 66.141242 
L 165.59453 196.710231 
L 338.888651 248.213487 
" style="fill: none; stroke: #b0b0b0; stroke-width: 0.8"/>
   </g>
   <g id="xtick_4">
    <g id="line2d_6">
     <path d="M 279.568842 307.057418 
L 284.106918 308.503785 
" style="fill: none; stroke: #000000; stroke-width: 0.8; stroke-linecap: square"/>
    </g>
    <g id="text_6">
     <!-- −5000 -->
     <g transform="translate(266.740823 332.942896) scale(0.16 -0.16)">
      <use xlink:href="#DejaVuSans-2212"/>
      <use xlink:href="#DejaVuSans-35" x="83.789062"/>
      <use xlink:href="#DejaVuSans-30" x="147.412109"/>
      <use xlink:href="#DejaVuSans-30" x="211.035156"/>
      <use xlink:href="#DejaVuSans-30" x="274.658203"/>
     </g>
    </g>
   </g>
   <g id="xtick_5">
    <g id="line2d_7">
     <path d="M 309.278276 276.622845 
L 313.731188 277.99249 
" style="fill: none; stroke: #000000; stroke-width: 0.8; stroke-linecap: square"/>
    </g>
    <g id="text_7">
     <!-- 0 -->
     <g transform="translate(318.06756 302.112148) scale(0.16 -0.16)">
      <use xlink:href="#DejaVuSans-30"/>
     </g>
    </g>
   </g>
   <g id="xtick_6">
    <g id="line2d_8">
     <path d="M 337.433049 247.78088 
L 341.803378 249.079748 
" style="fill: none; stroke: #000000; stroke-width: 0.8; stroke-linecap: square"/>
    </g>
    <g id="text_8">
     <!-- 5000 -->
     <g transform="translate(330.61321 272.896133) scale(0.16 -0.16)">
      <use xlink:href="#DejaVuSans-35"/>
      <use xlink:href="#DejaVuSans-30" x="63.623047"/>
      <use xlink:href="#DejaVuSans-30" x="127.246094"/>
      <use xlink:href="#DejaVuSans-30" x="190.869141"/>
     </g>
    </g>
   </g>
  </g>
  <g id="axis3d_3">
   <g id="line2d_9">
    <path d="M 356.836179 229.794908 
L 362.949589 96.29366 
" style="fill: none; stroke: #000000; stroke-width: 0.8; stroke-linecap: square"/>
   </g>
   <g id="text_9">
    <!-- z [km] -->
    <g transform="translate(402.279195 175.081045) rotate(-87.378092) scale(0.1 -0.1)">
     <defs>
      <path id="DejaVuSans-7a" d="M 353 3500 
L 3084 3500 
L 3084 2975 
L 922 459 
L 3084 459 
L 3084 0 
L 275 0 
L 275 525 
L 2438 3041 
L 353 3041 
L 353 3500 
z
" transform="scale(0.015625)"/>
     </defs>
     <use xlink:href="#DejaVuSans-7a"/>
     <use xlink:href="#DejaVuSans-20" x="52.490234"/>
     <use xlink:href="#DejaVuSans-5b" x="84.277344"/>
     <use xlink:href="#DejaVuSans-6b" x="123.291016"/>
     <use xlink:href="#DejaVuSans-6d" x="181.201172"/>
     <use xlink:href="#DejaVuSans-5d" x="278.613281"/>
    </g>
   </g>
   <g id="Line3DCollection_3">
    <path d="M 358.016558 204.018437 
L 185.240279 155.041515 
L 77.497831 243.09087 
" style="fill: none; stroke: #b0b0b0; stroke-width: 0.8"/>
    <path d="M 359.825917 164.506661 
L 184.800759 116.819756 
L 75.547584 202.592736 
" style="fill: none; stroke: #b0b0b0; stroke-width: 0.8"/>
    <path d="M 361.683477 123.942297 
L 184.350102 77.629432 
L 73.543357 160.973667 
" style="fill: none; stroke: #b0b0b0; stroke-width: 0.8"/>
   </g>
   <g id="xtick_7">
    <g id="line2d_10">
     <path d="M 356.565903 203.607219 
L 360.92135 204.841858 
" style="fill: none; stroke: #000000; stroke-width: 0.8; stroke-linecap: square"/>
    </g>
    <g id="text_10">
     <!-- −5000 -->
     <g transform="translate(349.365721 213.611269) scale(0.16 -0.16)">
      <use xlink:href="#DejaVuSans-2212"/>
      <use xlink:href="#DejaVuSans-35" x="83.789062"/>
      <use xlink:href="#DejaVuSans-30" x="147.412109"/>
      <use xlink:href="#DejaVuSans-30" x="211.035156"/>
      <use xlink:href="#DejaVuSans-30" x="274.658203"/>
     </g>
    </g>
   </g>
   <g id="xtick_8">
    <g id="line2d_11">
     <path d="M 358.355469 164.106026 
L 362.770388 165.308904 
" style="fill: none; stroke: #000000; stroke-width: 0.8; stroke-linecap: square"/>
    </g>
    <g id="text_11">
     <!-- 0 -->
     <g transform="translate(373.385689 174.165565) scale(0.16 -0.16)">
      <use xlink:href="#DejaVuSans-30"/>
     </g>
    </g>
   </g>
   <g id="xtick_9">
    <g id="line2d_12">
     <path d="M 360.192689 123.552959 
L 364.668726 124.721932 
" style="fill: none; stroke: #000000; stroke-width: 0.8; stroke-linecap: square"/>
    </g>
    <g id="text_12">
     <!-- 5000 -->
     <g transform="translate(360.216278 133.67172) scale(0.16 -0.16)">
      <use xlink:href="#DejaVuSans-35"/>
      <use xlink:href="#DejaVuSans-30" x="63.623047"/>
      <use xlink:href="#DejaVuSans-30" x="127.246094"/>
      <use xlink:href="#DejaVuSans-30" x="190.869141"/>
     </g>
    </g>
   </g>
  </g>
  <g id="axes_1">
   <g id="line2d_13">
    <path d="M 225.93556 113.976063 
L 221.437255 113.62981 
L 216.931555 113.480544 
L 212.430752 113.528657 
L 207.947125 113.774033 
L 203.492913 114.21605 
L 199.080289 114.853578 
L 194.721327 115.684983 
L 190.42798 116.708129 
L 186.212053 117.92038 
L 182.085168 119.318607 
L 178.058746 120.89919 
L 174.143971 122.658025 
L 170.351771 124.590531 
L 166.692784 126.691659 
L 163.177332 128.955898 
L 159.815397 131.377287 
L 156.616593 133.949425 
L 153.590136 136.665485 
L 150.744824 139.518221 
L 148.089005 142.499991 
L 145.630555 145.602766 
L 143.376852 148.818147 
L 141.334754 152.137387 
L 139.51057 155.551406 
L 137.910045 159.050814 
L 136.538329 162.625932 
L 135.399967 166.266814 
L 134.498868 169.963273 
L 133.838297 173.704904 
L 133.42085 177.481114 
L 133.248444 181.281149 
L 133.322302 185.094121 
L 133.642938 188.909042 
L 134.210154 192.714851 
L 135.023023 196.500449 
L 136.079893 200.254734 
L 137.378376 203.96663 
L 138.915351 207.625124 
L 140.686963 211.219304 
L 142.688632 214.738388 
L 144.915054 218.171766 
L 147.360214 221.509033 
L 150.017396 224.740023 
L 152.879201 227.854848 
L 155.937563 230.843932 
L 159.18377 233.698044 
L 162.608489 236.408334 
L 166.20179 238.966363 
L 169.953175 241.364139 
L 173.851613 243.594143 
L 177.88557 245.64936 
L 182.04305 247.523306 
L 186.311627 249.210054 
L 190.678494 250.704256 
L 195.1305 252.001164 
L 199.654196 253.096653 
L 204.23588 253.987231 
L 208.861649 254.670059 
L 213.517441 255.142959 
L 218.189087 255.404424 
L 222.862361 255.453626 
L 227.523031 255.290413 
L 232.156905 254.915319 
L 236.749886 254.329552 
L 241.288017 253.534997 
L 245.757534 252.534203 
L 250.14491 251.330374 
L 254.436902 249.927357 
L 258.620599 248.329625 
L 262.683462 246.54226 
L 266.613369 244.570931 
L 270.398652 242.421873 
L 274.028134 240.101861 
L 277.491168 237.618187 
L 280.777666 234.978627 
L 283.878128 232.191413 
L 286.783676 229.265205 
L 289.48607 226.209053 
L 291.977736 223.032369 
L 294.251782 219.74489 
L 296.302016 216.356645 
L 298.122958 212.877916 
L 299.709849 209.319209 
L 301.058665 205.691211 
L 302.166112 202.004761 
L 303.029638 198.270809 
L 303.647426 194.500387 
L 304.018396 190.704566 
L 304.142195 186.894432 
L 304.019195 183.081045 
L 303.650478 179.27541 
L 303.037831 175.488445 
L 302.183726 171.730949 
L 301.091308 168.013575 
L 299.764379 164.346801 
L 298.207378 160.740901 
L 296.425362 157.205921 
L 294.423985 153.751653 
L 292.209479 150.387614 
L 289.788624 147.123019 
L 287.168731 143.966765 
L 284.357616 140.92741 
L 281.363572 138.013152 
L 278.195345 135.231815 
L 274.862109 132.590832 
L 271.373438 130.09723 
L 267.739279 127.757614 
L 263.969925 125.578161 
L 260.075989 123.564601 
L 256.068374 121.722212 
L 251.958246 120.055808 
L 247.757008 118.569731 
L 243.476272 117.267845 
L 239.127828 116.153528 
L 234.723622 115.229666 
L 230.275722 114.49865 
L 225.796295 113.96237 
L 221.297576 113.622215 
L 216.791842 113.479067 
L 212.291387 113.533302 
L 207.808489 113.784789 
L 203.355385 114.232889 
L 198.944243 114.876456 
L 194.587137 115.713842 
L 190.296015 116.742895 
L 186.082674 117.960964 
L 181.958734 119.364903 
L 177.935607 120.951078 
L 174.024471 122.71537 
L 170.236244 124.653184 
L 166.581554 126.759456 
L 163.070714 129.02866 
L 159.713696 131.454823 
L 156.5201 134.03153 
L 153.499131 136.751939 
L 150.659572 139.608794 
L 148.009757 142.594439 
L 145.557548 145.700834 
L 143.310308 148.919569 
L 141.274875 152.241886 
L 139.457544 155.658697 
L 137.86404 159.1606 
L 136.499496 162.737908 
L 135.368436 166.380668 
L 134.474751 170.078685 
L 133.821683 173.821549 
L 133.41181 177.59866 
L 133.247026 181.399261 
L 133.328533 185.212459 
L 133.656823 189.027263 
L 134.231674 192.832612 
L 135.052139 196.617406 
L 136.116541 200.370543 
L 137.42247 204.080947 
L 138.966783 207.737611 
L 140.745603 211.329623 
L 142.754325 214.846208 
L 144.987624 218.276761 
L 147.439463 221.610883 
L 150.103106 224.838417 
L 152.971131 227.949485 
L 156.035452 230.93452 
L 159.287339 233.784303 
L 162.717438 236.489995 
L 166.315802 239.043172 
L 170.071916 241.435856 
L 173.974732 243.660542 
L 178.012703 245.710232 
L 182.173816 247.578459 
L 186.445637 249.259313 
L 190.815343 250.747464 
L 195.269776 252.038185 
L 199.795477 253.127368 
L 204.378739 254.011543 
L 209.005651 254.687889 
L 213.662148 255.154252 
L 218.334058 255.409143 
L 223.007156 255.451756 
L 227.667207 255.281961 
L 232.300025 254.900311 
L 236.891514 254.308038 
L 241.427723 253.507045 
L 245.894895 252.499903 
L 250.27951 251.289836 
L 254.568336 249.88071 
L 258.748473 248.277018 
L 262.807393 246.483859 
L 266.732988 244.506922 
L 270.513605 242.352457 
L 274.138083 240.027258 
L 277.595791 237.53863 
L 280.876659 234.894365 
L 283.971208 232.102708 
L 286.870576 229.172332 
L 289.566546 226.112299 
L 292.051563 222.932031 
L 294.318758 219.641275 
L 296.36196 216.250067 
L 298.175712 212.7687 
L 299.755277 209.207682 
L 301.096653 205.577708 
L 302.196571 201.889619 
L 303.0525 198.15437 
L 303.662647 194.382993 
L 304.025953 190.586562 
L 304.142089 186.776161 
L 304.011449 182.96285 
L 303.635138 179.15763 
L 303.014962 175.371416 
L 302.153416 171.615005 
L 301.053665 167.899044 
L 299.719531 164.234005 
L 298.155473 160.630154 
L 296.366566 157.097531 
L 294.358484 153.64592 
L 292.137473 150.284828 
L 289.710333 147.023461 
L 287.084391 143.870706 
L 284.267475 140.835109 
L 281.267895 137.924857 
L 278.094411 135.147764 
L 274.756209 132.511248 
L 271.262875 130.022323 
L 267.624367 127.687584 
L 263.850988 125.513192 
L 259.953361 123.504863 
L 255.942397 121.667862 
L 251.829271 120.006988 
L 247.625393 118.526568 
L 243.342378 117.230451 
L 238.992025 116.121999 
L 234.586282 115.204084 
L 230.137221 114.479082 
L 225.657011 113.948866 
L 221.157889 113.61481 
L 216.652135 113.47778 
L 212.15204 113.538137 
L 207.669882 113.795734 
L 203.217896 114.249915 
L 198.808249 114.899521 
L 194.45301 115.742886 
L 190.164123 116.777843 
L 185.953382 118.001726 
L 181.832397 119.411374 
L 177.812576 121.003137 
L 173.905089 122.772882 
L 170.120845 124.715999 
L 166.470462 126.827409 
L 162.964245 129.101574 
L 159.612152 131.532504 
L 156.423773 134.113772 
L 153.4083 136.838524 
L 150.574502 139.699491 
L 147.9307 142.689003 
L 145.484739 145.79901 
L 143.243967 149.021091 
L 141.215206 152.346478 
L 139.404733 155.766069 
L 137.818255 159.270458 
L 136.460887 162.849947 
L 135.337133 166.494575 
L 134.450864 170.194141 
L 133.805303 173.938226 
L 133.403006 177.716229 
L 133.245845 181.517384 
L 133.335001 185.330798 
L 133.670944 189.145476 
L 134.25343 192.950354 
L 135.081489 196.734333 
L 136.153421 200.486311 
L 137.466794 204.195214 
L 139.018441 207.850036 
L 140.804463 211.43987 
L 142.820234 214.953945 
L 145.060405 218.381662 
L 147.518917 221.71263 
L 150.189012 224.936699 
L 153.06325 228.044001 
L 156.133523 231.024978 
L 159.39108 233.870423 
L 162.826549 236.57151 
L 166.429966 239.119827 
L 170.190798 241.507411 
L 174.097982 243.726773 
L 178.139954 245.770929 
L 182.30469 247.633431 
L 186.57974 249.308386 
L 190.952274 250.790483 
L 195.40912 252.075012 
L 199.936814 253.157886 
L 204.521639 254.035654 
L 209.149681 254.705518 
L 213.806869 255.165341 
L 218.479031 255.413658 
L 223.151938 255.449682 
L 227.811358 255.273305 
L 232.443105 254.885101 
L 237.033089 254.286323 
L 241.567363 253.478895 
L 246.032177 252.465408 
L 250.414019 251.249106 
L 254.699667 249.833876 
L 258.87623 248.224228 
L 262.931196 246.425281 
L 266.852468 244.442741 
L 270.628408 242.282877 
L 274.247872 239.952498 
L 277.700244 237.458924 
L 280.975474 234.809961 
L 284.0641 232.01387 
L 286.957281 229.079334 
L 289.646819 226.015429 
L 292.125181 222.831586 
L 294.385519 219.537563 
L 296.421684 216.143403 
L 298.228241 212.659406 
L 299.800476 209.096088 
L 301.13441 205.464148 
L 302.226796 201.774432 
L 303.075126 198.037896 
L 303.67763 194.265576 
L 304.033272 190.468545 
L 304.141746 186.657887 
L 304.003467 182.844661 
L 303.619563 179.039867 
L 302.991861 175.254417 
L 302.122877 171.499101 
L 301.015796 167.784562 
L 299.674462 164.121267 
L 298.103351 160.519476 
L 296.307559 156.98922 
L 294.292777 153.540274 
L 292.065269 150.182138 
L 289.631851 146.924007 
L 286.999866 143.774759 
L 284.177158 140.742928 
L 281.172051 137.83669 
L 277.993319 135.063847 
L 274.65016 132.431805 
L 271.152172 129.947565 
L 267.509324 127.617708 
L 263.731932 125.448382 
L 259.830624 123.44529 
L 255.816323 121.613682 
L 251.700209 119.958341 
L 247.493701 118.483581 
L 243.20842 117.193236 
L 238.856169 116.090653 
L 234.4489 115.178688 
L 229.998689 114.459701 
L 225.517708 113.935551 
L 221.018196 113.607594 
L 216.512433 113.476683 
L 212.012709 113.543162 
L 207.531303 113.806868 
L 203.080447 114.26713 
L 198.672307 114.922773 
L 194.318946 115.772115 
L 190.032307 116.812973 
L 185.824175 118.042667 
L 185.824175 118.042667 
" clip-path="url(#p227dee5386)" style="fill: none; stroke: #2b737e; stroke-width: 1.5; stroke-linecap: square"/>
   </g>
   <g id="line2d_14">
    <path d="M 221.947092 114.986626 
L 216.710994 114.35144 
L 211.484027 113.937772 
L 206.281531 113.743264 
L 201.118278 113.765029 
L 196.008465 113.999696 
L 190.965714 114.44345 
L 186.003076 115.092076 
L 181.13304 115.940991 
L 176.36754 116.985276 
L 171.717967 118.21971 
L 167.195184 119.638793 
L 162.809539 121.236769 
L 158.570876 123.007651 
L 154.488553 124.945234 
L 150.571455 127.043111 
L 146.828005 129.294691 
L 143.266178 131.693207 
L 139.893513 134.231726 
L 136.717121 136.903156 
L 133.743697 139.700257 
L 130.979526 142.615639 
L 128.430489 145.641774 
L 126.102068 148.770993 
L 123.999349 151.995493 
L 122.127025 155.307335 
L 120.489394 158.69845 
L 119.09036 162.160635 
L 117.933426 165.685558 
L 117.021694 169.264756 
L 116.357855 172.889641 
L 115.944186 176.551493 
L 115.782534 180.241469 
L 115.874311 183.950601 
L 116.22048 187.6698 
L 116.821544 191.389859 
L 117.677525 195.101458 
L 118.787956 198.795166 
L 120.15186 202.461451 
L 121.767732 206.090685 
L 123.63352 209.673156 
L 125.746609 213.199073 
L 128.103794 216.658582 
L 130.701266 220.041778 
L 133.534586 223.338721 
L 136.598667 226.539455 
L 139.887749 229.634025 
L 143.395382 232.6125 
L 147.114402 235.465 
L 151.036916 238.18172 
L 155.154278 240.752961 
L 159.457076 243.169162 
L 163.935117 245.420937 
L 168.577412 247.499113 
L 173.372171 249.394769 
L 178.306793 251.099283 
L 183.367863 252.60438 
L 188.54116 253.902179 
L 193.811657 254.98525 
L 199.163541 255.846666 
L 204.580229 256.480064 
L 210.044393 256.879705 
L 215.538 257.040534 
L 221.04235 256.958245 
L 226.538132 256.629344 
L 232.005482 256.051213 
L 237.424057 255.222173 
L 242.773117 254.141545 
L 248.031618 252.809705 
L 252.329203 251.508983 
L 256.536804 250.036299 
L 260.642086 248.393707 
L 264.632775 246.583852 
L 268.496714 244.609986 
L 272.221924 242.475968 
L 275.796665 240.18628 
L 279.209499 237.746017 
L 282.449353 235.160892 
L 285.505588 232.437222 
L 288.368061 229.581915 
L 291.027192 226.602457 
L 293.474026 223.506879 
L 295.700294 220.303737 
L 297.698471 217.002071 
L 299.461831 213.611372 
L 300.98449 210.14153 
L 302.261456 206.602793 
L 303.288659 203.005709 
L 304.062984 199.361073 
L 304.58229 195.679867 
L 304.845425 191.973199 
L 304.852227 188.252243 
L 304.603524 184.528172 
L 304.10112 180.8121 
L 303.347772 177.11502 
L 302.347166 173.447741 
L 301.103876 169.820836 
L 299.623323 166.24459 
L 297.911728 162.728944 
L 295.976054 159.283458 
L 293.823951 155.917268 
L 291.463691 152.639052 
L 288.904107 149.457001 
L 286.154527 146.378796 
L 283.224708 143.411589 
L 280.124767 140.561992 
L 276.865125 137.836069 
L 273.456438 135.239332 
L 269.909539 132.776743 
L 265.48625 130.004894 
L 260.898764 127.439172 
L 256.166151 125.085122 
L 251.307393 122.947247 
L 246.341282 121.029062 
L 241.286343 119.333135 
L 236.160754 117.86115 
L 230.98229 116.613951 
L 225.768271 115.591606 
L 220.535523 114.793462 
L 215.300344 114.218193 
L 210.078487 113.863862 
L 204.88514 113.727963 
L 199.73492 113.807474 
L 194.641869 114.0989 
L 189.619454 114.598316 
L 184.680574 115.301402 
L 179.837567 116.203482 
L 175.102219 117.299554 
L 170.485779 118.584319 
L 165.998968 120.052205 
L 161.651998 121.697393 
L 157.454581 123.513834 
L 153.415944 125.495268 
L 149.544848 127.635237 
L 145.849593 129.927102 
L 142.338037 132.364049 
L 139.0176 134.939103 
L 135.895283 137.645131 
L 132.977668 140.474852 
L 130.270931 143.420838 
L 127.780845 146.475523 
L 125.512784 149.631202 
L 123.47173 152.880035 
L 121.662268 156.214048 
L 120.08859 159.625135 
L 118.754493 163.105058 
L 117.663372 166.645451 
L 116.818219 170.237817 
L 116.221615 173.873531 
L 115.87572 177.543841 
L 115.782267 181.239869 
L 115.942547 184.952614 
L 116.357401 188.672957 
L 117.027203 192.391657 
L 117.951846 196.099365 
L 119.130726 199.786623 
L 120.562725 203.443872 
L 122.246194 207.06146 
L 124.178931 210.629651 
L 126.358163 214.138638 
L 128.780525 217.578552 
L 131.442041 220.939475 
L 134.338097 224.211463 
L 137.463429 227.384557 
L 140.812092 230.448806 
L 144.377446 233.394291 
L 148.152132 236.211149 
L 152.128056 238.8896 
L 156.296366 241.41998 
L 160.647442 243.792771 
L 165.170877 245.998641 
L 169.855468 248.02848 
L 174.689206 249.873443 
L 179.659269 251.524998 
L 184.752028 252.97497 
L 189.95304 254.215594 
L 195.247067 255.239571 
L 200.618085 256.04012 
L 206.049307 256.611039 
L 211.523213 256.946769 
L 217.021584 257.042449 
L 222.525551 256.893987 
L 228.015645 256.498118 
L 233.471867 255.852472 
L 238.873759 254.955633 
L 244.200489 253.8072 
L 248.566792 252.658435 
L 252.853933 251.336384 
L 257.049566 249.842594 
L 261.141359 248.17919 
L 265.11705 246.348892 
L 268.964501 244.355025 
L 272.671759 242.201528 
L 276.227118 239.892955 
L 279.619181 237.434481 
L 282.836926 234.831892 
L 285.869771 232.091578 
L 288.707639 229.220522 
L 291.341023 226.226277 
L 293.761051 223.116942 
L 295.959543 219.901133 
L 297.929069 216.587949 
L 299.663004 213.186932 
L 301.155573 209.70802 
L 302.401895 206.1615 
L 303.398018 202.557954 
L 304.140945 198.908204 
L 304.628658 195.223249 
L 304.860125 191.514211 
L 304.835308 187.792266 
L 304.555157 184.068583 
L 304.021593 180.354264 
L 303.237492 176.660282 
L 302.206649 172.997422 
L 300.933748 169.376223 
L 299.42431 165.806929 
L 297.68465 162.299438 
L 295.72182 158.86326 
L 293.54355 155.507474 
L 291.158185 152.240701 
L 288.574623 149.071069 
L 285.802248 146.006195 
L 282.850864 143.053166 
L 279.730631 140.218526 
L 276.452001 137.50827 
L 273.025656 134.927842 
L 269.462445 132.482137 
L 265.021377 129.731215 
L 260.418076 127.187039 
L 255.671607 124.855046 
L 250.800936 122.739635 
L 245.824834 120.84422 
L 240.761791 119.171278 
L 235.629947 117.722401 
L 230.447033 116.498353 
L 225.230319 115.499124 
L 219.996577 114.72399 
L 214.762051 114.171559 
L 209.542437 113.839832 
L 204.352863 113.72625 
L 199.207888 113.82774 
L 194.121495 114.14076 
L 189.107091 114.661342 
L 184.177518 115.38513 
L 179.345056 116.307411 
L 174.621436 117.423152 
L 170.01785 118.727025 
L 165.544969 120.213431 
L 161.21295 121.876527 
L 157.031456 123.710241 
L 153.009666 125.708291 
L 149.156291 127.864203 
L 145.479586 130.171316 
L 141.987363 132.622802 
L 138.687 135.211667 
L 135.585453 137.930764 
L 132.689263 140.772795 
L 130.004562 143.73032 
L 127.537084 146.795757 
L 125.292163 149.961387 
L 123.274738 153.219356 
L 121.489354 156.561677 
L 119.940164 159.980231 
L 118.630923 163.466766 
L 117.564984 167.012902 
L 116.745298 170.610129 
L 116.174403 174.24981 
L 115.854415 177.923178 
L 115.787022 181.621344 
L 115.97347 185.335295 
L 116.414552 189.055896 
L 117.110594 192.773899 
L 118.061437 196.479941 
L 119.266427 200.164553 
L 120.724391 203.818167 
L 122.433624 207.431122 
L 124.391866 210.993675 
L 126.596285 214.49601 
L 129.043453 217.928252 
L 131.729329 221.280482 
L 134.649235 224.542753 
L 137.797836 227.705104 
L 141.169118 230.757587 
L 144.756366 233.690289 
L 148.552148 236.493353 
L 152.548292 239.15701 
L 156.735869 241.671608 
L 161.105176 244.027648 
L 165.645727 246.215819 
L 170.346235 248.227035 
L 175.194608 250.052482 
L 180.177941 251.683662 
L 185.28252 253.11244 
L 190.493822 254.331098 
L 195.796525 255.332384 
L 201.174527 256.109577 
L 206.610963 256.656537 
L 212.088239 256.967774 
L 217.588068 257.038505 
L 223.091515 256.864717 
L 228.579055 256.443237 
L 234.030638 255.771788 
L 239.425762 254.849057 
L 244.743563 253.674751 
L 249.100758 252.504521 
L 253.377267 251.161166 
L 257.560743 249.646301 
L 261.63886 247.962127 
L 265.599368 246.111437 
L 269.430149 244.09763 
L 273.119277 241.924722 
L 276.65508 239.597344 
L 280.026204 237.120746 
L 283.221678 234.50079 
L 286.230978 231.74394 
L 289.044096 228.85725 
L 290.633849 227.066061 
L 290.633849 227.066061 
" clip-path="url(#p227dee5386)" style="fill: none; stroke: #5ea04b; stroke-width: 1.5; stroke-linecap: square"/>
   </g>
   <g id="line2d_15">
    <path d="M 233.276366 100.608332 
L 228.364736 100.019805 
L 223.426089 99.64065 
L 218.472706 99.470661 
L 213.51677 99.509137 
L 208.570341 99.754891 
L 203.645328 100.206268 
L 198.753475 100.861151 
L 193.90633 101.716983 
L 189.115233 102.770776 
L 184.391291 104.019128 
L 179.745365 105.458232 
L 175.188051 107.0839 
L 170.729667 108.891568 
L 166.380236 110.876316 
L 162.149473 113.032879 
L 158.046773 115.355666 
L 154.0812 117.838769 
L 150.261472 120.47598 
L 146.595956 123.260804 
L 143.092653 126.186473 
L 139.75919 129.245962 
L 136.602811 132.431998 
L 133.630371 135.737079 
L 130.848323 139.153482 
L 128.262714 142.673281 
L 125.879173 146.288361 
L 123.702912 149.990425 
L 121.738711 153.771016 
L 119.990913 157.621525 
L 118.463422 161.533206 
L 117.159694 165.49719 
L 116.082729 169.504499 
L 115.23507 173.546061 
L 114.618794 177.612721 
L 114.23551 181.695258 
L 114.086352 185.784399 
L 114.171977 189.870835 
L 114.492558 193.945234 
L 115.047782 197.998255 
L 115.83685 202.020568 
L 116.858467 206.002868 
L 118.110846 209.93589 
L 119.591703 213.810425 
L 121.298257 217.61734 
L 123.227229 221.347595 
L 125.37484 224.992256 
L 127.736815 228.542518 
L 130.308382 231.98972 
L 133.084274 235.325367 
L 136.058735 238.541145 
L 139.225517 241.628943 
L 142.577893 244.580872 
L 146.108657 247.389285 
L 149.810134 250.046794 
L 153.674186 252.546296 
L 157.692223 254.880989 
L 161.855214 257.044393 
L 166.153695 259.030373 
L 170.577788 260.833158 
L 175.117214 262.447361 
L 179.761305 263.868 
L 184.499031 265.090519 
L 189.31901 266.110808 
L 194.209539 266.92522 
L 199.15861 267.530592 
L 204.153939 267.924265 
L 209.182991 268.104098 
L 214.233011 268.068486 
L 219.291052 267.816377 
L 224.344013 267.347285 
L 229.378665 266.661303 
L 234.381694 265.759117 
L 239.339738 264.64201 
L 244.239422 263.31188 
L 249.067405 261.771235 
L 253.81042 260.023205 
L 258.455315 258.071542 
L 262.989102 255.920615 
L 267.398999 253.575413 
L 271.672481 251.041536 
L 275.79732 248.325185 
L 279.761638 245.433151 
L 283.553948 242.372803 
L 287.163205 239.152066 
L 290.578847 235.779404 
L 293.790841 232.263795 
L 296.789725 228.614702 
L 299.566649 224.842046 
L 302.113412 220.956175 
L 304.422501 216.967825 
L 306.487118 212.888085 
L 308.301216 208.728359 
L 309.859523 204.500318 
L 311.157561 200.215866 
L 312.191671 195.887087 
L 312.849751 192.254726 
L 313.321377 188.607191 
L 313.605763 184.951632 
L 313.702537 181.295202 
L 313.611731 177.645043 
L 313.333789 174.008265 
L 312.869556 170.391925 
L 312.220275 166.803017 
L 311.387586 163.248444 
L 310.373513 159.735008 
L 308.920605 155.582585 
L 307.214828 151.5103 
L 305.261766 147.52912 
L 303.067707 143.649656 
L 300.639611 139.882134 
L 297.985079 136.236363 
L 295.112311 132.721707 
L 292.03007 129.347063 
L 288.747641 126.120837 
L 285.274791 123.050928 
L 281.621729 120.144712 
L 277.79906 117.409026 
L 273.817749 114.850162 
L 269.689073 112.473858 
L 265.424588 110.285292 
L 261.036079 108.289079 
L 256.53553 106.489273 
L 251.935079 104.889367 
L 247.246984 103.492297 
L 242.483587 102.300443 
L 237.657278 101.315643 
L 232.780464 100.539196 
L 227.865535 99.971871 
L 222.924837 99.61392 
L 217.970643 99.465086 
L 213.015123 99.524619 
L 208.070322 99.791284 
L 203.148137 100.263376 
L 198.260289 100.938737 
L 193.418308 101.814764 
L 188.63351 102.888425 
L 183.91698 104.156277 
L 179.279551 105.614476 
L 174.731792 107.258792 
L 170.283992 109.084625 
L 165.946143 111.087021 
L 161.727929 113.260681 
L 157.638711 115.59998 
L 153.687519 118.098979 
L 149.883036 120.751442 
L 146.233592 123.550844 
L 142.74715 126.490392 
L 139.431299 129.563033 
L 136.293246 132.761472 
L 133.339803 136.078183 
L 130.577383 139.505423 
L 128.011991 143.035245 
L 125.649216 146.659515 
L 123.494223 150.369921 
L 121.55175 154.157988 
L 119.826096 158.015093 
L 118.32112 161.932476 
L 117.040231 165.901259 
L 115.986383 169.912452 
L 115.162073 173.956973 
L 114.569331 178.025661 
L 114.209718 182.10929 
L 114.084318 186.198581 
L 114.193741 190.284223 
L 114.538111 194.356881 
L 115.117066 198.407215 
L 115.929755 202.425899 
L 116.974834 206.403628 
L 118.250468 210.331143 
L 119.75432 214.199243 
L 121.48356 217.998804 
L 123.434857 221.720793 
L 125.604383 225.356291 
L 127.987813 228.896505 
L 130.580323 232.332792 
L 133.376599 235.656672 
L 136.370831 238.859853 
L 139.556726 241.934244 
L 142.927506 244.871981 
L 146.475919 247.66544 
L 150.194241 250.307264 
L 154.074288 252.790377 
L 158.107426 255.108009 
L 162.284578 257.253716 
L 166.596239 259.221397 
L 171.032489 261.00532 
L 175.583008 262.600137 
L 180.237092 264.000909 
L 184.983673 265.203125 
L 189.811337 266.202719 
L 194.708347 266.996093 
L 199.662668 267.580136 
L 204.661987 267.952238 
L 209.693747 268.110313 
L 214.745172 268.052811 
L 219.803299 267.778737 
L 224.855009 267.287663 
L 229.887066 266.579742 
L 234.886148 265.655718 
L 239.83889 264.516939 
L 244.731919 263.165362 
L 249.5519 261.603559 
L 254.285573 259.834722 
L 258.919803 257.862667 
L 263.44162 255.691825 
L 267.838266 253.327248 
L 272.097244 250.774597 
L 276.20636 248.040132 
L 280.153772 245.130705 
L 283.928038 242.053742 
L 287.518157 238.817223 
L 290.91362 235.429666 
L 294.10445 231.900097 
L 297.081245 228.23803 
L 299.835219 224.453429 
L 302.35824 220.556684 
L 304.642865 216.558567 
L 306.68237 212.470201 
L 308.470788 208.30302 
L 310.002923 204.06872 
L 311.274381 199.779226 
L 312.281588 195.446637 
L 312.917061 191.81205 
L 313.365962 188.163158 
L 313.627557 184.507111 
L 313.701521 180.851063 
L 313.587939 177.202151 
L 313.287301 173.567481 
L 312.800501 169.954104 
L 312.128833 166.369002 
L 311.273982 162.819068 
L 310.238018 159.311091 
L 308.759265 155.166276 
L 307.028175 151.102726 
L 305.050404 147.131371 
L 302.832312 143.262787 
L 300.380925 139.507158 
L 297.703905 135.874248 
L 294.809511 132.373377 
L 291.706562 129.013391 
L 288.404393 125.802648 
L 284.912817 122.748993 
L 281.242086 119.859747 
L 277.402844 117.141694 
L 273.406087 114.60107 
L 269.263125 112.243555 
L 264.985537 110.074271 
L 260.585131 108.097777 
L 256.073907 106.318069 
L 251.464019 104.738584 
L 246.767733 103.3622 
L 241.997399 102.191244 
L 237.165409 101.227498 
L 232.28417 100.472206 
L 227.366069 99.926086 
L 222.423447 99.589336 
L 217.468565 99.461649 
L 212.513584 99.542226 
L 207.570535 99.829784 
L 202.651296 100.322571 
L 197.767572 101.018383 
L 192.930872 101.914573 
L 188.152488 103.008067 
L 183.44348 104.295381 
L 178.814656 105.772629 
L 174.276559 107.435546 
L 169.839445 109.279495 
L 165.513278 111.299484 
L 161.307708 113.490183 
L 157.232064 115.845933 
L 153.295342 118.360765 
L 149.506189 121.028413 
L 145.872899 123.842323 
L 142.403396 126.795677 
L 139.105233 129.881396 
L 135.985575 133.092161 
L 133.051195 136.420423 
L 130.308465 139.858417 
L 127.763347 143.39818 
L 125.421389 147.031555 
L 123.287714 150.750215 
L 121.367013 154.545669 
L 119.663543 158.40928 
L 118.181116 162.332275 
L 116.923096 166.305764 
L 115.892392 170.320747 
L 115.091453 174.368134 
L 114.52226 178.438756 
L 114.186328 182.523381 
L 114.084694 186.612727 
L 114.217916 190.697478 
L 114.586071 194.768299 
L 115.188747 198.815852 
L 116.025044 202.83081 
L 117.093568 206.803873 
L 118.392431 210.725788 
L 119.919249 214.587359 
L 121.671141 218.379472 
L 123.644724 222.093104 
L 125.836121 225.719348 
L 128.240956 229.249427 
L 130.854356 232.674711 
L 133.670954 235.98674 
L 134.653978 237.064146 
L 134.653978 237.064146 
" clip-path="url(#p227dee5386)" style="fill: none; stroke: #bdab62; stroke-width: 1.5; stroke-linecap: square"/>
   </g>
   <g id="Path3DCollection_1">
    <defs>
     <path id="ma6bc796dec" d="M 0 2.236068 
C 0.593012 2.236068 1.161816 2.000462 1.581139 1.581139 
C 2.000462 1.161816 2.236068 0.593012 2.236068 0 
C 2.236068 -0.593012 2.000462 -1.161816 1.581139 -1.581139 
C 1.161816 -2.000462 0.593012 -2.236068 0 -2.236068 
C -0.593012 -2.236068 -1.161816 -2.000462 -1.581139 -1.581139 
C -2.000462 -1.161816 -2.236068 -0.593012 -2.236068 0 
C -2.236068 0.593012 -2.000462 1.161816 -1.581139 1.581139 
C -1.161816 2.000462 -0.593012 2.236068 0 2.236068 
z
" style="stroke: #1e90ff"/>
    </defs>
    <g clip-path="url(#p227dee5386)">
     <use xlink:href="#ma6bc796dec" x="220.368674" y="183.190389" style="fill: #1e90ff; stroke: #1e90ff"/>
    </g>
   </g>
   <g id="text_13">
    <!-- Spacecraft Inertial Orbits -->
    <g transform="translate(140.86125 19.918125) scale(0.12 -0.12)">
     <defs>
      <path id="DejaVuSans-53" d="M 3425 4513 
L 3425 3897 
Q 3066 4069 2747 4153 
Q 2428 4238 2131 4238 
Q 1616 4238 1336 4038 
Q 1056 3838 1056 3469 
Q 1056 3159 1242 3001 
Q 1428 2844 1947 2747 
L 2328 2669 
Q 3034 2534 3370 2195 
Q 3706 1856 3706 1288 
Q 3706 609 3251 259 
Q 2797 -91 1919 -91 
Q 1588 -91 1214 -16 
Q 841 59 441 206 
L 441 856 
Q 825 641 1194 531 
Q 1563 422 1919 422 
Q 2459 422 2753 634 
Q 3047 847 3047 1241 
Q 3047 1584 2836 1778 
Q 2625 1972 2144 2069 
L 1759 2144 
Q 1053 2284 737 2584 
Q 422 2884 422 3419 
Q 422 4038 858 4394 
Q 1294 4750 2059 4750 
Q 2388 4750 2728 4690 
Q 3069 4631 3425 4513 
z
" transform="scale(0.015625)"/>
      <path id="DejaVuSans-70" d="M 1159 525 
L 1159 -1331 
L 581 -1331 
L 581 3500 
L 1159 3500 
L 1159 2969 
Q 1341 3281 1617 3432 
Q 1894 3584 2278 3584 
Q 2916 3584 3314 3078 
Q 3713 2572 3713 1747 
Q 3713 922 3314 415 
Q 2916 -91 2278 -91 
Q 1894 -91 1617 61 
Q 1341 213 1159 525 
z
M 3116 1747 
Q 3116 2381 2855 2742 
Q 2594 3103 2138 3103 
Q 1681 3103 1420 2742 
Q 1159 2381 1159 1747 
Q 1159 1113 1420 752 
Q 1681 391 2138 391 
Q 2594 391 2855 752 
Q 3116 1113 3116 1747 
z
" transform="scale(0.015625)"/>
      <path id="DejaVuSans-61" d="M 2194 1759 
Q 1497 1759 1228 1600 
Q 959 1441 959 1056 
Q 959 750 1161 570 
Q 1363 391 1709 391 
Q 2188 391 2477 730 
Q 2766 1069 2766 1631 
L 2766 1759 
L 2194 1759 
z
M 3341 1997 
L 3341 0 
L 2766 0 
L 2766 531 
Q 2569 213 2275 61 
Q 1981 -91 1556 -91 
Q 1019 -91 701 211 
Q 384 513 384 1019 
Q 384 1609 779 1909 
Q 1175 2209 1959 2209 
L 2766 2209 
L 2766 2266 
Q 2766 2663 2505 2880 
Q 2244 3097 1772 3097 
Q 1472 3097 1187 3025 
Q 903 2953 641 2809 
L 641 3341 
Q 956 3463 1253 3523 
Q 1550 3584 1831 3584 
Q 2591 3584 2966 3190 
Q 3341 2797 3341 1997 
z
" transform="scale(0.015625)"/>
      <path id="DejaVuSans-63" d="M 3122 3366 
L 3122 2828 
Q 2878 2963 2633 3030 
Q 2388 3097 2138 3097 
Q 1578 3097 1268 2742 
Q 959 2388 959 1747 
Q 959 1106 1268 751 
Q 1578 397 2138 397 
Q 2388 397 2633 464 
Q 2878 531 3122 666 
L 3122 134 
Q 2881 22 2623 -34 
Q 2366 -91 2075 -91 
Q 1284 -91 818 406 
Q 353 903 353 1747 
Q 353 2603 823 3093 
Q 1294 3584 2113 3584 
Q 2378 3584 2631 3529 
Q 2884 3475 3122 3366 
z
" transform="scale(0.015625)"/>
      <path id="DejaVuSans-65" d="M 3597 1894 
L 3597 1613 
L 953 1613 
Q 991 1019 1311 708 
Q 1631 397 2203 397 
Q 2534 397 2845 478 
Q 3156 559 3463 722 
L 3463 178 
Q 3153 47 2828 -22 
Q 2503 -91 2169 -91 
Q 1331 -91 842 396 
Q 353 884 353 1716 
Q 353 2575 817 3079 
Q 1281 3584 2069 3584 
Q 2775 3584 3186 3129 
Q 3597 2675 3597 1894 
z
M 3022 2063 
Q 3016 2534 2758 2815 
Q 2500 3097 2075 3097 
Q 1594 3097 1305 2825 
Q 1016 2553 972 2059 
L 3022 2063 
z
" transform="scale(0.015625)"/>
      <path id="DejaVuSans-72" d="M 2631 2963 
Q 2534 3019 2420 3045 
Q 2306 3072 2169 3072 
Q 1681 3072 1420 2755 
Q 1159 2438 1159 1844 
L 1159 0 
L 581 0 
L 581 3500 
L 1159 3500 
L 1159 2956 
Q 1341 3275 1631 3429 
Q 1922 3584 2338 3584 
Q 2397 3584 2469 3576 
Q 2541 3569 2628 3553 
L 2631 2963 
z
" transform="scale(0.015625)"/>
      <path id="DejaVuSans-66" d="M 2375 4863 
L 2375 4384 
L 1825 4384 
Q 1516 4384 1395 4259 
Q 1275 4134 1275 3809 
L 1275 3500 
L 2222 3500 
L 2222 3053 
L 1275 3053 
L 1275 0 
L 697 0 
L 697 3053 
L 147 3053 
L 147 3500 
L 697 3500 
L 697 3744 
Q 697 4328 969 4595 
Q 1241 4863 1831 4863 
L 2375 4863 
z
" transform="scale(0.015625)"/>
      <path id="DejaVuSans-74" d="M 1172 4494 
L 1172 3500 
L 2356 3500 
L 2356 3053 
L 1172 3053 
L 1172 1153 
Q 1172 725 1289 603 
Q 1406 481 1766 481 
L 2356 481 
L 2356 0 
L 1766 0 
Q 1100 0 847 248 
Q 594 497 594 1153 
L 594 3053 
L 172 3053 
L 172 3500 
L 594 3500 
L 594 4494 
L 1172 4494 
z
" transform="scale(0.015625)"/>
      <path id="DejaVuSans-49" d="M 628 4666 
L 1259 4666 
L 1259 0 
L 628 0 
L 628 4666 
z
" transform="scale(0.015625)"/>
      <path id="DejaVuSans-6e" d="M 3513 2113 
L 3513 0 
L 2938 0 
L 2938 2094 
Q 2938 2591 2744 2837 
Q 2550 3084 2163 3084 
Q 1697 3084 1428 2787 
Q 1159 2491 1159 1978 
L 1159 0 
L 581 0 
L 581 3500 
L 1159 3500 
L 1159 2956 
Q 1366 3272 1645 3428 
Q 1925 3584 2291 3584 
Q 2894 3584 3203 3211 
Q 3513 2838 3513 2113 
z
" transform="scale(0.015625)"/>
      <path id="DejaVuSans-69" d="M 603 3500 
L 1178 3500 
L 1178 0 
L 603 0 
L 603 3500 
z
M 603 4863 
L 1178 4863 
L 1178 4134 
L 603 4134 
L 603 4863 
z
" transform="scale(0.015625)"/>
      <path id="DejaVuSans-6c" d="M 603 4863 
L 1178 4863 
L 1178 0 
L 603 0 
L 603 4863 
z
" transform="scale(0.015625)"/>
      <path id="DejaVuSans-4f" d="M 2522 4238 
Q 1834 4238 1429 3725 
Q 1025 3213 1025 2328 
Q 1025 1447 1429 934 
Q 1834 422 2522 422 
Q 3209 422 3611 934 
Q 4013 1447 4013 2328 
Q 4013 3213 3611 3725 
Q 3209 4238 2522 4238 
z
M 2522 4750 
Q 3503 4750 4090 4092 
Q 4678 3434 4678 2328 
Q 4678 1225 4090 567 
Q 3503 -91 2522 -91 
Q 1538 -91 948 565 
Q 359 1222 359 2328 
Q 359 3434 948 4092 
Q 1538 4750 2522 4750 
z
" transform="scale(0.015625)"/>
      <path id="DejaVuSans-62" d="M 3116 1747 
Q 3116 2381 2855 2742 
Q 2594 3103 2138 3103 
Q 1681 3103 1420 2742 
Q 1159 2381 1159 1747 
Q 1159 1113 1420 752 
Q 1681 391 2138 391 
Q 2594 391 2855 752 
Q 3116 1113 3116 1747 
z
M 1159 2969 
Q 1341 3281 1617 3432 
Q 1894 3584 2278 3584 
Q 2916 3584 3314 3078 
Q 3713 2572 3713 1747 
Q 3713 922 3314 415 
Q 2916 -91 2278 -91 
Q 1894 -91 1617 61 
Q 1341 213 1159 525 
L 1159 0 
L 581 0 
L 581 4863 
L 1159 4863 
L 1159 2969 
z
" transform="scale(0.015625)"/>
      <path id="DejaVuSans-73" d="M 2834 3397 
L 2834 2853 
Q 2591 2978 2328 3040 
Q 2066 3103 1784 3103 
Q 1356 3103 1142 2972 
Q 928 2841 928 2578 
Q 928 2378 1081 2264 
Q 1234 2150 1697 2047 
L 1894 2003 
Q 2506 1872 2764 1633 
Q 3022 1394 3022 966 
Q 3022 478 2636 193 
Q 2250 -91 1575 -91 
Q 1294 -91 989 -36 
Q 684 19 347 128 
L 347 722 
Q 666 556 975 473 
Q 1284 391 1588 391 
Q 1994 391 2212 530 
Q 2431 669 2431 922 
Q 2431 1156 2273 1281 
Q 2116 1406 1581 1522 
L 1381 1569 
Q 847 1681 609 1914 
Q 372 2147 372 2553 
Q 372 3047 722 3315 
Q 1072 3584 1716 3584 
Q 2034 3584 2315 3537 
Q 2597 3491 2834 3397 
z
" transform="scale(0.015625)"/>
     </defs>
     <use xlink:href="#DejaVuSans-53"/>
     <use xlink:href="#DejaVuSans-70" x="63.476562"/>
     <use xlink:href="#DejaVuSans-61" x="126.953125"/>
     <use xlink:href="#DejaVuSans-63" x="188.232422"/>
     <use xlink:href="#DejaVuSans-65" x="243.212891"/>
     <use xlink:href="#DejaVuSans-63" x="304.736328"/>
     <use xlink:href="#DejaVuSans-72" x="359.716797"/>
     <use xlink:href="#DejaVuSans-61" x="400.830078"/>
     <use xlink:href="#DejaVuSans-66" x="462.109375"/>
     <use xlink:href="#DejaVuSans-74" x="495.564453"/>
     <use xlink:href="#DejaVuSans-20" x="534.773438"/>
     <use xlink:href="#DejaVuSans-49" x="566.560547"/>
     <use xlink:href="#DejaVuSans-6e" x="596.052734"/>
     <use xlink:href="#DejaVuSans-65" x="659.431641"/>
     <use xlink:href="#DejaVuSans-72" x="720.955078"/>
     <use xlink:href="#DejaVuSans-74" x="762.068359"/>
     <use xlink:href="#DejaVuSans-69" x="801.277344"/>
     <use xlink:href="#DejaVuSans-61" x="829.060547"/>
     <use xlink:href="#DejaVuSans-6c" x="890.339844"/>
     <use xlink:href="#DejaVuSans-20" x="918.123047"/>
     <use xlink:href="#DejaVuSans-4f" x="949.910156"/>
     <use xlink:href="#DejaVuSans-72" x="1028.621094"/>
     <use xlink:href="#DejaVuSans-62" x="1069.734375"/>
     <use xlink:href="#DejaVuSans-69" x="1133.210938"/>
     <use xlink:href="#DejaVuSans-74" x="1160.994141"/>
     <use xlink:href="#DejaVuSans-73" x="1200.203125"/>
    </g>
   </g>
   <g id="legend_1">
    <g id="patch_6">
     <path d="M 60.659063 72.749063 
L 146.177344 72.749063 
Q 147.977344 72.749063 147.977344 70.949063 
L 147.977344 32.218125 
Q 147.977344 30.418125 146.177344 30.418125 
L 60.659063 30.418125 
Q 58.859063 30.418125 58.859063 32.218125 
L 58.859063 70.949063 
Q 58.859063 72.749063 60.659063 72.749063 
z
" style="fill: #ffffff; opacity: 0.8; stroke: #cccccc; stroke-linejoin: miter"/>
    </g>
    <g id="line2d_16">
     <path d="M 62.459063 37.706719 
L 71.459063 37.706719 
L 80.459063 37.706719 
" style="fill: none; stroke: #2b737e; stroke-width: 1.5; stroke-linecap: square"/>
    </g>
    <g id="text_14">
     <!-- Spacecraft 0 -->
     <g transform="translate(87.659063 40.856719) scale(0.09 -0.09)">
      <use xlink:href="#DejaVuSans-53"/>
      <use xlink:href="#DejaVuSans-70" x="63.476562"/>
      <use xlink:href="#DejaVuSans-61" x="126.953125"/>
      <use xlink:href="#DejaVuSans-63" x="188.232422"/>
      <use xlink:href="#DejaVuSans-65" x="243.212891"/>
      <use xlink:href="#DejaVuSans-63" x="304.736328"/>
      <use xlink:href="#DejaVuSans-72" x="359.716797"/>
      <use xlink:href="#DejaVuSans-61" x="400.830078"/>
      <use xlink:href="#DejaVuSans-66" x="462.109375"/>
      <use xlink:href="#DejaVuSans-74" x="495.564453"/>
      <use xlink:href="#DejaVuSans-20" x="534.773438"/>
      <use xlink:href="#DejaVuSans-30" x="566.560547"/>
     </g>
    </g>
    <g id="line2d_17">
     <path d="M 62.459063 50.917031 
L 71.459063 50.917031 
L 80.459063 50.917031 
" style="fill: none; stroke: #5ea04b; stroke-width: 1.5; stroke-linecap: square"/>
    </g>
    <g id="text_15">
     <!-- Spacecraft 1 -->
     <g transform="translate(87.659063 54.067031) scale(0.09 -0.09)">
      <defs>
       <path id="DejaVuSans-31" d="M 794 531 
L 1825 531 
L 1825 4091 
L 703 3866 
L 703 4441 
L 1819 4666 
L 2450 4666 
L 2450 531 
L 3481 531 
L 3481 0 
L 794 0 
L 794 531 
z
" transform="scale(0.015625)"/>
      </defs>
      <use xlink:href="#DejaVuSans-53"/>
      <use xlink:href="#DejaVuSans-70" x="63.476562"/>
      <use xlink:href="#DejaVuSans-61" x="126.953125"/>
      <use xlink:href="#DejaVuSans-63" x="188.232422"/>
      <use xlink:href="#DejaVuSans-65" x="243.212891"/>
      <use xlink:href="#DejaVuSans-63" x="304.736328"/>
      <use xlink:href="#DejaVuSans-72" x="359.716797"/>
      <use xlink:href="#DejaVuSans-61" x="400.830078"/>
      <use xlink:href="#DejaVuSans-66" x="462.109375"/>
      <use xlink:href="#DejaVuSans-74" x="495.564453"/>
      <use xlink:href="#DejaVuSans-20" x="534.773438"/>
      <use xlink:href="#DejaVuSans-31" x="566.560547"/>
     </g>
    </g>
    <g id="line2d_18">
     <path d="M 62.459063 64.127344 
L 71.459063 64.127344 
L 80.459063 64.127344 
" style="fill: none; stroke: #bdab62; stroke-width: 1.5; stroke-linecap: square"/>
    </g>
    <g id="text_16">
     <!-- Spacecraft 2 -->
     <g transform="translate(87.659063 67.277344) scale(0.09 -0.09)">
      <defs>
       <path id="DejaVuSans-32" d="M 1228 531 
L 3431 531 
L 3431 0 
L 469 0 
L 469 531 
Q 828 903 1448 1529 
Q 2069 2156 2228 2338 
Q 2531 2678 2651 2914 
Q 2772 3150 2772 3378 
Q 2772 3750 2511 3984 
Q 2250 4219 1831 4219 
Q 1534 4219 1204 4116 
Q 875 4013 500 3803 
L 500 4441 
Q 881 4594 1212 4672 
Q 1544 4750 1819 4750 
Q 2544 4750 2975 4387 
Q 3406 4025 3406 3419 
Q 3406 3131 3298 2873 
Q 3191 2616 2906 2266 
Q 2828 2175 2409 1742 
Q 1991 1309 1228 531 
z
" transform="scale(0.015625)"/>
      </defs>
      <use xlink:href="#DejaVuSans-53"/>
      <use xlink:href="#DejaVuSans-70" x="63.476562"/>
      <use xlink:href="#DejaVuSans-61" x="126.953125"/>
      <use xlink:href="#DejaVuSans-63" x="188.232422"/>
      <use xlink:href="#DejaVuSans-65" x="243.212891"/>
      <use xlink:href="#DejaVuSans-63" x="304.736328"/>
      <use xlink:href="#DejaVuSans-72" x="359.716797"/>
      <use xlink:href="#DejaVuSans-61" x="400.830078"/>
      <use xlink:href="#DejaVuSans-66" x="462.109375"/>
      <use xlink:href="#DejaVuSans-74" x="495.564453"/>
      <use xlink:href="#DejaVuSans-20" x="534.773438"/>
      <use xlink:href="#DejaVuSans-32" x="566.560547"/>
     </g>
    </g>
   </g>
  </g>
 </g>
 <defs>
  <clipPath id="p227dee5386">
   <rect x="54.359063" y="25.918125" width="323.281875" height="323.281875"/>
  </clipPath>
 </defs>
</svg>
