<?xml version="1.0" encoding="utf-8" standalone="no"?>
<!DOCTYPE svg PUBLIC "-//W3C//DTD SVG 1.1//EN"
  "http://www.w3.org/Graphics/SVG/1.1/DTD/svg11.dtd">
<svg xmlns:xlink="http://www.w3.org/1999/xlink" width="414pt" height="288pt" viewBox="0 0 414 288" xmlns="http://www.w3.org/2000/svg" version="1.1">
 <metadata>
  <rdf:RDF xmlns:dc="http://purl.org/dc/elements/1.1/" xmlns:cc="http://creativecommons.org/ns#" xmlns:rdf="http://www.w3.org/1999/02/22-rdf-syntax-ns#">
   <cc:Work>
    <dc:type rdf:resource="http://purl.org/dc/dcmitype/StillImage"/>
    <dc:date>2023-09-07T00:35:08.773691</dc:date>
    <dc:format>image/svg+xml</dc:format>
    <dc:creator>
     <cc:Agent>
      <dc:title>Matplotlib v3.7.2, https://matplotlib.org/</dc:title>
     </cc:Agent>
    </dc:creator>
   </cc:Work>
  </rdf:RDF>
 </metadata>
 <defs>
  <style type="text/css">*{stroke-linejoin: round; stroke-linecap: butt}</style>
 </defs>
 <g id="figure_1">
  <g id="patch_1">
   <path d="M 0 288 
L 414 288 
L 414 0 
L 0 0 
L 0 288 
z
" style="fill: none"/>
  </g>
  <g id="axes_1">
   <g id="patch_2">
    <path d="M 69.3 241.036875 
L 403.2 241.036875 
L 403.2 10.8 
L 69.3 10.8 
L 69.3 241.036875 
z
" style="fill: none"/>
   </g>
   <g id="matplotlib.axis_1">
    <g id="xtick_1">
     <g id="line2d_1">
      <defs>
       <path id="mcd5af17da1" d="M 0 0 
L 0 3.5 
" style="stroke: #000000; stroke-width: 0.8"/>
      </defs>
      <g>
       <use xlink:href="#mcd5af17da1" x="84.477273" y="241.036875" style="stroke: #000000; stroke-width: 0.8"/>
      </g>
     </g>
     <g id="text_1">
      <!-- 0 -->
      <g transform="translate(79.387273 260.194375) scale(0.16 -0.16)">
       <defs>
        <path id="DejaVuSans-30" d="M 2034 4250 
Q 1547 4250 1301 3770 
Q 1056 3291 1056 2328 
Q 1056 1369 1301 889 
Q 1547 409 2034 409 
Q 2525 409 2770 889 
Q 3016 1369 3016 2328 
Q 3016 3291 2770 3770 
Q 2525 4250 2034 4250 
z
M 2034 4750 
Q 2819 4750 3233 4129 
Q 3647 3509 3647 2328 
Q 3647 1150 3233 529 
Q 2819 -91 2034 -91 
Q 1250 -91 836 529 
Q 422 1150 422 2328 
Q 422 3509 836 4129 
Q 1250 4750 2034 4750 
z
" transform="scale(0.015625)"/>
       </defs>
       <use xlink:href="#DejaVuSans-30"/>
      </g>
     </g>
    </g>
    <g id="xtick_2">
     <g id="line2d_2">
      <g>
       <use xlink:href="#mcd5af17da1" x="145.186364" y="241.036875" style="stroke: #000000; stroke-width: 0.8"/>
      </g>
     </g>
     <g id="text_2">
      <!-- 2 -->
      <g transform="translate(140.096364 260.194375) scale(0.16 -0.16)">
       <defs>
        <path id="DejaVuSans-32" d="M 1228 531 
L 3431 531 
L 3431 0 
L 469 0 
L 469 531 
Q 828 903 1448 1529 
Q 2069 2156 2228 2338 
Q 2531 2678 2651 2914 
Q 2772 3150 2772 3378 
Q 2772 3750 2511 3984 
Q 2250 4219 1831 4219 
Q 1534 4219 1204 4116 
Q 875 4013 500 3803 
L 500 4441 
Q 881 4594 1212 4672 
Q 1544 4750 1819 4750 
Q 2544 4750 2975 4387 
Q 3406 4025 3406 3419 
Q 3406 3131 3298 2873 
Q 3191 2616 2906 2266 
Q 2828 2175 2409 1742 
Q 1991 1309 1228 531 
z
" transform="scale(0.015625)"/>
       </defs>
       <use xlink:href="#DejaVuSans-32"/>
      </g>
     </g>
    </g>
    <g id="xtick_3">
     <g id="line2d_3">
      <g>
       <use xlink:href="#mcd5af17da1" x="205.895455" y="241.036875" style="stroke: #000000; stroke-width: 0.8"/>
      </g>
     </g>
     <g id="text_3">
      <!-- 4 -->
      <g transform="translate(200.805455 260.194375) scale(0.16 -0.16)">
       <defs>
        <path id="DejaVuSans-34" d="M 2419 4116 
L 825 1625 
L 2419 1625 
L 2419 4116 
z
M 2253 4666 
L 3047 4666 
L 3047 1625 
L 3713 1625 
L 3713 1100 
L 3047 1100 
L 3047 0 
L 2419 0 
L 2419 1100 
L 313 1100 
L 313 1709 
L 2253 4666 
z
" transform="scale(0.015625)"/>
       </defs>
       <use xlink:href="#DejaVuSans-34"/>
      </g>
     </g>
    </g>
    <g id="xtick_4">
     <g id="line2d_4">
      <g>
       <use xlink:href="#mcd5af17da1" x="266.604545" y="241.036875" style="stroke: #000000; stroke-width: 0.8"/>
      </g>
     </g>
     <g id="text_4">
      <!-- 6 -->
      <g transform="translate(261.514545 260.194375) scale(0.16 -0.16)">
       <defs>
        <path id="DejaVuSans-36" d="M 2113 2584 
Q 1688 2584 1439 2293 
Q 1191 2003 1191 1497 
Q 1191 994 1439 701 
Q 1688 409 2113 409 
Q 2538 409 2786 701 
Q 3034 994 3034 1497 
Q 3034 2003 2786 2293 
Q 2538 2584 2113 2584 
z
M 3366 4563 
L 3366 3988 
Q 3128 4100 2886 4159 
Q 2644 4219 2406 4219 
Q 1781 4219 1451 3797 
Q 1122 3375 1075 2522 
Q 1259 2794 1537 2939 
Q 1816 3084 2150 3084 
Q 2853 3084 3261 2657 
Q 3669 2231 3669 1497 
Q 3669 778 3244 343 
Q 2819 -91 2113 -91 
Q 1303 -91 875 529 
Q 447 1150 447 2328 
Q 447 3434 972 4092 
Q 1497 4750 2381 4750 
Q 2619 4750 2861 4703 
Q 3103 4656 3366 4563 
z
" transform="scale(0.015625)"/>
       </defs>
       <use xlink:href="#DejaVuSans-36"/>
      </g>
     </g>
    </g>
    <g id="xtick_5">
     <g id="line2d_5">
      <g>
       <use xlink:href="#mcd5af17da1" x="327.313636" y="241.036875" style="stroke: #000000; stroke-width: 0.8"/>
      </g>
     </g>
     <g id="text_5">
      <!-- 8 -->
      <g transform="translate(322.223636 260.194375) scale(0.16 -0.16)">
       <defs>
        <path id="DejaVuSans-38" d="M 2034 2216 
Q 1584 2216 1326 1975 
Q 1069 1734 1069 1313 
Q 1069 891 1326 650 
Q 1584 409 2034 409 
Q 2484 409 2743 651 
Q 3003 894 3003 1313 
Q 3003 1734 2745 1975 
Q 2488 2216 2034 2216 
z
M 1403 2484 
Q 997 2584 770 2862 
Q 544 3141 544 3541 
Q 544 4100 942 4425 
Q 1341 4750 2034 4750 
Q 2731 4750 3128 4425 
Q 3525 4100 3525 3541 
Q 3525 3141 3298 2862 
Q 3072 2584 2669 2484 
Q 3125 2378 3379 2068 
Q 3634 1759 3634 1313 
Q 3634 634 3220 271 
Q 2806 -91 2034 -91 
Q 1263 -91 848 271 
Q 434 634 434 1313 
Q 434 1759 690 2068 
Q 947 2378 1403 2484 
z
M 1172 3481 
Q 1172 3119 1398 2916 
Q 1625 2713 2034 2713 
Q 2441 2713 2670 2916 
Q 2900 3119 2900 3481 
Q 2900 3844 2670 4047 
Q 2441 4250 2034 4250 
Q 1625 4250 1398 4047 
Q 1172 3844 1172 3481 
z
" transform="scale(0.015625)"/>
       </defs>
       <use xlink:href="#DejaVuSans-38"/>
      </g>
     </g>
    </g>
    <g id="xtick_6">
     <g id="line2d_6">
      <g>
       <use xlink:href="#mcd5af17da1" x="388.022727" y="241.036875" style="stroke: #000000; stroke-width: 0.8"/>
      </g>
     </g>
     <g id="text_6">
      <!-- 10 -->
      <g transform="translate(377.842727 260.194375) scale(0.16 -0.16)">
       <defs>
        <path id="DejaVuSans-31" d="M 794 531 
L 1825 531 
L 1825 4091 
L 703 3866 
L 703 4441 
L 1819 4666 
L 2450 4666 
L 2450 531 
L 3481 531 
L 3481 0 
L 794 0 
L 794 531 
z
" transform="scale(0.015625)"/>
       </defs>
       <use xlink:href="#DejaVuSans-31"/>
       <use xlink:href="#DejaVuSans-30" x="63.623047"/>
      </g>
     </g>
    </g>
    <g id="text_7">
     <!-- Time [min] -->
     <g transform="translate(209.097656 275.120313) scale(0.1 -0.1)">
      <defs>
       <path id="DejaVuSans-54" d="M -19 4666 
L 3928 4666 
L 3928 4134 
L 2272 4134 
L 2272 0 
L 1638 0 
L 1638 4134 
L -19 4134 
L -19 4666 
z
" transform="scale(0.015625)"/>
       <path id="DejaVuSans-69" d="M 603 3500 
L 1178 3500 
L 1178 0 
L 603 0 
L 603 3500 
z
M 603 4863 
L 1178 4863 
L 1178 4134 
L 603 4134 
L 603 4863 
z
" transform="scale(0.015625)"/>
       <path id="DejaVuSans-6d" d="M 3328 2828 
Q 3544 3216 3844 3400 
Q 4144 3584 4550 3584 
Q 5097 3584 5394 3201 
Q 5691 2819 5691 2113 
L 5691 0 
L 5113 0 
L 5113 2094 
Q 5113 2597 4934 2840 
Q 4756 3084 4391 3084 
Q 3944 3084 3684 2787 
Q 3425 2491 3425 1978 
L 3425 0 
L 2847 0 
L 2847 2094 
Q 2847 2600 2669 2842 
Q 2491 3084 2119 3084 
Q 1678 3084 1418 2786 
Q 1159 2488 1159 1978 
L 1159 0 
L 581 0 
L 581 3500 
L 1159 3500 
L 1159 2956 
Q 1356 3278 1631 3431 
Q 1906 3584 2284 3584 
Q 2666 3584 2933 3390 
Q 3200 3197 3328 2828 
z
" transform="scale(0.015625)"/>
       <path id="DejaVuSans-65" d="M 3597 1894 
L 3597 1613 
L 953 1613 
Q 991 1019 1311 708 
Q 1631 397 2203 397 
Q 2534 397 2845 478 
Q 3156 559 3463 722 
L 3463 178 
Q 3153 47 2828 -22 
Q 2503 -91 2169 -91 
Q 1331 -91 842 396 
Q 353 884 353 1716 
Q 353 2575 817 3079 
Q 1281 3584 2069 3584 
Q 2775 3584 3186 3129 
Q 3597 2675 3597 1894 
z
M 3022 2063 
Q 3016 2534 2758 2815 
Q 2500 3097 2075 3097 
Q 1594 3097 1305 2825 
Q 1016 2553 972 2059 
L 3022 2063 
z
" transform="scale(0.015625)"/>
       <path id="DejaVuSans-20" transform="scale(0.015625)"/>
       <path id="DejaVuSans-5b" d="M 550 4863 
L 1875 4863 
L 1875 4416 
L 1125 4416 
L 1125 -397 
L 1875 -397 
L 1875 -844 
L 550 -844 
L 550 4863 
z
" transform="scale(0.015625)"/>
       <path id="DejaVuSans-6e" d="M 3513 2113 
L 3513 0 
L 2938 0 
L 2938 2094 
Q 2938 2591 2744 2837 
Q 2550 3084 2163 3084 
Q 1697 3084 1428 2787 
Q 1159 2491 1159 1978 
L 1159 0 
L 581 0 
L 581 3500 
L 1159 3500 
L 1159 2956 
Q 1366 3272 1645 3428 
Q 1925 3584 2291 3584 
Q 2894 3584 3203 3211 
Q 3513 2838 3513 2113 
z
" transform="scale(0.015625)"/>
       <path id="DejaVuSans-5d" d="M 1947 4863 
L 1947 -844 
L 622 -844 
L 622 -397 
L 1369 -397 
L 1369 4416 
L 622 4416 
L 622 4863 
L 1947 4863 
z
" transform="scale(0.015625)"/>
      </defs>
      <use xlink:href="#DejaVuSans-54"/>
      <use xlink:href="#DejaVuSans-69" x="57.958984"/>
      <use xlink:href="#DejaVuSans-6d" x="85.742188"/>
      <use xlink:href="#DejaVuSans-65" x="183.154297"/>
      <use xlink:href="#DejaVuSans-20" x="244.677734"/>
      <use xlink:href="#DejaVuSans-5b" x="276.464844"/>
      <use xlink:href="#DejaVuSans-6d" x="315.478516"/>
      <use xlink:href="#DejaVuSans-69" x="412.890625"/>
      <use xlink:href="#DejaVuSans-6e" x="440.673828"/>
      <use xlink:href="#DejaVuSans-5d" x="504.052734"/>
     </g>
    </g>
   </g>
   <g id="matplotlib.axis_2">
    <g id="ytick_1">
     <g id="line2d_7">
      <defs>
       <path id="m5981252e85" d="M 0 0 
L -3.5 0 
" style="stroke: #000000; stroke-width: 0.8"/>
      </defs>
      <g>
       <use xlink:href="#m5981252e85" x="69.3" y="204.570755" style="stroke: #000000; stroke-width: 0.8"/>
      </g>
     </g>
     <g id="text_8">
      <!-- $\mathdefault{10^{-6}}$ -->
      <g transform="translate(24.7 210.649505) scale(0.16 -0.16)">
       <defs>
        <path id="DejaVuSans-2212" d="M 678 2272 
L 4684 2272 
L 4684 1741 
L 678 1741 
L 678 2272 
z
" transform="scale(0.015625)"/>
       </defs>
       <use xlink:href="#DejaVuSans-31" transform="translate(0 0.765625)"/>
       <use xlink:href="#DejaVuSans-30" transform="translate(63.623047 0.765625)"/>
       <use xlink:href="#DejaVuSans-2212" transform="translate(128.203125 39.046875) scale(0.7)"/>
       <use xlink:href="#DejaVuSans-36" transform="translate(186.855469 39.046875) scale(0.7)"/>
      </g>
     </g>
    </g>
    <g id="ytick_2">
     <g id="line2d_8">
      <g>
       <use xlink:href="#m5981252e85" x="69.3" y="134.274391" style="stroke: #000000; stroke-width: 0.8"/>
      </g>
     </g>
     <g id="text_9">
      <!-- $\mathdefault{10^{-4}}$ -->
      <g transform="translate(24.7 140.353141) scale(0.16 -0.16)">
       <use xlink:href="#DejaVuSans-31" transform="translate(0 0.684375)"/>
       <use xlink:href="#DejaVuSans-30" transform="translate(63.623047 0.684375)"/>
       <use xlink:href="#DejaVuSans-2212" transform="translate(128.203125 38.965625) scale(0.7)"/>
       <use xlink:href="#DejaVuSans-34" transform="translate(186.855469 38.965625) scale(0.7)"/>
      </g>
     </g>
    </g>
    <g id="ytick_3">
     <g id="line2d_9">
      <g>
       <use xlink:href="#m5981252e85" x="69.3" y="63.978026" style="stroke: #000000; stroke-width: 0.8"/>
      </g>
     </g>
     <g id="text_10">
      <!-- $\mathdefault{10^{-2}}$ -->
      <g transform="translate(24.7 70.056776) scale(0.16 -0.16)">
       <use xlink:href="#DejaVuSans-31" transform="translate(0 0.765625)"/>
       <use xlink:href="#DejaVuSans-30" transform="translate(63.623047 0.765625)"/>
       <use xlink:href="#DejaVuSans-2212" transform="translate(128.203125 39.046875) scale(0.7)"/>
       <use xlink:href="#DejaVuSans-32" transform="translate(186.855469 39.046875) scale(0.7)"/>
      </g>
     </g>
    </g>
    <g id="text_11">
     <!-- Attitude Error $\sigma_{B/R}$ -->
     <g transform="translate(18.4 170.868437) rotate(-90) scale(0.1 -0.1)">
      <defs>
       <path id="DejaVuSans-41" d="M 2188 4044 
L 1331 1722 
L 3047 1722 
L 2188 4044 
z
M 1831 4666 
L 2547 4666 
L 4325 0 
L 3669 0 
L 3244 1197 
L 1141 1197 
L 716 0 
L 50 0 
L 1831 4666 
z
" transform="scale(0.015625)"/>
       <path id="DejaVuSans-74" d="M 1172 4494 
L 1172 3500 
L 2356 3500 
L 2356 3053 
L 1172 3053 
L 1172 1153 
Q 1172 725 1289 603 
Q 1406 481 1766 481 
L 2356 481 
L 2356 0 
L 1766 0 
Q 1100 0 847 248 
Q 594 497 594 1153 
L 594 3053 
L 172 3053 
L 172 3500 
L 594 3500 
L 594 4494 
L 1172 4494 
z
" transform="scale(0.015625)"/>
       <path id="DejaVuSans-75" d="M 544 1381 
L 544 3500 
L 1119 3500 
L 1119 1403 
Q 1119 906 1312 657 
Q 1506 409 1894 409 
Q 2359 409 2629 706 
Q 2900 1003 2900 1516 
L 2900 3500 
L 3475 3500 
L 3475 0 
L 2900 0 
L 2900 538 
Q 2691 219 2414 64 
Q 2138 -91 1772 -91 
Q 1169 -91 856 284 
Q 544 659 544 1381 
z
M 1991 3584 
L 1991 3584 
z
" transform="scale(0.015625)"/>
       <path id="DejaVuSans-64" d="M 2906 2969 
L 2906 4863 
L 3481 4863 
L 3481 0 
L 2906 0 
L 2906 525 
Q 2725 213 2448 61 
Q 2172 -91 1784 -91 
Q 1150 -91 751 415 
Q 353 922 353 1747 
Q 353 2572 751 3078 
Q 1150 3584 1784 3584 
Q 2172 3584 2448 3432 
Q 2725 3281 2906 2969 
z
M 947 1747 
Q 947 1113 1208 752 
Q 1469 391 1925 391 
Q 2381 391 2643 752 
Q 2906 1113 2906 1747 
Q 2906 2381 2643 2742 
Q 2381 3103 1925 3103 
Q 1469 3103 1208 2742 
Q 947 2381 947 1747 
z
" transform="scale(0.015625)"/>
       <path id="DejaVuSans-45" d="M 628 4666 
L 3578 4666 
L 3578 4134 
L 1259 4134 
L 1259 2753 
L 3481 2753 
L 3481 2222 
L 1259 2222 
L 1259 531 
L 3634 531 
L 3634 0 
L 628 0 
L 628 4666 
z
" transform="scale(0.015625)"/>
       <path id="DejaVuSans-72" d="M 2631 2963 
Q 2534 3019 2420 3045 
Q 2306 3072 2169 3072 
Q 1681 3072 1420 2755 
Q 1159 2438 1159 1844 
L 1159 0 
L 581 0 
L 581 3500 
L 1159 3500 
L 1159 2956 
Q 1341 3275 1631 3429 
Q 1922 3584 2338 3584 
Q 2397 3584 2469 3576 
Q 2541 3569 2628 3553 
L 2631 2963 
z
" transform="scale(0.015625)"/>
       <path id="DejaVuSans-6f" d="M 1959 3097 
Q 1497 3097 1228 2736 
Q 959 2375 959 1747 
Q 959 1119 1226 758 
Q 1494 397 1959 397 
Q 2419 397 2687 759 
Q 2956 1122 2956 1747 
Q 2956 2369 2687 2733 
Q 2419 3097 1959 3097 
z
M 1959 3584 
Q 2709 3584 3137 3096 
Q 3566 2609 3566 1747 
Q 3566 888 3137 398 
Q 2709 -91 1959 -91 
Q 1206 -91 779 398 
Q 353 888 353 1747 
Q 353 2609 779 3096 
Q 1206 3584 1959 3584 
z
" transform="scale(0.015625)"/>
       <path id="DejaVuSans-Oblique-3c3" d="M 2219 3044 
Q 1744 3044 1422 2700 
Q 1081 2341 969 1747 
Q 844 1119 1044 756 
Q 1241 397 1706 397 
Q 2166 397 2503 759 
Q 2844 1122 2966 1747 
Q 3075 2319 2881 2700 
Q 2700 3044 2219 3044 
z
M 2309 3503 
L 4219 3500 
L 4106 2925 
L 3463 2925 
Q 3706 2438 3575 1747 
Q 3406 888 2884 400 
Q 2359 -91 1609 -91 
Q 856 -91 525 400 
Q 194 888 363 1747 
Q 528 2609 1050 3097 
Q 1484 3503 2309 3503 
z
" transform="scale(0.015625)"/>
       <path id="DejaVuSans-Oblique-42" d="M 1081 4666 
L 2694 4666 
Q 3350 4666 3675 4422 
Q 4000 4178 4000 3688 
Q 4000 3238 3720 2911 
Q 3441 2584 2988 2516 
Q 3375 2428 3569 2181 
Q 3763 1934 3763 1522 
Q 3763 819 3242 409 
Q 2722 0 1819 0 
L 172 0 
L 1081 4666 
z
M 1234 2228 
L 903 519 
L 1919 519 
Q 2491 519 2800 781 
Q 3109 1044 3109 1522 
Q 3109 1891 2904 2059 
Q 2700 2228 2247 2228 
L 1234 2228 
z
M 1606 4147 
L 1331 2741 
L 2272 2741 
Q 2775 2741 3058 2959 
Q 3341 3178 3341 3566 
Q 3341 3869 3150 4008 
Q 2959 4147 2541 4147 
L 1606 4147 
z
" transform="scale(0.015625)"/>
       <path id="DejaVuSans-2f" d="M 1625 4666 
L 2156 4666 
L 531 -594 
L 0 -594 
L 1625 4666 
z
" transform="scale(0.015625)"/>
       <path id="DejaVuSans-Oblique-52" d="M 1613 4147 
L 1294 2491 
L 2106 2491 
Q 2584 2491 2879 2755 
Q 3175 3019 3175 3444 
Q 3175 3784 2976 3965 
Q 2778 4147 2406 4147 
L 1613 4147 
z
M 2772 2241 
Q 2972 2194 3105 2009 
Q 3238 1825 3413 1275 
L 3809 0 
L 3144 0 
L 2778 1197 
Q 2638 1659 2453 1815 
Q 2269 1972 1888 1972 
L 1191 1972 
L 806 0 
L 172 0 
L 1081 4666 
L 2503 4666 
Q 3150 4666 3495 4373 
Q 3841 4081 3841 3531 
Q 3841 3044 3547 2687 
Q 3253 2331 2772 2241 
z
" transform="scale(0.015625)"/>
      </defs>
      <use xlink:href="#DejaVuSans-41" transform="translate(0 0.015625)"/>
      <use xlink:href="#DejaVuSans-74" transform="translate(68.408203 0.015625)"/>
      <use xlink:href="#DejaVuSans-74" transform="translate(107.617188 0.015625)"/>
      <use xlink:href="#DejaVuSans-69" transform="translate(146.826172 0.015625)"/>
      <use xlink:href="#DejaVuSans-74" transform="translate(174.609375 0.015625)"/>
      <use xlink:href="#DejaVuSans-75" transform="translate(213.818359 0.015625)"/>
      <use xlink:href="#DejaVuSans-64" transform="translate(277.197266 0.015625)"/>
      <use xlink:href="#DejaVuSans-65" transform="translate(340.673828 0.015625)"/>
      <use xlink:href="#DejaVuSans-20" transform="translate(402.197266 0.015625)"/>
      <use xlink:href="#DejaVuSans-45" transform="translate(433.984375 0.015625)"/>
      <use xlink:href="#DejaVuSans-72" transform="translate(497.167969 0.015625)"/>
      <use xlink:href="#DejaVuSans-72" transform="translate(538.28125 0.015625)"/>
      <use xlink:href="#DejaVuSans-6f" transform="translate(579.394531 0.015625)"/>
      <use xlink:href="#DejaVuSans-72" transform="translate(640.576172 0.015625)"/>
      <use xlink:href="#DejaVuSans-20" transform="translate(681.689453 0.015625)"/>
      <use xlink:href="#DejaVuSans-Oblique-3c3" transform="translate(713.476562 0.015625)"/>
      <use xlink:href="#DejaVuSans-Oblique-42" transform="translate(776.855469 -16.390625) scale(0.7)"/>
      <use xlink:href="#DejaVuSans-2f" transform="translate(824.87793 -16.390625) scale(0.7)"/>
      <use xlink:href="#DejaVuSans-Oblique-52" transform="translate(847.236914 -16.390625) scale(0.7)"/>
     </g>
    </g>
   </g>
   <g id="line2d_10">
    <path d="M 84.477273 71.970693 
L 85.995 72.021755 
L 87.512727 75.04864 
L 89.030455 81.376373 
L 90.548182 89.03554 
L 92.065909 100.163318 
L 93.583636 113.914631 
L 95.101364 86.325703 
L 96.619091 76.398783 
L 98.136818 72.968008 
L 99.654545 72.914928 
L 101.172273 75.561624 
L 102.69 79.210764 
L 104.207727 81.096286 
L 105.725455 80.932118 
L 107.243182 79.967767 
L 108.760909 79.215171 
L 110.278636 78.961988 
L 113.314091 79.202271 
L 116.349545 79.440973 
L 117.867273 79.430758 
L 120.902727 79.744295 
L 122.420455 79.705703 
L 131.526818 78.487172 
L 134.562273 78.65499 
L 139.115455 79.130459 
L 143.668636 79.311652 
L 148.221818 79.191669 
L 157.328182 78.89564 
L 163.399091 79.105092 
L 169.47 79.268134 
L 175.540909 79.055586 
L 180.094091 78.898978 
L 184.647273 78.990546 
L 193.753636 79.263269 
L 201.342273 78.977896 
L 205.895455 78.907692 
L 219.555 79.217742 
L 230.179091 78.912848 
L 243.838636 79.208698 
L 252.945 78.89749 
L 259.015909 79.083974 
L 265.086818 79.269944 
L 271.157727 79.076606 
L 277.228636 78.899004 
L 283.299545 79.095157 
L 289.370455 79.267971 
L 295.441364 79.065251 
L 301.512273 78.901511 
L 307.583182 79.106424 
L 313.654091 79.26501 
L 319.725 79.053838 
L 324.278182 78.899806 
L 328.831364 78.992756 
L 337.937727 79.261119 
L 345.526364 78.976522 
L 350.079545 78.909279 
L 363.739091 79.215326 
L 374.363182 78.914411 
L 388.022727 79.206414 
L 388.022727 79.206414 
" clip-path="url(#pe27800c666)" style="fill: none; stroke: #2b737e; stroke-width: 1.5; stroke-linecap: square"/>
   </g>
   <g id="line2d_11">
    <path d="M 84.477273 22.579664 
L 85.995 22.687318 
L 87.512727 22.988621 
L 89.030455 23.477207 
L 90.548182 24.131842 
L 92.065909 24.973094 
L 93.583636 26.048299 
L 95.101364 27.420358 
L 96.619091 29.155282 
L 98.136818 31.32673 
L 99.654545 34.00054 
L 101.172273 37.214263 
L 102.69 41.192582 
L 104.207727 46.415853 
L 105.725455 53.921942 
L 107.243182 66.789957 
L 108.760909 98.067578 
L 110.278636 65.816258 
L 111.796364 57.70007 
L 113.314091 53.581234 
L 114.831818 51.324898 
L 116.349545 50.26479 
L 117.867273 50.156939 
L 119.385 50.9576 
L 120.902727 52.823494 
L 122.420455 56.238697 
L 123.938182 62.593875 
L 125.455909 76.800235 
L 126.973636 97.742446 
L 128.491364 74.549928 
L 130.009091 68.563529 
L 131.526818 66.819556 
L 133.044545 67.983609 
L 134.562273 72.891085 
L 136.08 85.146873 
L 137.597727 108.328143 
L 139.115455 105.282703 
L 140.633182 91.228094 
L 142.150909 86.429624 
L 143.668636 86.096975 
L 145.186364 88.622858 
L 146.704091 93.355553 
L 148.221818 101.452336 
L 149.739545 124.479296 
L 151.257273 108.226651 
L 152.775 95.29761 
L 154.292727 90.056048 
L 155.810455 88.881554 
L 157.328182 90.634733 
L 158.845909 94.958626 
L 160.363636 103.239706 
L 161.881364 131.239518 
L 163.399091 107.061637 
L 164.916818 95.175894 
L 166.434545 90.289397 
L 167.952273 89.298535 
L 169.47 91.173313 
L 170.987727 95.671305 
L 172.505455 104.476549 
L 174.023182 141.695266 
L 175.540909 105.635426 
L 177.058636 94.673914 
L 178.576364 90.174617 
L 180.094091 89.439702 
L 181.611818 91.514708 
L 183.129545 96.255568 
L 184.647273 105.685235 
L 186.165 195.262722 
L 187.682727 104.264055 
L 189.200455 94.124336 
L 190.718182 90.006184 
L 192.235909 89.536948 
L 193.753636 91.827741 
L 195.271364 96.835937 
L 196.789091 106.981854 
L 198.306818 142.537498 
L 199.824545 102.993395 
L 201.342273 93.594739 
L 202.86 89.845977 
L 204.377727 89.639512 
L 205.895455 92.148504 
L 207.413182 97.439877 
L 208.930909 108.406531 
L 210.448636 131.667508 
L 211.966364 101.824102 
L 213.484091 93.099167 
L 215.001818 89.707161 
L 216.519545 89.758321 
L 218.037273 92.486497 
L 219.555 98.078417 
L 221.072727 109.99894 
L 222.590455 125.338829 
L 224.108182 100.745242 
L 225.625909 92.639837 
L 227.143636 89.592824 
L 228.661364 89.895704 
L 230.179091 92.843268 
L 231.696818 98.754114 
L 233.214545 111.796172 
L 234.732273 120.857 
L 236.25 99.74817 
L 237.767727 92.215832 
L 239.285455 89.50267 
L 240.803182 90.052051 
L 242.320909 93.220806 
L 243.838636 99.473471 
L 245.356364 113.862642 
L 246.874091 117.375666 
L 248.391818 98.823544 
L 249.909545 91.826194 
L 251.427273 89.436602 
L 252.945 90.227103 
L 254.462727 93.618796 
L 255.980455 100.238531 
L 257.498182 116.278886 
L 259.015909 114.533242 
L 260.533636 97.96514 
L 262.051364 91.469359 
L 263.569091 89.393684 
L 265.086818 90.420909 
L 266.604545 94.039298 
L 268.122273 101.057406 
L 269.64 119.191115 
L 271.157727 112.127672 
L 272.675455 97.166553 
L 274.193182 91.144484 
L 275.710909 89.373629 
L 277.228636 90.633007 
L 278.746364 94.481933 
L 280.264091 101.933535 
L 281.781818 122.830764 
L 284.817273 96.423418 
L 286.335 90.850112 
L 287.852727 89.375596 
L 289.370455 90.863701 
L 290.888182 94.949328 
L 292.405909 102.877873 
L 293.923636 127.686582 
L 295.441364 108.21319 
L 296.959091 95.731313 
L 298.476818 90.585609 
L 299.994545 89.399259 
L 301.512273 91.112455 
L 303.03 95.441196 
L 304.547727 103.896401 
L 306.065455 134.927207 
L 307.583182 106.577857 
L 309.100909 95.087023 
L 310.618636 90.349637 
L 312.136364 89.443933 
L 313.654091 91.379896 
L 315.171818 95.960867 
L 316.689545 105.004606 
L 318.207273 149.442034 
L 319.725 105.102358 
L 321.242727 94.487448 
L 322.760455 90.141706 
L 324.278182 89.509246 
L 325.795909 91.665426 
L 327.313636 96.508243 
L 328.831364 106.2131 
L 330.349091 157.241266 
L 331.866818 103.762501 
L 333.384545 93.930089 
L 334.902273 89.960585 
L 336.42 89.594699 
L 337.937727 91.970033 
L 339.455455 97.08752 
L 340.973182 107.545206 
L 342.490909 137.299802 
L 344.008636 102.536281 
L 345.526364 93.412746 
L 347.044091 89.805869 
L 348.561818 89.69986 
L 350.079545 92.293068 
L 351.597273 97.698928 
L 353.115 109.02064 
L 354.632727 128.89928 
L 356.150455 101.40991 
L 357.668182 92.933377 
L 359.185909 89.676434 
L 360.703636 89.824443 
L 362.221364 92.635926 
L 363.739091 98.347765 
L 366.774545 123.474621 
L 368.292273 100.369825 
L 369.81 92.490409 
L 371.327727 89.571917 
L 372.845455 89.967948 
L 374.363182 92.997922 
L 375.880909 99.034811 
L 377.398636 112.556822 
L 378.916364 119.463435 
L 380.434091 99.407488 
L 381.951818 92.082098 
L 383.469545 89.49131 
L 384.987273 90.130331 
L 386.505 93.38091 
L 388.022727 99.766831 
L 388.022727 99.766831 
" clip-path="url(#pe27800c666)" style="fill: none; stroke: #5ea04b; stroke-width: 1.5; stroke-linecap: square"/>
   </g>
   <g id="line2d_12">
    <path d="M 84.477273 21.265312 
L 85.995 21.376741 
L 87.512727 21.687675 
L 89.030455 22.223961 
L 90.548182 23.040763 
L 92.065909 24.181535 
L 93.583636 25.690927 
L 95.101364 27.469085 
L 96.619091 29.449904 
L 98.136818 31.715347 
L 99.654545 34.366849 
L 101.172273 37.553265 
L 102.69 41.500607 
L 104.207727 46.634517 
L 105.725455 53.909563 
L 107.243182 65.836964 
L 108.760909 113.17681 
L 110.278636 71.869777 
L 111.796364 63.664346 
L 113.314091 60.804454 
L 114.831818 60.882672 
L 116.349545 63.988108 
L 117.867273 73.027871 
L 119.385 100.548198 
L 120.902727 92.97895 
L 122.420455 90.335905 
L 123.938182 96.486647 
L 126.973636 111.926662 
L 128.491364 118.646723 
L 133.044545 136.005172 
L 134.562273 146.543925 
L 136.08 173.735775 
L 137.597727 140.581568 
L 139.115455 133.180775 
L 140.633182 130.678558 
L 142.150909 130.455897 
L 143.668636 132.093029 
L 145.186364 135.982777 
L 146.704091 143.101412 
L 148.221818 157.20304 
L 149.739545 174.494651 
L 151.257273 152.49507 
L 152.775 145.755303 
L 154.292727 142.724221 
L 155.810455 142.14468 
L 157.328182 144.142659 
L 158.845909 149.49201 
L 160.363636 161.338512 
L 161.881364 184.93684 
L 163.399091 157.009806 
L 164.916818 148.80687 
L 166.434545 144.812033 
L 167.952273 143.606816 
L 169.47 145.23601 
L 170.987727 150.424862 
L 172.505455 162.517739 
L 174.023182 181.916876 
L 175.540909 156.625739 
L 177.058636 148.692139 
L 178.576364 144.923837 
L 180.094091 143.998506 
L 181.611818 145.982106 
L 183.129545 151.732662 
L 184.647273 165.649146 
L 186.165 174.506363 
L 187.682727 154.965732 
L 189.200455 147.657987 
L 190.718182 144.106542 
L 192.235909 143.338247 
L 193.753636 145.503836 
L 195.271364 151.537568 
L 196.789091 166.381023 
L 198.306818 171.829207 
L 199.824545 153.949121 
L 201.342273 147.072739 
L 202.86 143.878781 
L 204.377727 143.487156 
L 205.895455 146.093337 
L 207.413182 152.832439 
L 208.930909 170.558322 
L 210.448636 167.311129 
L 211.966364 152.390215 
L 213.484091 146.028564 
L 215.001818 143.049147 
L 216.519545 142.829673 
L 218.037273 145.636658 
L 219.555 152.702686 
L 221.072727 171.882182 
L 222.590455 165.424275 
L 224.108182 151.501541 
L 225.625909 145.527788 
L 227.143636 142.899217 
L 228.661364 143.058487 
L 230.179091 146.328091 
L 231.696818 154.223186 
L 233.214545 178.69549 
L 234.732273 162.198531 
L 236.25 150.114604 
L 237.767727 144.557644 
L 239.285455 142.128159 
L 240.803182 142.461099 
L 242.320909 145.940617 
L 243.838636 154.210903 
L 245.356364 181.629297 
L 246.874091 160.737673 
L 248.391818 149.35099 
L 249.909545 144.150458 
L 251.427273 142.0657 
L 252.945 142.780062 
L 254.462727 146.750807 
L 255.980455 156.028242 
L 257.498182 200.568711 
L 259.015909 158.226128 
L 260.533636 148.103909 
L 262.051364 143.249917 
L 263.569091 141.353256 
L 265.086818 142.243254 
L 266.604545 146.435088 
L 268.122273 156.158151 
L 269.64 230.571562 
L 271.157727 157.035095 
L 272.675455 147.448661 
L 274.193182 142.93049 
L 275.710909 141.375387 
L 277.228636 142.652845 
L 278.746364 147.375696 
L 280.264091 158.37701 
L 281.781818 187.1605 
L 283.299545 154.976015 
L 284.817273 146.315502 
L 286.335 142.093296 
L 287.852727 140.719074 
L 289.370455 142.175089 
L 290.888182 147.133732 
L 292.405909 158.689868 
L 293.923636 181.976829 
L 295.441364 153.976209 
L 296.959091 145.756071 
L 298.476818 141.856589 
L 299.994545 140.823263 
L 301.512273 142.676654 
L 303.03 148.221045 
L 304.547727 161.494582 
L 306.065455 173.203817 
L 307.583182 152.229757 
L 309.100909 144.718068 
L 310.618636 141.077862 
L 312.136364 140.220952 
L 313.654091 142.256853 
L 315.171818 148.056696 
L 316.689545 162.06793 
L 318.207273 170.696275 
L 319.725 151.376333 
L 321.242727 144.245383 
L 322.760455 140.920044 
L 324.278182 140.405551 
L 325.795909 142.853284 
L 327.313636 149.314137 
L 328.831364 165.828118 
L 330.349091 165.773495 
L 331.866818 149.859103 
L 333.384545 143.288799 
L 334.902273 140.196058 
L 336.42 139.855522 
L 337.937727 142.490935 
L 339.455455 149.233987 
L 340.973182 166.833121 
L 342.490909 164.066884 
L 344.008636 149.124169 
L 345.526364 142.89624 
L 347.044091 140.114261 
L 348.561818 140.119739 
L 350.079545 143.186957 
L 351.597273 150.695654 
L 353.115 172.472104 
L 354.632727 160.637347 
L 356.150455 147.782505 
L 357.668182 142.01087 
L 359.185909 139.442141 
L 360.703636 139.620624 
L 362.221364 142.882233 
L 363.739091 150.710341 
L 365.256818 174.411474 
L 366.774545 159.329662 
L 368.292273 147.14767 
L 369.81 141.693579 
L 371.327727 139.43427 
L 372.845455 139.964508 
L 374.363182 143.68482 
L 375.880909 152.427223 
L 377.398636 185.683238 
L 378.916364 156.69875 
L 380.434091 145.945147 
L 381.951818 140.871756 
L 383.469545 138.811768 
L 384.987273 139.515257 
L 386.505 143.438703 
L 388.022727 152.553879 
L 388.022727 152.553879 
" clip-path="url(#pe27800c666)" style="fill: none; stroke: #bdab62; stroke-width: 1.5; stroke-linecap: square"/>
   </g>
   <g id="patch_3">
    <path d="M 69.3 241.036875 
L 69.3 10.8 
" style="fill: none; stroke: #000000; stroke-width: 0.8; stroke-linejoin: miter; stroke-linecap: square"/>
   </g>
   <g id="patch_4">
    <path d="M 403.2 241.036875 
L 403.2 10.8 
" style="fill: none; stroke: #000000; stroke-width: 0.8; stroke-linejoin: miter; stroke-linecap: square"/>
   </g>
   <g id="patch_5">
    <path d="M 69.3 241.036875 
L 403.2 241.036875 
" style="fill: none; stroke: #000000; stroke-width: 0.8; stroke-linejoin: miter; stroke-linecap: square"/>
   </g>
   <g id="patch_6">
    <path d="M 69.3 10.8 
L 403.2 10.8 
" style="fill: none; stroke: #000000; stroke-width: 0.8; stroke-linejoin: miter; stroke-linecap: square"/>
   </g>
   <g id="legend_1">
    <g id="patch_7">
     <path d="M 351.99 58.77 
L 396.9 58.77 
Q 398.7 58.77 398.7 56.97 
L 398.7 17.1 
Q 398.7 15.3 396.9 15.3 
L 351.99 15.3 
Q 350.19 15.3 350.19 17.1 
L 350.19 56.97 
Q 350.19 58.77 351.99 58.77 
z
" style="fill: #ffffff; opacity: 0.8; stroke: #cccccc; stroke-linejoin: miter"/>
    </g>
    <g id="line2d_13">
     <path d="M 353.79 22.68 
L 362.79 22.68 
L 371.79 22.68 
" style="fill: none; stroke: #2b737e; stroke-width: 1.5; stroke-linecap: square"/>
    </g>
    <g id="text_12">
     <!-- $|\sigma_0|$ -->
     <g transform="translate(378.99 25.83) scale(0.09 -0.09)">
      <defs>
       <path id="DejaVuSans-7c" d="M 1344 4891 
L 1344 -1509 
L 813 -1509 
L 813 4891 
L 1344 4891 
z
" transform="scale(0.015625)"/>
      </defs>
      <use xlink:href="#DejaVuSans-7c" transform="translate(0 0.578125)"/>
      <use xlink:href="#DejaVuSans-Oblique-3c3" transform="translate(33.691406 0.578125)"/>
      <use xlink:href="#DejaVuSans-30" transform="translate(97.070312 -15.828125) scale(0.7)"/>
      <use xlink:href="#DejaVuSans-7c" transform="translate(144.34082 0.578125)"/>
     </g>
    </g>
    <g id="line2d_14">
     <path d="M 353.79 36.27 
L 362.79 36.27 
L 371.79 36.27 
" style="fill: none; stroke: #5ea04b; stroke-width: 1.5; stroke-linecap: square"/>
    </g>
    <g id="text_13">
     <!-- $|\sigma_1|$ -->
     <g transform="translate(378.99 39.42) scale(0.09 -0.09)">
      <use xlink:href="#DejaVuSans-7c" transform="translate(0 0.578125)"/>
      <use xlink:href="#DejaVuSans-Oblique-3c3" transform="translate(33.691406 0.578125)"/>
      <use xlink:href="#DejaVuSans-31" transform="translate(97.070312 -15.828125) scale(0.7)"/>
      <use xlink:href="#DejaVuSans-7c" transform="translate(144.34082 0.578125)"/>
     </g>
    </g>
    <g id="line2d_15">
     <path d="M 353.79 49.86 
L 362.79 49.86 
L 371.79 49.86 
" style="fill: none; stroke: #bdab62; stroke-width: 1.5; stroke-linecap: square"/>
    </g>
    <g id="text_14">
     <!-- $|\sigma_2|$ -->
     <g transform="translate(378.99 53.01) scale(0.09 -0.09)">
      <use xlink:href="#DejaVuSans-7c" transform="translate(0 0.578125)"/>
      <use xlink:href="#DejaVuSans-Oblique-3c3" transform="translate(33.691406 0.578125)"/>
      <use xlink:href="#DejaVuSans-32" transform="translate(97.070312 -15.828125) scale(0.7)"/>
      <use xlink:href="#DejaVuSans-7c" transform="translate(144.34082 0.578125)"/>
     </g>
    </g>
   </g>
  </g>
 </g>
 <defs>
  <clipPath id="pe27800c666">
   <rect x="69.3" y="10.8" width="333.9" height="230.236875"/>
  </clipPath>
 </defs>
</svg>
