<?xml version="1.0" encoding="utf-8" standalone="no"?>
<!DOCTYPE svg PUBLIC "-//W3C//DTD SVG 1.1//EN"
  "http://www.w3.org/Graphics/SVG/1.1/DTD/svg11.dtd">
<svg xmlns:xlink="http://www.w3.org/1999/xlink" width="414pt" height="288pt" viewBox="0 0 414 288" xmlns="http://www.w3.org/2000/svg" version="1.1">
 <metadata>
  <rdf:RDF xmlns:dc="http://purl.org/dc/elements/1.1/" xmlns:cc="http://creativecommons.org/ns#" xmlns:rdf="http://www.w3.org/1999/02/22-rdf-syntax-ns#">
   <cc:Work>
    <dc:type rdf:resource="http://purl.org/dc/dcmitype/StillImage"/>
    <dc:date>2023-09-07T00:38:21.717070</dc:date>
    <dc:format>image/svg+xml</dc:format>
    <dc:creator>
     <cc:Agent>
      <dc:title>Matplotlib v3.7.2, https://matplotlib.org/</dc:title>
     </cc:Agent>
    </dc:creator>
   </cc:Work>
  </rdf:RDF>
 </metadata>
 <defs>
  <style type="text/css">*{stroke-linejoin: round; stroke-linecap: butt}</style>
 </defs>
 <g id="figure_1">
  <g id="patch_1">
   <path d="M 0 288 
L 414 288 
L 414 0 
L 0 0 
L 0 288 
z
" style="fill: none"/>
  </g>
  <g id="axes_1">
   <g id="patch_2">
    <path d="M 310.898438 151.559063 
C 310.898438 137.915245 308.210903 124.404096 302.98964 111.798852 
C 297.768377 99.193608 290.114926 87.739409 280.46729 78.091773 
C 270.819654 68.444137 259.365455 60.790686 246.760211 55.569423 
C 234.154967 50.34816 220.643818 47.660625 207 47.660625 
C 193.356182 47.660625 179.845033 50.34816 167.239789 55.569423 
C 154.634545 60.790686 143.180346 68.444137 133.53271 78.091773 
C 123.885074 87.739409 116.231623 99.193608 111.01036 111.798852 
C 105.789097 124.404096 103.101563 137.915245 103.101563 151.559063 
C 103.101563 165.20288 105.789097 178.714029 111.01036 191.319273 
C 116.231623 203.924517 123.885074 215.378716 133.53271 225.026352 
C 143.180346 234.673988 154.634545 242.327439 167.239789 247.548702 
C 179.845033 252.769965 193.356182 255.4575 207 255.4575 
C 220.643818 255.4575 234.154967 252.769965 246.760211 247.548702 
C 259.365455 242.327439 270.819654 234.673988 280.46729 225.026352 
C 290.114926 215.378716 297.768377 203.924517 302.98964 191.319273 
C 308.210903 178.714029 310.898438 165.20288 310.898438 151.559063 
M 207 151.559063 
C 207 151.559063 207 151.559063 207 151.559063 
C 207 151.559063 207 151.559063 207 151.559063 
C 207 151.559063 207 151.559063 207 151.559063 
C 207 151.559063 207 151.559063 207 151.559063 
C 207 151.559063 207 151.559063 207 151.559063 
C 207 151.559063 207 151.559063 207 151.559063 
C 207 151.559063 207 151.559063 207 151.559063 
C 207 151.559063 207 151.559063 207 151.559063 
C 207 151.559063 207 151.559063 207 151.559063 
C 207 151.559063 207 151.559063 207 151.559063 
C 207 151.559063 207 151.559063 207 151.559063 
C 207 151.559063 207 151.559063 207 151.559063 
C 207 151.559063 207 151.559063 207 151.559063 
C 207 151.559063 207 151.559063 207 151.559063 
C 207 151.559063 207 151.559063 207 151.559063 
C 207 151.559063 207 151.559063 207 151.559063 
L 207 151.559063 
z
" style="fill: none"/>
   </g>
   <g id="matplotlib.axis_1">
    <g id="xtick_1">
     <g id="line2d_1">
      <path d="M 207 151.559063 
L 310.898438 151.559063 
" clip-path="url(#p9f58a1da4c)" style="fill: none; stroke: #b0b0b0; stroke-width: 0.8; stroke-linecap: square"/>
     </g>
     <g id="text_1">
      <!-- 0° -->
      <g transform="translate(315.808438 155.974063) scale(0.16 -0.16)">
       <defs>
        <path id="DejaVuSans-30" d="M 2034 4250 
Q 1547 4250 1301 3770 
Q 1056 3291 1056 2328 
Q 1056 1369 1301 889 
Q 1547 409 2034 409 
Q 2525 409 2770 889 
Q 3016 1369 3016 2328 
Q 3016 3291 2770 3770 
Q 2525 4250 2034 4250 
z
M 2034 4750 
Q 2819 4750 3233 4129 
Q 3647 3509 3647 2328 
Q 3647 1150 3233 529 
Q 2819 -91 2034 -91 
Q 1250 -91 836 529 
Q 422 1150 422 2328 
Q 422 3509 836 4129 
Q 1250 4750 2034 4750 
z
" transform="scale(0.015625)"/>
        <path id="DejaVuSans-b0" d="M 1600 4347 
Q 1350 4347 1178 4173 
Q 1006 4000 1006 3750 
Q 1006 3503 1178 3333 
Q 1350 3163 1600 3163 
Q 1850 3163 2022 3333 
Q 2194 3503 2194 3750 
Q 2194 3997 2020 4172 
Q 1847 4347 1600 4347 
z
M 1600 4750 
Q 1800 4750 1984 4673 
Q 2169 4597 2303 4453 
Q 2447 4313 2519 4134 
Q 2591 3956 2591 3750 
Q 2591 3338 2302 3052 
Q 2013 2766 1594 2766 
Q 1172 2766 890 3047 
Q 609 3328 609 3750 
Q 609 4169 896 4459 
Q 1184 4750 1600 4750 
z
" transform="scale(0.015625)"/>
       </defs>
       <use xlink:href="#DejaVuSans-30"/>
       <use xlink:href="#DejaVuSans-b0" x="63.623047"/>
      </g>
     </g>
    </g>
    <g id="xtick_2">
     <g id="line2d_2">
      <path d="M 207 151.559063 
L 280.46729 78.091773 
" clip-path="url(#p9f58a1da4c)" style="fill: none; stroke: #b0b0b0; stroke-width: 0.8; stroke-linecap: square"/>
     </g>
     <g id="text_2">
      <!-- 45° -->
      <g transform="translate(276.186785 72.607278) scale(0.16 -0.16)">
       <defs>
        <path id="DejaVuSans-34" d="M 2419 4116 
L 825 1625 
L 2419 1625 
L 2419 4116 
z
M 2253 4666 
L 3047 4666 
L 3047 1625 
L 3713 1625 
L 3713 1100 
L 3047 1100 
L 3047 0 
L 2419 0 
L 2419 1100 
L 313 1100 
L 313 1709 
L 2253 4666 
z
" transform="scale(0.015625)"/>
        <path id="DejaVuSans-35" d="M 691 4666 
L 3169 4666 
L 3169 4134 
L 1269 4134 
L 1269 2991 
Q 1406 3038 1543 3061 
Q 1681 3084 1819 3084 
Q 2600 3084 3056 2656 
Q 3513 2228 3513 1497 
Q 3513 744 3044 326 
Q 2575 -91 1722 -91 
Q 1428 -91 1123 -41 
Q 819 9 494 109 
L 494 744 
Q 775 591 1075 516 
Q 1375 441 1709 441 
Q 2250 441 2565 725 
Q 2881 1009 2881 1497 
Q 2881 1984 2565 2268 
Q 2250 2553 1709 2553 
Q 1456 2553 1204 2497 
Q 953 2441 691 2322 
L 691 4666 
z
" transform="scale(0.015625)"/>
       </defs>
       <use xlink:href="#DejaVuSans-34"/>
       <use xlink:href="#DejaVuSans-35" x="63.623047"/>
       <use xlink:href="#DejaVuSans-b0" x="127.246094"/>
      </g>
     </g>
    </g>
    <g id="xtick_3">
     <g id="line2d_3">
      <path d="M 207 151.559063 
L 207 47.660625 
" clip-path="url(#p9f58a1da4c)" style="fill: none; stroke: #b0b0b0; stroke-width: 0.8; stroke-linecap: square"/>
     </g>
     <g id="text_3">
      <!-- 90° -->
      <g transform="translate(192.82 38.075625) scale(0.16 -0.16)">
       <defs>
        <path id="DejaVuSans-39" d="M 703 97 
L 703 672 
Q 941 559 1184 500 
Q 1428 441 1663 441 
Q 2288 441 2617 861 
Q 2947 1281 2994 2138 
Q 2813 1869 2534 1725 
Q 2256 1581 1919 1581 
Q 1219 1581 811 2004 
Q 403 2428 403 3163 
Q 403 3881 828 4315 
Q 1253 4750 1959 4750 
Q 2769 4750 3195 4129 
Q 3622 3509 3622 2328 
Q 3622 1225 3098 567 
Q 2575 -91 1691 -91 
Q 1453 -91 1209 -44 
Q 966 3 703 97 
z
M 1959 2075 
Q 2384 2075 2632 2365 
Q 2881 2656 2881 3163 
Q 2881 3666 2632 3958 
Q 2384 4250 1959 4250 
Q 1534 4250 1286 3958 
Q 1038 3666 1038 3163 
Q 1038 2656 1286 2365 
Q 1534 2075 1959 2075 
z
" transform="scale(0.015625)"/>
       </defs>
       <use xlink:href="#DejaVuSans-39"/>
       <use xlink:href="#DejaVuSans-30" x="63.623047"/>
       <use xlink:href="#DejaVuSans-b0" x="127.246094"/>
      </g>
     </g>
    </g>
    <g id="xtick_4">
     <g id="line2d_4">
      <path d="M 207 151.559063 
L 133.53271 78.091773 
" clip-path="url(#p9f58a1da4c)" style="fill: none; stroke: #b0b0b0; stroke-width: 0.8; stroke-linecap: square"/>
     </g>
     <g id="text_4">
      <!-- 135° -->
      <g transform="translate(104.363215 72.607278) scale(0.16 -0.16)">
       <defs>
        <path id="DejaVuSans-31" d="M 794 531 
L 1825 531 
L 1825 4091 
L 703 3866 
L 703 4441 
L 1819 4666 
L 2450 4666 
L 2450 531 
L 3481 531 
L 3481 0 
L 794 0 
L 794 531 
z
" transform="scale(0.015625)"/>
        <path id="DejaVuSans-33" d="M 2597 2516 
Q 3050 2419 3304 2112 
Q 3559 1806 3559 1356 
Q 3559 666 3084 287 
Q 2609 -91 1734 -91 
Q 1441 -91 1130 -33 
Q 819 25 488 141 
L 488 750 
Q 750 597 1062 519 
Q 1375 441 1716 441 
Q 2309 441 2620 675 
Q 2931 909 2931 1356 
Q 2931 1769 2642 2001 
Q 2353 2234 1838 2234 
L 1294 2234 
L 1294 2753 
L 1863 2753 
Q 2328 2753 2575 2939 
Q 2822 3125 2822 3475 
Q 2822 3834 2567 4026 
Q 2313 4219 1838 4219 
Q 1578 4219 1281 4162 
Q 984 4106 628 3988 
L 628 4550 
Q 988 4650 1302 4700 
Q 1616 4750 1894 4750 
Q 2613 4750 3031 4423 
Q 3450 4097 3450 3541 
Q 3450 3153 3228 2886 
Q 3006 2619 2597 2516 
z
" transform="scale(0.015625)"/>
       </defs>
       <use xlink:href="#DejaVuSans-31"/>
       <use xlink:href="#DejaVuSans-33" x="63.623047"/>
       <use xlink:href="#DejaVuSans-35" x="127.246094"/>
       <use xlink:href="#DejaVuSans-b0" x="190.869141"/>
      </g>
     </g>
    </g>
    <g id="xtick_5">
     <g id="line2d_5">
      <path d="M 207 151.559063 
L 103.101563 151.559063 
" clip-path="url(#p9f58a1da4c)" style="fill: none; stroke: #b0b0b0; stroke-width: 0.8; stroke-linecap: square"/>
     </g>
     <g id="text_5">
      <!-- 180° -->
      <g transform="translate(69.831563 155.974063) scale(0.16 -0.16)">
       <defs>
        <path id="DejaVuSans-38" d="M 2034 2216 
Q 1584 2216 1326 1975 
Q 1069 1734 1069 1313 
Q 1069 891 1326 650 
Q 1584 409 2034 409 
Q 2484 409 2743 651 
Q 3003 894 3003 1313 
Q 3003 1734 2745 1975 
Q 2488 2216 2034 2216 
z
M 1403 2484 
Q 997 2584 770 2862 
Q 544 3141 544 3541 
Q 544 4100 942 4425 
Q 1341 4750 2034 4750 
Q 2731 4750 3128 4425 
Q 3525 4100 3525 3541 
Q 3525 3141 3298 2862 
Q 3072 2584 2669 2484 
Q 3125 2378 3379 2068 
Q 3634 1759 3634 1313 
Q 3634 634 3220 271 
Q 2806 -91 2034 -91 
Q 1263 -91 848 271 
Q 434 634 434 1313 
Q 434 1759 690 2068 
Q 947 2378 1403 2484 
z
M 1172 3481 
Q 1172 3119 1398 2916 
Q 1625 2713 2034 2713 
Q 2441 2713 2670 2916 
Q 2900 3119 2900 3481 
Q 2900 3844 2670 4047 
Q 2441 4250 2034 4250 
Q 1625 4250 1398 4047 
Q 1172 3844 1172 3481 
z
" transform="scale(0.015625)"/>
       </defs>
       <use xlink:href="#DejaVuSans-31"/>
       <use xlink:href="#DejaVuSans-38" x="63.623047"/>
       <use xlink:href="#DejaVuSans-30" x="127.246094"/>
       <use xlink:href="#DejaVuSans-b0" x="190.869141"/>
      </g>
     </g>
    </g>
    <g id="xtick_6">
     <g id="line2d_6">
      <path d="M 207 151.559063 
L 133.53271 225.026352 
" clip-path="url(#p9f58a1da4c)" style="fill: none; stroke: #b0b0b0; stroke-width: 0.8; stroke-linecap: square"/>
     </g>
     <g id="text_6">
      <!-- 225° -->
      <g transform="translate(104.363215 239.340847) scale(0.16 -0.16)">
       <defs>
        <path id="DejaVuSans-32" d="M 1228 531 
L 3431 531 
L 3431 0 
L 469 0 
L 469 531 
Q 828 903 1448 1529 
Q 2069 2156 2228 2338 
Q 2531 2678 2651 2914 
Q 2772 3150 2772 3378 
Q 2772 3750 2511 3984 
Q 2250 4219 1831 4219 
Q 1534 4219 1204 4116 
Q 875 4013 500 3803 
L 500 4441 
Q 881 4594 1212 4672 
Q 1544 4750 1819 4750 
Q 2544 4750 2975 4387 
Q 3406 4025 3406 3419 
Q 3406 3131 3298 2873 
Q 3191 2616 2906 2266 
Q 2828 2175 2409 1742 
Q 1991 1309 1228 531 
z
" transform="scale(0.015625)"/>
       </defs>
       <use xlink:href="#DejaVuSans-32"/>
       <use xlink:href="#DejaVuSans-32" x="63.623047"/>
       <use xlink:href="#DejaVuSans-35" x="127.246094"/>
       <use xlink:href="#DejaVuSans-b0" x="190.869141"/>
      </g>
     </g>
    </g>
    <g id="xtick_7">
     <g id="line2d_7">
      <path d="M 207 151.559063 
L 207 255.4575 
" clip-path="url(#p9f58a1da4c)" style="fill: none; stroke: #b0b0b0; stroke-width: 0.8; stroke-linecap: square"/>
     </g>
     <g id="text_7">
      <!-- 270° -->
      <g transform="translate(187.73 273.8725) scale(0.16 -0.16)">
       <defs>
        <path id="DejaVuSans-37" d="M 525 4666 
L 3525 4666 
L 3525 4397 
L 1831 0 
L 1172 0 
L 2766 4134 
L 525 4134 
L 525 4666 
z
" transform="scale(0.015625)"/>
       </defs>
       <use xlink:href="#DejaVuSans-32"/>
       <use xlink:href="#DejaVuSans-37" x="63.623047"/>
       <use xlink:href="#DejaVuSans-30" x="127.246094"/>
       <use xlink:href="#DejaVuSans-b0" x="190.869141"/>
      </g>
     </g>
    </g>
    <g id="xtick_8">
     <g id="line2d_8">
      <path d="M 207 151.559063 
L 280.46729 225.026352 
" clip-path="url(#p9f58a1da4c)" style="fill: none; stroke: #b0b0b0; stroke-width: 0.8; stroke-linecap: square"/>
     </g>
     <g id="text_8">
      <!-- 315° -->
      <g transform="translate(271.096785 239.340847) scale(0.16 -0.16)">
       <use xlink:href="#DejaVuSans-33"/>
       <use xlink:href="#DejaVuSans-31" x="63.623047"/>
       <use xlink:href="#DejaVuSans-35" x="127.246094"/>
       <use xlink:href="#DejaVuSans-b0" x="190.869141"/>
      </g>
     </g>
    </g>
   </g>
   <g id="matplotlib.axis_2">
    <g id="ytick_1">
     <g id="line2d_9">
      <path d="M 232.551755 151.559063 
C 232.551755 148.203637 231.890809 144.880838 230.606743 141.780829 
C 229.322677 138.68082 227.440463 135.863888 225.067819 133.491243 
C 222.695175 131.118599 219.878242 129.236385 216.778233 127.952319 
C 213.678224 126.668253 210.355426 126.007308 207 126.007308 
C 203.644574 126.007308 200.321776 126.668253 197.221767 127.952319 
C 194.121758 129.236385 191.304825 131.118599 188.932181 133.491243 
C 186.559537 135.863888 184.677323 138.68082 183.393257 141.780829 
C 182.109191 144.880838 181.448245 148.203637 181.448245 151.559063 
C 181.448245 154.914488 182.109191 158.237287 183.393257 161.337296 
C 184.677323 164.437305 186.559537 167.254237 188.932181 169.626882 
C 191.304825 171.999526 194.121758 173.88174 197.221767 175.165806 
C 200.321776 176.449872 203.644574 177.110817 207 177.110817 
C 210.355426 177.110817 213.678224 176.449872 216.778233 175.165806 
C 219.878242 173.88174 222.695175 171.999526 225.067819 169.626882 
C 227.440463 167.254237 229.322677 164.437305 230.606743 161.337296 
C 231.890809 158.237287 232.551755 154.914488 232.551755 151.559063 
" clip-path="url(#p9f58a1da4c)" style="fill: none; stroke: #b0b0b0; stroke-width: 0.8; stroke-linecap: square"/>
     </g>
     <g id="text_9">
      <!-- 20 -->
      <g transform="translate(230.606743 138.453329) scale(0.16 -0.16)">
       <use xlink:href="#DejaVuSans-32"/>
       <use xlink:href="#DejaVuSans-30" x="63.623047"/>
      </g>
     </g>
    </g>
    <g id="ytick_2">
     <g id="line2d_10">
      <path d="M 258.10351 151.559063 
C 258.10351 144.848211 256.781618 138.202614 254.213487 132.002596 
C 251.645355 125.802578 247.880927 120.168713 243.135638 115.423424 
C 238.39035 110.678136 232.756485 106.913708 226.556466 104.345576 
C 220.356448 101.777444 213.710851 100.455553 207 100.455553 
C 200.289149 100.455553 193.643552 101.777444 187.443534 104.345576 
C 181.243515 106.913708 175.60965 110.678136 170.864362 115.423424 
C 166.119073 120.168713 162.354645 125.802578 159.786513 132.002596 
C 157.218382 138.202614 155.89649 144.848211 155.89649 151.559063 
C 155.89649 158.269914 157.218382 164.915511 159.786513 171.115529 
C 162.354645 177.315547 166.119073 182.949412 170.864362 187.694701 
C 175.60965 192.439989 181.243515 196.204417 187.443534 198.772549 
C 193.643552 201.340681 200.289149 202.662572 207 202.662572 
C 213.710851 202.662572 220.356448 201.340681 226.556466 198.772549 
C 232.756485 196.204417 238.39035 192.439989 243.135638 187.694701 
C 247.880927 182.949412 251.645355 177.315547 254.213487 171.115529 
C 256.781618 164.915511 258.10351 158.269914 258.10351 151.559063 
" clip-path="url(#p9f58a1da4c)" style="fill: none; stroke: #b0b0b0; stroke-width: 0.8; stroke-linecap: square"/>
     </g>
     <g id="text_10">
      <!-- 40 -->
      <g transform="translate(254.213487 128.675096) scale(0.16 -0.16)">
       <use xlink:href="#DejaVuSans-34"/>
       <use xlink:href="#DejaVuSans-30" x="63.623047"/>
      </g>
     </g>
    </g>
    <g id="ytick_3">
     <g id="line2d_11">
      <path d="M 283.655264 151.559063 
C 283.655264 141.492785 281.672427 131.52439 277.82023 122.224363 
C 273.968032 112.924335 268.32139 104.473538 261.203457 97.355605 
C 254.085524 90.237672 245.634727 84.59103 236.3347 80.738833 
C 227.034672 76.886635 217.066277 74.903798 207 74.903798 
C 196.933723 74.903798 186.965328 76.886635 177.6653 80.738833 
C 168.365273 84.59103 159.914476 90.237672 152.796543 97.355605 
C 145.67861 104.473538 140.031968 112.924335 136.17977 122.224363 
C 132.327573 131.52439 130.344736 141.492785 130.344736 151.559063 
C 130.344736 161.62534 132.327573 171.593735 136.17977 180.893762 
C 140.031968 190.19379 145.67861 198.644587 152.796543 205.76252 
C 159.914476 212.880453 168.365273 218.527095 177.6653 222.379292 
C 186.965328 226.23149 196.933723 228.214327 207 228.214327 
C 217.066277 228.214327 227.034672 226.23149 236.3347 222.379292 
C 245.634727 218.527095 254.085524 212.880453 261.203457 205.76252 
C 268.32139 198.644587 273.968032 190.19379 277.82023 180.893762 
C 281.672427 171.593735 283.655264 161.62534 283.655264 151.559063 
" clip-path="url(#p9f58a1da4c)" style="fill: none; stroke: #b0b0b0; stroke-width: 0.8; stroke-linecap: square"/>
     </g>
     <g id="text_11">
      <!-- 60 -->
      <g transform="translate(277.82023 118.896863) scale(0.16 -0.16)">
       <defs>
        <path id="DejaVuSans-36" d="M 2113 2584 
Q 1688 2584 1439 2293 
Q 1191 2003 1191 1497 
Q 1191 994 1439 701 
Q 1688 409 2113 409 
Q 2538 409 2786 701 
Q 3034 994 3034 1497 
Q 3034 2003 2786 2293 
Q 2538 2584 2113 2584 
z
M 3366 4563 
L 3366 3988 
Q 3128 4100 2886 4159 
Q 2644 4219 2406 4219 
Q 1781 4219 1451 3797 
Q 1122 3375 1075 2522 
Q 1259 2794 1537 2939 
Q 1816 3084 2150 3084 
Q 2853 3084 3261 2657 
Q 3669 2231 3669 1497 
Q 3669 778 3244 343 
Q 2819 -91 2113 -91 
Q 1303 -91 875 529 
Q 447 1150 447 2328 
Q 447 3434 972 4092 
Q 1497 4750 2381 4750 
Q 2619 4750 2861 4703 
Q 3103 4656 3366 4563 
z
" transform="scale(0.015625)"/>
       </defs>
       <use xlink:href="#DejaVuSans-36"/>
       <use xlink:href="#DejaVuSans-30" x="63.623047"/>
      </g>
     </g>
    </g>
    <g id="ytick_4">
     <g id="line2d_12">
      <path d="M 309.207019 151.559063 
C 309.207019 138.13736 306.563236 124.846166 301.426973 112.44613 
C 296.29071 100.046093 288.761853 88.778363 279.271276 79.287786 
C 269.780699 69.797209 258.512969 62.268353 246.112933 57.132089 
C 233.712896 51.995826 220.421703 49.352043 207 49.352043 
C 193.578297 49.352043 180.287104 51.995826 167.887067 57.132089 
C 155.487031 62.268353 144.219301 69.797209 134.728724 79.287786 
C 125.238147 88.778363 117.70929 100.046093 112.573027 112.44613 
C 107.436764 124.846166 104.792981 138.13736 104.792981 151.559063 
C 104.792981 164.980765 107.436764 178.271959 112.573027 190.671995 
C 117.70929 203.072032 125.238147 214.339762 134.728724 223.830339 
C 144.219301 233.320916 155.487031 240.849772 167.887067 245.986036 
C 180.287104 251.122299 193.578297 253.766082 207 253.766082 
C 220.421703 253.766082 233.712896 251.122299 246.112933 245.986036 
C 258.512969 240.849772 269.780699 233.320916 279.271276 223.830339 
C 288.761853 214.339762 296.29071 203.072032 301.426973 190.671995 
C 306.563236 178.271959 309.207019 164.980765 309.207019 151.559063 
" clip-path="url(#p9f58a1da4c)" style="fill: none; stroke: #b0b0b0; stroke-width: 0.8; stroke-linecap: square"/>
     </g>
     <g id="text_12">
      <!-- 80 -->
      <g transform="translate(301.426973 109.11863) scale(0.16 -0.16)">
       <use xlink:href="#DejaVuSans-38"/>
       <use xlink:href="#DejaVuSans-30" x="63.623047"/>
      </g>
     </g>
    </g>
   </g>
   <g id="line2d_13">
    <path d="M 108.526025 177.390115 
L 109.751804 171.326238 
L 111.415845 164.344091 
L 113.717424 156.291388 
L 115.189681 151.820947 
L 116.930165 147.038909 
L 118.984917 141.942306 
L 121.402793 136.53895 
L 124.232694 130.851098 
L 127.519285 124.918997 
L 131.29723 118.80348 
L 135.584383 112.586515 
L 140.375061 106.368599 
L 145.635079 100.262364 
L 151.300388 94.382793 
L 157.280512 88.835692 
L 163.466639 83.706972 
L 169.742705 79.055256 
L 175.99685 74.909265 
L 182.130782 71.269885 
L 188.065581 68.115554 
L 193.743737 65.409117 
L 199.12817 63.104526 
L 204.199382 61.152395 
L 208.951801 59.504009 
L 213.390121 58.113875 
L 221.375749 55.949769 
L 228.291558 54.393193 
L 234.292254 53.251113 
L 197.506042 252.106235 
L 202.593587 249.635522 
L 208.450377 246.564692 
L 215.221133 242.65932 
L 218.993348 240.295892 
L 223.042244 237.593434 
L 227.374898 234.49486 
L 231.98855 230.937921 
L 236.865983 226.858254 
L 241.970311 222.194813 
L 247.240071 216.89824 
L 252.586247 210.942016 
L 257.893409 204.334972 
L 263.026992 197.132043 
L 267.847245 189.438889 
L 272.227637 181.406562 
L 276.072754 173.2155 
L 279.33007 165.052535 
L 281.992211 157.087711 
L 284.090291 149.457327 
L 285.681974 142.256276 
L 286.838609 135.538948 
L 287.634566 129.325647 
L 288.140004 123.611232 
L 288.416941 118.373561 
L 288.517788 113.5805 
L 288.354276 105.179306 
L 287.897421 98.109985 
L 287.297965 92.106097 
L 286.973997 89.433527 
L 288.621664 212.325796 
L 290.907118 208.054559 
L 293.113872 203.558372 
L 295.218118 198.844303 
L 297.195415 193.924384 
L 299.02156 188.8159 
L 300.673584 183.541415 
L 302.130814 178.128466 
L 303.3759 172.608915 
L 304.395714 167.017973 
L 305.182014 161.392948 
L 305.731814 155.771843 
L 306.047406 150.191895 
L 306.136056 144.688224 
L 306.009402 139.292672 
L 305.682654 134.032929 
L 305.173662 128.931991 
L 304.501971 124.007931 
L 303.687922 119.273965 
L 303.546065 182.998616 
L 304.280376 178.251866 
L 304.870909 173.305245 
L 305.296216 168.171061 
L 305.535444 162.866818 
L 305.569295 157.415397 
L 305.381074 151.844927 
L 304.95774 146.18829 
L 304.29085 140.482263 
L 303.3773 134.766295 
L 302.219742 129.081032 
L 300.826636 123.46669 
L 299.211897 117.961444 
L 297.394182 112.599974 
L 295.395904 107.412305 
L 293.242067 102.423022 
L 290.959056 97.650883 
L 288.573495 93.10882 
L 286.111252 88.804262 
L 283.596649 84.739691 
L 283.995083 218.209948 
L 284.481313 210.682404 
L 284.689777 204.538448 
L 284.681559 197.188404 
L 284.539398 192.957277 
L 284.260422 188.291994 
L 283.798856 183.142351 
L 283.097049 177.459951 
L 282.08445 171.204143 
L 280.678337 164.351035 
L 278.787833 156.905721 
L 276.322898 148.916554 
L 273.209303 140.487997 
L 269.408224 131.786062 
L 264.93532 123.029697 
L 259.871057 114.465104 
L 254.355167 106.328122 
L 248.564785 98.807386 
L 242.684145 92.021491 
L 236.87718 86.015827 
L 231.270875 80.775246 
L 225.950687 76.243878 
L 220.964637 72.344413 
L 216.331491 68.992821 
L 212.049538 66.107717 
L 204.473275 61.451364 
L 198.05348 57.899665 
L 192.586794 55.117057 
L 185.78449 51.905612 
L 223.965873 251.875275 
L 216.906282 250.45932 
L 208.902584 248.46969 
L 204.521094 247.192457 
L 199.880047 245.68455 
L 194.981939 243.910893 
L 189.83751 241.835102 
L 184.467804 239.421374 
L 178.906006 236.637137 
L 173.198626 233.456432 
L 167.405542 229.863752 
L 161.598441 225.857845 
L 155.857396 221.454752 
L 150.265718 216.689276 
L 144.903683 211.614243 
L 139.84218 206.297381 
L 135.137405 200.816197 
L 130.827557 195.25177 
L 126.931928 189.682583 
L 123.45223 184.179418 
L 120.375526 178.80191 
L 117.677967 173.596905 
L 115.328617 168.598398 
L 113.292843 163.82858 
L 111.535009 159.299554 
L 110.020424 155.015289 
L 107.593927 147.167574 
L 105.789751 140.221875 
L 105.789751 140.221875 
" clip-path="url(#p9f58a1da4c)" style="fill: none; stroke: #1f77b4; stroke-width: 1.5; stroke-linecap: square"/>
   </g>
   <g id="patch_3">
    <path d="M 310.898438 151.559063 
C 310.898438 137.915245 308.210903 124.404096 302.98964 111.798852 
C 297.768377 99.193608 290.114926 87.739409 280.46729 78.091773 
C 270.819654 68.444137 259.365455 60.790686 246.760211 55.569423 
C 234.154967 50.34816 220.643818 47.660625 207 47.660625 
C 193.356182 47.660625 179.845033 50.34816 167.239789 55.569423 
C 154.634545 60.790686 143.180346 68.444137 133.53271 78.091773 
C 123.885074 87.739409 116.231623 99.193608 111.01036 111.798852 
C 105.789097 124.404096 103.101563 137.915245 103.101563 151.559063 
C 103.101563 165.20288 105.789097 178.714029 111.01036 191.319273 
C 116.231623 203.924517 123.885074 215.378716 133.53271 225.026352 
C 143.180346 234.673988 154.634545 242.327439 167.239789 247.548702 
C 179.845033 252.769965 193.356182 255.4575 207 255.4575 
C 220.643818 255.4575 234.154967 252.769965 246.760211 247.548702 
C 259.365455 242.327439 270.819654 234.673988 280.46729 225.026352 
C 290.114926 215.378716 297.768377 203.924517 302.98964 191.319273 
C 308.210903 178.714029 310.898438 165.20288 310.898438 151.559063 
" style="fill: none; stroke: #000000; stroke-width: 0.8; stroke-linejoin: miter; stroke-linecap: square"/>
   </g>
   <g id="text_13">
    <!-- Ground Pass Azimuth and Declination -->
    <g transform="translate(94.103437 19.918125) scale(0.12 -0.12)">
     <defs>
      <path id="DejaVuSans-47" d="M 3809 666 
L 3809 1919 
L 2778 1919 
L 2778 2438 
L 4434 2438 
L 4434 434 
Q 4069 175 3628 42 
Q 3188 -91 2688 -91 
Q 1594 -91 976 548 
Q 359 1188 359 2328 
Q 359 3472 976 4111 
Q 1594 4750 2688 4750 
Q 3144 4750 3555 4637 
Q 3966 4525 4313 4306 
L 4313 3634 
Q 3963 3931 3569 4081 
Q 3175 4231 2741 4231 
Q 1884 4231 1454 3753 
Q 1025 3275 1025 2328 
Q 1025 1384 1454 906 
Q 1884 428 2741 428 
Q 3075 428 3337 486 
Q 3600 544 3809 666 
z
" transform="scale(0.015625)"/>
      <path id="DejaVuSans-72" d="M 2631 2963 
Q 2534 3019 2420 3045 
Q 2306 3072 2169 3072 
Q 1681 3072 1420 2755 
Q 1159 2438 1159 1844 
L 1159 0 
L 581 0 
L 581 3500 
L 1159 3500 
L 1159 2956 
Q 1341 3275 1631 3429 
Q 1922 3584 2338 3584 
Q 2397 3584 2469 3576 
Q 2541 3569 2628 3553 
L 2631 2963 
z
" transform="scale(0.015625)"/>
      <path id="DejaVuSans-6f" d="M 1959 3097 
Q 1497 3097 1228 2736 
Q 959 2375 959 1747 
Q 959 1119 1226 758 
Q 1494 397 1959 397 
Q 2419 397 2687 759 
Q 2956 1122 2956 1747 
Q 2956 2369 2687 2733 
Q 2419 3097 1959 3097 
z
M 1959 3584 
Q 2709 3584 3137 3096 
Q 3566 2609 3566 1747 
Q 3566 888 3137 398 
Q 2709 -91 1959 -91 
Q 1206 -91 779 398 
Q 353 888 353 1747 
Q 353 2609 779 3096 
Q 1206 3584 1959 3584 
z
" transform="scale(0.015625)"/>
      <path id="DejaVuSans-75" d="M 544 1381 
L 544 3500 
L 1119 3500 
L 1119 1403 
Q 1119 906 1312 657 
Q 1506 409 1894 409 
Q 2359 409 2629 706 
Q 2900 1003 2900 1516 
L 2900 3500 
L 3475 3500 
L 3475 0 
L 2900 0 
L 2900 538 
Q 2691 219 2414 64 
Q 2138 -91 1772 -91 
Q 1169 -91 856 284 
Q 544 659 544 1381 
z
M 1991 3584 
L 1991 3584 
z
" transform="scale(0.015625)"/>
      <path id="DejaVuSans-6e" d="M 3513 2113 
L 3513 0 
L 2938 0 
L 2938 2094 
Q 2938 2591 2744 2837 
Q 2550 3084 2163 3084 
Q 1697 3084 1428 2787 
Q 1159 2491 1159 1978 
L 1159 0 
L 581 0 
L 581 3500 
L 1159 3500 
L 1159 2956 
Q 1366 3272 1645 3428 
Q 1925 3584 2291 3584 
Q 2894 3584 3203 3211 
Q 3513 2838 3513 2113 
z
" transform="scale(0.015625)"/>
      <path id="DejaVuSans-64" d="M 2906 2969 
L 2906 4863 
L 3481 4863 
L 3481 0 
L 2906 0 
L 2906 525 
Q 2725 213 2448 61 
Q 2172 -91 1784 -91 
Q 1150 -91 751 415 
Q 353 922 353 1747 
Q 353 2572 751 3078 
Q 1150 3584 1784 3584 
Q 2172 3584 2448 3432 
Q 2725 3281 2906 2969 
z
M 947 1747 
Q 947 1113 1208 752 
Q 1469 391 1925 391 
Q 2381 391 2643 752 
Q 2906 1113 2906 1747 
Q 2906 2381 2643 2742 
Q 2381 3103 1925 3103 
Q 1469 3103 1208 2742 
Q 947 2381 947 1747 
z
" transform="scale(0.015625)"/>
      <path id="DejaVuSans-20" transform="scale(0.015625)"/>
      <path id="DejaVuSans-50" d="M 1259 4147 
L 1259 2394 
L 2053 2394 
Q 2494 2394 2734 2622 
Q 2975 2850 2975 3272 
Q 2975 3691 2734 3919 
Q 2494 4147 2053 4147 
L 1259 4147 
z
M 628 4666 
L 2053 4666 
Q 2838 4666 3239 4311 
Q 3641 3956 3641 3272 
Q 3641 2581 3239 2228 
Q 2838 1875 2053 1875 
L 1259 1875 
L 1259 0 
L 628 0 
L 628 4666 
z
" transform="scale(0.015625)"/>
      <path id="DejaVuSans-61" d="M 2194 1759 
Q 1497 1759 1228 1600 
Q 959 1441 959 1056 
Q 959 750 1161 570 
Q 1363 391 1709 391 
Q 2188 391 2477 730 
Q 2766 1069 2766 1631 
L 2766 1759 
L 2194 1759 
z
M 3341 1997 
L 3341 0 
L 2766 0 
L 2766 531 
Q 2569 213 2275 61 
Q 1981 -91 1556 -91 
Q 1019 -91 701 211 
Q 384 513 384 1019 
Q 384 1609 779 1909 
Q 1175 2209 1959 2209 
L 2766 2209 
L 2766 2266 
Q 2766 2663 2505 2880 
Q 2244 3097 1772 3097 
Q 1472 3097 1187 3025 
Q 903 2953 641 2809 
L 641 3341 
Q 956 3463 1253 3523 
Q 1550 3584 1831 3584 
Q 2591 3584 2966 3190 
Q 3341 2797 3341 1997 
z
" transform="scale(0.015625)"/>
      <path id="DejaVuSans-73" d="M 2834 3397 
L 2834 2853 
Q 2591 2978 2328 3040 
Q 2066 3103 1784 3103 
Q 1356 3103 1142 2972 
Q 928 2841 928 2578 
Q 928 2378 1081 2264 
Q 1234 2150 1697 2047 
L 1894 2003 
Q 2506 1872 2764 1633 
Q 3022 1394 3022 966 
Q 3022 478 2636 193 
Q 2250 -91 1575 -91 
Q 1294 -91 989 -36 
Q 684 19 347 128 
L 347 722 
Q 666 556 975 473 
Q 1284 391 1588 391 
Q 1994 391 2212 530 
Q 2431 669 2431 922 
Q 2431 1156 2273 1281 
Q 2116 1406 1581 1522 
L 1381 1569 
Q 847 1681 609 1914 
Q 372 2147 372 2553 
Q 372 3047 722 3315 
Q 1072 3584 1716 3584 
Q 2034 3584 2315 3537 
Q 2597 3491 2834 3397 
z
" transform="scale(0.015625)"/>
      <path id="DejaVuSans-41" d="M 2188 4044 
L 1331 1722 
L 3047 1722 
L 2188 4044 
z
M 1831 4666 
L 2547 4666 
L 4325 0 
L 3669 0 
L 3244 1197 
L 1141 1197 
L 716 0 
L 50 0 
L 1831 4666 
z
" transform="scale(0.015625)"/>
      <path id="DejaVuSans-7a" d="M 353 3500 
L 3084 3500 
L 3084 2975 
L 922 459 
L 3084 459 
L 3084 0 
L 275 0 
L 275 525 
L 2438 3041 
L 353 3041 
L 353 3500 
z
" transform="scale(0.015625)"/>
      <path id="DejaVuSans-69" d="M 603 3500 
L 1178 3500 
L 1178 0 
L 603 0 
L 603 3500 
z
M 603 4863 
L 1178 4863 
L 1178 4134 
L 603 4134 
L 603 4863 
z
" transform="scale(0.015625)"/>
      <path id="DejaVuSans-6d" d="M 3328 2828 
Q 3544 3216 3844 3400 
Q 4144 3584 4550 3584 
Q 5097 3584 5394 3201 
Q 5691 2819 5691 2113 
L 5691 0 
L 5113 0 
L 5113 2094 
Q 5113 2597 4934 2840 
Q 4756 3084 4391 3084 
Q 3944 3084 3684 2787 
Q 3425 2491 3425 1978 
L 3425 0 
L 2847 0 
L 2847 2094 
Q 2847 2600 2669 2842 
Q 2491 3084 2119 3084 
Q 1678 3084 1418 2786 
Q 1159 2488 1159 1978 
L 1159 0 
L 581 0 
L 581 3500 
L 1159 3500 
L 1159 2956 
Q 1356 3278 1631 3431 
Q 1906 3584 2284 3584 
Q 2666 3584 2933 3390 
Q 3200 3197 3328 2828 
z
" transform="scale(0.015625)"/>
      <path id="DejaVuSans-74" d="M 1172 4494 
L 1172 3500 
L 2356 3500 
L 2356 3053 
L 1172 3053 
L 1172 1153 
Q 1172 725 1289 603 
Q 1406 481 1766 481 
L 2356 481 
L 2356 0 
L 1766 0 
Q 1100 0 847 248 
Q 594 497 594 1153 
L 594 3053 
L 172 3053 
L 172 3500 
L 594 3500 
L 594 4494 
L 1172 4494 
z
" transform="scale(0.015625)"/>
      <path id="DejaVuSans-68" d="M 3513 2113 
L 3513 0 
L 2938 0 
L 2938 2094 
Q 2938 2591 2744 2837 
Q 2550 3084 2163 3084 
Q 1697 3084 1428 2787 
Q 1159 2491 1159 1978 
L 1159 0 
L 581 0 
L 581 4863 
L 1159 4863 
L 1159 2956 
Q 1366 3272 1645 3428 
Q 1925 3584 2291 3584 
Q 2894 3584 3203 3211 
Q 3513 2838 3513 2113 
z
" transform="scale(0.015625)"/>
      <path id="DejaVuSans-44" d="M 1259 4147 
L 1259 519 
L 2022 519 
Q 2988 519 3436 956 
Q 3884 1394 3884 2338 
Q 3884 3275 3436 3711 
Q 2988 4147 2022 4147 
L 1259 4147 
z
M 628 4666 
L 1925 4666 
Q 3281 4666 3915 4102 
Q 4550 3538 4550 2338 
Q 4550 1131 3912 565 
Q 3275 0 1925 0 
L 628 0 
L 628 4666 
z
" transform="scale(0.015625)"/>
      <path id="DejaVuSans-65" d="M 3597 1894 
L 3597 1613 
L 953 1613 
Q 991 1019 1311 708 
Q 1631 397 2203 397 
Q 2534 397 2845 478 
Q 3156 559 3463 722 
L 3463 178 
Q 3153 47 2828 -22 
Q 2503 -91 2169 -91 
Q 1331 -91 842 396 
Q 353 884 353 1716 
Q 353 2575 817 3079 
Q 1281 3584 2069 3584 
Q 2775 3584 3186 3129 
Q 3597 2675 3597 1894 
z
M 3022 2063 
Q 3016 2534 2758 2815 
Q 2500 3097 2075 3097 
Q 1594 3097 1305 2825 
Q 1016 2553 972 2059 
L 3022 2063 
z
" transform="scale(0.015625)"/>
      <path id="DejaVuSans-63" d="M 3122 3366 
L 3122 2828 
Q 2878 2963 2633 3030 
Q 2388 3097 2138 3097 
Q 1578 3097 1268 2742 
Q 959 2388 959 1747 
Q 959 1106 1268 751 
Q 1578 397 2138 397 
Q 2388 397 2633 464 
Q 2878 531 3122 666 
L 3122 134 
Q 2881 22 2623 -34 
Q 2366 -91 2075 -91 
Q 1284 -91 818 406 
Q 353 903 353 1747 
Q 353 2603 823 3093 
Q 1294 3584 2113 3584 
Q 2378 3584 2631 3529 
Q 2884 3475 3122 3366 
z
" transform="scale(0.015625)"/>
      <path id="DejaVuSans-6c" d="M 603 4863 
L 1178 4863 
L 1178 0 
L 603 0 
L 603 4863 
z
" transform="scale(0.015625)"/>
     </defs>
     <use xlink:href="#DejaVuSans-47"/>
     <use xlink:href="#DejaVuSans-72" x="77.490234"/>
     <use xlink:href="#DejaVuSans-6f" x="116.353516"/>
     <use xlink:href="#DejaVuSans-75" x="177.535156"/>
     <use xlink:href="#DejaVuSans-6e" x="240.914062"/>
     <use xlink:href="#DejaVuSans-64" x="304.292969"/>
     <use xlink:href="#DejaVuSans-20" x="367.769531"/>
     <use xlink:href="#DejaVuSans-50" x="399.556641"/>
     <use xlink:href="#DejaVuSans-61" x="455.359375"/>
     <use xlink:href="#DejaVuSans-73" x="516.638672"/>
     <use xlink:href="#DejaVuSans-73" x="568.738281"/>
     <use xlink:href="#DejaVuSans-20" x="620.837891"/>
     <use xlink:href="#DejaVuSans-41" x="652.625"/>
     <use xlink:href="#DejaVuSans-7a" x="721.033203"/>
     <use xlink:href="#DejaVuSans-69" x="773.523438"/>
     <use xlink:href="#DejaVuSans-6d" x="801.306641"/>
     <use xlink:href="#DejaVuSans-75" x="898.71875"/>
     <use xlink:href="#DejaVuSans-74" x="962.097656"/>
     <use xlink:href="#DejaVuSans-68" x="1001.306641"/>
     <use xlink:href="#DejaVuSans-20" x="1064.685547"/>
     <use xlink:href="#DejaVuSans-61" x="1096.472656"/>
     <use xlink:href="#DejaVuSans-6e" x="1157.751953"/>
     <use xlink:href="#DejaVuSans-64" x="1221.130859"/>
     <use xlink:href="#DejaVuSans-20" x="1284.607422"/>
     <use xlink:href="#DejaVuSans-44" x="1316.394531"/>
     <use xlink:href="#DejaVuSans-65" x="1393.396484"/>
     <use xlink:href="#DejaVuSans-63" x="1454.919922"/>
     <use xlink:href="#DejaVuSans-6c" x="1509.900391"/>
     <use xlink:href="#DejaVuSans-69" x="1537.683594"/>
     <use xlink:href="#DejaVuSans-6e" x="1565.466797"/>
     <use xlink:href="#DejaVuSans-61" x="1628.845703"/>
     <use xlink:href="#DejaVuSans-74" x="1690.125"/>
     <use xlink:href="#DejaVuSans-69" x="1729.333984"/>
     <use xlink:href="#DejaVuSans-6f" x="1757.117188"/>
     <use xlink:href="#DejaVuSans-6e" x="1818.298828"/>
    </g>
   </g>
  </g>
 </g>
 <defs>
  <clipPath id="p9f58a1da4c">
   <path d="M 310.898438 151.559063 
C 310.898438 137.915245 308.210903 124.404096 302.98964 111.798852 
C 297.768377 99.193608 290.114926 87.739409 280.46729 78.091773 
C 270.819654 68.444137 259.365455 60.790686 246.760211 55.569423 
C 234.154967 50.34816 220.643818 47.660625 207 47.660625 
C 193.356182 47.660625 179.845033 50.34816 167.239789 55.569423 
C 154.634545 60.790686 143.180346 68.444137 133.53271 78.091773 
C 123.885074 87.739409 116.231623 99.193608 111.01036 111.798852 
C 105.789097 124.404096 103.101563 137.915245 103.101563 151.559063 
C 103.101563 165.20288 105.789097 178.714029 111.01036 191.319273 
C 116.231623 203.924517 123.885074 215.378716 133.53271 225.026352 
C 143.180346 234.673988 154.634545 242.327439 167.239789 247.548702 
C 179.845033 252.769965 193.356182 255.4575 207 255.4575 
C 220.643818 255.4575 234.154967 252.769965 246.760211 247.548702 
C 259.365455 242.327439 270.819654 234.673988 280.46729 225.026352 
C 290.114926 215.378716 297.768377 203.924517 302.98964 191.319273 
C 308.210903 178.714029 310.898438 165.20288 310.898438 151.559063 
M 207 151.559063 
C 207 151.559063 207 151.559063 207 151.559063 
C 207 151.559063 207 151.559063 207 151.559063 
C 207 151.559063 207 151.559063 207 151.559063 
C 207 151.559063 207 151.559063 207 151.559063 
C 207 151.559063 207 151.559063 207 151.559063 
C 207 151.559063 207 151.559063 207 151.559063 
C 207 151.559063 207 151.559063 207 151.559063 
C 207 151.559063 207 151.559063 207 151.559063 
C 207 151.559063 207 151.559063 207 151.559063 
C 207 151.559063 207 151.559063 207 151.559063 
C 207 151.559063 207 151.559063 207 151.559063 
C 207 151.559063 207 151.559063 207 151.559063 
C 207 151.559063 207 151.559063 207 151.559063 
C 207 151.559063 207 151.559063 207 151.559063 
C 207 151.559063 207 151.559063 207 151.559063 
C 207 151.559063 207 151.559063 207 151.559063 
z
"/>
  </clipPath>
 </defs>
</svg>
