<?xml version="1.0" encoding="utf-8" standalone="no"?>
<!DOCTYPE svg PUBLIC "-//W3C//DTD SVG 1.1//EN"
  "http://www.w3.org/Graphics/SVG/1.1/DTD/svg11.dtd">
<svg xmlns:xlink="http://www.w3.org/1999/xlink" width="414pt" height="288pt" viewBox="0 0 414 288" xmlns="http://www.w3.org/2000/svg" version="1.1">
 <metadata>
  <rdf:RDF xmlns:dc="http://purl.org/dc/elements/1.1/" xmlns:cc="http://creativecommons.org/ns#" xmlns:rdf="http://www.w3.org/1999/02/22-rdf-syntax-ns#">
   <cc:Work>
    <dc:type rdf:resource="http://purl.org/dc/dcmitype/StillImage"/>
    <dc:date>2023-09-07T00:35:56.326614</dc:date>
    <dc:format>image/svg+xml</dc:format>
    <dc:creator>
     <cc:Agent>
      <dc:title>Matplotlib v3.7.2, https://matplotlib.org/</dc:title>
     </cc:Agent>
    </dc:creator>
   </cc:Work>
  </rdf:RDF>
 </metadata>
 <defs>
  <style type="text/css">*{stroke-linejoin: round; stroke-linecap: butt}</style>
 </defs>
 <g id="figure_1">
  <g id="patch_1">
   <path d="M 0 288 
L 414 288 
L 414 0 
L 0 0 
L 0 288 
z
" style="fill: none"/>
  </g>
  <g id="axes_1">
   <g id="patch_2">
    <path d="M 87.463125 241.036875 
L 403.2 241.036875 
L 403.2 10.8 
L 87.463125 10.8 
L 87.463125 241.036875 
z
" style="fill: none"/>
   </g>
   <g id="matplotlib.axis_1">
    <g id="xtick_1">
     <g id="line2d_1">
      <defs>
       <path id="mf9ece00af7" d="M 0 0 
L 0 3.5 
" style="stroke: #000000; stroke-width: 0.8"/>
      </defs>
      <g>
       <use xlink:href="#mf9ece00af7" x="101.814801" y="241.036875" style="stroke: #000000; stroke-width: 0.8"/>
      </g>
     </g>
     <g id="text_1">
      <!-- 0.0 -->
      <g transform="translate(89.092301 260.194375) scale(0.16 -0.16)">
       <defs>
        <path id="DejaVuSans-30" d="M 2034 4250 
Q 1547 4250 1301 3770 
Q 1056 3291 1056 2328 
Q 1056 1369 1301 889 
Q 1547 409 2034 409 
Q 2525 409 2770 889 
Q 3016 1369 3016 2328 
Q 3016 3291 2770 3770 
Q 2525 4250 2034 4250 
z
M 2034 4750 
Q 2819 4750 3233 4129 
Q 3647 3509 3647 2328 
Q 3647 1150 3233 529 
Q 2819 -91 2034 -91 
Q 1250 -91 836 529 
Q 422 1150 422 2328 
Q 422 3509 836 4129 
Q 1250 4750 2034 4750 
z
" transform="scale(0.015625)"/>
        <path id="DejaVuSans-2e" d="M 684 794 
L 1344 794 
L 1344 0 
L 684 0 
L 684 794 
z
" transform="scale(0.015625)"/>
       </defs>
       <use xlink:href="#DejaVuSans-30"/>
       <use xlink:href="#DejaVuSans-2e" x="63.623047"/>
       <use xlink:href="#DejaVuSans-30" x="95.410156"/>
      </g>
     </g>
    </g>
    <g id="xtick_2">
     <g id="line2d_2">
      <g>
       <use xlink:href="#mf9ece00af7" x="159.254206" y="241.036875" style="stroke: #000000; stroke-width: 0.8"/>
      </g>
     </g>
     <g id="text_2">
      <!-- 0.2 -->
      <g transform="translate(146.531706 260.194375) scale(0.16 -0.16)">
       <defs>
        <path id="DejaVuSans-32" d="M 1228 531 
L 3431 531 
L 3431 0 
L 469 0 
L 469 531 
Q 828 903 1448 1529 
Q 2069 2156 2228 2338 
Q 2531 2678 2651 2914 
Q 2772 3150 2772 3378 
Q 2772 3750 2511 3984 
Q 2250 4219 1831 4219 
Q 1534 4219 1204 4116 
Q 875 4013 500 3803 
L 500 4441 
Q 881 4594 1212 4672 
Q 1544 4750 1819 4750 
Q 2544 4750 2975 4387 
Q 3406 4025 3406 3419 
Q 3406 3131 3298 2873 
Q 3191 2616 2906 2266 
Q 2828 2175 2409 1742 
Q 1991 1309 1228 531 
z
" transform="scale(0.015625)"/>
       </defs>
       <use xlink:href="#DejaVuSans-30"/>
       <use xlink:href="#DejaVuSans-2e" x="63.623047"/>
       <use xlink:href="#DejaVuSans-32" x="95.410156"/>
      </g>
     </g>
    </g>
    <g id="xtick_3">
     <g id="line2d_3">
      <g>
       <use xlink:href="#mf9ece00af7" x="216.693611" y="241.036875" style="stroke: #000000; stroke-width: 0.8"/>
      </g>
     </g>
     <g id="text_3">
      <!-- 0.4 -->
      <g transform="translate(203.971111 260.194375) scale(0.16 -0.16)">
       <defs>
        <path id="DejaVuSans-34" d="M 2419 4116 
L 825 1625 
L 2419 1625 
L 2419 4116 
z
M 2253 4666 
L 3047 4666 
L 3047 1625 
L 3713 1625 
L 3713 1100 
L 3047 1100 
L 3047 0 
L 2419 0 
L 2419 1100 
L 313 1100 
L 313 1709 
L 2253 4666 
z
" transform="scale(0.015625)"/>
       </defs>
       <use xlink:href="#DejaVuSans-30"/>
       <use xlink:href="#DejaVuSans-2e" x="63.623047"/>
       <use xlink:href="#DejaVuSans-34" x="95.410156"/>
      </g>
     </g>
    </g>
    <g id="xtick_4">
     <g id="line2d_4">
      <g>
       <use xlink:href="#mf9ece00af7" x="274.133016" y="241.036875" style="stroke: #000000; stroke-width: 0.8"/>
      </g>
     </g>
     <g id="text_4">
      <!-- 0.6 -->
      <g transform="translate(261.410516 260.194375) scale(0.16 -0.16)">
       <defs>
        <path id="DejaVuSans-36" d="M 2113 2584 
Q 1688 2584 1439 2293 
Q 1191 2003 1191 1497 
Q 1191 994 1439 701 
Q 1688 409 2113 409 
Q 2538 409 2786 701 
Q 3034 994 3034 1497 
Q 3034 2003 2786 2293 
Q 2538 2584 2113 2584 
z
M 3366 4563 
L 3366 3988 
Q 3128 4100 2886 4159 
Q 2644 4219 2406 4219 
Q 1781 4219 1451 3797 
Q 1122 3375 1075 2522 
Q 1259 2794 1537 2939 
Q 1816 3084 2150 3084 
Q 2853 3084 3261 2657 
Q 3669 2231 3669 1497 
Q 3669 778 3244 343 
Q 2819 -91 2113 -91 
Q 1303 -91 875 529 
Q 447 1150 447 2328 
Q 447 3434 972 4092 
Q 1497 4750 2381 4750 
Q 2619 4750 2861 4703 
Q 3103 4656 3366 4563 
z
" transform="scale(0.015625)"/>
       </defs>
       <use xlink:href="#DejaVuSans-30"/>
       <use xlink:href="#DejaVuSans-2e" x="63.623047"/>
       <use xlink:href="#DejaVuSans-36" x="95.410156"/>
      </g>
     </g>
    </g>
    <g id="xtick_5">
     <g id="line2d_5">
      <g>
       <use xlink:href="#mf9ece00af7" x="331.57242" y="241.036875" style="stroke: #000000; stroke-width: 0.8"/>
      </g>
     </g>
     <g id="text_5">
      <!-- 0.8 -->
      <g transform="translate(318.84992 260.194375) scale(0.16 -0.16)">
       <defs>
        <path id="DejaVuSans-38" d="M 2034 2216 
Q 1584 2216 1326 1975 
Q 1069 1734 1069 1313 
Q 1069 891 1326 650 
Q 1584 409 2034 409 
Q 2484 409 2743 651 
Q 3003 894 3003 1313 
Q 3003 1734 2745 1975 
Q 2488 2216 2034 2216 
z
M 1403 2484 
Q 997 2584 770 2862 
Q 544 3141 544 3541 
Q 544 4100 942 4425 
Q 1341 4750 2034 4750 
Q 2731 4750 3128 4425 
Q 3525 4100 3525 3541 
Q 3525 3141 3298 2862 
Q 3072 2584 2669 2484 
Q 3125 2378 3379 2068 
Q 3634 1759 3634 1313 
Q 3634 634 3220 271 
Q 2806 -91 2034 -91 
Q 1263 -91 848 271 
Q 434 634 434 1313 
Q 434 1759 690 2068 
Q 947 2378 1403 2484 
z
M 1172 3481 
Q 1172 3119 1398 2916 
Q 1625 2713 2034 2713 
Q 2441 2713 2670 2916 
Q 2900 3119 2900 3481 
Q 2900 3844 2670 4047 
Q 2441 4250 2034 4250 
Q 1625 4250 1398 4047 
Q 1172 3844 1172 3481 
z
" transform="scale(0.015625)"/>
       </defs>
       <use xlink:href="#DejaVuSans-30"/>
       <use xlink:href="#DejaVuSans-2e" x="63.623047"/>
       <use xlink:href="#DejaVuSans-38" x="95.410156"/>
      </g>
     </g>
    </g>
    <g id="xtick_6">
     <g id="line2d_6">
      <g>
       <use xlink:href="#mf9ece00af7" x="389.011825" y="241.036875" style="stroke: #000000; stroke-width: 0.8"/>
      </g>
     </g>
     <g id="text_6">
      <!-- 1.0 -->
      <g transform="translate(376.289325 260.194375) scale(0.16 -0.16)">
       <defs>
        <path id="DejaVuSans-31" d="M 794 531 
L 1825 531 
L 1825 4091 
L 703 3866 
L 703 4441 
L 1819 4666 
L 2450 4666 
L 2450 531 
L 3481 531 
L 3481 0 
L 794 0 
L 794 531 
z
" transform="scale(0.015625)"/>
       </defs>
       <use xlink:href="#DejaVuSans-31"/>
       <use xlink:href="#DejaVuSans-2e" x="63.623047"/>
       <use xlink:href="#DejaVuSans-30" x="95.410156"/>
      </g>
     </g>
    </g>
    <g id="text_7">
     <!-- time [orbit] -->
     <g transform="translate(216.906562 275.120313) scale(0.1 -0.1)">
      <defs>
       <path id="DejaVuSans-74" d="M 1172 4494 
L 1172 3500 
L 2356 3500 
L 2356 3053 
L 1172 3053 
L 1172 1153 
Q 1172 725 1289 603 
Q 1406 481 1766 481 
L 2356 481 
L 2356 0 
L 1766 0 
Q 1100 0 847 248 
Q 594 497 594 1153 
L 594 3053 
L 172 3053 
L 172 3500 
L 594 3500 
L 594 4494 
L 1172 4494 
z
" transform="scale(0.015625)"/>
       <path id="DejaVuSans-69" d="M 603 3500 
L 1178 3500 
L 1178 0 
L 603 0 
L 603 3500 
z
M 603 4863 
L 1178 4863 
L 1178 4134 
L 603 4134 
L 603 4863 
z
" transform="scale(0.015625)"/>
       <path id="DejaVuSans-6d" d="M 3328 2828 
Q 3544 3216 3844 3400 
Q 4144 3584 4550 3584 
Q 5097 3584 5394 3201 
Q 5691 2819 5691 2113 
L 5691 0 
L 5113 0 
L 5113 2094 
Q 5113 2597 4934 2840 
Q 4756 3084 4391 3084 
Q 3944 3084 3684 2787 
Q 3425 2491 3425 1978 
L 3425 0 
L 2847 0 
L 2847 2094 
Q 2847 2600 2669 2842 
Q 2491 3084 2119 3084 
Q 1678 3084 1418 2786 
Q 1159 2488 1159 1978 
L 1159 0 
L 581 0 
L 581 3500 
L 1159 3500 
L 1159 2956 
Q 1356 3278 1631 3431 
Q 1906 3584 2284 3584 
Q 2666 3584 2933 3390 
Q 3200 3197 3328 2828 
z
" transform="scale(0.015625)"/>
       <path id="DejaVuSans-65" d="M 3597 1894 
L 3597 1613 
L 953 1613 
Q 991 1019 1311 708 
Q 1631 397 2203 397 
Q 2534 397 2845 478 
Q 3156 559 3463 722 
L 3463 178 
Q 3153 47 2828 -22 
Q 2503 -91 2169 -91 
Q 1331 -91 842 396 
Q 353 884 353 1716 
Q 353 2575 817 3079 
Q 1281 3584 2069 3584 
Q 2775 3584 3186 3129 
Q 3597 2675 3597 1894 
z
M 3022 2063 
Q 3016 2534 2758 2815 
Q 2500 3097 2075 3097 
Q 1594 3097 1305 2825 
Q 1016 2553 972 2059 
L 3022 2063 
z
" transform="scale(0.015625)"/>
       <path id="DejaVuSans-20" transform="scale(0.015625)"/>
       <path id="DejaVuSans-5b" d="M 550 4863 
L 1875 4863 
L 1875 4416 
L 1125 4416 
L 1125 -397 
L 1875 -397 
L 1875 -844 
L 550 -844 
L 550 4863 
z
" transform="scale(0.015625)"/>
       <path id="DejaVuSans-6f" d="M 1959 3097 
Q 1497 3097 1228 2736 
Q 959 2375 959 1747 
Q 959 1119 1226 758 
Q 1494 397 1959 397 
Q 2419 397 2687 759 
Q 2956 1122 2956 1747 
Q 2956 2369 2687 2733 
Q 2419 3097 1959 3097 
z
M 1959 3584 
Q 2709 3584 3137 3096 
Q 3566 2609 3566 1747 
Q 3566 888 3137 398 
Q 2709 -91 1959 -91 
Q 1206 -91 779 398 
Q 353 888 353 1747 
Q 353 2609 779 3096 
Q 1206 3584 1959 3584 
z
" transform="scale(0.015625)"/>
       <path id="DejaVuSans-72" d="M 2631 2963 
Q 2534 3019 2420 3045 
Q 2306 3072 2169 3072 
Q 1681 3072 1420 2755 
Q 1159 2438 1159 1844 
L 1159 0 
L 581 0 
L 581 3500 
L 1159 3500 
L 1159 2956 
Q 1341 3275 1631 3429 
Q 1922 3584 2338 3584 
Q 2397 3584 2469 3576 
Q 2541 3569 2628 3553 
L 2631 2963 
z
" transform="scale(0.015625)"/>
       <path id="DejaVuSans-62" d="M 3116 1747 
Q 3116 2381 2855 2742 
Q 2594 3103 2138 3103 
Q 1681 3103 1420 2742 
Q 1159 2381 1159 1747 
Q 1159 1113 1420 752 
Q 1681 391 2138 391 
Q 2594 391 2855 752 
Q 3116 1113 3116 1747 
z
M 1159 2969 
Q 1341 3281 1617 3432 
Q 1894 3584 2278 3584 
Q 2916 3584 3314 3078 
Q 3713 2572 3713 1747 
Q 3713 922 3314 415 
Q 2916 -91 2278 -91 
Q 1894 -91 1617 61 
Q 1341 213 1159 525 
L 1159 0 
L 581 0 
L 581 4863 
L 1159 4863 
L 1159 2969 
z
" transform="scale(0.015625)"/>
       <path id="DejaVuSans-5d" d="M 1947 4863 
L 1947 -844 
L 622 -844 
L 622 -397 
L 1369 -397 
L 1369 4416 
L 622 4416 
L 622 4863 
L 1947 4863 
z
" transform="scale(0.015625)"/>
      </defs>
      <use xlink:href="#DejaVuSans-74"/>
      <use xlink:href="#DejaVuSans-69" x="39.208984"/>
      <use xlink:href="#DejaVuSans-6d" x="66.992188"/>
      <use xlink:href="#DejaVuSans-65" x="164.404297"/>
      <use xlink:href="#DejaVuSans-20" x="225.927734"/>
      <use xlink:href="#DejaVuSans-5b" x="257.714844"/>
      <use xlink:href="#DejaVuSans-6f" x="296.728516"/>
      <use xlink:href="#DejaVuSans-72" x="357.910156"/>
      <use xlink:href="#DejaVuSans-62" x="399.023438"/>
      <use xlink:href="#DejaVuSans-69" x="462.5"/>
      <use xlink:href="#DejaVuSans-74" x="490.283203"/>
      <use xlink:href="#DejaVuSans-5d" x="529.492188"/>
     </g>
    </g>
   </g>
   <g id="matplotlib.axis_2">
    <g id="ytick_1">
     <g id="line2d_7">
      <defs>
       <path id="m071723bb17" d="M 0 0 
L -3.5 0 
" style="stroke: #000000; stroke-width: 0.8"/>
      </defs>
      <g>
       <use xlink:href="#m071723bb17" x="87.463125" y="191.512529" style="stroke: #000000; stroke-width: 0.8"/>
      </g>
     </g>
     <g id="text_8">
      <!-- 0.0000 -->
      <g transform="translate(24.478125 197.591279) scale(0.16 -0.16)">
       <use xlink:href="#DejaVuSans-30"/>
       <use xlink:href="#DejaVuSans-2e" x="63.623047"/>
       <use xlink:href="#DejaVuSans-30" x="95.410156"/>
       <use xlink:href="#DejaVuSans-30" x="159.033203"/>
       <use xlink:href="#DejaVuSans-30" x="222.65625"/>
       <use xlink:href="#DejaVuSans-30" x="286.279297"/>
      </g>
     </g>
    </g>
    <g id="ytick_2">
     <g id="line2d_8">
      <g>
       <use xlink:href="#m071723bb17" x="87.463125" y="134.714748" style="stroke: #000000; stroke-width: 0.8"/>
      </g>
     </g>
     <g id="text_9">
      <!-- 0.0005 -->
      <g transform="translate(24.478125 140.793498) scale(0.16 -0.16)">
       <defs>
        <path id="DejaVuSans-35" d="M 691 4666 
L 3169 4666 
L 3169 4134 
L 1269 4134 
L 1269 2991 
Q 1406 3038 1543 3061 
Q 1681 3084 1819 3084 
Q 2600 3084 3056 2656 
Q 3513 2228 3513 1497 
Q 3513 744 3044 326 
Q 2575 -91 1722 -91 
Q 1428 -91 1123 -41 
Q 819 9 494 109 
L 494 744 
Q 775 591 1075 516 
Q 1375 441 1709 441 
Q 2250 441 2565 725 
Q 2881 1009 2881 1497 
Q 2881 1984 2565 2268 
Q 2250 2553 1709 2553 
Q 1456 2553 1204 2497 
Q 953 2441 691 2322 
L 691 4666 
z
" transform="scale(0.015625)"/>
       </defs>
       <use xlink:href="#DejaVuSans-30"/>
       <use xlink:href="#DejaVuSans-2e" x="63.623047"/>
       <use xlink:href="#DejaVuSans-30" x="95.410156"/>
       <use xlink:href="#DejaVuSans-30" x="159.033203"/>
       <use xlink:href="#DejaVuSans-30" x="222.65625"/>
       <use xlink:href="#DejaVuSans-35" x="286.279297"/>
      </g>
     </g>
    </g>
    <g id="ytick_3">
     <g id="line2d_9">
      <g>
       <use xlink:href="#m071723bb17" x="87.463125" y="77.916966" style="stroke: #000000; stroke-width: 0.8"/>
      </g>
     </g>
     <g id="text_10">
      <!-- 0.0010 -->
      <g transform="translate(24.478125 83.995716) scale(0.16 -0.16)">
       <use xlink:href="#DejaVuSans-30"/>
       <use xlink:href="#DejaVuSans-2e" x="63.623047"/>
       <use xlink:href="#DejaVuSans-30" x="95.410156"/>
       <use xlink:href="#DejaVuSans-30" x="159.033203"/>
       <use xlink:href="#DejaVuSans-31" x="222.65625"/>
       <use xlink:href="#DejaVuSans-30" x="286.279297"/>
      </g>
     </g>
    </g>
    <g id="ytick_4">
     <g id="line2d_10">
      <g>
       <use xlink:href="#m071723bb17" x="87.463125" y="21.119185" style="stroke: #000000; stroke-width: 0.8"/>
      </g>
     </g>
     <g id="text_11">
      <!-- 0.0015 -->
      <g transform="translate(24.478125 27.197935) scale(0.16 -0.16)">
       <use xlink:href="#DejaVuSans-30"/>
       <use xlink:href="#DejaVuSans-2e" x="63.623047"/>
       <use xlink:href="#DejaVuSans-30" x="95.410156"/>
       <use xlink:href="#DejaVuSans-30" x="159.033203"/>
       <use xlink:href="#DejaVuSans-31" x="222.65625"/>
       <use xlink:href="#DejaVuSans-35" x="286.279297"/>
      </g>
     </g>
    </g>
    <g id="text_12">
     <!-- mean orbital element difference -->
     <g transform="translate(18.398438 206.748906) rotate(-90) scale(0.1 -0.1)">
      <defs>
       <path id="DejaVuSans-61" d="M 2194 1759 
Q 1497 1759 1228 1600 
Q 959 1441 959 1056 
Q 959 750 1161 570 
Q 1363 391 1709 391 
Q 2188 391 2477 730 
Q 2766 1069 2766 1631 
L 2766 1759 
L 2194 1759 
z
M 3341 1997 
L 3341 0 
L 2766 0 
L 2766 531 
Q 2569 213 2275 61 
Q 1981 -91 1556 -91 
Q 1019 -91 701 211 
Q 384 513 384 1019 
Q 384 1609 779 1909 
Q 1175 2209 1959 2209 
L 2766 2209 
L 2766 2266 
Q 2766 2663 2505 2880 
Q 2244 3097 1772 3097 
Q 1472 3097 1187 3025 
Q 903 2953 641 2809 
L 641 3341 
Q 956 3463 1253 3523 
Q 1550 3584 1831 3584 
Q 2591 3584 2966 3190 
Q 3341 2797 3341 1997 
z
" transform="scale(0.015625)"/>
       <path id="DejaVuSans-6e" d="M 3513 2113 
L 3513 0 
L 2938 0 
L 2938 2094 
Q 2938 2591 2744 2837 
Q 2550 3084 2163 3084 
Q 1697 3084 1428 2787 
Q 1159 2491 1159 1978 
L 1159 0 
L 581 0 
L 581 3500 
L 1159 3500 
L 1159 2956 
Q 1366 3272 1645 3428 
Q 1925 3584 2291 3584 
Q 2894 3584 3203 3211 
Q 3513 2838 3513 2113 
z
" transform="scale(0.015625)"/>
       <path id="DejaVuSans-6c" d="M 603 4863 
L 1178 4863 
L 1178 0 
L 603 0 
L 603 4863 
z
" transform="scale(0.015625)"/>
       <path id="DejaVuSans-64" d="M 2906 2969 
L 2906 4863 
L 3481 4863 
L 3481 0 
L 2906 0 
L 2906 525 
Q 2725 213 2448 61 
Q 2172 -91 1784 -91 
Q 1150 -91 751 415 
Q 353 922 353 1747 
Q 353 2572 751 3078 
Q 1150 3584 1784 3584 
Q 2172 3584 2448 3432 
Q 2725 3281 2906 2969 
z
M 947 1747 
Q 947 1113 1208 752 
Q 1469 391 1925 391 
Q 2381 391 2643 752 
Q 2906 1113 2906 1747 
Q 2906 2381 2643 2742 
Q 2381 3103 1925 3103 
Q 1469 3103 1208 2742 
Q 947 2381 947 1747 
z
" transform="scale(0.015625)"/>
       <path id="DejaVuSans-66" d="M 2375 4863 
L 2375 4384 
L 1825 4384 
Q 1516 4384 1395 4259 
Q 1275 4134 1275 3809 
L 1275 3500 
L 2222 3500 
L 2222 3053 
L 1275 3053 
L 1275 0 
L 697 0 
L 697 3053 
L 147 3053 
L 147 3500 
L 697 3500 
L 697 3744 
Q 697 4328 969 4595 
Q 1241 4863 1831 4863 
L 2375 4863 
z
" transform="scale(0.015625)"/>
       <path id="DejaVuSans-63" d="M 3122 3366 
L 3122 2828 
Q 2878 2963 2633 3030 
Q 2388 3097 2138 3097 
Q 1578 3097 1268 2742 
Q 959 2388 959 1747 
Q 959 1106 1268 751 
Q 1578 397 2138 397 
Q 2388 397 2633 464 
Q 2878 531 3122 666 
L 3122 134 
Q 2881 22 2623 -34 
Q 2366 -91 2075 -91 
Q 1284 -91 818 406 
Q 353 903 353 1747 
Q 353 2603 823 3093 
Q 1294 3584 2113 3584 
Q 2378 3584 2631 3529 
Q 2884 3475 3122 3366 
z
" transform="scale(0.015625)"/>
      </defs>
      <use xlink:href="#DejaVuSans-6d"/>
      <use xlink:href="#DejaVuSans-65" x="97.412109"/>
      <use xlink:href="#DejaVuSans-61" x="158.935547"/>
      <use xlink:href="#DejaVuSans-6e" x="220.214844"/>
      <use xlink:href="#DejaVuSans-20" x="283.59375"/>
      <use xlink:href="#DejaVuSans-6f" x="315.380859"/>
      <use xlink:href="#DejaVuSans-72" x="376.5625"/>
      <use xlink:href="#DejaVuSans-62" x="417.675781"/>
      <use xlink:href="#DejaVuSans-69" x="481.152344"/>
      <use xlink:href="#DejaVuSans-74" x="508.935547"/>
      <use xlink:href="#DejaVuSans-61" x="548.144531"/>
      <use xlink:href="#DejaVuSans-6c" x="609.423828"/>
      <use xlink:href="#DejaVuSans-20" x="637.207031"/>
      <use xlink:href="#DejaVuSans-65" x="668.994141"/>
      <use xlink:href="#DejaVuSans-6c" x="730.517578"/>
      <use xlink:href="#DejaVuSans-65" x="758.300781"/>
      <use xlink:href="#DejaVuSans-6d" x="819.824219"/>
      <use xlink:href="#DejaVuSans-65" x="917.236328"/>
      <use xlink:href="#DejaVuSans-6e" x="978.759766"/>
      <use xlink:href="#DejaVuSans-74" x="1042.138672"/>
      <use xlink:href="#DejaVuSans-20" x="1081.347656"/>
      <use xlink:href="#DejaVuSans-64" x="1113.134766"/>
      <use xlink:href="#DejaVuSans-69" x="1176.611328"/>
      <use xlink:href="#DejaVuSans-66" x="1204.394531"/>
      <use xlink:href="#DejaVuSans-66" x="1239.599609"/>
      <use xlink:href="#DejaVuSans-65" x="1274.804688"/>
      <use xlink:href="#DejaVuSans-72" x="1336.328125"/>
      <use xlink:href="#DejaVuSans-65" x="1375.191406"/>
      <use xlink:href="#DejaVuSans-6e" x="1436.714844"/>
      <use xlink:href="#DejaVuSans-63" x="1500.09375"/>
      <use xlink:href="#DejaVuSans-65" x="1555.074219"/>
     </g>
    </g>
   </g>
   <g id="line2d_11">
    <path d="M 101.814801 180.31089 
L 102.565216 183.883174 
L 103.31563 186.525353 
L 104.066044 188.388281 
L 104.816459 189.615311 
L 105.566873 190.333335 
L 106.317288 190.650371 
L 107.067702 190.65633 
L 107.818117 190.425078 
L 108.943738 189.761928 
L 110.444567 188.518792 
L 117.198297 182.386333 
L 119.44954 180.810395 
L 121.700784 179.506357 
L 123.952027 178.436553 
L 126.578478 177.435607 
L 129.204928 176.656632 
L 132.206586 175.994057 
L 135.583451 175.493265 
L 139.335523 175.188181 
L 143.462802 175.089314 
L 149.466118 175.200432 
L 156.595055 175.288277 
L 161.472749 175.111159 
L 172.353758 174.613774 
L 180.608317 174.646452 
L 188.112462 174.563549 
L 195.241399 174.255465 
L 202.745543 173.70541 
L 211.375309 172.835782 
L 221.881111 171.535997 
L 241.391887 168.838303 
L 258.651419 166.555619 
L 274.034915 164.757465 
L 309.679601 160.719255 
L 318.684574 159.398933 
L 326.939133 157.964547 
L 334.818484 156.370673 
L 344.949079 154.067161 
L 352.828431 152.338571 
L 356.95571 151.660996 
L 359.957368 151.388494 
L 362.583819 151.385825 
L 364.835062 151.620101 
L 366.711098 152.022194 
L 368.587134 152.644359 
L 370.46317 153.514964 
L 372.339206 154.661393 
L 374.215242 156.11274 
L 376.091278 157.903321 
L 377.967315 160.073844 
L 379.843351 162.666697 
L 381.719387 165.713952 
L 383.595423 169.220681 
L 385.846666 173.978771 
L 388.848324 180.970024 
L 388.848324 180.970024 
" clip-path="url(#pfbc70c323c)" style="fill: none; stroke: #1f77b4; stroke-width: 1.5; stroke-linecap: square"/>
   </g>
   <g id="line2d_12">
    <path d="M 101.814801 156.364598 
L 102.565216 158.491068 
L 103.31563 160.050872 
L 104.066044 161.143584 
L 104.816459 161.858297 
L 105.566873 162.271495 
L 106.317288 162.447284 
L 107.067702 162.438669 
L 108.193324 162.172889 
L 109.694153 161.515683 
L 112.320603 160.012539 
L 116.072675 157.890989 
L 119.074333 156.483923 
L 122.075991 155.326547 
L 125.828063 154.124183 
L 131.080964 152.697023 
L 139.71073 150.619702 
L 150.59174 148.214322 
L 155.844641 147.246455 
L 159.596713 146.755362 
L 162.973578 146.530832 
L 166.350443 146.543919 
L 170.102515 146.809808 
L 174.980209 147.406965 
L 183.985182 148.772746 
L 192.614948 150.2911 
L 200.869507 151.980477 
L 210.249687 154.145049 
L 224.132355 157.613279 
L 239.891058 161.493391 
L 249.271238 163.570327 
L 257.525797 165.168664 
L 265.029942 166.399205 
L 272.534086 167.399251 
L 279.663023 168.130488 
L 287.167167 168.674981 
L 295.046519 169.014451 
L 303.301078 169.144329 
L 312.681258 169.063496 
L 324.687889 168.72306 
L 344.198665 168.146909 
L 350.952395 168.178881 
L 356.205296 168.415644 
L 360.332575 168.810932 
L 363.70944 169.33774 
L 366.711098 170.021681 
L 369.337548 170.84197 
L 371.588792 171.754149 
L 373.840035 172.902674 
L 376.091278 174.334421 
L 377.967315 175.780358 
L 379.843351 177.485573 
L 381.719387 179.469013 
L 383.97063 182.216857 
L 386.221873 185.318426 
L 388.848324 189.231284 
L 388.848324 189.231284 
" clip-path="url(#pfbc70c323c)" style="fill: none; stroke: #ff7f0e; stroke-width: 1.5; stroke-linecap: square"/>
   </g>
   <g id="line2d_13">
    <path d="M 101.814801 221.918486 
L 103.31563 222.69545 
L 104.816459 223.148165 
L 106.692495 223.397439 
L 109.318946 223.477232 
L 114.196639 223.375678 
L 117.948712 223.086814 
L 121.325577 222.604231 
L 125.077649 221.821208 
L 129.204928 220.708243 
L 134.082622 219.145025 
L 142.337181 216.209999 
L 147.965289 214.306933 
L 151.717361 213.262296 
L 154.719019 212.644986 
L 157.34547 212.305245 
L 159.97192 212.164416 
L 162.973578 212.220762 
L 167.476065 212.566494 
L 174.229794 213.074641 
L 182.484353 213.392926 
L 194.115777 213.919199 
L 220.005075 215.201869 
L 229.010048 215.366826 
L 237.264607 215.305333 
L 245.519166 215.024445 
L 253.773725 214.526252 
L 262.778698 213.753744 
L 272.534086 212.68519 
L 283.790302 211.217841 
L 297.67297 209.168501 
L 314.932502 206.388971 
L 332.942448 203.269466 
L 358.831746 198.711203 
L 362.959026 198.279121 
L 366.335891 198.132501 
L 369.712756 198.210324 
L 373.464828 198.536935 
L 379.092936 199.298294 
L 385.471459 200.128471 
L 388.473117 200.307496 
L 388.848324 200.31426 
L 388.848324 200.31426 
" clip-path="url(#pfbc70c323c)" style="fill: none; stroke: #2ca02c; stroke-width: 1.5; stroke-linecap: square"/>
   </g>
   <g id="line2d_14">
    <path d="M 101.814801 187.509111 
L 102.565216 187.130898 
L 103.690837 186.831255 
L 105.191666 186.683154 
L 108.943738 186.638472 
L 125.077649 186.712712 
L 136.333865 187.099148 
L 150.216532 187.566772 
L 155.844641 187.526139 
L 162.223163 187.232033 
L 170.102515 186.877477 
L 176.481038 186.850771 
L 258.651419 187.658031 
L 330.691205 188.9664 
L 365.960683 189.557144 
L 380.593765 189.489495 
L 388.097909 189.80045 
L 388.848324 189.843192 
L 388.848324 189.843192 
" clip-path="url(#pfbc70c323c)" style="fill: none; stroke: #d62728; stroke-width: 1.5; stroke-linecap: square"/>
   </g>
   <g id="line2d_15">
    <path d="M 101.814801 208.67325 
L 103.31563 208.478719 
L 106.317288 208.423747 
L 126.578478 208.298243 
L 132.957 207.979017 
L 138.209901 207.489881 
L 142.712388 206.837569 
L 146.46446 206.079156 
L 150.216532 205.09529 
L 154.343812 203.771201 
L 162.598371 201.01099 
L 165.600028 200.30186 
L 168.226479 199.902486 
L 171.228137 199.679914 
L 174.980209 199.638347 
L 229.385256 200.129146 
L 279.663023 200.309385 
L 310.805222 200.186902 
L 332.942448 199.900742 
L 345.699494 199.535167 
L 354.32926 199.072662 
L 361.833404 198.436867 
L 370.838377 197.660709 
L 375.340864 197.537529 
L 381.344179 197.635955 
L 388.848324 197.82336 
L 388.848324 197.82336 
" clip-path="url(#pfbc70c323c)" style="fill: none; stroke: #9467bd; stroke-width: 1.5; stroke-linecap: square"/>
   </g>
   <g id="line2d_16">
    <path d="M 101.814801 21.265312 
L 102.565216 21.906259 
L 103.31563 22.245351 
L 104.441252 22.421778 
L 105.942081 22.369676 
L 108.943738 22.192662 
L 110.819774 22.330937 
L 112.320603 22.642203 
L 113.821432 23.141516 
L 115.697468 24.023745 
L 117.573504 25.172532 
L 119.44954 26.560078 
L 121.700784 28.499518 
L 124.327234 31.081273 
L 127.328892 34.371385 
L 131.080964 38.866055 
L 135.958658 45.110414 
L 147.214875 59.682747 
L 150.966947 64.1095 
L 153.968605 67.331636 
L 156.595055 69.856821 
L 159.221506 72.066042 
L 161.472749 73.69035 
L 163.723992 75.065053 
L 165.975236 76.20482 
L 168.601686 77.276654 
L 171.603344 78.238456 
L 175.355416 79.188008 
L 181.358732 80.437229 
L 189.988498 81.992034 
L 213.251345 86.009447 
L 219.629868 87.456167 
L 225.257976 88.955585 
L 230.886085 90.685452 
L 236.514193 92.653267 
L 242.142301 94.855659 
L 248.145617 97.449479 
L 254.524139 100.456293 
L 261.277869 103.883531 
L 269.157221 108.139791 
L 278.162194 113.262826 
L 288.667996 119.496414 
L 299.549006 126.209753 
L 308.553979 132.024564 
L 315.682916 136.88787 
L 321.686232 141.248463 
L 326.939133 145.337631 
L 331.441619 149.105693 
L 335.568899 152.823772 
L 339.696178 156.845235 
L 343.44825 160.809899 
L 347.200323 165.112567 
L 350.577187 169.308011 
L 353.954052 173.835558 
L 357.330917 178.709051 
L 361.08299 184.521336 
L 365.210269 191.336866 
L 370.838377 201.119593 
L 383.220216 222.865066 
L 385.471459 226.302794 
L 387.347495 228.828902 
L 388.848324 230.571562 
L 388.848324 230.571562 
" clip-path="url(#pfbc70c323c)" style="fill: none; stroke: #8c564b; stroke-width: 1.5; stroke-linecap: square"/>
   </g>
   <g id="patch_3">
    <path d="M 87.463125 241.036875 
L 87.463125 10.8 
" style="fill: none; stroke: #000000; stroke-width: 0.8; stroke-linejoin: miter; stroke-linecap: square"/>
   </g>
   <g id="patch_4">
    <path d="M 403.2 241.036875 
L 403.2 10.8 
" style="fill: none; stroke: #000000; stroke-width: 0.8; stroke-linejoin: miter; stroke-linecap: square"/>
   </g>
   <g id="patch_5">
    <path d="M 87.463125 241.036875 
L 403.2 241.036875 
" style="fill: none; stroke: #000000; stroke-width: 0.8; stroke-linejoin: miter; stroke-linecap: square"/>
   </g>
   <g id="patch_6">
    <path d="M 87.463125 10.8 
L 403.2 10.8 
" style="fill: none; stroke: #000000; stroke-width: 0.8; stroke-linejoin: miter; stroke-linecap: square"/>
   </g>
   <g id="legend_1">
    <g id="patch_7">
     <path d="M 349.575469 236.536875 
L 396.9 236.536875 
Q 398.7 236.536875 398.7 234.736875 
L 398.7 156.375 
Q 398.7 154.575 396.9 154.575 
L 349.575469 154.575 
Q 347.775469 154.575 347.775469 156.375 
L 347.775469 234.736875 
Q 347.775469 236.536875 349.575469 236.536875 
z
" style="fill: #ffffff; opacity: 0.8; stroke: #cccccc; stroke-linejoin: miter"/>
    </g>
    <g id="line2d_17">
     <path d="M 351.375469 161.863594 
L 360.375469 161.863594 
L 369.375469 161.863594 
" style="fill: none; stroke: #1f77b4; stroke-width: 1.5; stroke-linecap: square"/>
    </g>
    <g id="text_13">
     <!-- da -->
     <g transform="translate(376.575469 165.013594) scale(0.09 -0.09)">
      <use xlink:href="#DejaVuSans-64"/>
      <use xlink:href="#DejaVuSans-61" x="63.476562"/>
     </g>
    </g>
    <g id="line2d_18">
     <path d="M 351.375469 175.073906 
L 360.375469 175.073906 
L 369.375469 175.073906 
" style="fill: none; stroke: #ff7f0e; stroke-width: 1.5; stroke-linecap: square"/>
    </g>
    <g id="text_14">
     <!-- dP1 -->
     <g transform="translate(376.575469 178.223906) scale(0.09 -0.09)">
      <defs>
       <path id="DejaVuSans-50" d="M 1259 4147 
L 1259 2394 
L 2053 2394 
Q 2494 2394 2734 2622 
Q 2975 2850 2975 3272 
Q 2975 3691 2734 3919 
Q 2494 4147 2053 4147 
L 1259 4147 
z
M 628 4666 
L 2053 4666 
Q 2838 4666 3239 4311 
Q 3641 3956 3641 3272 
Q 3641 2581 3239 2228 
Q 2838 1875 2053 1875 
L 1259 1875 
L 1259 0 
L 628 0 
L 628 4666 
z
" transform="scale(0.015625)"/>
      </defs>
      <use xlink:href="#DejaVuSans-64"/>
      <use xlink:href="#DejaVuSans-50" x="63.476562"/>
      <use xlink:href="#DejaVuSans-31" x="123.779297"/>
     </g>
    </g>
    <g id="line2d_19">
     <path d="M 351.375469 188.284219 
L 360.375469 188.284219 
L 369.375469 188.284219 
" style="fill: none; stroke: #2ca02c; stroke-width: 1.5; stroke-linecap: square"/>
    </g>
    <g id="text_15">
     <!-- dP2 -->
     <g transform="translate(376.575469 191.434219) scale(0.09 -0.09)">
      <use xlink:href="#DejaVuSans-64"/>
      <use xlink:href="#DejaVuSans-50" x="63.476562"/>
      <use xlink:href="#DejaVuSans-32" x="123.779297"/>
     </g>
    </g>
    <g id="line2d_20">
     <path d="M 351.375469 201.494531 
L 360.375469 201.494531 
L 369.375469 201.494531 
" style="fill: none; stroke: #d62728; stroke-width: 1.5; stroke-linecap: square"/>
    </g>
    <g id="text_16">
     <!-- dQ1 -->
     <g transform="translate(376.575469 204.644531) scale(0.09 -0.09)">
      <defs>
       <path id="DejaVuSans-51" d="M 2522 4238 
Q 1834 4238 1429 3725 
Q 1025 3213 1025 2328 
Q 1025 1447 1429 934 
Q 1834 422 2522 422 
Q 3209 422 3611 934 
Q 4013 1447 4013 2328 
Q 4013 3213 3611 3725 
Q 3209 4238 2522 4238 
z
M 3406 84 
L 4238 -825 
L 3475 -825 
L 2784 -78 
Q 2681 -84 2626 -87 
Q 2572 -91 2522 -91 
Q 1538 -91 948 567 
Q 359 1225 359 2328 
Q 359 3434 948 4092 
Q 1538 4750 2522 4750 
Q 3503 4750 4090 4092 
Q 4678 3434 4678 2328 
Q 4678 1516 4351 937 
Q 4025 359 3406 84 
z
" transform="scale(0.015625)"/>
      </defs>
      <use xlink:href="#DejaVuSans-64"/>
      <use xlink:href="#DejaVuSans-51" x="63.476562"/>
      <use xlink:href="#DejaVuSans-31" x="142.1875"/>
     </g>
    </g>
    <g id="line2d_21">
     <path d="M 351.375469 214.704844 
L 360.375469 214.704844 
L 369.375469 214.704844 
" style="fill: none; stroke: #9467bd; stroke-width: 1.5; stroke-linecap: square"/>
    </g>
    <g id="text_17">
     <!-- dQ2 -->
     <g transform="translate(376.575469 217.854844) scale(0.09 -0.09)">
      <use xlink:href="#DejaVuSans-64"/>
      <use xlink:href="#DejaVuSans-51" x="63.476562"/>
      <use xlink:href="#DejaVuSans-32" x="142.1875"/>
     </g>
    </g>
    <g id="line2d_22">
     <path d="M 351.375469 227.915156 
L 360.375469 227.915156 
L 369.375469 227.915156 
" style="fill: none; stroke: #8c564b; stroke-width: 1.5; stroke-linecap: square"/>
    </g>
    <g id="text_18">
     <!-- dl -->
     <g transform="translate(376.575469 231.065156) scale(0.09 -0.09)">
      <use xlink:href="#DejaVuSans-64"/>
      <use xlink:href="#DejaVuSans-6c" x="63.476562"/>
     </g>
    </g>
   </g>
  </g>
 </g>
 <defs>
  <clipPath id="pfbc70c323c">
   <rect x="87.463125" y="10.8" width="315.736875" height="230.236875"/>
  </clipPath>
 </defs>
</svg>
