<?xml version="1.0" encoding="utf-8" standalone="no"?>
<!DOCTYPE svg PUBLIC "-//W3C//DTD SVG 1.1//EN"
  "http://www.w3.org/Graphics/SVG/1.1/DTD/svg11.dtd">
<svg xmlns:xlink="http://www.w3.org/1999/xlink" width="360pt" height="288pt" viewBox="0 0 360 288" xmlns="http://www.w3.org/2000/svg" version="1.1">
 <metadata>
  <rdf:RDF xmlns:dc="http://purl.org/dc/elements/1.1/" xmlns:cc="http://creativecommons.org/ns#" xmlns:rdf="http://www.w3.org/1999/02/22-rdf-syntax-ns#">
   <cc:Work>
    <dc:type rdf:resource="http://purl.org/dc/dcmitype/StillImage"/>
    <dc:date>2023-09-07T00:36:00.239473</dc:date>
    <dc:format>image/svg+xml</dc:format>
    <dc:creator>
     <cc:Agent>
      <dc:title>Matplotlib v3.7.2, https://matplotlib.org/</dc:title>
     </cc:Agent>
    </dc:creator>
   </cc:Work>
  </rdf:RDF>
 </metadata>
 <defs>
  <style type="text/css">*{stroke-linejoin: round; stroke-linecap: butt}</style>
 </defs>
 <g id="figure_1">
  <g id="patch_1">
   <path d="M 0 288 
L 360 288 
L 360 0 
L 0 0 
L 0 288 
z
" style="fill: none"/>
  </g>
  <g id="axes_1">
   <g id="patch_2">
    <path d="M 55.065625 241.036875 
L 349.2 241.036875 
L 349.2 25.9575 
L 55.065625 25.9575 
L 55.065625 241.036875 
z
" style="fill: none"/>
   </g>
   <g id="matplotlib.axis_1">
    <g id="xtick_1">
     <g id="line2d_1">
      <defs>
       <path id="mac2e296dcc" d="M 0 0 
L 0 3.5 
" style="stroke: #000000; stroke-width: 0.8"/>
      </defs>
      <g>
       <use xlink:href="#mac2e296dcc" x="68.435369" y="241.036875" style="stroke: #000000; stroke-width: 0.8"/>
      </g>
     </g>
     <g id="text_1">
      <!-- 0 -->
      <g transform="translate(63.345369 260.194375) scale(0.16 -0.16)">
       <defs>
        <path id="DejaVuSans-30" d="M 2034 4250 
Q 1547 4250 1301 3770 
Q 1056 3291 1056 2328 
Q 1056 1369 1301 889 
Q 1547 409 2034 409 
Q 2525 409 2770 889 
Q 3016 1369 3016 2328 
Q 3016 3291 2770 3770 
Q 2525 4250 2034 4250 
z
M 2034 4750 
Q 2819 4750 3233 4129 
Q 3647 3509 3647 2328 
Q 3647 1150 3233 529 
Q 2819 -91 2034 -91 
Q 1250 -91 836 529 
Q 422 1150 422 2328 
Q 422 3509 836 4129 
Q 1250 4750 2034 4750 
z
" transform="scale(0.015625)"/>
       </defs>
       <use xlink:href="#DejaVuSans-30"/>
      </g>
     </g>
    </g>
    <g id="xtick_2">
     <g id="line2d_2">
      <g>
       <use xlink:href="#mac2e296dcc" x="166.425287" y="241.036875" style="stroke: #000000; stroke-width: 0.8"/>
      </g>
     </g>
     <g id="text_2">
      <!-- 500 -->
      <g transform="translate(151.155287 260.194375) scale(0.16 -0.16)">
       <defs>
        <path id="DejaVuSans-35" d="M 691 4666 
L 3169 4666 
L 3169 4134 
L 1269 4134 
L 1269 2991 
Q 1406 3038 1543 3061 
Q 1681 3084 1819 3084 
Q 2600 3084 3056 2656 
Q 3513 2228 3513 1497 
Q 3513 744 3044 326 
Q 2575 -91 1722 -91 
Q 1428 -91 1123 -41 
Q 819 9 494 109 
L 494 744 
Q 775 591 1075 516 
Q 1375 441 1709 441 
Q 2250 441 2565 725 
Q 2881 1009 2881 1497 
Q 2881 1984 2565 2268 
Q 2250 2553 1709 2553 
Q 1456 2553 1204 2497 
Q 953 2441 691 2322 
L 691 4666 
z
" transform="scale(0.015625)"/>
       </defs>
       <use xlink:href="#DejaVuSans-35"/>
       <use xlink:href="#DejaVuSans-30" x="63.623047"/>
       <use xlink:href="#DejaVuSans-30" x="127.246094"/>
      </g>
     </g>
    </g>
    <g id="xtick_3">
     <g id="line2d_3">
      <g>
       <use xlink:href="#mac2e296dcc" x="264.415204" y="241.036875" style="stroke: #000000; stroke-width: 0.8"/>
      </g>
     </g>
     <g id="text_3">
      <!-- 1000 -->
      <g transform="translate(244.055204 260.194375) scale(0.16 -0.16)">
       <defs>
        <path id="DejaVuSans-31" d="M 794 531 
L 1825 531 
L 1825 4091 
L 703 3866 
L 703 4441 
L 1819 4666 
L 2450 4666 
L 2450 531 
L 3481 531 
L 3481 0 
L 794 0 
L 794 531 
z
" transform="scale(0.015625)"/>
       </defs>
       <use xlink:href="#DejaVuSans-31"/>
       <use xlink:href="#DejaVuSans-30" x="63.623047"/>
       <use xlink:href="#DejaVuSans-30" x="127.246094"/>
       <use xlink:href="#DejaVuSans-30" x="190.869141"/>
      </g>
     </g>
    </g>
    <g id="text_4">
     <!-- Time (s) -->
     <g transform="translate(181.803906 275.120313) scale(0.1 -0.1)">
      <defs>
       <path id="DejaVuSans-54" d="M -19 4666 
L 3928 4666 
L 3928 4134 
L 2272 4134 
L 2272 0 
L 1638 0 
L 1638 4134 
L -19 4134 
L -19 4666 
z
" transform="scale(0.015625)"/>
       <path id="DejaVuSans-69" d="M 603 3500 
L 1178 3500 
L 1178 0 
L 603 0 
L 603 3500 
z
M 603 4863 
L 1178 4863 
L 1178 4134 
L 603 4134 
L 603 4863 
z
" transform="scale(0.015625)"/>
       <path id="DejaVuSans-6d" d="M 3328 2828 
Q 3544 3216 3844 3400 
Q 4144 3584 4550 3584 
Q 5097 3584 5394 3201 
Q 5691 2819 5691 2113 
L 5691 0 
L 5113 0 
L 5113 2094 
Q 5113 2597 4934 2840 
Q 4756 3084 4391 3084 
Q 3944 3084 3684 2787 
Q 3425 2491 3425 1978 
L 3425 0 
L 2847 0 
L 2847 2094 
Q 2847 2600 2669 2842 
Q 2491 3084 2119 3084 
Q 1678 3084 1418 2786 
Q 1159 2488 1159 1978 
L 1159 0 
L 581 0 
L 581 3500 
L 1159 3500 
L 1159 2956 
Q 1356 3278 1631 3431 
Q 1906 3584 2284 3584 
Q 2666 3584 2933 3390 
Q 3200 3197 3328 2828 
z
" transform="scale(0.015625)"/>
       <path id="DejaVuSans-65" d="M 3597 1894 
L 3597 1613 
L 953 1613 
Q 991 1019 1311 708 
Q 1631 397 2203 397 
Q 2534 397 2845 478 
Q 3156 559 3463 722 
L 3463 178 
Q 3153 47 2828 -22 
Q 2503 -91 2169 -91 
Q 1331 -91 842 396 
Q 353 884 353 1716 
Q 353 2575 817 3079 
Q 1281 3584 2069 3584 
Q 2775 3584 3186 3129 
Q 3597 2675 3597 1894 
z
M 3022 2063 
Q 3016 2534 2758 2815 
Q 2500 3097 2075 3097 
Q 1594 3097 1305 2825 
Q 1016 2553 972 2059 
L 3022 2063 
z
" transform="scale(0.015625)"/>
       <path id="DejaVuSans-20" transform="scale(0.015625)"/>
       <path id="DejaVuSans-28" d="M 1984 4856 
Q 1566 4138 1362 3434 
Q 1159 2731 1159 2009 
Q 1159 1288 1364 580 
Q 1569 -128 1984 -844 
L 1484 -844 
Q 1016 -109 783 600 
Q 550 1309 550 2009 
Q 550 2706 781 3412 
Q 1013 4119 1484 4856 
L 1984 4856 
z
" transform="scale(0.015625)"/>
       <path id="DejaVuSans-73" d="M 2834 3397 
L 2834 2853 
Q 2591 2978 2328 3040 
Q 2066 3103 1784 3103 
Q 1356 3103 1142 2972 
Q 928 2841 928 2578 
Q 928 2378 1081 2264 
Q 1234 2150 1697 2047 
L 1894 2003 
Q 2506 1872 2764 1633 
Q 3022 1394 3022 966 
Q 3022 478 2636 193 
Q 2250 -91 1575 -91 
Q 1294 -91 989 -36 
Q 684 19 347 128 
L 347 722 
Q 666 556 975 473 
Q 1284 391 1588 391 
Q 1994 391 2212 530 
Q 2431 669 2431 922 
Q 2431 1156 2273 1281 
Q 2116 1406 1581 1522 
L 1381 1569 
Q 847 1681 609 1914 
Q 372 2147 372 2553 
Q 372 3047 722 3315 
Q 1072 3584 1716 3584 
Q 2034 3584 2315 3537 
Q 2597 3491 2834 3397 
z
" transform="scale(0.015625)"/>
       <path id="DejaVuSans-29" d="M 513 4856 
L 1013 4856 
Q 1481 4119 1714 3412 
Q 1947 2706 1947 2009 
Q 1947 1309 1714 600 
Q 1481 -109 1013 -844 
L 513 -844 
Q 928 -128 1133 580 
Q 1338 1288 1338 2009 
Q 1338 2731 1133 3434 
Q 928 4138 513 4856 
z
" transform="scale(0.015625)"/>
      </defs>
      <use xlink:href="#DejaVuSans-54"/>
      <use xlink:href="#DejaVuSans-69" x="57.958984"/>
      <use xlink:href="#DejaVuSans-6d" x="85.742188"/>
      <use xlink:href="#DejaVuSans-65" x="183.154297"/>
      <use xlink:href="#DejaVuSans-20" x="244.677734"/>
      <use xlink:href="#DejaVuSans-28" x="276.464844"/>
      <use xlink:href="#DejaVuSans-73" x="315.478516"/>
      <use xlink:href="#DejaVuSans-29" x="367.578125"/>
     </g>
    </g>
   </g>
   <g id="matplotlib.axis_2">
    <g id="ytick_1">
     <g id="line2d_4">
      <defs>
       <path id="mb4107e1f69" d="M 0 0 
L -3.5 0 
" style="stroke: #000000; stroke-width: 0.8"/>
      </defs>
      <g>
       <use xlink:href="#mb4107e1f69" x="55.065625" y="214.747704" style="stroke: #000000; stroke-width: 0.8"/>
      </g>
     </g>
     <g id="text_5">
      <!-- −2 -->
      <g transform="translate(24.478125 220.826454) scale(0.16 -0.16)">
       <defs>
        <path id="DejaVuSans-2212" d="M 678 2272 
L 4684 2272 
L 4684 1741 
L 678 1741 
L 678 2272 
z
" transform="scale(0.015625)"/>
        <path id="DejaVuSans-32" d="M 1228 531 
L 3431 531 
L 3431 0 
L 469 0 
L 469 531 
Q 828 903 1448 1529 
Q 2069 2156 2228 2338 
Q 2531 2678 2651 2914 
Q 2772 3150 2772 3378 
Q 2772 3750 2511 3984 
Q 2250 4219 1831 4219 
Q 1534 4219 1204 4116 
Q 875 4013 500 3803 
L 500 4441 
Q 881 4594 1212 4672 
Q 1544 4750 1819 4750 
Q 2544 4750 2975 4387 
Q 3406 4025 3406 3419 
Q 3406 3131 3298 2873 
Q 3191 2616 2906 2266 
Q 2828 2175 2409 1742 
Q 1991 1309 1228 531 
z
" transform="scale(0.015625)"/>
       </defs>
       <use xlink:href="#DejaVuSans-2212"/>
       <use xlink:href="#DejaVuSans-32" x="83.789062"/>
      </g>
     </g>
    </g>
    <g id="ytick_2">
     <g id="line2d_5">
      <g>
       <use xlink:href="#mb4107e1f69" x="55.065625" y="164.354586" style="stroke: #000000; stroke-width: 0.8"/>
      </g>
     </g>
     <g id="text_6">
      <!-- −1 -->
      <g transform="translate(24.478125 170.433336) scale(0.16 -0.16)">
       <use xlink:href="#DejaVuSans-2212"/>
       <use xlink:href="#DejaVuSans-31" x="83.789062"/>
      </g>
     </g>
    </g>
    <g id="ytick_3">
     <g id="line2d_6">
      <g>
       <use xlink:href="#mb4107e1f69" x="55.065625" y="113.961468" style="stroke: #000000; stroke-width: 0.8"/>
      </g>
     </g>
     <g id="text_7">
      <!-- 0 -->
      <g transform="translate(37.885625 120.040218) scale(0.16 -0.16)">
       <use xlink:href="#DejaVuSans-30"/>
      </g>
     </g>
    </g>
    <g id="ytick_4">
     <g id="line2d_7">
      <g>
       <use xlink:href="#mb4107e1f69" x="55.065625" y="63.568349" style="stroke: #000000; stroke-width: 0.8"/>
      </g>
     </g>
     <g id="text_8">
      <!-- 1 -->
      <g transform="translate(37.885625 69.647099) scale(0.16 -0.16)">
       <use xlink:href="#DejaVuSans-31"/>
      </g>
     </g>
    </g>
    <g id="text_9">
     <!-- Relative Orbital Energy Variation -->
     <g transform="translate(18.398438 215.085469) rotate(-90) scale(0.1 -0.1)">
      <defs>
       <path id="DejaVuSans-52" d="M 2841 2188 
Q 3044 2119 3236 1894 
Q 3428 1669 3622 1275 
L 4263 0 
L 3584 0 
L 2988 1197 
Q 2756 1666 2539 1819 
Q 2322 1972 1947 1972 
L 1259 1972 
L 1259 0 
L 628 0 
L 628 4666 
L 2053 4666 
Q 2853 4666 3247 4331 
Q 3641 3997 3641 3322 
Q 3641 2881 3436 2590 
Q 3231 2300 2841 2188 
z
M 1259 4147 
L 1259 2491 
L 2053 2491 
Q 2509 2491 2742 2702 
Q 2975 2913 2975 3322 
Q 2975 3731 2742 3939 
Q 2509 4147 2053 4147 
L 1259 4147 
z
" transform="scale(0.015625)"/>
       <path id="DejaVuSans-6c" d="M 603 4863 
L 1178 4863 
L 1178 0 
L 603 0 
L 603 4863 
z
" transform="scale(0.015625)"/>
       <path id="DejaVuSans-61" d="M 2194 1759 
Q 1497 1759 1228 1600 
Q 959 1441 959 1056 
Q 959 750 1161 570 
Q 1363 391 1709 391 
Q 2188 391 2477 730 
Q 2766 1069 2766 1631 
L 2766 1759 
L 2194 1759 
z
M 3341 1997 
L 3341 0 
L 2766 0 
L 2766 531 
Q 2569 213 2275 61 
Q 1981 -91 1556 -91 
Q 1019 -91 701 211 
Q 384 513 384 1019 
Q 384 1609 779 1909 
Q 1175 2209 1959 2209 
L 2766 2209 
L 2766 2266 
Q 2766 2663 2505 2880 
Q 2244 3097 1772 3097 
Q 1472 3097 1187 3025 
Q 903 2953 641 2809 
L 641 3341 
Q 956 3463 1253 3523 
Q 1550 3584 1831 3584 
Q 2591 3584 2966 3190 
Q 3341 2797 3341 1997 
z
" transform="scale(0.015625)"/>
       <path id="DejaVuSans-74" d="M 1172 4494 
L 1172 3500 
L 2356 3500 
L 2356 3053 
L 1172 3053 
L 1172 1153 
Q 1172 725 1289 603 
Q 1406 481 1766 481 
L 2356 481 
L 2356 0 
L 1766 0 
Q 1100 0 847 248 
Q 594 497 594 1153 
L 594 3053 
L 172 3053 
L 172 3500 
L 594 3500 
L 594 4494 
L 1172 4494 
z
" transform="scale(0.015625)"/>
       <path id="DejaVuSans-76" d="M 191 3500 
L 800 3500 
L 1894 563 
L 2988 3500 
L 3597 3500 
L 2284 0 
L 1503 0 
L 191 3500 
z
" transform="scale(0.015625)"/>
       <path id="DejaVuSans-4f" d="M 2522 4238 
Q 1834 4238 1429 3725 
Q 1025 3213 1025 2328 
Q 1025 1447 1429 934 
Q 1834 422 2522 422 
Q 3209 422 3611 934 
Q 4013 1447 4013 2328 
Q 4013 3213 3611 3725 
Q 3209 4238 2522 4238 
z
M 2522 4750 
Q 3503 4750 4090 4092 
Q 4678 3434 4678 2328 
Q 4678 1225 4090 567 
Q 3503 -91 2522 -91 
Q 1538 -91 948 565 
Q 359 1222 359 2328 
Q 359 3434 948 4092 
Q 1538 4750 2522 4750 
z
" transform="scale(0.015625)"/>
       <path id="DejaVuSans-72" d="M 2631 2963 
Q 2534 3019 2420 3045 
Q 2306 3072 2169 3072 
Q 1681 3072 1420 2755 
Q 1159 2438 1159 1844 
L 1159 0 
L 581 0 
L 581 3500 
L 1159 3500 
L 1159 2956 
Q 1341 3275 1631 3429 
Q 1922 3584 2338 3584 
Q 2397 3584 2469 3576 
Q 2541 3569 2628 3553 
L 2631 2963 
z
" transform="scale(0.015625)"/>
       <path id="DejaVuSans-62" d="M 3116 1747 
Q 3116 2381 2855 2742 
Q 2594 3103 2138 3103 
Q 1681 3103 1420 2742 
Q 1159 2381 1159 1747 
Q 1159 1113 1420 752 
Q 1681 391 2138 391 
Q 2594 391 2855 752 
Q 3116 1113 3116 1747 
z
M 1159 2969 
Q 1341 3281 1617 3432 
Q 1894 3584 2278 3584 
Q 2916 3584 3314 3078 
Q 3713 2572 3713 1747 
Q 3713 922 3314 415 
Q 2916 -91 2278 -91 
Q 1894 -91 1617 61 
Q 1341 213 1159 525 
L 1159 0 
L 581 0 
L 581 4863 
L 1159 4863 
L 1159 2969 
z
" transform="scale(0.015625)"/>
       <path id="DejaVuSans-45" d="M 628 4666 
L 3578 4666 
L 3578 4134 
L 1259 4134 
L 1259 2753 
L 3481 2753 
L 3481 2222 
L 1259 2222 
L 1259 531 
L 3634 531 
L 3634 0 
L 628 0 
L 628 4666 
z
" transform="scale(0.015625)"/>
       <path id="DejaVuSans-6e" d="M 3513 2113 
L 3513 0 
L 2938 0 
L 2938 2094 
Q 2938 2591 2744 2837 
Q 2550 3084 2163 3084 
Q 1697 3084 1428 2787 
Q 1159 2491 1159 1978 
L 1159 0 
L 581 0 
L 581 3500 
L 1159 3500 
L 1159 2956 
Q 1366 3272 1645 3428 
Q 1925 3584 2291 3584 
Q 2894 3584 3203 3211 
Q 3513 2838 3513 2113 
z
" transform="scale(0.015625)"/>
       <path id="DejaVuSans-67" d="M 2906 1791 
Q 2906 2416 2648 2759 
Q 2391 3103 1925 3103 
Q 1463 3103 1205 2759 
Q 947 2416 947 1791 
Q 947 1169 1205 825 
Q 1463 481 1925 481 
Q 2391 481 2648 825 
Q 2906 1169 2906 1791 
z
M 3481 434 
Q 3481 -459 3084 -895 
Q 2688 -1331 1869 -1331 
Q 1566 -1331 1297 -1286 
Q 1028 -1241 775 -1147 
L 775 -588 
Q 1028 -725 1275 -790 
Q 1522 -856 1778 -856 
Q 2344 -856 2625 -561 
Q 2906 -266 2906 331 
L 2906 616 
Q 2728 306 2450 153 
Q 2172 0 1784 0 
Q 1141 0 747 490 
Q 353 981 353 1791 
Q 353 2603 747 3093 
Q 1141 3584 1784 3584 
Q 2172 3584 2450 3431 
Q 2728 3278 2906 2969 
L 2906 3500 
L 3481 3500 
L 3481 434 
z
" transform="scale(0.015625)"/>
       <path id="DejaVuSans-79" d="M 2059 -325 
Q 1816 -950 1584 -1140 
Q 1353 -1331 966 -1331 
L 506 -1331 
L 506 -850 
L 844 -850 
Q 1081 -850 1212 -737 
Q 1344 -625 1503 -206 
L 1606 56 
L 191 3500 
L 800 3500 
L 1894 763 
L 2988 3500 
L 3597 3500 
L 2059 -325 
z
" transform="scale(0.015625)"/>
       <path id="DejaVuSans-56" d="M 1831 0 
L 50 4666 
L 709 4666 
L 2188 738 
L 3669 4666 
L 4325 4666 
L 2547 0 
L 1831 0 
z
" transform="scale(0.015625)"/>
       <path id="DejaVuSans-6f" d="M 1959 3097 
Q 1497 3097 1228 2736 
Q 959 2375 959 1747 
Q 959 1119 1226 758 
Q 1494 397 1959 397 
Q 2419 397 2687 759 
Q 2956 1122 2956 1747 
Q 2956 2369 2687 2733 
Q 2419 3097 1959 3097 
z
M 1959 3584 
Q 2709 3584 3137 3096 
Q 3566 2609 3566 1747 
Q 3566 888 3137 398 
Q 2709 -91 1959 -91 
Q 1206 -91 779 398 
Q 353 888 353 1747 
Q 353 2609 779 3096 
Q 1206 3584 1959 3584 
z
" transform="scale(0.015625)"/>
      </defs>
      <use xlink:href="#DejaVuSans-52"/>
      <use xlink:href="#DejaVuSans-65" x="64.982422"/>
      <use xlink:href="#DejaVuSans-6c" x="126.505859"/>
      <use xlink:href="#DejaVuSans-61" x="154.289062"/>
      <use xlink:href="#DejaVuSans-74" x="215.568359"/>
      <use xlink:href="#DejaVuSans-69" x="254.777344"/>
      <use xlink:href="#DejaVuSans-76" x="282.560547"/>
      <use xlink:href="#DejaVuSans-65" x="341.740234"/>
      <use xlink:href="#DejaVuSans-20" x="403.263672"/>
      <use xlink:href="#DejaVuSans-4f" x="435.050781"/>
      <use xlink:href="#DejaVuSans-72" x="513.761719"/>
      <use xlink:href="#DejaVuSans-62" x="554.875"/>
      <use xlink:href="#DejaVuSans-69" x="618.351562"/>
      <use xlink:href="#DejaVuSans-74" x="646.134766"/>
      <use xlink:href="#DejaVuSans-61" x="685.34375"/>
      <use xlink:href="#DejaVuSans-6c" x="746.623047"/>
      <use xlink:href="#DejaVuSans-20" x="774.40625"/>
      <use xlink:href="#DejaVuSans-45" x="806.193359"/>
      <use xlink:href="#DejaVuSans-6e" x="869.376953"/>
      <use xlink:href="#DejaVuSans-65" x="932.755859"/>
      <use xlink:href="#DejaVuSans-72" x="994.279297"/>
      <use xlink:href="#DejaVuSans-67" x="1033.642578"/>
      <use xlink:href="#DejaVuSans-79" x="1097.119141"/>
      <use xlink:href="#DejaVuSans-20" x="1156.298828"/>
      <use xlink:href="#DejaVuSans-56" x="1188.085938"/>
      <use xlink:href="#DejaVuSans-61" x="1248.744141"/>
      <use xlink:href="#DejaVuSans-72" x="1310.023438"/>
      <use xlink:href="#DejaVuSans-69" x="1351.136719"/>
      <use xlink:href="#DejaVuSans-61" x="1378.919922"/>
      <use xlink:href="#DejaVuSans-74" x="1440.199219"/>
      <use xlink:href="#DejaVuSans-69" x="1479.408203"/>
      <use xlink:href="#DejaVuSans-6f" x="1507.191406"/>
      <use xlink:href="#DejaVuSans-6e" x="1568.373047"/>
     </g>
    </g>
    <g id="text_10">
     <!-- 1e−13 -->
     <g transform="translate(55.065625 22.9575) scale(0.16 -0.16)">
      <defs>
       <path id="DejaVuSans-33" d="M 2597 2516 
Q 3050 2419 3304 2112 
Q 3559 1806 3559 1356 
Q 3559 666 3084 287 
Q 2609 -91 1734 -91 
Q 1441 -91 1130 -33 
Q 819 25 488 141 
L 488 750 
Q 750 597 1062 519 
Q 1375 441 1716 441 
Q 2309 441 2620 675 
Q 2931 909 2931 1356 
Q 2931 1769 2642 2001 
Q 2353 2234 1838 2234 
L 1294 2234 
L 1294 2753 
L 1863 2753 
Q 2328 2753 2575 2939 
Q 2822 3125 2822 3475 
Q 2822 3834 2567 4026 
Q 2313 4219 1838 4219 
Q 1578 4219 1281 4162 
Q 984 4106 628 3988 
L 628 4550 
Q 988 4650 1302 4700 
Q 1616 4750 1894 4750 
Q 2613 4750 3031 4423 
Q 3450 4097 3450 3541 
Q 3450 3153 3228 2886 
Q 3006 2619 2597 2516 
z
" transform="scale(0.015625)"/>
      </defs>
      <use xlink:href="#DejaVuSans-31"/>
      <use xlink:href="#DejaVuSans-65" x="63.623047"/>
      <use xlink:href="#DejaVuSans-2212" x="125.146484"/>
      <use xlink:href="#DejaVuSans-31" x="208.935547"/>
      <use xlink:href="#DejaVuSans-33" x="272.558594"/>
     </g>
    </g>
   </g>
   <g id="line2d_8">
    <path d="M 68.435369 113.961468 
L 69.023309 150.829312 
L 69.552454 178.628514 
L 69.728836 181.594892 
L 69.846424 180.323587 
L 70.022806 174.390831 
L 70.787127 134.13284 
L 70.845921 133.370057 
L 70.904715 133.454811 
L 71.139891 137.438233 
L 71.963006 157.609605 
L 72.550946 164.050884 
L 72.60974 164.135637 
L 72.90371 166.000218 
L 73.138885 167.525784 
L 73.197679 167.271523 
L 73.491649 168.373321 
L 73.550443 168.11906 
L 73.609237 169.05135 
L 73.668031 168.458074 
L 73.844413 169.05135 
L 74.079589 169.898887 
L 74.138383 169.475118 
L 74.25597 170.322655 
L 74.314764 170.068394 
L 74.491146 170.237901 
L 74.54994 170.153147 
L 74.608734 170.576916 
L 74.667528 169.98364 
L 74.726322 170.322655 
L 74.785116 170.661669 
L 74.84391 170.407408 
L 74.902704 170.661669 
L 74.961498 170.492162 
L 75.020292 170.661669 
L 75.079086 170.576916 
L 75.196674 170.322655 
L 75.431849 170.831177 
L 75.490643 170.661669 
L 75.608231 171.085438 
L 75.667025 170.661669 
L 75.725819 171.000684 
L 75.843407 170.746423 
L 75.960995 171.000684 
L 76.196171 170.407408 
L 76.254965 170.746423 
L 76.313759 170.576916 
L 76.490141 170.576916 
L 76.548934 170.153147 
L 76.607728 170.492162 
L 76.666522 170.237901 
L 76.725316 170.492162 
L 76.78411 170.407408 
L 77.019286 170.068394 
L 77.136874 170.153147 
L 77.195668 169.98364 
L 77.313256 170.407408 
L 77.37205 169.98364 
L 77.430844 170.492162 
L 77.489638 170.322655 
L 77.607226 169.814133 
L 77.66602 169.98364 
L 77.724813 170.068394 
L 77.842401 169.729379 
L 77.959989 169.98364 
L 78.018783 169.644626 
L 78.077577 169.814133 
L 78.136371 169.898887 
L 78.312753 169.390365 
L 78.489135 170.153147 
L 78.606723 169.729379 
L 78.665517 169.729379 
L 78.783105 170.322655 
L 78.900692 170.153147 
L 79.077074 169.898887 
L 79.194662 170.153147 
L 79.488632 169.475118 
L 79.547426 170.153147 
L 79.60622 169.729379 
L 79.782602 170.237901 
L 79.841396 170.407408 
L 80.076571 169.729379 
L 80.546923 169.644626 
L 80.605717 169.475118 
L 80.664511 169.644626 
L 80.723305 169.644626 
L 80.840893 168.966596 
L 80.899687 169.305611 
L 81.017275 169.475118 
L 81.193657 168.881843 
L 81.370038 169.220857 
L 81.428832 168.966596 
L 81.487626 169.305611 
L 81.54642 169.220857 
L 81.605214 169.05135 
L 81.664008 169.729379 
L 81.722802 169.644626 
L 81.781596 169.729379 
L 81.84039 169.559872 
L 81.899184 169.644626 
L 81.957978 170.068394 
L 82.016772 169.475118 
L 82.075566 169.729379 
L 82.251948 170.322655 
L 82.42833 169.644626 
L 82.487123 170.153147 
L 82.545917 169.898887 
L 82.604711 169.729379 
L 82.663505 169.98364 
L 82.722299 169.898887 
L 82.839887 169.98364 
L 82.898681 169.729379 
L 82.957475 169.814133 
L 83.075063 169.475118 
L 83.192651 169.644626 
L 83.427827 170.068394 
L 83.486621 169.98364 
L 83.545415 169.898887 
L 83.604209 170.153147 
L 83.663002 169.898887 
L 83.721796 170.068394 
L 83.78059 170.492162 
L 83.839384 170.153147 
L 83.898178 170.068394 
L 83.956972 170.237901 
L 84.015766 170.068394 
L 84.07456 170.068394 
L 84.133354 170.322655 
L 84.192148 170.237901 
L 84.250942 170.322655 
L 84.309736 170.068394 
L 84.36853 170.237901 
L 84.427324 170.576916 
L 84.486118 170.237901 
L 84.544912 170.322655 
L 84.603706 170.492162 
L 84.6625 170.322655 
L 84.721294 170.237901 
L 84.897675 169.559872 
L 85.015263 169.814133 
L 85.074057 169.729379 
L 85.250439 169.729379 
L 85.309233 169.898887 
L 85.368027 169.814133 
L 85.544409 169.898887 
L 85.661997 170.068394 
L 85.720791 169.814133 
L 85.779585 170.237901 
L 85.838379 169.814133 
L 85.897173 170.153147 
L 86.01476 170.068394 
L 86.073554 170.153147 
L 86.132348 170.068394 
L 86.191142 169.898887 
L 86.249936 170.153147 
L 86.30873 169.898887 
L 86.485112 170.237901 
L 86.543906 170.068394 
L 86.6027 170.407408 
L 86.661494 169.898887 
L 86.720288 170.068394 
L 86.779082 170.576916 
L 86.837876 170.322655 
L 86.89667 169.98364 
L 87.014258 170.322655 
L 87.073052 170.322655 
L 87.131846 170.492162 
L 87.190639 170.407408 
L 87.249433 169.98364 
L 87.308227 170.153147 
L 87.367021 170.407408 
L 87.425815 170.322655 
L 87.484609 169.898887 
L 87.543403 170.407408 
L 87.602197 170.237901 
L 87.778579 169.814133 
L 87.837373 169.98364 
L 87.954961 169.05135 
L 88.013755 169.136104 
L 88.190137 169.475118 
L 88.248931 169.390365 
L 88.307725 169.05135 
L 88.366518 169.220857 
L 88.425312 169.729379 
L 88.484106 169.475118 
L 88.5429 169.644626 
L 88.601694 169.559872 
L 88.778076 169.559872 
L 88.895664 169.898887 
L 88.954458 169.729379 
L 89.13084 169.814133 
L 89.189634 169.814133 
L 89.42481 170.91593 
L 89.483604 170.576916 
L 89.542398 170.831177 
L 89.601191 170.661669 
L 89.659985 170.831177 
L 89.718779 170.831177 
L 90.247925 175.238367 
L 90.424307 178.713268 
L 90.659483 186.510605 
L 91.306216 210.411138 
L 91.423804 209.224587 
L 91.65898 197.528581 
L 92.246919 155.490763 
L 92.364507 153.541429 
L 92.482095 154.388966 
L 92.717271 163.288101 
L 93.657974 202.105279 
L 93.834356 202.952816 
L 93.89315 202.698555 
L 93.951944 202.613801 
L 94.775059 195.324986 
L 95.304205 192.273854 
L 95.53938 191.765332 
L 95.598174 191.511071 
L 95.656968 191.850086 
L 95.715762 191.765332 
L 95.83335 191.511071 
L 95.892144 191.680578 
L 95.950938 191.850086 
L 96.009732 191.765332 
L 96.068526 191.172056 
L 96.12732 191.595825 
L 96.186114 191.25681 
L 96.244908 191.426317 
L 96.303702 191.850086 
L 96.362496 191.595825 
L 96.538878 191.426317 
L 96.774053 191.765332 
L 96.891641 191.511071 
L 97.126817 192.104347 
L 97.185611 191.765332 
L 97.244405 191.934839 
L 97.361993 192.1891 
L 97.420787 191.934839 
L 97.479581 192.1891 
L 97.655963 191.680578 
L 97.773551 191.595825 
L 97.891138 191.25681 
L 98.008726 191.850086 
L 98.185108 191.341564 
L 98.36149 191.934839 
L 98.479078 191.511071 
L 98.596666 191.765332 
L 98.773048 191.511071 
L 98.831842 191.765332 
L 98.890636 191.511071 
L 99.008224 192.104347 
L 99.067017 191.765332 
L 99.125811 192.1891 
L 99.184605 192.104347 
L 99.243399 191.934839 
L 99.302193 192.358608 
L 99.419781 191.850086 
L 99.478575 192.273854 
L 99.537369 191.680578 
L 99.596163 192.019593 
L 99.713751 192.1891 
L 99.890133 191.934839 
L 99.948927 192.1891 
L 100.007721 191.850086 
L 100.066515 192.443361 
L 100.125309 192.1891 
L 100.184103 192.1891 
L 100.242896 191.934839 
L 100.30169 192.443361 
L 100.360484 191.850086 
L 100.419278 191.934839 
L 100.478072 192.019593 
L 100.654454 191.25681 
L 100.713248 192.019593 
L 100.772042 191.511071 
L 100.948424 191.426317 
L 101.007218 191.680578 
L 101.124806 191.172056 
L 101.301188 191.595825 
L 101.418775 191.087303 
L 101.595157 191.595825 
L 101.771539 191.087303 
L 101.889127 191.511071 
L 101.947921 191.25681 
L 102.065509 191.341564 
L 102.124303 191.426317 
L 102.183097 190.833042 
L 102.241891 191.087303 
L 102.535861 190.494027 
L 102.594654 190.917795 
L 102.653448 190.409273 
L 102.712242 191.002549 
L 102.771036 190.833042 
L 102.82983 191.002549 
L 102.947418 190.070259 
L 103.006212 190.32452 
L 103.182594 190.748288 
L 103.241388 190.239766 
L 103.300182 190.32452 
L 103.358976 190.239766 
L 103.476564 190.663534 
L 103.535358 190.155012 
L 103.594152 190.32452 
L 103.652946 190.663534 
L 103.71174 190.070259 
L 103.770534 190.239766 
L 103.888121 190.494027 
L 103.946915 190.409273 
L 104.005709 190.155012 
L 104.064503 190.494027 
L 104.123297 190.070259 
L 104.240885 190.833042 
L 104.299679 190.494027 
L 104.358473 190.578781 
L 104.417267 190.663534 
L 104.476061 190.409273 
L 104.534855 190.494027 
L 104.652443 190.409273 
L 104.711237 190.32452 
L 104.770031 190.917795 
L 104.828825 190.578781 
L 104.946413 190.917795 
L 105.005206 190.663534 
L 105.181588 191.087303 
L 105.240382 191.002549 
L 105.299176 190.494027 
L 105.35797 190.663534 
L 105.475558 191.172056 
L 105.593146 190.239766 
L 105.65194 190.748288 
L 105.710734 190.494027 
L 105.769528 190.748288 
L 105.828322 190.578781 
L 105.887116 190.663534 
L 105.94591 190.32452 
L 106.004704 190.917795 
L 106.063498 190.578781 
L 106.122292 190.748288 
L 106.181085 190.578781 
L 106.298673 189.900751 
L 106.475055 190.663534 
L 106.651437 189.900751 
L 106.710231 190.494027 
L 106.769025 190.409273 
L 106.945407 189.985505 
L 107.004201 190.070259 
L 107.121789 190.409273 
L 107.298171 189.985505 
L 107.356964 190.070259 
L 107.59214 190.663534 
L 107.650934 190.578781 
L 107.709728 190.578781 
L 108.003698 190.070259 
L 108.18008 190.239766 
L 108.356462 189.900751 
L 108.47405 190.239766 
L 108.532843 189.731244 
L 108.591637 190.070259 
L 108.650431 190.155012 
L 108.709225 190.070259 
L 108.826813 189.985505 
L 109.003195 189.307476 
L 109.120783 190.070259 
L 109.297165 189.137968 
L 109.355959 189.222722 
L 109.414753 189.053215 
L 109.473547 189.307476 
L 109.532341 189.137968 
L 109.591135 188.7142 
L 109.649929 188.798954 
L 109.708722 189.053215 
L 109.82631 188.544693 
L 109.885104 188.629446 
L 110.002692 188.883707 
L 110.061486 188.798954 
L 110.237868 188.120924 
L 110.296662 188.290432 
L 110.41425 187.866663 
L 110.473044 187.951417 
L 110.70822 186.595358 
L 110.767014 186.934373 
L 110.825808 186.764866 
L 110.884601 186.764866 
L 111.060983 185.917329 
L 111.119777 186.002083 
L 111.296159 184.985039 
L 111.354953 184.985039 
L 111.531335 184.30701 
L 112.001687 186.002083 
L 112.060481 186.256344 
L 112.119274 186.17159 
L 112.178068 186.002083 
L 112.236862 186.341097 
L 112.94239 179.730312 
L 113.001184 179.899819 
L 113.059978 179.560804 
L 113.118772 179.645558 
L 113.177566 179.815065 
L 113.471535 184.222256 
L 113.765505 191.25681 
L 114.000681 194.307942 
L 114.059475 194.138435 
L 114.118269 194.053681 
L 114.412239 188.290432 
L 115.235354 168.203813 
L 115.294148 168.11906 
L 115.47053 169.305611 
L 115.646911 171.254945 
L 115.999675 176.170658 
L 116.293645 178.459007 
L 116.528821 179.391297 
L 116.705203 179.22179 
L 116.82279 179.391297 
L 116.999172 178.713268 
L 117.528318 176.933441 
L 117.587112 176.509672 
L 117.645906 176.594426 
L 117.7047 176.509672 
L 117.822288 175.916397 
L 117.881082 176.00115 
L 117.939876 175.662136 
L 117.998669 175.746889 
L 118.057463 175.662136 
L 118.175051 175.238367 
L 118.233845 175.238367 
L 118.410227 174.390831 
L 118.469021 174.645092 
L 118.527815 174.306077 
L 118.586609 174.560338 
L 118.645403 174.475584 
L 118.704197 174.051816 
L 118.762991 174.13657 
L 118.821785 174.475584 
L 118.880579 173.628048 
L 118.939373 174.13657 
L 118.998167 174.221323 
L 119.115755 173.882309 
L 119.292136 174.13657 
L 119.409724 173.882309 
L 119.586106 173.882309 
L 119.6449 173.45854 
L 119.703694 173.543294 
L 119.762488 173.45854 
L 119.821282 173.543294 
L 119.880076 173.543294 
L 119.93887 173.712801 
L 119.997664 173.373787 
L 120.056458 173.543294 
L 120.174046 173.373787 
L 120.23284 173.712801 
L 120.409221 173.204279 
L 120.585603 172.950018 
L 120.761985 173.119526 
L 120.820779 172.865265 
L 120.879573 172.950018 
L 120.938367 172.950018 
L 120.997161 173.204279 
L 121.173543 172.52625 
L 121.232337 172.950018 
L 121.291131 172.865265 
L 121.349925 172.865265 
L 121.408719 173.034772 
L 121.467513 172.695757 
L 121.526307 172.865265 
L 121.702688 172.695757 
L 121.761482 172.695757 
L 121.820276 172.950018 
L 121.87907 172.611004 
L 121.937864 172.865265 
L 122.055452 172.52625 
L 122.231834 173.289033 
L 122.408216 173.204279 
L 122.525804 173.45854 
L 122.584598 173.204279 
L 122.643392 173.712801 
L 122.760979 173.204279 
L 122.878567 173.45854 
L 122.937361 173.373787 
L 123.054949 173.712801 
L 123.113743 173.289033 
L 123.172537 173.628048 
L 123.231331 173.628048 
L 123.407713 173.373787 
L 123.525301 173.628048 
L 123.584095 173.204279 
L 123.642889 173.373787 
L 123.760477 173.45854 
L 123.819271 172.950018 
L 123.878065 173.289033 
L 123.936858 173.543294 
L 123.995652 173.034772 
L 124.054446 173.543294 
L 124.11324 172.950018 
L 124.172034 173.119526 
L 124.230828 173.289033 
L 124.289622 172.695757 
L 124.348416 172.780511 
L 124.524798 173.373787 
L 124.583592 173.034772 
L 124.70118 173.373787 
L 124.759974 173.034772 
L 124.877562 173.628048 
L 124.936356 173.543294 
L 125.112737 172.950018 
L 125.171531 173.034772 
L 125.230325 173.373787 
L 125.289119 173.119526 
L 125.347913 173.119526 
L 125.406707 172.950018 
L 125.465501 173.034772 
L 125.524295 173.204279 
L 125.583089 173.034772 
L 125.700677 172.441496 
L 125.759471 172.780511 
L 125.818265 172.187235 
L 125.877059 172.356743 
L 125.935853 172.780511 
L 125.994647 172.441496 
L 126.112235 173.119526 
L 126.171029 172.52625 
L 126.229823 172.780511 
L 126.288616 173.034772 
L 126.34741 172.356743 
L 126.406204 172.950018 
L 126.523792 172.187235 
L 126.582586 172.611004 
L 126.64138 172.441496 
L 126.700174 172.187235 
L 126.758968 172.356743 
L 126.817762 172.356743 
L 126.876556 172.52625 
L 126.93535 172.356743 
L 126.994144 172.187235 
L 127.170526 172.780511 
L 127.346908 172.441496 
L 127.405702 172.950018 
L 127.464496 172.441496 
L 127.523289 172.865265 
L 127.582083 172.950018 
L 127.640877 172.695757 
L 127.699671 173.034772 
L 127.876053 172.271989 
L 128.052435 172.611004 
L 128.111229 172.271989 
L 128.228817 172.865265 
L 128.287611 172.780511 
L 128.346405 172.950018 
L 128.463993 172.52625 
L 128.581581 173.204279 
L 128.757962 172.441496 
L 128.816756 172.356743 
L 128.87555 172.441496 
L 128.934344 172.780511 
L 128.993138 172.52625 
L 129.051932 172.611004 
L 129.110726 172.950018 
L 129.16952 172.780511 
L 129.228314 172.695757 
L 129.522284 173.373787 
L 129.581078 173.119526 
L 129.639872 173.373787 
L 129.698666 173.289033 
L 129.75746 173.289033 
L 129.816254 172.950018 
L 129.933841 173.628048 
L 130.051429 173.373787 
L 130.110223 173.628048 
L 130.169017 173.289033 
L 130.227811 173.797555 
L 130.286605 173.45854 
L 130.404193 173.373787 
L 130.462987 172.865265 
L 130.521781 173.204279 
L 130.639369 172.950018 
L 130.698163 172.441496 
L 130.756957 172.695757 
L 130.815751 172.441496 
L 130.874545 172.611004 
L 130.933339 172.780511 
L 131.168514 171.678713 
L 131.344896 171.170191 
L 131.40369 171.170191 
L 131.462484 171.339699 
L 131.580072 170.576916 
L 131.638866 170.746423 
L 132.050424 169.305611 
L 132.109218 169.475118 
L 132.461981 167.780045 
L 132.520775 167.949552 
L 132.579569 167.864799 
L 132.697157 167.525784 
L 132.755951 167.186769 
L 132.873539 167.695291 
L 132.932333 167.017262 
L 132.991127 167.695291 
L 133.049921 166.932508 
L 133.108715 167.271523 
L 133.167509 167.44103 
L 133.343891 166.847755 
L 133.461478 166.932508 
L 133.579066 167.44103 
L 133.63786 167.186769 
L 133.696654 167.356277 
L 133.755448 167.356277 
L 133.93183 167.864799 
L 133.990624 167.695291 
L 134.049418 168.034306 
L 134.108212 167.949552 
L 134.167006 167.949552 
L 134.284594 168.288567 
L 134.343388 168.203813 
L 134.402182 167.864799 
L 134.460976 167.949552 
L 134.637357 168.034306 
L 134.754945 168.203813 
L 134.813739 167.610538 
L 134.872533 168.034306 
L 134.931327 167.864799 
L 135.048915 168.627582 
L 135.107709 168.542828 
L 135.225297 168.11906 
L 135.460473 168.458074 
L 135.636855 168.11906 
L 135.695649 168.542828 
L 135.754443 168.373321 
L 135.813236 168.288567 
L 135.989618 168.627582 
L 136.048412 168.458074 
L 136.107206 168.542828 
L 136.283588 169.220857 
L 136.342382 169.136104 
L 136.401176 168.881843 
L 136.45997 168.966596 
L 136.636352 169.644626 
L 136.695146 169.559872 
L 136.75394 169.729379 
L 136.812734 169.475118 
L 136.871528 169.644626 
L 137.106703 169.220857 
L 137.224291 169.305611 
L 137.283085 169.475118 
L 137.341879 169.390365 
L 137.400673 169.220857 
L 137.459467 169.559872 
L 137.518261 169.390365 
L 137.577055 169.475118 
L 137.635849 169.390365 
L 137.694643 169.305611 
L 137.753437 169.475118 
L 137.812231 169.305611 
L 137.871025 169.05135 
L 137.929819 169.220857 
L 138.047407 169.136104 
L 138.106201 169.305611 
L 138.282582 168.712335 
L 138.341376 169.05135 
L 138.40017 168.966596 
L 138.517758 168.797089 
L 138.576552 169.220857 
L 138.635346 168.712335 
L 138.69414 169.136104 
L 138.752934 169.305611 
L 138.870522 168.966596 
L 138.929316 169.475118 
L 138.98811 169.390365 
L 139.046904 169.136104 
L 139.105698 169.220857 
L 139.164492 169.220857 
L 139.223286 169.05135 
L 139.28208 169.390365 
L 139.340873 169.136104 
L 139.517255 168.712335 
L 139.693637 169.220857 
L 139.752431 169.136104 
L 139.811225 169.559872 
L 139.928813 168.881843 
L 139.987607 168.966596 
L 140.222783 169.729379 
L 140.399165 169.05135 
L 140.457959 169.559872 
L 140.516752 169.136104 
L 140.63434 169.729379 
L 140.693134 169.559872 
L 141.045898 168.881843 
L 141.163486 169.220857 
L 141.398662 168.881843 
L 141.457456 168.966596 
L 141.51625 168.797089 
L 141.575044 168.966596 
L 141.692632 169.305611 
L 141.810219 168.797089 
L 141.927807 169.390365 
L 141.986601 169.305611 
L 142.045395 169.644626 
L 142.104189 169.136104 
L 142.162983 169.390365 
L 142.221777 169.729379 
L 142.280571 169.305611 
L 142.339365 169.475118 
L 142.398159 169.475118 
L 142.574541 169.898887 
L 142.633335 169.898887 
L 142.809717 169.305611 
L 142.927304 169.729379 
L 143.103686 169.475118 
L 143.16248 169.559872 
L 143.221274 169.475118 
L 143.338862 168.881843 
L 143.45645 169.729379 
L 143.515244 169.644626 
L 143.632832 169.05135 
L 143.691626 169.390365 
L 143.75042 169.136104 
L 143.868008 169.220857 
L 143.926802 169.729379 
L 143.985596 169.475118 
L 144.04439 169.729379 
L 144.103183 169.305611 
L 144.161977 169.644626 
L 144.338359 169.729379 
L 144.397153 169.305611 
L 144.514741 169.814133 
L 144.691123 169.305611 
L 144.926299 169.559872 
L 144.985093 170.068394 
L 145.043887 169.898887 
L 145.102681 169.814133 
L 145.161475 169.98364 
L 145.220269 169.390365 
L 145.279062 169.644626 
L 145.337856 169.390365 
L 145.514238 169.814133 
L 145.69062 169.644626 
L 145.808208 169.814133 
L 145.925796 169.220857 
L 146.043384 169.305611 
L 146.160972 169.559872 
L 146.337354 169.136104 
L 146.396148 169.475118 
L 146.454941 169.305611 
L 146.631323 169.559872 
L 146.690117 169.305611 
L 146.748911 169.390365 
L 146.866499 169.475118 
L 146.925293 169.05135 
L 146.984087 169.305611 
L 147.042881 169.136104 
L 147.101675 169.644626 
L 147.160469 169.305611 
L 147.219263 169.644626 
L 147.278057 169.390365 
L 147.336851 169.05135 
L 147.395645 169.220857 
L 147.513233 169.05135 
L 147.689614 169.814133 
L 147.807202 169.305611 
L 147.92479 169.220857 
L 147.983584 169.05135 
L 148.042378 169.559872 
L 148.101172 169.136104 
L 148.21876 169.475118 
L 148.277554 169.136104 
L 148.336348 169.390365 
L 148.395142 169.644626 
L 148.453936 169.390365 
L 148.51273 169.729379 
L 148.571524 169.644626 
L 148.630318 169.475118 
L 148.747906 169.814133 
L 148.806699 169.475118 
L 148.865493 169.644626 
L 148.924287 169.729379 
L 148.983081 169.559872 
L 149.041875 169.644626 
L 149.100669 169.98364 
L 149.277051 169.475118 
L 149.335845 169.814133 
L 149.394639 169.729379 
L 149.453433 169.390365 
L 149.512227 169.559872 
L 149.629815 169.559872 
L 149.688609 169.729379 
L 149.747403 169.475118 
L 149.806197 169.898887 
L 149.864991 169.729379 
L 150.041372 169.220857 
L 150.15896 169.05135 
L 150.217754 169.136104 
L 150.276548 169.05135 
L 150.335342 169.559872 
L 150.394136 169.220857 
L 150.45293 169.136104 
L 150.511724 169.475118 
L 150.570518 169.390365 
L 150.629312 169.305611 
L 150.688106 168.797089 
L 150.7469 169.136104 
L 150.923282 168.881843 
L 151.04087 169.220857 
L 151.099664 168.966596 
L 151.158458 168.966596 
L 151.217251 168.627582 
L 151.276045 169.220857 
L 151.334839 168.881843 
L 151.393633 168.542828 
L 151.628809 169.305611 
L 151.746397 169.05135 
L 151.863985 169.475118 
L 151.922779 169.390365 
L 152.334337 170.237901 
L 152.39313 170.322655 
L 152.510718 169.898887 
L 152.569512 170.237901 
L 152.628306 170.153147 
L 152.6871 169.898887 
L 152.804688 170.153147 
L 152.922276 169.390365 
L 152.98107 169.559872 
L 153.27504 167.864799 
L 153.569009 166.000218 
L 154.098155 159.474186 
L 154.156949 159.135171 
L 154.509713 153.710937 
L 154.686095 150.829312 
L 155.450416 141.675916 
L 155.50921 142.014931 
L 155.568004 141.506409 
L 155.626798 141.675916 
L 155.861974 143.370989 
L 156.332325 152.270124 
L 156.979059 168.373321 
L 157.508204 173.289033 
L 157.684586 173.628048 
L 158.860465 167.356277 
L 158.919259 167.271523 
L 158.978053 167.356277 
L 159.154435 167.864799 
L 159.213229 167.695291 
L 159.330817 168.203813 
L 159.389611 167.949552 
L 159.448405 168.034306 
L 159.624786 168.627582 
L 159.68358 168.881843 
L 159.801168 168.627582 
L 159.97755 169.305611 
L 160.036344 169.220857 
L 160.095138 169.475118 
L 160.153932 169.136104 
L 160.27152 169.559872 
L 160.330314 169.390365 
L 160.389108 169.98364 
L 160.447902 169.814133 
L 160.506696 169.814133 
L 160.683077 170.661669 
L 160.800665 170.492162 
L 160.859459 170.91593 
L 160.918253 170.746423 
L 161.329811 171.339699 
L 161.388605 171.085438 
L 161.447399 171.170191 
L 161.564987 171.763467 
L 161.623781 171.339699 
L 161.741369 171.932974 
L 161.800163 171.763467 
L 161.858956 172.187235 
L 161.91775 172.017728 
L 161.976544 171.932974 
L 162.152926 172.356743 
L 162.329308 171.932974 
L 162.388102 171.932974 
L 162.564484 172.102482 
L 162.682072 172.356743 
L 162.858454 172.780511 
L 162.917248 172.441496 
L 162.976042 172.52625 
L 163.034835 172.52625 
L 163.211217 172.950018 
L 163.328805 172.865265 
L 163.387599 173.119526 
L 163.446393 173.034772 
L 163.505187 172.695757 
L 163.563981 172.950018 
L 163.622775 173.119526 
L 163.681569 172.950018 
L 163.857951 172.950018 
L 164.034333 172.695757 
L 164.093127 172.865265 
L 164.151921 172.441496 
L 164.210714 172.780511 
L 164.563478 172.102482 
L 164.622272 172.187235 
L 164.681066 172.356743 
L 164.73986 172.271989 
L 164.857448 172.017728 
L 164.975036 172.441496 
L 165.03383 172.102482 
L 165.092624 172.441496 
L 165.151418 172.017728 
L 165.210212 172.271989 
L 165.445387 172.695757 
L 165.504181 172.441496 
L 165.680563 172.950018 
L 165.798151 172.865265 
L 165.856945 172.356743 
L 165.915739 172.611004 
L 166.033327 172.865265 
L 166.092121 172.780511 
L 166.268503 172.271989 
L 166.327297 172.441496 
L 166.386091 172.187235 
L 166.444885 172.356743 
L 166.503679 172.950018 
L 166.562473 172.611004 
L 166.621266 172.271989 
L 166.68006 172.611004 
L 166.738854 172.441496 
L 166.797648 172.187235 
L 166.856442 172.611004 
L 166.915236 172.441496 
L 167.091618 172.780511 
L 167.150412 172.52625 
L 167.209206 172.695757 
L 167.268 172.780511 
L 167.326794 172.52625 
L 167.385588 172.695757 
L 167.444382 172.950018 
L 167.503176 172.865265 
L 167.679558 173.204279 
L 167.914733 173.967062 
L 167.973527 173.797555 
L 168.091115 174.13657 
L 168.326291 174.221323 
L 168.385085 174.306077 
L 168.443879 173.967062 
L 168.502673 174.221323 
L 168.561467 173.967062 
L 168.620261 174.560338 
L 168.679055 174.13657 
L 168.737849 174.221323 
L 168.796643 174.13657 
L 168.973024 173.628048 
L 169.031818 173.543294 
L 169.325788 171.848221 
L 169.678552 167.525784 
L 169.737346 167.44103 
L 170.031316 164.89842 
L 170.09011 164.644159 
L 170.148903 164.728913 
L 170.207697 164.813667 
L 170.501667 168.288567 
L 171.148401 185.069792 
L 171.501164 190.070259 
L 171.677546 190.239766 
L 171.73634 190.155012 
L 172.147898 186.934373 
L 172.265486 185.832575 
L 172.618249 182.527183 
L 172.677043 182.611936 
L 173.029807 180.832109 
L 173.147395 180.916863 
L 173.264983 181.08637 
L 173.323777 180.662602 
L 173.382571 181.001617 
L 173.558953 180.916863 
L 173.617747 180.323587 
L 173.676541 181.001617 
L 173.735334 180.662602 
L 173.794128 181.001617 
L 173.852922 180.832109 
L 173.97051 180.747356 
L 174.029304 180.916863 
L 174.088098 180.493095 
L 174.146892 180.832109 
L 174.205686 181.001617 
L 174.26448 180.832109 
L 174.323274 180.662602 
L 174.382068 180.832109 
L 174.440862 181.340631 
L 174.499656 181.08637 
L 174.55845 181.08637 
L 174.793626 181.7644 
L 174.85242 181.255878 
L 174.911213 181.679646 
L 174.970007 181.425385 
L 175.028801 181.510139 
L 175.263977 182.272922 
L 175.322771 181.849153 
L 175.440359 182.272922 
L 175.499153 182.103414 
L 175.557947 182.611936 
L 175.616741 182.527183 
L 175.675535 182.442429 
L 175.793123 183.205212 
L 175.851917 182.866197 
L 175.910711 182.781444 
L 176.145886 183.544227 
L 176.20468 183.544227 
L 176.381062 184.052749 
L 176.439856 183.713734 
L 176.49865 184.137502 
L 176.557444 183.967995 
L 176.733826 183.967995 
L 177.145384 181.08637 
L 177.556941 176.170658 
L 177.909705 171.254945 
L 178.203675 169.559872 
L 178.262469 169.729379 
L 178.321263 169.475118 
L 179.02679 176.085904 
L 179.203172 177.780977 
L 179.497142 179.476051 
L 179.555936 179.306543 
L 179.673523 180.069326 
L 179.732317 179.476051 
L 179.791111 179.560804 
L 179.849905 179.899819 
L 180.026287 179.476051 
L 180.261463 178.289499 
L 180.320257 178.713268 
L 180.555433 177.61147 
L 180.614227 177.357209 
L 180.673021 177.441963 
L 180.731815 177.526716 
L 181.613724 175.238367 
L 181.672518 175.577382 
L 181.731312 174.899353 
L 181.790106 175.323121 
L 181.966488 175.06886 
L 182.025281 175.153614 
L 182.201663 174.475584 
L 182.260457 174.645092 
L 182.319251 174.814599 
L 182.378045 174.729845 
L 182.495633 174.560338 
L 182.554427 174.13657 
L 182.613221 174.645092 
L 182.672015 174.13657 
L 182.730809 174.475584 
L 182.907191 174.051816 
L 183.083573 173.797555 
L 183.20116 174.13657 
L 183.377542 173.712801 
L 183.436336 174.13657 
L 183.49513 173.543294 
L 183.553924 174.13657 
L 183.612718 173.45854 
L 183.671512 173.967062 
L 183.7891 173.373787 
L 183.965482 173.882309 
L 184.024276 173.797555 
L 184.08307 173.967062 
L 184.141864 173.797555 
L 184.259452 173.45854 
L 184.377039 174.306077 
L 184.435833 173.797555 
L 184.494627 173.967062 
L 184.553421 174.051816 
L 184.729803 173.543294 
L 184.847391 174.13657 
L 184.906185 174.475584 
L 184.964979 173.967062 
L 185.023773 174.221323 
L 185.082567 174.306077 
L 185.141361 174.221323 
L 185.200155 173.882309 
L 185.258949 174.475584 
L 185.317743 174.306077 
L 185.376537 173.967062 
L 185.552918 174.390831 
L 185.670506 174.13657 
L 185.7293 174.645092 
L 185.788094 174.051816 
L 185.846888 174.645092 
L 185.905682 174.221323 
L 185.964476 174.306077 
L 186.02327 174.814599 
L 186.082064 174.475584 
L 186.199652 174.390831 
L 186.434828 175.153614 
L 186.493622 174.645092 
L 186.552416 174.814599 
L 186.787591 175.492628 
L 186.905179 175.238367 
L 187.022767 175.407875 
L 187.081561 175.831643 
L 187.257943 175.06886 
L 187.493119 176.00115 
L 187.551913 176.00115 
L 187.610707 176.255411 
L 187.669501 176.170658 
L 187.728295 176.085904 
L 187.787089 176.170658 
L 187.904677 176.085904 
L 188.081058 176.67918 
L 188.139852 176.424919 
L 188.198646 176.509672 
L 188.25744 176.424919 
L 188.433822 176.763933 
L 188.492616 176.67918 
L 188.55141 176.763933 
L 188.786586 176.933441 
L 188.962968 176.848687 
L 189.080556 176.933441 
L 189.139349 177.357209 
L 189.198143 176.340165 
L 189.256937 176.67918 
L 189.550907 176.085904 
L 190.315228 172.611004 
L 190.49161 171.424452 
L 190.667992 170.831177 
L 191.255932 173.543294 
L 192.137841 183.713734 
L 192.196635 183.967995 
L 192.373017 185.154546 
L 192.549399 186.002083 
L 192.608193 185.832575 
L 192.666986 186.086836 
L 192.843368 185.663068 
L 192.902162 185.663068 
L 193.137338 183.883241 
L 193.196132 184.137502 
L 194.078041 176.255411 
L 194.136835 176.509672 
L 194.372011 175.407875 
L 194.489599 175.746889 
L 194.724775 175.492628 
L 194.842363 176.085904 
L 194.901157 175.746889 
L 195.136332 177.018194 
L 195.195126 176.424919 
L 195.25392 176.933441 
L 195.371508 177.187702 
L 195.724272 178.882775 
L 195.783066 178.713268 
L 195.84186 179.052282 
L 195.900654 178.798021 
L 196.077036 179.306543 
L 196.13583 179.22179 
L 196.547387 180.238834 
L 197.076533 177.696224 
L 197.48809 172.52625 
L 198.017236 160.236969 
L 198.193618 158.202881 
L 198.311206 159.897954 
L 198.487588 168.034306 
L 199.075527 211.512936 
L 199.134321 210.750153 
L 199.310703 198.376118 
L 199.839848 155.999285 
L 199.898642 154.643227 
L 199.957436 154.812734 
L 200.075024 156.084039 
L 200.192612 158.796156 
L 200.780552 172.695757 
L 201.603667 178.882775 
L 201.662461 178.713268 
L 201.780049 179.306543 
L 201.838843 179.22179 
L 202.015225 179.730312 
L 202.132812 179.391297 
L 202.191606 179.815065 
L 202.2504 179.391297 
L 202.309194 179.645558 
L 202.367988 179.730312 
L 202.485576 179.560804 
L 202.720752 180.15408 
L 202.779546 179.984573 
L 202.83834 180.238834 
L 202.897134 179.815065 
L 202.955928 179.984573 
L 203.13231 180.15408 
L 203.367485 179.730312 
L 203.426279 180.15408 
L 203.485073 179.899819 
L 203.543867 179.730312 
L 203.661455 179.984573 
L 203.720249 179.899819 
L 204.073013 180.832109 
L 204.131807 180.238834 
L 204.190601 180.662602 
L 204.249395 180.662602 
L 204.308189 181.171124 
L 204.366983 180.916863 
L 204.425777 180.662602 
L 204.484571 180.832109 
L 204.543364 180.747356 
L 204.602158 180.916863 
L 204.719746 180.577848 
L 204.77854 180.747356 
L 204.837334 180.493095 
L 204.896128 180.577848 
L 204.954922 180.662602 
L 205.07251 180.493095 
L 205.131304 180.832109 
L 205.248892 180.493095 
L 205.307686 180.493095 
L 205.36648 180.323587 
L 205.425274 180.577848 
L 205.484068 180.493095 
L 205.66045 180.747356 
L 205.719243 180.662602 
L 205.836831 180.662602 
L 205.954419 180.493095 
L 206.130801 180.662602 
L 206.189595 180.069326 
L 206.248389 180.238834 
L 206.307183 180.493095 
L 206.365977 180.323587 
L 206.424771 179.730312 
L 206.483565 180.408341 
L 206.542359 180.069326 
L 206.659947 180.323587 
L 206.718741 179.984573 
L 206.777535 180.238834 
L 206.836329 180.15408 
L 206.895122 180.238834 
L 207.01271 180.323587 
L 207.071504 180.577848 
L 207.130298 180.323587 
L 207.189092 180.493095 
L 207.247886 180.493095 
L 207.424268 179.899819 
L 207.483062 180.069326 
L 207.541856 179.984573 
L 207.659444 179.730312 
L 207.718238 180.069326 
L 207.777032 179.815065 
L 207.835826 179.306543 
L 207.89462 179.645558 
L 208.012208 179.476051 
L 208.129795 179.899819 
L 208.188589 179.560804 
L 208.247383 180.069326 
L 208.306177 179.476051 
L 208.364971 179.645558 
L 208.423765 180.238834 
L 208.482559 179.476051 
L 208.541353 179.899819 
L 208.600147 179.730312 
L 208.776529 180.408341 
L 208.952911 180.323587 
L 209.129293 180.747356 
L 209.188087 180.493095 
L 209.24688 180.577848 
L 209.717232 181.171124 
L 209.776026 181.08637 
L 209.893614 181.255878 
L 210.069996 180.577848 
L 210.12879 180.916863 
L 210.187584 180.747356 
L 210.305172 180.238834 
L 210.363966 180.493095 
L 210.481553 180.916863 
L 210.540347 180.577848 
L 210.599141 180.916863 
L 210.657935 180.662602 
L 210.893111 179.815065 
L 211.010699 180.408341 
L 211.128287 180.15408 
L 211.245875 180.493095 
L 211.304669 180.15408 
L 211.363463 180.662602 
L 211.422257 180.577848 
L 211.481051 179.984573 
L 211.539845 180.662602 
L 211.598639 180.493095 
L 211.657432 180.493095 
L 211.833814 180.15408 
L 211.892608 180.577848 
L 211.951402 180.323587 
L 212.010196 180.238834 
L 212.06899 180.493095 
L 212.127784 180.408341 
L 212.186578 180.493095 
L 212.245372 179.984573 
L 212.304166 180.15408 
L 212.480548 180.069326 
L 212.539342 180.15408 
L 212.598136 179.899819 
L 212.774518 180.493095 
L 212.833311 180.577848 
L 212.892105 180.493095 
L 213.068487 180.493095 
L 213.244869 180.15408 
L 213.303663 180.15408 
L 213.480045 180.577848 
L 213.597633 180.069326 
L 213.656427 180.323587 
L 213.715221 180.408341 
L 213.774015 180.069326 
L 213.832809 180.408341 
L 213.891603 180.323587 
L 213.950397 180.323587 
L 214.00919 180.747356 
L 214.067984 180.493095 
L 214.244366 180.408341 
L 214.30316 180.577848 
L 214.420748 180.323587 
L 214.59713 180.408341 
L 214.773512 180.323587 
L 214.8911 179.984573 
L 215.008688 180.15408 
L 215.067482 180.069326 
L 215.126276 179.815065 
L 215.243863 180.577848 
L 215.302657 180.408341 
L 215.361451 180.408341 
L 215.537833 180.238834 
L 215.714215 180.662602 
L 215.890597 180.238834 
L 215.949391 180.662602 
L 216.008185 180.577848 
L 216.066979 180.408341 
L 216.243361 181.340631 
L 216.302155 181.08637 
L 216.360948 181.255878 
L 216.478536 181.255878 
L 216.654918 181.7644 
L 216.713712 181.255878 
L 216.890094 182.188168 
L 216.948888 182.018661 
L 217.184064 182.866197 
L 217.242858 182.69669 
L 217.360446 183.035705 
L 217.41924 183.035705 
L 217.478034 183.374719 
L 217.536828 183.289966 
L 217.595621 183.289966 
L 217.772003 183.544227 
L 217.830797 183.205212 
L 217.889591 183.374719 
L 217.948385 183.205212 
L 218.007179 183.459473 
L 218.124767 182.611936 
L 218.183561 182.69669 
L 218.418737 181.594892 
L 218.889088 178.54376 
L 219.06547 177.187702 
L 219.124264 177.187702 
L 219.300646 176.255411 
L 219.477028 177.102948 
L 219.535822 177.187702 
L 219.712204 179.306543 
L 220.358937 204.563135 
L 220.770495 221.259607 
L 221.005671 226.344827 
L 221.182052 226.853349 
L 221.240846 226.683842 
L 221.534816 223.039434 
L 221.88758 217.360939 
L 222.18155 213.970792 
L 222.240344 213.970792 
L 222.299137 213.377517 
L 222.357931 213.46227 
L 222.416725 213.377517 
L 222.475519 213.631778 
L 222.593107 213.208009 
L 223.298635 215.920126 
L 223.357429 216.00488 
L 223.53381 217.360939 
L 223.592604 217.360939 
L 223.82778 218.632244 
L 223.945368 219.140766 
L 224.12175 219.734041 
L 224.356926 220.751085 
L 224.533308 221.683376 
L 224.650895 221.598622 
L 225.062453 222.361405 
L 225.121247 222.191898 
L 225.180041 221.937637 
L 225.238835 222.02239 
L 225.356423 222.107144 
L 225.415217 221.852883 
L 225.474011 222.361405 
L 225.532805 222.107144 
L 225.650393 222.446159 
L 225.826775 221.768129 
L 225.885568 221.768129 
L 226.003156 222.02239 
L 226.06195 221.852883 
L 226.120744 222.361405 
L 226.179538 221.937637 
L 226.532302 222.615666 
L 226.708684 222.869927 
L 226.767478 222.446159 
L 226.826272 222.785173 
L 226.885066 222.615666 
L 227.061447 223.039434 
L 227.120241 222.785173 
L 227.179035 223.208942 
L 227.237829 223.124188 
L 227.355417 222.70042 
L 227.414211 223.124188 
L 227.473005 223.039434 
L 227.649387 222.954681 
L 227.884563 223.293695 
L 227.943357 223.293695 
L 228.002151 222.785173 
L 228.178533 223.378449 
L 228.354914 222.70042 
L 228.413708 222.70042 
L 228.531296 223.208942 
L 228.59009 223.039434 
L 228.707678 222.954681 
L 228.825266 223.378449 
L 228.942854 223.293695 
L 229.060442 223.717464 
L 229.236824 223.039434 
L 229.354412 223.463203 
L 229.413205 223.293695 
L 229.471999 223.293695 
L 229.530793 223.547956 
L 229.589587 223.378449 
L 229.648381 223.378449 
L 229.707175 223.208942 
L 229.765969 223.378449 
L 229.883557 223.802217 
L 229.942351 223.63271 
L 230.118733 223.547956 
L 230.236321 223.463203 
L 230.353909 223.717464 
L 230.412703 223.971725 
L 230.471497 223.886971 
L 230.530291 223.63271 
L 230.706672 223.971725 
L 230.765466 224.056478 
L 230.82426 223.886971 
L 230.941848 224.395493 
L 231.000642 224.141232 
L 231.059436 224.395493 
L 231.11823 224.310739 
L 231.235818 224.395493 
L 231.353406 224.565 
L 231.4122 224.310739 
L 231.470994 224.480247 
L 231.529788 224.480247 
L 231.588582 224.225986 
L 231.647376 224.395493 
L 231.941345 224.395493 
L 232.000139 223.971725 
L 232.058933 224.310739 
L 232.117727 224.904015 
L 232.176521 224.734508 
L 232.411697 224.310739 
L 232.529285 224.649754 
L 232.588079 224.565 
L 232.705667 225.327783 
L 232.764461 225.24303 
L 232.823255 225.24303 
L 232.882049 225.073522 
L 233.176018 226.514335 
L 233.234812 226.344827 
L 233.293606 226.429581 
L 233.528782 227.361871 
L 233.763958 228.294162 
L 233.822752 228.209408 
L 233.999134 229.311205 
L 234.175515 228.633176 
L 234.469485 229.819727 
L 234.528279 229.65022 
L 234.704661 230.328249 
L 234.763455 230.328249 
L 234.822249 230.667264 
L 234.881043 230.413003 
L 234.939837 230.413003 
L 235.057425 231.006279 
L 235.116219 230.667264 
L 235.175013 230.58251 
L 235.233807 231.006279 
L 235.292601 230.921525 
L 235.351394 230.667264 
L 235.527776 231.26054 
L 235.704158 230.752018 
L 235.821746 231.175786 
L 235.88054 231.006279 
L 235.939334 231.26054 
L 235.998128 231.091032 
L 236.115716 230.836771 
L 236.17451 231.26054 
L 236.233304 230.667264 
L 236.292098 230.921525 
L 236.46848 231.26054 
L 236.527273 230.667264 
L 236.586067 230.836771 
L 236.821243 231.091032 
L 236.938831 230.752018 
L 236.997625 230.921525 
L 237.115213 230.752018 
L 237.232801 231.006279 
L 237.291595 230.328249 
L 237.350389 230.667264 
L 237.467977 230.836771 
L 237.82074 229.989235 
L 237.879534 230.497757 
L 238.11471 229.226452 
L 238.173504 229.311205 
L 238.40868 228.039901 
L 238.70265 226.344827 
L 239.231795 221.937637 
L 239.466971 219.225519 
L 240.113704 215.157343 
L 240.172498 215.07259 
L 240.231292 214.564068 
L 240.290086 214.903082 
L 240.34888 214.564068 
L 240.407674 215.157343 
L 240.466468 214.903082 
L 240.525262 214.648821 
L 240.701644 215.496358 
L 240.760438 215.496358 
L 240.93682 216.00488 
L 240.995614 215.665865 
L 241.054408 215.835373 
L 241.23079 215.920126 
L 241.407171 216.428648 
L 241.524759 216.598156 
L 241.583553 216.513402 
L 241.701141 216.93717 
L 241.759935 216.682909 
L 241.818729 216.767663 
L 241.877523 216.682909 
L 241.995111 216.682909 
L 242.053905 216.93717 
L 242.230287 216.428648 
L 242.289081 216.513402 
L 242.465462 216.00488 
L 242.524256 216.089634 
L 242.58305 215.835373 
L 242.700638 216.089634 
L 242.759432 215.920126 
L 242.818226 216.089634 
L 242.87702 216.259141 
L 242.994608 215.920126 
L 243.17099 216.00488 
L 243.229784 215.750619 
L 243.288578 215.920126 
L 243.582548 215.411604 
L 243.817723 215.665865 
L 243.935311 215.581112 
L 243.994105 215.07259 
L 244.052899 215.496358 
L 244.170487 215.157343 
L 244.346869 215.496358 
L 244.523251 215.157343 
L 244.582045 215.326851 
L 244.640839 215.157343 
L 244.699633 215.157343 
L 244.758427 215.326851 
L 244.81722 215.07259 
L 244.876014 215.242097 
L 244.993602 215.411604 
L 245.052396 215.07259 
L 245.11119 215.242097 
L 245.169984 215.242097 
L 245.228778 215.411604 
L 245.287572 214.903082 
L 245.346366 215.07259 
L 245.581542 214.648821 
L 245.69913 215.242097 
L 245.757924 214.733575 
L 245.816718 214.987836 
L 245.875512 214.733575 
L 245.934306 215.157343 
L 245.993099 214.987836 
L 246.110687 214.818329 
L 246.169481 214.987836 
L 246.228275 214.648821 
L 246.287069 214.733575 
L 246.345863 214.903082 
L 246.463451 214.564068 
L 246.522245 214.564068 
L 246.639833 214.225053 
L 246.816215 214.987836 
L 246.933803 214.648821 
L 247.051391 214.225053 
L 247.110185 214.479314 
L 247.34536 215.157343 
L 247.462948 214.733575 
L 247.874506 215.242097 
L 247.992094 214.903082 
L 248.050888 215.326851 
L 248.109682 214.987836 
L 248.168476 215.326851 
L 248.22727 215.157343 
L 248.697621 215.157343 
L 248.815209 215.411604 
L 248.991591 214.987836 
L 249.109179 214.987836 
L 249.226767 214.648821 
L 249.285561 215.157343 
L 249.344355 214.987836 
L 249.403149 215.157343 
L 249.57953 214.733575 
L 249.697118 215.242097 
L 249.755912 214.564068 
L 249.814706 214.818329 
L 249.8735 214.818329 
L 250.049882 215.07259 
L 250.108676 215.07259 
L 250.285058 214.818329 
L 250.402646 214.818329 
L 250.46144 214.39456 
L 250.520234 214.479314 
L 250.637822 214.648821 
L 250.755409 214.309807 
L 250.814203 214.39456 
L 250.872997 214.39456 
L 250.931791 214.648821 
L 251.166967 213.631778 
L 251.225761 214.055546 
L 251.402143 212.953748 
L 251.931288 211.512936 
L 251.990082 211.682443 
L 252.048876 211.59769 
L 252.10767 211.089168 
L 252.166464 211.428182 
L 252.578022 210.580646 
L 252.636816 210.834907 
L 252.69561 210.750153 
L 252.754404 210.580646 
L 252.930786 211.343429 
L 253.283549 211.936704 
L 253.342343 211.851951 
L 253.401137 211.767197 
L 253.577519 212.275719 
L 253.636313 212.190965 
L 253.989077 212.953748 
L 254.047871 212.784241 
L 254.106665 213.208009 
L 254.165459 212.953748 
L 254.224253 212.953748 
L 254.34184 213.292763 
L 254.400634 212.953748 
L 254.459428 213.208009 
L 254.63581 212.953748 
L 254.694604 213.038502 
L 254.753398 213.208009 
L 254.870986 212.784241 
L 254.92978 212.868995 
L 254.988574 212.699487 
L 255.047368 212.784241 
L 255.164956 213.038502 
L 255.22375 212.953748 
L 255.341338 212.699487 
L 255.400132 213.038502 
L 255.517719 212.52998 
L 255.576513 212.953748 
L 255.694101 212.275719 
L 255.988071 212.784241 
L 256.046865 212.52998 
L 256.105659 212.953748 
L 256.164453 212.699487 
L 256.223247 212.868995 
L 256.282041 212.784241 
L 256.399629 212.868995 
L 256.458423 212.953748 
L 256.634805 212.275719 
L 256.693598 212.106212 
L 256.752392 212.190965 
L 256.811186 212.445226 
L 256.86998 212.021458 
L 256.928774 212.445226 
L 256.987568 212.190965 
L 257.105156 211.851951 
L 257.16395 212.190965 
L 257.281538 211.682443 
L 257.399126 212.106212 
L 257.45792 212.106212 
L 257.575508 211.343429 
L 257.634302 211.512936 
L 257.810684 210.411138 
L 257.869477 211.089168 
L 257.928271 211.004414 
L 258.163447 209.98737 
L 258.457417 208.631311 
L 258.516211 208.800819 
L 258.868975 206.258209 
L 258.927769 206.258209 
L 259.10415 205.580179 
L 259.280532 204.478382 
L 259.456914 203.461338 
L 259.515708 203.546091 
L 259.574502 203.546091 
L 259.633296 203.715599 
L 259.69209 202.868062 
L 259.750884 202.952816 
L 259.927266 203.376584 
L 260.221235 205.241165 
L 260.397617 206.597223 
L 260.515205 206.427716 
L 260.691587 206.427716 
L 260.867969 203.630845 
L 261.103145 195.240232 
L 261.338321 180.577848 
L 262.337818 108.537233 
L 262.5142 106.248884 
L 262.572993 106.079377 
L 262.631787 106.164131 
L 262.749375 107.943958 
L 263.102139 114.554743 
L 263.454903 119.216195 
L 263.631285 120.317993 
L 264.101636 118.283905 
L 264.336812 116.165063 
L 264.924752 111.418858 
L 264.983545 111.503612 
L 265.336309 109.808538 
L 265.395103 110.062799 
L 265.512691 109.38477 
L 265.689073 109.554277 
L 265.865455 109.215263 
L 265.983043 108.45248 
L 266.041837 108.791494 
L 266.100631 108.961002 
L 266.277012 108.621987 
L 266.629776 107.604943 
L 266.68857 108.113465 
L 266.747364 107.943958 
L 266.806158 108.028711 
L 266.98254 107.604943 
L 267.158922 107.859204 
L 267.217716 107.520189 
L 267.27651 107.604943 
L 267.394097 107.859204 
L 267.570479 107.181175 
L 267.629273 107.943958 
L 267.688067 107.350682 
L 267.746861 107.859204 
L 267.805655 107.689697 
L 268.040831 107.520189 
L 268.217213 108.113465 
L 268.276007 108.028711 
L 268.511182 108.621987 
L 268.62877 107.943958 
L 268.687564 108.367726 
L 268.746358 108.45248 
L 268.805152 108.028711 
L 268.863946 108.282972 
L 269.099122 107.604943 
L 269.157916 107.689697 
L 269.334298 107.77445 
L 269.51068 107.096421 
L 269.628268 107.181175 
L 270.039825 107.77445 
L 270.157413 107.096421 
L 270.216207 107.604943 
L 270.275001 107.604943 
L 270.451383 106.757406 
L 270.627765 107.350682 
L 270.804147 107.520189 
L 270.862941 107.265928 
L 270.921734 107.435436 
L 270.980528 107.350682 
L 271.039322 107.604943 
L 271.098116 107.435436 
L 271.15691 106.926914 
L 271.215704 107.096421 
L 271.274498 107.604943 
L 271.333292 107.350682 
L 271.45088 106.926914 
L 271.509674 107.350682 
L 271.686056 106.587899 
L 271.862438 107.435436 
L 271.921232 107.181175 
L 272.097613 107.604943 
L 272.332789 107.096421 
L 272.391583 106.84216 
L 272.450377 106.926914 
L 272.567965 107.011667 
L 272.626759 107.350682 
L 272.744347 106.84216 
L 272.861935 107.011667 
L 273.038317 106.757406 
L 273.097111 106.84216 
L 273.155905 107.435436 
L 273.214699 106.757406 
L 273.273492 107.011667 
L 273.626256 106.333638 
L 273.68505 106.418392 
L 273.743844 106.079377 
L 273.802638 106.672653 
L 273.861432 106.503145 
L 273.920226 106.587899 
L 274.155402 105.825116 
L 274.214196 105.994623 
L 274.390578 105.401348 
L 274.508165 105.23184 
L 274.802135 106.333638 
L 274.860929 105.655609 
L 274.919723 105.994623 
L 274.978517 106.079377 
L 275.037311 105.994623 
L 275.096105 105.316594 
L 275.213693 106.079377 
L 275.272487 105.90987 
L 275.331281 106.079377 
L 275.390075 105.994623 
L 275.448869 105.570855 
L 275.566457 106.164131 
L 275.742838 105.655609 
L 275.801632 105.825116 
L 275.860426 105.486101 
L 275.91922 105.655609 
L 275.978014 105.994623 
L 276.036808 105.90987 
L 276.095602 105.23184 
L 276.154396 105.994623 
L 276.21319 105.740362 
L 276.448366 105.316594 
L 276.50716 105.486101 
L 276.683542 105.062333 
L 276.742336 105.23184 
L 276.801129 105.062333 
L 276.859923 104.977579 
L 276.918717 105.23184 
L 276.977511 105.062333 
L 277.036305 104.808072 
L 277.095099 105.23184 
L 277.153893 104.892826 
L 277.212687 104.977579 
L 277.271481 104.808072 
L 277.389069 105.147087 
L 277.447863 104.553811 
L 277.506657 104.977579 
L 277.565451 104.553811 
L 277.624245 104.723318 
L 277.683039 104.892826 
L 277.918215 103.791028 
L 277.977009 103.875782 
L 278.035802 104.29955 
L 278.094596 103.960535 
L 278.329772 104.469057 
L 278.800124 103.282506 
L 278.858918 103.706274 
L 278.917712 103.536767 
L 279.0353 103.282506 
L 279.094094 103.36726 
L 279.270475 102.68923 
L 279.329269 102.604477 
L 279.388063 102.68923 
L 279.505651 102.604477 
L 279.564445 102.350216 
L 279.623239 102.604477 
L 279.682033 102.434969 
L 279.740827 102.434969 
L 279.858415 101.926447 
L 279.917209 102.180708 
L 279.976003 101.417925 
L 280.034797 101.502679 
L 280.093591 101.502679 
L 280.152385 101.248418 
L 280.211179 101.417925 
L 280.505148 100.739896 
L 280.563942 100.909403 
L 280.740324 99.977113 
L 280.857912 100.400881 
L 280.916706 100.316128 
L 280.9755 100.400881 
L 281.034294 100.739896 
L 281.093088 100.485635 
L 281.151882 100.485635 
L 282.151379 107.350682 
L 282.445349 105.316594 
L 282.739318 97.943025 
L 283.20967 76.246087 
L 283.738816 52.769322 
L 284.032785 47.853609 
L 284.091579 47.684102 
L 284.150373 47.853609 
L 284.209167 47.768856 
L 284.561931 52.2608 
L 284.973489 58.363064 
L 285.326252 60.736166 
L 285.502634 60.481905 
L 285.561428 60.566659 
L 285.620222 60.481905 
L 285.679016 60.481905 
L 285.972986 58.532571 
L 286.913689 52.515061 
L 287.148865 51.752278 
L 287.560422 50.141958 
L 287.619216 50.311466 
L 287.97198 49.124914 
L 288.030774 49.294422 
L 288.089568 49.040161 
L 288.148362 49.209668 
L 288.501126 48.362131 
L 288.618714 48.7859 
L 288.677507 48.277378 
L 288.736301 48.362131 
L 288.795095 48.277378 
L 288.971477 48.870653 
L 289.147859 48.446885 
L 289.324241 49.040161 
L 289.441829 48.616392 
L 289.500623 49.124914 
L 289.559417 48.955407 
L 289.735799 49.294422 
L 289.794593 49.209668 
L 289.970974 49.887697 
L 290.029768 50.311466 
L 290.088562 50.057205 
L 290.441326 50.819988 
L 290.617708 50.226712 
L 290.79409 49.463929 
L 291.029265 48.446885 
L 291.146853 47.768856 
L 291.617205 45.904275 
L 291.675999 46.158536 
L 291.793587 45.56526 
L 291.911175 45.734768 
L 291.969969 45.56526 
L 292.028763 45.650014 
L 292.146351 46.073782 
L 292.205144 45.989029 
L 292.263938 45.904275 
L 292.44032 46.751812 
L 292.499114 46.667058 
L 292.675496 47.599348 
L 292.73429 47.260334 
L 293.087054 49.040161 
L 293.145848 48.870653 
L 293.263436 49.294422 
L 293.32223 49.040161 
L 293.439817 49.548683 
L 293.498611 49.124914 
L 293.557405 49.633436 
L 293.616199 49.548683 
L 293.674993 49.548683 
L 293.792581 50.565727 
L 293.851375 50.141958 
L 293.910169 50.226712 
L 293.968963 49.972451 
L 294.027757 50.141958 
L 294.086551 50.396219 
L 294.145345 49.887697 
L 294.204139 50.057205 
L 294.262933 50.226712 
L 294.321727 49.972451 
L 294.439315 50.565727 
L 294.615696 50.226712 
L 294.67449 50.396219 
L 294.733284 50.226712 
L 295.027254 50.65048 
L 295.144842 50.226712 
L 295.26243 50.735234 
L 295.380018 50.057205 
L 295.438812 50.565727 
L 295.497606 50.311466 
L 295.5564 50.480973 
L 295.732782 50.141958 
L 295.850369 50.057205 
L 295.909163 50.311466 
L 295.967957 50.141958 
L 296.085545 49.633436 
L 296.144339 50.226712 
L 296.203133 49.802944 
L 296.497103 50.226712 
L 296.555897 49.887697 
L 296.614691 50.057205 
L 296.673485 50.141958 
L 296.732279 49.802944 
L 296.791073 49.972451 
L 296.908661 49.887697 
L 296.967454 50.226712 
L 297.085042 49.802944 
L 297.20263 49.972451 
L 297.320218 49.548683 
L 297.379012 49.802944 
L 297.4966 49.71819 
L 297.672982 49.972451 
L 297.79057 49.802944 
L 297.966952 50.226712 
L 298.025746 49.379175 
L 298.08454 49.463929 
L 298.202127 49.379175 
L 298.319715 49.633436 
L 298.378509 49.379175 
L 298.437303 49.463929 
L 298.613685 49.548683 
L 298.672479 49.294422 
L 298.731273 49.71819 
L 298.790067 49.548683 
L 299.025243 48.277378 
L 299.084037 48.277378 
L 299.201625 48.531639 
L 299.260419 48.531639 
L 299.378006 48.192624 
L 299.4368 48.192624 
L 299.495594 48.446885 
L 299.554388 48.023117 
L 299.613182 48.277378 
L 299.671976 48.192624 
L 299.789564 47.429841 
L 299.848358 47.599348 
L 300.083534 47.938363 
L 300.142328 47.853609 
L 300.201122 48.446885 
L 300.259916 48.277378 
L 300.31871 48.023117 
L 300.377504 48.192624 
L 300.553885 48.192624 
L 300.906649 48.870653 
L 300.965443 48.616392 
L 301.024237 48.7859 
L 301.083031 48.701146 
L 301.141825 48.362131 
L 301.318207 49.124914 
L 301.435795 48.531639 
L 301.553383 48.7859 
L 301.612177 49.040161 
L 301.670971 48.7859 
L 301.729764 49.040161 
L 301.788558 48.7859 
L 301.847352 48.955407 
L 301.96494 48.870653 
L 302.023734 49.294422 
L 302.141322 48.701146 
L 302.200116 48.7859 
L 302.25891 49.209668 
L 302.317704 49.124914 
L 302.55288 48.7859 
L 302.670468 49.209668 
L 302.729262 49.040161 
L 302.788056 48.870653 
L 302.905643 49.294422 
L 302.964437 48.7859 
L 303.023231 49.124914 
L 303.082025 49.124914 
L 303.140819 48.955407 
L 303.199613 49.040161 
L 303.258407 49.040161 
L 303.317201 49.379175 
L 303.493583 48.7859 
L 303.611171 49.379175 
L 303.669965 48.870653 
L 303.728759 48.955407 
L 303.787553 49.040161 
L 303.846347 48.870653 
L 303.905141 49.209668 
L 303.963935 49.040161 
L 304.081522 48.701146 
L 304.257904 49.294422 
L 304.375492 48.870653 
L 304.551874 49.379175 
L 304.669462 48.7859 
L 304.728256 49.379175 
L 304.78705 49.209668 
L 304.963432 48.7859 
L 305.022226 48.955407 
L 305.139814 48.531639 
L 305.198608 48.616392 
L 305.316195 48.362131 
L 305.374989 48.616392 
L 305.433783 48.446885 
L 305.492577 47.938363 
L 305.551371 48.362131 
L 305.610165 48.192624 
L 305.668959 48.362131 
L 305.786547 48.277378 
L 305.962929 48.701146 
L 306.021723 48.616392 
L 306.139311 48.446885 
L 306.198105 48.701146 
L 306.256899 48.531639 
L 306.374487 48.616392 
L 306.43328 48.277378 
L 306.492074 48.701146 
L 306.550868 48.616392 
L 306.609662 47.938363 
L 306.668456 48.446885 
L 306.72725 48.192624 
L 306.786044 48.277378 
L 306.903632 48.192624 
L 306.962426 47.684102 
L 307.138808 48.362131 
L 307.197602 47.938363 
L 307.256396 48.446885 
L 307.373984 47.684102 
L 307.432778 47.938363 
L 307.609159 47.599348 
L 307.726747 48.362131 
L 307.844335 47.599348 
L 307.903129 47.853609 
L 307.961923 47.938363 
L 308.020717 47.684102 
L 308.138305 48.277378 
L 308.197099 48.192624 
L 308.314687 48.023117 
L 308.432275 48.277378 
L 308.549863 47.684102 
L 308.608657 48.10787 
L 308.667451 48.023117 
L 308.726245 47.938363 
L 308.785039 48.531639 
L 308.902626 47.684102 
L 309.020214 48.192624 
L 309.079008 48.10787 
L 309.196596 48.10787 
L 309.372978 47.684102 
L 309.431772 48.10787 
L 309.490566 47.684102 
L 309.54936 47.853609 
L 309.608154 48.023117 
L 309.666948 47.853609 
L 309.784536 47.599348 
L 309.84333 47.684102 
L 309.960918 47.768856 
L 310.019711 47.345087 
L 310.078505 47.684102 
L 310.254887 47.17558 
L 310.313681 47.345087 
L 310.372475 47.260334 
L 310.490063 47.599348 
L 310.725239 47.345087 
L 310.901621 47.768856 
L 310.960415 48.023117 
L 311.019209 47.853609 
L 311.078003 47.684102 
L 311.19559 48.023117 
L 311.254384 47.938363 
L 311.371972 48.277378 
L 311.430766 47.938363 
L 311.48956 48.023117 
L 311.548354 47.938363 
L 311.607148 47.429841 
L 311.665942 47.684102 
L 311.842324 48.277378 
L 311.901118 47.768856 
L 311.959912 47.853609 
L 312.136294 47.514595 
L 312.253882 47.853609 
L 312.489057 47.514595 
L 312.547851 47.684102 
L 312.606645 47.514595 
L 312.841821 47.853609 
L 313.018203 47.090826 
L 313.135791 47.514595 
L 313.370967 47.090826 
L 313.606142 47.429841 
L 313.664936 47.514595 
L 313.72373 47.260334 
L 313.841318 48.192624 
L 313.958906 47.768856 
L 314.0177 48.192624 
L 314.135288 47.684102 
L 314.370464 48.446885 
L 314.488052 47.514595 
L 314.664434 48.192624 
L 314.723227 47.768856 
L 314.782021 47.938363 
L 314.899609 47.853609 
L 315.017197 48.277378 
L 315.075991 48.023117 
L 315.134785 48.192624 
L 315.193579 48.531639 
L 315.252373 48.277378 
L 315.311167 48.192624 
L 315.369961 48.362131 
L 315.428755 48.023117 
L 315.487549 48.192624 
L 315.546343 48.446885 
L 315.663931 48.023117 
L 315.840313 48.362131 
L 316.016694 47.768856 
L 316.075488 48.192624 
L 316.134282 47.853609 
L 316.25187 48.10787 
L 316.310664 47.938363 
L 316.487046 47.429841 
L 316.54584 47.768856 
L 316.663428 47.345087 
L 316.722222 47.599348 
L 316.781016 47.345087 
L 316.83981 47.429841 
L 316.898604 47.514595 
L 316.957398 46.751812 
L 317.016192 47.17558 
L 317.133779 47.006073 
L 317.192573 47.260334 
L 317.251367 46.921319 
L 317.310161 47.090826 
L 317.368955 47.260334 
L 317.427749 47.17558 
L 317.486543 47.090826 
L 317.545337 47.345087 
L 317.604131 47.17558 
L 317.662925 46.921319 
L 317.721719 47.006073 
L 317.780513 46.921319 
L 317.898101 47.090826 
L 318.015689 46.751812 
L 318.074483 46.921319 
L 318.133277 47.090826 
L 318.192071 47.006073 
L 318.309658 46.921319 
L 318.368452 47.429841 
L 318.427246 47.090826 
L 318.48604 47.090826 
L 318.544834 47.345087 
L 318.662422 47.006073 
L 318.78001 47.260334 
L 318.956392 46.751812 
L 319.191568 47.345087 
L 319.250362 47.260334 
L 319.485537 47.514595 
L 319.544331 47.345087 
L 319.720713 47.768856 
L 319.779507 47.768856 
L 319.955889 47.345087 
L 320.014683 47.938363 
L 320.073477 47.514595 
L 320.132271 47.853609 
L 320.308653 47.260334 
L 320.485035 47.090826 
L 320.543829 47.17558 
L 320.602623 47.090826 
L 320.661416 46.667058 
L 320.72021 46.836565 
L 320.896592 47.17558 
L 320.955386 46.667058 
L 321.01418 46.921319 
L 321.072974 47.006073 
L 321.131768 46.836565 
L 321.190562 46.921319 
L 321.249356 46.921319 
L 321.30815 47.090826 
L 321.366944 46.582304 
L 321.425738 46.836565 
L 321.60212 46.497551 
L 321.660914 46.158536 
L 321.719708 46.412797 
L 322.013677 45.904275 
L 322.072471 46.328043 
L 322.131265 46.24329 
L 322.248853 45.989029 
L 322.366441 46.667058 
L 322.542823 45.989029 
L 322.954381 45.56526 
L 323.189556 45.989029 
L 323.307144 45.56526 
L 323.365938 45.650014 
L 323.424732 45.734768 
L 323.54232 45.141492 
L 323.601114 45.226246 
L 323.777496 45.141492 
L 323.953878 44.802477 
L 324.012672 44.971985 
L 324.071466 44.887231 
L 324.13026 44.548216 
L 324.189054 44.63297 
L 324.365435 45.056738 
L 324.424229 44.63297 
L 324.483023 44.717724 
L 324.541817 44.887231 
L 324.718199 44.378709 
L 324.776993 44.802477 
L 324.835787 44.293955 
L 324.894581 44.548216 
L 325.012169 44.293955 
L 325.070963 44.63297 
L 325.129757 44.463463 
L 325.188551 44.209202 
L 325.247345 44.378709 
L 325.364933 44.039694 
L 325.48252 44.63297 
L 325.541314 43.870187 
L 325.600108 44.209202 
L 325.717696 44.124448 
L 325.77649 44.378709 
L 325.835284 44.124448 
L 325.894078 44.293955 
L 326.011666 44.63297 
L 326.129254 44.293955 
L 326.188048 44.548216 
L 326.36443 43.954941 
L 326.482018 44.293955 
L 326.540812 43.870187 
L 326.599605 44.124448 
L 326.658399 44.378709 
L 326.834781 43.785433 
L 326.952369 44.293955 
L 327.128751 43.192158 
L 327.187545 43.276911 
L 327.246339 43.531172 
L 327.422721 42.937897 
L 327.657897 42.514128 
L 327.716691 42.937897 
L 327.775484 42.598882 
L 327.834278 42.344621 
L 327.951866 42.598882 
L 328.128248 42.429375 
L 328.187042 42.598882 
L 328.30463 43.276911 
L 328.363424 43.276911 
L 328.422218 43.785433 
L 328.481012 43.615926 
L 328.539806 43.615926 
L 328.5986 43.785433 
L 328.774982 43.361665 
L 328.833776 43.870187 
L 328.89257 43.531172 
L 328.951363 43.361665 
L 329.010157 43.531172 
L 329.068951 43.446419 
L 329.598097 40.395287 
L 330.24483 37.259401 
L 330.303624 37.00514 
L 330.362418 37.513662 
L 330.421212 37.089894 
L 330.5388 36.835633 
L 330.656388 36.327111 
L 330.715182 36.666126 
L 330.773976 36.496618 
L 330.83277 36.411865 
L 330.891564 36.666126 
L 330.950358 36.242357 
L 331.12674 36.750879 
L 331.303122 36.157604 
L 331.361915 36.411865 
L 331.420709 36.157604 
L 331.479503 36.411865 
L 331.597091 35.903343 
L 331.773473 36.242357 
L 331.832267 36.157604 
L 331.891061 36.242357 
L 332.067443 36.242357 
L 332.126237 36.835633 
L 332.185031 36.750879 
L 332.243825 36.666126 
L 332.302619 36.157604 
L 332.479001 36.835633 
L 332.596588 37.089894 
L 332.655382 36.750879 
L 332.714176 37.259401 
L 332.77297 37.174648 
L 333.008146 37.00514 
L 333.06694 37.344155 
L 333.184528 36.750879 
L 333.243322 37.00514 
L 333.36091 36.327111 
L 333.419704 36.750879 
L 333.478498 36.666126 
L 333.537292 36.666126 
L 333.596086 36.496618 
L 333.65488 36.581372 
L 333.713673 36.750879 
L 333.890055 36.242357 
L 333.948849 36.750879 
L 334.007643 36.496618 
L 334.066437 36.242357 
L 334.125231 36.411865 
L 334.184025 36.581372 
L 334.242819 35.988096 
L 334.301613 36.327111 
L 334.419201 36.666126 
L 334.595583 36.327111 
L 334.654377 36.07285 
L 334.713171 36.411865 
L 334.771965 35.988096 
L 334.830759 36.666126 
L 334.889552 36.157604 
L 335.065934 36.242357 
L 335.124728 35.903343 
L 335.242316 36.496618 
L 335.418698 35.733835 
L 335.59508 36.242357 
L 335.653874 36.496618 
L 335.771462 35.988096 
L 335.830256 36.07285 
L 335.830256 36.07285 
" clip-path="url(#pa973b62ef1)" style="fill: none; stroke: #1f77b4; stroke-width: 1.5; stroke-linecap: square"/>
   </g>
   <g id="patch_3">
    <path d="M 55.065625 241.036875 
L 55.065625 25.9575 
" style="fill: none; stroke: #000000; stroke-width: 0.8; stroke-linejoin: miter; stroke-linecap: square"/>
   </g>
   <g id="patch_4">
    <path d="M 349.2 241.036875 
L 349.2 25.9575 
" style="fill: none; stroke: #000000; stroke-width: 0.8; stroke-linejoin: miter; stroke-linecap: square"/>
   </g>
   <g id="patch_5">
    <path d="M 55.065625 241.036875 
L 349.2 241.036875 
" style="fill: none; stroke: #000000; stroke-width: 0.8; stroke-linejoin: miter; stroke-linecap: square"/>
   </g>
   <g id="patch_6">
    <path d="M 55.065625 25.9575 
L 349.2 25.9575 
" style="fill: none; stroke: #000000; stroke-width: 0.8; stroke-linejoin: miter; stroke-linecap: square"/>
   </g>
  </g>
 </g>
 <defs>
  <clipPath id="pa973b62ef1">
   <rect x="55.065625" y="25.9575" width="294.134375" height="215.079375"/>
  </clipPath>
 </defs>
</svg>
