<?xml version="1.0" encoding="utf-8" standalone="no"?>
<!DOCTYPE svg PUBLIC "-//W3C//DTD SVG 1.1//EN"
  "http://www.w3.org/Graphics/SVG/1.1/DTD/svg11.dtd">
<svg xmlns:xlink="http://www.w3.org/1999/xlink" width="414pt" height="288pt" viewBox="0 0 414 288" xmlns="http://www.w3.org/2000/svg" version="1.1">
 <metadata>
  <rdf:RDF xmlns:dc="http://purl.org/dc/elements/1.1/" xmlns:cc="http://creativecommons.org/ns#" xmlns:rdf="http://www.w3.org/1999/02/22-rdf-syntax-ns#">
   <cc:Work>
    <dc:type rdf:resource="http://purl.org/dc/dcmitype/StillImage"/>
    <dc:date>2023-09-07T00:38:12.529024</dc:date>
    <dc:format>image/svg+xml</dc:format>
    <dc:creator>
     <cc:Agent>
      <dc:title>Matplotlib v3.7.2, https://matplotlib.org/</dc:title>
     </cc:Agent>
    </dc:creator>
   </cc:Work>
  </rdf:RDF>
 </metadata>
 <defs>
  <style type="text/css">*{stroke-linejoin: round; stroke-linecap: butt}</style>
 </defs>
 <g id="figure_1">
  <g id="patch_1">
   <path d="M 0 288 
L 414 288 
L 414 0 
L 0 0 
L 0 288 
z
" style="fill: none"/>
  </g>
  <g id="axes_1">
   <g id="patch_2">
    <path d="M 85.605625 241.036875 
L 390.360682 241.036875 
L 390.360682 10.8 
L 85.605625 10.8 
L 85.605625 241.036875 
z
" style="fill: none"/>
   </g>
   <g id="matplotlib.axis_1">
    <g id="xtick_1">
     <g id="line2d_1">
      <defs>
       <path id="m13a065891b" d="M 0 0 
L 0 3.5 
" style="stroke: #000000; stroke-width: 0.8"/>
      </defs>
      <g>
       <use xlink:href="#m13a065891b" x="99.458128" y="241.036875" style="stroke: #000000; stroke-width: 0.8"/>
      </g>
     </g>
     <g id="text_1">
      <!-- 0 -->
      <g transform="translate(94.368128 260.194375) scale(0.16 -0.16)">
       <defs>
        <path id="DejaVuSans-30" d="M 2034 4250 
Q 1547 4250 1301 3770 
Q 1056 3291 1056 2328 
Q 1056 1369 1301 889 
Q 1547 409 2034 409 
Q 2525 409 2770 889 
Q 3016 1369 3016 2328 
Q 3016 3291 2770 3770 
Q 2525 4250 2034 4250 
z
M 2034 4750 
Q 2819 4750 3233 4129 
Q 3647 3509 3647 2328 
Q 3647 1150 3233 529 
Q 2819 -91 2034 -91 
Q 1250 -91 836 529 
Q 422 1150 422 2328 
Q 422 3509 836 4129 
Q 1250 4750 2034 4750 
z
" transform="scale(0.015625)"/>
       </defs>
       <use xlink:href="#DejaVuSans-30"/>
      </g>
     </g>
    </g>
    <g id="xtick_2">
     <g id="line2d_2">
      <g>
       <use xlink:href="#m13a065891b" x="157.176888" y="241.036875" style="stroke: #000000; stroke-width: 0.8"/>
      </g>
     </g>
     <g id="text_2">
      <!-- 50 -->
      <g transform="translate(146.996888 260.194375) scale(0.16 -0.16)">
       <defs>
        <path id="DejaVuSans-35" d="M 691 4666 
L 3169 4666 
L 3169 4134 
L 1269 4134 
L 1269 2991 
Q 1406 3038 1543 3061 
Q 1681 3084 1819 3084 
Q 2600 3084 3056 2656 
Q 3513 2228 3513 1497 
Q 3513 744 3044 326 
Q 2575 -91 1722 -91 
Q 1428 -91 1123 -41 
Q 819 9 494 109 
L 494 744 
Q 775 591 1075 516 
Q 1375 441 1709 441 
Q 2250 441 2565 725 
Q 2881 1009 2881 1497 
Q 2881 1984 2565 2268 
Q 2250 2553 1709 2553 
Q 1456 2553 1204 2497 
Q 953 2441 691 2322 
L 691 4666 
z
" transform="scale(0.015625)"/>
       </defs>
       <use xlink:href="#DejaVuSans-35"/>
       <use xlink:href="#DejaVuSans-30" x="63.623047"/>
      </g>
     </g>
    </g>
    <g id="xtick_3">
     <g id="line2d_3">
      <g>
       <use xlink:href="#m13a065891b" x="214.895649" y="241.036875" style="stroke: #000000; stroke-width: 0.8"/>
      </g>
     </g>
     <g id="text_3">
      <!-- 100 -->
      <g transform="translate(199.625649 260.194375) scale(0.16 -0.16)">
       <defs>
        <path id="DejaVuSans-31" d="M 794 531 
L 1825 531 
L 1825 4091 
L 703 3866 
L 703 4441 
L 1819 4666 
L 2450 4666 
L 2450 531 
L 3481 531 
L 3481 0 
L 794 0 
L 794 531 
z
" transform="scale(0.015625)"/>
       </defs>
       <use xlink:href="#DejaVuSans-31"/>
       <use xlink:href="#DejaVuSans-30" x="63.623047"/>
       <use xlink:href="#DejaVuSans-30" x="127.246094"/>
      </g>
     </g>
    </g>
    <g id="xtick_4">
     <g id="line2d_4">
      <g>
       <use xlink:href="#m13a065891b" x="272.61441" y="241.036875" style="stroke: #000000; stroke-width: 0.8"/>
      </g>
     </g>
     <g id="text_4">
      <!-- 150 -->
      <g transform="translate(257.34441 260.194375) scale(0.16 -0.16)">
       <use xlink:href="#DejaVuSans-31"/>
       <use xlink:href="#DejaVuSans-35" x="63.623047"/>
       <use xlink:href="#DejaVuSans-30" x="127.246094"/>
      </g>
     </g>
    </g>
    <g id="xtick_5">
     <g id="line2d_5">
      <g>
       <use xlink:href="#m13a065891b" x="330.333171" y="241.036875" style="stroke: #000000; stroke-width: 0.8"/>
      </g>
     </g>
     <g id="text_5">
      <!-- 200 -->
      <g transform="translate(315.063171 260.194375) scale(0.16 -0.16)">
       <defs>
        <path id="DejaVuSans-32" d="M 1228 531 
L 3431 531 
L 3431 0 
L 469 0 
L 469 531 
Q 828 903 1448 1529 
Q 2069 2156 2228 2338 
Q 2531 2678 2651 2914 
Q 2772 3150 2772 3378 
Q 2772 3750 2511 3984 
Q 2250 4219 1831 4219 
Q 1534 4219 1204 4116 
Q 875 4013 500 3803 
L 500 4441 
Q 881 4594 1212 4672 
Q 1544 4750 1819 4750 
Q 2544 4750 2975 4387 
Q 3406 4025 3406 3419 
Q 3406 3131 3298 2873 
Q 3191 2616 2906 2266 
Q 2828 2175 2409 1742 
Q 1991 1309 1228 531 
z
" transform="scale(0.015625)"/>
       </defs>
       <use xlink:href="#DejaVuSans-32"/>
       <use xlink:href="#DejaVuSans-30" x="63.623047"/>
       <use xlink:href="#DejaVuSans-30" x="127.246094"/>
      </g>
     </g>
    </g>
    <g id="xtick_6">
     <g id="line2d_6">
      <g>
       <use xlink:href="#m13a065891b" x="388.051931" y="241.036875" style="stroke: #000000; stroke-width: 0.8"/>
      </g>
     </g>
     <g id="text_6">
      <!-- 250 -->
      <g transform="translate(372.781931 260.194375) scale(0.16 -0.16)">
       <use xlink:href="#DejaVuSans-32"/>
       <use xlink:href="#DejaVuSans-35" x="63.623047"/>
       <use xlink:href="#DejaVuSans-30" x="127.246094"/>
      </g>
     </g>
    </g>
    <g id="text_7">
     <!-- Time [min] -->
     <g transform="translate(210.83081 275.120313) scale(0.1 -0.1)">
      <defs>
       <path id="DejaVuSans-54" d="M -19 4666 
L 3928 4666 
L 3928 4134 
L 2272 4134 
L 2272 0 
L 1638 0 
L 1638 4134 
L -19 4134 
L -19 4666 
z
" transform="scale(0.015625)"/>
       <path id="DejaVuSans-69" d="M 603 3500 
L 1178 3500 
L 1178 0 
L 603 0 
L 603 3500 
z
M 603 4863 
L 1178 4863 
L 1178 4134 
L 603 4134 
L 603 4863 
z
" transform="scale(0.015625)"/>
       <path id="DejaVuSans-6d" d="M 3328 2828 
Q 3544 3216 3844 3400 
Q 4144 3584 4550 3584 
Q 5097 3584 5394 3201 
Q 5691 2819 5691 2113 
L 5691 0 
L 5113 0 
L 5113 2094 
Q 5113 2597 4934 2840 
Q 4756 3084 4391 3084 
Q 3944 3084 3684 2787 
Q 3425 2491 3425 1978 
L 3425 0 
L 2847 0 
L 2847 2094 
Q 2847 2600 2669 2842 
Q 2491 3084 2119 3084 
Q 1678 3084 1418 2786 
Q 1159 2488 1159 1978 
L 1159 0 
L 581 0 
L 581 3500 
L 1159 3500 
L 1159 2956 
Q 1356 3278 1631 3431 
Q 1906 3584 2284 3584 
Q 2666 3584 2933 3390 
Q 3200 3197 3328 2828 
z
" transform="scale(0.015625)"/>
       <path id="DejaVuSans-65" d="M 3597 1894 
L 3597 1613 
L 953 1613 
Q 991 1019 1311 708 
Q 1631 397 2203 397 
Q 2534 397 2845 478 
Q 3156 559 3463 722 
L 3463 178 
Q 3153 47 2828 -22 
Q 2503 -91 2169 -91 
Q 1331 -91 842 396 
Q 353 884 353 1716 
Q 353 2575 817 3079 
Q 1281 3584 2069 3584 
Q 2775 3584 3186 3129 
Q 3597 2675 3597 1894 
z
M 3022 2063 
Q 3016 2534 2758 2815 
Q 2500 3097 2075 3097 
Q 1594 3097 1305 2825 
Q 1016 2553 972 2059 
L 3022 2063 
z
" transform="scale(0.015625)"/>
       <path id="DejaVuSans-20" transform="scale(0.015625)"/>
       <path id="DejaVuSans-5b" d="M 550 4863 
L 1875 4863 
L 1875 4416 
L 1125 4416 
L 1125 -397 
L 1875 -397 
L 1875 -844 
L 550 -844 
L 550 4863 
z
" transform="scale(0.015625)"/>
       <path id="DejaVuSans-6e" d="M 3513 2113 
L 3513 0 
L 2938 0 
L 2938 2094 
Q 2938 2591 2744 2837 
Q 2550 3084 2163 3084 
Q 1697 3084 1428 2787 
Q 1159 2491 1159 1978 
L 1159 0 
L 581 0 
L 581 3500 
L 1159 3500 
L 1159 2956 
Q 1366 3272 1645 3428 
Q 1925 3584 2291 3584 
Q 2894 3584 3203 3211 
Q 3513 2838 3513 2113 
z
" transform="scale(0.015625)"/>
       <path id="DejaVuSans-5d" d="M 1947 4863 
L 1947 -844 
L 622 -844 
L 622 -397 
L 1369 -397 
L 1369 4416 
L 622 4416 
L 622 4863 
L 1947 4863 
z
" transform="scale(0.015625)"/>
      </defs>
      <use xlink:href="#DejaVuSans-54"/>
      <use xlink:href="#DejaVuSans-69" x="57.958984"/>
      <use xlink:href="#DejaVuSans-6d" x="85.742188"/>
      <use xlink:href="#DejaVuSans-65" x="183.154297"/>
      <use xlink:href="#DejaVuSans-20" x="244.677734"/>
      <use xlink:href="#DejaVuSans-5b" x="276.464844"/>
      <use xlink:href="#DejaVuSans-6d" x="315.478516"/>
      <use xlink:href="#DejaVuSans-69" x="412.890625"/>
      <use xlink:href="#DejaVuSans-6e" x="440.673828"/>
      <use xlink:href="#DejaVuSans-5d" x="504.052734"/>
     </g>
    </g>
   </g>
   <g id="matplotlib.axis_2">
    <g id="ytick_1">
     <g id="line2d_7">
      <defs>
       <path id="m7907fad45e" d="M 0 0 
L -3.5 0 
" style="stroke: #000000; stroke-width: 0.8"/>
      </defs>
      <g>
       <use xlink:href="#m7907fad45e" x="85.605625" y="225.284816" style="stroke: #000000; stroke-width: 0.8"/>
      </g>
     </g>
     <g id="text_8">
      <!-- −1500 -->
      <g transform="translate(24.478125 231.363566) scale(0.16 -0.16)">
       <defs>
        <path id="DejaVuSans-2212" d="M 678 2272 
L 4684 2272 
L 4684 1741 
L 678 1741 
L 678 2272 
z
" transform="scale(0.015625)"/>
       </defs>
       <use xlink:href="#DejaVuSans-2212"/>
       <use xlink:href="#DejaVuSans-31" x="83.789062"/>
       <use xlink:href="#DejaVuSans-35" x="147.412109"/>
       <use xlink:href="#DejaVuSans-30" x="211.035156"/>
       <use xlink:href="#DejaVuSans-30" x="274.658203"/>
      </g>
     </g>
    </g>
    <g id="ytick_2">
     <g id="line2d_8">
      <g>
       <use xlink:href="#m7907fad45e" x="85.605625" y="190.378781" style="stroke: #000000; stroke-width: 0.8"/>
      </g>
     </g>
     <g id="text_9">
      <!-- −1000 -->
      <g transform="translate(24.478125 196.457531) scale(0.16 -0.16)">
       <use xlink:href="#DejaVuSans-2212"/>
       <use xlink:href="#DejaVuSans-31" x="83.789062"/>
       <use xlink:href="#DejaVuSans-30" x="147.412109"/>
       <use xlink:href="#DejaVuSans-30" x="211.035156"/>
       <use xlink:href="#DejaVuSans-30" x="274.658203"/>
      </g>
     </g>
    </g>
    <g id="ytick_3">
     <g id="line2d_9">
      <g>
       <use xlink:href="#m7907fad45e" x="85.605625" y="155.472746" style="stroke: #000000; stroke-width: 0.8"/>
      </g>
     </g>
     <g id="text_10">
      <!-- −500 -->
      <g transform="translate(34.658125 161.551496) scale(0.16 -0.16)">
       <use xlink:href="#DejaVuSans-2212"/>
       <use xlink:href="#DejaVuSans-35" x="83.789062"/>
       <use xlink:href="#DejaVuSans-30" x="147.412109"/>
       <use xlink:href="#DejaVuSans-30" x="211.035156"/>
      </g>
     </g>
    </g>
    <g id="ytick_4">
     <g id="line2d_10">
      <g>
       <use xlink:href="#m7907fad45e" x="85.605625" y="120.566711" style="stroke: #000000; stroke-width: 0.8"/>
      </g>
     </g>
     <g id="text_11">
      <!-- 0 -->
      <g transform="translate(68.425625 126.645461) scale(0.16 -0.16)">
       <use xlink:href="#DejaVuSans-30"/>
      </g>
     </g>
    </g>
    <g id="ytick_5">
     <g id="line2d_11">
      <g>
       <use xlink:href="#m7907fad45e" x="85.605625" y="85.660675" style="stroke: #000000; stroke-width: 0.8"/>
      </g>
     </g>
     <g id="text_12">
      <!-- 500 -->
      <g transform="translate(48.065625 91.739425) scale(0.16 -0.16)">
       <use xlink:href="#DejaVuSans-35"/>
       <use xlink:href="#DejaVuSans-30" x="63.623047"/>
       <use xlink:href="#DejaVuSans-30" x="127.246094"/>
      </g>
     </g>
    </g>
    <g id="ytick_6">
     <g id="line2d_12">
      <g>
       <use xlink:href="#m7907fad45e" x="85.605625" y="50.75464" style="stroke: #000000; stroke-width: 0.8"/>
      </g>
     </g>
     <g id="text_13">
      <!-- 1000 -->
      <g transform="translate(37.885625 56.83339) scale(0.16 -0.16)">
       <use xlink:href="#DejaVuSans-31"/>
       <use xlink:href="#DejaVuSans-30" x="63.623047"/>
       <use xlink:href="#DejaVuSans-30" x="127.246094"/>
       <use xlink:href="#DejaVuSans-30" x="190.869141"/>
      </g>
     </g>
    </g>
    <g id="ytick_7">
     <g id="line2d_13">
      <g>
       <use xlink:href="#m7907fad45e" x="85.605625" y="15.848605" style="stroke: #000000; stroke-width: 0.8"/>
      </g>
     </g>
     <g id="text_14">
      <!-- 1500 -->
      <g transform="translate(37.885625 21.927355) scale(0.16 -0.16)">
       <use xlink:href="#DejaVuSans-31"/>
       <use xlink:href="#DejaVuSans-35" x="63.623047"/>
       <use xlink:href="#DejaVuSans-30" x="127.246094"/>
       <use xlink:href="#DejaVuSans-30" x="190.869141"/>
      </g>
     </g>
    </g>
    <g id="text_15">
     <!-- RW Speed (RPM)  -->
     <g transform="translate(18.398438 169.284062) rotate(-90) scale(0.1 -0.1)">
      <defs>
       <path id="DejaVuSans-52" d="M 2841 2188 
Q 3044 2119 3236 1894 
Q 3428 1669 3622 1275 
L 4263 0 
L 3584 0 
L 2988 1197 
Q 2756 1666 2539 1819 
Q 2322 1972 1947 1972 
L 1259 1972 
L 1259 0 
L 628 0 
L 628 4666 
L 2053 4666 
Q 2853 4666 3247 4331 
Q 3641 3997 3641 3322 
Q 3641 2881 3436 2590 
Q 3231 2300 2841 2188 
z
M 1259 4147 
L 1259 2491 
L 2053 2491 
Q 2509 2491 2742 2702 
Q 2975 2913 2975 3322 
Q 2975 3731 2742 3939 
Q 2509 4147 2053 4147 
L 1259 4147 
z
" transform="scale(0.015625)"/>
       <path id="DejaVuSans-57" d="M 213 4666 
L 850 4666 
L 1831 722 
L 2809 4666 
L 3519 4666 
L 4500 722 
L 5478 4666 
L 6119 4666 
L 4947 0 
L 4153 0 
L 3169 4050 
L 2175 0 
L 1381 0 
L 213 4666 
z
" transform="scale(0.015625)"/>
       <path id="DejaVuSans-53" d="M 3425 4513 
L 3425 3897 
Q 3066 4069 2747 4153 
Q 2428 4238 2131 4238 
Q 1616 4238 1336 4038 
Q 1056 3838 1056 3469 
Q 1056 3159 1242 3001 
Q 1428 2844 1947 2747 
L 2328 2669 
Q 3034 2534 3370 2195 
Q 3706 1856 3706 1288 
Q 3706 609 3251 259 
Q 2797 -91 1919 -91 
Q 1588 -91 1214 -16 
Q 841 59 441 206 
L 441 856 
Q 825 641 1194 531 
Q 1563 422 1919 422 
Q 2459 422 2753 634 
Q 3047 847 3047 1241 
Q 3047 1584 2836 1778 
Q 2625 1972 2144 2069 
L 1759 2144 
Q 1053 2284 737 2584 
Q 422 2884 422 3419 
Q 422 4038 858 4394 
Q 1294 4750 2059 4750 
Q 2388 4750 2728 4690 
Q 3069 4631 3425 4513 
z
" transform="scale(0.015625)"/>
       <path id="DejaVuSans-70" d="M 1159 525 
L 1159 -1331 
L 581 -1331 
L 581 3500 
L 1159 3500 
L 1159 2969 
Q 1341 3281 1617 3432 
Q 1894 3584 2278 3584 
Q 2916 3584 3314 3078 
Q 3713 2572 3713 1747 
Q 3713 922 3314 415 
Q 2916 -91 2278 -91 
Q 1894 -91 1617 61 
Q 1341 213 1159 525 
z
M 3116 1747 
Q 3116 2381 2855 2742 
Q 2594 3103 2138 3103 
Q 1681 3103 1420 2742 
Q 1159 2381 1159 1747 
Q 1159 1113 1420 752 
Q 1681 391 2138 391 
Q 2594 391 2855 752 
Q 3116 1113 3116 1747 
z
" transform="scale(0.015625)"/>
       <path id="DejaVuSans-64" d="M 2906 2969 
L 2906 4863 
L 3481 4863 
L 3481 0 
L 2906 0 
L 2906 525 
Q 2725 213 2448 61 
Q 2172 -91 1784 -91 
Q 1150 -91 751 415 
Q 353 922 353 1747 
Q 353 2572 751 3078 
Q 1150 3584 1784 3584 
Q 2172 3584 2448 3432 
Q 2725 3281 2906 2969 
z
M 947 1747 
Q 947 1113 1208 752 
Q 1469 391 1925 391 
Q 2381 391 2643 752 
Q 2906 1113 2906 1747 
Q 2906 2381 2643 2742 
Q 2381 3103 1925 3103 
Q 1469 3103 1208 2742 
Q 947 2381 947 1747 
z
" transform="scale(0.015625)"/>
       <path id="DejaVuSans-28" d="M 1984 4856 
Q 1566 4138 1362 3434 
Q 1159 2731 1159 2009 
Q 1159 1288 1364 580 
Q 1569 -128 1984 -844 
L 1484 -844 
Q 1016 -109 783 600 
Q 550 1309 550 2009 
Q 550 2706 781 3412 
Q 1013 4119 1484 4856 
L 1984 4856 
z
" transform="scale(0.015625)"/>
       <path id="DejaVuSans-50" d="M 1259 4147 
L 1259 2394 
L 2053 2394 
Q 2494 2394 2734 2622 
Q 2975 2850 2975 3272 
Q 2975 3691 2734 3919 
Q 2494 4147 2053 4147 
L 1259 4147 
z
M 628 4666 
L 2053 4666 
Q 2838 4666 3239 4311 
Q 3641 3956 3641 3272 
Q 3641 2581 3239 2228 
Q 2838 1875 2053 1875 
L 1259 1875 
L 1259 0 
L 628 0 
L 628 4666 
z
" transform="scale(0.015625)"/>
       <path id="DejaVuSans-4d" d="M 628 4666 
L 1569 4666 
L 2759 1491 
L 3956 4666 
L 4897 4666 
L 4897 0 
L 4281 0 
L 4281 4097 
L 3078 897 
L 2444 897 
L 1241 4097 
L 1241 0 
L 628 0 
L 628 4666 
z
" transform="scale(0.015625)"/>
       <path id="DejaVuSans-29" d="M 513 4856 
L 1013 4856 
Q 1481 4119 1714 3412 
Q 1947 2706 1947 2009 
Q 1947 1309 1714 600 
Q 1481 -109 1013 -844 
L 513 -844 
Q 928 -128 1133 580 
Q 1338 1288 1338 2009 
Q 1338 2731 1133 3434 
Q 928 4138 513 4856 
z
" transform="scale(0.015625)"/>
      </defs>
      <use xlink:href="#DejaVuSans-52"/>
      <use xlink:href="#DejaVuSans-57" x="65.482422"/>
      <use xlink:href="#DejaVuSans-20" x="164.359375"/>
      <use xlink:href="#DejaVuSans-53" x="196.146484"/>
      <use xlink:href="#DejaVuSans-70" x="259.623047"/>
      <use xlink:href="#DejaVuSans-65" x="323.099609"/>
      <use xlink:href="#DejaVuSans-65" x="384.623047"/>
      <use xlink:href="#DejaVuSans-64" x="446.146484"/>
      <use xlink:href="#DejaVuSans-20" x="509.623047"/>
      <use xlink:href="#DejaVuSans-28" x="541.410156"/>
      <use xlink:href="#DejaVuSans-52" x="580.423828"/>
      <use xlink:href="#DejaVuSans-50" x="649.90625"/>
      <use xlink:href="#DejaVuSans-4d" x="710.208984"/>
      <use xlink:href="#DejaVuSans-29" x="796.488281"/>
      <use xlink:href="#DejaVuSans-20" x="835.501953"/>
     </g>
    </g>
   </g>
   <g id="line2d_14">
    <path d="M 99.458128 120.566711 
L 99.650523 125.250578 
L 99.842919 126.635442 
L 100.035315 125.401626 
L 100.804899 117.461014 
L 101.18969 116.246287 
L 101.382086 116.179332 
L 101.766878 116.612332 
L 102.921253 118.52822 
L 103.498441 118.986624 
L 104.075628 119.156291 
L 105.037608 119.131204 
L 108.308338 118.853928 
L 113.695422 118.82139 
L 144.286365 118.821171 
L 145.055949 153.10656 
L 145.248344 154.230933 
L 145.44074 153.457839 
L 145.825532 148.691076 
L 146.979907 130.947789 
L 147.557095 125.271366 
L 148.134282 121.811898 
L 148.71147 119.903103 
L 149.288658 118.947454 
L 149.865845 118.521881 
L 150.635429 118.343117 
L 152.174596 118.356174 
L 153.906159 118.397303 
L 154.483346 88.187348 
L 154.675742 84.474297 
L 154.868138 83.455971 
L 155.060534 84.293886 
L 155.445326 89.086679 
L 156.599701 106.587973 
L 157.176888 112.151338 
L 157.754076 115.535861 
L 158.331264 117.400993 
L 158.908451 118.333818 
L 159.485639 118.748709 
L 160.255222 118.922414 
L 161.794389 118.908309 
L 166.41189 118.856888 
L 225.09263 118.856842 
L 225.477422 90.370271 
L 226.247005 25.348109 
L 226.439401 21.265312 
L 226.631797 24.499333 
L 227.208985 48.733449 
L 227.786172 71.317319 
L 228.36336 86.396116 
L 228.940548 95.585839 
L 229.517735 100.975169 
L 230.094923 104.061698 
L 230.67211 105.796373 
L 231.249298 106.755216 
L 231.826486 107.2771 
L 232.596069 107.617424 
L 233.750444 107.799907 
L 234.520028 107.83939 
L 234.712424 109.520113 
L 235.674403 192.915797 
L 235.866799 200.252948 
L 236.059195 198.988348 
L 236.443986 185.560607 
L 237.21357 155.807863 
L 237.790758 141.577155 
L 237.983153 138.262371 
L 238.945133 73.195717 
L 239.137529 73.685033 
L 239.52232 82.821024 
L 240.676696 116.913041 
L 241.253883 127.180944 
L 241.831071 133.399641 
L 242.408258 136.920061 
L 242.985446 138.802682 
L 243.562634 139.755805 
L 244.139821 140.210984 
L 244.909405 140.450401 
L 246.256176 140.53089 
L 265.495763 140.523736 
L 305.898895 140.522049 
L 306.860875 68.193726 
L 307.05327 67.051585 
L 307.245666 69.643832 
L 308.977229 108.531535 
L 309.554417 114.632186 
L 310.131604 118.251913 
L 310.708792 120.322299 
L 311.28598 121.474819 
L 311.863167 122.103811 
L 312.632751 122.516244 
L 313.59473 122.722248 
L 314.364313 139.999874 
L 314.556709 140.316587 
L 314.749105 139.717446 
L 315.133897 137.10395 
L 316.095876 129.690731 
L 316.673064 126.69208 
L 317.250252 124.816794 
L 317.827439 123.737412 
L 318.404627 123.156029 
L 318.981814 122.861417 
L 319.943794 122.674452 
L 321.867752 122.624863 
L 376.508179 122.627933 
L 376.508179 122.627933 
" clip-path="url(#p5ff9750120)" style="fill: none; stroke: #225e7c; stroke-width: 1.5; stroke-linecap: square"/>
   </g>
   <g id="line2d_15">
    <path d="M 99.458128 120.566711 
L 99.842919 132.494156 
L 100.035315 133.872168 
L 100.227711 133.443138 
L 101.382086 126.497729 
L 101.959274 124.853389 
L 102.536461 123.950832 
L 103.306045 123.282183 
L 104.268024 122.828965 
L 105.4224 122.547902 
L 107.153962 122.378076 
L 110.809484 122.315482 
L 144.286365 122.31225 
L 144.478761 112.258286 
L 144.863553 81.632434 
L 145.055949 74.480986 
L 145.248344 72.0731 
L 145.44074 72.831858 
L 145.825532 79.507546 
L 146.979907 104.800836 
L 147.557095 112.785288 
L 148.134282 117.64614 
L 148.71147 120.353044 
L 149.288658 121.742233 
L 149.865845 122.394308 
L 150.443033 122.666409 
L 151.405012 122.775469 
L 153.906159 122.73549 
L 154.098554 132.788673 
L 154.483346 163.461291 
L 154.675742 170.65966 
L 154.868138 173.091334 
L 155.060534 172.335744 
L 155.445326 165.632002 
L 156.599701 140.257419 
L 157.176888 132.263665 
L 157.754076 127.399165 
L 158.331264 124.687923 
L 158.908451 123.292547 
L 159.485639 122.633379 
L 160.062826 122.354482 
L 161.024806 122.23658 
L 166.219494 122.276572 
L 225.09263 122.276544 
L 225.477422 93.788885 
L 226.247005 28.622281 
L 226.439401 25.370885 
L 226.631797 30.302709 
L 227.401381 71.769415 
L 227.978568 97.161815 
L 228.555756 113.25797 
L 229.132943 122.598135 
L 229.710131 127.739421 
L 230.287319 130.463456 
L 230.864506 131.864395 
L 231.441694 132.568399 
L 232.018881 132.916271 
L 232.788465 133.121386 
L 234.327632 133.233773 
L 234.520028 133.238405 
L 234.712424 134.917577 
L 235.866799 230.548776 
L 236.059195 230.571562 
L 236.443986 213.592187 
L 237.405966 162.425314 
L 237.983153 143.478522 
L 238.367945 154.133812 
L 238.752737 163.42267 
L 238.945133 165.381916 
L 239.137529 165.694658 
L 239.329924 164.65913 
L 239.714716 159.92305 
L 240.869091 142.633098 
L 241.446279 137.262204 
L 242.023467 134.085518 
L 242.600654 132.379483 
L 243.177842 131.541629 
L 243.755029 131.17052 
L 244.524613 131.009177 
L 246.256176 131.007431 
L 252.797635 131.036172 
L 305.898895 131.037477 
L 306.476083 88.249602 
L 306.668479 85.411133 
L 306.860875 87.241831 
L 308.01525 107.973545 
L 308.400042 111.299796 
L 308.977229 114.101574 
L 309.554417 115.558455 
L 310.131604 116.412504 
L 310.901188 117.126167 
L 311.863167 117.669514 
L 313.017542 118.020996 
L 313.59473 118.118102 
L 313.787126 117.775428 
L 314.171918 116.586408 
L 314.556709 115.978202 
L 314.941501 115.889924 
L 315.326293 116.125882 
L 317.057856 117.662601 
L 317.827439 117.954138 
L 318.981814 118.086658 
L 322.44494 118.066431 
L 348.033591 118.061685 
L 376.508179 118.061879 
L 376.508179 118.061879 
" clip-path="url(#p5ff9750120)" style="fill: none; stroke: #3e915b; stroke-width: 1.5; stroke-linecap: square"/>
   </g>
   <g id="line2d_16">
    <path d="M 99.458128 120.566711 
L 100.227711 175.267462 
L 100.420107 176.425667 
L 100.612503 173.966592 
L 101.18969 158.828785 
L 101.959274 140.192878 
L 102.536461 131.265462 
L 103.113649 125.806551 
L 103.690837 122.641513 
L 104.268024 120.872175 
L 104.845212 119.909229 
L 105.4224 119.39534 
L 106.191983 119.066959 
L 107.346358 118.892899 
L 109.847505 118.82774 
L 131.588238 118.821171 
L 144.286365 118.821171 
L 145.055949 81.708102 
L 145.248344 80.565771 
L 145.44074 81.473911 
L 145.825532 86.657814 
L 146.979907 105.358188 
L 147.557095 111.258648 
L 148.134282 114.843723 
L 148.71147 116.8219 
L 149.288658 117.816018 
L 149.865845 118.263197 
L 150.635429 118.457089 
L 151.9822 118.461219 
L 153.906159 118.416503 
L 154.675742 155.864805 
L 154.868138 157.075154 
L 155.060534 156.186315 
L 155.445326 150.965085 
L 156.599701 132.118566 
L 157.176888 126.174269 
L 157.754076 122.550337 
L 158.331264 120.537536 
L 158.908451 119.514722 
L 159.485639 119.045501 
L 160.062826 118.859478 
L 161.217202 118.801934 
L 169.68262 118.856985 
L 225.09263 118.856968 
L 225.477422 126.025729 
L 225.862214 128.290482 
L 226.439401 130.492067 
L 226.631797 130.166953 
L 227.016589 127.413928 
L 228.36336 114.721628 
L 228.940548 111.608317 
L 229.517735 109.752353 
L 230.094923 108.72758 
L 230.67211 108.202223 
L 231.249298 107.955572 
L 232.211277 107.827911 
L 234.520028 107.846079 
L 234.712424 107.203783 
L 234.90482 102.45088 
L 235.097215 101.115439 
L 235.289611 102.360559 
L 235.866799 109.422684 
L 237.983153 121.702888 
L 238.945133 190.427652 
L 239.137529 193.00579 
L 239.329924 192.295275 
L 239.714716 185.492172 
L 240.869091 159.435866 
L 241.446279 151.206824 
L 242.023467 146.181534 
L 242.600654 143.346252 
L 243.177842 141.845806 
L 243.755029 141.097678 
L 244.332217 140.747439 
L 245.101801 140.568821 
L 246.640968 140.513717 
L 305.898895 140.523865 
L 306.668479 84.218346 
L 306.860875 83.698598 
L 307.245666 92.118589 
L 307.822854 105.682267 
L 308.400042 113.435035 
L 308.977229 117.288128 
L 309.554417 119.294716 
L 310.131604 120.470922 
L 310.901188 121.435858 
L 311.670771 122.026809 
L 312.632751 122.452191 
L 313.59473 122.668266 
L 314.364313 105.300689 
L 314.556709 104.947863 
L 314.749105 105.522735 
L 315.133897 108.11661 
L 316.095876 115.545603 
L 316.673064 118.55457 
L 317.250252 120.43499 
L 317.827439 121.516462 
L 318.404627 122.098591 
L 318.981814 122.393446 
L 319.943794 122.5805 
L 321.867752 122.6301 
L 376.508179 122.62703 
L 376.508179 122.62703 
" clip-path="url(#p5ff9750120)" style="fill: none; stroke: #8eac56; stroke-width: 1.5; stroke-linecap: square"/>
   </g>
   <g id="line2d_17">
    <path d="M 99.458128 120.566711 
L 100.035315 166.428373 
L 100.227711 171.893065 
L 100.420107 171.904219 
L 100.804899 164.522069 
L 101.766878 142.43577 
L 102.344066 134.262393 
L 102.921253 129.261868 
L 103.498441 126.305513 
L 104.075628 124.588615 
L 104.652816 123.602557 
L 105.230004 123.040606 
L 105.999587 122.650523 
L 106.961566 122.441431 
L 108.693129 122.33516 
L 115.042193 122.312311 
L 144.286365 122.31225 
L 144.478761 132.366211 
L 144.863553 162.153726 
L 145.055949 168.971384 
L 145.248344 171.361312 
L 145.44074 170.737599 
L 145.825532 164.479051 
L 146.979907 140.142848 
L 147.557095 132.382433 
L 148.134282 127.647188 
L 148.71147 125.009666 
L 149.288658 123.658946 
L 149.865845 123.028478 
L 150.443033 122.768694 
L 151.405012 122.669736 
L 153.906159 122.716023 
L 154.098554 112.662892 
L 154.483346 83.116321 
L 154.675742 76.518446 
L 154.868138 74.278796 
L 155.060534 74.983462 
L 155.445326 81.258766 
L 156.599701 105.288125 
L 157.176888 112.900946 
L 157.754076 117.526038 
L 158.331264 120.089611 
L 158.908451 121.394998 
L 159.485639 121.999835 
L 160.062826 122.24616 
L 161.024806 122.336281 
L 217.012004 122.276271 
L 225.09263 122.276271 
L 226.05461 175.815707 
L 226.247005 177.497099 
L 226.439401 177.171949 
L 226.631797 175.149032 
L 227.208985 163.720219 
L 227.978568 148.449044 
L 228.555756 141.045304 
L 229.132943 136.777004 
L 229.517735 135.146945 
L 229.902527 134.155934 
L 230.287319 133.587491 
L 230.864506 133.199838 
L 231.63409 133.087536 
L 234.520028 133.232519 
L 234.712424 131.561078 
L 235.289611 85.91681 
L 235.674403 71.494573 
L 235.866799 68.498795 
L 236.059195 68.369396 
L 236.251591 70.486383 
L 236.828778 83.194683 
L 237.598362 99.962707 
L 237.983153 105.858675 
L 238.560341 80.796294 
L 238.752737 78.528377 
L 238.945133 79.269345 
L 239.329924 86.040032 
L 240.4843 112.770637 
L 241.061487 121.026791 
L 241.638675 125.947722 
L 242.215863 128.654721 
L 242.79305 130.03916 
L 243.370238 130.691704 
L 243.947425 130.967515 
L 244.909405 131.083109 
L 250.488885 131.037649 
L 305.898895 131.03633 
L 306.860875 55.520752 
L 307.05327 54.084672 
L 307.245666 57.372913 
L 308.784833 99.529572 
L 309.362021 107.38639 
L 309.939208 112.094984 
L 310.516396 114.832983 
L 311.093584 116.386342 
L 311.670771 117.249355 
L 312.247959 117.720913 
L 313.017542 118.031116 
L 313.59473 118.142671 
L 313.787126 118.515153 
L 314.171918 119.630433 
L 314.556709 120.156506 
L 314.941501 120.20673 
L 315.326293 119.964446 
L 317.057856 118.45818 
L 317.827439 118.169994 
L 318.981814 118.038464 
L 322.637336 118.05966 
L 352.651091 118.063507 
L 376.508179 118.063343 
L 376.508179 118.063343 
" clip-path="url(#p5ff9750120)" style="fill: none; stroke: #c4a46f; stroke-width: 1.5; stroke-linecap: square"/>
   </g>
   <g id="patch_3">
    <path d="M 85.605625 241.036875 
L 85.605625 10.8 
" style="fill: none; stroke: #000000; stroke-width: 0.8; stroke-linejoin: miter; stroke-linecap: square"/>
   </g>
   <g id="patch_4">
    <path d="M 390.360682 241.036875 
L 390.360682 10.8 
" style="fill: none; stroke: #000000; stroke-width: 0.8; stroke-linejoin: miter; stroke-linecap: square"/>
   </g>
   <g id="patch_5">
    <path d="M 85.605625 241.036875 
L 390.360682 241.036875 
" style="fill: none; stroke: #000000; stroke-width: 0.8; stroke-linejoin: miter; stroke-linecap: square"/>
   </g>
   <g id="patch_6">
    <path d="M 85.605625 10.8 
L 390.360682 10.8 
" style="fill: none; stroke: #000000; stroke-width: 0.8; stroke-linejoin: miter; stroke-linecap: square"/>
   </g>
   <g id="legend_1">
    <g id="patch_7">
     <path d="M 344.010682 236.536875 
L 384.060682 236.536875 
Q 385.860682 236.536875 385.860682 234.736875 
L 385.860682 182.795625 
Q 385.860682 180.995625 384.060682 180.995625 
L 344.010682 180.995625 
Q 342.210682 180.995625 342.210682 182.795625 
L 342.210682 234.736875 
Q 342.210682 236.536875 344.010682 236.536875 
z
" style="fill: #ffffff; opacity: 0.8; stroke: #cccccc; stroke-linejoin: miter"/>
    </g>
    <g id="line2d_18">
     <path d="M 345.810682 188.284219 
L 354.810682 188.284219 
L 363.810682 188.284219 
" style="fill: none; stroke: #225e7c; stroke-width: 1.5; stroke-linecap: square"/>
    </g>
    <g id="text_16">
     <!-- $\Omega_{1}$ -->
     <g transform="translate(371.010682 191.434219) scale(0.09 -0.09)">
      <defs>
       <path id="DejaVuSans-3a9" d="M 4647 556 
L 4647 0 
L 2772 0 
L 2772 556 
Q 3325 859 3634 1378 
Q 3944 1897 3944 2528 
Q 3944 3278 3531 3731 
Q 3119 4184 2444 4184 
Q 1769 4184 1355 3729 
Q 941 3275 941 2528 
Q 941 1897 1250 1378 
Q 1563 859 2119 556 
L 2119 0 
L 244 0 
L 244 556 
L 1241 556 
Q 747 991 519 1456 
Q 294 1922 294 2497 
Q 294 3491 894 4106 
Q 1491 4722 2444 4722 
Q 3391 4722 3994 4106 
Q 4594 3494 4594 2528 
Q 4594 1922 4372 1459 
Q 4150 997 3647 556 
L 4647 556 
z
" transform="scale(0.015625)"/>
      </defs>
      <use xlink:href="#DejaVuSans-3a9" transform="translate(0 0.21875)"/>
      <use xlink:href="#DejaVuSans-31" transform="translate(77.373047 -16.1875) scale(0.7)"/>
     </g>
    </g>
    <g id="line2d_19">
     <path d="M 345.810682 201.494531 
L 354.810682 201.494531 
L 363.810682 201.494531 
" style="fill: none; stroke: #3e915b; stroke-width: 1.5; stroke-linecap: square"/>
    </g>
    <g id="text_17">
     <!-- $\Omega_{2}$ -->
     <g transform="translate(371.010682 204.644531) scale(0.09 -0.09)">
      <use xlink:href="#DejaVuSans-3a9" transform="translate(0 0.21875)"/>
      <use xlink:href="#DejaVuSans-32" transform="translate(77.373047 -16.1875) scale(0.7)"/>
     </g>
    </g>
    <g id="line2d_20">
     <path d="M 345.810682 214.704844 
L 354.810682 214.704844 
L 363.810682 214.704844 
" style="fill: none; stroke: #8eac56; stroke-width: 1.5; stroke-linecap: square"/>
    </g>
    <g id="text_18">
     <!-- $\Omega_{3}$ -->
     <g transform="translate(371.010682 217.854844) scale(0.09 -0.09)">
      <defs>
       <path id="DejaVuSans-33" d="M 2597 2516 
Q 3050 2419 3304 2112 
Q 3559 1806 3559 1356 
Q 3559 666 3084 287 
Q 2609 -91 1734 -91 
Q 1441 -91 1130 -33 
Q 819 25 488 141 
L 488 750 
Q 750 597 1062 519 
Q 1375 441 1716 441 
Q 2309 441 2620 675 
Q 2931 909 2931 1356 
Q 2931 1769 2642 2001 
Q 2353 2234 1838 2234 
L 1294 2234 
L 1294 2753 
L 1863 2753 
Q 2328 2753 2575 2939 
Q 2822 3125 2822 3475 
Q 2822 3834 2567 4026 
Q 2313 4219 1838 4219 
Q 1578 4219 1281 4162 
Q 984 4106 628 3988 
L 628 4550 
Q 988 4650 1302 4700 
Q 1616 4750 1894 4750 
Q 2613 4750 3031 4423 
Q 3450 4097 3450 3541 
Q 3450 3153 3228 2886 
Q 3006 2619 2597 2516 
z
" transform="scale(0.015625)"/>
      </defs>
      <use xlink:href="#DejaVuSans-3a9" transform="translate(0 0.21875)"/>
      <use xlink:href="#DejaVuSans-33" transform="translate(77.373047 -16.1875) scale(0.7)"/>
     </g>
    </g>
    <g id="line2d_21">
     <path d="M 345.810682 227.915156 
L 354.810682 227.915156 
L 363.810682 227.915156 
" style="fill: none; stroke: #c4a46f; stroke-width: 1.5; stroke-linecap: square"/>
    </g>
    <g id="text_19">
     <!-- $\Omega_{4}$ -->
     <g transform="translate(371.010682 231.065156) scale(0.09 -0.09)">
      <defs>
       <path id="DejaVuSans-34" d="M 2419 4116 
L 825 1625 
L 2419 1625 
L 2419 4116 
z
M 2253 4666 
L 3047 4666 
L 3047 1625 
L 3713 1625 
L 3713 1100 
L 3047 1100 
L 3047 0 
L 2419 0 
L 2419 1100 
L 313 1100 
L 313 1709 
L 2253 4666 
z
" transform="scale(0.015625)"/>
      </defs>
      <use xlink:href="#DejaVuSans-3a9" transform="translate(0 0.21875)"/>
      <use xlink:href="#DejaVuSans-34" transform="translate(77.373047 -16.1875) scale(0.7)"/>
     </g>
    </g>
   </g>
  </g>
 </g>
 <defs>
  <clipPath id="p5ff9750120">
   <rect x="85.605625" y="10.8" width="304.755057" height="230.236875"/>
  </clipPath>
 </defs>
</svg>
