<?xml version="1.0" encoding="utf-8" standalone="no"?>
<!DOCTYPE svg PUBLIC "-//W3C//DTD SVG 1.1//EN"
  "http://www.w3.org/Graphics/SVG/1.1/DTD/svg11.dtd">
<svg xmlns:xlink="http://www.w3.org/1999/xlink" width="414pt" height="288pt" viewBox="0 0 414 288" xmlns="http://www.w3.org/2000/svg" version="1.1">
 <metadata>
  <rdf:RDF xmlns:dc="http://purl.org/dc/elements/1.1/" xmlns:cc="http://creativecommons.org/ns#" xmlns:rdf="http://www.w3.org/1999/02/22-rdf-syntax-ns#">
   <cc:Work>
    <dc:type rdf:resource="http://purl.org/dc/dcmitype/StillImage"/>
    <dc:date>2023-09-07T00:38:24.677341</dc:date>
    <dc:format>image/svg+xml</dc:format>
    <dc:creator>
     <cc:Agent>
      <dc:title>Matplotlib v3.7.2, https://matplotlib.org/</dc:title>
     </cc:Agent>
    </dc:creator>
   </cc:Work>
  </rdf:RDF>
 </metadata>
 <defs>
  <style type="text/css">*{stroke-linejoin: round; stroke-linecap: butt}</style>
 </defs>
 <g id="figure_1">
  <g id="patch_1">
   <path d="M 0 288 
L 414 288 
L 414 0 
L 0 0 
L 0 288 
z
" style="fill: none"/>
  </g>
  <g id="axes_1">
   <g id="patch_2">
    <path d="M 80.510625 241.036875 
L 390.360682 241.036875 
L 390.360682 10.8 
L 80.510625 10.8 
L 80.510625 241.036875 
z
" style="fill: none"/>
   </g>
   <g id="matplotlib.axis_1">
    <g id="xtick_1">
     <g id="line2d_1">
      <path d="M 94.594718 241.036875 
L 94.594718 10.8 
" clip-path="url(#pb0f50fcd1b)" style="fill: none; stroke: #b0b0b0; stroke-width: 0.8; stroke-linecap: square"/>
     </g>
     <g id="line2d_2">
      <defs>
       <path id="ma5b587e25e" d="M 0 0 
L 0 3.5 
" style="stroke: #000000; stroke-width: 0.8"/>
      </defs>
      <g>
       <use xlink:href="#ma5b587e25e" x="94.594718" y="241.036875" style="stroke: #000000; stroke-width: 0.8"/>
      </g>
     </g>
     <g id="text_1">
      <!-- 0 -->
      <g transform="translate(89.504718 260.194375) scale(0.16 -0.16)">
       <defs>
        <path id="DejaVuSans-30" d="M 2034 4250 
Q 1547 4250 1301 3770 
Q 1056 3291 1056 2328 
Q 1056 1369 1301 889 
Q 1547 409 2034 409 
Q 2525 409 2770 889 
Q 3016 1369 3016 2328 
Q 3016 3291 2770 3770 
Q 2525 4250 2034 4250 
z
M 2034 4750 
Q 2819 4750 3233 4129 
Q 3647 3509 3647 2328 
Q 3647 1150 3233 529 
Q 2819 -91 2034 -91 
Q 1250 -91 836 529 
Q 422 1150 422 2328 
Q 422 3509 836 4129 
Q 1250 4750 2034 4750 
z
" transform="scale(0.015625)"/>
       </defs>
       <use xlink:href="#DejaVuSans-30"/>
      </g>
     </g>
    </g>
    <g id="xtick_2">
     <g id="line2d_3">
      <path d="M 153.278441 241.036875 
L 153.278441 10.8 
" clip-path="url(#pb0f50fcd1b)" style="fill: none; stroke: #b0b0b0; stroke-width: 0.8; stroke-linecap: square"/>
     </g>
     <g id="line2d_4">
      <g>
       <use xlink:href="#ma5b587e25e" x="153.278441" y="241.036875" style="stroke: #000000; stroke-width: 0.8"/>
      </g>
     </g>
     <g id="text_2">
      <!-- 25 -->
      <g transform="translate(143.098441 260.194375) scale(0.16 -0.16)">
       <defs>
        <path id="DejaVuSans-32" d="M 1228 531 
L 3431 531 
L 3431 0 
L 469 0 
L 469 531 
Q 828 903 1448 1529 
Q 2069 2156 2228 2338 
Q 2531 2678 2651 2914 
Q 2772 3150 2772 3378 
Q 2772 3750 2511 3984 
Q 2250 4219 1831 4219 
Q 1534 4219 1204 4116 
Q 875 4013 500 3803 
L 500 4441 
Q 881 4594 1212 4672 
Q 1544 4750 1819 4750 
Q 2544 4750 2975 4387 
Q 3406 4025 3406 3419 
Q 3406 3131 3298 2873 
Q 3191 2616 2906 2266 
Q 2828 2175 2409 1742 
Q 1991 1309 1228 531 
z
" transform="scale(0.015625)"/>
        <path id="DejaVuSans-35" d="M 691 4666 
L 3169 4666 
L 3169 4134 
L 1269 4134 
L 1269 2991 
Q 1406 3038 1543 3061 
Q 1681 3084 1819 3084 
Q 2600 3084 3056 2656 
Q 3513 2228 3513 1497 
Q 3513 744 3044 326 
Q 2575 -91 1722 -91 
Q 1428 -91 1123 -41 
Q 819 9 494 109 
L 494 744 
Q 775 591 1075 516 
Q 1375 441 1709 441 
Q 2250 441 2565 725 
Q 2881 1009 2881 1497 
Q 2881 1984 2565 2268 
Q 2250 2553 1709 2553 
Q 1456 2553 1204 2497 
Q 953 2441 691 2322 
L 691 4666 
z
" transform="scale(0.015625)"/>
       </defs>
       <use xlink:href="#DejaVuSans-32"/>
       <use xlink:href="#DejaVuSans-35" x="63.623047"/>
      </g>
     </g>
    </g>
    <g id="xtick_3">
     <g id="line2d_5">
      <path d="M 211.962164 241.036875 
L 211.962164 10.8 
" clip-path="url(#pb0f50fcd1b)" style="fill: none; stroke: #b0b0b0; stroke-width: 0.8; stroke-linecap: square"/>
     </g>
     <g id="line2d_6">
      <g>
       <use xlink:href="#ma5b587e25e" x="211.962164" y="241.036875" style="stroke: #000000; stroke-width: 0.8"/>
      </g>
     </g>
     <g id="text_3">
      <!-- 50 -->
      <g transform="translate(201.782164 260.194375) scale(0.16 -0.16)">
       <use xlink:href="#DejaVuSans-35"/>
       <use xlink:href="#DejaVuSans-30" x="63.623047"/>
      </g>
     </g>
    </g>
    <g id="xtick_4">
     <g id="line2d_7">
      <path d="M 270.645887 241.036875 
L 270.645887 10.8 
" clip-path="url(#pb0f50fcd1b)" style="fill: none; stroke: #b0b0b0; stroke-width: 0.8; stroke-linecap: square"/>
     </g>
     <g id="line2d_8">
      <g>
       <use xlink:href="#ma5b587e25e" x="270.645887" y="241.036875" style="stroke: #000000; stroke-width: 0.8"/>
      </g>
     </g>
     <g id="text_4">
      <!-- 75 -->
      <g transform="translate(260.465887 260.194375) scale(0.16 -0.16)">
       <defs>
        <path id="DejaVuSans-37" d="M 525 4666 
L 3525 4666 
L 3525 4397 
L 1831 0 
L 1172 0 
L 2766 4134 
L 525 4134 
L 525 4666 
z
" transform="scale(0.015625)"/>
       </defs>
       <use xlink:href="#DejaVuSans-37"/>
       <use xlink:href="#DejaVuSans-35" x="63.623047"/>
      </g>
     </g>
    </g>
    <g id="xtick_5">
     <g id="line2d_9">
      <path d="M 329.32961 241.036875 
L 329.32961 10.8 
" clip-path="url(#pb0f50fcd1b)" style="fill: none; stroke: #b0b0b0; stroke-width: 0.8; stroke-linecap: square"/>
     </g>
     <g id="line2d_10">
      <g>
       <use xlink:href="#ma5b587e25e" x="329.32961" y="241.036875" style="stroke: #000000; stroke-width: 0.8"/>
      </g>
     </g>
     <g id="text_5">
      <!-- 100 -->
      <g transform="translate(314.05961 260.194375) scale(0.16 -0.16)">
       <defs>
        <path id="DejaVuSans-31" d="M 794 531 
L 1825 531 
L 1825 4091 
L 703 3866 
L 703 4441 
L 1819 4666 
L 2450 4666 
L 2450 531 
L 3481 531 
L 3481 0 
L 794 0 
L 794 531 
z
" transform="scale(0.015625)"/>
       </defs>
       <use xlink:href="#DejaVuSans-31"/>
       <use xlink:href="#DejaVuSans-30" x="63.623047"/>
       <use xlink:href="#DejaVuSans-30" x="127.246094"/>
      </g>
     </g>
    </g>
    <g id="xtick_6">
     <g id="line2d_11">
      <path d="M 388.013333 241.036875 
L 388.013333 10.8 
" clip-path="url(#pb0f50fcd1b)" style="fill: none; stroke: #b0b0b0; stroke-width: 0.8; stroke-linecap: square"/>
     </g>
     <g id="line2d_12">
      <g>
       <use xlink:href="#ma5b587e25e" x="388.013333" y="241.036875" style="stroke: #000000; stroke-width: 0.8"/>
      </g>
     </g>
     <g id="text_6">
      <!-- 125 -->
      <g transform="translate(372.743333 260.194375) scale(0.16 -0.16)">
       <use xlink:href="#DejaVuSans-31"/>
       <use xlink:href="#DejaVuSans-32" x="63.623047"/>
       <use xlink:href="#DejaVuSans-35" x="127.246094"/>
      </g>
     </g>
    </g>
    <g id="text_7">
     <!-- Time [min] -->
     <g transform="translate(208.28331 275.120313) scale(0.1 -0.1)">
      <defs>
       <path id="DejaVuSans-54" d="M -19 4666 
L 3928 4666 
L 3928 4134 
L 2272 4134 
L 2272 0 
L 1638 0 
L 1638 4134 
L -19 4134 
L -19 4666 
z
" transform="scale(0.015625)"/>
       <path id="DejaVuSans-69" d="M 603 3500 
L 1178 3500 
L 1178 0 
L 603 0 
L 603 3500 
z
M 603 4863 
L 1178 4863 
L 1178 4134 
L 603 4134 
L 603 4863 
z
" transform="scale(0.015625)"/>
       <path id="DejaVuSans-6d" d="M 3328 2828 
Q 3544 3216 3844 3400 
Q 4144 3584 4550 3584 
Q 5097 3584 5394 3201 
Q 5691 2819 5691 2113 
L 5691 0 
L 5113 0 
L 5113 2094 
Q 5113 2597 4934 2840 
Q 4756 3084 4391 3084 
Q 3944 3084 3684 2787 
Q 3425 2491 3425 1978 
L 3425 0 
L 2847 0 
L 2847 2094 
Q 2847 2600 2669 2842 
Q 2491 3084 2119 3084 
Q 1678 3084 1418 2786 
Q 1159 2488 1159 1978 
L 1159 0 
L 581 0 
L 581 3500 
L 1159 3500 
L 1159 2956 
Q 1356 3278 1631 3431 
Q 1906 3584 2284 3584 
Q 2666 3584 2933 3390 
Q 3200 3197 3328 2828 
z
" transform="scale(0.015625)"/>
       <path id="DejaVuSans-65" d="M 3597 1894 
L 3597 1613 
L 953 1613 
Q 991 1019 1311 708 
Q 1631 397 2203 397 
Q 2534 397 2845 478 
Q 3156 559 3463 722 
L 3463 178 
Q 3153 47 2828 -22 
Q 2503 -91 2169 -91 
Q 1331 -91 842 396 
Q 353 884 353 1716 
Q 353 2575 817 3079 
Q 1281 3584 2069 3584 
Q 2775 3584 3186 3129 
Q 3597 2675 3597 1894 
z
M 3022 2063 
Q 3016 2534 2758 2815 
Q 2500 3097 2075 3097 
Q 1594 3097 1305 2825 
Q 1016 2553 972 2059 
L 3022 2063 
z
" transform="scale(0.015625)"/>
       <path id="DejaVuSans-20" transform="scale(0.015625)"/>
       <path id="DejaVuSans-5b" d="M 550 4863 
L 1875 4863 
L 1875 4416 
L 1125 4416 
L 1125 -397 
L 1875 -397 
L 1875 -844 
L 550 -844 
L 550 4863 
z
" transform="scale(0.015625)"/>
       <path id="DejaVuSans-6e" d="M 3513 2113 
L 3513 0 
L 2938 0 
L 2938 2094 
Q 2938 2591 2744 2837 
Q 2550 3084 2163 3084 
Q 1697 3084 1428 2787 
Q 1159 2491 1159 1978 
L 1159 0 
L 581 0 
L 581 3500 
L 1159 3500 
L 1159 2956 
Q 1366 3272 1645 3428 
Q 1925 3584 2291 3584 
Q 2894 3584 3203 3211 
Q 3513 2838 3513 2113 
z
" transform="scale(0.015625)"/>
       <path id="DejaVuSans-5d" d="M 1947 4863 
L 1947 -844 
L 622 -844 
L 622 -397 
L 1369 -397 
L 1369 4416 
L 622 4416 
L 622 4863 
L 1947 4863 
z
" transform="scale(0.015625)"/>
      </defs>
      <use xlink:href="#DejaVuSans-54"/>
      <use xlink:href="#DejaVuSans-69" x="57.958984"/>
      <use xlink:href="#DejaVuSans-6d" x="85.742188"/>
      <use xlink:href="#DejaVuSans-65" x="183.154297"/>
      <use xlink:href="#DejaVuSans-20" x="244.677734"/>
      <use xlink:href="#DejaVuSans-5b" x="276.464844"/>
      <use xlink:href="#DejaVuSans-6d" x="315.478516"/>
      <use xlink:href="#DejaVuSans-69" x="412.890625"/>
      <use xlink:href="#DejaVuSans-6e" x="440.673828"/>
      <use xlink:href="#DejaVuSans-5d" x="504.052734"/>
     </g>
    </g>
   </g>
   <g id="matplotlib.axis_2">
    <g id="ytick_1">
     <g id="line2d_13">
      <path d="M 80.510625 214.267497 
L 390.360682 214.267497 
" clip-path="url(#pb0f50fcd1b)" style="fill: none; stroke: #b0b0b0; stroke-width: 0.8; stroke-linecap: square"/>
     </g>
     <g id="line2d_14">
      <defs>
       <path id="ma893f1295b" d="M 0 0 
L -3.5 0 
" style="stroke: #000000; stroke-width: 0.8"/>
      </defs>
      <g>
       <use xlink:href="#ma893f1295b" x="80.510625" y="214.267497" style="stroke: #000000; stroke-width: 0.8"/>
      </g>
     </g>
     <g id="text_8">
      <!-- −0.04 -->
      <g transform="translate(24.478125 220.346247) scale(0.16 -0.16)">
       <defs>
        <path id="DejaVuSans-2212" d="M 678 2272 
L 4684 2272 
L 4684 1741 
L 678 1741 
L 678 2272 
z
" transform="scale(0.015625)"/>
        <path id="DejaVuSans-2e" d="M 684 794 
L 1344 794 
L 1344 0 
L 684 0 
L 684 794 
z
" transform="scale(0.015625)"/>
        <path id="DejaVuSans-34" d="M 2419 4116 
L 825 1625 
L 2419 1625 
L 2419 4116 
z
M 2253 4666 
L 3047 4666 
L 3047 1625 
L 3713 1625 
L 3713 1100 
L 3047 1100 
L 3047 0 
L 2419 0 
L 2419 1100 
L 313 1100 
L 313 1709 
L 2253 4666 
z
" transform="scale(0.015625)"/>
       </defs>
       <use xlink:href="#DejaVuSans-2212"/>
       <use xlink:href="#DejaVuSans-30" x="83.789062"/>
       <use xlink:href="#DejaVuSans-2e" x="147.412109"/>
       <use xlink:href="#DejaVuSans-30" x="179.199219"/>
       <use xlink:href="#DejaVuSans-34" x="242.822266"/>
      </g>
     </g>
    </g>
    <g id="ytick_2">
     <g id="line2d_15">
      <path d="M 80.510625 154.039633 
L 390.360682 154.039633 
" clip-path="url(#pb0f50fcd1b)" style="fill: none; stroke: #b0b0b0; stroke-width: 0.8; stroke-linecap: square"/>
     </g>
     <g id="line2d_16">
      <g>
       <use xlink:href="#ma893f1295b" x="80.510625" y="154.039633" style="stroke: #000000; stroke-width: 0.8"/>
      </g>
     </g>
     <g id="text_9">
      <!-- −0.02 -->
      <g transform="translate(24.478125 160.118383) scale(0.16 -0.16)">
       <use xlink:href="#DejaVuSans-2212"/>
       <use xlink:href="#DejaVuSans-30" x="83.789062"/>
       <use xlink:href="#DejaVuSans-2e" x="147.412109"/>
       <use xlink:href="#DejaVuSans-30" x="179.199219"/>
       <use xlink:href="#DejaVuSans-32" x="242.822266"/>
      </g>
     </g>
    </g>
    <g id="ytick_3">
     <g id="line2d_17">
      <path d="M 80.510625 93.811769 
L 390.360682 93.811769 
" clip-path="url(#pb0f50fcd1b)" style="fill: none; stroke: #b0b0b0; stroke-width: 0.8; stroke-linecap: square"/>
     </g>
     <g id="line2d_18">
      <g>
       <use xlink:href="#ma893f1295b" x="80.510625" y="93.811769" style="stroke: #000000; stroke-width: 0.8"/>
      </g>
     </g>
     <g id="text_10">
      <!-- 0.00 -->
      <g transform="translate(37.885625 99.890519) scale(0.16 -0.16)">
       <use xlink:href="#DejaVuSans-30"/>
       <use xlink:href="#DejaVuSans-2e" x="63.623047"/>
       <use xlink:href="#DejaVuSans-30" x="95.410156"/>
       <use xlink:href="#DejaVuSans-30" x="159.033203"/>
      </g>
     </g>
    </g>
    <g id="ytick_4">
     <g id="line2d_19">
      <path d="M 80.510625 33.583905 
L 390.360682 33.583905 
" clip-path="url(#pb0f50fcd1b)" style="fill: none; stroke: #b0b0b0; stroke-width: 0.8; stroke-linecap: square"/>
     </g>
     <g id="line2d_20">
      <g>
       <use xlink:href="#ma893f1295b" x="80.510625" y="33.583905" style="stroke: #000000; stroke-width: 0.8"/>
      </g>
     </g>
     <g id="text_11">
      <!-- 0.02 -->
      <g transform="translate(37.885625 39.662655) scale(0.16 -0.16)">
       <use xlink:href="#DejaVuSans-30"/>
       <use xlink:href="#DejaVuSans-2e" x="63.623047"/>
       <use xlink:href="#DejaVuSans-30" x="95.410156"/>
       <use xlink:href="#DejaVuSans-32" x="159.033203"/>
      </g>
     </g>
    </g>
    <g id="text_12">
     <!-- Torque Rod Dipoles [A-m2] -->
     <g transform="translate(18.398438 192.427031) rotate(-90) scale(0.1 -0.1)">
      <defs>
       <path id="DejaVuSans-6f" d="M 1959 3097 
Q 1497 3097 1228 2736 
Q 959 2375 959 1747 
Q 959 1119 1226 758 
Q 1494 397 1959 397 
Q 2419 397 2687 759 
Q 2956 1122 2956 1747 
Q 2956 2369 2687 2733 
Q 2419 3097 1959 3097 
z
M 1959 3584 
Q 2709 3584 3137 3096 
Q 3566 2609 3566 1747 
Q 3566 888 3137 398 
Q 2709 -91 1959 -91 
Q 1206 -91 779 398 
Q 353 888 353 1747 
Q 353 2609 779 3096 
Q 1206 3584 1959 3584 
z
" transform="scale(0.015625)"/>
       <path id="DejaVuSans-72" d="M 2631 2963 
Q 2534 3019 2420 3045 
Q 2306 3072 2169 3072 
Q 1681 3072 1420 2755 
Q 1159 2438 1159 1844 
L 1159 0 
L 581 0 
L 581 3500 
L 1159 3500 
L 1159 2956 
Q 1341 3275 1631 3429 
Q 1922 3584 2338 3584 
Q 2397 3584 2469 3576 
Q 2541 3569 2628 3553 
L 2631 2963 
z
" transform="scale(0.015625)"/>
       <path id="DejaVuSans-71" d="M 947 1747 
Q 947 1113 1208 752 
Q 1469 391 1925 391 
Q 2381 391 2643 752 
Q 2906 1113 2906 1747 
Q 2906 2381 2643 2742 
Q 2381 3103 1925 3103 
Q 1469 3103 1208 2742 
Q 947 2381 947 1747 
z
M 2906 525 
Q 2725 213 2448 61 
Q 2172 -91 1784 -91 
Q 1150 -91 751 415 
Q 353 922 353 1747 
Q 353 2572 751 3078 
Q 1150 3584 1784 3584 
Q 2172 3584 2448 3432 
Q 2725 3281 2906 2969 
L 2906 3500 
L 3481 3500 
L 3481 -1331 
L 2906 -1331 
L 2906 525 
z
" transform="scale(0.015625)"/>
       <path id="DejaVuSans-75" d="M 544 1381 
L 544 3500 
L 1119 3500 
L 1119 1403 
Q 1119 906 1312 657 
Q 1506 409 1894 409 
Q 2359 409 2629 706 
Q 2900 1003 2900 1516 
L 2900 3500 
L 3475 3500 
L 3475 0 
L 2900 0 
L 2900 538 
Q 2691 219 2414 64 
Q 2138 -91 1772 -91 
Q 1169 -91 856 284 
Q 544 659 544 1381 
z
M 1991 3584 
L 1991 3584 
z
" transform="scale(0.015625)"/>
       <path id="DejaVuSans-52" d="M 2841 2188 
Q 3044 2119 3236 1894 
Q 3428 1669 3622 1275 
L 4263 0 
L 3584 0 
L 2988 1197 
Q 2756 1666 2539 1819 
Q 2322 1972 1947 1972 
L 1259 1972 
L 1259 0 
L 628 0 
L 628 4666 
L 2053 4666 
Q 2853 4666 3247 4331 
Q 3641 3997 3641 3322 
Q 3641 2881 3436 2590 
Q 3231 2300 2841 2188 
z
M 1259 4147 
L 1259 2491 
L 2053 2491 
Q 2509 2491 2742 2702 
Q 2975 2913 2975 3322 
Q 2975 3731 2742 3939 
Q 2509 4147 2053 4147 
L 1259 4147 
z
" transform="scale(0.015625)"/>
       <path id="DejaVuSans-64" d="M 2906 2969 
L 2906 4863 
L 3481 4863 
L 3481 0 
L 2906 0 
L 2906 525 
Q 2725 213 2448 61 
Q 2172 -91 1784 -91 
Q 1150 -91 751 415 
Q 353 922 353 1747 
Q 353 2572 751 3078 
Q 1150 3584 1784 3584 
Q 2172 3584 2448 3432 
Q 2725 3281 2906 2969 
z
M 947 1747 
Q 947 1113 1208 752 
Q 1469 391 1925 391 
Q 2381 391 2643 752 
Q 2906 1113 2906 1747 
Q 2906 2381 2643 2742 
Q 2381 3103 1925 3103 
Q 1469 3103 1208 2742 
Q 947 2381 947 1747 
z
" transform="scale(0.015625)"/>
       <path id="DejaVuSans-44" d="M 1259 4147 
L 1259 519 
L 2022 519 
Q 2988 519 3436 956 
Q 3884 1394 3884 2338 
Q 3884 3275 3436 3711 
Q 2988 4147 2022 4147 
L 1259 4147 
z
M 628 4666 
L 1925 4666 
Q 3281 4666 3915 4102 
Q 4550 3538 4550 2338 
Q 4550 1131 3912 565 
Q 3275 0 1925 0 
L 628 0 
L 628 4666 
z
" transform="scale(0.015625)"/>
       <path id="DejaVuSans-70" d="M 1159 525 
L 1159 -1331 
L 581 -1331 
L 581 3500 
L 1159 3500 
L 1159 2969 
Q 1341 3281 1617 3432 
Q 1894 3584 2278 3584 
Q 2916 3584 3314 3078 
Q 3713 2572 3713 1747 
Q 3713 922 3314 415 
Q 2916 -91 2278 -91 
Q 1894 -91 1617 61 
Q 1341 213 1159 525 
z
M 3116 1747 
Q 3116 2381 2855 2742 
Q 2594 3103 2138 3103 
Q 1681 3103 1420 2742 
Q 1159 2381 1159 1747 
Q 1159 1113 1420 752 
Q 1681 391 2138 391 
Q 2594 391 2855 752 
Q 3116 1113 3116 1747 
z
" transform="scale(0.015625)"/>
       <path id="DejaVuSans-6c" d="M 603 4863 
L 1178 4863 
L 1178 0 
L 603 0 
L 603 4863 
z
" transform="scale(0.015625)"/>
       <path id="DejaVuSans-73" d="M 2834 3397 
L 2834 2853 
Q 2591 2978 2328 3040 
Q 2066 3103 1784 3103 
Q 1356 3103 1142 2972 
Q 928 2841 928 2578 
Q 928 2378 1081 2264 
Q 1234 2150 1697 2047 
L 1894 2003 
Q 2506 1872 2764 1633 
Q 3022 1394 3022 966 
Q 3022 478 2636 193 
Q 2250 -91 1575 -91 
Q 1294 -91 989 -36 
Q 684 19 347 128 
L 347 722 
Q 666 556 975 473 
Q 1284 391 1588 391 
Q 1994 391 2212 530 
Q 2431 669 2431 922 
Q 2431 1156 2273 1281 
Q 2116 1406 1581 1522 
L 1381 1569 
Q 847 1681 609 1914 
Q 372 2147 372 2553 
Q 372 3047 722 3315 
Q 1072 3584 1716 3584 
Q 2034 3584 2315 3537 
Q 2597 3491 2834 3397 
z
" transform="scale(0.015625)"/>
       <path id="DejaVuSans-41" d="M 2188 4044 
L 1331 1722 
L 3047 1722 
L 2188 4044 
z
M 1831 4666 
L 2547 4666 
L 4325 0 
L 3669 0 
L 3244 1197 
L 1141 1197 
L 716 0 
L 50 0 
L 1831 4666 
z
" transform="scale(0.015625)"/>
       <path id="DejaVuSans-2d" d="M 313 2009 
L 1997 2009 
L 1997 1497 
L 313 1497 
L 313 2009 
z
" transform="scale(0.015625)"/>
      </defs>
      <use xlink:href="#DejaVuSans-54"/>
      <use xlink:href="#DejaVuSans-6f" x="44.083984"/>
      <use xlink:href="#DejaVuSans-72" x="105.265625"/>
      <use xlink:href="#DejaVuSans-71" x="144.628906"/>
      <use xlink:href="#DejaVuSans-75" x="208.105469"/>
      <use xlink:href="#DejaVuSans-65" x="271.484375"/>
      <use xlink:href="#DejaVuSans-20" x="333.007812"/>
      <use xlink:href="#DejaVuSans-52" x="364.794922"/>
      <use xlink:href="#DejaVuSans-6f" x="429.777344"/>
      <use xlink:href="#DejaVuSans-64" x="490.958984"/>
      <use xlink:href="#DejaVuSans-20" x="554.435547"/>
      <use xlink:href="#DejaVuSans-44" x="586.222656"/>
      <use xlink:href="#DejaVuSans-69" x="663.224609"/>
      <use xlink:href="#DejaVuSans-70" x="691.007812"/>
      <use xlink:href="#DejaVuSans-6f" x="754.484375"/>
      <use xlink:href="#DejaVuSans-6c" x="815.666016"/>
      <use xlink:href="#DejaVuSans-65" x="843.449219"/>
      <use xlink:href="#DejaVuSans-73" x="904.972656"/>
      <use xlink:href="#DejaVuSans-20" x="957.072266"/>
      <use xlink:href="#DejaVuSans-5b" x="988.859375"/>
      <use xlink:href="#DejaVuSans-41" x="1027.873047"/>
      <use xlink:href="#DejaVuSans-2d" x="1094.03125"/>
      <use xlink:href="#DejaVuSans-6d" x="1130.115234"/>
      <use xlink:href="#DejaVuSans-32" x="1227.527344"/>
      <use xlink:href="#DejaVuSans-5d" x="1291.150391"/>
     </g>
    </g>
   </g>
   <g id="line2d_21">
    <path d="M 94.594718 93.811769 
L 96.003128 170.490348 
L 97.411537 226.542555 
L 98.819947 230.571562 
L 100.228356 212.616221 
L 103.045175 159.045357 
L 104.453584 132.148931 
L 105.861993 107.626552 
L 107.270403 86.248577 
L 108.678812 68.301637 
L 110.087221 53.754635 
L 111.495631 42.385287 
L 112.90404 33.872064 
L 114.312449 27.85498 
L 115.720859 23.972253 
L 117.129268 21.880583 
L 118.537677 21.265312 
L 119.946087 21.844698 
L 121.354496 23.370858 
L 122.762905 25.628869 
L 124.171315 28.434823 
L 126.988134 35.094786 
L 135.43859 56.671123 
L 138.255408 63.028902 
L 141.072227 68.687285 
L 143.889046 73.609819 
L 146.705864 77.803483 
L 149.522683 81.3017 
L 152.339502 84.154261 
L 155.156321 86.421111 
L 157.973139 88.168203 
L 160.789958 89.463932 
L 163.606777 90.374362 
L 166.423595 90.956337 
L 169.240414 91.250257 
L 172.057233 91.276496 
L 174.874051 91.038212 
L 177.69087 90.529031 
L 180.507689 89.741018 
L 183.324507 88.669126 
L 186.141326 87.312319 
L 188.958145 85.675585 
L 191.774964 83.777784 
L 196.000192 80.557803 
L 201.633829 76.192615 
L 204.450648 74.380054 
L 205.859057 73.649594 
L 207.267466 73.061759 
L 208.675876 72.629727 
L 210.084285 72.361055 
L 211.492694 72.257437 
L 212.901104 72.314938 
L 214.309513 72.524596 
L 215.717923 72.873319 
L 218.534741 73.921253 
L 221.35156 75.31137 
L 226.985197 78.536378 
L 231.210425 80.895043 
L 235.435653 82.953111 
L 239.660881 84.675402 
L 245.294519 86.631051 
L 252.336566 88.821213 
L 256.561794 89.958673 
L 260.787022 90.894628 
L 265.01225 91.618419 
L 270.645887 92.298483 
L 276.279525 92.720903 
L 281.913162 92.928427 
L 287.546799 92.942821 
L 294.588846 92.743368 
L 314.306577 91.977029 
L 319.940214 92.103999 
L 326.982261 92.526998 
L 338.249536 93.229252 
L 346.699992 93.537075 
L 359.375676 93.736688 
L 376.276588 93.804181 
L 376.276588 93.804181 
" clip-path="url(#pb0f50fcd1b)" style="fill: none; stroke: #225e7c; stroke-width: 1.5; stroke-linecap: square"/>
   </g>
   <g id="line2d_22">
    <path d="M 94.594718 93.811769 
L 96.003128 125.459401 
L 97.411537 85.006055 
L 98.819947 71.901347 
L 100.228356 74.277557 
L 101.636765 81.834642 
L 104.453584 99.391491 
L 105.861993 107.084635 
L 107.270403 113.305754 
L 108.678812 117.840778 
L 110.087221 120.691323 
L 111.495631 122.004961 
L 112.90404 122.008224 
L 114.312449 120.956327 
L 115.720859 119.101129 
L 117.129268 116.673229 
L 119.946087 110.870194 
L 124.171315 101.862832 
L 126.988134 96.63617 
L 128.396543 94.385886 
L 129.804952 92.402003 
L 131.213362 90.690606 
L 132.621771 89.250609 
L 134.03018 88.075457 
L 135.43859 87.154499 
L 136.846999 86.474095 
L 138.255408 86.018491 
L 139.663818 85.770513 
L 141.072227 85.712126 
L 142.480636 85.824883 
L 143.889046 86.090312 
L 145.297455 86.490237 
L 148.114274 87.624021 
L 150.931092 89.096373 
L 155.156321 91.700169 
L 162.198367 96.454825 
L 169.240414 101.395336 
L 173.465642 104.610173 
L 177.69087 108.102414 
L 190.366554 119.004517 
L 193.183373 121.037914 
L 196.000192 122.648485 
L 197.408601 123.233919 
L 198.81701 123.638782 
L 200.22542 123.839618 
L 201.633829 123.816926 
L 203.042238 123.557031 
L 204.450648 123.053611 
L 205.859057 122.308684 
L 207.267466 121.3329 
L 208.675876 120.145101 
L 211.492694 117.242716 
L 214.309513 113.86349 
L 221.35156 105.147379 
L 224.168379 102.115557 
L 226.985197 99.521797 
L 229.802016 97.394072 
L 232.618835 95.709019 
L 235.435653 94.405537 
L 238.252472 93.401762 
L 241.069291 92.617341 
L 245.294519 91.737522 
L 249.519747 91.175995 
L 252.336566 90.991959 
L 255.153384 90.963516 
L 259.378612 91.18121 
L 263.60384 91.633832 
L 270.645887 92.667336 
L 288.955209 95.522708 
L 295.997255 96.385785 
L 301.630893 96.838516 
L 305.856121 96.97726 
L 310.081349 96.900818 
L 314.306577 96.593724 
L 319.940214 95.904552 
L 328.39067 94.789664 
L 334.024308 94.27518 
L 339.657945 93.972085 
L 348.108401 93.779433 
L 362.192495 93.74558 
L 376.276588 93.791051 
L 376.276588 93.791051 
" clip-path="url(#pb0f50fcd1b)" style="fill: none; stroke: #3e915b; stroke-width: 1.5; stroke-linecap: square"/>
   </g>
   <g id="line2d_23">
    <path d="M 94.594718 93.811769 
L 96.003128 100.46526 
L 97.411537 83.300755 
L 98.819947 76.251596 
L 100.228356 82.527879 
L 101.636765 92.891382 
L 103.045175 101.793953 
L 104.453584 107.458134 
L 105.861993 109.93745 
L 107.270403 109.913667 
L 108.678812 108.144533 
L 110.087221 105.25516 
L 111.495631 101.692454 
L 114.312449 93.6049 
L 121.354496 72.782695 
L 124.171315 65.250324 
L 126.988134 58.526998 
L 129.804952 52.739066 
L 131.213362 50.216475 
L 132.621771 47.946018 
L 134.03018 45.928267 
L 135.43859 44.162102 
L 136.846999 42.644981 
L 138.255408 41.373024 
L 139.663818 40.340946 
L 141.072227 39.541908 
L 142.480636 38.967337 
L 143.889046 38.606803 
L 145.297455 38.448014 
L 146.705864 38.476971 
L 148.114274 38.678288 
L 149.522683 39.035635 
L 150.931092 39.532246 
L 153.747911 40.876764 
L 156.56473 42.584232 
L 160.789958 45.574585 
L 170.648823 53.120016 
L 174.874051 56.491644 
L 177.69087 58.9363 
L 180.507689 61.627423 
L 183.324507 64.616604 
L 186.141326 67.933288 
L 188.958145 71.592988 
L 191.774964 75.597811 
L 194.591782 79.919781 
L 204.450648 95.539227 
L 205.859057 97.423163 
L 207.267466 99.116204 
L 208.675876 100.592051 
L 210.084285 101.831776 
L 211.492694 102.824636 
L 212.901104 103.568202 
L 214.309513 104.067878 
L 215.717923 104.335935 
L 217.126332 104.390229 
L 218.534741 104.25277 
L 219.943151 103.948288 
L 222.759969 102.942934 
L 225.576788 101.580285 
L 236.844063 95.579017 
L 243.88611 92.382055 
L 250.928156 89.329192 
L 255.153384 87.759062 
L 257.970203 86.929523 
L 260.787022 86.308093 
L 263.60384 85.901669 
L 266.420659 85.702018 
L 269.237478 85.690982 
L 273.462706 85.972923 
L 277.687934 86.520784 
L 284.729981 87.735272 
L 295.997255 89.944159 
L 314.306577 93.701012 
L 318.531805 94.219818 
L 322.757033 94.47769 
L 326.982261 94.515636 
L 334.024308 94.32245 
L 348.108401 93.893685 
L 362.192495 93.727852 
L 376.276588 93.696058 
L 376.276588 93.696058 
" clip-path="url(#pb0f50fcd1b)" style="fill: none; stroke: #8eac56; stroke-width: 1.5; stroke-linecap: square"/>
   </g>
   <g id="line2d_24">
    <path d="M 94.594718 93.811769 
L 96.003128 170.409968 
L 97.411537 181.440027 
L 98.819947 175.022538 
L 100.228356 164.006428 
L 105.861993 112.965629 
L 107.270403 102.248114 
L 108.678812 92.764457 
L 110.087221 84.493812 
L 111.495631 77.383352 
L 112.90404 71.365901 
L 114.312449 66.367377 
L 115.720859 62.310051 
L 117.129268 59.114233 
L 118.537677 56.699437 
L 119.946087 54.985493 
L 121.354496 53.8937 
L 122.762905 53.348031 
L 124.171315 53.276249 
L 125.579724 53.610851 
L 126.988134 54.289745 
L 128.396543 55.256641 
L 129.804952 56.461147 
L 132.621771 59.409978 
L 135.43859 62.841965 
L 141.072227 70.318763 
L 146.705864 77.680548 
L 149.522683 81.086319 
L 152.339502 84.233617 
L 155.156321 87.092658 
L 157.973139 89.653142 
L 160.789958 91.924209 
L 163.606777 93.934778 
L 166.423595 95.730365 
L 170.648823 98.132209 
L 174.874051 100.288265 
L 179.099279 102.201507 
L 181.916098 103.294758 
L 184.732917 104.194375 
L 187.549736 104.854657 
L 190.366554 105.223202 
L 193.183373 105.237646 
L 194.591782 105.090776 
L 196.000192 104.830437 
L 197.408601 104.45029 
L 198.81701 103.946473 
L 201.633829 102.569996 
L 204.450648 100.748576 
L 207.267466 98.599674 
L 214.309513 92.938172 
L 217.126332 90.995641 
L 219.943151 89.400322 
L 222.759969 88.186486 
L 225.576788 87.343186 
L 228.393607 86.827773 
L 231.210425 86.578649 
L 234.027244 86.526526 
L 238.252472 86.678712 
L 243.88611 87.119784 
L 248.111338 87.617864 
L 253.744975 88.547552 
L 262.195431 90.274815 
L 270.645887 91.932478 
L 277.687934 93.086696 
L 284.729981 93.984243 
L 290.363618 94.503471 
L 295.997255 94.833638 
L 301.630893 94.958447 
L 307.26453 94.866305 
L 314.306577 94.481551 
L 325.573852 93.766756 
L 332.615899 93.578625 
L 342.474764 93.574509 
L 376.276588 93.791753 
L 376.276588 93.791753 
" clip-path="url(#pb0f50fcd1b)" style="fill: none; stroke: #c4a46f; stroke-width: 1.5; stroke-linecap: square"/>
   </g>
   <g id="patch_3">
    <path d="M 80.510625 241.036875 
L 80.510625 10.8 
" style="fill: none; stroke: #000000; stroke-width: 0.8; stroke-linejoin: miter; stroke-linecap: square"/>
   </g>
   <g id="patch_4">
    <path d="M 390.360682 241.036875 
L 390.360682 10.8 
" style="fill: none; stroke: #000000; stroke-width: 0.8; stroke-linejoin: miter; stroke-linecap: square"/>
   </g>
   <g id="patch_5">
    <path d="M 80.510625 241.036875 
L 390.360682 241.036875 
" style="fill: none; stroke: #000000; stroke-width: 0.8; stroke-linejoin: miter; stroke-linecap: square"/>
   </g>
   <g id="patch_6">
    <path d="M 80.510625 10.8 
L 390.360682 10.8 
" style="fill: none; stroke: #000000; stroke-width: 0.8; stroke-linejoin: miter; stroke-linecap: square"/>
   </g>
   <g id="legend_1">
    <g id="patch_7">
     <path d="M 321.510682 236.536875 
L 384.060682 236.536875 
Q 385.860682 236.536875 385.860682 234.736875 
L 385.860682 181.6425 
Q 385.860682 179.8425 384.060682 179.8425 
L 321.510682 179.8425 
Q 319.710682 179.8425 319.710682 181.6425 
L 319.710682 234.736875 
Q 319.710682 236.536875 321.510682 236.536875 
z
" style="fill: #ffffff; opacity: 0.8; stroke: #cccccc; stroke-linejoin: miter"/>
    </g>
    <g id="line2d_25">
     <path d="M 323.310682 187.131094 
L 332.310682 187.131094 
L 341.310682 187.131094 
" style="fill: none; stroke: #225e7c; stroke-width: 1.5; stroke-linecap: square"/>
    </g>
    <g id="text_13">
     <!-- $MTB\_T_{0}$ -->
     <g transform="translate(348.510682 190.281094) scale(0.09 -0.09)">
      <defs>
       <path id="DejaVuSans-Oblique-4d" d="M 1081 4666 
L 2028 4666 
L 2572 1522 
L 4378 4666 
L 5350 4666 
L 4441 0 
L 3828 0 
L 4622 4091 
L 2791 897 
L 2175 897 
L 1581 4103 
L 788 0 
L 172 0 
L 1081 4666 
z
" transform="scale(0.015625)"/>
       <path id="DejaVuSans-Oblique-54" d="M 378 4666 
L 4325 4666 
L 4225 4134 
L 2559 4134 
L 1759 0 
L 1125 0 
L 1925 4134 
L 275 4134 
L 378 4666 
z
" transform="scale(0.015625)"/>
       <path id="DejaVuSans-Oblique-42" d="M 1081 4666 
L 2694 4666 
Q 3350 4666 3675 4422 
Q 4000 4178 4000 3688 
Q 4000 3238 3720 2911 
Q 3441 2584 2988 2516 
Q 3375 2428 3569 2181 
Q 3763 1934 3763 1522 
Q 3763 819 3242 409 
Q 2722 0 1819 0 
L 172 0 
L 1081 4666 
z
M 1234 2228 
L 903 519 
L 1919 519 
Q 2491 519 2800 781 
Q 3109 1044 3109 1522 
Q 3109 1891 2904 2059 
Q 2700 2228 2247 2228 
L 1234 2228 
z
M 1606 4147 
L 1331 2741 
L 2272 2741 
Q 2775 2741 3058 2959 
Q 3341 3178 3341 3566 
Q 3341 3869 3150 4008 
Q 2959 4147 2541 4147 
L 1606 4147 
z
" transform="scale(0.015625)"/>
       <path id="DejaVuSans-5f" d="M 3263 -1063 
L 3263 -1509 
L -63 -1509 
L -63 -1063 
L 3263 -1063 
z
" transform="scale(0.015625)"/>
      </defs>
      <use xlink:href="#DejaVuSans-Oblique-4d" transform="translate(0 0.09375)"/>
      <use xlink:href="#DejaVuSans-Oblique-54" transform="translate(86.279297 0.09375)"/>
      <use xlink:href="#DejaVuSans-Oblique-42" transform="translate(147.363281 0.09375)"/>
      <use xlink:href="#DejaVuSans-5f" transform="translate(215.966797 0.09375)"/>
      <use xlink:href="#DejaVuSans-Oblique-54" transform="translate(265.966797 0.09375)"/>
      <use xlink:href="#DejaVuSans-30" transform="translate(327.050781 -16.3125) scale(0.7)"/>
     </g>
    </g>
    <g id="line2d_26">
     <path d="M 323.310682 200.629687 
L 332.310682 200.629687 
L 341.310682 200.629687 
" style="fill: none; stroke: #3e915b; stroke-width: 1.5; stroke-linecap: square"/>
    </g>
    <g id="text_14">
     <!-- $MTB\_T_{1}$ -->
     <g transform="translate(348.510682 203.779687) scale(0.09 -0.09)">
      <use xlink:href="#DejaVuSans-Oblique-4d" transform="translate(0 0.09375)"/>
      <use xlink:href="#DejaVuSans-Oblique-54" transform="translate(86.279297 0.09375)"/>
      <use xlink:href="#DejaVuSans-Oblique-42" transform="translate(147.363281 0.09375)"/>
      <use xlink:href="#DejaVuSans-5f" transform="translate(215.966797 0.09375)"/>
      <use xlink:href="#DejaVuSans-Oblique-54" transform="translate(265.966797 0.09375)"/>
      <use xlink:href="#DejaVuSans-31" transform="translate(327.050781 -16.3125) scale(0.7)"/>
     </g>
    </g>
    <g id="line2d_27">
     <path d="M 323.310682 214.128281 
L 332.310682 214.128281 
L 341.310682 214.128281 
" style="fill: none; stroke: #8eac56; stroke-width: 1.5; stroke-linecap: square"/>
    </g>
    <g id="text_15">
     <!-- $MTB\_T_{2}$ -->
     <g transform="translate(348.510682 217.278281) scale(0.09 -0.09)">
      <use xlink:href="#DejaVuSans-Oblique-4d" transform="translate(0 0.09375)"/>
      <use xlink:href="#DejaVuSans-Oblique-54" transform="translate(86.279297 0.09375)"/>
      <use xlink:href="#DejaVuSans-Oblique-42" transform="translate(147.363281 0.09375)"/>
      <use xlink:href="#DejaVuSans-5f" transform="translate(215.966797 0.09375)"/>
      <use xlink:href="#DejaVuSans-Oblique-54" transform="translate(265.966797 0.09375)"/>
      <use xlink:href="#DejaVuSans-32" transform="translate(327.050781 -16.3125) scale(0.7)"/>
     </g>
    </g>
    <g id="line2d_28">
     <path d="M 323.310682 227.626875 
L 332.310682 227.626875 
L 341.310682 227.626875 
" style="fill: none; stroke: #c4a46f; stroke-width: 1.5; stroke-linecap: square"/>
    </g>
    <g id="text_16">
     <!-- $MTB\_T_{3}$ -->
     <g transform="translate(348.510682 230.776875) scale(0.09 -0.09)">
      <defs>
       <path id="DejaVuSans-33" d="M 2597 2516 
Q 3050 2419 3304 2112 
Q 3559 1806 3559 1356 
Q 3559 666 3084 287 
Q 2609 -91 1734 -91 
Q 1441 -91 1130 -33 
Q 819 25 488 141 
L 488 750 
Q 750 597 1062 519 
Q 1375 441 1716 441 
Q 2309 441 2620 675 
Q 2931 909 2931 1356 
Q 2931 1769 2642 2001 
Q 2353 2234 1838 2234 
L 1294 2234 
L 1294 2753 
L 1863 2753 
Q 2328 2753 2575 2939 
Q 2822 3125 2822 3475 
Q 2822 3834 2567 4026 
Q 2313 4219 1838 4219 
Q 1578 4219 1281 4162 
Q 984 4106 628 3988 
L 628 4550 
Q 988 4650 1302 4700 
Q 1616 4750 1894 4750 
Q 2613 4750 3031 4423 
Q 3450 4097 3450 3541 
Q 3450 3153 3228 2886 
Q 3006 2619 2597 2516 
z
" transform="scale(0.015625)"/>
      </defs>
      <use xlink:href="#DejaVuSans-Oblique-4d" transform="translate(0 0.09375)"/>
      <use xlink:href="#DejaVuSans-Oblique-54" transform="translate(86.279297 0.09375)"/>
      <use xlink:href="#DejaVuSans-Oblique-42" transform="translate(147.363281 0.09375)"/>
      <use xlink:href="#DejaVuSans-5f" transform="translate(215.966797 0.09375)"/>
      <use xlink:href="#DejaVuSans-Oblique-54" transform="translate(265.966797 0.09375)"/>
      <use xlink:href="#DejaVuSans-33" transform="translate(327.050781 -16.3125) scale(0.7)"/>
     </g>
    </g>
   </g>
  </g>
 </g>
 <defs>
  <clipPath id="pb0f50fcd1b">
   <rect x="80.510625" y="10.8" width="309.850057" height="230.236875"/>
  </clipPath>
 </defs>
</svg>
