<?xml version="1.0" encoding="utf-8" standalone="no"?>
<!DOCTYPE svg PUBLIC "-//W3C//DTD SVG 1.1//EN"
  "http://www.w3.org/Graphics/SVG/1.1/DTD/svg11.dtd">
<svg xmlns:xlink="http://www.w3.org/1999/xlink" width="414pt" height="288pt" viewBox="0 0 414 288" xmlns="http://www.w3.org/2000/svg" version="1.1">
 <metadata>
  <rdf:RDF xmlns:dc="http://purl.org/dc/elements/1.1/" xmlns:cc="http://creativecommons.org/ns#" xmlns:rdf="http://www.w3.org/1999/02/22-rdf-syntax-ns#">
   <cc:Work>
    <dc:type rdf:resource="http://purl.org/dc/dcmitype/StillImage"/>
    <dc:date>2023-09-07T00:35:08.875152</dc:date>
    <dc:format>image/svg+xml</dc:format>
    <dc:creator>
     <cc:Agent>
      <dc:title>Matplotlib v3.7.2, https://matplotlib.org/</dc:title>
     </cc:Agent>
    </dc:creator>
   </cc:Work>
  </rdf:RDF>
 </metadata>
 <defs>
  <style type="text/css">*{stroke-linejoin: round; stroke-linecap: butt}</style>
 </defs>
 <g id="figure_1">
  <g id="patch_1">
   <path d="M 0 288 
L 414 288 
L 414 0 
L 0 0 
L 0 288 
z
" style="fill: none"/>
  </g>
  <g id="axes_1">
   <g id="patch_2">
    <path d="M 69.078125 241.036875 
L 403.2 241.036875 
L 403.2 10.8 
L 69.078125 10.8 
L 69.078125 241.036875 
z
" style="fill: none"/>
   </g>
   <g id="matplotlib.axis_1">
    <g id="xtick_1">
     <g id="line2d_1">
      <defs>
       <path id="mea101fb67d" d="M 0 0 
L 0 3.5 
" style="stroke: #000000; stroke-width: 0.8"/>
      </defs>
      <g>
       <use xlink:href="#mea101fb67d" x="84.265483" y="241.036875" style="stroke: #000000; stroke-width: 0.8"/>
      </g>
     </g>
     <g id="text_1">
      <!-- 0 -->
      <g transform="translate(79.175483 260.194375) scale(0.16 -0.16)">
       <defs>
        <path id="DejaVuSans-30" d="M 2034 4250 
Q 1547 4250 1301 3770 
Q 1056 3291 1056 2328 
Q 1056 1369 1301 889 
Q 1547 409 2034 409 
Q 2525 409 2770 889 
Q 3016 1369 3016 2328 
Q 3016 3291 2770 3770 
Q 2525 4250 2034 4250 
z
M 2034 4750 
Q 2819 4750 3233 4129 
Q 3647 3509 3647 2328 
Q 3647 1150 3233 529 
Q 2819 -91 2034 -91 
Q 1250 -91 836 529 
Q 422 1150 422 2328 
Q 422 3509 836 4129 
Q 1250 4750 2034 4750 
z
" transform="scale(0.015625)"/>
       </defs>
       <use xlink:href="#DejaVuSans-30"/>
      </g>
     </g>
    </g>
    <g id="xtick_2">
     <g id="line2d_2">
      <g>
       <use xlink:href="#mea101fb67d" x="145.014915" y="241.036875" style="stroke: #000000; stroke-width: 0.8"/>
      </g>
     </g>
     <g id="text_2">
      <!-- 2 -->
      <g transform="translate(139.924915 260.194375) scale(0.16 -0.16)">
       <defs>
        <path id="DejaVuSans-32" d="M 1228 531 
L 3431 531 
L 3431 0 
L 469 0 
L 469 531 
Q 828 903 1448 1529 
Q 2069 2156 2228 2338 
Q 2531 2678 2651 2914 
Q 2772 3150 2772 3378 
Q 2772 3750 2511 3984 
Q 2250 4219 1831 4219 
Q 1534 4219 1204 4116 
Q 875 4013 500 3803 
L 500 4441 
Q 881 4594 1212 4672 
Q 1544 4750 1819 4750 
Q 2544 4750 2975 4387 
Q 3406 4025 3406 3419 
Q 3406 3131 3298 2873 
Q 3191 2616 2906 2266 
Q 2828 2175 2409 1742 
Q 1991 1309 1228 531 
z
" transform="scale(0.015625)"/>
       </defs>
       <use xlink:href="#DejaVuSans-32"/>
      </g>
     </g>
    </g>
    <g id="xtick_3">
     <g id="line2d_3">
      <g>
       <use xlink:href="#mea101fb67d" x="205.764347" y="241.036875" style="stroke: #000000; stroke-width: 0.8"/>
      </g>
     </g>
     <g id="text_3">
      <!-- 4 -->
      <g transform="translate(200.674347 260.194375) scale(0.16 -0.16)">
       <defs>
        <path id="DejaVuSans-34" d="M 2419 4116 
L 825 1625 
L 2419 1625 
L 2419 4116 
z
M 2253 4666 
L 3047 4666 
L 3047 1625 
L 3713 1625 
L 3713 1100 
L 3047 1100 
L 3047 0 
L 2419 0 
L 2419 1100 
L 313 1100 
L 313 1709 
L 2253 4666 
z
" transform="scale(0.015625)"/>
       </defs>
       <use xlink:href="#DejaVuSans-34"/>
      </g>
     </g>
    </g>
    <g id="xtick_4">
     <g id="line2d_4">
      <g>
       <use xlink:href="#mea101fb67d" x="266.513778" y="241.036875" style="stroke: #000000; stroke-width: 0.8"/>
      </g>
     </g>
     <g id="text_4">
      <!-- 6 -->
      <g transform="translate(261.423778 260.194375) scale(0.16 -0.16)">
       <defs>
        <path id="DejaVuSans-36" d="M 2113 2584 
Q 1688 2584 1439 2293 
Q 1191 2003 1191 1497 
Q 1191 994 1439 701 
Q 1688 409 2113 409 
Q 2538 409 2786 701 
Q 3034 994 3034 1497 
Q 3034 2003 2786 2293 
Q 2538 2584 2113 2584 
z
M 3366 4563 
L 3366 3988 
Q 3128 4100 2886 4159 
Q 2644 4219 2406 4219 
Q 1781 4219 1451 3797 
Q 1122 3375 1075 2522 
Q 1259 2794 1537 2939 
Q 1816 3084 2150 3084 
Q 2853 3084 3261 2657 
Q 3669 2231 3669 1497 
Q 3669 778 3244 343 
Q 2819 -91 2113 -91 
Q 1303 -91 875 529 
Q 447 1150 447 2328 
Q 447 3434 972 4092 
Q 1497 4750 2381 4750 
Q 2619 4750 2861 4703 
Q 3103 4656 3366 4563 
z
" transform="scale(0.015625)"/>
       </defs>
       <use xlink:href="#DejaVuSans-36"/>
      </g>
     </g>
    </g>
    <g id="xtick_5">
     <g id="line2d_5">
      <g>
       <use xlink:href="#mea101fb67d" x="327.26321" y="241.036875" style="stroke: #000000; stroke-width: 0.8"/>
      </g>
     </g>
     <g id="text_5">
      <!-- 8 -->
      <g transform="translate(322.17321 260.194375) scale(0.16 -0.16)">
       <defs>
        <path id="DejaVuSans-38" d="M 2034 2216 
Q 1584 2216 1326 1975 
Q 1069 1734 1069 1313 
Q 1069 891 1326 650 
Q 1584 409 2034 409 
Q 2484 409 2743 651 
Q 3003 894 3003 1313 
Q 3003 1734 2745 1975 
Q 2488 2216 2034 2216 
z
M 1403 2484 
Q 997 2584 770 2862 
Q 544 3141 544 3541 
Q 544 4100 942 4425 
Q 1341 4750 2034 4750 
Q 2731 4750 3128 4425 
Q 3525 4100 3525 3541 
Q 3525 3141 3298 2862 
Q 3072 2584 2669 2484 
Q 3125 2378 3379 2068 
Q 3634 1759 3634 1313 
Q 3634 634 3220 271 
Q 2806 -91 2034 -91 
Q 1263 -91 848 271 
Q 434 634 434 1313 
Q 434 1759 690 2068 
Q 947 2378 1403 2484 
z
M 1172 3481 
Q 1172 3119 1398 2916 
Q 1625 2713 2034 2713 
Q 2441 2713 2670 2916 
Q 2900 3119 2900 3481 
Q 2900 3844 2670 4047 
Q 2441 4250 2034 4250 
Q 1625 4250 1398 4047 
Q 1172 3844 1172 3481 
z
" transform="scale(0.015625)"/>
       </defs>
       <use xlink:href="#DejaVuSans-38"/>
      </g>
     </g>
    </g>
    <g id="xtick_6">
     <g id="line2d_6">
      <g>
       <use xlink:href="#mea101fb67d" x="388.012642" y="241.036875" style="stroke: #000000; stroke-width: 0.8"/>
      </g>
     </g>
     <g id="text_6">
      <!-- 10 -->
      <g transform="translate(377.832642 260.194375) scale(0.16 -0.16)">
       <defs>
        <path id="DejaVuSans-31" d="M 794 531 
L 1825 531 
L 1825 4091 
L 703 3866 
L 703 4441 
L 1819 4666 
L 2450 4666 
L 2450 531 
L 3481 531 
L 3481 0 
L 794 0 
L 794 531 
z
" transform="scale(0.015625)"/>
       </defs>
       <use xlink:href="#DejaVuSans-31"/>
       <use xlink:href="#DejaVuSans-30" x="63.623047"/>
      </g>
     </g>
    </g>
    <g id="text_7">
     <!-- Time [min] -->
     <g transform="translate(208.986719 275.120313) scale(0.1 -0.1)">
      <defs>
       <path id="DejaVuSans-54" d="M -19 4666 
L 3928 4666 
L 3928 4134 
L 2272 4134 
L 2272 0 
L 1638 0 
L 1638 4134 
L -19 4134 
L -19 4666 
z
" transform="scale(0.015625)"/>
       <path id="DejaVuSans-69" d="M 603 3500 
L 1178 3500 
L 1178 0 
L 603 0 
L 603 3500 
z
M 603 4863 
L 1178 4863 
L 1178 4134 
L 603 4134 
L 603 4863 
z
" transform="scale(0.015625)"/>
       <path id="DejaVuSans-6d" d="M 3328 2828 
Q 3544 3216 3844 3400 
Q 4144 3584 4550 3584 
Q 5097 3584 5394 3201 
Q 5691 2819 5691 2113 
L 5691 0 
L 5113 0 
L 5113 2094 
Q 5113 2597 4934 2840 
Q 4756 3084 4391 3084 
Q 3944 3084 3684 2787 
Q 3425 2491 3425 1978 
L 3425 0 
L 2847 0 
L 2847 2094 
Q 2847 2600 2669 2842 
Q 2491 3084 2119 3084 
Q 1678 3084 1418 2786 
Q 1159 2488 1159 1978 
L 1159 0 
L 581 0 
L 581 3500 
L 1159 3500 
L 1159 2956 
Q 1356 3278 1631 3431 
Q 1906 3584 2284 3584 
Q 2666 3584 2933 3390 
Q 3200 3197 3328 2828 
z
" transform="scale(0.015625)"/>
       <path id="DejaVuSans-65" d="M 3597 1894 
L 3597 1613 
L 953 1613 
Q 991 1019 1311 708 
Q 1631 397 2203 397 
Q 2534 397 2845 478 
Q 3156 559 3463 722 
L 3463 178 
Q 3153 47 2828 -22 
Q 2503 -91 2169 -91 
Q 1331 -91 842 396 
Q 353 884 353 1716 
Q 353 2575 817 3079 
Q 1281 3584 2069 3584 
Q 2775 3584 3186 3129 
Q 3597 2675 3597 1894 
z
M 3022 2063 
Q 3016 2534 2758 2815 
Q 2500 3097 2075 3097 
Q 1594 3097 1305 2825 
Q 1016 2553 972 2059 
L 3022 2063 
z
" transform="scale(0.015625)"/>
       <path id="DejaVuSans-20" transform="scale(0.015625)"/>
       <path id="DejaVuSans-5b" d="M 550 4863 
L 1875 4863 
L 1875 4416 
L 1125 4416 
L 1125 -397 
L 1875 -397 
L 1875 -844 
L 550 -844 
L 550 4863 
z
" transform="scale(0.015625)"/>
       <path id="DejaVuSans-6e" d="M 3513 2113 
L 3513 0 
L 2938 0 
L 2938 2094 
Q 2938 2591 2744 2837 
Q 2550 3084 2163 3084 
Q 1697 3084 1428 2787 
Q 1159 2491 1159 1978 
L 1159 0 
L 581 0 
L 581 3500 
L 1159 3500 
L 1159 2956 
Q 1366 3272 1645 3428 
Q 1925 3584 2291 3584 
Q 2894 3584 3203 3211 
Q 3513 2838 3513 2113 
z
" transform="scale(0.015625)"/>
       <path id="DejaVuSans-5d" d="M 1947 4863 
L 1947 -844 
L 622 -844 
L 622 -397 
L 1369 -397 
L 1369 4416 
L 622 4416 
L 622 4863 
L 1947 4863 
z
" transform="scale(0.015625)"/>
      </defs>
      <use xlink:href="#DejaVuSans-54"/>
      <use xlink:href="#DejaVuSans-69" x="57.958984"/>
      <use xlink:href="#DejaVuSans-6d" x="85.742188"/>
      <use xlink:href="#DejaVuSans-65" x="183.154297"/>
      <use xlink:href="#DejaVuSans-20" x="244.677734"/>
      <use xlink:href="#DejaVuSans-5b" x="276.464844"/>
      <use xlink:href="#DejaVuSans-6d" x="315.478516"/>
      <use xlink:href="#DejaVuSans-69" x="412.890625"/>
      <use xlink:href="#DejaVuSans-6e" x="440.673828"/>
      <use xlink:href="#DejaVuSans-5d" x="504.052734"/>
     </g>
    </g>
   </g>
   <g id="matplotlib.axis_2">
    <g id="ytick_1">
     <g id="line2d_7">
      <defs>
       <path id="m74a930a18b" d="M 0 0 
L -3.5 0 
" style="stroke: #000000; stroke-width: 0.8"/>
      </defs>
      <g>
       <use xlink:href="#m74a930a18b" x="69.078125" y="223.584266" style="stroke: #000000; stroke-width: 0.8"/>
      </g>
     </g>
     <g id="text_8">
      <!-- $\mathdefault{10^{-5}}$ -->
      <g transform="translate(24.478125 229.663016) scale(0.16 -0.16)">
       <defs>
        <path id="DejaVuSans-2212" d="M 678 2272 
L 4684 2272 
L 4684 1741 
L 678 1741 
L 678 2272 
z
" transform="scale(0.015625)"/>
        <path id="DejaVuSans-35" d="M 691 4666 
L 3169 4666 
L 3169 4134 
L 1269 4134 
L 1269 2991 
Q 1406 3038 1543 3061 
Q 1681 3084 1819 3084 
Q 2600 3084 3056 2656 
Q 3513 2228 3513 1497 
Q 3513 744 3044 326 
Q 2575 -91 1722 -91 
Q 1428 -91 1123 -41 
Q 819 9 494 109 
L 494 744 
Q 775 591 1075 516 
Q 1375 441 1709 441 
Q 2250 441 2565 725 
Q 2881 1009 2881 1497 
Q 2881 1984 2565 2268 
Q 2250 2553 1709 2553 
Q 1456 2553 1204 2497 
Q 953 2441 691 2322 
L 691 4666 
z
" transform="scale(0.015625)"/>
       </defs>
       <use xlink:href="#DejaVuSans-31" transform="translate(0 0.684375)"/>
       <use xlink:href="#DejaVuSans-30" transform="translate(63.623047 0.684375)"/>
       <use xlink:href="#DejaVuSans-2212" transform="translate(128.203125 38.965625) scale(0.7)"/>
       <use xlink:href="#DejaVuSans-35" transform="translate(186.855469 38.965625) scale(0.7)"/>
      </g>
     </g>
    </g>
    <g id="ytick_2">
     <g id="line2d_8">
      <g>
       <use xlink:href="#m74a930a18b" x="69.078125" y="176.544614" style="stroke: #000000; stroke-width: 0.8"/>
      </g>
     </g>
     <g id="text_9">
      <!-- $\mathdefault{10^{-4}}$ -->
      <g transform="translate(24.478125 182.623364) scale(0.16 -0.16)">
       <use xlink:href="#DejaVuSans-31" transform="translate(0 0.684375)"/>
       <use xlink:href="#DejaVuSans-30" transform="translate(63.623047 0.684375)"/>
       <use xlink:href="#DejaVuSans-2212" transform="translate(128.203125 38.965625) scale(0.7)"/>
       <use xlink:href="#DejaVuSans-34" transform="translate(186.855469 38.965625) scale(0.7)"/>
      </g>
     </g>
    </g>
    <g id="ytick_3">
     <g id="line2d_9">
      <g>
       <use xlink:href="#m74a930a18b" x="69.078125" y="129.504962" style="stroke: #000000; stroke-width: 0.8"/>
      </g>
     </g>
     <g id="text_10">
      <!-- $\mathdefault{10^{-3}}$ -->
      <g transform="translate(24.478125 135.583712) scale(0.16 -0.16)">
       <defs>
        <path id="DejaVuSans-33" d="M 2597 2516 
Q 3050 2419 3304 2112 
Q 3559 1806 3559 1356 
Q 3559 666 3084 287 
Q 2609 -91 1734 -91 
Q 1441 -91 1130 -33 
Q 819 25 488 141 
L 488 750 
Q 750 597 1062 519 
Q 1375 441 1716 441 
Q 2309 441 2620 675 
Q 2931 909 2931 1356 
Q 2931 1769 2642 2001 
Q 2353 2234 1838 2234 
L 1294 2234 
L 1294 2753 
L 1863 2753 
Q 2328 2753 2575 2939 
Q 2822 3125 2822 3475 
Q 2822 3834 2567 4026 
Q 2313 4219 1838 4219 
Q 1578 4219 1281 4162 
Q 984 4106 628 3988 
L 628 4550 
Q 988 4650 1302 4700 
Q 1616 4750 1894 4750 
Q 2613 4750 3031 4423 
Q 3450 4097 3450 3541 
Q 3450 3153 3228 2886 
Q 3006 2619 2597 2516 
z
" transform="scale(0.015625)"/>
       </defs>
       <use xlink:href="#DejaVuSans-31" transform="translate(0 0.765625)"/>
       <use xlink:href="#DejaVuSans-30" transform="translate(63.623047 0.765625)"/>
       <use xlink:href="#DejaVuSans-2212" transform="translate(128.203125 39.046875) scale(0.7)"/>
       <use xlink:href="#DejaVuSans-33" transform="translate(186.855469 39.046875) scale(0.7)"/>
      </g>
     </g>
    </g>
    <g id="ytick_4">
     <g id="line2d_10">
      <g>
       <use xlink:href="#m74a930a18b" x="69.078125" y="82.46531" style="stroke: #000000; stroke-width: 0.8"/>
      </g>
     </g>
     <g id="text_11">
      <!-- $\mathdefault{10^{-2}}$ -->
      <g transform="translate(24.478125 88.54406) scale(0.16 -0.16)">
       <use xlink:href="#DejaVuSans-31" transform="translate(0 0.765625)"/>
       <use xlink:href="#DejaVuSans-30" transform="translate(63.623047 0.765625)"/>
       <use xlink:href="#DejaVuSans-2212" transform="translate(128.203125 39.046875) scale(0.7)"/>
       <use xlink:href="#DejaVuSans-32" transform="translate(186.855469 39.046875) scale(0.7)"/>
      </g>
     </g>
    </g>
    <g id="ytick_5">
     <g id="line2d_11">
      <g>
       <use xlink:href="#m74a930a18b" x="69.078125" y="35.425659" style="stroke: #000000; stroke-width: 0.8"/>
      </g>
     </g>
     <g id="text_12">
      <!-- $\mathdefault{10^{-1}}$ -->
      <g transform="translate(24.478125 41.504409) scale(0.16 -0.16)">
       <use xlink:href="#DejaVuSans-31" transform="translate(0 0.684375)"/>
       <use xlink:href="#DejaVuSans-30" transform="translate(63.623047 0.684375)"/>
       <use xlink:href="#DejaVuSans-2212" transform="translate(128.203125 38.965625) scale(0.7)"/>
       <use xlink:href="#DejaVuSans-31" transform="translate(186.855469 38.965625) scale(0.7)"/>
      </g>
     </g>
    </g>
    <g id="ytick_6">
     <g id="line2d_12">
      <defs>
       <path id="m17348107f8" d="M 0 0 
L -2 0 
" style="stroke: #000000; stroke-width: 0.6"/>
      </defs>
      <g>
       <use xlink:href="#m17348107f8" x="69.078125" y="237.744612" style="stroke: #000000; stroke-width: 0.6"/>
      </g>
     </g>
    </g>
    <g id="ytick_7">
     <g id="line2d_13">
      <g>
       <use xlink:href="#m17348107f8" x="69.078125" y="234.019954" style="stroke: #000000; stroke-width: 0.6"/>
      </g>
     </g>
    </g>
    <g id="ytick_8">
     <g id="line2d_14">
      <g>
       <use xlink:href="#m17348107f8" x="69.078125" y="230.8708" style="stroke: #000000; stroke-width: 0.6"/>
      </g>
     </g>
    </g>
    <g id="ytick_9">
     <g id="line2d_15">
      <g>
       <use xlink:href="#m17348107f8" x="69.078125" y="228.142879" style="stroke: #000000; stroke-width: 0.6"/>
      </g>
     </g>
    </g>
    <g id="ytick_10">
     <g id="line2d_16">
      <g>
       <use xlink:href="#m17348107f8" x="69.078125" y="225.736682" style="stroke: #000000; stroke-width: 0.6"/>
      </g>
     </g>
    </g>
    <g id="ytick_11">
     <g id="line2d_17">
      <g>
       <use xlink:href="#m17348107f8" x="69.078125" y="209.42392" style="stroke: #000000; stroke-width: 0.6"/>
      </g>
     </g>
    </g>
    <g id="ytick_12">
     <g id="line2d_18">
      <g>
       <use xlink:href="#m17348107f8" x="69.078125" y="201.140648" style="stroke: #000000; stroke-width: 0.6"/>
      </g>
     </g>
    </g>
    <g id="ytick_13">
     <g id="line2d_19">
      <g>
       <use xlink:href="#m17348107f8" x="69.078125" y="195.263574" style="stroke: #000000; stroke-width: 0.6"/>
      </g>
     </g>
    </g>
    <g id="ytick_14">
     <g id="line2d_20">
      <g>
       <use xlink:href="#m17348107f8" x="69.078125" y="190.70496" style="stroke: #000000; stroke-width: 0.6"/>
      </g>
     </g>
    </g>
    <g id="ytick_15">
     <g id="line2d_21">
      <g>
       <use xlink:href="#m17348107f8" x="69.078125" y="186.980302" style="stroke: #000000; stroke-width: 0.6"/>
      </g>
     </g>
    </g>
    <g id="ytick_16">
     <g id="line2d_22">
      <g>
       <use xlink:href="#m17348107f8" x="69.078125" y="183.831148" style="stroke: #000000; stroke-width: 0.6"/>
      </g>
     </g>
    </g>
    <g id="ytick_17">
     <g id="line2d_23">
      <g>
       <use xlink:href="#m17348107f8" x="69.078125" y="181.103227" style="stroke: #000000; stroke-width: 0.6"/>
      </g>
     </g>
    </g>
    <g id="ytick_18">
     <g id="line2d_24">
      <g>
       <use xlink:href="#m17348107f8" x="69.078125" y="178.697031" style="stroke: #000000; stroke-width: 0.6"/>
      </g>
     </g>
    </g>
    <g id="ytick_19">
     <g id="line2d_25">
      <g>
       <use xlink:href="#m17348107f8" x="69.078125" y="162.384268" style="stroke: #000000; stroke-width: 0.6"/>
      </g>
     </g>
    </g>
    <g id="ytick_20">
     <g id="line2d_26">
      <g>
       <use xlink:href="#m17348107f8" x="69.078125" y="154.100996" style="stroke: #000000; stroke-width: 0.6"/>
      </g>
     </g>
    </g>
    <g id="ytick_21">
     <g id="line2d_27">
      <g>
       <use xlink:href="#m17348107f8" x="69.078125" y="148.223922" style="stroke: #000000; stroke-width: 0.6"/>
      </g>
     </g>
    </g>
    <g id="ytick_22">
     <g id="line2d_28">
      <g>
       <use xlink:href="#m17348107f8" x="69.078125" y="143.665308" style="stroke: #000000; stroke-width: 0.6"/>
      </g>
     </g>
    </g>
    <g id="ytick_23">
     <g id="line2d_29">
      <g>
       <use xlink:href="#m17348107f8" x="69.078125" y="139.94065" style="stroke: #000000; stroke-width: 0.6"/>
      </g>
     </g>
    </g>
    <g id="ytick_24">
     <g id="line2d_30">
      <g>
       <use xlink:href="#m17348107f8" x="69.078125" y="136.791497" style="stroke: #000000; stroke-width: 0.6"/>
      </g>
     </g>
    </g>
    <g id="ytick_25">
     <g id="line2d_31">
      <g>
       <use xlink:href="#m17348107f8" x="69.078125" y="134.063576" style="stroke: #000000; stroke-width: 0.6"/>
      </g>
     </g>
    </g>
    <g id="ytick_26">
     <g id="line2d_32">
      <g>
       <use xlink:href="#m17348107f8" x="69.078125" y="131.657379" style="stroke: #000000; stroke-width: 0.6"/>
      </g>
     </g>
    </g>
    <g id="ytick_27">
     <g id="line2d_33">
      <g>
       <use xlink:href="#m17348107f8" x="69.078125" y="115.344616" style="stroke: #000000; stroke-width: 0.6"/>
      </g>
     </g>
    </g>
    <g id="ytick_28">
     <g id="line2d_34">
      <g>
       <use xlink:href="#m17348107f8" x="69.078125" y="107.061345" style="stroke: #000000; stroke-width: 0.6"/>
      </g>
     </g>
    </g>
    <g id="ytick_29">
     <g id="line2d_35">
      <g>
       <use xlink:href="#m17348107f8" x="69.078125" y="101.18427" style="stroke: #000000; stroke-width: 0.6"/>
      </g>
     </g>
    </g>
    <g id="ytick_30">
     <g id="line2d_36">
      <g>
       <use xlink:href="#m17348107f8" x="69.078125" y="96.625657" style="stroke: #000000; stroke-width: 0.6"/>
      </g>
     </g>
    </g>
    <g id="ytick_31">
     <g id="line2d_37">
      <g>
       <use xlink:href="#m17348107f8" x="69.078125" y="92.900998" style="stroke: #000000; stroke-width: 0.6"/>
      </g>
     </g>
    </g>
    <g id="ytick_32">
     <g id="line2d_38">
      <g>
       <use xlink:href="#m17348107f8" x="69.078125" y="89.751845" style="stroke: #000000; stroke-width: 0.6"/>
      </g>
     </g>
    </g>
    <g id="ytick_33">
     <g id="line2d_39">
      <g>
       <use xlink:href="#m17348107f8" x="69.078125" y="87.023924" style="stroke: #000000; stroke-width: 0.6"/>
      </g>
     </g>
    </g>
    <g id="ytick_34">
     <g id="line2d_40">
      <g>
       <use xlink:href="#m17348107f8" x="69.078125" y="84.617727" style="stroke: #000000; stroke-width: 0.6"/>
      </g>
     </g>
    </g>
    <g id="ytick_35">
     <g id="line2d_41">
      <g>
       <use xlink:href="#m17348107f8" x="69.078125" y="68.304964" style="stroke: #000000; stroke-width: 0.6"/>
      </g>
     </g>
    </g>
    <g id="ytick_36">
     <g id="line2d_42">
      <g>
       <use xlink:href="#m17348107f8" x="69.078125" y="60.021693" style="stroke: #000000; stroke-width: 0.6"/>
      </g>
     </g>
    </g>
    <g id="ytick_37">
     <g id="line2d_43">
      <g>
       <use xlink:href="#m17348107f8" x="69.078125" y="54.144618" style="stroke: #000000; stroke-width: 0.6"/>
      </g>
     </g>
    </g>
    <g id="ytick_38">
     <g id="line2d_44">
      <g>
       <use xlink:href="#m17348107f8" x="69.078125" y="49.586005" style="stroke: #000000; stroke-width: 0.6"/>
      </g>
     </g>
    </g>
    <g id="ytick_39">
     <g id="line2d_45">
      <g>
       <use xlink:href="#m17348107f8" x="69.078125" y="45.861347" style="stroke: #000000; stroke-width: 0.6"/>
      </g>
     </g>
    </g>
    <g id="ytick_40">
     <g id="line2d_46">
      <g>
       <use xlink:href="#m17348107f8" x="69.078125" y="42.712193" style="stroke: #000000; stroke-width: 0.6"/>
      </g>
     </g>
    </g>
    <g id="ytick_41">
     <g id="line2d_47">
      <g>
       <use xlink:href="#m17348107f8" x="69.078125" y="39.984272" style="stroke: #000000; stroke-width: 0.6"/>
      </g>
     </g>
    </g>
    <g id="ytick_42">
     <g id="line2d_48">
      <g>
       <use xlink:href="#m17348107f8" x="69.078125" y="37.578075" style="stroke: #000000; stroke-width: 0.6"/>
      </g>
     </g>
    </g>
    <g id="ytick_43">
     <g id="line2d_49">
      <g>
       <use xlink:href="#m17348107f8" x="69.078125" y="21.265312" style="stroke: #000000; stroke-width: 0.6"/>
      </g>
     </g>
    </g>
    <g id="ytick_44">
     <g id="line2d_50">
      <g>
       <use xlink:href="#m17348107f8" x="69.078125" y="12.982041" style="stroke: #000000; stroke-width: 0.6"/>
      </g>
     </g>
    </g>
    <g id="text_13">
     <!-- RW Motor Torque (Nm) -->
     <g transform="translate(18.398438 182.515312) rotate(-90) scale(0.1 -0.1)">
      <defs>
       <path id="DejaVuSans-52" d="M 2841 2188 
Q 3044 2119 3236 1894 
Q 3428 1669 3622 1275 
L 4263 0 
L 3584 0 
L 2988 1197 
Q 2756 1666 2539 1819 
Q 2322 1972 1947 1972 
L 1259 1972 
L 1259 0 
L 628 0 
L 628 4666 
L 2053 4666 
Q 2853 4666 3247 4331 
Q 3641 3997 3641 3322 
Q 3641 2881 3436 2590 
Q 3231 2300 2841 2188 
z
M 1259 4147 
L 1259 2491 
L 2053 2491 
Q 2509 2491 2742 2702 
Q 2975 2913 2975 3322 
Q 2975 3731 2742 3939 
Q 2509 4147 2053 4147 
L 1259 4147 
z
" transform="scale(0.015625)"/>
       <path id="DejaVuSans-57" d="M 213 4666 
L 850 4666 
L 1831 722 
L 2809 4666 
L 3519 4666 
L 4500 722 
L 5478 4666 
L 6119 4666 
L 4947 0 
L 4153 0 
L 3169 4050 
L 2175 0 
L 1381 0 
L 213 4666 
z
" transform="scale(0.015625)"/>
       <path id="DejaVuSans-4d" d="M 628 4666 
L 1569 4666 
L 2759 1491 
L 3956 4666 
L 4897 4666 
L 4897 0 
L 4281 0 
L 4281 4097 
L 3078 897 
L 2444 897 
L 1241 4097 
L 1241 0 
L 628 0 
L 628 4666 
z
" transform="scale(0.015625)"/>
       <path id="DejaVuSans-6f" d="M 1959 3097 
Q 1497 3097 1228 2736 
Q 959 2375 959 1747 
Q 959 1119 1226 758 
Q 1494 397 1959 397 
Q 2419 397 2687 759 
Q 2956 1122 2956 1747 
Q 2956 2369 2687 2733 
Q 2419 3097 1959 3097 
z
M 1959 3584 
Q 2709 3584 3137 3096 
Q 3566 2609 3566 1747 
Q 3566 888 3137 398 
Q 2709 -91 1959 -91 
Q 1206 -91 779 398 
Q 353 888 353 1747 
Q 353 2609 779 3096 
Q 1206 3584 1959 3584 
z
" transform="scale(0.015625)"/>
       <path id="DejaVuSans-74" d="M 1172 4494 
L 1172 3500 
L 2356 3500 
L 2356 3053 
L 1172 3053 
L 1172 1153 
Q 1172 725 1289 603 
Q 1406 481 1766 481 
L 2356 481 
L 2356 0 
L 1766 0 
Q 1100 0 847 248 
Q 594 497 594 1153 
L 594 3053 
L 172 3053 
L 172 3500 
L 594 3500 
L 594 4494 
L 1172 4494 
z
" transform="scale(0.015625)"/>
       <path id="DejaVuSans-72" d="M 2631 2963 
Q 2534 3019 2420 3045 
Q 2306 3072 2169 3072 
Q 1681 3072 1420 2755 
Q 1159 2438 1159 1844 
L 1159 0 
L 581 0 
L 581 3500 
L 1159 3500 
L 1159 2956 
Q 1341 3275 1631 3429 
Q 1922 3584 2338 3584 
Q 2397 3584 2469 3576 
Q 2541 3569 2628 3553 
L 2631 2963 
z
" transform="scale(0.015625)"/>
       <path id="DejaVuSans-71" d="M 947 1747 
Q 947 1113 1208 752 
Q 1469 391 1925 391 
Q 2381 391 2643 752 
Q 2906 1113 2906 1747 
Q 2906 2381 2643 2742 
Q 2381 3103 1925 3103 
Q 1469 3103 1208 2742 
Q 947 2381 947 1747 
z
M 2906 525 
Q 2725 213 2448 61 
Q 2172 -91 1784 -91 
Q 1150 -91 751 415 
Q 353 922 353 1747 
Q 353 2572 751 3078 
Q 1150 3584 1784 3584 
Q 2172 3584 2448 3432 
Q 2725 3281 2906 2969 
L 2906 3500 
L 3481 3500 
L 3481 -1331 
L 2906 -1331 
L 2906 525 
z
" transform="scale(0.015625)"/>
       <path id="DejaVuSans-75" d="M 544 1381 
L 544 3500 
L 1119 3500 
L 1119 1403 
Q 1119 906 1312 657 
Q 1506 409 1894 409 
Q 2359 409 2629 706 
Q 2900 1003 2900 1516 
L 2900 3500 
L 3475 3500 
L 3475 0 
L 2900 0 
L 2900 538 
Q 2691 219 2414 64 
Q 2138 -91 1772 -91 
Q 1169 -91 856 284 
Q 544 659 544 1381 
z
M 1991 3584 
L 1991 3584 
z
" transform="scale(0.015625)"/>
       <path id="DejaVuSans-28" d="M 1984 4856 
Q 1566 4138 1362 3434 
Q 1159 2731 1159 2009 
Q 1159 1288 1364 580 
Q 1569 -128 1984 -844 
L 1484 -844 
Q 1016 -109 783 600 
Q 550 1309 550 2009 
Q 550 2706 781 3412 
Q 1013 4119 1484 4856 
L 1984 4856 
z
" transform="scale(0.015625)"/>
       <path id="DejaVuSans-4e" d="M 628 4666 
L 1478 4666 
L 3547 763 
L 3547 4666 
L 4159 4666 
L 4159 0 
L 3309 0 
L 1241 3903 
L 1241 0 
L 628 0 
L 628 4666 
z
" transform="scale(0.015625)"/>
       <path id="DejaVuSans-29" d="M 513 4856 
L 1013 4856 
Q 1481 4119 1714 3412 
Q 1947 2706 1947 2009 
Q 1947 1309 1714 600 
Q 1481 -109 1013 -844 
L 513 -844 
Q 928 -128 1133 580 
Q 1338 1288 1338 2009 
Q 1338 2731 1133 3434 
Q 928 4138 513 4856 
z
" transform="scale(0.015625)"/>
      </defs>
      <use xlink:href="#DejaVuSans-52"/>
      <use xlink:href="#DejaVuSans-57" x="65.482422"/>
      <use xlink:href="#DejaVuSans-20" x="164.359375"/>
      <use xlink:href="#DejaVuSans-4d" x="196.146484"/>
      <use xlink:href="#DejaVuSans-6f" x="282.425781"/>
      <use xlink:href="#DejaVuSans-74" x="343.607422"/>
      <use xlink:href="#DejaVuSans-6f" x="382.816406"/>
      <use xlink:href="#DejaVuSans-72" x="443.998047"/>
      <use xlink:href="#DejaVuSans-20" x="485.111328"/>
      <use xlink:href="#DejaVuSans-54" x="516.898438"/>
      <use xlink:href="#DejaVuSans-6f" x="560.982422"/>
      <use xlink:href="#DejaVuSans-72" x="622.164062"/>
      <use xlink:href="#DejaVuSans-71" x="661.527344"/>
      <use xlink:href="#DejaVuSans-75" x="725.003906"/>
      <use xlink:href="#DejaVuSans-65" x="788.382812"/>
      <use xlink:href="#DejaVuSans-20" x="849.90625"/>
      <use xlink:href="#DejaVuSans-28" x="881.693359"/>
      <use xlink:href="#DejaVuSans-4e" x="920.707031"/>
      <use xlink:href="#DejaVuSans-6d" x="995.511719"/>
      <use xlink:href="#DejaVuSans-29" x="1092.923828"/>
     </g>
    </g>
   </g>
   <g id="line2d_51">
    <path d="M 85.775569 289 
L 85.784219 21.265312 
L 87.302955 29.018017 
L 88.82169 25.654742 
L 90.340426 32.37176 
L 91.859162 71.03578 
L 93.377898 21.853246 
L 94.896634 22.81629 
L 96.415369 21.265312 
L 99.452841 21.265312 
L 100.971577 79.979006 
L 102.490313 28.225131 
L 104.009048 34.394338 
L 105.527784 55.548045 
L 107.04652 80.624905 
L 108.565256 59.327231 
L 110.083991 68.041125 
L 111.602727 83.965099 
L 113.121463 111.239292 
L 114.640199 151.24794 
L 116.158935 155.976399 
L 117.67767 92.147628 
L 119.196406 59.018269 
L 120.715142 59.953446 
L 122.233878 97.681439 
L 123.752614 75.479301 
L 125.271349 71.585622 
L 126.790085 92.37742 
L 128.308821 89.805602 
L 129.827557 82.574514 
L 131.346293 90.441471 
L 132.865028 164.575449 
L 134.383764 95.206271 
L 135.9025 88.805868 
L 137.421236 89.187223 
L 138.939972 92.813632 
L 140.458707 97.86795 
L 141.977443 100.852828 
L 143.496179 104.831198 
L 145.014915 114.149777 
L 146.533651 131.994232 
L 148.052386 168.065928 
L 149.571122 188.705758 
L 151.089858 178.752306 
L 152.608594 151.613599 
L 154.12733 135.869666 
L 155.646065 138.31858 
L 157.164801 162.544337 
L 158.683537 123.313888 
L 160.202273 113.146493 
L 161.721009 109.720025 
L 163.239744 108.434203 
L 166.277216 104.669145 
L 167.795952 105.663404 
L 169.314688 111.685212 
L 170.833423 123.834957 
L 172.352159 143.842183 
L 173.870895 181.581468 
L 175.389631 169.647879 
L 176.908366 145.783391 
L 178.427102 135.403153 
L 179.945838 142.948459 
L 181.464574 149.230551 
L 182.98331 121.620286 
L 184.502045 112.954575 
L 186.020781 109.945377 
L 187.539517 108.526054 
L 189.058253 106.455886 
L 190.576989 104.812961 
L 192.095724 106.565511 
L 193.61446 113.55787 
L 195.133196 126.926022 
L 196.651932 149.059517 
L 198.170668 209.74753 
L 199.689403 162.137425 
L 201.208139 142.211495 
L 202.726875 134.541884 
L 204.245611 146.934359 
L 205.764347 141.910974 
L 207.283082 119.836114 
L 208.801818 112.451423 
L 210.320554 109.916157 
L 211.83929 108.450725 
L 213.358026 106.252973 
L 214.876761 104.98814 
L 216.395497 107.575889 
L 217.914233 115.665808 
L 219.432969 130.563693 
L 220.951705 156.097485 
L 222.47044 193.270488 
L 223.989176 155.879442 
L 225.507912 139.083728 
L 227.026648 134.081929 
L 228.545384 152.868335 
L 230.064119 136.507293 
L 231.582855 118.322639 
L 233.101591 112.053486 
L 234.620327 109.903907 
L 236.139063 108.338641 
L 237.657798 106.072734 
L 239.176534 105.286985 
L 240.69527 108.772821 
L 242.214006 118.040178 
L 243.732741 134.72452 
L 245.251477 165.691222 
L 246.770213 175.132086 
L 248.288949 150.704493 
L 249.807685 136.458106 
L 251.32642 134.129455 
L 252.845156 162.848966 
L 254.363892 132.2955 
L 255.882628 117.070678 
L 257.401364 111.767944 
L 260.438835 108.195936 
L 261.957571 105.938188 
L 263.476307 105.728354 
L 264.995043 110.172705 
L 266.513778 120.714494 
L 268.032514 139.566244 
L 269.55125 181.745574 
L 271.069986 165.590312 
L 272.588722 146.284141 
L 274.107457 134.299385 
L 275.626193 134.722763 
L 277.144929 187.239492 
L 278.663665 128.911501 
L 280.182401 116.047388 
L 281.701136 111.578693 
L 283.219872 109.913233 
L 284.738608 108.027352 
L 286.257344 105.869214 
L 287.77608 106.325822 
L 289.294815 111.790977 
L 290.813551 123.736471 
L 292.332287 145.38258 
L 293.851023 230.571562 
L 295.369759 158.898009 
L 296.888494 142.441891 
L 298.40723 132.581442 
L 299.925966 135.921193 
L 301.444702 179.377832 
L 302.963438 126.145546 
L 304.482173 115.223995 
L 306.000909 111.468726 
L 307.519645 109.907919 
L 310.557116 105.885228 
L 312.075852 107.092224 
L 313.594588 113.646679 
L 315.113324 127.175522 
L 318.150795 179.766456 
L 319.669531 153.597909 
L 321.188267 139.08108 
L 322.707003 131.288338 
L 324.225739 137.824556 
L 325.744474 158.647261 
L 327.26321 123.864729 
L 328.781946 114.575751 
L 330.300682 111.42118 
L 331.819418 109.880898 
L 333.338153 107.652383 
L 334.856889 106.004847 
L 336.375625 108.040498 
L 337.894361 115.764479 
L 339.413097 131.137012 
L 340.931832 163.131411 
L 342.450568 167.049023 
L 343.969304 149.114165 
L 345.48804 136.146126 
L 347.006776 130.412395 
L 348.525511 140.603696 
L 350.044247 148.389284 
L 351.562983 121.978552 
L 353.081719 114.080767 
L 354.600455 111.419342 
L 356.11919 109.824599 
L 357.637926 107.47534 
L 359.156662 106.245621 
L 360.675398 109.184457 
L 362.194134 118.177431 
L 363.712869 135.790559 
L 365.231605 182.045273 
L 366.750341 159.508127 
L 368.269077 145.175316 
L 369.787813 133.603712 
L 371.306548 129.953576 
L 372.825284 144.568941 
L 374.34402 141.578999 
L 375.862756 120.421803 
L 377.381491 113.719106 
L 378.900227 111.446755 
L 380.418963 109.735352 
L 381.937699 107.329428 
L 383.456435 106.624017 
L 384.97517 110.539743 
L 386.493906 120.931291 
L 388.012642 141.432587 
L 388.012642 141.432587 
" clip-path="url(#pc288ab263d)" style="fill: none; stroke: #2b737e; stroke-width: 1.5; stroke-linecap: square"/>
   </g>
   <g id="line2d_52">
    <path d="M 85.775569 289 
L 85.784219 21.265312 
L 96.415369 21.265312 
L 97.934105 28.754529 
L 99.452841 65.176087 
L 100.971577 86.118775 
L 102.490313 62.176934 
L 104.009048 46.162993 
L 105.527784 27.084463 
L 107.04652 21.265312 
L 135.9025 21.265312 
L 137.421236 37.376055 
L 138.939972 68.886222 
L 140.458707 48.559117 
L 141.977443 39.564021 
L 143.496179 47.110451 
L 146.533651 84.168175 
L 148.052386 82.785544 
L 149.571122 79.629479 
L 151.089858 114.722454 
L 152.608594 62.623654 
L 154.12733 48.552945 
L 155.646065 50.244875 
L 157.164801 61.536975 
L 158.683537 74.937398 
L 160.202273 79.947965 
L 161.721009 82.15899 
L 163.239744 129.989944 
L 164.75848 60.809914 
L 166.277216 48.62417 
L 167.795952 50.621283 
L 169.314688 61.13267 
L 170.833423 72.620819 
L 172.352159 76.715951 
L 173.870895 79.671948 
L 175.389631 128.779605 
L 176.908366 60.409412 
L 178.427102 49.224385 
L 179.945838 52.125297 
L 182.98331 75.458218 
L 184.502045 79.508932 
L 186.020781 83.982038 
L 187.539517 98.085529 
L 189.058253 57.662097 
L 190.576989 48.392843 
L 192.095724 52.056809 
L 195.133196 73.665314 
L 196.651932 76.702056 
L 198.170668 81.537578 
L 199.689403 96.810021 
L 201.208139 57.205763 
L 202.726875 48.983544 
L 204.245611 53.676771 
L 205.764347 65.796796 
L 207.283082 76.785955 
L 208.801818 79.745694 
L 210.320554 86.992052 
L 211.83929 84.773432 
L 213.358026 54.836256 
L 214.876761 48.264058 
L 216.395497 53.599731 
L 217.914233 65.289981 
L 219.432969 74.635474 
L 220.951705 76.828284 
L 222.47044 84.469764 
L 223.989176 83.713975 
L 225.507912 54.585775 
L 227.026648 49.053338 
L 228.545384 55.433165 
L 230.064119 68.128779 
L 231.582855 77.868327 
L 233.101591 80.085781 
L 234.620327 91.851894 
L 236.139063 76.050295 
L 237.657798 52.579838 
L 239.176534 48.471093 
L 240.69527 55.332263 
L 242.214006 67.32407 
L 243.732741 75.345369 
L 245.251477 77.0704 
L 246.770213 89.149538 
L 248.288949 75.173279 
L 249.807685 52.542386 
L 251.32642 49.468845 
L 252.845156 57.388872 
L 254.363892 70.377097 
L 255.882628 78.669519 
L 257.401364 80.615969 
L 258.920099 100.500408 
L 260.438835 69.551934 
L 261.957571 50.843948 
L 263.476307 49.001178 
L 264.995043 57.223774 
L 266.513778 69.218228 
L 268.032514 75.817438 
L 269.55125 77.525635 
L 271.069986 97.279471 
L 272.588722 68.84856 
L 274.107457 51.01535 
L 275.626193 50.20846 
L 277.144929 59.510311 
L 278.663665 72.474417 
L 280.182401 79.228232 
L 281.701136 81.472649 
L 283.219872 122.25813 
L 284.738608 64.439134 
L 286.257344 49.578833 
L 287.77608 49.829211 
L 289.294815 59.234235 
L 290.813551 70.916824 
L 292.332287 76.10308 
L 293.851023 78.31634 
L 295.369759 116.103216 
L 296.888494 63.909356 
L 298.40723 49.955905 
L 299.925966 51.24816 
L 301.444702 61.757565 
L 302.963438 74.359244 
L 304.482173 79.607659 
L 306.000909 82.835915 
L 307.519645 117.032582 
L 309.038381 60.320075 
L 310.557116 48.744097 
L 312.075852 50.929192 
L 315.113324 72.375456 
L 316.63206 76.267937 
L 318.150795 79.602667 
L 319.669531 120.545112 
L 321.188267 59.966472 
L 322.707003 49.324918 
L 324.225739 52.563568 
L 327.26321 75.981759 
L 328.781946 79.887506 
L 330.300682 84.970153 
L 331.819418 94.076369 
L 333.338153 56.980688 
L 334.856889 48.305776 
L 336.375625 52.274021 
L 337.894361 63.424552 
L 339.413097 73.566453 
L 340.931832 76.387019 
L 342.450568 81.617584 
L 343.969304 94.407887 
L 345.48804 56.806377 
L 347.006776 49.089562 
L 348.525511 54.129222 
L 350.044247 66.437603 
L 351.562983 77.311174 
L 353.081719 80.159682 
L 354.600455 88.322671 
L 356.11919 82.446669 
L 357.637926 54.290624 
L 359.156662 48.234011 
L 360.675398 53.834655 
L 362.194134 65.497931 
L 363.712869 74.483077 
L 365.231605 76.542376 
L 366.750341 84.746624 
L 368.269077 82.28559 
L 369.787813 54.298531 
L 371.306548 49.221113 
L 372.825284 55.917611 
L 374.34402 68.757797 
L 375.862756 78.341377 
L 377.381491 80.527227 
L 378.900227 93.809163 
L 380.418963 74.452566 
L 381.937699 52.163438 
L 383.456435 48.501491 
L 384.97517 55.579198 
L 386.493906 67.480131 
L 388.012642 75.140925 
L 388.012642 75.140925 
" clip-path="url(#pc288ab263d)" style="fill: none; stroke: #5ea04b; stroke-width: 1.5; stroke-linecap: square"/>
   </g>
   <g id="line2d_53">
    <path d="M 85.775569 289 
L 85.784219 21.265312 
L 91.859162 21.265312 
L 93.377898 47.137658 
L 94.896634 71.021253 
L 96.415369 62.964704 
L 100.971577 53.19178 
L 102.490313 49.320749 
L 104.009048 42.852505 
L 105.527784 30.814927 
L 107.04652 21.265312 
L 116.158935 21.265312 
L 117.67767 48.378114 
L 119.196406 21.265312 
L 120.715142 21.265312 
L 122.233878 41.917231 
L 123.752614 96.247498 
L 125.271349 91.458027 
L 126.790085 109.716839 
L 128.308821 149.2013 
L 129.827557 126.931228 
L 131.346293 151.397972 
L 132.865028 125.955938 
L 134.383764 106.395546 
L 135.9025 98.087152 
L 137.421236 98.02932 
L 138.939972 100.889503 
L 140.458707 105.081289 
L 141.977443 111.951023 
L 143.496179 126.423049 
L 145.014915 211.193481 
L 146.533651 131.397816 
L 148.052386 121.730367 
L 149.571122 118.020412 
L 151.089858 116.542967 
L 152.608594 116.616662 
L 154.12733 119.570315 
L 155.646065 128.495553 
L 157.164801 154.414903 
L 158.683537 147.491544 
L 160.202273 130.30069 
L 161.721009 123.461728 
L 163.239744 119.927165 
L 164.75848 118.608856 
L 166.277216 120.661383 
L 167.795952 128.835435 
L 169.314688 152.812437 
L 170.833423 149.425794 
L 172.352159 130.929555 
L 173.870895 123.630069 
L 175.389631 119.887774 
L 176.908366 118.669387 
L 178.427102 121.250594 
L 179.945838 130.617721 
L 181.464574 160.653887 
L 184.502045 129.42479 
L 186.020781 122.794336 
L 187.539517 119.295343 
L 189.058253 118.215164 
L 190.576989 120.971703 
L 192.095724 130.658871 
L 193.61446 162.710667 
L 195.133196 143.526242 
L 196.651932 128.504869 
L 198.170668 122.025594 
L 199.689403 118.687069 
L 201.208139 117.973218 
L 202.726875 121.482032 
L 204.245611 132.733857 
L 205.764347 179.679333 
L 207.283082 139.772008 
L 208.801818 126.969993 
L 210.320554 121.113091 
L 211.83929 118.031465 
L 213.358026 117.492216 
L 214.876761 121.226919 
L 216.395497 132.902176 
L 217.914233 187.176486 
L 219.432969 138.467895 
L 220.951705 126.091863 
L 222.47044 120.384024 
L 223.989176 117.488975 
L 225.507912 117.370561 
L 227.026648 121.942876 
L 228.545384 135.514126 
L 230.064119 188.585907 
L 231.582855 135.482707 
L 233.101591 124.736921 
L 234.620327 119.544458 
L 236.139063 116.878298 
L 237.657798 116.943519 
L 239.176534 121.771065 
L 240.69527 135.874202 
L 242.214006 179.658533 
L 243.732741 134.35996 
L 245.251477 123.935013 
L 246.770213 118.881435 
L 248.288949 116.424642 
L 249.807685 116.964284 
L 251.32642 122.723093 
L 252.845156 139.22691 
L 254.363892 162.069129 
L 255.882628 131.913377 
L 257.401364 122.734278 
L 258.920099 118.110404 
L 260.438835 115.862081 
L 261.957571 116.597772 
L 263.476307 122.643726 
L 264.995043 139.847655 
L 266.513778 158.925673 
L 268.032514 130.929283 
L 269.55125 122.001482 
L 271.069986 117.512141 
L 272.588722 115.501492 
L 274.107457 116.769694 
L 275.626193 123.859462 
L 277.144929 144.319137 
L 278.663665 150.643802 
L 280.182401 128.874962 
L 281.701136 120.928165 
L 283.219872 116.801463 
L 284.738608 114.987067 
L 286.257344 116.467414 
L 287.77608 123.881457 
L 289.294815 145.340056 
L 290.813551 148.641424 
L 292.332287 128.000279 
L 293.851023 120.257475 
L 295.369759 116.266819 
L 296.888494 114.724222 
L 298.40723 116.800086 
L 299.925966 125.399567 
L 301.444702 151.783302 
L 302.963438 143.242014 
L 304.482173 126.243817 
L 306.000909 119.290503 
L 307.519645 115.610208 
L 309.038381 114.258841 
L 310.557116 116.56595 
L 312.075852 125.535176 
L 313.594588 153.560015 
L 315.113324 141.74361 
L 316.63206 125.458622 
L 318.150795 118.676553 
L 319.669531 115.139443 
L 321.188267 114.099633 
L 322.707003 117.070887 
L 324.225739 127.412456 
L 325.744474 164.665926 
L 327.26321 137.774665 
L 328.781946 123.935535 
L 330.300682 117.799414 
L 331.819418 114.532479 
L 333.338153 113.685089 
L 334.856889 116.909214 
L 336.375625 127.679775 
L 337.894361 168.654944 
L 339.413097 136.567816 
L 340.931832 123.225627 
L 342.450568 117.238295 
L 343.969304 114.127256 
L 345.48804 113.63653 
L 347.006776 117.600559 
L 348.525511 130.003234 
L 350.044247 215.509531 
L 351.562983 133.460563 
L 353.081719 121.889762 
L 354.600455 116.437989 
L 356.11919 113.567143 
L 357.637926 113.275296 
L 359.156662 117.516242 
L 360.675398 130.430714 
L 362.194134 209.455446 
L 363.712869 132.447767 
L 365.231605 121.24466 
L 366.750341 115.927084 
L 368.269077 113.230465 
L 369.787813 113.345417 
L 371.306548 118.411854 
L 372.825284 133.341488 
L 374.34402 167.725922 
L 375.862756 129.918966 
L 377.381491 120.061768 
L 378.900227 115.193392 
L 380.418963 112.715806 
L 381.937699 113.040472 
L 383.456435 118.410678 
L 384.97517 133.977272 
L 386.493906 163.296505 
L 388.012642 129.046892 
L 388.012642 129.046892 
" clip-path="url(#pc288ab263d)" style="fill: none; stroke: #bdab62; stroke-width: 1.5; stroke-linecap: square"/>
   </g>
   <g id="patch_3">
    <path d="M 69.078125 241.036875 
L 69.078125 10.8 
" style="fill: none; stroke: #000000; stroke-width: 0.8; stroke-linejoin: miter; stroke-linecap: square"/>
   </g>
   <g id="patch_4">
    <path d="M 403.2 241.036875 
L 403.2 10.8 
" style="fill: none; stroke: #000000; stroke-width: 0.8; stroke-linejoin: miter; stroke-linecap: square"/>
   </g>
   <g id="patch_5">
    <path d="M 69.078125 241.036875 
L 403.2 241.036875 
" style="fill: none; stroke: #000000; stroke-width: 0.8; stroke-linejoin: miter; stroke-linecap: square"/>
   </g>
   <g id="patch_6">
    <path d="M 69.078125 10.8 
L 403.2 10.8 
" style="fill: none; stroke: #000000; stroke-width: 0.8; stroke-linejoin: miter; stroke-linecap: square"/>
   </g>
   <g id="legend_1">
    <g id="patch_7">
     <path d="M 345.51 236.536875 
L 396.9 236.536875 
Q 398.7 236.536875 398.7 234.736875 
L 398.7 194.596875 
Q 398.7 192.796875 396.9 192.796875 
L 345.51 192.796875 
Q 343.71 192.796875 343.71 194.596875 
L 343.71 234.736875 
Q 343.71 236.536875 345.51 236.536875 
z
" style="fill: #ffffff; opacity: 0.8; stroke: #cccccc; stroke-linejoin: miter"/>
    </g>
    <g id="line2d_54">
     <path d="M 347.31 200.176875 
L 356.31 200.176875 
L 365.31 200.176875 
" style="fill: none; stroke: #2b737e; stroke-width: 1.5; stroke-linecap: square"/>
    </g>
    <g id="text_14">
     <!-- $|u_{s,0}|$ -->
     <g transform="translate(372.51 203.326875) scale(0.09 -0.09)">
      <defs>
       <path id="DejaVuSans-7c" d="M 1344 4891 
L 1344 -1509 
L 813 -1509 
L 813 4891 
L 1344 4891 
z
" transform="scale(0.015625)"/>
       <path id="DejaVuSans-Oblique-75" d="M 428 1388 
L 838 3500 
L 1416 3500 
L 1006 1409 
Q 975 1256 961 1147 
Q 947 1038 947 966 
Q 947 700 1109 554 
Q 1272 409 1569 409 
Q 2031 409 2368 721 
Q 2706 1034 2809 1563 
L 3194 3500 
L 3769 3500 
L 3091 0 
L 2516 0 
L 2631 550 
Q 2388 244 2052 76 
Q 1716 -91 1338 -91 
Q 878 -91 622 161 
Q 366 413 366 863 
Q 366 956 381 1097 
Q 397 1238 428 1388 
z
" transform="scale(0.015625)"/>
       <path id="DejaVuSans-Oblique-73" d="M 3200 3397 
L 3091 2853 
Q 2863 2978 2609 3040 
Q 2356 3103 2088 3103 
Q 1634 3103 1373 2948 
Q 1113 2794 1113 2528 
Q 1113 2219 1719 2053 
Q 1766 2041 1788 2034 
L 1972 1978 
Q 2547 1819 2739 1644 
Q 2931 1469 2931 1166 
Q 2931 609 2489 259 
Q 2047 -91 1331 -91 
Q 1053 -91 747 -37 
Q 441 16 72 128 
L 184 722 
Q 500 559 806 475 
Q 1113 391 1394 391 
Q 1816 391 2080 572 
Q 2344 753 2344 1031 
Q 2344 1331 1650 1516 
L 1591 1531 
L 1394 1581 
Q 956 1697 753 1886 
Q 550 2075 550 2369 
Q 550 2928 970 3256 
Q 1391 3584 2113 3584 
Q 2397 3584 2667 3537 
Q 2938 3491 3200 3397 
z
" transform="scale(0.015625)"/>
       <path id="DejaVuSans-2c" d="M 750 794 
L 1409 794 
L 1409 256 
L 897 -744 
L 494 -744 
L 750 256 
L 750 794 
z
" transform="scale(0.015625)"/>
      </defs>
      <use xlink:href="#DejaVuSans-7c" transform="translate(0 0.578125)"/>
      <use xlink:href="#DejaVuSans-Oblique-75" transform="translate(33.691406 0.578125)"/>
      <use xlink:href="#DejaVuSans-Oblique-73" transform="translate(97.070312 -15.828125) scale(0.7)"/>
      <use xlink:href="#DejaVuSans-2c" transform="translate(133.540039 -15.828125) scale(0.7)"/>
      <use xlink:href="#DejaVuSans-30" transform="translate(169.428711 -15.828125) scale(0.7)"/>
      <use xlink:href="#DejaVuSans-7c" transform="translate(216.699219 0.578125)"/>
     </g>
    </g>
    <g id="line2d_55">
     <path d="M 347.31 213.856875 
L 356.31 213.856875 
L 365.31 213.856875 
" style="fill: none; stroke: #5ea04b; stroke-width: 1.5; stroke-linecap: square"/>
    </g>
    <g id="text_15">
     <!-- $|u_{s,1}|$ -->
     <g transform="translate(372.51 217.006875) scale(0.09 -0.09)">
      <use xlink:href="#DejaVuSans-7c" transform="translate(0 0.578125)"/>
      <use xlink:href="#DejaVuSans-Oblique-75" transform="translate(33.691406 0.578125)"/>
      <use xlink:href="#DejaVuSans-Oblique-73" transform="translate(97.070312 -15.828125) scale(0.7)"/>
      <use xlink:href="#DejaVuSans-2c" transform="translate(133.540039 -15.828125) scale(0.7)"/>
      <use xlink:href="#DejaVuSans-31" transform="translate(169.428711 -15.828125) scale(0.7)"/>
      <use xlink:href="#DejaVuSans-7c" transform="translate(216.699219 0.578125)"/>
     </g>
    </g>
    <g id="line2d_56">
     <path d="M 347.31 227.536875 
L 356.31 227.536875 
L 365.31 227.536875 
" style="fill: none; stroke: #bdab62; stroke-width: 1.5; stroke-linecap: square"/>
    </g>
    <g id="text_16">
     <!-- $|u_{s,2}|$ -->
     <g transform="translate(372.51 230.686875) scale(0.09 -0.09)">
      <use xlink:href="#DejaVuSans-7c" transform="translate(0 0.578125)"/>
      <use xlink:href="#DejaVuSans-Oblique-75" transform="translate(33.691406 0.578125)"/>
      <use xlink:href="#DejaVuSans-Oblique-73" transform="translate(97.070312 -15.828125) scale(0.7)"/>
      <use xlink:href="#DejaVuSans-2c" transform="translate(133.540039 -15.828125) scale(0.7)"/>
      <use xlink:href="#DejaVuSans-32" transform="translate(169.428711 -15.828125) scale(0.7)"/>
      <use xlink:href="#DejaVuSans-7c" transform="translate(216.699219 0.578125)"/>
     </g>
    </g>
   </g>
  </g>
 </g>
 <defs>
  <clipPath id="pc288ab263d">
   <rect x="69.078125" y="10.8" width="334.121875" height="230.236875"/>
  </clipPath>
 </defs>
</svg>
