<?xml version="1.0" encoding="utf-8" standalone="no"?>
<!DOCTYPE svg PUBLIC "-//W3C//DTD SVG 1.1//EN"
  "http://www.w3.org/Graphics/SVG/1.1/DTD/svg11.dtd">
<svg xmlns:xlink="http://www.w3.org/1999/xlink" width="342pt" height="341.28pt" viewBox="0 0 342 341.28" xmlns="http://www.w3.org/2000/svg" version="1.1">
 <metadata>
  <rdf:RDF xmlns:dc="http://purl.org/dc/elements/1.1/" xmlns:cc="http://creativecommons.org/ns#" xmlns:rdf="http://www.w3.org/1999/02/22-rdf-syntax-ns#">
   <cc:Work>
    <dc:type rdf:resource="http://purl.org/dc/dcmitype/StillImage"/>
    <dc:date>2023-09-07T00:35:28.281350</dc:date>
    <dc:format>image/svg+xml</dc:format>
    <dc:creator>
     <cc:Agent>
      <dc:title>Matplotlib v3.7.2, https://matplotlib.org/</dc:title>
     </cc:Agent>
    </dc:creator>
   </cc:Work>
  </rdf:RDF>
 </metadata>
 <defs>
  <style type="text/css">*{stroke-linejoin: round; stroke-linecap: butt}</style>
 </defs>
 <g id="figure_1">
  <g id="patch_1">
   <path d="M 0 341.28 
L 342 341.28 
L 342 0 
L 0 0 
L 0 341.28 
z
" style="fill: none"/>
  </g>
  <g id="axes_1">
   <g id="patch_2">
    <path d="M 86.6275 294.316875 
L 331.2 294.316875 
L 331.2 10.8 
L 86.6275 10.8 
L 86.6275 294.316875 
z
" style="fill: none"/>
   </g>
   <g id="patch_3">
    <path d="M 208.913872 255.890401 
C 232.553574 255.890401 255.228237 245.002693 271.94403 225.625169 
C 288.659823 206.247646 298.051976 179.962394 298.051976 152.558437 
C 298.051976 125.154481 288.659823 98.869229 271.94403 79.491706 
C 255.228237 60.114182 232.553574 49.226474 208.913872 49.226474 
C 185.274171 49.226474 162.599508 60.114182 145.883715 79.491706 
C 129.167922 98.869229 119.775769 125.154481 119.775769 152.558437 
C 119.775769 179.962394 129.167922 206.247646 145.883715 225.625169 
C 162.599508 245.002693 185.274171 255.890401 208.913872 255.890401 
z
" clip-path="url(#p200d9a39b4)" style="fill: #008800; stroke: #008800; stroke-linejoin: miter"/>
   </g>
   <g id="matplotlib.axis_1">
    <g id="xtick_1">
     <g id="line2d_1">
      <path d="M 139.036015 294.316875 
L 139.036015 10.8 
" clip-path="url(#p200d9a39b4)" style="fill: none; stroke: #b0b0b0; stroke-width: 0.8; stroke-linecap: square"/>
     </g>
     <g id="line2d_2">
      <defs>
       <path id="m2722e3481e" d="M 0 0 
L 0 3.5 
" style="stroke: #000000; stroke-width: 0.8"/>
      </defs>
      <g>
       <use xlink:href="#m2722e3481e" x="139.036015" y="294.316875" style="stroke: #000000; stroke-width: 0.8"/>
      </g>
     </g>
     <g id="text_1">
      <!-- −5000 -->
      <g transform="translate(111.972265 313.474375) scale(0.16 -0.16)">
       <defs>
        <path id="DejaVuSans-2212" d="M 678 2272 
L 4684 2272 
L 4684 1741 
L 678 1741 
L 678 2272 
z
" transform="scale(0.015625)"/>
        <path id="DejaVuSans-35" d="M 691 4666 
L 3169 4666 
L 3169 4134 
L 1269 4134 
L 1269 2991 
Q 1406 3038 1543 3061 
Q 1681 3084 1819 3084 
Q 2600 3084 3056 2656 
Q 3513 2228 3513 1497 
Q 3513 744 3044 326 
Q 2575 -91 1722 -91 
Q 1428 -91 1123 -41 
Q 819 9 494 109 
L 494 744 
Q 775 591 1075 516 
Q 1375 441 1709 441 
Q 2250 441 2565 725 
Q 2881 1009 2881 1497 
Q 2881 1984 2565 2268 
Q 2250 2553 1709 2553 
Q 1456 2553 1204 2497 
Q 953 2441 691 2322 
L 691 4666 
z
" transform="scale(0.015625)"/>
        <path id="DejaVuSans-30" d="M 2034 4250 
Q 1547 4250 1301 3770 
Q 1056 3291 1056 2328 
Q 1056 1369 1301 889 
Q 1547 409 2034 409 
Q 2525 409 2770 889 
Q 3016 1369 3016 2328 
Q 3016 3291 2770 3770 
Q 2525 4250 2034 4250 
z
M 2034 4750 
Q 2819 4750 3233 4129 
Q 3647 3509 3647 2328 
Q 3647 1150 3233 529 
Q 2819 -91 2034 -91 
Q 1250 -91 836 529 
Q 422 1150 422 2328 
Q 422 3509 836 4129 
Q 1250 4750 2034 4750 
z
" transform="scale(0.015625)"/>
       </defs>
       <use xlink:href="#DejaVuSans-2212"/>
       <use xlink:href="#DejaVuSans-35" x="83.789062"/>
       <use xlink:href="#DejaVuSans-30" x="147.412109"/>
       <use xlink:href="#DejaVuSans-30" x="211.035156"/>
       <use xlink:href="#DejaVuSans-30" x="274.658203"/>
      </g>
     </g>
    </g>
    <g id="xtick_2">
     <g id="line2d_3">
      <path d="M 208.913872 294.316875 
L 208.913872 10.8 
" clip-path="url(#p200d9a39b4)" style="fill: none; stroke: #b0b0b0; stroke-width: 0.8; stroke-linecap: square"/>
     </g>
     <g id="line2d_4">
      <g>
       <use xlink:href="#m2722e3481e" x="208.913872" y="294.316875" style="stroke: #000000; stroke-width: 0.8"/>
      </g>
     </g>
     <g id="text_2">
      <!-- 0 -->
      <g transform="translate(203.823872 313.474375) scale(0.16 -0.16)">
       <use xlink:href="#DejaVuSans-30"/>
      </g>
     </g>
    </g>
    <g id="xtick_3">
     <g id="line2d_5">
      <path d="M 278.791729 294.316875 
L 278.791729 10.8 
" clip-path="url(#p200d9a39b4)" style="fill: none; stroke: #b0b0b0; stroke-width: 0.8; stroke-linecap: square"/>
     </g>
     <g id="line2d_6">
      <g>
       <use xlink:href="#m2722e3481e" x="278.791729" y="294.316875" style="stroke: #000000; stroke-width: 0.8"/>
      </g>
     </g>
     <g id="text_3">
      <!-- 5000 -->
      <g transform="translate(258.431729 313.474375) scale(0.16 -0.16)">
       <use xlink:href="#DejaVuSans-35"/>
       <use xlink:href="#DejaVuSans-30" x="63.623047"/>
       <use xlink:href="#DejaVuSans-30" x="127.246094"/>
       <use xlink:href="#DejaVuSans-30" x="190.869141"/>
      </g>
     </g>
    </g>
    <g id="text_4">
     <!-- $i_e$ Cord. [km] -->
     <g transform="translate(177.01375 328.400313) scale(0.1 -0.1)">
      <defs>
       <path id="DejaVuSans-Oblique-69" d="M 1172 4863 
L 1747 4863 
L 1606 4134 
L 1031 4134 
L 1172 4863 
z
M 909 3500 
L 1484 3500 
L 800 0 
L 225 0 
L 909 3500 
z
" transform="scale(0.015625)"/>
       <path id="DejaVuSans-Oblique-65" d="M 3078 2063 
Q 3088 2113 3092 2166 
Q 3097 2219 3097 2272 
Q 3097 2653 2873 2875 
Q 2650 3097 2266 3097 
Q 1838 3097 1509 2826 
Q 1181 2556 1013 2059 
L 3078 2063 
z
M 3578 1613 
L 903 1613 
Q 884 1494 878 1425 
Q 872 1356 872 1306 
Q 872 872 1139 634 
Q 1406 397 1894 397 
Q 2269 397 2603 481 
Q 2938 566 3225 728 
L 3116 159 
Q 2806 34 2476 -28 
Q 2147 -91 1806 -91 
Q 1078 -91 686 257 
Q 294 606 294 1247 
Q 294 1794 489 2264 
Q 684 2734 1063 3103 
Q 1306 3334 1642 3459 
Q 1978 3584 2356 3584 
Q 2950 3584 3301 3228 
Q 3653 2872 3653 2272 
Q 3653 2128 3634 1964 
Q 3616 1800 3578 1613 
z
" transform="scale(0.015625)"/>
       <path id="DejaVuSans-20" transform="scale(0.015625)"/>
       <path id="DejaVuSans-43" d="M 4122 4306 
L 4122 3641 
Q 3803 3938 3442 4084 
Q 3081 4231 2675 4231 
Q 1875 4231 1450 3742 
Q 1025 3253 1025 2328 
Q 1025 1406 1450 917 
Q 1875 428 2675 428 
Q 3081 428 3442 575 
Q 3803 722 4122 1019 
L 4122 359 
Q 3791 134 3420 21 
Q 3050 -91 2638 -91 
Q 1578 -91 968 557 
Q 359 1206 359 2328 
Q 359 3453 968 4101 
Q 1578 4750 2638 4750 
Q 3056 4750 3426 4639 
Q 3797 4528 4122 4306 
z
" transform="scale(0.015625)"/>
       <path id="DejaVuSans-6f" d="M 1959 3097 
Q 1497 3097 1228 2736 
Q 959 2375 959 1747 
Q 959 1119 1226 758 
Q 1494 397 1959 397 
Q 2419 397 2687 759 
Q 2956 1122 2956 1747 
Q 2956 2369 2687 2733 
Q 2419 3097 1959 3097 
z
M 1959 3584 
Q 2709 3584 3137 3096 
Q 3566 2609 3566 1747 
Q 3566 888 3137 398 
Q 2709 -91 1959 -91 
Q 1206 -91 779 398 
Q 353 888 353 1747 
Q 353 2609 779 3096 
Q 1206 3584 1959 3584 
z
" transform="scale(0.015625)"/>
       <path id="DejaVuSans-72" d="M 2631 2963 
Q 2534 3019 2420 3045 
Q 2306 3072 2169 3072 
Q 1681 3072 1420 2755 
Q 1159 2438 1159 1844 
L 1159 0 
L 581 0 
L 581 3500 
L 1159 3500 
L 1159 2956 
Q 1341 3275 1631 3429 
Q 1922 3584 2338 3584 
Q 2397 3584 2469 3576 
Q 2541 3569 2628 3553 
L 2631 2963 
z
" transform="scale(0.015625)"/>
       <path id="DejaVuSans-64" d="M 2906 2969 
L 2906 4863 
L 3481 4863 
L 3481 0 
L 2906 0 
L 2906 525 
Q 2725 213 2448 61 
Q 2172 -91 1784 -91 
Q 1150 -91 751 415 
Q 353 922 353 1747 
Q 353 2572 751 3078 
Q 1150 3584 1784 3584 
Q 2172 3584 2448 3432 
Q 2725 3281 2906 2969 
z
M 947 1747 
Q 947 1113 1208 752 
Q 1469 391 1925 391 
Q 2381 391 2643 752 
Q 2906 1113 2906 1747 
Q 2906 2381 2643 2742 
Q 2381 3103 1925 3103 
Q 1469 3103 1208 2742 
Q 947 2381 947 1747 
z
" transform="scale(0.015625)"/>
       <path id="DejaVuSans-2e" d="M 684 794 
L 1344 794 
L 1344 0 
L 684 0 
L 684 794 
z
" transform="scale(0.015625)"/>
       <path id="DejaVuSans-5b" d="M 550 4863 
L 1875 4863 
L 1875 4416 
L 1125 4416 
L 1125 -397 
L 1875 -397 
L 1875 -844 
L 550 -844 
L 550 4863 
z
" transform="scale(0.015625)"/>
       <path id="DejaVuSans-6b" d="M 581 4863 
L 1159 4863 
L 1159 1991 
L 2875 3500 
L 3609 3500 
L 1753 1863 
L 3688 0 
L 2938 0 
L 1159 1709 
L 1159 0 
L 581 0 
L 581 4863 
z
" transform="scale(0.015625)"/>
       <path id="DejaVuSans-6d" d="M 3328 2828 
Q 3544 3216 3844 3400 
Q 4144 3584 4550 3584 
Q 5097 3584 5394 3201 
Q 5691 2819 5691 2113 
L 5691 0 
L 5113 0 
L 5113 2094 
Q 5113 2597 4934 2840 
Q 4756 3084 4391 3084 
Q 3944 3084 3684 2787 
Q 3425 2491 3425 1978 
L 3425 0 
L 2847 0 
L 2847 2094 
Q 2847 2600 2669 2842 
Q 2491 3084 2119 3084 
Q 1678 3084 1418 2786 
Q 1159 2488 1159 1978 
L 1159 0 
L 581 0 
L 581 3500 
L 1159 3500 
L 1159 2956 
Q 1356 3278 1631 3431 
Q 1906 3584 2284 3584 
Q 2666 3584 2933 3390 
Q 3200 3197 3328 2828 
z
" transform="scale(0.015625)"/>
       <path id="DejaVuSans-5d" d="M 1947 4863 
L 1947 -844 
L 622 -844 
L 622 -397 
L 1369 -397 
L 1369 4416 
L 622 4416 
L 622 4863 
L 1947 4863 
z
" transform="scale(0.015625)"/>
      </defs>
      <use xlink:href="#DejaVuSans-Oblique-69" transform="translate(0 0.015625)"/>
      <use xlink:href="#DejaVuSans-Oblique-65" transform="translate(27.783203 -16.390625) scale(0.7)"/>
      <use xlink:href="#DejaVuSans-20" transform="translate(73.583984 0.015625)"/>
      <use xlink:href="#DejaVuSans-43" transform="translate(105.371094 0.015625)"/>
      <use xlink:href="#DejaVuSans-6f" transform="translate(175.195312 0.015625)"/>
      <use xlink:href="#DejaVuSans-72" transform="translate(236.376953 0.015625)"/>
      <use xlink:href="#DejaVuSans-64" transform="translate(277.490234 0.015625)"/>
      <use xlink:href="#DejaVuSans-2e" transform="translate(340.966797 0.015625)"/>
      <use xlink:href="#DejaVuSans-20" transform="translate(372.753906 0.015625)"/>
      <use xlink:href="#DejaVuSans-5b" transform="translate(404.541016 0.015625)"/>
      <use xlink:href="#DejaVuSans-6b" transform="translate(443.554688 0.015625)"/>
      <use xlink:href="#DejaVuSans-6d" transform="translate(501.464844 0.015625)"/>
      <use xlink:href="#DejaVuSans-5d" transform="translate(598.876953 0.015625)"/>
     </g>
    </g>
   </g>
   <g id="matplotlib.axis_2">
    <g id="ytick_1">
     <g id="line2d_7">
      <path d="M 86.6275 274.06567 
L 331.2 274.06567 
" clip-path="url(#p200d9a39b4)" style="fill: none; stroke: #b0b0b0; stroke-width: 0.8; stroke-linecap: square"/>
     </g>
     <g id="line2d_8">
      <defs>
       <path id="m3006fbd581" d="M 0 0 
L -3.5 0 
" style="stroke: #000000; stroke-width: 0.8"/>
      </defs>
      <g>
       <use xlink:href="#m3006fbd581" x="86.6275" y="274.06567" style="stroke: #000000; stroke-width: 0.8"/>
      </g>
     </g>
     <g id="text_5">
      <!-- −7500 -->
      <g transform="translate(25.5 280.14442) scale(0.16 -0.16)">
       <defs>
        <path id="DejaVuSans-37" d="M 525 4666 
L 3525 4666 
L 3525 4397 
L 1831 0 
L 1172 0 
L 2766 4134 
L 525 4134 
L 525 4666 
z
" transform="scale(0.015625)"/>
       </defs>
       <use xlink:href="#DejaVuSans-2212"/>
       <use xlink:href="#DejaVuSans-37" x="83.789062"/>
       <use xlink:href="#DejaVuSans-35" x="147.412109"/>
       <use xlink:href="#DejaVuSans-30" x="211.035156"/>
       <use xlink:href="#DejaVuSans-30" x="274.658203"/>
      </g>
     </g>
    </g>
    <g id="ytick_2">
     <g id="line2d_9">
      <path d="M 86.6275 233.563259 
L 331.2 233.563259 
" clip-path="url(#p200d9a39b4)" style="fill: none; stroke: #b0b0b0; stroke-width: 0.8; stroke-linecap: square"/>
     </g>
     <g id="line2d_10">
      <g>
       <use xlink:href="#m3006fbd581" x="86.6275" y="233.563259" style="stroke: #000000; stroke-width: 0.8"/>
      </g>
     </g>
     <g id="text_6">
      <!-- −5000 -->
      <g transform="translate(25.5 239.642009) scale(0.16 -0.16)">
       <use xlink:href="#DejaVuSans-2212"/>
       <use xlink:href="#DejaVuSans-35" x="83.789062"/>
       <use xlink:href="#DejaVuSans-30" x="147.412109"/>
       <use xlink:href="#DejaVuSans-30" x="211.035156"/>
       <use xlink:href="#DejaVuSans-30" x="274.658203"/>
      </g>
     </g>
    </g>
    <g id="ytick_3">
     <g id="line2d_11">
      <path d="M 86.6275 193.060848 
L 331.2 193.060848 
" clip-path="url(#p200d9a39b4)" style="fill: none; stroke: #b0b0b0; stroke-width: 0.8; stroke-linecap: square"/>
     </g>
     <g id="line2d_12">
      <g>
       <use xlink:href="#m3006fbd581" x="86.6275" y="193.060848" style="stroke: #000000; stroke-width: 0.8"/>
      </g>
     </g>
     <g id="text_7">
      <!-- −2500 -->
      <g transform="translate(25.5 199.139598) scale(0.16 -0.16)">
       <defs>
        <path id="DejaVuSans-32" d="M 1228 531 
L 3431 531 
L 3431 0 
L 469 0 
L 469 531 
Q 828 903 1448 1529 
Q 2069 2156 2228 2338 
Q 2531 2678 2651 2914 
Q 2772 3150 2772 3378 
Q 2772 3750 2511 3984 
Q 2250 4219 1831 4219 
Q 1534 4219 1204 4116 
Q 875 4013 500 3803 
L 500 4441 
Q 881 4594 1212 4672 
Q 1544 4750 1819 4750 
Q 2544 4750 2975 4387 
Q 3406 4025 3406 3419 
Q 3406 3131 3298 2873 
Q 3191 2616 2906 2266 
Q 2828 2175 2409 1742 
Q 1991 1309 1228 531 
z
" transform="scale(0.015625)"/>
       </defs>
       <use xlink:href="#DejaVuSans-2212"/>
       <use xlink:href="#DejaVuSans-32" x="83.789062"/>
       <use xlink:href="#DejaVuSans-35" x="147.412109"/>
       <use xlink:href="#DejaVuSans-30" x="211.035156"/>
       <use xlink:href="#DejaVuSans-30" x="274.658203"/>
      </g>
     </g>
    </g>
    <g id="ytick_4">
     <g id="line2d_13">
      <path d="M 86.6275 152.558437 
L 331.2 152.558437 
" clip-path="url(#p200d9a39b4)" style="fill: none; stroke: #b0b0b0; stroke-width: 0.8; stroke-linecap: square"/>
     </g>
     <g id="line2d_14">
      <g>
       <use xlink:href="#m3006fbd581" x="86.6275" y="152.558437" style="stroke: #000000; stroke-width: 0.8"/>
      </g>
     </g>
     <g id="text_8">
      <!-- 0 -->
      <g transform="translate(69.4475 158.637188) scale(0.16 -0.16)">
       <use xlink:href="#DejaVuSans-30"/>
      </g>
     </g>
    </g>
    <g id="ytick_5">
     <g id="line2d_15">
      <path d="M 86.6275 112.056027 
L 331.2 112.056027 
" clip-path="url(#p200d9a39b4)" style="fill: none; stroke: #b0b0b0; stroke-width: 0.8; stroke-linecap: square"/>
     </g>
     <g id="line2d_16">
      <g>
       <use xlink:href="#m3006fbd581" x="86.6275" y="112.056027" style="stroke: #000000; stroke-width: 0.8"/>
      </g>
     </g>
     <g id="text_9">
      <!-- 2500 -->
      <g transform="translate(38.9075 118.134777) scale(0.16 -0.16)">
       <use xlink:href="#DejaVuSans-32"/>
       <use xlink:href="#DejaVuSans-35" x="63.623047"/>
       <use xlink:href="#DejaVuSans-30" x="127.246094"/>
       <use xlink:href="#DejaVuSans-30" x="190.869141"/>
      </g>
     </g>
    </g>
    <g id="ytick_6">
     <g id="line2d_17">
      <path d="M 86.6275 71.553616 
L 331.2 71.553616 
" clip-path="url(#p200d9a39b4)" style="fill: none; stroke: #b0b0b0; stroke-width: 0.8; stroke-linecap: square"/>
     </g>
     <g id="line2d_18">
      <g>
       <use xlink:href="#m3006fbd581" x="86.6275" y="71.553616" style="stroke: #000000; stroke-width: 0.8"/>
      </g>
     </g>
     <g id="text_10">
      <!-- 5000 -->
      <g transform="translate(38.9075 77.632366) scale(0.16 -0.16)">
       <use xlink:href="#DejaVuSans-35"/>
       <use xlink:href="#DejaVuSans-30" x="63.623047"/>
       <use xlink:href="#DejaVuSans-30" x="127.246094"/>
       <use xlink:href="#DejaVuSans-30" x="190.869141"/>
      </g>
     </g>
    </g>
    <g id="ytick_7">
     <g id="line2d_19">
      <path d="M 86.6275 31.051205 
L 331.2 31.051205 
" clip-path="url(#p200d9a39b4)" style="fill: none; stroke: #b0b0b0; stroke-width: 0.8; stroke-linecap: square"/>
     </g>
     <g id="line2d_20">
      <g>
       <use xlink:href="#m3006fbd581" x="86.6275" y="31.051205" style="stroke: #000000; stroke-width: 0.8"/>
      </g>
     </g>
     <g id="text_11">
      <!-- 7500 -->
      <g transform="translate(38.9075 37.129955) scale(0.16 -0.16)">
       <use xlink:href="#DejaVuSans-37"/>
       <use xlink:href="#DejaVuSans-35" x="63.623047"/>
       <use xlink:href="#DejaVuSans-30" x="127.246094"/>
       <use xlink:href="#DejaVuSans-30" x="190.869141"/>
      </g>
     </g>
    </g>
    <g id="text_12">
     <!-- $i_p$ Cord. [km] -->
     <g transform="translate(18.4 184.558437) rotate(-90) scale(0.1 -0.1)">
      <defs>
       <path id="DejaVuSans-Oblique-70" d="M 3175 2156 
Q 3175 2616 2975 2859 
Q 2775 3103 2400 3103 
Q 2144 3103 1911 2972 
Q 1678 2841 1497 2591 
Q 1319 2344 1212 1994 
Q 1106 1644 1106 1300 
Q 1106 863 1306 627 
Q 1506 391 1875 391 
Q 2147 391 2380 519 
Q 2613 647 2778 891 
Q 2956 1147 3065 1494 
Q 3175 1841 3175 2156 
z
M 1394 2969 
Q 1625 3272 1939 3428 
Q 2253 3584 2638 3584 
Q 3175 3584 3472 3232 
Q 3769 2881 3769 2247 
Q 3769 1728 3584 1258 
Q 3400 788 3053 416 
Q 2822 169 2531 39 
Q 2241 -91 1919 -91 
Q 1547 -91 1294 64 
Q 1041 219 916 525 
L 556 -1331 
L -19 -1331 
L 922 3500 
L 1497 3500 
L 1394 2969 
z
" transform="scale(0.015625)"/>
      </defs>
      <use xlink:href="#DejaVuSans-Oblique-69" transform="translate(0 0.015625)"/>
      <use xlink:href="#DejaVuSans-Oblique-70" transform="translate(27.783203 -16.390625) scale(0.7)"/>
      <use xlink:href="#DejaVuSans-20" transform="translate(74.951172 0.015625)"/>
      <use xlink:href="#DejaVuSans-43" transform="translate(106.738281 0.015625)"/>
      <use xlink:href="#DejaVuSans-6f" transform="translate(176.5625 0.015625)"/>
      <use xlink:href="#DejaVuSans-72" transform="translate(237.744141 0.015625)"/>
      <use xlink:href="#DejaVuSans-64" transform="translate(278.857422 0.015625)"/>
      <use xlink:href="#DejaVuSans-2e" transform="translate(342.333984 0.015625)"/>
      <use xlink:href="#DejaVuSans-20" transform="translate(374.121094 0.015625)"/>
      <use xlink:href="#DejaVuSans-5b" transform="translate(405.908203 0.015625)"/>
      <use xlink:href="#DejaVuSans-6b" transform="translate(444.921875 0.015625)"/>
      <use xlink:href="#DejaVuSans-6d" transform="translate(502.832031 0.015625)"/>
      <use xlink:href="#DejaVuSans-5d" transform="translate(600.244141 0.015625)"/>
     </g>
    </g>
   </g>
   <g id="line2d_21">
    <path d="M 306.742774 152.558437 
L 306.651839 147.669815 
L 306.379202 142.79028 
L 305.925369 137.928906 
L 305.291186 133.09473 
L 304.47783 128.296739 
L 303.486814 123.543853 
L 302.319981 118.844907 
L 300.979498 114.208638 
L 299.46786 109.643664 
L 297.787875 105.158473 
L 295.942668 100.761403 
L 293.935668 96.460627 
L 291.770606 92.264142 
L 289.451509 88.179749 
L 286.982687 84.215041 
L 284.368729 80.377389 
L 281.614496 76.673928 
L 278.725108 73.111542 
L 275.705936 69.696854 
L 272.562594 66.436212 
L 269.300925 63.335678 
L 265.926992 60.401016 
L 262.447069 57.637682 
L 258.867623 55.050813 
L 255.195311 52.645219 
L 251.436959 50.425371 
L 247.599555 48.395396 
L 243.690231 46.559069 
L 239.716256 44.919802 
L 235.685018 43.480645 
L 231.604011 42.244272 
L 227.480821 41.212981 
L 223.323116 40.388691 
L 219.138622 39.772934 
L 214.935121 39.366854 
L 210.720427 39.171207 
L 206.502375 39.186357 
L 202.288806 39.412275 
L 198.087555 39.848541 
L 193.906432 40.494346 
L 189.753209 41.348488 
L 185.635609 42.409379 
L 181.561285 43.675049 
L 177.537814 45.143143 
L 173.572674 46.810933 
L 169.673237 48.675318 
L 165.846754 50.732833 
L 162.100337 52.979653 
L 158.440952 55.4116 
L 154.875403 58.024155 
L 151.410318 60.81246 
L 148.05214 63.771332 
L 144.807111 66.89527 
L 141.681265 70.178466 
L 138.680414 73.614818 
L 135.810136 77.197937 
L 133.075769 80.921161 
L 130.482396 84.777569 
L 128.034838 88.759992 
L 125.737647 92.861026 
L 123.595094 97.073046 
L 121.611162 101.388223 
L 119.78954 105.798534 
L 118.133615 110.295779 
L 116.646466 114.871598 
L 115.330858 119.517483 
L 114.189239 124.224798 
L 113.22373 128.984791 
L 112.436127 133.788612 
L 111.827895 138.627329 
L 111.400164 143.491948 
L 111.153732 148.373424 
L 111.089056 153.262681 
L 111.206256 158.150629 
L 111.505117 163.02818 
L 111.985081 167.886266 
L 112.645257 172.715855 
L 113.484419 177.507968 
L 114.501006 182.253694 
L 115.693129 186.94421 
L 117.058571 191.570796 
L 118.594794 196.124849 
L 120.298943 200.597902 
L 122.167849 204.981638 
L 124.198037 209.267908 
L 126.385734 213.448741 
L 128.726872 217.516364 
L 131.217099 221.463214 
L 133.851784 225.281954 
L 136.626029 228.965482 
L 139.534677 232.50695 
L 142.57232 235.899774 
L 145.733309 239.137644 
L 149.011768 242.214542 
L 152.401602 245.124746 
L 155.896508 247.862845 
L 159.489987 250.423749 
L 163.17536 252.802695 
L 166.945773 254.995261 
L 170.794216 256.997371 
L 174.713534 258.805302 
L 178.696441 260.415692 
L 182.73553 261.825548 
L 186.823293 263.032249 
L 190.952127 264.03355 
L 195.114359 264.827592 
L 199.302247 265.412898 
L 203.508007 265.788379 
L 207.723818 265.953338 
" clip-path="url(#p200d9a39b4)" style="fill: none; stroke: #aa0000; stroke-width: 3; stroke-linecap: square"/>
   </g>
   <g id="line2d_22">
    <path d="M 306.742774 152.558437 
L 306.545813 145.365744 
L 305.955723 138.202013 
L 304.97488 131.09609 
L 303.607234 124.076588 
L 301.858291 117.171772 
L 299.735094 110.409445 
L 297.246193 103.816837 
L 294.401608 97.420494 
L 291.212795 91.246171 
L 287.692593 85.31873 
L 283.855177 79.66204 
L 279.715998 74.298876 
L 275.291724 69.250836 
L 270.60017 64.538245 
L 265.660227 60.18008 
L 260.491785 56.193889 
L 255.115657 52.595723 
L 249.553491 49.400072 
L 243.827682 46.619802 
L 237.961287 44.26611 
L 231.977928 42.348472 
L 225.901697 40.87461 
L 219.757061 39.85046 
L 213.568763 39.280144 
L 207.361721 39.16596 
L 201.160928 39.508368 
L 194.991352 40.305989 
L 188.877837 41.55561 
L 182.844999 43.252202 
L 176.91713 45.388931 
L 171.1181 47.957194 
L 165.47126 50.94665 
L 159.999348 54.345262 
L 154.724396 58.139344 
L 149.667646 62.313619 
L 144.84946 66.851278 
L 140.289237 71.734051 
L 136.005342 76.942276 
L 132.015024 82.454981 
L 128.33435 88.249968 
L 124.978141 94.303904 
L 121.959912 100.592411 
L 119.291816 107.090167 
L 116.984597 113.771008 
L 115.047544 120.608033 
L 113.488459 127.573712 
L 112.313618 134.639995 
L 111.527753 141.77843 
L 111.134027 148.960272 
L 111.134027 156.156603 
L 111.527753 163.338445 
L 112.313618 170.47688 
L 113.488459 177.543163 
L 115.047544 184.508842 
L 116.984597 191.345867 
L 119.291816 198.026708 
L 121.959912 204.524464 
L 124.978141 210.812971 
L 128.33435 216.866907 
L 132.015024 222.661894 
L 136.005342 228.174599 
L 140.289237 233.382824 
L 144.84946 238.265597 
L 149.667646 242.803256 
L 154.724396 246.977531 
L 159.999348 250.771613 
L 165.47126 254.170225 
L 171.1181 257.159681 
L 176.91713 259.727944 
L 182.844999 261.864673 
L 188.877837 263.561265 
L 194.991352 264.810886 
L 201.160928 265.608507 
L 207.361721 265.950915 
L 213.568763 265.836731 
L 219.757061 265.266415 
L 225.901697 264.242265 
L 231.977928 262.768403 
L 237.961287 260.850765 
L 243.827682 258.497073 
L 249.553491 255.716803 
L 255.115657 252.521152 
L 260.491785 248.922986 
L 265.660227 244.936795 
L 270.60017 240.57863 
L 275.291724 235.866039 
L 279.715998 230.817999 
L 283.855177 225.454835 
L 287.692593 219.798145 
L 291.212795 213.870704 
L 294.401608 207.696381 
L 297.246193 201.300038 
L 299.735094 194.70743 
L 301.858291 187.945103 
L 303.607234 181.040287 
L 304.97488 174.020785 
L 305.955723 166.914862 
L 306.545813 159.751131 
L 306.742774 152.558438 
" clip-path="url(#p200d9a39b4)" style="fill: none; stroke-dasharray: 5.55,2.4; stroke-dashoffset: 0; stroke: #555555; stroke-width: 1.5"/>
   </g>
   <g id="patch_4">
    <path d="M 86.6275 294.316875 
L 86.6275 10.8 
" style="fill: none; stroke: #000000; stroke-width: 0.8; stroke-linejoin: miter; stroke-linecap: square"/>
   </g>
   <g id="patch_5">
    <path d="M 331.2 294.316875 
L 331.2 10.8 
" style="fill: none; stroke: #000000; stroke-width: 0.8; stroke-linejoin: miter; stroke-linecap: square"/>
   </g>
   <g id="patch_6">
    <path d="M 86.6275 294.316875 
L 331.2 294.316875 
" style="fill: none; stroke: #000000; stroke-width: 0.8; stroke-linejoin: miter; stroke-linecap: square"/>
   </g>
   <g id="patch_7">
    <path d="M 86.6275 10.8 
L 331.2 10.8 
" style="fill: none; stroke: #000000; stroke-width: 0.8; stroke-linejoin: miter; stroke-linecap: square"/>
   </g>
  </g>
 </g>
 <defs>
  <clipPath id="p200d9a39b4">
   <rect x="86.6275" y="10.8" width="244.5725" height="283.516875"/>
  </clipPath>
 </defs>
</svg>
