<?xml version="1.0" encoding="utf-8" standalone="no"?>
<!DOCTYPE svg PUBLIC "-//W3C//DTD SVG 1.1//EN"
  "http://www.w3.org/Graphics/SVG/1.1/DTD/svg11.dtd">
<svg xmlns:xlink="http://www.w3.org/1999/xlink" width="432pt" height="360pt" viewBox="0 0 432 360" xmlns="http://www.w3.org/2000/svg" version="1.1">
 <metadata>
  <rdf:RDF xmlns:dc="http://purl.org/dc/elements/1.1/" xmlns:cc="http://creativecommons.org/ns#" xmlns:rdf="http://www.w3.org/1999/02/22-rdf-syntax-ns#">
   <cc:Work>
    <dc:type rdf:resource="http://purl.org/dc/dcmitype/StillImage"/>
    <dc:date>2023-09-07T00:38:12.593333</dc:date>
    <dc:format>image/svg+xml</dc:format>
    <dc:creator>
     <cc:Agent>
      <dc:title>Matplotlib v3.7.2, https://matplotlib.org/</dc:title>
     </cc:Agent>
    </dc:creator>
   </cc:Work>
  </rdf:RDF>
 </metadata>
 <defs>
  <style type="text/css">*{stroke-linejoin: round; stroke-linecap: butt}</style>
 </defs>
 <g id="figure_1">
  <g id="patch_1">
   <path d="M 0 360 
L 432 360 
L 432 0 
L 0 0 
L 0 360 
z
" style="fill: none"/>
  </g>
  <g id="patch_2">
   <path d="M 54.359063 349.2 
L 377.640937 349.2 
L 377.640937 25.918125 
L 54.359063 25.918125 
L 54.359063 349.2 
z
" style="fill: none"/>
  </g>
  <g id="pane3d_1">
   <g id="patch_3">
    <path d="M 95.202045 285.656033 
L 243.270883 158.105449 
L 243.980759 63.512311 
L 90.801712 182.852016 
" style="fill: #f2f2f2; opacity: 0.5; stroke: #f2f2f2; stroke-linejoin: miter"/>
   </g>
  </g>
  <g id="pane3d_2">
   <g id="patch_4">
    <path d="M 243.270883 158.105449 
L 334.028646 183.487219 
L 337.645427 87.183663 
L 243.980759 63.512311 
" style="fill: #e6e6e6; opacity: 0.5; stroke: #e6e6e6; stroke-linejoin: miter"/>
   </g>
  </g>
  <g id="pane3d_3">
   <g id="patch_5">
    <path d="M 95.202045 285.656033 
L 193.740692 318.154567 
L 334.028646 183.487219 
L 243.270883 158.105449 
" style="fill: #ececec; opacity: 0.5; stroke: #ececec; stroke-linejoin: miter"/>
   </g>
  </g>
  <g id="axis3d_1">
   <g id="line2d_1">
    <path d="M 95.202045 285.656033 
L 193.740692 318.154567 
" style="fill: none; stroke: #000000; stroke-width: 0.8; stroke-linecap: square"/>
   </g>
   <g id="text_1">
    <!-- $i_r$ [km] -->
    <g transform="translate(103.263016 336.632398) rotate(-341.747188) scale(0.1 -0.1)">
     <defs>
      <path id="DejaVuSans-Oblique-69" d="M 1172 4863 
L 1747 4863 
L 1606 4134 
L 1031 4134 
L 1172 4863 
z
M 909 3500 
L 1484 3500 
L 800 0 
L 225 0 
L 909 3500 
z
" transform="scale(0.015625)"/>
      <path id="DejaVuSans-Oblique-72" d="M 2853 2969 
Q 2766 3016 2653 3041 
Q 2541 3066 2413 3066 
Q 1953 3066 1609 2717 
Q 1266 2369 1153 1784 
L 800 0 
L 225 0 
L 909 3500 
L 1484 3500 
L 1375 2956 
Q 1603 3259 1920 3421 
Q 2238 3584 2597 3584 
Q 2691 3584 2781 3573 
Q 2872 3563 2963 3538 
L 2853 2969 
z
" transform="scale(0.015625)"/>
      <path id="DejaVuSans-20" transform="scale(0.015625)"/>
      <path id="DejaVuSans-5b" d="M 550 4863 
L 1875 4863 
L 1875 4416 
L 1125 4416 
L 1125 -397 
L 1875 -397 
L 1875 -844 
L 550 -844 
L 550 4863 
z
" transform="scale(0.015625)"/>
      <path id="DejaVuSans-6b" d="M 581 4863 
L 1159 4863 
L 1159 1991 
L 2875 3500 
L 3609 3500 
L 1753 1863 
L 3688 0 
L 2938 0 
L 1159 1709 
L 1159 0 
L 581 0 
L 581 4863 
z
" transform="scale(0.015625)"/>
      <path id="DejaVuSans-6d" d="M 3328 2828 
Q 3544 3216 3844 3400 
Q 4144 3584 4550 3584 
Q 5097 3584 5394 3201 
Q 5691 2819 5691 2113 
L 5691 0 
L 5113 0 
L 5113 2094 
Q 5113 2597 4934 2840 
Q 4756 3084 4391 3084 
Q 3944 3084 3684 2787 
Q 3425 2491 3425 1978 
L 3425 0 
L 2847 0 
L 2847 2094 
Q 2847 2600 2669 2842 
Q 2491 3084 2119 3084 
Q 1678 3084 1418 2786 
Q 1159 2488 1159 1978 
L 1159 0 
L 581 0 
L 581 3500 
L 1159 3500 
L 1159 2956 
Q 1356 3278 1631 3431 
Q 1906 3584 2284 3584 
Q 2666 3584 2933 3390 
Q 3200 3197 3328 2828 
z
" transform="scale(0.015625)"/>
      <path id="DejaVuSans-5d" d="M 1947 4863 
L 1947 -844 
L 622 -844 
L 622 -397 
L 1369 -397 
L 1369 4416 
L 622 4416 
L 622 4863 
L 1947 4863 
z
" transform="scale(0.015625)"/>
     </defs>
     <use xlink:href="#DejaVuSans-Oblique-69" transform="translate(0 0.015625)"/>
     <use xlink:href="#DejaVuSans-Oblique-72" transform="translate(27.783203 -16.390625) scale(0.7)"/>
     <use xlink:href="#DejaVuSans-20" transform="translate(59.296875 0.015625)"/>
     <use xlink:href="#DejaVuSans-5b" transform="translate(91.083984 0.015625)"/>
     <use xlink:href="#DejaVuSans-6b" transform="translate(130.097656 0.015625)"/>
     <use xlink:href="#DejaVuSans-6d" transform="translate(188.007812 0.015625)"/>
     <use xlink:href="#DejaVuSans-5d" transform="translate(285.419922 0.015625)"/>
    </g>
   </g>
   <g id="Line3DCollection_1">
    <path d="M 105.857737 289.170333 
L 253.114537 160.858375 
L 254.132454 66.077892 
" style="fill: none; stroke: #b0b0b0; stroke-width: 0.8"/>
    <path d="M 124.449077 295.301849 
L 270.271997 165.656715 
L 271.83104 70.550758 
" style="fill: none; stroke: #b0b0b0; stroke-width: 0.8"/>
    <path d="M 143.246041 301.501181 
L 287.597168 170.501959 
L 289.70806 75.068718 
" style="fill: none; stroke: #b0b0b0; stroke-width: 0.8"/>
    <path d="M 162.25206 307.76946 
L 305.092522 175.394798 
L 307.766224 79.632458 
" style="fill: none; stroke: #b0b0b0; stroke-width: 0.8"/>
    <path d="M 181.470641 314.107844 
L 322.760579 180.335935 
L 326.008302 84.242677 
" style="fill: none; stroke: #b0b0b0; stroke-width: 0.8"/>
   </g>
   <g id="xtick_1">
    <g id="line2d_2">
     <path d="M 107.187624 288.011539 
L 103.189644 291.495172 
" style="fill: none; stroke: #000000; stroke-width: 0.8; stroke-linecap: square"/>
    </g>
    <g id="text_2">
     <!-- −40 -->
     <g transform="translate(77.801553 318.137749) scale(0.16 -0.16)">
      <defs>
       <path id="DejaVuSans-2212" d="M 678 2272 
L 4684 2272 
L 4684 1741 
L 678 1741 
L 678 2272 
z
" transform="scale(0.015625)"/>
       <path id="DejaVuSans-34" d="M 2419 4116 
L 825 1625 
L 2419 1625 
L 2419 4116 
z
M 2253 4666 
L 3047 4666 
L 3047 1625 
L 3713 1625 
L 3713 1100 
L 3047 1100 
L 3047 0 
L 2419 0 
L 2419 1100 
L 313 1100 
L 313 1709 
L 2253 4666 
z
" transform="scale(0.015625)"/>
       <path id="DejaVuSans-30" d="M 2034 4250 
Q 1547 4250 1301 3770 
Q 1056 3291 1056 2328 
Q 1056 1369 1301 889 
Q 1547 409 2034 409 
Q 2525 409 2770 889 
Q 3016 1369 3016 2328 
Q 3016 3291 2770 3770 
Q 2525 4250 2034 4250 
z
M 2034 4750 
Q 2819 4750 3233 4129 
Q 3647 3509 3647 2328 
Q 3647 1150 3233 529 
Q 2819 -91 2034 -91 
Q 1250 -91 836 529 
Q 422 1150 422 2328 
Q 422 3509 836 4129 
Q 1250 4750 2034 4750 
z
" transform="scale(0.015625)"/>
      </defs>
      <use xlink:href="#DejaVuSans-2212"/>
      <use xlink:href="#DejaVuSans-34" x="83.789062"/>
      <use xlink:href="#DejaVuSans-30" x="147.412109"/>
     </g>
    </g>
   </g>
   <g id="xtick_2">
    <g id="line2d_3">
     <path d="M 125.76684 294.13028 
L 121.805261 297.652357 
" style="fill: none; stroke: #000000; stroke-width: 0.8; stroke-linecap: square"/>
    </g>
    <g id="text_3">
     <!-- −20 -->
     <g transform="translate(96.454409 324.403016) scale(0.16 -0.16)">
      <defs>
       <path id="DejaVuSans-32" d="M 1228 531 
L 3431 531 
L 3431 0 
L 469 0 
L 469 531 
Q 828 903 1448 1529 
Q 2069 2156 2228 2338 
Q 2531 2678 2651 2914 
Q 2772 3150 2772 3378 
Q 2772 3750 2511 3984 
Q 2250 4219 1831 4219 
Q 1534 4219 1204 4116 
Q 875 4013 500 3803 
L 500 4441 
Q 881 4594 1212 4672 
Q 1544 4750 1819 4750 
Q 2544 4750 2975 4387 
Q 3406 4025 3406 3419 
Q 3406 3131 3298 2873 
Q 3191 2616 2906 2266 
Q 2828 2175 2409 1742 
Q 1991 1309 1228 531 
z
" transform="scale(0.015625)"/>
      </defs>
      <use xlink:href="#DejaVuSans-2212"/>
      <use xlink:href="#DejaVuSans-32" x="83.789062"/>
      <use xlink:href="#DejaVuSans-30" x="147.412109"/>
     </g>
    </g>
   </g>
   <g id="xtick_3">
    <g id="line2d_4">
     <path d="M 144.551331 300.316625 
L 140.627205 303.877785 
" style="fill: none; stroke: #000000; stroke-width: 0.8; stroke-linecap: square"/>
    </g>
    <g id="text_4">
     <!-- 0 -->
     <g transform="translate(127.108697 330.73804) scale(0.16 -0.16)">
      <use xlink:href="#DejaVuSans-30"/>
     </g>
    </g>
   </g>
   <g id="xtick_4">
    <g id="line2d_5">
     <path d="M 163.544517 306.571701 
L 159.658925 310.172598 
" style="fill: none; stroke: #000000; stroke-width: 0.8; stroke-linecap: square"/>
    </g>
    <g id="text_5">
     <!-- 20 -->
     <g transform="translate(141.090403 337.143994) scale(0.16 -0.16)">
      <use xlink:href="#DejaVuSans-32"/>
      <use xlink:href="#DejaVuSans-30" x="63.623047"/>
     </g>
    </g>
   </g>
   <g id="xtick_5">
    <g id="line2d_6">
     <path d="M 182.749896 312.896658 
L 178.903949 316.537962 
" style="fill: none; stroke: #000000; stroke-width: 0.8; stroke-linecap: square"/>
    </g>
    <g id="text_6">
     <!-- 40 -->
     <g transform="translate(160.376846 343.622075) scale(0.16 -0.16)">
      <use xlink:href="#DejaVuSans-34"/>
      <use xlink:href="#DejaVuSans-30" x="63.623047"/>
     </g>
    </g>
   </g>
  </g>
  <g id="axis3d_2">
   <g id="line2d_7">
    <path d="M 334.028646 183.487219 
L 193.740692 318.154567 
" style="fill: none; stroke: #000000; stroke-width: 0.8; stroke-linecap: square"/>
   </g>
   <g id="text_7">
    <!-- $i_{\theta}$ [km] -->
    <g transform="translate(272.130656 279.105232) rotate(-43.828929) scale(0.1 -0.1)">
     <defs>
      <path id="DejaVuSans-Oblique-3b8" d="M 2913 2219 
L 925 2219 
Q 791 1284 928 888 
Q 1100 400 1566 400 
Q 2034 400 2391 891 
Q 2703 1322 2913 2219 
z
M 3009 2750 
Q 3094 3638 2984 3950 
Q 2813 4444 2353 4444 
Q 1875 4444 1525 3956 
Q 1250 3563 1034 2750 
L 3009 2750 
z
M 2444 4913 
Q 3194 4913 3494 4250 
Q 3794 3591 3566 2422 
Q 3341 1256 2781 594 
Q 2225 -72 1475 -72 
Q 722 -72 425 594 
Q 128 1256 353 2422 
Q 581 3591 1134 4250 
Q 1691 4913 2444 4913 
z
" transform="scale(0.015625)"/>
     </defs>
     <use xlink:href="#DejaVuSans-Oblique-69" transform="translate(0 0.015625)"/>
     <use xlink:href="#DejaVuSans-Oblique-3b8" transform="translate(27.783203 -16.390625) scale(0.7)"/>
     <use xlink:href="#DejaVuSans-20" transform="translate(73.344727 0.015625)"/>
     <use xlink:href="#DejaVuSans-5b" transform="translate(105.131836 0.015625)"/>
     <use xlink:href="#DejaVuSans-6b" transform="translate(144.145508 0.015625)"/>
     <use xlink:href="#DejaVuSans-6d" transform="translate(202.055664 0.015625)"/>
     <use xlink:href="#DejaVuSans-5d" transform="translate(299.467773 0.015625)"/>
    </g>
   </g>
   <g id="Line3DCollection_2">
    <path d="M 118.166756 161.532284 
L 121.566791 262.944714 
L 218.788858 294.109951 
" style="fill: none; stroke: #b0b0b0; stroke-width: 0.8"/>
    <path d="M 156.878774 131.372279 
L 158.928502 230.760305 
L 254.233636 260.08526 
" style="fill: none; stroke: #b0b0b0; stroke-width: 0.8"/>
    <path d="M 193.295628 103.000405 
L 194.144565 200.424216 
L 287.588019 228.067213 
" style="fill: none; stroke: #b0b0b0; stroke-width: 0.8"/>
    <path d="M 227.615555 76.262218 
L 227.394655 171.78167 
L 319.031634 197.883379 
" style="fill: none; stroke: #b0b0b0; stroke-width: 0.8"/>
   </g>
   <g id="xtick_6">
    <g id="line2d_8">
     <path d="M 217.988999 293.85355 
L 220.389675 294.623104 
" style="fill: none; stroke: #000000; stroke-width: 0.8; stroke-linecap: square"/>
    </g>
    <g id="text_8">
     <!-- −100 -->
     <g transform="translate(203.646504 315.268361) scale(0.16 -0.16)">
      <defs>
       <path id="DejaVuSans-31" d="M 794 531 
L 1825 531 
L 1825 4091 
L 703 3866 
L 703 4441 
L 1819 4666 
L 2450 4666 
L 2450 531 
L 3481 531 
L 3481 0 
L 794 0 
L 794 531 
z
" transform="scale(0.015625)"/>
      </defs>
      <use xlink:href="#DejaVuSans-2212"/>
      <use xlink:href="#DejaVuSans-31" x="83.789062"/>
      <use xlink:href="#DejaVuSans-30" x="147.412109"/>
      <use xlink:href="#DejaVuSans-30" x="211.035156"/>
     </g>
    </g>
   </g>
   <g id="xtick_7">
    <g id="line2d_9">
     <path d="M 253.450206 259.844202 
L 255.801542 260.567697 
" style="fill: none; stroke: #000000; stroke-width: 0.8; stroke-linecap: square"/>
    </g>
    <g id="text_9">
     <!-- −50 -->
     <g transform="translate(243.96067 280.982885) scale(0.16 -0.16)">
      <defs>
       <path id="DejaVuSans-35" d="M 691 4666 
L 3169 4666 
L 3169 4134 
L 1269 4134 
L 1269 2991 
Q 1406 3038 1543 3061 
Q 1681 3084 1819 3084 
Q 2600 3084 3056 2656 
Q 3513 2228 3513 1497 
Q 3513 744 3044 326 
Q 2575 -91 1722 -91 
Q 1428 -91 1123 -41 
Q 819 9 494 109 
L 494 744 
Q 775 591 1075 516 
Q 1375 441 1709 441 
Q 2250 441 2565 725 
Q 2881 1009 2881 1497 
Q 2881 1984 2565 2268 
Q 2250 2553 1709 2553 
Q 1456 2553 1204 2497 
Q 953 2441 691 2322 
L 691 4666 
z
" transform="scale(0.015625)"/>
      </defs>
      <use xlink:href="#DejaVuSans-2212"/>
      <use xlink:href="#DejaVuSans-35" x="83.789062"/>
      <use xlink:href="#DejaVuSans-30" x="147.412109"/>
     </g>
    </g>
   </g>
   <g id="xtick_8">
    <g id="line2d_10">
     <path d="M 286.820498 227.84016 
L 289.124052 228.521611 
" style="fill: none; stroke: #000000; stroke-width: 0.8; stroke-linecap: square"/>
    </g>
    <g id="text_10">
     <!-- 0 -->
     <g transform="translate(288.901948 248.718706) scale(0.16 -0.16)">
      <use xlink:href="#DejaVuSans-30"/>
     </g>
    </g>
   </g>
   <g id="xtick_9">
    <g id="line2d_11">
     <path d="M 318.279513 197.669146 
L 320.536822 198.312114 
" style="fill: none; stroke: #000000; stroke-width: 0.8; stroke-linecap: square"/>
    </g>
    <g id="text_11">
     <!-- 50 -->
     <g transform="translate(315.061221 218.302196) scale(0.16 -0.16)">
      <use xlink:href="#DejaVuSans-35"/>
      <use xlink:href="#DejaVuSans-30" x="63.623047"/>
     </g>
    </g>
   </g>
  </g>
  <g id="axis3d_3">
   <g id="line2d_12">
    <path d="M 334.028646 183.487219 
L 337.645427 87.183663 
" style="fill: none; stroke: #000000; stroke-width: 0.8; stroke-linecap: square"/>
   </g>
   <g id="text_12">
    <!-- $i_h$ [km] -->
    <g transform="translate(370.159452 140.07961) rotate(-87.849208) scale(0.1 -0.1)">
     <defs>
      <path id="DejaVuSans-Oblique-68" d="M 3566 2113 
L 3156 0 
L 2578 0 
L 2988 2091 
Q 3016 2238 3031 2350 
Q 3047 2463 3047 2528 
Q 3047 2791 2881 2937 
Q 2716 3084 2419 3084 
Q 1956 3084 1617 2771 
Q 1278 2459 1178 1941 
L 800 0 
L 225 0 
L 1172 4863 
L 1747 4863 
L 1375 2950 
Q 1594 3244 1934 3414 
Q 2275 3584 2650 3584 
Q 3113 3584 3367 3334 
Q 3622 3084 3622 2631 
Q 3622 2519 3608 2391 
Q 3594 2263 3566 2113 
z
" transform="scale(0.015625)"/>
     </defs>
     <use xlink:href="#DejaVuSans-Oblique-69" transform="translate(0 0.015625)"/>
     <use xlink:href="#DejaVuSans-Oblique-68" transform="translate(27.783203 -16.390625) scale(0.7)"/>
     <use xlink:href="#DejaVuSans-20" transform="translate(74.882812 0.015625)"/>
     <use xlink:href="#DejaVuSans-5b" transform="translate(106.669922 0.015625)"/>
     <use xlink:href="#DejaVuSans-6b" transform="translate(145.683594 0.015625)"/>
     <use xlink:href="#DejaVuSans-6d" transform="translate(203.59375 0.015625)"/>
     <use xlink:href="#DejaVuSans-5d" transform="translate(301.005859 0.015625)"/>
    </g>
   </g>
   <g id="Line3DCollection_3">
    <path d="M 334.851593 161.574706 
L 243.432505 136.568815 
L 94.203305 262.322685 
" style="fill: none; stroke: #b0b0b0; stroke-width: 0.8"/>
    <path d="M 335.749345 137.670385 
L 243.608751 113.083479 
L 93.112109 236.829304 
" style="fill: none; stroke: #b0b0b0; stroke-width: 0.8"/>
    <path d="M 336.661288 113.388194 
L 243.787712 89.236445 
L 92.001872 210.891094 
" style="fill: none; stroke: #b0b0b0; stroke-width: 0.8"/>
   </g>
   <g id="xtick_10">
    <g id="line2d_13">
     <path d="M 334.101392 161.369504 
L 336.352933 161.985368 
" style="fill: none; stroke: #000000; stroke-width: 0.8; stroke-linecap: square"/>
    </g>
    <g id="text_13">
     <!-- −5 -->
     <g transform="translate(337.878351 167.527566) scale(0.16 -0.16)">
      <use xlink:href="#DejaVuSans-2212"/>
      <use xlink:href="#DejaVuSans-35" x="83.789062"/>
     </g>
    </g>
   </g>
   <g id="xtick_11">
    <g id="line2d_14">
     <path d="M 334.993074 137.46858 
L 337.262839 138.074247 
" style="fill: none; stroke: #000000; stroke-width: 0.8; stroke-linecap: square"/>
    </g>
    <g id="text_14">
     <!-- 0 -->
     <g transform="translate(345.58965 143.726295) scale(0.16 -0.16)">
      <use xlink:href="#DejaVuSans-30"/>
     </g>
    </g>
   </g>
   <g id="xtick_12">
    <g id="line2d_15">
     <path d="M 335.898848 113.189921 
L 338.187135 113.78499 
" style="fill: none; stroke: #000000; stroke-width: 0.8; stroke-linecap: square"/>
    </g>
    <g id="text_15">
     <!-- 5 -->
     <g transform="translate(346.613025 119.551185) scale(0.16 -0.16)">
      <use xlink:href="#DejaVuSans-35"/>
     </g>
    </g>
   </g>
  </g>
  <g id="axes_1">
   <g id="line2d_16">
    <path d="M 250.720833 160.479718 
L 250.120762 160.932046 
L 249.248748 161.30625 
L 248.208198 161.5137 
L 247.17118 161.498895 
L 246.811016 161.43632 
L 246.93451 161.550754 
L 248.435298 162.958423 
L 249.53425 164.278335 
L 250.420597 165.694902 
L 251.096632 167.203466 
L 251.564409 168.799309 
L 251.825768 170.477607 
L 251.882349 172.233389 
L 251.73562 174.061484 
L 251.33574 176.170909 
L 250.688138 178.355027 
L 249.794353 180.605389 
L 248.528649 183.146383 
L 246.968986 185.743202 
L 245.117731 188.381198 
L 242.977742 191.044113 
L 240.552644 193.713829 
L 237.847158 196.370098 
L 234.867511 198.990254 
L 231.621929 201.548915 
L 228.121233 204.017683 
L 224.379547 206.364857 
L 220.784164 208.363541 
L 217.021994 210.203469 
L 213.114545 211.852856 
L 209.495342 213.146034 
L 205.802944 214.23031 
L 202.064718 215.077512 
L 198.729147 215.60788 
L 195.408415 215.906701 
L 192.537772 215.961539 
L 189.722418 215.808765 
L 186.986024 215.434687 
L 184.354201 214.826286 
L 182.202322 214.109146 
L 180.165597 213.204194 
L 178.262947 212.105536 
L 176.513827 210.808367 
L 175.187753 209.573159 
L 173.993474 208.196333 
L 172.942342 206.677376 
L 172.045461 205.016605 
L 171.313543 203.215223 
L 170.756752 201.275357 
L 170.384544 199.200093 
L 170.205508 196.99349 
L 170.227208 194.660573 
L 170.45604 192.207316 
L 170.897093 189.640605 
L 171.55404 186.968175 
L 172.630285 183.633746 
L 173.767898 180.759666 
L 174.636206 179.003037 
L 175.721637 177.236235 
L 177.016685 175.470085 
L 179.054893 173.134908 
L 181.428677 170.845521 
L 184.760711 168.071928 
L 189.614104 164.312393 
L 194.610022 160.709693 
L 199.709896 157.282989 
L 205.616463 153.60279 
L 211.553197 150.192458 
L 217.467567 147.065782 
L 223.311123 144.231556 
L 229.040253 141.694012 
L 234.616646 139.453348 
L 240.007484 137.506331 
L 245.185412 135.846897 
L 250.728741 134.313384 
L 255.950617 133.11897 
L 260.833926 132.247492 
L 265.367688 131.681688 
L 269.546142 131.403792 
L 272.960808 131.384076 
L 276.094928 131.565467 
L 278.951652 131.935999 
L 281.535552 132.484148 
L 283.852304 133.198897 
L 285.908415 134.069772 
L 287.710994 135.086865 
L 289.267557 136.240831 
L 290.585868 137.522879 
L 291.673814 138.924749 
L 292.539296 140.438692 
L 293.190154 142.057432 
L 293.634097 143.774141 
L 293.878662 145.5824 
L 293.924591 147.718614 
L 293.737524 149.954974 
L 293.327135 152.283891 
L 292.620476 154.971439 
L 291.661628 157.755166 
L 290.329284 160.917904 
L 288.720065 164.175341 
L 286.664699 167.824486 
L 284.312505 171.560518 
L 281.447315 175.691059 
L 278.2705 179.892512 
L 274.520784 184.478242 
L 270.450436 189.107862 
L 265.755766 194.093789 
L 262.723892 197.065261 
L 257.386686 201.972463 
L 251.77973 206.820473 
L 245.926623 211.57927 
L 239.851575 216.216634 
L 234.003623 220.404623 
L 228.006334 224.425916 
L 222.324403 227.981763 
L 216.554908 231.336574 
L 210.720797 234.459334 
L 205.300217 237.107017 
L 199.868981 239.500205 
L 194.902638 241.444619 
L 189.970676 243.125095 
L 185.537656 244.401858 
L 181.174237 245.41848 
L 177.32577 246.093472 
L 173.571146 246.524634 
L 170.32912 246.69011 
L 167.193373 246.638698 
L 164.18113 246.359012 
L 161.661361 245.918236 
L 159.263842 245.286876 
L 157.002881 244.458023 
L 154.893656 243.425242 
L 153.218645 242.373262 
L 151.67743 241.163964 
L 150.280956 239.794648 
L 149.0405 238.263222 
L 147.967601 236.568294 
L 147.073973 234.709281 
L 146.371386 232.686514 
L 145.871542 230.501346 
L 145.585911 228.156259 
L 145.519983 226.505803 
L 145.519983 226.505803 
" clip-path="url(#p906a91e9e0)" style="fill: none; stroke: #368770; stroke-width: 1.5; stroke-linecap: square"/>
   </g>
   <g id="line2d_17">
    <path d="M 229.241273 173.947637 
L 229.86069 173.484167 
L 230.75233 173.101454 
L 231.809657 172.889649 
L 232.845484 172.903248 
L 233.306363 172.995658 
L 232.688302 172.776905 
L 231.825692 172.293164 
L 231.184713 171.690831 
L 230.723699 170.951038 
L 230.449365 170.075644 
L 230.369403 169.066954 
L 230.504979 167.864527 
L 230.902786 166.452066 
L 231.577936 164.894139 
L 232.602274 163.11911 
L 233.902968 161.306613 
L 235.539135 159.40448 
L 237.425225 157.542417 
L 239.640618 155.674376 
L 242.048415 153.945656 
L 244.585688 152.405814 
L 247.179192 151.096507 
L 249.749574 150.047086 
L 252.217969 149.271102 
L 254.675764 148.737469 
L 256.89068 148.487891 
L 258.81628 148.487933 
L 260.431455 148.691888 
L 260.919669 148.749337 
L 261.120678 148.548311 
L 261.354901 147.838796 
L 261.958135 143.772893 
L 262.948485 135.925502 
L 263.593029 129.134282 
L 263.931357 123.2765 
L 263.988198 118.714114 
L 263.822424 115.217238 
L 263.518076 112.995661 
L 263.150098 111.743454 
L 262.124798 109.715204 
L 261.771941 109.522849 
L 261.439396 109.581146 
L 261.063651 109.891237 
L 260.609862 110.57397 
L 260.042362 111.855586 
L 259.327493 114.085901 
L 258.508748 117.419467 
L 257.565367 122.230514 
L 256.48775 128.945478 
L 255.314644 137.70829 
L 253.662255 152.034908 
L 252.456313 164.036916 
L 251.542095 175.265825 
L 251.069899 183.581548 
L 250.993447 188.416254 
L 251.154149 190.770453 
L 251.395883 191.596483 
L 251.622994 191.742533 
L 251.855385 191.600715 
L 252.219155 191.040543 
L 252.804715 189.637644 
L 253.704326 186.814693 
L 254.409987 184.25403 
L 254.409987 184.25403 
" clip-path="url(#p906a91e9e0)" style="fill: none; stroke: #aab35c; stroke-width: 1.5; stroke-linecap: square"/>
   </g>
   <g id="Path3DCollection_1">
    <defs>
     <path id="m4336f2eed0" d="M 0 2.236068 
C 0.593012 2.236068 1.161816 2.000462 1.581139 1.581139 
C 2.000462 1.161816 2.236068 0.593012 2.236068 0 
C 2.236068 -0.593012 2.000462 -1.161816 1.581139 -1.581139 
C 1.161816 -2.000462 0.593012 -2.236068 0 -2.236068 
C -0.593012 -2.236068 -1.161816 -2.000462 -1.581139 -1.581139 
C -2.000462 -1.161816 -2.236068 -0.593012 -2.236068 0 
C -2.236068 0.593012 -2.000462 1.161816 -1.581139 1.581139 
C -1.161816 2.000462 -0.593012 2.236068 0 2.236068 
z
" style="stroke: #1e90ff"/>
    </defs>
    <g clip-path="url(#p906a91e9e0)">
     <use xlink:href="#m4336f2eed0" x="240.059125" y="167.172339" style="fill: #1e90ff; stroke: #1e90ff"/>
    </g>
   </g>
   <g id="text_16">
    <!-- Spacecraft Relative Orbits in Hill Frame -->
    <g transform="translate(98.359687 19.918125) scale(0.12 -0.12)">
     <defs>
      <path id="DejaVuSans-53" d="M 3425 4513 
L 3425 3897 
Q 3066 4069 2747 4153 
Q 2428 4238 2131 4238 
Q 1616 4238 1336 4038 
Q 1056 3838 1056 3469 
Q 1056 3159 1242 3001 
Q 1428 2844 1947 2747 
L 2328 2669 
Q 3034 2534 3370 2195 
Q 3706 1856 3706 1288 
Q 3706 609 3251 259 
Q 2797 -91 1919 -91 
Q 1588 -91 1214 -16 
Q 841 59 441 206 
L 441 856 
Q 825 641 1194 531 
Q 1563 422 1919 422 
Q 2459 422 2753 634 
Q 3047 847 3047 1241 
Q 3047 1584 2836 1778 
Q 2625 1972 2144 2069 
L 1759 2144 
Q 1053 2284 737 2584 
Q 422 2884 422 3419 
Q 422 4038 858 4394 
Q 1294 4750 2059 4750 
Q 2388 4750 2728 4690 
Q 3069 4631 3425 4513 
z
" transform="scale(0.015625)"/>
      <path id="DejaVuSans-70" d="M 1159 525 
L 1159 -1331 
L 581 -1331 
L 581 3500 
L 1159 3500 
L 1159 2969 
Q 1341 3281 1617 3432 
Q 1894 3584 2278 3584 
Q 2916 3584 3314 3078 
Q 3713 2572 3713 1747 
Q 3713 922 3314 415 
Q 2916 -91 2278 -91 
Q 1894 -91 1617 61 
Q 1341 213 1159 525 
z
M 3116 1747 
Q 3116 2381 2855 2742 
Q 2594 3103 2138 3103 
Q 1681 3103 1420 2742 
Q 1159 2381 1159 1747 
Q 1159 1113 1420 752 
Q 1681 391 2138 391 
Q 2594 391 2855 752 
Q 3116 1113 3116 1747 
z
" transform="scale(0.015625)"/>
      <path id="DejaVuSans-61" d="M 2194 1759 
Q 1497 1759 1228 1600 
Q 959 1441 959 1056 
Q 959 750 1161 570 
Q 1363 391 1709 391 
Q 2188 391 2477 730 
Q 2766 1069 2766 1631 
L 2766 1759 
L 2194 1759 
z
M 3341 1997 
L 3341 0 
L 2766 0 
L 2766 531 
Q 2569 213 2275 61 
Q 1981 -91 1556 -91 
Q 1019 -91 701 211 
Q 384 513 384 1019 
Q 384 1609 779 1909 
Q 1175 2209 1959 2209 
L 2766 2209 
L 2766 2266 
Q 2766 2663 2505 2880 
Q 2244 3097 1772 3097 
Q 1472 3097 1187 3025 
Q 903 2953 641 2809 
L 641 3341 
Q 956 3463 1253 3523 
Q 1550 3584 1831 3584 
Q 2591 3584 2966 3190 
Q 3341 2797 3341 1997 
z
" transform="scale(0.015625)"/>
      <path id="DejaVuSans-63" d="M 3122 3366 
L 3122 2828 
Q 2878 2963 2633 3030 
Q 2388 3097 2138 3097 
Q 1578 3097 1268 2742 
Q 959 2388 959 1747 
Q 959 1106 1268 751 
Q 1578 397 2138 397 
Q 2388 397 2633 464 
Q 2878 531 3122 666 
L 3122 134 
Q 2881 22 2623 -34 
Q 2366 -91 2075 -91 
Q 1284 -91 818 406 
Q 353 903 353 1747 
Q 353 2603 823 3093 
Q 1294 3584 2113 3584 
Q 2378 3584 2631 3529 
Q 2884 3475 3122 3366 
z
" transform="scale(0.015625)"/>
      <path id="DejaVuSans-65" d="M 3597 1894 
L 3597 1613 
L 953 1613 
Q 991 1019 1311 708 
Q 1631 397 2203 397 
Q 2534 397 2845 478 
Q 3156 559 3463 722 
L 3463 178 
Q 3153 47 2828 -22 
Q 2503 -91 2169 -91 
Q 1331 -91 842 396 
Q 353 884 353 1716 
Q 353 2575 817 3079 
Q 1281 3584 2069 3584 
Q 2775 3584 3186 3129 
Q 3597 2675 3597 1894 
z
M 3022 2063 
Q 3016 2534 2758 2815 
Q 2500 3097 2075 3097 
Q 1594 3097 1305 2825 
Q 1016 2553 972 2059 
L 3022 2063 
z
" transform="scale(0.015625)"/>
      <path id="DejaVuSans-72" d="M 2631 2963 
Q 2534 3019 2420 3045 
Q 2306 3072 2169 3072 
Q 1681 3072 1420 2755 
Q 1159 2438 1159 1844 
L 1159 0 
L 581 0 
L 581 3500 
L 1159 3500 
L 1159 2956 
Q 1341 3275 1631 3429 
Q 1922 3584 2338 3584 
Q 2397 3584 2469 3576 
Q 2541 3569 2628 3553 
L 2631 2963 
z
" transform="scale(0.015625)"/>
      <path id="DejaVuSans-66" d="M 2375 4863 
L 2375 4384 
L 1825 4384 
Q 1516 4384 1395 4259 
Q 1275 4134 1275 3809 
L 1275 3500 
L 2222 3500 
L 2222 3053 
L 1275 3053 
L 1275 0 
L 697 0 
L 697 3053 
L 147 3053 
L 147 3500 
L 697 3500 
L 697 3744 
Q 697 4328 969 4595 
Q 1241 4863 1831 4863 
L 2375 4863 
z
" transform="scale(0.015625)"/>
      <path id="DejaVuSans-74" d="M 1172 4494 
L 1172 3500 
L 2356 3500 
L 2356 3053 
L 1172 3053 
L 1172 1153 
Q 1172 725 1289 603 
Q 1406 481 1766 481 
L 2356 481 
L 2356 0 
L 1766 0 
Q 1100 0 847 248 
Q 594 497 594 1153 
L 594 3053 
L 172 3053 
L 172 3500 
L 594 3500 
L 594 4494 
L 1172 4494 
z
" transform="scale(0.015625)"/>
      <path id="DejaVuSans-52" d="M 2841 2188 
Q 3044 2119 3236 1894 
Q 3428 1669 3622 1275 
L 4263 0 
L 3584 0 
L 2988 1197 
Q 2756 1666 2539 1819 
Q 2322 1972 1947 1972 
L 1259 1972 
L 1259 0 
L 628 0 
L 628 4666 
L 2053 4666 
Q 2853 4666 3247 4331 
Q 3641 3997 3641 3322 
Q 3641 2881 3436 2590 
Q 3231 2300 2841 2188 
z
M 1259 4147 
L 1259 2491 
L 2053 2491 
Q 2509 2491 2742 2702 
Q 2975 2913 2975 3322 
Q 2975 3731 2742 3939 
Q 2509 4147 2053 4147 
L 1259 4147 
z
" transform="scale(0.015625)"/>
      <path id="DejaVuSans-6c" d="M 603 4863 
L 1178 4863 
L 1178 0 
L 603 0 
L 603 4863 
z
" transform="scale(0.015625)"/>
      <path id="DejaVuSans-69" d="M 603 3500 
L 1178 3500 
L 1178 0 
L 603 0 
L 603 3500 
z
M 603 4863 
L 1178 4863 
L 1178 4134 
L 603 4134 
L 603 4863 
z
" transform="scale(0.015625)"/>
      <path id="DejaVuSans-76" d="M 191 3500 
L 800 3500 
L 1894 563 
L 2988 3500 
L 3597 3500 
L 2284 0 
L 1503 0 
L 191 3500 
z
" transform="scale(0.015625)"/>
      <path id="DejaVuSans-4f" d="M 2522 4238 
Q 1834 4238 1429 3725 
Q 1025 3213 1025 2328 
Q 1025 1447 1429 934 
Q 1834 422 2522 422 
Q 3209 422 3611 934 
Q 4013 1447 4013 2328 
Q 4013 3213 3611 3725 
Q 3209 4238 2522 4238 
z
M 2522 4750 
Q 3503 4750 4090 4092 
Q 4678 3434 4678 2328 
Q 4678 1225 4090 567 
Q 3503 -91 2522 -91 
Q 1538 -91 948 565 
Q 359 1222 359 2328 
Q 359 3434 948 4092 
Q 1538 4750 2522 4750 
z
" transform="scale(0.015625)"/>
      <path id="DejaVuSans-62" d="M 3116 1747 
Q 3116 2381 2855 2742 
Q 2594 3103 2138 3103 
Q 1681 3103 1420 2742 
Q 1159 2381 1159 1747 
Q 1159 1113 1420 752 
Q 1681 391 2138 391 
Q 2594 391 2855 752 
Q 3116 1113 3116 1747 
z
M 1159 2969 
Q 1341 3281 1617 3432 
Q 1894 3584 2278 3584 
Q 2916 3584 3314 3078 
Q 3713 2572 3713 1747 
Q 3713 922 3314 415 
Q 2916 -91 2278 -91 
Q 1894 -91 1617 61 
Q 1341 213 1159 525 
L 1159 0 
L 581 0 
L 581 4863 
L 1159 4863 
L 1159 2969 
z
" transform="scale(0.015625)"/>
      <path id="DejaVuSans-73" d="M 2834 3397 
L 2834 2853 
Q 2591 2978 2328 3040 
Q 2066 3103 1784 3103 
Q 1356 3103 1142 2972 
Q 928 2841 928 2578 
Q 928 2378 1081 2264 
Q 1234 2150 1697 2047 
L 1894 2003 
Q 2506 1872 2764 1633 
Q 3022 1394 3022 966 
Q 3022 478 2636 193 
Q 2250 -91 1575 -91 
Q 1294 -91 989 -36 
Q 684 19 347 128 
L 347 722 
Q 666 556 975 473 
Q 1284 391 1588 391 
Q 1994 391 2212 530 
Q 2431 669 2431 922 
Q 2431 1156 2273 1281 
Q 2116 1406 1581 1522 
L 1381 1569 
Q 847 1681 609 1914 
Q 372 2147 372 2553 
Q 372 3047 722 3315 
Q 1072 3584 1716 3584 
Q 2034 3584 2315 3537 
Q 2597 3491 2834 3397 
z
" transform="scale(0.015625)"/>
      <path id="DejaVuSans-6e" d="M 3513 2113 
L 3513 0 
L 2938 0 
L 2938 2094 
Q 2938 2591 2744 2837 
Q 2550 3084 2163 3084 
Q 1697 3084 1428 2787 
Q 1159 2491 1159 1978 
L 1159 0 
L 581 0 
L 581 3500 
L 1159 3500 
L 1159 2956 
Q 1366 3272 1645 3428 
Q 1925 3584 2291 3584 
Q 2894 3584 3203 3211 
Q 3513 2838 3513 2113 
z
" transform="scale(0.015625)"/>
      <path id="DejaVuSans-48" d="M 628 4666 
L 1259 4666 
L 1259 2753 
L 3553 2753 
L 3553 4666 
L 4184 4666 
L 4184 0 
L 3553 0 
L 3553 2222 
L 1259 2222 
L 1259 0 
L 628 0 
L 628 4666 
z
" transform="scale(0.015625)"/>
      <path id="DejaVuSans-46" d="M 628 4666 
L 3309 4666 
L 3309 4134 
L 1259 4134 
L 1259 2759 
L 3109 2759 
L 3109 2228 
L 1259 2228 
L 1259 0 
L 628 0 
L 628 4666 
z
" transform="scale(0.015625)"/>
     </defs>
     <use xlink:href="#DejaVuSans-53"/>
     <use xlink:href="#DejaVuSans-70" x="63.476562"/>
     <use xlink:href="#DejaVuSans-61" x="126.953125"/>
     <use xlink:href="#DejaVuSans-63" x="188.232422"/>
     <use xlink:href="#DejaVuSans-65" x="243.212891"/>
     <use xlink:href="#DejaVuSans-63" x="304.736328"/>
     <use xlink:href="#DejaVuSans-72" x="359.716797"/>
     <use xlink:href="#DejaVuSans-61" x="400.830078"/>
     <use xlink:href="#DejaVuSans-66" x="462.109375"/>
     <use xlink:href="#DejaVuSans-74" x="495.564453"/>
     <use xlink:href="#DejaVuSans-20" x="534.773438"/>
     <use xlink:href="#DejaVuSans-52" x="566.560547"/>
     <use xlink:href="#DejaVuSans-65" x="631.542969"/>
     <use xlink:href="#DejaVuSans-6c" x="693.066406"/>
     <use xlink:href="#DejaVuSans-61" x="720.849609"/>
     <use xlink:href="#DejaVuSans-74" x="782.128906"/>
     <use xlink:href="#DejaVuSans-69" x="821.337891"/>
     <use xlink:href="#DejaVuSans-76" x="849.121094"/>
     <use xlink:href="#DejaVuSans-65" x="908.300781"/>
     <use xlink:href="#DejaVuSans-20" x="969.824219"/>
     <use xlink:href="#DejaVuSans-4f" x="1001.611328"/>
     <use xlink:href="#DejaVuSans-72" x="1080.322266"/>
     <use xlink:href="#DejaVuSans-62" x="1121.435547"/>
     <use xlink:href="#DejaVuSans-69" x="1184.912109"/>
     <use xlink:href="#DejaVuSans-74" x="1212.695312"/>
     <use xlink:href="#DejaVuSans-73" x="1251.904297"/>
     <use xlink:href="#DejaVuSans-20" x="1304.003906"/>
     <use xlink:href="#DejaVuSans-69" x="1335.791016"/>
     <use xlink:href="#DejaVuSans-6e" x="1363.574219"/>
     <use xlink:href="#DejaVuSans-20" x="1426.953125"/>
     <use xlink:href="#DejaVuSans-48" x="1458.740234"/>
     <use xlink:href="#DejaVuSans-69" x="1533.935547"/>
     <use xlink:href="#DejaVuSans-6c" x="1561.71875"/>
     <use xlink:href="#DejaVuSans-6c" x="1589.501953"/>
     <use xlink:href="#DejaVuSans-20" x="1617.285156"/>
     <use xlink:href="#DejaVuSans-46" x="1649.072266"/>
     <use xlink:href="#DejaVuSans-72" x="1699.341797"/>
     <use xlink:href="#DejaVuSans-61" x="1740.455078"/>
     <use xlink:href="#DejaVuSans-6d" x="1801.734375"/>
     <use xlink:href="#DejaVuSans-65" x="1899.146484"/>
    </g>
   </g>
   <g id="legend_1">
    <g id="patch_6">
     <path d="M 60.659063 59.53875 
L 146.177344 59.53875 
Q 147.977344 59.53875 147.977344 57.73875 
L 147.977344 32.218125 
Q 147.977344 30.418125 146.177344 30.418125 
L 60.659063 30.418125 
Q 58.859063 30.418125 58.859063 32.218125 
L 58.859063 57.73875 
Q 58.859063 59.53875 60.659063 59.53875 
z
" style="fill: #ffffff; opacity: 0.8; stroke: #cccccc; stroke-linejoin: miter"/>
    </g>
    <g id="line2d_18">
     <path d="M 62.459063 37.706719 
L 71.459063 37.706719 
L 80.459063 37.706719 
" style="fill: none; stroke: #368770; stroke-width: 1.5; stroke-linecap: square"/>
    </g>
    <g id="text_17">
     <!-- Spacecraft 0 -->
     <g transform="translate(87.659063 40.856719) scale(0.09 -0.09)">
      <use xlink:href="#DejaVuSans-53"/>
      <use xlink:href="#DejaVuSans-70" x="63.476562"/>
      <use xlink:href="#DejaVuSans-61" x="126.953125"/>
      <use xlink:href="#DejaVuSans-63" x="188.232422"/>
      <use xlink:href="#DejaVuSans-65" x="243.212891"/>
      <use xlink:href="#DejaVuSans-63" x="304.736328"/>
      <use xlink:href="#DejaVuSans-72" x="359.716797"/>
      <use xlink:href="#DejaVuSans-61" x="400.830078"/>
      <use xlink:href="#DejaVuSans-66" x="462.109375"/>
      <use xlink:href="#DejaVuSans-74" x="495.564453"/>
      <use xlink:href="#DejaVuSans-20" x="534.773438"/>
      <use xlink:href="#DejaVuSans-30" x="566.560547"/>
     </g>
    </g>
    <g id="line2d_19">
     <path d="M 62.459063 50.917031 
L 71.459063 50.917031 
L 80.459063 50.917031 
" style="fill: none; stroke: #aab35c; stroke-width: 1.5; stroke-linecap: square"/>
    </g>
    <g id="text_18">
     <!-- Spacecraft 1 -->
     <g transform="translate(87.659063 54.067031) scale(0.09 -0.09)">
      <use xlink:href="#DejaVuSans-53"/>
      <use xlink:href="#DejaVuSans-70" x="63.476562"/>
      <use xlink:href="#DejaVuSans-61" x="126.953125"/>
      <use xlink:href="#DejaVuSans-63" x="188.232422"/>
      <use xlink:href="#DejaVuSans-65" x="243.212891"/>
      <use xlink:href="#DejaVuSans-63" x="304.736328"/>
      <use xlink:href="#DejaVuSans-72" x="359.716797"/>
      <use xlink:href="#DejaVuSans-61" x="400.830078"/>
      <use xlink:href="#DejaVuSans-66" x="462.109375"/>
      <use xlink:href="#DejaVuSans-74" x="495.564453"/>
      <use xlink:href="#DejaVuSans-20" x="534.773438"/>
      <use xlink:href="#DejaVuSans-31" x="566.560547"/>
     </g>
    </g>
   </g>
  </g>
 </g>
 <defs>
  <clipPath id="p906a91e9e0">
   <rect x="54.359063" y="25.918125" width="323.281875" height="323.281875"/>
  </clipPath>
 </defs>
</svg>
