<?xml version="1.0" encoding="utf-8" standalone="no"?>
<!DOCTYPE svg PUBLIC "-//W3C//DTD SVG 1.1//EN"
  "http://www.w3.org/Graphics/SVG/1.1/DTD/svg11.dtd">
<svg xmlns:xlink="http://www.w3.org/1999/xlink" width="414pt" height="288pt" viewBox="0 0 414 288" xmlns="http://www.w3.org/2000/svg" version="1.1">
 <metadata>
  <rdf:RDF xmlns:dc="http://purl.org/dc/elements/1.1/" xmlns:cc="http://creativecommons.org/ns#" xmlns:rdf="http://www.w3.org/1999/02/22-rdf-syntax-ns#">
   <cc:Work>
    <dc:type rdf:resource="http://purl.org/dc/dcmitype/StillImage"/>
    <dc:date>2023-09-07T00:34:37.425184</dc:date>
    <dc:format>image/svg+xml</dc:format>
    <dc:creator>
     <cc:Agent>
      <dc:title>Matplotlib v3.7.2, https://matplotlib.org/</dc:title>
     </cc:Agent>
    </dc:creator>
   </cc:Work>
  </rdf:RDF>
 </metadata>
 <defs>
  <style type="text/css">*{stroke-linejoin: round; stroke-linecap: butt}</style>
 </defs>
 <g id="figure_1">
  <g id="patch_1">
   <path d="M 0 288 
L 414 288 
L 414 0 
L 0 0 
L 0 288 
z
" style="fill: none"/>
  </g>
  <g id="axes_1">
   <g id="patch_2">
    <path d="M 55.065625 241.036875 
L 403.2 241.036875 
L 403.2 25.9575 
L 55.065625 25.9575 
L 55.065625 241.036875 
z
" style="fill: none"/>
   </g>
   <g id="matplotlib.axis_1">
    <g id="xtick_1">
     <g id="line2d_1">
      <defs>
       <path id="m5e45750c24" d="M 0 0 
L 0 3.5 
" style="stroke: #000000; stroke-width: 0.8"/>
      </defs>
      <g>
       <use xlink:href="#m5e45750c24" x="70.889915" y="241.036875" style="stroke: #000000; stroke-width: 0.8"/>
      </g>
     </g>
     <g id="text_1">
      <!-- 0 -->
      <g transform="translate(65.799915 260.194375) scale(0.16 -0.16)">
       <defs>
        <path id="DejaVuSans-30" d="M 2034 4250 
Q 1547 4250 1301 3770 
Q 1056 3291 1056 2328 
Q 1056 1369 1301 889 
Q 1547 409 2034 409 
Q 2525 409 2770 889 
Q 3016 1369 3016 2328 
Q 3016 3291 2770 3770 
Q 2525 4250 2034 4250 
z
M 2034 4750 
Q 2819 4750 3233 4129 
Q 3647 3509 3647 2328 
Q 3647 1150 3233 529 
Q 2819 -91 2034 -91 
Q 1250 -91 836 529 
Q 422 1150 422 2328 
Q 422 3509 836 4129 
Q 1250 4750 2034 4750 
z
" transform="scale(0.015625)"/>
       </defs>
       <use xlink:href="#DejaVuSans-30"/>
      </g>
     </g>
    </g>
    <g id="xtick_2">
     <g id="line2d_2">
      <g>
       <use xlink:href="#m5e45750c24" x="161.314428" y="241.036875" style="stroke: #000000; stroke-width: 0.8"/>
      </g>
     </g>
     <g id="text_2">
      <!-- 1 -->
      <g transform="translate(156.224428 260.194375) scale(0.16 -0.16)">
       <defs>
        <path id="DejaVuSans-31" d="M 794 531 
L 1825 531 
L 1825 4091 
L 703 3866 
L 703 4441 
L 1819 4666 
L 2450 4666 
L 2450 531 
L 3481 531 
L 3481 0 
L 794 0 
L 794 531 
z
" transform="scale(0.015625)"/>
       </defs>
       <use xlink:href="#DejaVuSans-31"/>
      </g>
     </g>
    </g>
    <g id="xtick_3">
     <g id="line2d_3">
      <g>
       <use xlink:href="#m5e45750c24" x="251.738941" y="241.036875" style="stroke: #000000; stroke-width: 0.8"/>
      </g>
     </g>
     <g id="text_3">
      <!-- 2 -->
      <g transform="translate(246.648941 260.194375) scale(0.16 -0.16)">
       <defs>
        <path id="DejaVuSans-32" d="M 1228 531 
L 3431 531 
L 3431 0 
L 469 0 
L 469 531 
Q 828 903 1448 1529 
Q 2069 2156 2228 2338 
Q 2531 2678 2651 2914 
Q 2772 3150 2772 3378 
Q 2772 3750 2511 3984 
Q 2250 4219 1831 4219 
Q 1534 4219 1204 4116 
Q 875 4013 500 3803 
L 500 4441 
Q 881 4594 1212 4672 
Q 1544 4750 1819 4750 
Q 2544 4750 2975 4387 
Q 3406 4025 3406 3419 
Q 3406 3131 3298 2873 
Q 3191 2616 2906 2266 
Q 2828 2175 2409 1742 
Q 1991 1309 1228 531 
z
" transform="scale(0.015625)"/>
       </defs>
       <use xlink:href="#DejaVuSans-32"/>
      </g>
     </g>
    </g>
    <g id="xtick_4">
     <g id="line2d_4">
      <g>
       <use xlink:href="#m5e45750c24" x="342.163454" y="241.036875" style="stroke: #000000; stroke-width: 0.8"/>
      </g>
     </g>
     <g id="text_4">
      <!-- 3 -->
      <g transform="translate(337.073454 260.194375) scale(0.16 -0.16)">
       <defs>
        <path id="DejaVuSans-33" d="M 2597 2516 
Q 3050 2419 3304 2112 
Q 3559 1806 3559 1356 
Q 3559 666 3084 287 
Q 2609 -91 1734 -91 
Q 1441 -91 1130 -33 
Q 819 25 488 141 
L 488 750 
Q 750 597 1062 519 
Q 1375 441 1716 441 
Q 2309 441 2620 675 
Q 2931 909 2931 1356 
Q 2931 1769 2642 2001 
Q 2353 2234 1838 2234 
L 1294 2234 
L 1294 2753 
L 1863 2753 
Q 2328 2753 2575 2939 
Q 2822 3125 2822 3475 
Q 2822 3834 2567 4026 
Q 2313 4219 1838 4219 
Q 1578 4219 1281 4162 
Q 984 4106 628 3988 
L 628 4550 
Q 988 4650 1302 4700 
Q 1616 4750 1894 4750 
Q 2613 4750 3031 4423 
Q 3450 4097 3450 3541 
Q 3450 3153 3228 2886 
Q 3006 2619 2597 2516 
z
" transform="scale(0.015625)"/>
       </defs>
       <use xlink:href="#DejaVuSans-33"/>
      </g>
     </g>
    </g>
    <g id="text_5">
     <!-- Time [min] -->
     <g transform="translate(201.980469 275.120313) scale(0.1 -0.1)">
      <defs>
       <path id="DejaVuSans-54" d="M -19 4666 
L 3928 4666 
L 3928 4134 
L 2272 4134 
L 2272 0 
L 1638 0 
L 1638 4134 
L -19 4134 
L -19 4666 
z
" transform="scale(0.015625)"/>
       <path id="DejaVuSans-69" d="M 603 3500 
L 1178 3500 
L 1178 0 
L 603 0 
L 603 3500 
z
M 603 4863 
L 1178 4863 
L 1178 4134 
L 603 4134 
L 603 4863 
z
" transform="scale(0.015625)"/>
       <path id="DejaVuSans-6d" d="M 3328 2828 
Q 3544 3216 3844 3400 
Q 4144 3584 4550 3584 
Q 5097 3584 5394 3201 
Q 5691 2819 5691 2113 
L 5691 0 
L 5113 0 
L 5113 2094 
Q 5113 2597 4934 2840 
Q 4756 3084 4391 3084 
Q 3944 3084 3684 2787 
Q 3425 2491 3425 1978 
L 3425 0 
L 2847 0 
L 2847 2094 
Q 2847 2600 2669 2842 
Q 2491 3084 2119 3084 
Q 1678 3084 1418 2786 
Q 1159 2488 1159 1978 
L 1159 0 
L 581 0 
L 581 3500 
L 1159 3500 
L 1159 2956 
Q 1356 3278 1631 3431 
Q 1906 3584 2284 3584 
Q 2666 3584 2933 3390 
Q 3200 3197 3328 2828 
z
" transform="scale(0.015625)"/>
       <path id="DejaVuSans-65" d="M 3597 1894 
L 3597 1613 
L 953 1613 
Q 991 1019 1311 708 
Q 1631 397 2203 397 
Q 2534 397 2845 478 
Q 3156 559 3463 722 
L 3463 178 
Q 3153 47 2828 -22 
Q 2503 -91 2169 -91 
Q 1331 -91 842 396 
Q 353 884 353 1716 
Q 353 2575 817 3079 
Q 1281 3584 2069 3584 
Q 2775 3584 3186 3129 
Q 3597 2675 3597 1894 
z
M 3022 2063 
Q 3016 2534 2758 2815 
Q 2500 3097 2075 3097 
Q 1594 3097 1305 2825 
Q 1016 2553 972 2059 
L 3022 2063 
z
" transform="scale(0.015625)"/>
       <path id="DejaVuSans-20" transform="scale(0.015625)"/>
       <path id="DejaVuSans-5b" d="M 550 4863 
L 1875 4863 
L 1875 4416 
L 1125 4416 
L 1125 -397 
L 1875 -397 
L 1875 -844 
L 550 -844 
L 550 4863 
z
" transform="scale(0.015625)"/>
       <path id="DejaVuSans-6e" d="M 3513 2113 
L 3513 0 
L 2938 0 
L 2938 2094 
Q 2938 2591 2744 2837 
Q 2550 3084 2163 3084 
Q 1697 3084 1428 2787 
Q 1159 2491 1159 1978 
L 1159 0 
L 581 0 
L 581 3500 
L 1159 3500 
L 1159 2956 
Q 1366 3272 1645 3428 
Q 1925 3584 2291 3584 
Q 2894 3584 3203 3211 
Q 3513 2838 3513 2113 
z
" transform="scale(0.015625)"/>
       <path id="DejaVuSans-5d" d="M 1947 4863 
L 1947 -844 
L 622 -844 
L 622 -397 
L 1369 -397 
L 1369 4416 
L 622 4416 
L 622 4863 
L 1947 4863 
z
" transform="scale(0.015625)"/>
      </defs>
      <use xlink:href="#DejaVuSans-54"/>
      <use xlink:href="#DejaVuSans-69" x="57.958984"/>
      <use xlink:href="#DejaVuSans-6d" x="85.742188"/>
      <use xlink:href="#DejaVuSans-65" x="183.154297"/>
      <use xlink:href="#DejaVuSans-20" x="244.677734"/>
      <use xlink:href="#DejaVuSans-5b" x="276.464844"/>
      <use xlink:href="#DejaVuSans-6d" x="315.478516"/>
      <use xlink:href="#DejaVuSans-69" x="412.890625"/>
      <use xlink:href="#DejaVuSans-6e" x="440.673828"/>
      <use xlink:href="#DejaVuSans-5d" x="504.052734"/>
     </g>
    </g>
   </g>
   <g id="matplotlib.axis_2">
    <g id="ytick_1">
     <g id="line2d_5">
      <defs>
       <path id="m67fc4155c5" d="M 0 0 
L -3.5 0 
" style="stroke: #000000; stroke-width: 0.8"/>
      </defs>
      <g>
       <use xlink:href="#m67fc4155c5" x="55.065625" y="188.510529" style="stroke: #000000; stroke-width: 0.8"/>
      </g>
     </g>
     <g id="text_6">
      <!-- −5 -->
      <g transform="translate(24.478125 194.589279) scale(0.16 -0.16)">
       <defs>
        <path id="DejaVuSans-2212" d="M 678 2272 
L 4684 2272 
L 4684 1741 
L 678 1741 
L 678 2272 
z
" transform="scale(0.015625)"/>
        <path id="DejaVuSans-35" d="M 691 4666 
L 3169 4666 
L 3169 4134 
L 1269 4134 
L 1269 2991 
Q 1406 3038 1543 3061 
Q 1681 3084 1819 3084 
Q 2600 3084 3056 2656 
Q 3513 2228 3513 1497 
Q 3513 744 3044 326 
Q 2575 -91 1722 -91 
Q 1428 -91 1123 -41 
Q 819 9 494 109 
L 494 744 
Q 775 591 1075 516 
Q 1375 441 1709 441 
Q 2250 441 2565 725 
Q 2881 1009 2881 1497 
Q 2881 1984 2565 2268 
Q 2250 2553 1709 2553 
Q 1456 2553 1204 2497 
Q 953 2441 691 2322 
L 691 4666 
z
" transform="scale(0.015625)"/>
       </defs>
       <use xlink:href="#DejaVuSans-2212"/>
       <use xlink:href="#DejaVuSans-35" x="83.789062"/>
      </g>
     </g>
    </g>
    <g id="ytick_2">
     <g id="line2d_6">
      <g>
       <use xlink:href="#m67fc4155c5" x="55.065625" y="129.76679" style="stroke: #000000; stroke-width: 0.8"/>
      </g>
     </g>
     <g id="text_7">
      <!-- 0 -->
      <g transform="translate(37.885625 135.84554) scale(0.16 -0.16)">
       <use xlink:href="#DejaVuSans-30"/>
      </g>
     </g>
    </g>
    <g id="ytick_3">
     <g id="line2d_7">
      <g>
       <use xlink:href="#m67fc4155c5" x="55.065625" y="71.023052" style="stroke: #000000; stroke-width: 0.8"/>
      </g>
     </g>
     <g id="text_8">
      <!-- 5 -->
      <g transform="translate(37.885625 77.101802) scale(0.16 -0.16)">
       <use xlink:href="#DejaVuSans-35"/>
      </g>
     </g>
    </g>
    <g id="text_9">
     <!-- RW Motor Torque (Nm) -->
     <g transform="translate(18.398438 190.094063) rotate(-90) scale(0.1 -0.1)">
      <defs>
       <path id="DejaVuSans-52" d="M 2841 2188 
Q 3044 2119 3236 1894 
Q 3428 1669 3622 1275 
L 4263 0 
L 3584 0 
L 2988 1197 
Q 2756 1666 2539 1819 
Q 2322 1972 1947 1972 
L 1259 1972 
L 1259 0 
L 628 0 
L 628 4666 
L 2053 4666 
Q 2853 4666 3247 4331 
Q 3641 3997 3641 3322 
Q 3641 2881 3436 2590 
Q 3231 2300 2841 2188 
z
M 1259 4147 
L 1259 2491 
L 2053 2491 
Q 2509 2491 2742 2702 
Q 2975 2913 2975 3322 
Q 2975 3731 2742 3939 
Q 2509 4147 2053 4147 
L 1259 4147 
z
" transform="scale(0.015625)"/>
       <path id="DejaVuSans-57" d="M 213 4666 
L 850 4666 
L 1831 722 
L 2809 4666 
L 3519 4666 
L 4500 722 
L 5478 4666 
L 6119 4666 
L 4947 0 
L 4153 0 
L 3169 4050 
L 2175 0 
L 1381 0 
L 213 4666 
z
" transform="scale(0.015625)"/>
       <path id="DejaVuSans-4d" d="M 628 4666 
L 1569 4666 
L 2759 1491 
L 3956 4666 
L 4897 4666 
L 4897 0 
L 4281 0 
L 4281 4097 
L 3078 897 
L 2444 897 
L 1241 4097 
L 1241 0 
L 628 0 
L 628 4666 
z
" transform="scale(0.015625)"/>
       <path id="DejaVuSans-6f" d="M 1959 3097 
Q 1497 3097 1228 2736 
Q 959 2375 959 1747 
Q 959 1119 1226 758 
Q 1494 397 1959 397 
Q 2419 397 2687 759 
Q 2956 1122 2956 1747 
Q 2956 2369 2687 2733 
Q 2419 3097 1959 3097 
z
M 1959 3584 
Q 2709 3584 3137 3096 
Q 3566 2609 3566 1747 
Q 3566 888 3137 398 
Q 2709 -91 1959 -91 
Q 1206 -91 779 398 
Q 353 888 353 1747 
Q 353 2609 779 3096 
Q 1206 3584 1959 3584 
z
" transform="scale(0.015625)"/>
       <path id="DejaVuSans-74" d="M 1172 4494 
L 1172 3500 
L 2356 3500 
L 2356 3053 
L 1172 3053 
L 1172 1153 
Q 1172 725 1289 603 
Q 1406 481 1766 481 
L 2356 481 
L 2356 0 
L 1766 0 
Q 1100 0 847 248 
Q 594 497 594 1153 
L 594 3053 
L 172 3053 
L 172 3500 
L 594 3500 
L 594 4494 
L 1172 4494 
z
" transform="scale(0.015625)"/>
       <path id="DejaVuSans-72" d="M 2631 2963 
Q 2534 3019 2420 3045 
Q 2306 3072 2169 3072 
Q 1681 3072 1420 2755 
Q 1159 2438 1159 1844 
L 1159 0 
L 581 0 
L 581 3500 
L 1159 3500 
L 1159 2956 
Q 1341 3275 1631 3429 
Q 1922 3584 2338 3584 
Q 2397 3584 2469 3576 
Q 2541 3569 2628 3553 
L 2631 2963 
z
" transform="scale(0.015625)"/>
       <path id="DejaVuSans-71" d="M 947 1747 
Q 947 1113 1208 752 
Q 1469 391 1925 391 
Q 2381 391 2643 752 
Q 2906 1113 2906 1747 
Q 2906 2381 2643 2742 
Q 2381 3103 1925 3103 
Q 1469 3103 1208 2742 
Q 947 2381 947 1747 
z
M 2906 525 
Q 2725 213 2448 61 
Q 2172 -91 1784 -91 
Q 1150 -91 751 415 
Q 353 922 353 1747 
Q 353 2572 751 3078 
Q 1150 3584 1784 3584 
Q 2172 3584 2448 3432 
Q 2725 3281 2906 2969 
L 2906 3500 
L 3481 3500 
L 3481 -1331 
L 2906 -1331 
L 2906 525 
z
" transform="scale(0.015625)"/>
       <path id="DejaVuSans-75" d="M 544 1381 
L 544 3500 
L 1119 3500 
L 1119 1403 
Q 1119 906 1312 657 
Q 1506 409 1894 409 
Q 2359 409 2629 706 
Q 2900 1003 2900 1516 
L 2900 3500 
L 3475 3500 
L 3475 0 
L 2900 0 
L 2900 538 
Q 2691 219 2414 64 
Q 2138 -91 1772 -91 
Q 1169 -91 856 284 
Q 544 659 544 1381 
z
M 1991 3584 
L 1991 3584 
z
" transform="scale(0.015625)"/>
       <path id="DejaVuSans-28" d="M 1984 4856 
Q 1566 4138 1362 3434 
Q 1159 2731 1159 2009 
Q 1159 1288 1364 580 
Q 1569 -128 1984 -844 
L 1484 -844 
Q 1016 -109 783 600 
Q 550 1309 550 2009 
Q 550 2706 781 3412 
Q 1013 4119 1484 4856 
L 1984 4856 
z
" transform="scale(0.015625)"/>
       <path id="DejaVuSans-4e" d="M 628 4666 
L 1478 4666 
L 3547 763 
L 3547 4666 
L 4159 4666 
L 4159 0 
L 3309 0 
L 1241 3903 
L 1241 0 
L 628 0 
L 628 4666 
z
" transform="scale(0.015625)"/>
       <path id="DejaVuSans-29" d="M 513 4856 
L 1013 4856 
Q 1481 4119 1714 3412 
Q 1947 2706 1947 2009 
Q 1947 1309 1714 600 
Q 1481 -109 1013 -844 
L 513 -844 
Q 928 -128 1133 580 
Q 1338 1288 1338 2009 
Q 1338 2731 1133 3434 
Q 928 4138 513 4856 
z
" transform="scale(0.015625)"/>
      </defs>
      <use xlink:href="#DejaVuSans-52"/>
      <use xlink:href="#DejaVuSans-57" x="65.482422"/>
      <use xlink:href="#DejaVuSans-20" x="164.359375"/>
      <use xlink:href="#DejaVuSans-4d" x="196.146484"/>
      <use xlink:href="#DejaVuSans-6f" x="282.425781"/>
      <use xlink:href="#DejaVuSans-74" x="343.607422"/>
      <use xlink:href="#DejaVuSans-6f" x="382.816406"/>
      <use xlink:href="#DejaVuSans-72" x="443.998047"/>
      <use xlink:href="#DejaVuSans-20" x="485.111328"/>
      <use xlink:href="#DejaVuSans-54" x="516.898438"/>
      <use xlink:href="#DejaVuSans-6f" x="560.982422"/>
      <use xlink:href="#DejaVuSans-72" x="622.164062"/>
      <use xlink:href="#DejaVuSans-71" x="661.527344"/>
      <use xlink:href="#DejaVuSans-75" x="725.003906"/>
      <use xlink:href="#DejaVuSans-65" x="788.382812"/>
      <use xlink:href="#DejaVuSans-20" x="849.90625"/>
      <use xlink:href="#DejaVuSans-28" x="881.693359"/>
      <use xlink:href="#DejaVuSans-4e" x="920.707031"/>
      <use xlink:href="#DejaVuSans-6d" x="995.511719"/>
      <use xlink:href="#DejaVuSans-29" x="1092.923828"/>
     </g>
    </g>
    <g id="text_10">
     <!-- 1e−5 -->
     <g transform="translate(55.065625 22.9575) scale(0.16 -0.16)">
      <use xlink:href="#DejaVuSans-31"/>
      <use xlink:href="#DejaVuSans-65" x="63.623047"/>
      <use xlink:href="#DejaVuSans-2212" x="125.146484"/>
      <use xlink:href="#DejaVuSans-35" x="208.935547"/>
     </g>
    </g>
   </g>
   <g id="line2d_8">
    <path d="M 70.889915 167.526653 
L 72.155858 164.451643 
L 74.054773 160.814762 
L 77.852602 154.127624 
L 81.01746 148.956115 
L 84.182318 144.223825 
L 86.714205 140.786788 
L 89.246091 137.673775 
L 91.777977 134.887845 
L 94.309864 132.423572 
L 96.84175 130.267794 
L 99.373636 128.400561 
L 101.905523 126.796279 
L 104.437409 125.425018 
L 107.602267 123.988284 
L 110.767125 122.796367 
L 114.564955 121.59332 
L 121.527642 119.685328 
L 125.958443 118.599119 
L 129.123301 118.076093 
L 132.288159 117.814736 
L 134.820045 117.816657 
L 137.351932 118.021476 
L 139.883818 118.440388 
L 142.415705 119.081732 
L 144.947591 119.95085 
L 147.479477 121.049887 
L 150.011364 122.377572 
L 152.54325 123.929107 
L 155.708108 126.153382 
L 158.239994 127.84104 
L 160.771881 129.303967 
L 163.303767 130.542653 
L 165.835653 131.559365 
L 168.36754 132.358589 
L 170.899426 132.946871 
L 173.431313 133.3325 
L 175.963199 133.525122 
L 179.128057 133.51065 
L 182.292915 133.232856 
L 185.457773 132.713579 
L 194.319375 131.061246 
L 208.877722 128.622216 
L 218.372295 127.150493 
L 220.904182 127.011776 
L 223.436068 127.057166 
L 226.600926 127.364679 
L 229.765784 127.935681 
L 232.930642 128.749512 
L 236.0955 129.783947 
L 239.89333 131.289326 
L 243.691159 133.065773 
L 247.488989 135.122909 
L 251.91979 137.659999 
L 254.451676 138.760411 
L 256.983563 139.603784 
L 259.515449 140.211132 
L 262.047335 140.590606 
L 264.579222 140.736961 
L 267.111108 140.631991 
L 269.642994 140.245937 
L 271.541909 139.748783 
L 273.440824 139.053044 
L 275.339739 138.139198 
L 277.238653 136.988077 
L 279.137568 135.582087 
L 281.036483 133.906418 
L 282.935398 131.950082 
L 284.834313 129.706657 
L 286.733227 127.174569 
L 289.265114 123.355142 
L 291.797 119.044883 
L 294.328886 114.265701 
L 296.860773 109.038017 
L 299.392659 103.377374 
L 302.557517 95.720564 
L 303.190489 94.11785 
L 303.82346 130.478114 
L 304.456432 130.086506 
L 305.722375 129.826629 
L 308.254261 129.762158 
L 357.626045 129.766203 
L 387.37571 129.766665 
L 387.37571 129.766665 
" clip-path="url(#p2706f8ba21)" style="fill: none; stroke-dasharray: 5.55,2.4; stroke-dashoffset: 0; stroke: #2b737e; stroke-width: 1.5"/>
   </g>
   <g id="line2d_9">
    <path d="M 70.889915 129.76679 
L 71.522886 165.884149 
L 72.78883 163.215307 
L 75.320716 158.558756 
L 79.118545 152.035374 
L 82.283403 147.030002 
L 85.448261 142.485812 
L 87.980148 139.207917 
L 90.512034 136.256661 
L 93.04392 133.630823 
L 95.575807 131.321054 
L 98.107693 129.310705 
L 100.63958 127.576882 
L 103.171466 126.091682 
L 106.336324 124.536459 
L 109.501182 123.253716 
L 113.299011 121.97782 
L 118.362784 120.536623 
L 125.958443 118.602175 
L 129.123301 118.077993 
L 132.288159 117.815305 
L 134.820045 117.816057 
L 137.351932 118.019633 
L 139.883818 118.437243 
L 142.415705 119.077244 
L 144.947591 119.944997 
L 147.479477 121.042665 
L 150.011364 122.369 
L 152.54325 123.919224 
L 155.708108 126.142661 
L 158.239994 127.831659 
L 160.771881 129.295923 
L 163.303767 130.53594 
L 165.835653 131.553962 
L 168.36754 132.354464 
L 170.899426 132.943978 
L 173.431313 133.330786 
L 175.963199 133.524526 
L 179.128057 133.511361 
L 182.292915 133.234769 
L 185.457773 132.716589 
L 194.319375 131.063894 
L 208.877722 128.624694 
L 218.372295 127.151876 
L 220.904182 127.012053 
L 223.436068 127.05636 
L 226.600926 127.362575 
L 229.765784 127.932369 
L 232.930642 128.745096 
L 236.0955 129.778531 
L 239.89333 131.282812 
L 243.691159 133.058187 
L 247.488989 135.11414 
L 251.91979 137.652619 
L 254.451676 138.754648 
L 256.983563 139.599477 
L 259.515449 140.208193 
L 262.047335 140.589025 
L 264.579222 140.736809 
L 267.111108 140.633413 
L 269.642994 140.249139 
L 271.541909 139.753485 
L 273.440824 139.059398 
L 275.339739 138.14736 
L 277.238653 136.998194 
L 279.137568 135.59429 
L 281.036483 133.92081 
L 282.935398 131.966733 
L 284.834313 129.725599 
L 286.733227 127.195796 
L 289.265114 123.379349 
L 291.797 119.071949 
L 294.328886 114.295493 
L 296.860773 109.070429 
L 299.392659 103.412321 
L 302.557517 95.758455 
L 303.190489 94.15626 
L 303.82346 130.491698 
L 304.456432 130.092702 
L 305.722375 129.827914 
L 308.254261 129.762208 
L 356.360102 129.766163 
L 387.37571 129.766665 
L 387.37571 129.766665 
" clip-path="url(#p2706f8ba21)" style="fill: none; stroke: #2b737e; stroke-width: 1.5; stroke-linecap: square"/>
   </g>
   <g id="line2d_10">
    <path d="M 70.889915 185.649563 
L 71.522886 185.793768 
L 72.155858 185.785519 
L 72.78883 185.634635 
L 74.054773 184.947925 
L 75.320716 183.818409 
L 76.586659 182.325429 
L 78.485574 179.560898 
L 80.384489 176.35436 
L 83.549347 170.501464 
L 88.613119 161.103719 
L 91.145006 156.804108 
L 93.676892 152.918274 
L 96.208778 149.49938 
L 98.107693 147.256282 
L 100.006608 145.291339 
L 101.905523 143.602807 
L 103.804438 142.186683 
L 105.703352 141.037927 
L 107.602267 140.151276 
L 109.501182 139.521703 
L 111.400097 139.144546 
L 113.299011 139.015384 
L 115.197926 139.129695 
L 117.096841 139.482341 
L 118.995756 140.066915 
L 120.89467 140.874978 
L 123.426557 142.260734 
L 127.857358 144.733515 
L 130.389244 145.941695 
L 132.921131 146.905133 
L 134.820045 147.429062 
L 136.71896 147.755642 
L 138.617875 147.861451 
L 140.51679 147.723282 
L 142.415705 147.317921 
L 144.314619 146.622312 
L 146.213534 145.614094 
L 148.112449 144.272448 
L 150.011364 142.57919 
L 151.910278 140.51997 
L 153.809193 138.085443 
L 156.34108 134.347471 
L 161.404852 126.935269 
L 164.56971 122.675753 
L 167.101597 119.604039 
L 169.633483 116.911372 
L 171.532398 115.179727 
L 173.431313 113.720771 
L 175.330227 112.553903 
L 177.229142 111.694926 
L 179.128057 111.156264 
L 181.026972 110.94728 
L 182.292915 110.99451 
L 183.558858 111.192684 
L 185.457773 111.775081 
L 187.989659 112.879095 
L 191.154517 114.490554 
L 195.585318 117.030654 
L 210.776636 126.03321 
L 214.574466 127.899598 
L 217.106352 128.943053 
L 219.005267 129.508052 
L 220.904182 129.887394 
L 223.436068 130.138951 
L 225.967955 130.145128 
L 229.132812 129.887085 
L 232.930642 129.330431 
L 240.526301 128.15884 
L 243.691159 127.934621 
L 246.223045 127.964883 
L 248.754932 128.224453 
L 257.616534 129.586218 
L 260.14842 129.725691 
L 262.680307 129.642907 
L 264.579222 129.399284 
L 266.478136 128.971625 
L 268.377051 128.332823 
L 270.275966 127.453293 
L 272.174881 126.29984 
L 274.073795 124.834551 
L 275.97271 123.013841 
L 277.871625 120.787903 
L 279.77054 118.100802 
L 281.669455 114.891552 
L 283.568369 111.096481 
L 285.467284 106.653225 
L 287.366199 101.506557 
L 289.265114 95.616199 
L 291.164028 88.966558 
L 293.062943 81.578182 
L 295.59483 70.706608 
L 299.392659 53.00017 
L 302.557517 38.439033 
L 303.190489 35.733835 
L 303.82346 130.153679 
L 309.520205 129.907129 
L 318.381807 129.774438 
L 339.902841 129.753482 
L 387.37571 129.766391 
L 387.37571 129.766391 
" clip-path="url(#p2706f8ba21)" style="fill: none; stroke-dasharray: 5.55,2.4; stroke-dashoffset: 0; stroke: #5ea04b; stroke-width: 1.5"/>
   </g>
   <g id="line2d_11">
    <path d="M 70.889915 129.76679 
L 71.522886 185.792141 
L 72.155858 185.787415 
L 72.78883 185.639803 
L 74.054773 184.958868 
L 75.320716 183.834144 
L 76.586659 182.345051 
L 78.485574 179.584839 
L 80.384489 176.381057 
L 83.549347 170.529997 
L 88.613119 161.130384 
L 91.145006 156.828549 
L 93.676892 152.940058 
L 96.208778 149.518292 
L 98.107693 147.272989 
L 100.006608 145.305841 
L 101.905523 143.615129 
L 103.804438 142.196863 
L 105.703352 141.046005 
L 107.602267 140.157295 
L 109.501182 139.5257 
L 111.400097 139.146557 
L 113.299011 139.015444 
L 115.197926 139.127842 
L 117.096841 139.47862 
L 118.995756 140.061383 
L 120.89467 140.867712 
L 123.426557 142.25199 
L 127.857358 144.725731 
L 130.389244 145.93516 
L 132.921131 146.900249 
L 134.820045 147.425649 
L 136.71896 147.753889 
L 138.617875 147.861541 
L 140.51679 147.7254 
L 142.415705 147.32225 
L 144.314619 146.629035 
L 146.213534 145.623382 
L 148.112449 144.284458 
L 150.011364 142.594053 
L 151.910278 140.537782 
L 153.809193 138.106256 
L 156.34108 134.370101 
L 161.404852 126.956444 
L 164.56971 122.695028 
L 167.101597 119.621271 
L 169.633483 116.926146 
L 171.532398 115.192424 
L 173.431313 113.731223 
L 175.330227 112.56197 
L 177.229142 111.700497 
L 179.128057 111.159252 
L 181.026972 110.947622 
L 182.292915 110.993062 
L 183.558858 111.189432 
L 185.457773 111.76911 
L 187.989659 112.871979 
L 191.154517 114.482395 
L 195.585318 117.021645 
L 210.776636 126.025272 
L 214.574466 127.892778 
L 217.106352 128.937773 
L 219.005267 129.504325 
L 220.904182 129.885063 
L 223.436068 130.13823 
L 225.967955 130.145717 
L 229.132812 129.888863 
L 232.930642 129.332939 
L 240.526301 128.160476 
L 243.691159 127.935053 
L 246.223045 127.96406 
L 248.754932 128.222164 
L 257.616534 129.584841 
L 260.14842 129.725459 
L 262.680307 129.644174 
L 264.579222 129.401907 
L 266.478136 128.975813 
L 268.377051 128.3388 
L 270.275966 127.461305 
L 272.174881 126.310168 
L 274.073795 124.847517 
L 275.97271 123.029816 
L 277.871625 120.807307 
L 279.77054 118.124101 
L 281.669455 114.919244 
L 283.568369 111.129073 
L 285.467284 106.691193 
L 287.366199 101.550292 
L 289.265114 95.665936 
L 291.164028 89.022297 
L 293.062943 81.639584 
L 295.59483 70.774258 
L 299.392659 53.071554 
L 302.557517 38.504665 
L 303.190489 35.796998 
L 303.82346 130.154631 
L 309.520205 129.907548 
L 318.381807 129.774535 
L 339.902841 129.753472 
L 387.37571 129.766391 
L 387.37571 129.766391 
" clip-path="url(#p2706f8ba21)" style="fill: none; stroke: #5ea04b; stroke-width: 1.5; stroke-linecap: square"/>
   </g>
   <g id="line2d_12">
    <path d="M 70.889915 231.26054 
L 73.421801 209.712985 
L 75.953688 190.148596 
L 78.485574 172.629771 
L 80.384489 160.835784 
L 82.283403 150.179185 
L 84.182318 140.634907 
L 86.081233 132.170365 
L 87.980148 124.747627 
L 89.879063 118.325346 
L 91.777977 112.860473 
L 93.676892 108.30977 
L 94.942835 105.762952 
L 96.208778 103.591671 
L 97.474722 101.784488 
L 98.740665 100.330618 
L 100.006608 99.220006 
L 101.272551 98.443399 
L 102.538494 97.992401 
L 103.804438 97.859515 
L 105.070381 98.038176 
L 106.336324 98.522779 
L 107.602267 99.308698 
L 108.86821 100.392301 
L 110.134153 101.770964 
L 111.400097 103.443079 
L 112.66604 105.408069 
L 114.564955 108.905989 
L 116.463869 113.07016 
L 118.362784 117.912004 
L 120.261699 123.44847 
L 122.160614 129.702147 
L 124.059528 136.124621 
L 125.958443 141.57548 
L 127.857358 146.128938 
L 129.756273 149.890867 
L 131.655188 152.95741 
L 132.921131 154.657985 
L 134.187074 156.109881 
L 135.453017 157.332875 
L 136.71896 158.344142 
L 137.984903 159.158193 
L 139.250847 159.786838 
L 140.51679 160.239183 
L 141.782733 160.521664 
L 143.048676 160.638117 
L 144.314619 160.589887 
L 145.580563 160.375979 
L 146.846506 159.993249 
L 148.112449 159.436651 
L 149.378392 158.699515 
L 150.644335 157.773887 
L 151.910278 156.650905 
L 153.176222 155.321226 
L 155.075136 152.919365 
L 157.607023 149.577505 
L 160.771881 145.759256 
L 164.56971 141.569605 
L 168.36754 137.75848 
L 171.532398 134.888926 
L 174.697256 132.330828 
L 177.229142 130.527542 
L 179.761028 128.949089 
L 182.292915 127.594981 
L 184.824801 126.456247 
L 186.723716 125.773408 
L 188.622631 125.358965 
L 190.521545 125.212337 
L 192.42046 125.323424 
L 194.319375 125.682146 
L 196.21829 126.27857 
L 198.117205 127.102998 
L 200.016119 128.146017 
L 201.915034 129.398499 
L 204.44692 131.378999 
L 206.978807 133.695564 
L 209.510693 136.32778 
L 212.04258 139.254771 
L 215.207438 143.294173 
L 217.106352 145.702949 
L 218.372295 146.887395 
L 219.638239 147.714236 
L 220.904182 148.19568 
L 222.170125 148.343914 
L 223.436068 148.171122 
L 224.702011 147.689516 
L 225.967955 146.911352 
L 227.233898 145.848954 
L 228.499841 144.514734 
L 229.765784 142.92121 
L 231.664699 140.072416 
L 233.563614 136.711885 
L 235.462528 132.88355 
L 237.361443 128.632023 
L 239.89333 122.383253 
L 242.425216 115.571092 
L 245.590074 106.43094 
L 250.653847 91.309052 
L 251.91979 88.367332 
L 253.185733 85.991635 
L 254.451676 84.156438 
L 255.717619 82.836951 
L 256.983563 82.009071 
L 258.249506 81.649294 
L 259.515449 81.734556 
L 260.781392 82.242028 
L 262.047335 83.148844 
L 263.313278 84.431769 
L 264.579222 86.066821 
L 265.845165 88.028848 
L 267.74408 91.525852 
L 269.642994 95.598226 
L 272.174881 101.724677 
L 275.97271 111.744982 
L 279.77054 121.587082 
L 281.669455 125.975686 
L 283.568369 129.755046 
L 284.834313 131.849096 
L 286.100256 133.550132 
L 287.366199 134.822783 
L 288.632142 135.643217 
L 289.898085 136.001928 
L 291.164028 135.906585 
L 292.429972 135.384916 
L 293.695915 134.487559 
L 294.961858 133.290896 
L 299.392659 128.549737 
L 300.025631 128.094825 
L 300.658602 127.780541 
L 301.291574 127.641523 
L 301.924545 127.715088 
L 302.557517 128.041277 
L 303.190489 128.662902 
L 303.82346 129.750121 
L 387.37571 129.766772 
L 387.37571 129.766772 
" clip-path="url(#p2706f8ba21)" style="fill: none; stroke-dasharray: 5.55,2.4; stroke-dashoffset: 0; stroke: #bdab62; stroke-width: 1.5"/>
   </g>
   <g id="line2d_13">
    <path d="M 70.889915 129.76679 
L 71.522886 225.826022 
L 74.054773 204.751705 
L 76.586659 185.683586 
L 79.118545 168.666053 
L 81.01746 157.244362 
L 82.916375 146.952872 
L 84.81529 137.763813 
L 86.714205 129.642637 
L 88.613119 122.550098 
L 90.512034 116.444117 
L 92.410949 111.281429 
L 93.676892 108.3424 
L 94.942835 105.79104 
L 96.208778 103.615356 
L 97.474722 101.803904 
L 98.740665 100.345888 
L 100.006608 99.231245 
L 101.272551 98.450713 
L 102.538494 97.995885 
L 103.804438 97.859252 
L 105.070381 98.034239 
L 106.336324 98.515229 
L 107.602267 99.297585 
L 108.86821 100.377661 
L 110.134153 101.752823 
L 111.400097 103.42145 
L 112.66604 105.382953 
L 114.564955 108.875616 
L 116.463869 113.034462 
L 118.362784 117.870868 
L 120.261699 123.40174 
L 122.160614 129.649621 
L 124.059528 136.07747 
L 125.958443 141.535898 
L 127.857358 146.09605 
L 129.756273 149.863868 
L 131.655188 152.93558 
L 132.921131 154.639245 
L 134.187074 156.09398 
L 135.453017 157.319592 
L 136.71896 158.333289 
L 137.984903 159.149614 
L 139.250847 159.780407 
L 140.51679 160.234807 
L 141.782733 160.519282 
L 143.048676 160.6377 
L 144.314619 160.591432 
L 145.580563 160.37951 
L 146.846506 159.998816 
L 148.112449 159.444324 
L 149.378392 158.709382 
L 150.644335 157.786048 
L 151.910278 156.665471 
L 153.176222 155.338308 
L 155.075136 152.940219 
L 157.607023 149.596546 
L 160.771881 145.776672 
L 164.56971 141.58548 
L 168.36754 137.772837 
L 171.532398 134.901878 
L 174.697256 132.342224 
L 177.229142 130.537614 
L 179.761028 128.957816 
L 182.292915 127.602391 
L 184.824801 126.462418 
L 186.723716 125.777795 
L 188.622631 125.361186 
L 190.521545 125.212472 
L 192.42046 125.321555 
L 194.319375 125.678351 
L 196.21829 126.272926 
L 198.117205 127.095582 
L 200.016119 128.136903 
L 201.915034 129.387758 
L 204.44692 131.366196 
L 206.978807 133.680821 
L 209.510693 136.311219 
L 212.04258 139.236519 
L 215.207438 143.274002 
L 217.106352 145.686645 
L 218.372295 146.875422 
L 219.638239 147.706449 
L 220.904182 148.191933 
L 222.170125 148.344061 
L 223.436068 148.17502 
L 224.702011 147.697018 
L 225.967955 146.922312 
L 227.233898 145.863225 
L 228.499841 144.532167 
L 229.765784 142.941656 
L 231.664699 140.097097 
L 233.563614 136.740456 
L 235.462528 132.915659 
L 237.361443 128.667314 
L 239.89333 122.422223 
L 242.425216 115.613092 
L 245.590074 106.475803 
L 250.653847 91.347587 
L 251.91979 88.398972 
L 253.185733 86.016688 
L 254.451676 84.175204 
L 255.717619 82.84972 
L 256.983563 82.016128 
L 258.249506 81.650914 
L 259.515449 81.731012 
L 260.781392 82.233592 
L 262.047335 83.13579 
L 263.313278 84.414376 
L 264.579222 86.045381 
L 265.845165 88.00367 
L 267.74408 91.495693 
L 269.642994 95.563927 
L 272.174881 101.686378 
L 275.97271 111.704625 
L 279.77054 121.550319 
L 281.669455 125.94301 
L 283.568369 129.727921 
L 284.834313 131.826398 
L 286.100256 133.532341 
L 287.366199 134.810258 
L 288.632142 135.636163 
L 289.898085 136.000362 
L 290.531057 136.010901 
L 291.797 135.702653 
L 293.062943 134.989757 
L 294.328886 133.935065 
L 296.227801 131.917038 
L 298.759688 129.127739 
L 300.025631 128.104154 
L 300.658602 127.786129 
L 301.291574 127.642516 
L 301.924545 127.710564 
L 302.557517 128.030253 
L 303.190489 128.644324 
L 303.82346 129.750106 
L 387.37571 129.766772 
L 387.37571 129.766772 
" clip-path="url(#p2706f8ba21)" style="fill: none; stroke: #bdab62; stroke-width: 1.5; stroke-linecap: square"/>
   </g>
   <g id="patch_3">
    <path d="M 55.065625 241.036875 
L 55.065625 25.9575 
" style="fill: none; stroke: #000000; stroke-width: 0.8; stroke-linejoin: miter; stroke-linecap: square"/>
   </g>
   <g id="patch_4">
    <path d="M 403.2 241.036875 
L 403.2 25.9575 
" style="fill: none; stroke: #000000; stroke-width: 0.8; stroke-linejoin: miter; stroke-linecap: square"/>
   </g>
   <g id="patch_5">
    <path d="M 55.065625 241.036875 
L 403.2 241.036875 
" style="fill: none; stroke: #000000; stroke-width: 0.8; stroke-linejoin: miter; stroke-linecap: square"/>
   </g>
   <g id="patch_6">
    <path d="M 55.065625 25.9575 
L 403.2 25.9575 
" style="fill: none; stroke: #000000; stroke-width: 0.8; stroke-linejoin: miter; stroke-linecap: square"/>
   </g>
   <g id="legend_1">
    <g id="patch_7">
     <path d="M 351.54 236.536875 
L 396.9 236.536875 
Q 398.7 236.536875 398.7 234.736875 
L 398.7 149.781094 
Q 398.7 147.981094 396.9 147.981094 
L 351.54 147.981094 
Q 349.74 147.981094 349.74 149.781094 
L 349.74 234.736875 
Q 349.74 236.536875 351.54 236.536875 
z
" style="fill: #ffffff; opacity: 0.8; stroke: #cccccc; stroke-linejoin: miter"/>
    </g>
    <g id="line2d_14">
     <path d="M 353.34 156.711094 
L 362.34 156.711094 
L 371.34 156.711094 
" style="fill: none; stroke-dasharray: 5.55,2.4; stroke-dashoffset: 0; stroke: #2b737e; stroke-width: 1.5"/>
    </g>
    <g id="text_11">
     <!-- $\hat u_{s,0}$ -->
     <g transform="translate(378.54 159.861094) scale(0.09 -0.09)">
      <defs>
       <path id="DejaVuSans-302" d="M -1831 5119 
L -1369 5119 
L -603 3944 
L -1038 3944 
L -1600 4709 
L -2163 3944 
L -2597 3944 
L -1831 5119 
z
M -1600 3584 
L -1600 3584 
z
" transform="scale(0.015625)"/>
       <path id="DejaVuSans-Oblique-75" d="M 428 1388 
L 838 3500 
L 1416 3500 
L 1006 1409 
Q 975 1256 961 1147 
Q 947 1038 947 966 
Q 947 700 1109 554 
Q 1272 409 1569 409 
Q 2031 409 2368 721 
Q 2706 1034 2809 1563 
L 3194 3500 
L 3769 3500 
L 3091 0 
L 2516 0 
L 2631 550 
Q 2388 244 2052 76 
Q 1716 -91 1338 -91 
Q 878 -91 622 161 
Q 366 413 366 863 
Q 366 956 381 1097 
Q 397 1238 428 1388 
z
" transform="scale(0.015625)"/>
       <path id="DejaVuSans-Oblique-73" d="M 3200 3397 
L 3091 2853 
Q 2863 2978 2609 3040 
Q 2356 3103 2088 3103 
Q 1634 3103 1373 2948 
Q 1113 2794 1113 2528 
Q 1113 2219 1719 2053 
Q 1766 2041 1788 2034 
L 1972 1978 
Q 2547 1819 2739 1644 
Q 2931 1469 2931 1166 
Q 2931 609 2489 259 
Q 2047 -91 1331 -91 
Q 1053 -91 747 -37 
Q 441 16 72 128 
L 184 722 
Q 500 559 806 475 
Q 1113 391 1394 391 
Q 1816 391 2080 572 
Q 2344 753 2344 1031 
Q 2344 1331 1650 1516 
L 1591 1531 
L 1394 1581 
Q 956 1697 753 1886 
Q 550 2075 550 2369 
Q 550 2928 970 3256 
Q 1391 3584 2113 3584 
Q 2397 3584 2667 3537 
Q 2938 3491 3200 3397 
z
" transform="scale(0.015625)"/>
       <path id="DejaVuSans-2c" d="M 750 794 
L 1409 794 
L 1409 256 
L 897 -744 
L 494 -744 
L 750 256 
L 750 794 
z
" transform="scale(0.015625)"/>
      </defs>
      <use xlink:href="#DejaVuSans-302" transform="translate(57.871094 12.015625)"/>
      <use xlink:href="#DejaVuSans-Oblique-75" transform="translate(0 0.828125)"/>
      <use xlink:href="#DejaVuSans-Oblique-73" transform="translate(64.335938 -15.578125) scale(0.7)"/>
      <use xlink:href="#DejaVuSans-2c" transform="translate(100.805664 -15.578125) scale(0.7)"/>
      <use xlink:href="#DejaVuSans-30" transform="translate(136.694336 -15.578125) scale(0.7)"/>
     </g>
    </g>
    <g id="line2d_15">
     <path d="M 353.34 170.299688 
L 362.34 170.299688 
L 371.34 170.299688 
" style="fill: none; stroke: #2b737e; stroke-width: 1.5; stroke-linecap: square"/>
    </g>
    <g id="text_12">
     <!-- $u_{s,0}$ -->
     <g transform="translate(378.54 173.449688) scale(0.09 -0.09)">
      <use xlink:href="#DejaVuSans-Oblique-75" transform="translate(0 0.3125)"/>
      <use xlink:href="#DejaVuSans-Oblique-73" transform="translate(63.378906 -16.09375) scale(0.7)"/>
      <use xlink:href="#DejaVuSans-2c" transform="translate(99.848633 -16.09375) scale(0.7)"/>
      <use xlink:href="#DejaVuSans-30" transform="translate(135.737305 -16.09375) scale(0.7)"/>
     </g>
    </g>
    <g id="line2d_16">
     <path d="M 353.34 185.329688 
L 362.34 185.329688 
L 371.34 185.329688 
" style="fill: none; stroke-dasharray: 5.55,2.4; stroke-dashoffset: 0; stroke: #5ea04b; stroke-width: 1.5"/>
    </g>
    <g id="text_13">
     <!-- $\hat u_{s,1}$ -->
     <g transform="translate(378.54 188.479688) scale(0.09 -0.09)">
      <use xlink:href="#DejaVuSans-302" transform="translate(57.871094 12.015625)"/>
      <use xlink:href="#DejaVuSans-Oblique-75" transform="translate(0 0.828125)"/>
      <use xlink:href="#DejaVuSans-Oblique-73" transform="translate(64.335938 -15.578125) scale(0.7)"/>
      <use xlink:href="#DejaVuSans-2c" transform="translate(100.805664 -15.578125) scale(0.7)"/>
      <use xlink:href="#DejaVuSans-31" transform="translate(136.694336 -15.578125) scale(0.7)"/>
     </g>
    </g>
    <g id="line2d_17">
     <path d="M 353.34 198.918281 
L 362.34 198.918281 
L 371.34 198.918281 
" style="fill: none; stroke: #5ea04b; stroke-width: 1.5; stroke-linecap: square"/>
    </g>
    <g id="text_14">
     <!-- $u_{s,1}$ -->
     <g transform="translate(378.54 202.068281) scale(0.09 -0.09)">
      <use xlink:href="#DejaVuSans-Oblique-75" transform="translate(0 0.3125)"/>
      <use xlink:href="#DejaVuSans-Oblique-73" transform="translate(63.378906 -16.09375) scale(0.7)"/>
      <use xlink:href="#DejaVuSans-2c" transform="translate(99.848633 -16.09375) scale(0.7)"/>
      <use xlink:href="#DejaVuSans-31" transform="translate(135.737305 -16.09375) scale(0.7)"/>
     </g>
    </g>
    <g id="line2d_18">
     <path d="M 353.34 213.948281 
L 362.34 213.948281 
L 371.34 213.948281 
" style="fill: none; stroke-dasharray: 5.55,2.4; stroke-dashoffset: 0; stroke: #bdab62; stroke-width: 1.5"/>
    </g>
    <g id="text_15">
     <!-- $\hat u_{s,2}$ -->
     <g transform="translate(378.54 217.098281) scale(0.09 -0.09)">
      <use xlink:href="#DejaVuSans-302" transform="translate(57.871094 12.015625)"/>
      <use xlink:href="#DejaVuSans-Oblique-75" transform="translate(0 0.828125)"/>
      <use xlink:href="#DejaVuSans-Oblique-73" transform="translate(64.335938 -15.578125) scale(0.7)"/>
      <use xlink:href="#DejaVuSans-2c" transform="translate(100.805664 -15.578125) scale(0.7)"/>
      <use xlink:href="#DejaVuSans-32" transform="translate(136.694336 -15.578125) scale(0.7)"/>
     </g>
    </g>
    <g id="line2d_19">
     <path d="M 353.34 227.536875 
L 362.34 227.536875 
L 371.34 227.536875 
" style="fill: none; stroke: #bdab62; stroke-width: 1.5; stroke-linecap: square"/>
    </g>
    <g id="text_16">
     <!-- $u_{s,2}$ -->
     <g transform="translate(378.54 230.686875) scale(0.09 -0.09)">
      <use xlink:href="#DejaVuSans-Oblique-75" transform="translate(0 0.3125)"/>
      <use xlink:href="#DejaVuSans-Oblique-73" transform="translate(63.378906 -16.09375) scale(0.7)"/>
      <use xlink:href="#DejaVuSans-2c" transform="translate(99.848633 -16.09375) scale(0.7)"/>
      <use xlink:href="#DejaVuSans-32" transform="translate(135.737305 -16.09375) scale(0.7)"/>
     </g>
    </g>
   </g>
  </g>
 </g>
 <defs>
  <clipPath id="p2706f8ba21">
   <rect x="55.065625" y="25.9575" width="348.134375" height="215.079375"/>
  </clipPath>
 </defs>
</svg>
