<?xml version="1.0" encoding="utf-8" standalone="no"?>
<!DOCTYPE svg PUBLIC "-//W3C//DTD SVG 1.1//EN"
  "http://www.w3.org/Graphics/SVG/1.1/DTD/svg11.dtd">
<svg xmlns:xlink="http://www.w3.org/1999/xlink" width="414pt" height="288pt" viewBox="0 0 414 288" xmlns="http://www.w3.org/2000/svg" version="1.1">
 <metadata>
  <rdf:RDF xmlns:dc="http://purl.org/dc/elements/1.1/" xmlns:cc="http://creativecommons.org/ns#" xmlns:rdf="http://www.w3.org/1999/02/22-rdf-syntax-ns#">
   <cc:Work>
    <dc:type rdf:resource="http://purl.org/dc/dcmitype/StillImage"/>
    <dc:date>2023-09-07T00:35:10.474417</dc:date>
    <dc:format>image/svg+xml</dc:format>
    <dc:creator>
     <cc:Agent>
      <dc:title>Matplotlib v3.7.2, https://matplotlib.org/</dc:title>
     </cc:Agent>
    </dc:creator>
   </cc:Work>
  </rdf:RDF>
 </metadata>
 <defs>
  <style type="text/css">*{stroke-linejoin: round; stroke-linecap: butt}</style>
 </defs>
 <g id="figure_1">
  <g id="patch_1">
   <path d="M 0 288 
L 414 288 
L 414 0 
L 0 0 
L 0 288 
z
" style="fill: none"/>
  </g>
  <g id="axes_1">
   <g id="patch_2">
    <path d="M 90.690625 241.036875 
L 403.2 241.036875 
L 403.2 10.8 
L 90.690625 10.8 
L 90.690625 241.036875 
z
" style="fill: none"/>
   </g>
   <g id="matplotlib.axis_1">
    <g id="xtick_1">
     <g id="line2d_1">
      <defs>
       <path id="mef0341bb43" d="M 0 0 
L 0 3.5 
" style="stroke: #000000; stroke-width: 0.8"/>
      </defs>
      <g>
       <use xlink:href="#mef0341bb43" x="104.895597" y="241.036875" style="stroke: #000000; stroke-width: 0.8"/>
      </g>
     </g>
     <g id="text_1">
      <!-- 0.0 -->
      <g transform="translate(92.173097 260.194375) scale(0.16 -0.16)">
       <defs>
        <path id="DejaVuSans-30" d="M 2034 4250 
Q 1547 4250 1301 3770 
Q 1056 3291 1056 2328 
Q 1056 1369 1301 889 
Q 1547 409 2034 409 
Q 2525 409 2770 889 
Q 3016 1369 3016 2328 
Q 3016 3291 2770 3770 
Q 2525 4250 2034 4250 
z
M 2034 4750 
Q 2819 4750 3233 4129 
Q 3647 3509 3647 2328 
Q 3647 1150 3233 529 
Q 2819 -91 2034 -91 
Q 1250 -91 836 529 
Q 422 1150 422 2328 
Q 422 3509 836 4129 
Q 1250 4750 2034 4750 
z
" transform="scale(0.015625)"/>
        <path id="DejaVuSans-2e" d="M 684 794 
L 1344 794 
L 1344 0 
L 684 0 
L 684 794 
z
" transform="scale(0.015625)"/>
       </defs>
       <use xlink:href="#DejaVuSans-30"/>
       <use xlink:href="#DejaVuSans-2e" x="63.623047"/>
       <use xlink:href="#DejaVuSans-30" x="95.410156"/>
      </g>
     </g>
    </g>
    <g id="xtick_2">
     <g id="line2d_2">
      <g>
       <use xlink:href="#mef0341bb43" x="180.853315" y="241.036875" style="stroke: #000000; stroke-width: 0.8"/>
      </g>
     </g>
     <g id="text_2">
      <!-- 0.2 -->
      <g transform="translate(168.130815 260.194375) scale(0.16 -0.16)">
       <defs>
        <path id="DejaVuSans-32" d="M 1228 531 
L 3431 531 
L 3431 0 
L 469 0 
L 469 531 
Q 828 903 1448 1529 
Q 2069 2156 2228 2338 
Q 2531 2678 2651 2914 
Q 2772 3150 2772 3378 
Q 2772 3750 2511 3984 
Q 2250 4219 1831 4219 
Q 1534 4219 1204 4116 
Q 875 4013 500 3803 
L 500 4441 
Q 881 4594 1212 4672 
Q 1544 4750 1819 4750 
Q 2544 4750 2975 4387 
Q 3406 4025 3406 3419 
Q 3406 3131 3298 2873 
Q 3191 2616 2906 2266 
Q 2828 2175 2409 1742 
Q 1991 1309 1228 531 
z
" transform="scale(0.015625)"/>
       </defs>
       <use xlink:href="#DejaVuSans-30"/>
       <use xlink:href="#DejaVuSans-2e" x="63.623047"/>
       <use xlink:href="#DejaVuSans-32" x="95.410156"/>
      </g>
     </g>
    </g>
    <g id="xtick_3">
     <g id="line2d_3">
      <g>
       <use xlink:href="#mef0341bb43" x="256.811034" y="241.036875" style="stroke: #000000; stroke-width: 0.8"/>
      </g>
     </g>
     <g id="text_3">
      <!-- 0.4 -->
      <g transform="translate(244.088534 260.194375) scale(0.16 -0.16)">
       <defs>
        <path id="DejaVuSans-34" d="M 2419 4116 
L 825 1625 
L 2419 1625 
L 2419 4116 
z
M 2253 4666 
L 3047 4666 
L 3047 1625 
L 3713 1625 
L 3713 1100 
L 3047 1100 
L 3047 0 
L 2419 0 
L 2419 1100 
L 313 1100 
L 313 1709 
L 2253 4666 
z
" transform="scale(0.015625)"/>
       </defs>
       <use xlink:href="#DejaVuSans-30"/>
       <use xlink:href="#DejaVuSans-2e" x="63.623047"/>
       <use xlink:href="#DejaVuSans-34" x="95.410156"/>
      </g>
     </g>
    </g>
    <g id="xtick_4">
     <g id="line2d_4">
      <g>
       <use xlink:href="#mef0341bb43" x="332.768752" y="241.036875" style="stroke: #000000; stroke-width: 0.8"/>
      </g>
     </g>
     <g id="text_4">
      <!-- 0.6 -->
      <g transform="translate(320.046252 260.194375) scale(0.16 -0.16)">
       <defs>
        <path id="DejaVuSans-36" d="M 2113 2584 
Q 1688 2584 1439 2293 
Q 1191 2003 1191 1497 
Q 1191 994 1439 701 
Q 1688 409 2113 409 
Q 2538 409 2786 701 
Q 3034 994 3034 1497 
Q 3034 2003 2786 2293 
Q 2538 2584 2113 2584 
z
M 3366 4563 
L 3366 3988 
Q 3128 4100 2886 4159 
Q 2644 4219 2406 4219 
Q 1781 4219 1451 3797 
Q 1122 3375 1075 2522 
Q 1259 2794 1537 2939 
Q 1816 3084 2150 3084 
Q 2853 3084 3261 2657 
Q 3669 2231 3669 1497 
Q 3669 778 3244 343 
Q 2819 -91 2113 -91 
Q 1303 -91 875 529 
Q 447 1150 447 2328 
Q 447 3434 972 4092 
Q 1497 4750 2381 4750 
Q 2619 4750 2861 4703 
Q 3103 4656 3366 4563 
z
" transform="scale(0.015625)"/>
       </defs>
       <use xlink:href="#DejaVuSans-30"/>
       <use xlink:href="#DejaVuSans-2e" x="63.623047"/>
       <use xlink:href="#DejaVuSans-36" x="95.410156"/>
      </g>
     </g>
    </g>
    <g id="text_5">
     <!-- Time [orbits] -->
     <g transform="translate(214.978125 275.120313) scale(0.1 -0.1)">
      <defs>
       <path id="DejaVuSans-54" d="M -19 4666 
L 3928 4666 
L 3928 4134 
L 2272 4134 
L 2272 0 
L 1638 0 
L 1638 4134 
L -19 4134 
L -19 4666 
z
" transform="scale(0.015625)"/>
       <path id="DejaVuSans-69" d="M 603 3500 
L 1178 3500 
L 1178 0 
L 603 0 
L 603 3500 
z
M 603 4863 
L 1178 4863 
L 1178 4134 
L 603 4134 
L 603 4863 
z
" transform="scale(0.015625)"/>
       <path id="DejaVuSans-6d" d="M 3328 2828 
Q 3544 3216 3844 3400 
Q 4144 3584 4550 3584 
Q 5097 3584 5394 3201 
Q 5691 2819 5691 2113 
L 5691 0 
L 5113 0 
L 5113 2094 
Q 5113 2597 4934 2840 
Q 4756 3084 4391 3084 
Q 3944 3084 3684 2787 
Q 3425 2491 3425 1978 
L 3425 0 
L 2847 0 
L 2847 2094 
Q 2847 2600 2669 2842 
Q 2491 3084 2119 3084 
Q 1678 3084 1418 2786 
Q 1159 2488 1159 1978 
L 1159 0 
L 581 0 
L 581 3500 
L 1159 3500 
L 1159 2956 
Q 1356 3278 1631 3431 
Q 1906 3584 2284 3584 
Q 2666 3584 2933 3390 
Q 3200 3197 3328 2828 
z
" transform="scale(0.015625)"/>
       <path id="DejaVuSans-65" d="M 3597 1894 
L 3597 1613 
L 953 1613 
Q 991 1019 1311 708 
Q 1631 397 2203 397 
Q 2534 397 2845 478 
Q 3156 559 3463 722 
L 3463 178 
Q 3153 47 2828 -22 
Q 2503 -91 2169 -91 
Q 1331 -91 842 396 
Q 353 884 353 1716 
Q 353 2575 817 3079 
Q 1281 3584 2069 3584 
Q 2775 3584 3186 3129 
Q 3597 2675 3597 1894 
z
M 3022 2063 
Q 3016 2534 2758 2815 
Q 2500 3097 2075 3097 
Q 1594 3097 1305 2825 
Q 1016 2553 972 2059 
L 3022 2063 
z
" transform="scale(0.015625)"/>
       <path id="DejaVuSans-20" transform="scale(0.015625)"/>
       <path id="DejaVuSans-5b" d="M 550 4863 
L 1875 4863 
L 1875 4416 
L 1125 4416 
L 1125 -397 
L 1875 -397 
L 1875 -844 
L 550 -844 
L 550 4863 
z
" transform="scale(0.015625)"/>
       <path id="DejaVuSans-6f" d="M 1959 3097 
Q 1497 3097 1228 2736 
Q 959 2375 959 1747 
Q 959 1119 1226 758 
Q 1494 397 1959 397 
Q 2419 397 2687 759 
Q 2956 1122 2956 1747 
Q 2956 2369 2687 2733 
Q 2419 3097 1959 3097 
z
M 1959 3584 
Q 2709 3584 3137 3096 
Q 3566 2609 3566 1747 
Q 3566 888 3137 398 
Q 2709 -91 1959 -91 
Q 1206 -91 779 398 
Q 353 888 353 1747 
Q 353 2609 779 3096 
Q 1206 3584 1959 3584 
z
" transform="scale(0.015625)"/>
       <path id="DejaVuSans-72" d="M 2631 2963 
Q 2534 3019 2420 3045 
Q 2306 3072 2169 3072 
Q 1681 3072 1420 2755 
Q 1159 2438 1159 1844 
L 1159 0 
L 581 0 
L 581 3500 
L 1159 3500 
L 1159 2956 
Q 1341 3275 1631 3429 
Q 1922 3584 2338 3584 
Q 2397 3584 2469 3576 
Q 2541 3569 2628 3553 
L 2631 2963 
z
" transform="scale(0.015625)"/>
       <path id="DejaVuSans-62" d="M 3116 1747 
Q 3116 2381 2855 2742 
Q 2594 3103 2138 3103 
Q 1681 3103 1420 2742 
Q 1159 2381 1159 1747 
Q 1159 1113 1420 752 
Q 1681 391 2138 391 
Q 2594 391 2855 752 
Q 3116 1113 3116 1747 
z
M 1159 2969 
Q 1341 3281 1617 3432 
Q 1894 3584 2278 3584 
Q 2916 3584 3314 3078 
Q 3713 2572 3713 1747 
Q 3713 922 3314 415 
Q 2916 -91 2278 -91 
Q 1894 -91 1617 61 
Q 1341 213 1159 525 
L 1159 0 
L 581 0 
L 581 4863 
L 1159 4863 
L 1159 2969 
z
" transform="scale(0.015625)"/>
       <path id="DejaVuSans-74" d="M 1172 4494 
L 1172 3500 
L 2356 3500 
L 2356 3053 
L 1172 3053 
L 1172 1153 
Q 1172 725 1289 603 
Q 1406 481 1766 481 
L 2356 481 
L 2356 0 
L 1766 0 
Q 1100 0 847 248 
Q 594 497 594 1153 
L 594 3053 
L 172 3053 
L 172 3500 
L 594 3500 
L 594 4494 
L 1172 4494 
z
" transform="scale(0.015625)"/>
       <path id="DejaVuSans-73" d="M 2834 3397 
L 2834 2853 
Q 2591 2978 2328 3040 
Q 2066 3103 1784 3103 
Q 1356 3103 1142 2972 
Q 928 2841 928 2578 
Q 928 2378 1081 2264 
Q 1234 2150 1697 2047 
L 1894 2003 
Q 2506 1872 2764 1633 
Q 3022 1394 3022 966 
Q 3022 478 2636 193 
Q 2250 -91 1575 -91 
Q 1294 -91 989 -36 
Q 684 19 347 128 
L 347 722 
Q 666 556 975 473 
Q 1284 391 1588 391 
Q 1994 391 2212 530 
Q 2431 669 2431 922 
Q 2431 1156 2273 1281 
Q 2116 1406 1581 1522 
L 1381 1569 
Q 847 1681 609 1914 
Q 372 2147 372 2553 
Q 372 3047 722 3315 
Q 1072 3584 1716 3584 
Q 2034 3584 2315 3537 
Q 2597 3491 2834 3397 
z
" transform="scale(0.015625)"/>
       <path id="DejaVuSans-5d" d="M 1947 4863 
L 1947 -844 
L 622 -844 
L 622 -397 
L 1369 -397 
L 1369 4416 
L 622 4416 
L 622 4863 
L 1947 4863 
z
" transform="scale(0.015625)"/>
      </defs>
      <use xlink:href="#DejaVuSans-54"/>
      <use xlink:href="#DejaVuSans-69" x="57.958984"/>
      <use xlink:href="#DejaVuSans-6d" x="85.742188"/>
      <use xlink:href="#DejaVuSans-65" x="183.154297"/>
      <use xlink:href="#DejaVuSans-20" x="244.677734"/>
      <use xlink:href="#DejaVuSans-5b" x="276.464844"/>
      <use xlink:href="#DejaVuSans-6f" x="315.478516"/>
      <use xlink:href="#DejaVuSans-72" x="376.660156"/>
      <use xlink:href="#DejaVuSans-62" x="417.773438"/>
      <use xlink:href="#DejaVuSans-69" x="481.25"/>
      <use xlink:href="#DejaVuSans-74" x="509.033203"/>
      <use xlink:href="#DejaVuSans-73" x="548.242188"/>
      <use xlink:href="#DejaVuSans-5d" x="600.341797"/>
     </g>
    </g>
   </g>
   <g id="matplotlib.axis_2">
    <g id="ytick_1">
     <g id="line2d_5">
      <defs>
       <path id="m27e53a8ac5" d="M 0 0 
L -3.5 0 
" style="stroke: #000000; stroke-width: 0.8"/>
      </defs>
      <g>
       <use xlink:href="#m27e53a8ac5" x="90.690625" y="210.515618" style="stroke: #000000; stroke-width: 0.8"/>
      </g>
     </g>
     <g id="text_6">
      <!-- −0.005 -->
      <g transform="translate(24.478125 216.594368) scale(0.16 -0.16)">
       <defs>
        <path id="DejaVuSans-2212" d="M 678 2272 
L 4684 2272 
L 4684 1741 
L 678 1741 
L 678 2272 
z
" transform="scale(0.015625)"/>
        <path id="DejaVuSans-35" d="M 691 4666 
L 3169 4666 
L 3169 4134 
L 1269 4134 
L 1269 2991 
Q 1406 3038 1543 3061 
Q 1681 3084 1819 3084 
Q 2600 3084 3056 2656 
Q 3513 2228 3513 1497 
Q 3513 744 3044 326 
Q 2575 -91 1722 -91 
Q 1428 -91 1123 -41 
Q 819 9 494 109 
L 494 744 
Q 775 591 1075 516 
Q 1375 441 1709 441 
Q 2250 441 2565 725 
Q 2881 1009 2881 1497 
Q 2881 1984 2565 2268 
Q 2250 2553 1709 2553 
Q 1456 2553 1204 2497 
Q 953 2441 691 2322 
L 691 4666 
z
" transform="scale(0.015625)"/>
       </defs>
       <use xlink:href="#DejaVuSans-2212"/>
       <use xlink:href="#DejaVuSans-30" x="83.789062"/>
       <use xlink:href="#DejaVuSans-2e" x="147.412109"/>
       <use xlink:href="#DejaVuSans-30" x="179.199219"/>
       <use xlink:href="#DejaVuSans-30" x="242.822266"/>
       <use xlink:href="#DejaVuSans-35" x="306.445312"/>
      </g>
     </g>
    </g>
    <g id="ytick_2">
     <g id="line2d_6">
      <g>
       <use xlink:href="#m27e53a8ac5" x="90.690625" y="150.633751" style="stroke: #000000; stroke-width: 0.8"/>
      </g>
     </g>
     <g id="text_7">
      <!-- 0.000 -->
      <g transform="translate(37.885625 156.712501) scale(0.16 -0.16)">
       <use xlink:href="#DejaVuSans-30"/>
       <use xlink:href="#DejaVuSans-2e" x="63.623047"/>
       <use xlink:href="#DejaVuSans-30" x="95.410156"/>
       <use xlink:href="#DejaVuSans-30" x="159.033203"/>
       <use xlink:href="#DejaVuSans-30" x="222.65625"/>
      </g>
     </g>
    </g>
    <g id="ytick_3">
     <g id="line2d_7">
      <g>
       <use xlink:href="#m27e53a8ac5" x="90.690625" y="90.751885" style="stroke: #000000; stroke-width: 0.8"/>
      </g>
     </g>
     <g id="text_8">
      <!-- 0.005 -->
      <g transform="translate(37.885625 96.830635) scale(0.16 -0.16)">
       <use xlink:href="#DejaVuSans-30"/>
       <use xlink:href="#DejaVuSans-2e" x="63.623047"/>
       <use xlink:href="#DejaVuSans-30" x="95.410156"/>
       <use xlink:href="#DejaVuSans-30" x="159.033203"/>
       <use xlink:href="#DejaVuSans-35" x="222.65625"/>
      </g>
     </g>
    </g>
    <g id="ytick_4">
     <g id="line2d_8">
      <g>
       <use xlink:href="#m27e53a8ac5" x="90.690625" y="30.870019" style="stroke: #000000; stroke-width: 0.8"/>
      </g>
     </g>
     <g id="text_9">
      <!-- 0.010 -->
      <g transform="translate(37.885625 36.948769) scale(0.16 -0.16)">
       <defs>
        <path id="DejaVuSans-31" d="M 794 531 
L 1825 531 
L 1825 4091 
L 703 3866 
L 703 4441 
L 1819 4666 
L 2450 4666 
L 2450 531 
L 3481 531 
L 3481 0 
L 794 0 
L 794 531 
z
" transform="scale(0.015625)"/>
       </defs>
       <use xlink:href="#DejaVuSans-30"/>
       <use xlink:href="#DejaVuSans-2e" x="63.623047"/>
       <use xlink:href="#DejaVuSans-30" x="95.410156"/>
       <use xlink:href="#DejaVuSans-31" x="159.033203"/>
       <use xlink:href="#DejaVuSans-30" x="222.65625"/>
      </g>
     </g>
    </g>
    <g id="text_10">
     <!-- Trajectory Differences [m] -->
     <g transform="translate(18.398438 191.008281) rotate(-90) scale(0.1 -0.1)">
      <defs>
       <path id="DejaVuSans-61" d="M 2194 1759 
Q 1497 1759 1228 1600 
Q 959 1441 959 1056 
Q 959 750 1161 570 
Q 1363 391 1709 391 
Q 2188 391 2477 730 
Q 2766 1069 2766 1631 
L 2766 1759 
L 2194 1759 
z
M 3341 1997 
L 3341 0 
L 2766 0 
L 2766 531 
Q 2569 213 2275 61 
Q 1981 -91 1556 -91 
Q 1019 -91 701 211 
Q 384 513 384 1019 
Q 384 1609 779 1909 
Q 1175 2209 1959 2209 
L 2766 2209 
L 2766 2266 
Q 2766 2663 2505 2880 
Q 2244 3097 1772 3097 
Q 1472 3097 1187 3025 
Q 903 2953 641 2809 
L 641 3341 
Q 956 3463 1253 3523 
Q 1550 3584 1831 3584 
Q 2591 3584 2966 3190 
Q 3341 2797 3341 1997 
z
" transform="scale(0.015625)"/>
       <path id="DejaVuSans-6a" d="M 603 3500 
L 1178 3500 
L 1178 -63 
Q 1178 -731 923 -1031 
Q 669 -1331 103 -1331 
L -116 -1331 
L -116 -844 
L 38 -844 
Q 366 -844 484 -692 
Q 603 -541 603 -63 
L 603 3500 
z
M 603 4863 
L 1178 4863 
L 1178 4134 
L 603 4134 
L 603 4863 
z
" transform="scale(0.015625)"/>
       <path id="DejaVuSans-63" d="M 3122 3366 
L 3122 2828 
Q 2878 2963 2633 3030 
Q 2388 3097 2138 3097 
Q 1578 3097 1268 2742 
Q 959 2388 959 1747 
Q 959 1106 1268 751 
Q 1578 397 2138 397 
Q 2388 397 2633 464 
Q 2878 531 3122 666 
L 3122 134 
Q 2881 22 2623 -34 
Q 2366 -91 2075 -91 
Q 1284 -91 818 406 
Q 353 903 353 1747 
Q 353 2603 823 3093 
Q 1294 3584 2113 3584 
Q 2378 3584 2631 3529 
Q 2884 3475 3122 3366 
z
" transform="scale(0.015625)"/>
       <path id="DejaVuSans-79" d="M 2059 -325 
Q 1816 -950 1584 -1140 
Q 1353 -1331 966 -1331 
L 506 -1331 
L 506 -850 
L 844 -850 
Q 1081 -850 1212 -737 
Q 1344 -625 1503 -206 
L 1606 56 
L 191 3500 
L 800 3500 
L 1894 763 
L 2988 3500 
L 3597 3500 
L 2059 -325 
z
" transform="scale(0.015625)"/>
       <path id="DejaVuSans-44" d="M 1259 4147 
L 1259 519 
L 2022 519 
Q 2988 519 3436 956 
Q 3884 1394 3884 2338 
Q 3884 3275 3436 3711 
Q 2988 4147 2022 4147 
L 1259 4147 
z
M 628 4666 
L 1925 4666 
Q 3281 4666 3915 4102 
Q 4550 3538 4550 2338 
Q 4550 1131 3912 565 
Q 3275 0 1925 0 
L 628 0 
L 628 4666 
z
" transform="scale(0.015625)"/>
       <path id="DejaVuSans-66" d="M 2375 4863 
L 2375 4384 
L 1825 4384 
Q 1516 4384 1395 4259 
Q 1275 4134 1275 3809 
L 1275 3500 
L 2222 3500 
L 2222 3053 
L 1275 3053 
L 1275 0 
L 697 0 
L 697 3053 
L 147 3053 
L 147 3500 
L 697 3500 
L 697 3744 
Q 697 4328 969 4595 
Q 1241 4863 1831 4863 
L 2375 4863 
z
" transform="scale(0.015625)"/>
       <path id="DejaVuSans-6e" d="M 3513 2113 
L 3513 0 
L 2938 0 
L 2938 2094 
Q 2938 2591 2744 2837 
Q 2550 3084 2163 3084 
Q 1697 3084 1428 2787 
Q 1159 2491 1159 1978 
L 1159 0 
L 581 0 
L 581 3500 
L 1159 3500 
L 1159 2956 
Q 1366 3272 1645 3428 
Q 1925 3584 2291 3584 
Q 2894 3584 3203 3211 
Q 3513 2838 3513 2113 
z
" transform="scale(0.015625)"/>
      </defs>
      <use xlink:href="#DejaVuSans-54"/>
      <use xlink:href="#DejaVuSans-72" x="46.333984"/>
      <use xlink:href="#DejaVuSans-61" x="87.447266"/>
      <use xlink:href="#DejaVuSans-6a" x="148.726562"/>
      <use xlink:href="#DejaVuSans-65" x="176.509766"/>
      <use xlink:href="#DejaVuSans-63" x="238.033203"/>
      <use xlink:href="#DejaVuSans-74" x="293.013672"/>
      <use xlink:href="#DejaVuSans-6f" x="332.222656"/>
      <use xlink:href="#DejaVuSans-72" x="393.404297"/>
      <use xlink:href="#DejaVuSans-79" x="434.517578"/>
      <use xlink:href="#DejaVuSans-20" x="493.697266"/>
      <use xlink:href="#DejaVuSans-44" x="525.484375"/>
      <use xlink:href="#DejaVuSans-69" x="602.486328"/>
      <use xlink:href="#DejaVuSans-66" x="630.269531"/>
      <use xlink:href="#DejaVuSans-66" x="665.474609"/>
      <use xlink:href="#DejaVuSans-65" x="700.679688"/>
      <use xlink:href="#DejaVuSans-72" x="762.203125"/>
      <use xlink:href="#DejaVuSans-65" x="801.066406"/>
      <use xlink:href="#DejaVuSans-6e" x="862.589844"/>
      <use xlink:href="#DejaVuSans-63" x="925.96875"/>
      <use xlink:href="#DejaVuSans-65" x="980.949219"/>
      <use xlink:href="#DejaVuSans-73" x="1042.472656"/>
      <use xlink:href="#DejaVuSans-20" x="1094.572266"/>
      <use xlink:href="#DejaVuSans-5b" x="1126.359375"/>
      <use xlink:href="#DejaVuSans-6d" x="1165.373047"/>
      <use xlink:href="#DejaVuSans-5d" x="1262.785156"/>
     </g>
    </g>
   </g>
   <g id="line2d_9">
    <path d="M 104.895597 150.633919 
L 107.502013 150.299609 
L 110.10843 149.966622 
L 112.714847 149.635508 
L 115.321264 149.30667 
L 117.927681 148.98038 
L 120.534097 148.656801 
L 123.140514 148.336044 
L 125.746931 148.017746 
L 128.353348 147.701623 
L 130.959765 147.387173 
L 133.566181 147.073504 
L 136.172598 146.759768 
L 138.779015 146.44476 
L 141.385432 146.127076 
L 143.991849 145.805254 
L 146.598265 145.477542 
L 149.204682 145.141955 
L 151.811099 144.796576 
L 154.417516 144.439072 
L 157.023933 144.067113 
L 159.63035 143.6783 
L 162.236766 143.27008 
L 164.843183 142.839898 
L 167.4496 142.385065 
L 170.056017 141.902962 
L 172.662434 141.390999 
L 175.26885 140.846601 
L 177.875267 140.267247 
L 180.481684 139.65055 
L 183.088101 138.994357 
L 185.694518 138.296526 
L 188.300934 137.555285 
L 190.907351 136.768937 
L 193.513768 135.936145 
L 196.120185 135.055926 
L 198.726602 134.127467 
L 201.333018 133.150444 
L 203.939435 132.124891 
L 206.545852 131.051142 
L 209.152269 129.929966 
L 211.758686 128.762859 
L 214.365102 127.551326 
L 216.971519 126.297475 
L 219.577936 125.004251 
L 222.184353 123.674621 
L 224.79077 122.312305 
L 227.397186 120.921434 
L 230.003603 119.506516 
L 232.61002 118.07267 
L 235.216437 116.625545 
L 237.822854 115.171025 
L 240.42927 113.715707 
L 243.035687 112.266435 
L 245.642104 110.830403 
L 248.248521 109.415381 
L 250.854938 108.029006 
L 253.461355 106.680063 
L 256.067771 105.376611 
L 258.674188 104.127676 
L 261.280605 102.942307 
L 263.887022 101.829249 
L 266.493439 100.79814 
L 269.099855 99.857747 
L 271.706272 99.017498 
L 274.312689 98.286673 
L 276.919106 97.674164 
L 279.525523 97.188975 
L 282.131939 96.839826 
L 284.738356 96.635127 
L 287.344773 96.583156 
L 289.95119 96.691298 
L 292.557607 96.967312 
L 295.164023 97.418112 
L 297.77044 98.049722 
L 300.376857 98.868265 
L 302.983274 99.878833 
L 305.589691 101.086078 
L 308.196107 102.493969 
L 310.802524 104.105641 
L 313.408941 105.923421 
L 316.015358 107.949275 
L 318.621775 110.183897 
L 321.228191 112.627541 
L 323.834608 115.279318 
L 326.441025 118.13763 
L 329.047442 121.200113 
L 331.653859 124.463423 
L 334.260275 127.923508 
L 336.866692 131.575284 
L 339.473109 135.412839 
L 342.079526 139.429625 
L 344.685943 143.618069 
L 347.29236 147.970007 
L 349.898776 152.476392 
L 352.505193 157.127399 
L 355.11161 161.912619 
L 357.718027 166.820957 
L 360.324444 171.840609 
L 362.93086 176.959342 
L 365.537277 182.16426 
L 368.143694 187.442036 
L 370.750111 192.778905 
L 373.356528 198.160801 
L 375.962944 203.573148 
L 378.569361 209.001334 
L 381.175778 214.430389 
L 383.782195 219.845268 
L 386.388612 225.230678 
L 388.995028 230.571563 
" clip-path="url(#p1797993531)" style="fill: none; stroke: #2b737e; stroke-width: 1.5; stroke-linecap: square"/>
   </g>
   <g id="line2d_10">
    <path d="M 104.895597 150.633885 
L 107.502013 150.411444 
L 110.10843 150.187786 
L 112.714847 149.96356 
L 115.321264 149.739512 
L 117.927681 149.51648 
L 120.534097 149.295404 
L 123.140514 149.077419 
L 125.746931 148.863304 
L 128.353348 148.654308 
L 130.959765 148.451347 
L 133.566181 148.255284 
L 136.172598 148.067202 
L 138.779015 147.887764 
L 141.385432 147.717606 
L 143.991849 147.557387 
L 146.598265 147.407459 
L 149.204682 147.26781 
L 151.811099 147.138744 
L 154.417516 147.019713 
L 157.023933 146.910228 
L 159.63035 146.809805 
L 162.236766 146.717094 
L 164.843183 146.631232 
L 167.4496 146.549985 
L 170.056017 146.471845 
L 172.662434 146.39447 
L 175.26885 146.315325 
L 177.875267 146.231881 
L 180.481684 146.140625 
L 183.088101 146.03842 
L 185.694518 145.921616 
L 188.300934 145.786153 
L 190.907351 145.627991 
L 193.513768 145.442675 
L 196.120185 145.225593 
L 198.726602 144.972093 
L 201.333018 144.677224 
L 203.939435 144.335966 
L 206.545852 143.943205 
L 209.152269 143.494005 
L 211.758686 142.982879 
L 214.365102 142.404964 
L 216.971519 141.755262 
L 219.577936 141.028599 
L 222.184353 140.220356 
L 224.79077 139.325816 
L 227.397186 138.340651 
L 230.003603 137.260789 
L 232.61002 136.08245 
L 235.216437 134.802142 
L 237.822854 133.416866 
L 240.42927 131.92401 
L 243.035687 130.3214 
L 245.642104 128.607408 
L 248.248521 126.780917 
L 250.854938 124.841416 
L 253.461355 122.788926 
L 256.067771 120.624072 
L 258.674188 118.348125 
L 261.280605 115.963072 
L 263.887022 113.471499 
L 266.493439 110.876663 
L 269.099855 108.18248 
L 271.706272 105.39359 
L 274.312689 102.51539 
L 276.919106 99.553748 
L 279.525523 96.515402 
L 282.131939 93.407644 
L 284.738356 90.238385 
L 287.344773 87.016267 
L 289.95119 83.750203 
L 292.557607 80.450108 
L 295.164023 77.126278 
L 297.77044 73.789108 
L 300.376857 70.449964 
L 302.983274 67.120323 
L 305.589691 63.812097 
L 308.196107 60.537567 
L 310.802524 57.30917 
L 313.408941 54.139363 
L 316.015358 51.041282 
L 318.621775 48.027647 
L 321.228191 45.111524 
L 323.834608 42.305674 
L 326.441025 39.62289 
L 329.047442 37.076016 
L 331.653859 34.677352 
L 334.260275 32.439309 
L 336.866692 30.373652 
L 339.473109 28.491624 
L 342.079526 26.804678 
L 344.685943 25.32298 
L 347.29236 24.056991 
L 349.898776 23.015927 
L 352.505193 22.208336 
L 355.11161 21.642648 
L 357.718027 21.326125 
L 360.324444 21.265312 
L 362.93086 21.46594 
L 365.537277 21.933295 
L 368.143694 22.671238 
L 370.750111 23.683061 
L 373.356528 24.971165 
L 375.962944 26.53719 
L 378.569361 28.381343 
L 381.175778 30.503466 
L 383.782195 32.902094 
L 386.388612 35.575258 
L 388.995028 38.519583 
" clip-path="url(#p1797993531)" style="fill: none; stroke: #5ea04b; stroke-width: 1.5; stroke-linecap: square"/>
   </g>
   <g id="line2d_11">
    <path d="M 104.895597 150.633718 
L 107.502013 150.700044 
L 110.10843 150.765166 
L 112.714847 150.829139 
L 115.321264 150.892069 
L 117.927681 150.954196 
L 120.534097 151.015855 
L 123.140514 151.07748 
L 125.746931 151.139624 
L 128.353348 151.202911 
L 130.959765 151.268033 
L 133.566181 151.335815 
L 136.172598 151.407082 
L 138.779015 151.482761 
L 141.385432 151.563816 
L 143.991849 151.651268 
L 146.598265 151.746099 
L 149.204682 151.849261 
L 151.811099 151.961904 
L 154.417516 152.084853 
L 157.023933 152.219067 
L 159.63035 152.365484 
L 162.236766 152.524795 
L 164.843183 152.697852 
L 167.4496 152.885014 
L 170.056017 153.086871 
L 172.662434 153.303708 
L 175.26885 153.535642 
L 177.875267 153.782817 
L 180.481684 154.044827 
L 183.088101 154.321406 
L 185.694518 154.611976 
L 188.300934 154.915654 
L 190.907351 155.231473 
L 193.513768 155.558136 
L 196.120185 155.894135 
L 198.726602 156.237791 
L 201.333018 156.587121 
L 203.939435 156.939904 
L 206.545852 157.29372 
L 209.152269 157.646079 
L 211.758686 157.993812 
L 214.365102 158.334069 
L 216.971519 158.663604 
L 219.577936 158.978722 
L 222.184353 159.275956 
L 224.79077 159.551412 
L 227.397186 159.801169 
L 230.003603 160.021237 
L 232.61002 160.207451 
L 235.216437 160.355545 
L 237.822854 160.461303 
L 240.42927 160.520338 
L 243.035687 160.528363 
L 245.642104 160.481141 
L 248.248521 160.374379 
L 250.854938 160.204106 
L 253.461355 159.966019 
L 256.067771 159.65646 
L 258.674188 159.27159 
L 261.280605 158.807807 
L 263.887022 158.261964 
L 266.493439 157.630784 
L 269.099855 156.911694 
L 271.706272 156.102096 
L 274.312689 155.199804 
L 276.919106 154.203061 
L 279.525523 153.110367 
L 282.131939 151.920662 
L 284.738356 150.633316 
L 287.344773 149.248028 
L 289.95119 147.765088 
L 292.557607 146.185059 
L 295.164023 144.509007 
L 297.77044 142.738604 
L 300.376857 140.875797 
L 302.983274 138.923117 
L 305.589691 136.883515 
L 308.196107 134.760416 
L 310.802524 132.557694 
L 313.408941 130.279707 
L 316.015358 127.931243 
L 318.621775 125.517519 
L 321.228191 123.044126 
L 323.834608 120.517112 
L 326.441025 117.942827 
L 329.047442 115.328071 
L 331.653859 112.67987 
L 334.260275 110.00563 
L 336.866692 107.312992 
L 339.473109 104.609796 
L 342.079526 101.90422 
L 344.685943 99.204465 
L 347.29236 96.519077 
L 349.898776 93.856548 
L 352.505193 91.225435 
L 355.11161 88.634498 
L 357.718027 86.092375 
L 360.324444 83.60769 
L 362.93086 81.188968 
L 365.537277 78.844816 
L 368.143694 76.583453 
L 370.750111 74.413055 
L 373.356528 72.34159 
L 375.962944 70.376878 
L 378.569361 68.52619 
L 381.175778 66.796783 
L 383.782195 65.19538 
L 386.388612 63.728596 
L 388.995028 62.402354 
" clip-path="url(#p1797993531)" style="fill: none; stroke: #bdab62; stroke-width: 1.5; stroke-linecap: square"/>
   </g>
   <g id="patch_3">
    <path d="M 90.690625 241.036875 
L 90.690625 10.8 
" style="fill: none; stroke: #000000; stroke-width: 0.8; stroke-linejoin: miter; stroke-linecap: square"/>
   </g>
   <g id="patch_4">
    <path d="M 403.2 241.036875 
L 403.2 10.8 
" style="fill: none; stroke: #000000; stroke-width: 0.8; stroke-linejoin: miter; stroke-linecap: square"/>
   </g>
   <g id="patch_5">
    <path d="M 90.690625 241.036875 
L 403.2 241.036875 
" style="fill: none; stroke: #000000; stroke-width: 0.8; stroke-linejoin: miter; stroke-linecap: square"/>
   </g>
   <g id="patch_6">
    <path d="M 90.690625 10.8 
L 403.2 10.8 
" style="fill: none; stroke: #000000; stroke-width: 0.8; stroke-linejoin: miter; stroke-linecap: square"/>
   </g>
   <g id="legend_1">
    <g id="patch_7">
     <path d="M 341.64 236.536875 
L 396.9 236.536875 
Q 398.7 236.536875 398.7 234.736875 
L 398.7 194.871094 
Q 398.7 193.071094 396.9 193.071094 
L 341.64 193.071094 
Q 339.84 193.071094 339.84 194.871094 
L 339.84 234.736875 
Q 339.84 236.536875 341.64 236.536875 
z
" style="fill: #ffffff; opacity: 0.8; stroke: #cccccc; stroke-linejoin: miter"/>
    </g>
    <g id="line2d_12">
     <path d="M 343.44 200.359687 
L 352.44 200.359687 
L 361.44 200.359687 
" style="fill: none; stroke: #2b737e; stroke-width: 1.5; stroke-linecap: square"/>
    </g>
    <g id="text_11">
     <!-- $\Delta r_{BN,0}$ -->
     <g transform="translate(368.64 203.509687) scale(0.09 -0.09)">
      <defs>
       <path id="DejaVuSans-394" d="M 2188 4044 
L 906 525 
L 3472 525 
L 2188 4044 
z
M 50 0 
L 1831 4666 
L 2547 4666 
L 4325 0 
L 50 0 
z
" transform="scale(0.015625)"/>
       <path id="DejaVuSans-Oblique-72" d="M 2853 2969 
Q 2766 3016 2653 3041 
Q 2541 3066 2413 3066 
Q 1953 3066 1609 2717 
Q 1266 2369 1153 1784 
L 800 0 
L 225 0 
L 909 3500 
L 1484 3500 
L 1375 2956 
Q 1603 3259 1920 3421 
Q 2238 3584 2597 3584 
Q 2691 3584 2781 3573 
Q 2872 3563 2963 3538 
L 2853 2969 
z
" transform="scale(0.015625)"/>
       <path id="DejaVuSans-Oblique-42" d="M 1081 4666 
L 2694 4666 
Q 3350 4666 3675 4422 
Q 4000 4178 4000 3688 
Q 4000 3238 3720 2911 
Q 3441 2584 2988 2516 
Q 3375 2428 3569 2181 
Q 3763 1934 3763 1522 
Q 3763 819 3242 409 
Q 2722 0 1819 0 
L 172 0 
L 1081 4666 
z
M 1234 2228 
L 903 519 
L 1919 519 
Q 2491 519 2800 781 
Q 3109 1044 3109 1522 
Q 3109 1891 2904 2059 
Q 2700 2228 2247 2228 
L 1234 2228 
z
M 1606 4147 
L 1331 2741 
L 2272 2741 
Q 2775 2741 3058 2959 
Q 3341 3178 3341 3566 
Q 3341 3869 3150 4008 
Q 2959 4147 2541 4147 
L 1606 4147 
z
" transform="scale(0.015625)"/>
       <path id="DejaVuSans-Oblique-4e" d="M 1081 4666 
L 1931 4666 
L 3219 666 
L 4000 4666 
L 4616 4666 
L 3706 0 
L 2853 0 
L 1569 4025 
L 788 0 
L 172 0 
L 1081 4666 
z
" transform="scale(0.015625)"/>
       <path id="DejaVuSans-2c" d="M 750 794 
L 1409 794 
L 1409 256 
L 897 -744 
L 494 -744 
L 750 256 
L 750 794 
z
" transform="scale(0.015625)"/>
      </defs>
      <use xlink:href="#DejaVuSans-394" transform="translate(0 0.09375)"/>
      <use xlink:href="#DejaVuSans-Oblique-72" transform="translate(68.408203 0.09375)"/>
      <use xlink:href="#DejaVuSans-Oblique-42" transform="translate(109.521484 -16.3125) scale(0.7)"/>
      <use xlink:href="#DejaVuSans-Oblique-4e" transform="translate(157.543945 -16.3125) scale(0.7)"/>
      <use xlink:href="#DejaVuSans-2c" transform="translate(209.907227 -16.3125) scale(0.7)"/>
      <use xlink:href="#DejaVuSans-30" transform="translate(245.795898 -16.3125) scale(0.7)"/>
     </g>
    </g>
    <g id="line2d_13">
     <path d="M 343.44 213.948281 
L 352.44 213.948281 
L 361.44 213.948281 
" style="fill: none; stroke: #5ea04b; stroke-width: 1.5; stroke-linecap: square"/>
    </g>
    <g id="text_12">
     <!-- $\Delta r_{BN,1}$ -->
     <g transform="translate(368.64 217.098281) scale(0.09 -0.09)">
      <use xlink:href="#DejaVuSans-394" transform="translate(0 0.09375)"/>
      <use xlink:href="#DejaVuSans-Oblique-72" transform="translate(68.408203 0.09375)"/>
      <use xlink:href="#DejaVuSans-Oblique-42" transform="translate(109.521484 -16.3125) scale(0.7)"/>
      <use xlink:href="#DejaVuSans-Oblique-4e" transform="translate(157.543945 -16.3125) scale(0.7)"/>
      <use xlink:href="#DejaVuSans-2c" transform="translate(209.907227 -16.3125) scale(0.7)"/>
      <use xlink:href="#DejaVuSans-31" transform="translate(245.795898 -16.3125) scale(0.7)"/>
     </g>
    </g>
    <g id="line2d_14">
     <path d="M 343.44 227.536875 
L 352.44 227.536875 
L 361.44 227.536875 
" style="fill: none; stroke: #bdab62; stroke-width: 1.5; stroke-linecap: square"/>
    </g>
    <g id="text_13">
     <!-- $\Delta r_{BN,2}$ -->
     <g transform="translate(368.64 230.686875) scale(0.09 -0.09)">
      <use xlink:href="#DejaVuSans-394" transform="translate(0 0.09375)"/>
      <use xlink:href="#DejaVuSans-Oblique-72" transform="translate(68.408203 0.09375)"/>
      <use xlink:href="#DejaVuSans-Oblique-42" transform="translate(109.521484 -16.3125) scale(0.7)"/>
      <use xlink:href="#DejaVuSans-Oblique-4e" transform="translate(157.543945 -16.3125) scale(0.7)"/>
      <use xlink:href="#DejaVuSans-2c" transform="translate(209.907227 -16.3125) scale(0.7)"/>
      <use xlink:href="#DejaVuSans-32" transform="translate(245.795898 -16.3125) scale(0.7)"/>
     </g>
    </g>
   </g>
  </g>
 </g>
 <defs>
  <clipPath id="p1797993531">
   <rect x="90.690625" y="10.8" width="312.509375" height="230.236875"/>
  </clipPath>
 </defs>
</svg>
