<?xml version="1.0" encoding="utf-8" standalone="no"?>
<!DOCTYPE svg PUBLIC "-//W3C//DTD SVG 1.1//EN"
  "http://www.w3.org/Graphics/SVG/1.1/DTD/svg11.dtd">
<svg xmlns:xlink="http://www.w3.org/1999/xlink" width="414pt" height="288pt" viewBox="0 0 414 288" xmlns="http://www.w3.org/2000/svg" version="1.1">
 <metadata>
  <rdf:RDF xmlns:dc="http://purl.org/dc/elements/1.1/" xmlns:cc="http://creativecommons.org/ns#" xmlns:rdf="http://www.w3.org/1999/02/22-rdf-syntax-ns#">
   <cc:Work>
    <dc:type rdf:resource="http://purl.org/dc/dcmitype/StillImage"/>
    <dc:date>2023-09-07T00:35:09.040990</dc:date>
    <dc:format>image/svg+xml</dc:format>
    <dc:creator>
     <cc:Agent>
      <dc:title>Matplotlib v3.7.2, https://matplotlib.org/</dc:title>
     </cc:Agent>
    </dc:creator>
   </cc:Work>
  </rdf:RDF>
 </metadata>
 <defs>
  <style type="text/css">*{stroke-linejoin: round; stroke-linecap: butt}</style>
 </defs>
 <g id="figure_1">
  <g id="patch_1">
   <path d="M 0 288 
L 414 288 
L 414 0 
L 0 0 
L 0 288 
z
" style="fill: none"/>
  </g>
  <g id="axes_1">
   <g id="patch_2">
    <path d="M 62.018125 241.036875 
L 403.2 241.036875 
L 403.2 10.8 
L 62.018125 10.8 
L 62.018125 241.036875 
z
" style="fill: none"/>
   </g>
   <g id="matplotlib.axis_1">
    <g id="xtick_1">
     <g id="line2d_1">
      <defs>
       <path id="m04a0d09a60" d="M 0 0 
L 0 3.5 
" style="stroke: #000000; stroke-width: 0.8"/>
      </defs>
      <g>
       <use xlink:href="#m04a0d09a60" x="77.526392" y="241.036875" style="stroke: #000000; stroke-width: 0.8"/>
      </g>
     </g>
     <g id="text_1">
      <!-- 0 -->
      <g transform="translate(72.436392 260.194375) scale(0.16 -0.16)">
       <defs>
        <path id="DejaVuSans-30" d="M 2034 4250 
Q 1547 4250 1301 3770 
Q 1056 3291 1056 2328 
Q 1056 1369 1301 889 
Q 1547 409 2034 409 
Q 2525 409 2770 889 
Q 3016 1369 3016 2328 
Q 3016 3291 2770 3770 
Q 2525 4250 2034 4250 
z
M 2034 4750 
Q 2819 4750 3233 4129 
Q 3647 3509 3647 2328 
Q 3647 1150 3233 529 
Q 2819 -91 2034 -91 
Q 1250 -91 836 529 
Q 422 1150 422 2328 
Q 422 3509 836 4129 
Q 1250 4750 2034 4750 
z
" transform="scale(0.015625)"/>
       </defs>
       <use xlink:href="#DejaVuSans-30"/>
      </g>
     </g>
    </g>
    <g id="xtick_2">
     <g id="line2d_2">
      <g>
       <use xlink:href="#m04a0d09a60" x="139.55946" y="241.036875" style="stroke: #000000; stroke-width: 0.8"/>
      </g>
     </g>
     <g id="text_2">
      <!-- 2 -->
      <g transform="translate(134.46946 260.194375) scale(0.16 -0.16)">
       <defs>
        <path id="DejaVuSans-32" d="M 1228 531 
L 3431 531 
L 3431 0 
L 469 0 
L 469 531 
Q 828 903 1448 1529 
Q 2069 2156 2228 2338 
Q 2531 2678 2651 2914 
Q 2772 3150 2772 3378 
Q 2772 3750 2511 3984 
Q 2250 4219 1831 4219 
Q 1534 4219 1204 4116 
Q 875 4013 500 3803 
L 500 4441 
Q 881 4594 1212 4672 
Q 1544 4750 1819 4750 
Q 2544 4750 2975 4387 
Q 3406 4025 3406 3419 
Q 3406 3131 3298 2873 
Q 3191 2616 2906 2266 
Q 2828 2175 2409 1742 
Q 1991 1309 1228 531 
z
" transform="scale(0.015625)"/>
       </defs>
       <use xlink:href="#DejaVuSans-32"/>
      </g>
     </g>
    </g>
    <g id="xtick_3">
     <g id="line2d_3">
      <g>
       <use xlink:href="#m04a0d09a60" x="201.592528" y="241.036875" style="stroke: #000000; stroke-width: 0.8"/>
      </g>
     </g>
     <g id="text_3">
      <!-- 4 -->
      <g transform="translate(196.502528 260.194375) scale(0.16 -0.16)">
       <defs>
        <path id="DejaVuSans-34" d="M 2419 4116 
L 825 1625 
L 2419 1625 
L 2419 4116 
z
M 2253 4666 
L 3047 4666 
L 3047 1625 
L 3713 1625 
L 3713 1100 
L 3047 1100 
L 3047 0 
L 2419 0 
L 2419 1100 
L 313 1100 
L 313 1709 
L 2253 4666 
z
" transform="scale(0.015625)"/>
       </defs>
       <use xlink:href="#DejaVuSans-34"/>
      </g>
     </g>
    </g>
    <g id="xtick_4">
     <g id="line2d_4">
      <g>
       <use xlink:href="#m04a0d09a60" x="263.625597" y="241.036875" style="stroke: #000000; stroke-width: 0.8"/>
      </g>
     </g>
     <g id="text_4">
      <!-- 6 -->
      <g transform="translate(258.535597 260.194375) scale(0.16 -0.16)">
       <defs>
        <path id="DejaVuSans-36" d="M 2113 2584 
Q 1688 2584 1439 2293 
Q 1191 2003 1191 1497 
Q 1191 994 1439 701 
Q 1688 409 2113 409 
Q 2538 409 2786 701 
Q 3034 994 3034 1497 
Q 3034 2003 2786 2293 
Q 2538 2584 2113 2584 
z
M 3366 4563 
L 3366 3988 
Q 3128 4100 2886 4159 
Q 2644 4219 2406 4219 
Q 1781 4219 1451 3797 
Q 1122 3375 1075 2522 
Q 1259 2794 1537 2939 
Q 1816 3084 2150 3084 
Q 2853 3084 3261 2657 
Q 3669 2231 3669 1497 
Q 3669 778 3244 343 
Q 2819 -91 2113 -91 
Q 1303 -91 875 529 
Q 447 1150 447 2328 
Q 447 3434 972 4092 
Q 1497 4750 2381 4750 
Q 2619 4750 2861 4703 
Q 3103 4656 3366 4563 
z
" transform="scale(0.015625)"/>
       </defs>
       <use xlink:href="#DejaVuSans-36"/>
      </g>
     </g>
    </g>
    <g id="xtick_5">
     <g id="line2d_5">
      <g>
       <use xlink:href="#m04a0d09a60" x="325.658665" y="241.036875" style="stroke: #000000; stroke-width: 0.8"/>
      </g>
     </g>
     <g id="text_5">
      <!-- 8 -->
      <g transform="translate(320.568665 260.194375) scale(0.16 -0.16)">
       <defs>
        <path id="DejaVuSans-38" d="M 2034 2216 
Q 1584 2216 1326 1975 
Q 1069 1734 1069 1313 
Q 1069 891 1326 650 
Q 1584 409 2034 409 
Q 2484 409 2743 651 
Q 3003 894 3003 1313 
Q 3003 1734 2745 1975 
Q 2488 2216 2034 2216 
z
M 1403 2484 
Q 997 2584 770 2862 
Q 544 3141 544 3541 
Q 544 4100 942 4425 
Q 1341 4750 2034 4750 
Q 2731 4750 3128 4425 
Q 3525 4100 3525 3541 
Q 3525 3141 3298 2862 
Q 3072 2584 2669 2484 
Q 3125 2378 3379 2068 
Q 3634 1759 3634 1313 
Q 3634 634 3220 271 
Q 2806 -91 2034 -91 
Q 1263 -91 848 271 
Q 434 634 434 1313 
Q 434 1759 690 2068 
Q 947 2378 1403 2484 
z
M 1172 3481 
Q 1172 3119 1398 2916 
Q 1625 2713 2034 2713 
Q 2441 2713 2670 2916 
Q 2900 3119 2900 3481 
Q 2900 3844 2670 4047 
Q 2441 4250 2034 4250 
Q 1625 4250 1398 4047 
Q 1172 3844 1172 3481 
z
" transform="scale(0.015625)"/>
       </defs>
       <use xlink:href="#DejaVuSans-38"/>
      </g>
     </g>
    </g>
    <g id="xtick_6">
     <g id="line2d_6">
      <g>
       <use xlink:href="#m04a0d09a60" x="387.691733" y="241.036875" style="stroke: #000000; stroke-width: 0.8"/>
      </g>
     </g>
     <g id="text_6">
      <!-- 10 -->
      <g transform="translate(377.511733 260.194375) scale(0.16 -0.16)">
       <defs>
        <path id="DejaVuSans-31" d="M 794 531 
L 1825 531 
L 1825 4091 
L 703 3866 
L 703 4441 
L 1819 4666 
L 2450 4666 
L 2450 531 
L 3481 531 
L 3481 0 
L 794 0 
L 794 531 
z
" transform="scale(0.015625)"/>
       </defs>
       <use xlink:href="#DejaVuSans-31"/>
       <use xlink:href="#DejaVuSans-30" x="63.623047"/>
      </g>
     </g>
    </g>
    <g id="text_7">
     <!-- Time [min] -->
     <g transform="translate(205.456719 275.120313) scale(0.1 -0.1)">
      <defs>
       <path id="DejaVuSans-54" d="M -19 4666 
L 3928 4666 
L 3928 4134 
L 2272 4134 
L 2272 0 
L 1638 0 
L 1638 4134 
L -19 4134 
L -19 4666 
z
" transform="scale(0.015625)"/>
       <path id="DejaVuSans-69" d="M 603 3500 
L 1178 3500 
L 1178 0 
L 603 0 
L 603 3500 
z
M 603 4863 
L 1178 4863 
L 1178 4134 
L 603 4134 
L 603 4863 
z
" transform="scale(0.015625)"/>
       <path id="DejaVuSans-6d" d="M 3328 2828 
Q 3544 3216 3844 3400 
Q 4144 3584 4550 3584 
Q 5097 3584 5394 3201 
Q 5691 2819 5691 2113 
L 5691 0 
L 5113 0 
L 5113 2094 
Q 5113 2597 4934 2840 
Q 4756 3084 4391 3084 
Q 3944 3084 3684 2787 
Q 3425 2491 3425 1978 
L 3425 0 
L 2847 0 
L 2847 2094 
Q 2847 2600 2669 2842 
Q 2491 3084 2119 3084 
Q 1678 3084 1418 2786 
Q 1159 2488 1159 1978 
L 1159 0 
L 581 0 
L 581 3500 
L 1159 3500 
L 1159 2956 
Q 1356 3278 1631 3431 
Q 1906 3584 2284 3584 
Q 2666 3584 2933 3390 
Q 3200 3197 3328 2828 
z
" transform="scale(0.015625)"/>
       <path id="DejaVuSans-65" d="M 3597 1894 
L 3597 1613 
L 953 1613 
Q 991 1019 1311 708 
Q 1631 397 2203 397 
Q 2534 397 2845 478 
Q 3156 559 3463 722 
L 3463 178 
Q 3153 47 2828 -22 
Q 2503 -91 2169 -91 
Q 1331 -91 842 396 
Q 353 884 353 1716 
Q 353 2575 817 3079 
Q 1281 3584 2069 3584 
Q 2775 3584 3186 3129 
Q 3597 2675 3597 1894 
z
M 3022 2063 
Q 3016 2534 2758 2815 
Q 2500 3097 2075 3097 
Q 1594 3097 1305 2825 
Q 1016 2553 972 2059 
L 3022 2063 
z
" transform="scale(0.015625)"/>
       <path id="DejaVuSans-20" transform="scale(0.015625)"/>
       <path id="DejaVuSans-5b" d="M 550 4863 
L 1875 4863 
L 1875 4416 
L 1125 4416 
L 1125 -397 
L 1875 -397 
L 1875 -844 
L 550 -844 
L 550 4863 
z
" transform="scale(0.015625)"/>
       <path id="DejaVuSans-6e" d="M 3513 2113 
L 3513 0 
L 2938 0 
L 2938 2094 
Q 2938 2591 2744 2837 
Q 2550 3084 2163 3084 
Q 1697 3084 1428 2787 
Q 1159 2491 1159 1978 
L 1159 0 
L 581 0 
L 581 3500 
L 1159 3500 
L 1159 2956 
Q 1366 3272 1645 3428 
Q 1925 3584 2291 3584 
Q 2894 3584 3203 3211 
Q 3513 2838 3513 2113 
z
" transform="scale(0.015625)"/>
       <path id="DejaVuSans-5d" d="M 1947 4863 
L 1947 -844 
L 622 -844 
L 622 -397 
L 1369 -397 
L 1369 4416 
L 622 4416 
L 622 4863 
L 1947 4863 
z
" transform="scale(0.015625)"/>
      </defs>
      <use xlink:href="#DejaVuSans-54"/>
      <use xlink:href="#DejaVuSans-69" x="57.958984"/>
      <use xlink:href="#DejaVuSans-6d" x="85.742188"/>
      <use xlink:href="#DejaVuSans-65" x="183.154297"/>
      <use xlink:href="#DejaVuSans-20" x="244.677734"/>
      <use xlink:href="#DejaVuSans-5b" x="276.464844"/>
      <use xlink:href="#DejaVuSans-6d" x="315.478516"/>
      <use xlink:href="#DejaVuSans-69" x="412.890625"/>
      <use xlink:href="#DejaVuSans-6e" x="440.673828"/>
      <use xlink:href="#DejaVuSans-5d" x="504.052734"/>
     </g>
    </g>
   </g>
   <g id="matplotlib.axis_2">
    <g id="ytick_1">
     <g id="line2d_7">
      <defs>
       <path id="mb96ebb792a" d="M 0 0 
L -3.5 0 
" style="stroke: #000000; stroke-width: 0.8"/>
      </defs>
      <g>
       <use xlink:href="#mb96ebb792a" x="62.018125" y="219.592484" style="stroke: #000000; stroke-width: 0.8"/>
      </g>
     </g>
     <g id="text_8">
      <!-- 0 -->
      <g transform="translate(44.838125 225.671234) scale(0.16 -0.16)">
       <use xlink:href="#DejaVuSans-30"/>
      </g>
     </g>
    </g>
    <g id="ytick_2">
     <g id="line2d_8">
      <g>
       <use xlink:href="#mb96ebb792a" x="62.018125" y="174.015057" style="stroke: #000000; stroke-width: 0.8"/>
      </g>
     </g>
     <g id="text_9">
      <!-- 200 -->
      <g transform="translate(24.478125 180.093807) scale(0.16 -0.16)">
       <use xlink:href="#DejaVuSans-32"/>
       <use xlink:href="#DejaVuSans-30" x="63.623047"/>
       <use xlink:href="#DejaVuSans-30" x="127.246094"/>
      </g>
     </g>
    </g>
    <g id="ytick_3">
     <g id="line2d_9">
      <g>
       <use xlink:href="#mb96ebb792a" x="62.018125" y="128.43763" style="stroke: #000000; stroke-width: 0.8"/>
      </g>
     </g>
     <g id="text_10">
      <!-- 400 -->
      <g transform="translate(24.478125 134.51638) scale(0.16 -0.16)">
       <use xlink:href="#DejaVuSans-34"/>
       <use xlink:href="#DejaVuSans-30" x="63.623047"/>
       <use xlink:href="#DejaVuSans-30" x="127.246094"/>
      </g>
     </g>
    </g>
    <g id="ytick_4">
     <g id="line2d_10">
      <g>
       <use xlink:href="#mb96ebb792a" x="62.018125" y="82.860204" style="stroke: #000000; stroke-width: 0.8"/>
      </g>
     </g>
     <g id="text_11">
      <!-- 600 -->
      <g transform="translate(24.478125 88.938954) scale(0.16 -0.16)">
       <use xlink:href="#DejaVuSans-36"/>
       <use xlink:href="#DejaVuSans-30" x="63.623047"/>
       <use xlink:href="#DejaVuSans-30" x="127.246094"/>
      </g>
     </g>
    </g>
    <g id="ytick_5">
     <g id="line2d_11">
      <g>
       <use xlink:href="#mb96ebb792a" x="62.018125" y="37.282777" style="stroke: #000000; stroke-width: 0.8"/>
      </g>
     </g>
     <g id="text_12">
      <!-- 800 -->
      <g transform="translate(24.478125 43.361527) scale(0.16 -0.16)">
       <use xlink:href="#DejaVuSans-38"/>
       <use xlink:href="#DejaVuSans-30" x="63.623047"/>
       <use xlink:href="#DejaVuSans-30" x="127.246094"/>
      </g>
     </g>
    </g>
    <g id="text_13">
     <!-- RW Speed (RPM)  -->
     <g transform="translate(18.398438 169.284062) rotate(-90) scale(0.1 -0.1)">
      <defs>
       <path id="DejaVuSans-52" d="M 2841 2188 
Q 3044 2119 3236 1894 
Q 3428 1669 3622 1275 
L 4263 0 
L 3584 0 
L 2988 1197 
Q 2756 1666 2539 1819 
Q 2322 1972 1947 1972 
L 1259 1972 
L 1259 0 
L 628 0 
L 628 4666 
L 2053 4666 
Q 2853 4666 3247 4331 
Q 3641 3997 3641 3322 
Q 3641 2881 3436 2590 
Q 3231 2300 2841 2188 
z
M 1259 4147 
L 1259 2491 
L 2053 2491 
Q 2509 2491 2742 2702 
Q 2975 2913 2975 3322 
Q 2975 3731 2742 3939 
Q 2509 4147 2053 4147 
L 1259 4147 
z
" transform="scale(0.015625)"/>
       <path id="DejaVuSans-57" d="M 213 4666 
L 850 4666 
L 1831 722 
L 2809 4666 
L 3519 4666 
L 4500 722 
L 5478 4666 
L 6119 4666 
L 4947 0 
L 4153 0 
L 3169 4050 
L 2175 0 
L 1381 0 
L 213 4666 
z
" transform="scale(0.015625)"/>
       <path id="DejaVuSans-53" d="M 3425 4513 
L 3425 3897 
Q 3066 4069 2747 4153 
Q 2428 4238 2131 4238 
Q 1616 4238 1336 4038 
Q 1056 3838 1056 3469 
Q 1056 3159 1242 3001 
Q 1428 2844 1947 2747 
L 2328 2669 
Q 3034 2534 3370 2195 
Q 3706 1856 3706 1288 
Q 3706 609 3251 259 
Q 2797 -91 1919 -91 
Q 1588 -91 1214 -16 
Q 841 59 441 206 
L 441 856 
Q 825 641 1194 531 
Q 1563 422 1919 422 
Q 2459 422 2753 634 
Q 3047 847 3047 1241 
Q 3047 1584 2836 1778 
Q 2625 1972 2144 2069 
L 1759 2144 
Q 1053 2284 737 2584 
Q 422 2884 422 3419 
Q 422 4038 858 4394 
Q 1294 4750 2059 4750 
Q 2388 4750 2728 4690 
Q 3069 4631 3425 4513 
z
" transform="scale(0.015625)"/>
       <path id="DejaVuSans-70" d="M 1159 525 
L 1159 -1331 
L 581 -1331 
L 581 3500 
L 1159 3500 
L 1159 2969 
Q 1341 3281 1617 3432 
Q 1894 3584 2278 3584 
Q 2916 3584 3314 3078 
Q 3713 2572 3713 1747 
Q 3713 922 3314 415 
Q 2916 -91 2278 -91 
Q 1894 -91 1617 61 
Q 1341 213 1159 525 
z
M 3116 1747 
Q 3116 2381 2855 2742 
Q 2594 3103 2138 3103 
Q 1681 3103 1420 2742 
Q 1159 2381 1159 1747 
Q 1159 1113 1420 752 
Q 1681 391 2138 391 
Q 2594 391 2855 752 
Q 3116 1113 3116 1747 
z
" transform="scale(0.015625)"/>
       <path id="DejaVuSans-64" d="M 2906 2969 
L 2906 4863 
L 3481 4863 
L 3481 0 
L 2906 0 
L 2906 525 
Q 2725 213 2448 61 
Q 2172 -91 1784 -91 
Q 1150 -91 751 415 
Q 353 922 353 1747 
Q 353 2572 751 3078 
Q 1150 3584 1784 3584 
Q 2172 3584 2448 3432 
Q 2725 3281 2906 2969 
z
M 947 1747 
Q 947 1113 1208 752 
Q 1469 391 1925 391 
Q 2381 391 2643 752 
Q 2906 1113 2906 1747 
Q 2906 2381 2643 2742 
Q 2381 3103 1925 3103 
Q 1469 3103 1208 2742 
Q 947 2381 947 1747 
z
" transform="scale(0.015625)"/>
       <path id="DejaVuSans-28" d="M 1984 4856 
Q 1566 4138 1362 3434 
Q 1159 2731 1159 2009 
Q 1159 1288 1364 580 
Q 1569 -128 1984 -844 
L 1484 -844 
Q 1016 -109 783 600 
Q 550 1309 550 2009 
Q 550 2706 781 3412 
Q 1013 4119 1484 4856 
L 1984 4856 
z
" transform="scale(0.015625)"/>
       <path id="DejaVuSans-50" d="M 1259 4147 
L 1259 2394 
L 2053 2394 
Q 2494 2394 2734 2622 
Q 2975 2850 2975 3272 
Q 2975 3691 2734 3919 
Q 2494 4147 2053 4147 
L 1259 4147 
z
M 628 4666 
L 2053 4666 
Q 2838 4666 3239 4311 
Q 3641 3956 3641 3272 
Q 3641 2581 3239 2228 
Q 2838 1875 2053 1875 
L 1259 1875 
L 1259 0 
L 628 0 
L 628 4666 
z
" transform="scale(0.015625)"/>
       <path id="DejaVuSans-4d" d="M 628 4666 
L 1569 4666 
L 2759 1491 
L 3956 4666 
L 4897 4666 
L 4897 0 
L 4281 0 
L 4281 4097 
L 3078 897 
L 2444 897 
L 1241 4097 
L 1241 0 
L 628 0 
L 628 4666 
z
" transform="scale(0.015625)"/>
       <path id="DejaVuSans-29" d="M 513 4856 
L 1013 4856 
Q 1481 4119 1714 3412 
Q 1947 2706 1947 2009 
Q 1947 1309 1714 600 
Q 1481 -109 1013 -844 
L 513 -844 
Q 928 -128 1133 580 
Q 1338 1288 1338 2009 
Q 1338 2731 1133 3434 
Q 928 4138 513 4856 
z
" transform="scale(0.015625)"/>
      </defs>
      <use xlink:href="#DejaVuSans-52"/>
      <use xlink:href="#DejaVuSans-57" x="65.482422"/>
      <use xlink:href="#DejaVuSans-20" x="164.359375"/>
      <use xlink:href="#DejaVuSans-53" x="196.146484"/>
      <use xlink:href="#DejaVuSans-70" x="259.623047"/>
      <use xlink:href="#DejaVuSans-65" x="323.099609"/>
      <use xlink:href="#DejaVuSans-65" x="384.623047"/>
      <use xlink:href="#DejaVuSans-64" x="446.146484"/>
      <use xlink:href="#DejaVuSans-20" x="509.623047"/>
      <use xlink:href="#DejaVuSans-28" x="541.410156"/>
      <use xlink:href="#DejaVuSans-52" x="580.423828"/>
      <use xlink:href="#DejaVuSans-50" x="649.90625"/>
      <use xlink:href="#DejaVuSans-4d" x="710.208984"/>
      <use xlink:href="#DejaVuSans-29" x="796.488281"/>
      <use xlink:href="#DejaVuSans-20" x="835.501953"/>
     </g>
    </g>
   </g>
   <g id="line2d_12">
    <path d="M 77.526392 196.803771 
L 80.628045 164.39817 
L 82.178872 168.679238 
L 83.729699 181.379658 
L 85.280526 185.420841 
L 86.831352 176.739005 
L 88.382179 160.380846 
L 89.933006 162.987415 
L 93.034659 195.80866 
L 94.585486 207.720313 
L 96.136313 200.213942 
L 97.687139 189.498076 
L 99.237966 183.803076 
L 100.788793 182.974717 
L 103.890446 187.078042 
L 105.441273 188.260334 
L 106.992099 188.695773 
L 110.093753 188.791307 
L 111.64458 188.597149 
L 113.195406 187.075136 
L 114.746233 184.250754 
L 116.29706 182.830324 
L 117.847886 183.330249 
L 119.398713 184.738149 
L 120.94954 185.676886 
L 122.500366 186.133742 
L 125.60202 187.588005 
L 127.152847 187.870951 
L 128.703673 187.631159 
L 134.90698 185.502038 
L 138.008634 184.839637 
L 141.110287 184.495224 
L 145.762767 184.462465 
L 153.516901 184.541701 
L 156.618554 184.187706 
L 162.821861 183.183379 
L 165.923514 182.800347 
L 169.025168 182.709205 
L 173.677648 182.787232 
L 176.779301 182.851779 
L 179.880955 182.616879 
L 184.533435 181.952704 
L 189.185915 181.200854 
L 192.287568 181.008601 
L 196.940048 181.032151 
L 201.592528 181.139799 
L 204.694182 180.884354 
L 209.346662 180.215974 
L 213.999142 179.486423 
L 217.100795 179.323174 
L 221.753276 179.365732 
L 226.405756 179.462468 
L 229.507409 179.187932 
L 234.159889 178.515508 
L 238.812369 177.811804 
L 241.914023 177.676233 
L 246.566503 177.737943 
L 249.668156 177.84856 
L 252.76981 177.705775 
L 257.42229 177.099878 
L 263.625597 176.178589 
L 266.72725 176.069151 
L 271.37973 176.150132 
L 274.481384 176.256394 
L 277.583037 176.090226 
L 282.235517 175.478569 
L 288.438824 174.588139 
L 291.540477 174.503204 
L 296.192957 174.603569 
L 299.294611 174.702641 
L 302.396264 174.514104 
L 307.048744 173.897746 
L 311.701224 173.175089 
L 314.802878 172.986435 
L 319.455358 173.033877 
L 324.107838 173.188533 
L 327.209491 172.978952 
L 331.861972 172.358713 
L 336.514452 171.65648 
L 339.616105 171.498638 
L 344.268585 171.566992 
L 348.921065 171.715307 
L 352.022719 171.48626 
L 356.675199 170.862756 
L 361.327679 170.184564 
L 364.429332 170.056299 
L 369.081813 170.145502 
L 373.734293 170.284201 
L 376.835946 170.037463 
L 381.488426 169.411159 
L 386.140906 168.760597 
L 387.691733 168.678524 
L 387.691733 168.678524 
" clip-path="url(#pd5ccfd840c)" style="fill: none; stroke: #2b737e; stroke-width: 1.5; stroke-linecap: square"/>
   </g>
   <g id="line2d_13">
    <path d="M 77.526392 174.015057 
L 91.483832 27.031022 
L 93.034659 21.608339 
L 94.585486 21.265312 
L 96.136313 22.727125 
L 97.687139 26.122845 
L 99.237966 34.111429 
L 103.890446 82.861903 
L 117.847886 230.571562 
L 119.398713 227.940428 
L 128.703673 129.466977 
L 130.2545 131.906905 
L 131.805327 145.501609 
L 133.356153 148.8782 
L 134.90698 151.518563 
L 138.008634 163.324826 
L 139.55946 166.402109 
L 141.110287 167.535631 
L 142.661114 168.27157 
L 144.21194 169.180716 
L 145.762767 169.844733 
L 147.313594 168.912796 
L 148.86442 165.484207 
L 150.415247 161.13666 
L 151.966074 158.02569 
L 153.516901 156.391336 
L 156.618554 154.48355 
L 158.169381 154.01048 
L 159.720207 155.188287 
L 161.271034 158.706953 
L 162.821861 162.988349 
L 164.372687 166.08239 
L 165.923514 167.819035 
L 169.025168 170.022182 
L 170.575994 170.547701 
L 172.126821 169.327222 
L 173.677648 165.8373 
L 175.228474 161.773281 
L 176.779301 158.954467 
L 178.330128 157.427066 
L 181.431781 155.526172 
L 182.982608 155.236457 
L 184.533435 156.796825 
L 186.084261 160.558174 
L 187.635088 164.6983 
L 189.185915 167.526332 
L 190.736741 169.123617 
L 193.838395 171.278213 
L 195.389222 171.605446 
L 196.940048 169.982605 
L 200.041702 162.320977 
L 201.592528 159.768674 
L 203.143355 158.384773 
L 204.694182 157.402354 
L 206.245009 156.557967 
L 207.795835 156.494268 
L 209.346662 158.474069 
L 212.448315 166.455414 
L 213.999142 169.028142 
L 215.549969 170.498703 
L 217.100795 171.619224 
L 218.651622 172.585571 
L 220.202449 172.671629 
L 221.753276 170.631794 
L 224.854929 162.956468 
L 226.405756 160.659558 
L 227.956582 159.396679 
L 229.507409 158.43781 
L 231.058236 157.657164 
L 232.609062 157.862529 
L 234.159889 160.265118 
L 235.710716 164.427592 
L 237.261543 168.217461 
L 238.812369 170.548806 
L 240.363196 171.916659 
L 241.914023 173.022552 
L 243.464849 173.919754 
L 245.015676 173.721581 
L 246.566503 171.269635 
L 248.11733 167.209531 
L 249.668156 163.689533 
L 251.218983 161.631007 
L 252.76981 160.465341 
L 254.320636 159.525588 
L 255.871463 158.833199 
L 257.42229 159.349833 
L 258.973116 162.16242 
L 260.523943 166.419052 
L 262.07477 169.980295 
L 263.625597 172.089644 
L 265.176423 173.377475 
L 266.72725 174.470929 
L 268.278077 175.271665 
L 269.828903 174.748242 
L 271.37973 171.904425 
L 272.930557 167.79275 
L 274.481384 164.519238 
L 276.03221 162.677477 
L 277.583037 161.587424 
L 279.133864 160.666658 
L 280.68469 160.09229 
L 282.235517 160.959043 
L 283.786344 164.153753 
L 285.33717 168.431962 
L 286.887997 171.743625 
L 288.438824 173.6541 
L 289.989651 174.881953 
L 291.540477 175.960643 
L 293.091304 176.632502 
L 294.642131 175.747546 
L 296.192957 172.546827 
L 297.743784 168.454353 
L 299.294611 165.442521 
L 300.845438 163.792995 
L 302.396264 162.759871 
L 303.947091 161.862619 
L 305.497918 161.440856 
L 307.048744 162.690422 
L 308.599571 166.22521 
L 310.150398 170.456526 
L 311.701224 173.508631 
L 313.252051 175.245483 
L 316.353705 177.48707 
L 317.904531 177.993175 
L 319.455358 176.717972 
L 321.006185 173.208662 
L 322.557011 169.200469 
L 324.107838 166.455041 
L 325.658665 164.971814 
L 328.760318 163.115961 
L 330.311145 162.885383 
L 331.861972 164.541498 
L 333.412798 168.362044 
L 334.963625 172.485089 
L 336.514452 175.277507 
L 338.065278 176.866708 
L 341.166932 179.044598 
L 342.717759 179.344655 
L 344.268585 177.660752 
L 347.370239 170.034991 
L 348.921065 167.551543 
L 350.471892 166.208573 
L 352.022719 165.246889 
L 353.573545 164.430086 
L 355.124372 164.431995 
L 356.675199 166.506928 
L 359.776852 174.512149 
L 361.327679 177.053122 
L 362.878506 178.520186 
L 364.429332 179.655225 
L 365.980159 180.626645 
L 367.530986 180.678449 
L 369.081813 178.579909 
L 372.183466 170.959627 
L 373.734293 168.726179 
L 375.285119 167.498386 
L 376.835946 166.558755 
L 378.386773 165.80928 
L 379.937599 166.085944 
L 381.488426 168.578574 
L 383.039253 172.773124 
L 384.59008 176.534248 
L 386.140906 178.838724 
L 387.691733 180.207744 
L 387.691733 180.207744 
" clip-path="url(#pd5ccfd840c)" style="fill: none; stroke: #5ea04b; stroke-width: 1.5; stroke-linecap: square"/>
   </g>
   <g id="line2d_14">
    <path d="M 77.526392 151.226344 
L 85.280526 69.15379 
L 86.831352 56.043121 
L 88.382179 55.590162 
L 89.933006 57.48412 
L 91.483832 59.793131 
L 93.034659 62.500292 
L 94.585486 65.67673 
L 96.136313 69.456202 
L 97.687139 74.29266 
L 99.237966 81.917029 
L 100.788793 96.634145 
L 111.64458 210.623741 
L 113.195406 196.416193 
L 114.746233 180.001929 
L 116.29706 166.669809 
L 117.847886 165.054052 
L 119.398713 165.663037 
L 120.94954 166.024677 
L 122.500366 166.101062 
L 125.60202 165.956892 
L 127.152847 165.990206 
L 128.703673 166.167065 
L 136.457807 167.781143 
L 139.55946 167.969297 
L 142.661114 167.827236 
L 151.966074 167.076114 
L 155.067727 167.141261 
L 161.271034 167.631482 
L 164.372687 167.79373 
L 167.474341 167.734141 
L 173.677648 167.247562 
L 176.779301 167.098784 
L 179.880955 167.173044 
L 190.736741 167.809055 
L 195.389222 167.509578 
L 200.041702 167.13387 
L 203.143355 167.119481 
L 207.795835 167.437405 
L 212.448315 167.820069 
L 215.549969 167.830249 
L 220.202449 167.499958 
L 224.854929 167.122989 
L 227.956582 167.130926 
L 232.609062 167.479526 
L 237.261543 167.862322 
L 240.363196 167.84951 
L 245.015676 167.488672 
L 249.668156 167.11453 
L 252.76981 167.145928 
L 257.42229 167.524766 
L 262.07477 167.903449 
L 265.176423 167.86661 
L 269.828903 167.475843 
L 272.930557 167.182646 
L 276.03221 167.105423 
L 279.133864 167.271087 
L 286.887997 167.943123 
L 289.989651 167.881498 
L 294.642131 167.46165 
L 297.743784 167.169527 
L 300.845438 167.115433 
L 303.947091 167.304301 
L 311.701224 167.98107 
L 314.802878 167.894154 
L 319.455358 167.446308 
L 322.557011 167.158499 
L 325.658665 167.12906 
L 328.760318 167.340953 
L 334.963625 167.967266 
L 338.065278 167.991695 
L 341.166932 167.772241 
L 347.370239 167.149908 
L 350.471892 167.146337 
L 353.573545 167.380969 
L 359.776852 168.014006 
L 362.878506 168.012039 
L 365.980159 167.769836 
L 372.183466 167.144067 
L 375.285119 167.167268 
L 378.386773 167.42426 
L 384.59008 168.059168 
L 387.691733 168.029998 
L 387.691733 168.029998 
" clip-path="url(#pd5ccfd840c)" style="fill: none; stroke: #bdab62; stroke-width: 1.5; stroke-linecap: square"/>
   </g>
   <g id="patch_3">
    <path d="M 62.018125 241.036875 
L 62.018125 10.8 
" style="fill: none; stroke: #000000; stroke-width: 0.8; stroke-linejoin: miter; stroke-linecap: square"/>
   </g>
   <g id="patch_4">
    <path d="M 403.2 241.036875 
L 403.2 10.8 
" style="fill: none; stroke: #000000; stroke-width: 0.8; stroke-linejoin: miter; stroke-linecap: square"/>
   </g>
   <g id="patch_5">
    <path d="M 62.018125 241.036875 
L 403.2 241.036875 
" style="fill: none; stroke: #000000; stroke-width: 0.8; stroke-linejoin: miter; stroke-linecap: square"/>
   </g>
   <g id="patch_6">
    <path d="M 62.018125 10.8 
L 403.2 10.8 
" style="fill: none; stroke: #000000; stroke-width: 0.8; stroke-linejoin: miter; stroke-linecap: square"/>
   </g>
   <g id="legend_1">
    <g id="patch_7">
     <path d="M 356.85 57.630938 
L 396.9 57.630938 
Q 398.7 57.630938 398.7 55.830938 
L 398.7 17.1 
Q 398.7 15.3 396.9 15.3 
L 356.85 15.3 
Q 355.05 15.3 355.05 17.1 
L 355.05 55.830938 
Q 355.05 57.630938 356.85 57.630938 
z
" style="fill: #ffffff; opacity: 0.8; stroke: #cccccc; stroke-linejoin: miter"/>
    </g>
    <g id="line2d_15">
     <path d="M 358.65 22.588594 
L 367.65 22.588594 
L 376.65 22.588594 
" style="fill: none; stroke: #2b737e; stroke-width: 1.5; stroke-linecap: square"/>
    </g>
    <g id="text_14">
     <!-- $\Omega_{0}$ -->
     <g transform="translate(383.85 25.738594) scale(0.09 -0.09)">
      <defs>
       <path id="DejaVuSans-3a9" d="M 4647 556 
L 4647 0 
L 2772 0 
L 2772 556 
Q 3325 859 3634 1378 
Q 3944 1897 3944 2528 
Q 3944 3278 3531 3731 
Q 3119 4184 2444 4184 
Q 1769 4184 1355 3729 
Q 941 3275 941 2528 
Q 941 1897 1250 1378 
Q 1563 859 2119 556 
L 2119 0 
L 244 0 
L 244 556 
L 1241 556 
Q 747 991 519 1456 
Q 294 1922 294 2497 
Q 294 3491 894 4106 
Q 1491 4722 2444 4722 
Q 3391 4722 3994 4106 
Q 4594 3494 4594 2528 
Q 4594 1922 4372 1459 
Q 4150 997 3647 556 
L 4647 556 
z
" transform="scale(0.015625)"/>
      </defs>
      <use xlink:href="#DejaVuSans-3a9" transform="translate(0 0.21875)"/>
      <use xlink:href="#DejaVuSans-30" transform="translate(77.373047 -16.1875) scale(0.7)"/>
     </g>
    </g>
    <g id="line2d_16">
     <path d="M 358.65 35.798906 
L 367.65 35.798906 
L 376.65 35.798906 
" style="fill: none; stroke: #5ea04b; stroke-width: 1.5; stroke-linecap: square"/>
    </g>
    <g id="text_15">
     <!-- $\Omega_{1}$ -->
     <g transform="translate(383.85 38.948906) scale(0.09 -0.09)">
      <use xlink:href="#DejaVuSans-3a9" transform="translate(0 0.21875)"/>
      <use xlink:href="#DejaVuSans-31" transform="translate(77.373047 -16.1875) scale(0.7)"/>
     </g>
    </g>
    <g id="line2d_17">
     <path d="M 358.65 49.009219 
L 367.65 49.009219 
L 376.65 49.009219 
" style="fill: none; stroke: #bdab62; stroke-width: 1.5; stroke-linecap: square"/>
    </g>
    <g id="text_16">
     <!-- $\Omega_{2}$ -->
     <g transform="translate(383.85 52.159219) scale(0.09 -0.09)">
      <use xlink:href="#DejaVuSans-3a9" transform="translate(0 0.21875)"/>
      <use xlink:href="#DejaVuSans-32" transform="translate(77.373047 -16.1875) scale(0.7)"/>
     </g>
    </g>
   </g>
  </g>
 </g>
 <defs>
  <clipPath id="pd5ccfd840c">
   <rect x="62.018125" y="10.8" width="341.181875" height="230.236875"/>
  </clipPath>
 </defs>
</svg>
