<?xml version="1.0" encoding="utf-8" standalone="no"?>
<!DOCTYPE svg PUBLIC "-//W3C//DTD SVG 1.1//EN"
  "http://www.w3.org/Graphics/SVG/1.1/DTD/svg11.dtd">
<svg xmlns:xlink="http://www.w3.org/1999/xlink" width="414pt" height="288pt" viewBox="0 0 414 288" xmlns="http://www.w3.org/2000/svg" version="1.1">
 <metadata>
  <rdf:RDF xmlns:dc="http://purl.org/dc/elements/1.1/" xmlns:cc="http://creativecommons.org/ns#" xmlns:rdf="http://www.w3.org/1999/02/22-rdf-syntax-ns#">
   <cc:Work>
    <dc:type rdf:resource="http://purl.org/dc/dcmitype/StillImage"/>
    <dc:date>2023-09-07T00:36:39.263927</dc:date>
    <dc:format>image/svg+xml</dc:format>
    <dc:creator>
     <cc:Agent>
      <dc:title>Matplotlib v3.7.2, https://matplotlib.org/</dc:title>
     </cc:Agent>
    </dc:creator>
   </cc:Work>
  </rdf:RDF>
 </metadata>
 <defs>
  <style type="text/css">*{stroke-linejoin: round; stroke-linecap: butt}</style>
 </defs>
 <g id="figure_1">
  <g id="patch_1">
   <path d="M 0 288 
L 414 288 
L 414 0 
L 0 0 
L 0 288 
z
" style="fill: none"/>
  </g>
  <g id="axes_1">
   <g id="patch_2">
    <path d="M 103.415625 241.036875 
L 403.2 241.036875 
L 403.2 10.8 
L 103.415625 10.8 
L 103.415625 241.036875 
z
" style="fill: none"/>
   </g>
   <g id="matplotlib.axis_1">
    <g id="xtick_1">
     <g id="line2d_1">
      <defs>
       <path id="m98dba96275" d="M 0 0 
L 0 3.5 
" style="stroke: #000000; stroke-width: 0.8"/>
      </defs>
      <g>
       <use xlink:href="#m98dba96275" x="117.042188" y="241.036875" style="stroke: #000000; stroke-width: 0.8"/>
      </g>
     </g>
     <g id="text_1">
      <!-- 0.0 -->
      <g transform="translate(104.319688 260.194375) scale(0.16 -0.16)">
       <defs>
        <path id="DejaVuSans-30" d="M 2034 4250 
Q 1547 4250 1301 3770 
Q 1056 3291 1056 2328 
Q 1056 1369 1301 889 
Q 1547 409 2034 409 
Q 2525 409 2770 889 
Q 3016 1369 3016 2328 
Q 3016 3291 2770 3770 
Q 2525 4250 2034 4250 
z
M 2034 4750 
Q 2819 4750 3233 4129 
Q 3647 3509 3647 2328 
Q 3647 1150 3233 529 
Q 2819 -91 2034 -91 
Q 1250 -91 836 529 
Q 422 1150 422 2328 
Q 422 3509 836 4129 
Q 1250 4750 2034 4750 
z
" transform="scale(0.015625)"/>
        <path id="DejaVuSans-2e" d="M 684 794 
L 1344 794 
L 1344 0 
L 684 0 
L 684 794 
z
" transform="scale(0.015625)"/>
       </defs>
       <use xlink:href="#DejaVuSans-30"/>
       <use xlink:href="#DejaVuSans-2e" x="63.623047"/>
       <use xlink:href="#DejaVuSans-30" x="95.410156"/>
      </g>
     </g>
    </g>
    <g id="xtick_2">
     <g id="line2d_2">
      <g>
       <use xlink:href="#m98dba96275" x="171.874573" y="241.036875" style="stroke: #000000; stroke-width: 0.8"/>
      </g>
     </g>
     <g id="text_2">
      <!-- 0.2 -->
      <g transform="translate(159.152073 260.194375) scale(0.16 -0.16)">
       <defs>
        <path id="DejaVuSans-32" d="M 1228 531 
L 3431 531 
L 3431 0 
L 469 0 
L 469 531 
Q 828 903 1448 1529 
Q 2069 2156 2228 2338 
Q 2531 2678 2651 2914 
Q 2772 3150 2772 3378 
Q 2772 3750 2511 3984 
Q 2250 4219 1831 4219 
Q 1534 4219 1204 4116 
Q 875 4013 500 3803 
L 500 4441 
Q 881 4594 1212 4672 
Q 1544 4750 1819 4750 
Q 2544 4750 2975 4387 
Q 3406 4025 3406 3419 
Q 3406 3131 3298 2873 
Q 3191 2616 2906 2266 
Q 2828 2175 2409 1742 
Q 1991 1309 1228 531 
z
" transform="scale(0.015625)"/>
       </defs>
       <use xlink:href="#DejaVuSans-30"/>
       <use xlink:href="#DejaVuSans-2e" x="63.623047"/>
       <use xlink:href="#DejaVuSans-32" x="95.410156"/>
      </g>
     </g>
    </g>
    <g id="xtick_3">
     <g id="line2d_3">
      <g>
       <use xlink:href="#m98dba96275" x="226.706959" y="241.036875" style="stroke: #000000; stroke-width: 0.8"/>
      </g>
     </g>
     <g id="text_3">
      <!-- 0.4 -->
      <g transform="translate(213.984459 260.194375) scale(0.16 -0.16)">
       <defs>
        <path id="DejaVuSans-34" d="M 2419 4116 
L 825 1625 
L 2419 1625 
L 2419 4116 
z
M 2253 4666 
L 3047 4666 
L 3047 1625 
L 3713 1625 
L 3713 1100 
L 3047 1100 
L 3047 0 
L 2419 0 
L 2419 1100 
L 313 1100 
L 313 1709 
L 2253 4666 
z
" transform="scale(0.015625)"/>
       </defs>
       <use xlink:href="#DejaVuSans-30"/>
       <use xlink:href="#DejaVuSans-2e" x="63.623047"/>
       <use xlink:href="#DejaVuSans-34" x="95.410156"/>
      </g>
     </g>
    </g>
    <g id="xtick_4">
     <g id="line2d_4">
      <g>
       <use xlink:href="#m98dba96275" x="281.539345" y="241.036875" style="stroke: #000000; stroke-width: 0.8"/>
      </g>
     </g>
     <g id="text_4">
      <!-- 0.6 -->
      <g transform="translate(268.816845 260.194375) scale(0.16 -0.16)">
       <defs>
        <path id="DejaVuSans-36" d="M 2113 2584 
Q 1688 2584 1439 2293 
Q 1191 2003 1191 1497 
Q 1191 994 1439 701 
Q 1688 409 2113 409 
Q 2538 409 2786 701 
Q 3034 994 3034 1497 
Q 3034 2003 2786 2293 
Q 2538 2584 2113 2584 
z
M 3366 4563 
L 3366 3988 
Q 3128 4100 2886 4159 
Q 2644 4219 2406 4219 
Q 1781 4219 1451 3797 
Q 1122 3375 1075 2522 
Q 1259 2794 1537 2939 
Q 1816 3084 2150 3084 
Q 2853 3084 3261 2657 
Q 3669 2231 3669 1497 
Q 3669 778 3244 343 
Q 2819 -91 2113 -91 
Q 1303 -91 875 529 
Q 447 1150 447 2328 
Q 447 3434 972 4092 
Q 1497 4750 2381 4750 
Q 2619 4750 2861 4703 
Q 3103 4656 3366 4563 
z
" transform="scale(0.015625)"/>
       </defs>
       <use xlink:href="#DejaVuSans-30"/>
       <use xlink:href="#DejaVuSans-2e" x="63.623047"/>
       <use xlink:href="#DejaVuSans-36" x="95.410156"/>
      </g>
     </g>
    </g>
    <g id="xtick_5">
     <g id="line2d_5">
      <g>
       <use xlink:href="#m98dba96275" x="336.371731" y="241.036875" style="stroke: #000000; stroke-width: 0.8"/>
      </g>
     </g>
     <g id="text_5">
      <!-- 0.8 -->
      <g transform="translate(323.649231 260.194375) scale(0.16 -0.16)">
       <defs>
        <path id="DejaVuSans-38" d="M 2034 2216 
Q 1584 2216 1326 1975 
Q 1069 1734 1069 1313 
Q 1069 891 1326 650 
Q 1584 409 2034 409 
Q 2484 409 2743 651 
Q 3003 894 3003 1313 
Q 3003 1734 2745 1975 
Q 2488 2216 2034 2216 
z
M 1403 2484 
Q 997 2584 770 2862 
Q 544 3141 544 3541 
Q 544 4100 942 4425 
Q 1341 4750 2034 4750 
Q 2731 4750 3128 4425 
Q 3525 4100 3525 3541 
Q 3525 3141 3298 2862 
Q 3072 2584 2669 2484 
Q 3125 2378 3379 2068 
Q 3634 1759 3634 1313 
Q 3634 634 3220 271 
Q 2806 -91 2034 -91 
Q 1263 -91 848 271 
Q 434 634 434 1313 
Q 434 1759 690 2068 
Q 947 2378 1403 2484 
z
M 1172 3481 
Q 1172 3119 1398 2916 
Q 1625 2713 2034 2713 
Q 2441 2713 2670 2916 
Q 2900 3119 2900 3481 
Q 2900 3844 2670 4047 
Q 2441 4250 2034 4250 
Q 1625 4250 1398 4047 
Q 1172 3844 1172 3481 
z
" transform="scale(0.015625)"/>
       </defs>
       <use xlink:href="#DejaVuSans-30"/>
       <use xlink:href="#DejaVuSans-2e" x="63.623047"/>
       <use xlink:href="#DejaVuSans-38" x="95.410156"/>
      </g>
     </g>
    </g>
    <g id="xtick_6">
     <g id="line2d_6">
      <g>
       <use xlink:href="#m98dba96275" x="391.204117" y="241.036875" style="stroke: #000000; stroke-width: 0.8"/>
      </g>
     </g>
     <g id="text_6">
      <!-- 1.0 -->
      <g transform="translate(378.481617 260.194375) scale(0.16 -0.16)">
       <defs>
        <path id="DejaVuSans-31" d="M 794 531 
L 1825 531 
L 1825 4091 
L 703 3866 
L 703 4441 
L 1819 4666 
L 2450 4666 
L 2450 531 
L 3481 531 
L 3481 0 
L 794 0 
L 794 531 
z
" transform="scale(0.015625)"/>
       </defs>
       <use xlink:href="#DejaVuSans-31"/>
       <use xlink:href="#DejaVuSans-2e" x="63.623047"/>
       <use xlink:href="#DejaVuSans-30" x="95.410156"/>
      </g>
     </g>
    </g>
    <g id="text_7">
     <!-- Time [orbits] -->
     <g transform="translate(221.340625 275.120313) scale(0.1 -0.1)">
      <defs>
       <path id="DejaVuSans-54" d="M -19 4666 
L 3928 4666 
L 3928 4134 
L 2272 4134 
L 2272 0 
L 1638 0 
L 1638 4134 
L -19 4134 
L -19 4666 
z
" transform="scale(0.015625)"/>
       <path id="DejaVuSans-69" d="M 603 3500 
L 1178 3500 
L 1178 0 
L 603 0 
L 603 3500 
z
M 603 4863 
L 1178 4863 
L 1178 4134 
L 603 4134 
L 603 4863 
z
" transform="scale(0.015625)"/>
       <path id="DejaVuSans-6d" d="M 3328 2828 
Q 3544 3216 3844 3400 
Q 4144 3584 4550 3584 
Q 5097 3584 5394 3201 
Q 5691 2819 5691 2113 
L 5691 0 
L 5113 0 
L 5113 2094 
Q 5113 2597 4934 2840 
Q 4756 3084 4391 3084 
Q 3944 3084 3684 2787 
Q 3425 2491 3425 1978 
L 3425 0 
L 2847 0 
L 2847 2094 
Q 2847 2600 2669 2842 
Q 2491 3084 2119 3084 
Q 1678 3084 1418 2786 
Q 1159 2488 1159 1978 
L 1159 0 
L 581 0 
L 581 3500 
L 1159 3500 
L 1159 2956 
Q 1356 3278 1631 3431 
Q 1906 3584 2284 3584 
Q 2666 3584 2933 3390 
Q 3200 3197 3328 2828 
z
" transform="scale(0.015625)"/>
       <path id="DejaVuSans-65" d="M 3597 1894 
L 3597 1613 
L 953 1613 
Q 991 1019 1311 708 
Q 1631 397 2203 397 
Q 2534 397 2845 478 
Q 3156 559 3463 722 
L 3463 178 
Q 3153 47 2828 -22 
Q 2503 -91 2169 -91 
Q 1331 -91 842 396 
Q 353 884 353 1716 
Q 353 2575 817 3079 
Q 1281 3584 2069 3584 
Q 2775 3584 3186 3129 
Q 3597 2675 3597 1894 
z
M 3022 2063 
Q 3016 2534 2758 2815 
Q 2500 3097 2075 3097 
Q 1594 3097 1305 2825 
Q 1016 2553 972 2059 
L 3022 2063 
z
" transform="scale(0.015625)"/>
       <path id="DejaVuSans-20" transform="scale(0.015625)"/>
       <path id="DejaVuSans-5b" d="M 550 4863 
L 1875 4863 
L 1875 4416 
L 1125 4416 
L 1125 -397 
L 1875 -397 
L 1875 -844 
L 550 -844 
L 550 4863 
z
" transform="scale(0.015625)"/>
       <path id="DejaVuSans-6f" d="M 1959 3097 
Q 1497 3097 1228 2736 
Q 959 2375 959 1747 
Q 959 1119 1226 758 
Q 1494 397 1959 397 
Q 2419 397 2687 759 
Q 2956 1122 2956 1747 
Q 2956 2369 2687 2733 
Q 2419 3097 1959 3097 
z
M 1959 3584 
Q 2709 3584 3137 3096 
Q 3566 2609 3566 1747 
Q 3566 888 3137 398 
Q 2709 -91 1959 -91 
Q 1206 -91 779 398 
Q 353 888 353 1747 
Q 353 2609 779 3096 
Q 1206 3584 1959 3584 
z
" transform="scale(0.015625)"/>
       <path id="DejaVuSans-72" d="M 2631 2963 
Q 2534 3019 2420 3045 
Q 2306 3072 2169 3072 
Q 1681 3072 1420 2755 
Q 1159 2438 1159 1844 
L 1159 0 
L 581 0 
L 581 3500 
L 1159 3500 
L 1159 2956 
Q 1341 3275 1631 3429 
Q 1922 3584 2338 3584 
Q 2397 3584 2469 3576 
Q 2541 3569 2628 3553 
L 2631 2963 
z
" transform="scale(0.015625)"/>
       <path id="DejaVuSans-62" d="M 3116 1747 
Q 3116 2381 2855 2742 
Q 2594 3103 2138 3103 
Q 1681 3103 1420 2742 
Q 1159 2381 1159 1747 
Q 1159 1113 1420 752 
Q 1681 391 2138 391 
Q 2594 391 2855 752 
Q 3116 1113 3116 1747 
z
M 1159 2969 
Q 1341 3281 1617 3432 
Q 1894 3584 2278 3584 
Q 2916 3584 3314 3078 
Q 3713 2572 3713 1747 
Q 3713 922 3314 415 
Q 2916 -91 2278 -91 
Q 1894 -91 1617 61 
Q 1341 213 1159 525 
L 1159 0 
L 581 0 
L 581 4863 
L 1159 4863 
L 1159 2969 
z
" transform="scale(0.015625)"/>
       <path id="DejaVuSans-74" d="M 1172 4494 
L 1172 3500 
L 2356 3500 
L 2356 3053 
L 1172 3053 
L 1172 1153 
Q 1172 725 1289 603 
Q 1406 481 1766 481 
L 2356 481 
L 2356 0 
L 1766 0 
Q 1100 0 847 248 
Q 594 497 594 1153 
L 594 3053 
L 172 3053 
L 172 3500 
L 594 3500 
L 594 4494 
L 1172 4494 
z
" transform="scale(0.015625)"/>
       <path id="DejaVuSans-73" d="M 2834 3397 
L 2834 2853 
Q 2591 2978 2328 3040 
Q 2066 3103 1784 3103 
Q 1356 3103 1142 2972 
Q 928 2841 928 2578 
Q 928 2378 1081 2264 
Q 1234 2150 1697 2047 
L 1894 2003 
Q 2506 1872 2764 1633 
Q 3022 1394 3022 966 
Q 3022 478 2636 193 
Q 2250 -91 1575 -91 
Q 1294 -91 989 -36 
Q 684 19 347 128 
L 347 722 
Q 666 556 975 473 
Q 1284 391 1588 391 
Q 1994 391 2212 530 
Q 2431 669 2431 922 
Q 2431 1156 2273 1281 
Q 2116 1406 1581 1522 
L 1381 1569 
Q 847 1681 609 1914 
Q 372 2147 372 2553 
Q 372 3047 722 3315 
Q 1072 3584 1716 3584 
Q 2034 3584 2315 3537 
Q 2597 3491 2834 3397 
z
" transform="scale(0.015625)"/>
       <path id="DejaVuSans-5d" d="M 1947 4863 
L 1947 -844 
L 622 -844 
L 622 -397 
L 1369 -397 
L 1369 4416 
L 622 4416 
L 622 4863 
L 1947 4863 
z
" transform="scale(0.015625)"/>
      </defs>
      <use xlink:href="#DejaVuSans-54"/>
      <use xlink:href="#DejaVuSans-69" x="57.958984"/>
      <use xlink:href="#DejaVuSans-6d" x="85.742188"/>
      <use xlink:href="#DejaVuSans-65" x="183.154297"/>
      <use xlink:href="#DejaVuSans-20" x="244.677734"/>
      <use xlink:href="#DejaVuSans-5b" x="276.464844"/>
      <use xlink:href="#DejaVuSans-6f" x="315.478516"/>
      <use xlink:href="#DejaVuSans-72" x="376.660156"/>
      <use xlink:href="#DejaVuSans-62" x="417.773438"/>
      <use xlink:href="#DejaVuSans-69" x="481.25"/>
      <use xlink:href="#DejaVuSans-74" x="509.033203"/>
      <use xlink:href="#DejaVuSans-73" x="548.242188"/>
      <use xlink:href="#DejaVuSans-5d" x="600.341797"/>
     </g>
    </g>
   </g>
   <g id="matplotlib.axis_2">
    <g id="ytick_1">
     <g id="line2d_7">
      <defs>
       <path id="md7466845e2" d="M 0 0 
L -3.5 0 
" style="stroke: #000000; stroke-width: 0.8"/>
      </defs>
      <g>
       <use xlink:href="#md7466845e2" x="103.415625" y="240.961669" style="stroke: #000000; stroke-width: 0.8"/>
      </g>
     </g>
     <g id="text_8">
      <!-- -200,000 -->
      <g transform="translate(24.478125 247.040419) scale(0.16 -0.16)">
       <defs>
        <path id="DejaVuSans-2d" d="M 313 2009 
L 1997 2009 
L 1997 1497 
L 313 1497 
L 313 2009 
z
" transform="scale(0.015625)"/>
        <path id="DejaVuSans-2c" d="M 750 794 
L 1409 794 
L 1409 256 
L 897 -744 
L 494 -744 
L 750 256 
L 750 794 
z
" transform="scale(0.015625)"/>
       </defs>
       <use xlink:href="#DejaVuSans-2d"/>
       <use xlink:href="#DejaVuSans-32" x="36.083984"/>
       <use xlink:href="#DejaVuSans-30" x="99.707031"/>
       <use xlink:href="#DejaVuSans-30" x="163.330078"/>
       <use xlink:href="#DejaVuSans-2c" x="226.953125"/>
       <use xlink:href="#DejaVuSans-30" x="258.740234"/>
       <use xlink:href="#DejaVuSans-30" x="322.363281"/>
       <use xlink:href="#DejaVuSans-30" x="385.986328"/>
      </g>
     </g>
    </g>
    <g id="ytick_2">
     <g id="line2d_8">
      <g>
       <use xlink:href="#md7466845e2" x="103.415625" y="179.752567" style="stroke: #000000; stroke-width: 0.8"/>
      </g>
     </g>
     <g id="text_9">
      <!-- -100,000 -->
      <g transform="translate(24.478125 185.831317) scale(0.16 -0.16)">
       <use xlink:href="#DejaVuSans-2d"/>
       <use xlink:href="#DejaVuSans-31" x="36.083984"/>
       <use xlink:href="#DejaVuSans-30" x="99.707031"/>
       <use xlink:href="#DejaVuSans-30" x="163.330078"/>
       <use xlink:href="#DejaVuSans-2c" x="226.953125"/>
       <use xlink:href="#DejaVuSans-30" x="258.740234"/>
       <use xlink:href="#DejaVuSans-30" x="322.363281"/>
       <use xlink:href="#DejaVuSans-30" x="385.986328"/>
      </g>
     </g>
    </g>
    <g id="ytick_3">
     <g id="line2d_9">
      <g>
       <use xlink:href="#md7466845e2" x="103.415625" y="118.543465" style="stroke: #000000; stroke-width: 0.8"/>
      </g>
     </g>
     <g id="text_10">
      <!-- 0 -->
      <g transform="translate(86.235625 124.622215) scale(0.16 -0.16)">
       <use xlink:href="#DejaVuSans-30"/>
      </g>
     </g>
    </g>
    <g id="ytick_4">
     <g id="line2d_10">
      <g>
       <use xlink:href="#md7466845e2" x="103.415625" y="57.334363" style="stroke: #000000; stroke-width: 0.8"/>
      </g>
     </g>
     <g id="text_11">
      <!-- 100,000 -->
      <g transform="translate(30.250625 63.413113) scale(0.16 -0.16)">
       <use xlink:href="#DejaVuSans-31"/>
       <use xlink:href="#DejaVuSans-30" x="63.623047"/>
       <use xlink:href="#DejaVuSans-30" x="127.246094"/>
       <use xlink:href="#DejaVuSans-2c" x="190.869141"/>
       <use xlink:href="#DejaVuSans-30" x="222.65625"/>
       <use xlink:href="#DejaVuSans-30" x="286.279297"/>
       <use xlink:href="#DejaVuSans-30" x="349.902344"/>
      </g>
     </g>
    </g>
    <g id="text_12">
     <!-- Inertial Position [km] -->
     <g transform="translate(18.398438 177.805937) rotate(-90) scale(0.1 -0.1)">
      <defs>
       <path id="DejaVuSans-49" d="M 628 4666 
L 1259 4666 
L 1259 0 
L 628 0 
L 628 4666 
z
" transform="scale(0.015625)"/>
       <path id="DejaVuSans-6e" d="M 3513 2113 
L 3513 0 
L 2938 0 
L 2938 2094 
Q 2938 2591 2744 2837 
Q 2550 3084 2163 3084 
Q 1697 3084 1428 2787 
Q 1159 2491 1159 1978 
L 1159 0 
L 581 0 
L 581 3500 
L 1159 3500 
L 1159 2956 
Q 1366 3272 1645 3428 
Q 1925 3584 2291 3584 
Q 2894 3584 3203 3211 
Q 3513 2838 3513 2113 
z
" transform="scale(0.015625)"/>
       <path id="DejaVuSans-61" d="M 2194 1759 
Q 1497 1759 1228 1600 
Q 959 1441 959 1056 
Q 959 750 1161 570 
Q 1363 391 1709 391 
Q 2188 391 2477 730 
Q 2766 1069 2766 1631 
L 2766 1759 
L 2194 1759 
z
M 3341 1997 
L 3341 0 
L 2766 0 
L 2766 531 
Q 2569 213 2275 61 
Q 1981 -91 1556 -91 
Q 1019 -91 701 211 
Q 384 513 384 1019 
Q 384 1609 779 1909 
Q 1175 2209 1959 2209 
L 2766 2209 
L 2766 2266 
Q 2766 2663 2505 2880 
Q 2244 3097 1772 3097 
Q 1472 3097 1187 3025 
Q 903 2953 641 2809 
L 641 3341 
Q 956 3463 1253 3523 
Q 1550 3584 1831 3584 
Q 2591 3584 2966 3190 
Q 3341 2797 3341 1997 
z
" transform="scale(0.015625)"/>
       <path id="DejaVuSans-6c" d="M 603 4863 
L 1178 4863 
L 1178 0 
L 603 0 
L 603 4863 
z
" transform="scale(0.015625)"/>
       <path id="DejaVuSans-50" d="M 1259 4147 
L 1259 2394 
L 2053 2394 
Q 2494 2394 2734 2622 
Q 2975 2850 2975 3272 
Q 2975 3691 2734 3919 
Q 2494 4147 2053 4147 
L 1259 4147 
z
M 628 4666 
L 2053 4666 
Q 2838 4666 3239 4311 
Q 3641 3956 3641 3272 
Q 3641 2581 3239 2228 
Q 2838 1875 2053 1875 
L 1259 1875 
L 1259 0 
L 628 0 
L 628 4666 
z
" transform="scale(0.015625)"/>
       <path id="DejaVuSans-6b" d="M 581 4863 
L 1159 4863 
L 1159 1991 
L 2875 3500 
L 3609 3500 
L 1753 1863 
L 3688 0 
L 2938 0 
L 1159 1709 
L 1159 0 
L 581 0 
L 581 4863 
z
" transform="scale(0.015625)"/>
      </defs>
      <use xlink:href="#DejaVuSans-49"/>
      <use xlink:href="#DejaVuSans-6e" x="29.492188"/>
      <use xlink:href="#DejaVuSans-65" x="92.871094"/>
      <use xlink:href="#DejaVuSans-72" x="154.394531"/>
      <use xlink:href="#DejaVuSans-74" x="195.507812"/>
      <use xlink:href="#DejaVuSans-69" x="234.716797"/>
      <use xlink:href="#DejaVuSans-61" x="262.5"/>
      <use xlink:href="#DejaVuSans-6c" x="323.779297"/>
      <use xlink:href="#DejaVuSans-20" x="351.5625"/>
      <use xlink:href="#DejaVuSans-50" x="383.349609"/>
      <use xlink:href="#DejaVuSans-6f" x="440.027344"/>
      <use xlink:href="#DejaVuSans-73" x="501.208984"/>
      <use xlink:href="#DejaVuSans-69" x="553.308594"/>
      <use xlink:href="#DejaVuSans-74" x="581.091797"/>
      <use xlink:href="#DejaVuSans-69" x="620.300781"/>
      <use xlink:href="#DejaVuSans-6f" x="648.083984"/>
      <use xlink:href="#DejaVuSans-6e" x="709.265625"/>
      <use xlink:href="#DejaVuSans-20" x="772.644531"/>
      <use xlink:href="#DejaVuSans-5b" x="804.431641"/>
      <use xlink:href="#DejaVuSans-6b" x="843.445312"/>
      <use xlink:href="#DejaVuSans-6d" x="901.355469"/>
      <use xlink:href="#DejaVuSans-5d" x="998.767578"/>
     </g>
    </g>
   </g>
   <g id="line2d_11">
    <path d="M 117.042188 109.299289 
L 119.7675 113.882658 
L 122.492813 118.51287 
L 125.218125 123.144296 
L 127.943438 127.742911 
L 130.66875 132.283426 
L 133.394063 136.74711 
L 136.119375 141.12014 
L 138.844688 145.392371 
L 141.57 149.556423 
L 144.295313 153.606995 
L 147.020625 157.540353 
L 149.745938 161.353951 
L 152.47125 165.046133 
L 155.196563 168.615922 
L 157.921875 172.062847 
L 160.647188 175.386816 
L 163.3725 178.588017 
L 166.097813 181.666844 
L 168.823125 184.623837 
L 171.548438 187.459635 
L 174.27375 190.174942 
L 176.999063 192.770499 
L 179.724375 195.24706 
L 182.449688 197.605379 
L 185.175 199.846192 
L 187.900313 201.970211 
L 190.625625 203.978112 
L 193.350938 205.870528 
L 196.07625 207.648051 
L 198.801562 209.311217 
L 201.526875 210.860514 
L 204.252187 212.296368 
L 206.9775 213.619153 
L 209.702812 214.829178 
L 212.428125 215.926695 
L 215.153437 216.911891 
L 217.87875 217.784891 
L 220.604062 218.545753 
L 223.329375 219.194473 
L 226.054688 219.730978 
L 228.78 220.155129 
L 231.505313 220.466717 
L 234.230625 220.665466 
L 236.955938 220.751027 
L 239.68125 220.722979 
L 242.406563 220.580828 
L 245.131875 220.324006 
L 247.857188 219.951867 
L 250.5825 219.463686 
L 253.307813 218.85866 
L 256.033125 218.1359 
L 258.758438 217.294436 
L 261.48375 216.333207 
L 264.209063 215.251068 
L 266.934375 214.046778 
L 269.659688 212.719003 
L 272.385 211.266313 
L 275.110313 209.68718 
L 277.835625 207.979974 
L 280.560938 206.142965 
L 283.28625 204.174318 
L 286.011562 202.072096 
L 288.736875 199.834259 
L 291.462188 197.458669 
L 294.1875 194.943093 
L 296.912812 192.285213 
L 299.638125 189.482636 
L 302.363438 186.532914 
L 305.08875 183.433572 
L 307.814062 180.182137 
L 310.539375 176.776195 
L 313.264687 173.213459 
L 315.99 169.49186 
L 318.715312 165.609683 
L 321.440625 161.565743 
L 324.165938 157.359631 
L 326.89125 152.992056 
L 329.616562 148.465309 
L 332.341875 143.783914 
L 335.067188 138.955523 
L 337.7925 133.992162 
L 340.517813 128.911949 
L 343.243125 123.741459 
L 345.968438 118.518926 
L 348.69375 113.298437 
L 351.419063 108.155168 
L 354.144375 103.191216 
L 356.869688 98.540679 
L 359.595 94.370931 
L 362.320312 90.875071 
L 365.045625 88.250225 
L 367.770938 86.661167 
L 370.49625 86.199873 
L 373.221563 86.860925 
L 375.946875 88.547212 
L 378.672188 91.101262 
L 381.3975 94.343651 
L 384.122813 98.102555 
L 386.848125 102.229434 
L 389.573438 106.60369 
" clip-path="url(#p0d191bd0e3)" style="fill: none; stroke: #2b737e; stroke-width: 1.5; stroke-linecap: square"/>
   </g>
   <g id="line2d_12">
    <path d="M 117.042188 99.41565 
L 119.7675 103.819542 
L 122.492813 108.368849 
L 125.218125 113.004794 
L 127.943438 117.681962 
L 130.66875 122.365277 
L 133.394063 127.027613 
L 136.119375 131.647943 
L 138.844688 136.209932 
L 141.57 140.700858 
L 144.295313 145.110793 
L 147.020625 149.431983 
L 149.745938 153.658364 
L 152.47125 157.785196 
L 155.196563 161.808777 
L 157.921875 165.726222 
L 160.647188 169.535291 
L 163.3725 173.234248 
L 166.097813 176.821758 
L 168.823125 180.296797 
L 171.548438 183.658588 
L 174.27375 186.906544 
L 176.999063 190.04022 
L 179.724375 193.059285 
L 182.449688 195.963487 
L 185.175 198.752628 
L 187.900313 201.42655 
L 190.625625 203.985114 
L 193.350938 206.428189 
L 196.07625 208.755639 
L 198.801562 210.967314 
L 201.526875 213.063044 
L 204.252187 215.042627 
L 206.9775 216.905831 
L 209.702812 218.652378 
L 212.428125 220.281951 
L 215.153437 221.794181 
L 217.87875 223.188647 
L 220.604062 224.46487 
L 223.329375 225.622314 
L 226.054688 226.660377 
L 228.78 227.578392 
L 231.505313 228.375621 
L 234.230625 229.051255 
L 236.955938 229.604406 
L 239.68125 230.034107 
L 242.406563 230.339308 
L 245.131875 230.51887 
L 247.857188 230.571562 
L 250.5825 230.496061 
L 253.307813 230.290939 
L 256.033125 229.954665 
L 258.758438 229.485598 
L 261.48375 228.881981 
L 264.209063 228.141934 
L 266.934375 227.263452 
L 269.659688 226.244393 
L 272.385 225.082476 
L 275.110313 223.775273 
L 277.835625 222.320197 
L 280.560938 220.7145 
L 283.28625 218.955264 
L 286.011562 217.03939 
L 288.736875 214.963595 
L 291.462188 212.724401 
L 294.1875 210.318134 
L 296.912812 207.740914 
L 299.638125 204.98866 
L 302.363438 202.057085 
L 305.08875 198.94171 
L 307.814062 195.637875 
L 310.539375 192.140769 
L 313.264687 188.445472 
L 315.99 184.547018 
L 318.715312 180.440494 
L 321.440625 176.121183 
L 324.165938 171.584768 
L 326.89125 166.827632 
L 329.616562 161.847281 
L 332.341875 156.642961 
L 335.067188 151.21653 
L 337.7925 145.573717 
L 340.517813 139.725905 
L 343.243125 133.692664 
L 345.968438 127.50529 
L 348.69375 121.211626 
L 351.419063 114.882351 
L 354.144375 108.618508 
L 356.869688 102.559053 
L 359.595 96.885304 
L 362.320312 91.816604 
L 365.045625 87.590223 
L 367.770938 84.422736 
L 370.49625 82.462262 
L 373.221563 81.753444 
L 375.946875 82.234383 
L 378.672188 83.764719 
L 381.3975 86.166307 
L 384.122813 89.257779 
L 386.848125 92.875256 
L 389.573438 96.880703 
" clip-path="url(#p0d191bd0e3)" style="fill: none; stroke: #5ea04b; stroke-width: 1.5; stroke-linecap: square"/>
   </g>
   <g id="line2d_13">
    <path d="M 117.042188 51.586233 
L 119.7675 46.083186 
L 122.492813 41.288844 
L 125.218125 37.144192 
L 127.943438 33.593191 
L 130.66875 30.584078 
L 133.394063 28.069795 
L 136.119375 26.007944 
L 138.844688 24.360505 
L 141.57 23.093446 
L 144.295313 22.176313 
L 147.020625 21.581826 
L 149.745938 21.285499 
L 152.47125 21.265312 
L 155.196563 21.501403 
L 157.921875 21.975809 
L 160.647188 22.672235 
L 163.3725 23.575855 
L 166.097813 24.673137 
L 168.823125 25.951695 
L 171.548438 27.400153 
L 174.27375 29.008033 
L 176.999063 30.765655 
L 179.724375 32.664049 
L 182.449688 34.694875 
L 185.175 36.850361 
L 187.900313 39.123237 
L 190.625625 41.506685 
L 193.350938 43.994292 
L 196.07625 46.580005 
L 198.801562 49.258095 
L 201.526875 52.023124 
L 204.252187 54.86991 
L 206.9775 57.793503 
L 209.702812 60.789156 
L 212.428125 63.852305 
L 215.153437 66.978543 
L 217.87875 70.163601 
L 220.604062 73.403332 
L 223.329375 76.693687 
L 226.054688 80.030704 
L 228.78 83.410485 
L 231.505313 86.829187 
L 234.230625 90.282999 
L 236.955938 93.768133 
L 239.68125 97.280804 
L 242.406563 100.817215 
L 245.131875 104.373542 
L 247.857188 107.945917 
L 250.5825 111.530412 
L 253.307813 115.123019 
L 256.033125 118.719629 
L 258.758438 122.316017 
L 261.48375 125.907817 
L 264.209063 129.490496 
L 266.934375 133.059331 
L 269.659688 136.609376 
L 272.385 140.135437 
L 275.110313 143.632028 
L 277.835625 147.093336 
L 280.560938 150.513177 
L 283.28625 153.884938 
L 286.011562 157.201529 
L 288.736875 160.455307 
L 291.462188 163.638008 
L 294.1875 166.740652 
L 296.912812 169.75345 
L 299.638125 172.665677 
L 302.363438 175.465543 
L 305.08875 178.140024 
L 307.814062 180.674679 
L 310.539375 183.053425 
L 313.264687 185.25827 
L 315.99 187.269001 
L 318.715312 189.062814 
L 321.440625 190.613865 
L 324.165938 191.892747 
L 326.89125 192.865863 
L 329.616562 193.494694 
L 332.341875 193.734942 
L 335.067188 193.53557 
L 337.7925 192.83775 
L 340.517813 191.573819 
L 343.243125 189.666425 
L 345.968438 187.028226 
L 348.69375 183.562836 
L 351.419063 179.168175 
L 354.144375 173.744074 
L 356.869688 167.206534 
L 359.595 159.510788 
L 362.320312 150.68252 
L 365.045625 140.849699 
L 367.770938 130.258289 
L 370.49625 119.253021 
L 373.221563 108.220176 
L 375.946875 97.515649 
L 378.672188 87.411895 
L 381.3975 78.080545 
L 384.122813 69.603952 
L 386.848125 61.999269 
L 389.573438 55.242477 
" clip-path="url(#p0d191bd0e3)" style="fill: none; stroke: #bdab62; stroke-width: 1.5; stroke-linecap: square"/>
   </g>
   <g id="patch_3">
    <path d="M 103.415625 241.036875 
L 103.415625 10.8 
" style="fill: none; stroke: #000000; stroke-width: 0.8; stroke-linejoin: miter; stroke-linecap: square"/>
   </g>
   <g id="patch_4">
    <path d="M 403.2 241.036875 
L 403.2 10.8 
" style="fill: none; stroke: #000000; stroke-width: 0.8; stroke-linejoin: miter; stroke-linecap: square"/>
   </g>
   <g id="patch_5">
    <path d="M 103.415625 241.036875 
L 403.2 241.036875 
" style="fill: none; stroke: #000000; stroke-width: 0.8; stroke-linejoin: miter; stroke-linecap: square"/>
   </g>
   <g id="patch_6">
    <path d="M 103.415625 10.8 
L 403.2 10.8 
" style="fill: none; stroke: #000000; stroke-width: 0.8; stroke-linejoin: miter; stroke-linecap: square"/>
   </g>
   <g id="legend_1">
    <g id="patch_7">
     <path d="M 347.85 236.536875 
L 396.9 236.536875 
Q 398.7 236.536875 398.7 234.736875 
L 398.7 194.871094 
Q 398.7 193.071094 396.9 193.071094 
L 347.85 193.071094 
Q 346.05 193.071094 346.05 194.871094 
L 346.05 234.736875 
Q 346.05 236.536875 347.85 236.536875 
z
" style="fill: #ffffff; opacity: 0.8; stroke: #cccccc; stroke-linejoin: miter"/>
    </g>
    <g id="line2d_14">
     <path d="M 349.65 200.359687 
L 358.65 200.359687 
L 367.65 200.359687 
" style="fill: none; stroke: #2b737e; stroke-width: 1.5; stroke-linecap: square"/>
    </g>
    <g id="text_13">
     <!-- $r_{BN,0}$ -->
     <g transform="translate(374.85 203.509687) scale(0.09 -0.09)">
      <defs>
       <path id="DejaVuSans-Oblique-72" d="M 2853 2969 
Q 2766 3016 2653 3041 
Q 2541 3066 2413 3066 
Q 1953 3066 1609 2717 
Q 1266 2369 1153 1784 
L 800 0 
L 225 0 
L 909 3500 
L 1484 3500 
L 1375 2956 
Q 1603 3259 1920 3421 
Q 2238 3584 2597 3584 
Q 2691 3584 2781 3573 
Q 2872 3563 2963 3538 
L 2853 2969 
z
" transform="scale(0.015625)"/>
       <path id="DejaVuSans-Oblique-42" d="M 1081 4666 
L 2694 4666 
Q 3350 4666 3675 4422 
Q 4000 4178 4000 3688 
Q 4000 3238 3720 2911 
Q 3441 2584 2988 2516 
Q 3375 2428 3569 2181 
Q 3763 1934 3763 1522 
Q 3763 819 3242 409 
Q 2722 0 1819 0 
L 172 0 
L 1081 4666 
z
M 1234 2228 
L 903 519 
L 1919 519 
Q 2491 519 2800 781 
Q 3109 1044 3109 1522 
Q 3109 1891 2904 2059 
Q 2700 2228 2247 2228 
L 1234 2228 
z
M 1606 4147 
L 1331 2741 
L 2272 2741 
Q 2775 2741 3058 2959 
Q 3341 3178 3341 3566 
Q 3341 3869 3150 4008 
Q 2959 4147 2541 4147 
L 1606 4147 
z
" transform="scale(0.015625)"/>
       <path id="DejaVuSans-Oblique-4e" d="M 1081 4666 
L 1931 4666 
L 3219 666 
L 4000 4666 
L 4616 4666 
L 3706 0 
L 2853 0 
L 1569 4025 
L 788 0 
L 172 0 
L 1081 4666 
z
" transform="scale(0.015625)"/>
      </defs>
      <use xlink:href="#DejaVuSans-Oblique-72"/>
      <use xlink:href="#DejaVuSans-Oblique-42" transform="translate(41.113281 -16.40625) scale(0.7)"/>
      <use xlink:href="#DejaVuSans-Oblique-4e" transform="translate(89.135742 -16.40625) scale(0.7)"/>
      <use xlink:href="#DejaVuSans-2c" transform="translate(141.499023 -16.40625) scale(0.7)"/>
      <use xlink:href="#DejaVuSans-30" transform="translate(177.387695 -16.40625) scale(0.7)"/>
     </g>
    </g>
    <g id="line2d_15">
     <path d="M 349.65 213.948281 
L 358.65 213.948281 
L 367.65 213.948281 
" style="fill: none; stroke: #5ea04b; stroke-width: 1.5; stroke-linecap: square"/>
    </g>
    <g id="text_14">
     <!-- $r_{BN,1}$ -->
     <g transform="translate(374.85 217.098281) scale(0.09 -0.09)">
      <use xlink:href="#DejaVuSans-Oblique-72"/>
      <use xlink:href="#DejaVuSans-Oblique-42" transform="translate(41.113281 -16.40625) scale(0.7)"/>
      <use xlink:href="#DejaVuSans-Oblique-4e" transform="translate(89.135742 -16.40625) scale(0.7)"/>
      <use xlink:href="#DejaVuSans-2c" transform="translate(141.499023 -16.40625) scale(0.7)"/>
      <use xlink:href="#DejaVuSans-31" transform="translate(177.387695 -16.40625) scale(0.7)"/>
     </g>
    </g>
    <g id="line2d_16">
     <path d="M 349.65 227.536875 
L 358.65 227.536875 
L 367.65 227.536875 
" style="fill: none; stroke: #bdab62; stroke-width: 1.5; stroke-linecap: square"/>
    </g>
    <g id="text_15">
     <!-- $r_{BN,2}$ -->
     <g transform="translate(374.85 230.686875) scale(0.09 -0.09)">
      <use xlink:href="#DejaVuSans-Oblique-72"/>
      <use xlink:href="#DejaVuSans-Oblique-42" transform="translate(41.113281 -16.40625) scale(0.7)"/>
      <use xlink:href="#DejaVuSans-Oblique-4e" transform="translate(89.135742 -16.40625) scale(0.7)"/>
      <use xlink:href="#DejaVuSans-2c" transform="translate(141.499023 -16.40625) scale(0.7)"/>
      <use xlink:href="#DejaVuSans-32" transform="translate(177.387695 -16.40625) scale(0.7)"/>
     </g>
    </g>
   </g>
  </g>
 </g>
 <defs>
  <clipPath id="p0d191bd0e3">
   <rect x="103.415625" y="10.8" width="299.784375" height="230.236875"/>
  </clipPath>
 </defs>
</svg>
