<?xml version="1.0" encoding="utf-8" standalone="no"?>
<!DOCTYPE svg PUBLIC "-//W3C//DTD SVG 1.1//EN"
  "http://www.w3.org/Graphics/SVG/1.1/DTD/svg11.dtd">
<svg xmlns:xlink="http://www.w3.org/1999/xlink" width="414pt" height="288pt" viewBox="0 0 414 288" xmlns="http://www.w3.org/2000/svg" version="1.1">
 <metadata>
  <rdf:RDF xmlns:dc="http://purl.org/dc/elements/1.1/" xmlns:cc="http://creativecommons.org/ns#" xmlns:rdf="http://www.w3.org/1999/02/22-rdf-syntax-ns#">
   <cc:Work>
    <dc:type rdf:resource="http://purl.org/dc/dcmitype/StillImage"/>
    <dc:date>2023-09-07T00:35:56.292407</dc:date>
    <dc:format>image/svg+xml</dc:format>
    <dc:creator>
     <cc:Agent>
      <dc:title>Matplotlib v3.7.2, https://matplotlib.org/</dc:title>
     </cc:Agent>
    </dc:creator>
   </cc:Work>
  </rdf:RDF>
 </metadata>
 <defs>
  <style type="text/css">*{stroke-linejoin: round; stroke-linecap: butt}</style>
 </defs>
 <g id="figure_1">
  <g id="patch_1">
   <path d="M 0 288 
L 414 288 
L 414 0 
L 0 0 
L 0 288 
z
" style="fill: none"/>
  </g>
  <g id="axes_1">
   <g id="patch_2">
    <path d="M 111.050625 241.036875 
L 403.2 241.036875 
L 403.2 10.8 
L 111.050625 10.8 
L 111.050625 241.036875 
z
" style="fill: none"/>
   </g>
   <g id="matplotlib.axis_1">
    <g id="xtick_1">
     <g id="line2d_1">
      <defs>
       <path id="mfc1fa2a5d0" d="M 0 0 
L 0 3.5 
" style="stroke: #000000; stroke-width: 0.8"/>
      </defs>
      <g>
       <use xlink:href="#mfc1fa2a5d0" x="124.330142" y="241.036875" style="stroke: #000000; stroke-width: 0.8"/>
      </g>
     </g>
     <g id="text_1">
      <!-- 0.0 -->
      <g transform="translate(111.607642 260.194375) scale(0.16 -0.16)">
       <defs>
        <path id="DejaVuSans-30" d="M 2034 4250 
Q 1547 4250 1301 3770 
Q 1056 3291 1056 2328 
Q 1056 1369 1301 889 
Q 1547 409 2034 409 
Q 2525 409 2770 889 
Q 3016 1369 3016 2328 
Q 3016 3291 2770 3770 
Q 2525 4250 2034 4250 
z
M 2034 4750 
Q 2819 4750 3233 4129 
Q 3647 3509 3647 2328 
Q 3647 1150 3233 529 
Q 2819 -91 2034 -91 
Q 1250 -91 836 529 
Q 422 1150 422 2328 
Q 422 3509 836 4129 
Q 1250 4750 2034 4750 
z
" transform="scale(0.015625)"/>
        <path id="DejaVuSans-2e" d="M 684 794 
L 1344 794 
L 1344 0 
L 684 0 
L 684 794 
z
" transform="scale(0.015625)"/>
       </defs>
       <use xlink:href="#DejaVuSans-30"/>
       <use xlink:href="#DejaVuSans-2e" x="63.623047"/>
       <use xlink:href="#DejaVuSans-30" x="95.410156"/>
      </g>
     </g>
    </g>
    <g id="xtick_2">
     <g id="line2d_2">
      <g>
       <use xlink:href="#mfc1fa2a5d0" x="177.478468" y="241.036875" style="stroke: #000000; stroke-width: 0.8"/>
      </g>
     </g>
     <g id="text_2">
      <!-- 0.2 -->
      <g transform="translate(164.755968 260.194375) scale(0.16 -0.16)">
       <defs>
        <path id="DejaVuSans-32" d="M 1228 531 
L 3431 531 
L 3431 0 
L 469 0 
L 469 531 
Q 828 903 1448 1529 
Q 2069 2156 2228 2338 
Q 2531 2678 2651 2914 
Q 2772 3150 2772 3378 
Q 2772 3750 2511 3984 
Q 2250 4219 1831 4219 
Q 1534 4219 1204 4116 
Q 875 4013 500 3803 
L 500 4441 
Q 881 4594 1212 4672 
Q 1544 4750 1819 4750 
Q 2544 4750 2975 4387 
Q 3406 4025 3406 3419 
Q 3406 3131 3298 2873 
Q 3191 2616 2906 2266 
Q 2828 2175 2409 1742 
Q 1991 1309 1228 531 
z
" transform="scale(0.015625)"/>
       </defs>
       <use xlink:href="#DejaVuSans-30"/>
       <use xlink:href="#DejaVuSans-2e" x="63.623047"/>
       <use xlink:href="#DejaVuSans-32" x="95.410156"/>
      </g>
     </g>
    </g>
    <g id="xtick_3">
     <g id="line2d_3">
      <g>
       <use xlink:href="#mfc1fa2a5d0" x="230.626793" y="241.036875" style="stroke: #000000; stroke-width: 0.8"/>
      </g>
     </g>
     <g id="text_3">
      <!-- 0.4 -->
      <g transform="translate(217.904293 260.194375) scale(0.16 -0.16)">
       <defs>
        <path id="DejaVuSans-34" d="M 2419 4116 
L 825 1625 
L 2419 1625 
L 2419 4116 
z
M 2253 4666 
L 3047 4666 
L 3047 1625 
L 3713 1625 
L 3713 1100 
L 3047 1100 
L 3047 0 
L 2419 0 
L 2419 1100 
L 313 1100 
L 313 1709 
L 2253 4666 
z
" transform="scale(0.015625)"/>
       </defs>
       <use xlink:href="#DejaVuSans-30"/>
       <use xlink:href="#DejaVuSans-2e" x="63.623047"/>
       <use xlink:href="#DejaVuSans-34" x="95.410156"/>
      </g>
     </g>
    </g>
    <g id="xtick_4">
     <g id="line2d_4">
      <g>
       <use xlink:href="#mfc1fa2a5d0" x="283.775119" y="241.036875" style="stroke: #000000; stroke-width: 0.8"/>
      </g>
     </g>
     <g id="text_4">
      <!-- 0.6 -->
      <g transform="translate(271.052619 260.194375) scale(0.16 -0.16)">
       <defs>
        <path id="DejaVuSans-36" d="M 2113 2584 
Q 1688 2584 1439 2293 
Q 1191 2003 1191 1497 
Q 1191 994 1439 701 
Q 1688 409 2113 409 
Q 2538 409 2786 701 
Q 3034 994 3034 1497 
Q 3034 2003 2786 2293 
Q 2538 2584 2113 2584 
z
M 3366 4563 
L 3366 3988 
Q 3128 4100 2886 4159 
Q 2644 4219 2406 4219 
Q 1781 4219 1451 3797 
Q 1122 3375 1075 2522 
Q 1259 2794 1537 2939 
Q 1816 3084 2150 3084 
Q 2853 3084 3261 2657 
Q 3669 2231 3669 1497 
Q 3669 778 3244 343 
Q 2819 -91 2113 -91 
Q 1303 -91 875 529 
Q 447 1150 447 2328 
Q 447 3434 972 4092 
Q 1497 4750 2381 4750 
Q 2619 4750 2861 4703 
Q 3103 4656 3366 4563 
z
" transform="scale(0.015625)"/>
       </defs>
       <use xlink:href="#DejaVuSans-30"/>
       <use xlink:href="#DejaVuSans-2e" x="63.623047"/>
       <use xlink:href="#DejaVuSans-36" x="95.410156"/>
      </g>
     </g>
    </g>
    <g id="xtick_5">
     <g id="line2d_5">
      <g>
       <use xlink:href="#mfc1fa2a5d0" x="336.923444" y="241.036875" style="stroke: #000000; stroke-width: 0.8"/>
      </g>
     </g>
     <g id="text_5">
      <!-- 0.8 -->
      <g transform="translate(324.200944 260.194375) scale(0.16 -0.16)">
       <defs>
        <path id="DejaVuSans-38" d="M 2034 2216 
Q 1584 2216 1326 1975 
Q 1069 1734 1069 1313 
Q 1069 891 1326 650 
Q 1584 409 2034 409 
Q 2484 409 2743 651 
Q 3003 894 3003 1313 
Q 3003 1734 2745 1975 
Q 2488 2216 2034 2216 
z
M 1403 2484 
Q 997 2584 770 2862 
Q 544 3141 544 3541 
Q 544 4100 942 4425 
Q 1341 4750 2034 4750 
Q 2731 4750 3128 4425 
Q 3525 4100 3525 3541 
Q 3525 3141 3298 2862 
Q 3072 2584 2669 2484 
Q 3125 2378 3379 2068 
Q 3634 1759 3634 1313 
Q 3634 634 3220 271 
Q 2806 -91 2034 -91 
Q 1263 -91 848 271 
Q 434 634 434 1313 
Q 434 1759 690 2068 
Q 947 2378 1403 2484 
z
M 1172 3481 
Q 1172 3119 1398 2916 
Q 1625 2713 2034 2713 
Q 2441 2713 2670 2916 
Q 2900 3119 2900 3481 
Q 2900 3844 2670 4047 
Q 2441 4250 2034 4250 
Q 1625 4250 1398 4047 
Q 1172 3844 1172 3481 
z
" transform="scale(0.015625)"/>
       </defs>
       <use xlink:href="#DejaVuSans-30"/>
       <use xlink:href="#DejaVuSans-2e" x="63.623047"/>
       <use xlink:href="#DejaVuSans-38" x="95.410156"/>
      </g>
     </g>
    </g>
    <g id="xtick_6">
     <g id="line2d_6">
      <g>
       <use xlink:href="#mfc1fa2a5d0" x="390.07177" y="241.036875" style="stroke: #000000; stroke-width: 0.8"/>
      </g>
     </g>
     <g id="text_6">
      <!-- 1.0 -->
      <g transform="translate(377.34927 260.194375) scale(0.16 -0.16)">
       <defs>
        <path id="DejaVuSans-31" d="M 794 531 
L 1825 531 
L 1825 4091 
L 703 3866 
L 703 4441 
L 1819 4666 
L 2450 4666 
L 2450 531 
L 3481 531 
L 3481 0 
L 794 0 
L 794 531 
z
" transform="scale(0.015625)"/>
       </defs>
       <use xlink:href="#DejaVuSans-31"/>
       <use xlink:href="#DejaVuSans-2e" x="63.623047"/>
       <use xlink:href="#DejaVuSans-30" x="95.410156"/>
      </g>
     </g>
    </g>
    <g id="text_7">
     <!-- time [orbit] -->
     <g transform="translate(228.700312 275.120313) scale(0.1 -0.1)">
      <defs>
       <path id="DejaVuSans-74" d="M 1172 4494 
L 1172 3500 
L 2356 3500 
L 2356 3053 
L 1172 3053 
L 1172 1153 
Q 1172 725 1289 603 
Q 1406 481 1766 481 
L 2356 481 
L 2356 0 
L 1766 0 
Q 1100 0 847 248 
Q 594 497 594 1153 
L 594 3053 
L 172 3053 
L 172 3500 
L 594 3500 
L 594 4494 
L 1172 4494 
z
" transform="scale(0.015625)"/>
       <path id="DejaVuSans-69" d="M 603 3500 
L 1178 3500 
L 1178 0 
L 603 0 
L 603 3500 
z
M 603 4863 
L 1178 4863 
L 1178 4134 
L 603 4134 
L 603 4863 
z
" transform="scale(0.015625)"/>
       <path id="DejaVuSans-6d" d="M 3328 2828 
Q 3544 3216 3844 3400 
Q 4144 3584 4550 3584 
Q 5097 3584 5394 3201 
Q 5691 2819 5691 2113 
L 5691 0 
L 5113 0 
L 5113 2094 
Q 5113 2597 4934 2840 
Q 4756 3084 4391 3084 
Q 3944 3084 3684 2787 
Q 3425 2491 3425 1978 
L 3425 0 
L 2847 0 
L 2847 2094 
Q 2847 2600 2669 2842 
Q 2491 3084 2119 3084 
Q 1678 3084 1418 2786 
Q 1159 2488 1159 1978 
L 1159 0 
L 581 0 
L 581 3500 
L 1159 3500 
L 1159 2956 
Q 1356 3278 1631 3431 
Q 1906 3584 2284 3584 
Q 2666 3584 2933 3390 
Q 3200 3197 3328 2828 
z
" transform="scale(0.015625)"/>
       <path id="DejaVuSans-65" d="M 3597 1894 
L 3597 1613 
L 953 1613 
Q 991 1019 1311 708 
Q 1631 397 2203 397 
Q 2534 397 2845 478 
Q 3156 559 3463 722 
L 3463 178 
Q 3153 47 2828 -22 
Q 2503 -91 2169 -91 
Q 1331 -91 842 396 
Q 353 884 353 1716 
Q 353 2575 817 3079 
Q 1281 3584 2069 3584 
Q 2775 3584 3186 3129 
Q 3597 2675 3597 1894 
z
M 3022 2063 
Q 3016 2534 2758 2815 
Q 2500 3097 2075 3097 
Q 1594 3097 1305 2825 
Q 1016 2553 972 2059 
L 3022 2063 
z
" transform="scale(0.015625)"/>
       <path id="DejaVuSans-20" transform="scale(0.015625)"/>
       <path id="DejaVuSans-5b" d="M 550 4863 
L 1875 4863 
L 1875 4416 
L 1125 4416 
L 1125 -397 
L 1875 -397 
L 1875 -844 
L 550 -844 
L 550 4863 
z
" transform="scale(0.015625)"/>
       <path id="DejaVuSans-6f" d="M 1959 3097 
Q 1497 3097 1228 2736 
Q 959 2375 959 1747 
Q 959 1119 1226 758 
Q 1494 397 1959 397 
Q 2419 397 2687 759 
Q 2956 1122 2956 1747 
Q 2956 2369 2687 2733 
Q 2419 3097 1959 3097 
z
M 1959 3584 
Q 2709 3584 3137 3096 
Q 3566 2609 3566 1747 
Q 3566 888 3137 398 
Q 2709 -91 1959 -91 
Q 1206 -91 779 398 
Q 353 888 353 1747 
Q 353 2609 779 3096 
Q 1206 3584 1959 3584 
z
" transform="scale(0.015625)"/>
       <path id="DejaVuSans-72" d="M 2631 2963 
Q 2534 3019 2420 3045 
Q 2306 3072 2169 3072 
Q 1681 3072 1420 2755 
Q 1159 2438 1159 1844 
L 1159 0 
L 581 0 
L 581 3500 
L 1159 3500 
L 1159 2956 
Q 1341 3275 1631 3429 
Q 1922 3584 2338 3584 
Q 2397 3584 2469 3576 
Q 2541 3569 2628 3553 
L 2631 2963 
z
" transform="scale(0.015625)"/>
       <path id="DejaVuSans-62" d="M 3116 1747 
Q 3116 2381 2855 2742 
Q 2594 3103 2138 3103 
Q 1681 3103 1420 2742 
Q 1159 2381 1159 1747 
Q 1159 1113 1420 752 
Q 1681 391 2138 391 
Q 2594 391 2855 752 
Q 3116 1113 3116 1747 
z
M 1159 2969 
Q 1341 3281 1617 3432 
Q 1894 3584 2278 3584 
Q 2916 3584 3314 3078 
Q 3713 2572 3713 1747 
Q 3713 922 3314 415 
Q 2916 -91 2278 -91 
Q 1894 -91 1617 61 
Q 1341 213 1159 525 
L 1159 0 
L 581 0 
L 581 4863 
L 1159 4863 
L 1159 2969 
z
" transform="scale(0.015625)"/>
       <path id="DejaVuSans-5d" d="M 1947 4863 
L 1947 -844 
L 622 -844 
L 622 -397 
L 1369 -397 
L 1369 4416 
L 622 4416 
L 622 4863 
L 1947 4863 
z
" transform="scale(0.015625)"/>
      </defs>
      <use xlink:href="#DejaVuSans-74"/>
      <use xlink:href="#DejaVuSans-69" x="39.208984"/>
      <use xlink:href="#DejaVuSans-6d" x="66.992188"/>
      <use xlink:href="#DejaVuSans-65" x="164.404297"/>
      <use xlink:href="#DejaVuSans-20" x="225.927734"/>
      <use xlink:href="#DejaVuSans-5b" x="257.714844"/>
      <use xlink:href="#DejaVuSans-6f" x="296.728516"/>
      <use xlink:href="#DejaVuSans-72" x="357.910156"/>
      <use xlink:href="#DejaVuSans-62" x="399.023438"/>
      <use xlink:href="#DejaVuSans-69" x="462.5"/>
      <use xlink:href="#DejaVuSans-74" x="490.283203"/>
      <use xlink:href="#DejaVuSans-5d" x="529.492188"/>
     </g>
    </g>
   </g>
   <g id="matplotlib.axis_2">
    <g id="ytick_1">
     <g id="line2d_7">
      <defs>
       <path id="m9322f435bc" d="M 0 0 
L -3.5 0 
" style="stroke: #000000; stroke-width: 0.8"/>
      </defs>
      <g>
       <use xlink:href="#m9322f435bc" x="111.050625" y="240.64522" style="stroke: #000000; stroke-width: 0.8"/>
      </g>
     </g>
     <g id="text_8">
      <!-- −0.0006 -->
      <g transform="translate(34.658125 246.72397) scale(0.16 -0.16)">
       <defs>
        <path id="DejaVuSans-2212" d="M 678 2272 
L 4684 2272 
L 4684 1741 
L 678 1741 
L 678 2272 
z
" transform="scale(0.015625)"/>
       </defs>
       <use xlink:href="#DejaVuSans-2212"/>
       <use xlink:href="#DejaVuSans-30" x="83.789062"/>
       <use xlink:href="#DejaVuSans-2e" x="147.412109"/>
       <use xlink:href="#DejaVuSans-30" x="179.199219"/>
       <use xlink:href="#DejaVuSans-30" x="242.822266"/>
       <use xlink:href="#DejaVuSans-30" x="306.445312"/>
       <use xlink:href="#DejaVuSans-36" x="370.068359"/>
      </g>
     </g>
    </g>
    <g id="ytick_2">
     <g id="line2d_8">
      <g>
       <use xlink:href="#m9322f435bc" x="111.050625" y="204.370167" style="stroke: #000000; stroke-width: 0.8"/>
      </g>
     </g>
     <g id="text_9">
      <!-- −0.0004 -->
      <g transform="translate(34.658125 210.448917) scale(0.16 -0.16)">
       <use xlink:href="#DejaVuSans-2212"/>
       <use xlink:href="#DejaVuSans-30" x="83.789062"/>
       <use xlink:href="#DejaVuSans-2e" x="147.412109"/>
       <use xlink:href="#DejaVuSans-30" x="179.199219"/>
       <use xlink:href="#DejaVuSans-30" x="242.822266"/>
       <use xlink:href="#DejaVuSans-30" x="306.445312"/>
       <use xlink:href="#DejaVuSans-34" x="370.068359"/>
      </g>
     </g>
    </g>
    <g id="ytick_3">
     <g id="line2d_9">
      <g>
       <use xlink:href="#m9322f435bc" x="111.050625" y="168.095114" style="stroke: #000000; stroke-width: 0.8"/>
      </g>
     </g>
     <g id="text_10">
      <!-- −0.0002 -->
      <g transform="translate(34.658125 174.173864) scale(0.16 -0.16)">
       <use xlink:href="#DejaVuSans-2212"/>
       <use xlink:href="#DejaVuSans-30" x="83.789062"/>
       <use xlink:href="#DejaVuSans-2e" x="147.412109"/>
       <use xlink:href="#DejaVuSans-30" x="179.199219"/>
       <use xlink:href="#DejaVuSans-30" x="242.822266"/>
       <use xlink:href="#DejaVuSans-30" x="306.445312"/>
       <use xlink:href="#DejaVuSans-32" x="370.068359"/>
      </g>
     </g>
    </g>
    <g id="ytick_4">
     <g id="line2d_10">
      <g>
       <use xlink:href="#m9322f435bc" x="111.050625" y="131.820062" style="stroke: #000000; stroke-width: 0.8"/>
      </g>
     </g>
     <g id="text_11">
      <!-- 0.0000 -->
      <g transform="translate(48.065625 137.898812) scale(0.16 -0.16)">
       <use xlink:href="#DejaVuSans-30"/>
       <use xlink:href="#DejaVuSans-2e" x="63.623047"/>
       <use xlink:href="#DejaVuSans-30" x="95.410156"/>
       <use xlink:href="#DejaVuSans-30" x="159.033203"/>
       <use xlink:href="#DejaVuSans-30" x="222.65625"/>
       <use xlink:href="#DejaVuSans-30" x="286.279297"/>
      </g>
     </g>
    </g>
    <g id="ytick_5">
     <g id="line2d_11">
      <g>
       <use xlink:href="#m9322f435bc" x="111.050625" y="95.545009" style="stroke: #000000; stroke-width: 0.8"/>
      </g>
     </g>
     <g id="text_12">
      <!-- 0.0002 -->
      <g transform="translate(48.065625 101.623759) scale(0.16 -0.16)">
       <use xlink:href="#DejaVuSans-30"/>
       <use xlink:href="#DejaVuSans-2e" x="63.623047"/>
       <use xlink:href="#DejaVuSans-30" x="95.410156"/>
       <use xlink:href="#DejaVuSans-30" x="159.033203"/>
       <use xlink:href="#DejaVuSans-30" x="222.65625"/>
       <use xlink:href="#DejaVuSans-32" x="286.279297"/>
      </g>
     </g>
    </g>
    <g id="ytick_6">
     <g id="line2d_12">
      <g>
       <use xlink:href="#m9322f435bc" x="111.050625" y="59.269956" style="stroke: #000000; stroke-width: 0.8"/>
      </g>
     </g>
     <g id="text_13">
      <!-- 0.0004 -->
      <g transform="translate(48.065625 65.348706) scale(0.16 -0.16)">
       <use xlink:href="#DejaVuSans-30"/>
       <use xlink:href="#DejaVuSans-2e" x="63.623047"/>
       <use xlink:href="#DejaVuSans-30" x="95.410156"/>
       <use xlink:href="#DejaVuSans-30" x="159.033203"/>
       <use xlink:href="#DejaVuSans-30" x="222.65625"/>
       <use xlink:href="#DejaVuSans-34" x="286.279297"/>
      </g>
     </g>
    </g>
    <g id="ytick_7">
     <g id="line2d_13">
      <g>
       <use xlink:href="#m9322f435bc" x="111.050625" y="22.994903" style="stroke: #000000; stroke-width: 0.8"/>
      </g>
     </g>
     <g id="text_14">
      <!-- 0.0006 -->
      <g transform="translate(48.065625 29.073653) scale(0.16 -0.16)">
       <use xlink:href="#DejaVuSans-30"/>
       <use xlink:href="#DejaVuSans-2e" x="63.623047"/>
       <use xlink:href="#DejaVuSans-30" x="95.410156"/>
       <use xlink:href="#DejaVuSans-30" x="159.033203"/>
       <use xlink:href="#DejaVuSans-30" x="222.65625"/>
       <use xlink:href="#DejaVuSans-36" x="286.279297"/>
      </g>
     </g>
    </g>
    <g id="text_15">
     <!-- mean orbital element difference -->
     <g transform="translate(28.578438 206.748906) rotate(-90) scale(0.1 -0.1)">
      <defs>
       <path id="DejaVuSans-61" d="M 2194 1759 
Q 1497 1759 1228 1600 
Q 959 1441 959 1056 
Q 959 750 1161 570 
Q 1363 391 1709 391 
Q 2188 391 2477 730 
Q 2766 1069 2766 1631 
L 2766 1759 
L 2194 1759 
z
M 3341 1997 
L 3341 0 
L 2766 0 
L 2766 531 
Q 2569 213 2275 61 
Q 1981 -91 1556 -91 
Q 1019 -91 701 211 
Q 384 513 384 1019 
Q 384 1609 779 1909 
Q 1175 2209 1959 2209 
L 2766 2209 
L 2766 2266 
Q 2766 2663 2505 2880 
Q 2244 3097 1772 3097 
Q 1472 3097 1187 3025 
Q 903 2953 641 2809 
L 641 3341 
Q 956 3463 1253 3523 
Q 1550 3584 1831 3584 
Q 2591 3584 2966 3190 
Q 3341 2797 3341 1997 
z
" transform="scale(0.015625)"/>
       <path id="DejaVuSans-6e" d="M 3513 2113 
L 3513 0 
L 2938 0 
L 2938 2094 
Q 2938 2591 2744 2837 
Q 2550 3084 2163 3084 
Q 1697 3084 1428 2787 
Q 1159 2491 1159 1978 
L 1159 0 
L 581 0 
L 581 3500 
L 1159 3500 
L 1159 2956 
Q 1366 3272 1645 3428 
Q 1925 3584 2291 3584 
Q 2894 3584 3203 3211 
Q 3513 2838 3513 2113 
z
" transform="scale(0.015625)"/>
       <path id="DejaVuSans-6c" d="M 603 4863 
L 1178 4863 
L 1178 0 
L 603 0 
L 603 4863 
z
" transform="scale(0.015625)"/>
       <path id="DejaVuSans-64" d="M 2906 2969 
L 2906 4863 
L 3481 4863 
L 3481 0 
L 2906 0 
L 2906 525 
Q 2725 213 2448 61 
Q 2172 -91 1784 -91 
Q 1150 -91 751 415 
Q 353 922 353 1747 
Q 353 2572 751 3078 
Q 1150 3584 1784 3584 
Q 2172 3584 2448 3432 
Q 2725 3281 2906 2969 
z
M 947 1747 
Q 947 1113 1208 752 
Q 1469 391 1925 391 
Q 2381 391 2643 752 
Q 2906 1113 2906 1747 
Q 2906 2381 2643 2742 
Q 2381 3103 1925 3103 
Q 1469 3103 1208 2742 
Q 947 2381 947 1747 
z
" transform="scale(0.015625)"/>
       <path id="DejaVuSans-66" d="M 2375 4863 
L 2375 4384 
L 1825 4384 
Q 1516 4384 1395 4259 
Q 1275 4134 1275 3809 
L 1275 3500 
L 2222 3500 
L 2222 3053 
L 1275 3053 
L 1275 0 
L 697 0 
L 697 3053 
L 147 3053 
L 147 3500 
L 697 3500 
L 697 3744 
Q 697 4328 969 4595 
Q 1241 4863 1831 4863 
L 2375 4863 
z
" transform="scale(0.015625)"/>
       <path id="DejaVuSans-63" d="M 3122 3366 
L 3122 2828 
Q 2878 2963 2633 3030 
Q 2388 3097 2138 3097 
Q 1578 3097 1268 2742 
Q 959 2388 959 1747 
Q 959 1106 1268 751 
Q 1578 397 2138 397 
Q 2388 397 2633 464 
Q 2878 531 3122 666 
L 3122 134 
Q 2881 22 2623 -34 
Q 2366 -91 2075 -91 
Q 1284 -91 818 406 
Q 353 903 353 1747 
Q 353 2603 823 3093 
Q 1294 3584 2113 3584 
Q 2378 3584 2631 3529 
Q 2884 3475 3122 3366 
z
" transform="scale(0.015625)"/>
      </defs>
      <use xlink:href="#DejaVuSans-6d"/>
      <use xlink:href="#DejaVuSans-65" x="97.412109"/>
      <use xlink:href="#DejaVuSans-61" x="158.935547"/>
      <use xlink:href="#DejaVuSans-6e" x="220.214844"/>
      <use xlink:href="#DejaVuSans-20" x="283.59375"/>
      <use xlink:href="#DejaVuSans-6f" x="315.380859"/>
      <use xlink:href="#DejaVuSans-72" x="376.5625"/>
      <use xlink:href="#DejaVuSans-62" x="417.675781"/>
      <use xlink:href="#DejaVuSans-69" x="481.152344"/>
      <use xlink:href="#DejaVuSans-74" x="508.935547"/>
      <use xlink:href="#DejaVuSans-61" x="548.144531"/>
      <use xlink:href="#DejaVuSans-6c" x="609.423828"/>
      <use xlink:href="#DejaVuSans-20" x="637.207031"/>
      <use xlink:href="#DejaVuSans-65" x="668.994141"/>
      <use xlink:href="#DejaVuSans-6c" x="730.517578"/>
      <use xlink:href="#DejaVuSans-65" x="758.300781"/>
      <use xlink:href="#DejaVuSans-6d" x="819.824219"/>
      <use xlink:href="#DejaVuSans-65" x="917.236328"/>
      <use xlink:href="#DejaVuSans-6e" x="978.759766"/>
      <use xlink:href="#DejaVuSans-74" x="1042.138672"/>
      <use xlink:href="#DejaVuSans-20" x="1081.347656"/>
      <use xlink:href="#DejaVuSans-64" x="1113.134766"/>
      <use xlink:href="#DejaVuSans-69" x="1176.611328"/>
      <use xlink:href="#DejaVuSans-66" x="1204.394531"/>
      <use xlink:href="#DejaVuSans-66" x="1239.599609"/>
      <use xlink:href="#DejaVuSans-65" x="1274.804688"/>
      <use xlink:href="#DejaVuSans-72" x="1336.328125"/>
      <use xlink:href="#DejaVuSans-65" x="1375.191406"/>
      <use xlink:href="#DejaVuSans-6e" x="1436.714844"/>
      <use xlink:href="#DejaVuSans-63" x="1500.09375"/>
      <use xlink:href="#DejaVuSans-65" x="1555.074219"/>
     </g>
    </g>
   </g>
   <g id="line2d_14">
    <path d="M 124.330142 113.934677 
L 125.024496 119.638456 
L 125.71885 123.857158 
L 126.413204 126.831651 
L 127.107557 128.79082 
L 127.801911 129.93727 
L 128.496265 130.443474 
L 129.190619 130.45299 
L 129.884973 130.083755 
L 130.579327 129.431884 
L 131.620857 128.090256 
L 133.356742 125.343078 
L 136.828511 119.7005 
L 138.911573 116.796957 
L 140.647457 114.732224 
L 142.383342 112.969443 
L 144.466403 111.203305 
L 146.549465 109.761375 
L 148.632526 108.593595 
L 150.715588 107.661181 
L 153.145826 106.831103 
L 155.576065 106.242493 
L 158.35348 105.82321 
L 161.130895 105.628291 
L 164.602664 105.619792 
L 176.753856 105.845608 
L 180.919979 105.492796 
L 187.516341 104.907477 
L 191.335287 104.824891 
L 204.180833 104.758038 
L 209.388487 104.398875 
L 214.943317 103.780214 
L 220.845325 102.88724 
L 227.441686 101.654415 
L 235.426755 99.92402 
L 247.925124 96.954199 
L 264.589616 93.036999 
L 275.699278 90.668131 
L 287.85047 88.317093 
L 311.111323 83.881811 
L 318.749215 82.159288 
L 325.345577 80.448951 
L 331.247584 78.699528 
L 337.149592 76.720189 
L 343.398776 74.384778 
L 357.63303 68.93673 
L 360.410445 68.190091 
L 362.493507 67.826727 
L 364.576568 67.701264 
L 366.312453 67.832073 
L 367.70116 68.124795 
L 369.089868 68.611793 
L 370.478576 69.317718 
L 371.867283 70.266179 
L 373.255991 71.479729 
L 374.644699 72.980751 
L 376.033406 74.793194 
L 377.422114 76.944507 
L 378.810822 79.466625 
L 380.199529 82.39469 
L 381.588237 85.762625 
L 383.324122 90.628103 
L 385.060006 96.227212 
L 387.143068 103.824338 
L 389.920483 114.9871 
L 389.920483 114.9871 
" clip-path="url(#pabd03304bd)" style="fill: none; stroke: #1f77b4; stroke-width: 1.5; stroke-linecap: square"/>
   </g>
   <g id="line2d_15">
    <path d="M 124.330142 95.662129 
L 125.024496 99.086829 
L 125.71885 101.615524 
L 126.413204 103.397502 
L 127.107557 104.572433 
L 127.801911 105.262974 
L 128.496265 105.573043 
L 129.190619 105.588812 
L 129.884973 105.38079 
L 130.926503 104.771118 
L 132.315211 103.620107 
L 139.953103 96.644445 
L 142.730519 94.610578 
L 146.549465 92.110408 
L 153.493003 87.898868 
L 164.949841 81.19665 
L 169.115964 78.988135 
L 172.240556 77.560622 
L 174.670795 76.662646 
L 177.101033 76.008611 
L 179.184095 75.67282 
L 181.267156 75.554159 
L 183.350218 75.640333 
L 185.780456 75.955791 
L 188.905048 76.589756 
L 194.807056 78.064715 
L 202.097771 80.079443 
L 207.999779 81.943719 
L 213.901786 84.045366 
L 220.845325 86.772997 
L 230.566278 90.865987 
L 244.106178 96.549071 
L 251.396893 99.35324 
L 257.646078 101.513521 
L 263.200909 103.203217 
L 268.408562 104.566485 
L 273.616216 105.701642 
L 278.82387 106.601273 
L 284.031524 107.26426 
L 289.239177 107.695256 
L 294.446831 107.903973 
L 300.001662 107.897389 
L 305.903669 107.654488 
L 312.152854 107.164795 
L 319.096392 106.387425 
L 327.428638 105.212837 
L 351.731022 101.591908 
L 356.244322 101.251228 
L 359.716091 101.206031 
L 362.493507 101.372943 
L 364.923745 101.723946 
L 367.006806 102.223278 
L 369.089868 102.951824 
L 370.825753 103.768676 
L 372.561637 104.807069 
L 374.297522 106.096605 
L 376.033406 107.668261 
L 377.769291 109.555807 
L 379.505175 111.795946 
L 381.24106 114.424356 
L 382.976945 117.465905 
L 384.712829 120.920428 
L 386.795891 125.55241 
L 389.920483 133.136527 
L 389.920483 133.136527 
" clip-path="url(#pabd03304bd)" style="fill: none; stroke: #ff7f0e; stroke-width: 1.5; stroke-linecap: square"/>
   </g>
   <g id="line2d_16">
    <path d="M 124.330142 186.206415 
L 125.024496 185.799805 
L 126.066027 185.529562 
L 127.801911 185.423174 
L 136.134157 185.432255 
L 142.730519 185.353279 
L 146.549465 185.095586 
L 150.021234 184.645572 
L 153.145826 184.013598 
L 155.923241 183.225477 
L 158.35348 182.321442 
L 160.783718 181.176576 
L 162.86678 179.971101 
L 164.949841 178.530877 
L 167.032903 176.835376 
L 169.115964 174.877388 
L 171.546203 172.284408 
L 175.017972 168.183828 
L 178.836918 163.712822 
L 180.919979 161.613213 
L 182.655864 160.174972 
L 184.391749 159.068192 
L 185.780456 158.4266 
L 187.169164 157.986982 
L 188.905048 157.67935 
L 190.98811 157.573107 
L 193.765525 157.681594 
L 205.56954 158.376055 
L 217.026379 158.668566 
L 272.227508 159.655519 
L 290.280708 159.730151 
L 306.9452 159.576663 
L 321.52663 159.230337 
L 332.983469 158.751741 
L 341.315715 158.200738 
L 347.564899 157.585877 
L 352.772553 156.852165 
L 356.938676 156.046936 
L 360.757622 155.085789 
L 364.923745 153.791971 
L 371.172929 151.801282 
L 373.603168 151.27373 
L 376.033406 150.994353 
L 378.463645 150.953836 
L 381.935414 151.164616 
L 389.920483 151.846199 
L 389.920483 151.846199 
" clip-path="url(#pabd03304bd)" style="fill: none; stroke: #2ca02c; stroke-width: 1.5; stroke-linecap: square"/>
   </g>
   <g id="line2d_17">
    <path d="M 124.330142 58.776845 
L 125.024496 51.869491 
L 125.71885 47.751734 
L 126.413204 45.387181 
L 127.107557 44.092313 
L 127.801911 43.426612 
L 128.496265 43.113081 
L 129.537796 42.95243 
L 134.74545 42.578413 
L 137.522865 42.372782 
L 139.605926 42.459049 
L 141.341811 42.738421 
L 143.077696 43.211471 
L 145.160757 44.019528 
L 147.243819 45.06128 
L 149.674057 46.527231 
L 152.451472 48.468083 
L 155.923241 51.174161 
L 163.561134 57.244307 
L 165.644195 58.586614 
L 167.38008 59.460109 
L 168.768787 59.945578 
L 170.157495 60.200335 
L 171.546203 60.190175 
L 172.587733 59.992592 
L 173.976441 59.464026 
L 175.365149 58.634239 
L 176.753856 57.525775 
L 178.489741 55.821874 
L 181.96151 51.939703 
L 184.044572 49.807895 
L 185.433279 48.64833 
L 186.821987 47.759061 
L 188.210695 47.156279 
L 189.599402 46.824988 
L 190.98811 46.725894 
L 192.723995 46.846961 
L 195.154233 47.282219 
L 203.486479 48.970936 
L 209.04131 49.758357 
L 220.150971 51.029384 
L 229.177571 52.171956 
L 236.121109 53.269328 
L 242.71747 54.537749 
L 249.313832 56.040182 
L 255.910193 57.769434 
L 263.200909 59.916676 
L 271.533155 62.615896 
L 281.948462 66.238179 
L 306.598023 75.145753 
L 332.636292 84.632293 
L 340.968538 87.933774 
L 348.60643 91.206415 
L 358.327384 95.409483 
L 361.104799 96.344495 
L 363.18786 96.829257 
L 364.923745 97.033828 
L 366.65963 97.019496 
L 368.395514 96.771361 
L 370.131399 96.309788 
L 373.255991 95.185884 
L 375.339052 94.53093 
L 376.72776 94.27637 
L 378.116468 94.228603 
L 379.505175 94.411979 
L 380.893883 94.8258 
L 382.282591 95.452289 
L 384.018475 96.49925 
L 385.75436 97.807704 
L 387.490245 99.362955 
L 389.573306 101.546503 
L 389.920483 101.942381 
L 389.920483 101.942381 
" clip-path="url(#pabd03304bd)" style="fill: none; stroke: #d62728; stroke-width: 1.5; stroke-linecap: square"/>
   </g>
   <g id="line2d_18">
    <path d="M 124.330142 42.424678 
L 125.024496 50.618566 
L 125.71885 55.563404 
L 126.413204 58.43263 
L 127.107557 59.990347 
L 127.801911 60.727199 
L 128.496265 60.954557 
L 129.190619 60.868431 
L 130.23215 60.407684 
L 131.968034 59.266316 
L 135.092626 57.155105 
L 137.175688 56.048397 
L 138.911573 55.367267 
L 140.647457 54.898715 
L 142.730519 54.585579 
L 144.81358 54.500441 
L 147.243819 54.630555 
L 150.021234 55.009502 
L 153.493003 55.727973 
L 157.659126 56.830553 
L 161.825249 58.146066 
L 165.297018 59.47241 
L 168.074433 60.791174 
L 170.504672 62.22248 
L 172.587733 63.702104 
L 175.017972 65.730212 
L 178.142564 68.677542 
L 181.614333 71.892819 
L 183.350218 73.235098 
L 185.086102 74.287023 
L 186.47481 74.891966 
L 187.863518 75.287998 
L 189.599402 75.52227 
L 191.335287 75.531215 
L 193.765525 75.313978 
L 204.875187 74.044926 
L 211.124371 73.67038 
L 217.720733 73.491481 
L 223.969917 73.536402 
L 229.871925 73.791639 
L 235.773932 74.269472 
L 241.67594 74.976365 
L 247.577947 75.908649 
L 253.827132 77.12655 
L 260.423493 78.641387 
L 268.061385 80.637671 
L 277.087985 83.238369 
L 292.016593 87.811815 
L 310.416969 93.390347 
L 326.03993 97.871478 
L 351.036668 105.011887 
L 357.285853 107.032142 
L 361.104799 108.494254 
L 363.882214 109.774341 
L 366.65963 111.311996 
L 369.437045 113.11438 
L 375.339052 117.071855 
L 377.422114 118.153577 
L 379.852352 119.154881 
L 383.324122 120.542962 
L 385.060006 121.46467 
L 386.795891 122.645084 
L 388.531775 124.102439 
L 389.920483 125.445163 
L 389.920483 125.445163 
" clip-path="url(#pabd03304bd)" style="fill: none; stroke: #9467bd; stroke-width: 1.5; stroke-linecap: square"/>
   </g>
   <g id="line2d_19">
    <path d="M 124.330142 22.429085 
L 127.801911 21.284504 
L 128.843442 21.317172 
L 129.884973 21.63169 
L 130.926503 22.22579 
L 131.968034 23.072665 
L 133.356742 24.523912 
L 135.092626 26.703111 
L 138.217219 31.100515 
L 143.772049 38.916387 
L 148.285349 44.840365 
L 153.493003 51.288922 
L 159.047834 57.81581 
L 172.587733 73.488887 
L 176.406679 78.459242 
L 181.96151 85.738851 
L 184.044572 88.119141 
L 185.780456 89.826183 
L 187.516341 91.247349 
L 189.252225 92.386115 
L 190.98811 93.276971 
L 193.071171 94.095574 
L 195.848587 94.925485 
L 201.056241 96.188363 
L 210.430017 98.240226 
L 219.803794 100.04756 
L 248.272301 105.353063 
L 257.298901 107.355327 
L 265.978324 109.505064 
L 274.657747 111.888583 
L 282.989993 114.407292 
L 290.975062 117.051007 
L 298.265777 119.6909 
L 304.862138 122.304641 
L 310.764146 124.86899 
L 316.318977 127.526972 
L 321.179454 130.095215 
L 325.692753 132.730099 
L 329.858876 135.422187 
L 333.677823 138.153118 
L 337.149592 140.894557 
L 340.621361 143.925384 
L 343.745953 146.941016 
L 346.870545 150.27284 
L 349.647961 153.539631 
L 352.425376 157.135872 
L 355.202791 161.109505 
L 357.980207 165.517245 
L 360.410445 169.781723 
L 362.840683 174.476463 
L 365.270922 179.644406 
L 367.70116 185.307436 
L 370.478576 192.350449 
L 374.297522 202.7182 
L 378.810822 214.881037 
L 380.893883 219.948323 
L 382.629768 223.663942 
L 384.018475 226.186175 
L 385.407183 228.210968 
L 386.448714 229.350929 
L 387.490245 230.131016 
L 388.184598 230.438979 
L 388.878952 230.571563 
L 389.573306 230.526459 
L 389.920483 230.437247 
L 389.920483 230.437247 
" clip-path="url(#pabd03304bd)" style="fill: none; stroke: #8c564b; stroke-width: 1.5; stroke-linecap: square"/>
   </g>
   <g id="patch_3">
    <path d="M 111.050625 241.036875 
L 111.050625 10.8 
" style="fill: none; stroke: #000000; stroke-width: 0.8; stroke-linejoin: miter; stroke-linecap: square"/>
   </g>
   <g id="patch_4">
    <path d="M 403.2 241.036875 
L 403.2 10.8 
" style="fill: none; stroke: #000000; stroke-width: 0.8; stroke-linejoin: miter; stroke-linecap: square"/>
   </g>
   <g id="patch_5">
    <path d="M 111.050625 241.036875 
L 403.2 241.036875 
" style="fill: none; stroke: #000000; stroke-width: 0.8; stroke-linejoin: miter; stroke-linecap: square"/>
   </g>
   <g id="patch_6">
    <path d="M 111.050625 10.8 
L 403.2 10.8 
" style="fill: none; stroke: #000000; stroke-width: 0.8; stroke-linejoin: miter; stroke-linecap: square"/>
   </g>
   <g id="legend_1">
    <g id="patch_7">
     <path d="M 329.768438 236.536875 
L 396.9 236.536875 
Q 398.7 236.536875 398.7 234.736875 
L 398.7 156.375 
Q 398.7 154.575 396.9 154.575 
L 329.768438 154.575 
Q 327.968437 154.575 327.968437 156.375 
L 327.968437 234.736875 
Q 327.968437 236.536875 329.768438 236.536875 
z
" style="fill: #ffffff; opacity: 0.8; stroke: #cccccc; stroke-linejoin: miter"/>
    </g>
    <g id="line2d_20">
     <path d="M 331.568438 161.863594 
L 340.568438 161.863594 
L 349.568438 161.863594 
" style="fill: none; stroke: #1f77b4; stroke-width: 1.5; stroke-linecap: square"/>
    </g>
    <g id="text_16">
     <!-- da -->
     <g transform="translate(356.768438 165.013594) scale(0.09 -0.09)">
      <use xlink:href="#DejaVuSans-64"/>
      <use xlink:href="#DejaVuSans-61" x="63.476562"/>
     </g>
    </g>
    <g id="line2d_21">
     <path d="M 331.568438 175.073906 
L 340.568438 175.073906 
L 349.568438 175.073906 
" style="fill: none; stroke: #ff7f0e; stroke-width: 1.5; stroke-linecap: square"/>
    </g>
    <g id="text_17">
     <!-- de -->
     <g transform="translate(356.768438 178.223906) scale(0.09 -0.09)">
      <use xlink:href="#DejaVuSans-64"/>
      <use xlink:href="#DejaVuSans-65" x="63.476562"/>
     </g>
    </g>
    <g id="line2d_22">
     <path d="M 331.568438 188.284219 
L 340.568438 188.284219 
L 349.568438 188.284219 
" style="fill: none; stroke: #2ca02c; stroke-width: 1.5; stroke-linecap: square"/>
    </g>
    <g id="text_18">
     <!-- di -->
     <g transform="translate(356.768438 191.434219) scale(0.09 -0.09)">
      <use xlink:href="#DejaVuSans-64"/>
      <use xlink:href="#DejaVuSans-69" x="63.476562"/>
     </g>
    </g>
    <g id="line2d_23">
     <path d="M 331.568438 201.494531 
L 340.568438 201.494531 
L 349.568438 201.494531 
" style="fill: none; stroke: #d62728; stroke-width: 1.5; stroke-linecap: square"/>
    </g>
    <g id="text_19">
     <!-- dOmega -->
     <g transform="translate(356.768438 204.644531) scale(0.09 -0.09)">
      <defs>
       <path id="DejaVuSans-4f" d="M 2522 4238 
Q 1834 4238 1429 3725 
Q 1025 3213 1025 2328 
Q 1025 1447 1429 934 
Q 1834 422 2522 422 
Q 3209 422 3611 934 
Q 4013 1447 4013 2328 
Q 4013 3213 3611 3725 
Q 3209 4238 2522 4238 
z
M 2522 4750 
Q 3503 4750 4090 4092 
Q 4678 3434 4678 2328 
Q 4678 1225 4090 567 
Q 3503 -91 2522 -91 
Q 1538 -91 948 565 
Q 359 1222 359 2328 
Q 359 3434 948 4092 
Q 1538 4750 2522 4750 
z
" transform="scale(0.015625)"/>
       <path id="DejaVuSans-67" d="M 2906 1791 
Q 2906 2416 2648 2759 
Q 2391 3103 1925 3103 
Q 1463 3103 1205 2759 
Q 947 2416 947 1791 
Q 947 1169 1205 825 
Q 1463 481 1925 481 
Q 2391 481 2648 825 
Q 2906 1169 2906 1791 
z
M 3481 434 
Q 3481 -459 3084 -895 
Q 2688 -1331 1869 -1331 
Q 1566 -1331 1297 -1286 
Q 1028 -1241 775 -1147 
L 775 -588 
Q 1028 -725 1275 -790 
Q 1522 -856 1778 -856 
Q 2344 -856 2625 -561 
Q 2906 -266 2906 331 
L 2906 616 
Q 2728 306 2450 153 
Q 2172 0 1784 0 
Q 1141 0 747 490 
Q 353 981 353 1791 
Q 353 2603 747 3093 
Q 1141 3584 1784 3584 
Q 2172 3584 2450 3431 
Q 2728 3278 2906 2969 
L 2906 3500 
L 3481 3500 
L 3481 434 
z
" transform="scale(0.015625)"/>
      </defs>
      <use xlink:href="#DejaVuSans-64"/>
      <use xlink:href="#DejaVuSans-4f" x="63.476562"/>
      <use xlink:href="#DejaVuSans-6d" x="142.1875"/>
      <use xlink:href="#DejaVuSans-65" x="239.599609"/>
      <use xlink:href="#DejaVuSans-67" x="301.123047"/>
      <use xlink:href="#DejaVuSans-61" x="364.599609"/>
     </g>
    </g>
    <g id="line2d_24">
     <path d="M 331.568438 214.704844 
L 340.568438 214.704844 
L 349.568438 214.704844 
" style="fill: none; stroke: #9467bd; stroke-width: 1.5; stroke-linecap: square"/>
    </g>
    <g id="text_20">
     <!-- domega -->
     <g transform="translate(356.768438 217.854844) scale(0.09 -0.09)">
      <use xlink:href="#DejaVuSans-64"/>
      <use xlink:href="#DejaVuSans-6f" x="63.476562"/>
      <use xlink:href="#DejaVuSans-6d" x="124.658203"/>
      <use xlink:href="#DejaVuSans-65" x="222.070312"/>
      <use xlink:href="#DejaVuSans-67" x="283.59375"/>
      <use xlink:href="#DejaVuSans-61" x="347.070312"/>
     </g>
    </g>
    <g id="line2d_25">
     <path d="M 331.568438 227.915156 
L 340.568438 227.915156 
L 349.568438 227.915156 
" style="fill: none; stroke: #8c564b; stroke-width: 1.5; stroke-linecap: square"/>
    </g>
    <g id="text_21">
     <!-- dM -->
     <g transform="translate(356.768438 231.065156) scale(0.09 -0.09)">
      <defs>
       <path id="DejaVuSans-4d" d="M 628 4666 
L 1569 4666 
L 2759 1491 
L 3956 4666 
L 4897 4666 
L 4897 0 
L 4281 0 
L 4281 4097 
L 3078 897 
L 2444 897 
L 1241 4097 
L 1241 0 
L 628 0 
L 628 4666 
z
" transform="scale(0.015625)"/>
      </defs>
      <use xlink:href="#DejaVuSans-64"/>
      <use xlink:href="#DejaVuSans-4d" x="63.476562"/>
     </g>
    </g>
   </g>
  </g>
 </g>
 <defs>
  <clipPath id="pabd03304bd">
   <rect x="111.050625" y="10.8" width="292.149375" height="230.236875"/>
  </clipPath>
 </defs>
</svg>
