<?xml version="1.0" encoding="utf-8" standalone="no"?>
<!DOCTYPE svg PUBLIC "-//W3C//DTD SVG 1.1//EN"
  "http://www.w3.org/Graphics/SVG/1.1/DTD/svg11.dtd">
<svg xmlns:xlink="http://www.w3.org/1999/xlink" width="414pt" height="288pt" viewBox="0 0 414 288" xmlns="http://www.w3.org/2000/svg" version="1.1">
 <metadata>
  <rdf:RDF xmlns:dc="http://purl.org/dc/elements/1.1/" xmlns:cc="http://creativecommons.org/ns#" xmlns:rdf="http://www.w3.org/1999/02/22-rdf-syntax-ns#">
   <cc:Work>
    <dc:type rdf:resource="http://purl.org/dc/dcmitype/StillImage"/>
    <dc:date>2023-09-07T00:38:58.332392</dc:date>
    <dc:format>image/svg+xml</dc:format>
    <dc:creator>
     <cc:Agent>
      <dc:title>Matplotlib v3.7.2, https://matplotlib.org/</dc:title>
     </cc:Agent>
    </dc:creator>
   </cc:Work>
  </rdf:RDF>
 </metadata>
 <defs>
  <style type="text/css">*{stroke-linejoin: round; stroke-linecap: butt}</style>
 </defs>
 <g id="figure_1">
  <g id="patch_1">
   <path d="M 0 288 
L 414 288 
L 414 0 
L 0 0 
L 0 288 
z
" style="fill: none"/>
  </g>
  <g id="axes_1">
   <g id="patch_2">
    <path d="M 66.2675 237.875312 
L 393.02 237.875312 
L 393.02 20.040313 
L 66.2675 20.040313 
L 66.2675 237.875312 
z
" style="fill: none"/>
   </g>
   <g id="patch_3">
    <path d="M 338.56125 134.403687 
C 340.005513 134.403687 341.390817 133.829876 342.412065 132.808628 
C 343.433313 131.78738 344.007125 130.402075 344.007125 128.957812 
C 344.007125 127.51355 343.433313 126.128245 342.412065 125.106997 
C 341.390817 124.085749 340.005513 123.511937 338.56125 123.511937 
C 337.116987 123.511937 335.731683 124.085749 334.710435 125.106997 
C 333.689187 126.128245 333.115375 127.51355 333.115375 128.957812 
C 333.115375 130.402075 333.689187 131.78738 334.710435 132.808628 
C 335.731683 133.829876 337.116987 134.403687 338.56125 134.403687 
z
" clip-path="url(#p56a85030dd)" style="fill: #008800; stroke: #008800; stroke-linejoin: miter"/>
   </g>
   <g id="patch_4">
    <path d="M 338.56125 134.403687 
C 340.005513 134.403687 341.390817 133.829876 342.412065 132.808628 
C 343.433313 131.78738 344.007125 130.402075 344.007125 128.957812 
C 344.007125 127.51355 343.433313 126.128245 342.412065 125.106997 
C 341.390817 124.085749 340.005513 123.511937 338.56125 123.511937 
C 337.116987 123.511937 335.731683 124.085749 334.710435 125.106997 
C 333.689187 126.128245 333.115375 127.51355 333.115375 128.957812 
C 333.115375 130.402075 333.689187 131.78738 334.710435 132.808628 
C 335.731683 133.829876 337.116987 134.403687 338.56125 134.403687 
z
" clip-path="url(#p56a85030dd)" style="fill: #008800; stroke: #008800; stroke-linejoin: miter"/>
   </g>
   <g id="patch_5">
    <path d="M 338.56125 134.403687 
C 340.005513 134.403687 341.390817 133.829876 342.412065 132.808628 
C 343.433313 131.78738 344.007125 130.402075 344.007125 128.957812 
C 344.007125 127.51355 343.433313 126.128245 342.412065 125.106997 
C 341.390817 124.085749 340.005513 123.511937 338.56125 123.511937 
C 337.116987 123.511937 335.731683 124.085749 334.710435 125.106997 
C 333.689187 126.128245 333.115375 127.51355 333.115375 128.957812 
C 333.115375 130.402075 333.689187 131.78738 334.710435 132.808628 
C 335.731683 133.829876 337.116987 134.403687 338.56125 134.403687 
z
" clip-path="url(#p56a85030dd)" style="fill: #008800; stroke: #008800; stroke-linejoin: miter"/>
   </g>
   <g id="matplotlib.axis_1">
    <g id="xtick_1">
     <g id="line2d_1">
      <path d="M 66.2675 237.875312 
L 66.2675 20.040313 
" clip-path="url(#p56a85030dd)" style="fill: none; stroke: #b0b0b0; stroke-width: 0.8; stroke-linecap: square"/>
     </g>
     <g id="line2d_2">
      <defs>
       <path id="m4ccc8dbe4c" d="M 0 0 
L 0 3.5 
" style="stroke: #000000; stroke-width: 0.8"/>
      </defs>
      <g>
       <use xlink:href="#m4ccc8dbe4c" x="66.2675" y="237.875312" style="stroke: #000000; stroke-width: 0.8"/>
      </g>
     </g>
     <g id="text_1">
      <!-- −50 -->
      <g transform="translate(49.38375 257.032812) scale(0.16 -0.16)">
       <defs>
        <path id="DejaVuSans-2212" d="M 678 2272 
L 4684 2272 
L 4684 1741 
L 678 1741 
L 678 2272 
z
" transform="scale(0.015625)"/>
        <path id="DejaVuSans-35" d="M 691 4666 
L 3169 4666 
L 3169 4134 
L 1269 4134 
L 1269 2991 
Q 1406 3038 1543 3061 
Q 1681 3084 1819 3084 
Q 2600 3084 3056 2656 
Q 3513 2228 3513 1497 
Q 3513 744 3044 326 
Q 2575 -91 1722 -91 
Q 1428 -91 1123 -41 
Q 819 9 494 109 
L 494 744 
Q 775 591 1075 516 
Q 1375 441 1709 441 
Q 2250 441 2565 725 
Q 2881 1009 2881 1497 
Q 2881 1984 2565 2268 
Q 2250 2553 1709 2553 
Q 1456 2553 1204 2497 
Q 953 2441 691 2322 
L 691 4666 
z
" transform="scale(0.015625)"/>
        <path id="DejaVuSans-30" d="M 2034 4250 
Q 1547 4250 1301 3770 
Q 1056 3291 1056 2328 
Q 1056 1369 1301 889 
Q 1547 409 2034 409 
Q 2525 409 2770 889 
Q 3016 1369 3016 2328 
Q 3016 3291 2770 3770 
Q 2525 4250 2034 4250 
z
M 2034 4750 
Q 2819 4750 3233 4129 
Q 3647 3509 3647 2328 
Q 3647 1150 3233 529 
Q 2819 -91 2034 -91 
Q 1250 -91 836 529 
Q 422 1150 422 2328 
Q 422 3509 836 4129 
Q 1250 4750 2034 4750 
z
" transform="scale(0.015625)"/>
       </defs>
       <use xlink:href="#DejaVuSans-2212"/>
       <use xlink:href="#DejaVuSans-35" x="83.789062"/>
       <use xlink:href="#DejaVuSans-30" x="147.412109"/>
      </g>
     </g>
    </g>
    <g id="xtick_2">
     <g id="line2d_3">
      <path d="M 120.72625 237.875312 
L 120.72625 20.040313 
" clip-path="url(#p56a85030dd)" style="fill: none; stroke: #b0b0b0; stroke-width: 0.8; stroke-linecap: square"/>
     </g>
     <g id="line2d_4">
      <g>
       <use xlink:href="#m4ccc8dbe4c" x="120.72625" y="237.875312" style="stroke: #000000; stroke-width: 0.8"/>
      </g>
     </g>
     <g id="text_2">
      <!-- −40 -->
      <g transform="translate(103.8425 257.032812) scale(0.16 -0.16)">
       <defs>
        <path id="DejaVuSans-34" d="M 2419 4116 
L 825 1625 
L 2419 1625 
L 2419 4116 
z
M 2253 4666 
L 3047 4666 
L 3047 1625 
L 3713 1625 
L 3713 1100 
L 3047 1100 
L 3047 0 
L 2419 0 
L 2419 1100 
L 313 1100 
L 313 1709 
L 2253 4666 
z
" transform="scale(0.015625)"/>
       </defs>
       <use xlink:href="#DejaVuSans-2212"/>
       <use xlink:href="#DejaVuSans-34" x="83.789062"/>
       <use xlink:href="#DejaVuSans-30" x="147.412109"/>
      </g>
     </g>
    </g>
    <g id="xtick_3">
     <g id="line2d_5">
      <path d="M 175.185 237.875312 
L 175.185 20.040313 
" clip-path="url(#p56a85030dd)" style="fill: none; stroke: #b0b0b0; stroke-width: 0.8; stroke-linecap: square"/>
     </g>
     <g id="line2d_6">
      <g>
       <use xlink:href="#m4ccc8dbe4c" x="175.185" y="237.875312" style="stroke: #000000; stroke-width: 0.8"/>
      </g>
     </g>
     <g id="text_3">
      <!-- −30 -->
      <g transform="translate(158.30125 257.032812) scale(0.16 -0.16)">
       <defs>
        <path id="DejaVuSans-33" d="M 2597 2516 
Q 3050 2419 3304 2112 
Q 3559 1806 3559 1356 
Q 3559 666 3084 287 
Q 2609 -91 1734 -91 
Q 1441 -91 1130 -33 
Q 819 25 488 141 
L 488 750 
Q 750 597 1062 519 
Q 1375 441 1716 441 
Q 2309 441 2620 675 
Q 2931 909 2931 1356 
Q 2931 1769 2642 2001 
Q 2353 2234 1838 2234 
L 1294 2234 
L 1294 2753 
L 1863 2753 
Q 2328 2753 2575 2939 
Q 2822 3125 2822 3475 
Q 2822 3834 2567 4026 
Q 2313 4219 1838 4219 
Q 1578 4219 1281 4162 
Q 984 4106 628 3988 
L 628 4550 
Q 988 4650 1302 4700 
Q 1616 4750 1894 4750 
Q 2613 4750 3031 4423 
Q 3450 4097 3450 3541 
Q 3450 3153 3228 2886 
Q 3006 2619 2597 2516 
z
" transform="scale(0.015625)"/>
       </defs>
       <use xlink:href="#DejaVuSans-2212"/>
       <use xlink:href="#DejaVuSans-33" x="83.789062"/>
       <use xlink:href="#DejaVuSans-30" x="147.412109"/>
      </g>
     </g>
    </g>
    <g id="xtick_4">
     <g id="line2d_7">
      <path d="M 229.64375 237.875312 
L 229.64375 20.040313 
" clip-path="url(#p56a85030dd)" style="fill: none; stroke: #b0b0b0; stroke-width: 0.8; stroke-linecap: square"/>
     </g>
     <g id="line2d_8">
      <g>
       <use xlink:href="#m4ccc8dbe4c" x="229.64375" y="237.875312" style="stroke: #000000; stroke-width: 0.8"/>
      </g>
     </g>
     <g id="text_4">
      <!-- −20 -->
      <g transform="translate(212.76 257.032812) scale(0.16 -0.16)">
       <defs>
        <path id="DejaVuSans-32" d="M 1228 531 
L 3431 531 
L 3431 0 
L 469 0 
L 469 531 
Q 828 903 1448 1529 
Q 2069 2156 2228 2338 
Q 2531 2678 2651 2914 
Q 2772 3150 2772 3378 
Q 2772 3750 2511 3984 
Q 2250 4219 1831 4219 
Q 1534 4219 1204 4116 
Q 875 4013 500 3803 
L 500 4441 
Q 881 4594 1212 4672 
Q 1544 4750 1819 4750 
Q 2544 4750 2975 4387 
Q 3406 4025 3406 3419 
Q 3406 3131 3298 2873 
Q 3191 2616 2906 2266 
Q 2828 2175 2409 1742 
Q 1991 1309 1228 531 
z
" transform="scale(0.015625)"/>
       </defs>
       <use xlink:href="#DejaVuSans-2212"/>
       <use xlink:href="#DejaVuSans-32" x="83.789062"/>
       <use xlink:href="#DejaVuSans-30" x="147.412109"/>
      </g>
     </g>
    </g>
    <g id="xtick_5">
     <g id="line2d_9">
      <path d="M 284.1025 237.875312 
L 284.1025 20.040313 
" clip-path="url(#p56a85030dd)" style="fill: none; stroke: #b0b0b0; stroke-width: 0.8; stroke-linecap: square"/>
     </g>
     <g id="line2d_10">
      <g>
       <use xlink:href="#m4ccc8dbe4c" x="284.1025" y="237.875312" style="stroke: #000000; stroke-width: 0.8"/>
      </g>
     </g>
     <g id="text_5">
      <!-- −10 -->
      <g transform="translate(267.21875 257.032812) scale(0.16 -0.16)">
       <defs>
        <path id="DejaVuSans-31" d="M 794 531 
L 1825 531 
L 1825 4091 
L 703 3866 
L 703 4441 
L 1819 4666 
L 2450 4666 
L 2450 531 
L 3481 531 
L 3481 0 
L 794 0 
L 794 531 
z
" transform="scale(0.015625)"/>
       </defs>
       <use xlink:href="#DejaVuSans-2212"/>
       <use xlink:href="#DejaVuSans-31" x="83.789062"/>
       <use xlink:href="#DejaVuSans-30" x="147.412109"/>
      </g>
     </g>
    </g>
    <g id="xtick_6">
     <g id="line2d_11">
      <path d="M 338.56125 237.875312 
L 338.56125 20.040313 
" clip-path="url(#p56a85030dd)" style="fill: none; stroke: #b0b0b0; stroke-width: 0.8; stroke-linecap: square"/>
     </g>
     <g id="line2d_12">
      <g>
       <use xlink:href="#m4ccc8dbe4c" x="338.56125" y="237.875312" style="stroke: #000000; stroke-width: 0.8"/>
      </g>
     </g>
     <g id="text_6">
      <!-- 0 -->
      <g transform="translate(333.47125 257.032812) scale(0.16 -0.16)">
       <use xlink:href="#DejaVuSans-30"/>
      </g>
     </g>
    </g>
    <g id="xtick_7">
     <g id="line2d_13">
      <path d="M 393.02 237.875312 
L 393.02 20.040313 
" clip-path="url(#p56a85030dd)" style="fill: none; stroke: #b0b0b0; stroke-width: 0.8; stroke-linecap: square"/>
     </g>
     <g id="line2d_14">
      <g>
       <use xlink:href="#m4ccc8dbe4c" x="393.02" y="237.875312" style="stroke: #000000; stroke-width: 0.8"/>
      </g>
     </g>
     <g id="text_7">
      <!-- 10 -->
      <g transform="translate(382.84 257.032812) scale(0.16 -0.16)">
       <use xlink:href="#DejaVuSans-31"/>
       <use xlink:href="#DejaVuSans-30" x="63.623047"/>
      </g>
     </g>
    </g>
    <g id="text_8">
     <!-- $i_e$ Cord. [DU] -->
     <g transform="translate(197.99375 271.95875) scale(0.1 -0.1)">
      <defs>
       <path id="DejaVuSans-Oblique-69" d="M 1172 4863 
L 1747 4863 
L 1606 4134 
L 1031 4134 
L 1172 4863 
z
M 909 3500 
L 1484 3500 
L 800 0 
L 225 0 
L 909 3500 
z
" transform="scale(0.015625)"/>
       <path id="DejaVuSans-Oblique-65" d="M 3078 2063 
Q 3088 2113 3092 2166 
Q 3097 2219 3097 2272 
Q 3097 2653 2873 2875 
Q 2650 3097 2266 3097 
Q 1838 3097 1509 2826 
Q 1181 2556 1013 2059 
L 3078 2063 
z
M 3578 1613 
L 903 1613 
Q 884 1494 878 1425 
Q 872 1356 872 1306 
Q 872 872 1139 634 
Q 1406 397 1894 397 
Q 2269 397 2603 481 
Q 2938 566 3225 728 
L 3116 159 
Q 2806 34 2476 -28 
Q 2147 -91 1806 -91 
Q 1078 -91 686 257 
Q 294 606 294 1247 
Q 294 1794 489 2264 
Q 684 2734 1063 3103 
Q 1306 3334 1642 3459 
Q 1978 3584 2356 3584 
Q 2950 3584 3301 3228 
Q 3653 2872 3653 2272 
Q 3653 2128 3634 1964 
Q 3616 1800 3578 1613 
z
" transform="scale(0.015625)"/>
       <path id="DejaVuSans-20" transform="scale(0.015625)"/>
       <path id="DejaVuSans-43" d="M 4122 4306 
L 4122 3641 
Q 3803 3938 3442 4084 
Q 3081 4231 2675 4231 
Q 1875 4231 1450 3742 
Q 1025 3253 1025 2328 
Q 1025 1406 1450 917 
Q 1875 428 2675 428 
Q 3081 428 3442 575 
Q 3803 722 4122 1019 
L 4122 359 
Q 3791 134 3420 21 
Q 3050 -91 2638 -91 
Q 1578 -91 968 557 
Q 359 1206 359 2328 
Q 359 3453 968 4101 
Q 1578 4750 2638 4750 
Q 3056 4750 3426 4639 
Q 3797 4528 4122 4306 
z
" transform="scale(0.015625)"/>
       <path id="DejaVuSans-6f" d="M 1959 3097 
Q 1497 3097 1228 2736 
Q 959 2375 959 1747 
Q 959 1119 1226 758 
Q 1494 397 1959 397 
Q 2419 397 2687 759 
Q 2956 1122 2956 1747 
Q 2956 2369 2687 2733 
Q 2419 3097 1959 3097 
z
M 1959 3584 
Q 2709 3584 3137 3096 
Q 3566 2609 3566 1747 
Q 3566 888 3137 398 
Q 2709 -91 1959 -91 
Q 1206 -91 779 398 
Q 353 888 353 1747 
Q 353 2609 779 3096 
Q 1206 3584 1959 3584 
z
" transform="scale(0.015625)"/>
       <path id="DejaVuSans-72" d="M 2631 2963 
Q 2534 3019 2420 3045 
Q 2306 3072 2169 3072 
Q 1681 3072 1420 2755 
Q 1159 2438 1159 1844 
L 1159 0 
L 581 0 
L 581 3500 
L 1159 3500 
L 1159 2956 
Q 1341 3275 1631 3429 
Q 1922 3584 2338 3584 
Q 2397 3584 2469 3576 
Q 2541 3569 2628 3553 
L 2631 2963 
z
" transform="scale(0.015625)"/>
       <path id="DejaVuSans-64" d="M 2906 2969 
L 2906 4863 
L 3481 4863 
L 3481 0 
L 2906 0 
L 2906 525 
Q 2725 213 2448 61 
Q 2172 -91 1784 -91 
Q 1150 -91 751 415 
Q 353 922 353 1747 
Q 353 2572 751 3078 
Q 1150 3584 1784 3584 
Q 2172 3584 2448 3432 
Q 2725 3281 2906 2969 
z
M 947 1747 
Q 947 1113 1208 752 
Q 1469 391 1925 391 
Q 2381 391 2643 752 
Q 2906 1113 2906 1747 
Q 2906 2381 2643 2742 
Q 2381 3103 1925 3103 
Q 1469 3103 1208 2742 
Q 947 2381 947 1747 
z
" transform="scale(0.015625)"/>
       <path id="DejaVuSans-2e" d="M 684 794 
L 1344 794 
L 1344 0 
L 684 0 
L 684 794 
z
" transform="scale(0.015625)"/>
       <path id="DejaVuSans-5b" d="M 550 4863 
L 1875 4863 
L 1875 4416 
L 1125 4416 
L 1125 -397 
L 1875 -397 
L 1875 -844 
L 550 -844 
L 550 4863 
z
" transform="scale(0.015625)"/>
       <path id="DejaVuSans-44" d="M 1259 4147 
L 1259 519 
L 2022 519 
Q 2988 519 3436 956 
Q 3884 1394 3884 2338 
Q 3884 3275 3436 3711 
Q 2988 4147 2022 4147 
L 1259 4147 
z
M 628 4666 
L 1925 4666 
Q 3281 4666 3915 4102 
Q 4550 3538 4550 2338 
Q 4550 1131 3912 565 
Q 3275 0 1925 0 
L 628 0 
L 628 4666 
z
" transform="scale(0.015625)"/>
       <path id="DejaVuSans-55" d="M 556 4666 
L 1191 4666 
L 1191 1831 
Q 1191 1081 1462 751 
Q 1734 422 2344 422 
Q 2950 422 3222 751 
Q 3494 1081 3494 1831 
L 3494 4666 
L 4128 4666 
L 4128 1753 
Q 4128 841 3676 375 
Q 3225 -91 2344 -91 
Q 1459 -91 1007 375 
Q 556 841 556 1753 
L 556 4666 
z
" transform="scale(0.015625)"/>
       <path id="DejaVuSans-5d" d="M 1947 4863 
L 1947 -844 
L 622 -844 
L 622 -397 
L 1369 -397 
L 1369 4416 
L 622 4416 
L 622 4863 
L 1947 4863 
z
" transform="scale(0.015625)"/>
      </defs>
      <use xlink:href="#DejaVuSans-Oblique-69" transform="translate(0 0.015625)"/>
      <use xlink:href="#DejaVuSans-Oblique-65" transform="translate(27.783203 -16.390625) scale(0.7)"/>
      <use xlink:href="#DejaVuSans-20" transform="translate(73.583984 0.015625)"/>
      <use xlink:href="#DejaVuSans-43" transform="translate(105.371094 0.015625)"/>
      <use xlink:href="#DejaVuSans-6f" transform="translate(175.195312 0.015625)"/>
      <use xlink:href="#DejaVuSans-72" transform="translate(236.376953 0.015625)"/>
      <use xlink:href="#DejaVuSans-64" transform="translate(277.490234 0.015625)"/>
      <use xlink:href="#DejaVuSans-2e" transform="translate(340.966797 0.015625)"/>
      <use xlink:href="#DejaVuSans-20" transform="translate(372.753906 0.015625)"/>
      <use xlink:href="#DejaVuSans-5b" transform="translate(404.541016 0.015625)"/>
      <use xlink:href="#DejaVuSans-44" transform="translate(443.554688 0.015625)"/>
      <use xlink:href="#DejaVuSans-55" transform="translate(520.556641 0.015625)"/>
      <use xlink:href="#DejaVuSans-5d" transform="translate(593.75 0.015625)"/>
     </g>
    </g>
   </g>
   <g id="matplotlib.axis_2">
    <g id="ytick_1">
     <g id="line2d_15">
      <path d="M 66.2675 237.875312 
L 393.02 237.875312 
" clip-path="url(#p56a85030dd)" style="fill: none; stroke: #b0b0b0; stroke-width: 0.8; stroke-linecap: square"/>
     </g>
     <g id="line2d_16">
      <defs>
       <path id="md2ceb5bfeb" d="M 0 0 
L -3.5 0 
" style="stroke: #000000; stroke-width: 0.8"/>
      </defs>
      <g>
       <use xlink:href="#md2ceb5bfeb" x="66.2675" y="237.875312" style="stroke: #000000; stroke-width: 0.8"/>
      </g>
     </g>
     <g id="text_9">
      <!-- −20 -->
      <g transform="translate(25.5 243.954062) scale(0.16 -0.16)">
       <use xlink:href="#DejaVuSans-2212"/>
       <use xlink:href="#DejaVuSans-32" x="83.789062"/>
       <use xlink:href="#DejaVuSans-30" x="147.412109"/>
      </g>
     </g>
    </g>
    <g id="ytick_2">
     <g id="line2d_17">
      <path d="M 66.2675 183.416562 
L 393.02 183.416562 
" clip-path="url(#p56a85030dd)" style="fill: none; stroke: #b0b0b0; stroke-width: 0.8; stroke-linecap: square"/>
     </g>
     <g id="line2d_18">
      <g>
       <use xlink:href="#md2ceb5bfeb" x="66.2675" y="183.416562" style="stroke: #000000; stroke-width: 0.8"/>
      </g>
     </g>
     <g id="text_10">
      <!-- −10 -->
      <g transform="translate(25.5 189.495312) scale(0.16 -0.16)">
       <use xlink:href="#DejaVuSans-2212"/>
       <use xlink:href="#DejaVuSans-31" x="83.789062"/>
       <use xlink:href="#DejaVuSans-30" x="147.412109"/>
      </g>
     </g>
    </g>
    <g id="ytick_3">
     <g id="line2d_19">
      <path d="M 66.2675 128.957812 
L 393.02 128.957812 
" clip-path="url(#p56a85030dd)" style="fill: none; stroke: #b0b0b0; stroke-width: 0.8; stroke-linecap: square"/>
     </g>
     <g id="line2d_20">
      <g>
       <use xlink:href="#md2ceb5bfeb" x="66.2675" y="128.957812" style="stroke: #000000; stroke-width: 0.8"/>
      </g>
     </g>
     <g id="text_11">
      <!-- 0 -->
      <g transform="translate(49.0875 135.036563) scale(0.16 -0.16)">
       <use xlink:href="#DejaVuSans-30"/>
      </g>
     </g>
    </g>
    <g id="ytick_4">
     <g id="line2d_21">
      <path d="M 66.2675 74.499062 
L 393.02 74.499062 
" clip-path="url(#p56a85030dd)" style="fill: none; stroke: #b0b0b0; stroke-width: 0.8; stroke-linecap: square"/>
     </g>
     <g id="line2d_22">
      <g>
       <use xlink:href="#md2ceb5bfeb" x="66.2675" y="74.499062" style="stroke: #000000; stroke-width: 0.8"/>
      </g>
     </g>
     <g id="text_12">
      <!-- 10 -->
      <g transform="translate(38.9075 80.577812) scale(0.16 -0.16)">
       <use xlink:href="#DejaVuSans-31"/>
       <use xlink:href="#DejaVuSans-30" x="63.623047"/>
      </g>
     </g>
    </g>
    <g id="ytick_5">
     <g id="line2d_23">
      <path d="M 66.2675 20.040312 
L 393.02 20.040312 
" clip-path="url(#p56a85030dd)" style="fill: none; stroke: #b0b0b0; stroke-width: 0.8; stroke-linecap: square"/>
     </g>
     <g id="line2d_24">
      <g>
       <use xlink:href="#md2ceb5bfeb" x="66.2675" y="20.040312" style="stroke: #000000; stroke-width: 0.8"/>
      </g>
     </g>
     <g id="text_13">
      <!-- 20 -->
      <g transform="translate(38.9075 26.119063) scale(0.16 -0.16)">
       <use xlink:href="#DejaVuSans-32"/>
       <use xlink:href="#DejaVuSans-30" x="63.623047"/>
      </g>
     </g>
    </g>
    <g id="text_14">
     <!-- $i_p$ Cord. [DU] -->
     <g transform="translate(18.4 160.707812) rotate(-90) scale(0.1 -0.1)">
      <defs>
       <path id="DejaVuSans-Oblique-70" d="M 3175 2156 
Q 3175 2616 2975 2859 
Q 2775 3103 2400 3103 
Q 2144 3103 1911 2972 
Q 1678 2841 1497 2591 
Q 1319 2344 1212 1994 
Q 1106 1644 1106 1300 
Q 1106 863 1306 627 
Q 1506 391 1875 391 
Q 2147 391 2380 519 
Q 2613 647 2778 891 
Q 2956 1147 3065 1494 
Q 3175 1841 3175 2156 
z
M 1394 2969 
Q 1625 3272 1939 3428 
Q 2253 3584 2638 3584 
Q 3175 3584 3472 3232 
Q 3769 2881 3769 2247 
Q 3769 1728 3584 1258 
Q 3400 788 3053 416 
Q 2822 169 2531 39 
Q 2241 -91 1919 -91 
Q 1547 -91 1294 64 
Q 1041 219 916 525 
L 556 -1331 
L -19 -1331 
L 922 3500 
L 1497 3500 
L 1394 2969 
z
" transform="scale(0.015625)"/>
      </defs>
      <use xlink:href="#DejaVuSans-Oblique-69" transform="translate(0 0.015625)"/>
      <use xlink:href="#DejaVuSans-Oblique-70" transform="translate(27.783203 -16.390625) scale(0.7)"/>
      <use xlink:href="#DejaVuSans-20" transform="translate(74.951172 0.015625)"/>
      <use xlink:href="#DejaVuSans-43" transform="translate(106.738281 0.015625)"/>
      <use xlink:href="#DejaVuSans-6f" transform="translate(176.5625 0.015625)"/>
      <use xlink:href="#DejaVuSans-72" transform="translate(237.744141 0.015625)"/>
      <use xlink:href="#DejaVuSans-64" transform="translate(278.857422 0.015625)"/>
      <use xlink:href="#DejaVuSans-2e" transform="translate(342.333984 0.015625)"/>
      <use xlink:href="#DejaVuSans-20" transform="translate(374.121094 0.015625)"/>
      <use xlink:href="#DejaVuSans-5b" transform="translate(405.908203 0.015625)"/>
      <use xlink:href="#DejaVuSans-44" transform="translate(444.921875 0.015625)"/>
      <use xlink:href="#DejaVuSans-55" transform="translate(521.923828 0.015625)"/>
      <use xlink:href="#DejaVuSans-5d" transform="translate(595.117188 0.015625)"/>
     </g>
    </g>
   </g>
   <g id="line2d_25">
    <path d="M 338.56125 178.138697 
L 354.291014 162.016764 
L 365.096485 137.659561 
L 362.040025 109.775946 
L 348.162338 89.109623 
L 331.921326 75.887206 
L 316.099576 67.242928 
L 301.265555 61.461561 
L 287.470206 57.603488 
L 274.646037 55.119273 
L 262.705092 53.663859 
L 251.564212 53.007195 
L 241.150744 52.98833 
L 231.402704 53.49018 
L 222.267499 54.424804 
L 213.700423 55.724367 
L 205.663298 57.335355 
L 198.123341 59.214724 
L 191.052239 61.327271 
L 184.425411 63.643775 
L 178.221412 66.139659 
L 172.421449 68.794004 
L 167.009 71.588815 
L 161.969488 74.508452 
L 157.290031 77.5392 
L 152.959222 80.668922 
L 148.966956 83.886789 
L 145.304281 87.183063 
L 141.963274 90.548916 
L 138.936942 93.976286 
L 136.219129 97.457753 
L 133.804452 100.986441 
L 131.688232 104.555924 
L 129.866448 108.160158 
L 128.335692 111.79341 
L 127.093137 115.450207 
L 126.136504 119.125278 
L 125.464045 122.81351 
L 125.074525 126.509904 
L 124.967206 130.209537 
L 125.141847 133.907517 
L 125.598697 137.59895 
L 126.338496 141.278897 
L 127.362488 144.942336 
L 128.672429 148.584122 
L 130.270603 152.198943 
L 132.159846 155.78127 
L 134.343574 159.325305 
L 136.82582 162.824926 
L 139.611272 166.273616 
L 142.705329 169.664388 
L 146.11416 172.989697 
L 149.844775 176.241334 
L 153.905118 179.410301 
L 158.304164 182.486659 
L 163.052045 185.459348 
L 168.1602 188.315959 
L 173.64155 191.042455 
L 179.510714 193.622818 
L 185.784268 196.038595 
L 192.481066 198.268321 
L 199.622626 200.286748 
L 207.233615 202.063828 
L 215.342442 203.563316 
L 223.982003 204.740839 
L 233.190591 205.541143 
L 243.013026 205.894069 
L 253.501966 205.708468 
L 264.719324 204.862674 
L 276.737325 203.188915 
L 289.637748 200.446452 
L 303.504596 196.272426 
L 318.393792 190.085603 
L 334.217391 180.885801 
L 350.271908 166.84792 
L 363.27551 145.106259 
L 364.407427 117.183489 
L 352.313857 94.251719 
L 336.075241 79.643358 
L 319.886259 70.431599 
" clip-path="url(#p56a85030dd)" style="fill: none; stroke: #2b737e; stroke-width: 3; stroke-linecap: square"/>
   </g>
   <g id="line2d_26">
    <path d="M 365.883964 128.957812 
L 365.853375 127.223347 
L 365.761405 125.486551 
L 365.607433 123.745088 
L 365.390417 121.996605 
L 365.108879 120.23873 
L 364.760885 118.469061 
L 364.344019 116.685161 
L 363.855349 114.884554 
L 363.291389 113.064717 
L 362.648048 111.223079 
L 361.920571 109.357015 
L 361.103472 107.463848 
L 360.19045 105.540847 
L 359.174298 103.585238 
L 358.046786 101.594206 
L 356.798536 99.564913 
L 355.418867 97.494519 
L 353.895624 95.380216 
L 352.21497 93.219269 
L 350.361152 91.009078 
L 348.316225 88.747258 
L 346.059741 86.431754 
L 343.568385 84.060985 
L 340.815559 81.634038 
L 337.770916 79.150931 
L 334.399833 76.61295 
L 330.662831 74.023098 
L 326.514946 71.386681 
L 321.905087 68.712073 
L 316.775394 66.011715 
L 311.060689 63.303404 
L 304.68812 60.611956 
L 297.57718 57.97132 
L 289.640362 55.427245 
L 280.784892 53.040565 
L 270.916095 50.891142 
L 259.943255 49.082413 
L 247.78905 47.746252 
L 234.403894 47.047562 
L 219.786568 47.187423 
L 204.01215 48.402839 
L 187.266939 50.960174 
L 169.887375 55.138488 
L 152.395381 61.198978 
L 135.516621 69.33853 
L 120.163107 79.630417 
L 107.362131 91.963337 
L 98.125154 105.998949 
L 93.274595 121.171454 
L 93.274595 136.744171 
L 98.125154 151.916676 
L 107.362131 165.952288 
L 120.163107 178.285208 
L 135.516621 188.577095 
L 152.395381 196.716647 
L 169.887375 202.777137 
L 187.266939 206.955451 
L 204.01215 209.512786 
L 219.786568 210.728202 
L 234.403894 210.868063 
L 247.78905 210.169373 
L 259.943255 208.833212 
L 270.916095 207.024483 
L 280.784892 204.87506 
L 289.640362 202.48838 
L 297.57718 199.944305 
L 304.68812 197.303669 
L 311.060689 194.612221 
L 316.775394 191.90391 
L 321.905087 189.203552 
L 326.514946 186.528944 
L 330.662831 183.892527 
L 334.399833 181.302675 
L 337.770916 178.764694 
L 340.815559 176.281587 
L 343.568385 173.85464 
L 346.059741 171.483871 
L 348.316225 169.168367 
L 350.361152 166.906547 
L 352.21497 164.696356 
L 353.895624 162.535409 
L 355.418867 160.421106 
L 356.798536 158.350712 
L 358.046786 156.321419 
L 359.174298 154.330387 
L 360.19045 152.374778 
L 361.103472 150.451777 
L 361.920571 148.55861 
L 362.648048 146.692546 
L 363.291389 144.850908 
L 363.855349 143.031071 
L 364.344019 141.230464 
L 364.760885 139.446564 
L 365.108879 137.676895 
L 365.390417 135.91902 
L 365.607433 134.170537 
L 365.761405 132.429074 
L 365.853375 130.692278 
L 365.883964 128.957812 
" clip-path="url(#p56a85030dd)" style="fill: none; stroke-dasharray: 5.55,2.4; stroke-dashoffset: 0; stroke: #555555; stroke-width: 1.5"/>
   </g>
   <g id="line2d_27">
    <path d="M 338.56125 178.138697 
L 354.280231 162.014237 
L 365.109982 137.665132 
L 362.003085 109.564533 
L 348.241333 88.671388 
L 332.162451 75.045675 
L 316.461127 65.868587 
L 301.680291 59.467762 
L 287.866678 54.932134 
L 274.954904 51.730423 
L 262.860619 49.529425 
L 251.5043 48.107159 
L 240.816528 47.308405 
L 230.738078 47.020302 
L 221.218657 47.158132 
L 212.215461 47.656599 
L 203.691865 48.464239 
L 195.616343 49.539717 
L 187.961587 50.849282 
L 180.703795 52.364978 
L 173.822108 54.063355 
L 167.298149 55.924519 
L 161.115654 57.931424 
L 155.260166 60.069324 
L 149.718789 62.325361 
L 144.479983 64.688232 
L 139.533391 67.14793 
L 134.869698 69.695538 
L 130.480513 72.323056 
L 126.358263 75.023266 
L 122.496108 77.789617 
L 118.887871 80.61613 
L 115.527971 83.497317 
L 112.41137 86.428118 
L 109.533529 89.403839 
L 106.890362 92.420107 
L 104.478209 95.472823 
L 102.293799 98.558131 
L 100.334231 101.672379 
L 98.596945 104.812095 
L 97.079708 107.973962 
L 95.780596 111.15479 
L 94.69798 114.351499 
L 93.830516 117.5611 
L 93.177134 120.780673 
L 92.737034 124.007357 
L 92.509676 127.238326 
L 92.494782 130.470781 
L 92.692329 133.701928 
L 93.102552 136.928971 
L 93.725944 140.149089 
L 94.563262 143.359425 
L 95.615527 146.55707 
L 96.884036 149.739045 
L 98.370367 152.902282 
L 100.076393 156.04361 
L 102.004293 159.15973 
L 104.156568 162.247192 
L 106.53606 165.302373 
L 109.145974 168.321446 
L 111.989902 171.30035 
L 115.071854 174.234752 
L 118.396287 177.120008 
L 121.968153 179.951112 
L 125.792934 182.722642 
L 129.876702 185.428696 
L 134.226178 188.06281 
L 138.848803 190.617871 
L 143.752824 193.086001 
L 148.947389 195.458428 
L 154.442667 197.725319 
L 160.249985 199.875581 
L 166.381996 201.896604 
L 172.852873 203.773954 
L 179.678553 205.490963 
L 186.877031 207.028209 
L 194.468712 208.362841 
L 202.476859 209.467668 
L 210.92814 210.309933 
L 219.853303 210.849616 
" clip-path="url(#p56a85030dd)" style="fill: none; stroke: #5ea04b; stroke-width: 3; stroke-linecap: square"/>
   </g>
   <g id="line2d_28">
    <path d="M 365.883964 128.957812 
L 365.853375 127.223347 
L 365.761405 125.486551 
L 365.607433 123.745088 
L 365.390417 121.996605 
L 365.108879 120.23873 
L 364.760885 118.469061 
L 364.344019 116.685161 
L 363.855349 114.884554 
L 363.291389 113.064717 
L 362.648048 111.223079 
L 361.920571 109.357015 
L 361.103472 107.463848 
L 360.19045 105.540847 
L 359.174298 103.585238 
L 358.046786 101.594206 
L 356.798536 99.564913 
L 355.418867 97.494519 
L 353.895624 95.380216 
L 352.21497 93.219269 
L 350.361152 91.009078 
L 348.316225 88.747258 
L 346.059741 86.431754 
L 343.568385 84.060985 
L 340.815559 81.634038 
L 337.770916 79.150931 
L 334.399833 76.61295 
L 330.662831 74.023098 
L 326.514946 71.386681 
L 321.905087 68.712073 
L 316.775394 66.011715 
L 311.060689 63.303404 
L 304.68812 60.611956 
L 297.57718 57.97132 
L 289.640362 55.427245 
L 280.784892 53.040565 
L 270.916095 50.891142 
L 259.943255 49.082413 
L 247.78905 47.746252 
L 234.403894 47.047562 
L 219.786568 47.187423 
L 204.01215 48.402839 
L 187.266939 50.960174 
L 169.887375 55.138488 
L 152.395381 61.198978 
L 135.516621 69.33853 
L 120.163107 79.630417 
L 107.362131 91.963337 
L 98.125154 105.998949 
L 93.274595 121.171454 
L 93.274595 136.744171 
L 98.125154 151.916676 
L 107.362131 165.952288 
L 120.163107 178.285208 
L 135.516621 188.577095 
L 152.395381 196.716647 
L 169.887375 202.777137 
L 187.266939 206.955451 
L 204.01215 209.512786 
L 219.786568 210.728202 
L 234.403894 210.868063 
L 247.78905 210.169373 
L 259.943255 208.833212 
L 270.916095 207.024483 
L 280.784892 204.87506 
L 289.640362 202.48838 
L 297.57718 199.944305 
L 304.68812 197.303669 
L 311.060689 194.612221 
L 316.775394 191.90391 
L 321.905087 189.203552 
L 326.514946 186.528944 
L 330.662831 183.892527 
L 334.399833 181.302675 
L 337.770916 178.764694 
L 340.815559 176.281587 
L 343.568385 173.85464 
L 346.059741 171.483871 
L 348.316225 169.168367 
L 350.361152 166.906547 
L 352.21497 164.696356 
L 353.895624 162.535409 
L 355.418867 160.421106 
L 356.798536 158.350712 
L 358.046786 156.321419 
L 359.174298 154.330387 
L 360.19045 152.374778 
L 361.103472 150.451777 
L 361.920571 148.55861 
L 362.648048 146.692546 
L 363.291389 144.850908 
L 363.855349 143.031071 
L 364.344019 141.230464 
L 364.760885 139.446564 
L 365.108879 137.676895 
L 365.390417 135.91902 
L 365.607433 134.170537 
L 365.761405 132.429074 
L 365.853375 130.692278 
L 365.883964 128.957812 
" clip-path="url(#p56a85030dd)" style="fill: none; stroke-dasharray: 5.55,2.4; stroke-dashoffset: 0; stroke: #555555; stroke-width: 1.5"/>
   </g>
   <g id="line2d_29">
    <path d="M 338.56125 178.138697 
L 354.282271 162.013926 
L 365.110789 137.665628 
L 362.005771 109.566485 
L 348.244465 88.672101 
L 332.170203 75.04319 
L 316.473082 65.862851 
L 301.695847 59.458914 
L 287.885393 54.920392 
L 274.976465 51.716039 
L 262.884812 49.512663 
L 251.53098 48.08828 
L 240.845601 47.287659 
L 230.769491 46.997926 
L 221.25239 47.13435 
L 212.251517 47.631621 
L 203.730267 48.438265 
L 195.657133 49.512933 
L 188.004818 50.821863 
L 180.749534 52.337091 
L 173.870433 54.035157 
L 167.349147 55.896158 
L 161.169419 57.903041 
L 155.3168 60.041052 
L 149.778404 62.297326 
L 144.542694 64.660554 
L 139.599323 67.120723 
L 134.938981 69.66891 
L 130.553283 72.29711 
L 126.434661 74.9981 
L 122.576283 77.765323 
L 118.971977 80.592795 
L 115.616168 83.475024 
L 112.503825 86.406945 
L 109.630415 89.383859 
L 106.991859 92.401388 
L 104.584503 95.455431 
L 102.405085 98.542123 
L 100.450709 101.657811 
L 98.718823 104.799018 
L 97.207204 107.96242 
L 95.913934 111.144823 
L 94.837395 114.343142 
L 93.976251 117.554382 
L 93.329443 120.775618 
L 92.896181 124.003982 
L 92.675937 127.236643 
L 92.668444 130.470794 
L 92.873692 133.703635 
L 93.29193 136.93236 
L 93.923666 140.154142 
L 94.769672 143.366113 
L 95.830986 146.565355 
L 97.108924 149.748878 
L 98.605083 152.913604 
L 100.321358 156.056346 
L 102.25995 159.173791 
L 104.423386 162.262474 
L 106.814537 165.318754 
L 109.436636 168.338783 
L 112.29331 171.318478 
L 115.388602 174.25348 
L 118.727014 177.139117 
L 122.313537 179.97035 
L 126.153706 182.741719 
L 130.253647 185.447278 
L 134.620142 188.080513 
L 139.260701 190.634253 
L 144.183648 193.100552 
L 149.39822 195.470556 
L 154.914687 197.734338 
L 160.744489 199.880688 
L 166.900412 201.896861 
L 173.396781 203.768253 
L 180.249712 205.477988 
L 187.477408 207.00639 
L 195.100522 208.330281 
L 203.14261 209.422056 
L 211.63069 210.24842 
L 220.595938 210.768644 
" clip-path="url(#p56a85030dd)" style="fill: none; stroke: #bdab62; stroke-width: 3; stroke-linecap: square"/>
   </g>
   <g id="line2d_30">
    <path d="M 365.883964 128.957812 
L 365.853375 127.223347 
L 365.761405 125.486551 
L 365.607433 123.745088 
L 365.390417 121.996605 
L 365.108879 120.23873 
L 364.760885 118.469061 
L 364.344019 116.685161 
L 363.855349 114.884554 
L 363.291389 113.064717 
L 362.648048 111.223079 
L 361.920571 109.357015 
L 361.103472 107.463848 
L 360.19045 105.540847 
L 359.174298 103.585238 
L 358.046786 101.594206 
L 356.798536 99.564913 
L 355.418867 97.494519 
L 353.895624 95.380216 
L 352.21497 93.219269 
L 350.361152 91.009078 
L 348.316225 88.747258 
L 346.059741 86.431754 
L 343.568385 84.060985 
L 340.815559 81.634038 
L 337.770916 79.150931 
L 334.399833 76.61295 
L 330.662831 74.023098 
L 326.514946 71.386681 
L 321.905087 68.712073 
L 316.775394 66.011715 
L 311.060689 63.303404 
L 304.68812 60.611956 
L 297.57718 57.97132 
L 289.640362 55.427245 
L 280.784892 53.040565 
L 270.916095 50.891142 
L 259.943255 49.082413 
L 247.78905 47.746252 
L 234.403894 47.047562 
L 219.786568 47.187423 
L 204.01215 48.402839 
L 187.266939 50.960174 
L 169.887375 55.138488 
L 152.395381 61.198978 
L 135.516621 69.33853 
L 120.163107 79.630417 
L 107.362131 91.963337 
L 98.125154 105.998949 
L 93.274595 121.171454 
L 93.274595 136.744171 
L 98.125154 151.916676 
L 107.362131 165.952288 
L 120.163107 178.285208 
L 135.516621 188.577095 
L 152.395381 196.716647 
L 169.887375 202.777137 
L 187.266939 206.955451 
L 204.01215 209.512786 
L 219.786568 210.728202 
L 234.403894 210.868063 
L 247.78905 210.169373 
L 259.943255 208.833212 
L 270.916095 207.024483 
L 280.784892 204.87506 
L 289.640362 202.48838 
L 297.57718 199.944305 
L 304.68812 197.303669 
L 311.060689 194.612221 
L 316.775394 191.90391 
L 321.905087 189.203552 
L 326.514946 186.528944 
L 330.662831 183.892527 
L 334.399833 181.302675 
L 337.770916 178.764694 
L 340.815559 176.281587 
L 343.568385 173.85464 
L 346.059741 171.483871 
L 348.316225 169.168367 
L 350.361152 166.906547 
L 352.21497 164.696356 
L 353.895624 162.535409 
L 355.418867 160.421106 
L 356.798536 158.350712 
L 358.046786 156.321419 
L 359.174298 154.330387 
L 360.19045 152.374778 
L 361.103472 150.451777 
L 361.920571 148.55861 
L 362.648048 146.692546 
L 363.291389 144.850908 
L 363.855349 143.031071 
L 364.344019 141.230464 
L 364.760885 139.446564 
L 365.108879 137.676895 
L 365.390417 135.91902 
L 365.607433 134.170537 
L 365.761405 132.429074 
L 365.853375 130.692278 
L 365.883964 128.957812 
" clip-path="url(#p56a85030dd)" style="fill: none; stroke-dasharray: 5.55,2.4; stroke-dashoffset: 0; stroke: #555555; stroke-width: 1.5"/>
   </g>
   <g id="patch_6">
    <path d="M 66.2675 237.875312 
L 66.2675 20.040312 
" style="fill: none; stroke: #000000; stroke-width: 0.8; stroke-linejoin: miter; stroke-linecap: square"/>
   </g>
   <g id="patch_7">
    <path d="M 393.02 237.875312 
L 393.02 20.040312 
" style="fill: none; stroke: #000000; stroke-width: 0.8; stroke-linejoin: miter; stroke-linecap: square"/>
   </g>
   <g id="patch_8">
    <path d="M 66.2675 237.875312 
L 393.02 237.875312 
" style="fill: none; stroke: #000000; stroke-width: 0.8; stroke-linejoin: miter; stroke-linecap: square"/>
   </g>
   <g id="patch_9">
    <path d="M 66.2675 20.040313 
L 393.02 20.040313 
" style="fill: none; stroke: #000000; stroke-width: 0.8; stroke-linejoin: miter; stroke-linecap: square"/>
   </g>
   <g id="legend_1">
    <g id="patch_10">
     <path d="M 334.387812 233.375312 
L 386.72 233.375312 
Q 388.52 233.375312 388.52 231.575312 
L 388.52 192.844375 
Q 388.52 191.044375 386.72 191.044375 
L 334.387812 191.044375 
Q 332.587812 191.044375 332.587812 192.844375 
L 332.587812 231.575312 
Q 332.587812 233.375312 334.387812 233.375312 
z
" style="fill: #ffffff; opacity: 0.8; stroke: #cccccc; stroke-linejoin: miter"/>
    </g>
    <g id="line2d_31">
     <path d="M 336.187813 198.332969 
L 345.187813 198.332969 
L 354.187813 198.332969 
" style="fill: none; stroke: #2b737e; stroke-width: 3; stroke-linecap: square"/>
    </g>
    <g id="text_15">
     <!-- rk4 -->
     <g transform="translate(361.387812 201.482969) scale(0.09 -0.09)">
      <defs>
       <path id="DejaVuSans-6b" d="M 581 4863 
L 1159 4863 
L 1159 1991 
L 2875 3500 
L 3609 3500 
L 1753 1863 
L 3688 0 
L 2938 0 
L 1159 1709 
L 1159 0 
L 581 0 
L 581 4863 
z
" transform="scale(0.015625)"/>
      </defs>
      <use xlink:href="#DejaVuSans-72"/>
      <use xlink:href="#DejaVuSans-6b" x="41.113281"/>
      <use xlink:href="#DejaVuSans-34" x="99.023438"/>
     </g>
    </g>
    <g id="line2d_32">
     <path d="M 336.187813 211.543281 
L 345.187813 211.543281 
L 354.187813 211.543281 
" style="fill: none; stroke: #5ea04b; stroke-width: 3; stroke-linecap: square"/>
    </g>
    <g id="text_16">
     <!-- rkf45 -->
     <g transform="translate(361.387812 214.693281) scale(0.09 -0.09)">
      <defs>
       <path id="DejaVuSans-66" d="M 2375 4863 
L 2375 4384 
L 1825 4384 
Q 1516 4384 1395 4259 
Q 1275 4134 1275 3809 
L 1275 3500 
L 2222 3500 
L 2222 3053 
L 1275 3053 
L 1275 0 
L 697 0 
L 697 3053 
L 147 3053 
L 147 3500 
L 697 3500 
L 697 3744 
Q 697 4328 969 4595 
Q 1241 4863 1831 4863 
L 2375 4863 
z
" transform="scale(0.015625)"/>
      </defs>
      <use xlink:href="#DejaVuSans-72"/>
      <use xlink:href="#DejaVuSans-6b" x="41.113281"/>
      <use xlink:href="#DejaVuSans-66" x="99.023438"/>
      <use xlink:href="#DejaVuSans-34" x="134.228516"/>
      <use xlink:href="#DejaVuSans-35" x="197.851562"/>
     </g>
    </g>
    <g id="line2d_33">
     <path d="M 336.187813 224.753594 
L 345.187813 224.753594 
L 354.187813 224.753594 
" style="fill: none; stroke: #bdab62; stroke-width: 3; stroke-linecap: square"/>
    </g>
    <g id="text_17">
     <!-- rkf78 -->
     <g transform="translate(361.387812 227.903594) scale(0.09 -0.09)">
      <defs>
       <path id="DejaVuSans-37" d="M 525 4666 
L 3525 4666 
L 3525 4397 
L 1831 0 
L 1172 0 
L 2766 4134 
L 525 4134 
L 525 4666 
z
" transform="scale(0.015625)"/>
       <path id="DejaVuSans-38" d="M 2034 2216 
Q 1584 2216 1326 1975 
Q 1069 1734 1069 1313 
Q 1069 891 1326 650 
Q 1584 409 2034 409 
Q 2484 409 2743 651 
Q 3003 894 3003 1313 
Q 3003 1734 2745 1975 
Q 2488 2216 2034 2216 
z
M 1403 2484 
Q 997 2584 770 2862 
Q 544 3141 544 3541 
Q 544 4100 942 4425 
Q 1341 4750 2034 4750 
Q 2731 4750 3128 4425 
Q 3525 4100 3525 3541 
Q 3525 3141 3298 2862 
Q 3072 2584 2669 2484 
Q 3125 2378 3379 2068 
Q 3634 1759 3634 1313 
Q 3634 634 3220 271 
Q 2806 -91 2034 -91 
Q 1263 -91 848 271 
Q 434 634 434 1313 
Q 434 1759 690 2068 
Q 947 2378 1403 2484 
z
M 1172 3481 
Q 1172 3119 1398 2916 
Q 1625 2713 2034 2713 
Q 2441 2713 2670 2916 
Q 2900 3119 2900 3481 
Q 2900 3844 2670 4047 
Q 2441 4250 2034 4250 
Q 1625 4250 1398 4047 
Q 1172 3844 1172 3481 
z
" transform="scale(0.015625)"/>
      </defs>
      <use xlink:href="#DejaVuSans-72"/>
      <use xlink:href="#DejaVuSans-6b" x="41.113281"/>
      <use xlink:href="#DejaVuSans-66" x="99.023438"/>
      <use xlink:href="#DejaVuSans-37" x="134.228516"/>
      <use xlink:href="#DejaVuSans-38" x="197.851562"/>
     </g>
    </g>
   </g>
  </g>
 </g>
 <defs>
  <clipPath id="p56a85030dd">
   <rect x="66.2675" y="20.040313" width="326.7525" height="217.835"/>
  </clipPath>
 </defs>
</svg>
