<?xml version="1.0" encoding="utf-8" standalone="no"?>
<!DOCTYPE svg PUBLIC "-//W3C//DTD SVG 1.1//EN"
  "http://www.w3.org/Graphics/SVG/1.1/DTD/svg11.dtd">
<svg xmlns:xlink="http://www.w3.org/1999/xlink" width="414pt" height="288pt" viewBox="0 0 414 288" xmlns="http://www.w3.org/2000/svg" version="1.1">
 <metadata>
  <rdf:RDF xmlns:dc="http://purl.org/dc/elements/1.1/" xmlns:cc="http://creativecommons.org/ns#" xmlns:rdf="http://www.w3.org/1999/02/22-rdf-syntax-ns#">
   <cc:Work>
    <dc:type rdf:resource="http://purl.org/dc/dcmitype/StillImage"/>
    <dc:date>2023-09-07T00:34:32.296761</dc:date>
    <dc:format>image/svg+xml</dc:format>
    <dc:creator>
     <cc:Agent>
      <dc:title>Matplotlib v3.7.2, https://matplotlib.org/</dc:title>
     </cc:Agent>
    </dc:creator>
   </cc:Work>
  </rdf:RDF>
 </metadata>
 <defs>
  <style type="text/css">*{stroke-linejoin: round; stroke-linecap: butt}</style>
 </defs>
 <g id="figure_1">
  <g id="patch_1">
   <path d="M 0 288 
L 414 288 
L 414 0 
L 0 0 
L 0 288 
z
" style="fill: none"/>
  </g>
  <g id="axes_1">
   <g id="patch_2">
    <path d="M 56.923125 241.036875 
L 390.360682 241.036875 
L 390.360682 10.8 
L 56.923125 10.8 
L 56.923125 241.036875 
z
" style="fill: none"/>
   </g>
   <g id="matplotlib.axis_1">
    <g id="xtick_1">
     <g id="line2d_1">
      <defs>
       <path id="m1799d00439" d="M 0 0 
L 0 3.5 
" style="stroke: #000000; stroke-width: 0.8"/>
      </defs>
      <g>
       <use xlink:href="#m1799d00439" x="72.079378" y="241.036875" style="stroke: #000000; stroke-width: 0.8"/>
      </g>
     </g>
     <g id="text_1">
      <!-- 0 -->
      <g transform="translate(66.989378 260.194375) scale(0.16 -0.16)">
       <defs>
        <path id="DejaVuSans-30" d="M 2034 4250 
Q 1547 4250 1301 3770 
Q 1056 3291 1056 2328 
Q 1056 1369 1301 889 
Q 1547 409 2034 409 
Q 2525 409 2770 889 
Q 3016 1369 3016 2328 
Q 3016 3291 2770 3770 
Q 2525 4250 2034 4250 
z
M 2034 4750 
Q 2819 4750 3233 4129 
Q 3647 3509 3647 2328 
Q 3647 1150 3233 529 
Q 2819 -91 2034 -91 
Q 1250 -91 836 529 
Q 422 1150 422 2328 
Q 422 3509 836 4129 
Q 1250 4750 2034 4750 
z
" transform="scale(0.015625)"/>
       </defs>
       <use xlink:href="#DejaVuSans-30"/>
      </g>
     </g>
    </g>
    <g id="xtick_2">
     <g id="line2d_2">
      <g>
       <use xlink:href="#m1799d00439" x="135.23043" y="241.036875" style="stroke: #000000; stroke-width: 0.8"/>
      </g>
     </g>
     <g id="text_2">
      <!-- 25 -->
      <g transform="translate(125.05043 260.194375) scale(0.16 -0.16)">
       <defs>
        <path id="DejaVuSans-32" d="M 1228 531 
L 3431 531 
L 3431 0 
L 469 0 
L 469 531 
Q 828 903 1448 1529 
Q 2069 2156 2228 2338 
Q 2531 2678 2651 2914 
Q 2772 3150 2772 3378 
Q 2772 3750 2511 3984 
Q 2250 4219 1831 4219 
Q 1534 4219 1204 4116 
Q 875 4013 500 3803 
L 500 4441 
Q 881 4594 1212 4672 
Q 1544 4750 1819 4750 
Q 2544 4750 2975 4387 
Q 3406 4025 3406 3419 
Q 3406 3131 3298 2873 
Q 3191 2616 2906 2266 
Q 2828 2175 2409 1742 
Q 1991 1309 1228 531 
z
" transform="scale(0.015625)"/>
        <path id="DejaVuSans-35" d="M 691 4666 
L 3169 4666 
L 3169 4134 
L 1269 4134 
L 1269 2991 
Q 1406 3038 1543 3061 
Q 1681 3084 1819 3084 
Q 2600 3084 3056 2656 
Q 3513 2228 3513 1497 
Q 3513 744 3044 326 
Q 2575 -91 1722 -91 
Q 1428 -91 1123 -41 
Q 819 9 494 109 
L 494 744 
Q 775 591 1075 516 
Q 1375 441 1709 441 
Q 2250 441 2565 725 
Q 2881 1009 2881 1497 
Q 2881 1984 2565 2268 
Q 2250 2553 1709 2553 
Q 1456 2553 1204 2497 
Q 953 2441 691 2322 
L 691 4666 
z
" transform="scale(0.015625)"/>
       </defs>
       <use xlink:href="#DejaVuSans-32"/>
       <use xlink:href="#DejaVuSans-35" x="63.623047"/>
      </g>
     </g>
    </g>
    <g id="xtick_3">
     <g id="line2d_3">
      <g>
       <use xlink:href="#m1799d00439" x="198.381482" y="241.036875" style="stroke: #000000; stroke-width: 0.8"/>
      </g>
     </g>
     <g id="text_3">
      <!-- 50 -->
      <g transform="translate(188.201482 260.194375) scale(0.16 -0.16)">
       <use xlink:href="#DejaVuSans-35"/>
       <use xlink:href="#DejaVuSans-30" x="63.623047"/>
      </g>
     </g>
    </g>
    <g id="xtick_4">
     <g id="line2d_4">
      <g>
       <use xlink:href="#m1799d00439" x="261.532535" y="241.036875" style="stroke: #000000; stroke-width: 0.8"/>
      </g>
     </g>
     <g id="text_4">
      <!-- 75 -->
      <g transform="translate(251.352535 260.194375) scale(0.16 -0.16)">
       <defs>
        <path id="DejaVuSans-37" d="M 525 4666 
L 3525 4666 
L 3525 4397 
L 1831 0 
L 1172 0 
L 2766 4134 
L 525 4134 
L 525 4666 
z
" transform="scale(0.015625)"/>
       </defs>
       <use xlink:href="#DejaVuSans-37"/>
       <use xlink:href="#DejaVuSans-35" x="63.623047"/>
      </g>
     </g>
    </g>
    <g id="xtick_5">
     <g id="line2d_5">
      <g>
       <use xlink:href="#m1799d00439" x="324.683587" y="241.036875" style="stroke: #000000; stroke-width: 0.8"/>
      </g>
     </g>
     <g id="text_5">
      <!-- 100 -->
      <g transform="translate(309.413587 260.194375) scale(0.16 -0.16)">
       <defs>
        <path id="DejaVuSans-31" d="M 794 531 
L 1825 531 
L 1825 4091 
L 703 3866 
L 703 4441 
L 1819 4666 
L 2450 4666 
L 2450 531 
L 3481 531 
L 3481 0 
L 794 0 
L 794 531 
z
" transform="scale(0.015625)"/>
       </defs>
       <use xlink:href="#DejaVuSans-31"/>
       <use xlink:href="#DejaVuSans-30" x="63.623047"/>
       <use xlink:href="#DejaVuSans-30" x="127.246094"/>
      </g>
     </g>
    </g>
    <g id="xtick_6">
     <g id="line2d_6">
      <g>
       <use xlink:href="#m1799d00439" x="387.83464" y="241.036875" style="stroke: #000000; stroke-width: 0.8"/>
      </g>
     </g>
     <g id="text_6">
      <!-- 125 -->
      <g transform="translate(372.56464 260.194375) scale(0.16 -0.16)">
       <use xlink:href="#DejaVuSans-31"/>
       <use xlink:href="#DejaVuSans-32" x="63.623047"/>
       <use xlink:href="#DejaVuSans-35" x="127.246094"/>
      </g>
     </g>
    </g>
    <g id="text_7">
     <!-- Time [min] -->
     <g transform="translate(196.48956 275.120313) scale(0.1 -0.1)">
      <defs>
       <path id="DejaVuSans-54" d="M -19 4666 
L 3928 4666 
L 3928 4134 
L 2272 4134 
L 2272 0 
L 1638 0 
L 1638 4134 
L -19 4134 
L -19 4666 
z
" transform="scale(0.015625)"/>
       <path id="DejaVuSans-69" d="M 603 3500 
L 1178 3500 
L 1178 0 
L 603 0 
L 603 3500 
z
M 603 4863 
L 1178 4863 
L 1178 4134 
L 603 4134 
L 603 4863 
z
" transform="scale(0.015625)"/>
       <path id="DejaVuSans-6d" d="M 3328 2828 
Q 3544 3216 3844 3400 
Q 4144 3584 4550 3584 
Q 5097 3584 5394 3201 
Q 5691 2819 5691 2113 
L 5691 0 
L 5113 0 
L 5113 2094 
Q 5113 2597 4934 2840 
Q 4756 3084 4391 3084 
Q 3944 3084 3684 2787 
Q 3425 2491 3425 1978 
L 3425 0 
L 2847 0 
L 2847 2094 
Q 2847 2600 2669 2842 
Q 2491 3084 2119 3084 
Q 1678 3084 1418 2786 
Q 1159 2488 1159 1978 
L 1159 0 
L 581 0 
L 581 3500 
L 1159 3500 
L 1159 2956 
Q 1356 3278 1631 3431 
Q 1906 3584 2284 3584 
Q 2666 3584 2933 3390 
Q 3200 3197 3328 2828 
z
" transform="scale(0.015625)"/>
       <path id="DejaVuSans-65" d="M 3597 1894 
L 3597 1613 
L 953 1613 
Q 991 1019 1311 708 
Q 1631 397 2203 397 
Q 2534 397 2845 478 
Q 3156 559 3463 722 
L 3463 178 
Q 3153 47 2828 -22 
Q 2503 -91 2169 -91 
Q 1331 -91 842 396 
Q 353 884 353 1716 
Q 353 2575 817 3079 
Q 1281 3584 2069 3584 
Q 2775 3584 3186 3129 
Q 3597 2675 3597 1894 
z
M 3022 2063 
Q 3016 2534 2758 2815 
Q 2500 3097 2075 3097 
Q 1594 3097 1305 2825 
Q 1016 2553 972 2059 
L 3022 2063 
z
" transform="scale(0.015625)"/>
       <path id="DejaVuSans-20" transform="scale(0.015625)"/>
       <path id="DejaVuSans-5b" d="M 550 4863 
L 1875 4863 
L 1875 4416 
L 1125 4416 
L 1125 -397 
L 1875 -397 
L 1875 -844 
L 550 -844 
L 550 4863 
z
" transform="scale(0.015625)"/>
       <path id="DejaVuSans-6e" d="M 3513 2113 
L 3513 0 
L 2938 0 
L 2938 2094 
Q 2938 2591 2744 2837 
Q 2550 3084 2163 3084 
Q 1697 3084 1428 2787 
Q 1159 2491 1159 1978 
L 1159 0 
L 581 0 
L 581 3500 
L 1159 3500 
L 1159 2956 
Q 1366 3272 1645 3428 
Q 1925 3584 2291 3584 
Q 2894 3584 3203 3211 
Q 3513 2838 3513 2113 
z
" transform="scale(0.015625)"/>
       <path id="DejaVuSans-5d" d="M 1947 4863 
L 1947 -844 
L 622 -844 
L 622 -397 
L 1369 -397 
L 1369 4416 
L 622 4416 
L 622 4863 
L 1947 4863 
z
" transform="scale(0.015625)"/>
      </defs>
      <use xlink:href="#DejaVuSans-54"/>
      <use xlink:href="#DejaVuSans-69" x="57.958984"/>
      <use xlink:href="#DejaVuSans-6d" x="85.742188"/>
      <use xlink:href="#DejaVuSans-65" x="183.154297"/>
      <use xlink:href="#DejaVuSans-20" x="244.677734"/>
      <use xlink:href="#DejaVuSans-5b" x="276.464844"/>
      <use xlink:href="#DejaVuSans-6d" x="315.478516"/>
      <use xlink:href="#DejaVuSans-69" x="412.890625"/>
      <use xlink:href="#DejaVuSans-6e" x="440.673828"/>
      <use xlink:href="#DejaVuSans-5d" x="504.052734"/>
     </g>
    </g>
   </g>
   <g id="matplotlib.axis_2">
    <g id="ytick_1">
     <g id="line2d_7">
      <defs>
       <path id="mfc829984c0" d="M 0 0 
L -3.5 0 
" style="stroke: #000000; stroke-width: 0.8"/>
      </defs>
      <g>
       <use xlink:href="#mfc829984c0" x="56.923125" y="218.077708" style="stroke: #000000; stroke-width: 0.8"/>
      </g>
     </g>
     <g id="text_8">
      <!-- −0.25 -->
      <g transform="translate(0.890625 224.156458) scale(0.16 -0.16)">
       <defs>
        <path id="DejaVuSans-2212" d="M 678 2272 
L 4684 2272 
L 4684 1741 
L 678 1741 
L 678 2272 
z
" transform="scale(0.015625)"/>
        <path id="DejaVuSans-2e" d="M 684 794 
L 1344 794 
L 1344 0 
L 684 0 
L 684 794 
z
" transform="scale(0.015625)"/>
       </defs>
       <use xlink:href="#DejaVuSans-2212"/>
       <use xlink:href="#DejaVuSans-30" x="83.789062"/>
       <use xlink:href="#DejaVuSans-2e" x="147.412109"/>
       <use xlink:href="#DejaVuSans-32" x="179.199219"/>
       <use xlink:href="#DejaVuSans-35" x="242.822266"/>
      </g>
     </g>
    </g>
    <g id="ytick_2">
     <g id="line2d_8">
      <g>
       <use xlink:href="#mfc829984c0" x="56.923125" y="180.171757" style="stroke: #000000; stroke-width: 0.8"/>
      </g>
     </g>
     <g id="text_9">
      <!-- 0.00 -->
      <g transform="translate(14.298125 186.250507) scale(0.16 -0.16)">
       <use xlink:href="#DejaVuSans-30"/>
       <use xlink:href="#DejaVuSans-2e" x="63.623047"/>
       <use xlink:href="#DejaVuSans-30" x="95.410156"/>
       <use xlink:href="#DejaVuSans-30" x="159.033203"/>
      </g>
     </g>
    </g>
    <g id="ytick_3">
     <g id="line2d_9">
      <g>
       <use xlink:href="#mfc829984c0" x="56.923125" y="142.265806" style="stroke: #000000; stroke-width: 0.8"/>
      </g>
     </g>
     <g id="text_10">
      <!-- 0.25 -->
      <g transform="translate(14.298125 148.344556) scale(0.16 -0.16)">
       <use xlink:href="#DejaVuSans-30"/>
       <use xlink:href="#DejaVuSans-2e" x="63.623047"/>
       <use xlink:href="#DejaVuSans-32" x="95.410156"/>
       <use xlink:href="#DejaVuSans-35" x="159.033203"/>
      </g>
     </g>
    </g>
    <g id="ytick_4">
     <g id="line2d_10">
      <g>
       <use xlink:href="#mfc829984c0" x="56.923125" y="104.359855" style="stroke: #000000; stroke-width: 0.8"/>
      </g>
     </g>
     <g id="text_11">
      <!-- 0.50 -->
      <g transform="translate(14.298125 110.438605) scale(0.16 -0.16)">
       <use xlink:href="#DejaVuSans-30"/>
       <use xlink:href="#DejaVuSans-2e" x="63.623047"/>
       <use xlink:href="#DejaVuSans-35" x="95.410156"/>
       <use xlink:href="#DejaVuSans-30" x="159.033203"/>
      </g>
     </g>
    </g>
    <g id="ytick_5">
     <g id="line2d_11">
      <g>
       <use xlink:href="#mfc829984c0" x="56.923125" y="66.453904" style="stroke: #000000; stroke-width: 0.8"/>
      </g>
     </g>
     <g id="text_12">
      <!-- 0.75 -->
      <g transform="translate(14.298125 72.532654) scale(0.16 -0.16)">
       <use xlink:href="#DejaVuSans-30"/>
       <use xlink:href="#DejaVuSans-2e" x="63.623047"/>
       <use xlink:href="#DejaVuSans-37" x="95.410156"/>
       <use xlink:href="#DejaVuSans-35" x="159.033203"/>
      </g>
     </g>
    </g>
    <g id="ytick_6">
     <g id="line2d_12">
      <g>
       <use xlink:href="#mfc829984c0" x="56.923125" y="28.547953" style="stroke: #000000; stroke-width: 0.8"/>
      </g>
     </g>
     <g id="text_13">
      <!-- 1.00 -->
      <g transform="translate(14.298125 34.626703) scale(0.16 -0.16)">
       <use xlink:href="#DejaVuSans-31"/>
       <use xlink:href="#DejaVuSans-2e" x="63.623047"/>
       <use xlink:href="#DejaVuSans-30" x="95.410156"/>
       <use xlink:href="#DejaVuSans-30" x="159.033203"/>
      </g>
     </g>
    </g>
    <g id="text_14">
     <!-- RW Motor Torque (Nm) -->
     <g transform="translate(-5.189062 182.515312) rotate(-90) scale(0.1 -0.1)">
      <defs>
       <path id="DejaVuSans-52" d="M 2841 2188 
Q 3044 2119 3236 1894 
Q 3428 1669 3622 1275 
L 4263 0 
L 3584 0 
L 2988 1197 
Q 2756 1666 2539 1819 
Q 2322 1972 1947 1972 
L 1259 1972 
L 1259 0 
L 628 0 
L 628 4666 
L 2053 4666 
Q 2853 4666 3247 4331 
Q 3641 3997 3641 3322 
Q 3641 2881 3436 2590 
Q 3231 2300 2841 2188 
z
M 1259 4147 
L 1259 2491 
L 2053 2491 
Q 2509 2491 2742 2702 
Q 2975 2913 2975 3322 
Q 2975 3731 2742 3939 
Q 2509 4147 2053 4147 
L 1259 4147 
z
" transform="scale(0.015625)"/>
       <path id="DejaVuSans-57" d="M 213 4666 
L 850 4666 
L 1831 722 
L 2809 4666 
L 3519 4666 
L 4500 722 
L 5478 4666 
L 6119 4666 
L 4947 0 
L 4153 0 
L 3169 4050 
L 2175 0 
L 1381 0 
L 213 4666 
z
" transform="scale(0.015625)"/>
       <path id="DejaVuSans-4d" d="M 628 4666 
L 1569 4666 
L 2759 1491 
L 3956 4666 
L 4897 4666 
L 4897 0 
L 4281 0 
L 4281 4097 
L 3078 897 
L 2444 897 
L 1241 4097 
L 1241 0 
L 628 0 
L 628 4666 
z
" transform="scale(0.015625)"/>
       <path id="DejaVuSans-6f" d="M 1959 3097 
Q 1497 3097 1228 2736 
Q 959 2375 959 1747 
Q 959 1119 1226 758 
Q 1494 397 1959 397 
Q 2419 397 2687 759 
Q 2956 1122 2956 1747 
Q 2956 2369 2687 2733 
Q 2419 3097 1959 3097 
z
M 1959 3584 
Q 2709 3584 3137 3096 
Q 3566 2609 3566 1747 
Q 3566 888 3137 398 
Q 2709 -91 1959 -91 
Q 1206 -91 779 398 
Q 353 888 353 1747 
Q 353 2609 779 3096 
Q 1206 3584 1959 3584 
z
" transform="scale(0.015625)"/>
       <path id="DejaVuSans-74" d="M 1172 4494 
L 1172 3500 
L 2356 3500 
L 2356 3053 
L 1172 3053 
L 1172 1153 
Q 1172 725 1289 603 
Q 1406 481 1766 481 
L 2356 481 
L 2356 0 
L 1766 0 
Q 1100 0 847 248 
Q 594 497 594 1153 
L 594 3053 
L 172 3053 
L 172 3500 
L 594 3500 
L 594 4494 
L 1172 4494 
z
" transform="scale(0.015625)"/>
       <path id="DejaVuSans-72" d="M 2631 2963 
Q 2534 3019 2420 3045 
Q 2306 3072 2169 3072 
Q 1681 3072 1420 2755 
Q 1159 2438 1159 1844 
L 1159 0 
L 581 0 
L 581 3500 
L 1159 3500 
L 1159 2956 
Q 1341 3275 1631 3429 
Q 1922 3584 2338 3584 
Q 2397 3584 2469 3576 
Q 2541 3569 2628 3553 
L 2631 2963 
z
" transform="scale(0.015625)"/>
       <path id="DejaVuSans-71" d="M 947 1747 
Q 947 1113 1208 752 
Q 1469 391 1925 391 
Q 2381 391 2643 752 
Q 2906 1113 2906 1747 
Q 2906 2381 2643 2742 
Q 2381 3103 1925 3103 
Q 1469 3103 1208 2742 
Q 947 2381 947 1747 
z
M 2906 525 
Q 2725 213 2448 61 
Q 2172 -91 1784 -91 
Q 1150 -91 751 415 
Q 353 922 353 1747 
Q 353 2572 751 3078 
Q 1150 3584 1784 3584 
Q 2172 3584 2448 3432 
Q 2725 3281 2906 2969 
L 2906 3500 
L 3481 3500 
L 3481 -1331 
L 2906 -1331 
L 2906 525 
z
" transform="scale(0.015625)"/>
       <path id="DejaVuSans-75" d="M 544 1381 
L 544 3500 
L 1119 3500 
L 1119 1403 
Q 1119 906 1312 657 
Q 1506 409 1894 409 
Q 2359 409 2629 706 
Q 2900 1003 2900 1516 
L 2900 3500 
L 3475 3500 
L 3475 0 
L 2900 0 
L 2900 538 
Q 2691 219 2414 64 
Q 2138 -91 1772 -91 
Q 1169 -91 856 284 
Q 544 659 544 1381 
z
M 1991 3584 
L 1991 3584 
z
" transform="scale(0.015625)"/>
       <path id="DejaVuSans-28" d="M 1984 4856 
Q 1566 4138 1362 3434 
Q 1159 2731 1159 2009 
Q 1159 1288 1364 580 
Q 1569 -128 1984 -844 
L 1484 -844 
Q 1016 -109 783 600 
Q 550 1309 550 2009 
Q 550 2706 781 3412 
Q 1013 4119 1484 4856 
L 1984 4856 
z
" transform="scale(0.015625)"/>
       <path id="DejaVuSans-4e" d="M 628 4666 
L 1478 4666 
L 3547 763 
L 3547 4666 
L 4159 4666 
L 4159 0 
L 3309 0 
L 1241 3903 
L 1241 0 
L 628 0 
L 628 4666 
z
" transform="scale(0.015625)"/>
       <path id="DejaVuSans-29" d="M 513 4856 
L 1013 4856 
Q 1481 4119 1714 3412 
Q 1947 2706 1947 2009 
Q 1947 1309 1714 600 
Q 1481 -109 1013 -844 
L 513 -844 
Q 928 -128 1133 580 
Q 1338 1288 1338 2009 
Q 1338 2731 1133 3434 
Q 928 4138 513 4856 
z
" transform="scale(0.015625)"/>
      </defs>
      <use xlink:href="#DejaVuSans-52"/>
      <use xlink:href="#DejaVuSans-57" x="65.482422"/>
      <use xlink:href="#DejaVuSans-20" x="164.359375"/>
      <use xlink:href="#DejaVuSans-4d" x="196.146484"/>
      <use xlink:href="#DejaVuSans-6f" x="282.425781"/>
      <use xlink:href="#DejaVuSans-74" x="343.607422"/>
      <use xlink:href="#DejaVuSans-6f" x="382.816406"/>
      <use xlink:href="#DejaVuSans-72" x="443.998047"/>
      <use xlink:href="#DejaVuSans-20" x="485.111328"/>
      <use xlink:href="#DejaVuSans-54" x="516.898438"/>
      <use xlink:href="#DejaVuSans-6f" x="560.982422"/>
      <use xlink:href="#DejaVuSans-72" x="622.164062"/>
      <use xlink:href="#DejaVuSans-71" x="661.527344"/>
      <use xlink:href="#DejaVuSans-75" x="725.003906"/>
      <use xlink:href="#DejaVuSans-65" x="788.382812"/>
      <use xlink:href="#DejaVuSans-20" x="849.90625"/>
      <use xlink:href="#DejaVuSans-28" x="881.693359"/>
      <use xlink:href="#DejaVuSans-4e" x="920.707031"/>
      <use xlink:href="#DejaVuSans-6d" x="995.511719"/>
      <use xlink:href="#DejaVuSans-29" x="1092.923828"/>
     </g>
    </g>
   </g>
   <g id="line2d_13">
    <path d="M 72.079378 180.171757 
L 72.500385 157.334979 
L 72.921392 158.968746 
L 73.342399 165.460549 
L 74.184413 190.300843 
L 74.60542 197.985395 
L 75.026427 199.240541 
L 75.447434 194.730692 
L 76.289448 179.011946 
L 76.710455 173.815306 
L 77.131462 172.585787 
L 77.552469 174.914283 
L 78.394483 183.312105 
L 78.81549 185.75364 
L 79.236497 185.828452 
L 79.657504 183.898804 
L 80.499518 178.551763 
L 80.920525 177.340016 
L 81.341532 177.679443 
L 82.604553 182.287498 
L 83.02556 182.598491 
L 83.446567 181.891955 
L 84.288581 179.278727 
L 84.709588 178.531945 
L 85.130595 178.592887 
L 85.551602 179.351813 
L 86.393616 181.317377 
L 86.814623 181.683647 
L 87.23563 181.410843 
L 88.498651 179.147625 
L 88.919658 178.980032 
L 89.340665 179.309974 
L 90.603686 181.074241 
L 91.024693 181.112025 
L 91.4457 180.773585 
L 92.287714 179.708451 
L 92.708721 179.418786 
L 93.129728 179.450311 
L 93.971742 180.19648 
L 94.392749 180.577089 
L 94.813756 180.7566 
L 95.234763 180.684146 
L 96.918792 179.6931 
L 97.339799 179.782703 
L 98.60282 180.460923 
L 99.023827 180.510542 
L 99.865841 180.22786 
L 100.707855 179.903599 
L 101.549869 179.978898 
L 102.81289 180.354501 
L 103.654904 180.264526 
L 104.917925 179.991047 
L 105.759939 180.081196 
L 107.02296 180.272848 
L 110.391016 180.179754 
L 111.654037 180.190108 
L 113.338065 180.090245 
L 115.864107 180.157436 
L 117.969142 180.127443 
L 120.074177 180.139265 
L 123.021227 180.146317 
L 159.22783 180.142614 
L 224.06291 180.173112 
L 224.483917 169.351474 
L 224.904924 169.214004 
L 225.325931 170.572083 
L 226.588953 177.062196 
L 227.851974 185.917087 
L 228.272981 185.175431 
L 228.693988 182.350229 
L 229.114995 180.576121 
L 229.536002 180.379609 
L 229.957009 181.126751 
L 230.378016 181.572721 
L 231.22003 180.496515 
L 231.641037 180.27007 
L 232.483051 180.289918 
L 232.904058 180.127457 
L 233.746072 179.534927 
L 234.167079 179.400276 
L 234.588086 179.474364 
L 236.272114 180.263898 
L 237.535135 180.117775 
L 238.798156 180.117702 
L 240.482184 180.175895 
L 246.797289 180.172806 
L 375.204429 180.171757 
L 375.204429 180.171757 
" clip-path="url(#p5f8ba5b90a)" style="fill: none; stroke-dasharray: 5.55,2.4; stroke-dashoffset: 0; stroke: #225e7c; stroke-width: 1.5"/>
   </g>
   <g id="line2d_14">
    <path d="M 72.079378 180.171757 
L 72.500385 157.334979 
L 72.921392 158.968746 
L 73.342399 165.460549 
L 74.184413 190.300843 
L 74.60542 197.985395 
L 75.026427 199.240541 
L 75.447434 194.730692 
L 76.289448 179.011946 
L 76.710455 173.815306 
L 77.131462 172.585787 
L 77.552469 174.914283 
L 78.394483 183.312105 
L 78.81549 185.75364 
L 79.236497 185.828452 
L 79.657504 183.898804 
L 80.499518 178.551763 
L 80.920525 177.340016 
L 81.341532 177.679443 
L 82.604553 182.287498 
L 83.02556 182.598491 
L 83.446567 181.891955 
L 84.288581 179.278727 
L 84.709588 178.531945 
L 85.130595 178.592887 
L 85.551602 179.351813 
L 86.393616 181.317377 
L 86.814623 181.683647 
L 87.23563 181.410843 
L 88.498651 179.147625 
L 88.919658 178.980032 
L 89.340665 179.309974 
L 90.603686 181.074241 
L 91.024693 181.112025 
L 91.4457 180.773585 
L 92.287714 179.708451 
L 92.708721 179.418786 
L 93.129728 179.450311 
L 93.971742 180.19648 
L 94.392749 180.577089 
L 94.813756 180.7566 
L 95.234763 180.684146 
L 96.918792 179.6931 
L 97.339799 179.782703 
L 98.60282 180.460923 
L 99.023827 180.510542 
L 99.865841 180.22786 
L 100.707855 179.903599 
L 101.549869 179.978898 
L 102.81289 180.354501 
L 103.654904 180.264526 
L 104.917925 179.991047 
L 105.759939 180.081196 
L 107.02296 180.272848 
L 110.391016 180.179754 
L 111.654037 180.190108 
L 113.338065 180.090245 
L 115.864107 180.157436 
L 117.969142 180.127443 
L 120.074177 180.139265 
L 123.021227 180.146317 
L 159.22783 180.142614 
L 224.06291 180.173112 
L 224.483917 169.351474 
L 224.904924 169.214004 
L 225.325931 170.572083 
L 226.588953 177.062196 
L 227.851974 185.917087 
L 228.272981 185.175431 
L 228.693988 182.350229 
L 229.114995 180.576121 
L 229.536002 180.379609 
L 229.957009 181.126751 
L 230.378016 181.572721 
L 231.22003 180.496515 
L 231.641037 180.27007 
L 232.483051 180.289918 
L 232.904058 180.127457 
L 233.746072 179.534927 
L 234.167079 179.400276 
L 234.588086 179.474364 
L 236.272114 180.263898 
L 237.535135 180.117775 
L 238.798156 180.117702 
L 240.482184 180.175895 
L 246.797289 180.172806 
L 375.204429 180.171757 
L 375.204429 180.171757 
" clip-path="url(#p5f8ba5b90a)" style="fill: none; stroke: #225e7c; stroke-width: 1.5; stroke-linecap: square"/>
   </g>
   <g id="line2d_15">
    <path d="M 72.079378 180.171757 
L 72.500385 157.334979 
L 72.921392 159.540011 
L 73.342399 166.201818 
L 74.184413 191.376269 
L 74.60542 198.570564 
L 75.026427 199.011532 
L 75.447434 193.796886 
L 76.289448 177.997209 
L 76.710455 173.217557 
L 77.131462 172.421812 
L 77.552469 175.077868 
L 78.394483 183.65804 
L 78.81549 185.96442 
L 79.236497 185.83378 
L 79.657504 183.726363 
L 80.499518 178.321052 
L 80.920525 177.194802 
L 81.341532 177.631113 
L 82.604553 182.355025 
L 83.02556 182.640513 
L 83.446567 181.894539 
L 84.288581 179.22743 
L 84.709588 178.482782 
L 85.130595 178.559853 
L 85.551602 179.338936 
L 86.393616 181.329982 
L 86.814623 181.697686 
L 87.23563 181.420341 
L 88.498651 179.13803 
L 88.919658 178.970105 
L 89.340665 179.302644 
L 90.603686 181.075679 
L 91.024693 181.114079 
L 91.4457 180.77531 
L 92.287714 179.708531 
L 92.708721 179.418253 
L 93.129728 179.449448 
L 93.971742 180.195344 
L 94.392749 180.575888 
L 94.813756 180.755504 
L 95.234763 180.683446 
L 96.918792 179.694459 
L 97.339799 179.783641 
L 98.60282 180.459539 
L 99.023827 180.509088 
L 99.865841 180.227855 
L 100.707855 179.905125 
L 101.549869 179.979811 
L 102.81289 180.35317 
L 103.654904 180.263996 
L 104.917925 179.99249 
L 105.759939 180.08172 
L 107.02296 180.271758 
L 110.391016 180.179314 
L 111.654037 180.189748 
L 113.338065 180.091115 
L 115.864107 180.157381 
L 117.969142 180.127684 
L 120.495184 180.125083 
L 125.547269 180.118954 
L 135.23043 180.124706 
L 184.488251 180.167618 
L 224.06291 180.173087 
L 224.483917 223.620119 
L 224.904924 224.043912 
L 225.746938 208.957015 
L 227.00996 181.8261 
L 227.430967 176.742711 
L 229.114995 163.453986 
L 229.536002 162.499222 
L 229.957009 163.787624 
L 230.378016 167.091777 
L 231.22003 175.575001 
L 231.641037 178.66711 
L 232.062044 180.559335 
L 232.483051 181.308593 
L 232.904058 181.186947 
L 234.167079 179.517967 
L 234.588086 179.409125 
L 235.4301 179.819348 
L 236.272114 180.185085 
L 237.114128 180.166173 
L 238.377149 180.089285 
L 240.903191 180.165615 
L 250.586352 180.172092 
L 375.204429 180.171757 
L 375.204429 180.171757 
" clip-path="url(#p5f8ba5b90a)" style="fill: none; stroke-dasharray: 5.55,2.4; stroke-dashoffset: 0; stroke: #3e915b; stroke-width: 1.5"/>
   </g>
   <g id="line2d_16">
    <path d="M 72.079378 180.171757 
L 72.500385 157.334979 
L 72.921392 159.540011 
L 73.342399 166.201818 
L 74.184413 191.376269 
L 74.60542 198.570564 
L 75.026427 199.011532 
L 75.447434 193.796886 
L 76.289448 177.997209 
L 76.710455 173.217557 
L 77.131462 172.421812 
L 77.552469 175.077868 
L 78.394483 183.65804 
L 78.81549 185.96442 
L 79.236497 185.83378 
L 79.657504 183.726363 
L 80.499518 178.321052 
L 80.920525 177.194802 
L 81.341532 177.631113 
L 82.604553 182.355025 
L 83.02556 182.640513 
L 83.446567 181.894539 
L 84.288581 179.22743 
L 84.709588 178.482782 
L 85.130595 178.559853 
L 85.551602 179.338936 
L 86.393616 181.329982 
L 86.814623 181.697686 
L 87.23563 181.420341 
L 88.498651 179.13803 
L 88.919658 178.970105 
L 89.340665 179.302644 
L 90.603686 181.075679 
L 91.024693 181.114079 
L 91.4457 180.77531 
L 92.287714 179.708531 
L 92.708721 179.418253 
L 93.129728 179.449448 
L 93.971742 180.195344 
L 94.392749 180.575888 
L 94.813756 180.755504 
L 95.234763 180.683446 
L 96.918792 179.694459 
L 97.339799 179.783641 
L 98.60282 180.459539 
L 99.023827 180.509088 
L 99.865841 180.227855 
L 100.707855 179.905125 
L 101.549869 179.979811 
L 102.81289 180.35317 
L 103.654904 180.263996 
L 104.917925 179.99249 
L 105.759939 180.08172 
L 107.02296 180.271758 
L 110.391016 180.179314 
L 111.654037 180.189748 
L 113.338065 180.091115 
L 115.864107 180.157381 
L 117.969142 180.127684 
L 120.495184 180.125083 
L 125.547269 180.118954 
L 135.23043 180.124706 
L 184.488251 180.167618 
L 224.06291 180.173087 
L 224.483917 210.496518 
L 225.325931 210.496518 
L 225.746938 208.957015 
L 227.00996 181.8261 
L 227.430967 176.742711 
L 229.114995 163.453986 
L 229.536002 162.499222 
L 229.957009 163.787624 
L 230.378016 167.091777 
L 231.22003 175.575001 
L 231.641037 178.66711 
L 232.062044 180.559335 
L 232.483051 181.308593 
L 232.904058 181.186947 
L 234.167079 179.517967 
L 234.588086 179.409125 
L 235.4301 179.819348 
L 236.272114 180.185085 
L 237.114128 180.166173 
L 238.377149 180.089285 
L 240.903191 180.165615 
L 250.586352 180.172092 
L 375.204429 180.171757 
L 375.204429 180.171757 
" clip-path="url(#p5f8ba5b90a)" style="fill: none; stroke: #3e915b; stroke-width: 1.5; stroke-linecap: square"/>
   </g>
   <g id="line2d_17">
    <path d="M 72.079378 180.171757 
L 72.500385 184.495402 
L 72.921392 185.87127 
L 73.342399 185.63972 
L 73.763406 184.64155 
L 74.184413 182.923446 
L 75.026427 177.598805 
L 75.447434 174.851969 
L 75.868441 173.144227 
L 76.289448 173.140188 
L 76.710455 174.976106 
L 77.973476 184.553613 
L 78.394483 185.676618 
L 78.81549 184.784192 
L 79.657504 179.148684 
L 80.078511 176.551604 
L 80.499518 175.387113 
L 80.920525 175.967524 
L 81.341532 177.947226 
L 82.183546 182.655591 
L 82.604553 183.6745 
L 83.02556 183.298375 
L 83.446567 181.809893 
L 84.288581 178.271374 
L 84.709588 177.554702 
L 85.130595 177.899101 
L 86.393616 181.652846 
L 86.814623 182.110707 
L 87.23563 181.781334 
L 88.498651 179.042695 
L 88.919658 178.798629 
L 89.340665 179.128152 
L 90.603686 181.124855 
L 91.024693 181.223042 
L 91.4457 180.908993 
L 92.287714 179.802274 
L 92.708721 179.473041 
L 93.129728 179.471125 
L 93.550735 179.761256 
L 94.392749 180.589231 
L 94.813756 180.788164 
L 95.234763 180.735658 
L 96.918792 179.759879 
L 97.339799 179.840905 
L 98.60282 180.506207 
L 99.023827 180.558752 
L 99.865841 180.286714 
L 100.707855 179.969427 
L 101.549869 180.043834 
L 102.81289 180.415209 
L 103.654904 180.327524 
L 104.917925 180.059957 
L 105.759939 180.151003 
L 107.02296 180.342625 
L 110.391016 180.255931 
L 111.654037 180.268455 
L 113.338065 180.172192 
L 115.864107 180.24261 
L 117.969142 180.215561 
L 120.074177 180.22986 
L 123.021227 180.238923 
L 207.22263 180.148013 
L 224.06291 180.154556 
L 224.483917 75.943232 
L 224.904924 76.09522 
L 225.746938 102.062825 
L 226.588953 136.114445 
L 227.430967 181.313183 
L 227.851974 204.800756 
L 228.272981 215.63132 
L 228.693988 213.58833 
L 229.114995 207.639266 
L 230.378016 185.344624 
L 230.799023 180.702662 
L 231.22003 178.887562 
L 231.641037 179.3852 
L 232.483051 182.451963 
L 232.904058 183.173404 
L 233.325065 183.058847 
L 234.588086 181.106937 
L 235.009093 180.809271 
L 235.851107 180.724471 
L 236.693121 180.664441 
L 238.377149 180.363031 
L 244.692254 180.188528 
L 261.953542 180.171776 
L 375.204429 180.171757 
L 375.204429 180.171757 
" clip-path="url(#p5f8ba5b90a)" style="fill: none; stroke-dasharray: 5.55,2.4; stroke-dashoffset: 0; stroke: #8eac56; stroke-width: 1.5"/>
   </g>
   <g id="line2d_18">
    <path d="M 72.079378 180.171757 
L 72.500385 184.495402 
L 72.921392 185.87127 
L 73.342399 185.63972 
L 73.763406 184.64155 
L 74.184413 182.923446 
L 75.026427 177.598805 
L 75.447434 174.851969 
L 75.868441 173.144227 
L 76.289448 173.140188 
L 76.710455 174.976106 
L 77.973476 184.553613 
L 78.394483 185.676618 
L 78.81549 184.784192 
L 79.657504 179.148684 
L 80.078511 176.551604 
L 80.499518 175.387113 
L 80.920525 175.967524 
L 81.341532 177.947226 
L 82.183546 182.655591 
L 82.604553 183.6745 
L 83.02556 183.298375 
L 83.446567 181.809893 
L 84.288581 178.271374 
L 84.709588 177.554702 
L 85.130595 177.899101 
L 86.393616 181.652846 
L 86.814623 182.110707 
L 87.23563 181.781334 
L 88.498651 179.042695 
L 88.919658 178.798629 
L 89.340665 179.128152 
L 90.603686 181.124855 
L 91.024693 181.223042 
L 91.4457 180.908993 
L 92.287714 179.802274 
L 92.708721 179.473041 
L 93.129728 179.471125 
L 93.550735 179.761256 
L 94.392749 180.589231 
L 94.813756 180.788164 
L 95.234763 180.735658 
L 96.918792 179.759879 
L 97.339799 179.840905 
L 98.60282 180.506207 
L 99.023827 180.558752 
L 99.865841 180.286714 
L 100.707855 179.969427 
L 101.549869 180.043834 
L 102.81289 180.415209 
L 103.654904 180.327524 
L 104.917925 180.059957 
L 105.759939 180.151003 
L 107.02296 180.342625 
L 110.391016 180.255931 
L 111.654037 180.268455 
L 113.338065 180.172192 
L 115.864107 180.24261 
L 117.969142 180.215561 
L 120.074177 180.22986 
L 123.021227 180.238923 
L 207.22263 180.148013 
L 224.06291 180.154556 
L 224.483917 149.846996 
L 226.588953 149.846996 
L 227.00996 157.117312 
L 227.851974 204.800756 
L 228.272981 210.496518 
L 228.693988 210.496518 
L 229.114995 207.639266 
L 230.378016 185.344624 
L 230.799023 180.702662 
L 231.22003 178.887562 
L 231.641037 179.3852 
L 232.483051 182.451963 
L 232.904058 183.173404 
L 233.325065 183.058847 
L 234.588086 181.106937 
L 235.009093 180.809271 
L 235.851107 180.724471 
L 236.693121 180.664441 
L 238.377149 180.363031 
L 244.692254 180.188528 
L 261.953542 180.171776 
L 375.204429 180.171757 
L 375.204429 180.171757 
" clip-path="url(#p5f8ba5b90a)" style="fill: none; stroke: #8eac56; stroke-width: 1.5; stroke-linecap: square"/>
   </g>
   <g id="line2d_19">
    <path d="M 72.079378 180.171757 
L 72.500385 184.495402 
L 72.921392 185.300004 
L 73.342399 184.898451 
L 73.763406 183.583716 
L 74.60542 179.929293 
L 75.447434 175.785775 
L 75.868441 174.340635 
L 76.289448 174.154925 
L 76.710455 175.573854 
L 77.973476 184.215755 
L 78.394483 185.330683 
L 78.81549 184.573413 
L 79.236497 182.275725 
L 80.078511 176.805123 
L 80.499518 175.617824 
L 80.920525 176.112737 
L 81.341532 177.995556 
L 82.183546 182.590905 
L 82.604553 183.606974 
L 83.02556 183.256353 
L 83.446567 181.807309 
L 84.288581 178.322671 
L 84.709588 177.603865 
L 85.130595 177.932134 
L 86.393616 181.640241 
L 86.814623 182.096668 
L 87.23563 181.771837 
L 88.498651 179.05229 
L 88.919658 178.808557 
L 89.340665 179.135482 
L 90.603686 181.123416 
L 91.024693 181.220988 
L 91.4457 180.907267 
L 92.287714 179.802194 
L 92.708721 179.473574 
L 93.129728 179.471988 
L 93.550735 179.762279 
L 94.392749 180.590433 
L 94.813756 180.789259 
L 95.234763 180.736358 
L 96.918792 179.758521 
L 97.339799 179.839967 
L 98.60282 180.507591 
L 99.023827 180.560207 
L 99.865841 180.286718 
L 100.707855 179.967901 
L 101.549869 180.042922 
L 102.81289 180.416539 
L 103.654904 180.328054 
L 104.917925 180.058515 
L 105.759939 180.150479 
L 107.02296 180.343714 
L 110.391016 180.256372 
L 111.654037 180.268815 
L 113.338065 180.171322 
L 115.864107 180.242664 
L 117.969142 180.21532 
L 120.074177 180.229724 
L 123.021227 180.239159 
L 203.854574 180.146383 
L 224.06291 180.154581 
L 224.483917 21.674588 
L 224.904924 21.265312 
L 225.746938 65.780518 
L 227.00996 155.214677 
L 227.851974 217.401528 
L 228.272981 230.571562 
L 228.693988 229.430536 
L 229.114995 224.761401 
L 229.957009 209.274462 
L 230.799023 190.255193 
L 231.22003 183.809077 
L 231.641037 180.98816 
L 232.062044 180.693131 
L 232.904058 182.113915 
L 233.325065 182.28691 
L 233.746072 182.010506 
L 234.588086 181.172175 
L 235.009093 180.953484 
L 238.377149 180.362602 
L 245.534268 180.183732 
L 282.161879 180.171757 
L 375.204429 180.171757 
L 375.204429 180.171757 
" clip-path="url(#p5f8ba5b90a)" style="fill: none; stroke-dasharray: 5.55,2.4; stroke-dashoffset: 0; stroke: #c4a46f; stroke-width: 1.5"/>
   </g>
   <g id="line2d_20">
    <path d="M 72.079378 180.171757 
L 72.500385 184.495402 
L 72.921392 185.300004 
L 73.342399 184.898451 
L 73.763406 183.583716 
L 74.60542 179.929293 
L 75.447434 175.785775 
L 75.868441 174.340635 
L 76.289448 174.154925 
L 76.710455 175.573854 
L 77.973476 184.215755 
L 78.394483 185.330683 
L 78.81549 184.573413 
L 79.236497 182.275725 
L 80.078511 176.805123 
L 80.499518 175.617824 
L 80.920525 176.112737 
L 81.341532 177.995556 
L 82.183546 182.590905 
L 82.604553 183.606974 
L 83.02556 183.256353 
L 83.446567 181.807309 
L 84.288581 178.322671 
L 84.709588 177.603865 
L 85.130595 177.932134 
L 86.393616 181.640241 
L 86.814623 182.096668 
L 87.23563 181.771837 
L 88.498651 179.05229 
L 88.919658 178.808557 
L 89.340665 179.135482 
L 90.603686 181.123416 
L 91.024693 181.220988 
L 91.4457 180.907267 
L 92.287714 179.802194 
L 92.708721 179.473574 
L 93.129728 179.471988 
L 93.550735 179.762279 
L 94.392749 180.590433 
L 94.813756 180.789259 
L 95.234763 180.736358 
L 96.918792 179.758521 
L 97.339799 179.839967 
L 98.60282 180.507591 
L 99.023827 180.560207 
L 99.865841 180.286718 
L 100.707855 179.967901 
L 101.549869 180.042922 
L 102.81289 180.416539 
L 103.654904 180.328054 
L 104.917925 180.058515 
L 105.759939 180.150479 
L 107.02296 180.343714 
L 110.391016 180.256372 
L 111.654037 180.268815 
L 113.338065 180.171322 
L 115.864107 180.242664 
L 117.969142 180.21532 
L 120.074177 180.229724 
L 123.021227 180.239159 
L 203.854574 180.146383 
L 224.06291 180.154581 
L 224.483917 149.846996 
L 226.588953 149.846996 
L 227.00996 155.214677 
L 227.430967 187.763918 
L 227.851974 210.496518 
L 229.536002 210.496518 
L 229.957009 209.274462 
L 230.799023 190.255193 
L 231.22003 183.809077 
L 231.641037 180.98816 
L 232.062044 180.693131 
L 232.904058 182.113915 
L 233.325065 182.28691 
L 233.746072 182.010506 
L 234.588086 181.172175 
L 235.009093 180.953484 
L 238.377149 180.362602 
L 245.534268 180.183732 
L 282.161879 180.171757 
L 375.204429 180.171757 
L 375.204429 180.171757 
" clip-path="url(#p5f8ba5b90a)" style="fill: none; stroke: #c4a46f; stroke-width: 1.5; stroke-linecap: square"/>
   </g>
   <g id="patch_3">
    <path d="M 56.923125 241.036875 
L 56.923125 10.8 
" style="fill: none; stroke: #000000; stroke-width: 0.8; stroke-linejoin: miter; stroke-linecap: square"/>
   </g>
   <g id="patch_4">
    <path d="M 390.360682 241.036875 
L 390.360682 10.8 
" style="fill: none; stroke: #000000; stroke-width: 0.8; stroke-linejoin: miter; stroke-linecap: square"/>
   </g>
   <g id="patch_5">
    <path d="M 56.923125 241.036875 
L 390.360682 241.036875 
" style="fill: none; stroke: #000000; stroke-width: 0.8; stroke-linejoin: miter; stroke-linecap: square"/>
   </g>
   <g id="patch_6">
    <path d="M 56.923125 10.8 
L 390.360682 10.8 
" style="fill: none; stroke: #000000; stroke-width: 0.8; stroke-linejoin: miter; stroke-linecap: square"/>
   </g>
   <g id="legend_1">
    <g id="patch_7">
     <path d="M 338.700682 236.536875 
L 384.060682 236.536875 
Q 385.860682 236.536875 385.860682 234.736875 
L 385.860682 121.1625 
Q 385.860682 119.3625 384.060682 119.3625 
L 338.700682 119.3625 
Q 336.900682 119.3625 336.900682 121.1625 
L 336.900682 234.736875 
Q 336.900682 236.536875 338.700682 236.536875 
z
" style="fill: #ffffff; opacity: 0.8; stroke: #cccccc; stroke-linejoin: miter"/>
    </g>
    <g id="line2d_21">
     <path d="M 340.500682 128.0925 
L 349.500682 128.0925 
L 358.500682 128.0925 
" style="fill: none; stroke-dasharray: 5.55,2.4; stroke-dashoffset: 0; stroke: #225e7c; stroke-width: 1.5"/>
    </g>
    <g id="text_15">
     <!-- $\hat u_{s,1}$ -->
     <g transform="translate(365.700682 131.2425) scale(0.09 -0.09)">
      <defs>
       <path id="DejaVuSans-302" d="M -1831 5119 
L -1369 5119 
L -603 3944 
L -1038 3944 
L -1600 4709 
L -2163 3944 
L -2597 3944 
L -1831 5119 
z
M -1600 3584 
L -1600 3584 
z
" transform="scale(0.015625)"/>
       <path id="DejaVuSans-Oblique-75" d="M 428 1388 
L 838 3500 
L 1416 3500 
L 1006 1409 
Q 975 1256 961 1147 
Q 947 1038 947 966 
Q 947 700 1109 554 
Q 1272 409 1569 409 
Q 2031 409 2368 721 
Q 2706 1034 2809 1563 
L 3194 3500 
L 3769 3500 
L 3091 0 
L 2516 0 
L 2631 550 
Q 2388 244 2052 76 
Q 1716 -91 1338 -91 
Q 878 -91 622 161 
Q 366 413 366 863 
Q 366 956 381 1097 
Q 397 1238 428 1388 
z
" transform="scale(0.015625)"/>
       <path id="DejaVuSans-Oblique-73" d="M 3200 3397 
L 3091 2853 
Q 2863 2978 2609 3040 
Q 2356 3103 2088 3103 
Q 1634 3103 1373 2948 
Q 1113 2794 1113 2528 
Q 1113 2219 1719 2053 
Q 1766 2041 1788 2034 
L 1972 1978 
Q 2547 1819 2739 1644 
Q 2931 1469 2931 1166 
Q 2931 609 2489 259 
Q 2047 -91 1331 -91 
Q 1053 -91 747 -37 
Q 441 16 72 128 
L 184 722 
Q 500 559 806 475 
Q 1113 391 1394 391 
Q 1816 391 2080 572 
Q 2344 753 2344 1031 
Q 2344 1331 1650 1516 
L 1591 1531 
L 1394 1581 
Q 956 1697 753 1886 
Q 550 2075 550 2369 
Q 550 2928 970 3256 
Q 1391 3584 2113 3584 
Q 2397 3584 2667 3537 
Q 2938 3491 3200 3397 
z
" transform="scale(0.015625)"/>
       <path id="DejaVuSans-2c" d="M 750 794 
L 1409 794 
L 1409 256 
L 897 -744 
L 494 -744 
L 750 256 
L 750 794 
z
" transform="scale(0.015625)"/>
      </defs>
      <use xlink:href="#DejaVuSans-302" transform="translate(57.871094 12.015625)"/>
      <use xlink:href="#DejaVuSans-Oblique-75" transform="translate(0 0.828125)"/>
      <use xlink:href="#DejaVuSans-Oblique-73" transform="translate(64.335938 -15.578125) scale(0.7)"/>
      <use xlink:href="#DejaVuSans-2c" transform="translate(100.805664 -15.578125) scale(0.7)"/>
      <use xlink:href="#DejaVuSans-31" transform="translate(136.694336 -15.578125) scale(0.7)"/>
     </g>
    </g>
    <g id="line2d_22">
     <path d="M 340.500682 141.681094 
L 349.500682 141.681094 
L 358.500682 141.681094 
" style="fill: none; stroke: #225e7c; stroke-width: 1.5; stroke-linecap: square"/>
    </g>
    <g id="text_16">
     <!-- $u_{s,1}$ -->
     <g transform="translate(365.700682 144.831094) scale(0.09 -0.09)">
      <use xlink:href="#DejaVuSans-Oblique-75" transform="translate(0 0.3125)"/>
      <use xlink:href="#DejaVuSans-Oblique-73" transform="translate(63.378906 -16.09375) scale(0.7)"/>
      <use xlink:href="#DejaVuSans-2c" transform="translate(99.848633 -16.09375) scale(0.7)"/>
      <use xlink:href="#DejaVuSans-31" transform="translate(135.737305 -16.09375) scale(0.7)"/>
     </g>
    </g>
    <g id="line2d_23">
     <path d="M 340.500682 156.711094 
L 349.500682 156.711094 
L 358.500682 156.711094 
" style="fill: none; stroke-dasharray: 5.55,2.4; stroke-dashoffset: 0; stroke: #3e915b; stroke-width: 1.5"/>
    </g>
    <g id="text_17">
     <!-- $\hat u_{s,2}$ -->
     <g transform="translate(365.700682 159.861094) scale(0.09 -0.09)">
      <use xlink:href="#DejaVuSans-302" transform="translate(57.871094 12.015625)"/>
      <use xlink:href="#DejaVuSans-Oblique-75" transform="translate(0 0.828125)"/>
      <use xlink:href="#DejaVuSans-Oblique-73" transform="translate(64.335938 -15.578125) scale(0.7)"/>
      <use xlink:href="#DejaVuSans-2c" transform="translate(100.805664 -15.578125) scale(0.7)"/>
      <use xlink:href="#DejaVuSans-32" transform="translate(136.694336 -15.578125) scale(0.7)"/>
     </g>
    </g>
    <g id="line2d_24">
     <path d="M 340.500682 170.299688 
L 349.500682 170.299688 
L 358.500682 170.299688 
" style="fill: none; stroke: #3e915b; stroke-width: 1.5; stroke-linecap: square"/>
    </g>
    <g id="text_18">
     <!-- $u_{s,2}$ -->
     <g transform="translate(365.700682 173.449688) scale(0.09 -0.09)">
      <use xlink:href="#DejaVuSans-Oblique-75" transform="translate(0 0.3125)"/>
      <use xlink:href="#DejaVuSans-Oblique-73" transform="translate(63.378906 -16.09375) scale(0.7)"/>
      <use xlink:href="#DejaVuSans-2c" transform="translate(99.848633 -16.09375) scale(0.7)"/>
      <use xlink:href="#DejaVuSans-32" transform="translate(135.737305 -16.09375) scale(0.7)"/>
     </g>
    </g>
    <g id="line2d_25">
     <path d="M 340.500682 185.329688 
L 349.500682 185.329688 
L 358.500682 185.329688 
" style="fill: none; stroke-dasharray: 5.55,2.4; stroke-dashoffset: 0; stroke: #8eac56; stroke-width: 1.5"/>
    </g>
    <g id="text_19">
     <!-- $\hat u_{s,3}$ -->
     <g transform="translate(365.700682 188.479688) scale(0.09 -0.09)">
      <defs>
       <path id="DejaVuSans-33" d="M 2597 2516 
Q 3050 2419 3304 2112 
Q 3559 1806 3559 1356 
Q 3559 666 3084 287 
Q 2609 -91 1734 -91 
Q 1441 -91 1130 -33 
Q 819 25 488 141 
L 488 750 
Q 750 597 1062 519 
Q 1375 441 1716 441 
Q 2309 441 2620 675 
Q 2931 909 2931 1356 
Q 2931 1769 2642 2001 
Q 2353 2234 1838 2234 
L 1294 2234 
L 1294 2753 
L 1863 2753 
Q 2328 2753 2575 2939 
Q 2822 3125 2822 3475 
Q 2822 3834 2567 4026 
Q 2313 4219 1838 4219 
Q 1578 4219 1281 4162 
Q 984 4106 628 3988 
L 628 4550 
Q 988 4650 1302 4700 
Q 1616 4750 1894 4750 
Q 2613 4750 3031 4423 
Q 3450 4097 3450 3541 
Q 3450 3153 3228 2886 
Q 3006 2619 2597 2516 
z
" transform="scale(0.015625)"/>
      </defs>
      <use xlink:href="#DejaVuSans-302" transform="translate(57.871094 12.015625)"/>
      <use xlink:href="#DejaVuSans-Oblique-75" transform="translate(0 0.828125)"/>
      <use xlink:href="#DejaVuSans-Oblique-73" transform="translate(64.335938 -15.578125) scale(0.7)"/>
      <use xlink:href="#DejaVuSans-2c" transform="translate(100.805664 -15.578125) scale(0.7)"/>
      <use xlink:href="#DejaVuSans-33" transform="translate(136.694336 -15.578125) scale(0.7)"/>
     </g>
    </g>
    <g id="line2d_26">
     <path d="M 340.500682 198.918281 
L 349.500682 198.918281 
L 358.500682 198.918281 
" style="fill: none; stroke: #8eac56; stroke-width: 1.5; stroke-linecap: square"/>
    </g>
    <g id="text_20">
     <!-- $u_{s,3}$ -->
     <g transform="translate(365.700682 202.068281) scale(0.09 -0.09)">
      <use xlink:href="#DejaVuSans-Oblique-75" transform="translate(0 0.3125)"/>
      <use xlink:href="#DejaVuSans-Oblique-73" transform="translate(63.378906 -16.09375) scale(0.7)"/>
      <use xlink:href="#DejaVuSans-2c" transform="translate(99.848633 -16.09375) scale(0.7)"/>
      <use xlink:href="#DejaVuSans-33" transform="translate(135.737305 -16.09375) scale(0.7)"/>
     </g>
    </g>
    <g id="line2d_27">
     <path d="M 340.500682 213.948281 
L 349.500682 213.948281 
L 358.500682 213.948281 
" style="fill: none; stroke-dasharray: 5.55,2.4; stroke-dashoffset: 0; stroke: #c4a46f; stroke-width: 1.5"/>
    </g>
    <g id="text_21">
     <!-- $\hat u_{s,4}$ -->
     <g transform="translate(365.700682 217.098281) scale(0.09 -0.09)">
      <defs>
       <path id="DejaVuSans-34" d="M 2419 4116 
L 825 1625 
L 2419 1625 
L 2419 4116 
z
M 2253 4666 
L 3047 4666 
L 3047 1625 
L 3713 1625 
L 3713 1100 
L 3047 1100 
L 3047 0 
L 2419 0 
L 2419 1100 
L 313 1100 
L 313 1709 
L 2253 4666 
z
" transform="scale(0.015625)"/>
      </defs>
      <use xlink:href="#DejaVuSans-302" transform="translate(57.871094 12.015625)"/>
      <use xlink:href="#DejaVuSans-Oblique-75" transform="translate(0 0.828125)"/>
      <use xlink:href="#DejaVuSans-Oblique-73" transform="translate(64.335938 -15.578125) scale(0.7)"/>
      <use xlink:href="#DejaVuSans-2c" transform="translate(100.805664 -15.578125) scale(0.7)"/>
      <use xlink:href="#DejaVuSans-34" transform="translate(136.694336 -15.578125) scale(0.7)"/>
     </g>
    </g>
    <g id="line2d_28">
     <path d="M 340.500682 227.536875 
L 349.500682 227.536875 
L 358.500682 227.536875 
" style="fill: none; stroke: #c4a46f; stroke-width: 1.5; stroke-linecap: square"/>
    </g>
    <g id="text_22">
     <!-- $u_{s,4}$ -->
     <g transform="translate(365.700682 230.686875) scale(0.09 -0.09)">
      <use xlink:href="#DejaVuSans-Oblique-75" transform="translate(0 0.3125)"/>
      <use xlink:href="#DejaVuSans-Oblique-73" transform="translate(63.378906 -16.09375) scale(0.7)"/>
      <use xlink:href="#DejaVuSans-2c" transform="translate(99.848633 -16.09375) scale(0.7)"/>
      <use xlink:href="#DejaVuSans-34" transform="translate(135.737305 -16.09375) scale(0.7)"/>
     </g>
    </g>
   </g>
  </g>
 </g>
 <defs>
  <clipPath id="p5f8ba5b90a">
   <rect x="56.923125" y="10.8" width="333.437557" height="230.236875"/>
  </clipPath>
 </defs>
</svg>
