<?xml version="1.0" encoding="utf-8" standalone="no"?>
<!DOCTYPE svg PUBLIC "-//W3C//DTD SVG 1.1//EN"
  "http://www.w3.org/Graphics/SVG/1.1/DTD/svg11.dtd">
<svg xmlns:xlink="http://www.w3.org/1999/xlink" width="414pt" height="288pt" viewBox="0 0 414 288" xmlns="http://www.w3.org/2000/svg" version="1.1">
 <metadata>
  <rdf:RDF xmlns:dc="http://purl.org/dc/elements/1.1/" xmlns:cc="http://creativecommons.org/ns#" xmlns:rdf="http://www.w3.org/1999/02/22-rdf-syntax-ns#">
   <cc:Work>
    <dc:type rdf:resource="http://purl.org/dc/dcmitype/StillImage"/>
    <dc:date>2023-09-07T00:35:55.488215</dc:date>
    <dc:format>image/svg+xml</dc:format>
    <dc:creator>
     <cc:Agent>
      <dc:title>Matplotlib v3.7.2, https://matplotlib.org/</dc:title>
     </cc:Agent>
    </dc:creator>
   </cc:Work>
  </rdf:RDF>
 </metadata>
 <defs>
  <style type="text/css">*{stroke-linejoin: round; stroke-linecap: butt}</style>
 </defs>
 <g id="figure_1">
  <g id="patch_1">
   <path d="M 0 288 
L 414 288 
L 414 0 
L 0 0 
L 0 288 
z
" style="fill: none"/>
  </g>
  <g id="axes_1">
   <g id="patch_2">
    <path d="M 80.7325 241.036875 
L 403.2 241.036875 
L 403.2 10.8 
L 80.7325 10.8 
L 80.7325 241.036875 
z
" style="fill: none"/>
   </g>
   <g id="matplotlib.axis_1">
    <g id="xtick_1">
     <g id="line2d_1">
      <defs>
       <path id="m703a915c3c" d="M 0 0 
L 0 3.5 
" style="stroke: #000000; stroke-width: 0.8"/>
      </defs>
      <g>
       <use xlink:href="#m703a915c3c" x="95.390114" y="241.036875" style="stroke: #000000; stroke-width: 0.8"/>
      </g>
     </g>
     <g id="text_1">
      <!-- 0 -->
      <g transform="translate(90.300114 260.194375) scale(0.16 -0.16)">
       <defs>
        <path id="DejaVuSans-30" d="M 2034 4250 
Q 1547 4250 1301 3770 
Q 1056 3291 1056 2328 
Q 1056 1369 1301 889 
Q 1547 409 2034 409 
Q 2525 409 2770 889 
Q 3016 1369 3016 2328 
Q 3016 3291 2770 3770 
Q 2525 4250 2034 4250 
z
M 2034 4750 
Q 2819 4750 3233 4129 
Q 3647 3509 3647 2328 
Q 3647 1150 3233 529 
Q 2819 -91 2034 -91 
Q 1250 -91 836 529 
Q 422 1150 422 2328 
Q 422 3509 836 4129 
Q 1250 4750 2034 4750 
z
" transform="scale(0.015625)"/>
       </defs>
       <use xlink:href="#DejaVuSans-30"/>
      </g>
     </g>
    </g>
    <g id="xtick_2">
     <g id="line2d_2">
      <g>
       <use xlink:href="#m703a915c3c" x="168.806661" y="241.036875" style="stroke: #000000; stroke-width: 0.8"/>
      </g>
     </g>
     <g id="text_2">
      <!-- 10 -->
      <g transform="translate(158.626661 260.194375) scale(0.16 -0.16)">
       <defs>
        <path id="DejaVuSans-31" d="M 794 531 
L 1825 531 
L 1825 4091 
L 703 3866 
L 703 4441 
L 1819 4666 
L 2450 4666 
L 2450 531 
L 3481 531 
L 3481 0 
L 794 0 
L 794 531 
z
" transform="scale(0.015625)"/>
       </defs>
       <use xlink:href="#DejaVuSans-31"/>
       <use xlink:href="#DejaVuSans-30" x="63.623047"/>
      </g>
     </g>
    </g>
    <g id="xtick_3">
     <g id="line2d_3">
      <g>
       <use xlink:href="#m703a915c3c" x="242.223208" y="241.036875" style="stroke: #000000; stroke-width: 0.8"/>
      </g>
     </g>
     <g id="text_3">
      <!-- 20 -->
      <g transform="translate(232.043208 260.194375) scale(0.16 -0.16)">
       <defs>
        <path id="DejaVuSans-32" d="M 1228 531 
L 3431 531 
L 3431 0 
L 469 0 
L 469 531 
Q 828 903 1448 1529 
Q 2069 2156 2228 2338 
Q 2531 2678 2651 2914 
Q 2772 3150 2772 3378 
Q 2772 3750 2511 3984 
Q 2250 4219 1831 4219 
Q 1534 4219 1204 4116 
Q 875 4013 500 3803 
L 500 4441 
Q 881 4594 1212 4672 
Q 1544 4750 1819 4750 
Q 2544 4750 2975 4387 
Q 3406 4025 3406 3419 
Q 3406 3131 3298 2873 
Q 3191 2616 2906 2266 
Q 2828 2175 2409 1742 
Q 1991 1309 1228 531 
z
" transform="scale(0.015625)"/>
       </defs>
       <use xlink:href="#DejaVuSans-32"/>
       <use xlink:href="#DejaVuSans-30" x="63.623047"/>
      </g>
     </g>
    </g>
    <g id="xtick_4">
     <g id="line2d_4">
      <g>
       <use xlink:href="#m703a915c3c" x="315.639755" y="241.036875" style="stroke: #000000; stroke-width: 0.8"/>
      </g>
     </g>
     <g id="text_4">
      <!-- 30 -->
      <g transform="translate(305.459755 260.194375) scale(0.16 -0.16)">
       <defs>
        <path id="DejaVuSans-33" d="M 2597 2516 
Q 3050 2419 3304 2112 
Q 3559 1806 3559 1356 
Q 3559 666 3084 287 
Q 2609 -91 1734 -91 
Q 1441 -91 1130 -33 
Q 819 25 488 141 
L 488 750 
Q 750 597 1062 519 
Q 1375 441 1716 441 
Q 2309 441 2620 675 
Q 2931 909 2931 1356 
Q 2931 1769 2642 2001 
Q 2353 2234 1838 2234 
L 1294 2234 
L 1294 2753 
L 1863 2753 
Q 2328 2753 2575 2939 
Q 2822 3125 2822 3475 
Q 2822 3834 2567 4026 
Q 2313 4219 1838 4219 
Q 1578 4219 1281 4162 
Q 984 4106 628 3988 
L 628 4550 
Q 988 4650 1302 4700 
Q 1616 4750 1894 4750 
Q 2613 4750 3031 4423 
Q 3450 4097 3450 3541 
Q 3450 3153 3228 2886 
Q 3006 2619 2597 2516 
z
" transform="scale(0.015625)"/>
       </defs>
       <use xlink:href="#DejaVuSans-33"/>
       <use xlink:href="#DejaVuSans-30" x="63.623047"/>
      </g>
     </g>
    </g>
    <g id="xtick_5">
     <g id="line2d_5">
      <g>
       <use xlink:href="#m703a915c3c" x="389.056302" y="241.036875" style="stroke: #000000; stroke-width: 0.8"/>
      </g>
     </g>
     <g id="text_5">
      <!-- 40 -->
      <g transform="translate(378.876302 260.194375) scale(0.16 -0.16)">
       <defs>
        <path id="DejaVuSans-34" d="M 2419 4116 
L 825 1625 
L 2419 1625 
L 2419 4116 
z
M 2253 4666 
L 3047 4666 
L 3047 1625 
L 3713 1625 
L 3713 1100 
L 3047 1100 
L 3047 0 
L 2419 0 
L 2419 1100 
L 313 1100 
L 313 1709 
L 2253 4666 
z
" transform="scale(0.015625)"/>
       </defs>
       <use xlink:href="#DejaVuSans-34"/>
       <use xlink:href="#DejaVuSans-30" x="63.623047"/>
      </g>
     </g>
    </g>
    <g id="text_6">
     <!-- Time [min] -->
     <g transform="translate(214.813906 275.120313) scale(0.1 -0.1)">
      <defs>
       <path id="DejaVuSans-54" d="M -19 4666 
L 3928 4666 
L 3928 4134 
L 2272 4134 
L 2272 0 
L 1638 0 
L 1638 4134 
L -19 4134 
L -19 4666 
z
" transform="scale(0.015625)"/>
       <path id="DejaVuSans-69" d="M 603 3500 
L 1178 3500 
L 1178 0 
L 603 0 
L 603 3500 
z
M 603 4863 
L 1178 4863 
L 1178 4134 
L 603 4134 
L 603 4863 
z
" transform="scale(0.015625)"/>
       <path id="DejaVuSans-6d" d="M 3328 2828 
Q 3544 3216 3844 3400 
Q 4144 3584 4550 3584 
Q 5097 3584 5394 3201 
Q 5691 2819 5691 2113 
L 5691 0 
L 5113 0 
L 5113 2094 
Q 5113 2597 4934 2840 
Q 4756 3084 4391 3084 
Q 3944 3084 3684 2787 
Q 3425 2491 3425 1978 
L 3425 0 
L 2847 0 
L 2847 2094 
Q 2847 2600 2669 2842 
Q 2491 3084 2119 3084 
Q 1678 3084 1418 2786 
Q 1159 2488 1159 1978 
L 1159 0 
L 581 0 
L 581 3500 
L 1159 3500 
L 1159 2956 
Q 1356 3278 1631 3431 
Q 1906 3584 2284 3584 
Q 2666 3584 2933 3390 
Q 3200 3197 3328 2828 
z
" transform="scale(0.015625)"/>
       <path id="DejaVuSans-65" d="M 3597 1894 
L 3597 1613 
L 953 1613 
Q 991 1019 1311 708 
Q 1631 397 2203 397 
Q 2534 397 2845 478 
Q 3156 559 3463 722 
L 3463 178 
Q 3153 47 2828 -22 
Q 2503 -91 2169 -91 
Q 1331 -91 842 396 
Q 353 884 353 1716 
Q 353 2575 817 3079 
Q 1281 3584 2069 3584 
Q 2775 3584 3186 3129 
Q 3597 2675 3597 1894 
z
M 3022 2063 
Q 3016 2534 2758 2815 
Q 2500 3097 2075 3097 
Q 1594 3097 1305 2825 
Q 1016 2553 972 2059 
L 3022 2063 
z
" transform="scale(0.015625)"/>
       <path id="DejaVuSans-20" transform="scale(0.015625)"/>
       <path id="DejaVuSans-5b" d="M 550 4863 
L 1875 4863 
L 1875 4416 
L 1125 4416 
L 1125 -397 
L 1875 -397 
L 1875 -844 
L 550 -844 
L 550 4863 
z
" transform="scale(0.015625)"/>
       <path id="DejaVuSans-6e" d="M 3513 2113 
L 3513 0 
L 2938 0 
L 2938 2094 
Q 2938 2591 2744 2837 
Q 2550 3084 2163 3084 
Q 1697 3084 1428 2787 
Q 1159 2491 1159 1978 
L 1159 0 
L 581 0 
L 581 3500 
L 1159 3500 
L 1159 2956 
Q 1366 3272 1645 3428 
Q 1925 3584 2291 3584 
Q 2894 3584 3203 3211 
Q 3513 2838 3513 2113 
z
" transform="scale(0.015625)"/>
       <path id="DejaVuSans-5d" d="M 1947 4863 
L 1947 -844 
L 622 -844 
L 622 -397 
L 1369 -397 
L 1369 4416 
L 622 4416 
L 622 4863 
L 1947 4863 
z
" transform="scale(0.015625)"/>
      </defs>
      <use xlink:href="#DejaVuSans-54"/>
      <use xlink:href="#DejaVuSans-69" x="57.958984"/>
      <use xlink:href="#DejaVuSans-6d" x="85.742188"/>
      <use xlink:href="#DejaVuSans-65" x="183.154297"/>
      <use xlink:href="#DejaVuSans-20" x="244.677734"/>
      <use xlink:href="#DejaVuSans-5b" x="276.464844"/>
      <use xlink:href="#DejaVuSans-6d" x="315.478516"/>
      <use xlink:href="#DejaVuSans-69" x="412.890625"/>
      <use xlink:href="#DejaVuSans-6e" x="440.673828"/>
      <use xlink:href="#DejaVuSans-5d" x="504.052734"/>
     </g>
    </g>
   </g>
   <g id="matplotlib.axis_2">
    <g id="ytick_1">
     <g id="line2d_6">
      <defs>
       <path id="m07bcef9caa" d="M 0 0 
L -3.5 0 
" style="stroke: #000000; stroke-width: 0.8"/>
      </defs>
      <g>
       <use xlink:href="#m07bcef9caa" x="80.7325" y="211.932722" style="stroke: #000000; stroke-width: 0.8"/>
      </g>
     </g>
     <g id="text_7">
      <!-- −0.4 -->
      <g transform="translate(34.88 218.011472) scale(0.16 -0.16)">
       <defs>
        <path id="DejaVuSans-2212" d="M 678 2272 
L 4684 2272 
L 4684 1741 
L 678 1741 
L 678 2272 
z
" transform="scale(0.015625)"/>
        <path id="DejaVuSans-2e" d="M 684 794 
L 1344 794 
L 1344 0 
L 684 0 
L 684 794 
z
" transform="scale(0.015625)"/>
       </defs>
       <use xlink:href="#DejaVuSans-2212"/>
       <use xlink:href="#DejaVuSans-30" x="83.789062"/>
       <use xlink:href="#DejaVuSans-2e" x="147.412109"/>
       <use xlink:href="#DejaVuSans-34" x="179.199219"/>
      </g>
     </g>
    </g>
    <g id="ytick_2">
     <g id="line2d_7">
      <g>
       <use xlink:href="#m07bcef9caa" x="80.7325" y="174.384293" style="stroke: #000000; stroke-width: 0.8"/>
      </g>
     </g>
     <g id="text_8">
      <!-- −0.2 -->
      <g transform="translate(34.88 180.463043) scale(0.16 -0.16)">
       <use xlink:href="#DejaVuSans-2212"/>
       <use xlink:href="#DejaVuSans-30" x="83.789062"/>
       <use xlink:href="#DejaVuSans-2e" x="147.412109"/>
       <use xlink:href="#DejaVuSans-32" x="179.199219"/>
      </g>
     </g>
    </g>
    <g id="ytick_3">
     <g id="line2d_8">
      <g>
       <use xlink:href="#m07bcef9caa" x="80.7325" y="136.835865" style="stroke: #000000; stroke-width: 0.8"/>
      </g>
     </g>
     <g id="text_9">
      <!-- 0.0 -->
      <g transform="translate(48.2875 142.914615) scale(0.16 -0.16)">
       <use xlink:href="#DejaVuSans-30"/>
       <use xlink:href="#DejaVuSans-2e" x="63.623047"/>
       <use xlink:href="#DejaVuSans-30" x="95.410156"/>
      </g>
     </g>
    </g>
    <g id="ytick_4">
     <g id="line2d_9">
      <g>
       <use xlink:href="#m07bcef9caa" x="80.7325" y="99.287436" style="stroke: #000000; stroke-width: 0.8"/>
      </g>
     </g>
     <g id="text_10">
      <!-- 0.2 -->
      <g transform="translate(48.2875 105.366186) scale(0.16 -0.16)">
       <use xlink:href="#DejaVuSans-30"/>
       <use xlink:href="#DejaVuSans-2e" x="63.623047"/>
       <use xlink:href="#DejaVuSans-32" x="95.410156"/>
      </g>
     </g>
    </g>
    <g id="ytick_5">
     <g id="line2d_10">
      <g>
       <use xlink:href="#m07bcef9caa" x="80.7325" y="61.739008" style="stroke: #000000; stroke-width: 0.8"/>
      </g>
     </g>
     <g id="text_11">
      <!-- 0.4 -->
      <g transform="translate(48.2875 67.817758) scale(0.16 -0.16)">
       <use xlink:href="#DejaVuSans-30"/>
       <use xlink:href="#DejaVuSans-2e" x="63.623047"/>
       <use xlink:href="#DejaVuSans-34" x="95.410156"/>
      </g>
     </g>
    </g>
    <g id="ytick_6">
     <g id="line2d_11">
      <g>
       <use xlink:href="#m07bcef9caa" x="80.7325" y="24.19058" style="stroke: #000000; stroke-width: 0.8"/>
      </g>
     </g>
     <g id="text_12">
      <!-- 0.6 -->
      <g transform="translate(48.2875 30.26933) scale(0.16 -0.16)">
       <defs>
        <path id="DejaVuSans-36" d="M 2113 2584 
Q 1688 2584 1439 2293 
Q 1191 2003 1191 1497 
Q 1191 994 1439 701 
Q 1688 409 2113 409 
Q 2538 409 2786 701 
Q 3034 994 3034 1497 
Q 3034 2003 2786 2293 
Q 2538 2584 2113 2584 
z
M 3366 4563 
L 3366 3988 
Q 3128 4100 2886 4159 
Q 2644 4219 2406 4219 
Q 1781 4219 1451 3797 
Q 1122 3375 1075 2522 
Q 1259 2794 1537 2939 
Q 1816 3084 2150 3084 
Q 2853 3084 3261 2657 
Q 3669 2231 3669 1497 
Q 3669 778 3244 343 
Q 2819 -91 2113 -91 
Q 1303 -91 875 529 
Q 447 1150 447 2328 
Q 447 3434 972 4092 
Q 1497 4750 2381 4750 
Q 2619 4750 2861 4703 
Q 3103 4656 3366 4563 
z
" transform="scale(0.015625)"/>
       </defs>
       <use xlink:href="#DejaVuSans-30"/>
       <use xlink:href="#DejaVuSans-2e" x="63.623047"/>
       <use xlink:href="#DejaVuSans-36" x="95.410156"/>
      </g>
     </g>
    </g>
    <g id="text_13">
     <!-- Attitude Error $\sigma_{B/R}$ -->
     <g transform="translate(28.58 170.868437) rotate(-90) scale(0.1 -0.1)">
      <defs>
       <path id="DejaVuSans-41" d="M 2188 4044 
L 1331 1722 
L 3047 1722 
L 2188 4044 
z
M 1831 4666 
L 2547 4666 
L 4325 0 
L 3669 0 
L 3244 1197 
L 1141 1197 
L 716 0 
L 50 0 
L 1831 4666 
z
" transform="scale(0.015625)"/>
       <path id="DejaVuSans-74" d="M 1172 4494 
L 1172 3500 
L 2356 3500 
L 2356 3053 
L 1172 3053 
L 1172 1153 
Q 1172 725 1289 603 
Q 1406 481 1766 481 
L 2356 481 
L 2356 0 
L 1766 0 
Q 1100 0 847 248 
Q 594 497 594 1153 
L 594 3053 
L 172 3053 
L 172 3500 
L 594 3500 
L 594 4494 
L 1172 4494 
z
" transform="scale(0.015625)"/>
       <path id="DejaVuSans-75" d="M 544 1381 
L 544 3500 
L 1119 3500 
L 1119 1403 
Q 1119 906 1312 657 
Q 1506 409 1894 409 
Q 2359 409 2629 706 
Q 2900 1003 2900 1516 
L 2900 3500 
L 3475 3500 
L 3475 0 
L 2900 0 
L 2900 538 
Q 2691 219 2414 64 
Q 2138 -91 1772 -91 
Q 1169 -91 856 284 
Q 544 659 544 1381 
z
M 1991 3584 
L 1991 3584 
z
" transform="scale(0.015625)"/>
       <path id="DejaVuSans-64" d="M 2906 2969 
L 2906 4863 
L 3481 4863 
L 3481 0 
L 2906 0 
L 2906 525 
Q 2725 213 2448 61 
Q 2172 -91 1784 -91 
Q 1150 -91 751 415 
Q 353 922 353 1747 
Q 353 2572 751 3078 
Q 1150 3584 1784 3584 
Q 2172 3584 2448 3432 
Q 2725 3281 2906 2969 
z
M 947 1747 
Q 947 1113 1208 752 
Q 1469 391 1925 391 
Q 2381 391 2643 752 
Q 2906 1113 2906 1747 
Q 2906 2381 2643 2742 
Q 2381 3103 1925 3103 
Q 1469 3103 1208 2742 
Q 947 2381 947 1747 
z
" transform="scale(0.015625)"/>
       <path id="DejaVuSans-45" d="M 628 4666 
L 3578 4666 
L 3578 4134 
L 1259 4134 
L 1259 2753 
L 3481 2753 
L 3481 2222 
L 1259 2222 
L 1259 531 
L 3634 531 
L 3634 0 
L 628 0 
L 628 4666 
z
" transform="scale(0.015625)"/>
       <path id="DejaVuSans-72" d="M 2631 2963 
Q 2534 3019 2420 3045 
Q 2306 3072 2169 3072 
Q 1681 3072 1420 2755 
Q 1159 2438 1159 1844 
L 1159 0 
L 581 0 
L 581 3500 
L 1159 3500 
L 1159 2956 
Q 1341 3275 1631 3429 
Q 1922 3584 2338 3584 
Q 2397 3584 2469 3576 
Q 2541 3569 2628 3553 
L 2631 2963 
z
" transform="scale(0.015625)"/>
       <path id="DejaVuSans-6f" d="M 1959 3097 
Q 1497 3097 1228 2736 
Q 959 2375 959 1747 
Q 959 1119 1226 758 
Q 1494 397 1959 397 
Q 2419 397 2687 759 
Q 2956 1122 2956 1747 
Q 2956 2369 2687 2733 
Q 2419 3097 1959 3097 
z
M 1959 3584 
Q 2709 3584 3137 3096 
Q 3566 2609 3566 1747 
Q 3566 888 3137 398 
Q 2709 -91 1959 -91 
Q 1206 -91 779 398 
Q 353 888 353 1747 
Q 353 2609 779 3096 
Q 1206 3584 1959 3584 
z
" transform="scale(0.015625)"/>
       <path id="DejaVuSans-Oblique-3c3" d="M 2219 3044 
Q 1744 3044 1422 2700 
Q 1081 2341 969 1747 
Q 844 1119 1044 756 
Q 1241 397 1706 397 
Q 2166 397 2503 759 
Q 2844 1122 2966 1747 
Q 3075 2319 2881 2700 
Q 2700 3044 2219 3044 
z
M 2309 3503 
L 4219 3500 
L 4106 2925 
L 3463 2925 
Q 3706 2438 3575 1747 
Q 3406 888 2884 400 
Q 2359 -91 1609 -91 
Q 856 -91 525 400 
Q 194 888 363 1747 
Q 528 2609 1050 3097 
Q 1484 3503 2309 3503 
z
" transform="scale(0.015625)"/>
       <path id="DejaVuSans-Oblique-42" d="M 1081 4666 
L 2694 4666 
Q 3350 4666 3675 4422 
Q 4000 4178 4000 3688 
Q 4000 3238 3720 2911 
Q 3441 2584 2988 2516 
Q 3375 2428 3569 2181 
Q 3763 1934 3763 1522 
Q 3763 819 3242 409 
Q 2722 0 1819 0 
L 172 0 
L 1081 4666 
z
M 1234 2228 
L 903 519 
L 1919 519 
Q 2491 519 2800 781 
Q 3109 1044 3109 1522 
Q 3109 1891 2904 2059 
Q 2700 2228 2247 2228 
L 1234 2228 
z
M 1606 4147 
L 1331 2741 
L 2272 2741 
Q 2775 2741 3058 2959 
Q 3341 3178 3341 3566 
Q 3341 3869 3150 4008 
Q 2959 4147 2541 4147 
L 1606 4147 
z
" transform="scale(0.015625)"/>
       <path id="DejaVuSans-2f" d="M 1625 4666 
L 2156 4666 
L 531 -594 
L 0 -594 
L 1625 4666 
z
" transform="scale(0.015625)"/>
       <path id="DejaVuSans-Oblique-52" d="M 1613 4147 
L 1294 2491 
L 2106 2491 
Q 2584 2491 2879 2755 
Q 3175 3019 3175 3444 
Q 3175 3784 2976 3965 
Q 2778 4147 2406 4147 
L 1613 4147 
z
M 2772 2241 
Q 2972 2194 3105 2009 
Q 3238 1825 3413 1275 
L 3809 0 
L 3144 0 
L 2778 1197 
Q 2638 1659 2453 1815 
Q 2269 1972 1888 1972 
L 1191 1972 
L 806 0 
L 172 0 
L 1081 4666 
L 2503 4666 
Q 3150 4666 3495 4373 
Q 3841 4081 3841 3531 
Q 3841 3044 3547 2687 
Q 3253 2331 2772 2241 
z
" transform="scale(0.015625)"/>
      </defs>
      <use xlink:href="#DejaVuSans-41" transform="translate(0 0.015625)"/>
      <use xlink:href="#DejaVuSans-74" transform="translate(68.408203 0.015625)"/>
      <use xlink:href="#DejaVuSans-74" transform="translate(107.617188 0.015625)"/>
      <use xlink:href="#DejaVuSans-69" transform="translate(146.826172 0.015625)"/>
      <use xlink:href="#DejaVuSans-74" transform="translate(174.609375 0.015625)"/>
      <use xlink:href="#DejaVuSans-75" transform="translate(213.818359 0.015625)"/>
      <use xlink:href="#DejaVuSans-64" transform="translate(277.197266 0.015625)"/>
      <use xlink:href="#DejaVuSans-65" transform="translate(340.673828 0.015625)"/>
      <use xlink:href="#DejaVuSans-20" transform="translate(402.197266 0.015625)"/>
      <use xlink:href="#DejaVuSans-45" transform="translate(433.984375 0.015625)"/>
      <use xlink:href="#DejaVuSans-72" transform="translate(497.167969 0.015625)"/>
      <use xlink:href="#DejaVuSans-72" transform="translate(538.28125 0.015625)"/>
      <use xlink:href="#DejaVuSans-6f" transform="translate(579.394531 0.015625)"/>
      <use xlink:href="#DejaVuSans-72" transform="translate(640.576172 0.015625)"/>
      <use xlink:href="#DejaVuSans-20" transform="translate(681.689453 0.015625)"/>
      <use xlink:href="#DejaVuSans-Oblique-3c3" transform="translate(713.476562 0.015625)"/>
      <use xlink:href="#DejaVuSans-Oblique-42" transform="translate(776.855469 -16.390625) scale(0.7)"/>
      <use xlink:href="#DejaVuSans-2f" transform="translate(824.87793 -16.390625) scale(0.7)"/>
      <use xlink:href="#DejaVuSans-Oblique-52" transform="translate(847.236914 -16.390625) scale(0.7)"/>
     </g>
    </g>
   </g>
   <g id="line2d_12">
    <path d="M 95.390114 127.759851 
L 98.351248 127.920169 
L 101.312382 129.322038 
L 104.273516 130.098432 
L 107.23465 130.512332 
L 110.195784 132.142794 
L 113.156918 133.313431 
L 116.118052 134.608249 
L 119.079186 136.255285 
L 122.04032 137.575292 
L 125.001454 138.348961 
L 127.962588 138.433469 
L 130.923722 137.985339 
L 133.884857 137.361727 
L 136.845991 136.859763 
L 139.807125 136.601641 
L 142.768259 136.560329 
L 145.729393 136.640605 
L 148.690527 136.749807 
L 151.651661 136.832357 
L 154.612795 136.871873 
L 157.573929 136.876797 
L 160.535063 136.863974 
L 163.496197 136.847778 
L 166.457331 136.836038 
L 169.418465 136.830662 
L 172.379599 136.83015 
L 175.340733 136.832022 
L 178.301868 136.834278 
L 181.263002 136.835874 
L 184.224136 136.836586 
L 187.18527 136.83664 
L 190.146404 136.836378 
L 193.107538 136.836072 
L 196.068672 136.835858 
L 199.029806 136.835764 
L 201.99094 136.835758 
L 204.952074 136.835794 
L 207.913208 136.835835 
L 210.874342 136.835864 
L 213.835476 136.835876 
L 216.79661 136.835877 
L 219.757744 136.835872 
L 222.718879 136.835866 
L 225.680013 136.835863 
L 228.641147 136.835861 
L 231.602281 136.835861 
L 234.563415 136.835862 
L 237.524549 136.835862 
L 240.485683 136.835863 
L 243.446817 136.835863 
L 246.407951 136.835863 
L 249.369085 136.835863 
L 252.330219 136.835863 
L 255.291353 136.835863 
L 258.252487 136.835863 
L 261.213621 136.835863 
L 264.174756 136.835863 
L 267.13589 136.835863 
L 270.097024 136.835863 
L 273.058158 136.835863 
L 276.019292 136.835863 
L 278.980426 136.835863 
L 281.94156 136.835863 
L 284.902694 136.835863 
L 287.863828 136.835863 
L 290.824962 136.835863 
L 293.786096 136.835863 
L 296.74723 136.835863 
L 299.708364 136.835863 
L 302.669498 136.835863 
L 305.630632 136.835863 
L 308.591767 136.835863 
L 311.552901 136.835863 
L 314.514035 136.835863 
L 317.475169 136.835863 
L 320.436303 136.835863 
L 323.397437 136.835863 
L 326.358571 136.835863 
L 329.319705 136.835863 
L 332.280839 136.835863 
L 335.241973 136.835863 
L 338.203107 136.835863 
L 341.164241 136.835863 
L 344.125375 136.835864 
L 347.086509 136.835864 
L 350.047643 136.835864 
L 353.008778 136.835864 
L 355.969912 136.835864 
L 358.931046 136.835864 
L 361.89218 136.835864 
L 364.853314 136.835864 
L 367.814448 136.835864 
L 370.775582 136.835864 
L 373.736716 136.835864 
L 376.69785 136.835864 
L 379.658984 136.835864 
L 382.620118 136.835864 
L 385.581252 136.835864 
L 388.542386 136.835864 
" clip-path="url(#pc4d70e8e6c)" style="fill: none; stroke: #2b737e; stroke-width: 1.5; stroke-linecap: square"/>
   </g>
   <g id="line2d_13">
    <path d="M 95.390114 230.571562 
L 98.351248 226.431043 
L 101.312382 214.276468 
L 104.273516 194.644943 
L 107.23465 170.272207 
L 110.195784 148.520685 
L 113.156918 134.613356 
L 116.118052 128.245204 
L 119.079186 128.549299 
L 122.04032 131.805054 
L 125.001454 134.825113 
L 127.962588 136.631848 
L 130.923722 137.362878 
L 133.884857 137.448668 
L 136.845991 137.265048 
L 139.807125 137.042545 
L 142.768259 136.88225 
L 145.729393 136.802548 
L 148.690527 136.783127 
L 151.651661 136.794809 
L 154.612795 136.814716 
L 157.573929 136.830555 
L 160.535063 136.838821 
L 163.496197 136.840926 
L 166.457331 136.839779 
L 169.418465 136.837798 
L 172.379599 136.836271 
L 175.340733 136.835529 
L 178.301868 136.835387 
L 181.263002 136.835531 
L 184.224136 136.835724 
L 187.18527 136.835854 
L 190.146404 136.835905 
L 193.107538 136.835905 
L 196.068672 136.835886 
L 199.029806 136.835869 
L 201.99094 136.835861 
L 204.952074 136.83586 
L 207.913208 136.835862 
L 210.874342 136.835865 
L 213.835476 136.835866 
L 216.79661 136.835866 
L 219.757744 136.835865 
L 222.718879 136.835865 
L 225.680013 136.835864 
L 228.641147 136.835864 
L 231.602281 136.835865 
L 234.563415 136.835865 
L 237.524549 136.835865 
L 240.485683 136.835865 
L 243.446817 136.835865 
L 246.407951 136.835865 
L 249.369085 136.835865 
L 252.330219 136.835865 
L 255.291353 136.835865 
L 258.252487 136.835865 
L 261.213621 136.835865 
L 264.174756 136.835865 
L 267.13589 136.835865 
L 270.097024 136.835865 
L 273.058158 136.835865 
L 276.019292 136.835865 
L 278.980426 136.835865 
L 281.94156 136.835865 
L 284.902694 136.835865 
L 287.863828 136.835865 
L 290.824962 136.835865 
L 293.786096 136.835865 
L 296.74723 136.835865 
L 299.708364 136.835865 
L 302.669498 136.835865 
L 305.630632 136.835865 
L 308.591767 136.835865 
L 311.552901 136.835865 
L 314.514035 136.835865 
L 317.475169 136.835865 
L 320.436303 136.835865 
L 323.397437 136.835865 
L 326.358571 136.835865 
L 329.319705 136.835865 
L 332.280839 136.835865 
L 335.241973 136.835865 
L 338.203107 136.835865 
L 341.164241 136.835865 
L 344.125375 136.835865 
L 347.086509 136.835865 
L 350.047643 136.835865 
L 353.008778 136.835865 
L 355.969912 136.835865 
L 358.931046 136.835865 
L 361.89218 136.835865 
L 364.853314 136.835865 
L 367.814448 136.835865 
L 370.775582 136.835865 
L 373.736716 136.835865 
L 376.69785 136.835865 
L 379.658984 136.835865 
L 382.620118 136.835865 
L 385.581252 136.835865 
L 388.542386 136.835865 
" clip-path="url(#pc4d70e8e6c)" style="fill: none; stroke: #5ea04b; stroke-width: 1.5; stroke-linecap: square"/>
   </g>
   <g id="line2d_14">
    <path d="M 95.390114 21.265312 
L 98.351248 30.687517 
L 101.312382 53.690647 
L 104.273516 84.445733 
L 107.23465 116.311046 
L 110.195784 139.406537 
L 113.156918 154.447573 
L 116.118052 161.182582 
L 119.079186 158.998637 
L 122.04032 149.442048 
L 125.001454 140.703242 
L 127.962588 136.235258 
L 130.923722 135.117089 
L 133.884857 135.534724 
L 136.845991 136.235718 
L 139.807125 136.712797 
L 142.768259 136.913504 
L 145.729393 136.944202 
L 148.690527 136.910413 
L 151.651661 136.870806 
L 154.612795 136.845027 
L 157.573929 136.833242 
L 160.535063 136.830083 
L 163.496197 136.830804 
L 166.457331 136.832638 
L 169.418465 136.834342 
L 172.379599 136.835512 
L 175.340733 136.836127 
L 178.301868 136.836321 
L 181.263002 136.836265 
L 184.224136 136.836111 
L 187.18527 136.835959 
L 190.146404 136.835859 
L 193.107538 136.835815 
L 196.068672 136.835812 
L 199.029806 136.835829 
L 201.99094 136.83585 
L 204.952074 136.835864 
L 207.913208 136.835871 
L 210.874342 136.835872 
L 213.835476 136.83587 
L 216.79661 136.835868 
L 219.757744 136.835866 
L 222.718879 136.835865 
L 225.680013 136.835865 
L 228.641147 136.835865 
L 231.602281 136.835865 
L 234.563415 136.835865 
L 237.524549 136.835866 
L 240.485683 136.835866 
L 243.446817 136.835866 
L 246.407951 136.835866 
L 249.369085 136.835866 
L 252.330219 136.835866 
L 255.291353 136.835866 
L 258.252487 136.835866 
L 261.213621 136.835866 
L 264.174756 136.835866 
L 267.13589 136.835866 
L 270.097024 136.835866 
L 273.058158 136.835866 
L 276.019292 136.835866 
L 278.980426 136.835866 
L 281.94156 136.835866 
L 284.902694 136.835866 
L 287.863828 136.835866 
L 290.824962 136.835866 
L 293.786096 136.835866 
L 296.74723 136.835866 
L 299.708364 136.835866 
L 302.669498 136.835866 
L 305.630632 136.835866 
L 308.591767 136.835866 
L 311.552901 136.835866 
L 314.514035 136.835866 
L 317.475169 136.835866 
L 320.436303 136.835866 
L 323.397437 136.835866 
L 326.358571 136.835866 
L 329.319705 136.835866 
L 332.280839 136.835866 
L 335.241973 136.835866 
L 338.203107 136.835866 
L 341.164241 136.835866 
L 344.125375 136.835866 
L 347.086509 136.835866 
L 350.047643 136.835867 
L 353.008778 136.835867 
L 355.969912 136.835867 
L 358.931046 136.835867 
L 361.89218 136.835867 
L 364.853314 136.835867 
L 367.814448 136.835867 
L 370.775582 136.835867 
L 373.736716 136.835867 
L 376.69785 136.835867 
L 379.658984 136.835867 
L 382.620118 136.835867 
L 385.581252 136.835867 
L 388.542386 136.835867 
" clip-path="url(#pc4d70e8e6c)" style="fill: none; stroke: #bdab62; stroke-width: 1.5; stroke-linecap: square"/>
   </g>
   <g id="patch_3">
    <path d="M 80.7325 241.036875 
L 80.7325 10.8 
" style="fill: none; stroke: #000000; stroke-width: 0.8; stroke-linejoin: miter; stroke-linecap: square"/>
   </g>
   <g id="patch_4">
    <path d="M 403.2 241.036875 
L 403.2 10.8 
" style="fill: none; stroke: #000000; stroke-width: 0.8; stroke-linejoin: miter; stroke-linecap: square"/>
   </g>
   <g id="patch_5">
    <path d="M 80.7325 241.036875 
L 403.2 241.036875 
" style="fill: none; stroke: #000000; stroke-width: 0.8; stroke-linejoin: miter; stroke-linecap: square"/>
   </g>
   <g id="patch_6">
    <path d="M 80.7325 10.8 
L 403.2 10.8 
" style="fill: none; stroke: #000000; stroke-width: 0.8; stroke-linejoin: miter; stroke-linecap: square"/>
   </g>
   <g id="legend_1">
    <g id="patch_7">
     <path d="M 358.11 236.536875 
L 396.9 236.536875 
Q 398.7 236.536875 398.7 234.736875 
L 398.7 196.005938 
Q 398.7 194.205938 396.9 194.205938 
L 358.11 194.205938 
Q 356.31 194.205938 356.31 196.005938 
L 356.31 234.736875 
Q 356.31 236.536875 358.11 236.536875 
z
" style="fill: #ffffff; opacity: 0.8; stroke: #cccccc; stroke-linejoin: miter"/>
    </g>
    <g id="line2d_15">
     <path d="M 359.91 201.494531 
L 368.91 201.494531 
L 377.91 201.494531 
" style="fill: none; stroke: #2b737e; stroke-width: 1.5; stroke-linecap: square"/>
    </g>
    <g id="text_14">
     <!-- $\sigma_0$ -->
     <g transform="translate(385.11 204.644531) scale(0.09 -0.09)">
      <use xlink:href="#DejaVuSans-Oblique-3c3" transform="translate(0 0.265625)"/>
      <use xlink:href="#DejaVuSans-30" transform="translate(63.378906 -16.140625) scale(0.7)"/>
     </g>
    </g>
    <g id="line2d_16">
     <path d="M 359.91 214.704844 
L 368.91 214.704844 
L 377.91 214.704844 
" style="fill: none; stroke: #5ea04b; stroke-width: 1.5; stroke-linecap: square"/>
    </g>
    <g id="text_15">
     <!-- $\sigma_1$ -->
     <g transform="translate(385.11 217.854844) scale(0.09 -0.09)">
      <use xlink:href="#DejaVuSans-Oblique-3c3" transform="translate(0 0.265625)"/>
      <use xlink:href="#DejaVuSans-31" transform="translate(63.378906 -16.140625) scale(0.7)"/>
     </g>
    </g>
    <g id="line2d_17">
     <path d="M 359.91 227.915156 
L 368.91 227.915156 
L 377.91 227.915156 
" style="fill: none; stroke: #bdab62; stroke-width: 1.5; stroke-linecap: square"/>
    </g>
    <g id="text_16">
     <!-- $\sigma_2$ -->
     <g transform="translate(385.11 231.065156) scale(0.09 -0.09)">
      <use xlink:href="#DejaVuSans-Oblique-3c3" transform="translate(0 0.265625)"/>
      <use xlink:href="#DejaVuSans-32" transform="translate(63.378906 -16.140625) scale(0.7)"/>
     </g>
    </g>
   </g>
  </g>
 </g>
 <defs>
  <clipPath id="pc4d70e8e6c">
   <rect x="80.7325" y="10.8" width="322.4675" height="230.236875"/>
  </clipPath>
 </defs>
</svg>
