<?xml version="1.0" encoding="utf-8" standalone="no"?>
<!DOCTYPE svg PUBLIC "-//W3C//DTD SVG 1.1//EN"
  "http://www.w3.org/Graphics/SVG/1.1/DTD/svg11.dtd">
<svg xmlns:xlink="http://www.w3.org/1999/xlink" width="360pt" height="288pt" viewBox="0 0 360 288" xmlns="http://www.w3.org/2000/svg" version="1.1">
 <metadata>
  <rdf:RDF xmlns:dc="http://purl.org/dc/elements/1.1/" xmlns:cc="http://creativecommons.org/ns#" xmlns:rdf="http://www.w3.org/1999/02/22-rdf-syntax-ns#">
   <cc:Work>
    <dc:type rdf:resource="http://purl.org/dc/dcmitype/StillImage"/>
    <dc:date>2023-09-07T00:36:00.216511</dc:date>
    <dc:format>image/svg+xml</dc:format>
    <dc:creator>
     <cc:Agent>
      <dc:title>Matplotlib v3.7.2, https://matplotlib.org/</dc:title>
     </cc:Agent>
    </dc:creator>
   </cc:Work>
  </rdf:RDF>
 </metadata>
 <defs>
  <style type="text/css">*{stroke-linejoin: round; stroke-linecap: butt}</style>
 </defs>
 <g id="figure_1">
  <g id="patch_1">
   <path d="M 0 288 
L 360 288 
L 360 0 
L 0 0 
L 0 288 
z
" style="fill: none"/>
  </g>
  <g id="axes_1">
   <g id="patch_2">
    <path d="M 80.510625 241.036875 
L 349.2 241.036875 
L 349.2 25.9575 
L 80.510625 25.9575 
L 80.510625 241.036875 
z
" style="fill: none"/>
   </g>
   <g id="matplotlib.axis_1">
    <g id="xtick_1">
     <g id="line2d_1">
      <defs>
       <path id="m11e2b277fa" d="M 0 0 
L 0 3.5 
" style="stroke: #000000; stroke-width: 0.8"/>
      </defs>
      <g>
       <use xlink:href="#m11e2b277fa" x="92.723778" y="241.036875" style="stroke: #000000; stroke-width: 0.8"/>
      </g>
     </g>
     <g id="text_1">
      <!-- 0 -->
      <g transform="translate(87.633778 260.194375) scale(0.16 -0.16)">
       <defs>
        <path id="DejaVuSans-30" d="M 2034 4250 
Q 1547 4250 1301 3770 
Q 1056 3291 1056 2328 
Q 1056 1369 1301 889 
Q 1547 409 2034 409 
Q 2525 409 2770 889 
Q 3016 1369 3016 2328 
Q 3016 3291 2770 3770 
Q 2525 4250 2034 4250 
z
M 2034 4750 
Q 2819 4750 3233 4129 
Q 3647 3509 3647 2328 
Q 3647 1150 3233 529 
Q 2819 -91 2034 -91 
Q 1250 -91 836 529 
Q 422 1150 422 2328 
Q 422 3509 836 4129 
Q 1250 4750 2034 4750 
z
" transform="scale(0.015625)"/>
       </defs>
       <use xlink:href="#DejaVuSans-30"/>
      </g>
     </g>
    </g>
    <g id="xtick_2">
     <g id="line2d_2">
      <g>
       <use xlink:href="#m11e2b277fa" x="182.236776" y="241.036875" style="stroke: #000000; stroke-width: 0.8"/>
      </g>
     </g>
     <g id="text_2">
      <!-- 500 -->
      <g transform="translate(166.966776 260.194375) scale(0.16 -0.16)">
       <defs>
        <path id="DejaVuSans-35" d="M 691 4666 
L 3169 4666 
L 3169 4134 
L 1269 4134 
L 1269 2991 
Q 1406 3038 1543 3061 
Q 1681 3084 1819 3084 
Q 2600 3084 3056 2656 
Q 3513 2228 3513 1497 
Q 3513 744 3044 326 
Q 2575 -91 1722 -91 
Q 1428 -91 1123 -41 
Q 819 9 494 109 
L 494 744 
Q 775 591 1075 516 
Q 1375 441 1709 441 
Q 2250 441 2565 725 
Q 2881 1009 2881 1497 
Q 2881 1984 2565 2268 
Q 2250 2553 1709 2553 
Q 1456 2553 1204 2497 
Q 953 2441 691 2322 
L 691 4666 
z
" transform="scale(0.015625)"/>
       </defs>
       <use xlink:href="#DejaVuSans-35"/>
       <use xlink:href="#DejaVuSans-30" x="63.623047"/>
       <use xlink:href="#DejaVuSans-30" x="127.246094"/>
      </g>
     </g>
    </g>
    <g id="xtick_3">
     <g id="line2d_3">
      <g>
       <use xlink:href="#m11e2b277fa" x="271.749774" y="241.036875" style="stroke: #000000; stroke-width: 0.8"/>
      </g>
     </g>
     <g id="text_3">
      <!-- 1000 -->
      <g transform="translate(251.389774 260.194375) scale(0.16 -0.16)">
       <defs>
        <path id="DejaVuSans-31" d="M 794 531 
L 1825 531 
L 1825 4091 
L 703 3866 
L 703 4441 
L 1819 4666 
L 2450 4666 
L 2450 531 
L 3481 531 
L 3481 0 
L 794 0 
L 794 531 
z
" transform="scale(0.015625)"/>
       </defs>
       <use xlink:href="#DejaVuSans-31"/>
       <use xlink:href="#DejaVuSans-30" x="63.623047"/>
       <use xlink:href="#DejaVuSans-30" x="127.246094"/>
       <use xlink:href="#DejaVuSans-30" x="190.869141"/>
      </g>
     </g>
    </g>
    <g id="text_4">
     <!-- Time (s) -->
     <g transform="translate(194.526406 275.120313) scale(0.1 -0.1)">
      <defs>
       <path id="DejaVuSans-54" d="M -19 4666 
L 3928 4666 
L 3928 4134 
L 2272 4134 
L 2272 0 
L 1638 0 
L 1638 4134 
L -19 4134 
L -19 4666 
z
" transform="scale(0.015625)"/>
       <path id="DejaVuSans-69" d="M 603 3500 
L 1178 3500 
L 1178 0 
L 603 0 
L 603 3500 
z
M 603 4863 
L 1178 4863 
L 1178 4134 
L 603 4134 
L 603 4863 
z
" transform="scale(0.015625)"/>
       <path id="DejaVuSans-6d" d="M 3328 2828 
Q 3544 3216 3844 3400 
Q 4144 3584 4550 3584 
Q 5097 3584 5394 3201 
Q 5691 2819 5691 2113 
L 5691 0 
L 5113 0 
L 5113 2094 
Q 5113 2597 4934 2840 
Q 4756 3084 4391 3084 
Q 3944 3084 3684 2787 
Q 3425 2491 3425 1978 
L 3425 0 
L 2847 0 
L 2847 2094 
Q 2847 2600 2669 2842 
Q 2491 3084 2119 3084 
Q 1678 3084 1418 2786 
Q 1159 2488 1159 1978 
L 1159 0 
L 581 0 
L 581 3500 
L 1159 3500 
L 1159 2956 
Q 1356 3278 1631 3431 
Q 1906 3584 2284 3584 
Q 2666 3584 2933 3390 
Q 3200 3197 3328 2828 
z
" transform="scale(0.015625)"/>
       <path id="DejaVuSans-65" d="M 3597 1894 
L 3597 1613 
L 953 1613 
Q 991 1019 1311 708 
Q 1631 397 2203 397 
Q 2534 397 2845 478 
Q 3156 559 3463 722 
L 3463 178 
Q 3153 47 2828 -22 
Q 2503 -91 2169 -91 
Q 1331 -91 842 396 
Q 353 884 353 1716 
Q 353 2575 817 3079 
Q 1281 3584 2069 3584 
Q 2775 3584 3186 3129 
Q 3597 2675 3597 1894 
z
M 3022 2063 
Q 3016 2534 2758 2815 
Q 2500 3097 2075 3097 
Q 1594 3097 1305 2825 
Q 1016 2553 972 2059 
L 3022 2063 
z
" transform="scale(0.015625)"/>
       <path id="DejaVuSans-20" transform="scale(0.015625)"/>
       <path id="DejaVuSans-28" d="M 1984 4856 
Q 1566 4138 1362 3434 
Q 1159 2731 1159 2009 
Q 1159 1288 1364 580 
Q 1569 -128 1984 -844 
L 1484 -844 
Q 1016 -109 783 600 
Q 550 1309 550 2009 
Q 550 2706 781 3412 
Q 1013 4119 1484 4856 
L 1984 4856 
z
" transform="scale(0.015625)"/>
       <path id="DejaVuSans-73" d="M 2834 3397 
L 2834 2853 
Q 2591 2978 2328 3040 
Q 2066 3103 1784 3103 
Q 1356 3103 1142 2972 
Q 928 2841 928 2578 
Q 928 2378 1081 2264 
Q 1234 2150 1697 2047 
L 1894 2003 
Q 2506 1872 2764 1633 
Q 3022 1394 3022 966 
Q 3022 478 2636 193 
Q 2250 -91 1575 -91 
Q 1294 -91 989 -36 
Q 684 19 347 128 
L 347 722 
Q 666 556 975 473 
Q 1284 391 1588 391 
Q 1994 391 2212 530 
Q 2431 669 2431 922 
Q 2431 1156 2273 1281 
Q 2116 1406 1581 1522 
L 1381 1569 
Q 847 1681 609 1914 
Q 372 2147 372 2553 
Q 372 3047 722 3315 
Q 1072 3584 1716 3584 
Q 2034 3584 2315 3537 
Q 2597 3491 2834 3397 
z
" transform="scale(0.015625)"/>
       <path id="DejaVuSans-29" d="M 513 4856 
L 1013 4856 
Q 1481 4119 1714 3412 
Q 1947 2706 1947 2009 
Q 1947 1309 1714 600 
Q 1481 -109 1013 -844 
L 513 -844 
Q 928 -128 1133 580 
Q 1338 1288 1338 2009 
Q 1338 2731 1133 3434 
Q 928 4138 513 4856 
z
" transform="scale(0.015625)"/>
      </defs>
      <use xlink:href="#DejaVuSans-54"/>
      <use xlink:href="#DejaVuSans-69" x="57.958984"/>
      <use xlink:href="#DejaVuSans-6d" x="85.742188"/>
      <use xlink:href="#DejaVuSans-65" x="183.154297"/>
      <use xlink:href="#DejaVuSans-20" x="244.677734"/>
      <use xlink:href="#DejaVuSans-28" x="276.464844"/>
      <use xlink:href="#DejaVuSans-73" x="315.478516"/>
      <use xlink:href="#DejaVuSans-29" x="367.578125"/>
     </g>
    </g>
   </g>
   <g id="matplotlib.axis_2">
    <g id="ytick_1">
     <g id="line2d_4">
      <defs>
       <path id="mbd0e1b8d5c" d="M 0 0 
L -3.5 0 
" style="stroke: #000000; stroke-width: 0.8"/>
      </defs>
      <g>
       <use xlink:href="#mbd0e1b8d5c" x="80.510625" y="217.391698" style="stroke: #000000; stroke-width: 0.8"/>
      </g>
     </g>
     <g id="text_5">
      <!-- −1.00 -->
      <g transform="translate(24.478125 223.470448) scale(0.16 -0.16)">
       <defs>
        <path id="DejaVuSans-2212" d="M 678 2272 
L 4684 2272 
L 4684 1741 
L 678 1741 
L 678 2272 
z
" transform="scale(0.015625)"/>
        <path id="DejaVuSans-2e" d="M 684 794 
L 1344 794 
L 1344 0 
L 684 0 
L 684 794 
z
" transform="scale(0.015625)"/>
       </defs>
       <use xlink:href="#DejaVuSans-2212"/>
       <use xlink:href="#DejaVuSans-31" x="83.789062"/>
       <use xlink:href="#DejaVuSans-2e" x="147.412109"/>
       <use xlink:href="#DejaVuSans-30" x="179.199219"/>
       <use xlink:href="#DejaVuSans-30" x="242.822266"/>
      </g>
     </g>
    </g>
    <g id="ytick_2">
     <g id="line2d_5">
      <g>
       <use xlink:href="#mbd0e1b8d5c" x="80.510625" y="180.78462" style="stroke: #000000; stroke-width: 0.8"/>
      </g>
     </g>
     <g id="text_6">
      <!-- −0.75 -->
      <g transform="translate(24.478125 186.86337) scale(0.16 -0.16)">
       <defs>
        <path id="DejaVuSans-37" d="M 525 4666 
L 3525 4666 
L 3525 4397 
L 1831 0 
L 1172 0 
L 2766 4134 
L 525 4134 
L 525 4666 
z
" transform="scale(0.015625)"/>
       </defs>
       <use xlink:href="#DejaVuSans-2212"/>
       <use xlink:href="#DejaVuSans-30" x="83.789062"/>
       <use xlink:href="#DejaVuSans-2e" x="147.412109"/>
       <use xlink:href="#DejaVuSans-37" x="179.199219"/>
       <use xlink:href="#DejaVuSans-35" x="242.822266"/>
      </g>
     </g>
    </g>
    <g id="ytick_3">
     <g id="line2d_6">
      <g>
       <use xlink:href="#mbd0e1b8d5c" x="80.510625" y="144.177542" style="stroke: #000000; stroke-width: 0.8"/>
      </g>
     </g>
     <g id="text_7">
      <!-- −0.50 -->
      <g transform="translate(24.478125 150.256292) scale(0.16 -0.16)">
       <use xlink:href="#DejaVuSans-2212"/>
       <use xlink:href="#DejaVuSans-30" x="83.789062"/>
       <use xlink:href="#DejaVuSans-2e" x="147.412109"/>
       <use xlink:href="#DejaVuSans-35" x="179.199219"/>
       <use xlink:href="#DejaVuSans-30" x="242.822266"/>
      </g>
     </g>
    </g>
    <g id="ytick_4">
     <g id="line2d_7">
      <g>
       <use xlink:href="#mbd0e1b8d5c" x="80.510625" y="107.570464" style="stroke: #000000; stroke-width: 0.8"/>
      </g>
     </g>
     <g id="text_8">
      <!-- −0.25 -->
      <g transform="translate(24.478125 113.649214) scale(0.16 -0.16)">
       <defs>
        <path id="DejaVuSans-32" d="M 1228 531 
L 3431 531 
L 3431 0 
L 469 0 
L 469 531 
Q 828 903 1448 1529 
Q 2069 2156 2228 2338 
Q 2531 2678 2651 2914 
Q 2772 3150 2772 3378 
Q 2772 3750 2511 3984 
Q 2250 4219 1831 4219 
Q 1534 4219 1204 4116 
Q 875 4013 500 3803 
L 500 4441 
Q 881 4594 1212 4672 
Q 1544 4750 1819 4750 
Q 2544 4750 2975 4387 
Q 3406 4025 3406 3419 
Q 3406 3131 3298 2873 
Q 3191 2616 2906 2266 
Q 2828 2175 2409 1742 
Q 1991 1309 1228 531 
z
" transform="scale(0.015625)"/>
       </defs>
       <use xlink:href="#DejaVuSans-2212"/>
       <use xlink:href="#DejaVuSans-30" x="83.789062"/>
       <use xlink:href="#DejaVuSans-2e" x="147.412109"/>
       <use xlink:href="#DejaVuSans-32" x="179.199219"/>
       <use xlink:href="#DejaVuSans-35" x="242.822266"/>
      </g>
     </g>
    </g>
    <g id="ytick_5">
     <g id="line2d_8">
      <g>
       <use xlink:href="#mbd0e1b8d5c" x="80.510625" y="70.963386" style="stroke: #000000; stroke-width: 0.8"/>
      </g>
     </g>
     <g id="text_9">
      <!-- 0.00 -->
      <g transform="translate(37.885625 77.042136) scale(0.16 -0.16)">
       <use xlink:href="#DejaVuSans-30"/>
       <use xlink:href="#DejaVuSans-2e" x="63.623047"/>
       <use xlink:href="#DejaVuSans-30" x="95.410156"/>
       <use xlink:href="#DejaVuSans-30" x="159.033203"/>
      </g>
     </g>
    </g>
    <g id="ytick_6">
     <g id="line2d_9">
      <g>
       <use xlink:href="#mbd0e1b8d5c" x="80.510625" y="34.356308" style="stroke: #000000; stroke-width: 0.8"/>
      </g>
     </g>
     <g id="text_10">
      <!-- 0.25 -->
      <g transform="translate(37.885625 40.435058) scale(0.16 -0.16)">
       <use xlink:href="#DejaVuSans-30"/>
       <use xlink:href="#DejaVuSans-2e" x="63.623047"/>
       <use xlink:href="#DejaVuSans-32" x="95.410156"/>
       <use xlink:href="#DejaVuSans-35" x="159.033203"/>
      </g>
     </g>
    </g>
    <g id="text_11">
     <!-- Relative Orbital Angular Momentum Variation -->
     <g transform="translate(18.398438 247.097188) rotate(-90) scale(0.1 -0.1)">
      <defs>
       <path id="DejaVuSans-52" d="M 2841 2188 
Q 3044 2119 3236 1894 
Q 3428 1669 3622 1275 
L 4263 0 
L 3584 0 
L 2988 1197 
Q 2756 1666 2539 1819 
Q 2322 1972 1947 1972 
L 1259 1972 
L 1259 0 
L 628 0 
L 628 4666 
L 2053 4666 
Q 2853 4666 3247 4331 
Q 3641 3997 3641 3322 
Q 3641 2881 3436 2590 
Q 3231 2300 2841 2188 
z
M 1259 4147 
L 1259 2491 
L 2053 2491 
Q 2509 2491 2742 2702 
Q 2975 2913 2975 3322 
Q 2975 3731 2742 3939 
Q 2509 4147 2053 4147 
L 1259 4147 
z
" transform="scale(0.015625)"/>
       <path id="DejaVuSans-6c" d="M 603 4863 
L 1178 4863 
L 1178 0 
L 603 0 
L 603 4863 
z
" transform="scale(0.015625)"/>
       <path id="DejaVuSans-61" d="M 2194 1759 
Q 1497 1759 1228 1600 
Q 959 1441 959 1056 
Q 959 750 1161 570 
Q 1363 391 1709 391 
Q 2188 391 2477 730 
Q 2766 1069 2766 1631 
L 2766 1759 
L 2194 1759 
z
M 3341 1997 
L 3341 0 
L 2766 0 
L 2766 531 
Q 2569 213 2275 61 
Q 1981 -91 1556 -91 
Q 1019 -91 701 211 
Q 384 513 384 1019 
Q 384 1609 779 1909 
Q 1175 2209 1959 2209 
L 2766 2209 
L 2766 2266 
Q 2766 2663 2505 2880 
Q 2244 3097 1772 3097 
Q 1472 3097 1187 3025 
Q 903 2953 641 2809 
L 641 3341 
Q 956 3463 1253 3523 
Q 1550 3584 1831 3584 
Q 2591 3584 2966 3190 
Q 3341 2797 3341 1997 
z
" transform="scale(0.015625)"/>
       <path id="DejaVuSans-74" d="M 1172 4494 
L 1172 3500 
L 2356 3500 
L 2356 3053 
L 1172 3053 
L 1172 1153 
Q 1172 725 1289 603 
Q 1406 481 1766 481 
L 2356 481 
L 2356 0 
L 1766 0 
Q 1100 0 847 248 
Q 594 497 594 1153 
L 594 3053 
L 172 3053 
L 172 3500 
L 594 3500 
L 594 4494 
L 1172 4494 
z
" transform="scale(0.015625)"/>
       <path id="DejaVuSans-76" d="M 191 3500 
L 800 3500 
L 1894 563 
L 2988 3500 
L 3597 3500 
L 2284 0 
L 1503 0 
L 191 3500 
z
" transform="scale(0.015625)"/>
       <path id="DejaVuSans-4f" d="M 2522 4238 
Q 1834 4238 1429 3725 
Q 1025 3213 1025 2328 
Q 1025 1447 1429 934 
Q 1834 422 2522 422 
Q 3209 422 3611 934 
Q 4013 1447 4013 2328 
Q 4013 3213 3611 3725 
Q 3209 4238 2522 4238 
z
M 2522 4750 
Q 3503 4750 4090 4092 
Q 4678 3434 4678 2328 
Q 4678 1225 4090 567 
Q 3503 -91 2522 -91 
Q 1538 -91 948 565 
Q 359 1222 359 2328 
Q 359 3434 948 4092 
Q 1538 4750 2522 4750 
z
" transform="scale(0.015625)"/>
       <path id="DejaVuSans-72" d="M 2631 2963 
Q 2534 3019 2420 3045 
Q 2306 3072 2169 3072 
Q 1681 3072 1420 2755 
Q 1159 2438 1159 1844 
L 1159 0 
L 581 0 
L 581 3500 
L 1159 3500 
L 1159 2956 
Q 1341 3275 1631 3429 
Q 1922 3584 2338 3584 
Q 2397 3584 2469 3576 
Q 2541 3569 2628 3553 
L 2631 2963 
z
" transform="scale(0.015625)"/>
       <path id="DejaVuSans-62" d="M 3116 1747 
Q 3116 2381 2855 2742 
Q 2594 3103 2138 3103 
Q 1681 3103 1420 2742 
Q 1159 2381 1159 1747 
Q 1159 1113 1420 752 
Q 1681 391 2138 391 
Q 2594 391 2855 752 
Q 3116 1113 3116 1747 
z
M 1159 2969 
Q 1341 3281 1617 3432 
Q 1894 3584 2278 3584 
Q 2916 3584 3314 3078 
Q 3713 2572 3713 1747 
Q 3713 922 3314 415 
Q 2916 -91 2278 -91 
Q 1894 -91 1617 61 
Q 1341 213 1159 525 
L 1159 0 
L 581 0 
L 581 4863 
L 1159 4863 
L 1159 2969 
z
" transform="scale(0.015625)"/>
       <path id="DejaVuSans-41" d="M 2188 4044 
L 1331 1722 
L 3047 1722 
L 2188 4044 
z
M 1831 4666 
L 2547 4666 
L 4325 0 
L 3669 0 
L 3244 1197 
L 1141 1197 
L 716 0 
L 50 0 
L 1831 4666 
z
" transform="scale(0.015625)"/>
       <path id="DejaVuSans-6e" d="M 3513 2113 
L 3513 0 
L 2938 0 
L 2938 2094 
Q 2938 2591 2744 2837 
Q 2550 3084 2163 3084 
Q 1697 3084 1428 2787 
Q 1159 2491 1159 1978 
L 1159 0 
L 581 0 
L 581 3500 
L 1159 3500 
L 1159 2956 
Q 1366 3272 1645 3428 
Q 1925 3584 2291 3584 
Q 2894 3584 3203 3211 
Q 3513 2838 3513 2113 
z
" transform="scale(0.015625)"/>
       <path id="DejaVuSans-67" d="M 2906 1791 
Q 2906 2416 2648 2759 
Q 2391 3103 1925 3103 
Q 1463 3103 1205 2759 
Q 947 2416 947 1791 
Q 947 1169 1205 825 
Q 1463 481 1925 481 
Q 2391 481 2648 825 
Q 2906 1169 2906 1791 
z
M 3481 434 
Q 3481 -459 3084 -895 
Q 2688 -1331 1869 -1331 
Q 1566 -1331 1297 -1286 
Q 1028 -1241 775 -1147 
L 775 -588 
Q 1028 -725 1275 -790 
Q 1522 -856 1778 -856 
Q 2344 -856 2625 -561 
Q 2906 -266 2906 331 
L 2906 616 
Q 2728 306 2450 153 
Q 2172 0 1784 0 
Q 1141 0 747 490 
Q 353 981 353 1791 
Q 353 2603 747 3093 
Q 1141 3584 1784 3584 
Q 2172 3584 2450 3431 
Q 2728 3278 2906 2969 
L 2906 3500 
L 3481 3500 
L 3481 434 
z
" transform="scale(0.015625)"/>
       <path id="DejaVuSans-75" d="M 544 1381 
L 544 3500 
L 1119 3500 
L 1119 1403 
Q 1119 906 1312 657 
Q 1506 409 1894 409 
Q 2359 409 2629 706 
Q 2900 1003 2900 1516 
L 2900 3500 
L 3475 3500 
L 3475 0 
L 2900 0 
L 2900 538 
Q 2691 219 2414 64 
Q 2138 -91 1772 -91 
Q 1169 -91 856 284 
Q 544 659 544 1381 
z
M 1991 3584 
L 1991 3584 
z
" transform="scale(0.015625)"/>
       <path id="DejaVuSans-4d" d="M 628 4666 
L 1569 4666 
L 2759 1491 
L 3956 4666 
L 4897 4666 
L 4897 0 
L 4281 0 
L 4281 4097 
L 3078 897 
L 2444 897 
L 1241 4097 
L 1241 0 
L 628 0 
L 628 4666 
z
" transform="scale(0.015625)"/>
       <path id="DejaVuSans-6f" d="M 1959 3097 
Q 1497 3097 1228 2736 
Q 959 2375 959 1747 
Q 959 1119 1226 758 
Q 1494 397 1959 397 
Q 2419 397 2687 759 
Q 2956 1122 2956 1747 
Q 2956 2369 2687 2733 
Q 2419 3097 1959 3097 
z
M 1959 3584 
Q 2709 3584 3137 3096 
Q 3566 2609 3566 1747 
Q 3566 888 3137 398 
Q 2709 -91 1959 -91 
Q 1206 -91 779 398 
Q 353 888 353 1747 
Q 353 2609 779 3096 
Q 1206 3584 1959 3584 
z
" transform="scale(0.015625)"/>
       <path id="DejaVuSans-56" d="M 1831 0 
L 50 4666 
L 709 4666 
L 2188 738 
L 3669 4666 
L 4325 4666 
L 2547 0 
L 1831 0 
z
" transform="scale(0.015625)"/>
      </defs>
      <use xlink:href="#DejaVuSans-52"/>
      <use xlink:href="#DejaVuSans-65" x="64.982422"/>
      <use xlink:href="#DejaVuSans-6c" x="126.505859"/>
      <use xlink:href="#DejaVuSans-61" x="154.289062"/>
      <use xlink:href="#DejaVuSans-74" x="215.568359"/>
      <use xlink:href="#DejaVuSans-69" x="254.777344"/>
      <use xlink:href="#DejaVuSans-76" x="282.560547"/>
      <use xlink:href="#DejaVuSans-65" x="341.740234"/>
      <use xlink:href="#DejaVuSans-20" x="403.263672"/>
      <use xlink:href="#DejaVuSans-4f" x="435.050781"/>
      <use xlink:href="#DejaVuSans-72" x="513.761719"/>
      <use xlink:href="#DejaVuSans-62" x="554.875"/>
      <use xlink:href="#DejaVuSans-69" x="618.351562"/>
      <use xlink:href="#DejaVuSans-74" x="646.134766"/>
      <use xlink:href="#DejaVuSans-61" x="685.34375"/>
      <use xlink:href="#DejaVuSans-6c" x="746.623047"/>
      <use xlink:href="#DejaVuSans-20" x="774.40625"/>
      <use xlink:href="#DejaVuSans-41" x="806.193359"/>
      <use xlink:href="#DejaVuSans-6e" x="874.601562"/>
      <use xlink:href="#DejaVuSans-67" x="937.980469"/>
      <use xlink:href="#DejaVuSans-75" x="1001.457031"/>
      <use xlink:href="#DejaVuSans-6c" x="1064.835938"/>
      <use xlink:href="#DejaVuSans-61" x="1092.619141"/>
      <use xlink:href="#DejaVuSans-72" x="1153.898438"/>
      <use xlink:href="#DejaVuSans-20" x="1195.011719"/>
      <use xlink:href="#DejaVuSans-4d" x="1226.798828"/>
      <use xlink:href="#DejaVuSans-6f" x="1313.078125"/>
      <use xlink:href="#DejaVuSans-6d" x="1374.259766"/>
      <use xlink:href="#DejaVuSans-65" x="1471.671875"/>
      <use xlink:href="#DejaVuSans-6e" x="1533.195312"/>
      <use xlink:href="#DejaVuSans-74" x="1596.574219"/>
      <use xlink:href="#DejaVuSans-75" x="1635.783203"/>
      <use xlink:href="#DejaVuSans-6d" x="1699.162109"/>
      <use xlink:href="#DejaVuSans-20" x="1796.574219"/>
      <use xlink:href="#DejaVuSans-56" x="1828.361328"/>
      <use xlink:href="#DejaVuSans-61" x="1889.019531"/>
      <use xlink:href="#DejaVuSans-72" x="1950.298828"/>
      <use xlink:href="#DejaVuSans-69" x="1991.412109"/>
      <use xlink:href="#DejaVuSans-61" x="2019.195312"/>
      <use xlink:href="#DejaVuSans-74" x="2080.474609"/>
      <use xlink:href="#DejaVuSans-69" x="2119.683594"/>
      <use xlink:href="#DejaVuSans-6f" x="2147.466797"/>
      <use xlink:href="#DejaVuSans-6e" x="2208.648438"/>
     </g>
    </g>
    <g id="text_12">
     <!-- 1e−12 -->
     <g transform="translate(80.510625 22.9575) scale(0.16 -0.16)">
      <use xlink:href="#DejaVuSans-31"/>
      <use xlink:href="#DejaVuSans-65" x="63.623047"/>
      <use xlink:href="#DejaVuSans-2212" x="125.146484"/>
      <use xlink:href="#DejaVuSans-31" x="208.935547"/>
      <use xlink:href="#DejaVuSans-32" x="272.558594"/>
     </g>
    </g>
   </g>
   <g id="line2d_10">
    <path d="M 92.723778 70.963386 
L 93.153441 64.477611 
L 93.851642 53.658159 
L 94.012766 53.215947 
L 94.120181 53.717121 
L 94.335012 56.370392 
L 94.87209 64.271246 
L 94.979506 64.625015 
L 95.033214 64.566054 
L 95.140629 64.212284 
L 95.355461 62.738244 
L 95.892539 59.200549 
L 96.268493 57.873913 
L 96.805571 56.960008 
L 97.181526 56.547277 
L 98.094558 56.164027 
L 99.007591 56.075584 
L 99.329838 56.016623 
L 99.490961 56.016623 
L 99.652084 56.016623 
L 99.974331 56.105065 
L 100.189162 56.075584 
L 100.457701 56.105065 
L 103.948708 56.193508 
L 104.217247 56.222988 
L 104.485786 56.193508 
L 107.063761 56.105065 
L 107.3323 56.046104 
L 107.654546 56.105065 
L 109.749151 56.016623 
L 110.01769 55.987142 
L 110.50106 56.046104 
L 110.715891 56.134546 
L 110.98443 56.105065 
L 111.628924 56.193508 
L 111.897463 56.370392 
L 112.166002 56.458835 
L 112.380833 56.576758 
L 112.649372 56.517796 
L 112.756787 56.311431 
L 112.917911 55.662853 
L 113.18645 53.33387 
L 113.723528 48.557981 
L 113.830943 49.059155 
L 114.045774 51.977754 
L 114.582852 60.998877 
L 114.743976 61.47057 
L 114.905099 60.73355 
L 115.281054 57.048451 
L 115.657008 54.247775 
L 115.925547 53.628678 
L 116.194086 53.894006 
L 116.516333 54.631025 
L 116.892288 55.515449 
L 117.429366 56.193508 
L 117.751613 56.399873 
L 118.127567 56.488316 
L 121.994529 56.547277 
L 122.155652 56.576758 
L 122.477899 56.63572 
L 125.485536 56.547277 
L 125.807782 56.488316 
L 126.130029 56.547277 
L 126.667107 56.63572 
L 126.828231 56.6652 
L 127.043062 56.6652 
L 127.365309 56.724162 
L 128.600588 56.63572 
L 128.761711 56.63572 
L 129.137666 56.724162 
L 129.567328 56.812604 
L 131.500809 57.75599 
L 131.930471 57.40222 
L 132.19901 57.225335 
L 132.360134 57.313778 
L 132.521257 57.490663 
L 132.843504 58.905741 
L 133.487998 61.971744 
L 133.595413 61.883301 
L 133.810244 60.851473 
L 134.347322 57.048451 
L 134.454738 56.901047 
L 134.508446 56.960008 
L 134.723277 57.903394 
L 135.528894 62.56136 
L 135.63631 62.384475 
L 135.904849 61.175762 
L 136.441926 58.935222 
L 136.871589 58.610933 
L 137.301251 58.935222 
L 137.677206 59.377434 
L 139.127316 60.055492 
L 139.77181 60.143934 
L 140.147765 60.261857 
L 140.362596 60.261857 
L 140.631135 60.291338 
L 141.221921 60.379781 
L 141.49046 60.409261 
L 141.705291 60.409261 
L 145.088882 60.497704 
L 145.303713 60.497704 
L 147.398317 60.409261 
L 147.82798 60.291338 
L 148.418766 60.202896 
L 148.741012 60.143934 
L 150.943032 60.232377 
L 151.265279 60.438742 
L 151.802357 60.615627 
L 152.232019 60.527185 
L 152.44685 60.291338 
L 153.145052 59.61328 
L 153.359883 59.61328 
L 153.521006 59.554318 
L 154.326623 59.465876 
L 154.702578 59.377434 
L 156.474935 59.465876 
L 156.636059 59.495357 
L 156.904598 59.524838 
L 157.119429 59.495357 
L 157.387968 59.554318 
L 157.495384 59.495357 
L 157.656507 59.554318 
L 157.871338 59.554318 
L 160.127066 59.465876 
L 160.50302 59.377434 
L 160.717851 59.406914 
L 160.878975 59.406914 
L 161.147514 59.436395 
L 162.973579 59.377434 
L 163.134702 59.318472 
L 168.612898 59.25951 
L 168.774021 59.23003 
L 169.04256 59.200549 
L 169.418515 59.288991 
L 169.901885 59.642761 
L 170.27784 60.055492 
L 170.438963 60.232377 
L 170.707502 60.497704 
L 171.029749 60.586146 
L 171.24458 60.674589 
L 171.674242 60.763031 
L 171.942781 60.998877 
L 172.318736 61.08732 
L 172.479859 60.880954 
L 172.748398 59.819645 
L 173.070645 57.520143 
L 174.037386 50.297348 
L 174.252217 49.766694 
L 174.467048 49.678252 
L 174.89671 50.297348 
L 175.380081 50.916445 
L 175.594912 50.916445 
L 175.809743 50.857484 
L 176.293113 50.474233 
L 178.280302 49.501367 
L 179.032211 49.412925 
L 179.354458 49.353963 
L 179.569289 49.353963 
L 179.78412 49.353963 
L 183.865913 49.412925 
L 184.188159 49.61929 
L 184.402991 49.707732 
L 185.477147 50.73956 
L 185.691978 50.533195 
L 185.960517 49.884617 
L 186.819842 47.762 
L 187.195796 47.850442 
L 187.518043 48.204212 
L 187.625459 48.263173 
L 187.947705 48.469539 
L 188.914446 48.410577 
L 189.075569 48.381097 
L 189.666355 48.174731 
L 189.934894 48.086289 
L 191.385004 47.40823 
L 191.546128 47.496673 
L 192.190621 48.381097 
L 192.351745 48.381097 
L 192.512868 48.11577 
L 192.835115 46.730172 
L 193.855563 41.010898 
L 194.285226 40.892975 
L 194.392641 40.951936 
L 194.553765 41.010898 
L 195.14455 41.512071 
L 195.466797 41.600514 
L 195.789044 41.659475 
L 196.487245 41.571033 
L 196.916908 41.45311 
L 197.131739 41.512071 
L 197.292862 41.48259 
L 197.615109 41.423629 
L 199.226343 41.335186 
L 199.441174 41.335186 
L 199.817129 41.246744 
L 200.139376 41.187782 
L 200.676454 41.09934 
L 201.159824 40.951936 
L 201.482071 40.863494 
L 201.965441 40.71609 
L 202.932181 40.804532 
L 203.522967 41.600514 
L 204.113753 42.632341 
L 204.328584 42.809226 
L 204.597123 42.543899 
L 205.080493 40.981417 
L 205.671279 38.593472 
L 205.939818 38.062818 
L 206.208357 38.15126 
L 206.476896 38.740876 
L 207.443636 41.571033 
L 207.712175 41.747918 
L 208.302961 41.305706 
L 208.732623 40.804532 
L 208.893747 40.627647 
L 209.108578 40.450763 
L 209.699364 40.214916 
L 210.719812 40.892975 
L 211.042059 41.09934 
L 211.25689 41.010898 
L 211.418013 40.686609 
L 211.686552 39.507377 
L 212.008799 38.210222 
L 212.116215 38.357626 
L 212.331046 39.595819 
L 212.707001 41.571033 
L 212.814416 41.659475 
L 213.029247 41.158302 
L 213.566325 39.448416 
L 213.888572 38.947242 
L 214.747897 38.593472 
L 216.359131 38.50503 
L 216.62767 38.475549 
L 218.82969 38.563992 
L 219.044521 38.563992 
L 220.870586 38.475549 
L 221.192833 38.416588 
L 226.026535 38.50503 
L 226.187658 38.563992 
L 226.61732 38.652434 
L 226.778444 38.681915 
L 228.604509 38.770357 
L 229.195295 39.153608 
L 229.517542 39.595819 
L 230.108327 40.391801 
L 230.323159 40.450763 
L 230.645405 39.949589 
L 230.967652 38.563992 
L 231.612146 35.733835 
L 231.773269 35.822278 
L 231.934392 36.352932 
L 232.310347 38.475549 
L 232.847425 41.335186 
L 233.115964 42.042726 
L 233.438211 42.278572 
L 234.082704 42.19013 
L 234.566075 42.042726 
L 238.003374 42.131168 
L 238.218205 42.131168 
L 239.614608 42.21961 
L 239.829439 42.21961 
L 240.04427 42.21961 
L 240.366517 42.278572 
L 240.581348 42.249091 
L 240.796179 42.249091 
L 242.031459 42.160649 
L 243.266738 41.394148 
L 243.6964 40.892975 
L 244.824264 40.391801 
L 245.737297 40.480243 
L 245.952128 40.568686 
L 246.274375 40.627647 
L 246.489206 40.71609 
L 247.133699 40.804532 
L 247.455946 40.863494 
L 247.778193 40.951936 
L 248.261563 41.335186 
L 248.637518 42.131168 
L 249.980213 46.258479 
L 250.570999 46.494326 
L 251.108077 46.317441 
L 252.611895 46.405883 
L 252.880434 46.435364 
L 254.867622 46.523807 
L 255.136161 46.553287 
L 256.478856 46.464845 
L 256.693688 46.464845 
L 258.358629 46.553287 
L 258.627168 46.612249 
L 258.788292 46.64173 
L 259.110539 46.730172 
L 259.80874 46.228999 
L 261.205143 44.843401 
L 261.688513 44.695997 
L 263.246039 44.607555 
L 263.46087 44.607555 
L 264.320195 44.519112 
L 264.535026 44.519112 
L 265.394351 44.607555 
L 267.059293 45.639383 
L 267.38154 45.845748 
L 267.703786 46.140556 
L 268.026033 46.818614 
L 268.294572 48.056808 
L 268.616819 50.857484 
L 269.529852 59.672242 
L 269.637267 59.701722 
L 269.690975 59.672242 
L 269.959514 58.463529 
L 270.5503 55.279603 
L 270.818839 54.837391 
L 271.03367 54.896353 
L 271.409624 55.427007 
L 271.785579 56.016623 
L 272.322657 56.458835 
L 272.537488 56.547277 
L 272.913443 56.63572 
L 273.074566 56.6652 
L 273.71906 56.753643 
L 273.880183 56.812604 
L 279.143547 56.901047 
L 279.412086 56.930527 
L 279.57321 56.901047 
L 279.841749 56.960008 
L 280.05658 56.960008 
L 280.701074 57.01897 
L 280.915905 57.136893 
L 281.828937 57.048451 
L 282.043769 57.048451 
L 284.94399 57.136893 
L 285.212529 57.195855 
L 285.481068 57.166374 
L 286.125561 57.077931 
L 286.823763 56.576758 
L 287.146009 56.105065 
L 287.414548 55.515449 
L 287.736795 55.132199 
L 287.897919 55.220641 
L 288.059042 55.751296 
L 288.327581 57.40222 
L 288.757243 61.794859 
L 289.186906 65.479958 
L 289.401737 65.863209 
L 289.509153 65.715805 
L 289.723984 64.772419 
L 290.637016 59.849126 
L 290.851848 59.583799 
L 291.120387 59.642761 
L 292.194543 60.674589 
L 292.409374 60.763031 
L 292.892744 60.939916 
L 293.107575 60.939916 
L 293.376114 60.969397 
L 293.698361 60.910435 
L 293.805776 60.851473 
L 293.9669 60.792512 
L 294.611393 59.937569 
L 295.41701 58.758337 
L 295.524426 58.787818 
L 296.65229 60.998877 
L 296.920829 61.028358 
L 297.189368 60.763031 
L 297.833861 59.908088 
L 298.209816 59.642761 
L 298.478355 59.554318 
L 298.693186 59.465876 
L 298.908017 59.377434 
L 299.391388 59.23003 
L 303.365765 59.318472 
L 303.526888 59.347953 
L 303.688011 59.377434 
L 304.010258 59.436395 
L 304.171382 59.524838 
L 304.332505 59.465876 
L 304.869583 59.377434 
L 305.084414 59.377434 
L 309.595869 59.288991 
L 309.8107 59.288991 
L 311.368227 59.377434 
L 311.583058 59.436395 
L 311.744181 59.377434 
L 312.549798 59.465876 
L 312.818337 59.554318 
L 312.925753 59.524838 
L 313.194292 59.554318 
L 313.623954 59.436395 
L 313.785078 59.377434 
L 314.053617 59.112106 
L 314.268448 59.023664 
L 314.483279 58.935222 
L 314.805526 59.023664 
L 315.074065 59.171068 
L 316.094513 59.61328 
L 316.631591 59.524838 
L 317.276084 59.25951 
L 317.544623 59.288991 
L 318.403948 59.200549 
L 318.511364 59.171068 
L 318.726195 59.200549 
L 318.941026 59.171068 
L 319.263273 59.25951 
L 319.531812 59.23003 
L 319.746643 59.318472 
L 319.961474 59.318472 
L 321.572708 59.406914 
L 321.841247 59.436395 
L 322.002371 59.406914 
L 322.324618 59.347953 
L 322.861696 59.554318 
L 323.022819 59.495357 
L 323.345066 59.554318 
L 323.935852 59.642761 
L 324.47293 59.819645 
L 324.687761 59.790165 
L 325.224839 59.967049 
L 326.084163 59.878607 
L 326.298995 59.790165 
L 326.782365 59.642761 
L 328.339891 60.615627 
L 328.501014 60.704069 
L 328.662138 60.73355 
L 328.876969 60.73355 
L 329.682586 60.792512 
L 330.219664 61.441089 
L 331.401236 65.008266 
L 331.723482 65.214631 
L 331.938314 65.214631 
L 332.153145 65.214631 
L 332.74393 65.303074 
L 332.958762 65.391516 
L 333.227301 65.479958 
L 333.549547 65.568401 
L 333.710671 65.568401 
L 333.925502 65.568401 
L 334.140333 65.568401 
L 334.623703 65.656843 
L 334.999658 65.745285 
L 335.268197 65.715805 
L 335.536736 65.745285 
L 335.966398 65.833728 
L 336.234937 65.863209 
L 336.986847 65.951651 
L 336.986847 65.951651 
" clip-path="url(#p4aafe975dc)" style="fill: none; stroke: #1f77b4; stroke-width: 1.5; stroke-linecap: square"/>
   </g>
   <g id="line2d_11">
    <path d="M 92.723778 70.963386 
L 92.992317 91.068453 
L 93.475688 148.311465 
L 93.90535 193.370222 
L 94.066473 198.783124 
L 94.173889 197.006689 
L 94.335012 186.682466 
L 95.033214 127.328631 
L 95.086922 127.516724 
L 95.194337 129.857438 
L 95.516584 145.092983 
L 95.946246 162.125861 
L 96.322201 169.168904 
L 96.859279 173.515946 
L 97.235233 175.04159 
L 97.342649 175.250583 
L 97.826019 176.441839 
L 98.04085 176.838925 
L 98.363097 177.319607 
L 99.007591 177.5077 
L 99.27613 177.403204 
L 99.490961 177.5077 
L 99.598377 177.445003 
L 99.813208 177.633096 
L 100.028039 177.633096 
L 100.296578 177.465902 
L 100.457701 177.5077 
L 100.618825 177.570398 
L 100.887364 177.5077 
L 100.941072 177.403204 
L 100.994779 177.465902 
L 101.102195 177.570398 
L 101.370734 177.77939 
L 101.639273 177.591297 
L 101.800396 177.633096 
L 101.907812 177.695793 
L 101.96152 177.570398 
L 102.015228 177.633096 
L 102.283767 177.716693 
L 102.337474 177.633096 
L 102.391182 177.716693 
L 102.659721 177.821189 
L 103.143091 177.716693 
L 103.304215 177.653995 
L 103.519046 177.5286 
L 104.002416 177.821189 
L 104.16354 177.77939 
L 104.217247 177.842088 
L 104.270955 177.77939 
L 104.64691 177.695793 
L 104.915449 177.904786 
L 105.345111 177.716693 
L 105.559942 177.946584 
L 105.882189 177.967484 
L 106.848929 177.883887 
L 107.010053 177.758491 
L 107.3323 177.695793 
L 107.386007 177.570398 
L 107.439715 177.633096 
L 107.654546 177.695793 
L 107.761962 177.758491 
L 107.869378 177.653995 
L 107.923085 177.842088 
L 107.976793 177.758491 
L 108.29904 177.5077 
L 108.460163 177.653995 
L 108.567579 177.570398 
L 108.78241 177.653995 
L 108.943534 177.570398 
L 108.997241 177.633096 
L 109.050949 177.5286 
L 109.26578 177.445003 
L 109.319488 177.382305 
L 109.373196 177.465902 
L 109.963982 177.194212 
L 110.125105 176.943421 
L 110.178813 177.006119 
L 110.339936 176.818025 
L 110.50106 176.629932 
L 110.715891 176.629932 
L 110.930722 176.567235 
L 111.252969 176.483638 
L 111.575216 175.543172 
L 112.004878 172.742674 
L 112.380833 167.392469 
L 112.864203 160.161333 
L 112.917911 160.098635 
L 113.025326 160.976403 
L 113.18645 165.260747 
L 113.508696 183.422185 
L 113.830943 197.111185 
L 113.884651 197.299278 
L 113.992067 194.937665 
L 114.206898 181.959238 
L 114.851391 137.193071 
L 115.066223 134.455271 
L 115.173638 135.353938 
L 116.032963 146.033448 
L 116.408918 143.79723 
L 116.784872 140.22346 
L 117.107119 137.381164 
L 117.483074 135.040449 
L 117.751613 133.995487 
L 118.181275 132.929626 
L 118.342398 132.846029 
L 118.610937 132.55344 
L 119.309139 131.863765 
L 119.362847 131.905564 
L 119.52397 131.73837 
L 119.792509 131.675672 
L 120.00734 131.592075 
L 120.168464 131.612974 
L 120.275879 131.675672 
L 120.49071 131.44578 
L 120.598126 131.508478 
L 120.812957 131.71747 
L 120.97408 131.71747 
L 121.027788 131.654773 
L 121.081496 131.71747 
L 121.242619 131.780168 
L 121.457451 131.905564 
L 121.564866 131.801067 
L 121.833405 131.926463 
L 121.887113 131.801067 
L 121.940821 131.905564 
L 122.155652 131.592075 
L 122.20936 131.654773 
L 122.585314 131.989161 
L 123.068685 131.73837 
L 123.122392 131.571176 
L 123.1761 131.654773 
L 123.337224 131.654773 
L 123.552055 131.529377 
L 123.65947 131.46668 
L 123.820594 131.44578 
L 123.981717 131.571176 
L 124.035425 131.46668 
L 124.089133 131.508478 
L 125.915198 131.612974 
L 126.076321 131.612974 
L 126.183737 131.675672 
L 126.452276 131.905564 
L 126.505984 131.863765 
L 126.559692 131.989161 
L 126.613399 131.905564 
L 126.667107 131.780168 
L 126.720815 131.863765 
L 126.774523 132.051858 
L 126.828231 131.989161 
L 126.881938 131.801067 
L 126.935646 131.842866 
L 127.150477 131.926463 
L 127.257893 131.842866 
L 127.365309 131.926463 
L 127.419016 131.842866 
L 127.472724 132.030959 
L 127.526432 131.905564 
L 127.58014 131.842866 
L 127.633848 131.905564 
L 127.902387 131.989161 
L 128.117218 131.801067 
L 128.224633 131.842866 
L 128.761711 131.215889 
L 128.815419 131.278586 
L 128.976542 131.257687 
L 129.191374 131.069594 
L 129.459913 130.839702 
L 129.51362 131.006896 
L 129.567328 130.9024 
L 129.835867 130.463516 
L 130.480361 128.457189 
L 131.017439 126.053777 
L 131.23227 125.677591 
L 131.447101 126.429963 
L 131.71564 129.25136 
L 132.091595 133.577503 
L 132.145303 133.765596 
L 132.19901 133.744696 
L 132.306426 132.971425 
L 132.574965 126.889747 
L 133.487998 98.007 
L 133.541705 98.048798 
L 133.649121 99.198257 
L 133.863952 104.673857 
L 134.454738 122.856194 
L 134.562154 123.274178 
L 134.669569 122.500907 
L 134.938108 117.088004 
L 135.367771 109.146294 
L 135.475186 108.352123 
L 135.528894 108.456619 
L 135.582602 108.623813 
L 135.851141 114.015816 
L 136.334511 124.528133 
L 136.60305 127.07784 
L 136.764173 127.516724 
L 136.817881 127.537623 
L 136.871589 127.704817 
L 136.925297 127.516724 
L 136.979004 127.516724 
L 137.516082 125.991079 
L 137.945745 124.360939 
L 138.106868 124.089249 
L 138.321699 123.378675 
L 138.429115 123.315977 
L 138.751362 122.856194 
L 138.80507 122.897992 
L 138.966193 122.626302 
L 139.019901 122.6681 
L 139.181024 122.375511 
L 139.449563 122.605403 
L 139.610687 122.229217 
L 139.718102 122.166519 
L 140.094057 122.229217 
L 140.147765 122.312813 
L 140.308888 122.12472 
L 140.523719 121.936627 
L 140.684843 121.85303 
L 140.899674 121.999325 
L 141.060797 122.041123 
L 141.275628 122.291914 
L 141.436752 122.250116 
L 141.544167 122.312813 
L 141.758999 122.103821 
L 141.812706 122.166519 
L 141.97383 122.062023 
L 142.296077 121.999325 
L 142.618323 121.790333 
L 142.833155 121.811232 
L 142.886862 121.999325 
L 142.94057 121.873929 
L 143.209109 121.85303 
L 143.370233 122.041123 
L 143.638772 122.542705 
L 143.692479 122.480007 
L 143.746187 122.563604 
L 143.853603 122.6681 
L 144.014726 122.793496 
L 144.068434 122.730798 
L 144.122142 122.793496 
L 144.229557 122.814395 
L 144.390681 122.793496 
L 144.551804 122.814395 
L 144.65922 122.877093 
L 144.712927 122.939791 
L 144.766635 122.877093 
L 144.874051 122.877093 
L 145.035174 123.002488 
L 145.14259 123.002488 
L 145.250005 122.939791 
L 145.464837 122.751697 
L 145.572252 122.856194 
L 145.62596 122.6681 
L 145.679668 122.730798 
L 145.787083 122.6681 
L 145.840791 122.500907 
L 146.001915 122.751697 
L 146.10933 122.939791 
L 146.216746 122.877093 
L 146.700116 123.315977 
L 146.861239 123.336876 
L 147.022363 123.524969 
L 147.129778 123.378675 
L 147.290902 123.148783 
L 147.398317 123.315977 
L 147.505733 123.211481 
L 147.666856 123.378675 
L 147.774272 123.274178 
L 147.989103 123.524969 
L 148.042811 123.441372 
L 148.203934 123.692163 
L 148.365058 123.650365 
L 148.526181 123.650365 
L 148.633597 123.524969 
L 148.848428 124.026551 
L 149.063259 124.423636 
L 149.116967 124.360939 
L 149.331798 124.86252 
L 149.439214 124.967017 
L 149.654045 125.050614 
L 150.352246 126.994243 
L 150.405954 127.015142 
L 150.620785 127.600321 
L 150.674493 127.537623 
L 150.835617 127.913809 
L 150.943032 127.851111 
L 151.104156 127.976507 
L 151.318987 127.976507 
L 151.587526 127.600321 
L 151.694941 127.663018 
L 151.748649 127.600321 
L 151.802357 127.704817 
L 151.96348 128.018305 
L 152.393143 129.606647 
L 152.44685 129.606647 
L 153.037636 133.034122 
L 153.091344 133.055022 
L 153.306175 133.953689 
L 153.413591 133.93279 
L 153.521006 134.058185 
L 153.68213 133.890991 
L 153.735838 133.744696 
L 153.789545 133.765596 
L 154.058084 134.308976 
L 154.111792 134.246278 
L 154.272916 134.517968 
L 154.326623 134.371674 
L 154.380331 134.538868 
L 154.541455 134.517968 
L 154.595162 134.329875 
L 154.64887 134.434371 
L 154.809994 134.434371 
L 155.024825 134.329875 
L 155.078533 134.434371 
L 155.13224 134.392573 
L 155.293364 134.246278 
L 155.615611 134.308976 
L 155.88415 133.93279 
L 156.045273 134.058185 
L 156.206396 133.995487 
L 156.313812 134.016387 
L 156.421228 133.807394 
L 156.474935 133.828293 
L 156.904598 133.243115 
L 157.065721 133.264014 
L 157.441676 132.971425 
L 157.656507 133.138619 
L 157.925046 133.034122 
L 157.978754 133.305813 
L 158.032462 133.201316 
L 158.193585 133.138619 
L 158.462124 133.36851 
L 158.623247 133.138619 
L 158.676955 133.055022 
L 158.730663 133.180417 
L 158.784371 133.075921 
L 158.999202 132.783332 
L 159.106618 132.678835 
L 159.321449 132.908727 
L 159.375157 132.804231 
L 159.428864 132.908727 
L 159.858527 132.55344 
L 160.395605 132.532541 
L 160.449312 132.344448 
L 160.50302 132.407145 
L 161.040098 132.971425 
L 161.093806 132.866929 
L 161.147514 133.034122 
L 161.201222 132.908727 
L 161.308637 132.783332 
L 161.792007 133.243115 
L 161.899423 133.243115 
L 162.22167 133.514805 
L 162.275378 133.452107 
L 162.436501 133.055022 
L 162.651332 133.075921 
L 162.812456 132.783332 
L 162.919871 132.971425 
L 163.18841 132.783332 
L 163.295826 132.783332 
L 163.403241 132.971425 
L 163.67178 132.657936 
L 163.725488 132.720634 
L 163.832904 132.866929 
L 163.886612 132.616138 
L 163.940319 132.804231 
L 164.101443 132.616138 
L 164.155151 132.720634 
L 164.531105 132.365347 
L 164.745936 132.093657 
L 164.90706 132.093657 
L 164.960768 132.219052 
L 165.014475 132.114556 
L 165.121891 131.989161 
L 165.175599 132.114556 
L 165.229307 131.968261 
L 165.8738 132.595238 
L 166.088631 132.177254 
L 166.142339 132.28175 
L 166.303463 132.030959 
L 166.35717 132.114556 
L 166.410878 132.051858 
L 166.464586 132.051858 
L 166.518294 132.239951 
L 166.572002 132.156354 
L 166.786833 131.863765 
L 166.894248 131.926463 
L 167.001664 131.989161 
L 167.162787 132.093657 
L 167.431326 132.030959 
L 167.485034 131.842866 
L 167.699865 132.428045 
L 167.860989 132.55344 
L 168.022112 133.075921 
L 168.07582 132.866929 
L 168.129528 132.992324 
L 168.290651 133.117719 
L 168.451774 133.36851 
L 168.505482 133.305813 
L 168.55919 133.264014 
L 168.720313 132.866929 
L 168.827729 132.741533 
L 168.881437 132.866929 
L 168.935145 132.720634 
L 169.096268 132.344448 
L 169.149976 132.407145 
L 169.364807 131.73837 
L 169.52593 131.090493 
L 170.009301 129.188663 
L 170.063008 129.105066 
L 170.331547 129.481252 
L 170.385255 129.564849 
L 170.814918 132.28175 
L 172.050197 147.162007 
L 172.318736 148.750349 
L 172.694691 151.049265 
L 172.96323 154.832027 
L 174.359632 182.419021 
L 174.628171 183.171394 
L 174.681879 183.0042 
L 174.735587 182.983301 
L 175.218957 180.956075 
L 175.380081 180.684384 
L 175.594912 180.329097 
L 175.756035 180.558989 
L 175.809743 180.391795 
L 175.863451 180.454493 
L 175.970866 180.517191 
L 176.13199 180.956075 
L 176.185697 180.914276 
L 177.259853 183.171394 
L 177.313561 183.129595 
L 177.474685 183.631177 
L 177.528392 183.484882 
L 177.689516 183.693875 
L 177.796931 183.735673 
L 177.850639 183.840169 
L 177.904347 183.777472 
L 178.011763 183.693875 
L 178.119178 183.840169 
L 178.172886 183.756572 
L 178.226594 183.610278 
L 178.280302 183.777472 
L 178.548841 183.631177 
L 178.763672 184.007363 
L 178.871087 184.028262 
L 178.924795 184.09096 
L 178.978503 184.007363 
L 179.032211 183.902867 
L 179.085919 184.007363 
L 179.30075 183.965565 
L 179.461873 184.216356 
L 179.622997 184.404449 
L 179.837828 184.153658 
L 179.998951 184.153658 
L 180.052659 184.38355 
L 180.106367 184.341751 
L 180.160075 184.195456 
L 180.213782 184.216356 
L 180.536029 184.38355 
L 180.697153 184.279053 
L 180.858276 184.529844 
L 181.019399 184.467146 
L 181.341646 184.529844 
L 181.449062 184.759736 
L 181.50277 184.717937 
L 181.610185 184.592542 
L 181.771309 184.885131 
L 181.878724 184.885131 
L 182.039848 185.031426 
L 182.093555 184.947829 
L 182.147263 185.010527 
L 182.523218 185.428511 
L 182.684341 185.365814 
L 182.738049 185.303116 
L 182.791757 185.428511 
L 182.845465 185.344914 
L 183.221419 184.759736 
L 183.275127 184.65524 
L 183.328835 184.780635 
L 183.43625 184.446247 
L 183.758497 183.610278 
L 183.812205 183.568479 
L 184.188159 182.293626 
L 184.241867 182.314525 
L 184.349283 181.959238 
L 184.617822 181.08147 
L 185.101192 181.729346 
L 185.799393 186.097287 
L 185.853101 186.159985 
L 186.229056 184.216356 
L 186.766134 179.493128 
L 187.088381 178.280972 
L 187.195796 178.427267 
L 187.35692 178.866151 
L 187.947705 181.269563 
L 188.001413 181.269563 
L 188.431076 182.502618 
L 188.484783 182.43992 
L 188.538491 182.544417 
L 188.80703 182.878804 
L 188.914446 182.857905 
L 189.021861 182.941502 
L 189.182985 183.234091 
L 190.364556 184.885131 
L 190.418264 184.90603 
L 190.579388 185.073224 
L 190.633095 185.073224 
L 190.847927 185.407612 
L 191.49242 184.571643 
L 191.760959 183.840169 
L 191.814667 183.840169 
L 192.190621 185.156821 
L 192.405453 187.93642 
L 192.727699 196.212518 
L 193.533316 216.087693 
L 193.855563 217.592438 
L 193.909271 217.613338 
L 194.392641 216.192189 
L 194.500057 216.024995 
L 194.66118 215.8996 
L 194.822304 215.711507 
L 194.876011 215.753305 
L 195.037135 215.648809 
L 195.413089 215.941399 
L 195.574213 216.338484 
L 195.842752 216.756469 
L 195.89646 216.693771 
L 196.057583 216.944562 
L 196.111291 216.881864 
L 196.37983 217.592438 
L 196.648369 217.905927 
L 196.702077 217.801431 
L 196.916908 217.905927 
L 196.970616 218.219415 
L 197.024323 218.114919 
L 197.078031 218.114919 
L 197.292862 218.36571 
L 197.615109 218.470206 
L 197.722525 218.574702 
L 197.776233 218.491106 
L 197.82994 218.428408 
L 197.991064 218.574702 
L 198.152187 218.512005 
L 198.259603 218.825493 
L 198.313311 218.700098 
L 198.635557 218.470206 
L 198.957804 218.574702 
L 199.011512 218.491106 
L 199.06522 218.679199 
L 199.118928 218.512005 
L 199.226343 218.616501 
L 199.333759 218.512005 
L 199.387466 218.700098 
L 199.441174 218.6374 
L 199.494882 218.553803 
L 199.709713 219.013586 
L 199.870837 218.762796 
L 199.924544 218.825493 
L 200.085668 218.616501 
L 200.300499 218.741896 
L 200.461622 218.992687 
L 200.569038 219.076284 
L 200.622746 218.992687 
L 200.676454 219.076284 
L 200.783869 219.055385 
L 200.944993 219.306176 
L 200.9987 219.20168 
L 201.052408 219.306176 
L 201.320947 219.306176 
L 201.374655 219.431571 
L 201.535778 219.18078 
L 201.696902 219.243478 
L 201.75061 219.013586 
L 201.804317 219.243478 
L 201.965441 219.118083 
L 202.126564 219.264377 
L 202.502519 218.825493 
L 202.556227 218.825493 
L 203.576675 216.254887 
L 203.791506 215.753305 
L 204.006337 215.105429 
L 204.060045 215.126328 
L 204.328584 215.230824 
L 204.489707 215.481615 
L 205.832402 222.232069 
L 205.88611 222.315666 
L 206.476896 220.01675 
L 206.906558 217.341647 
L 207.336221 215.836902 
L 207.497344 215.816003 
L 207.551052 215.816003 
L 208.034422 216.71467 
L 208.195545 217.049058 
L 208.410377 217.592438 
L 208.464084 217.592438 
L 208.678916 218.219415 
L 208.732623 218.177617 
L 208.786331 218.114919 
L 208.947455 218.303012 
L 209.05487 218.344811 
L 209.215994 218.762796 
L 209.269701 218.616501 
L 209.323409 218.700098 
L 209.645656 218.679199 
L 209.860487 218.762796 
L 210.29015 219.431571 
L 210.397565 219.954052 
L 210.666104 221.876782 
L 211.310598 229.128818 
L 211.418013 228.104755 
L 211.579137 223.757713 
L 212.062507 206.202354 
L 212.116215 206.348648 
L 212.277338 210.841985 
L 212.760708 228.292848 
L 212.921832 229.358709 
L 213.136663 228.752631 
L 213.620033 225.889436 
L 213.888572 225.053466 
L 214.264527 224.656381 
L 214.318235 224.719078 
L 214.90902 224.363791 
L 215.016436 224.593683 
L 215.070144 224.551884 
L 215.284975 224.614582 
L 215.338683 224.551884 
L 215.39239 224.656381 
L 215.607222 224.802675 
L 215.714637 224.719078 
L 215.983176 224.990768 
L 216.735085 224.907172 
L 216.842501 224.802675 
L 217.003624 224.907172 
L 217.164748 225.053466 
L 217.379579 225.053466 
L 217.486995 225.095265 
L 217.648118 224.865373 
L 217.701826 225.053466 
L 217.755534 224.907172 
L 217.916657 224.865373 
L 218.024073 224.844474 
L 218.07778 224.928071 
L 218.131488 224.802675 
L 218.185196 224.928071 
L 218.722274 225.032567 
L 218.990813 225.22066 
L 219.205644 225.157962 
L 219.259352 225.283358 
L 219.31306 225.157962 
L 219.581599 225.22066 
L 219.79643 225.053466 
L 219.850138 225.178862 
L 219.903846 225.116164 
L 220.118677 225.116164 
L 220.2798 225.22066 
L 220.387216 225.178862 
L 220.548339 225.053466 
L 220.709463 225.178862 
L 220.924294 224.990768 
L 221.139125 225.157962 
L 221.51508 224.969869 
L 221.676203 224.907172 
L 221.729911 224.802675 
L 221.783619 224.865373 
L 221.944742 224.928071 
L 222.213281 224.781776 
L 222.320697 224.865373 
L 222.535528 225.032567 
L 222.589236 224.907172 
L 222.642943 224.969869 
L 222.804067 225.032567 
L 222.857774 225.095265 
L 222.911482 224.990768 
L 223.180021 224.969869 
L 223.233729 225.032567 
L 223.287437 224.969869 
L 223.394852 224.990768 
L 223.717099 225.157962 
L 223.878223 225.053466 
L 224.146762 225.346055 
L 224.307885 225.346055 
L 224.361593 225.304257 
L 224.576424 225.534149 
L 224.68384 225.408753 
L 224.737547 225.471451 
L 224.791255 225.283358 
L 224.844963 225.304257 
L 225.006086 225.366955 
L 225.328333 225.157962 
L 225.435749 225.178862 
L 225.919119 224.656381 
L 226.080242 224.739978 
L 226.348781 224.67728 
L 226.456197 224.739978 
L 226.724736 224.593683 
L 226.832152 224.551884 
L 226.993275 224.489187 
L 227.745184 224.426489 
L 227.960015 224.280194 
L 228.067431 224.154799 
L 229.249003 222.190271 
L 229.410126 221.855883 
L 229.463834 221.876782 
L 229.732373 221.437898 
L 229.947204 221.416999 
L 230.269451 222.064875 
L 230.860236 224.67728 
L 230.913944 224.865373 
L 230.967652 224.844474 
L 231.075068 224.551884 
L 231.236191 223.506923 
L 231.50473 219.515168 
L 232.525178 201.688118 
L 232.740009 201.040242 
L 232.847425 201.040242 
L 232.901133 200.873048 
L 232.954841 201.040242 
L 233.330795 201.458227 
L 233.70675 201.249234 
L 235.371692 198.197946 
L 235.532815 198.135248 
L 235.747646 197.863558 
L 235.90877 197.821759 
L 236.445848 197.361976 
L 236.606971 197.424674 
L 236.768094 197.25748 
L 236.929218 197.382875 
L 237.144049 197.111185 
L 237.197757 197.194782 
L 237.251465 197.006689 
L 237.305172 197.048488 
L 237.35888 197.132085 
L 237.412588 197.048488 
L 237.573711 197.048488 
L 237.681127 197.111185 
L 238.057082 196.881294 
L 238.164497 196.943991 
L 238.271913 196.881294 
L 238.486744 196.98579 
L 238.594159 196.881294 
L 238.647867 196.943991 
L 238.970114 196.860394 
L 239.131237 196.860394 
L 239.346069 196.776798 
L 239.399776 196.672301 
L 239.453484 196.7141 
L 239.614608 196.776798 
L 239.668315 196.672301 
L 239.722023 196.7141 
L 239.829439 196.734999 
L 240.04427 196.588704 
L 240.151686 196.609604 
L 240.205393 196.672301 
L 240.259101 196.588704 
L 241.386965 196.609604 
L 241.440673 196.7141 
L 241.494381 196.672301 
L 241.76292 196.734999 
L 241.977751 197.069387 
L 242.461121 197.132085 
L 242.622244 197.299278 
L 242.783368 197.382875 
L 242.998199 197.424674 
L 243.105615 197.550069 
L 243.535277 197.947155 
L 243.588985 197.884457 
L 243.642693 197.988953 
L 243.803816 197.947155 
L 244.233478 197.884457 
L 244.340894 197.884457 
L 244.555725 197.863558 
L 244.663141 197.926256 
L 244.93168 197.570969 
L 245.039095 197.487372 
L 245.253927 197.382875 
L 245.307634 197.445573 
L 245.361342 197.320178 
L 245.41505 197.382875 
L 245.522466 197.299278 
L 246.005836 197.048488 
L 246.274375 196.98579 
L 246.489206 196.797697 
L 246.704037 196.818596 
L 247.670777 196.818596 
L 247.939316 197.236581 
L 248.046732 197.299278 
L 248.154148 197.487372 
L 248.207855 197.445573 
L 248.368979 197.570969 
L 248.422687 197.487372 
L 248.58381 197.445573 
L 248.691226 197.299278 
L 249.389427 195.773634 
L 249.872797 194.436083 
L 250.141336 193.997199 
L 250.409875 193.432919 
L 250.517291 193.41202 
L 250.946953 193.41202 
L 251.054369 193.244826 
L 251.108077 193.307524 
L 251.215492 193.41202 
L 251.322908 193.432919 
L 251.645155 193.537416 
L 251.75257 193.662811 
L 251.806278 193.558315 
L 252.021109 193.600113 
L 252.23594 193.474718 
L 252.450772 193.600113 
L 252.504479 193.495617 
L 252.558187 193.558315 
L 252.826726 193.662811 
L 252.98785 193.600113 
L 253.417512 193.662811 
L 253.524928 193.662811 
L 253.632343 193.788207 
L 253.686051 193.746408 
L 255.243577 193.662811 
L 255.297285 193.600113 
L 255.350993 193.662811 
L 256.102902 193.871803 
L 256.15661 193.746408 
L 256.210317 193.788207 
L 256.425149 193.871803 
L 256.586272 193.892703 
L 256.962227 194.080796 
L 257.12335 194.059897 
L 257.284473 194.143494 
L 257.445597 194.185292 
L 257.928967 194.080796 
L 258.358629 194.018098 
L 258.519753 194.018098 
L 258.680876 194.059897 
L 259.271662 194.143494 
L 259.486493 194.394284 
L 260.560649 196.651402 
L 260.936604 196.923092 
L 261.366266 197.006689 
L 262.333006 196.672301 
L 262.547838 196.776798 
L 263.836825 196.881294 
L 263.997948 196.881294 
L 265.17952 196.98579 
L 266.468507 197.570969 
L 267.059293 198.114349 
L 267.488955 198.177046 
L 267.542663 198.177046 
L 268.294572 196.14982 
L 268.509403 195.794533 
L 268.670527 196.14982 
L 268.83165 197.194782 
L 269.046481 199.869885 
L 269.959514 213.537986 
L 270.174345 214.185863 
L 270.228053 214.227661 
L 270.281761 214.144064 
L 270.389176 213.914172 
L 271.03367 212.388528 
L 271.248501 212.430327 
L 271.51704 212.555722 
L 271.731871 212.827412 
L 272.806027 213.955971 
L 273.074566 214.039568 
L 273.343105 214.144064 
L 275.706248 214.24856 
L 275.92108 214.290359 
L 276.350742 214.353056 
L 276.995236 214.24856 
L 277.048943 214.185863 
L 277.102651 214.24856 
L 279.197255 214.144064 
L 279.412086 214.102266 
L 280.271411 214.185863 
L 280.432535 214.185863 
L 282.366015 214.24856 
L 282.527139 214.311258 
L 283.547587 214.415754 
L 283.869834 214.436653 
L 285.158821 214.54115 
L 286.232977 214.854638 
L 287.038594 214.79194 
L 287.575672 214.018669 
L 287.844211 213.70518 
L 287.951626 213.663382 
L 288.220165 214.081366 
L 288.434997 215.042731 
L 288.810951 217.926826 
L 289.348029 222.043976 
L 289.616568 222.691852 
L 289.723984 222.670953 
L 289.992523 221.981278 
L 290.637016 220.037649 
L 290.905555 219.828657 
L 291.120387 219.870455 
L 291.442633 220.079448 
L 291.872296 220.581029 
L 292.355666 220.852719 
L 292.624205 221.019913 
L 293.752069 221.354301 
L 294.128023 221.270704 
L 294.93364 220.539231 
L 295.309595 220.142145 
L 295.470718 220.100347 
L 295.846673 220.455634 
L 296.330043 221.333402 
L 296.813413 221.730487 
L 297.13566 221.625991 
L 297.61903 221.228906 
L 297.887569 221.040813 
L 298.209816 220.790022 
L 298.478355 220.706425 
L 298.800602 220.581029 
L 299.069141 220.476533 
L 299.713634 220.330238 
L 303.741719 220.413835 
L 303.902843 220.413835 
L 305.567784 220.351138 
L 305.728908 220.28844 
L 305.943739 220.392936 
L 307.286434 220.476533 
L 307.447557 220.539231 
L 308.253174 220.455634 
L 308.306882 220.413835 
L 308.36059 220.518332 
L 308.414298 220.476533 
L 308.84396 220.392936 
L 309.058791 220.351138 
L 309.542161 220.267541 
L 313.570246 220.163045 
L 313.892493 219.933153 
L 314.644402 219.431571 
L 314.805526 219.494269 
L 315.074065 219.682362 
L 315.396312 220.01675 
L 316.309344 220.267541 
L 316.577883 220.204843 
L 316.846422 220.037649 
L 316.953838 220.037649 
L 317.490916 219.933153 
L 318.242825 219.828657 
L 318.511364 219.807757 
L 318.779903 219.807757 
L 318.941026 219.807757 
L 319.155857 219.891354 
L 319.370689 219.933153 
L 319.854059 220.037649 
L 319.961474 220.079448 
L 320.122598 220.142145 
L 320.444845 220.01675 
L 321.519001 220.100347 
L 321.680124 220.142145 
L 321.841247 220.079448 
L 322.646864 220.163045 
L 322.861696 220.267541 
L 323.022819 220.204843 
L 323.183942 220.267541 
L 323.291358 220.28844 
L 323.345066 220.225742 
L 323.398774 220.28844 
L 323.613605 220.330238 
L 323.72102 220.267541 
L 323.935852 220.351138 
L 324.096975 220.455634 
L 324.258098 220.476533 
L 324.526637 220.601929 
L 324.634053 220.539231 
L 325.010007 220.706425 
L 325.493378 220.790022 
L 325.654501 220.83182 
L 325.761917 220.769122 
L 326.084163 220.539231 
L 326.245287 220.392936 
L 326.621241 220.079448 
L 327.050904 220.163045 
L 327.64169 220.978115 
L 327.963936 221.479697 
L 328.554722 222.043976 
L 328.715846 222.064875 
L 328.769553 222.169371 
L 328.823261 222.127573 
L 329.145508 222.043976 
L 329.360339 221.876782 
L 329.521463 221.876782 
L 329.790002 221.93948 
L 329.951125 222.190271 
L 330.32708 223.820411 
L 331.29382 230.15288 
L 331.508651 230.508167 
L 331.830898 230.403671 
L 332.475392 230.194679 
L 332.797638 230.403671 
L 332.958762 230.403671 
L 333.119885 230.591764 
L 333.173593 230.466369 
L 333.227301 230.633563 
L 333.281008 230.591764 
L 333.656963 230.69626 
L 334.408872 230.905253 
L 334.569996 230.821656 
L 334.784827 230.905253 
L 334.94595 230.842555 
L 335.160781 230.884353 
L 335.321905 230.905253 
L 335.375613 231.009749 
L 335.42932 230.884353 
L 335.697859 230.947051 
L 335.805275 230.842555 
L 335.858983 230.905253 
L 336.342353 231.218741 
L 336.503476 231.135144 
L 336.6646 231.093346 
L 336.718308 231.26054 
L 336.772015 231.218741 
L 336.933139 231.197842 
L 336.986847 231.26054 
L 336.986847 231.26054 
" clip-path="url(#p4aafe975dc)" style="fill: none; stroke: #ff7f0e; stroke-width: 1.5; stroke-linecap: square"/>
   </g>
   <g id="line2d_12">
    <path d="M 92.723778 70.963386 
L 93.797934 62.666116 
L 93.90535 62.565543 
L 94.066473 63.001359 
L 94.335012 64.996057 
L 94.764675 68.365251 
L 94.925798 68.734019 
L 95.033214 68.616684 
L 95.248045 67.979721 
L 95.838831 65.884451 
L 96.644448 64.610527 
L 97.07411 64.359094 
L 97.181526 64.359094 
L 97.396357 64.241759 
L 98.577928 63.94004 
L 98.739052 63.94004 
L 99.115006 63.923278 
L 101.317026 64.023851 
L 101.800396 64.0909 
L 102.283767 64.023851 
L 102.44489 64.040613 
L 104.270955 64.141186 
L 104.432079 64.174711 
L 104.700618 64.124424 
L 105.721066 64.023851 
L 105.882189 64.023851 
L 106.09702 64.074138 
L 106.311851 64.040613 
L 106.795222 63.973565 
L 107.171176 63.990327 
L 107.761962 64.0909 
L 107.923085 64.0909 
L 110.554768 64.191473 
L 110.715891 64.191473 
L 111.091846 64.141186 
L 111.252969 64.0909 
L 111.736339 64.023851 
L 112.058586 63.872992 
L 112.327125 63.638322 
L 112.810495 62.548781 
L 113.18645 60.453511 
L 113.562404 58.592911 
L 113.66982 58.693484 
L 113.830943 59.548354 
L 114.15319 63.101932 
L 114.475437 65.767116 
L 114.582852 65.884451 
L 114.690268 65.633019 
L 114.905099 64.275284 
L 115.603301 59.330446 
L 115.87184 58.928154 
L 116.140379 59.095776 
L 116.623749 59.682451 
L 116.83858 59.917122 
L 117.107119 60.151792 
L 117.429366 60.302651 
L 118.825769 60.21884 
L 118.986892 60.21884 
L 119.309139 60.202078 
L 119.846217 60.302651 
L 120.114756 60.252365 
L 123.605763 60.352938 
L 123.820594 60.419986 
L 129.352497 60.520559 
L 129.51362 60.503797 
L 130.211822 60.60437 
L 130.587776 60.621132 
L 131.124854 60.721705 
L 132.306426 61.341905 
L 132.413842 61.241332 
L 132.736088 60.805516 
L 133.112043 60.889327 
L 133.487998 61.123997 
L 133.649121 61.040186 
L 133.863952 60.654657 
L 134.293615 59.715976 
L 134.454738 59.766262 
L 134.669569 60.319413 
L 135.475186 62.967835 
L 135.690017 62.917549 
L 136.60305 61.945343 
L 136.925297 61.945343 
L 137.08642 62.029154 
L 137.408667 62.112965 
L 137.892037 62.314111 
L 138.214284 62.397922 
L 138.482823 62.498494 
L 138.80507 62.565543 
L 138.912485 62.515257 
L 139.073609 62.515257 
L 140.147765 62.61583 
L 140.470011 62.69964 
L 142.027538 62.599067 
L 142.242369 62.565543 
L 145.035174 62.666116 
L 145.196298 62.666116 
L 145.518544 62.666116 
L 149.600337 62.749927 
L 149.815168 62.800213 
L 150.405954 63.068408 
L 150.835617 63.31984 
L 151.050448 63.386889 
L 151.211571 63.520986 
L 151.802357 63.621559 
L 151.96348 63.638322 
L 154.863701 63.571273 
L 155.078533 63.520986 
L 168.022112 63.621559 
L 168.398067 63.671846 
L 168.666606 63.621559 
L 168.881437 63.621559 
L 169.257391 63.487462 
L 170.170424 63.588035 
L 170.438963 63.872992 
L 171.137164 65.415111 
L 171.996489 67.745051 
L 172.318736 68.113819 
L 172.694691 67.761813 
L 172.855814 67.443332 
L 173.661431 65.465397 
L 173.983678 65.314538 
L 174.950418 66.018549 
L 175.165249 66.135884 
L 176.13199 66.035311 
L 176.61536 65.985024 
L 176.776483 65.968262 
L 177.152438 65.834165 
L 177.958055 65.733592 
L 178.441425 65.683305 
L 178.656256 65.71683 
L 179.139626 65.616257 
L 179.30075 65.616257 
L 180.697153 65.71683 
L 181.073107 65.733592 
L 181.610185 65.616257 
L 181.771309 65.666543 
L 181.932432 65.633019 
L 182.200971 65.71683 
L 182.46951 65.666543 
L 182.630633 65.683305 
L 183.328835 65.582732 
L 184.510406 65.314538 
L 184.778945 65.415111 
L 185.691978 66.739321 
L 185.960517 66.269981 
L 186.927257 62.917549 
L 187.195796 63.001359 
L 187.464335 63.370127 
L 187.947705 64.074138 
L 188.377368 64.359094 
L 188.538491 64.392619 
L 188.968154 64.442905 
L 189.129277 64.459667 
L 190.149725 64.359094 
L 190.686803 64.292046 
L 190.847927 64.275284 
L 191.170173 64.174711 
L 191.385004 64.124424 
L 191.653543 64.074138 
L 191.922082 64.241759 
L 192.298037 64.996057 
L 193.21107 67.510381 
L 193.372193 67.543905 
L 193.801855 67.158376 
L 194.070394 66.890181 
L 194.392641 66.689035 
L 197.776233 67.644478 
L 200.676454 67.543905 
L 200.891285 67.493619 
L 201.267239 67.510381 
L 201.535778 67.409808 
L 201.965441 67.359521 
L 202.126564 67.393046 
L 202.448811 67.309235 
L 203.898922 67.409808 
L 204.436 67.761813 
L 205.134201 67.443332 
L 205.778695 66.638749 
L 206.315773 66.286743 
L 206.530604 66.286743 
L 207.228805 66.80637 
L 207.443636 67.057803 
L 207.658467 67.158376 
L 207.873299 67.242186 
L 208.678916 67.158376 
L 209.001162 67.007516 
L 209.806779 66.839894 
L 210.075318 67.007516 
L 210.343857 67.393046 
L 210.612396 68.113819 
L 211.25689 70.611381 
L 211.310598 70.561094 
L 211.418013 70.091754 
L 211.632845 67.443332 
L 212.062507 61.543051 
L 212.169923 62.112965 
L 212.438462 66.739321 
L 212.760708 70.862813 
L 212.868124 71.063959 
L 213.082955 70.52757 
L 213.673741 68.264678 
L 214.157111 67.594192 
L 214.533066 67.359521 
L 215.446098 67.292473 
L 215.660929 67.242186 
L 216.949917 67.141613 
L 217.11104 67.158376 
L 217.272163 67.158376 
L 219.635307 67.242186 
L 219.850138 67.292473 
L 220.2798 67.342759 
L 220.494631 67.309235 
L 221.192833 67.208662 
L 221.407664 67.158376 
L 221.891034 67.108089 
L 222.159573 67.208662 
L 222.320697 67.208662 
L 227.422937 67.108089 
L 228.81934 66.5717 
L 229.034171 66.487889 
L 229.732373 66.538176 
L 230.108327 66.940467 
L 230.215743 67.04104 
L 230.53799 67.409808 
L 230.699113 67.460094 
L 230.860236 67.342759 
L 231.128775 66.320267 
L 231.558438 62.967835 
L 232.041808 59.296922 
L 232.256639 58.626435 
L 232.47147 58.576149 
L 232.686302 58.928154 
L 232.901133 59.330446 
L 233.22338 59.799786 
L 233.438211 59.850073 
L 233.760458 59.766262 
L 235.317984 58.458813 
L 235.640231 58.35824 
L 235.90877 58.307954 
L 236.177309 58.307954 
L 236.39214 58.27443 
L 236.606971 58.307954 
L 236.821802 58.27443 
L 236.929218 58.27443 
L 237.144049 58.224143 
L 237.788543 58.12357 
L 237.949666 58.12357 
L 239.346069 58.022997 
L 239.614608 58.022997 
L 239.775731 58.022997 
L 240.312809 57.955949 
L 240.473932 57.955949 
L 240.688764 57.922424 
L 241.333257 57.821851 
L 243.21303 57.721278 
L 243.481569 57.620705 
L 243.803816 57.520132 
L 244.018647 57.419559 
L 244.179771 57.453084 
L 244.609433 57.302224 
L 244.985388 57.201651 
L 245.522466 57.134603 
L 247.670777 57.235176 
L 247.939316 57.453084 
L 248.046732 57.520132 
L 249.335719 58.626435 
L 249.604258 58.525862 
L 249.711674 58.525862 
L 250.248752 58.157095 
L 250.678414 58.056522 
L 251.000661 57.972711 
L 251.215492 57.972711 
L 251.430323 58.056522 
L 251.537739 58.056522 
L 251.806278 58.157095 
L 251.967401 58.157095 
L 252.182233 58.157095 
L 252.343356 58.12357 
L 252.611895 58.224143 
L 252.934142 58.173857 
L 253.148973 58.257667 
L 253.417512 58.173857 
L 253.632343 58.27443 
L 254.062006 58.224143 
L 254.43796 58.35824 
L 254.652791 58.27443 
L 259.486493 58.375003 
L 260.936604 59.581878 
L 261.097727 59.581878 
L 261.473682 59.481305 
L 261.742221 59.380732 
L 262.171883 59.229873 
L 263.729409 59.330446 
L 263.94424 59.296922 
L 264.964689 59.397495 
L 265.233228 59.447781 
L 265.394351 59.447781 
L 265.824013 59.59864 
L 265.985137 59.682451 
L 266.737046 60.252365 
L 267.166708 60.621132 
L 267.488955 60.704943 
L 267.86491 60.21884 
L 268.401988 59.246635 
L 268.455696 59.280159 
L 268.616819 59.632165 
L 268.83165 60.939613 
L 269.100189 64.275284 
L 269.905806 74.785159 
L 270.120637 75.405359 
L 270.335468 75.170689 
L 270.979962 73.678857 
L 271.302209 73.678857 
L 271.51704 73.829716 
L 272.591196 75.003067 
L 272.806027 75.10364 
L 272.967151 75.10364 
L 273.933891 75.321548 
L 274.095014 75.321548 
L 274.309846 75.371835 
L 275.330294 75.271262 
L 275.652541 75.2545 
L 276.458158 75.455646 
L 276.672989 75.371835 
L 276.941528 75.422121 
L 280.163996 75.522694 
L 280.378827 75.556219 
L 280.53995 75.572981 
L 280.915905 75.72384 
L 281.452983 75.623267 
L 281.77523 75.707078 
L 281.990061 75.656792 
L 282.151184 75.673554 
L 282.366015 75.673554 
L 282.634554 75.72384 
L 283.601295 75.824413 
L 283.869834 75.8747 
L 284.030957 75.924986 
L 284.245788 75.975273 
L 284.997698 76.075846 
L 286.340392 76.595473 
L 286.931178 76.846905 
L 287.307133 76.746332 
L 287.790503 76.142894 
L 288.059042 75.8747 
L 288.220165 75.8747 
L 288.488704 76.545186 
L 288.810951 78.439311 
L 289.723984 84.306067 
L 289.938815 84.5575 
L 290.153646 84.389878 
L 290.368477 84.088159 
L 290.690724 83.635581 
L 290.959263 83.484721 
L 292.731621 85.043602 
L 292.839036 85.093889 
L 293.053867 85.194462 
L 295.202179 85.781138 
L 295.739257 85.714089 
L 296.813413 85.965521 
L 297.028244 85.931997 
L 297.672738 85.831424 
L 298.693186 85.613516 
L 300.734083 85.714089 
L 300.895206 85.714089 
L 301.056329 85.680565 
L 301.271161 85.714089 
L 302.721271 85.814662 
L 302.936102 85.781138 
L 303.204641 85.831424 
L 303.419472 85.965521 
L 303.580596 85.931997 
L 303.849135 85.982284 
L 304.117674 86.066094 
L 304.225089 86.066094 
L 304.439921 85.982284 
L 305.943739 85.881711 
L 306.373401 85.831424 
L 306.534525 85.864948 
L 306.856772 85.781138 
L 307.071603 85.831424 
L 308.951376 85.931997 
L 309.273622 86.015808 
L 313.516539 86.116381 
L 314.161032 86.216954 
L 315.557435 86.133143 
L 315.772266 86.082857 
L 315.987097 86.066094 
L 316.148221 86.116381 
L 316.309344 86.082857 
L 316.524175 86.116381 
L 319.531812 86.18343 
L 319.746643 86.26724 
L 322.002371 86.166667 
L 322.27091 86.082857 
L 322.485741 86.116381 
L 323.183942 86.216954 
L 323.506189 86.216954 
L 325.43967 86.284002 
L 325.654501 86.334289 
L 326.084163 86.501911 
L 326.298995 86.535435 
L 326.943488 86.636008 
L 327.587982 86.552197 
L 327.802813 86.451624 
L 327.910229 86.434862 
L 328.554722 86.334289 
L 329.0918 86.434862 
L 329.897417 86.585721 
L 330.112248 86.367813 
L 330.703034 85.630278 
L 331.186404 85.579992 
L 331.938314 86.133143 
L 332.099437 86.216954 
L 332.314268 86.284002 
L 333.549547 86.18343 
L 333.764379 86.133143 
L 336.986847 86.133143 
L 336.986847 86.133143 
" clip-path="url(#p4aafe975dc)" style="fill: none; stroke: #2ca02c; stroke-width: 1.5; stroke-linecap: square"/>
   </g>
   <g id="patch_3">
    <path d="M 80.510625 241.036875 
L 80.510625 25.9575 
" style="fill: none; stroke: #000000; stroke-width: 0.8; stroke-linejoin: miter; stroke-linecap: square"/>
   </g>
   <g id="patch_4">
    <path d="M 349.2 241.036875 
L 349.2 25.9575 
" style="fill: none; stroke: #000000; stroke-width: 0.8; stroke-linejoin: miter; stroke-linecap: square"/>
   </g>
   <g id="patch_5">
    <path d="M 80.510625 241.036875 
L 349.2 241.036875 
" style="fill: none; stroke: #000000; stroke-width: 0.8; stroke-linejoin: miter; stroke-linecap: square"/>
   </g>
   <g id="patch_6">
    <path d="M 80.510625 25.9575 
L 349.2 25.9575 
" style="fill: none; stroke: #000000; stroke-width: 0.8; stroke-linejoin: miter; stroke-linecap: square"/>
   </g>
  </g>
 </g>
 <defs>
  <clipPath id="p4aafe975dc">
   <rect x="80.510625" y="25.9575" width="268.689375" height="215.079375"/>
  </clipPath>
 </defs>
</svg>
