<?xml version="1.0" encoding="utf-8" standalone="no"?>
<!DOCTYPE svg PUBLIC "-//W3C//DTD SVG 1.1//EN"
  "http://www.w3.org/Graphics/SVG/1.1/DTD/svg11.dtd">
<svg xmlns:xlink="http://www.w3.org/1999/xlink" width="414pt" height="288pt" viewBox="0 0 414 288" xmlns="http://www.w3.org/2000/svg" version="1.1">
 <metadata>
  <rdf:RDF xmlns:dc="http://purl.org/dc/elements/1.1/" xmlns:cc="http://creativecommons.org/ns#" xmlns:rdf="http://www.w3.org/1999/02/22-rdf-syntax-ns#">
   <cc:Work>
    <dc:type rdf:resource="http://purl.org/dc/dcmitype/StillImage"/>
    <dc:date>2023-09-07T00:35:55.539207</dc:date>
    <dc:format>image/svg+xml</dc:format>
    <dc:creator>
     <cc:Agent>
      <dc:title>Matplotlib v3.7.2, https://matplotlib.org/</dc:title>
     </cc:Agent>
    </dc:creator>
   </cc:Work>
  </rdf:RDF>
 </metadata>
 <defs>
  <style type="text/css">*{stroke-linejoin: round; stroke-linecap: butt}</style>
 </defs>
 <g id="figure_1">
  <g id="patch_1">
   <path d="M 0 288 
L 414 288 
L 414 0 
L 0 0 
L 0 288 
z
" style="fill: none"/>
  </g>
  <g id="axes_1">
   <g id="patch_2">
    <path d="M 55.065625 241.036875 
L 403.2 241.036875 
L 403.2 10.8 
L 55.065625 10.8 
L 55.065625 241.036875 
z
" style="fill: none"/>
   </g>
   <g id="matplotlib.axis_1">
    <g id="xtick_1">
     <g id="line2d_1">
      <defs>
       <path id="m1669f37630" d="M 0 0 
L 0 3.5 
" style="stroke: #000000; stroke-width: 0.8"/>
      </defs>
      <g>
       <use xlink:href="#m1669f37630" x="70.889915" y="241.036875" style="stroke: #000000; stroke-width: 0.8"/>
      </g>
     </g>
     <g id="text_1">
      <!-- 0 -->
      <g transform="translate(65.799915 260.194375) scale(0.16 -0.16)">
       <defs>
        <path id="DejaVuSans-30" d="M 2034 4250 
Q 1547 4250 1301 3770 
Q 1056 3291 1056 2328 
Q 1056 1369 1301 889 
Q 1547 409 2034 409 
Q 2525 409 2770 889 
Q 3016 1369 3016 2328 
Q 3016 3291 2770 3770 
Q 2525 4250 2034 4250 
z
M 2034 4750 
Q 2819 4750 3233 4129 
Q 3647 3509 3647 2328 
Q 3647 1150 3233 529 
Q 2819 -91 2034 -91 
Q 1250 -91 836 529 
Q 422 1150 422 2328 
Q 422 3509 836 4129 
Q 1250 4750 2034 4750 
z
" transform="scale(0.015625)"/>
       </defs>
       <use xlink:href="#DejaVuSans-30"/>
      </g>
     </g>
    </g>
    <g id="xtick_2">
     <g id="line2d_2">
      <g>
       <use xlink:href="#m1669f37630" x="150.150069" y="241.036875" style="stroke: #000000; stroke-width: 0.8"/>
      </g>
     </g>
     <g id="text_2">
      <!-- 10 -->
      <g transform="translate(139.970069 260.194375) scale(0.16 -0.16)">
       <defs>
        <path id="DejaVuSans-31" d="M 794 531 
L 1825 531 
L 1825 4091 
L 703 3866 
L 703 4441 
L 1819 4666 
L 2450 4666 
L 2450 531 
L 3481 531 
L 3481 0 
L 794 0 
L 794 531 
z
" transform="scale(0.015625)"/>
       </defs>
       <use xlink:href="#DejaVuSans-31"/>
       <use xlink:href="#DejaVuSans-30" x="63.623047"/>
      </g>
     </g>
    </g>
    <g id="xtick_3">
     <g id="line2d_3">
      <g>
       <use xlink:href="#m1669f37630" x="229.410223" y="241.036875" style="stroke: #000000; stroke-width: 0.8"/>
      </g>
     </g>
     <g id="text_3">
      <!-- 20 -->
      <g transform="translate(219.230223 260.194375) scale(0.16 -0.16)">
       <defs>
        <path id="DejaVuSans-32" d="M 1228 531 
L 3431 531 
L 3431 0 
L 469 0 
L 469 531 
Q 828 903 1448 1529 
Q 2069 2156 2228 2338 
Q 2531 2678 2651 2914 
Q 2772 3150 2772 3378 
Q 2772 3750 2511 3984 
Q 2250 4219 1831 4219 
Q 1534 4219 1204 4116 
Q 875 4013 500 3803 
L 500 4441 
Q 881 4594 1212 4672 
Q 1544 4750 1819 4750 
Q 2544 4750 2975 4387 
Q 3406 4025 3406 3419 
Q 3406 3131 3298 2873 
Q 3191 2616 2906 2266 
Q 2828 2175 2409 1742 
Q 1991 1309 1228 531 
z
" transform="scale(0.015625)"/>
       </defs>
       <use xlink:href="#DejaVuSans-32"/>
       <use xlink:href="#DejaVuSans-30" x="63.623047"/>
      </g>
     </g>
    </g>
    <g id="xtick_4">
     <g id="line2d_4">
      <g>
       <use xlink:href="#m1669f37630" x="308.670377" y="241.036875" style="stroke: #000000; stroke-width: 0.8"/>
      </g>
     </g>
     <g id="text_4">
      <!-- 30 -->
      <g transform="translate(298.490377 260.194375) scale(0.16 -0.16)">
       <defs>
        <path id="DejaVuSans-33" d="M 2597 2516 
Q 3050 2419 3304 2112 
Q 3559 1806 3559 1356 
Q 3559 666 3084 287 
Q 2609 -91 1734 -91 
Q 1441 -91 1130 -33 
Q 819 25 488 141 
L 488 750 
Q 750 597 1062 519 
Q 1375 441 1716 441 
Q 2309 441 2620 675 
Q 2931 909 2931 1356 
Q 2931 1769 2642 2001 
Q 2353 2234 1838 2234 
L 1294 2234 
L 1294 2753 
L 1863 2753 
Q 2328 2753 2575 2939 
Q 2822 3125 2822 3475 
Q 2822 3834 2567 4026 
Q 2313 4219 1838 4219 
Q 1578 4219 1281 4162 
Q 984 4106 628 3988 
L 628 4550 
Q 988 4650 1302 4700 
Q 1616 4750 1894 4750 
Q 2613 4750 3031 4423 
Q 3450 4097 3450 3541 
Q 3450 3153 3228 2886 
Q 3006 2619 2597 2516 
z
" transform="scale(0.015625)"/>
       </defs>
       <use xlink:href="#DejaVuSans-33"/>
       <use xlink:href="#DejaVuSans-30" x="63.623047"/>
      </g>
     </g>
    </g>
    <g id="xtick_5">
     <g id="line2d_5">
      <g>
       <use xlink:href="#m1669f37630" x="387.930531" y="241.036875" style="stroke: #000000; stroke-width: 0.8"/>
      </g>
     </g>
     <g id="text_5">
      <!-- 40 -->
      <g transform="translate(377.750531 260.194375) scale(0.16 -0.16)">
       <defs>
        <path id="DejaVuSans-34" d="M 2419 4116 
L 825 1625 
L 2419 1625 
L 2419 4116 
z
M 2253 4666 
L 3047 4666 
L 3047 1625 
L 3713 1625 
L 3713 1100 
L 3047 1100 
L 3047 0 
L 2419 0 
L 2419 1100 
L 313 1100 
L 313 1709 
L 2253 4666 
z
" transform="scale(0.015625)"/>
       </defs>
       <use xlink:href="#DejaVuSans-34"/>
       <use xlink:href="#DejaVuSans-30" x="63.623047"/>
      </g>
     </g>
    </g>
    <g id="text_6">
     <!-- Time [min] -->
     <g transform="translate(201.980469 275.120313) scale(0.1 -0.1)">
      <defs>
       <path id="DejaVuSans-54" d="M -19 4666 
L 3928 4666 
L 3928 4134 
L 2272 4134 
L 2272 0 
L 1638 0 
L 1638 4134 
L -19 4134 
L -19 4666 
z
" transform="scale(0.015625)"/>
       <path id="DejaVuSans-69" d="M 603 3500 
L 1178 3500 
L 1178 0 
L 603 0 
L 603 3500 
z
M 603 4863 
L 1178 4863 
L 1178 4134 
L 603 4134 
L 603 4863 
z
" transform="scale(0.015625)"/>
       <path id="DejaVuSans-6d" d="M 3328 2828 
Q 3544 3216 3844 3400 
Q 4144 3584 4550 3584 
Q 5097 3584 5394 3201 
Q 5691 2819 5691 2113 
L 5691 0 
L 5113 0 
L 5113 2094 
Q 5113 2597 4934 2840 
Q 4756 3084 4391 3084 
Q 3944 3084 3684 2787 
Q 3425 2491 3425 1978 
L 3425 0 
L 2847 0 
L 2847 2094 
Q 2847 2600 2669 2842 
Q 2491 3084 2119 3084 
Q 1678 3084 1418 2786 
Q 1159 2488 1159 1978 
L 1159 0 
L 581 0 
L 581 3500 
L 1159 3500 
L 1159 2956 
Q 1356 3278 1631 3431 
Q 1906 3584 2284 3584 
Q 2666 3584 2933 3390 
Q 3200 3197 3328 2828 
z
" transform="scale(0.015625)"/>
       <path id="DejaVuSans-65" d="M 3597 1894 
L 3597 1613 
L 953 1613 
Q 991 1019 1311 708 
Q 1631 397 2203 397 
Q 2534 397 2845 478 
Q 3156 559 3463 722 
L 3463 178 
Q 3153 47 2828 -22 
Q 2503 -91 2169 -91 
Q 1331 -91 842 396 
Q 353 884 353 1716 
Q 353 2575 817 3079 
Q 1281 3584 2069 3584 
Q 2775 3584 3186 3129 
Q 3597 2675 3597 1894 
z
M 3022 2063 
Q 3016 2534 2758 2815 
Q 2500 3097 2075 3097 
Q 1594 3097 1305 2825 
Q 1016 2553 972 2059 
L 3022 2063 
z
" transform="scale(0.015625)"/>
       <path id="DejaVuSans-20" transform="scale(0.015625)"/>
       <path id="DejaVuSans-5b" d="M 550 4863 
L 1875 4863 
L 1875 4416 
L 1125 4416 
L 1125 -397 
L 1875 -397 
L 1875 -844 
L 550 -844 
L 550 4863 
z
" transform="scale(0.015625)"/>
       <path id="DejaVuSans-6e" d="M 3513 2113 
L 3513 0 
L 2938 0 
L 2938 2094 
Q 2938 2591 2744 2837 
Q 2550 3084 2163 3084 
Q 1697 3084 1428 2787 
Q 1159 2491 1159 1978 
L 1159 0 
L 581 0 
L 581 3500 
L 1159 3500 
L 1159 2956 
Q 1366 3272 1645 3428 
Q 1925 3584 2291 3584 
Q 2894 3584 3203 3211 
Q 3513 2838 3513 2113 
z
" transform="scale(0.015625)"/>
       <path id="DejaVuSans-5d" d="M 1947 4863 
L 1947 -844 
L 622 -844 
L 622 -397 
L 1369 -397 
L 1369 4416 
L 622 4416 
L 622 4863 
L 1947 4863 
z
" transform="scale(0.015625)"/>
      </defs>
      <use xlink:href="#DejaVuSans-54"/>
      <use xlink:href="#DejaVuSans-69" x="57.958984"/>
      <use xlink:href="#DejaVuSans-6d" x="85.742188"/>
      <use xlink:href="#DejaVuSans-65" x="183.154297"/>
      <use xlink:href="#DejaVuSans-20" x="244.677734"/>
      <use xlink:href="#DejaVuSans-5b" x="276.464844"/>
      <use xlink:href="#DejaVuSans-6d" x="315.478516"/>
      <use xlink:href="#DejaVuSans-69" x="412.890625"/>
      <use xlink:href="#DejaVuSans-6e" x="440.673828"/>
      <use xlink:href="#DejaVuSans-5d" x="504.052734"/>
     </g>
    </g>
   </g>
   <g id="matplotlib.axis_2">
    <g id="ytick_1">
     <g id="line2d_6">
      <defs>
       <path id="m2bdd6111cf" d="M 0 0 
L -3.5 0 
" style="stroke: #000000; stroke-width: 0.8"/>
      </defs>
      <g>
       <use xlink:href="#m2bdd6111cf" x="55.065625" y="190.132633" style="stroke: #000000; stroke-width: 0.8"/>
      </g>
     </g>
     <g id="text_7">
      <!-- −1 -->
      <g transform="translate(24.478125 196.211383) scale(0.16 -0.16)">
       <defs>
        <path id="DejaVuSans-2212" d="M 678 2272 
L 4684 2272 
L 4684 1741 
L 678 1741 
L 678 2272 
z
" transform="scale(0.015625)"/>
       </defs>
       <use xlink:href="#DejaVuSans-2212"/>
       <use xlink:href="#DejaVuSans-31" x="83.789062"/>
      </g>
     </g>
    </g>
    <g id="ytick_2">
     <g id="line2d_7">
      <g>
       <use xlink:href="#m2bdd6111cf" x="55.065625" y="136.299581" style="stroke: #000000; stroke-width: 0.8"/>
      </g>
     </g>
     <g id="text_8">
      <!-- 0 -->
      <g transform="translate(37.885625 142.378331) scale(0.16 -0.16)">
       <use xlink:href="#DejaVuSans-30"/>
      </g>
     </g>
    </g>
    <g id="ytick_3">
     <g id="line2d_8">
      <g>
       <use xlink:href="#m2bdd6111cf" x="55.065625" y="82.466529" style="stroke: #000000; stroke-width: 0.8"/>
      </g>
     </g>
     <g id="text_9">
      <!-- 1 -->
      <g transform="translate(37.885625 88.545279) scale(0.16 -0.16)">
       <use xlink:href="#DejaVuSans-31"/>
      </g>
     </g>
    </g>
    <g id="ytick_4">
     <g id="line2d_9">
      <g>
       <use xlink:href="#m2bdd6111cf" x="55.065625" y="28.633477" style="stroke: #000000; stroke-width: 0.8"/>
      </g>
     </g>
     <g id="text_10">
      <!-- 2 -->
      <g transform="translate(37.885625 34.712227) scale(0.16 -0.16)">
       <use xlink:href="#DejaVuSans-32"/>
      </g>
     </g>
    </g>
    <g id="text_11">
     <!-- RW Motor Torque (Nm) -->
     <g transform="translate(18.398438 182.515312) rotate(-90) scale(0.1 -0.1)">
      <defs>
       <path id="DejaVuSans-52" d="M 2841 2188 
Q 3044 2119 3236 1894 
Q 3428 1669 3622 1275 
L 4263 0 
L 3584 0 
L 2988 1197 
Q 2756 1666 2539 1819 
Q 2322 1972 1947 1972 
L 1259 1972 
L 1259 0 
L 628 0 
L 628 4666 
L 2053 4666 
Q 2853 4666 3247 4331 
Q 3641 3997 3641 3322 
Q 3641 2881 3436 2590 
Q 3231 2300 2841 2188 
z
M 1259 4147 
L 1259 2491 
L 2053 2491 
Q 2509 2491 2742 2702 
Q 2975 2913 2975 3322 
Q 2975 3731 2742 3939 
Q 2509 4147 2053 4147 
L 1259 4147 
z
" transform="scale(0.015625)"/>
       <path id="DejaVuSans-57" d="M 213 4666 
L 850 4666 
L 1831 722 
L 2809 4666 
L 3519 4666 
L 4500 722 
L 5478 4666 
L 6119 4666 
L 4947 0 
L 4153 0 
L 3169 4050 
L 2175 0 
L 1381 0 
L 213 4666 
z
" transform="scale(0.015625)"/>
       <path id="DejaVuSans-4d" d="M 628 4666 
L 1569 4666 
L 2759 1491 
L 3956 4666 
L 4897 4666 
L 4897 0 
L 4281 0 
L 4281 4097 
L 3078 897 
L 2444 897 
L 1241 4097 
L 1241 0 
L 628 0 
L 628 4666 
z
" transform="scale(0.015625)"/>
       <path id="DejaVuSans-6f" d="M 1959 3097 
Q 1497 3097 1228 2736 
Q 959 2375 959 1747 
Q 959 1119 1226 758 
Q 1494 397 1959 397 
Q 2419 397 2687 759 
Q 2956 1122 2956 1747 
Q 2956 2369 2687 2733 
Q 2419 3097 1959 3097 
z
M 1959 3584 
Q 2709 3584 3137 3096 
Q 3566 2609 3566 1747 
Q 3566 888 3137 398 
Q 2709 -91 1959 -91 
Q 1206 -91 779 398 
Q 353 888 353 1747 
Q 353 2609 779 3096 
Q 1206 3584 1959 3584 
z
" transform="scale(0.015625)"/>
       <path id="DejaVuSans-74" d="M 1172 4494 
L 1172 3500 
L 2356 3500 
L 2356 3053 
L 1172 3053 
L 1172 1153 
Q 1172 725 1289 603 
Q 1406 481 1766 481 
L 2356 481 
L 2356 0 
L 1766 0 
Q 1100 0 847 248 
Q 594 497 594 1153 
L 594 3053 
L 172 3053 
L 172 3500 
L 594 3500 
L 594 4494 
L 1172 4494 
z
" transform="scale(0.015625)"/>
       <path id="DejaVuSans-72" d="M 2631 2963 
Q 2534 3019 2420 3045 
Q 2306 3072 2169 3072 
Q 1681 3072 1420 2755 
Q 1159 2438 1159 1844 
L 1159 0 
L 581 0 
L 581 3500 
L 1159 3500 
L 1159 2956 
Q 1341 3275 1631 3429 
Q 1922 3584 2338 3584 
Q 2397 3584 2469 3576 
Q 2541 3569 2628 3553 
L 2631 2963 
z
" transform="scale(0.015625)"/>
       <path id="DejaVuSans-71" d="M 947 1747 
Q 947 1113 1208 752 
Q 1469 391 1925 391 
Q 2381 391 2643 752 
Q 2906 1113 2906 1747 
Q 2906 2381 2643 2742 
Q 2381 3103 1925 3103 
Q 1469 3103 1208 2742 
Q 947 2381 947 1747 
z
M 2906 525 
Q 2725 213 2448 61 
Q 2172 -91 1784 -91 
Q 1150 -91 751 415 
Q 353 922 353 1747 
Q 353 2572 751 3078 
Q 1150 3584 1784 3584 
Q 2172 3584 2448 3432 
Q 2725 3281 2906 2969 
L 2906 3500 
L 3481 3500 
L 3481 -1331 
L 2906 -1331 
L 2906 525 
z
" transform="scale(0.015625)"/>
       <path id="DejaVuSans-75" d="M 544 1381 
L 544 3500 
L 1119 3500 
L 1119 1403 
Q 1119 906 1312 657 
Q 1506 409 1894 409 
Q 2359 409 2629 706 
Q 2900 1003 2900 1516 
L 2900 3500 
L 3475 3500 
L 3475 0 
L 2900 0 
L 2900 538 
Q 2691 219 2414 64 
Q 2138 -91 1772 -91 
Q 1169 -91 856 284 
Q 544 659 544 1381 
z
M 1991 3584 
L 1991 3584 
z
" transform="scale(0.015625)"/>
       <path id="DejaVuSans-28" d="M 1984 4856 
Q 1566 4138 1362 3434 
Q 1159 2731 1159 2009 
Q 1159 1288 1364 580 
Q 1569 -128 1984 -844 
L 1484 -844 
Q 1016 -109 783 600 
Q 550 1309 550 2009 
Q 550 2706 781 3412 
Q 1013 4119 1484 4856 
L 1984 4856 
z
" transform="scale(0.015625)"/>
       <path id="DejaVuSans-4e" d="M 628 4666 
L 1478 4666 
L 3547 763 
L 3547 4666 
L 4159 4666 
L 4159 0 
L 3309 0 
L 1241 3903 
L 1241 0 
L 628 0 
L 628 4666 
z
" transform="scale(0.015625)"/>
       <path id="DejaVuSans-29" d="M 513 4856 
L 1013 4856 
Q 1481 4119 1714 3412 
Q 1947 2706 1947 2009 
Q 1947 1309 1714 600 
Q 1481 -109 1013 -844 
L 513 -844 
Q 928 -128 1133 580 
Q 1338 1288 1338 2009 
Q 1338 2731 1133 3434 
Q 928 4138 513 4856 
z
" transform="scale(0.015625)"/>
      </defs>
      <use xlink:href="#DejaVuSans-52"/>
      <use xlink:href="#DejaVuSans-57" x="65.482422"/>
      <use xlink:href="#DejaVuSans-20" x="164.359375"/>
      <use xlink:href="#DejaVuSans-4d" x="196.146484"/>
      <use xlink:href="#DejaVuSans-6f" x="282.425781"/>
      <use xlink:href="#DejaVuSans-74" x="343.607422"/>
      <use xlink:href="#DejaVuSans-6f" x="382.816406"/>
      <use xlink:href="#DejaVuSans-72" x="443.998047"/>
      <use xlink:href="#DejaVuSans-20" x="485.111328"/>
      <use xlink:href="#DejaVuSans-54" x="516.898438"/>
      <use xlink:href="#DejaVuSans-6f" x="560.982422"/>
      <use xlink:href="#DejaVuSans-72" x="622.164062"/>
      <use xlink:href="#DejaVuSans-71" x="661.527344"/>
      <use xlink:href="#DejaVuSans-75" x="725.003906"/>
      <use xlink:href="#DejaVuSans-65" x="788.382812"/>
      <use xlink:href="#DejaVuSans-20" x="849.90625"/>
      <use xlink:href="#DejaVuSans-28" x="881.693359"/>
      <use xlink:href="#DejaVuSans-4e" x="920.707031"/>
      <use xlink:href="#DejaVuSans-6d" x="995.511719"/>
      <use xlink:href="#DejaVuSans-29" x="1092.923828"/>
     </g>
    </g>
   </g>
   <g id="line2d_10">
    <path d="M 70.889915 126.874795 
L 74.086741 132.584909 
L 77.283567 136.769607 
L 80.480393 138.805189 
L 83.67722 138.89698 
L 86.874046 138.023989 
L 90.070872 136.82126 
L 93.267698 136.838846 
L 96.464525 137.732764 
L 99.661351 138.421949 
L 102.858177 138.322018 
L 106.055003 137.529813 
L 109.251829 136.617355 
L 112.448656 136.005545 
L 115.645482 135.799198 
L 118.842308 135.883951 
L 122.039134 136.081862 
L 125.23596 136.258882 
L 128.432787 136.35808 
L 131.629613 136.382584 
L 134.826439 136.36263 
L 138.023265 136.329253 
L 141.220092 136.301843 
L 144.416918 136.287012 
L 147.613744 136.283036 
L 150.81057 136.285067 
L 154.007396 136.288671 
L 157.204223 136.291268 
L 160.401049 136.292071 
L 163.597875 136.291394 
L 166.794701 136.289927 
L 169.991527 136.288272 
L 173.188354 136.286769 
L 176.38518 136.285515 
L 179.582006 136.284462 
L 182.778832 136.283518 
L 185.975659 136.282601 
L 189.172485 136.281667 
L 192.369311 136.280704 
L 195.566137 136.279719 
L 198.762963 136.278725 
L 201.95979 136.277733 
L 205.156616 136.276749 
L 208.353442 136.275774 
L 211.550268 136.274809 
L 214.747095 136.273851 
L 217.943921 136.272899 
L 221.140747 136.271954 
L 224.337573 136.271014 
L 227.534399 136.270081 
L 230.731226 136.269154 
L 233.928052 136.268234 
L 237.124878 136.267321 
L 240.321704 136.266417 
L 243.51853 136.26552 
L 246.715357 136.26463 
L 249.912183 136.26375 
L 253.109009 136.262877 
L 256.305835 136.262013 
L 259.502662 136.261158 
L 262.699488 136.260312 
L 265.896314 136.259474 
L 269.09314 136.258647 
L 272.289966 136.257829 
L 275.486793 136.25702 
L 278.683619 136.256222 
L 281.880445 136.255433 
L 285.077271 136.254655 
L 288.274098 136.253888 
L 291.470924 136.253131 
L 294.66775 136.252385 
L 297.864576 136.25165 
L 301.061402 136.250926 
L 304.258229 136.250213 
L 307.455055 136.249512 
L 310.651881 136.248823 
L 313.848707 136.248146 
L 317.045533 136.24748 
L 320.24236 136.246827 
L 323.439186 136.246186 
L 326.636012 136.245557 
L 329.832838 136.244942 
L 333.029665 136.244338 
L 336.226491 136.243748 
L 339.423317 136.243171 
L 342.620143 136.242607 
L 345.816969 136.242056 
L 349.013796 136.241519 
L 352.210622 136.240995 
L 355.407448 136.240485 
L 358.604274 136.239989 
L 361.8011 136.239507 
L 364.997927 136.239038 
L 368.194753 136.238584 
L 371.391579 136.238144 
L 374.588405 136.237718 
L 377.785232 136.237307 
L 380.982058 136.236911 
L 384.178884 136.236529 
L 387.37571 136.236161 
" clip-path="url(#p6c44a429c4)" style="fill: none; stroke-dasharray: 5.55,2.4; stroke-dashoffset: 0; stroke: #2b737e; stroke-width: 1.5"/>
   </g>
   <g id="line2d_11">
    <path d="M 70.889915 136.299581 
L 74.086741 132.564365 
L 77.283567 136.756019 
L 80.480393 138.802797 
L 83.67722 138.896728 
L 86.874046 138.030153 
L 90.070872 136.823982 
L 93.267698 136.836255 
L 96.464525 137.729059 
L 99.661351 138.420455 
L 102.858177 138.324203 
L 106.055003 137.533728 
L 109.251829 136.620685 
L 112.448656 136.007214 
L 115.645482 135.799331 
L 118.842308 135.883251 
L 122.039134 136.081021 
L 125.23596 136.258296 
L 128.432787 136.35784 
L 131.629613 136.382598 
L 134.826439 136.362758 
L 138.023265 136.329387 
L 141.220092 136.301931 
L 144.416918 136.287048 
L 147.613744 136.283037 
L 150.81057 136.285053 
L 154.007396 136.288658 
L 157.204223 136.291261 
L 160.401049 136.292071 
L 163.597875 136.291399 
L 166.794701 136.289934 
L 169.991527 136.288279 
L 173.188354 136.286775 
L 176.38518 136.285519 
L 179.582006 136.284466 
L 182.778832 136.283521 
L 185.975659 136.282605 
L 189.172485 136.281671 
L 192.369311 136.280708 
L 195.566137 136.279723 
L 198.762963 136.278729 
L 201.95979 136.277737 
L 205.156616 136.276753 
L 208.353442 136.275778 
L 211.550268 136.274813 
L 214.747095 136.273855 
L 217.943921 136.272903 
L 221.140747 136.271958 
L 224.337573 136.271018 
L 227.534399 136.270084 
L 230.731226 136.269158 
L 233.928052 136.268238 
L 237.124878 136.267325 
L 240.321704 136.26642 
L 243.51853 136.265523 
L 246.715357 136.264634 
L 249.912183 136.263753 
L 253.109009 136.262881 
L 256.305835 136.262017 
L 259.502662 136.261161 
L 262.699488 136.260315 
L 265.896314 136.259478 
L 269.09314 136.25865 
L 272.289966 136.257832 
L 275.486793 136.257024 
L 278.683619 136.256225 
L 281.880445 136.255437 
L 285.077271 136.254658 
L 288.274098 136.253891 
L 291.470924 136.253134 
L 294.66775 136.252388 
L 297.864576 136.251653 
L 301.061402 136.250929 
L 304.258229 136.250216 
L 307.455055 136.249515 
L 310.651881 136.248826 
L 313.848707 136.248148 
L 317.045533 136.247483 
L 320.24236 136.24683 
L 323.439186 136.246189 
L 326.636012 136.24556 
L 329.832838 136.244944 
L 333.029665 136.244341 
L 336.226491 136.243751 
L 339.423317 136.243173 
L 342.620143 136.242609 
L 345.816969 136.242059 
L 349.013796 136.241521 
L 352.210622 136.240997 
L 355.407448 136.240487 
L 358.604274 136.239991 
L 361.8011 136.239508 
L 364.997927 136.23904 
L 368.194753 136.238586 
L 371.391579 136.238146 
L 374.588405 136.23772 
L 377.785232 136.237309 
L 380.982058 136.236912 
L 384.178884 136.23653 
L 387.37571 136.236163 
" clip-path="url(#p6c44a429c4)" style="fill: none; stroke: #2b737e; stroke-width: 1.5; stroke-linecap: square"/>
   </g>
   <g id="line2d_12">
    <path d="M 70.889915 230.571562 
L 74.086741 216.518558 
L 77.283567 194.753504 
L 80.480393 166.686961 
L 83.67722 137.320358 
L 86.874046 124.199577 
L 90.070872 121.081341 
L 93.267698 124.628972 
L 96.464525 131.89186 
L 99.661351 136.403901 
L 102.858177 137.926203 
L 106.055003 137.870876 
L 109.251829 137.322993 
L 112.448656 136.778625 
L 115.645482 136.407315 
L 118.842308 136.224117 
L 122.039134 136.177582 
L 125.23596 136.202423 
L 128.432787 136.247664 
L 131.629613 136.28504 
L 134.826439 136.305537 
L 138.023265 136.311511 
L 141.220092 136.30932 
L 144.416918 136.30467 
L 147.613744 136.300843 
L 150.81057 136.298848 
L 154.007396 136.298372 
L 157.204223 136.298683 
L 160.401049 136.299172 
L 163.597875 136.299528 
L 166.794701 136.299683 
L 169.991527 136.299697 
L 173.188354 136.29965 
L 176.38518 136.299602 
L 179.582006 136.299574 
L 182.778832 136.299567 
L 185.975659 136.299572 
L 189.172485 136.299578 
L 192.369311 136.299583 
L 195.566137 136.299584 
L 198.762963 136.299583 
L 201.95979 136.299582 
L 205.156616 136.299581 
L 208.353442 136.299581 
L 211.550268 136.299581 
L 214.747095 136.299581 
L 217.943921 136.299581 
L 221.140747 136.299581 
L 224.337573 136.299581 
L 227.534399 136.299581 
L 230.731226 136.299581 
L 233.928052 136.299581 
L 237.124878 136.299581 
L 240.321704 136.299581 
L 243.51853 136.299581 
L 246.715357 136.299581 
L 249.912183 136.299581 
L 253.109009 136.299581 
L 256.305835 136.299581 
L 259.502662 136.299581 
L 262.699488 136.299581 
L 265.896314 136.299581 
L 269.09314 136.299581 
L 272.289966 136.299581 
L 275.486793 136.299581 
L 278.683619 136.299581 
L 281.880445 136.299581 
L 285.077271 136.299581 
L 288.274098 136.299581 
L 291.470924 136.299581 
L 294.66775 136.299581 
L 297.864576 136.299581 
L 301.061402 136.299581 
L 304.258229 136.299581 
L 307.455055 136.299581 
L 310.651881 136.299581 
L 313.848707 136.299581 
L 317.045533 136.299581 
L 320.24236 136.299581 
L 323.439186 136.299581 
L 326.636012 136.299581 
L 329.832838 136.299581 
L 333.029665 136.299581 
L 336.226491 136.299581 
L 339.423317 136.299581 
L 342.620143 136.299581 
L 345.816969 136.299581 
L 349.013796 136.299581 
L 352.210622 136.299581 
L 355.407448 136.299581 
L 358.604274 136.299581 
L 361.8011 136.299581 
L 364.997927 136.299581 
L 368.194753 136.299581 
L 371.391579 136.299581 
L 374.588405 136.299581 
L 377.785232 136.299581 
L 380.982058 136.299581 
L 384.178884 136.299581 
L 387.37571 136.299581 
" clip-path="url(#p6c44a429c4)" style="fill: none; stroke-dasharray: 5.55,2.4; stroke-dashoffset: 0; stroke: #5ea04b; stroke-width: 1.5"/>
   </g>
   <g id="line2d_13">
    <path d="M 70.889915 136.299581 
L 74.086741 147.066192 
L 77.283567 147.066192 
L 80.480393 147.066192 
L 83.67722 137.413619 
L 86.874046 125.532971 
L 90.070872 125.532971 
L 93.267698 125.532971 
L 96.464525 131.866218 
L 99.661351 136.392204 
L 102.858177 137.924148 
L 106.055003 137.872627 
L 109.251829 137.325447 
L 112.448656 136.780567 
L 115.645482 136.408441 
L 118.842308 136.224547 
L 122.039134 136.177585 
L 125.23596 136.202251 
L 128.432787 136.247481 
L 131.629613 136.284919 
L 134.826439 136.305486 
L 138.023265 136.311507 
L 141.220092 136.309337 
L 144.416918 136.304689 
L 147.613744 136.300855 
L 150.81057 136.298853 
L 154.007396 136.298372 
L 157.204223 136.298681 
L 160.401049 136.29917 
L 163.597875 136.299527 
L 166.794701 136.299683 
L 169.991527 136.299697 
L 173.188354 136.29965 
L 176.38518 136.299602 
L 179.582006 136.299574 
L 182.778832 136.299567 
L 185.975659 136.299572 
L 189.172485 136.299578 
L 192.369311 136.299583 
L 195.566137 136.299584 
L 198.762963 136.299583 
L 201.95979 136.299582 
L 205.156616 136.299581 
L 208.353442 136.299581 
L 211.550268 136.299581 
L 214.747095 136.299581 
L 217.943921 136.299581 
L 221.140747 136.299581 
L 224.337573 136.299581 
L 227.534399 136.299581 
L 230.731226 136.299581 
L 233.928052 136.299581 
L 237.124878 136.299581 
L 240.321704 136.299581 
L 243.51853 136.299581 
L 246.715357 136.299581 
L 249.912183 136.299581 
L 253.109009 136.299581 
L 256.305835 136.299581 
L 259.502662 136.299581 
L 262.699488 136.299581 
L 265.896314 136.299581 
L 269.09314 136.299581 
L 272.289966 136.299581 
L 275.486793 136.299581 
L 278.683619 136.299581 
L 281.880445 136.299581 
L 285.077271 136.299581 
L 288.274098 136.299581 
L 291.470924 136.299581 
L 294.66775 136.299581 
L 297.864576 136.299581 
L 301.061402 136.299581 
L 304.258229 136.299581 
L 307.455055 136.299581 
L 310.651881 136.299581 
L 313.848707 136.299581 
L 317.045533 136.299581 
L 320.24236 136.299581 
L 323.439186 136.299581 
L 326.636012 136.299581 
L 329.832838 136.299581 
L 333.029665 136.299581 
L 336.226491 136.299581 
L 339.423317 136.299581 
L 342.620143 136.299581 
L 345.816969 136.299581 
L 349.013796 136.299581 
L 352.210622 136.299581 
L 355.407448 136.299581 
L 358.604274 136.299581 
L 361.8011 136.299581 
L 364.997927 136.299581 
L 368.194753 136.299581 
L 371.391579 136.299581 
L 374.588405 136.299581 
L 377.785232 136.299581 
L 380.982058 136.299581 
L 384.178884 136.299581 
L 387.37571 136.299581 
" clip-path="url(#p6c44a429c4)" style="fill: none; stroke: #5ea04b; stroke-width: 1.5; stroke-linecap: square"/>
   </g>
   <g id="line2d_14">
    <path d="M 70.889915 21.265312 
L 74.086741 43.354677 
L 77.283567 78.818292 
L 80.480393 123.107315 
L 83.67722 153.155928 
L 86.874046 166.385079 
L 90.070872 170.002503 
L 93.267698 164.244888 
L 96.464525 149.144908 
L 99.661351 134.35024 
L 102.858177 130.709708 
L 106.055003 132.127173 
L 109.251829 134.423866 
L 112.448656 135.936154 
L 115.645482 136.526249 
L 118.842308 136.576564 
L 122.039134 136.444894 
L 125.23596 136.316971 
L 128.432787 136.244495 
L 131.629613 136.217969 
L 134.826439 136.215155 
L 138.023265 136.220159 
L 141.220092 136.225629 
L 144.416918 136.229468 
L 147.613744 136.231686 
L 150.81057 136.232765 
L 154.007396 136.233139 
L 157.204223 136.233132 
L 160.401049 136.232981 
L 163.597875 136.232845 
L 166.794701 136.232808 
L 169.991527 136.232888 
L 173.188354 136.233063 
L 176.38518 136.233295 
L 179.582006 136.233553 
L 182.778832 136.233818 
L 185.975659 136.234084 
L 189.172485 136.234354 
L 192.369311 136.234632 
L 195.566137 136.234923 
L 198.762963 136.23523 
L 201.95979 136.235555 
L 205.156616 136.235895 
L 208.353442 136.236252 
L 211.550268 136.236624 
L 214.747095 136.23701 
L 217.943921 136.237411 
L 221.140747 136.237826 
L 224.337573 136.238255 
L 227.534399 136.238699 
L 230.731226 136.239156 
L 233.928052 136.239628 
L 237.124878 136.240114 
L 240.321704 136.240614 
L 243.51853 136.241127 
L 246.715357 136.241655 
L 249.912183 136.242195 
L 253.109009 136.24275 
L 256.305835 136.243317 
L 259.502662 136.243897 
L 262.699488 136.244491 
L 265.896314 136.245097 
L 269.09314 136.245717 
L 272.289966 136.246348 
L 275.486793 136.246992 
L 278.683619 136.247649 
L 281.880445 136.248317 
L 285.077271 136.248998 
L 288.274098 136.24969 
L 291.470924 136.250394 
L 294.66775 136.251109 
L 297.864576 136.251836 
L 301.061402 136.252574 
L 304.258229 136.253323 
L 307.455055 136.254082 
L 310.651881 136.254853 
L 313.848707 136.255633 
L 317.045533 136.256424 
L 320.24236 136.257225 
L 323.439186 136.258036 
L 326.636012 136.258857 
L 329.832838 136.259687 
L 333.029665 136.260526 
L 336.226491 136.261375 
L 339.423317 136.262232 
L 342.620143 136.263099 
L 345.816969 136.263973 
L 349.013796 136.264856 
L 352.210622 136.265748 
L 355.407448 136.266647 
L 358.604274 136.267553 
L 361.8011 136.268467 
L 364.997927 136.269389 
L 368.194753 136.270317 
L 371.391579 136.271253 
L 374.588405 136.272195 
L 377.785232 136.273143 
L 380.982058 136.274098 
L 384.178884 136.275058 
L 387.37571 136.276024 
" clip-path="url(#p6c44a429c4)" style="fill: none; stroke-dasharray: 5.55,2.4; stroke-dashoffset: 0; stroke: #bdab62; stroke-width: 1.5"/>
   </g>
   <g id="line2d_15">
    <path d="M 70.889915 136.299581 
L 74.086741 125.532971 
L 77.283567 125.532971 
L 80.480393 125.532971 
L 83.67722 147.066192 
L 86.874046 147.066192 
L 90.070872 147.066192 
L 93.267698 147.066192 
L 96.464525 147.066192 
L 99.661351 134.384257 
L 102.858177 130.710505 
L 106.055003 132.117589 
L 109.251829 134.415531 
L 112.448656 135.931996 
L 115.645482 136.525217 
L 118.842308 136.57692 
L 122.039134 136.445501 
L 125.23596 136.317391 
L 128.432787 136.244685 
L 131.629613 136.218015 
L 134.826439 136.215143 
L 138.023265 136.220134 
L 141.220092 136.225609 
L 144.416918 136.229456 
L 147.613744 136.231679 
L 150.81057 136.232762 
L 154.007396 136.233139 
L 157.204223 136.233133 
L 160.401049 136.232981 
L 163.597875 136.232845 
L 166.794701 136.232807 
L 169.991527 136.232887 
L 173.188354 136.233062 
L 176.38518 136.233294 
L 179.582006 136.233552 
L 182.778832 136.233817 
L 185.975659 136.234083 
L 189.172485 136.234352 
L 192.369311 136.234631 
L 195.566137 136.234922 
L 198.762963 136.235229 
L 201.95979 136.235553 
L 205.156616 136.235894 
L 208.353442 136.236251 
L 211.550268 136.236622 
L 214.747095 136.237008 
L 217.943921 136.237409 
L 221.140747 136.237824 
L 224.337573 136.238253 
L 227.534399 136.238697 
L 230.731226 136.239154 
L 233.928052 136.239626 
L 237.124878 136.240112 
L 240.321704 136.240612 
L 243.51853 136.241125 
L 246.715357 136.241652 
L 249.912183 136.242193 
L 253.109009 136.242747 
L 256.305835 136.243315 
L 259.502662 136.243895 
L 262.699488 136.244489 
L 265.896314 136.245095 
L 269.09314 136.245714 
L 272.289966 136.246346 
L 275.486793 136.24699 
L 278.683619 136.247646 
L 281.880445 136.248314 
L 285.077271 136.248995 
L 288.274098 136.249687 
L 291.470924 136.250391 
L 294.66775 136.251106 
L 297.864576 136.251833 
L 301.061402 136.252571 
L 304.258229 136.25332 
L 307.455055 136.254079 
L 310.651881 136.254849 
L 313.848707 136.25563 
L 317.045533 136.256421 
L 320.24236 136.257222 
L 323.439186 136.258033 
L 326.636012 136.258853 
L 329.832838 136.259684 
L 333.029665 136.260523 
L 336.226491 136.261371 
L 339.423317 136.262229 
L 342.620143 136.263095 
L 345.816969 136.26397 
L 349.013796 136.264853 
L 352.210622 136.265744 
L 355.407448 136.266643 
L 358.604274 136.26755 
L 361.8011 136.268464 
L 364.997927 136.269385 
L 368.194753 136.270314 
L 371.391579 136.271249 
L 374.588405 136.272191 
L 377.785232 136.273139 
L 380.982058 136.274094 
L 384.178884 136.275054 
L 387.37571 136.27602 
" clip-path="url(#p6c44a429c4)" style="fill: none; stroke: #bdab62; stroke-width: 1.5; stroke-linecap: square"/>
   </g>
   <g id="patch_3">
    <path d="M 55.065625 241.036875 
L 55.065625 10.8 
" style="fill: none; stroke: #000000; stroke-width: 0.8; stroke-linejoin: miter; stroke-linecap: square"/>
   </g>
   <g id="patch_4">
    <path d="M 403.2 241.036875 
L 403.2 10.8 
" style="fill: none; stroke: #000000; stroke-width: 0.8; stroke-linejoin: miter; stroke-linecap: square"/>
   </g>
   <g id="patch_5">
    <path d="M 55.065625 241.036875 
L 403.2 241.036875 
" style="fill: none; stroke: #000000; stroke-width: 0.8; stroke-linejoin: miter; stroke-linecap: square"/>
   </g>
   <g id="patch_6">
    <path d="M 55.065625 10.8 
L 403.2 10.8 
" style="fill: none; stroke: #000000; stroke-width: 0.8; stroke-linejoin: miter; stroke-linecap: square"/>
   </g>
   <g id="legend_1">
    <g id="patch_7">
     <path d="M 351.54 236.536875 
L 396.9 236.536875 
Q 398.7 236.536875 398.7 234.736875 
L 398.7 149.781094 
Q 398.7 147.981094 396.9 147.981094 
L 351.54 147.981094 
Q 349.74 147.981094 349.74 149.781094 
L 349.74 234.736875 
Q 349.74 236.536875 351.54 236.536875 
z
" style="fill: #ffffff; opacity: 0.8; stroke: #cccccc; stroke-linejoin: miter"/>
    </g>
    <g id="line2d_16">
     <path d="M 353.34 156.711094 
L 362.34 156.711094 
L 371.34 156.711094 
" style="fill: none; stroke-dasharray: 5.55,2.4; stroke-dashoffset: 0; stroke: #2b737e; stroke-width: 1.5"/>
    </g>
    <g id="text_12">
     <!-- $\hat u_{s,0}$ -->
     <g transform="translate(378.54 159.861094) scale(0.09 -0.09)">
      <defs>
       <path id="DejaVuSans-302" d="M -1831 5119 
L -1369 5119 
L -603 3944 
L -1038 3944 
L -1600 4709 
L -2163 3944 
L -2597 3944 
L -1831 5119 
z
M -1600 3584 
L -1600 3584 
z
" transform="scale(0.015625)"/>
       <path id="DejaVuSans-Oblique-75" d="M 428 1388 
L 838 3500 
L 1416 3500 
L 1006 1409 
Q 975 1256 961 1147 
Q 947 1038 947 966 
Q 947 700 1109 554 
Q 1272 409 1569 409 
Q 2031 409 2368 721 
Q 2706 1034 2809 1563 
L 3194 3500 
L 3769 3500 
L 3091 0 
L 2516 0 
L 2631 550 
Q 2388 244 2052 76 
Q 1716 -91 1338 -91 
Q 878 -91 622 161 
Q 366 413 366 863 
Q 366 956 381 1097 
Q 397 1238 428 1388 
z
" transform="scale(0.015625)"/>
       <path id="DejaVuSans-Oblique-73" d="M 3200 3397 
L 3091 2853 
Q 2863 2978 2609 3040 
Q 2356 3103 2088 3103 
Q 1634 3103 1373 2948 
Q 1113 2794 1113 2528 
Q 1113 2219 1719 2053 
Q 1766 2041 1788 2034 
L 1972 1978 
Q 2547 1819 2739 1644 
Q 2931 1469 2931 1166 
Q 2931 609 2489 259 
Q 2047 -91 1331 -91 
Q 1053 -91 747 -37 
Q 441 16 72 128 
L 184 722 
Q 500 559 806 475 
Q 1113 391 1394 391 
Q 1816 391 2080 572 
Q 2344 753 2344 1031 
Q 2344 1331 1650 1516 
L 1591 1531 
L 1394 1581 
Q 956 1697 753 1886 
Q 550 2075 550 2369 
Q 550 2928 970 3256 
Q 1391 3584 2113 3584 
Q 2397 3584 2667 3537 
Q 2938 3491 3200 3397 
z
" transform="scale(0.015625)"/>
       <path id="DejaVuSans-2c" d="M 750 794 
L 1409 794 
L 1409 256 
L 897 -744 
L 494 -744 
L 750 256 
L 750 794 
z
" transform="scale(0.015625)"/>
      </defs>
      <use xlink:href="#DejaVuSans-302" transform="translate(57.871094 12.015625)"/>
      <use xlink:href="#DejaVuSans-Oblique-75" transform="translate(0 0.828125)"/>
      <use xlink:href="#DejaVuSans-Oblique-73" transform="translate(64.335938 -15.578125) scale(0.7)"/>
      <use xlink:href="#DejaVuSans-2c" transform="translate(100.805664 -15.578125) scale(0.7)"/>
      <use xlink:href="#DejaVuSans-30" transform="translate(136.694336 -15.578125) scale(0.7)"/>
     </g>
    </g>
    <g id="line2d_17">
     <path d="M 353.34 170.299688 
L 362.34 170.299688 
L 371.34 170.299688 
" style="fill: none; stroke: #2b737e; stroke-width: 1.5; stroke-linecap: square"/>
    </g>
    <g id="text_13">
     <!-- $u_{s,0}$ -->
     <g transform="translate(378.54 173.449688) scale(0.09 -0.09)">
      <use xlink:href="#DejaVuSans-Oblique-75" transform="translate(0 0.3125)"/>
      <use xlink:href="#DejaVuSans-Oblique-73" transform="translate(63.378906 -16.09375) scale(0.7)"/>
      <use xlink:href="#DejaVuSans-2c" transform="translate(99.848633 -16.09375) scale(0.7)"/>
      <use xlink:href="#DejaVuSans-30" transform="translate(135.737305 -16.09375) scale(0.7)"/>
     </g>
    </g>
    <g id="line2d_18">
     <path d="M 353.34 185.329688 
L 362.34 185.329688 
L 371.34 185.329688 
" style="fill: none; stroke-dasharray: 5.55,2.4; stroke-dashoffset: 0; stroke: #5ea04b; stroke-width: 1.5"/>
    </g>
    <g id="text_14">
     <!-- $\hat u_{s,1}$ -->
     <g transform="translate(378.54 188.479688) scale(0.09 -0.09)">
      <use xlink:href="#DejaVuSans-302" transform="translate(57.871094 12.015625)"/>
      <use xlink:href="#DejaVuSans-Oblique-75" transform="translate(0 0.828125)"/>
      <use xlink:href="#DejaVuSans-Oblique-73" transform="translate(64.335938 -15.578125) scale(0.7)"/>
      <use xlink:href="#DejaVuSans-2c" transform="translate(100.805664 -15.578125) scale(0.7)"/>
      <use xlink:href="#DejaVuSans-31" transform="translate(136.694336 -15.578125) scale(0.7)"/>
     </g>
    </g>
    <g id="line2d_19">
     <path d="M 353.34 198.918281 
L 362.34 198.918281 
L 371.34 198.918281 
" style="fill: none; stroke: #5ea04b; stroke-width: 1.5; stroke-linecap: square"/>
    </g>
    <g id="text_15">
     <!-- $u_{s,1}$ -->
     <g transform="translate(378.54 202.068281) scale(0.09 -0.09)">
      <use xlink:href="#DejaVuSans-Oblique-75" transform="translate(0 0.3125)"/>
      <use xlink:href="#DejaVuSans-Oblique-73" transform="translate(63.378906 -16.09375) scale(0.7)"/>
      <use xlink:href="#DejaVuSans-2c" transform="translate(99.848633 -16.09375) scale(0.7)"/>
      <use xlink:href="#DejaVuSans-31" transform="translate(135.737305 -16.09375) scale(0.7)"/>
     </g>
    </g>
    <g id="line2d_20">
     <path d="M 353.34 213.948281 
L 362.34 213.948281 
L 371.34 213.948281 
" style="fill: none; stroke-dasharray: 5.55,2.4; stroke-dashoffset: 0; stroke: #bdab62; stroke-width: 1.5"/>
    </g>
    <g id="text_16">
     <!-- $\hat u_{s,2}$ -->
     <g transform="translate(378.54 217.098281) scale(0.09 -0.09)">
      <use xlink:href="#DejaVuSans-302" transform="translate(57.871094 12.015625)"/>
      <use xlink:href="#DejaVuSans-Oblique-75" transform="translate(0 0.828125)"/>
      <use xlink:href="#DejaVuSans-Oblique-73" transform="translate(64.335938 -15.578125) scale(0.7)"/>
      <use xlink:href="#DejaVuSans-2c" transform="translate(100.805664 -15.578125) scale(0.7)"/>
      <use xlink:href="#DejaVuSans-32" transform="translate(136.694336 -15.578125) scale(0.7)"/>
     </g>
    </g>
    <g id="line2d_21">
     <path d="M 353.34 227.536875 
L 362.34 227.536875 
L 371.34 227.536875 
" style="fill: none; stroke: #bdab62; stroke-width: 1.5; stroke-linecap: square"/>
    </g>
    <g id="text_17">
     <!-- $u_{s,2}$ -->
     <g transform="translate(378.54 230.686875) scale(0.09 -0.09)">
      <use xlink:href="#DejaVuSans-Oblique-75" transform="translate(0 0.3125)"/>
      <use xlink:href="#DejaVuSans-Oblique-73" transform="translate(63.378906 -16.09375) scale(0.7)"/>
      <use xlink:href="#DejaVuSans-2c" transform="translate(99.848633 -16.09375) scale(0.7)"/>
      <use xlink:href="#DejaVuSans-32" transform="translate(135.737305 -16.09375) scale(0.7)"/>
     </g>
    </g>
   </g>
  </g>
 </g>
 <defs>
  <clipPath id="p6c44a429c4">
   <rect x="55.065625" y="10.8" width="348.134375" height="230.236875"/>
  </clipPath>
 </defs>
</svg>
