<?xml version="1.0" encoding="utf-8" standalone="no"?>
<!DOCTYPE svg PUBLIC "-//W3C//DTD SVG 1.1//EN"
  "http://www.w3.org/Graphics/SVG/1.1/DTD/svg11.dtd">
<svg xmlns:xlink="http://www.w3.org/1999/xlink" width="414pt" height="288pt" viewBox="0 0 414 288" xmlns="http://www.w3.org/2000/svg" version="1.1">
 <metadata>
  <rdf:RDF xmlns:dc="http://purl.org/dc/elements/1.1/" xmlns:cc="http://creativecommons.org/ns#" xmlns:rdf="http://www.w3.org/1999/02/22-rdf-syntax-ns#">
   <cc:Work>
    <dc:type rdf:resource="http://purl.org/dc/dcmitype/StillImage"/>
    <dc:date>2023-09-07T00:38:12.474810</dc:date>
    <dc:format>image/svg+xml</dc:format>
    <dc:creator>
     <cc:Agent>
      <dc:title>Matplotlib v3.7.2, https://matplotlib.org/</dc:title>
     </cc:Agent>
    </dc:creator>
   </cc:Work>
  </rdf:RDF>
 </metadata>
 <defs>
  <style type="text/css">*{stroke-linejoin: round; stroke-linecap: butt}</style>
 </defs>
 <g id="figure_1">
  <g id="patch_1">
   <path d="M 0 288 
L 414 288 
L 414 0 
L 0 0 
L 0 288 
z
" style="fill: none"/>
  </g>
  <g id="axes_1">
   <g id="patch_2">
    <path d="M 70.330625 241.036875 
L 390.360682 241.036875 
L 390.360682 10.8 
L 70.330625 10.8 
L 70.330625 241.036875 
z
" style="fill: none"/>
   </g>
   <g id="matplotlib.axis_1">
    <g id="xtick_1">
     <g id="line2d_1">
      <defs>
       <path id="mc5ccc2a2ff" d="M 0 0 
L 0 3.5 
" style="stroke: #000000; stroke-width: 0.8"/>
      </defs>
      <g>
       <use xlink:href="#mc5ccc2a2ff" x="84.877446" y="241.036875" style="stroke: #000000; stroke-width: 0.8"/>
      </g>
     </g>
     <g id="text_1">
      <!-- 0 -->
      <g transform="translate(79.787446 260.194375) scale(0.16 -0.16)">
       <defs>
        <path id="DejaVuSans-30" d="M 2034 4250 
Q 1547 4250 1301 3770 
Q 1056 3291 1056 2328 
Q 1056 1369 1301 889 
Q 1547 409 2034 409 
Q 2525 409 2770 889 
Q 3016 1369 3016 2328 
Q 3016 3291 2770 3770 
Q 2525 4250 2034 4250 
z
M 2034 4750 
Q 2819 4750 3233 4129 
Q 3647 3509 3647 2328 
Q 3647 1150 3233 529 
Q 2819 -91 2034 -91 
Q 1250 -91 836 529 
Q 422 1150 422 2328 
Q 422 3509 836 4129 
Q 1250 4750 2034 4750 
z
" transform="scale(0.015625)"/>
       </defs>
       <use xlink:href="#DejaVuSans-30"/>
      </g>
     </g>
    </g>
    <g id="xtick_2">
     <g id="line2d_2">
      <g>
       <use xlink:href="#mc5ccc2a2ff" x="145.489199" y="241.036875" style="stroke: #000000; stroke-width: 0.8"/>
      </g>
     </g>
     <g id="text_2">
      <!-- 50 -->
      <g transform="translate(135.309199 260.194375) scale(0.16 -0.16)">
       <defs>
        <path id="DejaVuSans-35" d="M 691 4666 
L 3169 4666 
L 3169 4134 
L 1269 4134 
L 1269 2991 
Q 1406 3038 1543 3061 
Q 1681 3084 1819 3084 
Q 2600 3084 3056 2656 
Q 3513 2228 3513 1497 
Q 3513 744 3044 326 
Q 2575 -91 1722 -91 
Q 1428 -91 1123 -41 
Q 819 9 494 109 
L 494 744 
Q 775 591 1075 516 
Q 1375 441 1709 441 
Q 2250 441 2565 725 
Q 2881 1009 2881 1497 
Q 2881 1984 2565 2268 
Q 2250 2553 1709 2553 
Q 1456 2553 1204 2497 
Q 953 2441 691 2322 
L 691 4666 
z
" transform="scale(0.015625)"/>
       </defs>
       <use xlink:href="#DejaVuSans-35"/>
       <use xlink:href="#DejaVuSans-30" x="63.623047"/>
      </g>
     </g>
    </g>
    <g id="xtick_3">
     <g id="line2d_3">
      <g>
       <use xlink:href="#mc5ccc2a2ff" x="206.100952" y="241.036875" style="stroke: #000000; stroke-width: 0.8"/>
      </g>
     </g>
     <g id="text_3">
      <!-- 100 -->
      <g transform="translate(190.830952 260.194375) scale(0.16 -0.16)">
       <defs>
        <path id="DejaVuSans-31" d="M 794 531 
L 1825 531 
L 1825 4091 
L 703 3866 
L 703 4441 
L 1819 4666 
L 2450 4666 
L 2450 531 
L 3481 531 
L 3481 0 
L 794 0 
L 794 531 
z
" transform="scale(0.015625)"/>
       </defs>
       <use xlink:href="#DejaVuSans-31"/>
       <use xlink:href="#DejaVuSans-30" x="63.623047"/>
       <use xlink:href="#DejaVuSans-30" x="127.246094"/>
      </g>
     </g>
    </g>
    <g id="xtick_4">
     <g id="line2d_4">
      <g>
       <use xlink:href="#mc5ccc2a2ff" x="266.712705" y="241.036875" style="stroke: #000000; stroke-width: 0.8"/>
      </g>
     </g>
     <g id="text_4">
      <!-- 150 -->
      <g transform="translate(251.442705 260.194375) scale(0.16 -0.16)">
       <use xlink:href="#DejaVuSans-31"/>
       <use xlink:href="#DejaVuSans-35" x="63.623047"/>
       <use xlink:href="#DejaVuSans-30" x="127.246094"/>
      </g>
     </g>
    </g>
    <g id="xtick_5">
     <g id="line2d_5">
      <g>
       <use xlink:href="#mc5ccc2a2ff" x="327.324459" y="241.036875" style="stroke: #000000; stroke-width: 0.8"/>
      </g>
     </g>
     <g id="text_5">
      <!-- 200 -->
      <g transform="translate(312.054459 260.194375) scale(0.16 -0.16)">
       <defs>
        <path id="DejaVuSans-32" d="M 1228 531 
L 3431 531 
L 3431 0 
L 469 0 
L 469 531 
Q 828 903 1448 1529 
Q 2069 2156 2228 2338 
Q 2531 2678 2651 2914 
Q 2772 3150 2772 3378 
Q 2772 3750 2511 3984 
Q 2250 4219 1831 4219 
Q 1534 4219 1204 4116 
Q 875 4013 500 3803 
L 500 4441 
Q 881 4594 1212 4672 
Q 1544 4750 1819 4750 
Q 2544 4750 2975 4387 
Q 3406 4025 3406 3419 
Q 3406 3131 3298 2873 
Q 3191 2616 2906 2266 
Q 2828 2175 2409 1742 
Q 1991 1309 1228 531 
z
" transform="scale(0.015625)"/>
       </defs>
       <use xlink:href="#DejaVuSans-32"/>
       <use xlink:href="#DejaVuSans-30" x="63.623047"/>
       <use xlink:href="#DejaVuSans-30" x="127.246094"/>
      </g>
     </g>
    </g>
    <g id="xtick_6">
     <g id="line2d_6">
      <g>
       <use xlink:href="#mc5ccc2a2ff" x="387.936212" y="241.036875" style="stroke: #000000; stroke-width: 0.8"/>
      </g>
     </g>
     <g id="text_6">
      <!-- 250 -->
      <g transform="translate(372.666212 260.194375) scale(0.16 -0.16)">
       <use xlink:href="#DejaVuSans-32"/>
       <use xlink:href="#DejaVuSans-35" x="63.623047"/>
       <use xlink:href="#DejaVuSans-30" x="127.246094"/>
      </g>
     </g>
    </g>
    <g id="text_7">
     <!-- Time [min] -->
     <g transform="translate(203.19331 275.120313) scale(0.1 -0.1)">
      <defs>
       <path id="DejaVuSans-54" d="M -19 4666 
L 3928 4666 
L 3928 4134 
L 2272 4134 
L 2272 0 
L 1638 0 
L 1638 4134 
L -19 4134 
L -19 4666 
z
" transform="scale(0.015625)"/>
       <path id="DejaVuSans-69" d="M 603 3500 
L 1178 3500 
L 1178 0 
L 603 0 
L 603 3500 
z
M 603 4863 
L 1178 4863 
L 1178 4134 
L 603 4134 
L 603 4863 
z
" transform="scale(0.015625)"/>
       <path id="DejaVuSans-6d" d="M 3328 2828 
Q 3544 3216 3844 3400 
Q 4144 3584 4550 3584 
Q 5097 3584 5394 3201 
Q 5691 2819 5691 2113 
L 5691 0 
L 5113 0 
L 5113 2094 
Q 5113 2597 4934 2840 
Q 4756 3084 4391 3084 
Q 3944 3084 3684 2787 
Q 3425 2491 3425 1978 
L 3425 0 
L 2847 0 
L 2847 2094 
Q 2847 2600 2669 2842 
Q 2491 3084 2119 3084 
Q 1678 3084 1418 2786 
Q 1159 2488 1159 1978 
L 1159 0 
L 581 0 
L 581 3500 
L 1159 3500 
L 1159 2956 
Q 1356 3278 1631 3431 
Q 1906 3584 2284 3584 
Q 2666 3584 2933 3390 
Q 3200 3197 3328 2828 
z
" transform="scale(0.015625)"/>
       <path id="DejaVuSans-65" d="M 3597 1894 
L 3597 1613 
L 953 1613 
Q 991 1019 1311 708 
Q 1631 397 2203 397 
Q 2534 397 2845 478 
Q 3156 559 3463 722 
L 3463 178 
Q 3153 47 2828 -22 
Q 2503 -91 2169 -91 
Q 1331 -91 842 396 
Q 353 884 353 1716 
Q 353 2575 817 3079 
Q 1281 3584 2069 3584 
Q 2775 3584 3186 3129 
Q 3597 2675 3597 1894 
z
M 3022 2063 
Q 3016 2534 2758 2815 
Q 2500 3097 2075 3097 
Q 1594 3097 1305 2825 
Q 1016 2553 972 2059 
L 3022 2063 
z
" transform="scale(0.015625)"/>
       <path id="DejaVuSans-20" transform="scale(0.015625)"/>
       <path id="DejaVuSans-5b" d="M 550 4863 
L 1875 4863 
L 1875 4416 
L 1125 4416 
L 1125 -397 
L 1875 -397 
L 1875 -844 
L 550 -844 
L 550 4863 
z
" transform="scale(0.015625)"/>
       <path id="DejaVuSans-6e" d="M 3513 2113 
L 3513 0 
L 2938 0 
L 2938 2094 
Q 2938 2591 2744 2837 
Q 2550 3084 2163 3084 
Q 1697 3084 1428 2787 
Q 1159 2491 1159 1978 
L 1159 0 
L 581 0 
L 581 3500 
L 1159 3500 
L 1159 2956 
Q 1366 3272 1645 3428 
Q 1925 3584 2291 3584 
Q 2894 3584 3203 3211 
Q 3513 2838 3513 2113 
z
" transform="scale(0.015625)"/>
       <path id="DejaVuSans-5d" d="M 1947 4863 
L 1947 -844 
L 622 -844 
L 622 -397 
L 1369 -397 
L 1369 4416 
L 622 4416 
L 622 4863 
L 1947 4863 
z
" transform="scale(0.015625)"/>
      </defs>
      <use xlink:href="#DejaVuSans-54"/>
      <use xlink:href="#DejaVuSans-69" x="57.958984"/>
      <use xlink:href="#DejaVuSans-6d" x="85.742188"/>
      <use xlink:href="#DejaVuSans-65" x="183.154297"/>
      <use xlink:href="#DejaVuSans-20" x="244.677734"/>
      <use xlink:href="#DejaVuSans-5b" x="276.464844"/>
      <use xlink:href="#DejaVuSans-6d" x="315.478516"/>
      <use xlink:href="#DejaVuSans-69" x="412.890625"/>
      <use xlink:href="#DejaVuSans-6e" x="440.673828"/>
      <use xlink:href="#DejaVuSans-5d" x="504.052734"/>
     </g>
    </g>
   </g>
   <g id="matplotlib.axis_2">
    <g id="ytick_1">
     <g id="line2d_7">
      <defs>
       <path id="m39ac3ae4a5" d="M 0 0 
L -3.5 0 
" style="stroke: #000000; stroke-width: 0.8"/>
      </defs>
      <g>
       <use xlink:href="#m39ac3ae4a5" x="70.330625" y="226.589247" style="stroke: #000000; stroke-width: 0.8"/>
      </g>
     </g>
     <g id="text_8">
      <!-- −1.0 -->
      <g transform="translate(24.478125 232.667997) scale(0.16 -0.16)">
       <defs>
        <path id="DejaVuSans-2212" d="M 678 2272 
L 4684 2272 
L 4684 1741 
L 678 1741 
L 678 2272 
z
" transform="scale(0.015625)"/>
        <path id="DejaVuSans-2e" d="M 684 794 
L 1344 794 
L 1344 0 
L 684 0 
L 684 794 
z
" transform="scale(0.015625)"/>
       </defs>
       <use xlink:href="#DejaVuSans-2212"/>
       <use xlink:href="#DejaVuSans-31" x="83.789062"/>
       <use xlink:href="#DejaVuSans-2e" x="147.412109"/>
       <use xlink:href="#DejaVuSans-30" x="179.199219"/>
      </g>
     </g>
    </g>
    <g id="ytick_2">
     <g id="line2d_8">
      <g>
       <use xlink:href="#m39ac3ae4a5" x="70.330625" y="174.472875" style="stroke: #000000; stroke-width: 0.8"/>
      </g>
     </g>
     <g id="text_9">
      <!-- −0.5 -->
      <g transform="translate(24.478125 180.551625) scale(0.16 -0.16)">
       <use xlink:href="#DejaVuSans-2212"/>
       <use xlink:href="#DejaVuSans-30" x="83.789062"/>
       <use xlink:href="#DejaVuSans-2e" x="147.412109"/>
       <use xlink:href="#DejaVuSans-35" x="179.199219"/>
      </g>
     </g>
    </g>
    <g id="ytick_3">
     <g id="line2d_9">
      <g>
       <use xlink:href="#m39ac3ae4a5" x="70.330625" y="122.356503" style="stroke: #000000; stroke-width: 0.8"/>
      </g>
     </g>
     <g id="text_10">
      <!-- 0.0 -->
      <g transform="translate(37.885625 128.435253) scale(0.16 -0.16)">
       <use xlink:href="#DejaVuSans-30"/>
       <use xlink:href="#DejaVuSans-2e" x="63.623047"/>
       <use xlink:href="#DejaVuSans-30" x="95.410156"/>
      </g>
     </g>
    </g>
    <g id="ytick_4">
     <g id="line2d_10">
      <g>
       <use xlink:href="#m39ac3ae4a5" x="70.330625" y="70.24013" style="stroke: #000000; stroke-width: 0.8"/>
      </g>
     </g>
     <g id="text_11">
      <!-- 0.5 -->
      <g transform="translate(37.885625 76.31888) scale(0.16 -0.16)">
       <use xlink:href="#DejaVuSans-30"/>
       <use xlink:href="#DejaVuSans-2e" x="63.623047"/>
       <use xlink:href="#DejaVuSans-35" x="95.410156"/>
      </g>
     </g>
    </g>
    <g id="ytick_5">
     <g id="line2d_11">
      <g>
       <use xlink:href="#m39ac3ae4a5" x="70.330625" y="18.123758" style="stroke: #000000; stroke-width: 0.8"/>
      </g>
     </g>
     <g id="text_12">
      <!-- 1.0 -->
      <g transform="translate(37.885625 24.202508) scale(0.16 -0.16)">
       <use xlink:href="#DejaVuSans-31"/>
       <use xlink:href="#DejaVuSans-2e" x="63.623047"/>
       <use xlink:href="#DejaVuSans-30" x="95.410156"/>
      </g>
     </g>
    </g>
    <g id="text_13">
     <!-- RW Motor Torque (Nm) -->
     <g transform="translate(18.398438 182.515312) rotate(-90) scale(0.1 -0.1)">
      <defs>
       <path id="DejaVuSans-52" d="M 2841 2188 
Q 3044 2119 3236 1894 
Q 3428 1669 3622 1275 
L 4263 0 
L 3584 0 
L 2988 1197 
Q 2756 1666 2539 1819 
Q 2322 1972 1947 1972 
L 1259 1972 
L 1259 0 
L 628 0 
L 628 4666 
L 2053 4666 
Q 2853 4666 3247 4331 
Q 3641 3997 3641 3322 
Q 3641 2881 3436 2590 
Q 3231 2300 2841 2188 
z
M 1259 4147 
L 1259 2491 
L 2053 2491 
Q 2509 2491 2742 2702 
Q 2975 2913 2975 3322 
Q 2975 3731 2742 3939 
Q 2509 4147 2053 4147 
L 1259 4147 
z
" transform="scale(0.015625)"/>
       <path id="DejaVuSans-57" d="M 213 4666 
L 850 4666 
L 1831 722 
L 2809 4666 
L 3519 4666 
L 4500 722 
L 5478 4666 
L 6119 4666 
L 4947 0 
L 4153 0 
L 3169 4050 
L 2175 0 
L 1381 0 
L 213 4666 
z
" transform="scale(0.015625)"/>
       <path id="DejaVuSans-4d" d="M 628 4666 
L 1569 4666 
L 2759 1491 
L 3956 4666 
L 4897 4666 
L 4897 0 
L 4281 0 
L 4281 4097 
L 3078 897 
L 2444 897 
L 1241 4097 
L 1241 0 
L 628 0 
L 628 4666 
z
" transform="scale(0.015625)"/>
       <path id="DejaVuSans-6f" d="M 1959 3097 
Q 1497 3097 1228 2736 
Q 959 2375 959 1747 
Q 959 1119 1226 758 
Q 1494 397 1959 397 
Q 2419 397 2687 759 
Q 2956 1122 2956 1747 
Q 2956 2369 2687 2733 
Q 2419 3097 1959 3097 
z
M 1959 3584 
Q 2709 3584 3137 3096 
Q 3566 2609 3566 1747 
Q 3566 888 3137 398 
Q 2709 -91 1959 -91 
Q 1206 -91 779 398 
Q 353 888 353 1747 
Q 353 2609 779 3096 
Q 1206 3584 1959 3584 
z
" transform="scale(0.015625)"/>
       <path id="DejaVuSans-74" d="M 1172 4494 
L 1172 3500 
L 2356 3500 
L 2356 3053 
L 1172 3053 
L 1172 1153 
Q 1172 725 1289 603 
Q 1406 481 1766 481 
L 2356 481 
L 2356 0 
L 1766 0 
Q 1100 0 847 248 
Q 594 497 594 1153 
L 594 3053 
L 172 3053 
L 172 3500 
L 594 3500 
L 594 4494 
L 1172 4494 
z
" transform="scale(0.015625)"/>
       <path id="DejaVuSans-72" d="M 2631 2963 
Q 2534 3019 2420 3045 
Q 2306 3072 2169 3072 
Q 1681 3072 1420 2755 
Q 1159 2438 1159 1844 
L 1159 0 
L 581 0 
L 581 3500 
L 1159 3500 
L 1159 2956 
Q 1341 3275 1631 3429 
Q 1922 3584 2338 3584 
Q 2397 3584 2469 3576 
Q 2541 3569 2628 3553 
L 2631 2963 
z
" transform="scale(0.015625)"/>
       <path id="DejaVuSans-71" d="M 947 1747 
Q 947 1113 1208 752 
Q 1469 391 1925 391 
Q 2381 391 2643 752 
Q 2906 1113 2906 1747 
Q 2906 2381 2643 2742 
Q 2381 3103 1925 3103 
Q 1469 3103 1208 2742 
Q 947 2381 947 1747 
z
M 2906 525 
Q 2725 213 2448 61 
Q 2172 -91 1784 -91 
Q 1150 -91 751 415 
Q 353 922 353 1747 
Q 353 2572 751 3078 
Q 1150 3584 1784 3584 
Q 2172 3584 2448 3432 
Q 2725 3281 2906 2969 
L 2906 3500 
L 3481 3500 
L 3481 -1331 
L 2906 -1331 
L 2906 525 
z
" transform="scale(0.015625)"/>
       <path id="DejaVuSans-75" d="M 544 1381 
L 544 3500 
L 1119 3500 
L 1119 1403 
Q 1119 906 1312 657 
Q 1506 409 1894 409 
Q 2359 409 2629 706 
Q 2900 1003 2900 1516 
L 2900 3500 
L 3475 3500 
L 3475 0 
L 2900 0 
L 2900 538 
Q 2691 219 2414 64 
Q 2138 -91 1772 -91 
Q 1169 -91 856 284 
Q 544 659 544 1381 
z
M 1991 3584 
L 1991 3584 
z
" transform="scale(0.015625)"/>
       <path id="DejaVuSans-28" d="M 1984 4856 
Q 1566 4138 1362 3434 
Q 1159 2731 1159 2009 
Q 1159 1288 1364 580 
Q 1569 -128 1984 -844 
L 1484 -844 
Q 1016 -109 783 600 
Q 550 1309 550 2009 
Q 550 2706 781 3412 
Q 1013 4119 1484 4856 
L 1984 4856 
z
" transform="scale(0.015625)"/>
       <path id="DejaVuSans-4e" d="M 628 4666 
L 1478 4666 
L 3547 763 
L 3547 4666 
L 4159 4666 
L 4159 0 
L 3309 0 
L 1241 3903 
L 1241 0 
L 628 0 
L 628 4666 
z
" transform="scale(0.015625)"/>
       <path id="DejaVuSans-29" d="M 513 4856 
L 1013 4856 
Q 1481 4119 1714 3412 
Q 1947 2706 1947 2009 
Q 1947 1309 1714 600 
Q 1481 -109 1013 -844 
L 513 -844 
Q 928 -128 1133 580 
Q 1338 1288 1338 2009 
Q 1338 2731 1133 3434 
Q 928 4138 513 4856 
z
" transform="scale(0.015625)"/>
      </defs>
      <use xlink:href="#DejaVuSans-52"/>
      <use xlink:href="#DejaVuSans-57" x="65.482422"/>
      <use xlink:href="#DejaVuSans-20" x="164.359375"/>
      <use xlink:href="#DejaVuSans-4d" x="196.146484"/>
      <use xlink:href="#DejaVuSans-6f" x="282.425781"/>
      <use xlink:href="#DejaVuSans-74" x="343.607422"/>
      <use xlink:href="#DejaVuSans-6f" x="382.816406"/>
      <use xlink:href="#DejaVuSans-72" x="443.998047"/>
      <use xlink:href="#DejaVuSans-20" x="485.111328"/>
      <use xlink:href="#DejaVuSans-54" x="516.898438"/>
      <use xlink:href="#DejaVuSans-6f" x="560.982422"/>
      <use xlink:href="#DejaVuSans-72" x="622.164062"/>
      <use xlink:href="#DejaVuSans-71" x="661.527344"/>
      <use xlink:href="#DejaVuSans-75" x="725.003906"/>
      <use xlink:href="#DejaVuSans-65" x="788.382812"/>
      <use xlink:href="#DejaVuSans-20" x="849.90625"/>
      <use xlink:href="#DejaVuSans-28" x="881.693359"/>
      <use xlink:href="#DejaVuSans-4e" x="920.707031"/>
      <use xlink:href="#DejaVuSans-6d" x="995.511719"/>
      <use xlink:href="#DejaVuSans-29" x="1092.923828"/>
     </g>
    </g>
   </g>
   <g id="line2d_12">
    <path d="M 84.877446 122.356503 
L 85.079485 126.052329 
L 85.483563 119.78686 
L 85.685602 119.316164 
L 85.887642 119.677731 
L 86.695798 122.116004 
L 87.099877 122.64974 
L 87.503955 122.81079 
L 88.110073 122.733033 
L 89.726386 122.384714 
L 91.544739 122.326917 
L 110.132343 122.356503 
L 131.952574 122.356503 
L 132.154613 141.884314 
L 132.558692 129.021066 
L 132.96277 122.305503 
L 133.366848 119.258045 
L 133.568887 118.613003 
L 133.770927 118.346803 
L 133.972966 118.343336 
L 134.377044 118.791389 
L 135.993358 121.300524 
L 136.599475 121.804539 
L 137.407632 122.160216 
L 138.417828 122.324025 
L 140.640259 122.36399 
L 142.054533 122.359218 
L 142.256572 102.863435 
L 142.66065 115.88019 
L 143.064729 122.511036 
L 143.468807 125.467576 
L 143.670846 126.081999 
L 143.872886 126.327466 
L 144.074925 126.318395 
L 144.479003 125.862456 
L 146.095316 123.388823 
L 146.701434 122.895519 
L 147.509591 122.547894 
L 148.519787 122.387963 
L 150.742218 122.349019 
L 183.674603 122.356503 
L 216.809029 122.356503 
L 217.011068 43.364242 
L 217.415146 64.101872 
L 218.425342 129.508569 
L 218.627381 132.417755 
L 218.82942 133.293258 
L 219.031459 133.044644 
L 219.435538 131.1822 
L 220.243695 127.188834 
L 220.849812 125.227818 
L 221.45593 124.016157 
L 222.062047 123.29652 
L 222.668165 122.879721 
L 223.476321 122.590272 
L 224.688556 122.423124 
L 226.708948 122.364096 
L 226.910987 206.586801 
L 227.315066 185.170978 
L 228.325262 117.075936 
L 228.527301 113.500804 
L 228.72934 112.227681 
L 228.931379 112.241764 
L 229.335458 113.90827 
L 230.143614 117.88339 
L 230.345653 118.639464 
L 230.547693 76.758801 
L 231.355849 120.510177 
L 231.759928 128.389203 
L 231.961967 129.820993 
L 232.164006 130.299188 
L 232.366045 130.181297 
L 232.770124 129.064446 
L 233.780319 125.649367 
L 234.386437 124.271495 
L 234.992554 123.405301 
L 235.598672 122.90019 
L 236.406829 122.563761 
L 237.417025 122.408512 
L 239.639456 122.355968 
L 301.665483 122.356543 
L 301.867522 67.468042 
L 302.675679 117.933481 
L 303.079757 127.158356 
L 303.281796 128.618932 
L 303.483836 129.055573 
L 303.685875 128.916481 
L 304.089953 127.892887 
L 305.100149 125.059947 
L 305.706267 123.967025 
L 306.312384 123.280365 
L 306.918502 122.871872 
L 307.726658 122.586005 
L 308.938893 122.422638 
L 309.74705 122.385599 
L 309.949089 132.999202 
L 310.353168 125.526922 
L 310.757246 122.037959 
L 311.161324 120.669321 
L 311.363364 120.426578 
L 311.767442 120.405139 
L 312.373559 120.856333 
L 313.383755 121.655904 
L 314.191912 122.033235 
L 315.202108 122.25139 
L 317.02046 122.348306 
L 326.718341 122.356508 
L 375.813861 122.356501 
L 375.813861 122.356501 
" clip-path="url(#p2829927eef)" style="fill: none; stroke-dasharray: 5.55,2.4; stroke-dashoffset: 0; stroke: #225e7c; stroke-width: 1.5"/>
   </g>
   <g id="line2d_13">
    <path d="M 84.877446 122.356503 
L 85.079485 126.052329 
L 85.483563 119.78686 
L 85.685602 119.316164 
L 85.887642 119.677731 
L 86.695798 122.116004 
L 87.099877 122.64974 
L 87.503955 122.81079 
L 88.110073 122.733033 
L 89.726386 122.384714 
L 91.544739 122.326917 
L 110.132343 122.356503 
L 131.952574 122.356503 
L 132.154613 141.884314 
L 132.558692 129.021066 
L 132.96277 122.305503 
L 133.366848 119.258045 
L 133.568887 118.613003 
L 133.770927 118.346803 
L 133.972966 118.343336 
L 134.377044 118.791389 
L 135.993358 121.300524 
L 136.599475 121.804539 
L 137.407632 122.160216 
L 138.417828 122.324025 
L 140.640259 122.36399 
L 142.054533 122.359218 
L 142.256572 102.863435 
L 142.66065 115.88019 
L 143.064729 122.511036 
L 143.468807 125.467576 
L 143.670846 126.081999 
L 143.872886 126.327466 
L 144.074925 126.318395 
L 144.479003 125.862456 
L 146.095316 123.388823 
L 146.701434 122.895519 
L 147.509591 122.547894 
L 148.519787 122.387963 
L 150.742218 122.349019 
L 183.674603 122.356503 
L 216.809029 122.356503 
L 217.011068 101.509954 
L 217.819224 101.509954 
L 218.425342 129.508569 
L 218.627381 132.417755 
L 218.82942 133.293258 
L 219.031459 133.044644 
L 219.435538 131.1822 
L 220.243695 127.188834 
L 220.849812 125.227818 
L 221.45593 124.016157 
L 222.062047 123.29652 
L 222.668165 122.879721 
L 223.476321 122.590272 
L 224.688556 122.423124 
L 226.708948 122.364096 
L 226.910987 143.203052 
L 227.719144 143.203052 
L 227.921183 138.195328 
L 228.325262 117.075936 
L 228.527301 113.500804 
L 228.72934 112.227681 
L 228.931379 112.241764 
L 229.335458 113.90827 
L 230.143614 117.88339 
L 230.345653 118.639464 
L 230.547693 101.509954 
L 230.951771 101.509954 
L 231.355849 120.510177 
L 231.759928 128.389203 
L 231.961967 129.820993 
L 232.164006 130.299188 
L 232.366045 130.181297 
L 232.770124 129.064446 
L 233.780319 125.649367 
L 234.386437 124.271495 
L 234.992554 123.405301 
L 235.598672 122.90019 
L 236.406829 122.563761 
L 237.417025 122.408512 
L 239.639456 122.355968 
L 301.665483 122.356543 
L 301.867522 101.509954 
L 302.271601 101.509954 
L 302.47364 107.519856 
L 302.877718 123.959811 
L 303.281796 128.618932 
L 303.483836 129.055573 
L 303.685875 128.916481 
L 304.089953 127.892887 
L 305.100149 125.059947 
L 305.706267 123.967025 
L 306.312384 123.280365 
L 306.918502 122.871872 
L 307.726658 122.586005 
L 308.938893 122.422638 
L 309.74705 122.385599 
L 309.949089 132.999202 
L 310.353168 125.526922 
L 310.757246 122.037959 
L 311.161324 120.669321 
L 311.363364 120.426578 
L 311.767442 120.405139 
L 312.373559 120.856333 
L 313.383755 121.655904 
L 314.191912 122.033235 
L 315.202108 122.25139 
L 317.02046 122.348306 
L 326.718341 122.356508 
L 375.813861 122.356501 
L 375.813861 122.356501 
" clip-path="url(#p2829927eef)" style="fill: none; stroke: #225e7c; stroke-width: 1.5; stroke-linecap: square"/>
   </g>
   <g id="line2d_14">
    <path d="M 84.877446 122.356503 
L 85.079485 129.842351 
L 85.483563 122.577613 
L 85.685602 121.137683 
L 85.887642 120.647626 
L 86.089681 120.617319 
L 86.695798 121.244545 
L 87.301916 121.758814 
L 88.110073 122.077892 
L 89.322308 122.239574 
L 92.352895 122.338371 
L 103.667089 122.356501 
L 131.952574 122.356503 
L 132.154613 90.623487 
L 132.760731 117.074355 
L 133.164809 124.870327 
L 133.568887 127.714706 
L 133.770927 128.107014 
L 133.972966 128.099023 
L 134.377044 127.419445 
L 135.791318 124.161 
L 136.397436 123.34218 
L 137.003554 122.852477 
L 137.81171 122.527265 
L 138.821906 122.385403 
L 141.246376 122.352016 
L 142.054533 122.353997 
L 142.256572 154.088383 
L 142.86269 127.68152 
L 143.266768 119.83573 
L 143.670846 116.97437 
L 143.872886 116.582128 
L 144.074925 116.592911 
L 144.479003 117.280478 
L 145.893277 120.55064 
L 146.499395 121.368887 
L 147.105512 121.857834 
L 147.913669 122.182791 
L 149.125904 122.336839 
L 152.156492 122.358785 
L 214.384558 122.356503 
L 216.809029 122.356503 
L 217.011068 21.265312 
L 217.617185 71.789361 
L 218.223303 124.917917 
L 218.627381 135.22366 
L 218.82942 136.18098 
L 219.031459 135.845215 
L 219.435538 133.521889 
L 220.243695 128.376418 
L 220.849812 125.79742 
L 221.45593 124.23106 
L 222.062047 123.341796 
L 222.668165 122.860006 
L 223.476321 122.555601 
L 224.688556 122.404369 
L 226.708948 122.361644 
L 226.910987 230.571562 
L 227.315066 203.622072 
L 228.325262 116.815188 
L 228.527301 111.033932 
L 228.72934 108.590198 
L 228.931379 108.113482 
L 229.133418 108.720436 
L 229.739536 112.637009 
L 230.345653 116.303461 
L 230.547693 130.708807 
L 230.749732 129.87594 
L 231.15381 125.798169 
L 231.759928 120.309522 
L 232.164006 118.699335 
L 232.366045 118.434448 
L 232.568084 118.427347 
L 232.972163 118.887389 
L 234.386437 121.186068 
L 234.992554 121.741051 
L 235.800711 122.130208 
L 236.810907 122.310579 
L 238.831299 122.36184 
L 301.665483 122.356584 
L 301.867522 90.31575 
L 302.47364 122.745862 
L 302.675679 126.35954 
L 302.877718 127.576872 
L 303.079757 127.566096 
L 303.483836 126.280835 
L 304.089953 124.383466 
L 304.696071 123.357265 
L 305.302188 122.888399 
L 306.110345 122.635894 
L 307.726658 122.469477 
L 309.74705 122.388743 
L 309.949089 121.488828 
L 310.555207 121.990154 
L 311.161324 122.428475 
L 311.767442 122.597203 
L 312.777638 122.555957 
L 315.202108 122.368436 
L 320.657166 122.356248 
L 375.813861 122.356504 
L 375.813861 122.356504 
" clip-path="url(#p2829927eef)" style="fill: none; stroke-dasharray: 5.55,2.4; stroke-dashoffset: 0; stroke: #3e915b; stroke-width: 1.5"/>
   </g>
   <g id="line2d_15">
    <path d="M 84.877446 122.356503 
L 85.079485 129.842351 
L 85.483563 122.577613 
L 85.685602 121.137683 
L 85.887642 120.647626 
L 86.089681 120.617319 
L 86.695798 121.244545 
L 87.301916 121.758814 
L 88.110073 122.077892 
L 89.322308 122.239574 
L 92.352895 122.338371 
L 103.667089 122.356501 
L 131.952574 122.356503 
L 132.154613 101.509954 
L 132.356652 101.509954 
L 132.760731 117.074355 
L 133.164809 124.870327 
L 133.568887 127.714706 
L 133.770927 128.107014 
L 133.972966 128.099023 
L 134.377044 127.419445 
L 135.791318 124.161 
L 136.397436 123.34218 
L 137.003554 122.852477 
L 137.81171 122.527265 
L 138.821906 122.385403 
L 141.246376 122.352016 
L 142.054533 122.353997 
L 142.256572 143.203052 
L 142.458611 143.203052 
L 142.86269 127.68152 
L 143.266768 119.83573 
L 143.670846 116.97437 
L 143.872886 116.582128 
L 144.074925 116.592911 
L 144.479003 117.280478 
L 145.893277 120.55064 
L 146.499395 121.368887 
L 147.105512 121.857834 
L 147.913669 122.182791 
L 149.125904 122.336839 
L 152.156492 122.358785 
L 214.384558 122.356503 
L 216.809029 122.356503 
L 217.011068 101.509954 
L 217.819224 101.509954 
L 218.425342 131.980426 
L 218.627381 135.22366 
L 218.82942 136.18098 
L 219.031459 135.845215 
L 219.435538 133.521889 
L 220.243695 128.376418 
L 220.849812 125.79742 
L 221.45593 124.23106 
L 222.062047 123.341796 
L 222.668165 122.860006 
L 223.476321 122.555601 
L 224.688556 122.404369 
L 226.708948 122.361644 
L 226.910987 143.203052 
L 227.921183 143.203052 
L 228.325262 116.815188 
L 228.527301 111.033932 
L 228.72934 108.590198 
L 228.931379 108.113482 
L 229.133418 108.720436 
L 229.739536 112.637009 
L 230.345653 116.303461 
L 230.547693 130.708807 
L 230.749732 129.87594 
L 231.15381 125.798169 
L 231.759928 120.309522 
L 232.164006 118.699335 
L 232.366045 118.434448 
L 232.568084 118.427347 
L 232.972163 118.887389 
L 234.386437 121.186068 
L 234.992554 121.741051 
L 235.800711 122.130208 
L 236.810907 122.310579 
L 238.831299 122.36184 
L 301.665483 122.356584 
L 301.867522 101.509954 
L 302.069561 103.07508 
L 302.47364 122.745862 
L 302.675679 126.35954 
L 302.877718 127.576872 
L 303.079757 127.566096 
L 303.483836 126.280835 
L 304.089953 124.383466 
L 304.696071 123.357265 
L 305.302188 122.888399 
L 306.110345 122.635894 
L 307.726658 122.469477 
L 309.74705 122.388743 
L 309.949089 121.488828 
L 310.555207 121.990154 
L 311.161324 122.428475 
L 311.767442 122.597203 
L 312.777638 122.555957 
L 315.202108 122.368436 
L 320.657166 122.356248 
L 375.813861 122.356504 
L 375.813861 122.356504 
" clip-path="url(#p2829927eef)" style="fill: none; stroke: #3e915b; stroke-width: 1.5; stroke-linecap: square"/>
   </g>
   <g id="line2d_16">
    <path d="M 84.877446 122.356503 
L 85.079485 163.258588 
L 85.685602 126.629443 
L 86.089681 117.703909 
L 86.29172 116.127183 
L 86.493759 115.560544 
L 86.695798 115.598977 
L 87.099877 116.537043 
L 88.110073 119.483748 
L 88.71619 120.657673 
L 89.322308 121.393417 
L 89.928425 121.826902 
L 90.736582 122.125875 
L 91.948817 122.292882 
L 94.575326 122.352262 
L 125.891399 122.356503 
L 131.952574 122.356503 
L 132.154613 100.535985 
L 132.558692 115.012648 
L 132.96277 122.513499 
L 133.366848 125.722133 
L 133.568887 126.369449 
L 133.770927 126.618195 
L 133.972966 126.595585 
L 134.377044 126.090735 
L 135.791318 123.686038 
L 136.397436 123.074562 
L 137.205593 122.627878 
L 138.215789 122.411681 
L 140.034141 122.348642 
L 142.054533 122.353941 
L 142.256572 144.191701 
L 142.66065 129.884399 
L 143.064729 122.247205 
L 143.468807 118.964081 
L 143.670846 118.306431 
L 143.872886 118.056637 
L 144.074925 118.082551 
L 144.479003 118.59633 
L 145.893277 121.011118 
L 146.499395 121.624457 
L 147.307552 122.074653 
L 148.317747 122.295179 
L 150.1361 122.362693 
L 216.809029 122.356503 
L 217.011068 127.792876 
L 217.213107 124.832262 
L 217.415146 123.550817 
L 217.617185 123.356398 
L 217.819224 123.429737 
L 218.021264 123.350185 
L 218.82942 120.053334 
L 219.031459 119.821844 
L 219.233499 119.789812 
L 219.637577 120.068601 
L 221.25389 121.669749 
L 222.062047 122.057302 
L 223.072243 122.27055 
L 224.890596 122.357253 
L 226.708948 122.360193 
L 226.910987 114.334182 
L 227.315066 122.720599 
L 227.517105 125.04006 
L 227.719144 125.798866 
L 227.921183 125.308675 
L 228.123222 124.037421 
L 228.325262 123.63159 
L 228.527301 123.685841 
L 228.931379 124.002258 
L 229.335458 123.996002 
L 229.941575 123.509485 
L 230.345653 123.130199 
L 230.547693 161.900416 
L 231.557888 123.029641 
L 231.961967 117.900545 
L 232.164006 116.859081 
L 232.366045 116.439858 
L 232.568084 116.439059 
L 232.972163 117.134976 
L 234.386437 120.488346 
L 234.992554 121.319415 
L 235.598672 121.815475 
L 236.406829 122.149574 
L 237.619064 122.318345 
L 240.447612 122.35748 
L 301.665483 122.356462 
L 301.867522 78.456826 
L 302.675679 125.114173 
L 302.877718 128.052619 
L 303.079757 128.775166 
L 303.281796 128.412254 
L 304.291992 124.554794 
L 304.696071 123.732738 
L 305.302188 123.08971 
L 305.908306 122.798838 
L 306.918502 122.586551 
L 308.938893 122.421301 
L 309.74705 122.392764 
L 309.949089 111.70443 
L 310.353168 119.125484 
L 310.757246 122.638296 
L 311.161324 124.032532 
L 311.363364 124.283323 
L 311.767442 124.312547 
L 312.373559 123.862076 
L 313.383755 123.058887 
L 314.191912 122.680266 
L 315.202108 122.461692 
L 317.02046 122.364701 
L 326.718341 122.356497 
L 375.813861 122.356504 
L 375.813861 122.356504 
" clip-path="url(#p2829927eef)" style="fill: none; stroke-dasharray: 5.55,2.4; stroke-dashoffset: 0; stroke: #8eac56; stroke-width: 1.5"/>
   </g>
   <g id="line2d_17">
    <path d="M 84.877446 122.356503 
L 85.079485 143.203052 
L 85.281524 143.203052 
L 86.089681 117.703909 
L 86.29172 116.127183 
L 86.493759 115.560544 
L 86.695798 115.598977 
L 87.099877 116.537043 
L 88.110073 119.483748 
L 88.71619 120.657673 
L 89.322308 121.393417 
L 89.928425 121.826902 
L 90.736582 122.125875 
L 91.948817 122.292882 
L 94.575326 122.352262 
L 125.891399 122.356503 
L 131.952574 122.356503 
L 132.154613 101.509954 
L 132.760731 119.462108 
L 133.164809 124.508863 
L 133.568887 126.369449 
L 133.770927 126.618195 
L 133.972966 126.595585 
L 134.377044 126.090735 
L 135.791318 123.686038 
L 136.397436 123.074562 
L 137.205593 122.627878 
L 138.215789 122.411681 
L 140.034141 122.348642 
L 142.054533 122.353941 
L 142.256572 143.203052 
L 142.86269 125.36806 
L 143.266768 120.20357 
L 143.670846 118.306431 
L 143.872886 118.056637 
L 144.074925 118.082551 
L 144.479003 118.59633 
L 145.893277 121.011118 
L 146.499395 121.624457 
L 147.307552 122.074653 
L 148.317747 122.295179 
L 150.1361 122.362693 
L 216.809029 122.356503 
L 217.011068 127.792876 
L 217.213107 124.832262 
L 217.415146 123.550817 
L 217.617185 123.356398 
L 217.819224 123.429737 
L 218.021264 123.350185 
L 218.82942 120.053334 
L 219.031459 119.821844 
L 219.233499 119.789812 
L 219.637577 120.068601 
L 221.25389 121.669749 
L 222.062047 122.057302 
L 223.072243 122.27055 
L 224.890596 122.357253 
L 226.708948 122.360193 
L 226.910987 114.334182 
L 227.315066 122.720599 
L 227.517105 125.04006 
L 227.719144 125.798866 
L 227.921183 125.308675 
L 228.123222 124.037421 
L 228.325262 123.63159 
L 228.527301 123.685841 
L 228.931379 124.002258 
L 229.335458 123.996002 
L 229.941575 123.509485 
L 230.345653 123.130199 
L 230.547693 143.203052 
L 230.951771 143.203052 
L 231.557888 123.029641 
L 231.961967 117.900545 
L 232.164006 116.859081 
L 232.366045 116.439858 
L 232.568084 116.439059 
L 232.972163 117.134976 
L 234.386437 120.488346 
L 234.992554 121.319415 
L 235.598672 121.815475 
L 236.406829 122.149574 
L 237.619064 122.318345 
L 240.447612 122.35748 
L 301.665483 122.356462 
L 301.867522 101.509954 
L 302.069561 101.509954 
L 302.271601 106.534825 
L 302.675679 125.114173 
L 302.877718 128.052619 
L 303.079757 128.775166 
L 303.281796 128.412254 
L 304.291992 124.554794 
L 304.696071 123.732738 
L 305.302188 123.08971 
L 305.908306 122.798838 
L 306.918502 122.586551 
L 308.938893 122.421301 
L 309.74705 122.392764 
L 309.949089 111.70443 
L 310.353168 119.125484 
L 310.757246 122.638296 
L 311.161324 124.032532 
L 311.363364 124.283323 
L 311.767442 124.312547 
L 312.373559 123.862076 
L 313.383755 123.058887 
L 314.191912 122.680266 
L 315.202108 122.461692 
L 317.02046 122.364701 
L 326.718341 122.356497 
L 375.813861 122.356504 
L 375.813861 122.356504 
" clip-path="url(#p2829927eef)" style="fill: none; stroke: #8eac56; stroke-width: 1.5; stroke-linecap: square"/>
   </g>
   <g id="line2d_18">
    <path d="M 84.877446 122.356503 
L 85.079485 159.468567 
L 85.685602 124.807924 
L 86.089681 117.434134 
L 86.29172 116.390953 
L 86.493759 116.197842 
L 86.695798 116.470436 
L 88.514151 120.788284 
L 89.120268 121.439998 
L 89.928425 121.917472 
L 90.938621 122.184919 
L 92.554935 122.319319 
L 96.999796 122.355958 
L 131.952574 122.356503 
L 132.154613 151.796811 
L 132.760731 127.482846 
L 133.164809 120.0676 
L 133.568887 117.267746 
L 133.770927 116.857984 
L 133.972966 116.839898 
L 134.377044 117.462679 
L 135.791318 120.598077 
L 136.397436 121.396247 
L 137.003554 121.874655 
L 137.81171 122.192339 
L 139.023945 122.341142 
L 142.054533 122.359162 
L 142.256572 92.966753 
L 142.86269 117.458783 
L 143.266768 124.705567 
L 143.670846 127.41406 
L 143.872886 127.801975 
L 144.074925 127.808034 
L 144.479003 127.178307 
L 145.893277 124.072218 
L 146.499395 123.288692 
L 147.105512 122.821476 
L 147.913669 122.51309 
L 149.125904 122.370072 
L 152.56057 122.354599 
L 216.809029 122.356503 
L 217.011068 149.891806 
L 217.617185 129.443131 
L 218.021264 123.038113 
L 218.425342 118.905441 
L 218.82942 117.165611 
L 219.031459 117.021273 
L 219.233499 117.186817 
L 219.637577 118.023708 
L 220.647773 120.438348 
L 221.25389 121.361627 
L 221.860008 121.897018 
L 222.668165 122.229818 
L 223.678361 122.355678 
L 226.506909 122.363633 
L 226.708948 122.362645 
L 226.910987 90.349421 
L 227.517105 109.629281 
L 228.325262 123.892338 
L 228.72934 127.500912 
L 228.931379 128.13054 
L 229.133418 128.25028 
L 229.335458 128.036395 
L 229.941575 126.547091 
L 230.345653 125.466202 
L 230.547693 107.95041 
L 231.355849 124.828572 
L 231.759928 127.91728 
L 231.961967 128.419476 
L 232.164006 128.458933 
L 232.366045 128.186707 
L 232.972163 126.585218 
L 233.780319 124.553583 
L 234.386437 123.573772 
L 234.992554 122.983665 
L 235.800711 122.58439 
L 236.810907 122.402541 
L 238.831299 122.351167 
L 301.665483 122.356421 
L 301.867522 55.609118 
L 302.271601 85.302054 
L 302.675679 116.688114 
L 303.079757 128.367426 
L 303.281796 130.020182 
L 303.483836 130.384398 
L 303.685875 130.066085 
L 304.494031 127.120119 
L 305.100149 125.3043 
L 305.706267 124.108976 
L 306.312384 123.369291 
L 306.918502 122.928046 
L 307.726658 122.615027 
L 308.938893 122.431997 
L 309.74705 122.38962 
L 309.949089 123.214804 
L 311.161324 122.273378 
L 311.767442 122.120483 
L 312.777638 122.160878 
L 315.404147 122.349024 
L 322.475518 122.356528 
L 375.813861 122.356501 
L 375.813861 122.356501 
" clip-path="url(#p2829927eef)" style="fill: none; stroke-dasharray: 5.55,2.4; stroke-dashoffset: 0; stroke: #c4a46f; stroke-width: 1.5"/>
   </g>
   <g id="line2d_19">
    <path d="M 84.877446 122.356503 
L 85.079485 143.203052 
L 85.281524 143.203052 
L 85.685602 124.807924 
L 86.089681 117.434134 
L 86.29172 116.390953 
L 86.493759 116.197842 
L 86.695798 116.470436 
L 88.514151 120.788284 
L 89.120268 121.439998 
L 89.928425 121.917472 
L 90.938621 122.184919 
L 92.554935 122.319319 
L 96.999796 122.355958 
L 131.952574 122.356503 
L 132.154613 143.203052 
L 132.356652 142.745847 
L 132.760731 127.482846 
L 133.164809 120.0676 
L 133.568887 117.267746 
L 133.770927 116.857984 
L 133.972966 116.839898 
L 134.377044 117.462679 
L 135.791318 120.598077 
L 136.397436 121.396247 
L 137.003554 121.874655 
L 137.81171 122.192339 
L 139.023945 122.341142 
L 142.054533 122.359162 
L 142.256572 101.509954 
L 142.458611 102.231155 
L 142.86269 117.458783 
L 143.266768 124.705567 
L 143.670846 127.41406 
L 143.872886 127.801975 
L 144.074925 127.808034 
L 144.479003 127.178307 
L 145.893277 124.072218 
L 146.499395 123.288692 
L 147.105512 122.821476 
L 147.913669 122.51309 
L 149.125904 122.370072 
L 152.56057 122.354599 
L 216.809029 122.356503 
L 217.011068 143.203052 
L 217.213107 141.857098 
L 217.617185 129.443131 
L 218.021264 123.038113 
L 218.425342 118.905441 
L 218.82942 117.165611 
L 219.031459 117.021273 
L 219.233499 117.186817 
L 219.637577 118.023708 
L 220.647773 120.438348 
L 221.25389 121.361627 
L 221.860008 121.897018 
L 222.668165 122.229818 
L 223.678361 122.355678 
L 226.506909 122.363633 
L 226.708948 122.362645 
L 226.910987 101.509954 
L 227.113027 101.509954 
L 227.315066 104.269504 
L 227.719144 113.701187 
L 228.527301 126.152712 
L 228.931379 128.13054 
L 229.133418 128.25028 
L 229.335458 128.036395 
L 229.941575 126.547091 
L 230.345653 125.466202 
L 230.547693 107.95041 
L 231.355849 124.828572 
L 231.759928 127.91728 
L 231.961967 128.419476 
L 232.164006 128.458933 
L 232.366045 128.186707 
L 232.972163 126.585218 
L 233.780319 124.553583 
L 234.386437 123.573772 
L 234.992554 122.983665 
L 235.800711 122.58439 
L 236.810907 122.402541 
L 238.831299 122.351167 
L 301.665483 122.356421 
L 301.867522 101.509954 
L 302.271601 101.509954 
L 302.47364 102.927678 
L 302.877718 124.435558 
L 303.079757 128.367426 
L 303.281796 130.020182 
L 303.483836 130.384398 
L 303.685875 130.066085 
L 304.494031 127.120119 
L 305.100149 125.3043 
L 305.706267 124.108976 
L 306.312384 123.369291 
L 306.918502 122.928046 
L 307.726658 122.615027 
L 308.938893 122.431997 
L 309.74705 122.38962 
L 309.949089 123.214804 
L 311.161324 122.273378 
L 311.767442 122.120483 
L 312.777638 122.160878 
L 315.404147 122.349024 
L 322.475518 122.356528 
L 375.813861 122.356501 
L 375.813861 122.356501 
" clip-path="url(#p2829927eef)" style="fill: none; stroke: #c4a46f; stroke-width: 1.5; stroke-linecap: square"/>
   </g>
   <g id="patch_3">
    <path d="M 70.330625 241.036875 
L 70.330625 10.8 
" style="fill: none; stroke: #000000; stroke-width: 0.8; stroke-linejoin: miter; stroke-linecap: square"/>
   </g>
   <g id="patch_4">
    <path d="M 390.360682 241.036875 
L 390.360682 10.8 
" style="fill: none; stroke: #000000; stroke-width: 0.8; stroke-linejoin: miter; stroke-linecap: square"/>
   </g>
   <g id="patch_5">
    <path d="M 70.330625 241.036875 
L 390.360682 241.036875 
" style="fill: none; stroke: #000000; stroke-width: 0.8; stroke-linejoin: miter; stroke-linecap: square"/>
   </g>
   <g id="patch_6">
    <path d="M 70.330625 10.8 
L 390.360682 10.8 
" style="fill: none; stroke: #000000; stroke-width: 0.8; stroke-linejoin: miter; stroke-linecap: square"/>
   </g>
   <g id="legend_1">
    <g id="patch_7">
     <path d="M 338.700682 236.536875 
L 384.060682 236.536875 
Q 385.860682 236.536875 385.860682 234.736875 
L 385.860682 121.1625 
Q 385.860682 119.3625 384.060682 119.3625 
L 338.700682 119.3625 
Q 336.900682 119.3625 336.900682 121.1625 
L 336.900682 234.736875 
Q 336.900682 236.536875 338.700682 236.536875 
z
" style="fill: #ffffff; opacity: 0.8; stroke: #cccccc; stroke-linejoin: miter"/>
    </g>
    <g id="line2d_20">
     <path d="M 340.500682 128.0925 
L 349.500682 128.0925 
L 358.500682 128.0925 
" style="fill: none; stroke-dasharray: 5.55,2.4; stroke-dashoffset: 0; stroke: #225e7c; stroke-width: 1.5"/>
    </g>
    <g id="text_14">
     <!-- $\hat u_{s,1}$ -->
     <g transform="translate(365.700682 131.2425) scale(0.09 -0.09)">
      <defs>
       <path id="DejaVuSans-302" d="M -1831 5119 
L -1369 5119 
L -603 3944 
L -1038 3944 
L -1600 4709 
L -2163 3944 
L -2597 3944 
L -1831 5119 
z
M -1600 3584 
L -1600 3584 
z
" transform="scale(0.015625)"/>
       <path id="DejaVuSans-Oblique-75" d="M 428 1388 
L 838 3500 
L 1416 3500 
L 1006 1409 
Q 975 1256 961 1147 
Q 947 1038 947 966 
Q 947 700 1109 554 
Q 1272 409 1569 409 
Q 2031 409 2368 721 
Q 2706 1034 2809 1563 
L 3194 3500 
L 3769 3500 
L 3091 0 
L 2516 0 
L 2631 550 
Q 2388 244 2052 76 
Q 1716 -91 1338 -91 
Q 878 -91 622 161 
Q 366 413 366 863 
Q 366 956 381 1097 
Q 397 1238 428 1388 
z
" transform="scale(0.015625)"/>
       <path id="DejaVuSans-Oblique-73" d="M 3200 3397 
L 3091 2853 
Q 2863 2978 2609 3040 
Q 2356 3103 2088 3103 
Q 1634 3103 1373 2948 
Q 1113 2794 1113 2528 
Q 1113 2219 1719 2053 
Q 1766 2041 1788 2034 
L 1972 1978 
Q 2547 1819 2739 1644 
Q 2931 1469 2931 1166 
Q 2931 609 2489 259 
Q 2047 -91 1331 -91 
Q 1053 -91 747 -37 
Q 441 16 72 128 
L 184 722 
Q 500 559 806 475 
Q 1113 391 1394 391 
Q 1816 391 2080 572 
Q 2344 753 2344 1031 
Q 2344 1331 1650 1516 
L 1591 1531 
L 1394 1581 
Q 956 1697 753 1886 
Q 550 2075 550 2369 
Q 550 2928 970 3256 
Q 1391 3584 2113 3584 
Q 2397 3584 2667 3537 
Q 2938 3491 3200 3397 
z
" transform="scale(0.015625)"/>
       <path id="DejaVuSans-2c" d="M 750 794 
L 1409 794 
L 1409 256 
L 897 -744 
L 494 -744 
L 750 256 
L 750 794 
z
" transform="scale(0.015625)"/>
      </defs>
      <use xlink:href="#DejaVuSans-302" transform="translate(57.871094 12.015625)"/>
      <use xlink:href="#DejaVuSans-Oblique-75" transform="translate(0 0.828125)"/>
      <use xlink:href="#DejaVuSans-Oblique-73" transform="translate(64.335938 -15.578125) scale(0.7)"/>
      <use xlink:href="#DejaVuSans-2c" transform="translate(100.805664 -15.578125) scale(0.7)"/>
      <use xlink:href="#DejaVuSans-31" transform="translate(136.694336 -15.578125) scale(0.7)"/>
     </g>
    </g>
    <g id="line2d_21">
     <path d="M 340.500682 141.681094 
L 349.500682 141.681094 
L 358.500682 141.681094 
" style="fill: none; stroke: #225e7c; stroke-width: 1.5; stroke-linecap: square"/>
    </g>
    <g id="text_15">
     <!-- $u_{s,1}$ -->
     <g transform="translate(365.700682 144.831094) scale(0.09 -0.09)">
      <use xlink:href="#DejaVuSans-Oblique-75" transform="translate(0 0.3125)"/>
      <use xlink:href="#DejaVuSans-Oblique-73" transform="translate(63.378906 -16.09375) scale(0.7)"/>
      <use xlink:href="#DejaVuSans-2c" transform="translate(99.848633 -16.09375) scale(0.7)"/>
      <use xlink:href="#DejaVuSans-31" transform="translate(135.737305 -16.09375) scale(0.7)"/>
     </g>
    </g>
    <g id="line2d_22">
     <path d="M 340.500682 156.711094 
L 349.500682 156.711094 
L 358.500682 156.711094 
" style="fill: none; stroke-dasharray: 5.55,2.4; stroke-dashoffset: 0; stroke: #3e915b; stroke-width: 1.5"/>
    </g>
    <g id="text_16">
     <!-- $\hat u_{s,2}$ -->
     <g transform="translate(365.700682 159.861094) scale(0.09 -0.09)">
      <use xlink:href="#DejaVuSans-302" transform="translate(57.871094 12.015625)"/>
      <use xlink:href="#DejaVuSans-Oblique-75" transform="translate(0 0.828125)"/>
      <use xlink:href="#DejaVuSans-Oblique-73" transform="translate(64.335938 -15.578125) scale(0.7)"/>
      <use xlink:href="#DejaVuSans-2c" transform="translate(100.805664 -15.578125) scale(0.7)"/>
      <use xlink:href="#DejaVuSans-32" transform="translate(136.694336 -15.578125) scale(0.7)"/>
     </g>
    </g>
    <g id="line2d_23">
     <path d="M 340.500682 170.299688 
L 349.500682 170.299688 
L 358.500682 170.299688 
" style="fill: none; stroke: #3e915b; stroke-width: 1.5; stroke-linecap: square"/>
    </g>
    <g id="text_17">
     <!-- $u_{s,2}$ -->
     <g transform="translate(365.700682 173.449688) scale(0.09 -0.09)">
      <use xlink:href="#DejaVuSans-Oblique-75" transform="translate(0 0.3125)"/>
      <use xlink:href="#DejaVuSans-Oblique-73" transform="translate(63.378906 -16.09375) scale(0.7)"/>
      <use xlink:href="#DejaVuSans-2c" transform="translate(99.848633 -16.09375) scale(0.7)"/>
      <use xlink:href="#DejaVuSans-32" transform="translate(135.737305 -16.09375) scale(0.7)"/>
     </g>
    </g>
    <g id="line2d_24">
     <path d="M 340.500682 185.329688 
L 349.500682 185.329688 
L 358.500682 185.329688 
" style="fill: none; stroke-dasharray: 5.55,2.4; stroke-dashoffset: 0; stroke: #8eac56; stroke-width: 1.5"/>
    </g>
    <g id="text_18">
     <!-- $\hat u_{s,3}$ -->
     <g transform="translate(365.700682 188.479688) scale(0.09 -0.09)">
      <defs>
       <path id="DejaVuSans-33" d="M 2597 2516 
Q 3050 2419 3304 2112 
Q 3559 1806 3559 1356 
Q 3559 666 3084 287 
Q 2609 -91 1734 -91 
Q 1441 -91 1130 -33 
Q 819 25 488 141 
L 488 750 
Q 750 597 1062 519 
Q 1375 441 1716 441 
Q 2309 441 2620 675 
Q 2931 909 2931 1356 
Q 2931 1769 2642 2001 
Q 2353 2234 1838 2234 
L 1294 2234 
L 1294 2753 
L 1863 2753 
Q 2328 2753 2575 2939 
Q 2822 3125 2822 3475 
Q 2822 3834 2567 4026 
Q 2313 4219 1838 4219 
Q 1578 4219 1281 4162 
Q 984 4106 628 3988 
L 628 4550 
Q 988 4650 1302 4700 
Q 1616 4750 1894 4750 
Q 2613 4750 3031 4423 
Q 3450 4097 3450 3541 
Q 3450 3153 3228 2886 
Q 3006 2619 2597 2516 
z
" transform="scale(0.015625)"/>
      </defs>
      <use xlink:href="#DejaVuSans-302" transform="translate(57.871094 12.015625)"/>
      <use xlink:href="#DejaVuSans-Oblique-75" transform="translate(0 0.828125)"/>
      <use xlink:href="#DejaVuSans-Oblique-73" transform="translate(64.335938 -15.578125) scale(0.7)"/>
      <use xlink:href="#DejaVuSans-2c" transform="translate(100.805664 -15.578125) scale(0.7)"/>
      <use xlink:href="#DejaVuSans-33" transform="translate(136.694336 -15.578125) scale(0.7)"/>
     </g>
    </g>
    <g id="line2d_25">
     <path d="M 340.500682 198.918281 
L 349.500682 198.918281 
L 358.500682 198.918281 
" style="fill: none; stroke: #8eac56; stroke-width: 1.5; stroke-linecap: square"/>
    </g>
    <g id="text_19">
     <!-- $u_{s,3}$ -->
     <g transform="translate(365.700682 202.068281) scale(0.09 -0.09)">
      <use xlink:href="#DejaVuSans-Oblique-75" transform="translate(0 0.3125)"/>
      <use xlink:href="#DejaVuSans-Oblique-73" transform="translate(63.378906 -16.09375) scale(0.7)"/>
      <use xlink:href="#DejaVuSans-2c" transform="translate(99.848633 -16.09375) scale(0.7)"/>
      <use xlink:href="#DejaVuSans-33" transform="translate(135.737305 -16.09375) scale(0.7)"/>
     </g>
    </g>
    <g id="line2d_26">
     <path d="M 340.500682 213.948281 
L 349.500682 213.948281 
L 358.500682 213.948281 
" style="fill: none; stroke-dasharray: 5.55,2.4; stroke-dashoffset: 0; stroke: #c4a46f; stroke-width: 1.5"/>
    </g>
    <g id="text_20">
     <!-- $\hat u_{s,4}$ -->
     <g transform="translate(365.700682 217.098281) scale(0.09 -0.09)">
      <defs>
       <path id="DejaVuSans-34" d="M 2419 4116 
L 825 1625 
L 2419 1625 
L 2419 4116 
z
M 2253 4666 
L 3047 4666 
L 3047 1625 
L 3713 1625 
L 3713 1100 
L 3047 1100 
L 3047 0 
L 2419 0 
L 2419 1100 
L 313 1100 
L 313 1709 
L 2253 4666 
z
" transform="scale(0.015625)"/>
      </defs>
      <use xlink:href="#DejaVuSans-302" transform="translate(57.871094 12.015625)"/>
      <use xlink:href="#DejaVuSans-Oblique-75" transform="translate(0 0.828125)"/>
      <use xlink:href="#DejaVuSans-Oblique-73" transform="translate(64.335938 -15.578125) scale(0.7)"/>
      <use xlink:href="#DejaVuSans-2c" transform="translate(100.805664 -15.578125) scale(0.7)"/>
      <use xlink:href="#DejaVuSans-34" transform="translate(136.694336 -15.578125) scale(0.7)"/>
     </g>
    </g>
    <g id="line2d_27">
     <path d="M 340.500682 227.536875 
L 349.500682 227.536875 
L 358.500682 227.536875 
" style="fill: none; stroke: #c4a46f; stroke-width: 1.5; stroke-linecap: square"/>
    </g>
    <g id="text_21">
     <!-- $u_{s,4}$ -->
     <g transform="translate(365.700682 230.686875) scale(0.09 -0.09)">
      <use xlink:href="#DejaVuSans-Oblique-75" transform="translate(0 0.3125)"/>
      <use xlink:href="#DejaVuSans-Oblique-73" transform="translate(63.378906 -16.09375) scale(0.7)"/>
      <use xlink:href="#DejaVuSans-2c" transform="translate(99.848633 -16.09375) scale(0.7)"/>
      <use xlink:href="#DejaVuSans-34" transform="translate(135.737305 -16.09375) scale(0.7)"/>
     </g>
    </g>
   </g>
  </g>
 </g>
 <defs>
  <clipPath id="p2829927eef">
   <rect x="70.330625" y="10.8" width="320.030057" height="230.236875"/>
  </clipPath>
 </defs>
</svg>
