<?xml version="1.0" encoding="utf-8" standalone="no"?>
<!DOCTYPE svg PUBLIC "-//W3C//DTD SVG 1.1//EN"
  "http://www.w3.org/Graphics/SVG/1.1/DTD/svg11.dtd">
<svg xmlns:xlink="http://www.w3.org/1999/xlink" width="414pt" height="288pt" viewBox="0 0 414 288" xmlns="http://www.w3.org/2000/svg" version="1.1">
 <metadata>
  <rdf:RDF xmlns:dc="http://purl.org/dc/elements/1.1/" xmlns:cc="http://creativecommons.org/ns#" xmlns:rdf="http://www.w3.org/1999/02/22-rdf-syntax-ns#">
   <cc:Work>
    <dc:type rdf:resource="http://purl.org/dc/dcmitype/StillImage"/>
    <dc:date>2023-09-07T00:35:12.367338</dc:date>
    <dc:format>image/svg+xml</dc:format>
    <dc:creator>
     <cc:Agent>
      <dc:title>Matplotlib v3.7.2, https://matplotlib.org/</dc:title>
     </cc:Agent>
    </dc:creator>
   </cc:Work>
  </rdf:RDF>
 </metadata>
 <defs>
  <style type="text/css">*{stroke-linejoin: round; stroke-linecap: butt}</style>
 </defs>
 <g id="figure_1">
  <g id="patch_1">
   <path d="M 0 288 
L 414 288 
L 414 0 
L 0 0 
L 0 288 
z
" style="fill: none"/>
  </g>
  <g id="axes_1">
   <g id="patch_2">
    <path d="M 85.605625 241.036875 
L 403.2 241.036875 
L 403.2 10.8 
L 85.605625 10.8 
L 85.605625 241.036875 
z
" style="fill: none"/>
   </g>
   <g id="matplotlib.axis_1">
    <g id="xtick_1">
     <g id="line2d_1">
      <defs>
       <path id="m955fa05cf7" d="M 0 0 
L 0 3.5 
" style="stroke: #000000; stroke-width: 0.8"/>
      </defs>
      <g>
       <use xlink:href="#m955fa05cf7" x="100.041733" y="241.036875" style="stroke: #000000; stroke-width: 0.8"/>
      </g>
     </g>
     <g id="text_1">
      <!-- 0 -->
      <g transform="translate(94.951733 260.194375) scale(0.16 -0.16)">
       <defs>
        <path id="DejaVuSans-30" d="M 2034 4250 
Q 1547 4250 1301 3770 
Q 1056 3291 1056 2328 
Q 1056 1369 1301 889 
Q 1547 409 2034 409 
Q 2525 409 2770 889 
Q 3016 1369 3016 2328 
Q 3016 3291 2770 3770 
Q 2525 4250 2034 4250 
z
M 2034 4750 
Q 2819 4750 3233 4129 
Q 3647 3509 3647 2328 
Q 3647 1150 3233 529 
Q 2819 -91 2034 -91 
Q 1250 -91 836 529 
Q 422 1150 422 2328 
Q 422 3509 836 4129 
Q 1250 4750 2034 4750 
z
" transform="scale(0.015625)"/>
       </defs>
       <use xlink:href="#DejaVuSans-30"/>
      </g>
     </g>
    </g>
    <g id="xtick_2">
     <g id="line2d_2">
      <g>
       <use xlink:href="#m955fa05cf7" x="196.313009" y="241.036875" style="stroke: #000000; stroke-width: 0.8"/>
      </g>
     </g>
     <g id="text_2">
      <!-- 1 -->
      <g transform="translate(191.223009 260.194375) scale(0.16 -0.16)">
       <defs>
        <path id="DejaVuSans-31" d="M 794 531 
L 1825 531 
L 1825 4091 
L 703 3866 
L 703 4441 
L 1819 4666 
L 2450 4666 
L 2450 531 
L 3481 531 
L 3481 0 
L 794 0 
L 794 531 
z
" transform="scale(0.015625)"/>
       </defs>
       <use xlink:href="#DejaVuSans-31"/>
      </g>
     </g>
    </g>
    <g id="xtick_3">
     <g id="line2d_3">
      <g>
       <use xlink:href="#m955fa05cf7" x="292.584285" y="241.036875" style="stroke: #000000; stroke-width: 0.8"/>
      </g>
     </g>
     <g id="text_3">
      <!-- 2 -->
      <g transform="translate(287.494285 260.194375) scale(0.16 -0.16)">
       <defs>
        <path id="DejaVuSans-32" d="M 1228 531 
L 3431 531 
L 3431 0 
L 469 0 
L 469 531 
Q 828 903 1448 1529 
Q 2069 2156 2228 2338 
Q 2531 2678 2651 2914 
Q 2772 3150 2772 3378 
Q 2772 3750 2511 3984 
Q 2250 4219 1831 4219 
Q 1534 4219 1204 4116 
Q 875 4013 500 3803 
L 500 4441 
Q 881 4594 1212 4672 
Q 1544 4750 1819 4750 
Q 2544 4750 2975 4387 
Q 3406 4025 3406 3419 
Q 3406 3131 3298 2873 
Q 3191 2616 2906 2266 
Q 2828 2175 2409 1742 
Q 1991 1309 1228 531 
z
" transform="scale(0.015625)"/>
       </defs>
       <use xlink:href="#DejaVuSans-32"/>
      </g>
     </g>
    </g>
    <g id="xtick_4">
     <g id="line2d_4">
      <g>
       <use xlink:href="#m955fa05cf7" x="388.855562" y="241.036875" style="stroke: #000000; stroke-width: 0.8"/>
      </g>
     </g>
     <g id="text_4">
      <!-- 3 -->
      <g transform="translate(383.765562 260.194375) scale(0.16 -0.16)">
       <defs>
        <path id="DejaVuSans-33" d="M 2597 2516 
Q 3050 2419 3304 2112 
Q 3559 1806 3559 1356 
Q 3559 666 3084 287 
Q 2609 -91 1734 -91 
Q 1441 -91 1130 -33 
Q 819 25 488 141 
L 488 750 
Q 750 597 1062 519 
Q 1375 441 1716 441 
Q 2309 441 2620 675 
Q 2931 909 2931 1356 
Q 2931 1769 2642 2001 
Q 2353 2234 1838 2234 
L 1294 2234 
L 1294 2753 
L 1863 2753 
Q 2328 2753 2575 2939 
Q 2822 3125 2822 3475 
Q 2822 3834 2567 4026 
Q 2313 4219 1838 4219 
Q 1578 4219 1281 4162 
Q 984 4106 628 3988 
L 628 4550 
Q 988 4650 1302 4700 
Q 1616 4750 1894 4750 
Q 2613 4750 3031 4423 
Q 3450 4097 3450 3541 
Q 3450 3153 3228 2886 
Q 3006 2619 2597 2516 
z
" transform="scale(0.015625)"/>
       </defs>
       <use xlink:href="#DejaVuSans-33"/>
      </g>
     </g>
    </g>
    <g id="text_5">
     <!-- Time [orbits] -->
     <g transform="translate(212.435625 275.120313) scale(0.1 -0.1)">
      <defs>
       <path id="DejaVuSans-54" d="M -19 4666 
L 3928 4666 
L 3928 4134 
L 2272 4134 
L 2272 0 
L 1638 0 
L 1638 4134 
L -19 4134 
L -19 4666 
z
" transform="scale(0.015625)"/>
       <path id="DejaVuSans-69" d="M 603 3500 
L 1178 3500 
L 1178 0 
L 603 0 
L 603 3500 
z
M 603 4863 
L 1178 4863 
L 1178 4134 
L 603 4134 
L 603 4863 
z
" transform="scale(0.015625)"/>
       <path id="DejaVuSans-6d" d="M 3328 2828 
Q 3544 3216 3844 3400 
Q 4144 3584 4550 3584 
Q 5097 3584 5394 3201 
Q 5691 2819 5691 2113 
L 5691 0 
L 5113 0 
L 5113 2094 
Q 5113 2597 4934 2840 
Q 4756 3084 4391 3084 
Q 3944 3084 3684 2787 
Q 3425 2491 3425 1978 
L 3425 0 
L 2847 0 
L 2847 2094 
Q 2847 2600 2669 2842 
Q 2491 3084 2119 3084 
Q 1678 3084 1418 2786 
Q 1159 2488 1159 1978 
L 1159 0 
L 581 0 
L 581 3500 
L 1159 3500 
L 1159 2956 
Q 1356 3278 1631 3431 
Q 1906 3584 2284 3584 
Q 2666 3584 2933 3390 
Q 3200 3197 3328 2828 
z
" transform="scale(0.015625)"/>
       <path id="DejaVuSans-65" d="M 3597 1894 
L 3597 1613 
L 953 1613 
Q 991 1019 1311 708 
Q 1631 397 2203 397 
Q 2534 397 2845 478 
Q 3156 559 3463 722 
L 3463 178 
Q 3153 47 2828 -22 
Q 2503 -91 2169 -91 
Q 1331 -91 842 396 
Q 353 884 353 1716 
Q 353 2575 817 3079 
Q 1281 3584 2069 3584 
Q 2775 3584 3186 3129 
Q 3597 2675 3597 1894 
z
M 3022 2063 
Q 3016 2534 2758 2815 
Q 2500 3097 2075 3097 
Q 1594 3097 1305 2825 
Q 1016 2553 972 2059 
L 3022 2063 
z
" transform="scale(0.015625)"/>
       <path id="DejaVuSans-20" transform="scale(0.015625)"/>
       <path id="DejaVuSans-5b" d="M 550 4863 
L 1875 4863 
L 1875 4416 
L 1125 4416 
L 1125 -397 
L 1875 -397 
L 1875 -844 
L 550 -844 
L 550 4863 
z
" transform="scale(0.015625)"/>
       <path id="DejaVuSans-6f" d="M 1959 3097 
Q 1497 3097 1228 2736 
Q 959 2375 959 1747 
Q 959 1119 1226 758 
Q 1494 397 1959 397 
Q 2419 397 2687 759 
Q 2956 1122 2956 1747 
Q 2956 2369 2687 2733 
Q 2419 3097 1959 3097 
z
M 1959 3584 
Q 2709 3584 3137 3096 
Q 3566 2609 3566 1747 
Q 3566 888 3137 398 
Q 2709 -91 1959 -91 
Q 1206 -91 779 398 
Q 353 888 353 1747 
Q 353 2609 779 3096 
Q 1206 3584 1959 3584 
z
" transform="scale(0.015625)"/>
       <path id="DejaVuSans-72" d="M 2631 2963 
Q 2534 3019 2420 3045 
Q 2306 3072 2169 3072 
Q 1681 3072 1420 2755 
Q 1159 2438 1159 1844 
L 1159 0 
L 581 0 
L 581 3500 
L 1159 3500 
L 1159 2956 
Q 1341 3275 1631 3429 
Q 1922 3584 2338 3584 
Q 2397 3584 2469 3576 
Q 2541 3569 2628 3553 
L 2631 2963 
z
" transform="scale(0.015625)"/>
       <path id="DejaVuSans-62" d="M 3116 1747 
Q 3116 2381 2855 2742 
Q 2594 3103 2138 3103 
Q 1681 3103 1420 2742 
Q 1159 2381 1159 1747 
Q 1159 1113 1420 752 
Q 1681 391 2138 391 
Q 2594 391 2855 752 
Q 3116 1113 3116 1747 
z
M 1159 2969 
Q 1341 3281 1617 3432 
Q 1894 3584 2278 3584 
Q 2916 3584 3314 3078 
Q 3713 2572 3713 1747 
Q 3713 922 3314 415 
Q 2916 -91 2278 -91 
Q 1894 -91 1617 61 
Q 1341 213 1159 525 
L 1159 0 
L 581 0 
L 581 4863 
L 1159 4863 
L 1159 2969 
z
" transform="scale(0.015625)"/>
       <path id="DejaVuSans-74" d="M 1172 4494 
L 1172 3500 
L 2356 3500 
L 2356 3053 
L 1172 3053 
L 1172 1153 
Q 1172 725 1289 603 
Q 1406 481 1766 481 
L 2356 481 
L 2356 0 
L 1766 0 
Q 1100 0 847 248 
Q 594 497 594 1153 
L 594 3053 
L 172 3053 
L 172 3500 
L 594 3500 
L 594 4494 
L 1172 4494 
z
" transform="scale(0.015625)"/>
       <path id="DejaVuSans-73" d="M 2834 3397 
L 2834 2853 
Q 2591 2978 2328 3040 
Q 2066 3103 1784 3103 
Q 1356 3103 1142 2972 
Q 928 2841 928 2578 
Q 928 2378 1081 2264 
Q 1234 2150 1697 2047 
L 1894 2003 
Q 2506 1872 2764 1633 
Q 3022 1394 3022 966 
Q 3022 478 2636 193 
Q 2250 -91 1575 -91 
Q 1294 -91 989 -36 
Q 684 19 347 128 
L 347 722 
Q 666 556 975 473 
Q 1284 391 1588 391 
Q 1994 391 2212 530 
Q 2431 669 2431 922 
Q 2431 1156 2273 1281 
Q 2116 1406 1581 1522 
L 1381 1569 
Q 847 1681 609 1914 
Q 372 2147 372 2553 
Q 372 3047 722 3315 
Q 1072 3584 1716 3584 
Q 2034 3584 2315 3537 
Q 2597 3491 2834 3397 
z
" transform="scale(0.015625)"/>
       <path id="DejaVuSans-5d" d="M 1947 4863 
L 1947 -844 
L 622 -844 
L 622 -397 
L 1369 -397 
L 1369 4416 
L 622 4416 
L 622 4863 
L 1947 4863 
z
" transform="scale(0.015625)"/>
      </defs>
      <use xlink:href="#DejaVuSans-54"/>
      <use xlink:href="#DejaVuSans-69" x="57.958984"/>
      <use xlink:href="#DejaVuSans-6d" x="85.742188"/>
      <use xlink:href="#DejaVuSans-65" x="183.154297"/>
      <use xlink:href="#DejaVuSans-20" x="244.677734"/>
      <use xlink:href="#DejaVuSans-5b" x="276.464844"/>
      <use xlink:href="#DejaVuSans-6f" x="315.478516"/>
      <use xlink:href="#DejaVuSans-72" x="376.660156"/>
      <use xlink:href="#DejaVuSans-62" x="417.773438"/>
      <use xlink:href="#DejaVuSans-69" x="481.25"/>
      <use xlink:href="#DejaVuSans-74" x="509.033203"/>
      <use xlink:href="#DejaVuSans-73" x="548.242188"/>
      <use xlink:href="#DejaVuSans-5d" x="600.341797"/>
     </g>
    </g>
   </g>
   <g id="matplotlib.axis_2">
    <g id="ytick_1">
     <g id="line2d_5">
      <defs>
       <path id="m32e7deac71" d="M 0 0 
L -3.5 0 
" style="stroke: #000000; stroke-width: 0.8"/>
      </defs>
      <g>
       <use xlink:href="#m32e7deac71" x="85.605625" y="206.335979" style="stroke: #000000; stroke-width: 0.8"/>
      </g>
     </g>
     <g id="text_6">
      <!-- −5000 -->
      <g transform="translate(24.478125 212.414729) scale(0.16 -0.16)">
       <defs>
        <path id="DejaVuSans-2212" d="M 678 2272 
L 4684 2272 
L 4684 1741 
L 678 1741 
L 678 2272 
z
" transform="scale(0.015625)"/>
        <path id="DejaVuSans-35" d="M 691 4666 
L 3169 4666 
L 3169 4134 
L 1269 4134 
L 1269 2991 
Q 1406 3038 1543 3061 
Q 1681 3084 1819 3084 
Q 2600 3084 3056 2656 
Q 3513 2228 3513 1497 
Q 3513 744 3044 326 
Q 2575 -91 1722 -91 
Q 1428 -91 1123 -41 
Q 819 9 494 109 
L 494 744 
Q 775 591 1075 516 
Q 1375 441 1709 441 
Q 2250 441 2565 725 
Q 2881 1009 2881 1497 
Q 2881 1984 2565 2268 
Q 2250 2553 1709 2553 
Q 1456 2553 1204 2497 
Q 953 2441 691 2322 
L 691 4666 
z
" transform="scale(0.015625)"/>
       </defs>
       <use xlink:href="#DejaVuSans-2212"/>
       <use xlink:href="#DejaVuSans-35" x="83.789062"/>
       <use xlink:href="#DejaVuSans-30" x="147.412109"/>
       <use xlink:href="#DejaVuSans-30" x="211.035156"/>
       <use xlink:href="#DejaVuSans-30" x="274.658203"/>
      </g>
     </g>
    </g>
    <g id="ytick_2">
     <g id="line2d_6">
      <g>
       <use xlink:href="#m32e7deac71" x="85.605625" y="166.124632" style="stroke: #000000; stroke-width: 0.8"/>
      </g>
     </g>
     <g id="text_7">
      <!-- −2500 -->
      <g transform="translate(24.478125 172.203382) scale(0.16 -0.16)">
       <use xlink:href="#DejaVuSans-2212"/>
       <use xlink:href="#DejaVuSans-32" x="83.789062"/>
       <use xlink:href="#DejaVuSans-35" x="147.412109"/>
       <use xlink:href="#DejaVuSans-30" x="211.035156"/>
       <use xlink:href="#DejaVuSans-30" x="274.658203"/>
      </g>
     </g>
    </g>
    <g id="ytick_3">
     <g id="line2d_7">
      <g>
       <use xlink:href="#m32e7deac71" x="85.605625" y="125.913286" style="stroke: #000000; stroke-width: 0.8"/>
      </g>
     </g>
     <g id="text_8">
      <!-- 0 -->
      <g transform="translate(68.425625 131.992036) scale(0.16 -0.16)">
       <use xlink:href="#DejaVuSans-30"/>
      </g>
     </g>
    </g>
    <g id="ytick_4">
     <g id="line2d_8">
      <g>
       <use xlink:href="#m32e7deac71" x="85.605625" y="85.70194" style="stroke: #000000; stroke-width: 0.8"/>
      </g>
     </g>
     <g id="text_9">
      <!-- 2500 -->
      <g transform="translate(37.885625 91.78069) scale(0.16 -0.16)">
       <use xlink:href="#DejaVuSans-32"/>
       <use xlink:href="#DejaVuSans-35" x="63.623047"/>
       <use xlink:href="#DejaVuSans-30" x="127.246094"/>
       <use xlink:href="#DejaVuSans-30" x="190.869141"/>
      </g>
     </g>
    </g>
    <g id="ytick_5">
     <g id="line2d_9">
      <g>
       <use xlink:href="#m32e7deac71" x="85.605625" y="45.490594" style="stroke: #000000; stroke-width: 0.8"/>
      </g>
     </g>
     <g id="text_10">
      <!-- 5000 -->
      <g transform="translate(37.885625 51.569344) scale(0.16 -0.16)">
       <use xlink:href="#DejaVuSans-35"/>
       <use xlink:href="#DejaVuSans-30" x="63.623047"/>
       <use xlink:href="#DejaVuSans-30" x="127.246094"/>
       <use xlink:href="#DejaVuSans-30" x="190.869141"/>
      </g>
     </g>
    </g>
    <g id="text_11">
     <!-- Inertial Position [km] -->
     <g transform="translate(18.398438 177.805937) rotate(-90) scale(0.1 -0.1)">
      <defs>
       <path id="DejaVuSans-49" d="M 628 4666 
L 1259 4666 
L 1259 0 
L 628 0 
L 628 4666 
z
" transform="scale(0.015625)"/>
       <path id="DejaVuSans-6e" d="M 3513 2113 
L 3513 0 
L 2938 0 
L 2938 2094 
Q 2938 2591 2744 2837 
Q 2550 3084 2163 3084 
Q 1697 3084 1428 2787 
Q 1159 2491 1159 1978 
L 1159 0 
L 581 0 
L 581 3500 
L 1159 3500 
L 1159 2956 
Q 1366 3272 1645 3428 
Q 1925 3584 2291 3584 
Q 2894 3584 3203 3211 
Q 3513 2838 3513 2113 
z
" transform="scale(0.015625)"/>
       <path id="DejaVuSans-61" d="M 2194 1759 
Q 1497 1759 1228 1600 
Q 959 1441 959 1056 
Q 959 750 1161 570 
Q 1363 391 1709 391 
Q 2188 391 2477 730 
Q 2766 1069 2766 1631 
L 2766 1759 
L 2194 1759 
z
M 3341 1997 
L 3341 0 
L 2766 0 
L 2766 531 
Q 2569 213 2275 61 
Q 1981 -91 1556 -91 
Q 1019 -91 701 211 
Q 384 513 384 1019 
Q 384 1609 779 1909 
Q 1175 2209 1959 2209 
L 2766 2209 
L 2766 2266 
Q 2766 2663 2505 2880 
Q 2244 3097 1772 3097 
Q 1472 3097 1187 3025 
Q 903 2953 641 2809 
L 641 3341 
Q 956 3463 1253 3523 
Q 1550 3584 1831 3584 
Q 2591 3584 2966 3190 
Q 3341 2797 3341 1997 
z
" transform="scale(0.015625)"/>
       <path id="DejaVuSans-6c" d="M 603 4863 
L 1178 4863 
L 1178 0 
L 603 0 
L 603 4863 
z
" transform="scale(0.015625)"/>
       <path id="DejaVuSans-50" d="M 1259 4147 
L 1259 2394 
L 2053 2394 
Q 2494 2394 2734 2622 
Q 2975 2850 2975 3272 
Q 2975 3691 2734 3919 
Q 2494 4147 2053 4147 
L 1259 4147 
z
M 628 4666 
L 2053 4666 
Q 2838 4666 3239 4311 
Q 3641 3956 3641 3272 
Q 3641 2581 3239 2228 
Q 2838 1875 2053 1875 
L 1259 1875 
L 1259 0 
L 628 0 
L 628 4666 
z
" transform="scale(0.015625)"/>
       <path id="DejaVuSans-6b" d="M 581 4863 
L 1159 4863 
L 1159 1991 
L 2875 3500 
L 3609 3500 
L 1753 1863 
L 3688 0 
L 2938 0 
L 1159 1709 
L 1159 0 
L 581 0 
L 581 4863 
z
" transform="scale(0.015625)"/>
      </defs>
      <use xlink:href="#DejaVuSans-49"/>
      <use xlink:href="#DejaVuSans-6e" x="29.492188"/>
      <use xlink:href="#DejaVuSans-65" x="92.871094"/>
      <use xlink:href="#DejaVuSans-72" x="154.394531"/>
      <use xlink:href="#DejaVuSans-74" x="195.507812"/>
      <use xlink:href="#DejaVuSans-69" x="234.716797"/>
      <use xlink:href="#DejaVuSans-61" x="262.5"/>
      <use xlink:href="#DejaVuSans-6c" x="323.779297"/>
      <use xlink:href="#DejaVuSans-20" x="351.5625"/>
      <use xlink:href="#DejaVuSans-50" x="383.349609"/>
      <use xlink:href="#DejaVuSans-6f" x="440.027344"/>
      <use xlink:href="#DejaVuSans-73" x="501.208984"/>
      <use xlink:href="#DejaVuSans-69" x="553.308594"/>
      <use xlink:href="#DejaVuSans-74" x="581.091797"/>
      <use xlink:href="#DejaVuSans-69" x="620.300781"/>
      <use xlink:href="#DejaVuSans-6f" x="648.083984"/>
      <use xlink:href="#DejaVuSans-6e" x="709.265625"/>
      <use xlink:href="#DejaVuSans-20" x="772.644531"/>
      <use xlink:href="#DejaVuSans-5b" x="804.431641"/>
      <use xlink:href="#DejaVuSans-6b" x="843.445312"/>
      <use xlink:href="#DejaVuSans-6d" x="901.355469"/>
      <use xlink:href="#DejaVuSans-5d" x="998.767578"/>
     </g>
    </g>
   </g>
   <g id="line2d_10">
    <path d="M 100.041733 171.22024 
L 102.684499 186.373119 
L 104.666573 196.58379 
L 106.648647 205.614332 
L 108.630722 213.313905 
L 109.952105 217.642977 
L 111.273487 221.290558 
L 112.59487 224.229452 
L 113.916253 226.437701 
L 114.576945 227.262447 
L 115.237636 227.898757 
L 115.898328 228.345426 
L 116.559019 228.601605 
L 117.21971 228.666796 
L 117.880402 228.540856 
L 118.541093 228.223998 
L 119.201785 227.716791 
L 119.862476 227.020155 
L 120.523168 226.135366 
L 121.84455 223.808179 
L 123.165933 220.752385 
L 124.487316 216.990579 
L 125.808699 212.550633 
L 127.130082 207.465489 
L 129.112156 198.711907 
L 131.094231 188.739028 
L 133.076305 177.713732 
L 135.719071 161.697487 
L 139.022528 140.23909 
L 146.950825 87.978757 
L 149.593591 72.136013 
L 151.575665 61.279439 
L 153.55774 51.50529 
L 155.539814 42.977273 
L 156.861197 38.055716 
L 158.18258 33.788669 
L 159.503963 30.207958 
L 160.825345 27.340304 
L 162.146728 25.207123 
L 162.80742 24.421161 
L 163.468111 23.824361 
L 164.128803 23.417844 
L 164.789494 23.202373 
L 165.450185 23.178356 
L 166.110877 23.345842 
L 166.771568 23.704525 
L 167.43226 24.25374 
L 168.092951 24.992466 
L 169.414334 27.032606 
L 170.735717 29.809752 
L 172.0571 33.303202 
L 173.378483 37.486899 
L 174.699866 42.329631 
L 176.68194 50.749082 
L 178.664014 60.427691 
L 180.646089 71.203088 
L 183.288854 86.961792 
L 186.592312 108.229852 
L 195.841992 168.879371 
L 198.484757 184.282788 
L 200.466832 194.722503 
L 202.448906 204.013169 
L 204.43098 211.999615 
L 205.752363 216.532459 
L 207.073746 220.392083 
L 208.395129 223.549721 
L 209.716512 225.981799 
L 211.037895 227.670108 
L 211.698586 228.231163 
L 212.359278 228.60195 
L 213.019969 228.78176 
L 213.680661 228.770237 
L 214.341352 228.56738 
L 215.002043 228.173546 
L 215.662735 227.589446 
L 216.323426 226.816145 
L 217.644809 224.707961 
L 218.966192 221.864518 
L 220.287575 218.306825 
L 221.608958 214.06123 
L 222.930341 209.159222 
L 224.912415 200.656342 
L 226.894489 190.901649 
L 228.876564 180.058347 
L 231.519329 164.223262 
L 234.822787 142.885243 
L 243.411775 86.279948 
L 246.054541 70.55707 
L 248.036615 59.821452 
L 250.01869 50.192674 
L 252.000764 41.832019 
L 253.322147 37.032889 
L 254.64353 32.895901 
L 255.964913 29.451915 
L 257.286296 26.726637 
L 258.607678 24.740424 
L 259.26837 24.029326 
L 259.929061 23.508127 
L 260.589753 23.177806 
L 261.250444 23.038983 
L 261.911136 23.091923 
L 262.571827 23.336533 
L 263.232519 23.772361 
L 263.89321 24.3986 
L 264.553901 25.214084 
L 265.875284 27.406368 
L 267.196667 30.332882 
L 268.51805 33.971807 
L 269.839433 38.295999 
L 271.160816 43.273192 
L 273.14289 51.880839 
L 275.124964 61.728659 
L 277.107039 72.651443 
L 279.749805 88.568518 
L 283.053262 109.966897 
L 291.64225 166.505429 
L 294.285016 182.149554 
L 296.267091 192.81176 
L 298.249165 202.356818 
L 300.231239 210.625327 
L 301.552622 215.359284 
L 302.874005 219.428757 
L 304.195388 222.803426 
L 305.516771 225.45811 
L 306.838154 227.372954 
L 307.498845 228.048226 
L 308.159536 228.53358 
L 308.820228 228.828095 
L 309.480919 228.931201 
L 310.141611 228.842686 
L 310.802302 228.562693 
L 311.462994 228.091721 
L 312.123685 227.430626 
L 312.784376 226.580615 
L 314.105759 224.320439 
L 315.427142 221.327854 
L 316.748525 217.624983 
L 318.069908 213.239259 
L 319.391291 208.203221 
L 321.373365 199.512915 
L 323.35544 189.589924 
L 325.337514 178.600289 
L 327.98028 162.608457 
L 331.283737 141.142494 
L 339.212034 88.697671 
L 341.8548 72.747461 
L 343.836874 61.798147 
L 345.818948 51.922567 
L 347.801023 43.286132 
L 349.122406 38.289309 
L 350.443789 33.945263 
L 351.765171 30.286395 
L 353.086554 27.34001 
L 354.407937 25.128114 
L 355.068629 24.302983 
L 355.72932 23.66724 
L 356.390012 23.222076 
L 357.050703 22.968328 
L 357.711394 22.906474 
L 358.372086 23.036635 
L 359.032777 23.358573 
L 359.693469 23.871694 
L 360.35416 24.575044 
L 361.014852 25.467314 
L 362.336234 27.811621 
L 363.657617 30.887147 
L 364.979 34.670958 
L 366.300383 39.134826 
L 367.621766 44.24544 
L 369.60384 53.039321 
L 371.585915 63.05394 
L 373.567989 74.121294 
L 376.210755 90.192432 
L 379.514212 111.715049 
L 387.442509 164.099971 
L 388.763892 172.209354 
L 388.763892 172.209354 
" clip-path="url(#pb0c01192e8)" style="fill: none; stroke: #2b737e; stroke-width: 1.5; stroke-linecap: square"/>
   </g>
   <g id="line2d_11">
    <path d="M 100.041733 41.498816 
L 102.023807 50.210529 
L 104.005882 60.18651 
L 105.987956 71.260074 
L 108.630722 87.410315 
L 111.934179 109.144428 
L 120.523168 166.687195 
L 123.165933 182.641477 
L 125.148008 193.524903 
L 127.130082 203.2764 
L 129.112156 211.732395 
L 130.433539 216.578968 
L 131.754922 220.75003 
L 133.076305 224.214449 
L 134.397688 226.94637 
L 135.719071 228.925412 
L 136.379762 229.627769 
L 137.040454 230.136817 
L 137.701145 230.45161 
L 138.361836 230.571562 
L 139.022528 230.496453 
L 139.683219 230.226426 
L 140.343911 229.761986 
L 141.004602 229.104005 
L 141.665294 228.253713 
L 142.986677 225.982907 
L 144.308059 222.966527 
L 145.629442 219.227083 
L 146.950825 214.792472 
L 148.272208 209.695757 
L 150.254282 200.893623 
L 152.236357 190.835782 
L 154.218431 179.69068 
L 156.861197 163.464049 
L 160.164654 141.670084 
L 168.753643 84.188996 
L 171.396408 68.318931 
L 173.378483 57.517089 
L 175.360557 47.861289 
L 177.342631 39.513162 
L 178.664014 34.74415 
L 179.985397 30.654306 
L 181.30678 27.273974 
L 182.628163 24.62819 
L 183.949546 22.736499 
L 184.610237 22.078008 
L 185.270929 21.612812 
L 185.93162 21.341753 
L 186.592312 21.265313 
L 187.253003 21.38361 
L 187.913694 21.696401 
L 188.574386 22.20308 
L 189.235077 22.902683 
L 189.895769 23.793886 
L 191.217152 26.144018 
L 192.538534 29.235841 
L 193.859917 33.046222 
L 195.1813 37.546715 
L 196.502683 42.703772 
L 198.484757 51.585163 
L 200.466832 61.707845 
L 202.448906 72.9027 
L 205.091672 89.17172 
L 208.395129 110.980611 
L 216.323426 164.160335 
L 218.966192 180.305288 
L 220.948266 191.377733 
L 222.930341 201.354254 
L 224.912415 210.067521 
L 226.233798 215.101418 
L 227.555181 219.470836 
L 228.876564 223.143164 
L 230.197947 226.090996 
L 231.519329 228.292336 
L 232.180021 229.107721 
L 232.840712 229.73077 
L 233.501404 230.160321 
L 234.162095 230.395578 
L 234.822787 230.436101 
L 235.483478 230.28182 
L 236.14417 229.933025 
L 236.804861 229.39037 
L 237.465552 228.65487 
L 238.786935 226.611193 
L 240.108318 223.817261 
L 241.429701 220.293926 
L 242.751084 216.067472 
L 244.072467 211.169417 
L 246.054541 202.644247 
L 248.036615 192.834054 
L 250.01869 181.903138 
L 252.661455 165.903925 
L 255.964913 144.291604 
L 265.214593 82.563433 
L 267.857359 66.866192 
L 269.839433 56.222678 
L 271.821507 46.746888 
L 273.803582 38.597424 
L 275.124964 33.969574 
L 276.446347 30.026639 
L 277.76773 26.797866 
L 279.089113 24.307154 
L 280.410496 22.572889 
L 281.071187 21.993627 
L 281.731879 21.607806 
L 282.39257 21.416122 
L 283.053262 21.418907 
L 283.713953 21.616133 
L 284.374645 22.007409 
L 285.035336 22.591985 
L 285.696027 23.36875 
L 287.01741 25.492626 
L 288.338793 28.363076 
L 289.660176 31.95861 
L 290.981559 36.252369 
L 292.302942 41.212335 
L 294.285016 49.819335 
L 296.267091 59.69714 
L 298.249165 70.680702 
L 300.891931 86.726229 
L 304.195388 108.358293 
L 312.784376 165.813005 
L 315.427142 181.795082 
L 317.409217 192.71595 
L 319.391291 202.518453 
L 321.373365 211.038172 
L 322.694748 215.933779 
L 324.016131 220.158698 
L 325.337514 223.681399 
L 326.658897 226.475594 
L 327.98028 228.520439 
L 328.640971 229.256867 
L 329.301662 229.800685 
L 329.962354 230.150879 
L 330.623045 230.306799 
L 331.283737 230.268156 
L 331.944428 230.035025 
L 332.60512 229.607845 
L 333.265811 228.987415 
L 333.926503 228.174896 
L 335.247885 225.980022 
L 336.569268 223.039612 
L 337.890651 219.37561 
L 339.212034 215.015346 
L 340.533417 209.991329 
L 342.515491 201.293964 
L 344.497566 191.334197 
L 346.47964 180.278827 
L 349.122406 164.156274 
L 352.425863 142.463134 
L 361.014852 85.065174 
L 363.657617 69.16555 
L 365.639692 58.324957 
L 367.621766 48.616897 
L 369.60384 40.203882 
L 370.925223 35.385124 
L 372.246606 31.240773 
L 373.567989 27.801578 
L 374.889372 25.093015 
L 376.210755 23.135095 
L 376.871446 22.442349 
L 377.532138 21.942222 
L 378.192829 21.635621 
L 378.85352 21.523094 
L 379.514212 21.604827 
L 380.174903 21.880644 
L 380.835595 22.350008 
L 381.496286 23.012024 
L 382.156978 23.865437 
L 383.478361 26.139667 
L 384.799743 29.155623 
L 386.121126 32.890738 
L 387.442509 37.317124 
L 388.763892 42.401781 
L 388.763892 42.401781 
" clip-path="url(#pb0c01192e8)" style="fill: none; stroke: #5ea04b; stroke-width: 1.5; stroke-linecap: square"/>
   </g>
   <g id="line2d_12">
    <path d="M 100.041733 66.767909 
L 101.363116 65.439865 
L 102.684499 64.562254 
L 104.005882 64.141581 
L 104.666573 64.103701 
L 105.327264 64.180957 
L 106.648647 64.680089 
L 107.97003 65.63527 
L 109.291413 67.039415 
L 110.612796 68.882107 
L 111.934179 71.149671 
L 113.255562 73.825277 
L 114.576945 76.889057 
L 116.559019 82.162011 
L 118.541093 88.168371 
L 120.523168 94.807664 
L 123.165933 104.451182 
L 127.130082 120.020463 
L 133.736996 146.316516 
L 136.379762 156.0406 
L 139.022528 164.865927 
L 141.004602 170.735526 
L 142.986677 175.85224 
L 144.308059 178.802135 
L 145.629442 181.356936 
L 146.950825 183.497578 
L 148.272208 185.20809 
L 149.593591 186.47571 
L 150.914974 187.29098 
L 152.236357 187.647819 
L 152.897048 187.653359 
L 153.55774 187.543561 
L 154.879122 186.978977 
L 156.200505 185.958275 
L 157.521888 184.489058 
L 158.843271 182.582282 
L 160.164654 180.252164 
L 161.486037 177.516085 
L 162.80742 174.394459 
L 164.789494 169.040834 
L 166.771568 162.962653 
L 169.414334 153.909286 
L 172.0571 144.020566 
L 176.68194 125.602125 
L 181.967471 104.685619 
L 184.610237 95.023104 
L 187.253003 86.280951 
L 189.235077 80.485943 
L 191.217152 75.452486 
L 192.538534 72.562034 
L 193.859917 70.069185 
L 195.1813 67.992441 
L 196.502683 66.347208 
L 197.824066 65.145686 
L 199.145449 64.39678 
L 200.466832 64.106037 
L 201.127523 64.133282 
L 201.788215 64.275608 
L 203.109598 64.90423 
L 204.43098 65.987239 
L 205.752363 67.516599 
L 207.073746 69.480964 
L 208.395129 71.865755 
L 209.716512 74.653268 
L 211.698586 79.543574 
L 213.680661 85.211053 
L 215.662735 91.560937 
L 218.305501 100.903858 
L 221.608958 113.595582 
L 231.519329 152.641896 
L 234.162095 161.821367 
L 236.14417 168.016855 
L 238.126244 173.50511 
L 240.108318 178.193998 
L 241.429701 180.836377 
L 242.751084 183.068484 
L 244.072467 184.873665 
L 245.39385 186.238451 
L 246.715233 187.152661 
L 248.036615 187.609473 
L 248.697307 187.665154 
L 249.357998 187.605475 
L 250.679381 187.140692 
L 252.000764 186.218585 
L 253.322147 184.846023 
L 254.64353 183.033237 
L 255.964913 180.793746 
L 257.286296 178.14425 
L 258.607678 175.104519 
L 260.589753 169.86361 
L 262.571827 163.884324 
L 264.553901 157.267064 
L 267.196667 147.645083 
L 270.500124 134.74135 
L 278.428422 103.274312 
L 281.071187 93.724965 
L 283.053262 87.17776 
L 285.035336 81.280191 
L 287.01741 76.130905 
L 288.338793 73.156814 
L 289.660176 70.575914 
L 290.981559 68.407363 
L 292.302942 66.667248 
L 293.624325 65.368474 
L 294.945708 64.520666 
L 296.267091 64.130106 
L 296.927782 64.10733 
L 297.588473 64.199683 
L 298.909856 64.728876 
L 300.231239 65.713757 
L 301.552622 67.147016 
L 302.874005 69.018021 
L 304.195388 71.312886 
L 305.516771 74.014577 
L 306.838154 77.103029 
L 308.820228 82.409945 
L 310.802302 88.446107 
L 313.445068 97.452618 
L 316.087834 107.307003 
L 320.051982 123.031802 
L 325.998205 146.646014 
L 328.640971 156.345069 
L 331.283737 165.136309 
L 333.265811 170.975005 
L 335.247885 176.056814 
L 336.569268 178.981502 
L 337.890651 181.509765 
L 339.212034 183.622735 
L 340.533417 185.304646 
L 341.8548 186.54295 
L 343.176183 187.328407 
L 344.497566 187.655156 
L 345.158257 187.645617 
L 345.818948 187.520754 
L 347.140331 186.926197 
L 348.461714 185.875913 
L 349.783097 184.377727 
L 351.10448 182.442809 
L 352.425863 180.085584 
L 353.747246 177.323637 
L 355.72932 172.467729 
L 357.711394 166.829724 
L 359.693469 160.504274 
L 362.336234 151.186049 
L 365.639692 138.512645 
L 375.550063 99.440335 
L 378.192829 90.23384 
L 380.174903 84.012596 
L 382.156978 78.493951 
L 384.139052 73.770165 
L 385.460435 71.102117 
L 386.781818 68.842516 
L 388.103201 67.008127 
L 388.763892 66.254765 
L 388.763892 66.254765 
" clip-path="url(#pb0c01192e8)" style="fill: none; stroke: #bdab62; stroke-width: 1.5; stroke-linecap: square"/>
   </g>
   <g id="patch_3">
    <path d="M 85.605625 241.036875 
L 85.605625 10.8 
" style="fill: none; stroke: #000000; stroke-width: 0.8; stroke-linejoin: miter; stroke-linecap: square"/>
   </g>
   <g id="patch_4">
    <path d="M 403.2 241.036875 
L 403.2 10.8 
" style="fill: none; stroke: #000000; stroke-width: 0.8; stroke-linejoin: miter; stroke-linecap: square"/>
   </g>
   <g id="patch_5">
    <path d="M 85.605625 241.036875 
L 403.2 241.036875 
" style="fill: none; stroke: #000000; stroke-width: 0.8; stroke-linejoin: miter; stroke-linecap: square"/>
   </g>
   <g id="patch_6">
    <path d="M 85.605625 10.8 
L 403.2 10.8 
" style="fill: none; stroke: #000000; stroke-width: 0.8; stroke-linejoin: miter; stroke-linecap: square"/>
   </g>
   <g id="legend_1">
    <g id="patch_7">
     <path d="M 347.85 236.536875 
L 396.9 236.536875 
Q 398.7 236.536875 398.7 234.736875 
L 398.7 194.871094 
Q 398.7 193.071094 396.9 193.071094 
L 347.85 193.071094 
Q 346.05 193.071094 346.05 194.871094 
L 346.05 234.736875 
Q 346.05 236.536875 347.85 236.536875 
z
" style="fill: #ffffff; opacity: 0.8; stroke: #cccccc; stroke-linejoin: miter"/>
    </g>
    <g id="line2d_13">
     <path d="M 349.65 200.359687 
L 358.65 200.359687 
L 367.65 200.359687 
" style="fill: none; stroke: #2b737e; stroke-width: 1.5; stroke-linecap: square"/>
    </g>
    <g id="text_12">
     <!-- $r_{BN,0}$ -->
     <g transform="translate(374.85 203.509687) scale(0.09 -0.09)">
      <defs>
       <path id="DejaVuSans-Oblique-72" d="M 2853 2969 
Q 2766 3016 2653 3041 
Q 2541 3066 2413 3066 
Q 1953 3066 1609 2717 
Q 1266 2369 1153 1784 
L 800 0 
L 225 0 
L 909 3500 
L 1484 3500 
L 1375 2956 
Q 1603 3259 1920 3421 
Q 2238 3584 2597 3584 
Q 2691 3584 2781 3573 
Q 2872 3563 2963 3538 
L 2853 2969 
z
" transform="scale(0.015625)"/>
       <path id="DejaVuSans-Oblique-42" d="M 1081 4666 
L 2694 4666 
Q 3350 4666 3675 4422 
Q 4000 4178 4000 3688 
Q 4000 3238 3720 2911 
Q 3441 2584 2988 2516 
Q 3375 2428 3569 2181 
Q 3763 1934 3763 1522 
Q 3763 819 3242 409 
Q 2722 0 1819 0 
L 172 0 
L 1081 4666 
z
M 1234 2228 
L 903 519 
L 1919 519 
Q 2491 519 2800 781 
Q 3109 1044 3109 1522 
Q 3109 1891 2904 2059 
Q 2700 2228 2247 2228 
L 1234 2228 
z
M 1606 4147 
L 1331 2741 
L 2272 2741 
Q 2775 2741 3058 2959 
Q 3341 3178 3341 3566 
Q 3341 3869 3150 4008 
Q 2959 4147 2541 4147 
L 1606 4147 
z
" transform="scale(0.015625)"/>
       <path id="DejaVuSans-Oblique-4e" d="M 1081 4666 
L 1931 4666 
L 3219 666 
L 4000 4666 
L 4616 4666 
L 3706 0 
L 2853 0 
L 1569 4025 
L 788 0 
L 172 0 
L 1081 4666 
z
" transform="scale(0.015625)"/>
       <path id="DejaVuSans-2c" d="M 750 794 
L 1409 794 
L 1409 256 
L 897 -744 
L 494 -744 
L 750 256 
L 750 794 
z
" transform="scale(0.015625)"/>
      </defs>
      <use xlink:href="#DejaVuSans-Oblique-72"/>
      <use xlink:href="#DejaVuSans-Oblique-42" transform="translate(41.113281 -16.40625) scale(0.7)"/>
      <use xlink:href="#DejaVuSans-Oblique-4e" transform="translate(89.135742 -16.40625) scale(0.7)"/>
      <use xlink:href="#DejaVuSans-2c" transform="translate(141.499023 -16.40625) scale(0.7)"/>
      <use xlink:href="#DejaVuSans-30" transform="translate(177.387695 -16.40625) scale(0.7)"/>
     </g>
    </g>
    <g id="line2d_14">
     <path d="M 349.65 213.948281 
L 358.65 213.948281 
L 367.65 213.948281 
" style="fill: none; stroke: #5ea04b; stroke-width: 1.5; stroke-linecap: square"/>
    </g>
    <g id="text_13">
     <!-- $r_{BN,1}$ -->
     <g transform="translate(374.85 217.098281) scale(0.09 -0.09)">
      <use xlink:href="#DejaVuSans-Oblique-72"/>
      <use xlink:href="#DejaVuSans-Oblique-42" transform="translate(41.113281 -16.40625) scale(0.7)"/>
      <use xlink:href="#DejaVuSans-Oblique-4e" transform="translate(89.135742 -16.40625) scale(0.7)"/>
      <use xlink:href="#DejaVuSans-2c" transform="translate(141.499023 -16.40625) scale(0.7)"/>
      <use xlink:href="#DejaVuSans-31" transform="translate(177.387695 -16.40625) scale(0.7)"/>
     </g>
    </g>
    <g id="line2d_15">
     <path d="M 349.65 227.536875 
L 358.65 227.536875 
L 367.65 227.536875 
" style="fill: none; stroke: #bdab62; stroke-width: 1.5; stroke-linecap: square"/>
    </g>
    <g id="text_14">
     <!-- $r_{BN,2}$ -->
     <g transform="translate(374.85 230.686875) scale(0.09 -0.09)">
      <use xlink:href="#DejaVuSans-Oblique-72"/>
      <use xlink:href="#DejaVuSans-Oblique-42" transform="translate(41.113281 -16.40625) scale(0.7)"/>
      <use xlink:href="#DejaVuSans-Oblique-4e" transform="translate(89.135742 -16.40625) scale(0.7)"/>
      <use xlink:href="#DejaVuSans-2c" transform="translate(141.499023 -16.40625) scale(0.7)"/>
      <use xlink:href="#DejaVuSans-32" transform="translate(177.387695 -16.40625) scale(0.7)"/>
     </g>
    </g>
   </g>
  </g>
 </g>
 <defs>
  <clipPath id="pb0c01192e8">
   <rect x="85.605625" y="10.8" width="317.594375" height="230.236875"/>
  </clipPath>
 </defs>
</svg>
