<?xml version="1.0" encoding="utf-8" standalone="no"?>
<!DOCTYPE svg PUBLIC "-//W3C//DTD SVG 1.1//EN"
  "http://www.w3.org/Graphics/SVG/1.1/DTD/svg11.dtd">
<svg xmlns:xlink="http://www.w3.org/1999/xlink" width="414pt" height="288pt" viewBox="0 0 414 288" xmlns="http://www.w3.org/2000/svg" version="1.1">
 <metadata>
  <rdf:RDF xmlns:dc="http://purl.org/dc/elements/1.1/" xmlns:cc="http://creativecommons.org/ns#" xmlns:rdf="http://www.w3.org/1999/02/22-rdf-syntax-ns#">
   <cc:Work>
    <dc:type rdf:resource="http://purl.org/dc/dcmitype/StillImage"/>
    <dc:date>2023-09-07T00:38:29.440701</dc:date>
    <dc:format>image/svg+xml</dc:format>
    <dc:creator>
     <cc:Agent>
      <dc:title>Matplotlib v3.7.2, https://matplotlib.org/</dc:title>
     </cc:Agent>
    </dc:creator>
   </cc:Work>
  </rdf:RDF>
 </metadata>
 <defs>
  <style type="text/css">*{stroke-linejoin: round; stroke-linecap: butt}</style>
 </defs>
 <g id="figure_1">
  <g id="patch_1">
   <path d="M 0 288 
L 414 288 
L 414 0 
L 0 0 
L 0 288 
z
" style="fill: none"/>
  </g>
  <g id="patch_2">
   <path d="M 81.359063 277.2 
L 332.640938 277.2 
L 332.640938 25.918125 
L 81.359063 25.918125 
L 81.359063 277.2 
z
" style="fill: none"/>
  </g>
  <g id="pane3d_1">
   <g id="patch_3">
    <path d="M 100.332577 215.241943 
L 183.314059 145.685219 
L 182.160537 45.37199 
L 95.207963 108.826017 
" style="fill: #f2f2f2; opacity: 0.5; stroke: #f2f2f2; stroke-linejoin: miter"/>
   </g>
  </g>
  <g id="pane3d_2">
   <g id="patch_4">
    <path d="M 183.314059 145.685219 
L 316.469729 184.388316 
L 321.221585 80.619912 
L 182.160537 45.37199 
" style="fill: #e6e6e6; opacity: 0.5; stroke: #e6e6e6; stroke-linejoin: miter"/>
   </g>
  </g>
  <g id="pane3d_3">
   <g id="patch_5">
    <path d="M 100.332577 215.241943 
L 241.484091 261.342027 
L 316.469729 184.388316 
L 183.314059 145.685219 
" style="fill: #ececec; opacity: 0.5; stroke: #ececec; stroke-linejoin: miter"/>
   </g>
  </g>
  <g id="axis3d_1">
   <g id="line2d_1">
    <path d="M 100.332577 215.241943 
L 241.484091 261.342027 
" style="fill: none; stroke: #000000; stroke-width: 0.8; stroke-linecap: square"/>
   </g>
   <g id="text_1">
    <!-- ${}^{N}r_{x}$ [km] -->
    <g transform="translate(132.38857 269.764467) rotate(-341.912962) scale(0.1 -0.1)">
     <defs>
      <path id="DejaVuSans-Oblique-4e" d="M 1081 4666 
L 1931 4666 
L 3219 666 
L 4000 4666 
L 4616 4666 
L 3706 0 
L 2853 0 
L 1569 4025 
L 788 0 
L 172 0 
L 1081 4666 
z
" transform="scale(0.015625)"/>
      <path id="DejaVuSans-Oblique-72" d="M 2853 2969 
Q 2766 3016 2653 3041 
Q 2541 3066 2413 3066 
Q 1953 3066 1609 2717 
Q 1266 2369 1153 1784 
L 800 0 
L 225 0 
L 909 3500 
L 1484 3500 
L 1375 2956 
Q 1603 3259 1920 3421 
Q 2238 3584 2597 3584 
Q 2691 3584 2781 3573 
Q 2872 3563 2963 3538 
L 2853 2969 
z
" transform="scale(0.015625)"/>
      <path id="DejaVuSans-Oblique-78" d="M 3841 3500 
L 2234 1784 
L 3219 0 
L 2559 0 
L 1819 1388 
L 531 0 
L -166 0 
L 1556 1844 
L 641 3500 
L 1300 3500 
L 1972 2234 
L 3144 3500 
L 3841 3500 
z
" transform="scale(0.015625)"/>
      <path id="DejaVuSans-20" transform="scale(0.015625)"/>
      <path id="DejaVuSans-5b" d="M 550 4863 
L 1875 4863 
L 1875 4416 
L 1125 4416 
L 1125 -397 
L 1875 -397 
L 1875 -844 
L 550 -844 
L 550 4863 
z
" transform="scale(0.015625)"/>
      <path id="DejaVuSans-6b" d="M 581 4863 
L 1159 4863 
L 1159 1991 
L 2875 3500 
L 3609 3500 
L 1753 1863 
L 3688 0 
L 2938 0 
L 1159 1709 
L 1159 0 
L 581 0 
L 581 4863 
z
" transform="scale(0.015625)"/>
      <path id="DejaVuSans-6d" d="M 3328 2828 
Q 3544 3216 3844 3400 
Q 4144 3584 4550 3584 
Q 5097 3584 5394 3201 
Q 5691 2819 5691 2113 
L 5691 0 
L 5113 0 
L 5113 2094 
Q 5113 2597 4934 2840 
Q 4756 3084 4391 3084 
Q 3944 3084 3684 2787 
Q 3425 2491 3425 1978 
L 3425 0 
L 2847 0 
L 2847 2094 
Q 2847 2600 2669 2842 
Q 2491 3084 2119 3084 
Q 1678 3084 1418 2786 
Q 1159 2488 1159 1978 
L 1159 0 
L 581 0 
L 581 3500 
L 1159 3500 
L 1159 2956 
Q 1356 3278 1631 3431 
Q 1906 3584 2284 3584 
Q 2666 3584 2933 3390 
Q 3200 3197 3328 2828 
z
" transform="scale(0.015625)"/>
      <path id="DejaVuSans-5d" d="M 1947 4863 
L 1947 -844 
L 622 -844 
L 622 -397 
L 1369 -397 
L 1369 4416 
L 622 4416 
L 622 4863 
L 1947 4863 
z
" transform="scale(0.015625)"/>
     </defs>
     <use xlink:href="#DejaVuSans-Oblique-4e" transform="translate(0.957031 38.965625) scale(0.7)"/>
     <use xlink:href="#DejaVuSans-Oblique-72" transform="translate(56.054688 0.684375)"/>
     <use xlink:href="#DejaVuSans-Oblique-78" transform="translate(97.167969 -15.721875) scale(0.7)"/>
     <use xlink:href="#DejaVuSans-20" transform="translate(141.328125 0.684375)"/>
     <use xlink:href="#DejaVuSans-5b" transform="translate(173.115234 0.684375)"/>
     <use xlink:href="#DejaVuSans-6b" transform="translate(212.128906 0.684375)"/>
     <use xlink:href="#DejaVuSans-6d" transform="translate(270.039062 0.684375)"/>
     <use xlink:href="#DejaVuSans-5d" transform="translate(367.451172 0.684375)"/>
    </g>
   </g>
   <g id="Line3DCollection_1">
    <path d="M 117.210999 220.754435 
L 199.298361 150.331225 
L 198.822748 49.595375 
" style="fill: none; stroke: #b0b0b0; stroke-width: 0.8"/>
    <path d="M 143.810119 229.441708 
L 224.454128 157.643013 
L 225.062493 56.246385 
" style="fill: none; stroke: #b0b0b0; stroke-width: 0.8"/>
    <path d="M 170.954155 238.30695 
L 250.08209 165.09205 
L 251.816301 63.027696 
" style="fill: none; stroke: #b0b0b0; stroke-width: 0.8"/>
    <path d="M 198.660025 247.355687 
L 276.195667 172.682236 
L 279.09943 69.943174 
" style="fill: none; stroke: #b0b0b0; stroke-width: 0.8"/>
    <path d="M 226.945356 256.593676 
L 302.808794 180.417621 
L 306.927745 76.99684 
" style="fill: none; stroke: #b0b0b0; stroke-width: 0.8"/>
   </g>
   <g id="xtick_1">
    <g id="line2d_2">
     <path d="M 117.925997 220.141035 
L 115.777927 221.983876 
" style="fill: none; stroke: #000000; stroke-width: 0.8; stroke-linecap: square"/>
    </g>
    <g id="text_2">
     <!-- −400 -->
     <g transform="translate(87.715369 248.687091) scale(0.16 -0.16)">
      <defs>
       <path id="DejaVuSans-2212" d="M 678 2272 
L 4684 2272 
L 4684 1741 
L 678 1741 
L 678 2272 
z
" transform="scale(0.015625)"/>
       <path id="DejaVuSans-34" d="M 2419 4116 
L 825 1625 
L 2419 1625 
L 2419 4116 
z
M 2253 4666 
L 3047 4666 
L 3047 1625 
L 3713 1625 
L 3713 1100 
L 3047 1100 
L 3047 0 
L 2419 0 
L 2419 1100 
L 313 1100 
L 313 1709 
L 2253 4666 
z
" transform="scale(0.015625)"/>
       <path id="DejaVuSans-30" d="M 2034 4250 
Q 1547 4250 1301 3770 
Q 1056 3291 1056 2328 
Q 1056 1369 1301 889 
Q 1547 409 2034 409 
Q 2525 409 2770 889 
Q 3016 1369 3016 2328 
Q 3016 3291 2770 3770 
Q 2525 4250 2034 4250 
z
M 2034 4750 
Q 2819 4750 3233 4129 
Q 3647 3509 3647 2328 
Q 3647 1150 3233 529 
Q 2819 -91 2034 -91 
Q 1250 -91 836 529 
Q 422 1150 422 2328 
Q 422 3509 836 4129 
Q 1250 4750 2034 4750 
z
" transform="scale(0.015625)"/>
      </defs>
      <use xlink:href="#DejaVuSans-2212"/>
      <use xlink:href="#DejaVuSans-34" x="83.789062"/>
      <use xlink:href="#DejaVuSans-30" x="147.412109"/>
      <use xlink:href="#DejaVuSans-30" x="211.035156"/>
     </g>
    </g>
   </g>
   <g id="xtick_2">
    <g id="line2d_3">
     <path d="M 144.513124 228.81581 
L 142.401051 230.696224 
" style="fill: none; stroke: #000000; stroke-width: 0.8; stroke-linecap: square"/>
    </g>
    <g id="text_3">
     <!-- −200 -->
     <g transform="translate(114.344056 257.569615) scale(0.16 -0.16)">
      <defs>
       <path id="DejaVuSans-32" d="M 1228 531 
L 3431 531 
L 3431 0 
L 469 0 
L 469 531 
Q 828 903 1448 1529 
Q 2069 2156 2228 2338 
Q 2531 2678 2651 2914 
Q 2772 3150 2772 3378 
Q 2772 3750 2511 3984 
Q 2250 4219 1831 4219 
Q 1534 4219 1204 4116 
Q 875 4013 500 3803 
L 500 4441 
Q 881 4594 1212 4672 
Q 1544 4750 1819 4750 
Q 2544 4750 2975 4387 
Q 3406 4025 3406 3419 
Q 3406 3131 3298 2873 
Q 3191 2616 2906 2266 
Q 2828 2175 2409 1742 
Q 1991 1309 1228 531 
z
" transform="scale(0.015625)"/>
      </defs>
      <use xlink:href="#DejaVuSans-2212"/>
      <use xlink:href="#DejaVuSans-32" x="83.789062"/>
      <use xlink:href="#DejaVuSans-30" x="147.412109"/>
      <use xlink:href="#DejaVuSans-30" x="211.035156"/>
     </g>
    </g>
   </g>
   <g id="xtick_3">
    <g id="line2d_4">
     <path d="M 171.644525 237.668169 
L 169.570381 239.587317 
" style="fill: none; stroke: #000000; stroke-width: 0.8; stroke-linecap: square"/>
    </g>
    <g id="text_4">
     <!-- 0 -->
     <g transform="translate(158.404215 266.634843) scale(0.16 -0.16)">
      <use xlink:href="#DejaVuSans-30"/>
     </g>
    </g>
   </g>
   <g id="xtick_4">
    <g id="line2d_5">
     <path d="M 199.337084 246.703621 
L 197.302902 248.662713 
" style="fill: none; stroke: #000000; stroke-width: 0.8; stroke-linecap: square"/>
    </g>
    <g id="text_5">
     <!-- 200 -->
     <g transform="translate(175.96542 275.888469) scale(0.16 -0.16)">
      <use xlink:href="#DejaVuSans-32"/>
      <use xlink:href="#DejaVuSans-30" x="63.623047"/>
      <use xlink:href="#DejaVuSans-30" x="127.246094"/>
     </g>
    </g>
   </g>
   <g id="xtick_5">
    <g id="line2d_6">
     <path d="M 227.608394 255.927906 
L 225.616307 257.928201 
" style="fill: none; stroke: #000000; stroke-width: 0.8; stroke-linecap: square"/>
    </g>
    <g id="text_6">
     <!-- 400 -->
     <g transform="translate(204.289212 285.336429) scale(0.16 -0.16)">
      <use xlink:href="#DejaVuSans-34"/>
      <use xlink:href="#DejaVuSans-30" x="63.623047"/>
      <use xlink:href="#DejaVuSans-30" x="127.246094"/>
     </g>
    </g>
   </g>
  </g>
  <g id="axis3d_2">
   <g id="line2d_7">
    <path d="M 316.469729 184.388316 
L 241.484091 261.342027 
" style="fill: none; stroke: #000000; stroke-width: 0.8; stroke-linecap: square"/>
   </g>
   <g id="text_7">
    <!-- ${}^{N}r_{y}$ [km] -->
    <g transform="translate(295.538488 265.789408) rotate(-45.742112) scale(0.1 -0.1)">
     <defs>
      <path id="DejaVuSans-Oblique-79" d="M 1588 -325 
Q 1188 -997 936 -1164 
Q 684 -1331 294 -1331 
L -159 -1331 
L -63 -850 
L 269 -850 
Q 509 -850 678 -719 
Q 847 -588 1056 -206 
L 1234 128 
L 459 3500 
L 1069 3500 
L 1650 819 
L 3256 3500 
L 3859 3500 
L 1588 -325 
z
" transform="scale(0.015625)"/>
     </defs>
     <use xlink:href="#DejaVuSans-Oblique-4e" transform="translate(0.957031 38.965625) scale(0.7)"/>
     <use xlink:href="#DejaVuSans-Oblique-72" transform="translate(56.054688 0.684375)"/>
     <use xlink:href="#DejaVuSans-Oblique-79" transform="translate(97.167969 -15.721875) scale(0.7)"/>
     <use xlink:href="#DejaVuSans-20" transform="translate(141.328125 0.684375)"/>
     <use xlink:href="#DejaVuSans-5b" transform="translate(173.115234 0.684375)"/>
     <use xlink:href="#DejaVuSans-6b" transform="translate(212.128906 0.684375)"/>
     <use xlink:href="#DejaVuSans-6d" transform="translate(270.039062 0.684375)"/>
     <use xlink:href="#DejaVuSans-5d" transform="translate(367.451172 0.684375)"/>
    </g>
   </g>
   <g id="Line3DCollection_2">
    <path d="M 104.273475 102.21042 
L 108.954688 208.014718 
L 249.30628 253.314536 
" style="fill: none; stroke: #b0b0b0; stroke-width: 0.8"/>
    <path d="M 123.367385 88.276554 
L 127.137018 192.773929 
L 265.77819 236.410305 
" style="fill: none; stroke: #b0b0b0; stroke-width: 0.8"/>
    <path d="M 141.753883 74.858925 
L 144.674371 178.073772 
L 281.635606 220.136694 
" style="fill: none; stroke: #b0b0b0; stroke-width: 0.8"/>
    <path d="M 159.471568 61.929366 
L 161.600467 163.885983 
L 296.912286 204.459063 
" style="fill: none; stroke: #b0b0b0; stroke-width: 0.8"/>
    <path d="M 176.556281 49.461721 
L 177.946716 150.184232 
L 311.639557 189.34526 
" style="fill: none; stroke: #b0b0b0; stroke-width: 0.8"/>
   </g>
   <g id="xtick_6">
    <g id="line2d_8">
     <path d="M 248.123715 252.932852 
L 251.67446 254.078889 
" style="fill: none; stroke: #000000; stroke-width: 0.8; stroke-linecap: square"/>
    </g>
    <g id="text_8">
     <!-- −400 -->
     <g transform="translate(240.176231 278.853395) scale(0.16 -0.16)">
      <use xlink:href="#DejaVuSans-2212"/>
      <use xlink:href="#DejaVuSans-34" x="83.789062"/>
      <use xlink:href="#DejaVuSans-30" x="147.412109"/>
      <use xlink:href="#DejaVuSans-30" x="211.035156"/>
     </g>
    </g>
   </g>
   <g id="xtick_7">
    <g id="line2d_9">
     <path d="M 264.611157 236.042989 
L 268.115207 237.145865 
" style="fill: none; stroke: #000000; stroke-width: 0.8; stroke-linecap: square"/>
    </g>
    <g id="text_9">
     <!-- −200 -->
     <g transform="translate(256.414081 261.684179) scale(0.16 -0.16)">
      <use xlink:href="#DejaVuSans-2212"/>
      <use xlink:href="#DejaVuSans-32" x="83.789062"/>
      <use xlink:href="#DejaVuSans-30" x="147.412109"/>
      <use xlink:href="#DejaVuSans-30" x="211.035156"/>
     </g>
    </g>
   </g>
   <g id="xtick_8">
    <g id="line2d_10">
     <path d="M 280.483781 219.782951 
L 283.942115 220.845059 
" style="fill: none; stroke: #000000; stroke-width: 0.8; stroke-linecap: square"/>
    </g>
    <g id="text_10">
     <!-- 0 -->
     <g transform="translate(288.92955 245.155859) scale(0.16 -0.16)">
      <use xlink:href="#DejaVuSans-30"/>
     </g>
    </g>
   </g>
   <g id="xtick_9">
    <g id="line2d_11">
     <path d="M 295.775348 204.118153 
L 299.188933 205.141713 
" style="fill: none; stroke: #000000; stroke-width: 0.8; stroke-linecap: square"/>
    </g>
    <g id="text_11">
     <!-- 200 -->
     <g transform="translate(293.808457 229.233207) scale(0.16 -0.16)">
      <use xlink:href="#DejaVuSans-32"/>
      <use xlink:href="#DejaVuSans-30" x="63.623047"/>
      <use xlink:href="#DejaVuSans-30" x="127.246094"/>
     </g>
    </g>
   </g>
   <g id="xtick_10">
    <g id="line2d_12">
     <path d="M 310.517189 189.016498 
L 313.886979 190.00357 
" style="fill: none; stroke: #000000; stroke-width: 0.8; stroke-linecap: square"/>
    </g>
    <g id="text_12">
     <!-- 400 -->
     <g transform="translate(308.325469 213.883532) scale(0.16 -0.16)">
      <use xlink:href="#DejaVuSans-34"/>
      <use xlink:href="#DejaVuSans-30" x="63.623047"/>
      <use xlink:href="#DejaVuSans-30" x="127.246094"/>
     </g>
    </g>
   </g>
  </g>
  <g id="axis3d_3">
   <g id="line2d_13">
    <path d="M 316.469729 184.388316 
L 321.221585 80.619912 
" style="fill: none; stroke: #000000; stroke-width: 0.8; stroke-linecap: square"/>
   </g>
   <g id="text_13">
    <!-- ${}^{N}r_{z}$ [km] -->
    <g transform="translate(361.501015 148.462141) rotate(-87.378092) scale(0.1 -0.1)">
     <defs>
      <path id="DejaVuSans-Oblique-7a" d="M 744 3500 
L 3475 3500 
L 3372 2975 
L 738 459 
L 2913 459 
L 2822 0 
L -19 0 
L 84 525 
L 2719 3041 
L 653 3041 
L 744 3500 
z
" transform="scale(0.015625)"/>
     </defs>
     <use xlink:href="#DejaVuSans-Oblique-4e" transform="translate(0.957031 38.965625) scale(0.7)"/>
     <use xlink:href="#DejaVuSans-Oblique-72" transform="translate(56.054688 0.684375)"/>
     <use xlink:href="#DejaVuSans-Oblique-7a" transform="translate(97.167969 -15.721875) scale(0.7)"/>
     <use xlink:href="#DejaVuSans-20" transform="translate(136.645508 0.684375)"/>
     <use xlink:href="#DejaVuSans-5b" transform="translate(168.432617 0.684375)"/>
     <use xlink:href="#DejaVuSans-6b" transform="translate(207.446289 0.684375)"/>
     <use xlink:href="#DejaVuSans-6d" transform="translate(265.356445 0.684375)"/>
     <use xlink:href="#DejaVuSans-5d" transform="translate(362.768555 0.684375)"/>
    </g>
   </g>
   <g id="Line3DCollection_3">
    <path d="M 317.63205 159.006184 
L 183.031453 121.109086 
L 99.080674 189.245357 
" style="fill: none; stroke: #b0b0b0; stroke-width: 0.8"/>
    <path d="M 318.789525 133.729896 
L 182.750315 96.660658 
L 97.832964 163.335868 
" style="fill: none; stroke: #b0b0b0; stroke-width: 0.8"/>
    <path d="M 319.972259 107.902006 
L 182.463341 71.704654 
L 96.556967 136.838965 
" style="fill: none; stroke: #b0b0b0; stroke-width: 0.8"/>
   </g>
   <g id="xtick_11">
    <g id="line2d_14">
     <path d="M 316.501801 158.68796 
L 319.895265 159.643398 
" style="fill: none; stroke: #000000; stroke-width: 0.8; stroke-linecap: square"/>
    </g>
    <g id="text_14">
     <!-- −200 -->
     <g transform="translate(314.099266 168.612158) scale(0.16 -0.16)">
      <use xlink:href="#DejaVuSans-2212"/>
      <use xlink:href="#DejaVuSans-32" x="83.789062"/>
      <use xlink:href="#DejaVuSans-30" x="147.412109"/>
      <use xlink:href="#DejaVuSans-30" x="211.035156"/>
     </g>
    </g>
   </g>
   <g id="xtick_12">
    <g id="line2d_15">
     <path d="M 317.646613 133.418465 
L 321.078126 134.353515 
" style="fill: none; stroke: #000000; stroke-width: 0.8; stroke-linecap: square"/>
    </g>
    <g id="text_15">
     <!-- 0 -->
     <g transform="translate(332.335136 143.39041) scale(0.16 -0.16)">
      <use xlink:href="#DejaVuSans-30"/>
     </g>
    </g>
   </g>
   <g id="xtick_13">
    <g id="line2d_16">
     <path d="M 318.816398 107.597741 
L 322.286821 108.511283 
" style="fill: none; stroke: #000000; stroke-width: 0.8; stroke-linecap: square"/>
    </g>
    <g id="text_16">
     <!-- 200 -->
     <g transform="translate(323.536667 117.620055) scale(0.16 -0.16)">
      <use xlink:href="#DejaVuSans-32"/>
      <use xlink:href="#DejaVuSans-30" x="63.623047"/>
      <use xlink:href="#DejaVuSans-30" x="127.246094"/>
     </g>
    </g>
   </g>
  </g>
  <g id="axes_1">
   <g id="line2d_17">
    <path d="M 186.368946 219.586424 
L 182.573616 218.224463 
L 178.859549 216.675777 
L 175.236889 214.944745 
L 171.715544 213.036186 
L 168.305179 210.955363 
L 165.015185 208.707988 
L 161.854652 206.300215 
L 158.832337 203.738635 
L 155.956634 201.030249 
L 153.235556 198.182454 
L 150.676715 195.203018 
L 148.287308 192.100063 
L 146.074106 188.882048 
L 144.043432 185.557757 
L 142.201145 182.136285 
L 140.552615 178.627019 
L 139.102697 175.039613 
L 137.855712 171.383963 
L 136.815438 167.670168 
L 135.985101 163.908507 
L 135.367382 160.109406 
L 134.964412 156.283427 
L 134.777771 152.441245 
L 134.808478 148.593636 
L 135.05698 144.75146 
L 135.523131 140.925646 
L 136.206169 137.127162 
L 137.104695 133.366995 
L 138.216645 129.656106 
L 139.539272 126.005394 
L 141.069127 122.425643 
L 142.802049 118.927469 
L 144.733163 115.521253 
L 146.856901 112.217081 
L 149.16703 109.024676 
L 151.656703 105.953349 
L 154.31852 103.011949 
L 157.144597 100.208835 
L 160.126644 97.551867 
L 163.256035 95.048412 
L 166.523862 92.70537 
L 169.920975 90.529212 
L 173.43799 88.526011 
L 177.065286 86.70147 
L 180.792995 85.060933 
L 184.610976 83.609392 
L 188.508788 82.351476 
L 192.475652 81.291421 
L 196.500438 80.433007 
L 200.571669 79.779497 
L 204.677558 79.333572 
L 208.80606 79.097281 
L 212.944928 79.072017 
L 217.08176 79.258492 
L 221.204051 79.656721 
L 225.299233 80.265999 
L 229.354731 81.084871 
L 233.358018 82.111108 
L 237.296697 83.34168 
L 241.158603 84.772747 
L 244.931918 86.399696 
L 248.605271 88.217211 
L 252.167799 90.219388 
L 255.609153 92.39984 
L 258.919459 94.75178 
L 262.089272 97.268059 
L 265.109537 99.941171 
L 267.97158 102.763232 
L 270.667124 105.725964 
L 273.188333 108.820678 
L 275.527862 112.038286 
L 277.678906 115.369326 
L 279.63523 118.804003 
L 281.391188 122.332228 
L 282.941732 125.943653 
L 284.282411 129.627707 
L 285.409375 133.373611 
L 286.319392 137.170401 
L 287.009869 141.006954 
L 287.478874 144.872025 
L 287.725146 148.754292 
L 287.748096 152.642412 
L 287.547783 156.52505 
L 287.124902 160.390916 
L 286.480768 164.228776 
L 285.617318 168.027473 
L 284.537109 171.775944 
L 283.243323 175.463248 
L 281.739775 179.078587 
L 280.030919 182.611345 
L 278.121859 186.051123 
L 276.018351 189.387787 
L 273.726799 192.611518 
L 271.254241 195.712867 
L 268.608331 198.682806 
L 265.7973 201.51279 
L 262.829914 204.194805 
L 259.715407 206.721415 
L 256.463413 209.085788 
L 253.083894 211.28171 
L 249.587062 213.303586 
L 245.983309 215.146416 
L 242.283152 216.80576 
L 238.497192 218.277699 
L 234.6361 219.558793 
L 230.71061 220.646049 
L 226.731526 221.536904 
L 222.709737 222.229212 
L 218.656222 222.721255 
L 214.58207 223.011749 
L 210.498476 223.099882 
L 206.416742 222.985344 
L 202.348243 222.668368 
L 198.30439 222.149764 
L 194.296583 221.430931 
L 190.336155 220.513869 
L 186.434331 219.401166 
L 182.602186 218.095996 
L 178.850612 216.602101 
L 175.190282 214.923787 
L 171.63162 213.065918 
L 168.184756 211.033914 
L 164.85948 208.833747 
L 161.665177 206.471925 
L 158.610767 203.955464 
L 155.704652 201.29183 
L 152.954688 198.48887 
L 150.368183 195.554747 
L 147.95192 192.497883 
L 145.712189 189.326925 
L 143.654804 186.05073 
L 141.785124 182.678361 
L 140.108045 179.219087 
L 138.627991 175.682385 
L 137.34889 172.077921 
L 136.274152 168.415541 
L 135.406658 164.705237 
L 134.748747 160.957122 
L 134.302212 157.181399 
L 134.068306 153.388341 
L 134.047744 149.588263 
L 134.240701 145.79151 
L 134.646811 142.008437 
L 135.265158 138.249391 
L 136.094267 134.524683 
L 137.132102 130.84456 
L 138.376068 127.21917 
L 139.823026 123.658533 
L 141.46931 120.172518 
L 143.310738 116.770831 
L 145.342629 113.463 
L 147.559798 110.258365 
L 149.956557 107.166061 
L 152.526712 104.194997 
L 155.263551 101.353836 
L 158.159843 98.650959 
L 161.207826 96.094432 
L 164.399214 93.691962 
L 167.725195 91.450851 
L 171.176455 89.377943 
L 174.743201 87.47957 
L 178.415205 85.761508 
L 182.181864 84.228933 
L 186.03226 82.886396 
L 189.955236 81.737805 
L 193.93947 80.786429 
L 197.97354 80.034906 
L 202.045997 79.48528 
L 206.145403 79.139044 
L 210.260358 78.997195 
L 214.379491 79.060275 
L 218.491447 79.328402 
L 222.584865 79.801277 
L 226.648349 80.478187 
L 230.670452 81.357987 
L 234.639648 82.439061 
L 238.544339 83.719268 
L 242.372888 85.195874 
L 246.113677 86.865506 
L 249.755184 88.724121 
L 253.286057 90.767002 
L 256.695174 92.988761 
L 259.971698 95.383343 
L 263.105135 97.944034 
L 266.085392 100.66346 
L 268.902837 103.533597 
L 271.548383 106.545781 
L 274.01357 109.690748 
L 276.290661 112.958695 
L 278.3727 116.339394 
L 280.25353 119.822307 
L 281.927753 123.396704 
L 283.390657 127.051729 
L 284.638149 130.776421 
L 285.666709 134.559713 
L 286.473382 138.39041 
L 287.0558 142.257178 
L 287.412223 146.148548 
L 287.541585 150.052948 
L 287.443523 153.958748 
L 287.118386 157.854314 
L 286.567234 161.728059 
L 285.791815 165.568479 
L 284.794552 169.364192 
L 283.578523 173.103958 
L 282.147457 176.776708 
L 280.505735 180.371569 
L 278.658382 183.877908 
L 276.611064 187.285377 
L 274.370052 190.583956 
L 271.942197 193.76399 
L 269.334884 196.816209 
L 266.556003 199.731745 
L 263.613925 202.502144 
L 260.517486 205.119375 
L 257.275969 207.57585 
L 253.899089 209.864446 
L 250.396985 211.978533 
L 246.780195 213.912006 
L 243.059635 215.659321 
L 239.24657 217.215531 
L 235.352568 218.576322 
L 231.389461 219.738043 
L 227.369285 220.697738 
L 223.304219 221.45317 
L 219.206513 222.002834 
L 215.088408 222.345956 
L 210.962059 222.482473 
L 206.839475 222.412997 
L 202.732454 222.138771 
L 198.652545 221.66161 
L 194.611028 220.983842 
L 190.61891 220.108255 
L 186.686932 219.038056 
L 182.825589 217.776845 
L 179.045143 216.328598 
L 175.355635 214.697671 
L 171.766895 212.888798 
L 168.288539 210.907115 
L 164.929959 208.758176 
L 161.700293 206.447975 
L 158.608387 203.982962 
L 155.662742 201.370039 
L 152.871473 198.616549 
L 150.242271 195.730248 
L 147.782371 192.719284 
L 145.498528 189.592163 
L 143.396999 186.357727 
L 141.483524 183.025131 
L 139.763298 179.603821 
L 138.24094 176.103513 
L 136.920461 172.534163 
L 135.805219 168.905922 
L 134.897896 165.229076 
L 134.200493 161.513974 
L 133.714359 157.77096 
L 133.440234 154.010324 
L 133.378305 150.242266 
L 133.528254 146.476895 
L 133.889289 142.724232 
L 134.460159 138.994219 
L 135.239148 135.296725 
L 136.224064 131.641543 
L 137.412224 128.038367 
L 138.80045 124.496778 
L 140.385064 121.026206 
L 142.161903 117.635911 
L 144.126325 114.334958 
L 146.273232 111.132202 
L 148.597079 108.036271 
L 151.091881 105.055562 
L 153.751221 102.19822 
L 156.568246 99.472126 
L 159.535673 96.884863 
L 162.645805 94.443694 
L 165.890553 92.155537 
L 169.261458 90.026949 
L 172.749719 88.064123 
L 176.346204 86.27288 
L 180.041457 84.658665 
L 183.825702 83.22653 
L 187.688844 81.981116 
L 191.620479 80.926628 
L 195.609897 80.06681 
L 199.646094 79.404909 
L 203.717789 78.943641 
L 207.813449 78.685147 
L 211.921325 78.630953 
L 216.029506 78.781931 
L 220.125972 79.138273 
L 224.198668 79.69947 
L 228.23558 80.464314 
L 232.224802 81.43091 
L 236.154612 82.596702 
L 240.013525 83.958509 
L 243.79035 85.512578 
L 247.474211 87.254648 
L 251.054552 89.180006 
L 254.52111 91.283538 
L 257.863885 93.559748 
L 261.073111 96.00276 
L 264.139242 98.60631 
L 267.052932 101.363722 
L 269.805042 104.267867 
L 272.386668 107.311113 
L 274.789203 110.485281 
L 277.004424 113.781618 
L 279.024591 117.190807 
L 280.842518 120.702998 
L 282.451646 124.307848 
L 283.846079 127.99457 
L 285.020632 131.751964 
L 285.97087 135.568463 
L 286.693149 139.432169 
L 287.184666 143.330898 
L 287.443514 147.252246 
L 287.468733 151.183679 
L 287.260326 155.112651 
L 286.819229 159.026729 
L 286.147228 162.913696 
L 285.24685 166.761597 
L 284.121281 170.558748 
L 282.774304 174.293713 
L 281.210284 177.95529 
L 279.434185 181.532499 
L 277.451588 185.014608 
L 275.268708 188.391172 
L 272.892392 191.652081 
L 270.330103 194.787614 
L 267.589877 197.788479 
L 264.680285 200.645843 
L 261.610391 203.351353 
L 258.389714 205.89715 
L 255.028203 208.275885 
L 251.536213 210.480733 
L 247.924474 212.505427 
L 244.204062 214.344279 
L 240.386352 215.992208 
L 236.482965 217.444757 
L 232.505722 218.698091 
L 228.466599 219.748998 
L 224.377689 220.594879 
L 220.251175 221.23374 
L 216.099306 221.664191 
L 211.934372 221.885448 
L 207.768677 221.897344 
L 203.614509 221.700334 
L 199.484107 221.295513 
L 195.389612 220.68462 
L 191.343029 219.870049 
L 187.356171 218.854849 
L 183.440606 217.64272 
L 179.607599 216.238007 
L 175.868048 214.645678 
L 172.232425 212.871294 
L 168.710721 210.92096 
L 165.312407 208.801272 
L 162.046406 206.519247 
L 158.921084 204.082261 
L 155.944255 201.497978 
L 153.123205 198.7743 
L 150.464725 195.919317 
L 147.975142 192.941287 
L 145.660354 189.848621 
L 143.525852 186.649878 
L 141.576732 183.353776 
L 139.817707 179.969197 
L 138.253096 176.505204 
L 136.886809 172.971051 
L 135.722313 169.376195 
L 134.762598 165.73028 
L 134.010137 162.043123 
L 133.466865 158.324682 
L 133.134157 154.585022 
L 133.012822 150.83428 
L 133.103103 147.082638 
L 133.404665 143.340294 
L 133.916594 139.617437 
L 134.637386 135.924216 
L 135.56493 132.270712 
L 136.696497 128.666888 
L 138.028736 125.122542 
L 139.557693 121.64724 
L 141.27885 118.250261 
L 143.187194 114.94056 
L 145.277279 111.726756 
L 147.543293 108.617138 
L 149.979095 105.619693 
L 152.578233 102.742131 
L 155.333937 99.9919 
L 158.239113 97.376194 
L 161.633338 94.636044 
L 165.1922 92.0796 
L 168.904465 89.715459 
L 172.758395 87.551695 
L 176.741779 85.595826 
L 180.841968 83.854799 
L 185.045904 82.334974 
L 189.340131 81.042113 
L 193.710814 79.981355 
L 198.143749 79.157183 
L 202.6244 78.57338 
L 207.137944 78.232996 
L 211.669333 78.138337 
L 215.75025 78.264546 
L 219.822064 78.591693 
L 223.87346 79.11991 
L 227.893041 79.848817 
L 231.869338 80.777503 
L 235.790837 81.904506 
L 239.645999 83.227783 
L 243.423292 84.74469 
L 247.111232 86.451947 
L 250.698432 88.345613 
L 254.173671 90.421063 
L 257.525958 92.672978 
L 260.744617 95.095345 
L 263.819362 97.68148 
L 266.740375 100.424062 
L 269.498366 103.315185 
L 272.084633 106.346424 
L 274.49109 109.508899 
L 276.710285 112.793356 
L 278.735384 116.190241 
L 280.560128 119.689757 
L 282.178793 123.281892 
L 283.586142 126.95642 
L 284.777415 130.702893 
L 285.748314 134.510626 
L 286.495023 138.368668 
L 287.014233 142.265779 
L 287.303211 146.190409 
L 287.359882 150.130704 
L 287.182921 154.074538 
L 286.771824 158.009587 
L 286.126953 161.923404 
L 285.249546 165.803499 
L 284.14172 169.637404 
L 282.80647 173.412735 
L 281.247655 177.117243 
L 279.470007 180.738869 
L 277.479126 184.265802 
L 275.281487 187.686561 
L 272.884426 190.990092 
L 270.29608 194.165883 
L 267.52529 197.204045 
L 264.581469 200.095363 
L 261.474482 202.831283 
L 258.214563 205.403877 
L 254.812268 207.805799 
L 251.278466 210.030262 
L 247.624336 212.071034 
L 243.861365 213.922456 
L 240.00133 215.579477 
L 236.056261 217.03768 
L 232.038395 218.293309 
L 227.960122 219.343274 
L 223.833931 220.185153 
L 219.672366 220.817185 
L 215.487984 221.238254 
L 211.293327 221.447889 
L 207.100884 221.446255 
L 202.923064 221.234152 
L 198.772148 220.813017 
L 194.660248 220.184918 
L 190.599261 219.352532 
L 186.600826 218.319126 
L 182.676299 217.088522 
L 178.836724 215.665074 
L 175.092825 214.053637 
L 171.454987 212.259554 
L 167.933243 210.28864 
L 164.537253 208.147168 
L 161.276282 205.841866 
L 158.159171 203.379901 
L 155.194308 200.768873 
L 152.389595 198.016793 
L 149.752406 195.132067 
L 147.289561 192.123467 
L 145.007282 189.000098 
L 142.911167 185.771359 
L 141.006158 182.44689 
L 139.296535 179.03652 
L 137.785906 175.550204 
L 136.477226 171.997962 
L 135.372821 168.389825 
L 134.474423 164.735784 
L 133.783221 161.045752 
L 133.299907 157.329541 
L 133.024729 153.596855 
L 132.957526 149.857292 
L 133.097755 146.12036 
L 133.444509 142.395487 
L 133.996518 138.692043 
L 134.752148 135.019352 
L 135.709381 131.386703 
L 136.865786 127.803358 
L 138.218488 124.278536 
L 139.764143 120.821389 
L 141.498915 117.440971 
L 143.418481 114.146203 
L 145.518022 110.945841 
L 147.79224 107.848446 
L 150.235355 104.862362 
L 152.841116 101.995689 
L 155.602794 99.256252 
L 158.513192 96.651568 
L 161.912057 93.924222 
L 165.473903 91.381329 
L 169.186964 89.031455 
L 173.03897 86.882426 
L 177.017268 84.941322 
L 181.108931 83.214512 
L 185.30082 81.707723 
L 189.579602 80.426102 
L 193.931728 79.374256 
L 198.343401 78.556255 
L 202.800545 77.975595 
L 207.288813 77.635158 
L 211.793605 77.537149 
L 216.30011 77.683064 
L 220.793365 78.073662 
L 225.258288 78.708957 
L 229.239969 79.48934 
L 233.175341 80.466266 
L 237.053301 81.638154 
L 240.862752 83.002884 
L 244.592638 84.557785 
L 248.231983 86.299621 
L 251.76994 88.224589 
L 255.195826 90.328336 
L 258.499145 92.60597 
L 261.669608 95.052063 
L 264.697151 97.660648 
L 267.571962 100.425212 
L 270.284519 103.338683 
L 272.825621 106.393422 
L 275.18644 109.581219 
L 277.358575 112.89328 
L 279.33412 116.320235 
L 281.105734 119.852142 
L 282.666721 123.47852 
L 284.011101 127.188381 
L 285.133683 130.970289 
L 286.030127 134.812437 
L 286.69698 138.70273 
L 287.131701 142.628886 
L 287.332649 146.578526 
L 287.299056 150.539271 
L 287.030969 154.49881 
L 286.529175 158.444958 
L 285.795126 162.365669 
L 284.830891 166.249033 
L 283.639121 170.083263 
L 282.223048 173.856672 
L 280.586494 177.557676 
L 278.733897 181.174779 
L 276.670357 184.69659 
L 274.401696 188.111854 
L 271.934506 191.409525 
L 269.276173 194.578845 
L 266.43487 197.609444 
L 263.419513 200.491415 
L 260.239716 203.215375 
L 256.905733 205.772509 
L 253.42841 208.154609 
L 249.81914 210.354105 
L 246.089824 212.364102 
L 242.252831 214.178431 
L 238.320937 215.791711 
L 234.307243 217.199413 
L 230.225056 218.3979 
L 226.087753 219.384428 
L 221.908668 220.157095 
L 217.701013 220.714765 
L 213.477839 221.056997 
L 209.252036 221.183988 
L 205.036327 221.096545 
L 200.843272 220.796074 
L 196.685249 220.284592 
L 192.574427 219.564723 
L 188.522719 218.6397 
L 184.541745 217.51335 
L 180.642786 216.190068 
L 176.836753 214.674789 
L 173.134167 212.97295 
L 169.545133 211.090464 
L 166.079334 209.033693 
L 162.746011 206.809426 
L 159.553946 204.42486 
L 156.511438 201.887578 
L 153.626284 199.205521 
L 150.905755 196.386952 
L 148.356591 193.44042 
L 145.985 190.374723 
L 143.796663 187.198877 
L 141.796743 183.922098 
L 139.989887 180.553776 
L 138.380223 177.103465 
L 136.971361 173.580869 
L 135.766377 169.995824 
L 134.76781 166.358284 
L 133.97764 162.678303 
L 133.397278 158.966009 
L 133.027549 155.231581 
L 132.868682 151.485214 
L 132.920297 147.737082 
L 133.181407 143.997296 
L 133.650423 140.275861 
L 134.325173 136.582628 
L 135.202927 132.927256 
L 136.280437 129.319168 
L 137.553979 125.767526 
L 139.019402 122.281204 
L 140.672181 118.868785 
L 142.722434 115.173956 
L 144.990941 111.591568 
L 147.47026 108.132219 
L 150.15258 104.806171 
L 153.029725 101.623389 
L 156.093128 98.59357 
L 159.333799 95.726161 
L 162.742271 93.030357 
L 166.308549 90.515064 
L 170.022074 88.188847 
L 173.871712 86.05986 
L 177.845768 84.135789 
L 181.932009 82.423793 
L 186.117691 80.930462 
L 190.389579 79.661769 
L 194.733974 78.623022 
L 199.13674 77.818807 
L 203.583349 77.252918 
L 208.058947 76.928292 
L 212.548456 76.846957 
L 217.036706 77.01002 
L 221.508553 77.417709 
L 225.94896 78.069457 
L 229.906121 78.863661 
L 233.814947 79.85315 
L 237.664686 81.036134 
L 241.444615 82.410392 
L 245.144032 83.973245 
L 248.752276 85.721516 
L 252.258764 87.651501 
L 255.653039 89.758943 
L 258.924815 92.039036 
L 262.064025 94.486423 
L 265.060849 97.095209 
L 267.905744 99.85897 
L 270.589463 102.770756 
L 273.103093 105.823091 
L 275.438087 109.007966 
L 277.586318 112.316842 
L 279.540138 115.740669 
L 281.292419 119.269917 
L 282.83659 122.894612 
L 284.166654 126.604372 
L 285.277204 130.38843 
L 286.163446 134.235646 
L 286.821224 138.134533 
L 287.247057 142.073261 
L 287.438179 146.039689 
L 287.392586 150.021384 
L 287.109096 154.005666 
L 286.587397 157.979653 
L 285.828097 161.930328 
L 284.832765 165.84461 
L 283.603957 169.70944 
L 282.145237 173.511877 
L 280.461167 177.239209 
L 278.557271 180.87906 
L 276.439972 184.419487 
L 274.116505 187.849059 
L 271.594815 191.156907 
L 268.883448 194.332754 
L 265.991452 197.366903 
L 262.928303 200.25021 
L 259.703861 202.974047 
L 256.32835 205.530277 
L 252.81236 207.911238 
L 249.166851 210.109742 
L 245.403168 212.119084 
L 241.53306 213.933074 
L 237.568689 215.546094 
L 233.522615 216.953166 
L 229.40775 218.150021 
L 225.237289 219.133153 
L 221.024628 219.899844 
L 216.783295 220.448177 
L 212.526875 220.777032 
L 208.268956 220.886084 
L 204.023073 220.775795 
L 199.802658 220.447422 
L 195.620977 219.903021 
L 191.491052 219.145458 
L 187.425568 218.178407 
L 183.436768 217.006307 
L 179.536369 215.634292 
L 175.735506 214.068095 
L 172.044729 212.313943 
L 168.474015 210.378483 
L 165.03281 208.268724 
L 161.73005 205.992017 
L 158.574178 203.556038 
L 155.57314 200.968786 
L 152.734372 198.238572 
L 150.064778 195.374005 
L 147.570711 192.38396 
L 145.257961 189.277546 
L 143.131755 186.064072 
L 141.196754 182.753006 
L 139.457071 179.353954 
L 137.916273 175.876628 
L 136.577391 172.330833 
L 135.442919 168.726445 
L 134.514817 165.073392 
L 133.794507 161.381629 
L 133.282877 157.661106 
L 132.980296 153.921744 
L 132.886628 150.173409 
L 133.001257 146.425896 
L 133.323103 142.688916 
L 133.850628 138.972093 
L 134.581846 135.284954 
L 135.514325 131.636919 
L 136.645183 128.037292 
L 137.97109 124.495246 
L 139.488259 121.019813 
L 141.192445 117.619858 
L 143.07894 114.304059 
L 145.382559 110.728824 
L 147.897099 107.279175 
L 150.614127 103.96593 
L 153.524569 100.799417 
L 156.618764 97.789429 
L 159.886524 94.945185 
L 163.317213 92.275303 
L 166.899816 89.787789 
L 170.62302 87.49005 
L 174.475284 85.388919 
L 178.444882 83.490705 
L 182.519925 81.80125 
L 186.688346 80.325973 
L 190.93788 79.069901 
L 195.256017 78.037685 
L 199.629963 77.233597 
L 204.046579 76.661498 
L 208.492349 76.324773 
L 212.953365 76.226255 
L 217.415351 76.368132 
L 221.863715 76.751885 
L 226.283603 77.378227 
L 230.224716 78.149292 
L 234.119487 79.116141 
L 237.956771 80.277549 
L 241.725392 81.631682 
L 245.414186 83.176076 
L 249.012063 84.907603 
L 252.508076 86.822455 
L 255.891508 88.916147 
L 259.151961 91.183553 
L 262.279408 93.618975 
L 265.26422 96.216215 
L 268.097145 98.968636 
L 270.769278 101.869197 
L 273.272034 104.910446 
L 275.597147 108.084501 
L 277.736694 111.38302 
L 279.683142 114.797174 
L 281.429418 118.317647 
L 282.968967 121.934646 
L 284.295805 125.637936 
L 285.404558 129.416873 
L 286.290484 133.260447 
L 286.949493 137.15731 
L 287.378164 141.095801 
L 287.573778 145.063973 
L 287.534349 149.049617 
L 287.258674 153.040308 
L 286.746365 157.023457 
L 285.997863 160.98638 
L 285.014444 164.916357 
L 283.798201 168.800689 
L 282.352036 172.626731 
L 280.679652 176.38193 
L 278.785554 180.053859 
L 276.675061 183.630254 
L 274.35431 187.099063 
L 271.830276 190.4485 
L 269.110773 193.667117 
L 266.204453 196.743872 
L 263.120787 199.668218 
L 259.870034 202.430175 
L 256.463203 205.02042 
L 252.911982 207.430374 
L 249.228657 209.652282 
L 245.426 211.679272 
L 241.517142 213.505386 
L 237.515454 215.125586 
L 233.434428 216.535727 
L 229.287575 217.732503 
L 225.088351 218.713385 
L 220.850118 219.476546 
L 216.586129 220.020801 
L 212.309528 220.345574 
L 208.033355 220.450868 
L 203.770554 220.337261 
L 199.533979 220.00591 
L 195.336387 219.458574 
L 191.190422 218.697647 
L 187.10857 217.726193 
L 183.103094 216.547972 
L 179.185963 215.167433 
L 175.368784 213.589704 
L 171.662748 211.820549 
L 168.078588 209.866338 
L 164.62654 207.734009 
L 161.316314 205.43104 
L 158.157057 202.965416 
L 155.157316 200.345609 
L 152.324984 197.58054 
L 149.667249 194.679533 
L 147.19055 191.652244 
L 144.900554 188.508573 
L 142.80218 185.258565 
L 140.899635 181.912335 
L 139.196486 178.480009 
L 137.695716 174.971696 
L 136.399772 171.397485 
L 135.310596 167.767442 
L 134.429631 164.091621 
L 133.757822 160.380055 
L 133.295613 156.64275 
L 133.04294 152.889662 
L 132.999238 149.130676 
L 133.163448 145.375579 
L 133.534043 141.634041 
L 134.109035 137.915596 
L 134.886004 134.229634 
L 135.862104 130.585393 
L 137.034075 126.991947 
L 138.398248 123.4582 
L 140.134453 119.612428 
L 142.096754 115.862774 
L 144.278428 112.22056 
L 146.672214 108.696751 
L 149.270346 105.301951 
L 152.064576 102.0464 
L 155.04618 98.939976 
L 158.205963 95.992184 
L 161.534254 93.212146 
L 165.020913 90.60858 
L 168.655316 88.189775 
L 172.426366 85.96356 
L 176.322486 83.937267 
L 180.331638 82.117676 
L 184.441345 80.510971 
L 188.638734 79.122689 
L 192.910583 77.957679 
L 197.243393 77.020069 
L 201.623455 76.313252 
L 206.036931 75.839885 
L 210.469923 75.601902 
L 214.908536 75.600556 
L 219.338927 75.836468 
L 223.74731 76.309692 
L 228.119944 77.019763 
L 232.443091 77.96572 
L 236.702982 79.146115 
L 240.885773 80.558992 
L 244.572831 82.02729 
L 248.175872 83.679611 
L 251.684558 85.513227 
L 255.088509 87.524883 
L 258.377358 89.710753 
L 261.540814 92.066405 
L 264.568728 94.58679 
L 267.451146 97.26624 
L 270.178366 100.098463 
L 272.740979 103.076545 
L 275.129923 106.192952 
L 277.336538 109.439521 
L 279.352626 112.807462 
L 281.170545 116.287366 
L 282.783295 119.869243 
L 284.184608 123.542599 
L 285.368989 127.296536 
L 286.331708 131.119859 
L 287.068755 135.001152 
L 287.576785 138.928815 
L 287.853081 142.891063 
L 287.895556 146.875913 
L 287.702783 150.871179 
L 287.274054 154.864476 
L 286.609428 158.84326 
L 285.709781 162.794881 
L 284.576826 166.706651 
L 283.213117 170.565904 
L 281.622035 174.360057 
L 279.807778 178.076655 
L 277.775346 181.703417 
L 275.530541 185.228275 
L 273.079965 188.639422 
L 270.43102 191.925378 
L 267.59189 195.075055 
L 264.571506 198.077827 
L 261.379494 200.923588 
L 258.026116 203.602789 
L 254.522221 206.106465 
L 250.879201 208.426252 
L 247.10896 210.554412 
L 243.223884 212.483861 
L 239.236806 214.208203 
L 235.160978 215.721773 
L 231.010024 217.019686 
L 226.797884 218.097883 
L 222.538754 218.953179 
L 218.247003 219.583299 
L 213.937092 219.986911 
L 209.623472 220.163653 
L 205.320477 220.114136 
L 201.042208 219.839923 
L 196.802431 219.34349 
L 192.614482 218.628152 
L 188.491202 217.697989 
L 184.444886 216.557744 
L 180.487263 215.212733 
L 176.629507 213.668756 
L 172.882261 211.932027 
L 169.255666 210.009132 
L 165.759394 207.907006 
L 162.402665 205.632914 
L 159.194267 203.194454 
L 156.142555 200.599564 
L 153.255445 197.856532 
L 150.54038 194.974016 
L 148.004287 191.961038 
L 145.653532 188.826964 
L 143.493878 185.581475 
L 141.530464 182.234519 
L 139.767792 178.796268 
L 138.209717 175.277078 
L 136.859445 171.687455 
L 135.719525 168.03802 
L 134.791839 164.339474 
L 134.077591 160.602559 
L 133.577291 156.838014 
L 133.290755 153.056511 
L 133.217123 149.268593 
L 133.3549 145.484604 
L 133.702022 141.714639 
L 134.255931 137.96852 
L 135.013641 134.255792 
L 135.971792 130.58574 
L 137.126682 126.967406 
L 138.474273 123.409614 
L 140.010196 119.920975 
L 141.931923 116.13603 
L 144.07338 112.45804 
L 146.427095 108.897856 
L 148.98509 105.465946 
L 151.738914 102.172377 
L 154.679664 99.026797 
L 157.79802 96.038435 
L 161.084249 93.216099 
L 164.528225 90.568167 
L 168.119429 88.102573 
L 171.846964 85.826788 
L 175.699574 83.747798 
L 179.665677 81.872086 
L 183.73339 80.205637 
L 187.890549 78.753932 
L 192.124718 77.521957 
L 196.423191 76.514187 
L 200.772989 75.734578 
L 205.160865 75.186538 
L 209.573306 74.872901 
L 213.996546 74.795887 
L 218.416578 74.95706 
L 222.819188 75.357275 
L 227.189998 75.996627 
L 231.514526 76.874412 
L 235.778252 77.989081 
L 239.966709 79.338226 
L 243.660119 80.750245 
L 247.270661 82.346575 
L 250.788241 84.123713 
L 254.203002 86.077652 
L 257.505344 88.203933 
L 260.685937 90.497679 
L 263.735704 92.953641 
L 266.645804 95.566216 
L 269.407597 98.329457 
L 272.012637 101.237057 
L 274.452649 104.282331 
L 276.71954 107.458182 
L 278.805405 110.75706 
L 280.702571 114.170914 
L 282.40366 117.691144 
L 283.901677 121.308585 
L 285.1901 125.013504 
L 286.262963 128.795627 
L 287.114916 132.644179 
L 287.741279 136.547924 
L 288.138079 140.4952 
L 288.302094 144.473958 
L 288.230888 148.471795 
L 287.922876 152.475989 
L 287.37738 156.473549 
L 286.594709 160.451304 
L 285.576199 164.39602 
L 284.32421 168.294536 
L 282.842059 172.133892 
L 281.133915 175.9014 
L 279.204708 179.584668 
L 277.060065 183.171591 
L 274.706298 186.650337 
L 272.150412 190.009356 
L 269.400135 193.237411 
L 266.463929 196.323636 
L 263.35099 199.257606 
L 260.071214 202.029406 
L 256.635151 204.629698 
L 253.053944 207.049756 
L 249.339275 209.281506 
L 245.50331 211.317542 
L 241.558657 213.151158 
L 237.518327 214.776368 
L 233.395687 216.187953 
L 229.204402 217.381488 
L 224.958361 218.353383 
L 220.671595 219.100886 
L 216.358203 219.622077 
L 212.032291 219.915849 
L 207.707925 219.981887 
L 203.399092 219.820657 
L 199.119664 219.433396 
L 194.883352 218.822112 
L 190.703665 217.989586 
L 186.593856 216.939372 
L 182.566866 215.6758 
L 178.63526 214.203968 
L 174.811157 212.529733 
L 171.10616 210.659683 
L 167.531287 208.601101 
L 164.096895 206.361922 
L 160.812627 203.950657 
L 157.687364 201.376322 
L 154.729202 198.648344 
L 151.945443 195.776473 
L 149.342606 192.770694 
L 146.92646 189.64114 
L 144.702074 186.398021 
L 142.673873 183.051574 
L 140.845699 179.612037 
L 139.220863 176.089634 
L 137.802174 172.494581 
L 136.591975 168.837089 
L 135.59215 165.127377 
L 134.804128 161.375688 
L 134.228867 157.592298 
L 133.86683 153.787518 
L 133.717951 149.971676 
L 133.78162 146.155092 
L 134.056666 142.348036 
L 134.541364 138.560697 
L 135.233442 134.803148 
L 136.130089 131.08532 
L 137.227969 127.41697 
L 138.523221 123.807661 
L 140.011471 120.266731 
L 141.687836 116.803259 
L 143.546938 113.426026 
L 145.58293 110.143472 
L 148.044963 106.617022 
L 150.708494 103.227858 
L 153.563952 99.985807 
L 156.601424 96.900091 
L 159.810725 93.979375 
L 163.181424 91.231834 
L 166.702843 88.665184 
L 170.364038 86.286706 
L 174.153776 84.103236 
L 178.06053 82.121148 
L 182.072483 80.34632 
L 186.17755 78.784114 
L 190.363405 77.439362 
L 194.617503 76.316358 
L 198.927101 75.418858 
L 203.279268 74.75008 
L 207.660894 74.312687 
L 212.058698 74.108776 
L 216.459249 74.139848 
L 220.848998 74.406787 
L 225.214308 74.909854 
L 229.54149 75.648683 
L 233.816818 76.622281 
L 238.026545 77.829031 
L 242.156909 79.266672 
L 246.194149 80.932282 
L 249.736686 82.623269 
L 253.182677 84.492848 
L 256.522192 86.537375 
L 259.745389 88.752677 
L 262.842554 91.134028 
L 265.804149 93.676133 
L 268.620864 96.373114 
L 271.283677 99.218501 
L 273.783918 102.205241 
L 276.113335 105.325719 
L 278.264156 108.571786 
L 280.229133 111.934815 
L 282.001582 115.405753 
L 283.575391 118.975184 
L 284.94502 122.633389 
L 286.105473 126.370398 
L 287.052264 130.176016 
L 287.781382 134.039831 
L 288.289275 137.951208 
L 288.572848 141.899269 
L 288.629474 145.87287 
L 288.457028 149.860583 
L 288.053938 153.850671 
L 287.419262 157.831083 
L 286.552779 161.789474 
L 285.455075 165.713259 
L 284.127605 169.589687 
L 282.57273 173.405922 
L 280.793726 177.149129 
L 278.794789 180.806534 
L 276.581035 184.365491 
L 274.158496 187.813541 
L 271.534136 191.138474 
L 268.715859 194.328414 
L 265.712516 197.37192 
L 262.533876 200.258123 
L 259.19054 202.976861 
L 255.693801 205.518766 
L 252.05549 207.8753 
L 248.287844 210.038721 
L 244.40343 212.002033 
L 240.415112 213.758942 
L 236.336048 215.303847 
L 232.179684 216.631853 
L 227.959737 217.738814 
L 223.690151 218.621381 
L 219.385034 219.277039 
L 215.058578 219.704129 
L 210.72498 219.901846 
L 206.398373 219.870223 
L 202.092769 219.610109 
L 197.822009 219.123145 
L 193.599721 218.411749 
L 189.439277 217.479107 
L 185.353739 216.329165 
L 181.355793 214.966608 
L 177.457692 213.396828 
L 173.671204 211.625876 
L 170.00758 209.660402 
L 166.477543 207.507613 
L 163.091272 205.175231 
L 159.858392 202.67147 
L 156.787952 200.005002 
L 153.888405 197.184938 
L 151.167583 194.220802 
L 148.632673 191.1225 
L 146.290183 187.900296 
L 144.145915 184.564774 
L 142.204932 181.126797 
L 140.471531 177.597457 
L 138.949226 173.988014 
L 137.640736 170.309835 
L 136.547991 166.574318 
L 135.672153 162.792825 
L 135.013647 158.976618 
L 134.572203 155.136793 
L 134.346916 151.284234 
L 134.336306 147.429566 
L 134.538391 143.583139 
L 134.950751 139.755022 
L 135.57058 135.955013 
L 136.394732 132.192661 
L 137.419733 128.477293 
L 138.641805 124.818028 
L 140.056855 121.223808 
L 141.660472 117.703405 
L 143.447898 114.265434 
L 145.414009 110.918338 
L 147.801426 107.315954 
L 150.394484 103.846935 
L 153.184446 100.521883 
L 156.162 97.350957 
L 159.317287 94.343837 
L 162.639928 91.509694 
L 166.11905 88.85716 
L 169.743307 86.394288 
L 173.500909 84.128519 
L 177.379655 82.066631 
L 181.366995 80.21469 
L 185.450111 78.578023 
L 189.616019 77.161213 
L 193.851655 75.968142 
L 198.143939 75.002051 
L 202.47979 74.265615 
L 206.846115 73.760986 
L 211.229776 73.489819 
L 215.617567 73.453259 
L 219.996204 73.651915 
L 224.352332 74.085821 
L 228.672558 74.754407 
L 232.943478 75.656483 
L 237.151719 76.790228 
L 241.283959 78.153192 
L 245.326951 79.7423 
L 249.267539 81.55384 
L 252.715726 83.370812 
L 256.060979 85.360783 
L 259.293999 87.519654 
L 262.405634 89.842867 
L 265.386907 92.325408 
L 268.229045 94.961809 
L 270.923493 97.74616 
L 273.46193 100.672111 
L 275.836283 103.732868 
L 278.038745 106.921193 
L 280.061799 110.229387 
L 281.898246 113.649285 
L 283.541248 117.172242 
L 284.984373 120.789129 
L 286.221651 124.490331 
L 287.247632 128.265752 
L 288.057452 132.10484 
L 288.646891 135.996605 
L 289.012441 139.929663 
L 289.151365 143.892293 
L 289.061744 147.872508 
L 288.742504 151.858142 
L 288.193415 155.836934 
L 287.415074 159.796607 
L 286.408863 163.724948 
L 285.176888 167.609848 
L 283.72192 171.439336 
L 282.047345 175.201579 
L 280.157134 178.884865 
L 278.055839 182.477598 
L 275.748607 185.968287 
L 273.241203 189.345542 
L 270.540053 192.598091 
L 267.652303 195.714802 
L 264.585873 198.684753 
L 261.349502 201.497318 
L 257.952749 204.142273 
L 254.405967 206.609897 
L 250.720252 208.891053 
L 246.907388 210.977251 
L 242.979792 212.860696 
L 238.950463 214.534345 
L 234.832937 215.991951 
L 230.641232 217.228135 
L 226.38978 218.238458 
L 222.093325 219.019509 
L 217.766771 219.568965 
L 213.42502 219.885595 
L 209.082806 219.969198 
L 204.754602 219.8205 
L 200.454566 219.441045 
L 196.196547 218.833114 
L 191.994093 217.999679 
L 187.860453 216.944398 
L 183.808563 215.67162 
L 179.851 214.186398 
L 175.999924 212.494487 
L 172.267017 210.602318 
L 168.663426 208.516957 
L 165.199727 206.246057 
L 161.885901 203.797798 
L 158.731312 201.180844 
L 155.744705 198.404302 
L 152.934191 195.477682 
L 150.307225 192.410875 
L 147.870582 189.214108 
L 145.630338 185.897901 
L 143.591858 182.473003 
L 141.75981 178.950344 
L 140.138176 175.340983 
L 138.730281 171.656078 
L 137.538798 167.906861 
L 136.56576 164.104612 
L 135.812561 160.260639 
L 135.279957 156.386248 
L 134.968069 152.492722 
L 134.87638 148.591293 
L 135.003729 144.693116 
L 135.348312 140.809225 
L 135.90768 136.950503 
L 136.678748 133.127632 
L 137.657814 129.351044 
L 138.840581 125.630883 
L 140.222198 121.976951 
L 141.797302 118.398674 
L 143.560077 114.905074 
L 145.504307 111.504741 
L 147.623443 108.205828 
L 150.174867 104.668686 
L 152.924126 101.276249 
L 155.861293 98.037914 
L 158.976224 94.962551 
L 162.258571 92.058563 
L 165.697772 89.333927 
L 169.28303 86.796226 
L 173.003276 84.452665 
L 176.847129 82.310053 
L 180.802856 80.374779 
L 184.858367 78.652744 
L 189.001217 77.149313 
L 193.218647 75.869265 
L 197.49762 74.816755 
L 201.824859 73.995295 
L 206.186887 73.407736 
L 210.570052 73.056244 
L 214.960566 72.942281 
L 219.344538 73.066572 
L 223.708026 73.429068 
L 228.037116 74.028925 
L 232.318012 74.864499 
L 236.537126 75.933391 
L 240.681137 77.232514 
L 244.737001 78.758181 
L 248.691935 80.506155 
L 252.53338 82.47168 
L 255.883424 84.422303 
L 259.122646 86.540629 
L 262.242303 88.822027 
L 265.233816 91.261459 
L 268.088796 93.853466 
L 270.799081 96.592167 
L 273.356754 99.471266 
L 275.75417 102.484061 
L 277.98397 105.623446 
L 280.0391 108.881917 
L 281.912824 112.251574 
L 283.598759 115.724114 
L 285.090898 119.290833 
L 286.383654 122.942636 
L 287.471897 126.670047 
L 288.350981 130.46324 
L 289.016767 134.312057 
L 289.465641 138.206036 
L 289.694521 142.134421 
L 289.700884 146.08618 
L 289.48278 150.05001 
L 289.038873 154.014348 
L 288.368476 157.967391 
L 287.471596 161.897118 
L 286.348987 165.791324 
L 285.002195 169.637662 
L 283.433604 173.423707 
L 281.646473 177.137014 
L 279.644971 180.765201 
L 277.434189 184.296039 
L 275.020139 187.717557 
L 272.409723 191.018138 
L 269.61067 194.186615 
L 266.631469 197.21234 
L 263.481273 200.085237 
L 260.169806 202.795824 
L 256.707277 205.335214 
L 253.104305 207.69509 
L 249.37189 209.867666 
L 245.521394 211.845674 
L 241.564545 213.622349 
L 237.513444 215.191436 
L 233.380578 216.547206 
L 229.178843 217.684494 
L 224.921555 218.598768 
L 220.622431 219.286215 
L 216.295536 219.743831 
L 211.9552 219.96949 
L 207.615923 219.961982 
L 203.292284 219.721029 
L 198.998866 219.247291 
L 194.750175 218.542367 
L 190.560577 217.608801 
L 186.44421 216.450093 
L 182.414899 215.070701 
L 178.48604 213.476049 
L 174.67047 211.672492 
L 170.98034 209.667238 
L 167.427028 207.468223 
L 164.021113 205.083965 
L 160.772396 202.523444 
L 157.689957 199.796004 
L 154.782209 196.911315 
L 152.056925 193.879355 
L 149.521253 190.710407 
L 147.18169 187.415056 
L 145.044057 184.004167 
L 143.11347 180.488854 
L 141.394319 176.880424 
L 139.890268 173.190331 
L 138.604261 169.430118 
L 137.538546 165.611373 
L 136.694689 161.745697 
L 136.073594 157.844672 
L 135.675513 153.919836 
L 135.500047 149.982653 
L 135.546158 146.044475 
L 135.812181 142.116504 
L 136.295855 138.209749 
L 136.99436 134.335005 
L 137.904347 130.50283 
L 139.021967 126.723537 
L 140.342894 123.007186 
L 141.862334 119.363573 
L 143.575039 115.802216 
L 145.47532 112.332344 
L 147.55705 108.962883 
L 149.813674 105.702434 
L 152.23822 102.559252 
L 154.823303 99.541216 
L 157.561153 96.655805 
L 160.443627 93.910066 
L 163.805677 91.031049 
L 167.323747 88.340911 
L 170.985404 85.847206 
L 174.777925 83.556701 
L 178.688387 81.475376 
L 182.703759 79.608449 
L 186.810977 77.960416 
L 190.997004 76.535118 
L 195.24886 75.335811 
L 199.553622 74.365234 
L 203.898401 73.625658 
L 208.270312 73.118914 
L 212.656433 72.846404 
L 217.043766 72.809094 
L 221.419208 73.007476 
L 225.769531 73.441515 
L 230.081403 74.110587 
L 234.341423 75.013422 
L 238.536176 76.148065 
L 242.652295 77.511856 
L 246.676505 79.101425 
L 250.595668 80.912689 
L 254.022383 82.72842 
L 257.344207 84.715831 
L 260.552006 86.870422 
L 263.636856 89.18719 
L 266.590089 91.660625 
L 269.403354 94.284716 
L 272.068669 97.052992 
L 274.578459 99.958569 
L 276.925563 102.99421 
L 279.103216 106.152371 
L 281.105022 109.425232 
L 282.924931 112.804695 
L 284.55723 116.282382 
L 285.99655 119.849608 
L 287.237894 123.497373 
L 288.276672 127.216356 
L 289.108742 130.996918 
L 289.730441 134.829122 
L 290.138618 138.702754 
L 290.33065 142.607352 
L 290.304456 146.532223 
L 290.058514 150.466462 
L 289.591879 154.398976 
L 288.904204 158.318491 
L 287.995776 162.213586 
L 286.867542 166.07272 
L 285.521136 169.884279 
L 283.958889 173.636624 
L 282.183829 177.318135 
L 280.199676 180.917246 
L 278.010838 184.422477 
L 275.622412 187.822458 
L 273.0402 191.105959 
L 270.270713 194.261921 
L 267.321198 197.279505 
L 264.199647 200.148143 
L 260.914809 202.857599 
L 257.476196 205.398046 
L 253.894073 207.760145 
L 250.179434 209.935128 
L 246.343965 211.91489 
L 242.399981 213.692073 
L 238.360344 215.260147 
L 234.23836 216.61347 
L 230.047667 217.747314 
L 225.802123 218.657884 
L 221.515696 219.342298 
L 217.202364 219.798546 
L 212.876043 220.025432 
L 208.550538 220.022504 
L 204.239533 219.789991 
L 199.95659 219.328775 
L 195.715156 218.640364 
L 191.528564 217.726896 
L 187.410039 216.591143 
L 183.372694 215.236548 
L 179.4295 213.667272 
L 175.593229 211.888247 
L 171.876366 209.905206 
L 168.291009 207.724691 
L 164.848785 205.354025 
L 161.560777 202.801269 
L 158.437466 200.075182 
L 155.488683 197.185179 
L 152.723551 194.141287 
L 150.150434 190.95411 
L 147.776873 187.634775 
L 145.609515 184.19487 
L 143.654058 180.646356 
L 141.915209 177.001442 
L 140.396709 173.272458 
L 139.101387 169.471731 
L 138.03126 165.611507 
L 137.187621 161.703909 
L 136.57111 157.760935 
L 136.181754 153.79446 
L 136.018982 149.816252 
L 136.081613 145.837961 
L 136.367853 141.871102 
L 136.875285 137.927019 
L 137.600884 134.016846 
L 138.541039 130.151469 
L 139.691583 126.341491 
L 141.047833 122.597213 
L 142.60462 118.928617 
L 144.356315 115.345357 
L 146.296851 111.856751 
L 148.419738 108.471761 
L 150.71808 105.198975 
L 153.184605 102.046591 
L 155.811698 99.022391 
L 158.591432 96.133743 
L 161.515608 93.387599 
L 164.575774 90.790498 
L 167.763246 88.348574 
L 171.443356 85.824277 
L 175.257123 83.505889 
L 179.191728 81.400052 
L 183.234065 79.512765 
L 187.370754 77.84936 
L 191.588169 76.41447 
L 195.87247 75.212003 
L 200.209645 74.245107 
L 204.585564 73.516142 
L 208.986041 73.026664 
L 213.396907 72.777412 
L 217.804091 72.768316 
L 222.193695 72.998533 
L 226.55206 73.466485 
L 230.865822 74.16993 
L 235.121935 75.106035 
L 239.307672 76.27145 
L 243.410597 77.66237 
L 247.418529 79.274573 
L 251.319492 81.10343 
L 255.101681 83.143902 
L 258.753436 85.390507 
L 262.263222 87.83728 
L 265.291225 90.205153 
L 268.186818 92.724737 
L 270.941976 95.390447 
L 273.548873 98.196263 
L 275.999934 101.135721 
L 278.287865 104.201927 
L 280.405692 107.387563 
L 282.346782 110.684898 
L 284.104872 114.085794 
L 285.674096 117.581712 
L 287.049023 121.163713 
L 288.224701 124.822468 
L 289.196712 128.548274 
L 289.961233 132.331097 
L 290.515073 136.160635 
L 290.855686 140.026391 
L 290.981154 143.917742 
L 290.890142 147.823987 
L 290.581856 151.734363 
L 290.056014 155.638045 
L 289.312847 159.524133 
L 288.35311 163.381644 
L 287.178121 167.199515 
L 285.789794 170.966626 
L 284.190676 174.671829 
L 282.383967 178.303996 
L 280.373527 181.852066 
L 278.163877 185.305079 
L 275.76019 188.652223 
L 273.168285 191.882856 
L 270.39463 194.986543 
L 267.446342 197.953086 
L 264.331192 200.772571 
L 261.057605 203.435416 
L 257.634645 205.932437 
L 254.071982 208.254893 
L 250.379851 210.394531 
L 246.569019 212.343609 
L 242.650749 214.094921 
L 238.63679 215.641819 
L 234.539352 216.978244 
L 230.371086 218.09877 
L 226.145062 218.998645 
L 221.874731 219.673842 
L 217.573889 220.121114 
L 213.256621 220.338051 
L 208.937236 220.323137 
L 204.630184 220.075798 
L 200.349961 219.596441 
L 196.111 218.886477 
L 191.927556 217.948317 
L 187.813597 216.785349 
L 183.782695 215.401888 
L 179.847947 213.80311 
L 176.0219 211.994973 
L 172.316502 209.98412 
L 168.74309 207.77778 
L 165.312405 205.383679 
L 162.034621 202.809984 
L 158.919379 200.065265 
L 155.975809 197.158484 
L 153.21254 194.098986 
L 150.63771 190.896512 
L 148.258946 187.561218 
L 146.083324 184.103699 
L 144.117299 180.534994 
L 142.36663 176.866562 
L 140.836313 173.110239 
L 139.530542 169.278164 
L 138.45268 165.38272 
L 137.605252 161.436462 
L 136.989938 157.452068 
L 136.607561 153.442275 
L 136.458082 149.419824 
L 136.540588 145.3974 
L 136.853289 141.387554 
L 137.393522 137.402616 
L 138.157794 133.454599 
L 139.141862 129.555106 
L 140.340839 125.715284 
L 141.749303 121.945801 
L 143.361388 118.256866 
L 145.170834 114.658261 
L 147.171022 111.159373 
L 149.35497 107.769207 
L 151.715335 104.49639 
L 154.24441 101.34915 
L 156.934137 98.335296 
L 159.776133 95.462193 
L 162.76172 92.736742 
L 165.881963 90.16538 
L 169.127703 87.754073 
L 172.489588 85.508326 
L 175.95809 83.433186 
L 179.925243 81.333143 
L 183.998575 79.455027 
L 188.164413 77.803772 
L 192.408939 76.383594 
L 196.718244 75.197992 
L 201.078366 74.249766 
L 205.475328 73.541035 
L 209.895158 73.073263 
L 214.323903 72.847268 
L 218.747636 72.863233 
L 223.152469 73.120699 
L 227.524564 73.618551 
L 231.850158 74.355006 
L 236.11559 75.327585 
L 240.307342 76.533101 
L 244.412088 77.967635 
L 248.416746 79.626532 
L 252.308545 81.504394 
L 256.075092 83.595095 
L 259.348013 85.653075 
L 262.501449 87.872508 
L 265.527409 90.24758 
L 268.418283 92.772136 
L 271.166842 95.439725 
L 273.766227 98.243643 
L 276.209924 101.17697 
L 278.491734 104.232586 
L 280.605743 107.403184 
L 282.546301 110.681256 
L 284.308005 114.059082 
L 285.885694 117.528708 
L 287.274457 121.081917 
L 288.469653 124.710202 
L 289.466949 128.404739 
L 290.262369 132.15637 
L 290.852355 135.955609 
L 291.233811 139.792655 
L 291.404152 143.657418 
L 291.361333 147.539549 
L 291.103874 151.428468 
L 290.630883 155.313391 
L 289.94208 159.183351 
L 289.037833 163.027225 
L 287.919187 166.833766 
L 286.587914 170.591651 
L 285.046543 174.289547 
L 283.298381 177.916199 
L 281.347488 181.460517 
L 279.198629 184.911658 
L 276.857198 188.259064 
L 274.329147 191.492474 
L 271.620949 194.60191 
L 268.739579 197.577659 
L 265.692522 200.410269 
L 262.487802 203.090562 
L 259.133998 205.609671 
L 255.640259 207.959091 
L 252.016294 210.130739 
L 248.272349 212.117005 
L 244.419174 213.910794 
L 240.467981 215.505566 
L 236.430411 216.895352 
L 232.318502 218.074783 
L 228.144663 219.039113 
L 223.921648 219.784253 
L 219.662519 220.306816 
L 215.380592 220.604154 
L 211.089376 220.674392 
L 206.8025 220.516432 
L 202.533657 220.129951 
L 198.296568 219.515392 
L 194.104937 218.673969 
L 189.972424 217.607669 
L 185.912594 216.319275 
L 181.938866 214.81237 
L 178.064461 213.091355 
L 174.302339 211.161458 
L 170.665127 209.028741 
L 167.165039 206.700108 
L 163.81379 204.183293 
L 160.6225 201.486832 
L 157.601605 198.620024 
L 154.760774 195.59286 
L 152.108841 192.415944 
L 149.653755 189.100398 
L 147.402556 185.657756 
L 145.361364 182.099862 
L 143.535404 178.43876 
L 141.929049 174.686598 
L 140.545891 170.85556 
L 139.38881 166.95782 
L 138.460035 163.005535 
L 137.761178 159.01084 
L 137.293262 154.98586 
L 137.056727 150.942714 
L 137.051423 146.893532 
L 137.276571 142.850462 
L 137.730723 138.825648 
L 138.41171 134.831193 
L 139.316618 130.87909 
L 140.441783 126.981154 
L 141.782814 123.148958 
L 143.334621 119.393776 
L 145.091449 115.726541 
L 147.046904 112.157799 
L 149.193988 108.697681 
L 151.525122 105.355855 
L 154.032171 102.141486 
L 156.706482 99.063183 
L 159.53894 96.128938 
L 162.520055 93.346088 
L 165.640064 90.721304 
L 168.88903 88.26061 
L 172.256908 85.96944 
L 175.733592 83.852688 
L 179.30892 81.91476 
L 182.972676 80.1596 
L 186.714579 78.590697 
L 190.524282 77.211085 
L 194.824151 75.90329 
L 199.180566 74.835159 
L 203.579201 74.008774 
L 208.005772 73.425491 
L 212.446069 73.085963 
L 216.885988 72.990161 
L 221.311546 73.137395 
L 225.708898 73.526326 
L 230.064356 74.154966 
L 234.364412 75.020681 
L 238.595781 76.120192 
L 242.745425 77.449596 
L 246.800592 79.004388 
L 250.74882 80.779487 
L 254.577951 82.769259 
L 258.276131 84.967527 
L 261.831819 87.367573 
L 264.900828 89.694138 
L 267.837386 92.17258 
L 270.633799 94.796839 
L 273.282639 97.560475 
L 275.776779 100.456665 
L 278.109421 103.478201 
L 280.274129 106.617496 
L 282.264871 109.866594 
L 284.076055 113.21719 
L 285.702567 116.66066 
L 287.139797 120.188096 
L 288.383663 123.790354 
L 289.430613 127.458103 
L 290.277617 131.181872 
L 290.922154 134.952091 
L 291.362172 138.759126 
L 291.596061 142.5933 
L 291.622613 146.444893 
L 291.440996 150.304137 
L 291.050746 154.161198 
L 290.451767 158.006156 
L 289.644338 161.828989 
L 288.629143 165.619552 
L 287.407308 169.367566 
L 285.980451 173.062619 
L 284.350743 176.694185 
L 282.52096 180.251664 
L 280.494516 183.72443 
L 278.275486 187.101888 
L 275.868622 190.373519 
L 273.279347 193.52893 
L 270.513774 196.557896 
L 267.578704 199.450403 
L 264.48164 202.196704 
L 261.230793 204.787379 
L 257.835079 207.213414 
L 254.304094 209.466296 
L 250.648057 211.538098 
L 246.877714 213.421553 
L 243.004232 215.110073 
L 239.039105 216.59774 
L 234.994092 217.879261 
L 230.88119 218.94993 
L 226.712636 219.805606 
L 222.500916 220.442721 
L 218.258769 220.85831 
L 213.999174 221.050061 
L 209.735314 221.016365 
L 205.48052 220.756358 
L 201.248208 220.269946 
L 197.05182 219.557816 
L 192.904759 218.621428 
L 188.820352 217.463014 
L 184.811798 216.085572 
L 180.89213 214.492866 
L 177.074168 212.689437 
L 173.370447 210.680606 
L 169.793149 208.472465 
L 166.354035 206.071842 
L 163.064389 203.486259 
L 159.934993 200.723889 
L 156.976094 197.79352 
L 154.197382 194.704532 
L 151.607954 191.466877 
L 149.216272 188.091053 
L 147.030123 184.588077 
L 145.056575 180.969457 
L 143.301929 177.24716 
L 141.77166 173.433573 
L 140.470368 169.541448 
L 139.401724 165.583841 
L 138.568432 161.574027 
L 137.972201 157.525417 
L 137.613736 153.451458 
L 137.49275 149.365527 
L 137.608007 145.280834 
L 137.957369 141.210332 
L 138.53788 137.166636 
L 139.345854 133.161964 
L 140.376977 129.208105 
L 141.626401 125.31642 
L 143.088807 121.497863 
L 144.758455 117.763008 
L 146.6292 114.122073 
L 148.694508 110.584944 
L 150.947446 107.161189 
L 153.380662 103.860059 
L 155.986362 100.690477 
L 158.756282 97.66099 
L 161.681695 94.779723 
L 164.753426 92.054318 
L 167.961898 89.491888 
L 171.297181 87.098992 
L 174.749038 84.881614 
L 178.306972 82.845152 
L 181.960263 80.994413 
L 185.698 79.333604 
L 189.509114 77.866316 
L 193.382414 76.595509 
L 197.306632 75.52348 
L 201.270498 74.651856 
L 205.262814 73.981602 
L 209.272533 73.513061 
L 213.288808 73.246019 
L 217.746106 73.184761 
L 222.184121 73.369803 
L 226.588888 73.798961 
L 230.946715 74.469477 
L 235.244164 75.378018 
L 239.468064 76.52066 
L 243.605534 77.892884 
L 247.644016 79.48958 
L 251.571307 81.305069 
L 255.375575 83.333123 
L 259.045377 85.566995 
L 262.569661 87.999436 
L 265.937776 90.622706 
L 269.139486 93.428583 
L 271.870636 96.102817 
L 274.452227 98.911249 
L 276.877754 101.846911 
L 279.141045 104.902558 
L 281.236269 108.07068 
L 283.157933 111.343518 
L 284.900885 114.713072 
L 286.460314 118.1711 
L 287.83176 121.709126 
L 289.011125 125.318428 
L 289.994689 128.990048 
L 290.779137 132.714783 
L 291.361585 136.483195 
L 291.739611 140.28562 
L 291.91129 144.112182 
L 291.875225 147.952817 
L 291.630583 151.797301 
L 291.177119 155.635289 
L 290.515199 159.45636 
L 289.64581 163.250072 
L 288.570556 167.006011 
L 287.291644 170.713845 
L 285.811857 174.363365 
L 284.134518 177.944525 
L 282.26345 181.44746 
L 280.20293 184.862497 
L 277.957656 188.180148 
L 275.532726 191.391093 
L 272.93363 194.486161 
L 270.166261 197.456319 
L 267.236933 200.292662 
L 264.152408 202.986412 
L 260.919933 205.528928 
L 257.54729 207.911735 
L 254.042832 210.126576 
L 250.41551 212.165481 
L 246.674875 214.020838 
L 242.831061 215.685466 
L 238.894761 217.15267 
L 234.877198 218.416293 
L 230.790096 219.470763 
L 226.645651 220.311146 
L 222.456498 220.933197 
L 218.23567 221.333432 
L 213.996528 221.509187 
L 209.75268 221.458691 
L 205.517862 221.181106 
L 201.305804 220.67653 
L 197.130116 219.945948 
L 193.004214 218.991157 
L 188.941287 217.814684 
L 184.954302 216.41973 
L 181.056017 214.810143 
L 177.258984 212.990428 
L 173.575533 210.965778 
L 170.01772 208.742099 
L 166.597266 206.326029 
L 163.325474 203.724938 
L 160.213165 200.946897 
L 157.270616 198.000642 
L 154.507522 194.895524 
L 151.932959 191.641469 
L 149.555363 188.248939 
L 147.382497 184.728904 
L 145.421406 181.092807 
L 143.678375 177.352527 
L 142.158881 173.520315 
L 140.867573 169.608728 
L 139.808261 165.630555 
L 138.983934 161.598764 
L 138.396766 157.526448 
L 138.04812 153.426792 
L 137.93855 149.313035 
L 138.067797 145.198425 
L 138.434779 141.096181 
L 139.037584 137.019449 
L 139.873461 132.98125 
L 140.938808 128.994421 
L 142.229173 125.071546 
L 143.739269 121.224889 
L 145.462992 117.466313 
L 147.393457 113.807211 
L 149.523052 110.258424 
L 151.84351 106.830181 
L 154.346 103.532042 
L 157.021225 100.37287 
L 159.859526 97.360818 
L 162.850981 94.503344 
L 165.9855 91.807249 
L 169.252878 89.27873 
L 172.642836 86.923437 
L 176.145031 84.746523 
L 179.749056 82.752674 
L 183.444428 80.94614 
L 187.220573 79.330742 
L 191.066807 77.909868 
L 194.972321 76.68645 
L 198.926183 75.662931 
L 202.917362 74.841222 
L 206.934763 74.222675 
L 210.967279 73.808071 
L 215.003832 73.597616 
L 219.033414 73.590952 
L 223.045121 73.78717 
L 227.028173 74.184818 
L 230.971942 74.781909 
L 234.865974 75.575923 
L 238.700023 76.563798 
L 242.464094 77.741934 
L 246.1485 79.106202 
L 249.743918 80.651987 
L 253.241429 82.374238 
L 256.63253 84.267543 
L 259.909122 86.326192 
L 263.063478 88.544222 
L 266.415981 91.188084 
L 269.598784 94.012236 
L 272.310583 96.700541 
L 274.871049 99.520503 
L 277.274097 102.464927 
L 279.513978 105.526374 
L 281.585292 108.697166 
L 283.483 111.969405 
L 285.20243 115.334989 
L 286.739278 118.78562 
L 288.089609 122.312818 
L 289.249862 125.907928 
L 290.216854 129.562121 
L 290.987793 133.266405 
L 291.560292 137.011625 
L 291.932388 140.78849 
L 292.102548 144.587581 
L 292.069674 148.399379 
L 291.833103 152.214275 
L 291.392604 156.022584 
L 290.748382 159.814548 
L 289.901086 163.580343 
L 288.851821 167.310082 
L 287.60217 170.993828 
L 286.154213 174.621602 
L 284.510551 178.183407 
L 282.674331 181.669252 
L 280.649272 185.06918 
L 278.439686 188.373312 
L 276.050495 191.571888 
L 273.487238 194.655325 
L 270.756073 197.614269 
L 267.863759 200.439654 
L 264.817629 203.12276 
L 261.625553 205.655253 
L 258.295894 208.029228 
L 254.837458 210.237234 
L 251.259436 212.272287 
L 247.571358 214.12787 
L 243.783047 215.797913 
L 239.904598 217.276769 
L 235.94637 218.559195 
L 231.918996 219.640336 
L 227.833393 220.515727 
L 223.700785 221.181303 
L 219.532725 221.633421 
L 215.341116 221.868904 
L 211.138224 221.885109 
L 206.936661 221.680007 
L 202.749344 221.252258 
L 198.58943 220.601273 
L 194.470252 219.727261 
L 190.405246 218.631256 
L 186.40789 217.315138 
L 182.491636 215.781662 
L 178.669843 214.034473 
L 174.955695 212.07813 
L 171.36211 209.918127 
L 167.901622 207.560899 
L 164.586258 205.013794 
L 161.427408 202.285007 
L 158.435745 199.383468 
L 155.621194 196.318715 
L 152.992951 193.100782 
L 150.55953 189.740134 
L 148.328801 186.247636 
L 146.307997 182.634558 
L 144.503693 178.912576 
L 142.921757 175.093776 
L 141.567287 171.190619 
L 140.444554 167.215895 
L 139.556969 163.182649 
L 138.907068 159.104109 
L 138.496516 154.993617 
L 138.326124 150.864566 
L 138.39586 146.730355 
L 138.704859 142.604349 
L 139.251421 138.499828 
L 140.033007 134.429936 
L 141.046248 130.407612 
L 142.286974 126.445525 
L 143.750251 122.556015 
L 145.430439 118.751053 
L 147.321235 115.04221 
L 149.415711 111.440641 
L 151.70635 107.957058 
L 154.185064 104.601716 
L 156.843222 101.384381 
L 159.671664 98.314304 
L 162.660726 95.400182 
L 165.800266 92.650119 
L 169.079702 90.071583 
L 172.488052 87.671369 
L 176.013989 85.455557 
L 179.645901 83.429481 
L 183.371957 81.5977 
L 187.180198 79.96398 
L 191.05862 78.531303 
L 194.995268 77.301891 
L 198.978308 76.277246 
L 202.996101 75.458217 
L 207.037238 74.845061 
L 211.090567 74.437528 
L 215.145185 74.234918 
L 219.190422 74.236134 
L 223.215814 74.439712 
L 227.211082 74.843838 
L 231.166105 75.446356 
L 235.070902 76.244755 
L 238.915622 77.236151 
L 242.690553 78.41726 
L 246.386143 79.784369 
L 249.993041 81.333323 
L 253.502129 83.059524 
L 256.904564 84.957941 
L 260.191802 87.02313 
L 263.355615 89.24925 
L 266.388112 91.630078 
L 269.28175 94.159023 
L 272.029353 96.82913 
L 274.624141 99.63309 
L 277.059758 102.563252 
L 279.330317 105.611643 
L 281.430433 108.770016 
L 283.355242 112.029905 
L 285.100397 115.382691 
L 286.662031 118.819652 
L 288.036722 122.332003 
L 289.221446 125.910904 
L 290.213546 129.547455 
L 291.01072 133.232691 
L 291.61102 136.95756 
L 292.012866 140.712921 
L 292.215067 144.489541 
L 292.216834 148.27811 
L 292.017799 152.069253 
L 291.618018 155.853548 
L 291.017974 159.621544 
L 290.218576 163.363775 
L 289.221161 167.070768 
L 288.027495 170.733051 
L 286.639783 174.341166 
L 285.060681 177.885679 
L 283.293308 181.357202 
L 281.341255 184.746414 
L 279.208584 188.044091 
L 276.899824 191.241128 
L 274.419963 194.328554 
L 271.774445 197.297545 
L 268.969176 200.139434 
L 266.010528 202.845725 
L 262.905353 205.408118 
L 259.660994 207.818526 
L 256.285293 210.069116 
L 252.786599 212.152337 
L 249.173775 214.060965 
L 245.456201 215.788157 
L 241.643758 217.327497 
L 237.746818 218.673064 
L 233.77621 219.819481 
L 229.743179 220.761976 
L 225.659327 221.496425 
L 221.536551 222.019392 
L 217.386979 222.328146 
L 213.222893 222.420675 
L 209.056668 222.295677 
L 204.900702 221.952541 
L 200.767376 221.391307 
L 196.669017 220.612629 
L 192.617901 219.617729 
L 188.626253 218.408384 
L 184.706259 216.986917 
L 180.870073 215.356207 
L 177.129824 213.519713 
L 173.497611 211.481513 
L 169.985482 209.246363 
L 166.605381 206.81976 
L 163.369065 204.207998 
L 160.288003 201.418191 
L 157.373276 198.458276 
L 154.635487 195.336985 
L 152.084689 192.063813 
L 149.730317 188.648986 
L 147.58112 185.103416 
L 145.645099 181.438672 
L 143.929434 177.66693 
L 142.440396 173.800922 
L 141.183257 169.853859 
L 140.162213 165.839309 
L 139.380363 161.771045 
L 138.839746 157.662902 
L 138.54143 153.52866 
L 138.485615 149.381993 
L 138.671705 145.236451 
L 139.098347 141.105467 
L 139.763431 137.002358 
L 140.664066 132.940302 
L 141.796556 128.932291 
L 143.1564 124.991065 
L 144.738301 121.129041 
L 146.536209 117.358248 
L 148.543375 113.690278 
L 150.752399 110.136249 
L 153.155284 106.706782 
L 155.743469 103.411985 
L 158.50786 100.261424 
L 161.438864 97.264096 
L 164.526425 94.428386 
L 167.76008 91.762044 
L 171.129016 89.272153 
L 174.622137 86.965134 
L 178.228116 84.84675 
L 181.935438 82.922121 
L 185.732434 81.195732 
L 189.607308 79.671446 
L 193.548158 78.352495 
L 197.543002 77.241485 
L 201.579802 76.340374 
L 205.646499 75.65047 
L 209.731049 75.172408 
L 213.821469 74.90615 
L 217.905882 74.850977 
L 221.972571 75.005487 
L 226.010035 75.367604 
L 230.007055 75.934597 
L 233.952755 76.703116 
L 237.836652 77.669244 
L 241.648698 78.828561 
L 245.379301 80.176208 
L 249.019334 81.706965 
L 252.560119 83.415314 
L 255.993396 85.295497 
L 259.311284 87.341554 
L 262.506245 89.547338 
L 265.571045 91.906528 
L 268.498733 94.412617 
L 271.282619 97.058905 
L 273.916267 99.838474 
L 276.393501 102.744165 
L 278.708424 105.768559 
L 280.855458 108.903959 
L 282.829373 112.142395 
L 284.625319 115.47564 
L 286.238856 118.895222 
L 287.665961 122.392452 
L 288.903046 125.958436 
L 289.946966 129.584095 
L 290.795038 133.260174 
L 291.445052 136.977259 
L 291.895303 140.725798 
L 292.14461 144.496124 
L 292.192342 148.278504 
L 292.038426 152.063192 
L 291.683329 155.840482 
L 291.128025 159.600761 
L 290.373945 163.334534 
L 289.305198 167.440694 
L 287.996395 171.489884 
L 286.451143 175.469567 
L 284.673595 179.367326 
L 282.668476 183.170855 
L 280.441122 186.867971 
L 277.997505 190.446647 
L 275.344254 193.895052 
L 272.783099 196.877647 
L 270.063797 199.737066 
L 267.192534 202.465243 
L 264.175915 205.054324 
L 261.020964 207.496685 
L 257.735127 209.784944 
L 254.326278 211.91199 
L 250.802714 213.871014 
L 247.173151 215.655541 
L 243.446704 217.259461 
L 239.632868 218.677052 
L 235.741499 219.902997 
L 231.782801 220.932397 
L 227.76732 221.760791 
L 223.705939 222.384174 
L 219.609868 222.799036 
L 215.49063 223.002388 
L 211.360051 222.991801 
L 207.230231 222.765452 
L 203.113519 222.322164 
L 199.022472 221.661457 
L 194.969808 220.783594 
L 190.968341 219.689628 
L 187.030909 218.38143 
L 183.170287 216.861718 
L 179.399105 215.134058 
L 175.729752 213.202857 
L 172.174298 211.073331 
L 168.744419 208.75146 
L 165.451331 206.243932 
L 162.305756 203.558067 
L 159.317904 200.701745 
L 156.497487 197.68334 
L 153.853741 194.511684 
L 151.39544 191.196049 
L 149.130914 187.746148 
L 147.068038 184.172144 
L 145.214223 180.484671 
L 143.576377 176.694862 
L 142.160839 172.814377 
L 140.973283 168.855411 
L 140.018614 164.83066 
L 139.300883 160.753263 
L 138.82322 156.636712 
L 138.587803 152.494773 
L 138.595841 148.341397 
L 138.847562 144.190646 
L 139.342209 140.056626 
L 140.078025 135.953411 
L 141.052237 131.894977 
L 142.261029 127.895099 
L 143.699539 123.967231 
L 145.361907 120.124363 
L 147.241381 116.378906 
L 149.330463 112.742621 
L 151.621049 109.226621 
L 154.104526 105.841398 
L 156.771827 102.596868 
L 159.613447 99.502391 
L 162.619442 96.566767 
L 165.779441 93.798208 
L 169.082666 91.204298 
L 172.51798 88.791952 
L 176.073942 86.567393 
L 179.738876 84.53614 
L 183.500922 82.703015 
L 187.348092 81.072154 
L 191.268301 79.647024 
L 195.249406 78.430426 
L 199.279231 77.424502 
L 203.345607 76.63073 
L 207.436416 76.049924 
L 211.539641 75.682248 
L 215.64341 75.527237 
L 219.736034 75.583832 
L 223.806026 75.850415 
L 227.84212 76.324837 
L 231.833273 77.004436 
L 235.768683 77.886057 
L 239.637793 78.966051 
L 243.430311 80.240286 
L 247.136229 81.704146 
L 250.745851 83.352533 
L 254.249821 85.179875 
L 257.639157 87.180132 
L 260.905291 89.346819 
L 264.040097 91.67302 
L 267.035936 94.151429 
L 269.885686 96.774387 
L 272.58276 99.533938 
L 275.121119 102.421884 
L 277.495267 105.429843 
L 279.700237 108.549306 
L 281.73156 111.771682 
L 283.585223 115.088344 
L 285.432116 118.87359 
L 287.050833 122.752689 
L 288.437467 126.713741 
L 289.588574 130.744792 
L 290.501155 134.833808 
L 291.172652 138.968632 
L 291.600971 143.136952 
L 291.784534 147.326274 
L 291.722335 151.523922 
L 291.413998 155.717059 
L 290.859828 159.892728 
L 290.060831 164.037896 
L 289.133822 167.731666 
L 288.011667 171.380611 
L 286.696633 174.975222 
L 285.191494 178.506033 
L 283.499546 181.963651 
L 281.62462 185.338789 
L 279.57109 188.62232 
L 277.343865 191.80532 
L 274.94836 194.87913 
L 272.390457 197.835395 
L 269.676446 200.666084 
L 266.812975 203.363493 
L 263.807008 205.920221 
L 260.665816 208.329152 
L 257.396971 210.583435 
L 254.008365 212.676479 
L 250.508228 214.601961 
L 246.905142 216.353852 
L 243.208049 217.926453 
L 239.426248 219.314426 
L 235.569379 220.512828 
L 231.647408 221.517141 
L 227.670603 222.323292 
L 223.649517 222.92767 
L 219.594973 223.327143 
L 215.518049 223.519078 
L 211.430061 223.501367 
L 207.342546 223.272457 
L 203.267226 222.831386 
L 199.215971 222.177801 
L 195.200752 221.31198 
L 191.233608 220.234834 
L 187.326606 218.947911 
L 183.491822 217.453405 
L 179.741312 215.754163 
L 176.087079 213.853706 
L 172.54104 211.756245 
L 169.114981 209.466702 
L 165.820508 206.990726 
L 162.668991 204.33472 
L 159.671495 201.505851 
L 156.838698 198.512057 
L 154.180813 195.362048 
L 151.707496 192.065281 
L 149.427753 188.631932 
L 147.349858 185.072839 
L 145.481273 181.399433 
L 143.828591 177.623645 
L 142.397503 173.757808 
L 141.192787 169.814552 
L 140.218334 165.806699 
L 139.477189 161.747175 
L 138.971619 157.648957 
L 138.70317 153.525042 
L 138.672704 149.388443 
L 138.880425 145.25219 
L 139.325874 141.129338 
L 140.007919 137.032973 
L 140.924717 132.976215 
L 142.073651 128.972198 
L 143.451266 125.034025 
L 145.053219 121.174679 
L 146.874254 117.406922 
L 148.908229 113.743197 
L 151.148148 110.195545 
L 153.586218 106.775531 
L 156.213895 103.4942 
L 159.02193 100.362023 
L 162.000402 97.388854 
L 165.138751 94.583874 
L 168.425811 91.955512 
L 171.849882 89.511358 
L 175.398846 87.258089 
L 179.060314 85.201442 
L 182.821775 83.346254 
L 186.670702 81.696536 
L 190.594604 80.255567 
L 194.581043 79.025959 
L 198.617627 78.009696 
L 202.692006 77.208143 
L 206.791887 76.622039 
L 210.905056 76.251479 
L 215.019427 76.095915 
L 219.123085 76.154165 
L 223.20433 76.424435 
L 227.251713 76.904355 
L 231.254055 77.59101 
L 235.200465 78.480969 
L 239.080351 79.570315 
L 242.883432 80.854652 
L 246.599757 82.329124 
L 250.219733 83.98843 
L 253.734147 85.826849 
L 257.134185 87.838278 
L 260.411441 90.016264 
L 263.557912 92.35404 
L 266.565992 94.844544 
L 269.428466 97.480438 
L 272.138514 100.254113 
L 274.689705 103.157698 
L 277.076017 106.183065 
L 279.29184 109.321836 
L 281.331999 112.565387 
L 283.191775 115.904866 
L 284.866924 119.331204 
L 286.353702 122.835138 
L 287.648885 126.407241 
L 288.749789 130.037959 
L 289.654274 133.717648 
L 290.360749 137.436625 
L 290.868162 141.185208 
L 291.175974 144.953762 
L 291.283852 149.152847 
L 291.145863 153.351847 
L 290.763228 157.538017 
L 290.137723 161.698818 
L 289.271617 165.821901 
L 288.167631 169.895076 
L 286.828925 173.906273 
L 285.2591 177.843512 
L 283.462216 181.694866 
L 281.442841 185.448451 
L 279.206101 189.092416 
L 276.757742 192.614977 
L 274.104189 196.004465 
L 273.269156 196.993638 
L 273.269156 196.993638 
" clip-path="url(#pafb806131c)" style="fill: none; stroke: #0000ff; stroke-width: 1.5; stroke-linecap: square"/>
   </g>
   <g id="text_17">
    <!-- Inertial frame -->
    <g transform="translate(166.2075 19.918125) scale(0.12 -0.12)">
     <defs>
      <path id="DejaVuSans-49" d="M 628 4666 
L 1259 4666 
L 1259 0 
L 628 0 
L 628 4666 
z
" transform="scale(0.015625)"/>
      <path id="DejaVuSans-6e" d="M 3513 2113 
L 3513 0 
L 2938 0 
L 2938 2094 
Q 2938 2591 2744 2837 
Q 2550 3084 2163 3084 
Q 1697 3084 1428 2787 
Q 1159 2491 1159 1978 
L 1159 0 
L 581 0 
L 581 3500 
L 1159 3500 
L 1159 2956 
Q 1366 3272 1645 3428 
Q 1925 3584 2291 3584 
Q 2894 3584 3203 3211 
Q 3513 2838 3513 2113 
z
" transform="scale(0.015625)"/>
      <path id="DejaVuSans-65" d="M 3597 1894 
L 3597 1613 
L 953 1613 
Q 991 1019 1311 708 
Q 1631 397 2203 397 
Q 2534 397 2845 478 
Q 3156 559 3463 722 
L 3463 178 
Q 3153 47 2828 -22 
Q 2503 -91 2169 -91 
Q 1331 -91 842 396 
Q 353 884 353 1716 
Q 353 2575 817 3079 
Q 1281 3584 2069 3584 
Q 2775 3584 3186 3129 
Q 3597 2675 3597 1894 
z
M 3022 2063 
Q 3016 2534 2758 2815 
Q 2500 3097 2075 3097 
Q 1594 3097 1305 2825 
Q 1016 2553 972 2059 
L 3022 2063 
z
" transform="scale(0.015625)"/>
      <path id="DejaVuSans-72" d="M 2631 2963 
Q 2534 3019 2420 3045 
Q 2306 3072 2169 3072 
Q 1681 3072 1420 2755 
Q 1159 2438 1159 1844 
L 1159 0 
L 581 0 
L 581 3500 
L 1159 3500 
L 1159 2956 
Q 1341 3275 1631 3429 
Q 1922 3584 2338 3584 
Q 2397 3584 2469 3576 
Q 2541 3569 2628 3553 
L 2631 2963 
z
" transform="scale(0.015625)"/>
      <path id="DejaVuSans-74" d="M 1172 4494 
L 1172 3500 
L 2356 3500 
L 2356 3053 
L 1172 3053 
L 1172 1153 
Q 1172 725 1289 603 
Q 1406 481 1766 481 
L 2356 481 
L 2356 0 
L 1766 0 
Q 1100 0 847 248 
Q 594 497 594 1153 
L 594 3053 
L 172 3053 
L 172 3500 
L 594 3500 
L 594 4494 
L 1172 4494 
z
" transform="scale(0.015625)"/>
      <path id="DejaVuSans-69" d="M 603 3500 
L 1178 3500 
L 1178 0 
L 603 0 
L 603 3500 
z
M 603 4863 
L 1178 4863 
L 1178 4134 
L 603 4134 
L 603 4863 
z
" transform="scale(0.015625)"/>
      <path id="DejaVuSans-61" d="M 2194 1759 
Q 1497 1759 1228 1600 
Q 959 1441 959 1056 
Q 959 750 1161 570 
Q 1363 391 1709 391 
Q 2188 391 2477 730 
Q 2766 1069 2766 1631 
L 2766 1759 
L 2194 1759 
z
M 3341 1997 
L 3341 0 
L 2766 0 
L 2766 531 
Q 2569 213 2275 61 
Q 1981 -91 1556 -91 
Q 1019 -91 701 211 
Q 384 513 384 1019 
Q 384 1609 779 1909 
Q 1175 2209 1959 2209 
L 2766 2209 
L 2766 2266 
Q 2766 2663 2505 2880 
Q 2244 3097 1772 3097 
Q 1472 3097 1187 3025 
Q 903 2953 641 2809 
L 641 3341 
Q 956 3463 1253 3523 
Q 1550 3584 1831 3584 
Q 2591 3584 2966 3190 
Q 3341 2797 3341 1997 
z
" transform="scale(0.015625)"/>
      <path id="DejaVuSans-6c" d="M 603 4863 
L 1178 4863 
L 1178 0 
L 603 0 
L 603 4863 
z
" transform="scale(0.015625)"/>
      <path id="DejaVuSans-66" d="M 2375 4863 
L 2375 4384 
L 1825 4384 
Q 1516 4384 1395 4259 
Q 1275 4134 1275 3809 
L 1275 3500 
L 2222 3500 
L 2222 3053 
L 1275 3053 
L 1275 0 
L 697 0 
L 697 3053 
L 147 3053 
L 147 3500 
L 697 3500 
L 697 3744 
Q 697 4328 969 4595 
Q 1241 4863 1831 4863 
L 2375 4863 
z
" transform="scale(0.015625)"/>
     </defs>
     <use xlink:href="#DejaVuSans-49"/>
     <use xlink:href="#DejaVuSans-6e" x="29.492188"/>
     <use xlink:href="#DejaVuSans-65" x="92.871094"/>
     <use xlink:href="#DejaVuSans-72" x="154.394531"/>
     <use xlink:href="#DejaVuSans-74" x="195.507812"/>
     <use xlink:href="#DejaVuSans-69" x="234.716797"/>
     <use xlink:href="#DejaVuSans-61" x="262.5"/>
     <use xlink:href="#DejaVuSans-6c" x="323.779297"/>
     <use xlink:href="#DejaVuSans-20" x="351.5625"/>
     <use xlink:href="#DejaVuSans-66" x="383.349609"/>
     <use xlink:href="#DejaVuSans-72" x="418.554688"/>
     <use xlink:href="#DejaVuSans-61" x="459.667969"/>
     <use xlink:href="#DejaVuSans-6d" x="520.947266"/>
     <use xlink:href="#DejaVuSans-65" x="618.359375"/>
    </g>
   </g>
  </g>
 </g>
 <defs>
  <clipPath id="pafb806131c">
   <rect x="81.359063" y="25.918125" width="251.281875" height="251.281875"/>
  </clipPath>
 </defs>
</svg>
