<?xml version="1.0" encoding="utf-8" standalone="no"?>
<!DOCTYPE svg PUBLIC "-//W3C//DTD SVG 1.1//EN"
  "http://www.w3.org/Graphics/SVG/1.1/DTD/svg11.dtd">
<svg xmlns:xlink="http://www.w3.org/1999/xlink" width="342pt" height="341.28pt" viewBox="0 0 342 341.28" xmlns="http://www.w3.org/2000/svg" version="1.1">
 <metadata>
  <rdf:RDF xmlns:dc="http://purl.org/dc/elements/1.1/" xmlns:cc="http://creativecommons.org/ns#" xmlns:rdf="http://www.w3.org/1999/02/22-rdf-syntax-ns#">
   <cc:Work>
    <dc:type rdf:resource="http://purl.org/dc/dcmitype/StillImage"/>
    <dc:date>2023-09-07T00:35:33.373870</dc:date>
    <dc:format>image/svg+xml</dc:format>
    <dc:creator>
     <cc:Agent>
      <dc:title>Matplotlib v3.7.2, https://matplotlib.org/</dc:title>
     </cc:Agent>
    </dc:creator>
   </cc:Work>
  </rdf:RDF>
 </metadata>
 <defs>
  <style type="text/css">*{stroke-linejoin: round; stroke-linecap: butt}</style>
 </defs>
 <g id="figure_1">
  <g id="patch_1">
   <path d="M 0 341.28 
L 342 341.28 
L 342 0 
L 0 0 
L 0 341.28 
z
" style="fill: none"/>
  </g>
  <g id="axes_1">
   <g id="patch_2">
    <path d="M 86.6275 294.316875 
L 331.2 294.316875 
L 331.2 10.8 
L 86.6275 10.8 
L 86.6275 294.316875 
z
" style="fill: none"/>
   </g>
   <g id="patch_3">
    <path d="M 208.921434 259.553743 
C 237.297705 259.553743 264.515579 248.279731 284.580633 228.214676 
C 304.645687 208.149622 315.919699 180.931749 315.919699 152.555477 
C 315.919699 124.179206 304.645687 96.961332 284.580633 76.896278 
C 264.515579 56.831224 237.297705 45.557212 208.921434 45.557212 
C 180.545162 45.557212 153.327289 56.831224 133.262234 76.896278 
C 113.19718 96.961332 101.923168 124.179206 101.923168 152.555477 
C 101.923168 180.931749 113.19718 208.149622 133.262234 228.214676 
C 153.327289 248.279731 180.545162 259.553743 208.921434 259.553743 
z
" clip-path="url(#p9dc373fcfb)" style="fill: #008800; stroke: #008800; stroke-linejoin: miter"/>
   </g>
   <g id="matplotlib.axis_1">
    <g id="xtick_1">
     <g id="line2d_1">
      <defs>
       <path id="md6772a011a" d="M 0 0 
L 0 3.5 
" style="stroke: #000000; stroke-width: 0.8"/>
      </defs>
      <g>
       <use xlink:href="#md6772a011a" x="125.042495" y="294.316875" style="stroke: #000000; stroke-width: 0.8"/>
      </g>
     </g>
     <g id="text_1">
      <!-- −5000 -->
      <g transform="translate(97.978745 313.474375) scale(0.16 -0.16)">
       <defs>
        <path id="DejaVuSans-2212" d="M 678 2272 
L 4684 2272 
L 4684 1741 
L 678 1741 
L 678 2272 
z
" transform="scale(0.015625)"/>
        <path id="DejaVuSans-35" d="M 691 4666 
L 3169 4666 
L 3169 4134 
L 1269 4134 
L 1269 2991 
Q 1406 3038 1543 3061 
Q 1681 3084 1819 3084 
Q 2600 3084 3056 2656 
Q 3513 2228 3513 1497 
Q 3513 744 3044 326 
Q 2575 -91 1722 -91 
Q 1428 -91 1123 -41 
Q 819 9 494 109 
L 494 744 
Q 775 591 1075 516 
Q 1375 441 1709 441 
Q 2250 441 2565 725 
Q 2881 1009 2881 1497 
Q 2881 1984 2565 2268 
Q 2250 2553 1709 2553 
Q 1456 2553 1204 2497 
Q 953 2441 691 2322 
L 691 4666 
z
" transform="scale(0.015625)"/>
        <path id="DejaVuSans-30" d="M 2034 4250 
Q 1547 4250 1301 3770 
Q 1056 3291 1056 2328 
Q 1056 1369 1301 889 
Q 1547 409 2034 409 
Q 2525 409 2770 889 
Q 3016 1369 3016 2328 
Q 3016 3291 2770 3770 
Q 2525 4250 2034 4250 
z
M 2034 4750 
Q 2819 4750 3233 4129 
Q 3647 3509 3647 2328 
Q 3647 1150 3233 529 
Q 2819 -91 2034 -91 
Q 1250 -91 836 529 
Q 422 1150 422 2328 
Q 422 3509 836 4129 
Q 1250 4750 2034 4750 
z
" transform="scale(0.015625)"/>
       </defs>
       <use xlink:href="#DejaVuSans-2212"/>
       <use xlink:href="#DejaVuSans-35" x="83.789062"/>
       <use xlink:href="#DejaVuSans-30" x="147.412109"/>
       <use xlink:href="#DejaVuSans-30" x="211.035156"/>
       <use xlink:href="#DejaVuSans-30" x="274.658203"/>
      </g>
     </g>
    </g>
    <g id="xtick_2">
     <g id="line2d_2">
      <g>
       <use xlink:href="#md6772a011a" x="208.921434" y="294.316875" style="stroke: #000000; stroke-width: 0.8"/>
      </g>
     </g>
     <g id="text_2">
      <!-- 0 -->
      <g transform="translate(203.831434 313.474375) scale(0.16 -0.16)">
       <use xlink:href="#DejaVuSans-30"/>
      </g>
     </g>
    </g>
    <g id="xtick_3">
     <g id="line2d_3">
      <g>
       <use xlink:href="#md6772a011a" x="292.800372" y="294.316875" style="stroke: #000000; stroke-width: 0.8"/>
      </g>
     </g>
     <g id="text_3">
      <!-- 5000 -->
      <g transform="translate(272.440372 313.474375) scale(0.16 -0.16)">
       <use xlink:href="#DejaVuSans-35"/>
       <use xlink:href="#DejaVuSans-30" x="63.623047"/>
       <use xlink:href="#DejaVuSans-30" x="127.246094"/>
       <use xlink:href="#DejaVuSans-30" x="190.869141"/>
      </g>
     </g>
    </g>
    <g id="text_4">
     <!-- $i_e$ Cord. [km] -->
     <g transform="translate(177.01375 328.400313) scale(0.1 -0.1)">
      <defs>
       <path id="DejaVuSans-Oblique-69" d="M 1172 4863 
L 1747 4863 
L 1606 4134 
L 1031 4134 
L 1172 4863 
z
M 909 3500 
L 1484 3500 
L 800 0 
L 225 0 
L 909 3500 
z
" transform="scale(0.015625)"/>
       <path id="DejaVuSans-Oblique-65" d="M 3078 2063 
Q 3088 2113 3092 2166 
Q 3097 2219 3097 2272 
Q 3097 2653 2873 2875 
Q 2650 3097 2266 3097 
Q 1838 3097 1509 2826 
Q 1181 2556 1013 2059 
L 3078 2063 
z
M 3578 1613 
L 903 1613 
Q 884 1494 878 1425 
Q 872 1356 872 1306 
Q 872 872 1139 634 
Q 1406 397 1894 397 
Q 2269 397 2603 481 
Q 2938 566 3225 728 
L 3116 159 
Q 2806 34 2476 -28 
Q 2147 -91 1806 -91 
Q 1078 -91 686 257 
Q 294 606 294 1247 
Q 294 1794 489 2264 
Q 684 2734 1063 3103 
Q 1306 3334 1642 3459 
Q 1978 3584 2356 3584 
Q 2950 3584 3301 3228 
Q 3653 2872 3653 2272 
Q 3653 2128 3634 1964 
Q 3616 1800 3578 1613 
z
" transform="scale(0.015625)"/>
       <path id="DejaVuSans-20" transform="scale(0.015625)"/>
       <path id="DejaVuSans-43" d="M 4122 4306 
L 4122 3641 
Q 3803 3938 3442 4084 
Q 3081 4231 2675 4231 
Q 1875 4231 1450 3742 
Q 1025 3253 1025 2328 
Q 1025 1406 1450 917 
Q 1875 428 2675 428 
Q 3081 428 3442 575 
Q 3803 722 4122 1019 
L 4122 359 
Q 3791 134 3420 21 
Q 3050 -91 2638 -91 
Q 1578 -91 968 557 
Q 359 1206 359 2328 
Q 359 3453 968 4101 
Q 1578 4750 2638 4750 
Q 3056 4750 3426 4639 
Q 3797 4528 4122 4306 
z
" transform="scale(0.015625)"/>
       <path id="DejaVuSans-6f" d="M 1959 3097 
Q 1497 3097 1228 2736 
Q 959 2375 959 1747 
Q 959 1119 1226 758 
Q 1494 397 1959 397 
Q 2419 397 2687 759 
Q 2956 1122 2956 1747 
Q 2956 2369 2687 2733 
Q 2419 3097 1959 3097 
z
M 1959 3584 
Q 2709 3584 3137 3096 
Q 3566 2609 3566 1747 
Q 3566 888 3137 398 
Q 2709 -91 1959 -91 
Q 1206 -91 779 398 
Q 353 888 353 1747 
Q 353 2609 779 3096 
Q 1206 3584 1959 3584 
z
" transform="scale(0.015625)"/>
       <path id="DejaVuSans-72" d="M 2631 2963 
Q 2534 3019 2420 3045 
Q 2306 3072 2169 3072 
Q 1681 3072 1420 2755 
Q 1159 2438 1159 1844 
L 1159 0 
L 581 0 
L 581 3500 
L 1159 3500 
L 1159 2956 
Q 1341 3275 1631 3429 
Q 1922 3584 2338 3584 
Q 2397 3584 2469 3576 
Q 2541 3569 2628 3553 
L 2631 2963 
z
" transform="scale(0.015625)"/>
       <path id="DejaVuSans-64" d="M 2906 2969 
L 2906 4863 
L 3481 4863 
L 3481 0 
L 2906 0 
L 2906 525 
Q 2725 213 2448 61 
Q 2172 -91 1784 -91 
Q 1150 -91 751 415 
Q 353 922 353 1747 
Q 353 2572 751 3078 
Q 1150 3584 1784 3584 
Q 2172 3584 2448 3432 
Q 2725 3281 2906 2969 
z
M 947 1747 
Q 947 1113 1208 752 
Q 1469 391 1925 391 
Q 2381 391 2643 752 
Q 2906 1113 2906 1747 
Q 2906 2381 2643 2742 
Q 2381 3103 1925 3103 
Q 1469 3103 1208 2742 
Q 947 2381 947 1747 
z
" transform="scale(0.015625)"/>
       <path id="DejaVuSans-2e" d="M 684 794 
L 1344 794 
L 1344 0 
L 684 0 
L 684 794 
z
" transform="scale(0.015625)"/>
       <path id="DejaVuSans-5b" d="M 550 4863 
L 1875 4863 
L 1875 4416 
L 1125 4416 
L 1125 -397 
L 1875 -397 
L 1875 -844 
L 550 -844 
L 550 4863 
z
" transform="scale(0.015625)"/>
       <path id="DejaVuSans-6b" d="M 581 4863 
L 1159 4863 
L 1159 1991 
L 2875 3500 
L 3609 3500 
L 1753 1863 
L 3688 0 
L 2938 0 
L 1159 1709 
L 1159 0 
L 581 0 
L 581 4863 
z
" transform="scale(0.015625)"/>
       <path id="DejaVuSans-6d" d="M 3328 2828 
Q 3544 3216 3844 3400 
Q 4144 3584 4550 3584 
Q 5097 3584 5394 3201 
Q 5691 2819 5691 2113 
L 5691 0 
L 5113 0 
L 5113 2094 
Q 5113 2597 4934 2840 
Q 4756 3084 4391 3084 
Q 3944 3084 3684 2787 
Q 3425 2491 3425 1978 
L 3425 0 
L 2847 0 
L 2847 2094 
Q 2847 2600 2669 2842 
Q 2491 3084 2119 3084 
Q 1678 3084 1418 2786 
Q 1159 2488 1159 1978 
L 1159 0 
L 581 0 
L 581 3500 
L 1159 3500 
L 1159 2956 
Q 1356 3278 1631 3431 
Q 1906 3584 2284 3584 
Q 2666 3584 2933 3390 
Q 3200 3197 3328 2828 
z
" transform="scale(0.015625)"/>
       <path id="DejaVuSans-5d" d="M 1947 4863 
L 1947 -844 
L 622 -844 
L 622 -397 
L 1369 -397 
L 1369 4416 
L 622 4416 
L 622 4863 
L 1947 4863 
z
" transform="scale(0.015625)"/>
      </defs>
      <use xlink:href="#DejaVuSans-Oblique-69" transform="translate(0 0.015625)"/>
      <use xlink:href="#DejaVuSans-Oblique-65" transform="translate(27.783203 -16.390625) scale(0.7)"/>
      <use xlink:href="#DejaVuSans-20" transform="translate(73.583984 0.015625)"/>
      <use xlink:href="#DejaVuSans-43" transform="translate(105.371094 0.015625)"/>
      <use xlink:href="#DejaVuSans-6f" transform="translate(175.195312 0.015625)"/>
      <use xlink:href="#DejaVuSans-72" transform="translate(236.376953 0.015625)"/>
      <use xlink:href="#DejaVuSans-64" transform="translate(277.490234 0.015625)"/>
      <use xlink:href="#DejaVuSans-2e" transform="translate(340.966797 0.015625)"/>
      <use xlink:href="#DejaVuSans-20" transform="translate(372.753906 0.015625)"/>
      <use xlink:href="#DejaVuSans-5b" transform="translate(404.541016 0.015625)"/>
      <use xlink:href="#DejaVuSans-6b" transform="translate(443.554688 0.015625)"/>
      <use xlink:href="#DejaVuSans-6d" transform="translate(501.464844 0.015625)"/>
      <use xlink:href="#DejaVuSans-5d" transform="translate(598.876953 0.015625)"/>
     </g>
    </g>
   </g>
   <g id="matplotlib.axis_2">
    <g id="ytick_1">
     <g id="line2d_4">
      <defs>
       <path id="m468a2e8508" d="M 0 0 
L -3.5 0 
" style="stroke: #000000; stroke-width: 0.8"/>
      </defs>
      <g>
       <use xlink:href="#m468a2e8508" x="86.6275" y="278.373885" style="stroke: #000000; stroke-width: 0.8"/>
      </g>
     </g>
     <g id="text_5">
      <!-- −7500 -->
      <g transform="translate(25.5 284.452635) scale(0.16 -0.16)">
       <defs>
        <path id="DejaVuSans-37" d="M 525 4666 
L 3525 4666 
L 3525 4397 
L 1831 0 
L 1172 0 
L 2766 4134 
L 525 4134 
L 525 4666 
z
" transform="scale(0.015625)"/>
       </defs>
       <use xlink:href="#DejaVuSans-2212"/>
       <use xlink:href="#DejaVuSans-37" x="83.789062"/>
       <use xlink:href="#DejaVuSans-35" x="147.412109"/>
       <use xlink:href="#DejaVuSans-30" x="211.035156"/>
       <use xlink:href="#DejaVuSans-30" x="274.658203"/>
      </g>
     </g>
    </g>
    <g id="ytick_2">
     <g id="line2d_5">
      <g>
       <use xlink:href="#m468a2e8508" x="86.6275" y="236.434416" style="stroke: #000000; stroke-width: 0.8"/>
      </g>
     </g>
     <g id="text_6">
      <!-- −5000 -->
      <g transform="translate(25.5 242.513166) scale(0.16 -0.16)">
       <use xlink:href="#DejaVuSans-2212"/>
       <use xlink:href="#DejaVuSans-35" x="83.789062"/>
       <use xlink:href="#DejaVuSans-30" x="147.412109"/>
       <use xlink:href="#DejaVuSans-30" x="211.035156"/>
       <use xlink:href="#DejaVuSans-30" x="274.658203"/>
      </g>
     </g>
    </g>
    <g id="ytick_3">
     <g id="line2d_6">
      <g>
       <use xlink:href="#m468a2e8508" x="86.6275" y="194.494947" style="stroke: #000000; stroke-width: 0.8"/>
      </g>
     </g>
     <g id="text_7">
      <!-- −2500 -->
      <g transform="translate(25.5 200.573697) scale(0.16 -0.16)">
       <defs>
        <path id="DejaVuSans-32" d="M 1228 531 
L 3431 531 
L 3431 0 
L 469 0 
L 469 531 
Q 828 903 1448 1529 
Q 2069 2156 2228 2338 
Q 2531 2678 2651 2914 
Q 2772 3150 2772 3378 
Q 2772 3750 2511 3984 
Q 2250 4219 1831 4219 
Q 1534 4219 1204 4116 
Q 875 4013 500 3803 
L 500 4441 
Q 881 4594 1212 4672 
Q 1544 4750 1819 4750 
Q 2544 4750 2975 4387 
Q 3406 4025 3406 3419 
Q 3406 3131 3298 2873 
Q 3191 2616 2906 2266 
Q 2828 2175 2409 1742 
Q 1991 1309 1228 531 
z
" transform="scale(0.015625)"/>
       </defs>
       <use xlink:href="#DejaVuSans-2212"/>
       <use xlink:href="#DejaVuSans-32" x="83.789062"/>
       <use xlink:href="#DejaVuSans-35" x="147.412109"/>
       <use xlink:href="#DejaVuSans-30" x="211.035156"/>
       <use xlink:href="#DejaVuSans-30" x="274.658203"/>
      </g>
     </g>
    </g>
    <g id="ytick_4">
     <g id="line2d_7">
      <g>
       <use xlink:href="#m468a2e8508" x="86.6275" y="152.555477" style="stroke: #000000; stroke-width: 0.8"/>
      </g>
     </g>
     <g id="text_8">
      <!-- 0 -->
      <g transform="translate(69.4475 158.634227) scale(0.16 -0.16)">
       <use xlink:href="#DejaVuSans-30"/>
      </g>
     </g>
    </g>
    <g id="ytick_5">
     <g id="line2d_8">
      <g>
       <use xlink:href="#m468a2e8508" x="86.6275" y="110.616008" style="stroke: #000000; stroke-width: 0.8"/>
      </g>
     </g>
     <g id="text_9">
      <!-- 2500 -->
      <g transform="translate(38.9075 116.694758) scale(0.16 -0.16)">
       <use xlink:href="#DejaVuSans-32"/>
       <use xlink:href="#DejaVuSans-35" x="63.623047"/>
       <use xlink:href="#DejaVuSans-30" x="127.246094"/>
       <use xlink:href="#DejaVuSans-30" x="190.869141"/>
      </g>
     </g>
    </g>
    <g id="ytick_6">
     <g id="line2d_9">
      <g>
       <use xlink:href="#m468a2e8508" x="86.6275" y="68.676539" style="stroke: #000000; stroke-width: 0.8"/>
      </g>
     </g>
     <g id="text_10">
      <!-- 5000 -->
      <g transform="translate(38.9075 74.755289) scale(0.16 -0.16)">
       <use xlink:href="#DejaVuSans-35"/>
       <use xlink:href="#DejaVuSans-30" x="63.623047"/>
       <use xlink:href="#DejaVuSans-30" x="127.246094"/>
       <use xlink:href="#DejaVuSans-30" x="190.869141"/>
      </g>
     </g>
    </g>
    <g id="ytick_7">
     <g id="line2d_10">
      <g>
       <use xlink:href="#m468a2e8508" x="86.6275" y="26.73707" style="stroke: #000000; stroke-width: 0.8"/>
      </g>
     </g>
     <g id="text_11">
      <!-- 7500 -->
      <g transform="translate(38.9075 32.81582) scale(0.16 -0.16)">
       <use xlink:href="#DejaVuSans-37"/>
       <use xlink:href="#DejaVuSans-35" x="63.623047"/>
       <use xlink:href="#DejaVuSans-30" x="127.246094"/>
       <use xlink:href="#DejaVuSans-30" x="190.869141"/>
      </g>
     </g>
    </g>
    <g id="text_12">
     <!-- $i_p$ Cord. [km] -->
     <g transform="translate(18.4 184.558437) rotate(-90) scale(0.1 -0.1)">
      <defs>
       <path id="DejaVuSans-Oblique-70" d="M 3175 2156 
Q 3175 2616 2975 2859 
Q 2775 3103 2400 3103 
Q 2144 3103 1911 2972 
Q 1678 2841 1497 2591 
Q 1319 2344 1212 1994 
Q 1106 1644 1106 1300 
Q 1106 863 1306 627 
Q 1506 391 1875 391 
Q 2147 391 2380 519 
Q 2613 647 2778 891 
Q 2956 1147 3065 1494 
Q 3175 1841 3175 2156 
z
M 1394 2969 
Q 1625 3272 1939 3428 
Q 2253 3584 2638 3584 
Q 3175 3584 3472 3232 
Q 3769 2881 3769 2247 
Q 3769 1728 3584 1258 
Q 3400 788 3053 416 
Q 2822 169 2531 39 
Q 2241 -91 1919 -91 
Q 1547 -91 1294 64 
Q 1041 219 916 525 
L 556 -1331 
L -19 -1331 
L 922 3500 
L 1497 3500 
L 1394 2969 
z
" transform="scale(0.015625)"/>
      </defs>
      <use xlink:href="#DejaVuSans-Oblique-69" transform="translate(0 0.015625)"/>
      <use xlink:href="#DejaVuSans-Oblique-70" transform="translate(27.783203 -16.390625) scale(0.7)"/>
      <use xlink:href="#DejaVuSans-20" transform="translate(74.951172 0.015625)"/>
      <use xlink:href="#DejaVuSans-43" transform="translate(106.738281 0.015625)"/>
      <use xlink:href="#DejaVuSans-6f" transform="translate(176.5625 0.015625)"/>
      <use xlink:href="#DejaVuSans-72" transform="translate(237.744141 0.015625)"/>
      <use xlink:href="#DejaVuSans-64" transform="translate(278.857422 0.015625)"/>
      <use xlink:href="#DejaVuSans-2e" transform="translate(342.333984 0.015625)"/>
      <use xlink:href="#DejaVuSans-20" transform="translate(374.121094 0.015625)"/>
      <use xlink:href="#DejaVuSans-5b" transform="translate(405.908203 0.015625)"/>
      <use xlink:href="#DejaVuSans-6b" transform="translate(444.921875 0.015625)"/>
      <use xlink:href="#DejaVuSans-6d" transform="translate(502.832031 0.015625)"/>
      <use xlink:href="#DejaVuSans-5d" transform="translate(600.244141 0.015625)"/>
     </g>
    </g>
   </g>
   <g id="line2d_11">
    <path d="M 218.032283 41.73807 
L 212.187827 41.41158 
L 206.334323 41.393109 
L 200.487994 41.682703 
L 194.66504 42.279555 
L 188.881599 43.182006 
L 183.153696 44.387549 
L 177.497203 45.89284 
L 171.927794 47.693701 
L 166.460901 49.785139 
L 161.111671 52.161354 
L 155.894924 54.815757 
L 150.825115 57.740988 
L 145.916289 60.92894 
L 141.182046 64.370774 
L 136.635501 68.056951 
L 132.28925 71.977255 
L 128.155333 76.12082 
L 124.245202 80.476163 
L 120.569689 85.031216 
L 117.138975 89.773355 
L 113.962565 94.689441 
L 111.049256 99.76585 
L 108.40712 104.988518 
L 106.043475 110.342973 
L 103.96487 115.814379 
L 102.177061 121.387578 
L 100.685003 127.047127 
L 99.492828 132.777345 
L 98.60384 138.562358 
L 98.020503 144.386136 
L 97.744432 150.232544 
L 97.776394 156.085383 
L 98.116302 161.928438 
L 98.763216 167.74552 
L 99.715345 173.52051 
L 100.970053 179.237407 
L 102.523866 184.880371 
L 104.372483 190.433765 
L 106.510784 195.882202 
L 108.932847 201.210583 
L 111.631965 206.404142 
L 114.600662 211.448487 
L 117.830716 216.329638 
L 121.313181 221.034066 
L 125.038411 225.548733 
L 128.996086 229.861125 
L 133.175243 233.959287 
L 137.564306 237.831859 
L 142.151115 241.468104 
L 146.922962 244.857942 
L 151.866626 247.991971 
L 156.968411 250.861502 
L 162.214179 253.458574 
L 167.589395 255.775985 
L 173.079164 257.807306 
L 178.668272 259.546898 
L 184.341231 260.989934 
L 190.082316 262.132408 
L 195.875617 262.971144 
L 201.705076 263.503811 
L 207.554533 263.728925 
L 213.407775 263.645855 
L 219.248575 263.254823 
L 225.06074 262.556907 
L 230.828157 261.554033 
L 236.534836 260.248975 
L 242.164953 258.645344 
L 247.702897 256.747579 
L 253.133311 254.560935 
L 258.441137 252.091469 
L 263.611654 249.346021 
L 268.630524 246.332198 
L 273.483826 243.058351 
L 278.158099 239.533553 
L 282.640378 235.767572 
L 286.918231 231.770848 
L 290.979791 227.55446 
L 294.81379 223.130095 
L 298.409592 218.510019 
L 301.757223 213.707043 
L 304.847393 208.734483 
L 307.67153 203.606127 
L 310.221798 198.336196 
L 312.491119 192.939302 
L 314.473198 187.430413 
L 316.162534 181.824806 
L 317.554439 176.138027 
L 318.645049 170.385847 
L 319.431337 164.58422 
L 319.911121 158.749237 
L 320.083068 152.89708 
L 319.9467 147.043982 
L 319.502393 141.206176 
L 318.75138 135.399854 
L 317.695742 129.64112 
L 316.338408 123.945948 
L 314.683141 118.330133 
L 312.734535 112.809252 
L 310.497993 107.398616 
L 307.97972 102.113233 
L 305.186701 96.967762 
L 302.126686 91.976473 
L 298.808162 87.153208 
L 295.240335 82.511346 
L 291.433103 78.063758 
L 287.397026 73.822779 
L 283.143302 69.800168 
L 278.683729 66.007082 
L 274.030679 62.454036 
L 269.197057 59.150883 
L 264.196273 56.106781 
L 259.042195 53.330169 
L 253.749121 50.828744 
L 248.331732 48.609441 
L 242.805053 46.678409 
L 237.184411 45.041 
L 231.485396 43.701752 
L 225.723813 42.664373 
L 219.91564 41.931737 
L 214.076985 41.50587 
L 208.224039 41.38795 
L 202.373032 41.578298 
L 196.540188 42.076383 
L 190.741683 42.880819 
L 184.993593 43.989371 
L 179.311857 45.398962 
L 173.712229 47.105677 
L 168.210233 49.104782 
L 162.821125 51.390729 
L 157.559845 53.957176 
L 152.44098 56.797004 
L 147.478722 59.902337 
L 142.686826 63.264559 
L 138.078577 66.874348 
L 133.66675 70.721693 
L 129.463575 74.795923 
L 125.480704 79.085741 
L 121.729178 83.579252 
L 118.219396 88.263996 
L 114.961088 93.126983 
L 111.963286 98.15473 
L 109.234299 103.333297 
L 106.781693 108.648325 
L 104.612267 114.08508 
L 102.732035 119.628487 
L 101.146209 125.263178 
L 99.859186 130.97353 
L 98.874534 136.743713 
L 98.194984 142.557727 
L 97.822421 148.399456 
L 97.757879 154.252701 
L 98.001538 160.101236 
L 98.552725 165.928845 
L 99.409913 171.71937 
L 100.570728 177.456758 
L 102.031955 183.125099 
L 103.789544 188.708677 
L 105.838626 194.192009 
L 108.173523 199.559892 
L 110.787763 204.79744 
L 113.674103 209.890128 
L 116.824542 214.823834 
L 120.23035 219.584874 
L 123.882085 224.160045 
L 127.769626 228.536656 
L 131.882197 232.702567 
L 136.208398 236.646224 
L 140.736235 240.356684 
L 145.453156 243.823654 
L 150.346083 247.037515 
L 155.401452 249.989349 
L 160.605244 252.670963 
L 165.943031 255.074915 
L 171.400011 257.194531 
L 176.961053 259.023927 
L 182.610734 260.558021 
L 188.333387 261.792553 
L 194.113139 262.72409 
L 199.93396 263.350043 
L 205.779705 263.668668 
L 211.63416 263.679073 
L 217.481083 263.381224 
L 223.304255 262.775938 
L 229.087522 261.864889 
L 234.814838 260.650596 
L 240.470314 259.136421 
L 246.038257 257.326559 
L 251.503218 255.226025 
L 256.850032 252.840638 
L 262.063863 250.177013 
L 267.130241 247.242533 
L 272.035106 244.045335 
L 276.764844 240.594285 
L 281.30633 236.898954 
L 285.646957 232.969591 
L 289.774678 228.817094 
L 293.678034 224.452984 
L 297.34619 219.889366 
L 300.768963 215.138902 
L 303.936851 210.214771 
L 306.841059 205.130636 
L 309.473523 199.900604 
L 311.826935 194.539186 
L 313.894761 189.061261 
L 315.671257 183.48203 
L 317.151491 177.816976 
L 318.331352 172.081819 
L 319.207563 166.292478 
L 319.77769 160.465017 
L 320.040147 154.615612 
L 319.994206 148.760496 
L 319.639992 142.915919 
L 318.978486 137.098102 
L 318.011524 131.323194 
L 316.74179 125.607221 
L 315.172806 119.966049 
L 313.308927 114.415334 
L 311.155327 108.970482 
L 308.717983 103.646605 
L 306.00366 98.458478 
L 303.019893 93.420502 
L 299.774965 88.546657 
L 296.277881 83.85047 
L 292.53835 79.344975 
L 288.566752 75.042674 
L 284.374111 70.955507 
L 279.972065 67.094816 
L 275.372833 63.471314 
L 270.58918 60.095055 
L 265.634385 56.975408 
L 260.5222 54.121027 
L 255.266815 51.539832 
L 249.882816 49.238983 
L 244.385146 47.224864 
L 238.789063 45.503059 
L 233.110099 44.078346 
L 227.364014 42.954673 
L 221.566756 42.135156 
L 215.734412 41.622065 
L 209.883169 41.416821 
L 204.029263 41.519989 
L 198.188939 41.93128 
L 192.378404 42.649549 
L 186.613781 43.672799 
L 180.911066 44.998188 
L 175.286083 46.622033 
L 169.754439 48.539827 
L 164.331483 50.746244 
L 159.032261 53.235159 
L 153.871476 55.999663 
L 148.863447 59.032083 
L 144.022069 62.324002 
L 139.360772 65.866284 
L 134.89249 69.649098 
L 130.62962 73.661947 
L 126.583988 77.893694 
L 122.766817 82.332598 
L 119.188698 86.966339 
L 115.859559 91.782061 
L 112.788634 96.766401 
L 109.984444 101.905529 
L 107.454769 107.185185 
L 105.206627 112.590721 
L 103.246257 118.107138 
L 101.579096 123.719129 
L 100.209772 129.411125 
L 99.142085 135.167332 
L 98.378997 140.971778 
L 97.922627 146.808359 
L 97.774244 152.66088 
L 97.93426 158.513102 
L 98.402233 164.348788 
L 99.176868 170.151743 
L 100.256017 175.905867 
L 101.636688 181.595192 
L 103.315055 187.203931 
L 105.286462 192.716519 
L 107.545443 198.117658 
L 110.085732 203.39236 
L 112.900285 208.525984 
L 115.981295 213.504285 
L 119.320215 218.313443 
L 122.907785 222.94011 
L 126.734051 227.371445 
L 130.788399 231.595145 
L 135.059582 235.599484 
L 139.535749 239.373347 
L 144.204482 242.906254 
L 149.052826 246.188395 
L 154.067329 249.210656 
L 159.234075 251.964644 
L 164.538727 254.442708 
L 169.966565 256.637965 
L 175.502524 258.544315 
L 181.13124 260.15646 
L 186.837091 261.469919 
L 192.604239 262.481038 
L 198.416676 263.187005 
L 204.258268 263.585853 
L 210.112798 263.676467 
L 215.964013 263.45859 
L 221.795669 262.932818 
L 227.591575 262.100605 
L 233.335638 260.964254 
L 239.011909 259.526914 
L 244.604627 257.79257 
L 250.09826 255.766029 
L 255.477553 253.452913 
L 260.727567 250.859639 
L 265.833721 247.993401 
L 270.781834 244.862153 
L 275.558161 241.474586 
L 280.149436 237.840101 
L 284.542905 233.968786 
L 288.726365 229.871388 
L 292.688193 225.559282 
L 296.417383 221.04444 
L 299.903574 216.339397 
L 303.137081 211.457216 
L 306.10892 206.411455 
L 308.810832 201.216125 
L 311.23531 195.885654 
L 313.375617 190.434844 
L 315.225805 184.878834 
L 316.78073 179.233053 
L 318.036073 173.513184 
L 318.988342 167.735111 
L 319.634891 161.914884 
L 319.97392 156.068668 
L 320.004486 150.212703 
L 319.726503 144.363253 
L 319.140739 138.536566 
L 318.248822 132.748829 
L 317.053228 127.016116 
L 315.557276 121.354353 
L 313.765121 115.779266 
L 311.681741 110.306341 
L 309.312922 104.950782 
L 306.665246 99.727464 
L 303.746065 94.650896 
L 300.563491 89.735179 
L 297.126362 84.993968 
L 293.444228 80.440433 
L 289.527318 76.08722 
L 285.386512 71.946422 
L 281.033313 68.029538 
L 276.479815 64.347449 
L 271.738666 60.910381 
L 266.823038 57.727879 
L 261.746585 54.808781 
L 256.523409 52.161194 
L 251.168019 49.79247 
L 245.695292 47.709187 
L 240.120429 45.917128 
L 234.458916 44.42127 
L 228.726479 43.225764 
L 222.93904 42.333929 
L 217.112675 41.748238 
L 211.263567 41.470317 
L 205.407962 41.500935 
L 199.562124 41.840004 
L 193.742289 42.48658 
L 187.964621 43.438864 
L 182.245167 44.694209 
L 176.599812 46.249127 
L 171.044234 48.099295 
L 165.593862 50.239574 
L 160.263834 52.664018 
L 155.068952 55.36589 
L 150.023643 58.337685 
L 145.141918 61.571148 
L 140.437334 65.057297 
L 135.922958 68.78645 
L 131.611324 72.748247 
L 127.514408 76.931685 
L 123.643587 81.325146 
L 120.009611 85.916426 
L 116.622571 90.692774 
L 113.491875 95.640925 
L 110.626216 100.747136 
L 108.033554 105.997225 
L 105.721089 111.376613 
L 103.695244 116.870359 
L 101.961647 122.463206 
L 100.525113 128.13962 
L 99.389632 133.883837 
L 98.558361 139.679904 
L 98.033608 145.511723 
L 97.816835 151.363097 
L 97.908644 157.217775 
L 98.308785 163.059495 
L 99.016147 168.872033 
L 100.028769 174.639243 
L 101.343841 180.345107 
L 102.957716 185.973775 
L 104.865912 191.509613 
L 107.063134 196.937243 
L 109.543282 202.241587 
L 112.299472 207.407909 
L 115.32405 212.421856 
L 118.608621 217.269498 
L 122.144063 221.937367 
L 125.920559 226.412492 
L 129.927624 230.682438 
L 134.154129 234.73534 
L 138.588336 238.559935 
L 143.217932 242.145592 
L 148.030057 245.482345 
L 153.011346 248.560919 
L 158.147963 251.372756 
L 163.42564 253.910038 
L 168.829716 256.165709 
L 174.345178 258.133496 
L 179.956704 259.807925 
L 185.648703 261.184336 
L 191.405361 262.2589 
L 197.210682 263.028622 
L 203.048537 263.491358 
L 208.902702 263.645815 
L 214.75691 263.491556 
L 220.594892 263.029004 
L 226.400422 262.259436 
L 232.157366 261.184986 
L 237.849722 259.808631 
L 243.461669 258.134192 
L 248.977608 256.166315 
L 254.382204 253.910464 
L 259.660434 251.372903 
L 264.797623 248.560679 
L 269.77949 245.481603 
L 274.592184 242.144229 
L 279.222323 238.557829 
L 283.657032 234.732368 
L 287.883981 230.678474 
L 291.891415 226.407415 
L 295.668189 221.931058 
L 299.203801 217.261845 
L 302.488417 212.412753 
L 305.512901 207.397261 
L 308.268841 202.229309 
L 310.748571 196.923264 
L 312.945193 191.493875 
L 314.852596 185.956237 
L 316.465472 180.325744 
L 317.779334 174.61805 
L 318.790526 168.849024 
L 319.496232 163.034705 
L 319.894488 157.19126 
L 319.984183 151.334936 
L 319.765065 145.482017 
L 319.237742 139.648777 
L 318.403677 133.851436 
L 317.265187 128.106114 
L 315.825436 122.428788 
L 314.088427 116.835243 
L 312.058988 111.341035 
L 309.742761 105.961441 
L 307.146186 100.71142 
L 304.276483 95.605572 
L 301.141631 90.658095 
L 297.750346 85.882747 
L 294.112059 81.292806 
L 290.236886 76.901035 
L 286.135605 72.719649 
L 281.819618 68.760272 
L 277.300929 65.033916 
L 272.592103 61.550942 
L 267.706234 58.321035 
L 262.656909 55.353175 
L 257.45817 52.655615 
L 252.124472 50.235855 
L 246.670649 48.100624 
L 241.111866 46.255856 
L 235.46358 44.706682 
L 229.741499 43.457409 
L 223.961534 42.511507 
L 218.139759 41.871608 
L 212.29236 41.539489 
L 206.435599 41.516072 
L 200.585762 41.801422 
L 194.759115 42.394743 
L 188.971859 43.294385 
L 183.240088 44.497845 
L 177.579739 46.001775 
L 172.006552 47.801994 
L 166.536023 49.893493 
L 161.183364 52.270457 
L 155.963458 54.926276 
L 150.890821 57.853563 
L 145.979557 61.04418 
L 141.243323 64.489252 
L 136.695288 68.179202 
L 132.3481 72.103768 
L 128.213846 76.252037 
L 124.304022 80.612474 
L 120.629502 85.172955 
L 117.200503 89.920799 
L 114.026561 94.842803 
L 111.116503 99.925282 
L 108.478422 105.154103 
L 106.119655 110.514726 
L 104.046763 115.992246 
L 102.265511 121.57143 
L 100.780856 127.236766 
L 99.596928 132.972498 
L 98.717022 138.762678 
L 98.143586 144.591203 
L 97.87822 150.441865 
L 97.921664 156.298393 
L 98.273799 162.144501 
L 98.933652 167.96393 
L 99.89939 173.740495 
L 101.168331 179.45813 
L 102.73695 185.100933 
L 104.600889 190.653208 
L 106.754968 196.099512 
L 109.1932 201.424695 
L 111.908808 206.613944 
L 114.894244 211.652823 
L 118.141208 216.527314 
L 121.640673 221.223856 
L 125.38291 225.72938 
L 129.357514 230.031352 
L 133.553433 234.117799 
L 137.959 237.977351 
L 142.561962 241.599265 
L 147.34952 244.973462 
L 152.308358 248.090548 
L 157.424684 250.941847 
L 162.684267 253.51942 
L 168.072478 255.81609 
L 173.574329 257.825461 
L 179.174513 259.541935 
L 184.857451 260.960731 
L 190.607334 262.077892 
L 196.408162 262.890305 
L 202.243797 263.3957 
L 208.097999 263.592666 
L 213.95448 263.480646 
L 219.796941 263.059944 
L 225.609124 262.331726 
L 231.374852 261.298009 
L 237.078079 259.961664 
L 242.702931 258.326403 
L 248.23375 256.39677 
L 253.655141 254.178129 
L 258.952013 251.67665 
L 264.10962 248.899287 
L 269.113601 245.853766 
L 273.950027 242.548558 
L 278.60543 238.992858 
L 283.066849 235.196559 
L 287.321858 231.170222 
L 291.358611 226.925053 
L 295.165864 222.472864 
L 298.733015 217.826045 
L 302.050128 212.99753 
L 305.107963 208.000758 
L 307.898004 202.849637 
L 310.412476 197.558506 
L 312.644377 192.142093 
L 314.587485 186.615477 
L 316.236387 180.994045 
L 317.586488 175.293445 
L 318.634023 169.529551 
L 319.376073 163.718409 
L 319.810565 157.8762 
L 319.936287 152.019192 
L 319.752885 146.163692 
L 319.260865 140.326007 
L 318.461594 134.522393 
L 317.357295 128.76901 
L 315.95104 123.08188 
L 314.246742 117.476842 
L 312.249143 111.969504 
L 309.963805 106.575205 
L 307.397089 101.308968 
L 304.556141 96.185458 
L 301.448871 91.218946 
L 298.08393 86.423264 
L 294.470688 81.811768 
L 290.619206 77.397303 
L 286.540209 73.192164 
L 282.245055 69.208063 
L 277.745706 65.456098 
L 273.054692 61.946718 
L 268.185076 58.689699 
L 263.15042 55.694112 
L 257.964746 52.968303 
L 252.642495 50.519863 
L 247.19849 48.355613 
L 241.647894 46.481582 
L 236.006165 44.90299 
L 230.289015 43.624234 
L 224.51237 42.648879 
L 218.692317 41.97964 
L 212.845066 41.618384 
L 206.986904 41.566117 
L 201.134147 41.822986 
L 195.303097 42.388277 
L 189.509996 43.260417 
L 183.770978 44.436977 
L 178.102031 45.914681 
L 172.518943 47.689416 
L 167.037267 49.756238 
L 161.672272 52.109394 
L 156.438903 54.742328 
L 151.351737 57.64771 
L 146.424946 60.817448 
L 141.672254 64.242714 
L 137.106902 67.913968 
L 132.741608 71.820987 
L 128.588534 75.952887 
L 124.659249 80.298162 
L 120.964703 84.844709 
L 117.515189 89.579863 
L 114.320319 94.490436 
L 111.388995 99.562751 
L 108.729388 104.782677 
L 106.348908 110.135675 
L 104.254192 115.606834 
L 102.451078 121.180913 
L 100.944594 126.842383 
L 99.738942 132.575473 
L 98.837484 138.36421 
L 98.242737 144.192469 
L 97.956362 150.044009 
L 97.979163 155.902529 
L 98.311081 161.751704 
L 98.951197 167.575236 
L 99.897733 173.356899 
L 101.148056 179.08058 
L 102.698689 184.730329 
L 104.545317 190.290402 
L 106.682799 195.745302 
L 109.105185 201.079826 
L 111.805731 206.279104 
L 114.776916 211.328644 
L 118.010466 216.21437 
L 121.497375 220.922661 
L 125.227931 225.440391 
L 129.19174 229.754962 
L 133.377762 233.854346 
L 137.774334 237.727108 
L 142.369206 241.36245 
L 147.149574 244.750231 
L 152.102117 247.881002 
L 157.213036 250.746027 
L 162.468084 253.337313 
L 167.852616 255.647628 
L 173.351625 257.670524 
L 178.949781 259.400353 
L 184.631479 260.832284 
L 190.380879 261.962316 
L 196.181954 262.787291 
L 202.018528 263.304898 
L 207.874327 263.513687 
L 213.733024 263.413066 
L 219.578279 263.003306 
L 225.393793 262.285543 
L 231.163345 261.261769 
L 236.870844 259.934831 
L 242.500369 258.30842 
L 248.036218 256.387065 
L 253.462947 254.176117 
L 258.765416 251.681733 
L 263.928831 248.910865 
L 268.938786 245.871233 
L 273.7813 242.571309 
L 278.442861 239.020293 
L 282.910459 235.228082 
L 287.171625 231.205251 
L 291.214465 226.963015 
L 295.027694 222.513207 
L 298.600667 217.868234 
L 301.923408 213.041052 
L 304.98664 208.045126 
L 307.781809 202.894391 
L 310.301108 197.603216 
L 312.537501 192.186362 
L 314.484739 186.658943 
L 316.137382 181.036381 
L 317.490811 175.334365 
L 318.54124 169.568805 
L 319.285733 163.755792 
L 319.722202 157.911548 
L 319.849424 152.052384 
L 319.667036 146.194654 
L 319.175541 140.354707 
L 318.376303 134.548845 
L 317.271547 128.793274 
L 315.86435 123.104063 
L 314.158634 117.497092 
L 312.159154 111.988018 
L 309.871486 106.59222 
L 307.302011 101.324766 
L 304.457895 96.200362 
L 301.347075 91.233319 
L 297.97823 86.437506 
L 294.36076 81.826319 
L 290.50476 77.412634 
L 286.420994 73.208779 
L 282.120858 69.226497 
L 277.616355 65.476911 
L 272.920061 61.970497 
L 268.045084 58.717049 
L 263.005036 55.725659 
L 257.813987 53.004685 
L 252.48643 50.56173 
L 247.037243 48.403624 
L 241.481639 46.536398 
L 235.835134 44.965274 
L 230.113496 43.694645 
L 224.332703 42.728066 
L 218.5089 42.068243 
L 212.658354 41.717026 
L 206.797405 41.675402 
L 200.942425 41.943494 
L 195.109769 42.520559 
L 189.315731 43.404993 
L 183.576496 44.594332 
L 177.908101 46.085259 
L 172.326381 47.873617 
L 166.846934 49.954417 
L 161.48507 52.321851 
L 156.255774 54.969313 
L 151.173659 57.889413 
L 146.252929 61.073997 
L 141.507338 64.514175 
L 136.950151 68.20034 
L 132.594108 72.122198 
L 128.451388 76.268796 
L 124.533573 80.628553 
L 120.85162 85.18929 
L 117.415826 89.938267 
L 114.235801 94.862216 
L 111.320441 99.94738 
L 108.677903 105.17955 
L 106.315583 110.544107 
L 104.240092 116.026058 
L 102.457244 121.610082 
L 100.972031 127.280573 
L 99.788617 133.02168 
L 98.910321 138.817355 
L 98.339609 144.651396 
L 98.078089 150.50749 
L 98.126503 156.369264 
L 98.484729 162.220326 
L 99.151775 168.044314 
L 100.12579 173.824939 
L 101.404062 179.546033 
L 102.983027 185.191591 
L 104.858282 190.745819 
L 107.024594 196.193178 
L 109.475917 201.518423 
L 112.205404 206.706654 
L 115.205432 211.743348 
L 118.467621 216.614407 
L 121.982854 221.306194 
L 125.741307 225.805573 
L 129.732475 230.099944 
L 133.9452 234.17728 
L 138.367703 238.026158 
L 142.987616 241.635796 
L 147.792019 244.996077 
L 152.767473 248.097584 
L 157.900058 250.931621 
L 163.175414 253.49024 
L 168.57878 255.766263 
L 174.095033 257.753302 
L 179.708733 259.445777 
L 185.404167 260.838935 
L 191.165389 261.928855 
L 196.976268 262.712469 
L 202.820531 263.187564 
L 208.68181 263.352792 
L 214.543686 263.207673 
L 220.38974 262.752593 
L 226.203589 261.988811 
L 231.968945 260.918447 
L 237.669647 259.544482 
L 243.289717 257.870748 
L 248.8134 255.901916 
L 254.225207 253.643487 
L 259.509964 251.101772 
L 264.652847 248.283878 
L 269.639429 245.197687 
L 274.455719 241.851833 
L 279.088202 238.255682 
L 283.523874 234.4193 
L 287.750284 230.353431 
L 291.755562 226.06946 
L 295.528459 221.579391 
L 299.058374 216.895802 
L 302.335388 212.031821 
L 305.350287 207.001081 
L 308.094593 201.817686 
L 310.560583 196.496171 
L 312.741317 191.05146 
L 314.630651 185.498826 
L 316.223258 179.853848 
L 317.514644 174.132368 
L 318.501159 168.350442 
L 319.180007 162.524303 
L 319.549258 156.670309 
L 319.607846 150.8049 
L 319.355582 144.944551 
L 318.793146 139.105727 
L 317.922091 133.304836 
L 316.744837 127.558182 
L 315.264664 121.881922 
L 313.485705 116.292019 
L 311.412931 110.804194 
L 309.052142 105.433889 
L 306.409948 100.196218 
L 303.493751 95.105926 
L 300.311727 90.177346 
L 296.872798 85.424365 
L 293.186614 80.860375 
L 289.263523 76.498243 
L 285.11454 72.350273 
L 280.75132 68.428168 
L 276.186126 64.743001 
L 271.431791 61.305181 
L 266.501686 58.124427 
L 261.409682 55.209734 
L 256.170108 52.569354 
L 250.797719 50.21077 
L 245.307646 48.140673 
L 239.71536 46.364943 
L 234.036626 44.888637 
L 228.28746 43.715968 
L 222.484087 42.850294 
L 216.64289 42.294112 
L 210.78037 42.049043 
L 204.913097 42.115835 
L 199.057665 42.494354 
L 193.230647 43.183585 
L 187.448547 44.181634 
L 181.727756 45.485733 
L 176.084503 47.092245 
L 170.534816 48.996674 
L 165.094474 51.193671 
L 159.778963 53.677056 
L 154.603436 56.439822 
L 149.582669 59.47416 
L 144.731024 62.77147 
L 140.062407 66.322386 
L 135.590233 70.116792 
L 131.32739 74.143843 
L 127.286204 78.391987 
L 123.47841 82.848978 
L 119.915122 87.501895 
L 116.606807 92.337151 
L 113.563262 97.340488 
L 110.793592 102.496964 
L 108.306197 107.79091 
L 106.108757 113.205839 
L 104.208222 118.724277 
L 102.610806 124.327458 
L 101.32197 129.994739 
L 100.346381 135.702469 
L 99.687773 141.421666 
L 99.34852 147.112854 
L 99.328186 152.713412 
L 99.618298 158.10276 
L 100.181368 162.997144 
L 100.87237 166.688353 
L 101.369369 168.301288 
L 101.369369 168.301288 
" clip-path="url(#p9dc373fcfb)" style="fill: none; stroke: #aa0000; stroke-linecap: square"/>
   </g>
   <g id="patch_4">
    <path d="M 86.6275 294.316875 
L 86.6275 10.8 
" style="fill: none; stroke: #000000; stroke-width: 0.8; stroke-linejoin: miter; stroke-linecap: square"/>
   </g>
   <g id="patch_5">
    <path d="M 331.2 294.316875 
L 331.2 10.8 
" style="fill: none; stroke: #000000; stroke-width: 0.8; stroke-linejoin: miter; stroke-linecap: square"/>
   </g>
   <g id="patch_6">
    <path d="M 86.6275 294.316875 
L 331.2 294.316875 
" style="fill: none; stroke: #000000; stroke-width: 0.8; stroke-linejoin: miter; stroke-linecap: square"/>
   </g>
   <g id="patch_7">
    <path d="M 86.6275 10.8 
L 331.2 10.8 
" style="fill: none; stroke: #000000; stroke-width: 0.8; stroke-linejoin: miter; stroke-linecap: square"/>
   </g>
  </g>
 </g>
 <defs>
  <clipPath id="p9dc373fcfb">
   <rect x="86.6275" y="10.8" width="244.5725" height="283.516875"/>
  </clipPath>
 </defs>
</svg>
