<?xml version="1.0" encoding="utf-8" standalone="no"?>
<!DOCTYPE svg PUBLIC "-//W3C//DTD SVG 1.1//EN"
  "http://www.w3.org/Graphics/SVG/1.1/DTD/svg11.dtd">
<svg xmlns:xlink="http://www.w3.org/1999/xlink" width="360pt" height="360pt" viewBox="0 0 360 360" xmlns="http://www.w3.org/2000/svg" version="1.1">
 <metadata>
  <rdf:RDF xmlns:dc="http://purl.org/dc/elements/1.1/" xmlns:cc="http://creativecommons.org/ns#" xmlns:rdf="http://www.w3.org/1999/02/22-rdf-syntax-ns#">
   <cc:Work>
    <dc:type rdf:resource="http://purl.org/dc/dcmitype/StillImage"/>
    <dc:date>2023-09-07T00:38:48.758675</dc:date>
    <dc:format>image/svg+xml</dc:format>
    <dc:creator>
     <cc:Agent>
      <dc:title>Matplotlib v3.7.2, https://matplotlib.org/</dc:title>
     </cc:Agent>
    </dc:creator>
   </cc:Work>
  </rdf:RDF>
 </metadata>
 <defs>
  <style type="text/css">*{stroke-linejoin: round; stroke-linecap: butt}</style>
 </defs>
 <g id="figure_1">
  <g id="patch_1">
   <path d="M 0 360 
L 360 360 
L 360 0 
L 0 0 
L 0 360 
z
" style="fill: none"/>
  </g>
  <g id="axes_1">
   <g id="patch_2">
    <path d="M 82.144985 293.476399 
L 345.240709 293.476399 
L 345.240709 30.360476 
L 82.144985 30.360476 
L 82.144985 293.476399 
z
" style="fill: none"/>
   </g>
   <g id="patch_3">
    <path d="M 213.68716 189.936072 
C 221.123599 189.936072 228.256462 186.981544 233.514819 181.723187 
C 238.773175 176.464831 241.727704 169.331968 241.727704 161.895529 
C 241.727704 154.45909 238.773175 147.326227 233.514819 142.06787 
C 228.256462 136.809514 221.123599 133.854985 213.68716 133.854985 
C 206.250721 133.854985 199.117858 136.809514 193.859502 142.06787 
C 188.601145 147.326227 185.646617 154.45909 185.646617 161.895529 
C 185.646617 169.331968 188.601145 176.464831 193.859502 181.723187 
C 199.117858 186.981544 206.250721 189.936072 213.68716 189.936072 
z
" clip-path="url(#p46c4a0173e)" style="fill: #008800; stroke: #008800; stroke-linejoin: miter"/>
   </g>
   <g id="matplotlib.axis_1">
    <g id="xtick_1">
     <g id="line2d_1">
      <path d="M 99.249975 293.476399 
L 99.249975 30.360476 
" clip-path="url(#p46c4a0173e)" style="fill: none; stroke: #b0b0b0; stroke-width: 0.8; stroke-linecap: square"/>
     </g>
     <g id="line2d_2">
      <defs>
       <path id="m1f1606d7a0" d="M 0 0 
L 0 3.5 
" style="stroke: #000000; stroke-width: 0.8"/>
      </defs>
      <g>
       <use xlink:href="#m1f1606d7a0" x="99.249975" y="293.476399" style="stroke: #000000; stroke-width: 0.8"/>
      </g>
     </g>
     <g id="text_1">
      <!-- -1,000 -->
      <g transform="translate(73.461225 312.633899) scale(0.16 -0.16)">
       <defs>
        <path id="DejaVuSans-2d" d="M 313 2009 
L 1997 2009 
L 1997 1497 
L 313 1497 
L 313 2009 
z
" transform="scale(0.015625)"/>
        <path id="DejaVuSans-31" d="M 794 531 
L 1825 531 
L 1825 4091 
L 703 3866 
L 703 4441 
L 1819 4666 
L 2450 4666 
L 2450 531 
L 3481 531 
L 3481 0 
L 794 0 
L 794 531 
z
" transform="scale(0.015625)"/>
        <path id="DejaVuSans-2c" d="M 750 794 
L 1409 794 
L 1409 256 
L 897 -744 
L 494 -744 
L 750 256 
L 750 794 
z
" transform="scale(0.015625)"/>
        <path id="DejaVuSans-30" d="M 2034 4250 
Q 1547 4250 1301 3770 
Q 1056 3291 1056 2328 
Q 1056 1369 1301 889 
Q 1547 409 2034 409 
Q 2525 409 2770 889 
Q 3016 1369 3016 2328 
Q 3016 3291 2770 3770 
Q 2525 4250 2034 4250 
z
M 2034 4750 
Q 2819 4750 3233 4129 
Q 3647 3509 3647 2328 
Q 3647 1150 3233 529 
Q 2819 -91 2034 -91 
Q 1250 -91 836 529 
Q 422 1150 422 2328 
Q 422 3509 836 4129 
Q 1250 4750 2034 4750 
z
" transform="scale(0.015625)"/>
       </defs>
       <use xlink:href="#DejaVuSans-2d"/>
       <use xlink:href="#DejaVuSans-31" x="36.083984"/>
       <use xlink:href="#DejaVuSans-2c" x="99.707031"/>
       <use xlink:href="#DejaVuSans-30" x="131.494141"/>
       <use xlink:href="#DejaVuSans-30" x="195.117188"/>
       <use xlink:href="#DejaVuSans-30" x="258.740234"/>
      </g>
     </g>
    </g>
    <g id="xtick_2">
     <g id="line2d_3">
      <path d="M 156.468568 293.476399 
L 156.468568 30.360476 
" clip-path="url(#p46c4a0173e)" style="fill: none; stroke: #b0b0b0; stroke-width: 0.8; stroke-linecap: square"/>
     </g>
     <g id="line2d_4">
      <g>
       <use xlink:href="#m1f1606d7a0" x="156.468568" y="293.476399" style="stroke: #000000; stroke-width: 0.8"/>
      </g>
     </g>
     <g id="text_2">
      <!-- -500 -->
      <g transform="translate(138.312318 312.633899) scale(0.16 -0.16)">
       <defs>
        <path id="DejaVuSans-35" d="M 691 4666 
L 3169 4666 
L 3169 4134 
L 1269 4134 
L 1269 2991 
Q 1406 3038 1543 3061 
Q 1681 3084 1819 3084 
Q 2600 3084 3056 2656 
Q 3513 2228 3513 1497 
Q 3513 744 3044 326 
Q 2575 -91 1722 -91 
Q 1428 -91 1123 -41 
Q 819 9 494 109 
L 494 744 
Q 775 591 1075 516 
Q 1375 441 1709 441 
Q 2250 441 2565 725 
Q 2881 1009 2881 1497 
Q 2881 1984 2565 2268 
Q 2250 2553 1709 2553 
Q 1456 2553 1204 2497 
Q 953 2441 691 2322 
L 691 4666 
z
" transform="scale(0.015625)"/>
       </defs>
       <use xlink:href="#DejaVuSans-2d"/>
       <use xlink:href="#DejaVuSans-35" x="36.083984"/>
       <use xlink:href="#DejaVuSans-30" x="99.707031"/>
       <use xlink:href="#DejaVuSans-30" x="163.330078"/>
      </g>
     </g>
    </g>
    <g id="xtick_3">
     <g id="line2d_5">
      <path d="M 213.68716 293.476399 
L 213.68716 30.360476 
" clip-path="url(#p46c4a0173e)" style="fill: none; stroke: #b0b0b0; stroke-width: 0.8; stroke-linecap: square"/>
     </g>
     <g id="line2d_6">
      <g>
       <use xlink:href="#m1f1606d7a0" x="213.68716" y="293.476399" style="stroke: #000000; stroke-width: 0.8"/>
      </g>
     </g>
     <g id="text_3">
      <!-- 0 -->
      <g transform="translate(208.59716 312.633899) scale(0.16 -0.16)">
       <use xlink:href="#DejaVuSans-30"/>
      </g>
     </g>
    </g>
    <g id="xtick_4">
     <g id="line2d_7">
      <path d="M 270.905753 293.476399 
L 270.905753 30.360476 
" clip-path="url(#p46c4a0173e)" style="fill: none; stroke: #b0b0b0; stroke-width: 0.8; stroke-linecap: square"/>
     </g>
     <g id="line2d_8">
      <g>
       <use xlink:href="#m1f1606d7a0" x="270.905753" y="293.476399" style="stroke: #000000; stroke-width: 0.8"/>
      </g>
     </g>
     <g id="text_4">
      <!-- 500 -->
      <g transform="translate(255.635753 312.633899) scale(0.16 -0.16)">
       <use xlink:href="#DejaVuSans-35"/>
       <use xlink:href="#DejaVuSans-30" x="63.623047"/>
       <use xlink:href="#DejaVuSans-30" x="127.246094"/>
      </g>
     </g>
    </g>
    <g id="xtick_5">
     <g id="line2d_9">
      <path d="M 328.124345 293.476399 
L 328.124345 30.360476 
" clip-path="url(#p46c4a0173e)" style="fill: none; stroke: #b0b0b0; stroke-width: 0.8; stroke-linecap: square"/>
     </g>
     <g id="line2d_10">
      <g>
       <use xlink:href="#m1f1606d7a0" x="328.124345" y="293.476399" style="stroke: #000000; stroke-width: 0.8"/>
      </g>
     </g>
     <g id="text_5">
      <!-- 1,000 -->
      <g transform="translate(305.221845 312.633899) scale(0.16 -0.16)">
       <use xlink:href="#DejaVuSans-31"/>
       <use xlink:href="#DejaVuSans-2c" x="63.623047"/>
       <use xlink:href="#DejaVuSans-30" x="95.410156"/>
       <use xlink:href="#DejaVuSans-30" x="159.033203"/>
       <use xlink:href="#DejaVuSans-30" x="222.65625"/>
      </g>
     </g>
    </g>
    <g id="text_6">
     <!-- X Distance, Inertial [m] -->
     <g transform="translate(155.699097 327.559837) scale(0.1 -0.1)">
      <defs>
       <path id="DejaVuSans-58" d="M 403 4666 
L 1081 4666 
L 2241 2931 
L 3406 4666 
L 4084 4666 
L 2584 2425 
L 4184 0 
L 3506 0 
L 2194 1984 
L 872 0 
L 191 0 
L 1856 2491 
L 403 4666 
z
" transform="scale(0.015625)"/>
       <path id="DejaVuSans-20" transform="scale(0.015625)"/>
       <path id="DejaVuSans-44" d="M 1259 4147 
L 1259 519 
L 2022 519 
Q 2988 519 3436 956 
Q 3884 1394 3884 2338 
Q 3884 3275 3436 3711 
Q 2988 4147 2022 4147 
L 1259 4147 
z
M 628 4666 
L 1925 4666 
Q 3281 4666 3915 4102 
Q 4550 3538 4550 2338 
Q 4550 1131 3912 565 
Q 3275 0 1925 0 
L 628 0 
L 628 4666 
z
" transform="scale(0.015625)"/>
       <path id="DejaVuSans-69" d="M 603 3500 
L 1178 3500 
L 1178 0 
L 603 0 
L 603 3500 
z
M 603 4863 
L 1178 4863 
L 1178 4134 
L 603 4134 
L 603 4863 
z
" transform="scale(0.015625)"/>
       <path id="DejaVuSans-73" d="M 2834 3397 
L 2834 2853 
Q 2591 2978 2328 3040 
Q 2066 3103 1784 3103 
Q 1356 3103 1142 2972 
Q 928 2841 928 2578 
Q 928 2378 1081 2264 
Q 1234 2150 1697 2047 
L 1894 2003 
Q 2506 1872 2764 1633 
Q 3022 1394 3022 966 
Q 3022 478 2636 193 
Q 2250 -91 1575 -91 
Q 1294 -91 989 -36 
Q 684 19 347 128 
L 347 722 
Q 666 556 975 473 
Q 1284 391 1588 391 
Q 1994 391 2212 530 
Q 2431 669 2431 922 
Q 2431 1156 2273 1281 
Q 2116 1406 1581 1522 
L 1381 1569 
Q 847 1681 609 1914 
Q 372 2147 372 2553 
Q 372 3047 722 3315 
Q 1072 3584 1716 3584 
Q 2034 3584 2315 3537 
Q 2597 3491 2834 3397 
z
" transform="scale(0.015625)"/>
       <path id="DejaVuSans-74" d="M 1172 4494 
L 1172 3500 
L 2356 3500 
L 2356 3053 
L 1172 3053 
L 1172 1153 
Q 1172 725 1289 603 
Q 1406 481 1766 481 
L 2356 481 
L 2356 0 
L 1766 0 
Q 1100 0 847 248 
Q 594 497 594 1153 
L 594 3053 
L 172 3053 
L 172 3500 
L 594 3500 
L 594 4494 
L 1172 4494 
z
" transform="scale(0.015625)"/>
       <path id="DejaVuSans-61" d="M 2194 1759 
Q 1497 1759 1228 1600 
Q 959 1441 959 1056 
Q 959 750 1161 570 
Q 1363 391 1709 391 
Q 2188 391 2477 730 
Q 2766 1069 2766 1631 
L 2766 1759 
L 2194 1759 
z
M 3341 1997 
L 3341 0 
L 2766 0 
L 2766 531 
Q 2569 213 2275 61 
Q 1981 -91 1556 -91 
Q 1019 -91 701 211 
Q 384 513 384 1019 
Q 384 1609 779 1909 
Q 1175 2209 1959 2209 
L 2766 2209 
L 2766 2266 
Q 2766 2663 2505 2880 
Q 2244 3097 1772 3097 
Q 1472 3097 1187 3025 
Q 903 2953 641 2809 
L 641 3341 
Q 956 3463 1253 3523 
Q 1550 3584 1831 3584 
Q 2591 3584 2966 3190 
Q 3341 2797 3341 1997 
z
" transform="scale(0.015625)"/>
       <path id="DejaVuSans-6e" d="M 3513 2113 
L 3513 0 
L 2938 0 
L 2938 2094 
Q 2938 2591 2744 2837 
Q 2550 3084 2163 3084 
Q 1697 3084 1428 2787 
Q 1159 2491 1159 1978 
L 1159 0 
L 581 0 
L 581 3500 
L 1159 3500 
L 1159 2956 
Q 1366 3272 1645 3428 
Q 1925 3584 2291 3584 
Q 2894 3584 3203 3211 
Q 3513 2838 3513 2113 
z
" transform="scale(0.015625)"/>
       <path id="DejaVuSans-63" d="M 3122 3366 
L 3122 2828 
Q 2878 2963 2633 3030 
Q 2388 3097 2138 3097 
Q 1578 3097 1268 2742 
Q 959 2388 959 1747 
Q 959 1106 1268 751 
Q 1578 397 2138 397 
Q 2388 397 2633 464 
Q 2878 531 3122 666 
L 3122 134 
Q 2881 22 2623 -34 
Q 2366 -91 2075 -91 
Q 1284 -91 818 406 
Q 353 903 353 1747 
Q 353 2603 823 3093 
Q 1294 3584 2113 3584 
Q 2378 3584 2631 3529 
Q 2884 3475 3122 3366 
z
" transform="scale(0.015625)"/>
       <path id="DejaVuSans-65" d="M 3597 1894 
L 3597 1613 
L 953 1613 
Q 991 1019 1311 708 
Q 1631 397 2203 397 
Q 2534 397 2845 478 
Q 3156 559 3463 722 
L 3463 178 
Q 3153 47 2828 -22 
Q 2503 -91 2169 -91 
Q 1331 -91 842 396 
Q 353 884 353 1716 
Q 353 2575 817 3079 
Q 1281 3584 2069 3584 
Q 2775 3584 3186 3129 
Q 3597 2675 3597 1894 
z
M 3022 2063 
Q 3016 2534 2758 2815 
Q 2500 3097 2075 3097 
Q 1594 3097 1305 2825 
Q 1016 2553 972 2059 
L 3022 2063 
z
" transform="scale(0.015625)"/>
       <path id="DejaVuSans-49" d="M 628 4666 
L 1259 4666 
L 1259 0 
L 628 0 
L 628 4666 
z
" transform="scale(0.015625)"/>
       <path id="DejaVuSans-72" d="M 2631 2963 
Q 2534 3019 2420 3045 
Q 2306 3072 2169 3072 
Q 1681 3072 1420 2755 
Q 1159 2438 1159 1844 
L 1159 0 
L 581 0 
L 581 3500 
L 1159 3500 
L 1159 2956 
Q 1341 3275 1631 3429 
Q 1922 3584 2338 3584 
Q 2397 3584 2469 3576 
Q 2541 3569 2628 3553 
L 2631 2963 
z
" transform="scale(0.015625)"/>
       <path id="DejaVuSans-6c" d="M 603 4863 
L 1178 4863 
L 1178 0 
L 603 0 
L 603 4863 
z
" transform="scale(0.015625)"/>
       <path id="DejaVuSans-5b" d="M 550 4863 
L 1875 4863 
L 1875 4416 
L 1125 4416 
L 1125 -397 
L 1875 -397 
L 1875 -844 
L 550 -844 
L 550 4863 
z
" transform="scale(0.015625)"/>
       <path id="DejaVuSans-6d" d="M 3328 2828 
Q 3544 3216 3844 3400 
Q 4144 3584 4550 3584 
Q 5097 3584 5394 3201 
Q 5691 2819 5691 2113 
L 5691 0 
L 5113 0 
L 5113 2094 
Q 5113 2597 4934 2840 
Q 4756 3084 4391 3084 
Q 3944 3084 3684 2787 
Q 3425 2491 3425 1978 
L 3425 0 
L 2847 0 
L 2847 2094 
Q 2847 2600 2669 2842 
Q 2491 3084 2119 3084 
Q 1678 3084 1418 2786 
Q 1159 2488 1159 1978 
L 1159 0 
L 581 0 
L 581 3500 
L 1159 3500 
L 1159 2956 
Q 1356 3278 1631 3431 
Q 1906 3584 2284 3584 
Q 2666 3584 2933 3390 
Q 3200 3197 3328 2828 
z
" transform="scale(0.015625)"/>
       <path id="DejaVuSans-5d" d="M 1947 4863 
L 1947 -844 
L 622 -844 
L 622 -397 
L 1369 -397 
L 1369 4416 
L 622 4416 
L 622 4863 
L 1947 4863 
z
" transform="scale(0.015625)"/>
      </defs>
      <use xlink:href="#DejaVuSans-58"/>
      <use xlink:href="#DejaVuSans-20" x="68.505859"/>
      <use xlink:href="#DejaVuSans-44" x="100.292969"/>
      <use xlink:href="#DejaVuSans-69" x="177.294922"/>
      <use xlink:href="#DejaVuSans-73" x="205.078125"/>
      <use xlink:href="#DejaVuSans-74" x="257.177734"/>
      <use xlink:href="#DejaVuSans-61" x="296.386719"/>
      <use xlink:href="#DejaVuSans-6e" x="357.666016"/>
      <use xlink:href="#DejaVuSans-63" x="421.044922"/>
      <use xlink:href="#DejaVuSans-65" x="476.025391"/>
      <use xlink:href="#DejaVuSans-2c" x="537.548828"/>
      <use xlink:href="#DejaVuSans-20" x="569.335938"/>
      <use xlink:href="#DejaVuSans-49" x="601.123047"/>
      <use xlink:href="#DejaVuSans-6e" x="630.615234"/>
      <use xlink:href="#DejaVuSans-65" x="693.994141"/>
      <use xlink:href="#DejaVuSans-72" x="755.517578"/>
      <use xlink:href="#DejaVuSans-74" x="796.630859"/>
      <use xlink:href="#DejaVuSans-69" x="835.839844"/>
      <use xlink:href="#DejaVuSans-61" x="863.623047"/>
      <use xlink:href="#DejaVuSans-6c" x="924.902344"/>
      <use xlink:href="#DejaVuSans-20" x="952.685547"/>
      <use xlink:href="#DejaVuSans-5b" x="984.472656"/>
      <use xlink:href="#DejaVuSans-6d" x="1023.486328"/>
      <use xlink:href="#DejaVuSans-5d" x="1120.898438"/>
     </g>
    </g>
   </g>
   <g id="matplotlib.axis_2">
    <g id="ytick_1">
     <g id="line2d_11">
      <path d="M 82.144985 276.332714 
L 345.240709 276.332714 
" clip-path="url(#p46c4a0173e)" style="fill: none; stroke: #b0b0b0; stroke-width: 0.8; stroke-linecap: square"/>
     </g>
     <g id="line2d_12">
      <defs>
       <path id="mf0a983081a" d="M 0 0 
L -3.5 0 
" style="stroke: #000000; stroke-width: 0.8"/>
      </defs>
      <g>
       <use xlink:href="#mf0a983081a" x="82.144985" y="276.332714" style="stroke: #000000; stroke-width: 0.8"/>
      </g>
     </g>
     <g id="text_7">
      <!-- -1,000 -->
      <g transform="translate(23.567485 282.411464) scale(0.16 -0.16)">
       <use xlink:href="#DejaVuSans-2d"/>
       <use xlink:href="#DejaVuSans-31" x="36.083984"/>
       <use xlink:href="#DejaVuSans-2c" x="99.707031"/>
       <use xlink:href="#DejaVuSans-30" x="131.494141"/>
       <use xlink:href="#DejaVuSans-30" x="195.117188"/>
       <use xlink:href="#DejaVuSans-30" x="258.740234"/>
      </g>
     </g>
    </g>
    <g id="ytick_2">
     <g id="line2d_13">
      <path d="M 82.144985 219.114121 
L 345.240709 219.114121 
" clip-path="url(#p46c4a0173e)" style="fill: none; stroke: #b0b0b0; stroke-width: 0.8; stroke-linecap: square"/>
     </g>
     <g id="line2d_14">
      <g>
       <use xlink:href="#mf0a983081a" x="82.144985" y="219.114121" style="stroke: #000000; stroke-width: 0.8"/>
      </g>
     </g>
     <g id="text_8">
      <!-- -500 -->
      <g transform="translate(38.832485 225.192871) scale(0.16 -0.16)">
       <use xlink:href="#DejaVuSans-2d"/>
       <use xlink:href="#DejaVuSans-35" x="36.083984"/>
       <use xlink:href="#DejaVuSans-30" x="99.707031"/>
       <use xlink:href="#DejaVuSans-30" x="163.330078"/>
      </g>
     </g>
    </g>
    <g id="ytick_3">
     <g id="line2d_15">
      <path d="M 82.144985 161.895529 
L 345.240709 161.895529 
" clip-path="url(#p46c4a0173e)" style="fill: none; stroke: #b0b0b0; stroke-width: 0.8; stroke-linecap: square"/>
     </g>
     <g id="line2d_16">
      <g>
       <use xlink:href="#mf0a983081a" x="82.144985" y="161.895529" style="stroke: #000000; stroke-width: 0.8"/>
      </g>
     </g>
     <g id="text_9">
      <!-- 0 -->
      <g transform="translate(64.964985 167.974279) scale(0.16 -0.16)">
       <use xlink:href="#DejaVuSans-30"/>
      </g>
     </g>
    </g>
    <g id="ytick_4">
     <g id="line2d_17">
      <path d="M 82.144985 104.676936 
L 345.240709 104.676936 
" clip-path="url(#p46c4a0173e)" style="fill: none; stroke: #b0b0b0; stroke-width: 0.8; stroke-linecap: square"/>
     </g>
     <g id="line2d_18">
      <g>
       <use xlink:href="#mf0a983081a" x="82.144985" y="104.676936" style="stroke: #000000; stroke-width: 0.8"/>
      </g>
     </g>
     <g id="text_10">
      <!-- 500 -->
      <g transform="translate(44.604985 110.755686) scale(0.16 -0.16)">
       <use xlink:href="#DejaVuSans-35"/>
       <use xlink:href="#DejaVuSans-30" x="63.623047"/>
       <use xlink:href="#DejaVuSans-30" x="127.246094"/>
      </g>
     </g>
    </g>
    <g id="ytick_5">
     <g id="line2d_19">
      <path d="M 82.144985 47.458344 
L 345.240709 47.458344 
" clip-path="url(#p46c4a0173e)" style="fill: none; stroke: #b0b0b0; stroke-width: 0.8; stroke-linecap: square"/>
     </g>
     <g id="line2d_20">
      <g>
       <use xlink:href="#mf0a983081a" x="82.144985" y="47.458344" style="stroke: #000000; stroke-width: 0.8"/>
      </g>
     </g>
     <g id="text_11">
      <!-- 1,000 -->
      <g transform="translate(29.339985 53.537094) scale(0.16 -0.16)">
       <use xlink:href="#DejaVuSans-31"/>
       <use xlink:href="#DejaVuSans-2c" x="63.623047"/>
       <use xlink:href="#DejaVuSans-30" x="95.410156"/>
       <use xlink:href="#DejaVuSans-30" x="159.033203"/>
       <use xlink:href="#DejaVuSans-30" x="222.65625"/>
      </g>
     </g>
    </g>
    <g id="text_12">
     <!-- Z Distance, Inertial [m] -->
     <g transform="translate(17.487797 219.912188) rotate(-90) scale(0.1 -0.1)">
      <defs>
       <path id="DejaVuSans-5a" d="M 359 4666 
L 4025 4666 
L 4025 4184 
L 1075 531 
L 4097 531 
L 4097 0 
L 288 0 
L 288 481 
L 3238 4134 
L 359 4134 
L 359 4666 
z
" transform="scale(0.015625)"/>
      </defs>
      <use xlink:href="#DejaVuSans-5a"/>
      <use xlink:href="#DejaVuSans-20" x="68.505859"/>
      <use xlink:href="#DejaVuSans-44" x="100.292969"/>
      <use xlink:href="#DejaVuSans-69" x="177.294922"/>
      <use xlink:href="#DejaVuSans-73" x="205.078125"/>
      <use xlink:href="#DejaVuSans-74" x="257.177734"/>
      <use xlink:href="#DejaVuSans-61" x="296.386719"/>
      <use xlink:href="#DejaVuSans-6e" x="357.666016"/>
      <use xlink:href="#DejaVuSans-63" x="421.044922"/>
      <use xlink:href="#DejaVuSans-65" x="476.025391"/>
      <use xlink:href="#DejaVuSans-2c" x="537.548828"/>
      <use xlink:href="#DejaVuSans-20" x="569.335938"/>
      <use xlink:href="#DejaVuSans-49" x="601.123047"/>
      <use xlink:href="#DejaVuSans-6e" x="630.615234"/>
      <use xlink:href="#DejaVuSans-65" x="693.994141"/>
      <use xlink:href="#DejaVuSans-72" x="755.517578"/>
      <use xlink:href="#DejaVuSans-74" x="796.630859"/>
      <use xlink:href="#DejaVuSans-69" x="835.839844"/>
      <use xlink:href="#DejaVuSans-61" x="863.623047"/>
      <use xlink:href="#DejaVuSans-6c" x="924.902344"/>
      <use xlink:href="#DejaVuSans-20" x="952.685547"/>
      <use xlink:href="#DejaVuSans-5b" x="984.472656"/>
      <use xlink:href="#DejaVuSans-6d" x="1023.486328"/>
      <use xlink:href="#DejaVuSans-5d" x="1120.898438"/>
     </g>
    </g>
   </g>
   <g id="line2d_21">
    <path d="M 141.894969 273.295204 
L 137.48282 268.324994 
L 133.320742 263.306342 
L 129.29965 258.109886 
L 125.536831 252.890587 
L 121.92972 247.510633 
L 118.489351 241.97517 
L 115.317242 236.45481 
L 112.322406 230.800137 
L 109.514135 225.018691 
L 106.901205 219.118918 
L 104.55966 213.288324 
L 102.4166 207.36428 
L 100.478055 201.356683 
L 98.749215 195.276003 
L 97.234362 189.133184 
L 96.079809 183.576479 
L 95.25442 178.475828 
L 94.650124 173.344226 
L 94.268056 168.19125 
L 94.108936 163.02652 
L 94.17307 157.859679 
L 94.460346 152.700374 
L 94.970235 147.558238 
L 95.701791 142.442873 
L 96.653657 137.363832 
L 97.824063 132.3306 
L 99.210828 127.352577 
L 100.811371 122.439062 
L 102.622709 117.599232 
L 104.641465 112.842129 
L 106.863876 108.176638 
L 109.285796 103.611477 
L 111.902707 99.155174 
L 114.709727 94.816056 
L 117.701617 90.60223 
L 120.872794 86.521569 
L 124.217337 82.5817 
L 127.729004 78.789984 
L 131.401239 75.153508 
L 135.227184 71.679067 
L 139.199696 68.373155 
L 143.311356 65.241951 
L 147.554484 62.291306 
L 151.921158 59.526736 
L 156.40322 56.953407 
L 160.992298 54.576129 
L 165.679821 52.399345 
L 170.457032 50.427124 
L 175.315006 48.663152 
L 180.244669 47.110725 
L 185.23681 45.772745 
L 190.282104 44.651712 
L 195.371125 43.74972 
L 200.494365 43.068455 
L 205.642253 42.60919 
L 210.80517 42.372781 
L 215.973472 42.359669 
L 221.137504 42.569878 
L 226.287617 43.003013 
L 231.41419 43.658263 
L 236.507646 44.534401 
L 241.558471 45.629789 
L 246.557228 46.942377 
L 251.494582 48.469709 
L 256.361309 50.20893 
L 261.148319 52.156787 
L 265.846672 54.309637 
L 270.447592 56.663455 
L 274.942489 59.21384 
L 279.322968 61.956024 
L 283.580849 64.88488 
L 287.708183 67.994933 
L 291.697265 71.28037 
L 295.540646 74.73505 
L 299.231155 78.352516 
L 302.7619 82.126008 
L 306.126296 86.048474 
L 309.318062 90.112584 
L 312.331243 94.310745 
L 315.160219 98.635112 
L 317.799713 103.077607 
L 320.244802 107.62993 
L 322.490928 112.283578 
L 324.533902 117.029859 
L 326.369918 121.859906 
L 327.995556 126.764701 
L 329.407785 131.735083 
L 330.603979 136.761771 
L 331.581912 141.835378 
L 332.339765 146.946433 
L 332.876131 152.085393 
L 333.190017 157.242665 
L 333.280845 162.408621 
L 333.148454 167.573619 
L 332.793098 172.728019 
L 332.215447 177.862202 
L 331.416588 182.966586 
L 330.398017 188.031645 
L 329.161645 193.04793 
L 327.709784 198.006081 
L 326.045151 202.896847 
L 324.170859 207.711103 
L 322.09041 212.439871 
L 319.807694 217.074328 
L 317.326975 221.60583 
L 314.652887 226.025925 
L 311.790424 230.32637 
L 308.744932 234.499143 
L 305.522097 238.536465 
L 302.127934 242.430804 
L 298.568781 246.174901 
L 294.851281 249.761772 
L 290.98237 253.18473 
L 286.96927 256.437393 
L 282.819469 259.513696 
L 278.540709 262.407904 
L 274.140975 265.11462 
L 269.628475 267.628797 
L 265.011627 269.945749 
L 260.299044 272.061155 
L 255.499516 273.971072 
L 250.621997 275.671938 
L 245.675587 277.160583 
L 240.669509 278.434229 
L 235.613103 279.490503 
L 230.5158 280.327433 
L 225.387107 280.94346 
L 220.23659 281.337433 
L 215.073857 281.508616 
L 209.908537 281.45669 
L 204.750265 281.181749 
L 199.608662 280.684306 
L 194.493321 279.965284 
L 189.413781 279.026024 
L 184.379519 277.868274 
L 179.399927 276.494191 
L 174.484293 274.906335 
L 169.64179 273.107664 
L 164.881451 271.101531 
L 160.21216 268.891672 
L 155.642628 266.482208 
L 151.181382 263.877627 
L 146.836749 261.082786 
L 142.616836 258.102894 
L 138.529519 254.943505 
L 134.58243 251.61051 
L 130.782934 248.110123 
L 127.138127 244.448871 
L 123.654814 240.63358 
L 120.339499 236.671364 
L 117.198374 232.569614 
L 114.237306 228.33598 
L 111.461827 223.978357 
L 108.877122 219.504873 
L 106.488021 214.923875 
L 104.298991 210.243908 
L 102.314123 205.473703 
L 100.537128 200.62216 
L 98.971332 195.698334 
L 97.619663 190.711411 
L 96.502654 185.753938 
L 95.645806 180.943352 
L 95.009438 176.09719 
L 94.594982 171.224475 
L 94.403592 166.334289 
L 94.436135 161.435775 
L 94.693196 156.538132 
L 95.175063 151.650616 
L 95.881737 146.78254 
L 96.812909 141.943274 
L 97.967966 137.142237 
L 99.345981 132.388902 
L 100.893978 127.834165 
L 102.649004 123.341958 
L 104.609312 118.921039 
L 106.772844 114.580199 
L 109.137216 110.328256 
L 111.699714 106.174051 
L 114.457275 102.126438 
L 117.406481 98.194277 
L 120.543544 94.386427 
L 123.864294 90.711732 
L 127.364165 87.179014 
L 130.920785 83.900371 
L 134.635937 80.771146 
L 138.504333 77.799213 
L 142.520292 74.992367 
L 146.677721 72.358308 
L 150.970111 69.904618 
L 155.39052 67.638742 
L 159.931567 65.567966 
L 164.433621 63.756436 
L 169.033817 62.140509 
L 173.724244 60.726214 
L 178.496579 59.519336 
L 183.342078 58.52539 
L 188.251591 57.749591 
L 193.215546 57.196819 
L 198.05641 56.878716 
L 202.929451 56.776955 
L 207.824948 56.894871 
L 212.732849 57.23538 
L 217.642776 57.800952 
L 222.544051 58.593572 
L 227.425707 59.614711 
L 232.109887 60.818341 
L 236.755003 62.236177 
L 241.350565 63.868 
L 245.885937 65.713031 
L 250.350365 67.76991 
L 254.733018 70.03667 
L 259.023025 72.510717 
L 263.209513 75.188816 
L 267.138315 77.96088 
L 270.95117 80.914984 
L 274.638576 84.046463 
L 278.191197 87.350069 
L 281.599906 90.819966 
L 284.85583 94.449743 
L 287.950397 98.232417 
L 290.87538 102.160453 
L 293.622943 106.225777 
L 296.185683 110.419805 
L 298.556676 114.733466 
L 300.729511 119.157233 
L 302.698334 123.681165 
L 304.457874 128.294939 
L 306.003486 132.9879 
L 307.331165 137.749101 
L 308.426187 142.514674 
L 309.257455 147.141707 
L 309.862856 151.803609 
L 310.240968 156.48936 
L 310.390909 161.187887 
L 310.312331 165.888087 
L 310.00543 170.578851 
L 309.47094 175.249098 
L 308.710134 179.887794 
L 307.724815 184.483978 
L 306.517322 189.026795 
L 305.090515 193.505513 
L 303.447773 197.909554 
L 301.592983 202.228516 
L 299.530533 206.4522 
L 297.265304 210.570631 
L 294.802652 214.574085 
L 292.148398 218.453107 
L 289.308818 222.19854 
L 286.290624 225.80154 
L 283.100948 229.253601 
L 279.747329 232.546573 
L 276.23769 235.672682 
L 272.580323 238.624548 
L 268.783867 241.395204 
L 264.857293 243.978107 
L 260.809873 246.367162 
L 256.651168 248.556729 
L 252.391001 250.541638 
L 248.039431 252.317204 
L 243.606737 253.879235 
L 239.103388 255.224043 
L 234.540018 256.348453 
L 229.927402 257.24981 
L 225.276434 257.925984 
L 220.598099 258.375378 
L 215.903441 258.596929 
L 211.203551 258.590112 
L 206.509524 258.354941 
L 201.832449 257.891968 
L 197.183371 257.202285 
L 192.57327 256.287516 
L 188.013034 255.149817 
L 183.513434 253.791872 
L 179.085099 252.216883 
L 174.738491 250.428566 
L 170.483876 248.431137 
L 166.331308 246.229312 
L 162.290598 243.828283 
L 158.371293 241.233718 
L 154.582656 238.45174 
L 150.93364 235.488914 
L 147.43287 232.352233 
L 144.088623 229.049102 
L 140.908804 225.58732 
L 137.900931 221.975058 
L 135.072119 218.220846 
L 132.429056 214.33355 
L 129.977997 210.322349 
L 127.72474 206.196716 
L 125.674618 201.966397 
L 123.832483 197.641385 
L 122.202698 193.231896 
L 120.789123 188.748347 
L 119.595107 184.201334 
L 118.664367 179.790922 
L 117.98639 175.46837 
L 117.534914 171.113697 
L 117.311472 166.737166 
L 117.317275 162.349126 
L 117.55321 157.96001 
L 117.998435 153.742265 
L 118.657783 149.542774 
L 119.531155 145.371115 
L 120.618142 141.236959 
L 121.918017 137.150072 
L 123.429712 133.120319 
L 125.151812 129.157664 
L 127.082533 125.272172 
L 129.219707 121.474006 
L 131.560754 117.773428 
L 134.102665 114.180793 
L 136.841979 110.70654 
L 139.658428 107.487347 
L 142.649793 104.396742 
L 145.811667 101.444186 
L 149.139155 98.639168 
L 152.626849 95.991196 
L 156.268804 93.509771 
L 160.058503 91.204365 
L 163.829016 89.165518 
L 167.722302 87.305822 
L 171.730967 85.633427 
L 175.847041 84.156339 
L 180.061948 82.882386 
L 184.366495 81.819171 
L 188.750845 80.974028 
L 193.017699 80.375218 
L 197.338406 79.988964 
L 201.702591 79.820729 
L 206.099305 79.87555 
L 210.517032 80.157972 
L 214.943698 80.671994 
L 219.174634 81.383505 
L 223.390717 82.312385 
L 227.580044 83.460383 
L 231.730332 84.82856 
L 235.828956 86.41724 
L 239.862992 88.22595 
L 243.819276 90.25337 
L 247.510938 92.390631 
L 251.107897 94.722426 
L 254.598423 97.245212 
L 257.970827 99.954605 
L 261.21353 102.845365 
L 264.315145 105.911377 
L 267.264556 109.145657 
L 270.051004 112.540349 
L 272.664167 116.086746 
L 275.094256 119.775316 
L 277.230013 123.410981 
L 279.184035 127.156698 
L 280.949605 131.002356 
L 282.520689 134.937329 
L 283.891992 138.950539 
L 285.058996 143.030516 
L 286.046762 147.310135 
L 286.729641 151.236854 
L 287.199571 155.194648 
L 287.455192 159.171977 
L 287.495768 163.157246 
L 287.32119 167.138837 
L 286.931976 171.105144 
L 286.329272 175.044607 
L 285.514842 178.945745 
L 284.491068 182.79719 
L 283.260943 186.587719 
L 281.82806 190.306288 
L 280.196602 193.942063 
L 278.371331 197.484452 
L 276.357572 200.923136 
L 274.1612 204.248098 
L 271.788619 207.449654 
L 269.246748 210.518479 
L 266.542998 213.445636 
L 263.685251 216.222599 
L 260.681836 218.841282 
L 257.541506 221.294059 
L 254.273413 223.573787 
L 250.88708 225.673828 
L 247.392376 227.588066 
L 243.799479 229.310927 
L 240.118859 230.837395 
L 236.36124 232.163023 
L 232.537568 233.283951 
L 228.658982 234.196914 
L 224.73678 234.899252 
L 220.78239 235.38892 
L 216.807329 235.66449 
L 212.823179 235.725156 
L 208.841546 235.570742 
L 204.874029 235.201693 
L 200.932188 234.619082 
L 197.027505 233.824603 
L 193.171359 232.820566 
L 189.374986 231.609892 
L 185.649446 230.196104 
L 182.005596 228.583316 
L 178.454056 226.776221 
L 175.005177 224.78008 
L 171.669011 222.600702 
L 168.455284 220.244432 
L 165.373365 217.718131 
L 162.43224 215.029154 
L 159.640484 212.185332 
L 157.006241 209.194947 
L 154.537195 206.066708 
L 152.240547 202.809727 
L 150.123 199.433492 
L 148.190734 195.947839 
L 146.449389 192.362924 
L 144.904051 188.689193 
L 143.559232 184.937351 
L 142.418862 181.118334 
L 141.486278 177.243273 
L 140.764205 173.323464 
L 140.254759 169.370333 
L 139.959436 165.395406 
L 139.879106 161.410274 
L 140.014014 157.426557 
L 140.363775 153.455873 
L 140.927378 149.509802 
L 141.703189 145.599856 
L 142.688954 141.737439 
L 143.881805 137.933819 
L 145.278273 134.200093 
L 146.874291 130.547156 
L 148.66521 126.985666 
L 150.645813 123.526016 
L 152.810328 120.178303 
L 155.152446 116.952296 
L 157.66534 113.857412 
L 160.341681 110.902684 
L 163.173668 108.096735 
L 166.153039 105.447758 
L 169.271105 102.963483 
L 172.518771 100.651164 
L 175.886562 98.51755 
L 179.364653 96.568871 
L 182.942897 94.810814 
L 186.610854 93.248511 
L 190.35782 91.886524 
L 194.172862 90.728827 
L 198.044849 89.778799 
L 201.962482 89.039213 
L 205.914327 88.512227 
L 209.888854 88.199377 
L 213.874465 88.101576 
L 217.859529 88.219106 
L 221.832419 88.551621 
L 225.781541 89.09815 
L 229.695374 89.857093 
L 233.562497 90.826232 
L 237.371629 92.002736 
L 241.111656 93.383166 
L 244.771669 94.963491 
L 248.340991 96.739094 
L 251.809212 98.704788 
L 255.166216 100.854835 
L 258.402214 103.182955 
L 261.50777 105.68235 
L 264.47383 108.345724 
L 267.291745 111.165302 
L 269.953305 114.132854 
L 272.450749 117.239716 
L 274.776802 120.476824 
L 276.924688 123.834729 
L 278.888149 127.303634 
L 280.661468 130.873417 
L 282.239481 134.533666 
L 283.617596 138.273701 
L 284.791804 142.082614 
L 285.758691 145.949296 
L 286.442497 149.524623 
L 286.905912 153.098489 
L 287.155221 156.698074 
L 287.188873 160.312908 
L 287.005598 163.932401 
L 286.604412 167.545826 
L 285.984628 171.142295 
L 285.145872 174.710737 
L 284.088104 178.239878 
L 282.811641 181.718218 
L 281.317185 185.134013 
L 279.60586 188.475251 
L 277.679246 191.72964 
L 275.65145 194.729396 
L 273.433495 197.628347 
L 271.028138 200.415166 
L 268.438688 203.078263 
L 265.669068 205.605774 
L 262.723868 207.985572 
L 259.608427 210.205275 
L 256.50549 212.149039 
L 253.261261 213.926889 
L 249.882519 215.527778 
L 246.376912 216.940563 
L 242.753028 218.154047 
L 239.230523 219.107032 
L 235.620089 219.862916 
L 231.931669 220.412485 
L 228.176202 220.746754 
L 224.365679 220.857058 
L 220.51319 220.735171 
L 216.861712 220.40148 
L 213.198464 219.849512 
L 209.537178 219.074138 
L 205.892499 218.071047 
L 202.279966 216.836883 
L 198.93697 215.467979 
L 195.65074 213.893153 
L 192.435926 212.112648 
L 189.307613 210.12791 
L 186.281216 207.941692 
L 183.372339 205.558152 
L 180.596623 202.982933 
L 177.969567 200.223225 
L 175.665161 197.488765 
L 173.515383 194.609608 
L 171.531582 191.595335 
L 169.72439 188.456676 
L 168.103568 185.205449 
L 166.677862 181.854471 
L 165.454875 178.417442 
L 164.440945 174.908812 
L 163.641056 171.343626 
L 163.058765 167.737358 
L 162.69616 164.105733 
L 162.55385 160.464544 
L 162.630971 156.829476 
L 162.925237 153.215928 
L 163.432998 149.638853 
L 164.149337 146.112612 
L 165.06817 142.650845 
L 166.182369 139.266364 
L 167.583807 135.739397 
L 169.18941 132.328189 
L 170.987479 129.044789 
L 172.965671 125.899882 
L 175.111181 122.902784 
L 177.410907 120.061472 
L 179.851604 117.382627 
L 182.595466 114.71038 
L 185.468698 112.234316 
L 188.455631 109.958189 
L 191.540985 107.884476 
L 194.709955 106.014493 
L 197.948282 104.348514 
L 201.44972 102.8012 
L 204.99841 101.481663 
L 208.579552 100.387218 
L 212.179171 99.514412 
L 215.784118 98.859135 
L 219.593222 98.397227 
L 223.380768 98.167879 
L 227.134008 98.164541 
L 230.841088 98.380293 
L 234.491005 98.807922 
L 238.270425 99.480957 
L 241.963711 100.372849 
L 245.560641 101.474526 
L 249.051798 102.776827 
L 252.428506 104.270545 
L 255.682776 105.946461 
L 258.80725 107.795365 
L 261.948506 109.918378 
L 264.931175 112.212246 
L 267.748593 114.666384 
L 270.394646 117.270271 
L 272.863729 120.01346 
L 275.150696 122.88557 
L 277.250837 125.876283 
L 279.159832 128.975331 
L 280.873733 132.172491 
L 282.388936 135.457568 
L 283.702161 138.820379 
L 284.810434 142.250744 
L 285.711077 145.738462 
L 286.401694 149.273296 
L 286.880167 152.844952 
L 287.144653 156.443063 
L 287.193584 160.057166 
L 287.025667 163.676681 
L 286.639898 167.290892 
L 286.035571 170.888921 
L 285.212286 174.459713 
L 284.169981 177.992007 
L 282.908946 181.474321 
L 281.429855 184.894928 
L 279.733798 188.241836 
L 277.822326 191.502772 
L 275.808762 194.509582 
L 273.604852 197.416417 
L 271.213318 200.211972 
L 268.637424 202.884676 
L 265.881044 205.422685 
L 262.948719 207.813891 
L 259.845728 210.045931 
L 256.754136 212.002255 
L 253.520754 213.793524 
L 250.152296 215.408704 
L 246.656338 216.836656 
L 243.041396 218.066185 
L 239.316998 219.086101 
L 235.708578 219.846876 
L 232.021917 220.401557 
L 228.267931 220.741151 
L 224.458585 220.856986 
L 220.606942 220.740821 
L 216.955934 220.412678 
L 213.292814 219.866398 
L 209.63129 219.096834 
L 205.985987 218.099652 
L 202.372418 216.871469 
L 199.028059 215.508211 
L 195.740071 213.93904 
L 192.523092 212.164166 
L 189.392195 210.185002 
L 186.362789 208.004264 
L 183.450472 205.62607 
L 180.670889 203.056022 
L 178.039545 200.301265 
L 175.730766 197.57119 
L 173.576274 194.696155 
L 171.587435 191.685705 
L 169.774905 188.550538 
L 168.148472 185.302441 
L 166.716914 181.954203 
L 165.487869 178.5195 
L 164.467714 175.012762 
L 163.661473 171.449019 
L 163.072746 167.843735 
L 162.703667 164.21263 
L 162.554885 160.571498 
L 162.62558 156.936029 
L 162.913507 153.321634 
L 163.415055 149.74328 
L 164.125341 146.215349 
L 165.038315 142.751501 
L 166.14688 139.364575 
L 167.542554 135.834617 
L 169.142705 132.420068 
L 170.935651 129.133014 
L 172.909065 125.984178 
L 175.050153 122.982913 
L 177.345818 120.137233 
L 179.782819 117.453853 
L 182.523136 114.776622 
L 185.393231 112.295458 
L 188.377425 110.014151 
L 191.460428 107.935208 
L 194.627421 106.059973 
L 197.86413 104.388749 
L 201.364225 102.83589 
L 204.911942 101.510861 
L 208.492459 100.410999 
L 212.091783 99.532867 
L 215.696743 98.87237 
L 219.506176 98.405063 
L 223.294356 98.170461 
L 227.048511 98.162022 
L 230.756767 98.372834 
L 234.408105 98.795691 
L 238.189268 99.463874 
L 241.884528 100.351111 
L 245.483647 101.448329 
L 248.977189 102.74637 
L 252.356464 104.236028 
L 255.613468 105.908083 
L 258.740829 107.753326 
L 261.885277 109.872699 
L 264.871282 112.163148 
L 267.69217 114.614082 
L 270.341813 117.214983 
L 272.814597 119.9554 
L 275.105369 122.824952 
L 277.209407 125.813319 
L 279.122386 128.910233 
L 280.840348 132.10547 
L 282.359685 135.388834 
L 283.677107 138.750143 
L 284.789637 142.179216 
L 285.694588 145.665853 
L 286.389561 149.199817 
L 286.872431 152.770818 
L 287.141349 156.368489 
L 287.194741 159.982369 
L 287.031309 163.601882 
L 286.650044 167.216313 
L 286.05023 170.814789 
L 285.231464 174.386258 
L 284.193675 177.919464 
L 282.937146 181.40293 
L 281.462542 184.824933 
L 279.770946 188.173488 
L 277.863897 191.436328 
L 275.854489 194.445189 
L 273.654683 197.354317 
L 271.267186 200.152415 
L 268.695252 202.827915 
L 265.942741 205.368979 
L 263.014178 207.763507 
L 259.914824 209.999139 
L 256.826547 211.95912 
L 253.596337 213.754297 
L 250.230885 215.373638 
L 246.73775 216.806007 
L 243.125423 218.040209 
L 239.403411 219.065053 
L 235.797007 219.830713 
L 232.112112 220.3905 
L 228.359613 220.735414 
L 224.551452 220.856773 
L 220.700664 220.746325 
L 217.050134 220.423726 
L 213.387151 219.88313 
L 209.7254 219.119372 
L 206.079481 218.128095 
L 202.464887 216.905891 
L 199.119176 215.548278 
L 195.829442 213.98476 
L 192.610308 212.215518 
L 189.476839 210.24193 
L 186.444435 208.066674 
L 183.528692 205.693829 
L 180.745254 203.128955 
L 178.109634 200.379155 
L 175.796494 197.653472 
L 173.637298 194.782566 
L 171.643432 191.775948 
L 169.825571 188.644282 
L 168.193535 185.399325 
L 166.756133 182.053838 
L 165.521037 178.621473 
L 164.494662 175.116639 
L 163.682074 171.554353 
L 163.086916 167.950066 
L 162.711363 164.319495 
L 162.55611 160.678434 
L 162.620378 157.042578 
L 162.901964 153.427348 
L 163.397294 149.847729 
L 164.101525 146.318118 
L 165.008636 142.852201 
L 166.111559 139.462842 
L 167.501463 135.929903 
L 169.096153 132.512023 
L 170.883969 129.221324 
L 172.852596 126.068567 
L 174.989252 123.063143 
L 177.280848 120.2131 
L 179.714141 117.52519 
L 182.450905 114.842978 
L 185.317852 112.356718 
L 188.299298 110.070233 
L 191.37994 107.986062 
L 194.544946 106.105578 
L 197.780028 104.429108 
L 201.278772 102.870704 
L 204.825507 101.540184 
L 208.405391 100.434904 
L 212.004411 99.551444 
L 215.609376 98.885724 
L 219.419132 98.413016 
L 223.207938 98.173157 
L 226.963001 98.159614 
L 230.672427 98.365483 
L 234.325179 98.783565 
L 238.108079 99.446893 
L 241.80531 100.329469 
L 245.406612 101.422225 
L 248.902535 102.716002 
L 252.284372 104.201596 
L 255.544104 105.869786 
L 258.67435 107.711365 
L 261.821987 109.827094 
L 264.811326 112.114118 
L 267.635679 114.561846 
L 270.28891 117.159756 
L 272.765394 119.897397 
L 275.059967 122.764387 
L 277.1679 125.750404 
L 279.08486 128.84518 
L 280.806882 132.038489 
L 282.330349 135.320135 
L 283.651968 138.679937 
L 284.768752 142.107714 
L 285.678011 145.593266 
L 285.834743 146.296409 
L 285.834743 146.296409 
" clip-path="url(#p46c4a0173e)" style="fill: none; stroke: #ff4500; stroke-width: 1.5; stroke-linecap: square"/>
   </g>
   <g id="line2d_22">
    <path d="M 333.277452 161.895529 
L 333.036678 154.310644 
L 332.315326 146.7563 
L 331.116299 139.262917 
L 329.444428 131.860668 
L 327.306442 124.579358 
L 324.710952 117.448307 
L 321.668408 110.49623 
L 318.191062 103.751119 
L 314.292916 97.240136 
L 309.989665 90.989497 
L 305.298639 85.024371 
L 300.238725 79.368779 
L 294.830299 74.045492 
L 289.095138 69.075947 
L 283.056335 64.480153 
L 276.738208 60.276617 
L 270.166196 56.482264 
L 263.366763 53.112373 
L 256.367288 50.180514 
L 249.195954 47.698491 
L 241.88164 45.6763 
L 234.453796 44.122082 
L 226.942333 43.042097 
L 219.377495 42.440692 
L 211.789745 42.32029 
L 204.209635 42.681376 
L 196.667687 43.522494 
L 189.194271 44.840259 
L 181.819479 46.629364 
L 174.573007 48.882605 
L 167.484034 51.59091 
L 160.581105 54.743372 
L 153.892014 58.327298 
L 147.443698 62.328257 
L 141.262121 66.730138 
L 135.372174 71.515217 
L 129.797574 76.664225 
L 124.560767 82.15643 
L 119.682841 87.969715 
L 115.183438 94.080674 
L 111.080674 100.4647 
L 107.39107 107.096086 
L 104.129483 113.948129 
L 101.309046 120.99324 
L 98.941116 128.20305 
L 97.035228 135.548528 
L 95.599056 143.000096 
L 94.638383 150.527749 
L 94.157077 158.101176 
L 94.157077 165.689882 
L 94.638383 173.263309 
L 95.599056 180.790962 
L 97.035228 188.24253 
L 98.941116 195.588008 
L 101.309046 202.797818 
L 104.129483 209.842929 
L 107.39107 216.694972 
L 111.080674 223.326358 
L 115.183438 229.710383 
L 119.682841 235.821342 
L 124.560767 241.634628 
L 129.797574 247.126833 
L 135.372174 252.275841 
L 141.262121 257.060919 
L 147.443698 261.462801 
L 153.892014 265.463759 
L 160.581105 269.047686 
L 167.484034 272.200148 
L 174.573007 274.908452 
L 181.819479 277.161694 
L 189.194271 278.950799 
L 196.667687 280.268564 
L 204.209635 281.109682 
L 211.789745 281.470767 
L 219.377495 281.350365 
L 226.942333 280.748961 
L 234.453796 279.668975 
L 241.88164 278.114758 
L 249.195954 276.092566 
L 256.367288 273.610544 
L 263.366763 270.678684 
L 270.166196 267.308794 
L 276.738208 263.514441 
L 283.056335 259.310905 
L 289.095138 254.715111 
L 294.830299 249.745566 
L 300.238725 244.422279 
L 305.298639 238.766687 
L 309.989665 232.801561 
L 314.292916 226.550922 
L 318.191062 220.039938 
L 321.668408 213.294828 
L 324.710952 206.34275 
L 327.306442 199.2117 
L 329.444428 191.93039 
L 331.116299 184.52814 
L 332.315326 177.034757 
L 333.036678 169.480414 
L 333.277452 161.895529 
" clip-path="url(#p46c4a0173e)" style="fill: none; stroke-dasharray: 5.55,2.4; stroke-dashoffset: 0; stroke: #555555; stroke-width: 1.5"/>
   </g>
   <g id="patch_4">
    <path d="M 82.144985 293.476399 
L 82.144985 30.360476 
" style="fill: none; stroke: #000000; stroke-width: 0.8; stroke-linejoin: miter; stroke-linecap: square"/>
   </g>
   <g id="patch_5">
    <path d="M 345.240709 293.476399 
L 345.240709 30.360476 
" style="fill: none; stroke: #000000; stroke-width: 0.8; stroke-linejoin: miter; stroke-linecap: square"/>
   </g>
   <g id="patch_6">
    <path d="M 82.144985 293.476399 
L 345.240709 293.476399 
" style="fill: none; stroke: #000000; stroke-width: 0.8; stroke-linejoin: miter; stroke-linecap: square"/>
   </g>
   <g id="patch_7">
    <path d="M 82.144985 30.360476 
L 345.240709 30.360476 
" style="fill: none; stroke: #000000; stroke-width: 0.8; stroke-linejoin: miter; stroke-linecap: square"/>
   </g>
   <g id="legend_1">
    <g id="patch_8">
     <path d="M 191.616334 63.981101 
L 338.940709 63.981101 
Q 340.740709 63.981101 340.740709 62.181101 
L 340.740709 36.660476 
Q 340.740709 34.860476 338.940709 34.860476 
L 191.616334 34.860476 
Q 189.816334 34.860476 189.816334 36.660476 
L 189.816334 62.181101 
Q 189.816334 63.981101 191.616334 63.981101 
z
" style="fill: #ffffff; opacity: 0.8; stroke: #cccccc; stroke-linejoin: miter"/>
    </g>
    <g id="line2d_23">
     <path d="M 193.416334 42.149069 
L 202.416334 42.149069 
L 211.416334 42.149069 
" style="fill: none; stroke: #ff4500; stroke-width: 1.5; stroke-linecap: square"/>
    </g>
    <g id="text_13">
     <!-- Simulated Flight -->
     <g transform="translate(218.616334 45.299069) scale(0.09 -0.09)">
      <defs>
       <path id="DejaVuSans-53" d="M 3425 4513 
L 3425 3897 
Q 3066 4069 2747 4153 
Q 2428 4238 2131 4238 
Q 1616 4238 1336 4038 
Q 1056 3838 1056 3469 
Q 1056 3159 1242 3001 
Q 1428 2844 1947 2747 
L 2328 2669 
Q 3034 2534 3370 2195 
Q 3706 1856 3706 1288 
Q 3706 609 3251 259 
Q 2797 -91 1919 -91 
Q 1588 -91 1214 -16 
Q 841 59 441 206 
L 441 856 
Q 825 641 1194 531 
Q 1563 422 1919 422 
Q 2459 422 2753 634 
Q 3047 847 3047 1241 
Q 3047 1584 2836 1778 
Q 2625 1972 2144 2069 
L 1759 2144 
Q 1053 2284 737 2584 
Q 422 2884 422 3419 
Q 422 4038 858 4394 
Q 1294 4750 2059 4750 
Q 2388 4750 2728 4690 
Q 3069 4631 3425 4513 
z
" transform="scale(0.015625)"/>
       <path id="DejaVuSans-75" d="M 544 1381 
L 544 3500 
L 1119 3500 
L 1119 1403 
Q 1119 906 1312 657 
Q 1506 409 1894 409 
Q 2359 409 2629 706 
Q 2900 1003 2900 1516 
L 2900 3500 
L 3475 3500 
L 3475 0 
L 2900 0 
L 2900 538 
Q 2691 219 2414 64 
Q 2138 -91 1772 -91 
Q 1169 -91 856 284 
Q 544 659 544 1381 
z
M 1991 3584 
L 1991 3584 
z
" transform="scale(0.015625)"/>
       <path id="DejaVuSans-64" d="M 2906 2969 
L 2906 4863 
L 3481 4863 
L 3481 0 
L 2906 0 
L 2906 525 
Q 2725 213 2448 61 
Q 2172 -91 1784 -91 
Q 1150 -91 751 415 
Q 353 922 353 1747 
Q 353 2572 751 3078 
Q 1150 3584 1784 3584 
Q 2172 3584 2448 3432 
Q 2725 3281 2906 2969 
z
M 947 1747 
Q 947 1113 1208 752 
Q 1469 391 1925 391 
Q 2381 391 2643 752 
Q 2906 1113 2906 1747 
Q 2906 2381 2643 2742 
Q 2381 3103 1925 3103 
Q 1469 3103 1208 2742 
Q 947 2381 947 1747 
z
" transform="scale(0.015625)"/>
       <path id="DejaVuSans-46" d="M 628 4666 
L 3309 4666 
L 3309 4134 
L 1259 4134 
L 1259 2759 
L 3109 2759 
L 3109 2228 
L 1259 2228 
L 1259 0 
L 628 0 
L 628 4666 
z
" transform="scale(0.015625)"/>
       <path id="DejaVuSans-67" d="M 2906 1791 
Q 2906 2416 2648 2759 
Q 2391 3103 1925 3103 
Q 1463 3103 1205 2759 
Q 947 2416 947 1791 
Q 947 1169 1205 825 
Q 1463 481 1925 481 
Q 2391 481 2648 825 
Q 2906 1169 2906 1791 
z
M 3481 434 
Q 3481 -459 3084 -895 
Q 2688 -1331 1869 -1331 
Q 1566 -1331 1297 -1286 
Q 1028 -1241 775 -1147 
L 775 -588 
Q 1028 -725 1275 -790 
Q 1522 -856 1778 -856 
Q 2344 -856 2625 -561 
Q 2906 -266 2906 331 
L 2906 616 
Q 2728 306 2450 153 
Q 2172 0 1784 0 
Q 1141 0 747 490 
Q 353 981 353 1791 
Q 353 2603 747 3093 
Q 1141 3584 1784 3584 
Q 2172 3584 2450 3431 
Q 2728 3278 2906 2969 
L 2906 3500 
L 3481 3500 
L 3481 434 
z
" transform="scale(0.015625)"/>
       <path id="DejaVuSans-68" d="M 3513 2113 
L 3513 0 
L 2938 0 
L 2938 2094 
Q 2938 2591 2744 2837 
Q 2550 3084 2163 3084 
Q 1697 3084 1428 2787 
Q 1159 2491 1159 1978 
L 1159 0 
L 581 0 
L 581 4863 
L 1159 4863 
L 1159 2956 
Q 1366 3272 1645 3428 
Q 1925 3584 2291 3584 
Q 2894 3584 3203 3211 
Q 3513 2838 3513 2113 
z
" transform="scale(0.015625)"/>
      </defs>
      <use xlink:href="#DejaVuSans-53"/>
      <use xlink:href="#DejaVuSans-69" x="63.476562"/>
      <use xlink:href="#DejaVuSans-6d" x="91.259766"/>
      <use xlink:href="#DejaVuSans-75" x="188.671875"/>
      <use xlink:href="#DejaVuSans-6c" x="252.050781"/>
      <use xlink:href="#DejaVuSans-61" x="279.833984"/>
      <use xlink:href="#DejaVuSans-74" x="341.113281"/>
      <use xlink:href="#DejaVuSans-65" x="380.322266"/>
      <use xlink:href="#DejaVuSans-64" x="441.845703"/>
      <use xlink:href="#DejaVuSans-20" x="505.322266"/>
      <use xlink:href="#DejaVuSans-46" x="537.109375"/>
      <use xlink:href="#DejaVuSans-6c" x="594.628906"/>
      <use xlink:href="#DejaVuSans-69" x="622.412109"/>
      <use xlink:href="#DejaVuSans-67" x="650.195312"/>
      <use xlink:href="#DejaVuSans-68" x="713.671875"/>
      <use xlink:href="#DejaVuSans-74" x="777.050781"/>
     </g>
    </g>
    <g id="line2d_24">
     <path d="M 193.416334 55.359382 
L 202.416334 55.359382 
L 211.416334 55.359382 
" style="fill: none; stroke-dasharray: 5.55,2.4; stroke-dashoffset: 0; stroke: #555555; stroke-width: 1.5"/>
    </g>
    <g id="text_14">
     <!-- Desired Circ.Capture Orbit -->
     <g transform="translate(218.616334 58.509382) scale(0.09 -0.09)">
      <defs>
       <path id="DejaVuSans-43" d="M 4122 4306 
L 4122 3641 
Q 3803 3938 3442 4084 
Q 3081 4231 2675 4231 
Q 1875 4231 1450 3742 
Q 1025 3253 1025 2328 
Q 1025 1406 1450 917 
Q 1875 428 2675 428 
Q 3081 428 3442 575 
Q 3803 722 4122 1019 
L 4122 359 
Q 3791 134 3420 21 
Q 3050 -91 2638 -91 
Q 1578 -91 968 557 
Q 359 1206 359 2328 
Q 359 3453 968 4101 
Q 1578 4750 2638 4750 
Q 3056 4750 3426 4639 
Q 3797 4528 4122 4306 
z
" transform="scale(0.015625)"/>
       <path id="DejaVuSans-2e" d="M 684 794 
L 1344 794 
L 1344 0 
L 684 0 
L 684 794 
z
" transform="scale(0.015625)"/>
       <path id="DejaVuSans-70" d="M 1159 525 
L 1159 -1331 
L 581 -1331 
L 581 3500 
L 1159 3500 
L 1159 2969 
Q 1341 3281 1617 3432 
Q 1894 3584 2278 3584 
Q 2916 3584 3314 3078 
Q 3713 2572 3713 1747 
Q 3713 922 3314 415 
Q 2916 -91 2278 -91 
Q 1894 -91 1617 61 
Q 1341 213 1159 525 
z
M 3116 1747 
Q 3116 2381 2855 2742 
Q 2594 3103 2138 3103 
Q 1681 3103 1420 2742 
Q 1159 2381 1159 1747 
Q 1159 1113 1420 752 
Q 1681 391 2138 391 
Q 2594 391 2855 752 
Q 3116 1113 3116 1747 
z
" transform="scale(0.015625)"/>
       <path id="DejaVuSans-4f" d="M 2522 4238 
Q 1834 4238 1429 3725 
Q 1025 3213 1025 2328 
Q 1025 1447 1429 934 
Q 1834 422 2522 422 
Q 3209 422 3611 934 
Q 4013 1447 4013 2328 
Q 4013 3213 3611 3725 
Q 3209 4238 2522 4238 
z
M 2522 4750 
Q 3503 4750 4090 4092 
Q 4678 3434 4678 2328 
Q 4678 1225 4090 567 
Q 3503 -91 2522 -91 
Q 1538 -91 948 565 
Q 359 1222 359 2328 
Q 359 3434 948 4092 
Q 1538 4750 2522 4750 
z
" transform="scale(0.015625)"/>
       <path id="DejaVuSans-62" d="M 3116 1747 
Q 3116 2381 2855 2742 
Q 2594 3103 2138 3103 
Q 1681 3103 1420 2742 
Q 1159 2381 1159 1747 
Q 1159 1113 1420 752 
Q 1681 391 2138 391 
Q 2594 391 2855 752 
Q 3116 1113 3116 1747 
z
M 1159 2969 
Q 1341 3281 1617 3432 
Q 1894 3584 2278 3584 
Q 2916 3584 3314 3078 
Q 3713 2572 3713 1747 
Q 3713 922 3314 415 
Q 2916 -91 2278 -91 
Q 1894 -91 1617 61 
Q 1341 213 1159 525 
L 1159 0 
L 581 0 
L 581 4863 
L 1159 4863 
L 1159 2969 
z
" transform="scale(0.015625)"/>
      </defs>
      <use xlink:href="#DejaVuSans-44"/>
      <use xlink:href="#DejaVuSans-65" x="77.001953"/>
      <use xlink:href="#DejaVuSans-73" x="138.525391"/>
      <use xlink:href="#DejaVuSans-69" x="190.625"/>
      <use xlink:href="#DejaVuSans-72" x="218.408203"/>
      <use xlink:href="#DejaVuSans-65" x="257.271484"/>
      <use xlink:href="#DejaVuSans-64" x="318.794922"/>
      <use xlink:href="#DejaVuSans-20" x="382.271484"/>
      <use xlink:href="#DejaVuSans-43" x="414.058594"/>
      <use xlink:href="#DejaVuSans-69" x="483.882812"/>
      <use xlink:href="#DejaVuSans-72" x="511.666016"/>
      <use xlink:href="#DejaVuSans-63" x="550.529297"/>
      <use xlink:href="#DejaVuSans-2e" x="605.509766"/>
      <use xlink:href="#DejaVuSans-43" x="637.296875"/>
      <use xlink:href="#DejaVuSans-61" x="707.121094"/>
      <use xlink:href="#DejaVuSans-70" x="768.400391"/>
      <use xlink:href="#DejaVuSans-74" x="831.876953"/>
      <use xlink:href="#DejaVuSans-75" x="871.085938"/>
      <use xlink:href="#DejaVuSans-72" x="934.464844"/>
      <use xlink:href="#DejaVuSans-65" x="973.328125"/>
      <use xlink:href="#DejaVuSans-20" x="1034.851562"/>
      <use xlink:href="#DejaVuSans-4f" x="1066.638672"/>
      <use xlink:href="#DejaVuSans-72" x="1145.349609"/>
      <use xlink:href="#DejaVuSans-62" x="1186.462891"/>
      <use xlink:href="#DejaVuSans-69" x="1249.939453"/>
      <use xlink:href="#DejaVuSans-74" x="1277.722656"/>
     </g>
    </g>
   </g>
  </g>
 </g>
 <defs>
  <clipPath id="p46c4a0173e">
   <rect x="82.144985" y="30.360476" width="263.095725" height="263.115924"/>
  </clipPath>
 </defs>
</svg>
