<?xml version="1.0" encoding="utf-8" standalone="no"?>
<!DOCTYPE svg PUBLIC "-//W3C//DTD SVG 1.1//EN"
  "http://www.w3.org/Graphics/SVG/1.1/DTD/svg11.dtd">
<svg xmlns:xlink="http://www.w3.org/1999/xlink" width="360pt" height="288pt" viewBox="0 0 360 288" xmlns="http://www.w3.org/2000/svg" version="1.1">
 <metadata>
  <rdf:RDF xmlns:dc="http://purl.org/dc/elements/1.1/" xmlns:cc="http://creativecommons.org/ns#" xmlns:rdf="http://www.w3.org/1999/02/22-rdf-syntax-ns#">
   <cc:Work>
    <dc:type rdf:resource="http://purl.org/dc/dcmitype/StillImage"/>
    <dc:date>2023-09-07T00:35:59.403914</dc:date>
    <dc:format>image/svg+xml</dc:format>
    <dc:creator>
     <cc:Agent>
      <dc:title>Matplotlib v3.7.2, https://matplotlib.org/</dc:title>
     </cc:Agent>
    </dc:creator>
   </cc:Work>
  </rdf:RDF>
 </metadata>
 <defs>
  <style type="text/css">*{stroke-linejoin: round; stroke-linecap: butt}</style>
 </defs>
 <g id="figure_1">
  <g id="patch_1">
   <path d="M 0 288 
L 360 288 
L 360 0 
L 0 0 
L 0 288 
z
" style="fill: none"/>
  </g>
  <g id="axes_1">
   <g id="patch_2">
    <path d="M 56.923125 241.036875 
L 349.2 241.036875 
L 349.2 25.9575 
L 56.923125 25.9575 
L 56.923125 241.036875 
z
" style="fill: none"/>
   </g>
   <g id="matplotlib.axis_1">
    <g id="xtick_1">
     <g id="line2d_1">
      <defs>
       <path id="m8c9f4591cc" d="M 0 0 
L 0 3.5 
" style="stroke: #000000; stroke-width: 0.8"/>
      </defs>
      <g>
       <use xlink:href="#m8c9f4591cc" x="70.208438" y="241.036875" style="stroke: #000000; stroke-width: 0.8"/>
      </g>
     </g>
     <g id="text_1">
      <!-- 0 -->
      <g transform="translate(65.118437 260.194375) scale(0.16 -0.16)">
       <defs>
        <path id="DejaVuSans-30" d="M 2034 4250 
Q 1547 4250 1301 3770 
Q 1056 3291 1056 2328 
Q 1056 1369 1301 889 
Q 1547 409 2034 409 
Q 2525 409 2770 889 
Q 3016 1369 3016 2328 
Q 3016 3291 2770 3770 
Q 2525 4250 2034 4250 
z
M 2034 4750 
Q 2819 4750 3233 4129 
Q 3647 3509 3647 2328 
Q 3647 1150 3233 529 
Q 2819 -91 2034 -91 
Q 1250 -91 836 529 
Q 422 1150 422 2328 
Q 422 3509 836 4129 
Q 1250 4750 2034 4750 
z
" transform="scale(0.015625)"/>
       </defs>
       <use xlink:href="#DejaVuSans-30"/>
      </g>
     </g>
    </g>
    <g id="xtick_2">
     <g id="line2d_2">
      <g>
       <use xlink:href="#m8c9f4591cc" x="167.590241" y="241.036875" style="stroke: #000000; stroke-width: 0.8"/>
      </g>
     </g>
     <g id="text_2">
      <!-- 500 -->
      <g transform="translate(152.320241 260.194375) scale(0.16 -0.16)">
       <defs>
        <path id="DejaVuSans-35" d="M 691 4666 
L 3169 4666 
L 3169 4134 
L 1269 4134 
L 1269 2991 
Q 1406 3038 1543 3061 
Q 1681 3084 1819 3084 
Q 2600 3084 3056 2656 
Q 3513 2228 3513 1497 
Q 3513 744 3044 326 
Q 2575 -91 1722 -91 
Q 1428 -91 1123 -41 
Q 819 9 494 109 
L 494 744 
Q 775 591 1075 516 
Q 1375 441 1709 441 
Q 2250 441 2565 725 
Q 2881 1009 2881 1497 
Q 2881 1984 2565 2268 
Q 2250 2553 1709 2553 
Q 1456 2553 1204 2497 
Q 953 2441 691 2322 
L 691 4666 
z
" transform="scale(0.015625)"/>
       </defs>
       <use xlink:href="#DejaVuSans-35"/>
       <use xlink:href="#DejaVuSans-30" x="63.623047"/>
       <use xlink:href="#DejaVuSans-30" x="127.246094"/>
      </g>
     </g>
    </g>
    <g id="xtick_3">
     <g id="line2d_3">
      <g>
       <use xlink:href="#m8c9f4591cc" x="264.972044" y="241.036875" style="stroke: #000000; stroke-width: 0.8"/>
      </g>
     </g>
     <g id="text_3">
      <!-- 1000 -->
      <g transform="translate(244.612044 260.194375) scale(0.16 -0.16)">
       <defs>
        <path id="DejaVuSans-31" d="M 794 531 
L 1825 531 
L 1825 4091 
L 703 3866 
L 703 4441 
L 1819 4666 
L 2450 4666 
L 2450 531 
L 3481 531 
L 3481 0 
L 794 0 
L 794 531 
z
" transform="scale(0.015625)"/>
       </defs>
       <use xlink:href="#DejaVuSans-31"/>
       <use xlink:href="#DejaVuSans-30" x="63.623047"/>
       <use xlink:href="#DejaVuSans-30" x="127.246094"/>
       <use xlink:href="#DejaVuSans-30" x="190.869141"/>
      </g>
     </g>
    </g>
    <g id="text_4">
     <!-- Time (s) -->
     <g transform="translate(182.732656 275.120313) scale(0.1 -0.1)">
      <defs>
       <path id="DejaVuSans-54" d="M -19 4666 
L 3928 4666 
L 3928 4134 
L 2272 4134 
L 2272 0 
L 1638 0 
L 1638 4134 
L -19 4134 
L -19 4666 
z
" transform="scale(0.015625)"/>
       <path id="DejaVuSans-69" d="M 603 3500 
L 1178 3500 
L 1178 0 
L 603 0 
L 603 3500 
z
M 603 4863 
L 1178 4863 
L 1178 4134 
L 603 4134 
L 603 4863 
z
" transform="scale(0.015625)"/>
       <path id="DejaVuSans-6d" d="M 3328 2828 
Q 3544 3216 3844 3400 
Q 4144 3584 4550 3584 
Q 5097 3584 5394 3201 
Q 5691 2819 5691 2113 
L 5691 0 
L 5113 0 
L 5113 2094 
Q 5113 2597 4934 2840 
Q 4756 3084 4391 3084 
Q 3944 3084 3684 2787 
Q 3425 2491 3425 1978 
L 3425 0 
L 2847 0 
L 2847 2094 
Q 2847 2600 2669 2842 
Q 2491 3084 2119 3084 
Q 1678 3084 1418 2786 
Q 1159 2488 1159 1978 
L 1159 0 
L 581 0 
L 581 3500 
L 1159 3500 
L 1159 2956 
Q 1356 3278 1631 3431 
Q 1906 3584 2284 3584 
Q 2666 3584 2933 3390 
Q 3200 3197 3328 2828 
z
" transform="scale(0.015625)"/>
       <path id="DejaVuSans-65" d="M 3597 1894 
L 3597 1613 
L 953 1613 
Q 991 1019 1311 708 
Q 1631 397 2203 397 
Q 2534 397 2845 478 
Q 3156 559 3463 722 
L 3463 178 
Q 3153 47 2828 -22 
Q 2503 -91 2169 -91 
Q 1331 -91 842 396 
Q 353 884 353 1716 
Q 353 2575 817 3079 
Q 1281 3584 2069 3584 
Q 2775 3584 3186 3129 
Q 3597 2675 3597 1894 
z
M 3022 2063 
Q 3016 2534 2758 2815 
Q 2500 3097 2075 3097 
Q 1594 3097 1305 2825 
Q 1016 2553 972 2059 
L 3022 2063 
z
" transform="scale(0.015625)"/>
       <path id="DejaVuSans-20" transform="scale(0.015625)"/>
       <path id="DejaVuSans-28" d="M 1984 4856 
Q 1566 4138 1362 3434 
Q 1159 2731 1159 2009 
Q 1159 1288 1364 580 
Q 1569 -128 1984 -844 
L 1484 -844 
Q 1016 -109 783 600 
Q 550 1309 550 2009 
Q 550 2706 781 3412 
Q 1013 4119 1484 4856 
L 1984 4856 
z
" transform="scale(0.015625)"/>
       <path id="DejaVuSans-73" d="M 2834 3397 
L 2834 2853 
Q 2591 2978 2328 3040 
Q 2066 3103 1784 3103 
Q 1356 3103 1142 2972 
Q 928 2841 928 2578 
Q 928 2378 1081 2264 
Q 1234 2150 1697 2047 
L 1894 2003 
Q 2506 1872 2764 1633 
Q 3022 1394 3022 966 
Q 3022 478 2636 193 
Q 2250 -91 1575 -91 
Q 1294 -91 989 -36 
Q 684 19 347 128 
L 347 722 
Q 666 556 975 473 
Q 1284 391 1588 391 
Q 1994 391 2212 530 
Q 2431 669 2431 922 
Q 2431 1156 2273 1281 
Q 2116 1406 1581 1522 
L 1381 1569 
Q 847 1681 609 1914 
Q 372 2147 372 2553 
Q 372 3047 722 3315 
Q 1072 3584 1716 3584 
Q 2034 3584 2315 3537 
Q 2597 3491 2834 3397 
z
" transform="scale(0.015625)"/>
       <path id="DejaVuSans-29" d="M 513 4856 
L 1013 4856 
Q 1481 4119 1714 3412 
Q 1947 2706 1947 2009 
Q 1947 1309 1714 600 
Q 1481 -109 1013 -844 
L 513 -844 
Q 928 -128 1133 580 
Q 1338 1288 1338 2009 
Q 1338 2731 1133 3434 
Q 928 4138 513 4856 
z
" transform="scale(0.015625)"/>
      </defs>
      <use xlink:href="#DejaVuSans-54"/>
      <use xlink:href="#DejaVuSans-69" x="57.958984"/>
      <use xlink:href="#DejaVuSans-6d" x="85.742188"/>
      <use xlink:href="#DejaVuSans-65" x="183.154297"/>
      <use xlink:href="#DejaVuSans-20" x="244.677734"/>
      <use xlink:href="#DejaVuSans-28" x="276.464844"/>
      <use xlink:href="#DejaVuSans-73" x="315.478516"/>
      <use xlink:href="#DejaVuSans-29" x="367.578125"/>
     </g>
    </g>
   </g>
   <g id="matplotlib.axis_2">
    <g id="ytick_1">
     <g id="line2d_4">
      <defs>
       <path id="mb1ccc26f8c" d="M 0 0 
L -3.5 0 
" style="stroke: #000000; stroke-width: 0.8"/>
      </defs>
      <g>
       <use xlink:href="#mb1ccc26f8c" x="56.923125" y="219.617873" style="stroke: #000000; stroke-width: 0.8"/>
      </g>
     </g>
     <g id="text_5">
      <!-- 0.0 -->
      <g transform="translate(24.478125 225.696623) scale(0.16 -0.16)">
       <defs>
        <path id="DejaVuSans-2e" d="M 684 794 
L 1344 794 
L 1344 0 
L 684 0 
L 684 794 
z
" transform="scale(0.015625)"/>
       </defs>
       <use xlink:href="#DejaVuSans-30"/>
       <use xlink:href="#DejaVuSans-2e" x="63.623047"/>
       <use xlink:href="#DejaVuSans-30" x="95.410156"/>
      </g>
     </g>
    </g>
    <g id="ytick_2">
     <g id="line2d_5">
      <g>
       <use xlink:href="#mb1ccc26f8c" x="56.923125" y="182.507067" style="stroke: #000000; stroke-width: 0.8"/>
      </g>
     </g>
     <g id="text_6">
      <!-- 0.5 -->
      <g transform="translate(24.478125 188.585817) scale(0.16 -0.16)">
       <use xlink:href="#DejaVuSans-30"/>
       <use xlink:href="#DejaVuSans-2e" x="63.623047"/>
       <use xlink:href="#DejaVuSans-35" x="95.410156"/>
      </g>
     </g>
    </g>
    <g id="ytick_3">
     <g id="line2d_6">
      <g>
       <use xlink:href="#mb1ccc26f8c" x="56.923125" y="145.396261" style="stroke: #000000; stroke-width: 0.8"/>
      </g>
     </g>
     <g id="text_7">
      <!-- 1.0 -->
      <g transform="translate(24.478125 151.475011) scale(0.16 -0.16)">
       <use xlink:href="#DejaVuSans-31"/>
       <use xlink:href="#DejaVuSans-2e" x="63.623047"/>
       <use xlink:href="#DejaVuSans-30" x="95.410156"/>
      </g>
     </g>
    </g>
    <g id="ytick_4">
     <g id="line2d_7">
      <g>
       <use xlink:href="#mb1ccc26f8c" x="56.923125" y="108.285454" style="stroke: #000000; stroke-width: 0.8"/>
      </g>
     </g>
     <g id="text_8">
      <!-- 1.5 -->
      <g transform="translate(24.478125 114.364204) scale(0.16 -0.16)">
       <use xlink:href="#DejaVuSans-31"/>
       <use xlink:href="#DejaVuSans-2e" x="63.623047"/>
       <use xlink:href="#DejaVuSans-35" x="95.410156"/>
      </g>
     </g>
    </g>
    <g id="ytick_5">
     <g id="line2d_8">
      <g>
       <use xlink:href="#mb1ccc26f8c" x="56.923125" y="71.174648" style="stroke: #000000; stroke-width: 0.8"/>
      </g>
     </g>
     <g id="text_9">
      <!-- 2.0 -->
      <g transform="translate(24.478125 77.253398) scale(0.16 -0.16)">
       <defs>
        <path id="DejaVuSans-32" d="M 1228 531 
L 3431 531 
L 3431 0 
L 469 0 
L 469 531 
Q 828 903 1448 1529 
Q 2069 2156 2228 2338 
Q 2531 2678 2651 2914 
Q 2772 3150 2772 3378 
Q 2772 3750 2511 3984 
Q 2250 4219 1831 4219 
Q 1534 4219 1204 4116 
Q 875 4013 500 3803 
L 500 4441 
Q 881 4594 1212 4672 
Q 1544 4750 1819 4750 
Q 2544 4750 2975 4387 
Q 3406 4025 3406 3419 
Q 3406 3131 3298 2873 
Q 3191 2616 2906 2266 
Q 2828 2175 2409 1742 
Q 1991 1309 1228 531 
z
" transform="scale(0.015625)"/>
       </defs>
       <use xlink:href="#DejaVuSans-32"/>
       <use xlink:href="#DejaVuSans-2e" x="63.623047"/>
       <use xlink:href="#DejaVuSans-30" x="95.410156"/>
      </g>
     </g>
    </g>
    <g id="ytick_6">
     <g id="line2d_9">
      <g>
       <use xlink:href="#mb1ccc26f8c" x="56.923125" y="34.063842" style="stroke: #000000; stroke-width: 0.8"/>
      </g>
     </g>
     <g id="text_10">
      <!-- 2.5 -->
      <g transform="translate(24.478125 40.142592) scale(0.16 -0.16)">
       <use xlink:href="#DejaVuSans-32"/>
       <use xlink:href="#DejaVuSans-2e" x="63.623047"/>
       <use xlink:href="#DejaVuSans-35" x="95.410156"/>
      </g>
     </g>
    </g>
    <g id="text_11">
     <!-- Relative Rotational Angular Momentum Variation -->
     <g transform="translate(18.398438 255.4925) rotate(-90) scale(0.1 -0.1)">
      <defs>
       <path id="DejaVuSans-52" d="M 2841 2188 
Q 3044 2119 3236 1894 
Q 3428 1669 3622 1275 
L 4263 0 
L 3584 0 
L 2988 1197 
Q 2756 1666 2539 1819 
Q 2322 1972 1947 1972 
L 1259 1972 
L 1259 0 
L 628 0 
L 628 4666 
L 2053 4666 
Q 2853 4666 3247 4331 
Q 3641 3997 3641 3322 
Q 3641 2881 3436 2590 
Q 3231 2300 2841 2188 
z
M 1259 4147 
L 1259 2491 
L 2053 2491 
Q 2509 2491 2742 2702 
Q 2975 2913 2975 3322 
Q 2975 3731 2742 3939 
Q 2509 4147 2053 4147 
L 1259 4147 
z
" transform="scale(0.015625)"/>
       <path id="DejaVuSans-6c" d="M 603 4863 
L 1178 4863 
L 1178 0 
L 603 0 
L 603 4863 
z
" transform="scale(0.015625)"/>
       <path id="DejaVuSans-61" d="M 2194 1759 
Q 1497 1759 1228 1600 
Q 959 1441 959 1056 
Q 959 750 1161 570 
Q 1363 391 1709 391 
Q 2188 391 2477 730 
Q 2766 1069 2766 1631 
L 2766 1759 
L 2194 1759 
z
M 3341 1997 
L 3341 0 
L 2766 0 
L 2766 531 
Q 2569 213 2275 61 
Q 1981 -91 1556 -91 
Q 1019 -91 701 211 
Q 384 513 384 1019 
Q 384 1609 779 1909 
Q 1175 2209 1959 2209 
L 2766 2209 
L 2766 2266 
Q 2766 2663 2505 2880 
Q 2244 3097 1772 3097 
Q 1472 3097 1187 3025 
Q 903 2953 641 2809 
L 641 3341 
Q 956 3463 1253 3523 
Q 1550 3584 1831 3584 
Q 2591 3584 2966 3190 
Q 3341 2797 3341 1997 
z
" transform="scale(0.015625)"/>
       <path id="DejaVuSans-74" d="M 1172 4494 
L 1172 3500 
L 2356 3500 
L 2356 3053 
L 1172 3053 
L 1172 1153 
Q 1172 725 1289 603 
Q 1406 481 1766 481 
L 2356 481 
L 2356 0 
L 1766 0 
Q 1100 0 847 248 
Q 594 497 594 1153 
L 594 3053 
L 172 3053 
L 172 3500 
L 594 3500 
L 594 4494 
L 1172 4494 
z
" transform="scale(0.015625)"/>
       <path id="DejaVuSans-76" d="M 191 3500 
L 800 3500 
L 1894 563 
L 2988 3500 
L 3597 3500 
L 2284 0 
L 1503 0 
L 191 3500 
z
" transform="scale(0.015625)"/>
       <path id="DejaVuSans-6f" d="M 1959 3097 
Q 1497 3097 1228 2736 
Q 959 2375 959 1747 
Q 959 1119 1226 758 
Q 1494 397 1959 397 
Q 2419 397 2687 759 
Q 2956 1122 2956 1747 
Q 2956 2369 2687 2733 
Q 2419 3097 1959 3097 
z
M 1959 3584 
Q 2709 3584 3137 3096 
Q 3566 2609 3566 1747 
Q 3566 888 3137 398 
Q 2709 -91 1959 -91 
Q 1206 -91 779 398 
Q 353 888 353 1747 
Q 353 2609 779 3096 
Q 1206 3584 1959 3584 
z
" transform="scale(0.015625)"/>
       <path id="DejaVuSans-6e" d="M 3513 2113 
L 3513 0 
L 2938 0 
L 2938 2094 
Q 2938 2591 2744 2837 
Q 2550 3084 2163 3084 
Q 1697 3084 1428 2787 
Q 1159 2491 1159 1978 
L 1159 0 
L 581 0 
L 581 3500 
L 1159 3500 
L 1159 2956 
Q 1366 3272 1645 3428 
Q 1925 3584 2291 3584 
Q 2894 3584 3203 3211 
Q 3513 2838 3513 2113 
z
" transform="scale(0.015625)"/>
       <path id="DejaVuSans-41" d="M 2188 4044 
L 1331 1722 
L 3047 1722 
L 2188 4044 
z
M 1831 4666 
L 2547 4666 
L 4325 0 
L 3669 0 
L 3244 1197 
L 1141 1197 
L 716 0 
L 50 0 
L 1831 4666 
z
" transform="scale(0.015625)"/>
       <path id="DejaVuSans-67" d="M 2906 1791 
Q 2906 2416 2648 2759 
Q 2391 3103 1925 3103 
Q 1463 3103 1205 2759 
Q 947 2416 947 1791 
Q 947 1169 1205 825 
Q 1463 481 1925 481 
Q 2391 481 2648 825 
Q 2906 1169 2906 1791 
z
M 3481 434 
Q 3481 -459 3084 -895 
Q 2688 -1331 1869 -1331 
Q 1566 -1331 1297 -1286 
Q 1028 -1241 775 -1147 
L 775 -588 
Q 1028 -725 1275 -790 
Q 1522 -856 1778 -856 
Q 2344 -856 2625 -561 
Q 2906 -266 2906 331 
L 2906 616 
Q 2728 306 2450 153 
Q 2172 0 1784 0 
Q 1141 0 747 490 
Q 353 981 353 1791 
Q 353 2603 747 3093 
Q 1141 3584 1784 3584 
Q 2172 3584 2450 3431 
Q 2728 3278 2906 2969 
L 2906 3500 
L 3481 3500 
L 3481 434 
z
" transform="scale(0.015625)"/>
       <path id="DejaVuSans-75" d="M 544 1381 
L 544 3500 
L 1119 3500 
L 1119 1403 
Q 1119 906 1312 657 
Q 1506 409 1894 409 
Q 2359 409 2629 706 
Q 2900 1003 2900 1516 
L 2900 3500 
L 3475 3500 
L 3475 0 
L 2900 0 
L 2900 538 
Q 2691 219 2414 64 
Q 2138 -91 1772 -91 
Q 1169 -91 856 284 
Q 544 659 544 1381 
z
M 1991 3584 
L 1991 3584 
z
" transform="scale(0.015625)"/>
       <path id="DejaVuSans-72" d="M 2631 2963 
Q 2534 3019 2420 3045 
Q 2306 3072 2169 3072 
Q 1681 3072 1420 2755 
Q 1159 2438 1159 1844 
L 1159 0 
L 581 0 
L 581 3500 
L 1159 3500 
L 1159 2956 
Q 1341 3275 1631 3429 
Q 1922 3584 2338 3584 
Q 2397 3584 2469 3576 
Q 2541 3569 2628 3553 
L 2631 2963 
z
" transform="scale(0.015625)"/>
       <path id="DejaVuSans-4d" d="M 628 4666 
L 1569 4666 
L 2759 1491 
L 3956 4666 
L 4897 4666 
L 4897 0 
L 4281 0 
L 4281 4097 
L 3078 897 
L 2444 897 
L 1241 4097 
L 1241 0 
L 628 0 
L 628 4666 
z
" transform="scale(0.015625)"/>
       <path id="DejaVuSans-56" d="M 1831 0 
L 50 4666 
L 709 4666 
L 2188 738 
L 3669 4666 
L 4325 4666 
L 2547 0 
L 1831 0 
z
" transform="scale(0.015625)"/>
      </defs>
      <use xlink:href="#DejaVuSans-52"/>
      <use xlink:href="#DejaVuSans-65" x="64.982422"/>
      <use xlink:href="#DejaVuSans-6c" x="126.505859"/>
      <use xlink:href="#DejaVuSans-61" x="154.289062"/>
      <use xlink:href="#DejaVuSans-74" x="215.568359"/>
      <use xlink:href="#DejaVuSans-69" x="254.777344"/>
      <use xlink:href="#DejaVuSans-76" x="282.560547"/>
      <use xlink:href="#DejaVuSans-65" x="341.740234"/>
      <use xlink:href="#DejaVuSans-20" x="403.263672"/>
      <use xlink:href="#DejaVuSans-52" x="435.050781"/>
      <use xlink:href="#DejaVuSans-6f" x="500.033203"/>
      <use xlink:href="#DejaVuSans-74" x="561.214844"/>
      <use xlink:href="#DejaVuSans-61" x="600.423828"/>
      <use xlink:href="#DejaVuSans-74" x="661.703125"/>
      <use xlink:href="#DejaVuSans-69" x="700.912109"/>
      <use xlink:href="#DejaVuSans-6f" x="728.695312"/>
      <use xlink:href="#DejaVuSans-6e" x="789.876953"/>
      <use xlink:href="#DejaVuSans-61" x="853.255859"/>
      <use xlink:href="#DejaVuSans-6c" x="914.535156"/>
      <use xlink:href="#DejaVuSans-20" x="942.318359"/>
      <use xlink:href="#DejaVuSans-41" x="974.105469"/>
      <use xlink:href="#DejaVuSans-6e" x="1042.513672"/>
      <use xlink:href="#DejaVuSans-67" x="1105.892578"/>
      <use xlink:href="#DejaVuSans-75" x="1169.369141"/>
      <use xlink:href="#DejaVuSans-6c" x="1232.748047"/>
      <use xlink:href="#DejaVuSans-61" x="1260.53125"/>
      <use xlink:href="#DejaVuSans-72" x="1321.810547"/>
      <use xlink:href="#DejaVuSans-20" x="1362.923828"/>
      <use xlink:href="#DejaVuSans-4d" x="1394.710938"/>
      <use xlink:href="#DejaVuSans-6f" x="1480.990234"/>
      <use xlink:href="#DejaVuSans-6d" x="1542.171875"/>
      <use xlink:href="#DejaVuSans-65" x="1639.583984"/>
      <use xlink:href="#DejaVuSans-6e" x="1701.107422"/>
      <use xlink:href="#DejaVuSans-74" x="1764.486328"/>
      <use xlink:href="#DejaVuSans-75" x="1803.695312"/>
      <use xlink:href="#DejaVuSans-6d" x="1867.074219"/>
      <use xlink:href="#DejaVuSans-20" x="1964.486328"/>
      <use xlink:href="#DejaVuSans-56" x="1996.273438"/>
      <use xlink:href="#DejaVuSans-61" x="2056.931641"/>
      <use xlink:href="#DejaVuSans-72" x="2118.210938"/>
      <use xlink:href="#DejaVuSans-69" x="2159.324219"/>
      <use xlink:href="#DejaVuSans-61" x="2187.107422"/>
      <use xlink:href="#DejaVuSans-74" x="2248.386719"/>
      <use xlink:href="#DejaVuSans-69" x="2287.595703"/>
      <use xlink:href="#DejaVuSans-6f" x="2315.378906"/>
      <use xlink:href="#DejaVuSans-6e" x="2376.560547"/>
     </g>
    </g>
    <g id="text_12">
     <!-- 1e−6 -->
     <g transform="translate(56.923125 22.9575) scale(0.16 -0.16)">
      <defs>
       <path id="DejaVuSans-2212" d="M 678 2272 
L 4684 2272 
L 4684 1741 
L 678 1741 
L 678 2272 
z
" transform="scale(0.015625)"/>
       <path id="DejaVuSans-36" d="M 2113 2584 
Q 1688 2584 1439 2293 
Q 1191 2003 1191 1497 
Q 1191 994 1439 701 
Q 1688 409 2113 409 
Q 2538 409 2786 701 
Q 3034 994 3034 1497 
Q 3034 2003 2786 2293 
Q 2538 2584 2113 2584 
z
M 3366 4563 
L 3366 3988 
Q 3128 4100 2886 4159 
Q 2644 4219 2406 4219 
Q 1781 4219 1451 3797 
Q 1122 3375 1075 2522 
Q 1259 2794 1537 2939 
Q 1816 3084 2150 3084 
Q 2853 3084 3261 2657 
Q 3669 2231 3669 1497 
Q 3669 778 3244 343 
Q 2819 -91 2113 -91 
Q 1303 -91 875 529 
Q 447 1150 447 2328 
Q 447 3434 972 4092 
Q 1497 4750 2381 4750 
Q 2619 4750 2861 4703 
Q 3103 4656 3366 4563 
z
" transform="scale(0.015625)"/>
      </defs>
      <use xlink:href="#DejaVuSans-31"/>
      <use xlink:href="#DejaVuSans-65" x="63.623047"/>
      <use xlink:href="#DejaVuSans-2212" x="125.146484"/>
      <use xlink:href="#DejaVuSans-36" x="208.935547"/>
     </g>
    </g>
   </g>
   <g id="line2d_10">
    <path d="M 70.208438 219.617873 
L 70.500583 218.66115 
L 70.646656 218.909647 
L 70.938801 220.533992 
L 71.230946 222.172221 
L 71.377019 222.033145 
L 71.523092 220.613693 
L 71.815237 212.712328 
L 72.399528 190.593838 
L 72.545601 189.911784 
L 72.691673 192.050504 
L 73.275964 206.065044 
L 73.422037 205.774025 
L 73.714182 199.768107 
L 74.882764 165.251434 
L 75.320982 158.862725 
L 75.7592 155.113773 
L 76.197418 152.946012 
L 76.635637 151.690253 
L 77.073855 150.956374 
L 77.658145 150.42059 
L 78.388509 150.102878 
L 79.557091 149.910138 
L 82.040327 149.807662 
L 86.276435 149.846585 
L 87.445017 150.025375 
L 88.17538 150.354464 
L 88.613598 150.74429 
L 89.051816 151.405056 
L 89.490035 152.524459 
L 89.928253 154.40773 
L 90.366471 157.507069 
L 90.804689 162.330769 
L 91.973271 177.377153 
L 92.119343 177.003047 
L 92.411489 173.220919 
L 93.141852 159.553041 
L 93.287925 158.69355 
L 93.433998 158.579561 
L 93.58007 159.10414 
L 93.872216 161.919861 
L 94.310434 170.462087 
L 95.332943 193.454504 
L 95.771161 197.696499 
L 96.063306 198.418286 
L 96.209379 198.288213 
L 96.501524 197.345614 
L 97.377961 192.632057 
L 98.108324 189.543051 
L 98.692615 188.030285 
L 99.276906 187.127605 
L 99.861197 186.605416 
L 100.59156 186.252597 
L 101.614069 186.02626 
L 103.513014 185.884126 
L 106.872686 185.875893 
L 108.333413 186.029918 
L 109.063777 186.273602 
L 109.648068 186.688571 
L 110.086286 187.251788 
L 110.524504 188.189318 
L 110.962722 189.715131 
L 111.40094 192.064978 
L 112.715595 200.218766 
L 112.861667 200.041957 
L 113.153813 198.381922 
L 113.445958 194.960034 
L 114.030249 183.875559 
L 114.61454 172.985655 
L 114.906685 170.138851 
L 115.198831 169.127064 
L 115.344903 169.062708 
L 115.637049 169.323192 
L 115.929194 169.985352 
L 116.22134 171.66773 
L 116.513485 175.243107 
L 116.951703 184.262933 
L 117.682067 200.528591 
L 117.974212 204.128073 
L 118.266357 205.720423 
L 118.41243 205.908687 
L 118.558503 205.791906 
L 118.850648 204.932803 
L 120.457448 198.443831 
L 121.041739 197.245541 
L 121.62603 196.527641 
L 122.356393 196.029852 
L 123.232829 195.732436 
L 124.693556 195.52179 
L 127.322865 195.407642 
L 129.806101 195.269675 
L 133.019701 194.648412 
L 133.457919 194.072704 
L 134.188282 193.030652 
L 134.480428 193.028272 
L 134.772573 193.439898 
L 135.210791 194.71491 
L 136.087227 197.487279 
L 136.525445 198.177758 
L 136.963664 198.471377 
L 137.401882 198.521812 
L 137.8401 198.242804 
L 138.424391 197.866889 
L 138.862609 197.890456 
L 141.63799 198.739268 
L 143.829081 198.859962 
L 148.503407 198.873809 
L 149.818062 198.688062 
L 152.44737 198.150436 
L 153.177734 198.341493 
L 153.615952 198.632276 
L 154.05417 199.273064 
L 154.492388 200.381615 
L 155.222752 202.394834 
L 155.514897 202.610933 
L 155.66097 202.4742 
L 155.953115 201.638297 
L 156.391333 199.144171 
L 156.975624 195.525296 
L 157.26777 194.867282 
L 157.413842 195.007818 
L 157.705988 196.195379 
L 159.45886 208.163766 
L 160.189224 212.675614 
L 160.481369 213.573513 
L 160.773514 213.861031 
L 161.06566 213.672939 
L 161.503878 212.879612 
L 162.67246 210.49214 
L 163.25675 209.743631 
L 163.987114 209.19402 
L 164.717477 208.923127 
L 165.739986 208.808105 
L 166.908568 208.920778 
L 167.931077 209.238085 
L 169.391804 209.817761 
L 169.830022 209.671084 
L 170.26824 209.13827 
L 171.290749 207.431027 
L 171.728967 207.195803 
L 172.167185 207.173329 
L 172.459331 207.30582 
L 172.751476 207.649973 
L 173.189694 208.575601 
L 173.920058 210.242943 
L 174.358276 210.741713 
L 174.650421 210.817583 
L 174.942567 210.712849 
L 175.380785 210.275913 
L 175.965076 209.324486 
L 177.27973 207.063026 
L 178.010094 206.350472 
L 179.178675 205.329509 
L 180.201184 204.278787 
L 180.785475 204.01037 
L 182.246202 203.715027 
L 183.853002 203.528764 
L 185.021583 203.605017 
L 186.044092 203.886486 
L 186.920529 204.344738 
L 187.943038 205.163271 
L 188.819474 205.852261 
L 189.257692 205.912746 
L 189.549837 205.709433 
L 189.841983 205.225088 
L 190.280201 203.849961 
L 190.864492 200.887708 
L 191.594855 197.070716 
L 192.033073 195.781069 
L 192.325219 195.608983 
L 192.617364 195.843676 
L 193.347728 196.695565 
L 193.639873 196.738717 
L 194.370237 196.624114 
L 194.662382 196.933933 
L 195.1006 198.023575 
L 197.145618 205.367723 
L 197.583836 207.672304 
L 198.022054 211.229505 
L 198.606345 218.48601 
L 199.044563 224.014973 
L 199.190636 224.923451 
L 199.336709 224.97658 
L 199.628854 222.722076 
L 199.920999 220.775981 
L 200.067072 221.515073 
L 200.797436 230.905487 
L 200.943508 230.706306 
L 201.235654 228.789943 
L 201.819945 224.739391 
L 202.258163 223.298667 
L 202.696381 222.750466 
L 203.134599 222.600168 
L 204.011035 222.64056 
L 206.640344 222.828052 
L 209.561798 223.040733 
L 211.606816 223.245883 
L 212.191107 223.06654 
L 212.92147 222.551141 
L 213.797906 221.924253 
L 214.236124 221.866743 
L 214.674343 222.021779 
L 216.427215 222.949368 
L 218.618306 223.470612 
L 219.202596 223.657805 
L 219.494742 223.593152 
L 219.786887 223.301696 
L 220.079033 222.687802 
L 220.517251 221.075266 
L 221.393687 217.253687 
L 221.685832 216.745402 
L 221.977978 216.681422 
L 222.854414 216.919139 
L 223.438705 216.965031 
L 223.876923 217.266944 
L 224.607286 218.19336 
L 225.629795 219.483569 
L 226.506232 220.207577 
L 227.528741 220.738293 
L 229.719831 221.564212 
L 230.74234 221.748552 
L 231.472704 221.636033 
L 232.34914 221.224811 
L 233.517721 220.653981 
L 234.248085 220.585025 
L 235.270594 220.776675 
L 238.338121 221.422315 
L 240.090993 221.623205 
L 240.529211 221.737477 
L 240.821357 221.991136 
L 241.259575 222.71612 
L 241.989938 224.073087 
L 242.428156 224.556589 
L 242.866375 224.695496 
L 243.450665 224.570979 
L 244.911392 224.163442 
L 246.226047 224.081497 
L 248.124992 224.189613 
L 249.293574 224.452119 
L 250.608228 224.769119 
L 251.192519 224.639195 
L 252.068955 224.397038 
L 252.507173 224.585208 
L 253.821827 225.531547 
L 254.406118 225.516706 
L 256.012918 225.197942 
L 256.597209 225.322696 
L 257.1815 225.638354 
L 257.911863 226.325956 
L 258.788299 227.557244 
L 259.664736 228.8325 
L 260.102954 229.099552 
L 260.395099 228.965325 
L 260.687245 228.502855 
L 261.125463 227.22676 
L 261.855826 224.885758 
L 262.294044 224.116665 
L 262.58619 223.882729 
L 262.878335 223.92836 
L 263.608699 224.522803 
L 263.754771 224.416978 
L 264.046917 223.794686 
L 264.485135 222.087495 
L 265.361571 218.445826 
L 265.945862 216.905618 
L 266.530153 216.022766 
L 267.114444 215.551837 
L 267.844807 215.269426 
L 269.013389 215.100917 
L 271.350552 215.017183 
L 277.777751 215.194135 
L 278.508115 215.491117 
L 279.092405 215.933677 
L 279.676696 216.684442 
L 280.260987 217.901761 
L 280.845278 219.721604 
L 282.159932 224.285747 
L 282.306005 224.343297 
L 282.452078 224.175033 
L 282.744223 223.031177 
L 283.182441 219.338802 
L 283.766732 214.061955 
L 283.912805 213.518087 
L 284.058877 213.454704 
L 284.20495 213.865544 
L 284.497095 215.814789 
L 285.227459 221.726441 
L 285.519604 222.740239 
L 285.665677 222.888779 
L 285.81175 222.838909 
L 286.103895 222.312702 
L 287.126404 219.756289 
L 287.564622 219.377766 
L 287.856768 219.390767 
L 288.441058 219.760526 
L 288.879277 219.969357 
L 289.171422 219.871725 
L 289.463567 219.479496 
L 289.901785 218.323971 
L 290.632149 216.069556 
L 290.924294 215.666235 
L 291.070367 215.646124 
L 291.362513 215.989831 
L 291.654658 216.805047 
L 292.969312 221.387681 
L 293.261458 221.581959 
L 293.553603 221.453219 
L 293.991821 220.898659 
L 295.306476 219.025197 
L 296.036839 218.432008 
L 296.913275 218.050787 
L 298.081857 217.826569 
L 300.272948 217.693642 
L 305.385492 217.655343 
L 306.408001 217.797115 
L 307.284437 218.124276 
L 308.014801 218.611882 
L 309.767673 219.984912 
L 310.059819 219.720322 
L 310.351964 219.094697 
L 311.520546 215.712765 
L 311.666619 215.791796 
L 311.958764 216.457578 
L 313.127346 220.313952 
L 313.419491 220.577333 
L 313.711636 220.585664 
L 314.149854 220.334787 
L 315.610582 219.325079 
L 316.487018 219.0324 
L 317.801672 218.84708 
L 319.992763 218.787426 
L 321.745635 218.959864 
L 322.475999 219.013108 
L 322.914217 218.829804 
L 323.206362 218.487866 
L 323.64458 217.457455 
L 324.228871 215.098407 
L 324.813162 212.969747 
L 324.959235 212.791749 
L 325.105307 212.829824 
L 325.397453 213.580467 
L 325.835671 215.948347 
L 326.419962 219.100167 
L 326.712107 219.935895 
L 327.004253 220.213727 
L 327.296398 220.055739 
L 327.734616 219.326022 
L 329.04927 216.682272 
L 329.341416 216.472295 
L 329.633561 216.523433 
L 330.363925 216.956346 
L 330.65607 216.703236 
L 331.532506 215.346309 
L 331.824652 215.277387 
L 332.26287 215.513512 
L 333.577524 216.477979 
L 334.45396 216.74735 
L 335.914687 216.922302 
L 335.914687 216.922302 
" clip-path="url(#p4d1f014b2a)" style="fill: none; stroke: #1f77b4; stroke-width: 1.5; stroke-linecap: square"/>
   </g>
   <g id="line2d_11">
    <path d="M 70.208438 219.617873 
L 70.792728 229.094629 
L 71.084874 231.26054 
L 71.230946 231.237938 
L 71.377019 230.38535 
L 71.669165 226.472211 
L 72.253455 217.306521 
L 72.545601 216.168163 
L 72.983819 216.969851 
L 73.129892 216.746055 
L 73.275964 215.924431 
L 73.56811 212.35625 
L 74.298473 197.537987 
L 74.882764 187.493967 
L 75.467055 181.382687 
L 75.905273 178.721944 
L 76.343491 177.095603 
L 76.781709 176.111029 
L 77.366 175.374514 
L 77.950291 174.994379 
L 78.826727 174.732637 
L 80.287454 174.589382 
L 83.647126 174.540686 
L 86.422508 174.678939 
L 87.445017 174.93442 
L 88.029307 175.268286 
L 88.467526 175.705243 
L 88.905744 176.418095 
L 89.343962 177.582059 
L 89.78218 179.47196 
L 90.220398 182.487878 
L 90.658616 187.113404 
L 91.242907 196.124835 
L 91.827198 204.87035 
L 91.973271 205.568767 
L 92.119343 205.018452 
L 92.265416 202.891747 
L 92.557561 193.289916 
L 93.287925 159.576012 
L 93.433998 158.09783 
L 93.58007 159.615575 
L 93.872216 169.765439 
L 94.602579 201.638034 
L 95.040797 212.91951 
L 95.479015 219.541983 
L 95.771161 221.84928 
L 96.063306 222.805957 
L 96.209379 222.9083 
L 96.355452 222.834256 
L 96.647597 222.353908 
L 97.816179 219.947024 
L 98.40047 219.311551 
L 99.130833 218.908041 
L 100.153342 218.678826 
L 102.19836 218.538461 
L 106.288396 218.491921 
L 107.895195 218.639 
L 108.771632 218.902786 
L 109.501995 219.355252 
L 110.232359 220.137031 
L 111.254868 221.403192 
L 111.547013 221.408307 
L 111.839158 220.982493 
L 112.131304 220.02304 
L 113.299885 215.040971 
L 114.030249 213.834892 
L 114.322394 212.22218 
L 114.61454 209.239658 
L 115.052758 202.060681 
L 115.637049 191.991077 
L 115.929194 190.149037 
L 116.075267 190.403444 
L 116.367412 192.81034 
L 117.097776 200.303686 
L 117.243848 200.777745 
L 117.389921 200.704227 
L 117.682067 199.235794 
L 119.142794 187.859988 
L 119.581012 186.285164 
L 120.01923 185.356006 
L 120.603521 184.698286 
L 121.187811 184.380378 
L 122.064248 184.169051 
L 123.81712 184.029995 
L 130.536465 183.829757 
L 131.120755 184.073267 
L 131.997192 184.7583 
L 132.43541 185.004022 
L 132.727555 184.978206 
L 133.019701 184.724515 
L 133.457919 183.8659 
L 134.042209 182.016574 
L 135.356864 177.585037 
L 135.795082 176.72254 
L 136.087227 176.4344 
L 136.379373 176.385088 
L 136.817591 176.448284 
L 136.963664 176.328317 
L 137.255809 175.621303 
L 138.132245 172.314955 
L 138.424391 171.978344 
L 138.716536 171.968717 
L 140.469409 172.566124 
L 142.076208 172.563358 
L 147.188753 172.511178 
L 149.379843 172.633868 
L 150.402352 172.900004 
L 151.424861 173.446932 
L 152.155225 173.812956 
L 152.593443 173.829729 
L 153.031661 173.591078 
L 153.469879 173.050481 
L 153.908097 172.130815 
L 154.346315 170.685959 
L 154.930606 167.829816 
L 156.099188 161.795114 
L 156.975624 158.227574 
L 157.26777 155.944355 
L 157.705988 150.146783 
L 158.728497 134.218905 
L 158.874569 133.564559 
L 159.020642 133.44061 
L 159.166715 133.738403 
L 160.043151 136.899488 
L 160.189224 136.879285 
L 160.481369 136.300202 
L 161.06566 134.036064 
L 161.796023 131.377053 
L 162.380314 130.049679 
L 162.964605 129.294198 
L 163.548896 128.880732 
L 164.425332 128.553907 
L 166.47035 127.878121 
L 167.200713 127.391642 
L 167.931077 126.601948 
L 168.515368 125.653191 
L 169.391804 123.707082 
L 169.976095 122.563682 
L 170.26824 122.348482 
L 170.560386 122.49767 
L 170.998604 123.255034 
L 171.436822 123.91639 
L 171.728967 123.955494 
L 172.751476 123.420627 
L 173.335767 123.486104 
L 173.627912 123.313853 
L 174.066131 122.761056 
L 174.942567 121.53787 
L 175.380785 121.261442 
L 175.819003 121.303291 
L 176.257221 121.653518 
L 176.987585 122.693357 
L 177.571876 123.39576 
L 177.864021 123.46836 
L 178.156166 123.279118 
L 179.178675 122.082027 
L 179.470821 122.398762 
L 179.909039 123.604737 
L 180.639402 125.741068 
L 180.931548 126.129505 
L 181.223693 126.216871 
L 181.515839 126.079355 
L 182.246202 125.314195 
L 183.122638 124.496813 
L 183.853002 124.128566 
L 184.729438 123.941365 
L 188.235183 123.458597 
L 189.69591 122.998038 
L 189.988055 123.10348 
L 190.280201 123.396742 
L 190.718419 124.293924 
L 192.033073 128.092907 
L 192.179146 128.144997 
L 192.325219 128.038197 
L 192.617364 127.374139 
L 193.785946 123.623485 
L 193.932018 123.635924 
L 194.224164 124.124174 
L 194.662382 125.674371 
L 195.392745 128.368253 
L 195.684891 128.950263 
L 195.977036 129.147951 
L 196.269182 128.960163 
L 196.561327 128.38926 
L 196.999545 126.767694 
L 197.437763 124.053649 
L 197.875981 119.978675 
L 198.606345 110.408009 
L 199.044563 105.489616 
L 199.190636 104.732043 
L 199.336709 104.615564 
L 199.482781 105.132433 
L 199.920999 107.495375 
L 200.067072 106.834343 
L 200.359217 102.098563 
L 200.797436 95.238372 
L 200.943508 94.990607 
L 201.089581 95.720407 
L 201.527799 100.740404 
L 202.11209 106.869068 
L 202.550308 109.453682 
L 202.988526 110.841026 
L 203.426744 111.551529 
L 203.864962 111.905465 
L 204.449253 112.111128 
L 205.471762 112.204305 
L 209.853943 112.205771 
L 211.606816 112.021137 
L 212.92147 111.940512 
L 213.797906 111.924041 
L 214.382197 111.657882 
L 215.258633 110.882698 
L 216.573288 109.74313 
L 217.741869 109.024098 
L 218.618306 108.752408 
L 219.640814 108.507111 
L 220.225105 108.117523 
L 220.809396 107.75774 
L 221.101542 107.826413 
L 221.53976 108.344816 
L 222.416196 109.635163 
L 222.854414 109.9606 
L 223.292632 109.978578 
L 223.73085 109.66656 
L 224.461214 108.682838 
L 225.483723 107.306539 
L 226.214086 106.666461 
L 226.94445 106.29372 
L 227.966959 106.038141 
L 229.719831 105.655125 
L 230.74234 105.162163 
L 234.54023 102.922302 
L 235.270594 102.822791 
L 235.854885 102.954424 
L 236.585248 103.362136 
L 237.461684 104.149754 
L 238.922412 105.677828 
L 239.36063 105.746895 
L 239.798848 105.492015 
L 240.821357 104.365581 
L 241.55172 103.721918 
L 242.428156 103.592661 
L 243.15852 103.751883 
L 245.933901 104.755272 
L 248.709283 105.389898 
L 250.900373 106.066152 
L 251.338591 105.888142 
L 251.77681 105.415642 
L 253.091464 103.575668 
L 253.529682 103.411728 
L 256.158991 103.079669 
L 256.889354 102.61673 
L 257.473645 101.992863 
L 258.057936 101.078017 
L 258.788299 99.517476 
L 260.249026 96.263894 
L 261.125463 94.689151 
L 261.417608 93.628033 
L 261.855826 90.764835 
L 262.878335 81.970378 
L 263.316553 80.612503 
L 263.900844 79.256272 
L 264.485135 76.803085 
L 265.653716 71.494865 
L 266.238007 69.747034 
L 266.822298 68.602119 
L 267.406589 67.884971 
L 268.136952 67.361288 
L 269.013389 67.028958 
L 270.328043 66.798129 
L 272.373061 66.688488 
L 275.878806 66.737024 
L 277.485606 66.930312 
L 278.362042 67.237664 
L 278.946333 67.641911 
L 279.530623 68.336183 
L 280.114914 69.474029 
L 280.699205 71.153998 
L 281.575641 73.848678 
L 281.867787 74.121181 
L 282.013859 73.999365 
L 282.306005 73.159827 
L 283.036368 69.883816 
L 283.182441 69.940508 
L 283.328514 70.529794 
L 283.620659 73.41179 
L 284.789241 89.090797 
L 285.227459 90.78089 
L 285.665677 91.437538 
L 286.103895 91.663789 
L 286.542113 91.600557 
L 287.856768 91.112135 
L 288.294986 91.246311 
L 289.317495 91.714765 
L 289.60964 91.417753 
L 289.901785 90.678302 
L 290.340004 88.767698 
L 290.924294 86.207556 
L 291.21644 85.754587 
L 291.362513 85.79096 
L 291.654658 86.23399 
L 292.238949 87.213779 
L 292.531094 87.218589 
L 292.82324 86.881323 
L 294.430039 84.283219 
L 295.01433 83.929524 
L 295.744694 83.750125 
L 297.205421 83.684926 
L 302.02582 83.569438 
L 303.486547 83.542403 
L 305.385492 83.774894 
L 307.576583 83.488524 
L 308.745164 83.385511 
L 310.351964 83.058875 
L 310.790182 83.433437 
L 311.2284 83.885061 
L 311.520546 83.910646 
L 311.812691 83.554951 
L 312.396982 82.093635 
L 312.8352 81.156786 
L 313.273418 80.759959 
L 313.565564 80.753831 
L 314.149854 81.069623 
L 315.610582 82.040407 
L 316.779163 82.482671 
L 319.262399 83.284177 
L 319.992763 83.792574 
L 320.577053 84.457455 
L 321.161344 85.472384 
L 321.891708 87.271693 
L 322.622071 89.025758 
L 322.914217 89.209213 
L 323.060289 89.060615 
L 323.352435 88.093959 
L 323.64458 86.051685 
L 324.228871 79.246191 
L 324.667089 74.658442 
L 324.959235 73.743446 
L 325.105307 74.123041 
L 325.397453 76.32609 
L 326.419962 86.262931 
L 326.712107 87.208674 
L 327.004253 87.387118 
L 327.296398 87.112244 
L 328.903198 84.8234 
L 329.487488 83.969493 
L 330.363925 82.281134 
L 330.65607 82.221562 
L 330.948216 82.521273 
L 331.532506 83.265677 
L 331.824652 83.364553 
L 332.26287 83.192697 
L 333.723597 82.30999 
L 334.600033 82.120981 
L 335.914687 82.083301 
L 335.914687 82.083301 
" clip-path="url(#p4d1f014b2a)" style="fill: none; stroke: #ff7f0e; stroke-width: 1.5; stroke-linecap: square"/>
   </g>
   <g id="line2d_12">
    <path d="M 70.208438 219.617873 
L 71.523092 199.299524 
L 71.815237 195.568957 
L 72.107383 188.361455 
L 72.545601 175.435268 
L 72.691673 173.923465 
L 72.837746 174.576649 
L 73.422037 184.083569 
L 73.56811 184.053412 
L 73.714182 182.491009 
L 74.006328 175.975919 
L 74.882764 152.731646 
L 75.320982 145.645431 
L 75.7592 141.34268 
L 76.197418 138.837775 
L 76.635637 137.404556 
L 77.073855 136.589776 
L 77.658145 136.023317 
L 78.388509 135.71724 
L 79.411018 135.574234 
L 82.040327 135.519513 
L 85.838217 135.627967 
L 87.006799 135.832923 
L 87.737162 136.146167 
L 88.321453 136.631654 
L 88.759671 137.242904 
L 89.197889 138.195025 
L 89.636107 139.651867 
L 90.074325 141.796774 
L 90.804689 146.919281 
L 91.242907 149.573043 
L 91.38898 149.811523 
L 91.535052 149.415864 
L 91.681125 148.144685 
L 91.973271 142.018807 
L 92.411489 123.050935 
L 92.849707 103.635484 
L 92.995779 100.855347 
L 93.141852 100.473275 
L 93.726143 106.319038 
L 93.872216 104.954751 
L 94.602579 90.352309 
L 94.748652 90.258731 
L 94.894725 91.489048 
L 95.332943 99.863945 
L 95.917234 110.889278 
L 96.355452 115.068454 
L 96.647597 116.249137 
L 96.939742 116.634014 
L 97.231888 116.559523 
L 97.670106 116.063064 
L 98.838688 114.603705 
L 99.569051 114.043685 
L 100.445487 113.659158 
L 101.614069 113.416155 
L 103.513014 113.286877 
L 108.917704 113.064818 
L 109.501995 112.81081 
L 110.086286 112.285053 
L 110.524504 111.597552 
L 111.254868 109.877711 
L 111.547013 109.31948 
L 111.693086 109.23487 
L 111.839158 109.378833 
L 111.985231 109.838994 
L 112.277376 112.031936 
L 112.715595 118.710661 
L 113.299885 127.739971 
L 113.445958 128.53393 
L 113.592031 128.488407 
L 113.738104 127.611174 
L 114.030249 123.673471 
L 115.198831 101.416924 
L 115.344903 100.881513 
L 115.490976 101.151889 
L 115.783121 103.463238 
L 116.22134 107.5378 
L 116.367412 108.173491 
L 116.513485 108.308414 
L 116.659558 108.002765 
L 116.951703 106.615524 
L 117.389921 103.271047 
L 117.682067 102.386958 
L 117.828139 102.368055 
L 118.120285 102.895869 
L 118.996721 105.202637 
L 119.434939 105.679205 
L 119.873157 105.759541 
L 120.457448 105.572938 
L 122.21032 104.89438 
L 123.524975 104.680185 
L 125.569993 104.595442 
L 127.761083 104.700957 
L 129.075738 104.982129 
L 130.974683 105.523781 
L 131.412901 105.392776 
L 132.727555 104.71999 
L 133.750064 104.939994 
L 134.042209 104.675402 
L 134.772573 103.693354 
L 134.918646 103.676979 
L 135.064718 103.795267 
L 135.356864 104.496926 
L 135.795082 106.562553 
L 136.379373 109.27299 
L 136.525445 109.505352 
L 136.671518 109.482414 
L 136.963664 108.884549 
L 137.255809 108.360005 
L 137.401882 108.414789 
L 137.694027 109.201988 
L 138.278318 111.019979 
L 138.570463 111.167425 
L 138.862609 110.901907 
L 140.323336 108.852339 
L 141.053699 108.379128 
L 141.930136 108.11227 
L 143.390863 107.956897 
L 146.750535 107.901076 
L 149.525916 108.026451 
L 151.278789 108.119286 
L 151.863079 107.911277 
L 152.301298 107.497205 
L 152.739516 106.70479 
L 153.177734 105.384353 
L 153.908097 102.096568 
L 154.492388 99.87856 
L 154.638461 99.679388 
L 154.784534 99.697513 
L 154.930606 99.958207 
L 155.222752 101.23939 
L 155.66097 104.709825 
L 156.245261 109.309952 
L 156.391333 109.77058 
L 156.537406 109.736315 
L 156.683479 109.115659 
L 156.975624 105.879555 
L 157.413842 96.256972 
L 158.144206 77.700961 
L 158.436351 74.139171 
L 158.582424 73.45901 
L 158.728497 73.348394 
L 159.020642 74.059954 
L 159.312787 74.802024 
L 159.45886 74.888198 
L 159.604933 74.733537 
L 159.897078 73.797208 
L 161.211733 68.08352 
L 161.649951 67.20387 
L 162.088169 66.712464 
L 162.67246 66.393053 
L 163.548896 66.224116 
L 165.155696 66.186815 
L 166.324277 66.315731 
L 167.054641 66.582824 
L 167.638932 67.014868 
L 168.223222 67.744664 
L 168.953586 69.096106 
L 169.683949 70.37576 
L 169.976095 70.606894 
L 170.414313 70.637128 
L 170.706458 70.68193 
L 170.998604 70.967974 
L 171.436822 71.627325 
L 171.582895 71.6842 
L 171.728967 71.544938 
L 172.021113 70.558034 
L 172.897549 65.972584 
L 173.189694 65.659351 
L 173.48184 65.843261 
L 173.920058 66.144341 
L 174.212203 66.056026 
L 174.650421 65.553171 
L 175.526858 64.437517 
L 176.257221 63.949678 
L 177.717948 63.339774 
L 178.010094 63.384325 
L 178.302239 63.64106 
L 178.594384 64.199264 
L 179.032603 65.605456 
L 179.762966 68.106207 
L 180.201184 68.862958 
L 180.931548 69.428365 
L 181.515839 70.044816 
L 183.706929 72.789052 
L 184.583365 73.346909 
L 185.89802 73.844322 
L 186.920529 74.294475 
L 187.504819 74.755629 
L 188.08911 75.524775 
L 188.673401 76.772939 
L 189.257692 78.640469 
L 190.718419 83.824148 
L 190.864492 83.895512 
L 191.010564 83.78745 
L 191.30271 82.984873 
L 191.740928 80.438742 
L 192.617364 74.214614 
L 192.90951 73.395014 
L 193.055582 73.373885 
L 193.201655 73.605542 
L 193.4938 74.715051 
L 194.954527 82.10604 
L 195.246673 82.574518 
L 195.538818 82.695221 
L 195.830964 82.510011 
L 196.123109 82.043317 
L 196.561327 80.884409 
L 197.583836 77.89589 
L 197.729909 77.810053 
L 197.875981 77.912585 
L 198.168127 78.784841 
L 199.044563 83.089757 
L 199.190636 82.527371 
L 199.920999 76.880985 
L 200.067072 76.749624 
L 200.213145 77.063605 
L 200.50529 79.502889 
L 200.943508 84.558363 
L 201.089581 84.813567 
L 201.235654 84.035614 
L 201.527799 80.155449 
L 202.404235 66.166196 
L 202.842453 62.055322 
L 203.280672 59.582018 
L 203.71889 58.13561 
L 204.157108 57.294937 
L 204.741399 56.69212 
L 205.471762 56.34907 
L 206.494271 56.173372 
L 209.12358 56.059239 
L 211.168598 56.109105 
L 212.045034 56.360072 
L 214.52827 57.383932 
L 215.842924 57.591972 
L 216.427215 57.878352 
L 217.011506 58.453491 
L 217.449724 59.174513 
L 218.034015 60.612441 
L 219.202596 63.911983 
L 219.494742 64.08146 
L 219.786887 63.697323 
L 220.225105 62.262654 
L 220.809396 60.434039 
L 221.101542 60.156454 
L 221.393687 60.252715 
L 221.831905 60.8163 
L 222.270123 61.901551 
L 223.146559 64.476112 
L 223.438705 64.753672 
L 223.73085 64.658173 
L 224.169068 64.062828 
L 225.191577 62.447948 
L 225.775868 61.938497 
L 226.360159 61.694957 
L 227.382668 61.570734 
L 230.596267 61.548677 
L 232.203067 61.58243 
L 233.079503 61.535486 
L 233.809867 61.633614 
L 234.394158 61.977605 
L 234.978448 62.610667 
L 236.877394 64.965158 
L 237.461684 65.219381 
L 237.899903 65.150456 
L 238.338121 64.803525 
L 238.922412 63.900323 
L 239.798848 62.384876 
L 240.090993 62.161726 
L 240.383139 62.15835 
L 240.821357 62.492727 
L 241.697793 63.34615 
L 242.282084 63.435642 
L 243.15852 63.284436 
L 244.911392 62.96985 
L 246.810338 62.899115 
L 248.709283 63.013093 
L 249.439646 63.245138 
L 250.17001 63.739584 
L 250.900373 64.274652 
L 251.338591 64.312912 
L 251.77681 64.049828 
L 252.507173 63.563068 
L 252.945391 63.55736 
L 253.529682 63.590244 
L 253.9679 63.391177 
L 254.698264 62.70197 
L 255.720773 61.789406 
L 256.451136 61.449961 
L 257.035427 61.408849 
L 257.473645 61.549191 
L 257.911863 61.884343 
L 258.350081 62.468955 
L 258.934372 63.699655 
L 260.102954 66.618103 
L 260.395099 66.812869 
L 260.687245 66.608686 
L 261.417608 65.685055 
L 261.709753 65.89 
L 262.147972 66.419054 
L 262.294044 66.397978 
L 262.58619 65.90949 
L 263.024408 65.051647 
L 263.170481 65.105154 
L 263.462626 65.965378 
L 264.339062 69.847015 
L 264.485135 69.968586 
L 264.631208 69.891455 
L 264.923353 69.251172 
L 265.507644 66.980569 
L 266.238007 64.260064 
L 266.822298 62.815281 
L 267.406589 61.947588 
L 267.99088 61.466839 
L 268.721243 61.180694 
L 269.743752 61.060223 
L 274.272006 61.033927 
L 276.609169 61.218218 
L 277.631678 61.487739 
L 278.362042 61.896185 
L 278.946333 62.463386 
L 279.530623 63.34329 
L 280.260987 64.901205 
L 280.845278 66.113556 
L 281.137423 66.37108 
L 281.283496 66.321717 
L 281.575641 65.717699 
L 281.867787 64.288196 
L 282.306005 60.631649 
L 284.058877 42.139981 
L 284.497095 36.770543 
L 284.789241 35.733835 
L 284.935314 36.125215 
L 285.227459 38.21641 
L 285.81175 43.224584 
L 286.103895 44.43062 
L 286.249968 44.617037 
L 286.396041 44.563438 
L 286.688186 43.914629 
L 288.148913 39.063715 
L 288.587131 38.486623 
L 289.025349 38.30915 
L 289.317495 38.407757 
L 289.60964 38.746993 
L 289.901785 39.44918 
L 290.340004 41.438028 
L 291.21644 46.701952 
L 291.508585 47.193527 
L 291.654658 47.048279 
L 291.946803 46.146926 
L 292.82324 42.836691 
L 293.115385 42.459779 
L 293.40753 42.427554 
L 293.845749 42.732125 
L 295.01433 43.724528 
L 295.890766 44.09026 
L 297.059348 44.288891 
L 299.542584 44.416523 
L 304.655129 44.394288 
L 309.03731 43.663024 
L 309.475528 43.817725 
L 310.205891 44.409139 
L 310.64411 44.651486 
L 310.936255 44.581628 
L 311.374473 44.156527 
L 311.958764 43.649769 
L 312.396982 43.584715 
L 313.857709 43.584409 
L 315.464509 43.311481 
L 317.509527 42.993625 
L 319.116326 42.969044 
L 321.307417 43.013659 
L 321.891708 42.774184 
L 322.329926 42.387352 
L 322.914217 41.519866 
L 323.936726 39.731843 
L 324.228871 39.620376 
L 324.521017 39.921973 
L 324.813162 40.682041 
L 326.273889 45.773812 
L 326.712107 46.316381 
L 327.296398 46.65637 
L 328.172834 46.871807 
L 328.757125 46.791597 
L 329.341416 46.400783 
L 329.779634 46.126593 
L 330.071779 46.139537 
L 330.65607 46.318591 
L 330.948216 46.144272 
L 331.824652 45.378893 
L 332.26287 45.441508 
L 333.139306 45.994124 
L 334.161815 46.51484 
L 335.184324 46.771454 
L 335.914687 46.866702 
L 335.914687 46.866702 
" clip-path="url(#p4d1f014b2a)" style="fill: none; stroke: #2ca02c; stroke-width: 1.5; stroke-linecap: square"/>
   </g>
   <g id="patch_3">
    <path d="M 56.923125 241.036875 
L 56.923125 25.9575 
" style="fill: none; stroke: #000000; stroke-width: 0.8; stroke-linejoin: miter; stroke-linecap: square"/>
   </g>
   <g id="patch_4">
    <path d="M 349.2 241.036875 
L 349.2 25.9575 
" style="fill: none; stroke: #000000; stroke-width: 0.8; stroke-linejoin: miter; stroke-linecap: square"/>
   </g>
   <g id="patch_5">
    <path d="M 56.923125 241.036875 
L 349.2 241.036875 
" style="fill: none; stroke: #000000; stroke-width: 0.8; stroke-linejoin: miter; stroke-linecap: square"/>
   </g>
   <g id="patch_6">
    <path d="M 56.923125 25.9575 
L 349.2 25.9575 
" style="fill: none; stroke: #000000; stroke-width: 0.8; stroke-linejoin: miter; stroke-linecap: square"/>
   </g>
  </g>
 </g>
 <defs>
  <clipPath id="p4d1f014b2a">
   <rect x="56.923125" y="25.9575" width="292.276875" height="215.079375"/>
  </clipPath>
 </defs>
</svg>
