<?xml version="1.0" encoding="utf-8" standalone="no"?>
<!DOCTYPE svg PUBLIC "-//W3C//DTD SVG 1.1//EN"
  "http://www.w3.org/Graphics/SVG/1.1/DTD/svg11.dtd">
<svg xmlns:xlink="http://www.w3.org/1999/xlink" width="360pt" height="288pt" viewBox="0 0 360 288" xmlns="http://www.w3.org/2000/svg" version="1.1">
 <metadata>
  <rdf:RDF xmlns:dc="http://purl.org/dc/elements/1.1/" xmlns:cc="http://creativecommons.org/ns#" xmlns:rdf="http://www.w3.org/1999/02/22-rdf-syntax-ns#">
   <cc:Work>
    <dc:type rdf:resource="http://purl.org/dc/dcmitype/StillImage"/>
    <dc:date>2023-09-07T00:35:59.381953</dc:date>
    <dc:format>image/svg+xml</dc:format>
    <dc:creator>
     <cc:Agent>
      <dc:title>Matplotlib v3.7.2, https://matplotlib.org/</dc:title>
     </cc:Agent>
    </dc:creator>
   </cc:Work>
  </rdf:RDF>
 </metadata>
 <defs>
  <style type="text/css">*{stroke-linejoin: round; stroke-linecap: butt}</style>
 </defs>
 <g id="figure_1">
  <g id="patch_1">
   <path d="M 0 288 
L 360 288 
L 360 0 
L 0 0 
L 0 288 
z
" style="fill: none"/>
  </g>
  <g id="axes_1">
   <g id="patch_2">
    <path d="M 55.065625 241.036875 
L 349.2 241.036875 
L 349.2 25.9575 
L 55.065625 25.9575 
L 55.065625 241.036875 
z
" style="fill: none"/>
   </g>
   <g id="matplotlib.axis_1">
    <g id="xtick_1">
     <g id="line2d_1">
      <defs>
       <path id="mf26c0dad93" d="M 0 0 
L 0 3.5 
" style="stroke: #000000; stroke-width: 0.8"/>
      </defs>
      <g>
       <use xlink:href="#mf26c0dad93" x="68.435369" y="241.036875" style="stroke: #000000; stroke-width: 0.8"/>
      </g>
     </g>
     <g id="text_1">
      <!-- 0 -->
      <g transform="translate(63.345369 260.194375) scale(0.16 -0.16)">
       <defs>
        <path id="DejaVuSans-30" d="M 2034 4250 
Q 1547 4250 1301 3770 
Q 1056 3291 1056 2328 
Q 1056 1369 1301 889 
Q 1547 409 2034 409 
Q 2525 409 2770 889 
Q 3016 1369 3016 2328 
Q 3016 3291 2770 3770 
Q 2525 4250 2034 4250 
z
M 2034 4750 
Q 2819 4750 3233 4129 
Q 3647 3509 3647 2328 
Q 3647 1150 3233 529 
Q 2819 -91 2034 -91 
Q 1250 -91 836 529 
Q 422 1150 422 2328 
Q 422 3509 836 4129 
Q 1250 4750 2034 4750 
z
" transform="scale(0.015625)"/>
       </defs>
       <use xlink:href="#DejaVuSans-30"/>
      </g>
     </g>
    </g>
    <g id="xtick_2">
     <g id="line2d_2">
      <g>
       <use xlink:href="#mf26c0dad93" x="166.436061" y="241.036875" style="stroke: #000000; stroke-width: 0.8"/>
      </g>
     </g>
     <g id="text_2">
      <!-- 500 -->
      <g transform="translate(151.166061 260.194375) scale(0.16 -0.16)">
       <defs>
        <path id="DejaVuSans-35" d="M 691 4666 
L 3169 4666 
L 3169 4134 
L 1269 4134 
L 1269 2991 
Q 1406 3038 1543 3061 
Q 1681 3084 1819 3084 
Q 2600 3084 3056 2656 
Q 3513 2228 3513 1497 
Q 3513 744 3044 326 
Q 2575 -91 1722 -91 
Q 1428 -91 1123 -41 
Q 819 9 494 109 
L 494 744 
Q 775 591 1075 516 
Q 1375 441 1709 441 
Q 2250 441 2565 725 
Q 2881 1009 2881 1497 
Q 2881 1984 2565 2268 
Q 2250 2553 1709 2553 
Q 1456 2553 1204 2497 
Q 953 2441 691 2322 
L 691 4666 
z
" transform="scale(0.015625)"/>
       </defs>
       <use xlink:href="#DejaVuSans-35"/>
       <use xlink:href="#DejaVuSans-30" x="63.623047"/>
       <use xlink:href="#DejaVuSans-30" x="127.246094"/>
      </g>
     </g>
    </g>
    <g id="xtick_3">
     <g id="line2d_3">
      <g>
       <use xlink:href="#mf26c0dad93" x="264.436752" y="241.036875" style="stroke: #000000; stroke-width: 0.8"/>
      </g>
     </g>
     <g id="text_3">
      <!-- 1000 -->
      <g transform="translate(244.076752 260.194375) scale(0.16 -0.16)">
       <defs>
        <path id="DejaVuSans-31" d="M 794 531 
L 1825 531 
L 1825 4091 
L 703 3866 
L 703 4441 
L 1819 4666 
L 2450 4666 
L 2450 531 
L 3481 531 
L 3481 0 
L 794 0 
L 794 531 
z
" transform="scale(0.015625)"/>
       </defs>
       <use xlink:href="#DejaVuSans-31"/>
       <use xlink:href="#DejaVuSans-30" x="63.623047"/>
       <use xlink:href="#DejaVuSans-30" x="127.246094"/>
       <use xlink:href="#DejaVuSans-30" x="190.869141"/>
      </g>
     </g>
    </g>
    <g id="text_4">
     <!-- Time (s) -->
     <g transform="translate(181.803906 275.120313) scale(0.1 -0.1)">
      <defs>
       <path id="DejaVuSans-54" d="M -19 4666 
L 3928 4666 
L 3928 4134 
L 2272 4134 
L 2272 0 
L 1638 0 
L 1638 4134 
L -19 4134 
L -19 4666 
z
" transform="scale(0.015625)"/>
       <path id="DejaVuSans-69" d="M 603 3500 
L 1178 3500 
L 1178 0 
L 603 0 
L 603 3500 
z
M 603 4863 
L 1178 4863 
L 1178 4134 
L 603 4134 
L 603 4863 
z
" transform="scale(0.015625)"/>
       <path id="DejaVuSans-6d" d="M 3328 2828 
Q 3544 3216 3844 3400 
Q 4144 3584 4550 3584 
Q 5097 3584 5394 3201 
Q 5691 2819 5691 2113 
L 5691 0 
L 5113 0 
L 5113 2094 
Q 5113 2597 4934 2840 
Q 4756 3084 4391 3084 
Q 3944 3084 3684 2787 
Q 3425 2491 3425 1978 
L 3425 0 
L 2847 0 
L 2847 2094 
Q 2847 2600 2669 2842 
Q 2491 3084 2119 3084 
Q 1678 3084 1418 2786 
Q 1159 2488 1159 1978 
L 1159 0 
L 581 0 
L 581 3500 
L 1159 3500 
L 1159 2956 
Q 1356 3278 1631 3431 
Q 1906 3584 2284 3584 
Q 2666 3584 2933 3390 
Q 3200 3197 3328 2828 
z
" transform="scale(0.015625)"/>
       <path id="DejaVuSans-65" d="M 3597 1894 
L 3597 1613 
L 953 1613 
Q 991 1019 1311 708 
Q 1631 397 2203 397 
Q 2534 397 2845 478 
Q 3156 559 3463 722 
L 3463 178 
Q 3153 47 2828 -22 
Q 2503 -91 2169 -91 
Q 1331 -91 842 396 
Q 353 884 353 1716 
Q 353 2575 817 3079 
Q 1281 3584 2069 3584 
Q 2775 3584 3186 3129 
Q 3597 2675 3597 1894 
z
M 3022 2063 
Q 3016 2534 2758 2815 
Q 2500 3097 2075 3097 
Q 1594 3097 1305 2825 
Q 1016 2553 972 2059 
L 3022 2063 
z
" transform="scale(0.015625)"/>
       <path id="DejaVuSans-20" transform="scale(0.015625)"/>
       <path id="DejaVuSans-28" d="M 1984 4856 
Q 1566 4138 1362 3434 
Q 1159 2731 1159 2009 
Q 1159 1288 1364 580 
Q 1569 -128 1984 -844 
L 1484 -844 
Q 1016 -109 783 600 
Q 550 1309 550 2009 
Q 550 2706 781 3412 
Q 1013 4119 1484 4856 
L 1984 4856 
z
" transform="scale(0.015625)"/>
       <path id="DejaVuSans-73" d="M 2834 3397 
L 2834 2853 
Q 2591 2978 2328 3040 
Q 2066 3103 1784 3103 
Q 1356 3103 1142 2972 
Q 928 2841 928 2578 
Q 928 2378 1081 2264 
Q 1234 2150 1697 2047 
L 1894 2003 
Q 2506 1872 2764 1633 
Q 3022 1394 3022 966 
Q 3022 478 2636 193 
Q 2250 -91 1575 -91 
Q 1294 -91 989 -36 
Q 684 19 347 128 
L 347 722 
Q 666 556 975 473 
Q 1284 391 1588 391 
Q 1994 391 2212 530 
Q 2431 669 2431 922 
Q 2431 1156 2273 1281 
Q 2116 1406 1581 1522 
L 1381 1569 
Q 847 1681 609 1914 
Q 372 2147 372 2553 
Q 372 3047 722 3315 
Q 1072 3584 1716 3584 
Q 2034 3584 2315 3537 
Q 2597 3491 2834 3397 
z
" transform="scale(0.015625)"/>
       <path id="DejaVuSans-29" d="M 513 4856 
L 1013 4856 
Q 1481 4119 1714 3412 
Q 1947 2706 1947 2009 
Q 1947 1309 1714 600 
Q 1481 -109 1013 -844 
L 513 -844 
Q 928 -128 1133 580 
Q 1338 1288 1338 2009 
Q 1338 2731 1133 3434 
Q 928 4138 513 4856 
z
" transform="scale(0.015625)"/>
      </defs>
      <use xlink:href="#DejaVuSans-54"/>
      <use xlink:href="#DejaVuSans-69" x="57.958984"/>
      <use xlink:href="#DejaVuSans-6d" x="85.742188"/>
      <use xlink:href="#DejaVuSans-65" x="183.154297"/>
      <use xlink:href="#DejaVuSans-20" x="244.677734"/>
      <use xlink:href="#DejaVuSans-28" x="276.464844"/>
      <use xlink:href="#DejaVuSans-73" x="315.478516"/>
      <use xlink:href="#DejaVuSans-29" x="367.578125"/>
     </g>
    </g>
   </g>
   <g id="matplotlib.axis_2">
    <g id="ytick_1">
     <g id="line2d_4">
      <defs>
       <path id="mb8772dfefc" d="M 0 0 
L -3.5 0 
" style="stroke: #000000; stroke-width: 0.8"/>
      </defs>
      <g>
       <use xlink:href="#mb8772dfefc" x="55.065625" y="177.894662" style="stroke: #000000; stroke-width: 0.8"/>
      </g>
     </g>
     <g id="text_5">
      <!-- −5 -->
      <g transform="translate(24.478125 183.973412) scale(0.16 -0.16)">
       <defs>
        <path id="DejaVuSans-2212" d="M 678 2272 
L 4684 2272 
L 4684 1741 
L 678 1741 
L 678 2272 
z
" transform="scale(0.015625)"/>
       </defs>
       <use xlink:href="#DejaVuSans-2212"/>
       <use xlink:href="#DejaVuSans-35" x="83.789062"/>
      </g>
     </g>
    </g>
    <g id="ytick_2">
     <g id="line2d_5">
      <g>
       <use xlink:href="#mb8772dfefc" x="55.065625" y="110.175075" style="stroke: #000000; stroke-width: 0.8"/>
      </g>
     </g>
     <g id="text_6">
      <!-- 0 -->
      <g transform="translate(37.885625 116.253825) scale(0.16 -0.16)">
       <use xlink:href="#DejaVuSans-30"/>
      </g>
     </g>
    </g>
    <g id="ytick_3">
     <g id="line2d_6">
      <g>
       <use xlink:href="#mb8772dfefc" x="55.065625" y="42.455488" style="stroke: #000000; stroke-width: 0.8"/>
      </g>
     </g>
     <g id="text_7">
      <!-- 5 -->
      <g transform="translate(37.885625 48.534238) scale(0.16 -0.16)">
       <use xlink:href="#DejaVuSans-35"/>
      </g>
     </g>
    </g>
    <g id="text_8">
     <!-- Relative Orbital Energy Variation -->
     <g transform="translate(18.398438 215.085469) rotate(-90) scale(0.1 -0.1)">
      <defs>
       <path id="DejaVuSans-52" d="M 2841 2188 
Q 3044 2119 3236 1894 
Q 3428 1669 3622 1275 
L 4263 0 
L 3584 0 
L 2988 1197 
Q 2756 1666 2539 1819 
Q 2322 1972 1947 1972 
L 1259 1972 
L 1259 0 
L 628 0 
L 628 4666 
L 2053 4666 
Q 2853 4666 3247 4331 
Q 3641 3997 3641 3322 
Q 3641 2881 3436 2590 
Q 3231 2300 2841 2188 
z
M 1259 4147 
L 1259 2491 
L 2053 2491 
Q 2509 2491 2742 2702 
Q 2975 2913 2975 3322 
Q 2975 3731 2742 3939 
Q 2509 4147 2053 4147 
L 1259 4147 
z
" transform="scale(0.015625)"/>
       <path id="DejaVuSans-6c" d="M 603 4863 
L 1178 4863 
L 1178 0 
L 603 0 
L 603 4863 
z
" transform="scale(0.015625)"/>
       <path id="DejaVuSans-61" d="M 2194 1759 
Q 1497 1759 1228 1600 
Q 959 1441 959 1056 
Q 959 750 1161 570 
Q 1363 391 1709 391 
Q 2188 391 2477 730 
Q 2766 1069 2766 1631 
L 2766 1759 
L 2194 1759 
z
M 3341 1997 
L 3341 0 
L 2766 0 
L 2766 531 
Q 2569 213 2275 61 
Q 1981 -91 1556 -91 
Q 1019 -91 701 211 
Q 384 513 384 1019 
Q 384 1609 779 1909 
Q 1175 2209 1959 2209 
L 2766 2209 
L 2766 2266 
Q 2766 2663 2505 2880 
Q 2244 3097 1772 3097 
Q 1472 3097 1187 3025 
Q 903 2953 641 2809 
L 641 3341 
Q 956 3463 1253 3523 
Q 1550 3584 1831 3584 
Q 2591 3584 2966 3190 
Q 3341 2797 3341 1997 
z
" transform="scale(0.015625)"/>
       <path id="DejaVuSans-74" d="M 1172 4494 
L 1172 3500 
L 2356 3500 
L 2356 3053 
L 1172 3053 
L 1172 1153 
Q 1172 725 1289 603 
Q 1406 481 1766 481 
L 2356 481 
L 2356 0 
L 1766 0 
Q 1100 0 847 248 
Q 594 497 594 1153 
L 594 3053 
L 172 3053 
L 172 3500 
L 594 3500 
L 594 4494 
L 1172 4494 
z
" transform="scale(0.015625)"/>
       <path id="DejaVuSans-76" d="M 191 3500 
L 800 3500 
L 1894 563 
L 2988 3500 
L 3597 3500 
L 2284 0 
L 1503 0 
L 191 3500 
z
" transform="scale(0.015625)"/>
       <path id="DejaVuSans-4f" d="M 2522 4238 
Q 1834 4238 1429 3725 
Q 1025 3213 1025 2328 
Q 1025 1447 1429 934 
Q 1834 422 2522 422 
Q 3209 422 3611 934 
Q 4013 1447 4013 2328 
Q 4013 3213 3611 3725 
Q 3209 4238 2522 4238 
z
M 2522 4750 
Q 3503 4750 4090 4092 
Q 4678 3434 4678 2328 
Q 4678 1225 4090 567 
Q 3503 -91 2522 -91 
Q 1538 -91 948 565 
Q 359 1222 359 2328 
Q 359 3434 948 4092 
Q 1538 4750 2522 4750 
z
" transform="scale(0.015625)"/>
       <path id="DejaVuSans-72" d="M 2631 2963 
Q 2534 3019 2420 3045 
Q 2306 3072 2169 3072 
Q 1681 3072 1420 2755 
Q 1159 2438 1159 1844 
L 1159 0 
L 581 0 
L 581 3500 
L 1159 3500 
L 1159 2956 
Q 1341 3275 1631 3429 
Q 1922 3584 2338 3584 
Q 2397 3584 2469 3576 
Q 2541 3569 2628 3553 
L 2631 2963 
z
" transform="scale(0.015625)"/>
       <path id="DejaVuSans-62" d="M 3116 1747 
Q 3116 2381 2855 2742 
Q 2594 3103 2138 3103 
Q 1681 3103 1420 2742 
Q 1159 2381 1159 1747 
Q 1159 1113 1420 752 
Q 1681 391 2138 391 
Q 2594 391 2855 752 
Q 3116 1113 3116 1747 
z
M 1159 2969 
Q 1341 3281 1617 3432 
Q 1894 3584 2278 3584 
Q 2916 3584 3314 3078 
Q 3713 2572 3713 1747 
Q 3713 922 3314 415 
Q 2916 -91 2278 -91 
Q 1894 -91 1617 61 
Q 1341 213 1159 525 
L 1159 0 
L 581 0 
L 581 4863 
L 1159 4863 
L 1159 2969 
z
" transform="scale(0.015625)"/>
       <path id="DejaVuSans-45" d="M 628 4666 
L 3578 4666 
L 3578 4134 
L 1259 4134 
L 1259 2753 
L 3481 2753 
L 3481 2222 
L 1259 2222 
L 1259 531 
L 3634 531 
L 3634 0 
L 628 0 
L 628 4666 
z
" transform="scale(0.015625)"/>
       <path id="DejaVuSans-6e" d="M 3513 2113 
L 3513 0 
L 2938 0 
L 2938 2094 
Q 2938 2591 2744 2837 
Q 2550 3084 2163 3084 
Q 1697 3084 1428 2787 
Q 1159 2491 1159 1978 
L 1159 0 
L 581 0 
L 581 3500 
L 1159 3500 
L 1159 2956 
Q 1366 3272 1645 3428 
Q 1925 3584 2291 3584 
Q 2894 3584 3203 3211 
Q 3513 2838 3513 2113 
z
" transform="scale(0.015625)"/>
       <path id="DejaVuSans-67" d="M 2906 1791 
Q 2906 2416 2648 2759 
Q 2391 3103 1925 3103 
Q 1463 3103 1205 2759 
Q 947 2416 947 1791 
Q 947 1169 1205 825 
Q 1463 481 1925 481 
Q 2391 481 2648 825 
Q 2906 1169 2906 1791 
z
M 3481 434 
Q 3481 -459 3084 -895 
Q 2688 -1331 1869 -1331 
Q 1566 -1331 1297 -1286 
Q 1028 -1241 775 -1147 
L 775 -588 
Q 1028 -725 1275 -790 
Q 1522 -856 1778 -856 
Q 2344 -856 2625 -561 
Q 2906 -266 2906 331 
L 2906 616 
Q 2728 306 2450 153 
Q 2172 0 1784 0 
Q 1141 0 747 490 
Q 353 981 353 1791 
Q 353 2603 747 3093 
Q 1141 3584 1784 3584 
Q 2172 3584 2450 3431 
Q 2728 3278 2906 2969 
L 2906 3500 
L 3481 3500 
L 3481 434 
z
" transform="scale(0.015625)"/>
       <path id="DejaVuSans-79" d="M 2059 -325 
Q 1816 -950 1584 -1140 
Q 1353 -1331 966 -1331 
L 506 -1331 
L 506 -850 
L 844 -850 
Q 1081 -850 1212 -737 
Q 1344 -625 1503 -206 
L 1606 56 
L 191 3500 
L 800 3500 
L 1894 763 
L 2988 3500 
L 3597 3500 
L 2059 -325 
z
" transform="scale(0.015625)"/>
       <path id="DejaVuSans-56" d="M 1831 0 
L 50 4666 
L 709 4666 
L 2188 738 
L 3669 4666 
L 4325 4666 
L 2547 0 
L 1831 0 
z
" transform="scale(0.015625)"/>
       <path id="DejaVuSans-6f" d="M 1959 3097 
Q 1497 3097 1228 2736 
Q 959 2375 959 1747 
Q 959 1119 1226 758 
Q 1494 397 1959 397 
Q 2419 397 2687 759 
Q 2956 1122 2956 1747 
Q 2956 2369 2687 2733 
Q 2419 3097 1959 3097 
z
M 1959 3584 
Q 2709 3584 3137 3096 
Q 3566 2609 3566 1747 
Q 3566 888 3137 398 
Q 2709 -91 1959 -91 
Q 1206 -91 779 398 
Q 353 888 353 1747 
Q 353 2609 779 3096 
Q 1206 3584 1959 3584 
z
" transform="scale(0.015625)"/>
      </defs>
      <use xlink:href="#DejaVuSans-52"/>
      <use xlink:href="#DejaVuSans-65" x="64.982422"/>
      <use xlink:href="#DejaVuSans-6c" x="126.505859"/>
      <use xlink:href="#DejaVuSans-61" x="154.289062"/>
      <use xlink:href="#DejaVuSans-74" x="215.568359"/>
      <use xlink:href="#DejaVuSans-69" x="254.777344"/>
      <use xlink:href="#DejaVuSans-76" x="282.560547"/>
      <use xlink:href="#DejaVuSans-65" x="341.740234"/>
      <use xlink:href="#DejaVuSans-20" x="403.263672"/>
      <use xlink:href="#DejaVuSans-4f" x="435.050781"/>
      <use xlink:href="#DejaVuSans-72" x="513.761719"/>
      <use xlink:href="#DejaVuSans-62" x="554.875"/>
      <use xlink:href="#DejaVuSans-69" x="618.351562"/>
      <use xlink:href="#DejaVuSans-74" x="646.134766"/>
      <use xlink:href="#DejaVuSans-61" x="685.34375"/>
      <use xlink:href="#DejaVuSans-6c" x="746.623047"/>
      <use xlink:href="#DejaVuSans-20" x="774.40625"/>
      <use xlink:href="#DejaVuSans-45" x="806.193359"/>
      <use xlink:href="#DejaVuSans-6e" x="869.376953"/>
      <use xlink:href="#DejaVuSans-65" x="932.755859"/>
      <use xlink:href="#DejaVuSans-72" x="994.279297"/>
      <use xlink:href="#DejaVuSans-67" x="1033.642578"/>
      <use xlink:href="#DejaVuSans-79" x="1097.119141"/>
      <use xlink:href="#DejaVuSans-20" x="1156.298828"/>
      <use xlink:href="#DejaVuSans-56" x="1188.085938"/>
      <use xlink:href="#DejaVuSans-61" x="1248.744141"/>
      <use xlink:href="#DejaVuSans-72" x="1310.023438"/>
      <use xlink:href="#DejaVuSans-69" x="1351.136719"/>
      <use xlink:href="#DejaVuSans-61" x="1378.919922"/>
      <use xlink:href="#DejaVuSans-74" x="1440.199219"/>
      <use xlink:href="#DejaVuSans-69" x="1479.408203"/>
      <use xlink:href="#DejaVuSans-6f" x="1507.191406"/>
      <use xlink:href="#DejaVuSans-6e" x="1568.373047"/>
     </g>
    </g>
    <g id="text_9">
     <!-- 1e−12 -->
     <g transform="translate(55.065625 22.9575) scale(0.16 -0.16)">
      <defs>
       <path id="DejaVuSans-32" d="M 1228 531 
L 3431 531 
L 3431 0 
L 469 0 
L 469 531 
Q 828 903 1448 1529 
Q 2069 2156 2228 2338 
Q 2531 2678 2651 2914 
Q 2772 3150 2772 3378 
Q 2772 3750 2511 3984 
Q 2250 4219 1831 4219 
Q 1534 4219 1204 4116 
Q 875 4013 500 3803 
L 500 4441 
Q 881 4594 1212 4672 
Q 1544 4750 1819 4750 
Q 2544 4750 2975 4387 
Q 3406 4025 3406 3419 
Q 3406 3131 3298 2873 
Q 3191 2616 2906 2266 
Q 2828 2175 2409 1742 
Q 1991 1309 1228 531 
z
" transform="scale(0.015625)"/>
      </defs>
      <use xlink:href="#DejaVuSans-31"/>
      <use xlink:href="#DejaVuSans-65" x="63.623047"/>
      <use xlink:href="#DejaVuSans-2212" x="125.146484"/>
      <use xlink:href="#DejaVuSans-31" x="208.935547"/>
      <use xlink:href="#DejaVuSans-32" x="272.558594"/>
     </g>
    </g>
   </g>
   <g id="line2d_7">
    <path d="M 68.435369 110.175075 
L 69.758379 179.97171 
L 69.90538 177.488817 
L 70.199382 162.215606 
L 70.640385 134.448204 
L 70.787386 130.439129 
L 70.934387 129.988108 
L 71.228389 136.439074 
L 71.816393 153.040291 
L 72.257396 159.962779 
L 72.698399 163.878462 
L 73.139403 166.106232 
L 73.580406 167.327178 
L 74.021409 167.99232 
L 74.609413 168.413728 
L 75.491419 168.634683 
L 78.137438 168.737188 
L 79.460447 168.737188 
L 81.959465 168.748577 
L 83.870478 168.762244 
L 87.104501 168.753133 
L 89.162516 168.741743 
L 89.456518 169.07887 
L 89.75052 169.923965 
L 90.044522 171.903446 
L 90.338524 176.336208 
L 90.632526 185.192619 
L 91.22053 210.741363 
L 91.367531 211.912195 
L 91.514532 208.089907 
L 91.808534 186.969369 
L 92.249537 154.926379 
L 92.396538 152.520933 
L 92.543539 154.896766 
L 92.837541 169.4775 
L 93.425546 200.160593 
L 93.719548 205.402004 
L 93.866549 205.748242 
L 94.01355 205.096767 
L 95.189558 195.470431 
L 95.630561 194.338323 
L 96.071564 193.941971 
L 96.659568 193.80302 
L 98.27658 193.857689 
L 100.481595 193.928304 
L 108.125649 193.853133 
L 109.007656 193.538785 
L 109.59566 192.992093 
L 110.330665 191.832651 
L 110.918669 190.461365 
L 111.506673 188.841789 
L 111.653674 188.860012 
L 111.947676 189.684606 
L 112.094677 190.112848 
L 112.241678 190.156128 
L 112.388679 189.559323 
L 113.123685 183.543432 
L 113.270686 184.814491 
L 113.711689 194.399825 
L 114.005691 198.670857 
L 114.152692 198.169723 
L 114.446694 191.611696 
L 115.034698 173.400015 
L 115.3287 170.860175 
L 115.475701 171.491149 
L 116.357707 181.634565 
L 116.651709 182.233649 
L 116.798711 182.058252 
L 117.239714 180.620907 
L 118.12172 177.632323 
L 118.709724 176.51616 
L 119.297728 175.871519 
L 120.032733 175.436444 
L 120.767739 175.172209 
L 122.972754 174.905697 
L 128.264791 175.008201 
L 129.146798 175.251935 
L 130.322806 175.812294 
L 130.616808 175.762181 
L 130.91081 175.482001 
L 131.351813 174.56857 
L 132.674823 171.165412 
L 133.115826 170.6825 
L 133.409828 170.691612 
L 133.70383 170.974069 
L 134.732837 172.288408 
L 135.17384 172.402302 
L 135.467842 172.295242 
L 135.761844 172.158569 
L 135.908845 172.195015 
L 136.202847 172.623257 
L 136.790852 173.618692 
L 137.084854 173.69614 
L 138.848866 173.176783 
L 141.788887 173.056055 
L 142.817894 173.035554 
L 148.109931 172.680204 
L 148.991938 172.493418 
L 151.049952 171.668824 
L 151.343954 171.766773 
L 151.784957 172.220072 
L 152.519963 173.113002 
L 152.666964 173.119836 
L 152.813965 172.99683 
L 153.107967 172.229183 
L 153.401969 170.584551 
L 153.842972 166.349965 
L 154.430976 157.903573 
L 155.312982 144.726015 
L 155.606984 143.416232 
L 155.753985 143.981147 
L 156.047987 147.817103 
L 156.635992 162.84658 
L 157.076995 172.741707 
L 157.370997 176.046916 
L 157.517998 176.636888 
L 157.664999 176.636888 
L 157.959001 175.288381 
L 158.694006 170.566328 
L 158.988008 169.937632 
L 159.135009 169.928521 
L 159.429011 170.354485 
L 160.899022 173.472908 
L 161.487026 174.012766 
L 162.222031 174.36356 
L 163.839042 174.682464 
L 166.33806 175.090205 
L 166.926064 175.390886 
L 167.514068 175.969468 
L 168.543076 177.406813 
L 168.690077 177.368089 
L 168.837078 177.144856 
L 169.13108 175.835073 
L 169.572083 171.577709 
L 170.013086 167.379569 
L 170.160087 167.199616 
L 170.307088 168.083435 
L 170.60109 173.240564 
L 171.483096 194.108256 
L 171.630097 194.787066 
L 171.777098 194.543332 
L 172.0711 192.190278 
L 172.659105 186.563905 
L 172.953107 185.035446 
L 173.247109 184.327024 
L 173.541111 184.163016 
L 173.982114 184.413583 
L 174.717119 185.229066 
L 175.452124 186.361174 
L 176.040128 187.791685 
L 176.481132 188.727895 
L 176.628133 188.759785 
L 176.775134 188.51833 
L 177.069136 186.898754 
L 177.363138 183.561655 
L 178.098143 173.935318 
L 178.245144 173.463796 
L 178.392145 173.709808 
L 178.686147 175.955801 
L 179.274151 181.830463 
L 179.568153 183.181248 
L 179.715154 183.358923 
L 179.862155 183.274641 
L 180.156157 182.623167 
L 181.185165 179.661918 
L 181.626168 178.967163 
L 182.214172 178.481974 
L 182.802176 178.274687 
L 183.684182 178.208628 
L 184.860191 178.299743 
L 185.742197 178.543477 
L 186.771204 179.106114 
L 187.506209 179.837315 
L 188.682218 181.235935 
L 188.97622 181.290605 
L 189.270222 180.989924 
L 189.564224 180.217721 
L 190.005227 178.135736 
L 190.593231 174.766746 
L 190.740232 174.743967 
L 190.887233 175.008201 
L 191.181235 176.545773 
L 191.622238 181.163043 
L 192.357244 189.315589 
L 192.651246 190.276856 
L 192.798247 190.069569 
L 193.092249 188.436326 
L 194.268257 178.932995 
L 194.562259 178.427305 
L 194.70926 178.466029 
L 195.003262 179.001332 
L 196.326272 182.43638 
L 196.473273 182.459159 
L 196.620274 182.342987 
L 196.914276 181.472835 
L 197.208278 179.320235 
L 197.50228 175.110706 
L 198.237285 160.195124 
L 198.384286 163.001476 
L 198.678288 184.593536 
L 198.97229 212.105816 
L 199.119291 215.249295 
L 199.266292 207.684443 
L 199.854296 155.288562 
L 200.001297 153.653042 
L 200.148299 155.771473 
L 200.883304 173.477464 
L 201.177306 176.600442 
L 201.471308 178.199516 
L 201.912311 179.238231 
L 202.353314 179.618638 
L 203.088319 179.848704 
L 204.705331 179.969432 
L 205.587337 179.976266 
L 206.763345 180.019546 
L 212.202384 180.044602 
L 213.966396 180.532069 
L 214.848402 180.566238 
L 215.583407 180.912476 
L 216.171412 181.406777 
L 217.053418 182.495605 
L 217.641422 183.119745 
L 217.935424 183.049131 
L 218.229426 182.461437 
L 218.523428 181.087873 
L 219.258433 175.955801 
L 219.405434 175.917077 
L 219.552435 176.857843 
L 219.846437 182.782619 
L 220.287441 201.559214 
L 220.875445 226.00774 
L 221.169447 229.076049 
L 221.316448 228.212731 
L 221.757451 221.119401 
L 222.198454 215.303964 
L 222.492456 214.1673 
L 222.639457 214.265249 
L 222.933459 215.301686 
L 223.962466 220.076131 
L 224.550471 221.561311 
L 225.138475 222.388183 
L 225.726479 222.855149 
L 226.461484 223.244667 
L 227.637492 223.634185 
L 228.6665 223.896142 
L 229.842508 223.97359 
L 230.577513 223.839195 
L 231.459519 223.700244 
L 231.753521 223.672909 
L 232.047524 223.654686 
L 232.341526 223.807304 
L 232.782529 224.422333 
L 233.370533 225.939403 
L 234.693542 229.877864 
L 235.281546 230.857354 
L 235.722549 231.178536 
L 236.163553 231.253706 
L 236.898558 231.082865 
L 237.339561 230.866466 
L 237.780564 230.392666 
L 238.074566 229.76397 
L 238.368568 228.663752 
L 238.809571 225.855122 
L 240.132581 214.718548 
L 240.426583 214.34042 
L 240.867586 215.014673 
L 241.749592 216.278899 
L 242.043594 216.310789 
L 242.484597 216.096668 
L 243.513604 215.404191 
L 244.24861 215.1149 
L 245.277617 214.930391 
L 249.540647 214.761828 
L 250.128651 214.811941 
L 250.422653 214.668435 
L 250.716655 214.299418 
L 251.157658 213.217423 
L 252.039665 210.625191 
L 252.333667 210.30401 
L 252.627669 210.347289 
L 253.068672 210.825645 
L 253.803677 211.663906 
L 254.538682 211.996477 
L 255.126686 212.021534 
L 256.008693 211.868916 
L 256.743698 211.506732 
L 257.184701 211.064823 
L 257.625704 210.3359 
L 258.066707 209.155956 
L 258.50771 207.317704 
L 259.683718 201.386095 
L 259.83072 201.345093 
L 259.977721 201.652607 
L 260.565725 204.575132 
L 260.712726 204.160557 
L 260.859727 202.242579 
L 261.153729 191.709645 
L 261.594732 157.418383 
L 262.182736 108.386936 
L 262.476738 99.318681 
L 262.623739 99.10456 
L 262.917741 103.751443 
L 263.358744 112.170501 
L 263.652746 114.222874 
L 263.799748 114.118092 
L 264.09375 112.487127 
L 265.122757 104.63754 
L 265.56376 102.781065 
L 266.004763 101.689958 
L 266.592767 100.904088 
L 267.327772 100.423455 
L 268.503781 100.090884 
L 274.236821 99.580638 
L 276.588838 99.364239 
L 277.470844 99.17973 
L 278.499851 98.712764 
L 279.234856 97.981564 
L 279.822861 97.033964 
L 280.704867 95.494115 
L 280.851868 95.482725 
L 280.998869 95.626232 
L 281.292871 96.582943 
L 281.586873 98.553312 
L 282.174877 102.858513 
L 282.321878 102.63528 
L 282.468879 101.252605 
L 282.762881 94.074993 
L 283.203884 73.314361 
L 283.791889 46.346495 
L 284.085891 41.763393 
L 284.232892 42.000293 
L 284.526894 45.820304 
L 285.114898 55.098125 
L 285.4089 56.688088 
L 285.555901 56.694921 
L 285.849903 55.658484 
L 287.025911 49.403415 
L 287.613916 47.640333 
L 288.348921 46.250824 
L 288.789924 45.811193 
L 289.083926 45.806637 
L 289.377928 46.073149 
L 290.406935 47.70867 
L 290.553936 47.521883 
L 290.847938 46.592507 
L 291.582944 43.508252 
L 291.876946 43.148347 
L 292.023947 43.20985 
L 292.317949 43.710984 
L 293.787959 46.918244 
L 294.375963 47.458103 
L 295.110968 47.779284 
L 296.433978 47.98885 
L 298.19799 48.045797 
L 305.548042 47.956959 
L 306.577049 47.863566 
L 308.488063 47.644889 
L 309.370069 47.187035 
L 309.958073 46.854464 
L 310.252075 46.9228 
L 310.546077 47.257649 
L 311.575085 49.079956 
L 311.869087 48.91367 
L 312.457091 47.890901 
L 312.898094 47.241704 
L 313.339097 46.956968 
L 313.927101 46.931912 
L 317.308125 47.412545 
L 319.660142 47.255371 
L 321.130152 46.790683 
L 321.571155 46.455834 
L 322.012158 45.904586 
L 322.453161 45.066325 
L 323.62917 42.241749 
L 323.776171 42.316919 
L 323.923172 42.619878 
L 324.217174 44.038999 
L 324.952179 48.6016 
L 325.09918 48.733718 
L 325.246181 48.439871 
L 325.540183 46.852186 
L 326.275188 41.772505 
L 326.716191 40.367051 
L 327.010193 40.061814 
L 327.451197 40.009423 
L 328.186202 39.986644 
L 328.921207 39.599404 
L 329.36221 39.394394 
L 330.097215 39.134716 
L 330.391217 38.442239 
L 331.126222 36.118798 
L 331.420225 35.786227 
L 331.714227 35.763448 
L 332.449232 36.080074 
L 333.331238 36.348864 
L 334.507246 36.480981 
L 335.830256 36.53565 
L 335.830256 36.53565 
" clip-path="url(#pe8fb04e5ea)" style="fill: none; stroke: #1f77b4; stroke-width: 1.5; stroke-linecap: square"/>
   </g>
   <g id="patch_3">
    <path d="M 55.065625 241.036875 
L 55.065625 25.9575 
" style="fill: none; stroke: #000000; stroke-width: 0.8; stroke-linejoin: miter; stroke-linecap: square"/>
   </g>
   <g id="patch_4">
    <path d="M 349.2 241.036875 
L 349.2 25.9575 
" style="fill: none; stroke: #000000; stroke-width: 0.8; stroke-linejoin: miter; stroke-linecap: square"/>
   </g>
   <g id="patch_5">
    <path d="M 55.065625 241.036875 
L 349.2 241.036875 
" style="fill: none; stroke: #000000; stroke-width: 0.8; stroke-linejoin: miter; stroke-linecap: square"/>
   </g>
   <g id="patch_6">
    <path d="M 55.065625 25.9575 
L 349.2 25.9575 
" style="fill: none; stroke: #000000; stroke-width: 0.8; stroke-linejoin: miter; stroke-linecap: square"/>
   </g>
  </g>
 </g>
 <defs>
  <clipPath id="pe8fb04e5ea">
   <rect x="55.065625" y="25.9575" width="294.134375" height="215.079375"/>
  </clipPath>
 </defs>
</svg>
