<?xml version="1.0" encoding="utf-8" standalone="no"?>
<!DOCTYPE svg PUBLIC "-//W3C//DTD SVG 1.1//EN"
  "http://www.w3.org/Graphics/SVG/1.1/DTD/svg11.dtd">
<svg xmlns:xlink="http://www.w3.org/1999/xlink" width="414pt" height="288pt" viewBox="0 0 414 288" xmlns="http://www.w3.org/2000/svg" version="1.1">
 <metadata>
  <rdf:RDF xmlns:dc="http://purl.org/dc/elements/1.1/" xmlns:cc="http://creativecommons.org/ns#" xmlns:rdf="http://www.w3.org/1999/02/22-rdf-syntax-ns#">
   <cc:Work>
    <dc:type rdf:resource="http://purl.org/dc/dcmitype/StillImage"/>
    <dc:date>2023-09-07T00:38:16.983189</dc:date>
    <dc:format>image/svg+xml</dc:format>
    <dc:creator>
     <cc:Agent>
      <dc:title>Matplotlib v3.7.2, https://matplotlib.org/</dc:title>
     </cc:Agent>
    </dc:creator>
   </cc:Work>
  </rdf:RDF>
 </metadata>
 <defs>
  <style type="text/css">*{stroke-linejoin: round; stroke-linecap: butt}</style>
 </defs>
 <g id="figure_1">
  <g id="patch_1">
   <path d="M 0 288 
L 414 288 
L 414 0 
L 0 0 
L 0 288 
z
" style="fill: none"/>
  </g>
  <g id="axes_1">
   <g id="patch_2">
    <path d="M 93.235625 241.036875 
L 403.2 241.036875 
L 403.2 25.918125 
L 93.235625 25.918125 
L 93.235625 241.036875 
z
" style="fill: none"/>
   </g>
   <g id="matplotlib.axis_1">
    <g id="xtick_1">
     <g id="line2d_1">
      <defs>
       <path id="m3246b4298a" d="M 0 0 
L 0 3.5 
" style="stroke: #000000; stroke-width: 0.8"/>
      </defs>
      <g>
       <use xlink:href="#m3246b4298a" x="107.324915" y="241.036875" style="stroke: #000000; stroke-width: 0.8"/>
      </g>
     </g>
     <g id="text_1">
      <!-- 0.0 -->
      <g transform="translate(94.602415 260.194375) scale(0.16 -0.16)">
       <defs>
        <path id="DejaVuSans-30" d="M 2034 4250 
Q 1547 4250 1301 3770 
Q 1056 3291 1056 2328 
Q 1056 1369 1301 889 
Q 1547 409 2034 409 
Q 2525 409 2770 889 
Q 3016 1369 3016 2328 
Q 3016 3291 2770 3770 
Q 2525 4250 2034 4250 
z
M 2034 4750 
Q 2819 4750 3233 4129 
Q 3647 3509 3647 2328 
Q 3647 1150 3233 529 
Q 2819 -91 2034 -91 
Q 1250 -91 836 529 
Q 422 1150 422 2328 
Q 422 3509 836 4129 
Q 1250 4750 2034 4750 
z
" transform="scale(0.015625)"/>
        <path id="DejaVuSans-2e" d="M 684 794 
L 1344 794 
L 1344 0 
L 684 0 
L 684 794 
z
" transform="scale(0.015625)"/>
       </defs>
       <use xlink:href="#DejaVuSans-30"/>
       <use xlink:href="#DejaVuSans-2e" x="63.623047"/>
       <use xlink:href="#DejaVuSans-30" x="95.410156"/>
      </g>
     </g>
    </g>
    <g id="xtick_2">
     <g id="line2d_2">
      <g>
       <use xlink:href="#m3246b4298a" x="163.690016" y="241.036875" style="stroke: #000000; stroke-width: 0.8"/>
      </g>
     </g>
     <g id="text_2">
      <!-- 0.2 -->
      <g transform="translate(150.967516 260.194375) scale(0.16 -0.16)">
       <defs>
        <path id="DejaVuSans-32" d="M 1228 531 
L 3431 531 
L 3431 0 
L 469 0 
L 469 531 
Q 828 903 1448 1529 
Q 2069 2156 2228 2338 
Q 2531 2678 2651 2914 
Q 2772 3150 2772 3378 
Q 2772 3750 2511 3984 
Q 2250 4219 1831 4219 
Q 1534 4219 1204 4116 
Q 875 4013 500 3803 
L 500 4441 
Q 881 4594 1212 4672 
Q 1544 4750 1819 4750 
Q 2544 4750 2975 4387 
Q 3406 4025 3406 3419 
Q 3406 3131 3298 2873 
Q 3191 2616 2906 2266 
Q 2828 2175 2409 1742 
Q 1991 1309 1228 531 
z
" transform="scale(0.015625)"/>
       </defs>
       <use xlink:href="#DejaVuSans-30"/>
       <use xlink:href="#DejaVuSans-2e" x="63.623047"/>
       <use xlink:href="#DejaVuSans-32" x="95.410156"/>
      </g>
     </g>
    </g>
    <g id="xtick_3">
     <g id="line2d_3">
      <g>
       <use xlink:href="#m3246b4298a" x="220.055117" y="241.036875" style="stroke: #000000; stroke-width: 0.8"/>
      </g>
     </g>
     <g id="text_3">
      <!-- 0.4 -->
      <g transform="translate(207.332617 260.194375) scale(0.16 -0.16)">
       <defs>
        <path id="DejaVuSans-34" d="M 2419 4116 
L 825 1625 
L 2419 1625 
L 2419 4116 
z
M 2253 4666 
L 3047 4666 
L 3047 1625 
L 3713 1625 
L 3713 1100 
L 3047 1100 
L 3047 0 
L 2419 0 
L 2419 1100 
L 313 1100 
L 313 1709 
L 2253 4666 
z
" transform="scale(0.015625)"/>
       </defs>
       <use xlink:href="#DejaVuSans-30"/>
       <use xlink:href="#DejaVuSans-2e" x="63.623047"/>
       <use xlink:href="#DejaVuSans-34" x="95.410156"/>
      </g>
     </g>
    </g>
    <g id="xtick_4">
     <g id="line2d_4">
      <g>
       <use xlink:href="#m3246b4298a" x="276.420218" y="241.036875" style="stroke: #000000; stroke-width: 0.8"/>
      </g>
     </g>
     <g id="text_4">
      <!-- 0.6 -->
      <g transform="translate(263.697718 260.194375) scale(0.16 -0.16)">
       <defs>
        <path id="DejaVuSans-36" d="M 2113 2584 
Q 1688 2584 1439 2293 
Q 1191 2003 1191 1497 
Q 1191 994 1439 701 
Q 1688 409 2113 409 
Q 2538 409 2786 701 
Q 3034 994 3034 1497 
Q 3034 2003 2786 2293 
Q 2538 2584 2113 2584 
z
M 3366 4563 
L 3366 3988 
Q 3128 4100 2886 4159 
Q 2644 4219 2406 4219 
Q 1781 4219 1451 3797 
Q 1122 3375 1075 2522 
Q 1259 2794 1537 2939 
Q 1816 3084 2150 3084 
Q 2853 3084 3261 2657 
Q 3669 2231 3669 1497 
Q 3669 778 3244 343 
Q 2819 -91 2113 -91 
Q 1303 -91 875 529 
Q 447 1150 447 2328 
Q 447 3434 972 4092 
Q 1497 4750 2381 4750 
Q 2619 4750 2861 4703 
Q 3103 4656 3366 4563 
z
" transform="scale(0.015625)"/>
       </defs>
       <use xlink:href="#DejaVuSans-30"/>
       <use xlink:href="#DejaVuSans-2e" x="63.623047"/>
       <use xlink:href="#DejaVuSans-36" x="95.410156"/>
      </g>
     </g>
    </g>
    <g id="xtick_5">
     <g id="line2d_5">
      <g>
       <use xlink:href="#m3246b4298a" x="332.78532" y="241.036875" style="stroke: #000000; stroke-width: 0.8"/>
      </g>
     </g>
     <g id="text_5">
      <!-- 0.8 -->
      <g transform="translate(320.06282 260.194375) scale(0.16 -0.16)">
       <defs>
        <path id="DejaVuSans-38" d="M 2034 2216 
Q 1584 2216 1326 1975 
Q 1069 1734 1069 1313 
Q 1069 891 1326 650 
Q 1584 409 2034 409 
Q 2484 409 2743 651 
Q 3003 894 3003 1313 
Q 3003 1734 2745 1975 
Q 2488 2216 2034 2216 
z
M 1403 2484 
Q 997 2584 770 2862 
Q 544 3141 544 3541 
Q 544 4100 942 4425 
Q 1341 4750 2034 4750 
Q 2731 4750 3128 4425 
Q 3525 4100 3525 3541 
Q 3525 3141 3298 2862 
Q 3072 2584 2669 2484 
Q 3125 2378 3379 2068 
Q 3634 1759 3634 1313 
Q 3634 634 3220 271 
Q 2806 -91 2034 -91 
Q 1263 -91 848 271 
Q 434 634 434 1313 
Q 434 1759 690 2068 
Q 947 2378 1403 2484 
z
M 1172 3481 
Q 1172 3119 1398 2916 
Q 1625 2713 2034 2713 
Q 2441 2713 2670 2916 
Q 2900 3119 2900 3481 
Q 2900 3844 2670 4047 
Q 2441 4250 2034 4250 
Q 1625 4250 1398 4047 
Q 1172 3844 1172 3481 
z
" transform="scale(0.015625)"/>
       </defs>
       <use xlink:href="#DejaVuSans-30"/>
       <use xlink:href="#DejaVuSans-2e" x="63.623047"/>
       <use xlink:href="#DejaVuSans-38" x="95.410156"/>
      </g>
     </g>
    </g>
    <g id="xtick_6">
     <g id="line2d_6">
      <g>
       <use xlink:href="#m3246b4298a" x="389.150421" y="241.036875" style="stroke: #000000; stroke-width: 0.8"/>
      </g>
     </g>
     <g id="text_6">
      <!-- 1.0 -->
      <g transform="translate(376.427921 260.194375) scale(0.16 -0.16)">
       <defs>
        <path id="DejaVuSans-31" d="M 794 531 
L 1825 531 
L 1825 4091 
L 703 3866 
L 703 4441 
L 1819 4666 
L 2450 4666 
L 2450 531 
L 3481 531 
L 3481 0 
L 794 0 
L 794 531 
z
" transform="scale(0.015625)"/>
       </defs>
       <use xlink:href="#DejaVuSans-31"/>
       <use xlink:href="#DejaVuSans-2e" x="63.623047"/>
       <use xlink:href="#DejaVuSans-30" x="95.410156"/>
      </g>
     </g>
    </g>
    <g id="text_7">
     <!-- Time [orbits] -->
     <g transform="translate(216.250625 275.120313) scale(0.1 -0.1)">
      <defs>
       <path id="DejaVuSans-54" d="M -19 4666 
L 3928 4666 
L 3928 4134 
L 2272 4134 
L 2272 0 
L 1638 0 
L 1638 4134 
L -19 4134 
L -19 4666 
z
" transform="scale(0.015625)"/>
       <path id="DejaVuSans-69" d="M 603 3500 
L 1178 3500 
L 1178 0 
L 603 0 
L 603 3500 
z
M 603 4863 
L 1178 4863 
L 1178 4134 
L 603 4134 
L 603 4863 
z
" transform="scale(0.015625)"/>
       <path id="DejaVuSans-6d" d="M 3328 2828 
Q 3544 3216 3844 3400 
Q 4144 3584 4550 3584 
Q 5097 3584 5394 3201 
Q 5691 2819 5691 2113 
L 5691 0 
L 5113 0 
L 5113 2094 
Q 5113 2597 4934 2840 
Q 4756 3084 4391 3084 
Q 3944 3084 3684 2787 
Q 3425 2491 3425 1978 
L 3425 0 
L 2847 0 
L 2847 2094 
Q 2847 2600 2669 2842 
Q 2491 3084 2119 3084 
Q 1678 3084 1418 2786 
Q 1159 2488 1159 1978 
L 1159 0 
L 581 0 
L 581 3500 
L 1159 3500 
L 1159 2956 
Q 1356 3278 1631 3431 
Q 1906 3584 2284 3584 
Q 2666 3584 2933 3390 
Q 3200 3197 3328 2828 
z
" transform="scale(0.015625)"/>
       <path id="DejaVuSans-65" d="M 3597 1894 
L 3597 1613 
L 953 1613 
Q 991 1019 1311 708 
Q 1631 397 2203 397 
Q 2534 397 2845 478 
Q 3156 559 3463 722 
L 3463 178 
Q 3153 47 2828 -22 
Q 2503 -91 2169 -91 
Q 1331 -91 842 396 
Q 353 884 353 1716 
Q 353 2575 817 3079 
Q 1281 3584 2069 3584 
Q 2775 3584 3186 3129 
Q 3597 2675 3597 1894 
z
M 3022 2063 
Q 3016 2534 2758 2815 
Q 2500 3097 2075 3097 
Q 1594 3097 1305 2825 
Q 1016 2553 972 2059 
L 3022 2063 
z
" transform="scale(0.015625)"/>
       <path id="DejaVuSans-20" transform="scale(0.015625)"/>
       <path id="DejaVuSans-5b" d="M 550 4863 
L 1875 4863 
L 1875 4416 
L 1125 4416 
L 1125 -397 
L 1875 -397 
L 1875 -844 
L 550 -844 
L 550 4863 
z
" transform="scale(0.015625)"/>
       <path id="DejaVuSans-6f" d="M 1959 3097 
Q 1497 3097 1228 2736 
Q 959 2375 959 1747 
Q 959 1119 1226 758 
Q 1494 397 1959 397 
Q 2419 397 2687 759 
Q 2956 1122 2956 1747 
Q 2956 2369 2687 2733 
Q 2419 3097 1959 3097 
z
M 1959 3584 
Q 2709 3584 3137 3096 
Q 3566 2609 3566 1747 
Q 3566 888 3137 398 
Q 2709 -91 1959 -91 
Q 1206 -91 779 398 
Q 353 888 353 1747 
Q 353 2609 779 3096 
Q 1206 3584 1959 3584 
z
" transform="scale(0.015625)"/>
       <path id="DejaVuSans-72" d="M 2631 2963 
Q 2534 3019 2420 3045 
Q 2306 3072 2169 3072 
Q 1681 3072 1420 2755 
Q 1159 2438 1159 1844 
L 1159 0 
L 581 0 
L 581 3500 
L 1159 3500 
L 1159 2956 
Q 1341 3275 1631 3429 
Q 1922 3584 2338 3584 
Q 2397 3584 2469 3576 
Q 2541 3569 2628 3553 
L 2631 2963 
z
" transform="scale(0.015625)"/>
       <path id="DejaVuSans-62" d="M 3116 1747 
Q 3116 2381 2855 2742 
Q 2594 3103 2138 3103 
Q 1681 3103 1420 2742 
Q 1159 2381 1159 1747 
Q 1159 1113 1420 752 
Q 1681 391 2138 391 
Q 2594 391 2855 752 
Q 3116 1113 3116 1747 
z
M 1159 2969 
Q 1341 3281 1617 3432 
Q 1894 3584 2278 3584 
Q 2916 3584 3314 3078 
Q 3713 2572 3713 1747 
Q 3713 922 3314 415 
Q 2916 -91 2278 -91 
Q 1894 -91 1617 61 
Q 1341 213 1159 525 
L 1159 0 
L 581 0 
L 581 4863 
L 1159 4863 
L 1159 2969 
z
" transform="scale(0.015625)"/>
       <path id="DejaVuSans-74" d="M 1172 4494 
L 1172 3500 
L 2356 3500 
L 2356 3053 
L 1172 3053 
L 1172 1153 
Q 1172 725 1289 603 
Q 1406 481 1766 481 
L 2356 481 
L 2356 0 
L 1766 0 
Q 1100 0 847 248 
Q 594 497 594 1153 
L 594 3053 
L 172 3053 
L 172 3500 
L 594 3500 
L 594 4494 
L 1172 4494 
z
" transform="scale(0.015625)"/>
       <path id="DejaVuSans-73" d="M 2834 3397 
L 2834 2853 
Q 2591 2978 2328 3040 
Q 2066 3103 1784 3103 
Q 1356 3103 1142 2972 
Q 928 2841 928 2578 
Q 928 2378 1081 2264 
Q 1234 2150 1697 2047 
L 1894 2003 
Q 2506 1872 2764 1633 
Q 3022 1394 3022 966 
Q 3022 478 2636 193 
Q 2250 -91 1575 -91 
Q 1294 -91 989 -36 
Q 684 19 347 128 
L 347 722 
Q 666 556 975 473 
Q 1284 391 1588 391 
Q 1994 391 2212 530 
Q 2431 669 2431 922 
Q 2431 1156 2273 1281 
Q 2116 1406 1581 1522 
L 1381 1569 
Q 847 1681 609 1914 
Q 372 2147 372 2553 
Q 372 3047 722 3315 
Q 1072 3584 1716 3584 
Q 2034 3584 2315 3537 
Q 2597 3491 2834 3397 
z
" transform="scale(0.015625)"/>
       <path id="DejaVuSans-5d" d="M 1947 4863 
L 1947 -844 
L 622 -844 
L 622 -397 
L 1369 -397 
L 1369 4416 
L 622 4416 
L 622 4863 
L 1947 4863 
z
" transform="scale(0.015625)"/>
      </defs>
      <use xlink:href="#DejaVuSans-54"/>
      <use xlink:href="#DejaVuSans-69" x="57.958984"/>
      <use xlink:href="#DejaVuSans-6d" x="85.742188"/>
      <use xlink:href="#DejaVuSans-65" x="183.154297"/>
      <use xlink:href="#DejaVuSans-20" x="244.677734"/>
      <use xlink:href="#DejaVuSans-5b" x="276.464844"/>
      <use xlink:href="#DejaVuSans-6f" x="315.478516"/>
      <use xlink:href="#DejaVuSans-72" x="376.660156"/>
      <use xlink:href="#DejaVuSans-62" x="417.773438"/>
      <use xlink:href="#DejaVuSans-69" x="481.25"/>
      <use xlink:href="#DejaVuSans-74" x="509.033203"/>
      <use xlink:href="#DejaVuSans-73" x="548.242188"/>
      <use xlink:href="#DejaVuSans-5d" x="600.341797"/>
     </g>
    </g>
   </g>
   <g id="matplotlib.axis_2">
    <g id="ytick_1">
     <g id="line2d_7">
      <defs>
       <path id="m6d8e404a01" d="M 0 0 
L -3.5 0 
" style="stroke: #000000; stroke-width: 0.8"/>
      </defs>
      <g>
       <use xlink:href="#m6d8e404a01" x="93.235625" y="210.529233" style="stroke: #000000; stroke-width: 0.8"/>
      </g>
     </g>
     <g id="text_8">
      <!-- -20,000 -->
      <g transform="translate(24.478125 216.607983) scale(0.16 -0.16)">
       <defs>
        <path id="DejaVuSans-2d" d="M 313 2009 
L 1997 2009 
L 1997 1497 
L 313 1497 
L 313 2009 
z
" transform="scale(0.015625)"/>
        <path id="DejaVuSans-2c" d="M 750 794 
L 1409 794 
L 1409 256 
L 897 -744 
L 494 -744 
L 750 256 
L 750 794 
z
" transform="scale(0.015625)"/>
       </defs>
       <use xlink:href="#DejaVuSans-2d"/>
       <use xlink:href="#DejaVuSans-32" x="36.083984"/>
       <use xlink:href="#DejaVuSans-30" x="99.707031"/>
       <use xlink:href="#DejaVuSans-2c" x="163.330078"/>
       <use xlink:href="#DejaVuSans-30" x="195.117188"/>
       <use xlink:href="#DejaVuSans-30" x="258.740234"/>
       <use xlink:href="#DejaVuSans-30" x="322.363281"/>
      </g>
     </g>
    </g>
    <g id="ytick_2">
     <g id="line2d_8">
      <g>
       <use xlink:href="#m6d8e404a01" x="93.235625" y="157.034781" style="stroke: #000000; stroke-width: 0.8"/>
      </g>
     </g>
     <g id="text_9">
      <!-- -10,000 -->
      <g transform="translate(24.478125 163.113531) scale(0.16 -0.16)">
       <use xlink:href="#DejaVuSans-2d"/>
       <use xlink:href="#DejaVuSans-31" x="36.083984"/>
       <use xlink:href="#DejaVuSans-30" x="99.707031"/>
       <use xlink:href="#DejaVuSans-2c" x="163.330078"/>
       <use xlink:href="#DejaVuSans-30" x="195.117188"/>
       <use xlink:href="#DejaVuSans-30" x="258.740234"/>
       <use xlink:href="#DejaVuSans-30" x="322.363281"/>
      </g>
     </g>
    </g>
    <g id="ytick_3">
     <g id="line2d_9">
      <g>
       <use xlink:href="#m6d8e404a01" x="93.235625" y="103.540328" style="stroke: #000000; stroke-width: 0.8"/>
      </g>
     </g>
     <g id="text_10">
      <!-- 0 -->
      <g transform="translate(76.055625 109.619078) scale(0.16 -0.16)">
       <use xlink:href="#DejaVuSans-30"/>
      </g>
     </g>
    </g>
    <g id="ytick_4">
     <g id="line2d_10">
      <g>
       <use xlink:href="#m6d8e404a01" x="93.235625" y="50.045875" style="stroke: #000000; stroke-width: 0.8"/>
      </g>
     </g>
     <g id="text_11">
      <!-- 10,000 -->
      <g transform="translate(30.250625 56.124625) scale(0.16 -0.16)">
       <use xlink:href="#DejaVuSans-31"/>
       <use xlink:href="#DejaVuSans-30" x="63.623047"/>
       <use xlink:href="#DejaVuSans-2c" x="127.246094"/>
       <use xlink:href="#DejaVuSans-30" x="159.033203"/>
       <use xlink:href="#DejaVuSans-30" x="222.65625"/>
       <use xlink:href="#DejaVuSans-30" x="286.279297"/>
      </g>
     </g>
    </g>
    <g id="text_12">
     <!-- Magnetic Field [nT]  -->
     <g transform="translate(18.398438 182.807187) rotate(-90) scale(0.1 -0.1)">
      <defs>
       <path id="DejaVuSans-4d" d="M 628 4666 
L 1569 4666 
L 2759 1491 
L 3956 4666 
L 4897 4666 
L 4897 0 
L 4281 0 
L 4281 4097 
L 3078 897 
L 2444 897 
L 1241 4097 
L 1241 0 
L 628 0 
L 628 4666 
z
" transform="scale(0.015625)"/>
       <path id="DejaVuSans-61" d="M 2194 1759 
Q 1497 1759 1228 1600 
Q 959 1441 959 1056 
Q 959 750 1161 570 
Q 1363 391 1709 391 
Q 2188 391 2477 730 
Q 2766 1069 2766 1631 
L 2766 1759 
L 2194 1759 
z
M 3341 1997 
L 3341 0 
L 2766 0 
L 2766 531 
Q 2569 213 2275 61 
Q 1981 -91 1556 -91 
Q 1019 -91 701 211 
Q 384 513 384 1019 
Q 384 1609 779 1909 
Q 1175 2209 1959 2209 
L 2766 2209 
L 2766 2266 
Q 2766 2663 2505 2880 
Q 2244 3097 1772 3097 
Q 1472 3097 1187 3025 
Q 903 2953 641 2809 
L 641 3341 
Q 956 3463 1253 3523 
Q 1550 3584 1831 3584 
Q 2591 3584 2966 3190 
Q 3341 2797 3341 1997 
z
" transform="scale(0.015625)"/>
       <path id="DejaVuSans-67" d="M 2906 1791 
Q 2906 2416 2648 2759 
Q 2391 3103 1925 3103 
Q 1463 3103 1205 2759 
Q 947 2416 947 1791 
Q 947 1169 1205 825 
Q 1463 481 1925 481 
Q 2391 481 2648 825 
Q 2906 1169 2906 1791 
z
M 3481 434 
Q 3481 -459 3084 -895 
Q 2688 -1331 1869 -1331 
Q 1566 -1331 1297 -1286 
Q 1028 -1241 775 -1147 
L 775 -588 
Q 1028 -725 1275 -790 
Q 1522 -856 1778 -856 
Q 2344 -856 2625 -561 
Q 2906 -266 2906 331 
L 2906 616 
Q 2728 306 2450 153 
Q 2172 0 1784 0 
Q 1141 0 747 490 
Q 353 981 353 1791 
Q 353 2603 747 3093 
Q 1141 3584 1784 3584 
Q 2172 3584 2450 3431 
Q 2728 3278 2906 2969 
L 2906 3500 
L 3481 3500 
L 3481 434 
z
" transform="scale(0.015625)"/>
       <path id="DejaVuSans-6e" d="M 3513 2113 
L 3513 0 
L 2938 0 
L 2938 2094 
Q 2938 2591 2744 2837 
Q 2550 3084 2163 3084 
Q 1697 3084 1428 2787 
Q 1159 2491 1159 1978 
L 1159 0 
L 581 0 
L 581 3500 
L 1159 3500 
L 1159 2956 
Q 1366 3272 1645 3428 
Q 1925 3584 2291 3584 
Q 2894 3584 3203 3211 
Q 3513 2838 3513 2113 
z
" transform="scale(0.015625)"/>
       <path id="DejaVuSans-63" d="M 3122 3366 
L 3122 2828 
Q 2878 2963 2633 3030 
Q 2388 3097 2138 3097 
Q 1578 3097 1268 2742 
Q 959 2388 959 1747 
Q 959 1106 1268 751 
Q 1578 397 2138 397 
Q 2388 397 2633 464 
Q 2878 531 3122 666 
L 3122 134 
Q 2881 22 2623 -34 
Q 2366 -91 2075 -91 
Q 1284 -91 818 406 
Q 353 903 353 1747 
Q 353 2603 823 3093 
Q 1294 3584 2113 3584 
Q 2378 3584 2631 3529 
Q 2884 3475 3122 3366 
z
" transform="scale(0.015625)"/>
       <path id="DejaVuSans-46" d="M 628 4666 
L 3309 4666 
L 3309 4134 
L 1259 4134 
L 1259 2759 
L 3109 2759 
L 3109 2228 
L 1259 2228 
L 1259 0 
L 628 0 
L 628 4666 
z
" transform="scale(0.015625)"/>
       <path id="DejaVuSans-6c" d="M 603 4863 
L 1178 4863 
L 1178 0 
L 603 0 
L 603 4863 
z
" transform="scale(0.015625)"/>
       <path id="DejaVuSans-64" d="M 2906 2969 
L 2906 4863 
L 3481 4863 
L 3481 0 
L 2906 0 
L 2906 525 
Q 2725 213 2448 61 
Q 2172 -91 1784 -91 
Q 1150 -91 751 415 
Q 353 922 353 1747 
Q 353 2572 751 3078 
Q 1150 3584 1784 3584 
Q 2172 3584 2448 3432 
Q 2725 3281 2906 2969 
z
M 947 1747 
Q 947 1113 1208 752 
Q 1469 391 1925 391 
Q 2381 391 2643 752 
Q 2906 1113 2906 1747 
Q 2906 2381 2643 2742 
Q 2381 3103 1925 3103 
Q 1469 3103 1208 2742 
Q 947 2381 947 1747 
z
" transform="scale(0.015625)"/>
      </defs>
      <use xlink:href="#DejaVuSans-4d"/>
      <use xlink:href="#DejaVuSans-61" x="86.279297"/>
      <use xlink:href="#DejaVuSans-67" x="147.558594"/>
      <use xlink:href="#DejaVuSans-6e" x="211.035156"/>
      <use xlink:href="#DejaVuSans-65" x="274.414062"/>
      <use xlink:href="#DejaVuSans-74" x="335.9375"/>
      <use xlink:href="#DejaVuSans-69" x="375.146484"/>
      <use xlink:href="#DejaVuSans-63" x="402.929688"/>
      <use xlink:href="#DejaVuSans-20" x="457.910156"/>
      <use xlink:href="#DejaVuSans-46" x="489.697266"/>
      <use xlink:href="#DejaVuSans-69" x="539.966797"/>
      <use xlink:href="#DejaVuSans-65" x="567.75"/>
      <use xlink:href="#DejaVuSans-6c" x="629.273438"/>
      <use xlink:href="#DejaVuSans-64" x="657.056641"/>
      <use xlink:href="#DejaVuSans-20" x="720.533203"/>
      <use xlink:href="#DejaVuSans-5b" x="752.320312"/>
      <use xlink:href="#DejaVuSans-6e" x="791.333984"/>
      <use xlink:href="#DejaVuSans-54" x="854.712891"/>
      <use xlink:href="#DejaVuSans-5d" x="915.796875"/>
      <use xlink:href="#DejaVuSans-20" x="954.810547"/>
     </g>
    </g>
   </g>
   <g id="line2d_11">
    <path d="M 107.324915 114.922723 
L 110.034394 107.3922 
L 112.743872 101.493973 
L 115.453351 97.742095 
L 118.16283 94.831102 
L 120.872309 92.984584 
L 123.581788 92.665555 
L 126.291266 92.066545 
L 129.000745 90.904197 
L 131.710224 92.022318 
L 134.419703 91.44699 
L 137.129182 92.396656 
L 139.83866 92.665921 
L 142.548139 92.965973 
L 145.257618 93.341287 
L 147.967097 93.941621 
L 150.676576 94.026811 
L 153.386054 94.154688 
L 156.095533 94.937853 
L 158.805012 95.602141 
L 161.514491 95.968095 
L 164.22397 96.054773 
L 166.933448 96.248347 
L 169.642927 96.966845 
L 172.352406 97.001474 
L 175.061885 97.24488 
L 177.771364 97.036481 
L 180.480842 97.410801 
L 183.190321 97.889854 
L 185.8998 98.257299 
L 188.609279 98.446378 
L 191.318758 98.783283 
L 194.028236 98.978989 
L 196.737715 99.289545 
L 199.447194 99.314968 
L 202.156673 99.766574 
L 204.866152 99.665314 
L 207.57563 100.449179 
L 210.285109 100.422301 
L 212.994588 100.143276 
L 215.704067 99.914725 
L 218.413546 100.465455 
L 221.123024 101.16266 
L 223.832503 100.860403 
L 226.541982 101.453931 
L 229.251461 101.035219 
L 231.96094 101.367174 
L 234.670418 101.793562 
L 237.379897 101.611962 
L 240.089376 101.868083 
L 242.798855 102.565271 
L 245.508334 102.205147 
L 248.217812 102.799423 
L 250.927291 102.38263 
L 253.63677 102.69984 
L 256.346249 102.879759 
L 259.055728 102.99943 
L 261.765207 103.333118 
L 264.474685 103.687093 
L 267.184164 104.248394 
L 269.893643 104.14425 
L 272.603122 104.235512 
L 275.312601 104.52361 
L 278.022079 104.301948 
L 280.731558 105.456261 
L 283.441037 105.415959 
L 286.150516 105.804399 
L 288.859995 105.900804 
L 291.569473 106.597937 
L 294.278952 106.693933 
L 296.988431 107.582418 
L 299.69791 108.518632 
L 302.407389 108.787932 
L 305.116867 109.216733 
L 307.826346 110.323054 
L 310.535825 110.882525 
L 313.245304 111.945676 
L 315.954783 112.804285 
L 318.664261 113.753334 
L 321.37374 114.296861 
L 324.083219 115.208251 
L 326.792698 115.583106 
L 329.502177 116.064402 
L 332.211655 115.576521 
L 334.921134 113.936655 
L 337.630613 111.451823 
L 340.340092 107.518013 
L 343.049571 99.1036 
L 345.759049 86.660361 
L 348.468528 68.370917 
L 351.178007 43.456219 
L 353.887486 103.01774 
L 356.596965 103.182485 
L 359.306443 103.198293 
L 362.015922 103.928051 
L 364.725401 103.395865 
L 367.43488 103.532749 
L 370.144359 103.798732 
L 372.853837 103.862942 
L 375.563316 103.798696 
L 378.272795 103.549022 
L 380.982274 149.841664 
L 383.691753 136.53375 
L 386.401231 124.597263 
L 389.11071 115.178921 
" clip-path="url(#p04b190e2fd)" style="fill: none; stroke: #2b737e; stroke-width: 1.5; stroke-linecap: square"/>
   </g>
   <g id="line2d_12">
    <path d="M 107.324915 140.885382 
L 110.034394 129.796154 
L 112.743872 119.998018 
L 115.453351 113.878194 
L 118.16283 109.29265 
L 120.872309 105.461589 
L 123.581788 102.312607 
L 126.291266 100.438366 
L 129.000745 99.001609 
L 131.710224 98.292872 
L 134.419703 97.831137 
L 137.129182 97.04798 
L 139.83866 96.743168 
L 142.548139 96.879743 
L 145.257618 96.787821 
L 147.967097 97.033717 
L 150.676576 97.522583 
L 153.386054 97.311295 
L 156.095533 97.205177 
L 158.805012 97.329462 
L 161.514491 97.997591 
L 164.22397 98.058507 
L 166.933448 97.902028 
L 169.642927 98.579099 
L 172.352406 98.714861 
L 175.061885 98.26978 
L 177.771364 99.46374 
L 180.480842 98.98816 
L 183.190321 98.802812 
L 185.8998 99.456846 
L 188.609279 99.22963 
L 191.318758 99.801058 
L 194.028236 100.047386 
L 196.737715 100.20167 
L 199.447194 100.604385 
L 202.156673 100.664071 
L 204.866152 100.674095 
L 207.57563 101.134437 
L 210.285109 101.07705 
L 212.994588 101.182082 
L 215.704067 101.265935 
L 218.413546 101.706214 
L 221.123024 102.034904 
L 223.832503 101.471074 
L 226.541982 102.110665 
L 229.251461 101.6382 
L 231.96094 102.264504 
L 234.670418 102.760172 
L 237.379897 102.850375 
L 240.089376 102.827933 
L 242.798855 103.130822 
L 245.508334 103.3883 
L 248.217812 103.191568 
L 250.927291 103.072146 
L 253.63677 103.236972 
L 256.346249 104.196882 
L 259.055728 104.065493 
L 261.765207 104.78573 
L 264.474685 105.246831 
L 267.184164 105.324372 
L 269.893643 105.746864 
L 272.603122 105.735948 
L 275.312601 105.745895 
L 278.022079 106.622423 
L 280.731558 107.178731 
L 283.441037 107.470378 
L 286.150516 107.920702 
L 288.859995 108.548293 
L 291.569473 109.081113 
L 294.278952 110.010545 
L 296.988431 110.905695 
L 299.69791 111.477907 
L 302.407389 112.424426 
L 305.116867 113.506199 
L 307.826346 114.61083 
L 310.535825 115.951358 
L 313.245304 117.114998 
L 315.954783 118.785646 
L 318.664261 120.692107 
L 321.37374 123.009579 
L 324.083219 124.264857 
L 326.792698 126.825696 
L 329.502177 128.503335 
L 332.211655 130.847906 
L 334.921134 132.075887 
L 337.630613 131.909622 
L 340.340092 131.206551 
L 343.049571 126.524196 
L 345.759049 117.684944 
L 348.468528 102.945935 
L 351.178007 81.37277 
L 353.887486 103.372547 
L 356.596965 103.638962 
L 359.306443 103.120107 
L 362.015922 103.612234 
L 364.725401 103.40406 
L 367.43488 103.464943 
L 370.144359 103.921889 
L 372.853837 103.299844 
L 375.563316 103.757993 
L 378.272795 103.38324 
L 380.982274 187.042145 
L 383.691753 170.540076 
L 386.401231 154.55813 
L 389.11071 141.11052 
" clip-path="url(#p04b190e2fd)" style="fill: none; stroke: #5ea04b; stroke-width: 1.5; stroke-linecap: square"/>
   </g>
   <g id="line2d_13">
    <path d="M 107.324915 173.237043 
L 110.034394 168.910599 
L 112.743872 163.928156 
L 115.453351 158.09061 
L 118.16283 152.791717 
L 120.872309 146.585753 
L 123.581788 142.315315 
L 126.291266 137.756016 
L 129.000745 134.160244 
L 131.710224 130.825111 
L 134.419703 127.764703 
L 137.129182 125.243129 
L 139.83866 122.809619 
L 142.548139 120.919528 
L 145.257618 119.255839 
L 147.967097 118.023493 
L 150.676576 116.275714 
L 153.386054 115.681983 
L 156.095533 114.559871 
L 158.805012 113.306856 
L 161.514491 112.438838 
L 164.22397 112.157797 
L 166.933448 111.304986 
L 169.642927 110.922699 
L 172.352406 110.551652 
L 175.061885 110.098072 
L 177.771364 110.014882 
L 180.480842 109.072842 
L 183.190321 108.796241 
L 185.8998 108.349564 
L 188.609279 108.101194 
L 191.318758 107.788495 
L 194.028236 107.73662 
L 196.737715 107.727246 
L 199.447194 107.273573 
L 202.156673 106.96866 
L 204.866152 106.873114 
L 207.57563 106.558669 
L 210.285109 106.194938 
L 212.994588 106.877055 
L 215.704067 106.007149 
L 218.413546 105.857409 
L 221.123024 106.064551 
L 223.832503 105.533006 
L 226.541982 105.807476 
L 229.251461 105.411198 
L 231.96094 105.558558 
L 234.670418 105.290318 
L 237.379897 105.156859 
L 240.089376 104.921868 
L 242.798855 105.216205 
L 245.508334 105.259266 
L 248.217812 104.691584 
L 250.927291 104.994542 
L 253.63677 104.825743 
L 256.346249 104.763472 
L 259.055728 104.420307 
L 261.765207 104.436071 
L 264.474685 104.425837 
L 267.184164 104.405738 
L 269.893643 104.268115 
L 272.603122 103.690588 
L 275.312601 104.550742 
L 278.022079 104.034591 
L 280.731558 104.273215 
L 283.441037 104.225647 
L 286.150516 104.167219 
L 288.859995 104.316841 
L 291.569473 104.405855 
L 294.278952 104.915631 
L 296.988431 105.731917 
L 299.69791 105.712756 
L 302.407389 106.708784 
L 305.116867 107.110985 
L 307.826346 108.350296 
L 310.535825 109.147839 
L 313.245304 110.52534 
L 315.954783 111.88655 
L 318.664261 114.990348 
L 321.37374 117.343043 
L 324.083219 121.430996 
L 326.792698 126.29648 
L 329.502177 131.743041 
L 332.211655 139.489336 
L 334.921134 148.911927 
L 337.630613 160.292038 
L 340.340092 173.837581 
L 343.049571 189.780313 
L 345.759049 206.666222 
L 348.468528 222.315657 
L 351.178007 231.25875 
L 353.887486 109.447384 
L 356.596965 109.038386 
L 359.306443 108.689485 
L 362.015922 109.36983 
L 364.725401 108.741354 
L 367.43488 108.941851 
L 370.144359 108.97236 
L 372.853837 108.997362 
L 375.563316 109.105045 
L 378.272795 108.6445 
L 380.982274 152.271591 
L 383.691753 167.562719 
L 386.401231 173.204971 
L 389.11071 173.028049 
" clip-path="url(#p04b190e2fd)" style="fill: none; stroke: #bdab62; stroke-width: 1.5; stroke-linecap: square"/>
   </g>
   <g id="line2d_14">
    <path d="M 107.324915 103.561232 
L 110.034394 103.655782 
L 112.743872 103.335519 
L 115.453351 103.505547 
L 118.16283 103.248424 
L 120.872309 103.11673 
L 123.581788 103.8324 
L 126.291266 103.783627 
L 129.000745 102.831426 
L 131.710224 103.924584 
L 134.419703 103.164795 
L 137.129182 103.824593 
L 139.83866 103.737054 
L 142.548139 103.640572 
L 145.257618 103.598725 
L 147.967097 103.774557 
L 150.676576 103.437016 
L 153.386054 103.150064 
L 156.095533 103.530295 
L 158.805012 103.806015 
L 161.514491 103.799162 
L 164.22397 103.529425 
L 166.933448 103.383076 
L 169.642927 103.777879 
L 172.352406 103.504528 
L 175.061885 103.454996 
L 177.771364 102.967928 
L 180.480842 103.077021 
L 183.190321 103.303431 
L 185.8998 103.429957 
L 188.609279 103.388992 
L 191.318758 103.505895 
L 194.028236 103.490829 
L 196.737715 103.599067 
L 199.447194 103.429866 
L 202.156673 103.693819 
L 204.866152 103.411172 
L 207.57563 104.01924 
L 210.285109 103.821498 
L 212.994588 103.375902 
L 215.704067 102.984446 
L 218.413546 103.375324 
L 221.123024 103.91512 
L 223.832503 103.457291 
L 226.541982 103.896477 
L 229.251461 103.324036 
L 231.96094 103.502249 
L 234.670418 103.77424 
L 237.379897 103.436923 
L 240.089376 103.535312 
L 242.798855 104.072025 
L 245.508334 103.547913 
L 248.217812 103.973869 
L 250.927291 103.383543 
L 253.63677 103.521065 
L 256.346249 103.514114 
L 259.055728 103.438621 
L 261.765207 103.567636 
L 264.474685 103.706095 
L 267.184164 104.039578 
L 269.893643 103.6937 
L 272.603122 103.527539 
L 275.312601 103.540564 
L 278.022079 103.024019 
L 280.731558 103.861258 
L 283.441037 103.479077 
L 286.150516 103.497971 
L 288.859995 103.194059 
L 291.569473 103.456765 
L 294.278952 103.0807 
L 296.988431 103.455849 
L 299.69791 103.833849 
L 302.407389 103.496723 
L 305.116867 103.268213 
L 307.826346 103.664947 
L 310.535825 103.463409 
L 313.245304 103.718732 
L 315.954783 103.733376 
L 318.664261 103.822644 
L 321.37374 103.526007 
L 324.083219 103.675729 
L 326.792698 103.462345 
L 329.502177 103.678671 
L 332.211655 103.481437 
L 334.921134 103.041621 
L 337.630613 103.192711 
L 340.340092 104.088074 
L 343.049571 103.726857 
L 345.759049 103.82918 
L 348.468528 103.831917 
L 351.178007 103.492985 
L 353.887486 58.356347 
L 356.596965 44.301726 
L 359.306443 35.69625 
L 362.015922 39.322279 
L 364.725401 55.624384 
L 367.43488 81.894441 
L 370.144359 107.985759 
L 372.853837 125.610655 
L 375.563316 132.69835 
L 378.272795 131.637427 
L 380.982274 103.74158 
L 383.691753 103.110886 
L 386.401231 103.160039 
L 389.11071 103.688876 
" clip-path="url(#p04b190e2fd)" style="fill: none; stroke-dasharray: 5.55,2.4; stroke-dashoffset: 0; stroke: #2b737e; stroke-width: 1.5"/>
   </g>
   <g id="line2d_15">
    <path d="M 107.324915 103.696475 
L 110.034394 103.915748 
L 112.743872 102.926373 
L 115.453351 103.494654 
L 118.16283 103.899432 
L 120.872309 103.742954 
L 123.581788 103.267979 
L 126.291266 103.31522 
L 129.000745 103.237648 
L 131.710224 103.469559 
L 134.419703 103.637729 
L 137.129182 103.254239 
L 139.83866 103.178895 
L 142.548139 103.419513 
L 145.257618 103.339625 
L 147.967097 103.530509 
L 150.676576 103.915983 
L 153.386054 103.566886 
L 156.095533 103.298987 
L 158.805012 103.245322 
L 161.514491 103.725147 
L 164.22397 103.591717 
L 166.933448 103.238027 
L 169.642927 103.717336 
L 172.352406 103.656447 
L 175.061885 103.016988 
L 177.771364 104.019621 
L 180.480842 103.356259 
L 183.190321 102.986942 
L 185.8998 103.460919 
L 188.609279 103.057527 
L 191.318758 103.456529 
L 194.028236 103.533973 
L 196.737715 103.522646 
L 199.447194 103.762706 
L 202.156673 103.66234 
L 204.866152 103.51453 
L 207.57563 103.818841 
L 210.285109 103.606789 
L 212.994588 103.558063 
L 215.704067 103.488581 
L 218.413546 103.77544 
L 221.123024 103.950093 
L 223.832503 103.231046 
L 226.541982 103.713648 
L 229.251461 103.081791 
L 231.96094 103.545632 
L 234.670418 103.875045 
L 237.379897 103.794431 
L 240.089376 103.595777 
L 242.798855 103.716154 
L 245.508334 103.783834 
L 248.217812 103.388937 
L 250.927291 103.0618 
L 253.63677 103.008052 
L 256.346249 103.737081 
L 259.055728 103.360894 
L 261.765207 103.820623 
L 264.474685 104.003503 
L 267.184164 103.782863 
L 269.893643 103.884691 
L 272.603122 103.527786 
L 275.312601 103.163213 
L 278.022079 103.63307 
L 280.731558 103.746454 
L 283.441037 103.554288 
L 286.150516 103.474653 
L 288.859995 103.520196 
L 291.569473 103.412161 
L 294.278952 103.634362 
L 296.988431 103.747426 
L 299.69791 103.453263 
L 302.407389 103.438743 
L 305.116867 103.453611 
L 307.826346 103.373716 
L 310.535825 103.400322 
L 313.245304 103.109848 
L 315.954783 103.178074 
L 318.664261 103.331241 
L 321.37374 103.752233 
L 324.083219 102.993414 
L 326.792698 103.478145 
L 329.502177 103.122434 
L 332.211655 103.659787 
L 334.921134 103.612587 
L 337.630613 103.193692 
L 340.340092 104.014816 
L 343.049571 103.730702 
L 345.759049 103.625216 
L 348.468528 103.602291 
L 351.178007 103.909437 
L 353.887486 77.952045 
L 356.596965 63.293457 
L 359.306443 52.332671 
L 362.015922 53.597178 
L 364.725401 69.107427 
L 367.43488 96.046185 
L 370.144359 124.519017 
L 372.853837 143.776882 
L 375.563316 152.697906 
L 378.272795 151.455082 
L 380.982274 103.309856 
L 383.691753 103.107432 
L 386.401231 103.204839 
L 389.11071 103.736081 
" clip-path="url(#p04b190e2fd)" style="fill: none; stroke-dasharray: 5.55,2.4; stroke-dashoffset: 0; stroke: #5ea04b; stroke-width: 1.5"/>
   </g>
   <g id="line2d_16">
    <path d="M 107.324915 109.164601 
L 110.034394 108.481368 
L 112.743872 108.756796 
L 115.453351 108.725111 
L 118.16283 109.17846 
L 120.872309 108.362259 
L 123.581788 108.984055 
L 126.291266 108.782404 
L 129.000745 109.024624 
L 131.710224 109.047833 
L 134.419703 108.915992 
L 137.129182 108.944709 
L 139.83866 108.732148 
L 142.548139 108.778124 
L 145.257618 108.804983 
L 147.967097 109.051957 
L 150.676576 108.601857 
L 153.386054 109.149535 
L 156.095533 109.034247 
L 158.805012 108.671976 
L 161.514491 108.59441 
L 164.22397 109.017 
L 166.933448 108.792513 
L 169.642927 108.973093 
L 172.352406 109.107904 
L 175.061885 109.110432 
L 177.771364 109.43985 
L 180.480842 108.872315 
L 183.190321 108.936785 
L 185.8998 108.801795 
L 188.609279 108.83925 
L 191.318758 108.789582 
L 194.028236 108.980627 
L 196.737715 109.196408 
L 199.447194 108.952186 
L 202.156673 108.842829 
L 204.866152 108.930536 
L 207.57563 108.788447 
L 210.285109 108.587412 
L 212.994588 109.423657 
L 215.704067 108.700275 
L 218.413546 108.690299 
L 221.123024 109.03119 
L 223.832503 108.628025 
L 226.541982 109.026063 
L 229.251461 108.749017 
L 231.96094 109.011668 
L 234.670418 108.855097 
L 237.379897 108.829924 
L 240.089376 108.699996 
L 242.798855 109.096248 
L 245.508334 109.238063 
L 248.217812 108.765858 
L 250.927291 109.160792 
L 253.63677 109.080114 
L 256.346249 109.10161 
L 259.055728 108.837187 
L 261.765207 108.92579 
L 264.474685 108.981375 
L 267.184164 109.018661 
L 269.893643 108.928219 
L 272.603122 108.385471 
L 275.312601 109.265269 
L 278.022079 108.750245 
L 280.731558 108.967288 
L 283.441037 108.870244 
L 286.150516 108.728007 
L 288.859995 108.751494 
L 291.569473 108.662086 
L 294.278952 108.928731 
L 296.988431 109.421616 
L 299.69791 108.979253 
L 302.407389 109.427679 
L 305.116867 109.126799 
L 307.826346 109.468175 
L 310.535825 109.122912 
L 313.245304 109.04908 
L 315.954783 108.569335 
L 318.664261 109.339315 
L 321.37374 108.734277 
L 324.083219 109.075355 
L 326.792698 109.199144 
L 329.502177 108.658921 
L 332.211655 108.880999 
L 334.921134 108.925982 
L 337.630613 108.787796 
L 340.340092 108.534019 
L 343.049571 108.639339 
L 345.759049 108.698234 
L 348.468528 109.035485 
L 351.178007 108.894746 
L 353.887486 168.468482 
L 356.596965 155.196886 
L 359.306443 129.45491 
L 362.015922 96.308718 
L 364.725401 64.604419 
L 367.43488 49.105797 
L 370.144359 53.721101 
L 372.853837 72.97077 
L 375.563316 96.723552 
L 378.272795 116.538739 
L 380.982274 108.868803 
L 383.691753 109.026629 
L 386.401231 108.882354 
L 389.11071 108.921937 
" clip-path="url(#p04b190e2fd)" style="fill: none; stroke-dasharray: 5.55,2.4; stroke-dashoffset: 0; stroke: #bdab62; stroke-width: 1.5"/>
   </g>
   <g id="patch_3">
    <path d="M 93.235625 241.036875 
L 93.235625 25.918125 
" style="fill: none; stroke: #000000; stroke-width: 0.8; stroke-linejoin: miter; stroke-linecap: square"/>
   </g>
   <g id="patch_4">
    <path d="M 403.2 241.036875 
L 403.2 25.918125 
" style="fill: none; stroke: #000000; stroke-width: 0.8; stroke-linejoin: miter; stroke-linecap: square"/>
   </g>
   <g id="patch_5">
    <path d="M 93.235625 241.036875 
L 403.2 241.036875 
" style="fill: none; stroke: #000000; stroke-width: 0.8; stroke-linejoin: miter; stroke-linecap: square"/>
   </g>
   <g id="patch_6">
    <path d="M 93.235625 25.918125 
L 403.2 25.918125 
" style="fill: none; stroke: #000000; stroke-width: 0.8; stroke-linejoin: miter; stroke-linecap: square"/>
   </g>
   <g id="text_13">
    <!-- Centered Dipole Model -->
    <g transform="translate(179.701562 19.918125) scale(0.12 -0.12)">
     <defs>
      <path id="DejaVuSans-43" d="M 4122 4306 
L 4122 3641 
Q 3803 3938 3442 4084 
Q 3081 4231 2675 4231 
Q 1875 4231 1450 3742 
Q 1025 3253 1025 2328 
Q 1025 1406 1450 917 
Q 1875 428 2675 428 
Q 3081 428 3442 575 
Q 3803 722 4122 1019 
L 4122 359 
Q 3791 134 3420 21 
Q 3050 -91 2638 -91 
Q 1578 -91 968 557 
Q 359 1206 359 2328 
Q 359 3453 968 4101 
Q 1578 4750 2638 4750 
Q 3056 4750 3426 4639 
Q 3797 4528 4122 4306 
z
" transform="scale(0.015625)"/>
      <path id="DejaVuSans-44" d="M 1259 4147 
L 1259 519 
L 2022 519 
Q 2988 519 3436 956 
Q 3884 1394 3884 2338 
Q 3884 3275 3436 3711 
Q 2988 4147 2022 4147 
L 1259 4147 
z
M 628 4666 
L 1925 4666 
Q 3281 4666 3915 4102 
Q 4550 3538 4550 2338 
Q 4550 1131 3912 565 
Q 3275 0 1925 0 
L 628 0 
L 628 4666 
z
" transform="scale(0.015625)"/>
      <path id="DejaVuSans-70" d="M 1159 525 
L 1159 -1331 
L 581 -1331 
L 581 3500 
L 1159 3500 
L 1159 2969 
Q 1341 3281 1617 3432 
Q 1894 3584 2278 3584 
Q 2916 3584 3314 3078 
Q 3713 2572 3713 1747 
Q 3713 922 3314 415 
Q 2916 -91 2278 -91 
Q 1894 -91 1617 61 
Q 1341 213 1159 525 
z
M 3116 1747 
Q 3116 2381 2855 2742 
Q 2594 3103 2138 3103 
Q 1681 3103 1420 2742 
Q 1159 2381 1159 1747 
Q 1159 1113 1420 752 
Q 1681 391 2138 391 
Q 2594 391 2855 752 
Q 3116 1113 3116 1747 
z
" transform="scale(0.015625)"/>
     </defs>
     <use xlink:href="#DejaVuSans-43"/>
     <use xlink:href="#DejaVuSans-65" x="69.824219"/>
     <use xlink:href="#DejaVuSans-6e" x="131.347656"/>
     <use xlink:href="#DejaVuSans-74" x="194.726562"/>
     <use xlink:href="#DejaVuSans-65" x="233.935547"/>
     <use xlink:href="#DejaVuSans-72" x="295.458984"/>
     <use xlink:href="#DejaVuSans-65" x="334.322266"/>
     <use xlink:href="#DejaVuSans-64" x="395.845703"/>
     <use xlink:href="#DejaVuSans-20" x="459.322266"/>
     <use xlink:href="#DejaVuSans-44" x="491.109375"/>
     <use xlink:href="#DejaVuSans-69" x="568.111328"/>
     <use xlink:href="#DejaVuSans-70" x="595.894531"/>
     <use xlink:href="#DejaVuSans-6f" x="659.371094"/>
     <use xlink:href="#DejaVuSans-6c" x="720.552734"/>
     <use xlink:href="#DejaVuSans-65" x="748.335938"/>
     <use xlink:href="#DejaVuSans-20" x="809.859375"/>
     <use xlink:href="#DejaVuSans-4d" x="841.646484"/>
     <use xlink:href="#DejaVuSans-6f" x="927.925781"/>
     <use xlink:href="#DejaVuSans-64" x="989.107422"/>
     <use xlink:href="#DejaVuSans-65" x="1052.583984"/>
     <use xlink:href="#DejaVuSans-6c" x="1114.107422"/>
    </g>
   </g>
   <g id="legend_1">
    <g id="patch_7">
     <path d="M 344.34 236.536875 
L 396.9 236.536875 
Q 398.7 236.536875 398.7 234.736875 
L 398.7 196.005938 
Q 398.7 194.205938 396.9 194.205938 
L 344.34 194.205938 
Q 342.54 194.205938 342.54 196.005938 
L 342.54 234.736875 
Q 342.54 236.536875 344.34 236.536875 
z
" style="fill: #ffffff; opacity: 0.8; stroke: #cccccc; stroke-linejoin: miter"/>
    </g>
    <g id="line2d_17">
     <path d="M 346.14 201.494531 
L 355.14 201.494531 
L 364.14 201.494531 
" style="fill: none; stroke: #2b737e; stroke-width: 1.5; stroke-linecap: square"/>
    </g>
    <g id="text_14">
     <!-- $TAM_{0}$ -->
     <g transform="translate(371.34 204.644531) scale(0.09 -0.09)">
      <defs>
       <path id="DejaVuSans-Oblique-54" d="M 378 4666 
L 4325 4666 
L 4225 4134 
L 2559 4134 
L 1759 0 
L 1125 0 
L 1925 4134 
L 275 4134 
L 378 4666 
z
" transform="scale(0.015625)"/>
       <path id="DejaVuSans-Oblique-41" d="M 2356 4666 
L 3072 4666 
L 3938 0 
L 3278 0 
L 3084 1197 
L 984 1197 
L 325 0 
L -341 0 
L 2356 4666 
z
M 2584 4044 
L 1275 1722 
L 2988 1722 
L 2584 4044 
z
" transform="scale(0.015625)"/>
       <path id="DejaVuSans-Oblique-4d" d="M 1081 4666 
L 2028 4666 
L 2572 1522 
L 4378 4666 
L 5350 4666 
L 4441 0 
L 3828 0 
L 4622 4091 
L 2791 897 
L 2175 897 
L 1581 4103 
L 788 0 
L 172 0 
L 1081 4666 
z
" transform="scale(0.015625)"/>
      </defs>
      <use xlink:href="#DejaVuSans-Oblique-54" transform="translate(0 0.09375)"/>
      <use xlink:href="#DejaVuSans-Oblique-41" transform="translate(61.083984 0.09375)"/>
      <use xlink:href="#DejaVuSans-Oblique-4d" transform="translate(129.492188 0.09375)"/>
      <use xlink:href="#DejaVuSans-30" transform="translate(215.771484 -16.3125) scale(0.7)"/>
     </g>
    </g>
    <g id="line2d_18">
     <path d="M 346.14 214.704844 
L 355.14 214.704844 
L 364.14 214.704844 
" style="fill: none; stroke: #5ea04b; stroke-width: 1.5; stroke-linecap: square"/>
    </g>
    <g id="text_15">
     <!-- $TAM_{1}$ -->
     <g transform="translate(371.34 217.854844) scale(0.09 -0.09)">
      <use xlink:href="#DejaVuSans-Oblique-54" transform="translate(0 0.09375)"/>
      <use xlink:href="#DejaVuSans-Oblique-41" transform="translate(61.083984 0.09375)"/>
      <use xlink:href="#DejaVuSans-Oblique-4d" transform="translate(129.492188 0.09375)"/>
      <use xlink:href="#DejaVuSans-31" transform="translate(215.771484 -16.3125) scale(0.7)"/>
     </g>
    </g>
    <g id="line2d_19">
     <path d="M 346.14 227.915156 
L 355.14 227.915156 
L 364.14 227.915156 
" style="fill: none; stroke: #bdab62; stroke-width: 1.5; stroke-linecap: square"/>
    </g>
    <g id="text_16">
     <!-- $TAM_{2}$ -->
     <g transform="translate(371.34 231.065156) scale(0.09 -0.09)">
      <use xlink:href="#DejaVuSans-Oblique-54" transform="translate(0 0.09375)"/>
      <use xlink:href="#DejaVuSans-Oblique-41" transform="translate(61.083984 0.09375)"/>
      <use xlink:href="#DejaVuSans-Oblique-4d" transform="translate(129.492188 0.09375)"/>
      <use xlink:href="#DejaVuSans-32" transform="translate(215.771484 -16.3125) scale(0.7)"/>
     </g>
    </g>
   </g>
  </g>
 </g>
 <defs>
  <clipPath id="p04b190e2fd">
   <rect x="93.235625" y="25.918125" width="309.964375" height="215.11875"/>
  </clipPath>
 </defs>
</svg>
