<?xml version="1.0" encoding="utf-8" standalone="no"?>
<!DOCTYPE svg PUBLIC "-//W3C//DTD SVG 1.1//EN"
  "http://www.w3.org/Graphics/SVG/1.1/DTD/svg11.dtd">
<svg xmlns:xlink="http://www.w3.org/1999/xlink" width="414pt" height="288pt" viewBox="0 0 414 288" xmlns="http://www.w3.org/2000/svg" version="1.1">
 <metadata>
  <rdf:RDF xmlns:dc="http://purl.org/dc/elements/1.1/" xmlns:cc="http://creativecommons.org/ns#" xmlns:rdf="http://www.w3.org/1999/02/22-rdf-syntax-ns#">
   <cc:Work>
    <dc:type rdf:resource="http://purl.org/dc/dcmitype/StillImage"/>
    <dc:date>2023-09-07T00:38:21.756624</dc:date>
    <dc:format>image/svg+xml</dc:format>
    <dc:creator>
     <cc:Agent>
      <dc:title>Matplotlib v3.7.2, https://matplotlib.org/</dc:title>
     </cc:Agent>
    </dc:creator>
   </cc:Work>
  </rdf:RDF>
 </metadata>
 <defs>
  <style type="text/css">*{stroke-linejoin: round; stroke-linecap: butt}</style>
 </defs>
 <g id="figure_1">
  <g id="patch_1">
   <path d="M 0 288 
L 414 288 
L 414 0 
L 0 0 
L 0 288 
z
" style="fill: none"/>
  </g>
  <g id="axes_1">
   <g id="patch_2">
    <path d="M 82.378125 241.036875 
L 395.450682 241.036875 
L 395.450682 25.918125 
L 82.378125 25.918125 
L 82.378125 241.036875 
z
" style="fill: none"/>
   </g>
   <g id="matplotlib.axis_1">
    <g id="xtick_1">
     <g id="line2d_1">
      <path d="M 96.608696 241.036875 
L 96.608696 25.918125 
" clip-path="url(#p55cb24905f)" style="fill: none; stroke: #b0b0b0; stroke-width: 0.8; stroke-linecap: square"/>
     </g>
     <g id="line2d_2">
      <defs>
       <path id="maa719b5d87" d="M 0 0 
L 0 3.5 
" style="stroke: #000000; stroke-width: 0.8"/>
      </defs>
      <g>
       <use xlink:href="#maa719b5d87" x="96.608696" y="241.036875" style="stroke: #000000; stroke-width: 0.8"/>
      </g>
     </g>
     <g id="text_1">
      <!-- 0 -->
      <g transform="translate(91.518696 260.194375) scale(0.16 -0.16)">
       <defs>
        <path id="DejaVuSans-30" d="M 2034 4250 
Q 1547 4250 1301 3770 
Q 1056 3291 1056 2328 
Q 1056 1369 1301 889 
Q 1547 409 2034 409 
Q 2525 409 2770 889 
Q 3016 1369 3016 2328 
Q 3016 3291 2770 3770 
Q 2525 4250 2034 4250 
z
M 2034 4750 
Q 2819 4750 3233 4129 
Q 3647 3509 3647 2328 
Q 3647 1150 3233 529 
Q 2819 -91 2034 -91 
Q 1250 -91 836 529 
Q 422 1150 422 2328 
Q 422 3509 836 4129 
Q 1250 4750 2034 4750 
z
" transform="scale(0.015625)"/>
       </defs>
       <use xlink:href="#DejaVuSans-30"/>
      </g>
     </g>
    </g>
    <g id="xtick_2">
     <g id="line2d_3">
      <path d="M 155.902741 241.036875 
L 155.902741 25.918125 
" clip-path="url(#p55cb24905f)" style="fill: none; stroke: #b0b0b0; stroke-width: 0.8; stroke-linecap: square"/>
     </g>
     <g id="line2d_4">
      <g>
       <use xlink:href="#maa719b5d87" x="155.902741" y="241.036875" style="stroke: #000000; stroke-width: 0.8"/>
      </g>
     </g>
     <g id="text_2">
      <!-- 5 -->
      <g transform="translate(150.812741 260.194375) scale(0.16 -0.16)">
       <defs>
        <path id="DejaVuSans-35" d="M 691 4666 
L 3169 4666 
L 3169 4134 
L 1269 4134 
L 1269 2991 
Q 1406 3038 1543 3061 
Q 1681 3084 1819 3084 
Q 2600 3084 3056 2656 
Q 3513 2228 3513 1497 
Q 3513 744 3044 326 
Q 2575 -91 1722 -91 
Q 1428 -91 1123 -41 
Q 819 9 494 109 
L 494 744 
Q 775 591 1075 516 
Q 1375 441 1709 441 
Q 2250 441 2565 725 
Q 2881 1009 2881 1497 
Q 2881 1984 2565 2268 
Q 2250 2553 1709 2553 
Q 1456 2553 1204 2497 
Q 953 2441 691 2322 
L 691 4666 
z
" transform="scale(0.015625)"/>
       </defs>
       <use xlink:href="#DejaVuSans-35"/>
      </g>
     </g>
    </g>
    <g id="xtick_3">
     <g id="line2d_5">
      <path d="M 215.196785 241.036875 
L 215.196785 25.918125 
" clip-path="url(#p55cb24905f)" style="fill: none; stroke: #b0b0b0; stroke-width: 0.8; stroke-linecap: square"/>
     </g>
     <g id="line2d_6">
      <g>
       <use xlink:href="#maa719b5d87" x="215.196785" y="241.036875" style="stroke: #000000; stroke-width: 0.8"/>
      </g>
     </g>
     <g id="text_3">
      <!-- 10 -->
      <g transform="translate(205.016785 260.194375) scale(0.16 -0.16)">
       <defs>
        <path id="DejaVuSans-31" d="M 794 531 
L 1825 531 
L 1825 4091 
L 703 3866 
L 703 4441 
L 1819 4666 
L 2450 4666 
L 2450 531 
L 3481 531 
L 3481 0 
L 794 0 
L 794 531 
z
" transform="scale(0.015625)"/>
       </defs>
       <use xlink:href="#DejaVuSans-31"/>
       <use xlink:href="#DejaVuSans-30" x="63.623047"/>
      </g>
     </g>
    </g>
    <g id="xtick_4">
     <g id="line2d_7">
      <path d="M 274.49083 241.036875 
L 274.49083 25.918125 
" clip-path="url(#p55cb24905f)" style="fill: none; stroke: #b0b0b0; stroke-width: 0.8; stroke-linecap: square"/>
     </g>
     <g id="line2d_8">
      <g>
       <use xlink:href="#maa719b5d87" x="274.49083" y="241.036875" style="stroke: #000000; stroke-width: 0.8"/>
      </g>
     </g>
     <g id="text_4">
      <!-- 15 -->
      <g transform="translate(264.31083 260.194375) scale(0.16 -0.16)">
       <use xlink:href="#DejaVuSans-31"/>
       <use xlink:href="#DejaVuSans-35" x="63.623047"/>
      </g>
     </g>
    </g>
    <g id="xtick_5">
     <g id="line2d_9">
      <path d="M 333.784875 241.036875 
L 333.784875 25.918125 
" clip-path="url(#p55cb24905f)" style="fill: none; stroke: #b0b0b0; stroke-width: 0.8; stroke-linecap: square"/>
     </g>
     <g id="line2d_10">
      <g>
       <use xlink:href="#maa719b5d87" x="333.784875" y="241.036875" style="stroke: #000000; stroke-width: 0.8"/>
      </g>
     </g>
     <g id="text_5">
      <!-- 20 -->
      <g transform="translate(323.604875 260.194375) scale(0.16 -0.16)">
       <defs>
        <path id="DejaVuSans-32" d="M 1228 531 
L 3431 531 
L 3431 0 
L 469 0 
L 469 531 
Q 828 903 1448 1529 
Q 2069 2156 2228 2338 
Q 2531 2678 2651 2914 
Q 2772 3150 2772 3378 
Q 2772 3750 2511 3984 
Q 2250 4219 1831 4219 
Q 1534 4219 1204 4116 
Q 875 4013 500 3803 
L 500 4441 
Q 881 4594 1212 4672 
Q 1544 4750 1819 4750 
Q 2544 4750 2975 4387 
Q 3406 4025 3406 3419 
Q 3406 3131 3298 2873 
Q 3191 2616 2906 2266 
Q 2828 2175 2409 1742 
Q 1991 1309 1228 531 
z
" transform="scale(0.015625)"/>
       </defs>
       <use xlink:href="#DejaVuSans-32"/>
       <use xlink:href="#DejaVuSans-30" x="63.623047"/>
      </g>
     </g>
    </g>
    <g id="xtick_6">
     <g id="line2d_11">
      <path d="M 393.07892 241.036875 
L 393.07892 25.918125 
" clip-path="url(#p55cb24905f)" style="fill: none; stroke: #b0b0b0; stroke-width: 0.8; stroke-linecap: square"/>
     </g>
     <g id="line2d_12">
      <g>
       <use xlink:href="#maa719b5d87" x="393.07892" y="241.036875" style="stroke: #000000; stroke-width: 0.8"/>
      </g>
     </g>
     <g id="text_6">
      <!-- 25 -->
      <g transform="translate(382.89892 260.194375) scale(0.16 -0.16)">
       <use xlink:href="#DejaVuSans-32"/>
       <use xlink:href="#DejaVuSans-35" x="63.623047"/>
      </g>
     </g>
    </g>
    <g id="text_7">
     <!-- Time (hr) -->
     <g transform="translate(215.965966 275.120313) scale(0.1 -0.1)">
      <defs>
       <path id="DejaVuSans-54" d="M -19 4666 
L 3928 4666 
L 3928 4134 
L 2272 4134 
L 2272 0 
L 1638 0 
L 1638 4134 
L -19 4134 
L -19 4666 
z
" transform="scale(0.015625)"/>
       <path id="DejaVuSans-69" d="M 603 3500 
L 1178 3500 
L 1178 0 
L 603 0 
L 603 3500 
z
M 603 4863 
L 1178 4863 
L 1178 4134 
L 603 4134 
L 603 4863 
z
" transform="scale(0.015625)"/>
       <path id="DejaVuSans-6d" d="M 3328 2828 
Q 3544 3216 3844 3400 
Q 4144 3584 4550 3584 
Q 5097 3584 5394 3201 
Q 5691 2819 5691 2113 
L 5691 0 
L 5113 0 
L 5113 2094 
Q 5113 2597 4934 2840 
Q 4756 3084 4391 3084 
Q 3944 3084 3684 2787 
Q 3425 2491 3425 1978 
L 3425 0 
L 2847 0 
L 2847 2094 
Q 2847 2600 2669 2842 
Q 2491 3084 2119 3084 
Q 1678 3084 1418 2786 
Q 1159 2488 1159 1978 
L 1159 0 
L 581 0 
L 581 3500 
L 1159 3500 
L 1159 2956 
Q 1356 3278 1631 3431 
Q 1906 3584 2284 3584 
Q 2666 3584 2933 3390 
Q 3200 3197 3328 2828 
z
" transform="scale(0.015625)"/>
       <path id="DejaVuSans-65" d="M 3597 1894 
L 3597 1613 
L 953 1613 
Q 991 1019 1311 708 
Q 1631 397 2203 397 
Q 2534 397 2845 478 
Q 3156 559 3463 722 
L 3463 178 
Q 3153 47 2828 -22 
Q 2503 -91 2169 -91 
Q 1331 -91 842 396 
Q 353 884 353 1716 
Q 353 2575 817 3079 
Q 1281 3584 2069 3584 
Q 2775 3584 3186 3129 
Q 3597 2675 3597 1894 
z
M 3022 2063 
Q 3016 2534 2758 2815 
Q 2500 3097 2075 3097 
Q 1594 3097 1305 2825 
Q 1016 2553 972 2059 
L 3022 2063 
z
" transform="scale(0.015625)"/>
       <path id="DejaVuSans-20" transform="scale(0.015625)"/>
       <path id="DejaVuSans-28" d="M 1984 4856 
Q 1566 4138 1362 3434 
Q 1159 2731 1159 2009 
Q 1159 1288 1364 580 
Q 1569 -128 1984 -844 
L 1484 -844 
Q 1016 -109 783 600 
Q 550 1309 550 2009 
Q 550 2706 781 3412 
Q 1013 4119 1484 4856 
L 1984 4856 
z
" transform="scale(0.015625)"/>
       <path id="DejaVuSans-68" d="M 3513 2113 
L 3513 0 
L 2938 0 
L 2938 2094 
Q 2938 2591 2744 2837 
Q 2550 3084 2163 3084 
Q 1697 3084 1428 2787 
Q 1159 2491 1159 1978 
L 1159 0 
L 581 0 
L 581 4863 
L 1159 4863 
L 1159 2956 
Q 1366 3272 1645 3428 
Q 1925 3584 2291 3584 
Q 2894 3584 3203 3211 
Q 3513 2838 3513 2113 
z
" transform="scale(0.015625)"/>
       <path id="DejaVuSans-72" d="M 2631 2963 
Q 2534 3019 2420 3045 
Q 2306 3072 2169 3072 
Q 1681 3072 1420 2755 
Q 1159 2438 1159 1844 
L 1159 0 
L 581 0 
L 581 3500 
L 1159 3500 
L 1159 2956 
Q 1341 3275 1631 3429 
Q 1922 3584 2338 3584 
Q 2397 3584 2469 3576 
Q 2541 3569 2628 3553 
L 2631 2963 
z
" transform="scale(0.015625)"/>
       <path id="DejaVuSans-29" d="M 513 4856 
L 1013 4856 
Q 1481 4119 1714 3412 
Q 1947 2706 1947 2009 
Q 1947 1309 1714 600 
Q 1481 -109 1013 -844 
L 513 -844 
Q 928 -128 1133 580 
Q 1338 1288 1338 2009 
Q 1338 2731 1133 3434 
Q 928 4138 513 4856 
z
" transform="scale(0.015625)"/>
      </defs>
      <use xlink:href="#DejaVuSans-54"/>
      <use xlink:href="#DejaVuSans-69" x="57.958984"/>
      <use xlink:href="#DejaVuSans-6d" x="85.742188"/>
      <use xlink:href="#DejaVuSans-65" x="183.154297"/>
      <use xlink:href="#DejaVuSans-20" x="244.677734"/>
      <use xlink:href="#DejaVuSans-28" x="276.464844"/>
      <use xlink:href="#DejaVuSans-68" x="315.478516"/>
      <use xlink:href="#DejaVuSans-72" x="378.857422"/>
      <use xlink:href="#DejaVuSans-29" x="419.970703"/>
     </g>
    </g>
   </g>
   <g id="matplotlib.axis_2">
    <g id="ytick_1">
     <g id="line2d_13">
      <path d="M 82.378125 231.25875 
L 395.450682 231.25875 
" clip-path="url(#p55cb24905f)" style="fill: none; stroke: #b0b0b0; stroke-width: 0.8; stroke-linecap: square"/>
     </g>
     <g id="line2d_14">
      <defs>
       <path id="m2d7fc67de4" d="M 0 0 
L -3.5 0 
" style="stroke: #000000; stroke-width: 0.8"/>
      </defs>
      <g>
       <use xlink:href="#m2d7fc67de4" x="82.378125" y="231.25875" style="stroke: #000000; stroke-width: 0.8"/>
      </g>
     </g>
     <g id="text_8">
      <!-- 0 -->
      <g transform="translate(65.198125 237.3375) scale(0.16 -0.16)">
       <use xlink:href="#DejaVuSans-30"/>
      </g>
     </g>
    </g>
    <g id="ytick_2">
     <g id="line2d_15">
      <path d="M 82.378125 194.130277 
L 395.450682 194.130277 
" clip-path="url(#p55cb24905f)" style="fill: none; stroke: #b0b0b0; stroke-width: 0.8; stroke-linecap: square"/>
     </g>
     <g id="line2d_16">
      <g>
       <use xlink:href="#m2d7fc67de4" x="82.378125" y="194.130277" style="stroke: #000000; stroke-width: 0.8"/>
      </g>
     </g>
     <g id="text_9">
      <!-- 2500 -->
      <g transform="translate(34.658125 200.209027) scale(0.16 -0.16)">
       <use xlink:href="#DejaVuSans-32"/>
       <use xlink:href="#DejaVuSans-35" x="63.623047"/>
       <use xlink:href="#DejaVuSans-30" x="127.246094"/>
       <use xlink:href="#DejaVuSans-30" x="190.869141"/>
      </g>
     </g>
    </g>
    <g id="ytick_3">
     <g id="line2d_17">
      <path d="M 82.378125 157.001804 
L 395.450682 157.001804 
" clip-path="url(#p55cb24905f)" style="fill: none; stroke: #b0b0b0; stroke-width: 0.8; stroke-linecap: square"/>
     </g>
     <g id="line2d_18">
      <g>
       <use xlink:href="#m2d7fc67de4" x="82.378125" y="157.001804" style="stroke: #000000; stroke-width: 0.8"/>
      </g>
     </g>
     <g id="text_10">
      <!-- 5000 -->
      <g transform="translate(34.658125 163.080554) scale(0.16 -0.16)">
       <use xlink:href="#DejaVuSans-35"/>
       <use xlink:href="#DejaVuSans-30" x="63.623047"/>
       <use xlink:href="#DejaVuSans-30" x="127.246094"/>
       <use xlink:href="#DejaVuSans-30" x="190.869141"/>
      </g>
     </g>
    </g>
    <g id="ytick_4">
     <g id="line2d_19">
      <path d="M 82.378125 119.873332 
L 395.450682 119.873332 
" clip-path="url(#p55cb24905f)" style="fill: none; stroke: #b0b0b0; stroke-width: 0.8; stroke-linecap: square"/>
     </g>
     <g id="line2d_20">
      <g>
       <use xlink:href="#m2d7fc67de4" x="82.378125" y="119.873332" style="stroke: #000000; stroke-width: 0.8"/>
      </g>
     </g>
     <g id="text_11">
      <!-- 7500 -->
      <g transform="translate(34.658125 125.952082) scale(0.16 -0.16)">
       <defs>
        <path id="DejaVuSans-37" d="M 525 4666 
L 3525 4666 
L 3525 4397 
L 1831 0 
L 1172 0 
L 2766 4134 
L 525 4134 
L 525 4666 
z
" transform="scale(0.015625)"/>
       </defs>
       <use xlink:href="#DejaVuSans-37"/>
       <use xlink:href="#DejaVuSans-35" x="63.623047"/>
       <use xlink:href="#DejaVuSans-30" x="127.246094"/>
       <use xlink:href="#DejaVuSans-30" x="190.869141"/>
      </g>
     </g>
    </g>
    <g id="ytick_5">
     <g id="line2d_21">
      <path d="M 82.378125 82.744859 
L 395.450682 82.744859 
" clip-path="url(#p55cb24905f)" style="fill: none; stroke: #b0b0b0; stroke-width: 0.8; stroke-linecap: square"/>
     </g>
     <g id="line2d_22">
      <g>
       <use xlink:href="#m2d7fc67de4" x="82.378125" y="82.744859" style="stroke: #000000; stroke-width: 0.8"/>
      </g>
     </g>
     <g id="text_12">
      <!-- 10000 -->
      <g transform="translate(24.478125 88.823609) scale(0.16 -0.16)">
       <use xlink:href="#DejaVuSans-31"/>
       <use xlink:href="#DejaVuSans-30" x="63.623047"/>
       <use xlink:href="#DejaVuSans-30" x="127.246094"/>
       <use xlink:href="#DejaVuSans-30" x="190.869141"/>
       <use xlink:href="#DejaVuSans-30" x="254.492188"/>
      </g>
     </g>
    </g>
    <g id="ytick_6">
     <g id="line2d_23">
      <path d="M 82.378125 45.616386 
L 395.450682 45.616386 
" clip-path="url(#p55cb24905f)" style="fill: none; stroke: #b0b0b0; stroke-width: 0.8; stroke-linecap: square"/>
     </g>
     <g id="line2d_24">
      <g>
       <use xlink:href="#m2d7fc67de4" x="82.378125" y="45.616386" style="stroke: #000000; stroke-width: 0.8"/>
      </g>
     </g>
     <g id="text_13">
      <!-- 12500 -->
      <g transform="translate(24.478125 51.695136) scale(0.16 -0.16)">
       <use xlink:href="#DejaVuSans-31"/>
       <use xlink:href="#DejaVuSans-32" x="63.623047"/>
       <use xlink:href="#DejaVuSans-35" x="127.246094"/>
       <use xlink:href="#DejaVuSans-30" x="190.869141"/>
       <use xlink:href="#DejaVuSans-30" x="254.492188"/>
      </g>
     </g>
    </g>
    <g id="text_14">
     <!-- Slant Range (km) -->
     <g transform="translate(18.398438 176.924375) rotate(-90) scale(0.1 -0.1)">
      <defs>
       <path id="DejaVuSans-53" d="M 3425 4513 
L 3425 3897 
Q 3066 4069 2747 4153 
Q 2428 4238 2131 4238 
Q 1616 4238 1336 4038 
Q 1056 3838 1056 3469 
Q 1056 3159 1242 3001 
Q 1428 2844 1947 2747 
L 2328 2669 
Q 3034 2534 3370 2195 
Q 3706 1856 3706 1288 
Q 3706 609 3251 259 
Q 2797 -91 1919 -91 
Q 1588 -91 1214 -16 
Q 841 59 441 206 
L 441 856 
Q 825 641 1194 531 
Q 1563 422 1919 422 
Q 2459 422 2753 634 
Q 3047 847 3047 1241 
Q 3047 1584 2836 1778 
Q 2625 1972 2144 2069 
L 1759 2144 
Q 1053 2284 737 2584 
Q 422 2884 422 3419 
Q 422 4038 858 4394 
Q 1294 4750 2059 4750 
Q 2388 4750 2728 4690 
Q 3069 4631 3425 4513 
z
" transform="scale(0.015625)"/>
       <path id="DejaVuSans-6c" d="M 603 4863 
L 1178 4863 
L 1178 0 
L 603 0 
L 603 4863 
z
" transform="scale(0.015625)"/>
       <path id="DejaVuSans-61" d="M 2194 1759 
Q 1497 1759 1228 1600 
Q 959 1441 959 1056 
Q 959 750 1161 570 
Q 1363 391 1709 391 
Q 2188 391 2477 730 
Q 2766 1069 2766 1631 
L 2766 1759 
L 2194 1759 
z
M 3341 1997 
L 3341 0 
L 2766 0 
L 2766 531 
Q 2569 213 2275 61 
Q 1981 -91 1556 -91 
Q 1019 -91 701 211 
Q 384 513 384 1019 
Q 384 1609 779 1909 
Q 1175 2209 1959 2209 
L 2766 2209 
L 2766 2266 
Q 2766 2663 2505 2880 
Q 2244 3097 1772 3097 
Q 1472 3097 1187 3025 
Q 903 2953 641 2809 
L 641 3341 
Q 956 3463 1253 3523 
Q 1550 3584 1831 3584 
Q 2591 3584 2966 3190 
Q 3341 2797 3341 1997 
z
" transform="scale(0.015625)"/>
       <path id="DejaVuSans-6e" d="M 3513 2113 
L 3513 0 
L 2938 0 
L 2938 2094 
Q 2938 2591 2744 2837 
Q 2550 3084 2163 3084 
Q 1697 3084 1428 2787 
Q 1159 2491 1159 1978 
L 1159 0 
L 581 0 
L 581 3500 
L 1159 3500 
L 1159 2956 
Q 1366 3272 1645 3428 
Q 1925 3584 2291 3584 
Q 2894 3584 3203 3211 
Q 3513 2838 3513 2113 
z
" transform="scale(0.015625)"/>
       <path id="DejaVuSans-74" d="M 1172 4494 
L 1172 3500 
L 2356 3500 
L 2356 3053 
L 1172 3053 
L 1172 1153 
Q 1172 725 1289 603 
Q 1406 481 1766 481 
L 2356 481 
L 2356 0 
L 1766 0 
Q 1100 0 847 248 
Q 594 497 594 1153 
L 594 3053 
L 172 3053 
L 172 3500 
L 594 3500 
L 594 4494 
L 1172 4494 
z
" transform="scale(0.015625)"/>
       <path id="DejaVuSans-52" d="M 2841 2188 
Q 3044 2119 3236 1894 
Q 3428 1669 3622 1275 
L 4263 0 
L 3584 0 
L 2988 1197 
Q 2756 1666 2539 1819 
Q 2322 1972 1947 1972 
L 1259 1972 
L 1259 0 
L 628 0 
L 628 4666 
L 2053 4666 
Q 2853 4666 3247 4331 
Q 3641 3997 3641 3322 
Q 3641 2881 3436 2590 
Q 3231 2300 2841 2188 
z
M 1259 4147 
L 1259 2491 
L 2053 2491 
Q 2509 2491 2742 2702 
Q 2975 2913 2975 3322 
Q 2975 3731 2742 3939 
Q 2509 4147 2053 4147 
L 1259 4147 
z
" transform="scale(0.015625)"/>
       <path id="DejaVuSans-67" d="M 2906 1791 
Q 2906 2416 2648 2759 
Q 2391 3103 1925 3103 
Q 1463 3103 1205 2759 
Q 947 2416 947 1791 
Q 947 1169 1205 825 
Q 1463 481 1925 481 
Q 2391 481 2648 825 
Q 2906 1169 2906 1791 
z
M 3481 434 
Q 3481 -459 3084 -895 
Q 2688 -1331 1869 -1331 
Q 1566 -1331 1297 -1286 
Q 1028 -1241 775 -1147 
L 775 -588 
Q 1028 -725 1275 -790 
Q 1522 -856 1778 -856 
Q 2344 -856 2625 -561 
Q 2906 -266 2906 331 
L 2906 616 
Q 2728 306 2450 153 
Q 2172 0 1784 0 
Q 1141 0 747 490 
Q 353 981 353 1791 
Q 353 2603 747 3093 
Q 1141 3584 1784 3584 
Q 2172 3584 2450 3431 
Q 2728 3278 2906 2969 
L 2906 3500 
L 3481 3500 
L 3481 434 
z
" transform="scale(0.015625)"/>
       <path id="DejaVuSans-6b" d="M 581 4863 
L 1159 4863 
L 1159 1991 
L 2875 3500 
L 3609 3500 
L 1753 1863 
L 3688 0 
L 2938 0 
L 1159 1709 
L 1159 0 
L 581 0 
L 581 4863 
z
" transform="scale(0.015625)"/>
      </defs>
      <use xlink:href="#DejaVuSans-53"/>
      <use xlink:href="#DejaVuSans-6c" x="63.476562"/>
      <use xlink:href="#DejaVuSans-61" x="91.259766"/>
      <use xlink:href="#DejaVuSans-6e" x="152.539062"/>
      <use xlink:href="#DejaVuSans-74" x="215.917969"/>
      <use xlink:href="#DejaVuSans-20" x="255.126953"/>
      <use xlink:href="#DejaVuSans-52" x="286.914062"/>
      <use xlink:href="#DejaVuSans-61" x="354.146484"/>
      <use xlink:href="#DejaVuSans-6e" x="415.425781"/>
      <use xlink:href="#DejaVuSans-67" x="478.804688"/>
      <use xlink:href="#DejaVuSans-65" x="542.28125"/>
      <use xlink:href="#DejaVuSans-20" x="603.804688"/>
      <use xlink:href="#DejaVuSans-28" x="635.591797"/>
      <use xlink:href="#DejaVuSans-6b" x="674.605469"/>
      <use xlink:href="#DejaVuSans-6d" x="732.515625"/>
      <use xlink:href="#DejaVuSans-29" x="829.927734"/>
     </g>
    </g>
   </g>
   <g id="line2d_25">
    <path d="M 96.608696 114.367148 
L 97.135754 115.591092 
L 97.498106 115.981287 
L 97.794577 116.006437 
L 98.058106 115.799195 
L 98.387517 115.232577 
L 98.815752 113.989923 
L 99.34281 111.711091 
L 100.034574 107.606079 
L 100.956926 100.629126 
L 104.646333 71.034489 
L 105.403979 67.357277 
L 105.99692 65.498172 
L 106.425154 64.765445 
L 106.754566 64.567533 
L 107.018095 64.644447 
L 107.314565 64.985145 
L 107.676917 65.771063 
L 108.138093 67.362069 
L 108.698093 70.177531 
L 109.356915 74.695794 
L 110.147503 81.725194 
L 111.135737 92.627899 
L 112.651029 112.213208 
L 114.199262 131.394598 
L 114.923967 137.926684 
L 115.451026 140.92743 
L 115.813378 141.949493 
L 116.043966 142.122083 
L 116.208672 142.012075 
L 116.43926 141.530729 
L 116.768671 140.192368 
L 117.196906 137.371655 
L 117.756905 132.068507 
L 118.547492 122.223922 
L 119.963961 101.158714 
L 121.742783 75.586319 
L 122.763958 63.952625 
L 123.554545 57.212698 
L 124.213368 53.340534 
L 124.707485 51.556929 
L 125.102778 50.85 
L 125.366308 50.741721 
L 125.596895 50.887853 
L 125.893366 51.408139 
L 126.255718 52.553478 
L 126.716894 54.820278 
L 127.276893 58.777962 
L 127.968657 65.442164 
L 128.792186 75.791636 
L 129.78042 91.298914 
L 131.065124 115.29848 
L 133.371004 158.919673 
L 133.963944 166.155712 
L 134.359238 168.856348 
L 134.622767 169.520362 
L 134.754531 169.491899 
L 134.919237 169.11654 
L 135.182766 167.749714 
L 135.545119 164.447409 
L 136.072177 157.223655 
L 136.862764 142.839007 
L 140.782759 66.752903 
L 141.705111 54.821682 
L 142.462757 47.733248 
L 143.055698 44.027583 
L 143.516873 42.309731 
L 143.879226 41.689863 
L 144.109814 41.633213 
L 144.340402 41.840538 
L 144.636872 42.495694 
L 144.999225 43.889695 
L 145.4604 46.602781 
L 146.0204 51.292567 
L 146.712164 59.143011 
L 147.535692 71.310996 
L 148.490985 88.947237 
L 149.676866 115.297621 
L 151.554511 162.994637 
L 152.641568 187.997279 
L 153.102744 194.562791 
L 153.366273 196.137934 
L 153.465097 196.237222 
L 153.498038 196.208861 
L 153.629802 195.79051 
L 153.86039 193.942553 
L 154.222743 188.651213 
L 154.815683 176.029224 
L 156.199211 140.326141 
L 158.010973 95.589915 
L 159.196854 71.539127 
L 160.152147 56.28822 
L 160.942734 46.83166 
L 161.601557 41.298703 
L 162.128615 38.46885 
L 162.55685 37.235727 
L 162.85332 36.947112 
L 163.050967 37.012414 
L 163.281555 37.349311 
L 163.610966 38.316938 
L 164.039201 40.426223 
L 164.566259 44.329179 
L 165.192141 50.798457 
L 165.949787 61.199147 
L 166.839198 76.787475 
L 167.893314 99.533618 
L 169.178018 132.512284 
L 170.95684 184.584472 
L 172.142721 217.17239 
L 172.373309 219.239778 
L 172.439191 219.041268 
L 172.603897 217.094549 
L 172.966249 208.66561 
L 174.218012 171.489437 
L 176.161539 116.372438 
L 177.479185 85.052351 
L 178.533301 64.829536 
L 179.422712 51.630083 
L 180.180358 43.412189 
L 180.806239 38.822905 
L 181.300356 36.640363 
L 181.662709 35.856777 
L 181.926238 35.722742 
L 182.123885 35.863151 
L 182.387414 36.37112 
L 182.749766 37.665881 
L 183.210942 40.30426 
L 183.770942 44.976384 
L 184.429764 52.480023 
L 185.220352 64.223554 
L 186.142703 81.439095 
L 187.262702 106.862606 
L 188.64623 143.815397 
L 191.446226 220.956207 
L 191.512109 220.830707 
L 191.643873 219.405577 
L 191.940343 212.794926 
L 192.99446 181.710386 
L 195.102692 121.352162 
L 196.453279 88.81963 
L 197.540337 67.561071 
L 198.462688 53.532925 
L 199.253276 44.698716 
L 199.879157 39.895687 
L 200.406215 37.391449 
L 200.801509 36.448432 
L 201.065038 36.266901 
L 201.262685 36.365584 
L 201.526214 36.809799 
L 201.855625 37.865783 
L 202.28386 40.064319 
L 202.810918 44.03442 
L 203.4368 50.518374 
L 204.194446 60.837718 
L 205.083857 76.186913 
L 206.137973 98.44087 
L 207.455619 131.362984 
L 210.519144 210.910009 
L 210.716791 211.845174 
L 210.782673 211.721042 
L 210.914438 210.83267 
L 211.177967 206.94356 
L 211.672084 195.44528 
L 213.319141 149.277814 
L 214.999139 105.434534 
L 216.250902 78.264778 
L 217.272077 60.614111 
L 218.128547 49.354903 
L 218.853252 42.53568 
L 219.446192 38.875832 
L 219.907368 37.248245 
L 220.236779 36.744734 
L 220.467367 36.720088 
L 220.697955 36.965484 
L 220.994425 37.677194 
L 221.389719 39.316617 
L 221.883836 42.465588 
L 222.476777 47.829501 
L 223.16854 56.208056 
L 223.992069 69.014178 
L 224.980303 88.11837 
L 226.166184 115.701612 
L 227.714417 157.39745 
L 229.592062 207.757869 
L 229.921473 212.006303 
L 230.053238 212.330302 
L 230.086179 212.269558 
L 230.217943 211.475342 
L 230.448531 208.276292 
L 230.909707 197.864835 
L 232.227353 160.901231 
L 234.137939 109.554074 
L 235.422643 80.765054 
L 236.476759 61.862149 
L 237.36617 49.710556 
L 238.090875 42.584074 
L 238.683815 38.688852 
L 239.144991 36.892082 
L 239.507344 36.246021 
L 239.737932 36.187428 
L 239.96852 36.403439 
L 240.26499 37.084469 
L 240.627342 38.531278 
L 241.088518 41.343465 
L 241.648518 46.199838 
L 242.340282 54.326222 
L 243.16381 66.931724 
L 244.119103 85.257198 
L 245.239102 111.218214 
L 246.65557 149.60962 
L 249.25792 222.077323 
L 249.290861 222.076601 
L 249.389685 221.375294 
L 249.620273 216.886511 
L 250.344978 195.942151 
L 252.914386 121.002978 
L 254.264973 88.221641 
L 255.35203 66.822275 
L 256.274382 52.730805 
L 257.032028 44.2002 
L 257.65791 39.331066 
L 258.184968 36.802822 
L 258.580262 35.863712 
L 258.843791 35.69625 
L 259.041438 35.811867 
L 259.304967 36.287547 
L 259.634378 37.397727 
L 260.062613 39.692445 
L 260.589671 43.822242 
L 261.248494 50.964313 
L 262.00614 61.790911 
L 262.89555 77.83843 
L 263.949667 101.045339 
L 265.267312 135.331571 
L 267.375545 197.215901 
L 268.10025 215.336372 
L 268.330838 217.430451 
L 268.39672 217.342616 
L 268.528485 216.241589 
L 268.792014 211.337868 
L 269.450837 193.286309 
L 272.349656 110.940816 
L 273.60142 82.258504 
L 274.622595 63.499315 
L 275.479064 51.419411 
L 276.203769 43.996261 
L 276.79671 39.910176 
L 277.290827 37.901357 
L 277.653179 37.242706 
L 277.883767 37.183368 
L 278.114355 37.403703 
L 278.410826 38.096833 
L 278.773178 39.56657 
L 279.234354 42.416601 
L 279.827294 47.659606 
L 280.519058 55.940462 
L 281.342587 68.653448 
L 282.330821 87.591753 
L 283.582584 116.285381 
L 286.64611 189.316057 
L 287.041403 193.280567 
L 287.23905 193.853257 
L 287.337873 193.755778 
L 287.502579 193.031072 
L 287.766108 190.520908 
L 288.161402 184.274332 
L 288.853166 169.154907 
L 292.608455 81.264789 
L 293.62963 64.376743 
L 294.4861 53.692878 
L 295.177864 47.554503 
L 295.737863 44.275687 
L 296.199039 42.729414 
L 296.52845 42.265985 
L 296.759038 42.259056 
L 296.989626 42.512569 
L 297.286096 43.21885 
L 297.68139 44.818975 
L 298.175507 47.856939 
L 298.768448 52.974231 
L 299.493153 61.287475 
L 300.382563 74.289981 
L 301.502562 94.277761 
L 303.544912 135.886232 
L 304.63197 155.504254 
L 305.257851 163.311516 
L 305.686086 166.278968 
L 305.949615 166.964983 
L 306.08138 166.966758 
L 306.246085 166.649348 
L 306.476673 165.623532 
L 306.839026 162.740594 
L 307.333143 156.71242 
L 308.090789 144.277027 
L 310.001375 107.575064 
L 311.384903 83.681473 
L 312.406078 69.663201 
L 313.229606 61.12398 
L 313.92137 56.030516 
L 314.481369 53.351169 
L 314.909604 52.185347 
L 315.239016 51.809315 
L 315.469604 51.813937 
L 315.733133 52.086909 
L 316.062544 52.824564 
L 316.490779 54.428192 
L 317.017837 57.367052 
L 317.67666 62.448867 
L 318.467247 70.403742 
L 319.488422 83.1228 
L 321.201361 107.828858 
L 322.584889 126.487229 
L 323.342535 134.102098 
L 323.902534 137.799575 
L 324.297828 139.229711 
L 324.594298 139.619017 
L 324.791945 139.549748 
L 325.022533 139.141167 
L 325.351944 137.967541 
L 325.780179 135.484841 
L 326.37312 130.537991 
L 327.229589 121.209061 
L 330.820173 79.640937 
L 331.676642 73.11774 
L 332.368406 69.350134 
L 332.961347 67.242621 
L 333.422523 66.327574 
L 333.784875 66.049575 
L 334.081345 66.105835 
L 334.377816 66.411739 
L 334.773109 67.195875 
L 335.267226 68.751408 
L 335.893108 71.564776 
L 336.683695 76.277233 
L 337.737811 84.045336 
L 340.735455 106.96263 
L 341.493101 110.769142 
L 342.086041 112.716223 
L 342.547217 113.54553 
L 342.876629 113.764404 
L 343.173099 113.699793 
L 343.50251 113.348214 
L 343.897804 112.562004 
L 344.424862 110.962879 
L 345.116626 108.092767 
L 346.203683 102.487638 
L 348.344857 91.35889 
L 349.267209 87.781088 
L 349.991914 85.771771 
L 350.584855 84.696724 
L 351.078972 84.194793 
L 351.507206 84.040928 
L 351.9025 84.118604 
L 352.363676 84.455567 
L 352.923675 85.179966 
L 353.64838 86.528951 
L 354.80132 89.239635 
L 356.382494 92.867878 
L 357.173082 94.143609 
L 357.766022 94.728943 
L 358.260139 94.944134 
L 358.721315 94.91648 
L 359.215432 94.650577 
L 359.775431 94.081433 
L 360.500136 93.00361 
L 361.7519 90.652973 
L 363.003663 88.459306 
L 363.728368 87.60634 
L 364.288367 87.270909 
L 364.749543 87.245455 
L 365.177778 87.44333 
L 365.638954 87.906517 
L 366.198953 88.823383 
L 366.857776 90.387329 
L 367.648363 92.89008 
L 368.73542 97.165796 
L 371.0413 106.445307 
L 371.733064 108.289366 
L 372.260122 109.131612 
L 372.655416 109.388186 
L 372.984827 109.335844 
L 373.314238 109.031752 
L 373.709532 108.329574 
L 374.203649 106.941332 
L 374.829531 104.418201 
L 375.620118 100.188977 
L 376.773058 92.623389 
L 379.111878 77.083137 
L 379.968348 72.902371 
L 380.627171 70.651974 
L 381.154229 69.557165 
L 381.220111 69.467527 
L 381.220111 69.467527 
" clip-path="url(#p55cb24905f)" style="fill: none; stroke: #1f77b4; stroke-width: 1.5; stroke-linecap: square"/>
   </g>
   <g id="line2d_26">
    <path d="M 96.608696 231.25875 
L 171.780368 231.25875 
L 171.912133 216.407361 
L 172.933308 216.407361 
L 173.065072 231.25875 
L 190.853286 231.25875 
L 190.98505 216.407361 
L 192.039167 216.407361 
L 192.170931 231.25875 
L 210.38738 231.25875 
L 210.519144 216.407361 
L 211.013261 216.407361 
L 211.145026 231.25875 
L 229.690885 231.25875 
L 229.82265 216.407361 
L 230.349708 216.407361 
L 230.481473 231.25875 
L 248.632039 231.25875 
L 248.763803 216.407361 
L 249.883802 216.407361 
L 250.015566 231.25875 
L 267.80378 231.25875 
L 267.935544 216.407361 
L 268.857896 216.407361 
L 268.989661 231.25875 
L 381.220111 231.25875 
L 381.220111 231.25875 
" clip-path="url(#p55cb24905f)" style="fill: none; stroke: #ff7f0e; stroke-width: 1.5; stroke-linecap: square"/>
   </g>
   <g id="patch_3">
    <path d="M 82.378125 241.036875 
L 82.378125 25.918125 
" style="fill: none; stroke: #000000; stroke-width: 0.8; stroke-linejoin: miter; stroke-linecap: square"/>
   </g>
   <g id="patch_4">
    <path d="M 395.450682 241.036875 
L 395.450682 25.918125 
" style="fill: none; stroke: #000000; stroke-width: 0.8; stroke-linejoin: miter; stroke-linecap: square"/>
   </g>
   <g id="patch_5">
    <path d="M 82.378125 241.036875 
L 395.450682 241.036875 
" style="fill: none; stroke: #000000; stroke-width: 0.8; stroke-linejoin: miter; stroke-linecap: square"/>
   </g>
   <g id="patch_6">
    <path d="M 82.378125 25.918125 
L 395.450682 25.918125 
" style="fill: none; stroke: #000000; stroke-width: 0.8; stroke-linejoin: miter; stroke-linecap: square"/>
   </g>
   <g id="text_15">
    <!-- Slant Range, Access vs. Time -->
    <g transform="translate(151.253466 19.918125) scale(0.12 -0.12)">
     <defs>
      <path id="DejaVuSans-2c" d="M 750 794 
L 1409 794 
L 1409 256 
L 897 -744 
L 494 -744 
L 750 256 
L 750 794 
z
" transform="scale(0.015625)"/>
      <path id="DejaVuSans-41" d="M 2188 4044 
L 1331 1722 
L 3047 1722 
L 2188 4044 
z
M 1831 4666 
L 2547 4666 
L 4325 0 
L 3669 0 
L 3244 1197 
L 1141 1197 
L 716 0 
L 50 0 
L 1831 4666 
z
" transform="scale(0.015625)"/>
      <path id="DejaVuSans-63" d="M 3122 3366 
L 3122 2828 
Q 2878 2963 2633 3030 
Q 2388 3097 2138 3097 
Q 1578 3097 1268 2742 
Q 959 2388 959 1747 
Q 959 1106 1268 751 
Q 1578 397 2138 397 
Q 2388 397 2633 464 
Q 2878 531 3122 666 
L 3122 134 
Q 2881 22 2623 -34 
Q 2366 -91 2075 -91 
Q 1284 -91 818 406 
Q 353 903 353 1747 
Q 353 2603 823 3093 
Q 1294 3584 2113 3584 
Q 2378 3584 2631 3529 
Q 2884 3475 3122 3366 
z
" transform="scale(0.015625)"/>
      <path id="DejaVuSans-73" d="M 2834 3397 
L 2834 2853 
Q 2591 2978 2328 3040 
Q 2066 3103 1784 3103 
Q 1356 3103 1142 2972 
Q 928 2841 928 2578 
Q 928 2378 1081 2264 
Q 1234 2150 1697 2047 
L 1894 2003 
Q 2506 1872 2764 1633 
Q 3022 1394 3022 966 
Q 3022 478 2636 193 
Q 2250 -91 1575 -91 
Q 1294 -91 989 -36 
Q 684 19 347 128 
L 347 722 
Q 666 556 975 473 
Q 1284 391 1588 391 
Q 1994 391 2212 530 
Q 2431 669 2431 922 
Q 2431 1156 2273 1281 
Q 2116 1406 1581 1522 
L 1381 1569 
Q 847 1681 609 1914 
Q 372 2147 372 2553 
Q 372 3047 722 3315 
Q 1072 3584 1716 3584 
Q 2034 3584 2315 3537 
Q 2597 3491 2834 3397 
z
" transform="scale(0.015625)"/>
      <path id="DejaVuSans-76" d="M 191 3500 
L 800 3500 
L 1894 563 
L 2988 3500 
L 3597 3500 
L 2284 0 
L 1503 0 
L 191 3500 
z
" transform="scale(0.015625)"/>
      <path id="DejaVuSans-2e" d="M 684 794 
L 1344 794 
L 1344 0 
L 684 0 
L 684 794 
z
" transform="scale(0.015625)"/>
     </defs>
     <use xlink:href="#DejaVuSans-53"/>
     <use xlink:href="#DejaVuSans-6c" x="63.476562"/>
     <use xlink:href="#DejaVuSans-61" x="91.259766"/>
     <use xlink:href="#DejaVuSans-6e" x="152.539062"/>
     <use xlink:href="#DejaVuSans-74" x="215.917969"/>
     <use xlink:href="#DejaVuSans-20" x="255.126953"/>
     <use xlink:href="#DejaVuSans-52" x="286.914062"/>
     <use xlink:href="#DejaVuSans-61" x="354.146484"/>
     <use xlink:href="#DejaVuSans-6e" x="415.425781"/>
     <use xlink:href="#DejaVuSans-67" x="478.804688"/>
     <use xlink:href="#DejaVuSans-65" x="542.28125"/>
     <use xlink:href="#DejaVuSans-2c" x="603.804688"/>
     <use xlink:href="#DejaVuSans-20" x="635.591797"/>
     <use xlink:href="#DejaVuSans-41" x="667.378906"/>
     <use xlink:href="#DejaVuSans-63" x="734.037109"/>
     <use xlink:href="#DejaVuSans-63" x="789.017578"/>
     <use xlink:href="#DejaVuSans-65" x="843.998047"/>
     <use xlink:href="#DejaVuSans-73" x="905.521484"/>
     <use xlink:href="#DejaVuSans-73" x="957.621094"/>
     <use xlink:href="#DejaVuSans-20" x="1009.720703"/>
     <use xlink:href="#DejaVuSans-76" x="1041.507812"/>
     <use xlink:href="#DejaVuSans-73" x="1100.6875"/>
     <use xlink:href="#DejaVuSans-2e" x="1152.787109"/>
     <use xlink:href="#DejaVuSans-20" x="1184.574219"/>
     <use xlink:href="#DejaVuSans-54" x="1216.361328"/>
     <use xlink:href="#DejaVuSans-69" x="1274.320312"/>
     <use xlink:href="#DejaVuSans-6d" x="1302.103516"/>
     <use xlink:href="#DejaVuSans-65" x="1399.515625"/>
    </g>
   </g>
  </g>
 </g>
 <defs>
  <clipPath id="p55cb24905f">
   <rect x="82.378125" y="25.918125" width="313.072557" height="215.11875"/>
  </clipPath>
 </defs>
</svg>
