<?xml version="1.0" encoding="utf-8" standalone="no"?>
<!DOCTYPE svg PUBLIC "-//W3C//DTD SVG 1.1//EN"
  "http://www.w3.org/Graphics/SVG/1.1/DTD/svg11.dtd">
<svg xmlns:xlink="http://www.w3.org/1999/xlink" width="414pt" height="288pt" viewBox="0 0 414 288" xmlns="http://www.w3.org/2000/svg" version="1.1">
 <metadata>
  <rdf:RDF xmlns:dc="http://purl.org/dc/elements/1.1/" xmlns:cc="http://creativecommons.org/ns#" xmlns:rdf="http://www.w3.org/1999/02/22-rdf-syntax-ns#">
   <cc:Work>
    <dc:type rdf:resource="http://purl.org/dc/dcmitype/StillImage"/>
    <dc:date>2023-09-07T00:35:35.282397</dc:date>
    <dc:format>image/svg+xml</dc:format>
    <dc:creator>
     <cc:Agent>
      <dc:title>Matplotlib v3.7.2, https://matplotlib.org/</dc:title>
     </cc:Agent>
    </dc:creator>
   </cc:Work>
  </rdf:RDF>
 </metadata>
 <defs>
  <style type="text/css">*{stroke-linejoin: round; stroke-linecap: butt}</style>
 </defs>
 <g id="figure_1">
  <g id="patch_1">
   <path d="M 0 288 
L 414 288 
L 414 0 
L 0 0 
L 0 288 
z
" style="fill: none"/>
  </g>
  <g id="axes_1">
   <g id="patch_2">
    <path d="M 95.785625 241.036875 
L 403.2 241.036875 
L 403.2 10.8 
L 95.785625 10.8 
L 95.785625 241.036875 
z
" style="fill: none"/>
   </g>
   <g id="matplotlib.axis_1">
    <g id="xtick_1">
     <g id="line2d_1">
      <path d="M 177.506703 241.036875 
L 177.506703 10.8 
" clip-path="url(#p6dcac5ed55)" style="fill: none; stroke: #b0b0b0; stroke-width: 0.8; stroke-linecap: square"/>
     </g>
     <g id="line2d_2">
      <defs>
       <path id="m837c884aee" d="M 0 0 
L 0 3.5 
" style="stroke: #000000; stroke-width: 0.8"/>
      </defs>
      <g>
       <use xlink:href="#m837c884aee" x="177.506703" y="241.036875" style="stroke: #000000; stroke-width: 0.8"/>
      </g>
     </g>
     <g id="text_1">
      <!-- −200 -->
      <g transform="translate(155.532953 260.194375) scale(0.16 -0.16)">
       <defs>
        <path id="DejaVuSans-2212" d="M 678 2272 
L 4684 2272 
L 4684 1741 
L 678 1741 
L 678 2272 
z
" transform="scale(0.015625)"/>
        <path id="DejaVuSans-32" d="M 1228 531 
L 3431 531 
L 3431 0 
L 469 0 
L 469 531 
Q 828 903 1448 1529 
Q 2069 2156 2228 2338 
Q 2531 2678 2651 2914 
Q 2772 3150 2772 3378 
Q 2772 3750 2511 3984 
Q 2250 4219 1831 4219 
Q 1534 4219 1204 4116 
Q 875 4013 500 3803 
L 500 4441 
Q 881 4594 1212 4672 
Q 1544 4750 1819 4750 
Q 2544 4750 2975 4387 
Q 3406 4025 3406 3419 
Q 3406 3131 3298 2873 
Q 3191 2616 2906 2266 
Q 2828 2175 2409 1742 
Q 1991 1309 1228 531 
z
" transform="scale(0.015625)"/>
        <path id="DejaVuSans-30" d="M 2034 4250 
Q 1547 4250 1301 3770 
Q 1056 3291 1056 2328 
Q 1056 1369 1301 889 
Q 1547 409 2034 409 
Q 2525 409 2770 889 
Q 3016 1369 3016 2328 
Q 3016 3291 2770 3770 
Q 2525 4250 2034 4250 
z
M 2034 4750 
Q 2819 4750 3233 4129 
Q 3647 3509 3647 2328 
Q 3647 1150 3233 529 
Q 2819 -91 2034 -91 
Q 1250 -91 836 529 
Q 422 1150 422 2328 
Q 422 3509 836 4129 
Q 1250 4750 2034 4750 
z
" transform="scale(0.015625)"/>
       </defs>
       <use xlink:href="#DejaVuSans-2212"/>
       <use xlink:href="#DejaVuSans-32" x="83.789062"/>
       <use xlink:href="#DejaVuSans-30" x="147.412109"/>
       <use xlink:href="#DejaVuSans-30" x="211.035156"/>
      </g>
     </g>
    </g>
    <g id="xtick_2">
     <g id="line2d_3">
      <path d="M 264.679531 241.036875 
L 264.679531 10.8 
" clip-path="url(#p6dcac5ed55)" style="fill: none; stroke: #b0b0b0; stroke-width: 0.8; stroke-linecap: square"/>
     </g>
     <g id="line2d_4">
      <g>
       <use xlink:href="#m837c884aee" x="264.679531" y="241.036875" style="stroke: #000000; stroke-width: 0.8"/>
      </g>
     </g>
     <g id="text_2">
      <!-- −100 -->
      <g transform="translate(242.705781 260.194375) scale(0.16 -0.16)">
       <defs>
        <path id="DejaVuSans-31" d="M 794 531 
L 1825 531 
L 1825 4091 
L 703 3866 
L 703 4441 
L 1819 4666 
L 2450 4666 
L 2450 531 
L 3481 531 
L 3481 0 
L 794 0 
L 794 531 
z
" transform="scale(0.015625)"/>
       </defs>
       <use xlink:href="#DejaVuSans-2212"/>
       <use xlink:href="#DejaVuSans-31" x="83.789062"/>
       <use xlink:href="#DejaVuSans-30" x="147.412109"/>
       <use xlink:href="#DejaVuSans-30" x="211.035156"/>
      </g>
     </g>
    </g>
    <g id="xtick_3">
     <g id="line2d_5">
      <path d="M 351.852358 241.036875 
L 351.852358 10.8 
" clip-path="url(#p6dcac5ed55)" style="fill: none; stroke: #b0b0b0; stroke-width: 0.8; stroke-linecap: square"/>
     </g>
     <g id="line2d_6">
      <g>
       <use xlink:href="#m837c884aee" x="351.852358" y="241.036875" style="stroke: #000000; stroke-width: 0.8"/>
      </g>
     </g>
     <g id="text_3">
      <!-- 0 -->
      <g transform="translate(346.762358 260.194375) scale(0.16 -0.16)">
       <use xlink:href="#DejaVuSans-30"/>
      </g>
     </g>
    </g>
    <g id="text_4">
     <!-- Hill X (m) -->
     <g transform="translate(226.190469 275.120313) scale(0.1 -0.1)">
      <defs>
       <path id="DejaVuSans-48" d="M 628 4666 
L 1259 4666 
L 1259 2753 
L 3553 2753 
L 3553 4666 
L 4184 4666 
L 4184 0 
L 3553 0 
L 3553 2222 
L 1259 2222 
L 1259 0 
L 628 0 
L 628 4666 
z
" transform="scale(0.015625)"/>
       <path id="DejaVuSans-69" d="M 603 3500 
L 1178 3500 
L 1178 0 
L 603 0 
L 603 3500 
z
M 603 4863 
L 1178 4863 
L 1178 4134 
L 603 4134 
L 603 4863 
z
" transform="scale(0.015625)"/>
       <path id="DejaVuSans-6c" d="M 603 4863 
L 1178 4863 
L 1178 0 
L 603 0 
L 603 4863 
z
" transform="scale(0.015625)"/>
       <path id="DejaVuSans-20" transform="scale(0.015625)"/>
       <path id="DejaVuSans-58" d="M 403 4666 
L 1081 4666 
L 2241 2931 
L 3406 4666 
L 4084 4666 
L 2584 2425 
L 4184 0 
L 3506 0 
L 2194 1984 
L 872 0 
L 191 0 
L 1856 2491 
L 403 4666 
z
" transform="scale(0.015625)"/>
       <path id="DejaVuSans-28" d="M 1984 4856 
Q 1566 4138 1362 3434 
Q 1159 2731 1159 2009 
Q 1159 1288 1364 580 
Q 1569 -128 1984 -844 
L 1484 -844 
Q 1016 -109 783 600 
Q 550 1309 550 2009 
Q 550 2706 781 3412 
Q 1013 4119 1484 4856 
L 1984 4856 
z
" transform="scale(0.015625)"/>
       <path id="DejaVuSans-6d" d="M 3328 2828 
Q 3544 3216 3844 3400 
Q 4144 3584 4550 3584 
Q 5097 3584 5394 3201 
Q 5691 2819 5691 2113 
L 5691 0 
L 5113 0 
L 5113 2094 
Q 5113 2597 4934 2840 
Q 4756 3084 4391 3084 
Q 3944 3084 3684 2787 
Q 3425 2491 3425 1978 
L 3425 0 
L 2847 0 
L 2847 2094 
Q 2847 2600 2669 2842 
Q 2491 3084 2119 3084 
Q 1678 3084 1418 2786 
Q 1159 2488 1159 1978 
L 1159 0 
L 581 0 
L 581 3500 
L 1159 3500 
L 1159 2956 
Q 1356 3278 1631 3431 
Q 1906 3584 2284 3584 
Q 2666 3584 2933 3390 
Q 3200 3197 3328 2828 
z
" transform="scale(0.015625)"/>
       <path id="DejaVuSans-29" d="M 513 4856 
L 1013 4856 
Q 1481 4119 1714 3412 
Q 1947 2706 1947 2009 
Q 1947 1309 1714 600 
Q 1481 -109 1013 -844 
L 513 -844 
Q 928 -128 1133 580 
Q 1338 1288 1338 2009 
Q 1338 2731 1133 3434 
Q 928 4138 513 4856 
z
" transform="scale(0.015625)"/>
      </defs>
      <use xlink:href="#DejaVuSans-48"/>
      <use xlink:href="#DejaVuSans-69" x="75.195312"/>
      <use xlink:href="#DejaVuSans-6c" x="102.978516"/>
      <use xlink:href="#DejaVuSans-6c" x="130.761719"/>
      <use xlink:href="#DejaVuSans-20" x="158.544922"/>
      <use xlink:href="#DejaVuSans-58" x="190.332031"/>
      <use xlink:href="#DejaVuSans-20" x="258.837891"/>
      <use xlink:href="#DejaVuSans-28" x="290.625"/>
      <use xlink:href="#DejaVuSans-6d" x="329.638672"/>
      <use xlink:href="#DejaVuSans-29" x="427.050781"/>
     </g>
    </g>
   </g>
   <g id="matplotlib.axis_2">
    <g id="ytick_1">
     <g id="line2d_7">
      <path d="M 95.785625 236.447788 
L 403.2 236.447788 
" clip-path="url(#p6dcac5ed55)" style="fill: none; stroke: #b0b0b0; stroke-width: 0.8; stroke-linecap: square"/>
     </g>
     <g id="line2d_8">
      <defs>
       <path id="m95c536c265" d="M 0 0 
L -3.5 0 
" style="stroke: #000000; stroke-width: 0.8"/>
      </defs>
      <g>
       <use xlink:href="#m95c536c265" x="95.785625" y="236.447788" style="stroke: #000000; stroke-width: 0.8"/>
      </g>
     </g>
     <g id="text_5">
      <!-- −12000 -->
      <g transform="translate(24.478125 242.526538) scale(0.16 -0.16)">
       <use xlink:href="#DejaVuSans-2212"/>
       <use xlink:href="#DejaVuSans-31" x="83.789062"/>
       <use xlink:href="#DejaVuSans-32" x="147.412109"/>
       <use xlink:href="#DejaVuSans-30" x="211.035156"/>
       <use xlink:href="#DejaVuSans-30" x="274.658203"/>
       <use xlink:href="#DejaVuSans-30" x="338.28125"/>
      </g>
     </g>
    </g>
    <g id="ytick_2">
     <g id="line2d_9">
      <path d="M 95.785625 202.198696 
L 403.2 202.198696 
" clip-path="url(#p6dcac5ed55)" style="fill: none; stroke: #b0b0b0; stroke-width: 0.8; stroke-linecap: square"/>
     </g>
     <g id="line2d_10">
      <g>
       <use xlink:href="#m95c536c265" x="95.785625" y="202.198696" style="stroke: #000000; stroke-width: 0.8"/>
      </g>
     </g>
     <g id="text_6">
      <!-- −10000 -->
      <g transform="translate(24.478125 208.277446) scale(0.16 -0.16)">
       <use xlink:href="#DejaVuSans-2212"/>
       <use xlink:href="#DejaVuSans-31" x="83.789062"/>
       <use xlink:href="#DejaVuSans-30" x="147.412109"/>
       <use xlink:href="#DejaVuSans-30" x="211.035156"/>
       <use xlink:href="#DejaVuSans-30" x="274.658203"/>
       <use xlink:href="#DejaVuSans-30" x="338.28125"/>
      </g>
     </g>
    </g>
    <g id="ytick_3">
     <g id="line2d_11">
      <path d="M 95.785625 167.949604 
L 403.2 167.949604 
" clip-path="url(#p6dcac5ed55)" style="fill: none; stroke: #b0b0b0; stroke-width: 0.8; stroke-linecap: square"/>
     </g>
     <g id="line2d_12">
      <g>
       <use xlink:href="#m95c536c265" x="95.785625" y="167.949604" style="stroke: #000000; stroke-width: 0.8"/>
      </g>
     </g>
     <g id="text_7">
      <!-- −8000 -->
      <g transform="translate(34.658125 174.028354) scale(0.16 -0.16)">
       <defs>
        <path id="DejaVuSans-38" d="M 2034 2216 
Q 1584 2216 1326 1975 
Q 1069 1734 1069 1313 
Q 1069 891 1326 650 
Q 1584 409 2034 409 
Q 2484 409 2743 651 
Q 3003 894 3003 1313 
Q 3003 1734 2745 1975 
Q 2488 2216 2034 2216 
z
M 1403 2484 
Q 997 2584 770 2862 
Q 544 3141 544 3541 
Q 544 4100 942 4425 
Q 1341 4750 2034 4750 
Q 2731 4750 3128 4425 
Q 3525 4100 3525 3541 
Q 3525 3141 3298 2862 
Q 3072 2584 2669 2484 
Q 3125 2378 3379 2068 
Q 3634 1759 3634 1313 
Q 3634 634 3220 271 
Q 2806 -91 2034 -91 
Q 1263 -91 848 271 
Q 434 634 434 1313 
Q 434 1759 690 2068 
Q 947 2378 1403 2484 
z
M 1172 3481 
Q 1172 3119 1398 2916 
Q 1625 2713 2034 2713 
Q 2441 2713 2670 2916 
Q 2900 3119 2900 3481 
Q 2900 3844 2670 4047 
Q 2441 4250 2034 4250 
Q 1625 4250 1398 4047 
Q 1172 3844 1172 3481 
z
" transform="scale(0.015625)"/>
       </defs>
       <use xlink:href="#DejaVuSans-2212"/>
       <use xlink:href="#DejaVuSans-38" x="83.789062"/>
       <use xlink:href="#DejaVuSans-30" x="147.412109"/>
       <use xlink:href="#DejaVuSans-30" x="211.035156"/>
       <use xlink:href="#DejaVuSans-30" x="274.658203"/>
      </g>
     </g>
    </g>
    <g id="ytick_4">
     <g id="line2d_13">
      <path d="M 95.785625 133.700512 
L 403.2 133.700512 
" clip-path="url(#p6dcac5ed55)" style="fill: none; stroke: #b0b0b0; stroke-width: 0.8; stroke-linecap: square"/>
     </g>
     <g id="line2d_14">
      <g>
       <use xlink:href="#m95c536c265" x="95.785625" y="133.700512" style="stroke: #000000; stroke-width: 0.8"/>
      </g>
     </g>
     <g id="text_8">
      <!-- −6000 -->
      <g transform="translate(34.658125 139.779262) scale(0.16 -0.16)">
       <defs>
        <path id="DejaVuSans-36" d="M 2113 2584 
Q 1688 2584 1439 2293 
Q 1191 2003 1191 1497 
Q 1191 994 1439 701 
Q 1688 409 2113 409 
Q 2538 409 2786 701 
Q 3034 994 3034 1497 
Q 3034 2003 2786 2293 
Q 2538 2584 2113 2584 
z
M 3366 4563 
L 3366 3988 
Q 3128 4100 2886 4159 
Q 2644 4219 2406 4219 
Q 1781 4219 1451 3797 
Q 1122 3375 1075 2522 
Q 1259 2794 1537 2939 
Q 1816 3084 2150 3084 
Q 2853 3084 3261 2657 
Q 3669 2231 3669 1497 
Q 3669 778 3244 343 
Q 2819 -91 2113 -91 
Q 1303 -91 875 529 
Q 447 1150 447 2328 
Q 447 3434 972 4092 
Q 1497 4750 2381 4750 
Q 2619 4750 2861 4703 
Q 3103 4656 3366 4563 
z
" transform="scale(0.015625)"/>
       </defs>
       <use xlink:href="#DejaVuSans-2212"/>
       <use xlink:href="#DejaVuSans-36" x="83.789062"/>
       <use xlink:href="#DejaVuSans-30" x="147.412109"/>
       <use xlink:href="#DejaVuSans-30" x="211.035156"/>
       <use xlink:href="#DejaVuSans-30" x="274.658203"/>
      </g>
     </g>
    </g>
    <g id="ytick_5">
     <g id="line2d_15">
      <path d="M 95.785625 99.451421 
L 403.2 99.451421 
" clip-path="url(#p6dcac5ed55)" style="fill: none; stroke: #b0b0b0; stroke-width: 0.8; stroke-linecap: square"/>
     </g>
     <g id="line2d_16">
      <g>
       <use xlink:href="#m95c536c265" x="95.785625" y="99.451421" style="stroke: #000000; stroke-width: 0.8"/>
      </g>
     </g>
     <g id="text_9">
      <!-- −4000 -->
      <g transform="translate(34.658125 105.530171) scale(0.16 -0.16)">
       <defs>
        <path id="DejaVuSans-34" d="M 2419 4116 
L 825 1625 
L 2419 1625 
L 2419 4116 
z
M 2253 4666 
L 3047 4666 
L 3047 1625 
L 3713 1625 
L 3713 1100 
L 3047 1100 
L 3047 0 
L 2419 0 
L 2419 1100 
L 313 1100 
L 313 1709 
L 2253 4666 
z
" transform="scale(0.015625)"/>
       </defs>
       <use xlink:href="#DejaVuSans-2212"/>
       <use xlink:href="#DejaVuSans-34" x="83.789062"/>
       <use xlink:href="#DejaVuSans-30" x="147.412109"/>
       <use xlink:href="#DejaVuSans-30" x="211.035156"/>
       <use xlink:href="#DejaVuSans-30" x="274.658203"/>
      </g>
     </g>
    </g>
    <g id="ytick_6">
     <g id="line2d_17">
      <path d="M 95.785625 65.202329 
L 403.2 65.202329 
" clip-path="url(#p6dcac5ed55)" style="fill: none; stroke: #b0b0b0; stroke-width: 0.8; stroke-linecap: square"/>
     </g>
     <g id="line2d_18">
      <g>
       <use xlink:href="#m95c536c265" x="95.785625" y="65.202329" style="stroke: #000000; stroke-width: 0.8"/>
      </g>
     </g>
     <g id="text_10">
      <!-- −2000 -->
      <g transform="translate(34.658125 71.281079) scale(0.16 -0.16)">
       <use xlink:href="#DejaVuSans-2212"/>
       <use xlink:href="#DejaVuSans-32" x="83.789062"/>
       <use xlink:href="#DejaVuSans-30" x="147.412109"/>
       <use xlink:href="#DejaVuSans-30" x="211.035156"/>
       <use xlink:href="#DejaVuSans-30" x="274.658203"/>
      </g>
     </g>
    </g>
    <g id="ytick_7">
     <g id="line2d_19">
      <path d="M 95.785625 30.953237 
L 403.2 30.953237 
" clip-path="url(#p6dcac5ed55)" style="fill: none; stroke: #b0b0b0; stroke-width: 0.8; stroke-linecap: square"/>
     </g>
     <g id="line2d_20">
      <g>
       <use xlink:href="#m95c536c265" x="95.785625" y="30.953237" style="stroke: #000000; stroke-width: 0.8"/>
      </g>
     </g>
     <g id="text_11">
      <!-- 0 -->
      <g transform="translate(78.605625 37.031987) scale(0.16 -0.16)">
       <use xlink:href="#DejaVuSans-30"/>
      </g>
     </g>
    </g>
    <g id="text_12">
     <!-- Hill Y (m) -->
     <g transform="translate(18.398438 148.849687) rotate(-90) scale(0.1 -0.1)">
      <defs>
       <path id="DejaVuSans-59" d="M -13 4666 
L 666 4666 
L 1959 2747 
L 3244 4666 
L 3922 4666 
L 2272 2222 
L 2272 0 
L 1638 0 
L 1638 2222 
L -13 4666 
z
" transform="scale(0.015625)"/>
      </defs>
      <use xlink:href="#DejaVuSans-48"/>
      <use xlink:href="#DejaVuSans-69" x="75.195312"/>
      <use xlink:href="#DejaVuSans-6c" x="102.978516"/>
      <use xlink:href="#DejaVuSans-6c" x="130.761719"/>
      <use xlink:href="#DejaVuSans-20" x="158.544922"/>
      <use xlink:href="#DejaVuSans-59" x="190.332031"/>
      <use xlink:href="#DejaVuSans-20" x="251.416016"/>
      <use xlink:href="#DejaVuSans-28" x="283.203125"/>
      <use xlink:href="#DejaVuSans-6d" x="322.216797"/>
      <use xlink:href="#DejaVuSans-29" x="419.628906"/>
     </g>
    </g>
   </g>
   <g id="line2d_21">
    <path d="M 342.985678 230.549088 
L 342.666 230.560698 
L 337.60004 230.544215 
L 328.039973 230.298941 
L 319.230011 229.857967 
L 313.006684 229.334438 
L 309.483817 228.849746 
L 307.533116 228.400475 
L 306.60444 228.014284 
L 306.16988 227.625673 
L 306.025792 227.163631 
L 305.872889 226.634674 
L 305.560497 226.335679 
L 304.746284 225.960545 
L 303.326657 225.576913 
L 300.194604 225.008554 
L 292.851724 223.987207 
L 282.481483 222.499994 
L 277.429221 221.568771 
L 273.921035 220.710625 
L 271.719689 219.963954 
L 270.194714 219.198386 
L 269.419802 218.578311 
L 268.968712 217.955754 
L 268.716903 217.178591 
L 268.331572 215.483927 
L 267.88396 214.870577 
L 267.113938 214.254752 
L 265.953321 213.632534 
L 263.89805 212.838882 
L 260.552404 211.851043 
L 254.868775 210.4501 
L 244.488931 207.92002 
L 240.140127 206.6455 
L 237.073192 205.539834 
L 235.07169 204.632366 
L 233.500197 203.709453 
L 232.349705 202.775763 
L 231.578886 201.835687 
L 231.117298 200.893005 
L 230.830079 199.715259 
L 230.375617 197.370099 
L 229.918161 196.433927 
L 229.152966 195.495182 
L 228.009272 194.550096 
L 226.445262 193.594282 
L 224.451232 192.623072 
L 221.392179 191.380446 
L 216.270887 189.573569 
L 205.85875 185.972372 
L 202.209246 184.5025 
L 199.053762 182.992362 
L 196.968122 181.760344 
L 195.304738 180.511905 
L 194.058954 179.251659 
L 193.194011 177.983988 
L 192.6439 176.712714 
L 192.259868 175.122966 
L 191.58001 171.633791 
L 191.03388 170.365656 
L 190.422482 169.412423 
L 189.604489 168.45564 
L 188.158068 167.171311 
L 186.286882 165.872952 
L 184.001511 164.555964 
L 180.62926 162.877021 
L 174.405297 160.099686 
L 167.116262 156.826843 
L 163.389498 154.942405 
L 160.739544 153.404766 
L 158.459257 151.844329 
L 156.587806 150.265378 
L 155.458321 149.071746 
L 154.555078 147.872152 
L 153.669373 146.266478 
L 153.08366 144.657034 
L 152.63259 142.64409 
L 151.845568 138.622534 
L 151.262143 137.013638 
L 150.632117 135.804726 
L 149.802462 134.592242 
L 148.751186 133.374461 
L 146.984638 131.739277 
L 144.801395 130.086799 
L 142.231438 128.412628 
L 138.567983 126.283534 
L 123.349016 117.75952 
L 120.60575 115.880159 
L 118.218759 113.97718 
L 116.230458 112.054748 
L 115.009034 110.602838 
L 114.012186 109.144374 
L 113.223283 107.68114 
L 112.449329 105.725487 
L 111.916376 103.767289 
L 111.271316 100.338898 
L 109.761837 90.981726 
L 109.818522 89.491465 
L 110.107057 87.998906 
L 110.692023 86.505779 
L 111.276843 85.511157 
L 112.036624 84.5181 
L 112.985593 83.527508 
L 114.789182 82.048391 
L 117.073427 80.580616 
L 119.849792 79.128102 
L 123.109188 77.694856 
L 126.821704 76.284729 
L 132.388525 74.446551 
L 138.506832 72.662665 
L 148.259336 70.09879 
L 169.602609 64.643567 
L 175.472503 62.848303 
L 179.223009 61.453543 
L 181.462429 60.425494 
L 183.223999 59.408468 
L 184.54243 58.398687 
L 185.471558 57.392738 
L 186.082024 56.387716 
L 186.458229 55.381353 
L 186.891965 53.359277 
L 187.270488 52.003507 
L 187.768718 50.984068 
L 188.550734 49.964506 
L 189.693624 48.947467 
L 191.25893 47.936169 
L 193.289988 46.934261 
L 195.81006 45.945664 
L 198.821335 44.974403 
L 203.564691 43.713163 
L 209.044686 42.498393 
L 216.687316 41.056113 
L 226.483088 39.449178 
L 254.522293 35.036777 
L 258.712928 34.102435 
L 261.102219 33.379799 
L 262.718156 32.66952 
L 263.700524 31.963875 
L 264.237672 31.256942 
L 265.287164 29.285401 
L 265.929147 28.742658 
L 266.893431 28.201146 
L 268.250142 27.663798 
L 270.758809 26.959811 
L 274.129961 26.278449 
L 278.370174 25.629211 
L 284.79551 24.876778 
L 293.808168 24.080717 
L 305.27467 23.321695 
L 319.591953 22.623982 
L 337.992853 21.984096 
L 342.858345 21.712233 
L 344.67054 21.463828 
L 348.357212 21.322015 
L 356.055003 21.267933 
L 366.42249 21.414079 
L 375.890331 21.746178 
L 382.800047 22.180855 
L 386.902121 22.633419 
L 388.771366 23.044019 
L 389.197284 23.296464 
L 389.201496 23.464799 
L 388.993795 23.631846 
L 388.315783 23.877726 
L 386.358982 24.267516 
L 382.460013 24.753977 
L 370.927869 26.041633 
L 371.092997 26.147035 
L 372.094788 26.37025 
L 377.100739 27.318877 
L 377.528301 27.596818 
L 377.481989 27.765578 
L 377.047901 27.988869 
L 375.926859 28.258746 
L 373.452483 28.605058 
L 368.446293 29.043347 
L 360.930585 29.666017 
L 360.941867 29.682462 
L 361.281609 29.785906 
L 363.136333 30.247427 
L 363.086476 30.347187 
L 362.603048 30.494239 
L 361.026866 30.693217 
L 357.245861 30.92191 
L 353.746374 31.049421 
L 354.784143 31.129156 
L 355.337101 31.233896 
L 355.234816 31.27418 
L 354.228831 31.362704 
L 351.185118 31.412355 
L 351.448335 31.382481 
L 351.448366 31.380462 
L 351.557782 31.369003 
L 351.922927 31.366513 
L 351.851919 31.348978 
" clip-path="url(#p6dcac5ed55)" style="fill: none; stroke: #1f77b4; stroke-width: 1.5; stroke-linecap: square"/>
   </g>
   <g id="patch_3">
    <path d="M 95.785625 241.036875 
L 95.785625 10.8 
" style="fill: none; stroke: #000000; stroke-width: 0.8; stroke-linejoin: miter; stroke-linecap: square"/>
   </g>
   <g id="patch_4">
    <path d="M 403.2 241.036875 
L 403.2 10.8 
" style="fill: none; stroke: #000000; stroke-width: 0.8; stroke-linejoin: miter; stroke-linecap: square"/>
   </g>
   <g id="patch_5">
    <path d="M 95.785625 241.036875 
L 403.2 241.036875 
" style="fill: none; stroke: #000000; stroke-width: 0.8; stroke-linejoin: miter; stroke-linecap: square"/>
   </g>
   <g id="patch_6">
    <path d="M 95.785625 10.8 
L 403.2 10.8 
" style="fill: none; stroke: #000000; stroke-width: 0.8; stroke-linejoin: miter; stroke-linecap: square"/>
   </g>
  </g>
 </g>
 <defs>
  <clipPath id="p6dcac5ed55">
   <rect x="95.785625" y="10.8" width="307.414375" height="230.236875"/>
  </clipPath>
 </defs>
</svg>
