<?xml version="1.0" encoding="utf-8" standalone="no"?>
<!DOCTYPE svg PUBLIC "-//W3C//DTD SVG 1.1//EN"
  "http://www.w3.org/Graphics/SVG/1.1/DTD/svg11.dtd">
<svg xmlns:xlink="http://www.w3.org/1999/xlink" width="414pt" height="288pt" viewBox="0 0 414 288" xmlns="http://www.w3.org/2000/svg" version="1.1">
 <metadata>
  <rdf:RDF xmlns:dc="http://purl.org/dc/elements/1.1/" xmlns:cc="http://creativecommons.org/ns#" xmlns:rdf="http://www.w3.org/1999/02/22-rdf-syntax-ns#">
   <cc:Work>
    <dc:type rdf:resource="http://purl.org/dc/dcmitype/StillImage"/>
    <dc:date>2023-09-07T00:38:22.898572</dc:date>
    <dc:format>image/svg+xml</dc:format>
    <dc:creator>
     <cc:Agent>
      <dc:title>Matplotlib v3.7.2, https://matplotlib.org/</dc:title>
     </cc:Agent>
    </dc:creator>
   </cc:Work>
  </rdf:RDF>
 </metadata>
 <defs>
  <style type="text/css">*{stroke-linejoin: round; stroke-linecap: butt}</style>
 </defs>
 <g id="figure_1">
  <g id="patch_1">
   <path d="M 0 288 
L 414 288 
L 414 0 
L 0 0 
L 0 288 
z
" style="fill: none"/>
  </g>
  <g id="axes_1">
   <g id="patch_2">
    <path d="M 95.785625 241.036875 
L 390.360682 241.036875 
L 390.360682 15.340692 
L 95.785625 15.340692 
L 95.785625 241.036875 
z
" style="fill: none"/>
   </g>
   <g id="matplotlib.axis_1">
    <g id="xtick_1">
     <g id="line2d_1">
      <path d="M 109.1754 241.036875 
L 109.1754 15.340692 
" clip-path="url(#pfa2eccfb07)" style="fill: none; stroke: #b0b0b0; stroke-width: 0.8; stroke-linecap: square"/>
     </g>
     <g id="line2d_2">
      <defs>
       <path id="mfc7e8f0d1c" d="M 0 0 
L 0 3.5 
" style="stroke: #000000; stroke-width: 0.8"/>
      </defs>
      <g>
       <use xlink:href="#mfc7e8f0d1c" x="109.1754" y="241.036875" style="stroke: #000000; stroke-width: 0.8"/>
      </g>
     </g>
     <g id="text_1">
      <!-- 0 -->
      <g transform="translate(104.0854 260.194375) scale(0.16 -0.16)">
       <defs>
        <path id="DejaVuSans-30" d="M 2034 4250 
Q 1547 4250 1301 3770 
Q 1056 3291 1056 2328 
Q 1056 1369 1301 889 
Q 1547 409 2034 409 
Q 2525 409 2770 889 
Q 3016 1369 3016 2328 
Q 3016 3291 2770 3770 
Q 2525 4250 2034 4250 
z
M 2034 4750 
Q 2819 4750 3233 4129 
Q 3647 3509 3647 2328 
Q 3647 1150 3233 529 
Q 2819 -91 2034 -91 
Q 1250 -91 836 529 
Q 422 1150 422 2328 
Q 422 3509 836 4129 
Q 1250 4750 2034 4750 
z
" transform="scale(0.015625)"/>
       </defs>
       <use xlink:href="#DejaVuSans-30"/>
      </g>
     </g>
    </g>
    <g id="xtick_2">
     <g id="line2d_3">
      <path d="M 164.966131 241.036875 
L 164.966131 15.340692 
" clip-path="url(#pfa2eccfb07)" style="fill: none; stroke: #b0b0b0; stroke-width: 0.8; stroke-linecap: square"/>
     </g>
     <g id="line2d_4">
      <g>
       <use xlink:href="#mfc7e8f0d1c" x="164.966131" y="241.036875" style="stroke: #000000; stroke-width: 0.8"/>
      </g>
     </g>
     <g id="text_2">
      <!-- 25 -->
      <g transform="translate(154.786131 260.194375) scale(0.16 -0.16)">
       <defs>
        <path id="DejaVuSans-32" d="M 1228 531 
L 3431 531 
L 3431 0 
L 469 0 
L 469 531 
Q 828 903 1448 1529 
Q 2069 2156 2228 2338 
Q 2531 2678 2651 2914 
Q 2772 3150 2772 3378 
Q 2772 3750 2511 3984 
Q 2250 4219 1831 4219 
Q 1534 4219 1204 4116 
Q 875 4013 500 3803 
L 500 4441 
Q 881 4594 1212 4672 
Q 1544 4750 1819 4750 
Q 2544 4750 2975 4387 
Q 3406 4025 3406 3419 
Q 3406 3131 3298 2873 
Q 3191 2616 2906 2266 
Q 2828 2175 2409 1742 
Q 1991 1309 1228 531 
z
" transform="scale(0.015625)"/>
        <path id="DejaVuSans-35" d="M 691 4666 
L 3169 4666 
L 3169 4134 
L 1269 4134 
L 1269 2991 
Q 1406 3038 1543 3061 
Q 1681 3084 1819 3084 
Q 2600 3084 3056 2656 
Q 3513 2228 3513 1497 
Q 3513 744 3044 326 
Q 2575 -91 1722 -91 
Q 1428 -91 1123 -41 
Q 819 9 494 109 
L 494 744 
Q 775 591 1075 516 
Q 1375 441 1709 441 
Q 2250 441 2565 725 
Q 2881 1009 2881 1497 
Q 2881 1984 2565 2268 
Q 2250 2553 1709 2553 
Q 1456 2553 1204 2497 
Q 953 2441 691 2322 
L 691 4666 
z
" transform="scale(0.015625)"/>
       </defs>
       <use xlink:href="#DejaVuSans-32"/>
       <use xlink:href="#DejaVuSans-35" x="63.623047"/>
      </g>
     </g>
    </g>
    <g id="xtick_3">
     <g id="line2d_5">
      <path d="M 220.756861 241.036875 
L 220.756861 15.340692 
" clip-path="url(#pfa2eccfb07)" style="fill: none; stroke: #b0b0b0; stroke-width: 0.8; stroke-linecap: square"/>
     </g>
     <g id="line2d_6">
      <g>
       <use xlink:href="#mfc7e8f0d1c" x="220.756861" y="241.036875" style="stroke: #000000; stroke-width: 0.8"/>
      </g>
     </g>
     <g id="text_3">
      <!-- 50 -->
      <g transform="translate(210.576861 260.194375) scale(0.16 -0.16)">
       <use xlink:href="#DejaVuSans-35"/>
       <use xlink:href="#DejaVuSans-30" x="63.623047"/>
      </g>
     </g>
    </g>
    <g id="xtick_4">
     <g id="line2d_7">
      <path d="M 276.547592 241.036875 
L 276.547592 15.340692 
" clip-path="url(#pfa2eccfb07)" style="fill: none; stroke: #b0b0b0; stroke-width: 0.8; stroke-linecap: square"/>
     </g>
     <g id="line2d_8">
      <g>
       <use xlink:href="#mfc7e8f0d1c" x="276.547592" y="241.036875" style="stroke: #000000; stroke-width: 0.8"/>
      </g>
     </g>
     <g id="text_4">
      <!-- 75 -->
      <g transform="translate(266.367592 260.194375) scale(0.16 -0.16)">
       <defs>
        <path id="DejaVuSans-37" d="M 525 4666 
L 3525 4666 
L 3525 4397 
L 1831 0 
L 1172 0 
L 2766 4134 
L 525 4134 
L 525 4666 
z
" transform="scale(0.015625)"/>
       </defs>
       <use xlink:href="#DejaVuSans-37"/>
       <use xlink:href="#DejaVuSans-35" x="63.623047"/>
      </g>
     </g>
    </g>
    <g id="xtick_5">
     <g id="line2d_9">
      <path d="M 332.338322 241.036875 
L 332.338322 15.340692 
" clip-path="url(#pfa2eccfb07)" style="fill: none; stroke: #b0b0b0; stroke-width: 0.8; stroke-linecap: square"/>
     </g>
     <g id="line2d_10">
      <g>
       <use xlink:href="#mfc7e8f0d1c" x="332.338322" y="241.036875" style="stroke: #000000; stroke-width: 0.8"/>
      </g>
     </g>
     <g id="text_5">
      <!-- 100 -->
      <g transform="translate(317.068322 260.194375) scale(0.16 -0.16)">
       <defs>
        <path id="DejaVuSans-31" d="M 794 531 
L 1825 531 
L 1825 4091 
L 703 3866 
L 703 4441 
L 1819 4666 
L 2450 4666 
L 2450 531 
L 3481 531 
L 3481 0 
L 794 0 
L 794 531 
z
" transform="scale(0.015625)"/>
       </defs>
       <use xlink:href="#DejaVuSans-31"/>
       <use xlink:href="#DejaVuSans-30" x="63.623047"/>
       <use xlink:href="#DejaVuSans-30" x="127.246094"/>
      </g>
     </g>
    </g>
    <g id="xtick_6">
     <g id="line2d_11">
      <path d="M 388.129053 241.036875 
L 388.129053 15.340692 
" clip-path="url(#pfa2eccfb07)" style="fill: none; stroke: #b0b0b0; stroke-width: 0.8; stroke-linecap: square"/>
     </g>
     <g id="line2d_12">
      <g>
       <use xlink:href="#mfc7e8f0d1c" x="388.129053" y="241.036875" style="stroke: #000000; stroke-width: 0.8"/>
      </g>
     </g>
     <g id="text_6">
      <!-- 125 -->
      <g transform="translate(372.859053 260.194375) scale(0.16 -0.16)">
       <use xlink:href="#DejaVuSans-31"/>
       <use xlink:href="#DejaVuSans-32" x="63.623047"/>
       <use xlink:href="#DejaVuSans-35" x="127.246094"/>
      </g>
     </g>
    </g>
    <g id="text_7">
     <!-- Time [min] -->
     <g transform="translate(215.92081 275.120313) scale(0.1 -0.1)">
      <defs>
       <path id="DejaVuSans-54" d="M -19 4666 
L 3928 4666 
L 3928 4134 
L 2272 4134 
L 2272 0 
L 1638 0 
L 1638 4134 
L -19 4134 
L -19 4666 
z
" transform="scale(0.015625)"/>
       <path id="DejaVuSans-69" d="M 603 3500 
L 1178 3500 
L 1178 0 
L 603 0 
L 603 3500 
z
M 603 4863 
L 1178 4863 
L 1178 4134 
L 603 4134 
L 603 4863 
z
" transform="scale(0.015625)"/>
       <path id="DejaVuSans-6d" d="M 3328 2828 
Q 3544 3216 3844 3400 
Q 4144 3584 4550 3584 
Q 5097 3584 5394 3201 
Q 5691 2819 5691 2113 
L 5691 0 
L 5113 0 
L 5113 2094 
Q 5113 2597 4934 2840 
Q 4756 3084 4391 3084 
Q 3944 3084 3684 2787 
Q 3425 2491 3425 1978 
L 3425 0 
L 2847 0 
L 2847 2094 
Q 2847 2600 2669 2842 
Q 2491 3084 2119 3084 
Q 1678 3084 1418 2786 
Q 1159 2488 1159 1978 
L 1159 0 
L 581 0 
L 581 3500 
L 1159 3500 
L 1159 2956 
Q 1356 3278 1631 3431 
Q 1906 3584 2284 3584 
Q 2666 3584 2933 3390 
Q 3200 3197 3328 2828 
z
" transform="scale(0.015625)"/>
       <path id="DejaVuSans-65" d="M 3597 1894 
L 3597 1613 
L 953 1613 
Q 991 1019 1311 708 
Q 1631 397 2203 397 
Q 2534 397 2845 478 
Q 3156 559 3463 722 
L 3463 178 
Q 3153 47 2828 -22 
Q 2503 -91 2169 -91 
Q 1331 -91 842 396 
Q 353 884 353 1716 
Q 353 2575 817 3079 
Q 1281 3584 2069 3584 
Q 2775 3584 3186 3129 
Q 3597 2675 3597 1894 
z
M 3022 2063 
Q 3016 2534 2758 2815 
Q 2500 3097 2075 3097 
Q 1594 3097 1305 2825 
Q 1016 2553 972 2059 
L 3022 2063 
z
" transform="scale(0.015625)"/>
       <path id="DejaVuSans-20" transform="scale(0.015625)"/>
       <path id="DejaVuSans-5b" d="M 550 4863 
L 1875 4863 
L 1875 4416 
L 1125 4416 
L 1125 -397 
L 1875 -397 
L 1875 -844 
L 550 -844 
L 550 4863 
z
" transform="scale(0.015625)"/>
       <path id="DejaVuSans-6e" d="M 3513 2113 
L 3513 0 
L 2938 0 
L 2938 2094 
Q 2938 2591 2744 2837 
Q 2550 3084 2163 3084 
Q 1697 3084 1428 2787 
Q 1159 2491 1159 1978 
L 1159 0 
L 581 0 
L 581 3500 
L 1159 3500 
L 1159 2956 
Q 1366 3272 1645 3428 
Q 1925 3584 2291 3584 
Q 2894 3584 3203 3211 
Q 3513 2838 3513 2113 
z
" transform="scale(0.015625)"/>
       <path id="DejaVuSans-5d" d="M 1947 4863 
L 1947 -844 
L 622 -844 
L 622 -397 
L 1369 -397 
L 1369 4416 
L 622 4416 
L 622 4863 
L 1947 4863 
z
" transform="scale(0.015625)"/>
      </defs>
      <use xlink:href="#DejaVuSans-54"/>
      <use xlink:href="#DejaVuSans-69" x="57.958984"/>
      <use xlink:href="#DejaVuSans-6d" x="85.742188"/>
      <use xlink:href="#DejaVuSans-65" x="183.154297"/>
      <use xlink:href="#DejaVuSans-20" x="244.677734"/>
      <use xlink:href="#DejaVuSans-5b" x="276.464844"/>
      <use xlink:href="#DejaVuSans-6d" x="315.478516"/>
      <use xlink:href="#DejaVuSans-69" x="412.890625"/>
      <use xlink:href="#DejaVuSans-6e" x="440.673828"/>
      <use xlink:href="#DejaVuSans-5d" x="504.052734"/>
     </g>
    </g>
   </g>
   <g id="matplotlib.axis_2">
    <g id="ytick_1">
     <g id="line2d_13">
      <path d="M 95.785625 226.664393 
L 390.360682 226.664393 
" clip-path="url(#pfa2eccfb07)" style="fill: none; stroke: #b0b0b0; stroke-width: 0.8; stroke-linecap: square"/>
     </g>
     <g id="line2d_14">
      <defs>
       <path id="md86663eeb7" d="M 0 0 
L -3.5 0 
" style="stroke: #000000; stroke-width: 0.8"/>
      </defs>
      <g>
       <use xlink:href="#md86663eeb7" x="95.785625" y="226.664393" style="stroke: #000000; stroke-width: 0.8"/>
      </g>
     </g>
     <g id="text_8">
      <!-- −40000 -->
      <g transform="translate(24.478125 232.743143) scale(0.16 -0.16)">
       <defs>
        <path id="DejaVuSans-2212" d="M 678 2272 
L 4684 2272 
L 4684 1741 
L 678 1741 
L 678 2272 
z
" transform="scale(0.015625)"/>
        <path id="DejaVuSans-34" d="M 2419 4116 
L 825 1625 
L 2419 1625 
L 2419 4116 
z
M 2253 4666 
L 3047 4666 
L 3047 1625 
L 3713 1625 
L 3713 1100 
L 3047 1100 
L 3047 0 
L 2419 0 
L 2419 1100 
L 313 1100 
L 313 1709 
L 2253 4666 
z
" transform="scale(0.015625)"/>
       </defs>
       <use xlink:href="#DejaVuSans-2212"/>
       <use xlink:href="#DejaVuSans-34" x="83.789062"/>
       <use xlink:href="#DejaVuSans-30" x="147.412109"/>
       <use xlink:href="#DejaVuSans-30" x="211.035156"/>
       <use xlink:href="#DejaVuSans-30" x="274.658203"/>
       <use xlink:href="#DejaVuSans-30" x="338.28125"/>
      </g>
     </g>
    </g>
    <g id="ytick_2">
     <g id="line2d_15">
      <path d="M 95.785625 174.224807 
L 390.360682 174.224807 
" clip-path="url(#pfa2eccfb07)" style="fill: none; stroke: #b0b0b0; stroke-width: 0.8; stroke-linecap: square"/>
     </g>
     <g id="line2d_16">
      <g>
       <use xlink:href="#md86663eeb7" x="95.785625" y="174.224807" style="stroke: #000000; stroke-width: 0.8"/>
      </g>
     </g>
     <g id="text_9">
      <!-- −20000 -->
      <g transform="translate(24.478125 180.303557) scale(0.16 -0.16)">
       <use xlink:href="#DejaVuSans-2212"/>
       <use xlink:href="#DejaVuSans-32" x="83.789062"/>
       <use xlink:href="#DejaVuSans-30" x="147.412109"/>
       <use xlink:href="#DejaVuSans-30" x="211.035156"/>
       <use xlink:href="#DejaVuSans-30" x="274.658203"/>
       <use xlink:href="#DejaVuSans-30" x="338.28125"/>
      </g>
     </g>
    </g>
    <g id="ytick_3">
     <g id="line2d_17">
      <path d="M 95.785625 121.785221 
L 390.360682 121.785221 
" clip-path="url(#pfa2eccfb07)" style="fill: none; stroke: #b0b0b0; stroke-width: 0.8; stroke-linecap: square"/>
     </g>
     <g id="line2d_18">
      <g>
       <use xlink:href="#md86663eeb7" x="95.785625" y="121.785221" style="stroke: #000000; stroke-width: 0.8"/>
      </g>
     </g>
     <g id="text_10">
      <!-- 0 -->
      <g transform="translate(78.605625 127.863971) scale(0.16 -0.16)">
       <use xlink:href="#DejaVuSans-30"/>
      </g>
     </g>
    </g>
    <g id="ytick_4">
     <g id="line2d_19">
      <path d="M 95.785625 69.345636 
L 390.360682 69.345636 
" clip-path="url(#pfa2eccfb07)" style="fill: none; stroke: #b0b0b0; stroke-width: 0.8; stroke-linecap: square"/>
     </g>
     <g id="line2d_20">
      <g>
       <use xlink:href="#md86663eeb7" x="95.785625" y="69.345636" style="stroke: #000000; stroke-width: 0.8"/>
      </g>
     </g>
     <g id="text_11">
      <!-- 20000 -->
      <g transform="translate(37.885625 75.424386) scale(0.16 -0.16)">
       <use xlink:href="#DejaVuSans-32"/>
       <use xlink:href="#DejaVuSans-30" x="63.623047"/>
       <use xlink:href="#DejaVuSans-30" x="127.246094"/>
       <use xlink:href="#DejaVuSans-30" x="190.869141"/>
       <use xlink:href="#DejaVuSans-30" x="254.492188"/>
      </g>
     </g>
    </g>
    <g id="ytick_5">
     <g id="line2d_21">
      <path d="M 95.785625 16.90605 
L 390.360682 16.90605 
" clip-path="url(#pfa2eccfb07)" style="fill: none; stroke: #b0b0b0; stroke-width: 0.8; stroke-linecap: square"/>
     </g>
     <g id="line2d_22">
      <g>
       <use xlink:href="#md86663eeb7" x="95.785625" y="16.90605" style="stroke: #000000; stroke-width: 0.8"/>
      </g>
     </g>
     <g id="text_12">
      <!-- 40000 -->
      <g transform="translate(37.885625 22.9848) scale(0.16 -0.16)">
       <use xlink:href="#DejaVuSans-34"/>
       <use xlink:href="#DejaVuSans-30" x="63.623047"/>
       <use xlink:href="#DejaVuSans-30" x="127.246094"/>
       <use xlink:href="#DejaVuSans-30" x="190.869141"/>
       <use xlink:href="#DejaVuSans-30" x="254.492188"/>
      </g>
     </g>
    </g>
    <g id="text_13">
     <!-- Magnetic Field [nT] -->
     <g transform="translate(18.398438 175.929408) rotate(-90) scale(0.1 -0.1)">
      <defs>
       <path id="DejaVuSans-4d" d="M 628 4666 
L 1569 4666 
L 2759 1491 
L 3956 4666 
L 4897 4666 
L 4897 0 
L 4281 0 
L 4281 4097 
L 3078 897 
L 2444 897 
L 1241 4097 
L 1241 0 
L 628 0 
L 628 4666 
z
" transform="scale(0.015625)"/>
       <path id="DejaVuSans-61" d="M 2194 1759 
Q 1497 1759 1228 1600 
Q 959 1441 959 1056 
Q 959 750 1161 570 
Q 1363 391 1709 391 
Q 2188 391 2477 730 
Q 2766 1069 2766 1631 
L 2766 1759 
L 2194 1759 
z
M 3341 1997 
L 3341 0 
L 2766 0 
L 2766 531 
Q 2569 213 2275 61 
Q 1981 -91 1556 -91 
Q 1019 -91 701 211 
Q 384 513 384 1019 
Q 384 1609 779 1909 
Q 1175 2209 1959 2209 
L 2766 2209 
L 2766 2266 
Q 2766 2663 2505 2880 
Q 2244 3097 1772 3097 
Q 1472 3097 1187 3025 
Q 903 2953 641 2809 
L 641 3341 
Q 956 3463 1253 3523 
Q 1550 3584 1831 3584 
Q 2591 3584 2966 3190 
Q 3341 2797 3341 1997 
z
" transform="scale(0.015625)"/>
       <path id="DejaVuSans-67" d="M 2906 1791 
Q 2906 2416 2648 2759 
Q 2391 3103 1925 3103 
Q 1463 3103 1205 2759 
Q 947 2416 947 1791 
Q 947 1169 1205 825 
Q 1463 481 1925 481 
Q 2391 481 2648 825 
Q 2906 1169 2906 1791 
z
M 3481 434 
Q 3481 -459 3084 -895 
Q 2688 -1331 1869 -1331 
Q 1566 -1331 1297 -1286 
Q 1028 -1241 775 -1147 
L 775 -588 
Q 1028 -725 1275 -790 
Q 1522 -856 1778 -856 
Q 2344 -856 2625 -561 
Q 2906 -266 2906 331 
L 2906 616 
Q 2728 306 2450 153 
Q 2172 0 1784 0 
Q 1141 0 747 490 
Q 353 981 353 1791 
Q 353 2603 747 3093 
Q 1141 3584 1784 3584 
Q 2172 3584 2450 3431 
Q 2728 3278 2906 2969 
L 2906 3500 
L 3481 3500 
L 3481 434 
z
" transform="scale(0.015625)"/>
       <path id="DejaVuSans-74" d="M 1172 4494 
L 1172 3500 
L 2356 3500 
L 2356 3053 
L 1172 3053 
L 1172 1153 
Q 1172 725 1289 603 
Q 1406 481 1766 481 
L 2356 481 
L 2356 0 
L 1766 0 
Q 1100 0 847 248 
Q 594 497 594 1153 
L 594 3053 
L 172 3053 
L 172 3500 
L 594 3500 
L 594 4494 
L 1172 4494 
z
" transform="scale(0.015625)"/>
       <path id="DejaVuSans-63" d="M 3122 3366 
L 3122 2828 
Q 2878 2963 2633 3030 
Q 2388 3097 2138 3097 
Q 1578 3097 1268 2742 
Q 959 2388 959 1747 
Q 959 1106 1268 751 
Q 1578 397 2138 397 
Q 2388 397 2633 464 
Q 2878 531 3122 666 
L 3122 134 
Q 2881 22 2623 -34 
Q 2366 -91 2075 -91 
Q 1284 -91 818 406 
Q 353 903 353 1747 
Q 353 2603 823 3093 
Q 1294 3584 2113 3584 
Q 2378 3584 2631 3529 
Q 2884 3475 3122 3366 
z
" transform="scale(0.015625)"/>
       <path id="DejaVuSans-46" d="M 628 4666 
L 3309 4666 
L 3309 4134 
L 1259 4134 
L 1259 2759 
L 3109 2759 
L 3109 2228 
L 1259 2228 
L 1259 0 
L 628 0 
L 628 4666 
z
" transform="scale(0.015625)"/>
       <path id="DejaVuSans-6c" d="M 603 4863 
L 1178 4863 
L 1178 0 
L 603 0 
L 603 4863 
z
" transform="scale(0.015625)"/>
       <path id="DejaVuSans-64" d="M 2906 2969 
L 2906 4863 
L 3481 4863 
L 3481 0 
L 2906 0 
L 2906 525 
Q 2725 213 2448 61 
Q 2172 -91 1784 -91 
Q 1150 -91 751 415 
Q 353 922 353 1747 
Q 353 2572 751 3078 
Q 1150 3584 1784 3584 
Q 2172 3584 2448 3432 
Q 2725 3281 2906 2969 
z
M 947 1747 
Q 947 1113 1208 752 
Q 1469 391 1925 391 
Q 2381 391 2643 752 
Q 2906 1113 2906 1747 
Q 2906 2381 2643 2742 
Q 2381 3103 1925 3103 
Q 1469 3103 1208 2742 
Q 947 2381 947 1747 
z
" transform="scale(0.015625)"/>
      </defs>
      <use xlink:href="#DejaVuSans-4d"/>
      <use xlink:href="#DejaVuSans-61" x="86.279297"/>
      <use xlink:href="#DejaVuSans-67" x="147.558594"/>
      <use xlink:href="#DejaVuSans-6e" x="211.035156"/>
      <use xlink:href="#DejaVuSans-65" x="274.414062"/>
      <use xlink:href="#DejaVuSans-74" x="335.9375"/>
      <use xlink:href="#DejaVuSans-69" x="375.146484"/>
      <use xlink:href="#DejaVuSans-63" x="402.929688"/>
      <use xlink:href="#DejaVuSans-20" x="457.910156"/>
      <use xlink:href="#DejaVuSans-46" x="489.697266"/>
      <use xlink:href="#DejaVuSans-69" x="539.966797"/>
      <use xlink:href="#DejaVuSans-65" x="567.75"/>
      <use xlink:href="#DejaVuSans-6c" x="629.273438"/>
      <use xlink:href="#DejaVuSans-64" x="657.056641"/>
      <use xlink:href="#DejaVuSans-20" x="720.533203"/>
      <use xlink:href="#DejaVuSans-5b" x="752.320312"/>
      <use xlink:href="#DejaVuSans-6e" x="791.333984"/>
      <use xlink:href="#DejaVuSans-54" x="854.712891"/>
      <use xlink:href="#DejaVuSans-5d" x="915.796875"/>
     </g>
    </g>
   </g>
   <g id="line2d_23">
    <path d="M 109.1754 106.475996 
L 111.853355 114.869583 
L 113.192333 118.672455 
L 114.53131 122.124392 
L 115.870288 125.168865 
L 117.209265 127.758212 
L 118.548243 129.853933 
L 119.887221 131.426487 
L 121.226198 132.45468 
L 122.565176 132.924794 
L 123.904153 132.829608 
L 125.243131 132.167454 
L 126.582108 130.941475 
L 127.921086 129.159181 
L 129.260063 126.832362 
L 130.599041 123.977396 
L 131.938018 120.615884 
L 133.276996 116.775547 
L 134.615973 112.491214 
L 137.293928 102.77074 
L 139.971884 91.902257 
L 146.666771 63.667826 
L 149.344726 53.617761 
L 150.683704 49.118765 
L 152.022681 45.021835 
L 153.361659 41.347853 
L 154.700636 38.104359 
L 156.039614 35.287252 
L 157.378591 32.883083 
L 158.717569 30.871619 
L 160.056546 29.228347 
L 161.395524 27.926631 
L 162.734502 26.939362 
L 164.073479 26.240051 
L 165.412457 25.803429 
L 166.751434 25.605718 
L 168.090412 25.624756 
L 169.429389 25.840165 
L 170.768367 26.233674 
L 172.107344 26.789617 
L 173.446322 27.495561 
L 174.785299 28.342898 
L 177.463254 30.448574 
L 180.141209 33.120535 
L 182.819165 36.419366 
L 185.49712 40.414409 
L 188.175075 45.146749 
L 190.85303 50.611962 
L 193.530985 56.76424 
L 196.20894 63.526037 
L 200.225872 74.552866 
L 206.92076 93.559701 
L 209.598715 100.516844 
L 212.27667 106.62856 
L 213.615648 109.287201 
L 214.954625 111.649274 
L 216.293603 113.698385 
L 217.63258 115.423895 
L 218.971558 116.820542 
L 220.310535 117.88806 
L 221.649513 118.630889 
L 222.98849 119.058041 
L 224.327468 119.183105 
L 225.666446 119.02433 
L 227.005423 118.604642 
L 228.344401 117.951478 
L 229.683378 117.096299 
L 232.361333 114.9201 
L 236.378266 111.027629 
L 241.734176 105.779182 
L 247.090086 100.662068 
L 249.768041 97.823778 
L 252.445996 94.6176 
L 255.123951 91.033363 
L 263.157816 79.703122 
L 265.835771 76.505669 
L 268.513726 73.843619 
L 271.191682 71.704738 
L 273.869637 69.987878 
L 277.886569 67.873667 
L 284.581457 64.478126 
L 288.598389 62.411614 
L 291.276345 61.364939 
L 292.615322 61.062514 
L 293.9543 60.971394 
L 295.293277 61.140343 
L 296.632255 61.615567 
L 297.971232 62.438158 
L 299.31021 63.641803 
L 300.649187 65.250884 
L 301.988165 67.279032 
L 303.327142 69.728163 
L 304.66612 72.587987 
L 306.005097 75.835952 
L 308.683052 83.347236 
L 311.361007 91.858761 
L 316.716918 109.64718 
L 319.394873 117.687257 
L 320.73385 121.238941 
L 322.072828 124.397434 
L 323.411805 127.112652 
L 324.750783 129.343647 
L 326.08976 131.058525 
L 327.428738 132.233938 
L 328.767715 132.854264 
L 330.106693 132.910639 
L 331.44567 132.399994 
L 332.784648 131.324244 
L 334.123626 129.689754 
L 335.462603 127.507156 
L 336.801581 124.791551 
L 338.140558 121.563063 
L 339.479536 117.847681 
L 340.818513 113.678237 
L 343.496468 104.148284 
L 346.174423 93.402414 
L 354.208288 59.84138 
L 356.886244 50.283781 
L 358.225221 46.076697 
L 359.564199 42.288335 
L 360.903176 38.929668 
L 362.242154 35.999503 
L 363.581131 33.486644 
L 364.920109 31.37242 
L 366.259086 29.633234 
L 367.598064 28.242831 
L 368.937041 27.1741 
L 370.276019 26.40031 
L 371.614996 25.895828 
L 372.953974 25.636463 
L 374.292951 25.599609 
L 375.631929 25.764387 
L 376.970907 26.11192 
L 376.970907 26.11192 
" clip-path="url(#pfa2eccfb07)" style="fill: none; stroke: #2b737e; stroke-width: 1.5; stroke-linecap: square"/>
   </g>
   <g id="line2d_24">
    <path d="M 109.1754 105.434066 
L 110.514378 111.181473 
L 113.192333 124.119473 
L 115.870288 138.451105 
L 123.904153 183.021285 
L 126.582108 196.350517 
L 129.260063 208.061982 
L 130.599041 213.174666 
L 131.938018 217.723656 
L 133.276996 221.660543 
L 134.615973 224.940055 
L 135.954951 227.521432 
L 137.293928 229.370279 
L 138.632906 230.460766 
L 139.971884 230.777958 
L 141.310861 230.319984 
L 142.649839 229.099774 
L 143.988816 227.146046 
L 145.327794 224.503337 
L 146.666771 221.230936 
L 148.005749 217.400714 
L 149.344726 213.094 
L 152.022681 203.400536 
L 156.039614 187.430196 
L 161.395524 166.20554 
L 164.073479 156.300802 
L 166.751434 147.028297 
L 169.429389 138.406242 
L 172.107344 130.403307 
L 174.785299 122.960774 
L 177.463254 116.025031 
L 180.141209 109.587665 
L 182.819165 103.714149 
L 185.49712 98.542789 
L 186.836097 96.276342 
L 188.175075 94.254184 
L 189.514052 92.498945 
L 190.85303 91.03168 
L 192.192007 89.871677 
L 193.530985 89.036595 
L 194.869962 88.542725 
L 196.20894 88.405174 
L 197.547917 88.637771 
L 198.886895 89.252561 
L 200.225872 90.258879 
L 201.56485 91.662085 
L 202.903827 93.462141 
L 204.242805 95.652296 
L 205.581783 98.218097 
L 206.92076 101.136951 
L 209.598715 107.904617 
L 212.27667 115.634603 
L 216.293603 128.189071 
L 220.310535 140.72986 
L 222.98849 148.49388 
L 225.666446 155.421227 
L 227.005423 158.489631 
L 228.344401 161.260023 
L 229.683378 163.714355 
L 231.022356 165.84238 
L 232.361333 167.642633 
L 233.700311 169.12289 
L 235.039288 170.299967 
L 236.378266 171.198747 
L 237.717243 171.850466 
L 239.056221 172.290349 
L 240.395198 172.554791 
L 243.073153 172.690789 
L 245.751108 172.463411 
L 248.429064 171.939253 
L 251.107019 171.034173 
L 252.445996 170.382133 
L 253.784974 169.561508 
L 255.123951 168.547809 
L 256.462929 167.321877 
L 257.801906 165.872167 
L 259.140884 164.196175 
L 260.479861 162.300859 
L 263.157816 157.923276 
L 265.835771 152.944264 
L 271.191682 142.18419 
L 276.547592 131.577212 
L 288.598389 108.378762 
L 296.632255 91.834737 
L 297.971232 89.43265 
L 299.31021 87.29806 
L 300.649187 85.504335 
L 301.988165 84.124421 
L 303.327142 83.228054 
L 304.66612 82.879149 
L 306.005097 83.133455 
L 307.344075 84.036519 
L 308.683052 85.621973 
L 310.02203 87.910181 
L 311.361007 90.907263 
L 312.699985 94.604559 
L 314.038963 98.978568 
L 315.37794 103.991419 
L 316.716918 109.591903 
L 319.394873 122.294052 
L 322.072828 136.478534 
L 331.44567 188.062304 
L 334.123626 200.851615 
L 335.462603 206.605587 
L 336.801581 211.860513 
L 338.140558 216.565106 
L 339.479536 220.670278 
L 340.818513 224.129808 
L 342.157491 226.901563 
L 343.496468 228.949243 
L 344.835446 230.2445 
L 346.174423 230.769259 
L 347.513401 230.517965 
L 348.852378 229.499455 
L 350.191356 227.73818 
L 351.530333 225.274503 
L 352.869311 222.163938 
L 354.208288 218.475259 
L 355.547266 214.287619 
L 358.225221 204.76155 
L 362.242154 188.879894 
L 367.598064 167.574069 
L 370.276019 157.589785 
L 372.953974 148.230355 
L 375.631929 139.52225 
L 376.970907 135.405857 
L 376.970907 135.405857 
" clip-path="url(#pfa2eccfb07)" style="fill: none; stroke: #5ea04b; stroke-width: 1.5; stroke-linecap: square"/>
   </g>
   <g id="line2d_25">
    <path d="M 109.1754 45.233999 
L 110.514378 42.872608 
L 111.853355 41.13591 
L 113.192333 40.048479 
L 114.53131 39.622532 
L 115.870288 39.858416 
L 117.209265 40.745563 
L 118.548243 42.263801 
L 119.887221 44.384895 
L 121.226198 47.074148 
L 122.565176 50.291923 
L 123.904153 53.99495 
L 125.243131 58.137335 
L 127.921086 67.54698 
L 130.599041 78.117103 
L 134.615973 95.181542 
L 138.632906 112.209071 
L 141.310861 122.646896 
L 143.988816 131.752316 
L 145.327794 135.672183 
L 146.666771 139.118359 
L 148.005749 142.067012 
L 149.344726 144.507322 
L 150.683704 146.441328 
L 152.022681 147.88294 
L 153.361659 148.856213 
L 154.700636 149.393087 
L 156.039614 149.530869 
L 157.378591 149.309721 
L 158.717569 148.770424 
L 160.056546 147.952579 
L 161.395524 146.893343 
L 162.734502 145.626664 
L 165.412457 142.588885 
L 168.090412 139.038343 
L 170.768367 135.114018 
L 173.446322 130.890021 
L 176.124277 126.373657 
L 178.802232 121.519363 
L 181.480187 116.263766 
L 184.158142 110.570297 
L 188.175075 101.278078 
L 200.225872 72.321263 
L 202.903827 66.979983 
L 204.242805 64.649427 
L 205.581783 62.588902 
L 206.92076 60.826831 
L 208.259738 59.386609 
L 209.598715 58.285469 
L 210.937693 57.533832 
L 212.27667 57.135201 
L 213.615648 57.086573 
L 214.954625 57.379246 
L 216.293603 57.999864 
L 217.63258 58.9315 
L 218.971558 60.15462 
L 220.310535 61.647782 
L 221.649513 63.388044 
L 224.327468 67.5112 
L 227.005423 72.312055 
L 231.022356 80.267717 
L 236.378266 91.068769 
L 240.395198 98.645513 
L 244.412131 105.729172 
L 253.784974 121.626622 
L 256.462929 125.866402 
L 259.140884 129.673318 
L 261.818839 132.86099 
L 263.157816 134.181361 
L 264.496794 135.308205 
L 265.835771 136.239992 
L 267.174749 136.97995 
L 268.513726 137.535044 
L 269.852704 137.914769 
L 271.191682 138.12994 
L 272.530659 138.191563 
L 273.869637 138.10987 
L 275.208614 137.893493 
L 276.547592 137.548772 
L 277.886569 137.07912 
L 279.225547 136.484432 
L 280.564524 135.760525 
L 281.903502 134.898651 
L 283.242479 133.88518 
L 284.581457 132.701567 
L 285.920434 131.324712 
L 287.259412 129.72781 
L 288.598389 127.881725 
L 289.937367 125.756845 
L 291.276345 123.325316 
L 292.615322 120.563468 
L 293.9543 117.454242 
L 295.293277 113.989383 
L 296.632255 110.171223 
L 299.31021 101.543897 
L 301.988165 91.832806 
L 310.02203 61.251065 
L 311.361007 56.773827 
L 312.699985 52.688482 
L 314.038963 49.065561 
L 315.37794 45.966944 
L 316.716918 43.444236 
L 318.055895 41.537547 
L 319.394873 40.274772 
L 320.73385 39.671406 
L 322.072828 39.730895 
L 323.411805 40.445474 
L 324.750783 41.797394 
L 326.08976 43.760422 
L 327.428738 46.301432 
L 328.767715 49.38197 
L 330.106693 52.959625 
L 331.44567 56.989126 
L 334.123626 66.212374 
L 336.801581 76.651783 
L 340.818513 93.635836 
L 344.835446 110.739199 
L 347.513401 121.317885 
L 350.191356 130.628071 
L 351.530333 134.668979 
L 352.869311 138.244701 
L 354.208288 141.328014 
L 355.547266 143.904596 
L 356.886244 145.973111 
L 358.225221 147.544435 
L 359.564199 148.640114 
L 360.903176 149.29022 
L 362.242154 149.530876 
L 363.581131 149.401715 
L 364.920109 148.943549 
L 366.259086 148.196441 
L 367.598064 147.198296 
L 368.937041 145.983968 
L 371.614996 143.02856 
L 374.292951 139.537184 
L 376.970907 135.657069 
L 376.970907 135.657069 
" clip-path="url(#pfa2eccfb07)" style="fill: none; stroke: #bdab62; stroke-width: 1.5; stroke-linecap: square"/>
   </g>
   <g id="patch_3">
    <path d="M 95.785625 241.036875 
L 95.785625 15.340692 
" style="fill: none; stroke: #000000; stroke-width: 0.8; stroke-linejoin: miter; stroke-linecap: square"/>
   </g>
   <g id="patch_4">
    <path d="M 390.360682 241.036875 
L 390.360682 15.340692 
" style="fill: none; stroke: #000000; stroke-width: 0.8; stroke-linejoin: miter; stroke-linecap: square"/>
   </g>
   <g id="patch_5">
    <path d="M 95.785625 241.036875 
L 390.360682 241.036875 
" style="fill: none; stroke: #000000; stroke-width: 0.8; stroke-linejoin: miter; stroke-linecap: square"/>
   </g>
   <g id="patch_6">
    <path d="M 95.785625 15.340692 
L 390.360682 15.340692 
" style="fill: none; stroke: #000000; stroke-width: 0.8; stroke-linejoin: miter; stroke-linecap: square"/>
   </g>
   <g id="legend_1">
    <g id="patch_7">
     <path d="M 333.570682 236.536875 
L 384.060682 236.536875 
Q 385.860682 236.536875 385.860682 234.736875 
L 385.860682 195.141094 
Q 385.860682 193.341094 384.060682 193.341094 
L 333.570682 193.341094 
Q 331.770682 193.341094 331.770682 195.141094 
L 331.770682 234.736875 
Q 331.770682 236.536875 333.570682 236.536875 
z
" style="fill: #ffffff; opacity: 0.8; stroke: #cccccc; stroke-linejoin: miter"/>
    </g>
    <g id="line2d_26">
     <path d="M 335.370682 200.629687 
L 344.370682 200.629687 
L 353.370682 200.629687 
" style="fill: none; stroke: #2b737e; stroke-width: 1.5; stroke-linecap: square"/>
    </g>
    <g id="text_14">
     <!-- $B\_N_{0}$ -->
     <g transform="translate(360.570682 203.779687) scale(0.09 -0.09)">
      <defs>
       <path id="DejaVuSans-Oblique-42" d="M 1081 4666 
L 2694 4666 
Q 3350 4666 3675 4422 
Q 4000 4178 4000 3688 
Q 4000 3238 3720 2911 
Q 3441 2584 2988 2516 
Q 3375 2428 3569 2181 
Q 3763 1934 3763 1522 
Q 3763 819 3242 409 
Q 2722 0 1819 0 
L 172 0 
L 1081 4666 
z
M 1234 2228 
L 903 519 
L 1919 519 
Q 2491 519 2800 781 
Q 3109 1044 3109 1522 
Q 3109 1891 2904 2059 
Q 2700 2228 2247 2228 
L 1234 2228 
z
M 1606 4147 
L 1331 2741 
L 2272 2741 
Q 2775 2741 3058 2959 
Q 3341 3178 3341 3566 
Q 3341 3869 3150 4008 
Q 2959 4147 2541 4147 
L 1606 4147 
z
" transform="scale(0.015625)"/>
       <path id="DejaVuSans-5f" d="M 3263 -1063 
L 3263 -1509 
L -63 -1509 
L -63 -1063 
L 3263 -1063 
z
" transform="scale(0.015625)"/>
       <path id="DejaVuSans-Oblique-4e" d="M 1081 4666 
L 1931 4666 
L 3219 666 
L 4000 4666 
L 4616 4666 
L 3706 0 
L 2853 0 
L 1569 4025 
L 788 0 
L 172 0 
L 1081 4666 
z
" transform="scale(0.015625)"/>
      </defs>
      <use xlink:href="#DejaVuSans-Oblique-42" transform="translate(0 0.09375)"/>
      <use xlink:href="#DejaVuSans-5f" transform="translate(68.603516 0.09375)"/>
      <use xlink:href="#DejaVuSans-Oblique-4e" transform="translate(118.603516 0.09375)"/>
      <use xlink:href="#DejaVuSans-30" transform="translate(193.408203 -16.3125) scale(0.7)"/>
     </g>
    </g>
    <g id="line2d_27">
     <path d="M 335.370682 214.128281 
L 344.370682 214.128281 
L 353.370682 214.128281 
" style="fill: none; stroke: #5ea04b; stroke-width: 1.5; stroke-linecap: square"/>
    </g>
    <g id="text_15">
     <!-- $B\_N_{1}$ -->
     <g transform="translate(360.570682 217.278281) scale(0.09 -0.09)">
      <use xlink:href="#DejaVuSans-Oblique-42" transform="translate(0 0.09375)"/>
      <use xlink:href="#DejaVuSans-5f" transform="translate(68.603516 0.09375)"/>
      <use xlink:href="#DejaVuSans-Oblique-4e" transform="translate(118.603516 0.09375)"/>
      <use xlink:href="#DejaVuSans-31" transform="translate(193.408203 -16.3125) scale(0.7)"/>
     </g>
    </g>
    <g id="line2d_28">
     <path d="M 335.370682 227.626875 
L 344.370682 227.626875 
L 353.370682 227.626875 
" style="fill: none; stroke: #bdab62; stroke-width: 1.5; stroke-linecap: square"/>
    </g>
    <g id="text_16">
     <!-- $B\_N_{2}$ -->
     <g transform="translate(360.570682 230.776875) scale(0.09 -0.09)">
      <use xlink:href="#DejaVuSans-Oblique-42" transform="translate(0 0.09375)"/>
      <use xlink:href="#DejaVuSans-5f" transform="translate(68.603516 0.09375)"/>
      <use xlink:href="#DejaVuSans-Oblique-4e" transform="translate(118.603516 0.09375)"/>
      <use xlink:href="#DejaVuSans-32" transform="translate(193.408203 -16.3125) scale(0.7)"/>
     </g>
    </g>
   </g>
  </g>
 </g>
 <defs>
  <clipPath id="pfa2eccfb07">
   <rect x="95.785625" y="15.340692" width="294.575057" height="225.696183"/>
  </clipPath>
 </defs>
</svg>
